M48
; DRILL file {KiCad (5.1.9)-1} date 05/13/21 22:29:49
; FORMAT={-:-/ absolute / inch / decimal}
; #@! TF.CreationDate,2021-05-13T22:29:49-07:00
; #@! TF.GenerationSoftware,Kicad,Pcbnew,(5.1.9)-1
; #@! TF.FileFunction,NonPlated,1,2,NPTH
FMAT,2
INCH
T1C0.0670
T2C0.1181
T3C0.1200
T4C0.1570
%
G90
G05
T1
X1.145Y-3.755
X1.145Y-6.755
X1.2354Y-4.5046
X1.3354Y-5.2546
X1.5254Y-6.0046
X1.545Y-3.755
X1.545Y-6.755
X1.6354Y-4.5046
X1.7354Y-5.2546
X1.895Y-3.755
X1.895Y-6.755
X1.9254Y-6.0046
X2.085Y-4.505
X2.275Y-5.255
X2.295Y-3.755
X2.295Y-6.755
X2.485Y-4.505
X2.645Y-3.755
X2.655Y-6.005
X2.675Y-5.255
X2.835Y-4.505
X2.8354Y-6.7546
X3.025Y-5.255
X3.045Y-3.755
X3.055Y-6.005
X3.235Y-4.505
X3.2354Y-6.7546
X3.395Y-3.755
X3.405Y-6.005
X3.425Y-5.255
X3.585Y-4.505
X3.775Y-5.255
X3.775Y-6.755
X3.795Y-3.755
X3.805Y-6.005
X3.985Y-4.505
X4.145Y-3.755
X4.155Y-6.005
X4.175Y-5.255
X4.175Y-6.755
X4.335Y-4.505
X4.525Y-5.255
X4.545Y-3.755
X4.555Y-6.005
X4.735Y-4.505
X4.895Y-3.755
X4.905Y-6.005
X4.925Y-5.255
X4.9954Y-6.7546
X5.085Y-4.505
X5.265Y-5.255
X5.295Y-3.755
X5.305Y-6.005
X5.3954Y-6.7546
X5.485Y-4.505
X5.645Y-3.755
X5.655Y-6.005
X5.665Y-5.255
X5.835Y-4.505
X6.015Y-5.255
X6.045Y-3.755
X6.055Y-6.005
X6.215Y-6.755
X6.235Y-4.505
X6.395Y-3.755
X6.405Y-6.005
X6.415Y-5.255
X6.585Y-4.505
X6.615Y-6.755
X6.765Y-5.255
X6.795Y-3.755
X6.805Y-6.005
X6.965Y-6.755
X6.985Y-4.505
X7.145Y-3.755
X7.155Y-6.005
X7.165Y-5.255
X7.335Y-4.505
X7.365Y-6.755
X7.515Y-5.255
X7.545Y-3.755
X7.555Y-6.005
X7.735Y-4.505
X7.895Y-3.755
X7.905Y-6.005
X7.915Y-5.255
X8.085Y-4.505
X8.1854Y-6.7546
X8.265Y-5.255
X8.295Y-3.755
X8.305Y-6.005
X8.485Y-4.505
X8.5854Y-6.7546
X8.645Y-3.755
X8.655Y-6.005
X8.665Y-5.255
X8.835Y-4.505
X9.015Y-5.255
X9.045Y-3.755
X9.055Y-6.005
X9.235Y-4.505
X9.395Y-3.755
X9.405Y-6.005
X9.415Y-5.255
X9.4954Y-6.7546
X9.585Y-4.505
X9.765Y-5.255
X9.795Y-3.755
X9.805Y-6.005
X9.8954Y-6.7546
X9.985Y-4.505
X10.145Y-3.755
X10.165Y-5.255
X10.335Y-4.505
X10.345Y-6.755
X10.545Y-3.755
X10.6254Y-6.0046
X10.735Y-4.505
X10.745Y-6.755
X10.8054Y-5.2546
X10.9854Y-3.7546
X11.0254Y-6.0046
X11.085Y-4.505
X11.095Y-6.755
X11.2054Y-5.2546
X11.3854Y-3.7546
X11.485Y-4.505
X11.495Y-6.755
X12.595Y-3.765
X12.595Y-4.515
X12.595Y-5.265
X12.595Y-6.015
X12.595Y-6.765
X12.995Y-3.765
X12.995Y-4.515
X12.995Y-5.265
X12.995Y-6.015
X12.995Y-6.765
X13.345Y-3.765
X13.345Y-4.515
X13.345Y-5.265
X13.345Y-6.015
X13.345Y-6.765
X13.745Y-3.765
X13.745Y-4.515
X13.745Y-5.265
X13.745Y-6.015
X13.745Y-6.765
X14.095Y-3.765
X14.095Y-4.515
X14.095Y-5.265
X14.095Y-6.015
X14.095Y-6.765
X14.495Y-3.765
X14.495Y-4.515
X14.495Y-5.265
X14.495Y-6.015
X14.495Y-6.765
X14.845Y-3.765
X14.845Y-4.515
X14.845Y-5.265
X14.845Y-6.015
X14.845Y-6.765
X15.245Y-3.765
X15.245Y-4.515
X15.245Y-5.265
X15.245Y-6.015
X15.245Y-6.765
T2
X1.195Y-3.655
X1.195Y-6.655
X1.2854Y-4.4046
X1.3854Y-5.1546
X1.445Y-3.555
X1.445Y-6.555
X1.5354Y-4.3046
X1.5754Y-5.9046
X1.6354Y-5.0546
X1.8254Y-5.8046
X1.945Y-3.655
X1.945Y-6.655
X2.135Y-4.405
X2.195Y-3.555
X2.195Y-6.555
X2.325Y-5.155
X2.385Y-4.305
X2.575Y-5.055
X2.695Y-3.655
X2.705Y-5.905
X2.885Y-4.405
X2.8854Y-6.6546
X2.945Y-3.555
X2.955Y-5.805
X3.075Y-5.155
X3.135Y-4.305
X3.1354Y-6.5546
X3.325Y-5.055
X3.445Y-3.655
X3.455Y-5.905
X3.635Y-4.405
X3.695Y-3.555
X3.705Y-5.805
X3.825Y-5.155
X3.825Y-6.655
X3.885Y-4.305
X4.075Y-5.055
X4.075Y-6.555
X4.195Y-3.655
X4.205Y-5.905
X4.385Y-4.405
X4.445Y-3.555
X4.455Y-5.805
X4.575Y-5.155
X4.635Y-4.305
X4.825Y-5.055
X4.945Y-3.655
X4.955Y-5.905
X5.0454Y-6.6546
X5.135Y-4.405
X5.195Y-3.555
X5.205Y-5.805
X5.2954Y-6.5546
X5.315Y-5.155
X5.385Y-4.305
X5.565Y-5.055
X5.695Y-3.655
X5.705Y-5.905
X5.885Y-4.405
X5.945Y-3.555
X5.955Y-5.805
X6.065Y-5.155
X6.135Y-4.305
X6.265Y-6.655
X6.315Y-5.055
X6.445Y-3.655
X6.455Y-5.905
X6.515Y-6.555
X6.635Y-4.405
X6.695Y-3.555
X6.705Y-5.805
X6.815Y-5.155
X6.885Y-4.305
X7.015Y-6.655
X7.065Y-5.055
X7.195Y-3.655
X7.205Y-5.905
X7.265Y-6.555
X7.385Y-4.405
X7.445Y-3.555
X7.455Y-5.805
X7.565Y-5.155
X7.635Y-4.305
X7.815Y-5.055
X7.945Y-3.655
X7.955Y-5.905
X8.135Y-4.405
X8.195Y-3.555
X8.205Y-5.805
X8.2354Y-6.6546
X8.315Y-5.155
X8.385Y-4.305
X8.4854Y-6.5546
X8.565Y-5.055
X8.695Y-3.655
X8.705Y-5.905
X8.885Y-4.405
X8.945Y-3.555
X8.955Y-5.805
X9.065Y-5.155
X9.135Y-4.305
X9.315Y-5.055
X9.445Y-3.655
X9.455Y-5.905
X9.5454Y-6.6546
X9.635Y-4.405
X9.695Y-3.555
X9.705Y-5.805
X9.7954Y-6.5546
X9.815Y-5.155
X9.885Y-4.305
X10.065Y-5.055
X10.195Y-3.655
X10.385Y-4.405
X10.395Y-6.655
X10.445Y-3.555
X10.635Y-4.305
X10.645Y-6.555
X10.6754Y-5.9046
X10.8554Y-5.1546
X10.9254Y-5.8046
X11.0354Y-3.6546
X11.1054Y-5.0546
X11.135Y-4.405
X11.145Y-6.655
X11.2854Y-3.5546
X11.385Y-4.305
X11.395Y-6.555
X12.645Y-3.665
X12.645Y-4.415
X12.645Y-5.165
X12.645Y-5.915
X12.645Y-6.665
X12.895Y-3.565
X12.895Y-4.315
X12.895Y-5.065
X12.895Y-5.815
X12.895Y-6.565
X13.395Y-3.665
X13.395Y-4.415
X13.395Y-5.165
X13.395Y-5.915
X13.395Y-6.665
X13.645Y-3.565
X13.645Y-4.315
X13.645Y-5.065
X13.645Y-5.815
X13.645Y-6.565
X14.145Y-3.665
X14.145Y-4.415
X14.145Y-5.165
X14.145Y-5.915
X14.145Y-6.665
X14.395Y-3.565
X14.395Y-4.315
X14.395Y-5.065
X14.395Y-5.815
X14.395Y-6.565
X14.895Y-3.665
X14.895Y-4.415
X14.895Y-5.165
X14.895Y-5.915
X14.895Y-6.665
X15.145Y-3.565
X15.145Y-4.315
X15.145Y-5.065
X15.145Y-5.815
X15.145Y-6.565
T3
X1.255Y-5.73
X2.195Y-5.73
X4.725Y-6.48
X5.665Y-6.48
X7.915Y-6.48
X8.855Y-6.48
X10.355Y-5.73
X11.295Y-5.73
T4
X1.255Y-6.33
X1.345Y-3.755
X1.345Y-6.755
X1.4354Y-4.5046
X1.5354Y-5.2546
X1.7254Y-6.0046
X2.095Y-3.755
X2.095Y-6.755
X2.195Y-6.33
X2.285Y-4.505
X2.475Y-5.255
X2.845Y-3.755
X2.855Y-6.005
X3.035Y-4.505
X3.0354Y-6.7546
X3.225Y-5.255
X3.595Y-3.755
X3.605Y-6.005
X3.785Y-4.505
X3.975Y-5.255
X3.975Y-6.755
X4.345Y-3.755
X4.355Y-6.005
X4.535Y-4.505
X4.725Y-5.255
X4.725Y-7.08
X5.095Y-3.755
X5.105Y-6.005
X5.1954Y-6.7546
X5.285Y-4.505
X5.465Y-5.255
X5.665Y-7.08
X5.845Y-3.755
X5.855Y-6.005
X6.035Y-4.505
X6.215Y-5.255
X6.415Y-6.755
X6.595Y-3.755
X6.605Y-6.005
X6.785Y-4.505
X6.965Y-5.255
X7.165Y-6.755
X7.345Y-3.755
X7.355Y-6.005
X7.535Y-4.505
X7.715Y-5.255
X7.915Y-7.08
X8.095Y-3.755
X8.105Y-6.005
X8.285Y-4.505
X8.3854Y-6.7546
X8.465Y-5.255
X8.845Y-3.755
X8.855Y-6.005
X8.855Y-7.08
X9.035Y-4.505
X9.215Y-5.255
X9.595Y-3.755
X9.605Y-6.005
X9.6954Y-6.7546
X9.785Y-4.505
X9.965Y-5.255
X10.345Y-3.755
X10.355Y-6.33
X10.535Y-4.505
X10.545Y-6.755
X10.8254Y-6.0046
X11.0054Y-5.2546
X11.1854Y-3.7546
X11.285Y-4.505
X11.295Y-6.33
X11.295Y-6.755
X12.795Y-3.765
X12.795Y-4.515
X12.795Y-5.265
X12.795Y-6.015
X12.795Y-6.765
X13.545Y-3.765
X13.545Y-4.515
X13.545Y-5.265
X13.545Y-6.015
X13.545Y-6.765
X14.295Y-3.765
X14.295Y-4.515
X14.295Y-5.265
X14.295Y-6.015
X14.295Y-6.765
X15.045Y-3.765
X15.045Y-4.515
X15.045Y-5.265
X15.045Y-6.015
X15.045Y-6.765
T2
G00X1.3548Y-3.9511
M15
G01X1.3352Y-3.9511
M16
G05
G00X1.3548Y-6.9375
M15
G01X1.3352Y-6.9375
M16
G05
G00X1.4448Y-4.6861
M15
G01X1.4252Y-4.6861
M16
G05
G00X1.5398Y-5.4261
M15
G01X1.5202Y-5.4261
M16
G05
G00X1.7398Y-6.22
M15
G01X1.7202Y-6.22
M16
G05
G00X2.1038Y-3.9511
M15
G01X2.0842Y-3.9511
M16
G05
G00X2.1048Y-6.9325
M15
G01X2.0852Y-6.9325
M16
G05
G00X2.2938Y-4.6861
M15
G01X2.2742Y-4.6861
M16
G05
G00X2.4848Y-5.4361
M15
G01X2.4652Y-5.4361
M16
G05
G00X2.8498Y-3.9511
M15
G01X2.8302Y-3.9511
M16
G05
G00X2.8648Y-6.1851
M15
G01X2.8452Y-6.1851
M16
G05
G00X3.0448Y-4.6851
M15
G01X3.0252Y-4.6851
M16
G05
G00X3.0498Y-6.9661
M15
G01X3.0302Y-6.9661
M16
G05
G00X3.2348Y-5.4361
M15
G01X3.2152Y-5.4361
M16
G05
G00X3.6058Y-3.9511
M15
G01X3.5862Y-3.9511
M16
G05
G00X3.6148Y-6.1851
M15
G01X3.5952Y-6.1851
M16
G05
G00X3.7948Y-4.6831
M15
G01X3.7752Y-4.6831
M16
G05
G00X3.9839Y-5.4351
M15
G01X3.9642Y-5.4351
M16
G05
G00X3.9848Y-6.9365
M15
G01X3.9652Y-6.9365
M16
G05
G00X4.3548Y-3.9511
M15
G01X4.3352Y-3.9511
M16
G05
G00X4.3648Y-6.1861
M15
G01X4.3452Y-6.1861
M16
G05
G00X4.5439Y-4.6835
M15
G01X4.5242Y-4.6835
M16
G05
G00X4.7348Y-5.4361
M15
G01X4.7152Y-5.4361
M16
G05
G00X5.1048Y-3.9511
M15
G01X5.0852Y-3.9511
M16
G05
G00X5.1148Y-6.1861
M15
G01X5.0952Y-6.1861
M16
G05
G00X5.2058Y-6.9555
M15
G01X5.1861Y-6.9555
M16
G05
G00X5.2948Y-4.6845
M15
G01X5.2752Y-4.6845
M16
G05
G00X5.4758Y-5.4361
M15
G01X5.4561Y-5.4361
M16
G05
G00X5.8548Y-3.9511
M15
G01X5.8352Y-3.9511
M16
G05
G00X5.8639Y-6.1861
M15
G01X5.8442Y-6.1861
M16
G05
G00X6.0448Y-4.6841
M15
G01X6.0252Y-4.6841
M16
G05
G00X6.2258Y-5.437
M15
G01X6.2061Y-5.437
M16
G05
G00X6.4258Y-6.9361
M15
G01X6.4061Y-6.9361
M16
G05
G00X6.6048Y-3.9511
M15
G01X6.5852Y-3.9511
M16
G05
G00X6.6148Y-6.1861
M15
G01X6.5952Y-6.1861
M16
G05
G00X6.7958Y-4.6845
M15
G01X6.7761Y-4.6845
M16
G05
G00X6.9748Y-5.4365
M15
G01X6.9552Y-5.4365
M16
G05
G00X7.1748Y-6.9345
M15
G01X7.1552Y-6.9345
M16
G05
G00X7.3548Y-3.9511
M15
G01X7.3352Y-3.9511
M16
G05
G00X7.3648Y-6.1851
M15
G01X7.3452Y-6.1851
M16
G05
G00X7.5458Y-4.6825
M15
G01X7.5261Y-4.6825
M16
G05
G00X7.7239Y-5.437
M15
G01X7.7042Y-5.437
M16
G05
G00X8.1039Y-3.9511
M15
G01X8.0842Y-3.9511
M16
G05
G00X8.1139Y-6.1861
M15
G01X8.0942Y-6.1861
M16
G05
G00X8.2948Y-4.6835
M15
G01X8.2752Y-4.6835
M16
G05
G00X8.4028Y-6.962
M15
G01X8.3831Y-6.962
M16
G05
G00X8.4758Y-5.4351
M15
G01X8.4561Y-5.4351
M16
G05
G00X8.8548Y-3.9511
M15
G01X8.8352Y-3.9511
M16
G05
G00X8.8648Y-6.1861
M15
G01X8.8452Y-6.1861
M16
G05
G00X9.0448Y-4.6855
M15
G01X9.0252Y-4.6855
M16
G05
G00X9.2248Y-5.4361
M15
G01X9.2052Y-5.4361
M16
G05
G00X9.6039Y-3.9511
M15
G01X9.5842Y-3.9511
M16
G05
G00X9.6148Y-6.1851
M15
G01X9.5952Y-6.1851
M16
G05
G00X9.7048Y-6.9585
M15
G01X9.6852Y-6.9585
M16
G05
G00X9.7948Y-4.6845
M15
G01X9.7752Y-4.6845
M16
G05
G00X9.9748Y-5.4355
M15
G01X9.9552Y-5.4355
M16
G05
G00X10.3548Y-3.9511
M15
G01X10.3352Y-3.9511
M16
G05
G00X10.5448Y-4.6855
M15
G01X10.5252Y-4.6855
M16
G05
G00X10.5548Y-6.9361
M15
G01X10.5352Y-6.9361
M16
G05
G00X10.8298Y-6.2111
M15
G01X10.8102Y-6.2111
M16
G05
G00X11.0169Y-5.4525
M15
G01X10.9972Y-5.4525
M16
G05
G00X11.1939Y-3.9511
M15
G01X11.1742Y-3.9511
M16
G05
G00X11.2948Y-4.6855
M15
G01X11.2752Y-4.6855
M16
G05
G00X11.3058Y-6.9365
M15
G01X11.2861Y-6.9365
M16
G05
G00X12.8028Y-6.1945
M15
G01X12.7831Y-6.1945
M16
G05
G00X12.8039Y-3.9461
M15
G01X12.7842Y-3.9461
M16
G05
G00X12.8048Y-4.6961
M15
G01X12.7852Y-4.6961
M16
G05
G00X12.8048Y-6.9445
M15
G01X12.7852Y-6.9445
M16
G05
G00X12.8069Y-5.4445
M15
G01X12.7872Y-5.4445
M16
G05
G00X13.5548Y-3.9461
M15
G01X13.5352Y-3.9461
M16
G05
G00X13.5548Y-6.1935
M15
G01X13.5352Y-6.1935
M16
G05
G00X13.5548Y-6.9445
M15
G01X13.5352Y-6.9445
M16
G05
G00X13.5558Y-4.6951
M15
G01X13.5361Y-4.6951
M16
G05
G00X13.5558Y-5.4465
M15
G01X13.5361Y-5.4465
M16
G05
G00X14.3039Y-3.947
M15
G01X14.2842Y-3.947
M16
G05
G00X14.3048Y-5.4455
M15
G01X14.2852Y-5.4455
M16
G05
G00X14.3048Y-6.1965
M15
G01X14.2852Y-6.1965
M16
G05
G00X14.3048Y-6.9435
M15
G01X14.2852Y-6.9435
M16
G05
G00X14.3058Y-4.6951
M15
G01X14.2861Y-4.6951
M16
G05
G00X15.0528Y-5.4451
M15
G01X15.0331Y-5.4451
M16
G05
G00X15.0528Y-6.1945
M15
G01X15.0331Y-6.1945
M16
G05
G00X15.0539Y-6.9435
M15
G01X15.0342Y-6.9435
M16
G05
G00X15.0558Y-3.9451
M15
G01X15.0361Y-3.9451
M16
G05
G00X15.0558Y-4.6951
M15
G01X15.0361Y-4.6951
M16
G05
T0
M30
