%TF.GenerationSoftware,KiCad,Pcbnew,(5.1.9)-1*%
%TF.CreationDate,2021-05-14T10:19:55-07:00*%
%TF.ProjectId,chgray-keyboard,63686772-6179-42d6-9b65-79626f617264,rev?*%
%TF.SameCoordinates,Original*%
%TF.FileFunction,Soldermask,Top*%
%TF.FilePolarity,Negative*%
%FSLAX46Y46*%
G04 Gerber Fmt 4.6, Leading zero omitted, Abs format (unit mm)*
G04 Created by KiCad (PCBNEW (5.1.9)-1) date 2021-05-14 10:19:55*
%MOMM*%
%LPD*%
G01*
G04 APERTURE LIST*
%ADD10C,1.600000*%
%ADD11R,1.600000X1.600000*%
%ADD12C,1.701800*%
%ADD13C,3.987800*%
%ADD14C,3.000000*%
%ADD15R,4.500000X3.000000*%
%ADD16O,1.000000X1.000000*%
%ADD17R,1.000000X1.000000*%
G04 APERTURE END LIST*
D10*
%TO.C,U1*%
X311150000Y-92710000D03*
X300990000Y-92710000D03*
X313690000Y-82550000D03*
X313690000Y-85090000D03*
X313690000Y-87630000D03*
X313690000Y-90170000D03*
X313690000Y-92710000D03*
X313690000Y-95250000D03*
X313690000Y-97790000D03*
X313690000Y-100330000D03*
X313690000Y-102870000D03*
X313690000Y-105410000D03*
X313690000Y-107950000D03*
X313690000Y-110490000D03*
X311150000Y-110490000D03*
X308610000Y-110490000D03*
X303530000Y-110490000D03*
X300990000Y-110490000D03*
X298450000Y-110490000D03*
X298450000Y-107950000D03*
X298450000Y-105410000D03*
X298450000Y-102870000D03*
X298450000Y-100330000D03*
X298450000Y-97790000D03*
X298450000Y-95250000D03*
X298450000Y-92710000D03*
X298450000Y-90170000D03*
X298450000Y-87630000D03*
X298450000Y-85090000D03*
D11*
X298450000Y-82550000D03*
D10*
X306070000Y-110490000D03*
%TD*%
D12*
%TO.C,SW1*%
X377063000Y-114681000D03*
X387223000Y-114681000D03*
D13*
X382143000Y-114681000D03*
D14*
X378333000Y-112141000D03*
X384683000Y-109601000D03*
%TD*%
D12*
%TO.C,SW2*%
X29083000Y-171577000D03*
X39243000Y-171577000D03*
D13*
X34163000Y-171577000D03*
D14*
X30353000Y-169037000D03*
X36703000Y-166497000D03*
%TD*%
D12*
%TO.C,SW3*%
X219837000Y-152527000D03*
X229997000Y-152527000D03*
D13*
X224917000Y-152527000D03*
D14*
X221107000Y-149987000D03*
X227457000Y-147447000D03*
%TD*%
D12*
%TO.C,SW4*%
X29083000Y-95377000D03*
X39243000Y-95377000D03*
D13*
X34163000Y-95377000D03*
D14*
X30353000Y-92837000D03*
X36703000Y-90297000D03*
%TD*%
D12*
%TO.C,SW5*%
X48133000Y-95377000D03*
X58293000Y-95377000D03*
D13*
X53213000Y-95377000D03*
D14*
X49403000Y-92837000D03*
X55753000Y-90297000D03*
%TD*%
D12*
%TO.C,SW6*%
X52959000Y-114427000D03*
X63119000Y-114427000D03*
D13*
X58039000Y-114427000D03*
D14*
X54229000Y-111887000D03*
X60579000Y-109347000D03*
%TD*%
D12*
%TO.C,SW7*%
X57785000Y-133477000D03*
X67945000Y-133477000D03*
D13*
X62865000Y-133477000D03*
D14*
X59055000Y-130937000D03*
X65405000Y-128397000D03*
%TD*%
D12*
%TO.C,SW8*%
X48133000Y-171577000D03*
X58293000Y-171577000D03*
D13*
X53213000Y-171577000D03*
D14*
X49403000Y-169037000D03*
X55753000Y-166497000D03*
%TD*%
D12*
%TO.C,SW9*%
X319913000Y-152781000D03*
X330073000Y-152781000D03*
D13*
X324993000Y-152781000D03*
D14*
X321183000Y-150241000D03*
X327533000Y-147701000D03*
%TD*%
D12*
%TO.C,SW10*%
X76835000Y-133477000D03*
X86995000Y-133477000D03*
D13*
X81915000Y-133477000D03*
D14*
X78105000Y-130937000D03*
X84455000Y-128397000D03*
%TD*%
D12*
%TO.C,SW11*%
X67437000Y-152527000D03*
X77597000Y-152527000D03*
D13*
X72517000Y-152527000D03*
D14*
X68707000Y-149987000D03*
X75057000Y-147447000D03*
%TD*%
D12*
%TO.C,SW12*%
X377063000Y-133731000D03*
X387223000Y-133731000D03*
D13*
X382143000Y-133731000D03*
D14*
X378333000Y-131191000D03*
X384683000Y-128651000D03*
%TD*%
D12*
%TO.C,SW13*%
X67183000Y-95377000D03*
X77343000Y-95377000D03*
D13*
X72263000Y-95377000D03*
D14*
X68453000Y-92837000D03*
X74803000Y-90297000D03*
%TD*%
D12*
%TO.C,SW14*%
X72009000Y-114427000D03*
X82169000Y-114427000D03*
D13*
X77089000Y-114427000D03*
D14*
X73279000Y-111887000D03*
X79629000Y-109347000D03*
%TD*%
D12*
%TO.C,SW15*%
X86233000Y-95377000D03*
X96393000Y-95377000D03*
D13*
X91313000Y-95377000D03*
D14*
X87503000Y-92837000D03*
X93853000Y-90297000D03*
%TD*%
D12*
%TO.C,SW16*%
X91059000Y-114427000D03*
X101219000Y-114427000D03*
D13*
X96139000Y-114427000D03*
D14*
X92329000Y-111887000D03*
X98679000Y-109347000D03*
%TD*%
D12*
%TO.C,SW17*%
X95885000Y-133477000D03*
X106045000Y-133477000D03*
D13*
X100965000Y-133477000D03*
D14*
X97155000Y-130937000D03*
X103505000Y-128397000D03*
%TD*%
D12*
%TO.C,SW18*%
X86487000Y-152527000D03*
X96647000Y-152527000D03*
D13*
X91567000Y-152527000D03*
D14*
X87757000Y-149987000D03*
X94107000Y-147447000D03*
%TD*%
D12*
%TO.C,SW19*%
X95885000Y-171577000D03*
X106045000Y-171577000D03*
D13*
X100965000Y-171577000D03*
D14*
X97155000Y-169037000D03*
X103505000Y-166497000D03*
%TD*%
D12*
%TO.C,SW20*%
X224409000Y-114427000D03*
X234569000Y-114427000D03*
D13*
X229489000Y-114427000D03*
D14*
X225679000Y-111887000D03*
X232029000Y-109347000D03*
%TD*%
D12*
%TO.C,SW21*%
X114935000Y-133477000D03*
X125095000Y-133477000D03*
D13*
X120015000Y-133477000D03*
D14*
X116205000Y-130937000D03*
X122555000Y-128397000D03*
%TD*%
D12*
%TO.C,SW22*%
X105537000Y-152527000D03*
X115697000Y-152527000D03*
D13*
X110617000Y-152527000D03*
D14*
X106807000Y-149987000D03*
X113157000Y-147447000D03*
%TD*%
D12*
%TO.C,SW23*%
X243459000Y-114427000D03*
X253619000Y-114427000D03*
D13*
X248539000Y-114427000D03*
D14*
X244729000Y-111887000D03*
X251079000Y-109347000D03*
%TD*%
D12*
%TO.C,SW24*%
X105283000Y-95377000D03*
X115443000Y-95377000D03*
D13*
X110363000Y-95377000D03*
D14*
X106553000Y-92837000D03*
X112903000Y-90297000D03*
%TD*%
D12*
%TO.C,SW25*%
X110109000Y-114427000D03*
X120269000Y-114427000D03*
D13*
X115189000Y-114427000D03*
D14*
X111379000Y-111887000D03*
X117729000Y-109347000D03*
%TD*%
D12*
%TO.C,SW26*%
X124333000Y-95377000D03*
X134493000Y-95377000D03*
D13*
X129413000Y-95377000D03*
D14*
X125603000Y-92837000D03*
X131953000Y-90297000D03*
%TD*%
D12*
%TO.C,SW27*%
X129159000Y-114427000D03*
X139319000Y-114427000D03*
D13*
X134239000Y-114427000D03*
D14*
X130429000Y-111887000D03*
X136779000Y-109347000D03*
%TD*%
D12*
%TO.C,SW28*%
X133731000Y-133477000D03*
X143891000Y-133477000D03*
D13*
X138811000Y-133477000D03*
D14*
X135001000Y-130937000D03*
X141351000Y-128397000D03*
%TD*%
D12*
%TO.C,SW29*%
X124587000Y-152527000D03*
X134747000Y-152527000D03*
D13*
X129667000Y-152527000D03*
D14*
X125857000Y-149987000D03*
X132207000Y-147447000D03*
%TD*%
D12*
%TO.C,SW30*%
X157861000Y-171577000D03*
X168021000Y-171577000D03*
D13*
X162941000Y-171577000D03*
D14*
X159131000Y-169037000D03*
X165481000Y-166497000D03*
%TD*%
D12*
%TO.C,SW31*%
X152781000Y-133477000D03*
X162941000Y-133477000D03*
D13*
X157861000Y-133477000D03*
D14*
X154051000Y-130937000D03*
X160401000Y-128397000D03*
%TD*%
D12*
%TO.C,SW32*%
X143637000Y-152527000D03*
X153797000Y-152527000D03*
D13*
X148717000Y-152527000D03*
D14*
X144907000Y-149987000D03*
X151257000Y-147447000D03*
%TD*%
D12*
%TO.C,SW33*%
X176911000Y-171577000D03*
X187071000Y-171577000D03*
D13*
X181991000Y-171577000D03*
D14*
X178181000Y-169037000D03*
X184531000Y-166497000D03*
%TD*%
D12*
%TO.C,SW34*%
X238887000Y-152527000D03*
X249047000Y-152527000D03*
D13*
X243967000Y-152527000D03*
D14*
X240157000Y-149987000D03*
X246507000Y-147447000D03*
%TD*%
D12*
%TO.C,SW35*%
X143383000Y-95377000D03*
X153543000Y-95377000D03*
D13*
X148463000Y-95377000D03*
D14*
X144653000Y-92837000D03*
X151003000Y-90297000D03*
%TD*%
D12*
%TO.C,SW36*%
X148209000Y-114427000D03*
X158369000Y-114427000D03*
D13*
X153289000Y-114427000D03*
D14*
X149479000Y-111887000D03*
X155829000Y-109347000D03*
%TD*%
D12*
%TO.C,SW37*%
X162433000Y-95377000D03*
X172593000Y-95377000D03*
D13*
X167513000Y-95377000D03*
D14*
X163703000Y-92837000D03*
X170053000Y-90297000D03*
%TD*%
D12*
%TO.C,SW38*%
X167259000Y-114427000D03*
X177419000Y-114427000D03*
D13*
X172339000Y-114427000D03*
D14*
X168529000Y-111887000D03*
X174879000Y-109347000D03*
%TD*%
D12*
%TO.C,SW39*%
X171831000Y-133477000D03*
X181991000Y-133477000D03*
D13*
X176911000Y-133477000D03*
D14*
X173101000Y-130937000D03*
X179451000Y-128397000D03*
%TD*%
D12*
%TO.C,SW40*%
X162687000Y-152527000D03*
X172847000Y-152527000D03*
D13*
X167767000Y-152527000D03*
D14*
X163957000Y-149987000D03*
X170307000Y-147447000D03*
%TD*%
D12*
%TO.C,SW41*%
X238633000Y-95377000D03*
X248793000Y-95377000D03*
D13*
X243713000Y-95377000D03*
D14*
X239903000Y-92837000D03*
X246253000Y-90297000D03*
%TD*%
D12*
%TO.C,SW42*%
X190881000Y-133477000D03*
X201041000Y-133477000D03*
D13*
X195961000Y-133477000D03*
D14*
X192151000Y-130937000D03*
X198501000Y-128397000D03*
%TD*%
D12*
%TO.C,SW43*%
X181737000Y-152527000D03*
X191897000Y-152527000D03*
D13*
X186817000Y-152527000D03*
D14*
X183007000Y-149987000D03*
X189357000Y-147447000D03*
%TD*%
D12*
%TO.C,SW45*%
X257683000Y-95377000D03*
X267843000Y-95377000D03*
D13*
X262763000Y-95377000D03*
D14*
X258953000Y-92837000D03*
X265303000Y-90297000D03*
%TD*%
D12*
%TO.C,SW46*%
X181483000Y-95377000D03*
X191643000Y-95377000D03*
D13*
X186563000Y-95377000D03*
D14*
X182753000Y-92837000D03*
X189103000Y-90297000D03*
%TD*%
D12*
%TO.C,SW47*%
X186309000Y-114427000D03*
X196469000Y-114427000D03*
D13*
X191389000Y-114427000D03*
D14*
X187579000Y-111887000D03*
X193929000Y-109347000D03*
%TD*%
D12*
%TO.C,SW48*%
X200533000Y-95377000D03*
X210693000Y-95377000D03*
D13*
X205613000Y-95377000D03*
D14*
X201803000Y-92837000D03*
X208153000Y-90297000D03*
%TD*%
D12*
%TO.C,SW49*%
X205359000Y-114427000D03*
X215519000Y-114427000D03*
D13*
X210439000Y-114427000D03*
D14*
X206629000Y-111887000D03*
X212979000Y-109347000D03*
%TD*%
D12*
%TO.C,SW50*%
X209931000Y-133477000D03*
X220091000Y-133477000D03*
D13*
X215011000Y-133477000D03*
D14*
X211201000Y-130937000D03*
X217551000Y-128397000D03*
%TD*%
D12*
%TO.C,SW51*%
X200787000Y-152527000D03*
X210947000Y-152527000D03*
D13*
X205867000Y-152527000D03*
D14*
X202057000Y-149987000D03*
X208407000Y-147447000D03*
%TD*%
D12*
%TO.C,SW53*%
X219583000Y-95377000D03*
X229743000Y-95377000D03*
D13*
X224663000Y-95377000D03*
D14*
X220853000Y-92837000D03*
X227203000Y-90297000D03*
%TD*%
D12*
%TO.C,SW54*%
X338963000Y-133731000D03*
X349123000Y-133731000D03*
D13*
X344043000Y-133731000D03*
D14*
X340233000Y-131191000D03*
X346583000Y-128651000D03*
%TD*%
D12*
%TO.C,SW55*%
X262509000Y-114427000D03*
X272669000Y-114427000D03*
D13*
X267589000Y-114427000D03*
D14*
X263779000Y-111887000D03*
X270129000Y-109347000D03*
%TD*%
D12*
%TO.C,SW56*%
X358013000Y-133731000D03*
X368173000Y-133731000D03*
D13*
X363093000Y-133731000D03*
D14*
X359283000Y-131191000D03*
X365633000Y-128651000D03*
%TD*%
D12*
%TO.C,SW57*%
X228981000Y-133477000D03*
X239141000Y-133477000D03*
D13*
X234061000Y-133477000D03*
D14*
X230251000Y-130937000D03*
X236601000Y-128397000D03*
%TD*%
D12*
%TO.C,SW58*%
X248031000Y-133477000D03*
X258191000Y-133477000D03*
D13*
X253111000Y-133477000D03*
D14*
X249301000Y-130937000D03*
X255651000Y-128397000D03*
%TD*%
D12*
%TO.C,SW59*%
X281559000Y-114427000D03*
X291719000Y-114427000D03*
D13*
X286639000Y-114427000D03*
D14*
X282829000Y-111887000D03*
X289179000Y-109347000D03*
%TD*%
D12*
%TO.C,SW61*%
X281813000Y-171577000D03*
X291973000Y-171577000D03*
D13*
X286893000Y-171577000D03*
D14*
X283083000Y-169037000D03*
X289433000Y-166497000D03*
%TD*%
D12*
%TO.C,SW62*%
X338963000Y-114681000D03*
X349123000Y-114681000D03*
D13*
X344043000Y-114681000D03*
D14*
X340233000Y-112141000D03*
X346583000Y-109601000D03*
%TD*%
D12*
%TO.C,SW63*%
X319913000Y-114681000D03*
X330073000Y-114681000D03*
D13*
X324993000Y-114681000D03*
D14*
X321183000Y-112141000D03*
X327533000Y-109601000D03*
%TD*%
D12*
%TO.C,SW60*%
X319913000Y-133731000D03*
X330073000Y-133731000D03*
D13*
X324993000Y-133731000D03*
D14*
X321183000Y-131191000D03*
X327533000Y-128651000D03*
%TD*%
%TO.C,WinKey1*%
X73289000Y-169027000D03*
D12*
X72019000Y-171567000D03*
D13*
X77099000Y-171567000D03*
D12*
X82179000Y-171567000D03*
D14*
X79639000Y-166487000D03*
%TD*%
%TO.C,TAB1*%
X32649000Y-111877000D03*
D12*
X31379000Y-114417000D03*
D13*
X36459000Y-114417000D03*
D12*
X41539000Y-114417000D03*
D14*
X38999000Y-109337000D03*
%TD*%
%TO.C,CAPS1*%
X35189000Y-130927000D03*
D12*
X33919000Y-133467000D03*
D13*
X38999000Y-133467000D03*
D12*
X44079000Y-133467000D03*
D14*
X41539000Y-128387000D03*
%TD*%
%TO.C,Backspace1*%
X280299000Y-92827000D03*
D12*
X279029000Y-95367000D03*
D13*
X284109000Y-95367000D03*
D12*
X289189000Y-95367000D03*
D14*
X286649000Y-90287000D03*
%TD*%
%TO.C,RIGHT-SHIFT1*%
X271155000Y-149977000D03*
D12*
X269885000Y-152517000D03*
D13*
X274965000Y-152517000D03*
D12*
X280045000Y-152517000D03*
D14*
X277505000Y-147437000D03*
%TD*%
%TO.C,LEFT-SPACE1*%
X128153000Y-169027000D03*
D12*
X126883000Y-171567000D03*
D13*
X131963000Y-171567000D03*
D12*
X137043000Y-171567000D03*
D14*
X134503000Y-166487000D03*
%TD*%
%TO.C,RIGHT-SPACE1*%
X209179000Y-169027000D03*
D12*
X207909000Y-171567000D03*
D13*
X212989000Y-171567000D03*
D12*
X218069000Y-171567000D03*
D14*
X215529000Y-166487000D03*
%TD*%
D12*
%TO.C,SW64*%
X338963000Y-152781000D03*
X349123000Y-152781000D03*
D13*
X344043000Y-152781000D03*
D14*
X340233000Y-150241000D03*
X346583000Y-147701000D03*
%TD*%
D12*
%TO.C,SW65*%
X319913000Y-95631000D03*
X330073000Y-95631000D03*
D13*
X324993000Y-95631000D03*
D14*
X321183000Y-93091000D03*
X327533000Y-90551000D03*
%TD*%
D12*
%TO.C,SW66*%
X377063000Y-171831000D03*
X387223000Y-171831000D03*
D13*
X382143000Y-171831000D03*
D14*
X378333000Y-169291000D03*
X384683000Y-166751000D03*
%TD*%
D12*
%TO.C,SW67*%
X358013000Y-114681000D03*
X368173000Y-114681000D03*
D13*
X363093000Y-114681000D03*
D14*
X359283000Y-112141000D03*
X365633000Y-109601000D03*
%TD*%
D12*
%TO.C,SW68*%
X358013000Y-152781000D03*
X368173000Y-152781000D03*
D13*
X363093000Y-152781000D03*
D14*
X359283000Y-150241000D03*
X365633000Y-147701000D03*
%TD*%
D12*
%TO.C,SW69*%
X377063000Y-95631000D03*
X387223000Y-95631000D03*
D13*
X382143000Y-95631000D03*
D14*
X378333000Y-93091000D03*
X384683000Y-90551000D03*
%TD*%
D12*
%TO.C,SW70*%
X358013000Y-95631000D03*
X368173000Y-95631000D03*
D13*
X363093000Y-95631000D03*
D14*
X359283000Y-93091000D03*
X365633000Y-90551000D03*
%TD*%
D12*
%TO.C,SW71*%
X358013000Y-171831000D03*
X368173000Y-171831000D03*
D13*
X363093000Y-171831000D03*
D14*
X359283000Y-169291000D03*
X365633000Y-166751000D03*
%TD*%
D12*
%TO.C,SW72*%
X338963000Y-171831000D03*
X349123000Y-171831000D03*
D13*
X344043000Y-171831000D03*
D14*
X340233000Y-169291000D03*
X346583000Y-166751000D03*
%TD*%
D12*
%TO.C,SW73*%
X319913000Y-171831000D03*
X330073000Y-171831000D03*
D13*
X324993000Y-171831000D03*
D14*
X321183000Y-169291000D03*
X327533000Y-166751000D03*
%TD*%
D12*
%TO.C,S2*%
X377063000Y-152781000D03*
X387223000Y-152781000D03*
D13*
X382143000Y-152781000D03*
D14*
X378333000Y-150241000D03*
X384683000Y-147701000D03*
%TD*%
D12*
%TO.C,S1*%
X338963000Y-95631000D03*
X349123000Y-95631000D03*
D13*
X344043000Y-95631000D03*
D14*
X340233000Y-93091000D03*
X346583000Y-90551000D03*
%TD*%
%TO.C,ENTER1*%
X282077000Y-128387000D03*
D12*
X284617000Y-133467000D03*
D13*
X279537000Y-133467000D03*
D12*
X274457000Y-133467000D03*
D14*
X275727000Y-130927000D03*
%TD*%
%TO.C,SW44*%
X242453000Y-169027000D03*
D12*
X241183000Y-171567000D03*
D13*
X246263000Y-171567000D03*
D12*
X251343000Y-171567000D03*
D14*
X248803000Y-166487000D03*
%TD*%
%TO.C,LEFT-SHIFT1*%
X40015000Y-149977000D03*
D12*
X38745000Y-152517000D03*
D13*
X43825000Y-152517000D03*
D12*
X48905000Y-152517000D03*
D14*
X46365000Y-147437000D03*
%TD*%
D12*
%TO.C,SW52*%
X262763000Y-171577000D03*
X272923000Y-171577000D03*
D13*
X267843000Y-171577000D03*
D14*
X264033000Y-169037000D03*
X270383000Y-166497000D03*
%TD*%
D15*
%TO.C,D85*%
X34163000Y-99974000D03*
%TD*%
%TO.C,D90*%
X53213000Y-99976000D03*
%TD*%
%TO.C,D95*%
X72263000Y-99974000D03*
%TD*%
%TO.C,D100*%
X91313000Y-100000000D03*
%TD*%
%TO.C,D104*%
X110363000Y-99976000D03*
%TD*%
%TO.C,D108*%
X129413000Y-99951000D03*
%TD*%
%TO.C,D112*%
X148488000Y-99976000D03*
%TD*%
%TO.C,D116*%
X167513000Y-99976000D03*
%TD*%
%TO.C,D120*%
X186538000Y-99976000D03*
%TD*%
%TO.C,D124*%
X205613000Y-99976000D03*
%TD*%
%TO.C,D128*%
X224688000Y-99951000D03*
%TD*%
%TO.C,D132*%
X243713000Y-99976000D03*
%TD*%
%TO.C,D136*%
X262738000Y-100001000D03*
%TD*%
%TO.C,D140*%
X324968000Y-100230000D03*
%TD*%
%TO.C,D144*%
X344043000Y-100230000D03*
%TD*%
%TO.C,D148*%
X363068000Y-100255000D03*
%TD*%
%TO.C,D152*%
X382168000Y-100205000D03*
%TD*%
%TO.C,D156*%
X382168000Y-119255000D03*
%TD*%
%TO.C,D160*%
X363118000Y-119255000D03*
%TD*%
%TO.C,D164*%
X344068000Y-119255000D03*
%TD*%
%TO.C,D168*%
X324993000Y-119280000D03*
%TD*%
%TO.C,D86*%
X286639000Y-119012000D03*
%TD*%
%TO.C,D91*%
X267589000Y-119012000D03*
%TD*%
%TO.C,D96*%
X248539000Y-118987000D03*
%TD*%
%TO.C,D101*%
X229489000Y-119012000D03*
%TD*%
%TO.C,D105*%
X210439000Y-118961000D03*
%TD*%
%TO.C,D109*%
X191414000Y-118936000D03*
%TD*%
%TO.C,D113*%
X172364000Y-118987000D03*
%TD*%
%TO.C,D117*%
X153289000Y-118975000D03*
%TD*%
%TO.C,D121*%
X134239000Y-118987000D03*
%TD*%
%TO.C,D125*%
X115164000Y-118961000D03*
%TD*%
%TO.C,D129*%
X96139000Y-118950000D03*
%TD*%
%TO.C,D133*%
X77089000Y-119001000D03*
%TD*%
%TO.C,D137*%
X58013600Y-119026000D03*
%TD*%
%TO.C,D141*%
X36449000Y-119026000D03*
%TD*%
%TO.C,D145*%
X38862000Y-137822000D03*
%TD*%
%TO.C,D149*%
X62865000Y-138076000D03*
%TD*%
%TO.C,D153*%
X81915000Y-138076000D03*
%TD*%
%TO.C,D157*%
X100940000Y-138051000D03*
%TD*%
%TO.C,D161*%
X120015000Y-138076000D03*
%TD*%
%TO.C,D165*%
X138836000Y-138076000D03*
%TD*%
%TO.C,D87*%
X157886000Y-138101000D03*
%TD*%
%TO.C,D92*%
X176911000Y-138087000D03*
%TD*%
%TO.C,D97*%
X195936000Y-138101000D03*
%TD*%
%TO.C,D102*%
X215036000Y-138051000D03*
%TD*%
%TO.C,D106*%
X234061000Y-138076000D03*
%TD*%
%TO.C,D110*%
X253111000Y-138062000D03*
%TD*%
%TO.C,D114*%
X279578000Y-138494000D03*
%TD*%
%TO.C,D118*%
X325044000Y-138291000D03*
%TD*%
%TO.C,D122*%
X344068000Y-138341000D03*
%TD*%
%TO.C,D126*%
X363093000Y-138316000D03*
%TD*%
%TO.C,D130*%
X382092000Y-138305000D03*
%TD*%
%TO.C,D134*%
X382092000Y-157341000D03*
%TD*%
%TO.C,D138*%
X363093000Y-157391000D03*
%TD*%
%TO.C,D142*%
X344043000Y-157315000D03*
%TD*%
%TO.C,D146*%
X324942000Y-157341000D03*
%TD*%
%TO.C,D150*%
X274828000Y-157761000D03*
%TD*%
%TO.C,D154*%
X243967000Y-157101000D03*
%TD*%
%TO.C,D158*%
X224917000Y-157126000D03*
%TD*%
%TO.C,D162*%
X205842000Y-157126000D03*
%TD*%
%TO.C,D166*%
X186817000Y-157101000D03*
%TD*%
%TO.C,D88*%
X167767000Y-157126000D03*
%TD*%
%TO.C,D93*%
X148692000Y-157126000D03*
%TD*%
%TO.C,D98*%
X129667000Y-157126000D03*
%TD*%
%TO.C,D103*%
X110617000Y-157126000D03*
%TD*%
%TO.C,D107*%
X91567000Y-157101000D03*
%TD*%
%TO.C,D111*%
X72517000Y-157101000D03*
%TD*%
%TO.C,D115*%
X43942000Y-157988000D03*
%TD*%
%TO.C,D119*%
X34163000Y-176213000D03*
%TD*%
%TO.C,D123*%
X53213000Y-176086000D03*
%TD*%
%TO.C,D127*%
X77216000Y-176938000D03*
%TD*%
%TO.C,D131*%
X100965000Y-176187000D03*
%TD*%
%TO.C,D135*%
X131978000Y-176670000D03*
%TD*%
%TO.C,D139*%
X162966000Y-176176000D03*
%TD*%
%TO.C,D143*%
X181991000Y-176137000D03*
%TD*%
%TO.C,D147*%
X213182000Y-176835000D03*
%TD*%
%TO.C,D151*%
X246253000Y-176746000D03*
%TD*%
%TO.C,D155*%
X267843000Y-176176000D03*
%TD*%
%TO.C,D159*%
X286918000Y-176187000D03*
%TD*%
%TO.C,D163*%
X324993000Y-176391000D03*
%TD*%
%TO.C,D167*%
X344043000Y-176391000D03*
%TD*%
%TO.C,D89*%
X363093000Y-176365000D03*
%TD*%
%TO.C,D94*%
X382118000Y-176365000D03*
%TD*%
%TO.C,D99*%
X284353000Y-100687000D03*
%TD*%
D16*
%TO.C,J1*%
X306705000Y-177800000D03*
X306705000Y-179070000D03*
X305435000Y-177800000D03*
X305435000Y-179070000D03*
X304165000Y-177800000D03*
X304165000Y-179070000D03*
X302895000Y-177800000D03*
X302895000Y-179070000D03*
X301625000Y-177800000D03*
X301625000Y-179070000D03*
X300355000Y-177800000D03*
X300355000Y-179070000D03*
X299085000Y-177800000D03*
D17*
X299085000Y-179070000D03*
%TD*%
M02*
