%TF.GenerationSoftware,KiCad,Pcbnew,(5.1.9)-1*%
%TF.CreationDate,2021-05-14T10:54:05-07:00*%
%TF.ProjectId,chgray-keyboard,63686772-6179-42d6-9b65-79626f617264,Yeet2*%
%TF.SameCoordinates,Original*%
%TF.FileFunction,Paste,Bot*%
%TF.FilePolarity,Positive*%
%FSLAX46Y46*%
G04 Gerber Fmt 4.6, Leading zero omitted, Abs format (unit mm)*
G04 Created by KiCad (PCBNEW (5.1.9)-1) date 2021-05-14 10:54:05*
%MOMM*%
%LPD*%
G01*
G04 APERTURE LIST*
%ADD10R,2.550000X2.500000*%
%ADD11R,0.900000X1.200000*%
%ADD12R,1.600000X0.850000*%
G04 APERTURE END LIST*
D10*
%TO.C,SW57*%
X237296000Y-73152000D03*
X251146000Y-70612000D03*
%TD*%
D11*
%TO.C,D1*%
X85038200Y-85242000D03*
X81738200Y-85242000D03*
%TD*%
%TO.C,D2*%
X84734400Y-104165000D03*
X81434400Y-104165000D03*
%TD*%
%TO.C,D3*%
X318811000Y-102828000D03*
X315511000Y-102828000D03*
%TD*%
%TO.C,D4*%
X267457000Y-85242000D03*
X264157000Y-85242000D03*
%TD*%
%TO.C,D5*%
X47598600Y-47117000D03*
X44298600Y-47117000D03*
%TD*%
%TO.C,D6*%
X85624400Y-65938000D03*
X82324400Y-65938000D03*
%TD*%
%TO.C,D7*%
X66803200Y-47117000D03*
X63503200Y-47117000D03*
%TD*%
%TO.C,D8*%
X104459400Y-65938000D03*
X101159400Y-65938000D03*
%TD*%
%TO.C,D9*%
X103280100Y-85242000D03*
X99980100Y-85242000D03*
%TD*%
%TO.C,D10*%
X103838700Y-104165000D03*
X100538700Y-104165000D03*
%TD*%
%TO.C,D11*%
X318811000Y-105904000D03*
X315511000Y-105904000D03*
%TD*%
%TO.C,D12*%
X288999000Y-85242000D03*
X285699000Y-85242000D03*
%TD*%
%TO.C,D13*%
X121522000Y-85242000D03*
X118222000Y-85242000D03*
%TD*%
%TO.C,D14*%
X122943000Y-104165000D03*
X119643000Y-104165000D03*
%TD*%
%TO.C,D15*%
X318811000Y-93599000D03*
X315511000Y-93599000D03*
%TD*%
%TO.C,D16*%
X324056000Y-88818000D03*
X320756000Y-88818000D03*
%TD*%
%TO.C,D17*%
X86007800Y-47117000D03*
X82707800Y-47117000D03*
%TD*%
%TO.C,D18*%
X123295000Y-65938000D03*
X119995000Y-65938000D03*
%TD*%
%TO.C,D19*%
X105212500Y-47117000D03*
X101912500Y-47117000D03*
%TD*%
%TO.C,D20*%
X142130000Y-65938000D03*
X138830000Y-65938000D03*
%TD*%
%TO.C,D21*%
X139764000Y-85242000D03*
X136464000Y-85242000D03*
%TD*%
%TO.C,D22*%
X142047000Y-104165000D03*
X138747000Y-104165000D03*
%TD*%
%TO.C,D23*%
X318811000Y-96675000D03*
X315511000Y-96675000D03*
%TD*%
%TO.C,D24*%
X273975000Y-65938000D03*
X270675000Y-65938000D03*
%TD*%
%TO.C,D25*%
X158006000Y-85242000D03*
X154706000Y-85242000D03*
%TD*%
%TO.C,D26*%
X161152000Y-104165000D03*
X157852000Y-104165000D03*
%TD*%
%TO.C,D27*%
X318811000Y-99751000D03*
X315511000Y-99751000D03*
%TD*%
%TO.C,D28*%
X176248000Y-85242000D03*
X172948000Y-85242000D03*
%TD*%
%TO.C,D29*%
X124417000Y-47117000D03*
X121117000Y-47117000D03*
%TD*%
%TO.C,D30*%
X160965000Y-65938000D03*
X157665000Y-65938000D03*
%TD*%
%TO.C,D31*%
X143622000Y-47117000D03*
X140322000Y-47117000D03*
%TD*%
%TO.C,D32*%
X179800000Y-65938000D03*
X176500000Y-65938000D03*
%TD*%
%TO.C,D33*%
X292810000Y-65938000D03*
X289510000Y-65938000D03*
%TD*%
%TO.C,D34*%
X180256000Y-104165000D03*
X176956000Y-104165000D03*
%TD*%
%TO.C,D35*%
X318811000Y-108980000D03*
X315511000Y-108980000D03*
%TD*%
%TO.C,D36*%
X324056000Y-73708000D03*
X320756000Y-73708000D03*
%TD*%
%TO.C,D37*%
X194490000Y-85242000D03*
X191190000Y-85242000D03*
%TD*%
%TO.C,D38*%
X199360000Y-104165000D03*
X196060000Y-104165000D03*
%TD*%
%TO.C,D39*%
X318811000Y-112056000D03*
X315511000Y-112056000D03*
%TD*%
%TO.C,D40*%
X352448000Y-85192000D03*
X349148000Y-85192000D03*
%TD*%
%TO.C,D41*%
X162826000Y-47117000D03*
X159526000Y-47117000D03*
%TD*%
%TO.C,D42*%
X198635000Y-65938000D03*
X195335000Y-65938000D03*
%TD*%
%TO.C,D43*%
X182031000Y-47117000D03*
X178731000Y-47117000D03*
%TD*%
%TO.C,D44*%
X217470000Y-65938000D03*
X214170000Y-65938000D03*
%TD*%
%TO.C,D45*%
X212732000Y-85242000D03*
X209432000Y-85242000D03*
%TD*%
%TO.C,D46*%
X218464000Y-104165000D03*
X215164000Y-104165000D03*
%TD*%
%TO.C,D47*%
X313180000Y-106680000D03*
X309880000Y-106680000D03*
%TD*%
%TO.C,D48*%
X258849000Y-47117000D03*
X255549000Y-47117000D03*
%TD*%
%TO.C,D49*%
X230973000Y-85242000D03*
X227673000Y-85242000D03*
%TD*%
%TO.C,D50*%
X365684000Y-85471000D03*
X362384000Y-85471000D03*
%TD*%
%TO.C,D51*%
X313180000Y-115570000D03*
X309880000Y-115570000D03*
%TD*%
%TO.C,D52*%
X324056000Y-79752000D03*
X320756000Y-79752000D03*
%TD*%
%TO.C,D53*%
X201236000Y-47117000D03*
X197936000Y-47117000D03*
%TD*%
%TO.C,D54*%
X236305000Y-65938000D03*
X233005000Y-65938000D03*
%TD*%
%TO.C,D55*%
X220440000Y-47117000D03*
X217140000Y-47117000D03*
%TD*%
%TO.C,D56*%
X255140000Y-65938000D03*
X251840000Y-65938000D03*
%TD*%
%TO.C,D57*%
X249215000Y-85242000D03*
X245915000Y-85242000D03*
%TD*%
%TO.C,D58*%
X376275000Y-85471000D03*
X372975000Y-85471000D03*
%TD*%
%TO.C,D59*%
X313180000Y-109220000D03*
X309880000Y-109220000D03*
%TD*%
%TO.C,D60*%
X386865000Y-85471000D03*
X383565000Y-85471000D03*
%TD*%
%TO.C,D61*%
X239645000Y-47117000D03*
X236345000Y-47117000D03*
%TD*%
%TO.C,D62*%
X324056000Y-70686000D03*
X320756000Y-70686000D03*
%TD*%
%TO.C,D63*%
X324056000Y-106950000D03*
X320756000Y-106950000D03*
%TD*%
%TO.C,D64*%
X324056000Y-91840000D03*
X320756000Y-91840000D03*
%TD*%
%TO.C,D65*%
X324056000Y-97884000D03*
X320756000Y-97884000D03*
%TD*%
%TO.C,D66*%
X324056000Y-82774000D03*
X320756000Y-82774000D03*
%TD*%
%TO.C,D67*%
X324056000Y-103928000D03*
X320756000Y-103928000D03*
%TD*%
%TO.C,D68*%
X324056000Y-85796000D03*
X320756000Y-85796000D03*
%TD*%
%TO.C,D69*%
X324056000Y-109972000D03*
X320756000Y-109972000D03*
%TD*%
%TO.C,D70*%
X324056000Y-76730000D03*
X320756000Y-76730000D03*
%TD*%
%TO.C,D71*%
X324056000Y-112994000D03*
X320756000Y-112994000D03*
%TD*%
%TO.C,D72*%
X324056000Y-94862000D03*
X320756000Y-94862000D03*
%TD*%
D10*
%TO.C,SW1*%
X385378000Y-54356000D03*
X399228000Y-51816000D03*
%TD*%
%TO.C,SW2*%
X37398000Y-111252000D03*
X51248000Y-108712000D03*
%TD*%
%TO.C,SW3*%
X228152000Y-92202000D03*
X242002000Y-89662000D03*
%TD*%
%TO.C,SW4*%
X37398000Y-35052000D03*
X51248000Y-32512000D03*
%TD*%
%TO.C,SW5*%
X56448000Y-35052000D03*
X70298000Y-32512000D03*
%TD*%
%TO.C,SW6*%
X61274000Y-54102000D03*
X75124000Y-51562000D03*
%TD*%
%TO.C,SW7*%
X66100000Y-73152000D03*
X79950000Y-70612000D03*
%TD*%
%TO.C,SW8*%
X56448000Y-111252000D03*
X70298000Y-108712000D03*
%TD*%
%TO.C,SW9*%
X328228000Y-92456000D03*
X342078000Y-89916000D03*
%TD*%
%TO.C,SW10*%
X85150000Y-73152000D03*
X99000000Y-70612000D03*
%TD*%
%TO.C,SW11*%
X75752000Y-92202000D03*
X89602000Y-89662000D03*
%TD*%
%TO.C,SW12*%
X385378000Y-73406000D03*
X399228000Y-70866000D03*
%TD*%
%TO.C,SW13*%
X75498000Y-35052000D03*
X89348000Y-32512000D03*
%TD*%
%TO.C,SW14*%
X80324000Y-54102000D03*
X94174000Y-51562000D03*
%TD*%
%TO.C,SW15*%
X94548000Y-35052000D03*
X108398000Y-32512000D03*
%TD*%
%TO.C,SW16*%
X99374000Y-54102000D03*
X113224000Y-51562000D03*
%TD*%
%TO.C,SW17*%
X104200000Y-73152000D03*
X118050000Y-70612000D03*
%TD*%
%TO.C,SW18*%
X94802000Y-92202000D03*
X108652000Y-89662000D03*
%TD*%
%TO.C,SW19*%
X104200000Y-111252000D03*
X118050000Y-108712000D03*
%TD*%
%TO.C,SW20*%
X232724000Y-54102000D03*
X246574000Y-51562000D03*
%TD*%
%TO.C,SW21*%
X123250000Y-73152000D03*
X137100000Y-70612000D03*
%TD*%
%TO.C,SW22*%
X113852000Y-92202000D03*
X127702000Y-89662000D03*
%TD*%
%TO.C,SW23*%
X251774000Y-54102000D03*
X265624000Y-51562000D03*
%TD*%
%TO.C,SW24*%
X113598000Y-35052000D03*
X127448000Y-32512000D03*
%TD*%
%TO.C,SW25*%
X118424000Y-54102000D03*
X132274000Y-51562000D03*
%TD*%
%TO.C,SW26*%
X132648000Y-35052000D03*
X146498000Y-32512000D03*
%TD*%
%TO.C,SW27*%
X137474000Y-54102000D03*
X151324000Y-51562000D03*
%TD*%
%TO.C,SW28*%
X142046000Y-73152000D03*
X155896000Y-70612000D03*
%TD*%
%TO.C,SW29*%
X132902000Y-92202000D03*
X146752000Y-89662000D03*
%TD*%
%TO.C,SW30*%
X166176000Y-111252000D03*
X180026000Y-108712000D03*
%TD*%
%TO.C,SW31*%
X161096000Y-73152000D03*
X174946000Y-70612000D03*
%TD*%
%TO.C,SW32*%
X151952000Y-92202000D03*
X165802000Y-89662000D03*
%TD*%
%TO.C,SW33*%
X185226000Y-111252000D03*
X199076000Y-108712000D03*
%TD*%
%TO.C,SW34*%
X247202000Y-92202000D03*
X261052000Y-89662000D03*
%TD*%
%TO.C,SW35*%
X151698000Y-35052000D03*
X165548000Y-32512000D03*
%TD*%
%TO.C,SW36*%
X156524000Y-54102000D03*
X170374000Y-51562000D03*
%TD*%
%TO.C,SW37*%
X170748000Y-35052000D03*
X184598000Y-32512000D03*
%TD*%
%TO.C,SW38*%
X175574000Y-54102000D03*
X189424000Y-51562000D03*
%TD*%
%TO.C,SW39*%
X180146000Y-73152000D03*
X193996000Y-70612000D03*
%TD*%
%TO.C,SW40*%
X171002000Y-92202000D03*
X184852000Y-89662000D03*
%TD*%
%TO.C,SW41*%
X246948000Y-35052000D03*
X260798000Y-32512000D03*
%TD*%
%TO.C,SW42*%
X199196000Y-73152000D03*
X213046000Y-70612000D03*
%TD*%
%TO.C,SW43*%
X190052000Y-92202000D03*
X203902000Y-89662000D03*
%TD*%
%TO.C,SW45*%
X265998000Y-35052000D03*
X279848000Y-32512000D03*
%TD*%
%TO.C,SW46*%
X189798000Y-35052000D03*
X203648000Y-32512000D03*
%TD*%
%TO.C,SW47*%
X194624000Y-54102000D03*
X208474000Y-51562000D03*
%TD*%
%TO.C,SW48*%
X208848000Y-35052000D03*
X222698000Y-32512000D03*
%TD*%
%TO.C,SW49*%
X213674000Y-54102000D03*
X227524000Y-51562000D03*
%TD*%
%TO.C,SW50*%
X218246000Y-73152000D03*
X232096000Y-70612000D03*
%TD*%
%TO.C,SW51*%
X209102000Y-92202000D03*
X222952000Y-89662000D03*
%TD*%
%TO.C,SW53*%
X227898000Y-35052000D03*
X241748000Y-32512000D03*
%TD*%
%TO.C,SW54*%
X347278000Y-73406000D03*
X361128000Y-70866000D03*
%TD*%
%TO.C,SW55*%
X270824000Y-54102000D03*
X284674000Y-51562000D03*
%TD*%
%TO.C,SW56*%
X366328000Y-73406000D03*
X380178000Y-70866000D03*
%TD*%
%TO.C,SW58*%
X256346000Y-73152000D03*
X270196000Y-70612000D03*
%TD*%
%TO.C,SW59*%
X289874000Y-54102000D03*
X303724000Y-51562000D03*
%TD*%
%TO.C,SW61*%
X290128000Y-111252000D03*
X303978000Y-108712000D03*
%TD*%
%TO.C,SW62*%
X347278000Y-54356000D03*
X361128000Y-51816000D03*
%TD*%
%TO.C,SW63*%
X328228000Y-54356000D03*
X342078000Y-51816000D03*
%TD*%
%TO.C,SW60*%
X328228000Y-73406000D03*
X342078000Y-70866000D03*
%TD*%
%TO.C,WinKey1*%
X80334000Y-111242000D03*
X94184000Y-108702000D03*
%TD*%
%TO.C,TAB1*%
X39694000Y-54092000D03*
X53544000Y-51552000D03*
%TD*%
%TO.C,CAPS1*%
X42234000Y-73142000D03*
X56084000Y-70602000D03*
%TD*%
%TO.C,Backspace1*%
X287344000Y-35042000D03*
X301194000Y-32502000D03*
%TD*%
%TO.C,RIGHT-SHIFT1*%
X278200000Y-92192000D03*
X292050000Y-89652000D03*
%TD*%
%TO.C,LEFT-SPACE1*%
X135198000Y-111242000D03*
X149048000Y-108702000D03*
%TD*%
%TO.C,RIGHT-SPACE1*%
X216224000Y-111242000D03*
X230074000Y-108702000D03*
%TD*%
D11*
%TO.C,D73*%
X313180000Y-112395000D03*
X309880000Y-112395000D03*
%TD*%
%TO.C,D74*%
X324056000Y-67664000D03*
X320756000Y-67664000D03*
%TD*%
%TO.C,D75*%
X324056000Y-64642000D03*
X320756000Y-64642000D03*
%TD*%
%TO.C,D76*%
X324056000Y-119038000D03*
X320756000Y-119038000D03*
%TD*%
%TO.C,D77*%
X345007000Y-85192000D03*
X341707000Y-85192000D03*
%TD*%
%TO.C,D78*%
X324056000Y-61620000D03*
X320756000Y-61620000D03*
%TD*%
%TO.C,D79*%
X324056000Y-100906000D03*
X320756000Y-100906000D03*
%TD*%
%TO.C,D80*%
X324056000Y-58598000D03*
X320756000Y-58598000D03*
%TD*%
%TO.C,D81*%
X324056000Y-116016000D03*
X320756000Y-116016000D03*
%TD*%
%TO.C,D82*%
X66789300Y-65938000D03*
X63489300Y-65938000D03*
%TD*%
%TO.C,D83*%
X47954200Y-65938000D03*
X44654200Y-65938000D03*
%TD*%
%TO.C,D84*%
X337565000Y-85192000D03*
X334265000Y-85192000D03*
%TD*%
D10*
%TO.C,SW64*%
X347278000Y-92456000D03*
X361128000Y-89916000D03*
%TD*%
%TO.C,SW65*%
X328228000Y-35306000D03*
X342078000Y-32766000D03*
%TD*%
%TO.C,SW66*%
X385378000Y-111506000D03*
X399228000Y-108966000D03*
%TD*%
%TO.C,SW67*%
X366328000Y-54356000D03*
X380178000Y-51816000D03*
%TD*%
%TO.C,SW68*%
X366328000Y-92456000D03*
X380178000Y-89916000D03*
%TD*%
%TO.C,SW69*%
X385378000Y-35306000D03*
X399228000Y-32766000D03*
%TD*%
%TO.C,SW70*%
X366328000Y-35306000D03*
X380178000Y-32766000D03*
%TD*%
%TO.C,SW71*%
X366328000Y-111506000D03*
X380178000Y-108966000D03*
%TD*%
%TO.C,SW72*%
X347278000Y-111506000D03*
X361128000Y-108966000D03*
%TD*%
%TO.C,SW73*%
X328228000Y-111506000D03*
X342078000Y-108966000D03*
%TD*%
%TO.C,S2*%
X385378000Y-92456000D03*
X399228000Y-89916000D03*
%TD*%
%TO.C,S1*%
X347278000Y-35306000D03*
X361128000Y-32766000D03*
%TD*%
%TO.C,ENTER1*%
X296622000Y-70602000D03*
X282772000Y-73142000D03*
%TD*%
%TO.C,SW44*%
X249498000Y-111242000D03*
X263348000Y-108702000D03*
%TD*%
%TO.C,LEFT-SHIFT1*%
X47060000Y-92192000D03*
X60910000Y-89652000D03*
%TD*%
%TO.C,SW52*%
X271078000Y-111252000D03*
X284928000Y-108712000D03*
%TD*%
D12*
%TO.C,D85*%
X41698000Y-42899000D03*
X41678000Y-41359000D03*
X48218000Y-43019000D03*
X48228000Y-41349000D03*
%TD*%
%TO.C,D90*%
X60748000Y-42901000D03*
X60728000Y-41361000D03*
X67268000Y-43021000D03*
X67278000Y-41351000D03*
%TD*%
%TO.C,D95*%
X79798000Y-42899000D03*
X79778000Y-41359000D03*
X86318000Y-43019000D03*
X86328000Y-41349000D03*
%TD*%
%TO.C,D100*%
X98848000Y-42925000D03*
X98828000Y-41385000D03*
X105368000Y-43045000D03*
X105378000Y-41375000D03*
%TD*%
%TO.C,D104*%
X117898000Y-42901000D03*
X117878000Y-41361000D03*
X124418000Y-43021000D03*
X124428000Y-41351000D03*
%TD*%
%TO.C,D108*%
X136948000Y-42876000D03*
X136928000Y-41336000D03*
X143468000Y-42996000D03*
X143478000Y-41326000D03*
%TD*%
%TO.C,D112*%
X156023000Y-42901000D03*
X156003000Y-41361000D03*
X162543000Y-43021000D03*
X162553000Y-41351000D03*
%TD*%
%TO.C,D116*%
X175048000Y-42901000D03*
X175028000Y-41361000D03*
X181568000Y-43021000D03*
X181578000Y-41351000D03*
%TD*%
%TO.C,D120*%
X194073000Y-42901000D03*
X194053000Y-41361000D03*
X200593000Y-43021000D03*
X200603000Y-41351000D03*
%TD*%
%TO.C,D124*%
X213148000Y-42901000D03*
X213128000Y-41361000D03*
X219668000Y-43021000D03*
X219678000Y-41351000D03*
%TD*%
%TO.C,D128*%
X232223000Y-42876000D03*
X232203000Y-41336000D03*
X238743000Y-42996000D03*
X238753000Y-41326000D03*
%TD*%
%TO.C,D132*%
X251248000Y-42901000D03*
X251228000Y-41361000D03*
X257768000Y-43021000D03*
X257778000Y-41351000D03*
%TD*%
%TO.C,D136*%
X270273000Y-42926000D03*
X270253000Y-41386000D03*
X276793000Y-43046000D03*
X276803000Y-41376000D03*
%TD*%
%TO.C,D140*%
X332503000Y-43155000D03*
X332483000Y-41615000D03*
X339023000Y-43275000D03*
X339033000Y-41605000D03*
%TD*%
%TO.C,D144*%
X351578000Y-43155000D03*
X351558000Y-41615000D03*
X358098000Y-43275000D03*
X358108000Y-41605000D03*
%TD*%
%TO.C,D148*%
X370603000Y-43180000D03*
X370583000Y-41640000D03*
X377123000Y-43300000D03*
X377133000Y-41630000D03*
%TD*%
%TO.C,D152*%
X389703000Y-43130000D03*
X389683000Y-41590000D03*
X396223000Y-43250000D03*
X396233000Y-41580000D03*
%TD*%
%TO.C,D156*%
X389703000Y-62180000D03*
X389683000Y-60640000D03*
X396223000Y-62300000D03*
X396233000Y-60630000D03*
%TD*%
%TO.C,D160*%
X370653000Y-62180000D03*
X370633000Y-60640000D03*
X377173000Y-62300000D03*
X377183000Y-60630000D03*
%TD*%
%TO.C,D164*%
X351603000Y-62180000D03*
X351583000Y-60640000D03*
X358123000Y-62300000D03*
X358133000Y-60630000D03*
%TD*%
%TO.C,D168*%
X332528000Y-62205000D03*
X332508000Y-60665000D03*
X339048000Y-62325000D03*
X339058000Y-60655000D03*
%TD*%
%TO.C,D86*%
X294174000Y-61937000D03*
X294154000Y-60397000D03*
X300694000Y-62057000D03*
X300704000Y-60387000D03*
%TD*%
%TO.C,D91*%
X275124000Y-61937000D03*
X275104000Y-60397000D03*
X281644000Y-62057000D03*
X281654000Y-60387000D03*
%TD*%
%TO.C,D96*%
X256074000Y-61912000D03*
X256054000Y-60372000D03*
X262594000Y-62032000D03*
X262604000Y-60362000D03*
%TD*%
%TO.C,D101*%
X237024000Y-61937000D03*
X237004000Y-60397000D03*
X243544000Y-62057000D03*
X243554000Y-60387000D03*
%TD*%
%TO.C,D105*%
X217974000Y-61886000D03*
X217954000Y-60346000D03*
X224494000Y-62006000D03*
X224504000Y-60336000D03*
%TD*%
%TO.C,D109*%
X198949000Y-61861000D03*
X198929000Y-60321000D03*
X205469000Y-61981000D03*
X205479000Y-60311000D03*
%TD*%
%TO.C,D113*%
X179899000Y-61912000D03*
X179879000Y-60372000D03*
X186419000Y-62032000D03*
X186429000Y-60362000D03*
%TD*%
%TO.C,D117*%
X160824000Y-61900000D03*
X160804000Y-60360000D03*
X167344000Y-62020000D03*
X167354000Y-60350000D03*
%TD*%
%TO.C,D121*%
X141774000Y-61912000D03*
X141754000Y-60372000D03*
X148294000Y-62032000D03*
X148304000Y-60362000D03*
%TD*%
%TO.C,D125*%
X122699000Y-61886000D03*
X122679000Y-60346000D03*
X129219000Y-62006000D03*
X129229000Y-60336000D03*
%TD*%
%TO.C,D129*%
X103674000Y-61875000D03*
X103654000Y-60335000D03*
X110194000Y-61995000D03*
X110204000Y-60325000D03*
%TD*%
%TO.C,D133*%
X84624000Y-61926000D03*
X84604000Y-60386000D03*
X91144000Y-62046000D03*
X91154000Y-60376000D03*
%TD*%
%TO.C,D137*%
X65548600Y-61951000D03*
X65528600Y-60411000D03*
X72068600Y-62071000D03*
X72078600Y-60401000D03*
%TD*%
%TO.C,D141*%
X43984000Y-61951000D03*
X43964000Y-60411000D03*
X50504000Y-62071000D03*
X50514000Y-60401000D03*
%TD*%
%TO.C,D145*%
X46397000Y-80747000D03*
X46377000Y-79207000D03*
X52917000Y-80867000D03*
X52927000Y-79197000D03*
%TD*%
%TO.C,D149*%
X70400000Y-81001000D03*
X70380000Y-79461000D03*
X76920000Y-81121000D03*
X76930000Y-79451000D03*
%TD*%
%TO.C,D153*%
X89450000Y-81001000D03*
X89430000Y-79461000D03*
X95970000Y-81121000D03*
X95980000Y-79451000D03*
%TD*%
%TO.C,D157*%
X108475000Y-80976000D03*
X108455000Y-79436000D03*
X114995000Y-81096000D03*
X115005000Y-79426000D03*
%TD*%
%TO.C,D161*%
X127550000Y-81001000D03*
X127530000Y-79461000D03*
X134070000Y-81121000D03*
X134080000Y-79451000D03*
%TD*%
%TO.C,D165*%
X146371000Y-81001000D03*
X146351000Y-79461000D03*
X152891000Y-81121000D03*
X152901000Y-79451000D03*
%TD*%
%TO.C,D87*%
X165421000Y-81026000D03*
X165401000Y-79486000D03*
X171941000Y-81146000D03*
X171951000Y-79476000D03*
%TD*%
%TO.C,D92*%
X184446000Y-81012000D03*
X184426000Y-79472000D03*
X190966000Y-81132000D03*
X190976000Y-79462000D03*
%TD*%
%TO.C,D97*%
X203471000Y-81026000D03*
X203451000Y-79486000D03*
X209991000Y-81146000D03*
X210001000Y-79476000D03*
%TD*%
%TO.C,D102*%
X222571000Y-80976000D03*
X222551000Y-79436000D03*
X229091000Y-81096000D03*
X229101000Y-79426000D03*
%TD*%
%TO.C,D106*%
X241596000Y-81001000D03*
X241576000Y-79461000D03*
X248116000Y-81121000D03*
X248126000Y-79451000D03*
%TD*%
%TO.C,D110*%
X260646000Y-80987000D03*
X260626000Y-79447000D03*
X267166000Y-81107000D03*
X267176000Y-79437000D03*
%TD*%
%TO.C,D114*%
X287113000Y-81419000D03*
X287093000Y-79879000D03*
X293633000Y-81539000D03*
X293643000Y-79869000D03*
%TD*%
%TO.C,D118*%
X332579000Y-81216000D03*
X332559000Y-79676000D03*
X339099000Y-81336000D03*
X339109000Y-79666000D03*
%TD*%
%TO.C,D122*%
X351603000Y-81266000D03*
X351583000Y-79726000D03*
X358123000Y-81386000D03*
X358133000Y-79716000D03*
%TD*%
%TO.C,D126*%
X370628000Y-81241000D03*
X370608000Y-79701000D03*
X377148000Y-81361000D03*
X377158000Y-79691000D03*
%TD*%
%TO.C,D130*%
X389627000Y-81230000D03*
X389607000Y-79690000D03*
X396147000Y-81350000D03*
X396157000Y-79680000D03*
%TD*%
%TO.C,D134*%
X389627000Y-100266000D03*
X389607000Y-98726000D03*
X396147000Y-100386000D03*
X396157000Y-98716000D03*
%TD*%
%TO.C,D138*%
X370628000Y-100316000D03*
X370608000Y-98776000D03*
X377148000Y-100436000D03*
X377158000Y-98766000D03*
%TD*%
%TO.C,D142*%
X351578000Y-100240000D03*
X351558000Y-98700000D03*
X358098000Y-100360000D03*
X358108000Y-98690000D03*
%TD*%
%TO.C,D146*%
X332477000Y-100266000D03*
X332457000Y-98726000D03*
X338997000Y-100386000D03*
X339007000Y-98716000D03*
%TD*%
%TO.C,D150*%
X282363000Y-100686000D03*
X282343000Y-99146000D03*
X288883000Y-100806000D03*
X288893000Y-99136000D03*
%TD*%
%TO.C,D154*%
X251502000Y-100026000D03*
X251482000Y-98486000D03*
X258022000Y-100146000D03*
X258032000Y-98476000D03*
%TD*%
%TO.C,D158*%
X232452000Y-100051000D03*
X232432000Y-98511000D03*
X238972000Y-100171000D03*
X238982000Y-98501000D03*
%TD*%
%TO.C,D162*%
X213377000Y-100051000D03*
X213357000Y-98511000D03*
X219897000Y-100171000D03*
X219907000Y-98501000D03*
%TD*%
%TO.C,D166*%
X194352000Y-100026000D03*
X194332000Y-98486000D03*
X200872000Y-100146000D03*
X200882000Y-98476000D03*
%TD*%
%TO.C,D88*%
X175302000Y-100051000D03*
X175282000Y-98511000D03*
X181822000Y-100171000D03*
X181832000Y-98501000D03*
%TD*%
%TO.C,D93*%
X156227000Y-100051000D03*
X156207000Y-98511000D03*
X162747000Y-100171000D03*
X162757000Y-98501000D03*
%TD*%
%TO.C,D98*%
X137202000Y-100051000D03*
X137182000Y-98511000D03*
X143722000Y-100171000D03*
X143732000Y-98501000D03*
%TD*%
%TO.C,D103*%
X118152000Y-100051000D03*
X118132000Y-98511000D03*
X124672000Y-100171000D03*
X124682000Y-98501000D03*
%TD*%
%TO.C,D107*%
X99102000Y-100026000D03*
X99082000Y-98486000D03*
X105622000Y-100146000D03*
X105632000Y-98476000D03*
%TD*%
%TO.C,D111*%
X80052000Y-100026000D03*
X80032000Y-98486000D03*
X86572000Y-100146000D03*
X86582000Y-98476000D03*
%TD*%
%TO.C,D115*%
X51477000Y-100913000D03*
X51457000Y-99373000D03*
X57997000Y-101033000D03*
X58007000Y-99363000D03*
%TD*%
%TO.C,D119*%
X41698000Y-119138000D03*
X41678000Y-117598000D03*
X48218000Y-119258000D03*
X48228000Y-117588000D03*
%TD*%
%TO.C,D123*%
X60748000Y-119011000D03*
X60728000Y-117471000D03*
X67268000Y-119131000D03*
X67278000Y-117461000D03*
%TD*%
%TO.C,D127*%
X84751000Y-119863000D03*
X84731000Y-118323000D03*
X91271000Y-119983000D03*
X91281000Y-118313000D03*
%TD*%
%TO.C,D131*%
X108500000Y-119112000D03*
X108480000Y-117572000D03*
X115020000Y-119232000D03*
X115030000Y-117562000D03*
%TD*%
%TO.C,D135*%
X139513000Y-119595000D03*
X139493000Y-118055000D03*
X146033000Y-119715000D03*
X146043000Y-118045000D03*
%TD*%
%TO.C,D139*%
X170501000Y-119101000D03*
X170481000Y-117561000D03*
X177021000Y-119221000D03*
X177031000Y-117551000D03*
%TD*%
%TO.C,D143*%
X189526000Y-119062000D03*
X189506000Y-117522000D03*
X196046000Y-119182000D03*
X196056000Y-117512000D03*
%TD*%
%TO.C,D147*%
X220717000Y-119760000D03*
X220697000Y-118220000D03*
X227237000Y-119880000D03*
X227247000Y-118210000D03*
%TD*%
%TO.C,D151*%
X253788000Y-119671000D03*
X253768000Y-118131000D03*
X260308000Y-119791000D03*
X260318000Y-118121000D03*
%TD*%
%TO.C,D155*%
X275378000Y-119101000D03*
X275358000Y-117561000D03*
X281898000Y-119221000D03*
X281908000Y-117551000D03*
%TD*%
%TO.C,D159*%
X294453000Y-119112000D03*
X294433000Y-117572000D03*
X300973000Y-119232000D03*
X300983000Y-117562000D03*
%TD*%
%TO.C,D163*%
X332528000Y-119316000D03*
X332508000Y-117776000D03*
X339048000Y-119436000D03*
X339058000Y-117766000D03*
%TD*%
%TO.C,D167*%
X351578000Y-119316000D03*
X351558000Y-117776000D03*
X358098000Y-119436000D03*
X358108000Y-117766000D03*
%TD*%
%TO.C,D89*%
X370628000Y-119290000D03*
X370608000Y-117750000D03*
X377148000Y-119410000D03*
X377158000Y-117740000D03*
%TD*%
%TO.C,D94*%
X389653000Y-119290000D03*
X389633000Y-117750000D03*
X396173000Y-119410000D03*
X396183000Y-117740000D03*
%TD*%
%TO.C,D99*%
X291888000Y-43612000D03*
X291868000Y-42072000D03*
X298408000Y-43732000D03*
X298418000Y-42062000D03*
%TD*%
%TO.C,C3*%
G36*
G01*
X312950000Y-100500000D02*
X312950000Y-100160000D01*
G75*
G02*
X313090000Y-100020000I140000J0D01*
G01*
X313370000Y-100020000D01*
G75*
G02*
X313510000Y-100160000I0J-140000D01*
G01*
X313510000Y-100500000D01*
G75*
G02*
X313370000Y-100640000I-140000J0D01*
G01*
X313090000Y-100640000D01*
G75*
G02*
X312950000Y-100500000I0J140000D01*
G01*
G37*
G36*
G01*
X311990000Y-100500000D02*
X311990000Y-100160000D01*
G75*
G02*
X312130000Y-100020000I140000J0D01*
G01*
X312410000Y-100020000D01*
G75*
G02*
X312550000Y-100160000I0J-140000D01*
G01*
X312550000Y-100500000D01*
G75*
G02*
X312410000Y-100640000I-140000J0D01*
G01*
X312130000Y-100640000D01*
G75*
G02*
X311990000Y-100500000I0J140000D01*
G01*
G37*
%TD*%
%TO.C,C5*%
G36*
G01*
X312950000Y-98912000D02*
X312950000Y-98572000D01*
G75*
G02*
X313090000Y-98432000I140000J0D01*
G01*
X313370000Y-98432000D01*
G75*
G02*
X313510000Y-98572000I0J-140000D01*
G01*
X313510000Y-98912000D01*
G75*
G02*
X313370000Y-99052000I-140000J0D01*
G01*
X313090000Y-99052000D01*
G75*
G02*
X312950000Y-98912000I0J140000D01*
G01*
G37*
G36*
G01*
X311990000Y-98912000D02*
X311990000Y-98572000D01*
G75*
G02*
X312130000Y-98432000I140000J0D01*
G01*
X312410000Y-98432000D01*
G75*
G02*
X312550000Y-98572000I0J-140000D01*
G01*
X312550000Y-98912000D01*
G75*
G02*
X312410000Y-99052000I-140000J0D01*
G01*
X312130000Y-99052000D01*
G75*
G02*
X311990000Y-98912000I0J140000D01*
G01*
G37*
%TD*%
%TO.C,C7*%
G36*
G01*
X316455000Y-91610000D02*
X316455000Y-91270000D01*
G75*
G02*
X316595000Y-91130000I140000J0D01*
G01*
X316875000Y-91130000D01*
G75*
G02*
X317015000Y-91270000I0J-140000D01*
G01*
X317015000Y-91610000D01*
G75*
G02*
X316875000Y-91750000I-140000J0D01*
G01*
X316595000Y-91750000D01*
G75*
G02*
X316455000Y-91610000I0J140000D01*
G01*
G37*
G36*
G01*
X315495000Y-91610000D02*
X315495000Y-91270000D01*
G75*
G02*
X315635000Y-91130000I140000J0D01*
G01*
X315915000Y-91130000D01*
G75*
G02*
X316055000Y-91270000I0J-140000D01*
G01*
X316055000Y-91610000D01*
G75*
G02*
X315915000Y-91750000I-140000J0D01*
G01*
X315635000Y-91750000D01*
G75*
G02*
X315495000Y-91610000I0J140000D01*
G01*
G37*
%TD*%
%TO.C,C9*%
G36*
G01*
X312950000Y-97324000D02*
X312950000Y-96984000D01*
G75*
G02*
X313090000Y-96844000I140000J0D01*
G01*
X313370000Y-96844000D01*
G75*
G02*
X313510000Y-96984000I0J-140000D01*
G01*
X313510000Y-97324000D01*
G75*
G02*
X313370000Y-97464000I-140000J0D01*
G01*
X313090000Y-97464000D01*
G75*
G02*
X312950000Y-97324000I0J140000D01*
G01*
G37*
G36*
G01*
X311990000Y-97324000D02*
X311990000Y-96984000D01*
G75*
G02*
X312130000Y-96844000I140000J0D01*
G01*
X312410000Y-96844000D01*
G75*
G02*
X312550000Y-96984000I0J-140000D01*
G01*
X312550000Y-97324000D01*
G75*
G02*
X312410000Y-97464000I-140000J0D01*
G01*
X312130000Y-97464000D01*
G75*
G02*
X311990000Y-97324000I0J140000D01*
G01*
G37*
%TD*%
%TO.C,C10*%
G36*
G01*
X316455000Y-90069000D02*
X316455000Y-89729000D01*
G75*
G02*
X316595000Y-89589000I140000J0D01*
G01*
X316875000Y-89589000D01*
G75*
G02*
X317015000Y-89729000I0J-140000D01*
G01*
X317015000Y-90069000D01*
G75*
G02*
X316875000Y-90209000I-140000J0D01*
G01*
X316595000Y-90209000D01*
G75*
G02*
X316455000Y-90069000I0J140000D01*
G01*
G37*
G36*
G01*
X315495000Y-90069000D02*
X315495000Y-89729000D01*
G75*
G02*
X315635000Y-89589000I140000J0D01*
G01*
X315915000Y-89589000D01*
G75*
G02*
X316055000Y-89729000I0J-140000D01*
G01*
X316055000Y-90069000D01*
G75*
G02*
X315915000Y-90209000I-140000J0D01*
G01*
X315635000Y-90209000D01*
G75*
G02*
X315495000Y-90069000I0J140000D01*
G01*
G37*
%TD*%
%TO.C,C13*%
G36*
G01*
X312950000Y-89384000D02*
X312950000Y-89044000D01*
G75*
G02*
X313090000Y-88904000I140000J0D01*
G01*
X313370000Y-88904000D01*
G75*
G02*
X313510000Y-89044000I0J-140000D01*
G01*
X313510000Y-89384000D01*
G75*
G02*
X313370000Y-89524000I-140000J0D01*
G01*
X313090000Y-89524000D01*
G75*
G02*
X312950000Y-89384000I0J140000D01*
G01*
G37*
G36*
G01*
X311990000Y-89384000D02*
X311990000Y-89044000D01*
G75*
G02*
X312130000Y-88904000I140000J0D01*
G01*
X312410000Y-88904000D01*
G75*
G02*
X312550000Y-89044000I0J-140000D01*
G01*
X312550000Y-89384000D01*
G75*
G02*
X312410000Y-89524000I-140000J0D01*
G01*
X312130000Y-89524000D01*
G75*
G02*
X311990000Y-89384000I0J140000D01*
G01*
G37*
%TD*%
%TO.C,C15*%
G36*
G01*
X316455000Y-88528000D02*
X316455000Y-88188000D01*
G75*
G02*
X316595000Y-88048000I140000J0D01*
G01*
X316875000Y-88048000D01*
G75*
G02*
X317015000Y-88188000I0J-140000D01*
G01*
X317015000Y-88528000D01*
G75*
G02*
X316875000Y-88668000I-140000J0D01*
G01*
X316595000Y-88668000D01*
G75*
G02*
X316455000Y-88528000I0J140000D01*
G01*
G37*
G36*
G01*
X315495000Y-88528000D02*
X315495000Y-88188000D01*
G75*
G02*
X315635000Y-88048000I140000J0D01*
G01*
X315915000Y-88048000D01*
G75*
G02*
X316055000Y-88188000I0J-140000D01*
G01*
X316055000Y-88528000D01*
G75*
G02*
X315915000Y-88668000I-140000J0D01*
G01*
X315635000Y-88668000D01*
G75*
G02*
X315495000Y-88528000I0J140000D01*
G01*
G37*
%TD*%
%TO.C,C19*%
G36*
G01*
X312950000Y-86208000D02*
X312950000Y-85868000D01*
G75*
G02*
X313090000Y-85728000I140000J0D01*
G01*
X313370000Y-85728000D01*
G75*
G02*
X313510000Y-85868000I0J-140000D01*
G01*
X313510000Y-86208000D01*
G75*
G02*
X313370000Y-86348000I-140000J0D01*
G01*
X313090000Y-86348000D01*
G75*
G02*
X312950000Y-86208000I0J140000D01*
G01*
G37*
G36*
G01*
X311990000Y-86208000D02*
X311990000Y-85868000D01*
G75*
G02*
X312130000Y-85728000I140000J0D01*
G01*
X312410000Y-85728000D01*
G75*
G02*
X312550000Y-85868000I0J-140000D01*
G01*
X312550000Y-86208000D01*
G75*
G02*
X312410000Y-86348000I-140000J0D01*
G01*
X312130000Y-86348000D01*
G75*
G02*
X311990000Y-86208000I0J140000D01*
G01*
G37*
%TD*%
%TO.C,C20*%
G36*
G01*
X312950000Y-94148000D02*
X312950000Y-93808000D01*
G75*
G02*
X313090000Y-93668000I140000J0D01*
G01*
X313370000Y-93668000D01*
G75*
G02*
X313510000Y-93808000I0J-140000D01*
G01*
X313510000Y-94148000D01*
G75*
G02*
X313370000Y-94288000I-140000J0D01*
G01*
X313090000Y-94288000D01*
G75*
G02*
X312950000Y-94148000I0J140000D01*
G01*
G37*
G36*
G01*
X311990000Y-94148000D02*
X311990000Y-93808000D01*
G75*
G02*
X312130000Y-93668000I140000J0D01*
G01*
X312410000Y-93668000D01*
G75*
G02*
X312550000Y-93808000I0J-140000D01*
G01*
X312550000Y-94148000D01*
G75*
G02*
X312410000Y-94288000I-140000J0D01*
G01*
X312130000Y-94288000D01*
G75*
G02*
X311990000Y-94148000I0J140000D01*
G01*
G37*
%TD*%
%TO.C,C21*%
G36*
G01*
X316455000Y-86987000D02*
X316455000Y-86647000D01*
G75*
G02*
X316595000Y-86507000I140000J0D01*
G01*
X316875000Y-86507000D01*
G75*
G02*
X317015000Y-86647000I0J-140000D01*
G01*
X317015000Y-86987000D01*
G75*
G02*
X316875000Y-87127000I-140000J0D01*
G01*
X316595000Y-87127000D01*
G75*
G02*
X316455000Y-86987000I0J140000D01*
G01*
G37*
G36*
G01*
X315495000Y-86987000D02*
X315495000Y-86647000D01*
G75*
G02*
X315635000Y-86507000I140000J0D01*
G01*
X315915000Y-86507000D01*
G75*
G02*
X316055000Y-86647000I0J-140000D01*
G01*
X316055000Y-86987000D01*
G75*
G02*
X315915000Y-87127000I-140000J0D01*
G01*
X315635000Y-87127000D01*
G75*
G02*
X315495000Y-86987000I0J140000D01*
G01*
G37*
%TD*%
%TO.C,C24*%
G36*
G01*
X312950000Y-84620000D02*
X312950000Y-84280000D01*
G75*
G02*
X313090000Y-84140000I140000J0D01*
G01*
X313370000Y-84140000D01*
G75*
G02*
X313510000Y-84280000I0J-140000D01*
G01*
X313510000Y-84620000D01*
G75*
G02*
X313370000Y-84760000I-140000J0D01*
G01*
X313090000Y-84760000D01*
G75*
G02*
X312950000Y-84620000I0J140000D01*
G01*
G37*
G36*
G01*
X311990000Y-84620000D02*
X311990000Y-84280000D01*
G75*
G02*
X312130000Y-84140000I140000J0D01*
G01*
X312410000Y-84140000D01*
G75*
G02*
X312550000Y-84280000I0J-140000D01*
G01*
X312550000Y-84620000D01*
G75*
G02*
X312410000Y-84760000I-140000J0D01*
G01*
X312130000Y-84760000D01*
G75*
G02*
X311990000Y-84620000I0J140000D01*
G01*
G37*
%TD*%
%TO.C,C26*%
G36*
G01*
X316455000Y-77740000D02*
X316455000Y-77400000D01*
G75*
G02*
X316595000Y-77260000I140000J0D01*
G01*
X316875000Y-77260000D01*
G75*
G02*
X317015000Y-77400000I0J-140000D01*
G01*
X317015000Y-77740000D01*
G75*
G02*
X316875000Y-77880000I-140000J0D01*
G01*
X316595000Y-77880000D01*
G75*
G02*
X316455000Y-77740000I0J140000D01*
G01*
G37*
G36*
G01*
X315495000Y-77740000D02*
X315495000Y-77400000D01*
G75*
G02*
X315635000Y-77260000I140000J0D01*
G01*
X315915000Y-77260000D01*
G75*
G02*
X316055000Y-77400000I0J-140000D01*
G01*
X316055000Y-77740000D01*
G75*
G02*
X315915000Y-77880000I-140000J0D01*
G01*
X315635000Y-77880000D01*
G75*
G02*
X315495000Y-77740000I0J140000D01*
G01*
G37*
%TD*%
%TO.C,C28*%
G36*
G01*
X316455000Y-85446000D02*
X316455000Y-85106000D01*
G75*
G02*
X316595000Y-84966000I140000J0D01*
G01*
X316875000Y-84966000D01*
G75*
G02*
X317015000Y-85106000I0J-140000D01*
G01*
X317015000Y-85446000D01*
G75*
G02*
X316875000Y-85586000I-140000J0D01*
G01*
X316595000Y-85586000D01*
G75*
G02*
X316455000Y-85446000I0J140000D01*
G01*
G37*
G36*
G01*
X315495000Y-85446000D02*
X315495000Y-85106000D01*
G75*
G02*
X315635000Y-84966000I140000J0D01*
G01*
X315915000Y-84966000D01*
G75*
G02*
X316055000Y-85106000I0J-140000D01*
G01*
X316055000Y-85446000D01*
G75*
G02*
X315915000Y-85586000I-140000J0D01*
G01*
X315635000Y-85586000D01*
G75*
G02*
X315495000Y-85446000I0J140000D01*
G01*
G37*
%TD*%
%TO.C,C30*%
G36*
G01*
X312950000Y-81444000D02*
X312950000Y-81104000D01*
G75*
G02*
X313090000Y-80964000I140000J0D01*
G01*
X313370000Y-80964000D01*
G75*
G02*
X313510000Y-81104000I0J-140000D01*
G01*
X313510000Y-81444000D01*
G75*
G02*
X313370000Y-81584000I-140000J0D01*
G01*
X313090000Y-81584000D01*
G75*
G02*
X312950000Y-81444000I0J140000D01*
G01*
G37*
G36*
G01*
X311990000Y-81444000D02*
X311990000Y-81104000D01*
G75*
G02*
X312130000Y-80964000I140000J0D01*
G01*
X312410000Y-80964000D01*
G75*
G02*
X312550000Y-81104000I0J-140000D01*
G01*
X312550000Y-81444000D01*
G75*
G02*
X312410000Y-81584000I-140000J0D01*
G01*
X312130000Y-81584000D01*
G75*
G02*
X311990000Y-81444000I0J140000D01*
G01*
G37*
%TD*%
%TO.C,C31*%
G36*
G01*
X312950000Y-90972000D02*
X312950000Y-90632000D01*
G75*
G02*
X313090000Y-90492000I140000J0D01*
G01*
X313370000Y-90492000D01*
G75*
G02*
X313510000Y-90632000I0J-140000D01*
G01*
X313510000Y-90972000D01*
G75*
G02*
X313370000Y-91112000I-140000J0D01*
G01*
X313090000Y-91112000D01*
G75*
G02*
X312950000Y-90972000I0J140000D01*
G01*
G37*
G36*
G01*
X311990000Y-90972000D02*
X311990000Y-90632000D01*
G75*
G02*
X312130000Y-90492000I140000J0D01*
G01*
X312410000Y-90492000D01*
G75*
G02*
X312550000Y-90632000I0J-140000D01*
G01*
X312550000Y-90972000D01*
G75*
G02*
X312410000Y-91112000I-140000J0D01*
G01*
X312130000Y-91112000D01*
G75*
G02*
X311990000Y-90972000I0J140000D01*
G01*
G37*
%TD*%
%TO.C,C32*%
G36*
G01*
X316455000Y-76199000D02*
X316455000Y-75859000D01*
G75*
G02*
X316595000Y-75719000I140000J0D01*
G01*
X316875000Y-75719000D01*
G75*
G02*
X317015000Y-75859000I0J-140000D01*
G01*
X317015000Y-76199000D01*
G75*
G02*
X316875000Y-76339000I-140000J0D01*
G01*
X316595000Y-76339000D01*
G75*
G02*
X316455000Y-76199000I0J140000D01*
G01*
G37*
G36*
G01*
X315495000Y-76199000D02*
X315495000Y-75859000D01*
G75*
G02*
X315635000Y-75719000I140000J0D01*
G01*
X315915000Y-75719000D01*
G75*
G02*
X316055000Y-75859000I0J-140000D01*
G01*
X316055000Y-76199000D01*
G75*
G02*
X315915000Y-76339000I-140000J0D01*
G01*
X315635000Y-76339000D01*
G75*
G02*
X315495000Y-76199000I0J140000D01*
G01*
G37*
%TD*%
%TO.C,C33*%
G36*
G01*
X316455000Y-83905000D02*
X316455000Y-83565000D01*
G75*
G02*
X316595000Y-83425000I140000J0D01*
G01*
X316875000Y-83425000D01*
G75*
G02*
X317015000Y-83565000I0J-140000D01*
G01*
X317015000Y-83905000D01*
G75*
G02*
X316875000Y-84045000I-140000J0D01*
G01*
X316595000Y-84045000D01*
G75*
G02*
X316455000Y-83905000I0J140000D01*
G01*
G37*
G36*
G01*
X315495000Y-83905000D02*
X315495000Y-83565000D01*
G75*
G02*
X315635000Y-83425000I140000J0D01*
G01*
X315915000Y-83425000D01*
G75*
G02*
X316055000Y-83565000I0J-140000D01*
G01*
X316055000Y-83905000D01*
G75*
G02*
X315915000Y-84045000I-140000J0D01*
G01*
X315635000Y-84045000D01*
G75*
G02*
X315495000Y-83905000I0J140000D01*
G01*
G37*
%TD*%
%TO.C,C35*%
G36*
G01*
X312950000Y-95736000D02*
X312950000Y-95396000D01*
G75*
G02*
X313090000Y-95256000I140000J0D01*
G01*
X313370000Y-95256000D01*
G75*
G02*
X313510000Y-95396000I0J-140000D01*
G01*
X313510000Y-95736000D01*
G75*
G02*
X313370000Y-95876000I-140000J0D01*
G01*
X313090000Y-95876000D01*
G75*
G02*
X312950000Y-95736000I0J140000D01*
G01*
G37*
G36*
G01*
X311990000Y-95736000D02*
X311990000Y-95396000D01*
G75*
G02*
X312130000Y-95256000I140000J0D01*
G01*
X312410000Y-95256000D01*
G75*
G02*
X312550000Y-95396000I0J-140000D01*
G01*
X312550000Y-95736000D01*
G75*
G02*
X312410000Y-95876000I-140000J0D01*
G01*
X312130000Y-95876000D01*
G75*
G02*
X311990000Y-95736000I0J140000D01*
G01*
G37*
%TD*%
%TO.C,C36*%
G36*
G01*
X312950000Y-92560000D02*
X312950000Y-92220000D01*
G75*
G02*
X313090000Y-92080000I140000J0D01*
G01*
X313370000Y-92080000D01*
G75*
G02*
X313510000Y-92220000I0J-140000D01*
G01*
X313510000Y-92560000D01*
G75*
G02*
X313370000Y-92700000I-140000J0D01*
G01*
X313090000Y-92700000D01*
G75*
G02*
X312950000Y-92560000I0J140000D01*
G01*
G37*
G36*
G01*
X311990000Y-92560000D02*
X311990000Y-92220000D01*
G75*
G02*
X312130000Y-92080000I140000J0D01*
G01*
X312410000Y-92080000D01*
G75*
G02*
X312550000Y-92220000I0J-140000D01*
G01*
X312550000Y-92560000D01*
G75*
G02*
X312410000Y-92700000I-140000J0D01*
G01*
X312130000Y-92700000D01*
G75*
G02*
X311990000Y-92560000I0J140000D01*
G01*
G37*
%TD*%
%TO.C,C38*%
G36*
G01*
X312950000Y-78268000D02*
X312950000Y-77928000D01*
G75*
G02*
X313090000Y-77788000I140000J0D01*
G01*
X313370000Y-77788000D01*
G75*
G02*
X313510000Y-77928000I0J-140000D01*
G01*
X313510000Y-78268000D01*
G75*
G02*
X313370000Y-78408000I-140000J0D01*
G01*
X313090000Y-78408000D01*
G75*
G02*
X312950000Y-78268000I0J140000D01*
G01*
G37*
G36*
G01*
X311990000Y-78268000D02*
X311990000Y-77928000D01*
G75*
G02*
X312130000Y-77788000I140000J0D01*
G01*
X312410000Y-77788000D01*
G75*
G02*
X312550000Y-77928000I0J-140000D01*
G01*
X312550000Y-78268000D01*
G75*
G02*
X312410000Y-78408000I-140000J0D01*
G01*
X312130000Y-78408000D01*
G75*
G02*
X311990000Y-78268000I0J140000D01*
G01*
G37*
%TD*%
%TO.C,C39*%
G36*
G01*
X316455000Y-73117000D02*
X316455000Y-72777000D01*
G75*
G02*
X316595000Y-72637000I140000J0D01*
G01*
X316875000Y-72637000D01*
G75*
G02*
X317015000Y-72777000I0J-140000D01*
G01*
X317015000Y-73117000D01*
G75*
G02*
X316875000Y-73257000I-140000J0D01*
G01*
X316595000Y-73257000D01*
G75*
G02*
X316455000Y-73117000I0J140000D01*
G01*
G37*
G36*
G01*
X315495000Y-73117000D02*
X315495000Y-72777000D01*
G75*
G02*
X315635000Y-72637000I140000J0D01*
G01*
X315915000Y-72637000D01*
G75*
G02*
X316055000Y-72777000I0J-140000D01*
G01*
X316055000Y-73117000D01*
G75*
G02*
X315915000Y-73257000I-140000J0D01*
G01*
X315635000Y-73257000D01*
G75*
G02*
X315495000Y-73117000I0J140000D01*
G01*
G37*
%TD*%
%TO.C,C40*%
G36*
G01*
X316455000Y-82363000D02*
X316455000Y-82023000D01*
G75*
G02*
X316595000Y-81883000I140000J0D01*
G01*
X316875000Y-81883000D01*
G75*
G02*
X317015000Y-82023000I0J-140000D01*
G01*
X317015000Y-82363000D01*
G75*
G02*
X316875000Y-82503000I-140000J0D01*
G01*
X316595000Y-82503000D01*
G75*
G02*
X316455000Y-82363000I0J140000D01*
G01*
G37*
G36*
G01*
X315495000Y-82363000D02*
X315495000Y-82023000D01*
G75*
G02*
X315635000Y-81883000I140000J0D01*
G01*
X315915000Y-81883000D01*
G75*
G02*
X316055000Y-82023000I0J-140000D01*
G01*
X316055000Y-82363000D01*
G75*
G02*
X315915000Y-82503000I-140000J0D01*
G01*
X315635000Y-82503000D01*
G75*
G02*
X315495000Y-82363000I0J140000D01*
G01*
G37*
%TD*%
%TO.C,C43*%
G36*
G01*
X312950000Y-87796000D02*
X312950000Y-87456000D01*
G75*
G02*
X313090000Y-87316000I140000J0D01*
G01*
X313370000Y-87316000D01*
G75*
G02*
X313510000Y-87456000I0J-140000D01*
G01*
X313510000Y-87796000D01*
G75*
G02*
X313370000Y-87936000I-140000J0D01*
G01*
X313090000Y-87936000D01*
G75*
G02*
X312950000Y-87796000I0J140000D01*
G01*
G37*
G36*
G01*
X311990000Y-87796000D02*
X311990000Y-87456000D01*
G75*
G02*
X312130000Y-87316000I140000J0D01*
G01*
X312410000Y-87316000D01*
G75*
G02*
X312550000Y-87456000I0J-140000D01*
G01*
X312550000Y-87796000D01*
G75*
G02*
X312410000Y-87936000I-140000J0D01*
G01*
X312130000Y-87936000D01*
G75*
G02*
X311990000Y-87796000I0J140000D01*
G01*
G37*
%TD*%
%TO.C,C44*%
G36*
G01*
X312950000Y-83032000D02*
X312950000Y-82692000D01*
G75*
G02*
X313090000Y-82552000I140000J0D01*
G01*
X313370000Y-82552000D01*
G75*
G02*
X313510000Y-82692000I0J-140000D01*
G01*
X313510000Y-83032000D01*
G75*
G02*
X313370000Y-83172000I-140000J0D01*
G01*
X313090000Y-83172000D01*
G75*
G02*
X312950000Y-83032000I0J140000D01*
G01*
G37*
G36*
G01*
X311990000Y-83032000D02*
X311990000Y-82692000D01*
G75*
G02*
X312130000Y-82552000I140000J0D01*
G01*
X312410000Y-82552000D01*
G75*
G02*
X312550000Y-82692000I0J-140000D01*
G01*
X312550000Y-83032000D01*
G75*
G02*
X312410000Y-83172000I-140000J0D01*
G01*
X312130000Y-83172000D01*
G75*
G02*
X311990000Y-83032000I0J140000D01*
G01*
G37*
%TD*%
%TO.C,C45*%
G36*
G01*
X316455000Y-80822000D02*
X316455000Y-80482000D01*
G75*
G02*
X316595000Y-80342000I140000J0D01*
G01*
X316875000Y-80342000D01*
G75*
G02*
X317015000Y-80482000I0J-140000D01*
G01*
X317015000Y-80822000D01*
G75*
G02*
X316875000Y-80962000I-140000J0D01*
G01*
X316595000Y-80962000D01*
G75*
G02*
X316455000Y-80822000I0J140000D01*
G01*
G37*
G36*
G01*
X315495000Y-80822000D02*
X315495000Y-80482000D01*
G75*
G02*
X315635000Y-80342000I140000J0D01*
G01*
X315915000Y-80342000D01*
G75*
G02*
X316055000Y-80482000I0J-140000D01*
G01*
X316055000Y-80822000D01*
G75*
G02*
X315915000Y-80962000I-140000J0D01*
G01*
X315635000Y-80962000D01*
G75*
G02*
X315495000Y-80822000I0J140000D01*
G01*
G37*
%TD*%
%TO.C,C46*%
G36*
G01*
X312950000Y-57623000D02*
X312950000Y-57283000D01*
G75*
G02*
X313090000Y-57143000I140000J0D01*
G01*
X313370000Y-57143000D01*
G75*
G02*
X313510000Y-57283000I0J-140000D01*
G01*
X313510000Y-57623000D01*
G75*
G02*
X313370000Y-57763000I-140000J0D01*
G01*
X313090000Y-57763000D01*
G75*
G02*
X312950000Y-57623000I0J140000D01*
G01*
G37*
G36*
G01*
X311990000Y-57623000D02*
X311990000Y-57283000D01*
G75*
G02*
X312130000Y-57143000I140000J0D01*
G01*
X312410000Y-57143000D01*
G75*
G02*
X312550000Y-57283000I0J-140000D01*
G01*
X312550000Y-57623000D01*
G75*
G02*
X312410000Y-57763000I-140000J0D01*
G01*
X312130000Y-57763000D01*
G75*
G02*
X311990000Y-57623000I0J140000D01*
G01*
G37*
%TD*%
%TO.C,C47*%
G36*
G01*
X316455000Y-70035000D02*
X316455000Y-69695000D01*
G75*
G02*
X316595000Y-69555000I140000J0D01*
G01*
X316875000Y-69555000D01*
G75*
G02*
X317015000Y-69695000I0J-140000D01*
G01*
X317015000Y-70035000D01*
G75*
G02*
X316875000Y-70175000I-140000J0D01*
G01*
X316595000Y-70175000D01*
G75*
G02*
X316455000Y-70035000I0J140000D01*
G01*
G37*
G36*
G01*
X315495000Y-70035000D02*
X315495000Y-69695000D01*
G75*
G02*
X315635000Y-69555000I140000J0D01*
G01*
X315915000Y-69555000D01*
G75*
G02*
X316055000Y-69695000I0J-140000D01*
G01*
X316055000Y-70035000D01*
G75*
G02*
X315915000Y-70175000I-140000J0D01*
G01*
X315635000Y-70175000D01*
G75*
G02*
X315495000Y-70035000I0J140000D01*
G01*
G37*
%TD*%
%TO.C,C50*%
G36*
G01*
X312950000Y-79856000D02*
X312950000Y-79516000D01*
G75*
G02*
X313090000Y-79376000I140000J0D01*
G01*
X313370000Y-79376000D01*
G75*
G02*
X313510000Y-79516000I0J-140000D01*
G01*
X313510000Y-79856000D01*
G75*
G02*
X313370000Y-79996000I-140000J0D01*
G01*
X313090000Y-79996000D01*
G75*
G02*
X312950000Y-79856000I0J140000D01*
G01*
G37*
G36*
G01*
X311990000Y-79856000D02*
X311990000Y-79516000D01*
G75*
G02*
X312130000Y-79376000I140000J0D01*
G01*
X312410000Y-79376000D01*
G75*
G02*
X312550000Y-79516000I0J-140000D01*
G01*
X312550000Y-79856000D01*
G75*
G02*
X312410000Y-79996000I-140000J0D01*
G01*
X312130000Y-79996000D01*
G75*
G02*
X311990000Y-79856000I0J140000D01*
G01*
G37*
%TD*%
%TO.C,C51*%
G36*
G01*
X312950000Y-71915000D02*
X312950000Y-71575000D01*
G75*
G02*
X313090000Y-71435000I140000J0D01*
G01*
X313370000Y-71435000D01*
G75*
G02*
X313510000Y-71575000I0J-140000D01*
G01*
X313510000Y-71915000D01*
G75*
G02*
X313370000Y-72055000I-140000J0D01*
G01*
X313090000Y-72055000D01*
G75*
G02*
X312950000Y-71915000I0J140000D01*
G01*
G37*
G36*
G01*
X311990000Y-71915000D02*
X311990000Y-71575000D01*
G75*
G02*
X312130000Y-71435000I140000J0D01*
G01*
X312410000Y-71435000D01*
G75*
G02*
X312550000Y-71575000I0J-140000D01*
G01*
X312550000Y-71915000D01*
G75*
G02*
X312410000Y-72055000I-140000J0D01*
G01*
X312130000Y-72055000D01*
G75*
G02*
X311990000Y-71915000I0J140000D01*
G01*
G37*
%TD*%
%TO.C,C52*%
G36*
G01*
X316455000Y-79281000D02*
X316455000Y-78941000D01*
G75*
G02*
X316595000Y-78801000I140000J0D01*
G01*
X316875000Y-78801000D01*
G75*
G02*
X317015000Y-78941000I0J-140000D01*
G01*
X317015000Y-79281000D01*
G75*
G02*
X316875000Y-79421000I-140000J0D01*
G01*
X316595000Y-79421000D01*
G75*
G02*
X316455000Y-79281000I0J140000D01*
G01*
G37*
G36*
G01*
X315495000Y-79281000D02*
X315495000Y-78941000D01*
G75*
G02*
X315635000Y-78801000I140000J0D01*
G01*
X315915000Y-78801000D01*
G75*
G02*
X316055000Y-78941000I0J-140000D01*
G01*
X316055000Y-79281000D01*
G75*
G02*
X315915000Y-79421000I-140000J0D01*
G01*
X315635000Y-79421000D01*
G75*
G02*
X315495000Y-79281000I0J140000D01*
G01*
G37*
%TD*%
%TO.C,C53*%
G36*
G01*
X316455000Y-74658000D02*
X316455000Y-74318000D01*
G75*
G02*
X316595000Y-74178000I140000J0D01*
G01*
X316875000Y-74178000D01*
G75*
G02*
X317015000Y-74318000I0J-140000D01*
G01*
X317015000Y-74658000D01*
G75*
G02*
X316875000Y-74798000I-140000J0D01*
G01*
X316595000Y-74798000D01*
G75*
G02*
X316455000Y-74658000I0J140000D01*
G01*
G37*
G36*
G01*
X315495000Y-74658000D02*
X315495000Y-74318000D01*
G75*
G02*
X315635000Y-74178000I140000J0D01*
G01*
X315915000Y-74178000D01*
G75*
G02*
X316055000Y-74318000I0J-140000D01*
G01*
X316055000Y-74658000D01*
G75*
G02*
X315915000Y-74798000I-140000J0D01*
G01*
X315635000Y-74798000D01*
G75*
G02*
X315495000Y-74658000I0J140000D01*
G01*
G37*
%TD*%
%TO.C,C55*%
G36*
G01*
X316455000Y-66953000D02*
X316455000Y-66613000D01*
G75*
G02*
X316595000Y-66473000I140000J0D01*
G01*
X316875000Y-66473000D01*
G75*
G02*
X317015000Y-66613000I0J-140000D01*
G01*
X317015000Y-66953000D01*
G75*
G02*
X316875000Y-67093000I-140000J0D01*
G01*
X316595000Y-67093000D01*
G75*
G02*
X316455000Y-66953000I0J140000D01*
G01*
G37*
G36*
G01*
X315495000Y-66953000D02*
X315495000Y-66613000D01*
G75*
G02*
X315635000Y-66473000I140000J0D01*
G01*
X315915000Y-66473000D01*
G75*
G02*
X316055000Y-66613000I0J-140000D01*
G01*
X316055000Y-66953000D01*
G75*
G02*
X315915000Y-67093000I-140000J0D01*
G01*
X315635000Y-67093000D01*
G75*
G02*
X315495000Y-66953000I0J140000D01*
G01*
G37*
%TD*%
%TO.C,C56*%
G36*
G01*
X312950000Y-67151000D02*
X312950000Y-66811000D01*
G75*
G02*
X313090000Y-66671000I140000J0D01*
G01*
X313370000Y-66671000D01*
G75*
G02*
X313510000Y-66811000I0J-140000D01*
G01*
X313510000Y-67151000D01*
G75*
G02*
X313370000Y-67291000I-140000J0D01*
G01*
X313090000Y-67291000D01*
G75*
G02*
X312950000Y-67151000I0J140000D01*
G01*
G37*
G36*
G01*
X311990000Y-67151000D02*
X311990000Y-66811000D01*
G75*
G02*
X312130000Y-66671000I140000J0D01*
G01*
X312410000Y-66671000D01*
G75*
G02*
X312550000Y-66811000I0J-140000D01*
G01*
X312550000Y-67151000D01*
G75*
G02*
X312410000Y-67291000I-140000J0D01*
G01*
X312130000Y-67291000D01*
G75*
G02*
X311990000Y-67151000I0J140000D01*
G01*
G37*
%TD*%
%TO.C,C57*%
G36*
G01*
X312950000Y-75091000D02*
X312950000Y-74751000D01*
G75*
G02*
X313090000Y-74611000I140000J0D01*
G01*
X313370000Y-74611000D01*
G75*
G02*
X313510000Y-74751000I0J-140000D01*
G01*
X313510000Y-75091000D01*
G75*
G02*
X313370000Y-75231000I-140000J0D01*
G01*
X313090000Y-75231000D01*
G75*
G02*
X312950000Y-75091000I0J140000D01*
G01*
G37*
G36*
G01*
X311990000Y-75091000D02*
X311990000Y-74751000D01*
G75*
G02*
X312130000Y-74611000I140000J0D01*
G01*
X312410000Y-74611000D01*
G75*
G02*
X312550000Y-74751000I0J-140000D01*
G01*
X312550000Y-75091000D01*
G75*
G02*
X312410000Y-75231000I-140000J0D01*
G01*
X312130000Y-75231000D01*
G75*
G02*
X311990000Y-75091000I0J140000D01*
G01*
G37*
%TD*%
%TO.C,C58*%
G36*
G01*
X312950000Y-68739000D02*
X312950000Y-68399000D01*
G75*
G02*
X313090000Y-68259000I140000J0D01*
G01*
X313370000Y-68259000D01*
G75*
G02*
X313510000Y-68399000I0J-140000D01*
G01*
X313510000Y-68739000D01*
G75*
G02*
X313370000Y-68879000I-140000J0D01*
G01*
X313090000Y-68879000D01*
G75*
G02*
X312950000Y-68739000I0J140000D01*
G01*
G37*
G36*
G01*
X311990000Y-68739000D02*
X311990000Y-68399000D01*
G75*
G02*
X312130000Y-68259000I140000J0D01*
G01*
X312410000Y-68259000D01*
G75*
G02*
X312550000Y-68399000I0J-140000D01*
G01*
X312550000Y-68739000D01*
G75*
G02*
X312410000Y-68879000I-140000J0D01*
G01*
X312130000Y-68879000D01*
G75*
G02*
X311990000Y-68739000I0J140000D01*
G01*
G37*
%TD*%
%TO.C,C59*%
G36*
G01*
X316455000Y-71576000D02*
X316455000Y-71236000D01*
G75*
G02*
X316595000Y-71096000I140000J0D01*
G01*
X316875000Y-71096000D01*
G75*
G02*
X317015000Y-71236000I0J-140000D01*
G01*
X317015000Y-71576000D01*
G75*
G02*
X316875000Y-71716000I-140000J0D01*
G01*
X316595000Y-71716000D01*
G75*
G02*
X316455000Y-71576000I0J140000D01*
G01*
G37*
G36*
G01*
X315495000Y-71576000D02*
X315495000Y-71236000D01*
G75*
G02*
X315635000Y-71096000I140000J0D01*
G01*
X315915000Y-71096000D01*
G75*
G02*
X316055000Y-71236000I0J-140000D01*
G01*
X316055000Y-71576000D01*
G75*
G02*
X315915000Y-71716000I-140000J0D01*
G01*
X315635000Y-71716000D01*
G75*
G02*
X315495000Y-71576000I0J140000D01*
G01*
G37*
%TD*%
%TO.C,C60*%
G36*
G01*
X316455000Y-63870000D02*
X316455000Y-63530000D01*
G75*
G02*
X316595000Y-63390000I140000J0D01*
G01*
X316875000Y-63390000D01*
G75*
G02*
X317015000Y-63530000I0J-140000D01*
G01*
X317015000Y-63870000D01*
G75*
G02*
X316875000Y-64010000I-140000J0D01*
G01*
X316595000Y-64010000D01*
G75*
G02*
X316455000Y-63870000I0J140000D01*
G01*
G37*
G36*
G01*
X315495000Y-63870000D02*
X315495000Y-63530000D01*
G75*
G02*
X315635000Y-63390000I140000J0D01*
G01*
X315915000Y-63390000D01*
G75*
G02*
X316055000Y-63530000I0J-140000D01*
G01*
X316055000Y-63870000D01*
G75*
G02*
X315915000Y-64010000I-140000J0D01*
G01*
X315635000Y-64010000D01*
G75*
G02*
X315495000Y-63870000I0J140000D01*
G01*
G37*
%TD*%
%TO.C,C63*%
G36*
G01*
X312950000Y-65563000D02*
X312950000Y-65223000D01*
G75*
G02*
X313090000Y-65083000I140000J0D01*
G01*
X313370000Y-65083000D01*
G75*
G02*
X313510000Y-65223000I0J-140000D01*
G01*
X313510000Y-65563000D01*
G75*
G02*
X313370000Y-65703000I-140000J0D01*
G01*
X313090000Y-65703000D01*
G75*
G02*
X312950000Y-65563000I0J140000D01*
G01*
G37*
G36*
G01*
X311990000Y-65563000D02*
X311990000Y-65223000D01*
G75*
G02*
X312130000Y-65083000I140000J0D01*
G01*
X312410000Y-65083000D01*
G75*
G02*
X312550000Y-65223000I0J-140000D01*
G01*
X312550000Y-65563000D01*
G75*
G02*
X312410000Y-65703000I-140000J0D01*
G01*
X312130000Y-65703000D01*
G75*
G02*
X311990000Y-65563000I0J140000D01*
G01*
G37*
%TD*%
%TO.C,C65*%
G36*
G01*
X312950000Y-73503000D02*
X312950000Y-73163000D01*
G75*
G02*
X313090000Y-73023000I140000J0D01*
G01*
X313370000Y-73023000D01*
G75*
G02*
X313510000Y-73163000I0J-140000D01*
G01*
X313510000Y-73503000D01*
G75*
G02*
X313370000Y-73643000I-140000J0D01*
G01*
X313090000Y-73643000D01*
G75*
G02*
X312950000Y-73503000I0J140000D01*
G01*
G37*
G36*
G01*
X311990000Y-73503000D02*
X311990000Y-73163000D01*
G75*
G02*
X312130000Y-73023000I140000J0D01*
G01*
X312410000Y-73023000D01*
G75*
G02*
X312550000Y-73163000I0J-140000D01*
G01*
X312550000Y-73503000D01*
G75*
G02*
X312410000Y-73643000I-140000J0D01*
G01*
X312130000Y-73643000D01*
G75*
G02*
X311990000Y-73503000I0J140000D01*
G01*
G37*
%TD*%
%TO.C,C66*%
G36*
G01*
X316455000Y-68494000D02*
X316455000Y-68154000D01*
G75*
G02*
X316595000Y-68014000I140000J0D01*
G01*
X316875000Y-68014000D01*
G75*
G02*
X317015000Y-68154000I0J-140000D01*
G01*
X317015000Y-68494000D01*
G75*
G02*
X316875000Y-68634000I-140000J0D01*
G01*
X316595000Y-68634000D01*
G75*
G02*
X316455000Y-68494000I0J140000D01*
G01*
G37*
G36*
G01*
X315495000Y-68494000D02*
X315495000Y-68154000D01*
G75*
G02*
X315635000Y-68014000I140000J0D01*
G01*
X315915000Y-68014000D01*
G75*
G02*
X316055000Y-68154000I0J-140000D01*
G01*
X316055000Y-68494000D01*
G75*
G02*
X315915000Y-68634000I-140000J0D01*
G01*
X315635000Y-68634000D01*
G75*
G02*
X315495000Y-68494000I0J140000D01*
G01*
G37*
%TD*%
%TO.C,C70*%
G36*
G01*
X312950000Y-62387000D02*
X312950000Y-62047000D01*
G75*
G02*
X313090000Y-61907000I140000J0D01*
G01*
X313370000Y-61907000D01*
G75*
G02*
X313510000Y-62047000I0J-140000D01*
G01*
X313510000Y-62387000D01*
G75*
G02*
X313370000Y-62527000I-140000J0D01*
G01*
X313090000Y-62527000D01*
G75*
G02*
X312950000Y-62387000I0J140000D01*
G01*
G37*
G36*
G01*
X311990000Y-62387000D02*
X311990000Y-62047000D01*
G75*
G02*
X312130000Y-61907000I140000J0D01*
G01*
X312410000Y-61907000D01*
G75*
G02*
X312550000Y-62047000I0J-140000D01*
G01*
X312550000Y-62387000D01*
G75*
G02*
X312410000Y-62527000I-140000J0D01*
G01*
X312130000Y-62527000D01*
G75*
G02*
X311990000Y-62387000I0J140000D01*
G01*
G37*
%TD*%
%TO.C,C71*%
G36*
G01*
X312950000Y-59211000D02*
X312950000Y-58871000D01*
G75*
G02*
X313090000Y-58731000I140000J0D01*
G01*
X313370000Y-58731000D01*
G75*
G02*
X313510000Y-58871000I0J-140000D01*
G01*
X313510000Y-59211000D01*
G75*
G02*
X313370000Y-59351000I-140000J0D01*
G01*
X313090000Y-59351000D01*
G75*
G02*
X312950000Y-59211000I0J140000D01*
G01*
G37*
G36*
G01*
X311990000Y-59211000D02*
X311990000Y-58871000D01*
G75*
G02*
X312130000Y-58731000I140000J0D01*
G01*
X312410000Y-58731000D01*
G75*
G02*
X312550000Y-58871000I0J-140000D01*
G01*
X312550000Y-59211000D01*
G75*
G02*
X312410000Y-59351000I-140000J0D01*
G01*
X312130000Y-59351000D01*
G75*
G02*
X311990000Y-59211000I0J140000D01*
G01*
G37*
%TD*%
%TO.C,C72*%
G36*
G01*
X316455000Y-57706000D02*
X316455000Y-57366000D01*
G75*
G02*
X316595000Y-57226000I140000J0D01*
G01*
X316875000Y-57226000D01*
G75*
G02*
X317015000Y-57366000I0J-140000D01*
G01*
X317015000Y-57706000D01*
G75*
G02*
X316875000Y-57846000I-140000J0D01*
G01*
X316595000Y-57846000D01*
G75*
G02*
X316455000Y-57706000I0J140000D01*
G01*
G37*
G36*
G01*
X315495000Y-57706000D02*
X315495000Y-57366000D01*
G75*
G02*
X315635000Y-57226000I140000J0D01*
G01*
X315915000Y-57226000D01*
G75*
G02*
X316055000Y-57366000I0J-140000D01*
G01*
X316055000Y-57706000D01*
G75*
G02*
X315915000Y-57846000I-140000J0D01*
G01*
X315635000Y-57846000D01*
G75*
G02*
X315495000Y-57706000I0J140000D01*
G01*
G37*
%TD*%
%TO.C,C73*%
G36*
G01*
X312950000Y-70327000D02*
X312950000Y-69987000D01*
G75*
G02*
X313090000Y-69847000I140000J0D01*
G01*
X313370000Y-69847000D01*
G75*
G02*
X313510000Y-69987000I0J-140000D01*
G01*
X313510000Y-70327000D01*
G75*
G02*
X313370000Y-70467000I-140000J0D01*
G01*
X313090000Y-70467000D01*
G75*
G02*
X312950000Y-70327000I0J140000D01*
G01*
G37*
G36*
G01*
X311990000Y-70327000D02*
X311990000Y-69987000D01*
G75*
G02*
X312130000Y-69847000I140000J0D01*
G01*
X312410000Y-69847000D01*
G75*
G02*
X312550000Y-69987000I0J-140000D01*
G01*
X312550000Y-70327000D01*
G75*
G02*
X312410000Y-70467000I-140000J0D01*
G01*
X312130000Y-70467000D01*
G75*
G02*
X311990000Y-70327000I0J140000D01*
G01*
G37*
%TD*%
%TO.C,C74*%
G36*
G01*
X316455000Y-65412000D02*
X316455000Y-65072000D01*
G75*
G02*
X316595000Y-64932000I140000J0D01*
G01*
X316875000Y-64932000D01*
G75*
G02*
X317015000Y-65072000I0J-140000D01*
G01*
X317015000Y-65412000D01*
G75*
G02*
X316875000Y-65552000I-140000J0D01*
G01*
X316595000Y-65552000D01*
G75*
G02*
X316455000Y-65412000I0J140000D01*
G01*
G37*
G36*
G01*
X315495000Y-65412000D02*
X315495000Y-65072000D01*
G75*
G02*
X315635000Y-64932000I140000J0D01*
G01*
X315915000Y-64932000D01*
G75*
G02*
X316055000Y-65072000I0J-140000D01*
G01*
X316055000Y-65412000D01*
G75*
G02*
X315915000Y-65552000I-140000J0D01*
G01*
X315635000Y-65552000D01*
G75*
G02*
X315495000Y-65412000I0J140000D01*
G01*
G37*
%TD*%
%TO.C,C77*%
G36*
G01*
X312950000Y-76679000D02*
X312950000Y-76339000D01*
G75*
G02*
X313090000Y-76199000I140000J0D01*
G01*
X313370000Y-76199000D01*
G75*
G02*
X313510000Y-76339000I0J-140000D01*
G01*
X313510000Y-76679000D01*
G75*
G02*
X313370000Y-76819000I-140000J0D01*
G01*
X313090000Y-76819000D01*
G75*
G02*
X312950000Y-76679000I0J140000D01*
G01*
G37*
G36*
G01*
X311990000Y-76679000D02*
X311990000Y-76339000D01*
G75*
G02*
X312130000Y-76199000I140000J0D01*
G01*
X312410000Y-76199000D01*
G75*
G02*
X312550000Y-76339000I0J-140000D01*
G01*
X312550000Y-76679000D01*
G75*
G02*
X312410000Y-76819000I-140000J0D01*
G01*
X312130000Y-76819000D01*
G75*
G02*
X311990000Y-76679000I0J140000D01*
G01*
G37*
%TD*%
%TO.C,C78*%
G36*
G01*
X316455000Y-60788000D02*
X316455000Y-60448000D01*
G75*
G02*
X316595000Y-60308000I140000J0D01*
G01*
X316875000Y-60308000D01*
G75*
G02*
X317015000Y-60448000I0J-140000D01*
G01*
X317015000Y-60788000D01*
G75*
G02*
X316875000Y-60928000I-140000J0D01*
G01*
X316595000Y-60928000D01*
G75*
G02*
X316455000Y-60788000I0J140000D01*
G01*
G37*
G36*
G01*
X315495000Y-60788000D02*
X315495000Y-60448000D01*
G75*
G02*
X315635000Y-60308000I140000J0D01*
G01*
X315915000Y-60308000D01*
G75*
G02*
X316055000Y-60448000I0J-140000D01*
G01*
X316055000Y-60788000D01*
G75*
G02*
X315915000Y-60928000I-140000J0D01*
G01*
X315635000Y-60928000D01*
G75*
G02*
X315495000Y-60788000I0J140000D01*
G01*
G37*
%TD*%
%TO.C,C79*%
G36*
G01*
X316455000Y-56165000D02*
X316455000Y-55825000D01*
G75*
G02*
X316595000Y-55685000I140000J0D01*
G01*
X316875000Y-55685000D01*
G75*
G02*
X317015000Y-55825000I0J-140000D01*
G01*
X317015000Y-56165000D01*
G75*
G02*
X316875000Y-56305000I-140000J0D01*
G01*
X316595000Y-56305000D01*
G75*
G02*
X316455000Y-56165000I0J140000D01*
G01*
G37*
G36*
G01*
X315495000Y-56165000D02*
X315495000Y-55825000D01*
G75*
G02*
X315635000Y-55685000I140000J0D01*
G01*
X315915000Y-55685000D01*
G75*
G02*
X316055000Y-55825000I0J-140000D01*
G01*
X316055000Y-56165000D01*
G75*
G02*
X315915000Y-56305000I-140000J0D01*
G01*
X315635000Y-56305000D01*
G75*
G02*
X315495000Y-56165000I0J140000D01*
G01*
G37*
%TD*%
%TO.C,C81*%
G36*
G01*
X316455000Y-62329000D02*
X316455000Y-61989000D01*
G75*
G02*
X316595000Y-61849000I140000J0D01*
G01*
X316875000Y-61849000D01*
G75*
G02*
X317015000Y-61989000I0J-140000D01*
G01*
X317015000Y-62329000D01*
G75*
G02*
X316875000Y-62469000I-140000J0D01*
G01*
X316595000Y-62469000D01*
G75*
G02*
X316455000Y-62329000I0J140000D01*
G01*
G37*
G36*
G01*
X315495000Y-62329000D02*
X315495000Y-61989000D01*
G75*
G02*
X315635000Y-61849000I140000J0D01*
G01*
X315915000Y-61849000D01*
G75*
G02*
X316055000Y-61989000I0J-140000D01*
G01*
X316055000Y-62329000D01*
G75*
G02*
X315915000Y-62469000I-140000J0D01*
G01*
X315635000Y-62469000D01*
G75*
G02*
X315495000Y-62329000I0J140000D01*
G01*
G37*
%TD*%
%TO.C,C83*%
G36*
G01*
X312950000Y-56035000D02*
X312950000Y-55695000D01*
G75*
G02*
X313090000Y-55555000I140000J0D01*
G01*
X313370000Y-55555000D01*
G75*
G02*
X313510000Y-55695000I0J-140000D01*
G01*
X313510000Y-56035000D01*
G75*
G02*
X313370000Y-56175000I-140000J0D01*
G01*
X313090000Y-56175000D01*
G75*
G02*
X312950000Y-56035000I0J140000D01*
G01*
G37*
G36*
G01*
X311990000Y-56035000D02*
X311990000Y-55695000D01*
G75*
G02*
X312130000Y-55555000I140000J0D01*
G01*
X312410000Y-55555000D01*
G75*
G02*
X312550000Y-55695000I0J-140000D01*
G01*
X312550000Y-56035000D01*
G75*
G02*
X312410000Y-56175000I-140000J0D01*
G01*
X312130000Y-56175000D01*
G75*
G02*
X311990000Y-56035000I0J140000D01*
G01*
G37*
%TD*%
%TO.C,C84*%
G36*
G01*
X312950000Y-63975000D02*
X312950000Y-63635000D01*
G75*
G02*
X313090000Y-63495000I140000J0D01*
G01*
X313370000Y-63495000D01*
G75*
G02*
X313510000Y-63635000I0J-140000D01*
G01*
X313510000Y-63975000D01*
G75*
G02*
X313370000Y-64115000I-140000J0D01*
G01*
X313090000Y-64115000D01*
G75*
G02*
X312950000Y-63975000I0J140000D01*
G01*
G37*
G36*
G01*
X311990000Y-63975000D02*
X311990000Y-63635000D01*
G75*
G02*
X312130000Y-63495000I140000J0D01*
G01*
X312410000Y-63495000D01*
G75*
G02*
X312550000Y-63635000I0J-140000D01*
G01*
X312550000Y-63975000D01*
G75*
G02*
X312410000Y-64115000I-140000J0D01*
G01*
X312130000Y-64115000D01*
G75*
G02*
X311990000Y-63975000I0J140000D01*
G01*
G37*
%TD*%
%TO.C,C85*%
G36*
G01*
X316455000Y-59247000D02*
X316455000Y-58907000D01*
G75*
G02*
X316595000Y-58767000I140000J0D01*
G01*
X316875000Y-58767000D01*
G75*
G02*
X317015000Y-58907000I0J-140000D01*
G01*
X317015000Y-59247000D01*
G75*
G02*
X316875000Y-59387000I-140000J0D01*
G01*
X316595000Y-59387000D01*
G75*
G02*
X316455000Y-59247000I0J140000D01*
G01*
G37*
G36*
G01*
X315495000Y-59247000D02*
X315495000Y-58907000D01*
G75*
G02*
X315635000Y-58767000I140000J0D01*
G01*
X315915000Y-58767000D01*
G75*
G02*
X316055000Y-58907000I0J-140000D01*
G01*
X316055000Y-59247000D01*
G75*
G02*
X315915000Y-59387000I-140000J0D01*
G01*
X315635000Y-59387000D01*
G75*
G02*
X315495000Y-59247000I0J140000D01*
G01*
G37*
%TD*%
%TO.C,C87*%
G36*
G01*
X312950000Y-60799000D02*
X312950000Y-60459000D01*
G75*
G02*
X313090000Y-60319000I140000J0D01*
G01*
X313370000Y-60319000D01*
G75*
G02*
X313510000Y-60459000I0J-140000D01*
G01*
X313510000Y-60799000D01*
G75*
G02*
X313370000Y-60939000I-140000J0D01*
G01*
X313090000Y-60939000D01*
G75*
G02*
X312950000Y-60799000I0J140000D01*
G01*
G37*
G36*
G01*
X311990000Y-60799000D02*
X311990000Y-60459000D01*
G75*
G02*
X312130000Y-60319000I140000J0D01*
G01*
X312410000Y-60319000D01*
G75*
G02*
X312550000Y-60459000I0J-140000D01*
G01*
X312550000Y-60799000D01*
G75*
G02*
X312410000Y-60939000I-140000J0D01*
G01*
X312130000Y-60939000D01*
G75*
G02*
X311990000Y-60799000I0J140000D01*
G01*
G37*
%TD*%
%TO.C,C25*%
G36*
G01*
X309165000Y-96214000D02*
X309165000Y-95874000D01*
G75*
G02*
X309305000Y-95734000I140000J0D01*
G01*
X309585000Y-95734000D01*
G75*
G02*
X309725000Y-95874000I0J-140000D01*
G01*
X309725000Y-96214000D01*
G75*
G02*
X309585000Y-96354000I-140000J0D01*
G01*
X309305000Y-96354000D01*
G75*
G02*
X309165000Y-96214000I0J140000D01*
G01*
G37*
G36*
G01*
X308205000Y-96214000D02*
X308205000Y-95874000D01*
G75*
G02*
X308345000Y-95734000I140000J0D01*
G01*
X308625000Y-95734000D01*
G75*
G02*
X308765000Y-95874000I0J-140000D01*
G01*
X308765000Y-96214000D01*
G75*
G02*
X308625000Y-96354000I-140000J0D01*
G01*
X308345000Y-96354000D01*
G75*
G02*
X308205000Y-96214000I0J140000D01*
G01*
G37*
%TD*%
%TO.C,C27*%
G36*
G01*
X309165000Y-91570000D02*
X309165000Y-91230000D01*
G75*
G02*
X309305000Y-91090000I140000J0D01*
G01*
X309585000Y-91090000D01*
G75*
G02*
X309725000Y-91230000I0J-140000D01*
G01*
X309725000Y-91570000D01*
G75*
G02*
X309585000Y-91710000I-140000J0D01*
G01*
X309305000Y-91710000D01*
G75*
G02*
X309165000Y-91570000I0J140000D01*
G01*
G37*
G36*
G01*
X308205000Y-91570000D02*
X308205000Y-91230000D01*
G75*
G02*
X308345000Y-91090000I140000J0D01*
G01*
X308625000Y-91090000D01*
G75*
G02*
X308765000Y-91230000I0J-140000D01*
G01*
X308765000Y-91570000D01*
G75*
G02*
X308625000Y-91710000I-140000J0D01*
G01*
X308345000Y-91710000D01*
G75*
G02*
X308205000Y-91570000I0J140000D01*
G01*
G37*
%TD*%
%TO.C,C29*%
G36*
G01*
X309165000Y-80735000D02*
X309165000Y-80395000D01*
G75*
G02*
X309305000Y-80255000I140000J0D01*
G01*
X309585000Y-80255000D01*
G75*
G02*
X309725000Y-80395000I0J-140000D01*
G01*
X309725000Y-80735000D01*
G75*
G02*
X309585000Y-80875000I-140000J0D01*
G01*
X309305000Y-80875000D01*
G75*
G02*
X309165000Y-80735000I0J140000D01*
G01*
G37*
G36*
G01*
X308205000Y-80735000D02*
X308205000Y-80395000D01*
G75*
G02*
X308345000Y-80255000I140000J0D01*
G01*
X308625000Y-80255000D01*
G75*
G02*
X308765000Y-80395000I0J-140000D01*
G01*
X308765000Y-80735000D01*
G75*
G02*
X308625000Y-80875000I-140000J0D01*
G01*
X308345000Y-80875000D01*
G75*
G02*
X308205000Y-80735000I0J140000D01*
G01*
G37*
%TD*%
%TO.C,C17*%
G36*
G01*
X309165000Y-94666000D02*
X309165000Y-94326000D01*
G75*
G02*
X309305000Y-94186000I140000J0D01*
G01*
X309585000Y-94186000D01*
G75*
G02*
X309725000Y-94326000I0J-140000D01*
G01*
X309725000Y-94666000D01*
G75*
G02*
X309585000Y-94806000I-140000J0D01*
G01*
X309305000Y-94806000D01*
G75*
G02*
X309165000Y-94666000I0J140000D01*
G01*
G37*
G36*
G01*
X308205000Y-94666000D02*
X308205000Y-94326000D01*
G75*
G02*
X308345000Y-94186000I140000J0D01*
G01*
X308625000Y-94186000D01*
G75*
G02*
X308765000Y-94326000I0J-140000D01*
G01*
X308765000Y-94666000D01*
G75*
G02*
X308625000Y-94806000I-140000J0D01*
G01*
X308345000Y-94806000D01*
G75*
G02*
X308205000Y-94666000I0J140000D01*
G01*
G37*
%TD*%
%TO.C,C23*%
G36*
G01*
X309165000Y-93118000D02*
X309165000Y-92778000D01*
G75*
G02*
X309305000Y-92638000I140000J0D01*
G01*
X309585000Y-92638000D01*
G75*
G02*
X309725000Y-92778000I0J-140000D01*
G01*
X309725000Y-93118000D01*
G75*
G02*
X309585000Y-93258000I-140000J0D01*
G01*
X309305000Y-93258000D01*
G75*
G02*
X309165000Y-93118000I0J140000D01*
G01*
G37*
G36*
G01*
X308205000Y-93118000D02*
X308205000Y-92778000D01*
G75*
G02*
X308345000Y-92638000I140000J0D01*
G01*
X308625000Y-92638000D01*
G75*
G02*
X308765000Y-92778000I0J-140000D01*
G01*
X308765000Y-93118000D01*
G75*
G02*
X308625000Y-93258000I-140000J0D01*
G01*
X308345000Y-93258000D01*
G75*
G02*
X308205000Y-93118000I0J140000D01*
G01*
G37*
%TD*%
%TO.C,C22*%
G36*
G01*
X309165000Y-83831000D02*
X309165000Y-83491000D01*
G75*
G02*
X309305000Y-83351000I140000J0D01*
G01*
X309585000Y-83351000D01*
G75*
G02*
X309725000Y-83491000I0J-140000D01*
G01*
X309725000Y-83831000D01*
G75*
G02*
X309585000Y-83971000I-140000J0D01*
G01*
X309305000Y-83971000D01*
G75*
G02*
X309165000Y-83831000I0J140000D01*
G01*
G37*
G36*
G01*
X308205000Y-83831000D02*
X308205000Y-83491000D01*
G75*
G02*
X308345000Y-83351000I140000J0D01*
G01*
X308625000Y-83351000D01*
G75*
G02*
X308765000Y-83491000I0J-140000D01*
G01*
X308765000Y-83831000D01*
G75*
G02*
X308625000Y-83971000I-140000J0D01*
G01*
X308345000Y-83971000D01*
G75*
G02*
X308205000Y-83831000I0J140000D01*
G01*
G37*
%TD*%
%TO.C,C42*%
G36*
G01*
X309165000Y-74544000D02*
X309165000Y-74204000D01*
G75*
G02*
X309305000Y-74064000I140000J0D01*
G01*
X309585000Y-74064000D01*
G75*
G02*
X309725000Y-74204000I0J-140000D01*
G01*
X309725000Y-74544000D01*
G75*
G02*
X309585000Y-74684000I-140000J0D01*
G01*
X309305000Y-74684000D01*
G75*
G02*
X309165000Y-74544000I0J140000D01*
G01*
G37*
G36*
G01*
X308205000Y-74544000D02*
X308205000Y-74204000D01*
G75*
G02*
X308345000Y-74064000I140000J0D01*
G01*
X308625000Y-74064000D01*
G75*
G02*
X308765000Y-74204000I0J-140000D01*
G01*
X308765000Y-74544000D01*
G75*
G02*
X308625000Y-74684000I-140000J0D01*
G01*
X308345000Y-74684000D01*
G75*
G02*
X308205000Y-74544000I0J140000D01*
G01*
G37*
%TD*%
%TO.C,C37*%
G36*
G01*
X309165000Y-77640000D02*
X309165000Y-77300000D01*
G75*
G02*
X309305000Y-77160000I140000J0D01*
G01*
X309585000Y-77160000D01*
G75*
G02*
X309725000Y-77300000I0J-140000D01*
G01*
X309725000Y-77640000D01*
G75*
G02*
X309585000Y-77780000I-140000J0D01*
G01*
X309305000Y-77780000D01*
G75*
G02*
X309165000Y-77640000I0J140000D01*
G01*
G37*
G36*
G01*
X308205000Y-77640000D02*
X308205000Y-77300000D01*
G75*
G02*
X308345000Y-77160000I140000J0D01*
G01*
X308625000Y-77160000D01*
G75*
G02*
X308765000Y-77300000I0J-140000D01*
G01*
X308765000Y-77640000D01*
G75*
G02*
X308625000Y-77780000I-140000J0D01*
G01*
X308345000Y-77780000D01*
G75*
G02*
X308205000Y-77640000I0J140000D01*
G01*
G37*
%TD*%
%TO.C,C48*%
G36*
G01*
X309165000Y-79188000D02*
X309165000Y-78848000D01*
G75*
G02*
X309305000Y-78708000I140000J0D01*
G01*
X309585000Y-78708000D01*
G75*
G02*
X309725000Y-78848000I0J-140000D01*
G01*
X309725000Y-79188000D01*
G75*
G02*
X309585000Y-79328000I-140000J0D01*
G01*
X309305000Y-79328000D01*
G75*
G02*
X309165000Y-79188000I0J140000D01*
G01*
G37*
G36*
G01*
X308205000Y-79188000D02*
X308205000Y-78848000D01*
G75*
G02*
X308345000Y-78708000I140000J0D01*
G01*
X308625000Y-78708000D01*
G75*
G02*
X308765000Y-78848000I0J-140000D01*
G01*
X308765000Y-79188000D01*
G75*
G02*
X308625000Y-79328000I-140000J0D01*
G01*
X308345000Y-79328000D01*
G75*
G02*
X308205000Y-79188000I0J140000D01*
G01*
G37*
%TD*%
%TO.C,C34*%
G36*
G01*
X309165000Y-90022000D02*
X309165000Y-89682000D01*
G75*
G02*
X309305000Y-89542000I140000J0D01*
G01*
X309585000Y-89542000D01*
G75*
G02*
X309725000Y-89682000I0J-140000D01*
G01*
X309725000Y-90022000D01*
G75*
G02*
X309585000Y-90162000I-140000J0D01*
G01*
X309305000Y-90162000D01*
G75*
G02*
X309165000Y-90022000I0J140000D01*
G01*
G37*
G36*
G01*
X308205000Y-90022000D02*
X308205000Y-89682000D01*
G75*
G02*
X308345000Y-89542000I140000J0D01*
G01*
X308625000Y-89542000D01*
G75*
G02*
X308765000Y-89682000I0J-140000D01*
G01*
X308765000Y-90022000D01*
G75*
G02*
X308625000Y-90162000I-140000J0D01*
G01*
X308345000Y-90162000D01*
G75*
G02*
X308205000Y-90022000I0J140000D01*
G01*
G37*
%TD*%
%TO.C,C41*%
G36*
G01*
X309165000Y-82283000D02*
X309165000Y-81943000D01*
G75*
G02*
X309305000Y-81803000I140000J0D01*
G01*
X309585000Y-81803000D01*
G75*
G02*
X309725000Y-81943000I0J-140000D01*
G01*
X309725000Y-82283000D01*
G75*
G02*
X309585000Y-82423000I-140000J0D01*
G01*
X309305000Y-82423000D01*
G75*
G02*
X309165000Y-82283000I0J140000D01*
G01*
G37*
G36*
G01*
X308205000Y-82283000D02*
X308205000Y-81943000D01*
G75*
G02*
X308345000Y-81803000I140000J0D01*
G01*
X308625000Y-81803000D01*
G75*
G02*
X308765000Y-81943000I0J-140000D01*
G01*
X308765000Y-82283000D01*
G75*
G02*
X308625000Y-82423000I-140000J0D01*
G01*
X308345000Y-82423000D01*
G75*
G02*
X308205000Y-82283000I0J140000D01*
G01*
G37*
%TD*%
%TO.C,C49*%
G36*
G01*
X309165000Y-71448000D02*
X309165000Y-71108000D01*
G75*
G02*
X309305000Y-70968000I140000J0D01*
G01*
X309585000Y-70968000D01*
G75*
G02*
X309725000Y-71108000I0J-140000D01*
G01*
X309725000Y-71448000D01*
G75*
G02*
X309585000Y-71588000I-140000J0D01*
G01*
X309305000Y-71588000D01*
G75*
G02*
X309165000Y-71448000I0J140000D01*
G01*
G37*
G36*
G01*
X308205000Y-71448000D02*
X308205000Y-71108000D01*
G75*
G02*
X308345000Y-70968000I140000J0D01*
G01*
X308625000Y-70968000D01*
G75*
G02*
X308765000Y-71108000I0J-140000D01*
G01*
X308765000Y-71448000D01*
G75*
G02*
X308625000Y-71588000I-140000J0D01*
G01*
X308345000Y-71588000D01*
G75*
G02*
X308205000Y-71448000I0J140000D01*
G01*
G37*
%TD*%
%TO.C,C54*%
G36*
G01*
X309165000Y-68353000D02*
X309165000Y-68013000D01*
G75*
G02*
X309305000Y-67873000I140000J0D01*
G01*
X309585000Y-67873000D01*
G75*
G02*
X309725000Y-68013000I0J-140000D01*
G01*
X309725000Y-68353000D01*
G75*
G02*
X309585000Y-68493000I-140000J0D01*
G01*
X309305000Y-68493000D01*
G75*
G02*
X309165000Y-68353000I0J140000D01*
G01*
G37*
G36*
G01*
X308205000Y-68353000D02*
X308205000Y-68013000D01*
G75*
G02*
X308345000Y-67873000I140000J0D01*
G01*
X308625000Y-67873000D01*
G75*
G02*
X308765000Y-68013000I0J-140000D01*
G01*
X308765000Y-68353000D01*
G75*
G02*
X308625000Y-68493000I-140000J0D01*
G01*
X308345000Y-68493000D01*
G75*
G02*
X308205000Y-68353000I0J140000D01*
G01*
G37*
%TD*%
%TO.C,C69*%
G36*
G01*
X309165000Y-69901000D02*
X309165000Y-69561000D01*
G75*
G02*
X309305000Y-69421000I140000J0D01*
G01*
X309585000Y-69421000D01*
G75*
G02*
X309725000Y-69561000I0J-140000D01*
G01*
X309725000Y-69901000D01*
G75*
G02*
X309585000Y-70041000I-140000J0D01*
G01*
X309305000Y-70041000D01*
G75*
G02*
X309165000Y-69901000I0J140000D01*
G01*
G37*
G36*
G01*
X308205000Y-69901000D02*
X308205000Y-69561000D01*
G75*
G02*
X308345000Y-69421000I140000J0D01*
G01*
X308625000Y-69421000D01*
G75*
G02*
X308765000Y-69561000I0J-140000D01*
G01*
X308765000Y-69901000D01*
G75*
G02*
X308625000Y-70041000I-140000J0D01*
G01*
X308345000Y-70041000D01*
G75*
G02*
X308205000Y-69901000I0J140000D01*
G01*
G37*
%TD*%
%TO.C,C75*%
G36*
G01*
X309165000Y-57518000D02*
X309165000Y-57178000D01*
G75*
G02*
X309305000Y-57038000I140000J0D01*
G01*
X309585000Y-57038000D01*
G75*
G02*
X309725000Y-57178000I0J-140000D01*
G01*
X309725000Y-57518000D01*
G75*
G02*
X309585000Y-57658000I-140000J0D01*
G01*
X309305000Y-57658000D01*
G75*
G02*
X309165000Y-57518000I0J140000D01*
G01*
G37*
G36*
G01*
X308205000Y-57518000D02*
X308205000Y-57178000D01*
G75*
G02*
X308345000Y-57038000I140000J0D01*
G01*
X308625000Y-57038000D01*
G75*
G02*
X308765000Y-57178000I0J-140000D01*
G01*
X308765000Y-57518000D01*
G75*
G02*
X308625000Y-57658000I-140000J0D01*
G01*
X308345000Y-57658000D01*
G75*
G02*
X308205000Y-57518000I0J140000D01*
G01*
G37*
%TD*%
%TO.C,C80*%
G36*
G01*
X309165000Y-63709000D02*
X309165000Y-63369000D01*
G75*
G02*
X309305000Y-63229000I140000J0D01*
G01*
X309585000Y-63229000D01*
G75*
G02*
X309725000Y-63369000I0J-140000D01*
G01*
X309725000Y-63709000D01*
G75*
G02*
X309585000Y-63849000I-140000J0D01*
G01*
X309305000Y-63849000D01*
G75*
G02*
X309165000Y-63709000I0J140000D01*
G01*
G37*
G36*
G01*
X308205000Y-63709000D02*
X308205000Y-63369000D01*
G75*
G02*
X308345000Y-63229000I140000J0D01*
G01*
X308625000Y-63229000D01*
G75*
G02*
X308765000Y-63369000I0J-140000D01*
G01*
X308765000Y-63709000D01*
G75*
G02*
X308625000Y-63849000I-140000J0D01*
G01*
X308345000Y-63849000D01*
G75*
G02*
X308205000Y-63709000I0J140000D01*
G01*
G37*
%TD*%
%TO.C,C86*%
G36*
G01*
X309165000Y-62161000D02*
X309165000Y-61821000D01*
G75*
G02*
X309305000Y-61681000I140000J0D01*
G01*
X309585000Y-61681000D01*
G75*
G02*
X309725000Y-61821000I0J-140000D01*
G01*
X309725000Y-62161000D01*
G75*
G02*
X309585000Y-62301000I-140000J0D01*
G01*
X309305000Y-62301000D01*
G75*
G02*
X309165000Y-62161000I0J140000D01*
G01*
G37*
G36*
G01*
X308205000Y-62161000D02*
X308205000Y-61821000D01*
G75*
G02*
X308345000Y-61681000I140000J0D01*
G01*
X308625000Y-61681000D01*
G75*
G02*
X308765000Y-61821000I0J-140000D01*
G01*
X308765000Y-62161000D01*
G75*
G02*
X308625000Y-62301000I-140000J0D01*
G01*
X308345000Y-62301000D01*
G75*
G02*
X308205000Y-62161000I0J140000D01*
G01*
G37*
%TD*%
%TO.C,C76*%
G36*
G01*
X309165000Y-66805000D02*
X309165000Y-66465000D01*
G75*
G02*
X309305000Y-66325000I140000J0D01*
G01*
X309585000Y-66325000D01*
G75*
G02*
X309725000Y-66465000I0J-140000D01*
G01*
X309725000Y-66805000D01*
G75*
G02*
X309585000Y-66945000I-140000J0D01*
G01*
X309305000Y-66945000D01*
G75*
G02*
X309165000Y-66805000I0J140000D01*
G01*
G37*
G36*
G01*
X308205000Y-66805000D02*
X308205000Y-66465000D01*
G75*
G02*
X308345000Y-66325000I140000J0D01*
G01*
X308625000Y-66325000D01*
G75*
G02*
X308765000Y-66465000I0J-140000D01*
G01*
X308765000Y-66805000D01*
G75*
G02*
X308625000Y-66945000I-140000J0D01*
G01*
X308345000Y-66945000D01*
G75*
G02*
X308205000Y-66805000I0J140000D01*
G01*
G37*
%TD*%
%TO.C,C67*%
G36*
G01*
X309165000Y-76092000D02*
X309165000Y-75752000D01*
G75*
G02*
X309305000Y-75612000I140000J0D01*
G01*
X309585000Y-75612000D01*
G75*
G02*
X309725000Y-75752000I0J-140000D01*
G01*
X309725000Y-76092000D01*
G75*
G02*
X309585000Y-76232000I-140000J0D01*
G01*
X309305000Y-76232000D01*
G75*
G02*
X309165000Y-76092000I0J140000D01*
G01*
G37*
G36*
G01*
X308205000Y-76092000D02*
X308205000Y-75752000D01*
G75*
G02*
X308345000Y-75612000I140000J0D01*
G01*
X308625000Y-75612000D01*
G75*
G02*
X308765000Y-75752000I0J-140000D01*
G01*
X308765000Y-76092000D01*
G75*
G02*
X308625000Y-76232000I-140000J0D01*
G01*
X308345000Y-76232000D01*
G75*
G02*
X308205000Y-76092000I0J140000D01*
G01*
G37*
%TD*%
%TO.C,C82*%
G36*
G01*
X309165000Y-55970000D02*
X309165000Y-55630000D01*
G75*
G02*
X309305000Y-55490000I140000J0D01*
G01*
X309585000Y-55490000D01*
G75*
G02*
X309725000Y-55630000I0J-140000D01*
G01*
X309725000Y-55970000D01*
G75*
G02*
X309585000Y-56110000I-140000J0D01*
G01*
X309305000Y-56110000D01*
G75*
G02*
X309165000Y-55970000I0J140000D01*
G01*
G37*
G36*
G01*
X308205000Y-55970000D02*
X308205000Y-55630000D01*
G75*
G02*
X308345000Y-55490000I140000J0D01*
G01*
X308625000Y-55490000D01*
G75*
G02*
X308765000Y-55630000I0J-140000D01*
G01*
X308765000Y-55970000D01*
G75*
G02*
X308625000Y-56110000I-140000J0D01*
G01*
X308345000Y-56110000D01*
G75*
G02*
X308205000Y-55970000I0J140000D01*
G01*
G37*
%TD*%
%TO.C,C68*%
G36*
G01*
X309165000Y-59066000D02*
X309165000Y-58726000D01*
G75*
G02*
X309305000Y-58586000I140000J0D01*
G01*
X309585000Y-58586000D01*
G75*
G02*
X309725000Y-58726000I0J-140000D01*
G01*
X309725000Y-59066000D01*
G75*
G02*
X309585000Y-59206000I-140000J0D01*
G01*
X309305000Y-59206000D01*
G75*
G02*
X309165000Y-59066000I0J140000D01*
G01*
G37*
G36*
G01*
X308205000Y-59066000D02*
X308205000Y-58726000D01*
G75*
G02*
X308345000Y-58586000I140000J0D01*
G01*
X308625000Y-58586000D01*
G75*
G02*
X308765000Y-58726000I0J-140000D01*
G01*
X308765000Y-59066000D01*
G75*
G02*
X308625000Y-59206000I-140000J0D01*
G01*
X308345000Y-59206000D01*
G75*
G02*
X308205000Y-59066000I0J140000D01*
G01*
G37*
%TD*%
%TO.C,C62*%
G36*
G01*
X309165000Y-60614000D02*
X309165000Y-60274000D01*
G75*
G02*
X309305000Y-60134000I140000J0D01*
G01*
X309585000Y-60134000D01*
G75*
G02*
X309725000Y-60274000I0J-140000D01*
G01*
X309725000Y-60614000D01*
G75*
G02*
X309585000Y-60754000I-140000J0D01*
G01*
X309305000Y-60754000D01*
G75*
G02*
X309165000Y-60614000I0J140000D01*
G01*
G37*
G36*
G01*
X308205000Y-60614000D02*
X308205000Y-60274000D01*
G75*
G02*
X308345000Y-60134000I140000J0D01*
G01*
X308625000Y-60134000D01*
G75*
G02*
X308765000Y-60274000I0J-140000D01*
G01*
X308765000Y-60614000D01*
G75*
G02*
X308625000Y-60754000I-140000J0D01*
G01*
X308345000Y-60754000D01*
G75*
G02*
X308205000Y-60614000I0J140000D01*
G01*
G37*
%TD*%
%TO.C,C61*%
G36*
G01*
X309165000Y-65257000D02*
X309165000Y-64917000D01*
G75*
G02*
X309305000Y-64777000I140000J0D01*
G01*
X309585000Y-64777000D01*
G75*
G02*
X309725000Y-64917000I0J-140000D01*
G01*
X309725000Y-65257000D01*
G75*
G02*
X309585000Y-65397000I-140000J0D01*
G01*
X309305000Y-65397000D01*
G75*
G02*
X309165000Y-65257000I0J140000D01*
G01*
G37*
G36*
G01*
X308205000Y-65257000D02*
X308205000Y-64917000D01*
G75*
G02*
X308345000Y-64777000I140000J0D01*
G01*
X308625000Y-64777000D01*
G75*
G02*
X308765000Y-64917000I0J-140000D01*
G01*
X308765000Y-65257000D01*
G75*
G02*
X308625000Y-65397000I-140000J0D01*
G01*
X308345000Y-65397000D01*
G75*
G02*
X308205000Y-65257000I0J140000D01*
G01*
G37*
%TD*%
%TO.C,C64*%
G36*
G01*
X309165000Y-72996000D02*
X309165000Y-72656000D01*
G75*
G02*
X309305000Y-72516000I140000J0D01*
G01*
X309585000Y-72516000D01*
G75*
G02*
X309725000Y-72656000I0J-140000D01*
G01*
X309725000Y-72996000D01*
G75*
G02*
X309585000Y-73136000I-140000J0D01*
G01*
X309305000Y-73136000D01*
G75*
G02*
X309165000Y-72996000I0J140000D01*
G01*
G37*
G36*
G01*
X308205000Y-72996000D02*
X308205000Y-72656000D01*
G75*
G02*
X308345000Y-72516000I140000J0D01*
G01*
X308625000Y-72516000D01*
G75*
G02*
X308765000Y-72656000I0J-140000D01*
G01*
X308765000Y-72996000D01*
G75*
G02*
X308625000Y-73136000I-140000J0D01*
G01*
X308345000Y-73136000D01*
G75*
G02*
X308205000Y-72996000I0J140000D01*
G01*
G37*
%TD*%
%TO.C,C4*%
G36*
G01*
X309165000Y-99309000D02*
X309165000Y-98969000D01*
G75*
G02*
X309305000Y-98829000I140000J0D01*
G01*
X309585000Y-98829000D01*
G75*
G02*
X309725000Y-98969000I0J-140000D01*
G01*
X309725000Y-99309000D01*
G75*
G02*
X309585000Y-99449000I-140000J0D01*
G01*
X309305000Y-99449000D01*
G75*
G02*
X309165000Y-99309000I0J140000D01*
G01*
G37*
G36*
G01*
X308205000Y-99309000D02*
X308205000Y-98969000D01*
G75*
G02*
X308345000Y-98829000I140000J0D01*
G01*
X308625000Y-98829000D01*
G75*
G02*
X308765000Y-98969000I0J-140000D01*
G01*
X308765000Y-99309000D01*
G75*
G02*
X308625000Y-99449000I-140000J0D01*
G01*
X308345000Y-99449000D01*
G75*
G02*
X308205000Y-99309000I0J140000D01*
G01*
G37*
%TD*%
%TO.C,C8*%
G36*
G01*
X309165000Y-97762000D02*
X309165000Y-97422000D01*
G75*
G02*
X309305000Y-97282000I140000J0D01*
G01*
X309585000Y-97282000D01*
G75*
G02*
X309725000Y-97422000I0J-140000D01*
G01*
X309725000Y-97762000D01*
G75*
G02*
X309585000Y-97902000I-140000J0D01*
G01*
X309305000Y-97902000D01*
G75*
G02*
X309165000Y-97762000I0J140000D01*
G01*
G37*
G36*
G01*
X308205000Y-97762000D02*
X308205000Y-97422000D01*
G75*
G02*
X308345000Y-97282000I140000J0D01*
G01*
X308625000Y-97282000D01*
G75*
G02*
X308765000Y-97422000I0J-140000D01*
G01*
X308765000Y-97762000D01*
G75*
G02*
X308625000Y-97902000I-140000J0D01*
G01*
X308345000Y-97902000D01*
G75*
G02*
X308205000Y-97762000I0J140000D01*
G01*
G37*
%TD*%
%TO.C,C11*%
G36*
G01*
X309165000Y-88475000D02*
X309165000Y-88135000D01*
G75*
G02*
X309305000Y-87995000I140000J0D01*
G01*
X309585000Y-87995000D01*
G75*
G02*
X309725000Y-88135000I0J-140000D01*
G01*
X309725000Y-88475000D01*
G75*
G02*
X309585000Y-88615000I-140000J0D01*
G01*
X309305000Y-88615000D01*
G75*
G02*
X309165000Y-88475000I0J140000D01*
G01*
G37*
G36*
G01*
X308205000Y-88475000D02*
X308205000Y-88135000D01*
G75*
G02*
X308345000Y-87995000I140000J0D01*
G01*
X308625000Y-87995000D01*
G75*
G02*
X308765000Y-88135000I0J-140000D01*
G01*
X308765000Y-88475000D01*
G75*
G02*
X308625000Y-88615000I-140000J0D01*
G01*
X308345000Y-88615000D01*
G75*
G02*
X308205000Y-88475000I0J140000D01*
G01*
G37*
%TD*%
%TO.C,C16*%
G36*
G01*
X309165000Y-86927000D02*
X309165000Y-86587000D01*
G75*
G02*
X309305000Y-86447000I140000J0D01*
G01*
X309585000Y-86447000D01*
G75*
G02*
X309725000Y-86587000I0J-140000D01*
G01*
X309725000Y-86927000D01*
G75*
G02*
X309585000Y-87067000I-140000J0D01*
G01*
X309305000Y-87067000D01*
G75*
G02*
X309165000Y-86927000I0J140000D01*
G01*
G37*
G36*
G01*
X308205000Y-86927000D02*
X308205000Y-86587000D01*
G75*
G02*
X308345000Y-86447000I140000J0D01*
G01*
X308625000Y-86447000D01*
G75*
G02*
X308765000Y-86587000I0J-140000D01*
G01*
X308765000Y-86927000D01*
G75*
G02*
X308625000Y-87067000I-140000J0D01*
G01*
X308345000Y-87067000D01*
G75*
G02*
X308205000Y-86927000I0J140000D01*
G01*
G37*
%TD*%
%TO.C,C2*%
G36*
G01*
X309165000Y-100857000D02*
X309165000Y-100517000D01*
G75*
G02*
X309305000Y-100377000I140000J0D01*
G01*
X309585000Y-100377000D01*
G75*
G02*
X309725000Y-100517000I0J-140000D01*
G01*
X309725000Y-100857000D01*
G75*
G02*
X309585000Y-100997000I-140000J0D01*
G01*
X309305000Y-100997000D01*
G75*
G02*
X309165000Y-100857000I0J140000D01*
G01*
G37*
G36*
G01*
X308205000Y-100857000D02*
X308205000Y-100517000D01*
G75*
G02*
X308345000Y-100377000I140000J0D01*
G01*
X308625000Y-100377000D01*
G75*
G02*
X308765000Y-100517000I0J-140000D01*
G01*
X308765000Y-100857000D01*
G75*
G02*
X308625000Y-100997000I-140000J0D01*
G01*
X308345000Y-100997000D01*
G75*
G02*
X308205000Y-100857000I0J140000D01*
G01*
G37*
%TD*%
%TO.C,C14*%
G36*
G01*
X309165000Y-102405000D02*
X309165000Y-102065000D01*
G75*
G02*
X309305000Y-101925000I140000J0D01*
G01*
X309585000Y-101925000D01*
G75*
G02*
X309725000Y-102065000I0J-140000D01*
G01*
X309725000Y-102405000D01*
G75*
G02*
X309585000Y-102545000I-140000J0D01*
G01*
X309305000Y-102545000D01*
G75*
G02*
X309165000Y-102405000I0J140000D01*
G01*
G37*
G36*
G01*
X308205000Y-102405000D02*
X308205000Y-102065000D01*
G75*
G02*
X308345000Y-101925000I140000J0D01*
G01*
X308625000Y-101925000D01*
G75*
G02*
X308765000Y-102065000I0J-140000D01*
G01*
X308765000Y-102405000D01*
G75*
G02*
X308625000Y-102545000I-140000J0D01*
G01*
X308345000Y-102545000D01*
G75*
G02*
X308205000Y-102405000I0J140000D01*
G01*
G37*
%TD*%
%TO.C,C1*%
G36*
G01*
X309165000Y-85379000D02*
X309165000Y-85039000D01*
G75*
G02*
X309305000Y-84899000I140000J0D01*
G01*
X309585000Y-84899000D01*
G75*
G02*
X309725000Y-85039000I0J-140000D01*
G01*
X309725000Y-85379000D01*
G75*
G02*
X309585000Y-85519000I-140000J0D01*
G01*
X309305000Y-85519000D01*
G75*
G02*
X309165000Y-85379000I0J140000D01*
G01*
G37*
G36*
G01*
X308205000Y-85379000D02*
X308205000Y-85039000D01*
G75*
G02*
X308345000Y-84899000I140000J0D01*
G01*
X308625000Y-84899000D01*
G75*
G02*
X308765000Y-85039000I0J-140000D01*
G01*
X308765000Y-85379000D01*
G75*
G02*
X308625000Y-85519000I-140000J0D01*
G01*
X308345000Y-85519000D01*
G75*
G02*
X308205000Y-85379000I0J140000D01*
G01*
G37*
%TD*%
M02*
