M48
; DRILL file {KiCad (5.1.9)-1} date 05/14/21 10:54:07
; FORMAT={-:-/ absolute / inch / decimal}
; #@! TF.CreationDate,2021-05-14T10:54:07-07:00
; #@! TF.GenerationSoftware,Kicad,Pcbnew,(5.1.9)-1
; #@! TF.FileFunction,Plated,1,2,PTH
FMAT,2
INCH
T1C0.0157
T2C0.0256
T3C0.0433
%
G90
G05
T1
X1.7475Y-4.9162
X1.8956Y-2.8872
X2.0502Y-1.6316
X2.0853Y-4.8854
X2.193Y-2.6737
X2.3448Y-3.859
X2.4463Y-1.8012
X2.5422Y-2.597
X2.6494Y-3.2695
X2.6703Y-2.5399
X2.8679Y-4.5718
X2.9709Y-1.5521
X3.2217Y-2.728
X3.2398Y-1.7938
X3.266Y-4.041
X3.3099Y-2.597
X3.4117Y-3.791
X3.4792Y-3.9697
X3.51Y-1.7029
X3.6018Y-3.3651
X3.6018Y-3.4835
X3.7517Y-3.9982
X3.8073Y-1.9514
X3.9101Y-1.7834
X4.028Y-2.3136
X4.0581Y-3.4422
X4.1709Y-2.5681
X4.2137Y-3.9726
X4.2319Y-1.9447
X4.4281Y-1.9135
X4.4422Y-2.4756
X4.5302Y-4.0023
X4.5442Y-3.8595
X4.5512Y-1.6882
X4.5774Y-2.5219
X4.5834Y-1.5609
X4.6006Y-2.6938
X4.6007Y-3.3169
X4.6464Y-3.0147
X4.6544Y-3.124
X4.702Y-1.7662
X4.7102Y-3.0581
X4.7237Y-4.2808
X4.7665Y-2.5718
X4.7673Y-3.0433
X4.837Y-2.478
X4.8501Y-2.6578
X4.9024Y-3.0344
X4.9136Y-3.9845
X4.9833Y-4.0586
X5.0982Y-2.5219
X5.1362Y-4.0872
X5.176Y-2.4046
X5.2466Y-3.0783
X5.2786Y-1.6272
X5.3214Y-4.1157
X5.367Y-2.6938
X5.3804Y-2.5746
X5.4127Y-4.0148
X5.4549Y-2.5382
X5.5331Y-2.585
X5.5751Y-2.5135
X5.5973Y-4.0131
X5.727Y-2.7358
X5.7553Y-3.7855
X5.7879Y-3.449
X5.7903Y-3.8202
X5.81Y-4.3923
X5.868Y-3.9985
X5.9437Y-1.9391
X5.9444Y-1.5521
X5.9444Y-2.4905
X5.9959Y-1.8868
X6.2728Y-1.7955
X6.3919Y-3.2485
X6.4217Y-3.8179
X6.4236Y-2.624
X6.5276Y-3.4536
X6.5539Y-3.9985
X6.6475Y-2.4788
X6.727Y-1.5434
X6.7365Y-1.9391
X6.8754Y-3.3189
X6.8835Y-1.7324
X6.9805Y-2.3202
X7.04Y-4.032
X7.1736Y-3.0591
X7.1832Y-3.8099
X7.2086Y-1.8599
X7.3125Y-3.2513
X7.5095Y-1.5521
X7.5351Y-1.9391
X7.553Y-3.5594
X7.666Y-4.0054
X7.7118Y-2.7961
X7.7331Y-2.624
X7.8114Y-2.6435
X7.8246Y-3.0867
X7.8277Y-3.4015
X7.856Y-3.114
X7.8782Y-2.6845
X7.8932Y-4.0722
X7.9221Y-3.1519
X8.0114Y-2.7961
X8.0248Y-3.7797
X8.0276Y-3.4526
X8.0862Y-1.6214
X8.1134Y-4.0004
X8.1299Y-3.4015
X8.1767Y-2.3212
X8.1864Y-4.0547
X8.245Y-3.4222
X8.3121Y-2.4945
X8.3169Y-2.3097
X8.317Y-1.9391
X8.3259Y-3.7877
X8.3428Y-3.9892
X8.3812Y-2.4509
X8.3857Y-1.8599
X8.4084Y-2.4794
X8.4417Y-2.7059
X8.5171Y-2.3382
X8.5239Y-2.5133
X8.632Y-4.0566
X8.7046Y-1.6874
X8.7754Y-3.445
X8.918Y-2.3192
X9.1194Y-1.5821
X9.1281Y-2.3447
X9.1708Y-1.9391
X9.2159Y-3.3267
X9.373Y-3.1804
X9.3758Y-4.2026
X9.4026Y-3.3084
X9.4099Y-1.768
X9.4205Y-1.5535
X9.4941Y-1.9097
X9.6399Y-2.4783
X9.7233Y-2.4959
X9.8691Y-1.9689
X9.8927Y-1.5535
X9.9124Y-2.308
X9.9219Y-2.6886
X10.0382Y-2.6595
X10.0545Y-4.3571
X10.234Y-1.7051
X10.24Y-1.6113
X10.3066Y-3.0763
X10.3072Y-3.2442
X10.3921Y-4.7111
X10.4346Y-2.5492
X10.4872Y-3.3554
X10.5843Y-1.6683
X10.601Y-3.1049
X10.6378Y-2.8712
X10.6382Y-1.8906
X10.6525Y-2.6595
X10.6961Y-2.2878
X10.7143Y-2.9345
X10.7309Y-1.8599
X10.758Y-3.3713
X10.7586Y-3.0306
X10.7738Y-4.7126
X10.7864Y-2.4798
X10.8297Y-1.8297
X10.8328Y-2.5309
X10.8722Y-2.5492
X10.8728Y-3.2221
X10.8738Y-2.8712
X10.9192Y-1.773
X10.9663Y-3.2696
X11.0099Y-3.3999
X11.109Y-3.1935
X11.1499Y-2.3206
X11.1514Y-3.4238
X11.2396Y-3.416
X11.2656Y-1.7919
X11.3561Y-2.5669
X11.3914Y-4.2417
X11.437Y-3.9219
X11.4774Y-3.6122
X11.4808Y-2.5365
X11.4808Y-3.9516
X11.4865Y-2.6152
X11.5798Y-3.1002
X11.6056Y-2.3337
X11.6291Y-3.5339
X11.6804Y-3.0486
X11.6893Y-3.0891
X11.6901Y-3.1447
X11.7119Y-3.5758
X11.7519Y-2.7314
X11.8066Y-2.2996
X11.8108Y-4.3817
X11.8215Y-2.165
X11.8552Y-3.8875
X11.8585Y-2.6248
X11.8691Y-4.0963
X11.873Y-3.2562
X11.8906Y-3.9859
X11.8914Y-3.1625
X11.9126Y-2.6836
X11.9156Y-4.0621
X11.9226Y-4.6894
X11.9297Y-1.6409
X11.9541Y-4.1409
X11.9572Y-2.5723
X11.9659Y-4.1015
X11.9767Y-2.5152
X12.0031Y-2.3841
X12.0034Y-1.8906
X12.0145Y-4.6624
X12.0312Y-4.7995
X12.0497Y-2.2408
X12.053Y-2.2996
X12.0533Y-2.7015
X12.0693Y-2.415
X12.0721Y-4.2595
X12.0772Y-4.0871
X12.0872Y-3.9945
X12.0916Y-3.0235
X12.0917Y-3.7617
X12.165Y-2.1563
X12.1675Y-4.8973
X12.1971Y-4.681
X12.2447Y-1.6627
X12.2746Y-2.1651
X12.2791Y-4.5718
X12.2871Y-3.9872
X12.3449Y-1.5307
X12.3626Y-4.0411
X12.3668Y-3.8282
X12.3721Y-4.4103
X12.382Y-2.483
X12.382Y-3.1447
X12.3994Y-2.8424
X12.4007Y-4.4964
X12.4038Y-3.8575
X12.4041Y-4.1219
X12.4086Y-2.5384
X12.4205Y-4.2207
X12.4439Y-3.7332
X12.4754Y-3.8768
X12.4853Y-3.9948
X12.4886Y-3.6431
X12.4949Y-3.7617
X12.497Y-2.5977
X12.5235Y-4.4965
X12.5331Y-4.3389
X12.5402Y-2.9271
X12.5419Y-3.8789
X12.5441Y-4.0969
X12.5483Y-3.9755
X12.5507Y-3.6373
X12.5595Y-3.0235
X12.5632Y-2.7753
X12.5784Y-3.3792
X12.5859Y-2.6916
X12.5986Y-3.4511
X12.6168Y-3.6641
X12.6182Y-3.1918
X12.6247Y-2.7113
X12.6265Y-4.4965
X12.6327Y-2.5948
X12.633Y-4.1397
X12.6381Y-2.1624
X12.6494Y-3.4391
X12.6545Y-4.0438
X12.6571Y-1.725
X12.6664Y-3.059
X12.677Y-4.5671
X12.6804Y-4.3817
X12.6911Y-4.4846
X12.7164Y-4.5832
X12.7246Y-2.7381
X12.7387Y-2.8424
X12.7391Y-2.3622
X12.7776Y-3.7977
X12.7822Y-4.3891
X12.7998Y-3.6351
X12.8003Y-2.6531
X12.8117Y-3.2739
X12.8121Y-2.4859
X12.8156Y-3.7208
X12.8411Y-3.5136
X12.8453Y-2.2803
X12.875Y-3.7977
X12.8766Y-2.5948
X12.8993Y-2.2488
X12.9004Y-3.4025
X12.915Y-3.5664
X12.97Y-3.2906
X12.9794Y-3.9305
X12.9973Y-2.8317
X13.0094Y-3.2915
X13.0136Y-2.0684
X13.0168Y-3.5745
X13.0355Y-4.7646
X13.0371Y-3.1463
X13.0901Y-2.4894
X13.1102Y-3.2416
X13.1942Y-4.2633
X13.2324Y-1.8856
X13.2666Y-1.811
X13.3198Y-1.5832
X13.3376Y-1.7839
X13.3483Y-2.5539
X13.3492Y-3.0891
X13.3519Y-4.0087
X13.3887Y-2.7315
X13.3979Y-3.9873
X13.4028Y-3.3869
X13.4037Y-4.6928
X13.4261Y-2.5448
X13.4427Y-2.7111
X13.4623Y-2.8823
X13.4676Y-4.1149
X13.4803Y-1.9319
X13.4901Y-2.3251
X13.4909Y-3.4577
X13.5514Y-3.2656
X13.56Y-2.6234
X13.5625Y-2.5834
X13.5715Y-2.4379
X13.6056Y-1.8854
X13.6098Y-3.7403
X13.6131Y-1.5518
X13.6233Y-2.648
X13.6245Y-3.3604
X13.6337Y-2.6874
X13.6357Y-2.2295
X13.6461Y-3.8174
X13.652Y-3.2231
X13.6627Y-1.7756
X13.7769Y-2.5448
X13.7978Y-3.8384
X13.819Y-3.2434
X13.8413Y-2.7315
X13.9916Y-2.5982
X14.1439Y-1.7928
X14.1744Y-2.5692
X14.2144Y-4.2105
X14.2663Y-3.3092
X14.3114Y-3.4679
X14.3408Y-3.0905
X14.3424Y-3.2739
X14.3908Y-4.0268
X14.4578Y-3.2434
X14.521Y-3.3378
X14.5949Y-2.3318
X14.9244Y-3.4103
X14.9481Y-4.1752
X14.9676Y-3.4389
X14.9984Y-4.5832
X15.0007Y-2.524
X15.1139Y-3.811
X15.1142Y-1.5505
X15.1539Y-3.822
X15.2277Y-3.205
X15.5933Y-4.5665
X15.6728Y-1.8396
X15.6872Y-2.1219
X15.7917Y-3.067
X15.8472Y-2.5957
X15.8627Y-4.2359
X15.894Y-3.067
T2
X12.2Y-4.725
X12.2Y-4.775
X12.25Y-4.725
X12.25Y-4.775
X12.3Y-4.725
X12.3Y-4.775
X12.35Y-4.725
X12.35Y-4.775
X12.4Y-4.725
X12.4Y-4.775
X12.45Y-4.725
X12.45Y-4.775
X12.5Y-4.725
X12.5Y-4.775
T3
X12.175Y-0.975
X12.175Y-1.075
X12.175Y-1.175
X12.175Y-1.275
X12.175Y-1.375
X12.175Y-1.475
X12.175Y-1.575
X12.175Y-1.675
X12.175Y-1.775
X12.175Y-1.875
X12.175Y-1.975
X12.175Y-2.075
X12.275Y-1.375
X12.275Y-2.075
X12.375Y-2.075
X12.475Y-2.075
X12.575Y-2.075
X12.675Y-1.375
X12.675Y-2.075
X12.775Y-0.975
X12.775Y-1.075
X12.775Y-1.175
X12.775Y-1.275
X12.775Y-1.375
X12.775Y-1.475
X12.775Y-1.575
X12.775Y-1.675
X12.775Y-1.775
X12.775Y-1.875
X12.775Y-1.975
X12.775Y-2.075
T0
M30
