%TF.GenerationSoftware,KiCad,Pcbnew,(5.1.9)-1*%
%TF.CreationDate,2021-05-14T10:54:05-07:00*%
%TF.ProjectId,chgray-keyboard,63686772-6179-42d6-9b65-79626f617264,Yeet2*%
%TF.SameCoordinates,Original*%
%TF.FileFunction,Legend,Top*%
%TF.FilePolarity,Positive*%
%FSLAX46Y46*%
G04 Gerber Fmt 4.6, Leading zero omitted, Abs format (unit mm)*
G04 Created by KiCad (PCBNEW (5.1.9)-1) date 2021-05-14 10:54:05*
%MOMM*%
%LPD*%
G01*
G04 APERTURE LIST*
%ADD10C,0.150000*%
%ADD11C,0.120000*%
%ADD12C,0.100000*%
%ADD13C,0.381000*%
%ADD14C,0.203200*%
G04 APERTURE END LIST*
D10*
X337697142Y-127874542D02*
X336268571Y-127874542D01*
X336268571Y-124874542D01*
X339268571Y-124874542D02*
X339840000Y-124874542D01*
X340125714Y-125017400D01*
X340411428Y-125303114D01*
X340554285Y-125874542D01*
X340554285Y-126874542D01*
X340411428Y-127445971D01*
X340125714Y-127731685D01*
X339840000Y-127874542D01*
X339268571Y-127874542D01*
X338982857Y-127731685D01*
X338697142Y-127445971D01*
X338554285Y-126874542D01*
X338554285Y-125874542D01*
X338697142Y-125303114D01*
X338982857Y-125017400D01*
X339268571Y-124874542D01*
X343411428Y-125017400D02*
X343125714Y-124874542D01*
X342697142Y-124874542D01*
X342268571Y-125017400D01*
X341982857Y-125303114D01*
X341840000Y-125588828D01*
X341697142Y-126160257D01*
X341697142Y-126588828D01*
X341840000Y-127160257D01*
X341982857Y-127445971D01*
X342268571Y-127731685D01*
X342697142Y-127874542D01*
X342982857Y-127874542D01*
X343411428Y-127731685D01*
X343554285Y-127588828D01*
X343554285Y-126588828D01*
X342982857Y-126588828D01*
X345411428Y-124874542D02*
X345697142Y-124874542D01*
X345982857Y-125017400D01*
X346125714Y-125160257D01*
X346268571Y-125445971D01*
X346411428Y-126017400D01*
X346411428Y-126731685D01*
X346268571Y-127303114D01*
X346125714Y-127588828D01*
X345982857Y-127731685D01*
X345697142Y-127874542D01*
X345411428Y-127874542D01*
X345125714Y-127731685D01*
X344982857Y-127588828D01*
X344840000Y-127303114D01*
X344697142Y-126731685D01*
X344697142Y-126017400D01*
X344840000Y-125445971D01*
X344982857Y-125160257D01*
X345125714Y-125017400D01*
X345411428Y-124874542D01*
X347697142Y-127588828D02*
X347840000Y-127731685D01*
X347697142Y-127874542D01*
X347554285Y-127731685D01*
X347697142Y-127588828D01*
X347697142Y-127874542D01*
X349125714Y-127874542D02*
X349125714Y-124874542D01*
X350840000Y-127874542D02*
X349554285Y-126160257D01*
X350840000Y-124874542D02*
X349125714Y-126588828D01*
X353268571Y-127731685D02*
X352982857Y-127874542D01*
X352411428Y-127874542D01*
X352125714Y-127731685D01*
X351982857Y-127445971D01*
X351982857Y-126303114D01*
X352125714Y-126017400D01*
X352411428Y-125874542D01*
X352982857Y-125874542D01*
X353268571Y-126017400D01*
X353411428Y-126303114D01*
X353411428Y-126588828D01*
X351982857Y-126874542D01*
X354411428Y-125874542D02*
X355125714Y-127874542D01*
X355840000Y-125874542D02*
X355125714Y-127874542D01*
X354840000Y-128588828D01*
X354697142Y-128731685D01*
X354411428Y-128874542D01*
X356982857Y-127588828D02*
X357125714Y-127731685D01*
X356982857Y-127874542D01*
X356840000Y-127731685D01*
X356982857Y-127588828D01*
X356982857Y-127874542D01*
X358982857Y-126445971D02*
X358982857Y-127874542D01*
X357982857Y-124874542D02*
X358982857Y-126445971D01*
X359982857Y-124874542D01*
X362125714Y-127731685D02*
X361840000Y-127874542D01*
X361268571Y-127874542D01*
X360982857Y-127731685D01*
X360840000Y-127445971D01*
X360840000Y-126303114D01*
X360982857Y-126017400D01*
X361268571Y-125874542D01*
X361840000Y-125874542D01*
X362125714Y-126017400D01*
X362268571Y-126303114D01*
X362268571Y-126588828D01*
X360840000Y-126874542D01*
X364697142Y-127731685D02*
X364411428Y-127874542D01*
X363840000Y-127874542D01*
X363554285Y-127731685D01*
X363411428Y-127445971D01*
X363411428Y-126303114D01*
X363554285Y-126017400D01*
X363840000Y-125874542D01*
X364411428Y-125874542D01*
X364697142Y-126017400D01*
X364840000Y-126303114D01*
X364840000Y-126588828D01*
X363411428Y-126874542D01*
X365697142Y-125874542D02*
X366840000Y-125874542D01*
X366125714Y-124874542D02*
X366125714Y-127445971D01*
X366268571Y-127731685D01*
X366554285Y-127874542D01*
X366840000Y-127874542D01*
X367697142Y-125160257D02*
X367840000Y-125017400D01*
X368125714Y-124874542D01*
X368840000Y-124874542D01*
X369125714Y-125017400D01*
X369268571Y-125160257D01*
X369411428Y-125445971D01*
X369411428Y-125731685D01*
X369268571Y-126160257D01*
X367554285Y-127874542D01*
X369411428Y-127874542D01*
X375268571Y-127874542D02*
X375268571Y-124874542D01*
X376268571Y-127017400D01*
X377268571Y-124874542D01*
X377268571Y-127874542D01*
X379982857Y-127874542D02*
X379982857Y-126303114D01*
X379840000Y-126017400D01*
X379554285Y-125874542D01*
X378982857Y-125874542D01*
X378697142Y-126017400D01*
X379982857Y-127731685D02*
X379697142Y-127874542D01*
X378982857Y-127874542D01*
X378697142Y-127731685D01*
X378554285Y-127445971D01*
X378554285Y-127160257D01*
X378697142Y-126874542D01*
X378982857Y-126731685D01*
X379697142Y-126731685D01*
X379982857Y-126588828D01*
X381125714Y-125874542D02*
X381840000Y-127874542D01*
X382554285Y-125874542D02*
X381840000Y-127874542D01*
X381554285Y-128588828D01*
X381411428Y-128731685D01*
X381125714Y-128874542D01*
X387554285Y-127874542D02*
X385840000Y-127874542D01*
X386697142Y-127874542D02*
X386697142Y-124874542D01*
X386411428Y-125303114D01*
X386125714Y-125588828D01*
X385840000Y-125731685D01*
X390125714Y-125874542D02*
X390125714Y-127874542D01*
X389411428Y-124731685D02*
X388697142Y-126874542D01*
X390554285Y-126874542D01*
X391840000Y-127731685D02*
X391840000Y-127874542D01*
X391697142Y-128160257D01*
X391554285Y-128303114D01*
X395268571Y-125160257D02*
X395411428Y-125017400D01*
X395697142Y-124874542D01*
X396411428Y-124874542D01*
X396697142Y-125017400D01*
X396840000Y-125160257D01*
X396982857Y-125445971D01*
X396982857Y-125731685D01*
X396840000Y-126160257D01*
X395125714Y-127874542D01*
X396982857Y-127874542D01*
X398840000Y-124874542D02*
X399125714Y-124874542D01*
X399411428Y-125017400D01*
X399554285Y-125160257D01*
X399697142Y-125445971D01*
X399840000Y-126017400D01*
X399840000Y-126731685D01*
X399697142Y-127303114D01*
X399554285Y-127588828D01*
X399411428Y-127731685D01*
X399125714Y-127874542D01*
X398840000Y-127874542D01*
X398554285Y-127731685D01*
X398411428Y-127588828D01*
X398268571Y-127303114D01*
X398125714Y-126731685D01*
X398125714Y-126017400D01*
X398268571Y-125445971D01*
X398411428Y-125160257D01*
X398554285Y-125017400D01*
X398840000Y-124874542D01*
X400982857Y-125160257D02*
X401125714Y-125017400D01*
X401411428Y-124874542D01*
X402125714Y-124874542D01*
X402411428Y-125017400D01*
X402554285Y-125160257D01*
X402697142Y-125445971D01*
X402697142Y-125731685D01*
X402554285Y-126160257D01*
X400840000Y-127874542D01*
X402697142Y-127874542D01*
X405554285Y-127874542D02*
X403840000Y-127874542D01*
X404697142Y-127874542D02*
X404697142Y-124874542D01*
X404411428Y-125303114D01*
X404125714Y-125588828D01*
X403840000Y-125731685D01*
%TO.C,SW57*%
X251856000Y-68692000D02*
X251856000Y-69692000D01*
X250856000Y-82692000D02*
X251856000Y-82692000D01*
X251856000Y-68692000D02*
X250856000Y-68692000D01*
X251856000Y-81692000D02*
X251856000Y-82692000D01*
X237856000Y-82692000D02*
X237856000Y-81692000D01*
X238856000Y-68692000D02*
X237856000Y-68692000D01*
X237856000Y-82692000D02*
X238856000Y-82692000D01*
X237856000Y-69692000D02*
X237856000Y-68692000D01*
D11*
X244856000Y-78752000D02*
X244856000Y-78432000D01*
X247526000Y-80392000D02*
X247846000Y-80392000D01*
D10*
%TO.C,U1*%
X314325000Y-51435000D02*
X314325000Y-47625000D01*
X314325000Y-47625000D02*
X311785000Y-47625000D01*
X311785000Y-47625000D02*
X311785000Y-51435000D01*
X311785000Y-51435000D02*
X314325000Y-51435000D01*
X319405000Y-51435000D02*
X319405000Y-47625000D01*
X319405000Y-47625000D02*
X316865000Y-47625000D01*
X316865000Y-47625000D02*
X315595000Y-47625000D01*
X315595000Y-47625000D02*
X315595000Y-51435000D01*
X315595000Y-51435000D02*
X319405000Y-51435000D01*
X313055000Y-37465000D02*
X313055000Y-45085000D01*
X313055000Y-45085000D02*
X320675000Y-45085000D01*
X320675000Y-45085000D02*
X320675000Y-37465000D01*
X320675000Y-37465000D02*
X313055000Y-37465000D01*
X313055000Y-31115000D02*
X313055000Y-22225000D01*
X313055000Y-22225000D02*
X320675000Y-22225000D01*
X320675000Y-22225000D02*
X320675000Y-31115000D01*
X320675000Y-31115000D02*
X313055000Y-31115000D01*
X325755000Y-23495000D02*
X325755000Y-53975000D01*
X325755000Y-53975000D02*
X307975000Y-53975000D01*
X307975000Y-53975000D02*
X307975000Y-23495000D01*
X307975000Y-23495000D02*
X325755000Y-23495000D01*
D12*
G36*
X318770000Y-41783000D02*
G01*
X318770000Y-42418000D01*
X318516000Y-42418000D01*
X318516000Y-42037000D01*
X318389000Y-42037000D01*
X318389000Y-42418000D01*
X318135000Y-42418000D01*
X318135000Y-42037000D01*
X318008000Y-42037000D01*
X318008000Y-42418000D01*
X317754000Y-42418000D01*
X317754000Y-41783000D01*
X318770000Y-41783000D01*
G37*
X318770000Y-41783000D02*
X318770000Y-42418000D01*
X318516000Y-42418000D01*
X318516000Y-42037000D01*
X318389000Y-42037000D01*
X318389000Y-42418000D01*
X318135000Y-42418000D01*
X318135000Y-42037000D01*
X318008000Y-42037000D01*
X318008000Y-42418000D01*
X317754000Y-42418000D01*
X317754000Y-41783000D01*
X318770000Y-41783000D01*
G36*
X318770000Y-42545000D02*
G01*
X317754000Y-42545000D01*
X317754000Y-43180000D01*
X318008000Y-43307000D01*
X318008000Y-42799000D01*
X318770000Y-42799000D01*
X318770000Y-42545000D01*
G37*
X318770000Y-42545000D02*
X317754000Y-42545000D01*
X317754000Y-43180000D01*
X318008000Y-43307000D01*
X318008000Y-42799000D01*
X318770000Y-42799000D01*
X318770000Y-42545000D01*
G36*
X317754000Y-41656000D02*
G01*
X318770000Y-41656000D01*
X318770000Y-40640000D01*
X317754000Y-40640000D01*
X317754000Y-40894000D01*
X318516000Y-40894000D01*
X318516000Y-41021000D01*
X317754000Y-41021000D01*
X317754000Y-41275000D01*
X318516000Y-41275000D01*
X318516000Y-41402000D01*
X317754000Y-41402000D01*
X317754000Y-41656000D01*
G37*
X317754000Y-41656000D02*
X318770000Y-41656000D01*
X318770000Y-40640000D01*
X317754000Y-40640000D01*
X317754000Y-40894000D01*
X318516000Y-40894000D01*
X318516000Y-41021000D01*
X317754000Y-41021000D01*
X317754000Y-41275000D01*
X318516000Y-41275000D01*
X318516000Y-41402000D01*
X317754000Y-41402000D01*
X317754000Y-41656000D01*
G36*
X318897000Y-42799000D02*
G01*
X318897000Y-40513000D01*
X317754000Y-40513000D01*
X317754000Y-40259000D01*
X318897000Y-40259000D01*
X318897000Y-39751000D01*
X319151000Y-39878000D01*
X319151000Y-42799000D01*
X318897000Y-42799000D01*
G37*
X318897000Y-42799000D02*
X318897000Y-40513000D01*
X317754000Y-40513000D01*
X317754000Y-40259000D01*
X318897000Y-40259000D01*
X318897000Y-39751000D01*
X319151000Y-39878000D01*
X319151000Y-42799000D01*
X318897000Y-42799000D01*
G36*
X317754000Y-40132000D02*
G01*
X318770000Y-40132000D01*
X318770000Y-39751000D01*
X317754000Y-39370000D01*
X317754000Y-39624000D01*
X318516000Y-39878000D01*
X317754000Y-39878000D01*
X317754000Y-40132000D01*
G37*
X317754000Y-40132000D02*
X318770000Y-40132000D01*
X318770000Y-39751000D01*
X317754000Y-39370000D01*
X317754000Y-39624000D01*
X318516000Y-39878000D01*
X317754000Y-39878000D01*
X317754000Y-40132000D01*
G36*
X317627000Y-39370000D02*
G01*
X317627000Y-43180000D01*
X317373000Y-43053000D01*
X317373000Y-39370000D01*
X317627000Y-39370000D01*
G37*
X317627000Y-39370000D02*
X317627000Y-43180000D01*
X317373000Y-43053000D01*
X317373000Y-39370000D01*
X317627000Y-39370000D01*
D10*
%TO.C,SW1*%
X399938000Y-49896000D02*
X399938000Y-50896000D01*
X398938000Y-63896000D02*
X399938000Y-63896000D01*
X399938000Y-49896000D02*
X398938000Y-49896000D01*
X399938000Y-62896000D02*
X399938000Y-63896000D01*
X385938000Y-63896000D02*
X385938000Y-62896000D01*
X386938000Y-49896000D02*
X385938000Y-49896000D01*
X385938000Y-63896000D02*
X386938000Y-63896000D01*
X385938000Y-50896000D02*
X385938000Y-49896000D01*
D11*
X392938000Y-59956000D02*
X392938000Y-59636000D01*
X395608000Y-61596000D02*
X395928000Y-61596000D01*
D10*
%TO.C,SW2*%
X51958000Y-106792000D02*
X51958000Y-107792000D01*
X50958000Y-120792000D02*
X51958000Y-120792000D01*
X51958000Y-106792000D02*
X50958000Y-106792000D01*
X51958000Y-119792000D02*
X51958000Y-120792000D01*
X37958000Y-120792000D02*
X37958000Y-119792000D01*
X38958000Y-106792000D02*
X37958000Y-106792000D01*
X37958000Y-120792000D02*
X38958000Y-120792000D01*
X37958000Y-107792000D02*
X37958000Y-106792000D01*
D11*
X44958000Y-116852000D02*
X44958000Y-116532000D01*
X47628000Y-118492000D02*
X47948000Y-118492000D01*
D10*
%TO.C,SW3*%
X242712000Y-87742000D02*
X242712000Y-88742000D01*
X241712000Y-101742000D02*
X242712000Y-101742000D01*
X242712000Y-87742000D02*
X241712000Y-87742000D01*
X242712000Y-100742000D02*
X242712000Y-101742000D01*
X228712000Y-101742000D02*
X228712000Y-100742000D01*
X229712000Y-87742000D02*
X228712000Y-87742000D01*
X228712000Y-101742000D02*
X229712000Y-101742000D01*
X228712000Y-88742000D02*
X228712000Y-87742000D01*
D11*
X235712000Y-97802000D02*
X235712000Y-97482000D01*
X238382000Y-99442000D02*
X238702000Y-99442000D01*
D10*
%TO.C,SW4*%
X51958000Y-30592000D02*
X51958000Y-31592000D01*
X50958000Y-44592000D02*
X51958000Y-44592000D01*
X51958000Y-30592000D02*
X50958000Y-30592000D01*
X51958000Y-43592000D02*
X51958000Y-44592000D01*
X37958000Y-44592000D02*
X37958000Y-43592000D01*
X38958000Y-30592000D02*
X37958000Y-30592000D01*
X37958000Y-44592000D02*
X38958000Y-44592000D01*
X37958000Y-31592000D02*
X37958000Y-30592000D01*
D11*
X44958000Y-40652000D02*
X44958000Y-40332000D01*
X47628000Y-42292000D02*
X47948000Y-42292000D01*
D10*
%TO.C,SW5*%
X71008000Y-30592000D02*
X71008000Y-31592000D01*
X70008000Y-44592000D02*
X71008000Y-44592000D01*
X71008000Y-30592000D02*
X70008000Y-30592000D01*
X71008000Y-43592000D02*
X71008000Y-44592000D01*
X57008000Y-44592000D02*
X57008000Y-43592000D01*
X58008000Y-30592000D02*
X57008000Y-30592000D01*
X57008000Y-44592000D02*
X58008000Y-44592000D01*
X57008000Y-31592000D02*
X57008000Y-30592000D01*
D11*
X64008000Y-40652000D02*
X64008000Y-40332000D01*
X66678000Y-42292000D02*
X66998000Y-42292000D01*
D10*
%TO.C,SW6*%
X75834000Y-49642000D02*
X75834000Y-50642000D01*
X74834000Y-63642000D02*
X75834000Y-63642000D01*
X75834000Y-49642000D02*
X74834000Y-49642000D01*
X75834000Y-62642000D02*
X75834000Y-63642000D01*
X61834000Y-63642000D02*
X61834000Y-62642000D01*
X62834000Y-49642000D02*
X61834000Y-49642000D01*
X61834000Y-63642000D02*
X62834000Y-63642000D01*
X61834000Y-50642000D02*
X61834000Y-49642000D01*
D11*
X68834000Y-59702000D02*
X68834000Y-59382000D01*
X71504000Y-61342000D02*
X71824000Y-61342000D01*
D10*
%TO.C,SW7*%
X80660000Y-68692000D02*
X80660000Y-69692000D01*
X79660000Y-82692000D02*
X80660000Y-82692000D01*
X80660000Y-68692000D02*
X79660000Y-68692000D01*
X80660000Y-81692000D02*
X80660000Y-82692000D01*
X66660000Y-82692000D02*
X66660000Y-81692000D01*
X67660000Y-68692000D02*
X66660000Y-68692000D01*
X66660000Y-82692000D02*
X67660000Y-82692000D01*
X66660000Y-69692000D02*
X66660000Y-68692000D01*
D11*
X73660000Y-78752000D02*
X73660000Y-78432000D01*
X76330000Y-80392000D02*
X76650000Y-80392000D01*
D10*
%TO.C,SW8*%
X71008000Y-106792000D02*
X71008000Y-107792000D01*
X70008000Y-120792000D02*
X71008000Y-120792000D01*
X71008000Y-106792000D02*
X70008000Y-106792000D01*
X71008000Y-119792000D02*
X71008000Y-120792000D01*
X57008000Y-120792000D02*
X57008000Y-119792000D01*
X58008000Y-106792000D02*
X57008000Y-106792000D01*
X57008000Y-120792000D02*
X58008000Y-120792000D01*
X57008000Y-107792000D02*
X57008000Y-106792000D01*
D11*
X64008000Y-116852000D02*
X64008000Y-116532000D01*
X66678000Y-118492000D02*
X66998000Y-118492000D01*
D10*
%TO.C,SW9*%
X342788000Y-87996000D02*
X342788000Y-88996000D01*
X341788000Y-101996000D02*
X342788000Y-101996000D01*
X342788000Y-87996000D02*
X341788000Y-87996000D01*
X342788000Y-100996000D02*
X342788000Y-101996000D01*
X328788000Y-101996000D02*
X328788000Y-100996000D01*
X329788000Y-87996000D02*
X328788000Y-87996000D01*
X328788000Y-101996000D02*
X329788000Y-101996000D01*
X328788000Y-88996000D02*
X328788000Y-87996000D01*
D11*
X335788000Y-98056000D02*
X335788000Y-97736000D01*
X338458000Y-99696000D02*
X338778000Y-99696000D01*
D10*
%TO.C,SW10*%
X99710000Y-68692000D02*
X99710000Y-69692000D01*
X98710000Y-82692000D02*
X99710000Y-82692000D01*
X99710000Y-68692000D02*
X98710000Y-68692000D01*
X99710000Y-81692000D02*
X99710000Y-82692000D01*
X85710000Y-82692000D02*
X85710000Y-81692000D01*
X86710000Y-68692000D02*
X85710000Y-68692000D01*
X85710000Y-82692000D02*
X86710000Y-82692000D01*
X85710000Y-69692000D02*
X85710000Y-68692000D01*
D11*
X92710000Y-78752000D02*
X92710000Y-78432000D01*
X95380000Y-80392000D02*
X95700000Y-80392000D01*
D10*
%TO.C,SW11*%
X90312000Y-87742000D02*
X90312000Y-88742000D01*
X89312000Y-101742000D02*
X90312000Y-101742000D01*
X90312000Y-87742000D02*
X89312000Y-87742000D01*
X90312000Y-100742000D02*
X90312000Y-101742000D01*
X76312000Y-101742000D02*
X76312000Y-100742000D01*
X77312000Y-87742000D02*
X76312000Y-87742000D01*
X76312000Y-101742000D02*
X77312000Y-101742000D01*
X76312000Y-88742000D02*
X76312000Y-87742000D01*
D11*
X83312000Y-97802000D02*
X83312000Y-97482000D01*
X85982000Y-99442000D02*
X86302000Y-99442000D01*
D10*
%TO.C,SW12*%
X399938000Y-68946000D02*
X399938000Y-69946000D01*
X398938000Y-82946000D02*
X399938000Y-82946000D01*
X399938000Y-68946000D02*
X398938000Y-68946000D01*
X399938000Y-81946000D02*
X399938000Y-82946000D01*
X385938000Y-82946000D02*
X385938000Y-81946000D01*
X386938000Y-68946000D02*
X385938000Y-68946000D01*
X385938000Y-82946000D02*
X386938000Y-82946000D01*
X385938000Y-69946000D02*
X385938000Y-68946000D01*
D11*
X392938000Y-79006000D02*
X392938000Y-78686000D01*
X395608000Y-80646000D02*
X395928000Y-80646000D01*
D10*
%TO.C,SW13*%
X90058000Y-30592000D02*
X90058000Y-31592000D01*
X89058000Y-44592000D02*
X90058000Y-44592000D01*
X90058000Y-30592000D02*
X89058000Y-30592000D01*
X90058000Y-43592000D02*
X90058000Y-44592000D01*
X76058000Y-44592000D02*
X76058000Y-43592000D01*
X77058000Y-30592000D02*
X76058000Y-30592000D01*
X76058000Y-44592000D02*
X77058000Y-44592000D01*
X76058000Y-31592000D02*
X76058000Y-30592000D01*
D11*
X83058000Y-40652000D02*
X83058000Y-40332000D01*
X85728000Y-42292000D02*
X86048000Y-42292000D01*
D10*
%TO.C,SW14*%
X94884000Y-49642000D02*
X94884000Y-50642000D01*
X93884000Y-63642000D02*
X94884000Y-63642000D01*
X94884000Y-49642000D02*
X93884000Y-49642000D01*
X94884000Y-62642000D02*
X94884000Y-63642000D01*
X80884000Y-63642000D02*
X80884000Y-62642000D01*
X81884000Y-49642000D02*
X80884000Y-49642000D01*
X80884000Y-63642000D02*
X81884000Y-63642000D01*
X80884000Y-50642000D02*
X80884000Y-49642000D01*
D11*
X87884000Y-59702000D02*
X87884000Y-59382000D01*
X90554000Y-61342000D02*
X90874000Y-61342000D01*
D10*
%TO.C,SW15*%
X109108000Y-30592000D02*
X109108000Y-31592000D01*
X108108000Y-44592000D02*
X109108000Y-44592000D01*
X109108000Y-30592000D02*
X108108000Y-30592000D01*
X109108000Y-43592000D02*
X109108000Y-44592000D01*
X95108000Y-44592000D02*
X95108000Y-43592000D01*
X96108000Y-30592000D02*
X95108000Y-30592000D01*
X95108000Y-44592000D02*
X96108000Y-44592000D01*
X95108000Y-31592000D02*
X95108000Y-30592000D01*
D11*
X102108000Y-40652000D02*
X102108000Y-40332000D01*
X104778000Y-42292000D02*
X105098000Y-42292000D01*
D10*
%TO.C,SW16*%
X113934000Y-49642000D02*
X113934000Y-50642000D01*
X112934000Y-63642000D02*
X113934000Y-63642000D01*
X113934000Y-49642000D02*
X112934000Y-49642000D01*
X113934000Y-62642000D02*
X113934000Y-63642000D01*
X99934000Y-63642000D02*
X99934000Y-62642000D01*
X100934000Y-49642000D02*
X99934000Y-49642000D01*
X99934000Y-63642000D02*
X100934000Y-63642000D01*
X99934000Y-50642000D02*
X99934000Y-49642000D01*
D11*
X106934000Y-59702000D02*
X106934000Y-59382000D01*
X109604000Y-61342000D02*
X109924000Y-61342000D01*
D10*
%TO.C,SW17*%
X118760000Y-68692000D02*
X118760000Y-69692000D01*
X117760000Y-82692000D02*
X118760000Y-82692000D01*
X118760000Y-68692000D02*
X117760000Y-68692000D01*
X118760000Y-81692000D02*
X118760000Y-82692000D01*
X104760000Y-82692000D02*
X104760000Y-81692000D01*
X105760000Y-68692000D02*
X104760000Y-68692000D01*
X104760000Y-82692000D02*
X105760000Y-82692000D01*
X104760000Y-69692000D02*
X104760000Y-68692000D01*
D11*
X111760000Y-78752000D02*
X111760000Y-78432000D01*
X114430000Y-80392000D02*
X114750000Y-80392000D01*
D10*
%TO.C,SW18*%
X109362000Y-87742000D02*
X109362000Y-88742000D01*
X108362000Y-101742000D02*
X109362000Y-101742000D01*
X109362000Y-87742000D02*
X108362000Y-87742000D01*
X109362000Y-100742000D02*
X109362000Y-101742000D01*
X95362000Y-101742000D02*
X95362000Y-100742000D01*
X96362000Y-87742000D02*
X95362000Y-87742000D01*
X95362000Y-101742000D02*
X96362000Y-101742000D01*
X95362000Y-88742000D02*
X95362000Y-87742000D01*
D11*
X102362000Y-97802000D02*
X102362000Y-97482000D01*
X105032000Y-99442000D02*
X105352000Y-99442000D01*
D10*
%TO.C,SW19*%
X118760000Y-106792000D02*
X118760000Y-107792000D01*
X117760000Y-120792000D02*
X118760000Y-120792000D01*
X118760000Y-106792000D02*
X117760000Y-106792000D01*
X118760000Y-119792000D02*
X118760000Y-120792000D01*
X104760000Y-120792000D02*
X104760000Y-119792000D01*
X105760000Y-106792000D02*
X104760000Y-106792000D01*
X104760000Y-120792000D02*
X105760000Y-120792000D01*
X104760000Y-107792000D02*
X104760000Y-106792000D01*
D11*
X111760000Y-116852000D02*
X111760000Y-116532000D01*
X114430000Y-118492000D02*
X114750000Y-118492000D01*
D10*
%TO.C,SW20*%
X247284000Y-49642000D02*
X247284000Y-50642000D01*
X246284000Y-63642000D02*
X247284000Y-63642000D01*
X247284000Y-49642000D02*
X246284000Y-49642000D01*
X247284000Y-62642000D02*
X247284000Y-63642000D01*
X233284000Y-63642000D02*
X233284000Y-62642000D01*
X234284000Y-49642000D02*
X233284000Y-49642000D01*
X233284000Y-63642000D02*
X234284000Y-63642000D01*
X233284000Y-50642000D02*
X233284000Y-49642000D01*
D11*
X240284000Y-59702000D02*
X240284000Y-59382000D01*
X242954000Y-61342000D02*
X243274000Y-61342000D01*
D10*
%TO.C,SW21*%
X137810000Y-68692000D02*
X137810000Y-69692000D01*
X136810000Y-82692000D02*
X137810000Y-82692000D01*
X137810000Y-68692000D02*
X136810000Y-68692000D01*
X137810000Y-81692000D02*
X137810000Y-82692000D01*
X123810000Y-82692000D02*
X123810000Y-81692000D01*
X124810000Y-68692000D02*
X123810000Y-68692000D01*
X123810000Y-82692000D02*
X124810000Y-82692000D01*
X123810000Y-69692000D02*
X123810000Y-68692000D01*
D11*
X130810000Y-78752000D02*
X130810000Y-78432000D01*
X133480000Y-80392000D02*
X133800000Y-80392000D01*
D10*
%TO.C,SW22*%
X128412000Y-87742000D02*
X128412000Y-88742000D01*
X127412000Y-101742000D02*
X128412000Y-101742000D01*
X128412000Y-87742000D02*
X127412000Y-87742000D01*
X128412000Y-100742000D02*
X128412000Y-101742000D01*
X114412000Y-101742000D02*
X114412000Y-100742000D01*
X115412000Y-87742000D02*
X114412000Y-87742000D01*
X114412000Y-101742000D02*
X115412000Y-101742000D01*
X114412000Y-88742000D02*
X114412000Y-87742000D01*
D11*
X121412000Y-97802000D02*
X121412000Y-97482000D01*
X124082000Y-99442000D02*
X124402000Y-99442000D01*
D10*
%TO.C,SW23*%
X266334000Y-49642000D02*
X266334000Y-50642000D01*
X265334000Y-63642000D02*
X266334000Y-63642000D01*
X266334000Y-49642000D02*
X265334000Y-49642000D01*
X266334000Y-62642000D02*
X266334000Y-63642000D01*
X252334000Y-63642000D02*
X252334000Y-62642000D01*
X253334000Y-49642000D02*
X252334000Y-49642000D01*
X252334000Y-63642000D02*
X253334000Y-63642000D01*
X252334000Y-50642000D02*
X252334000Y-49642000D01*
D11*
X259334000Y-59702000D02*
X259334000Y-59382000D01*
X262004000Y-61342000D02*
X262324000Y-61342000D01*
D10*
%TO.C,SW24*%
X128158000Y-30592000D02*
X128158000Y-31592000D01*
X127158000Y-44592000D02*
X128158000Y-44592000D01*
X128158000Y-30592000D02*
X127158000Y-30592000D01*
X128158000Y-43592000D02*
X128158000Y-44592000D01*
X114158000Y-44592000D02*
X114158000Y-43592000D01*
X115158000Y-30592000D02*
X114158000Y-30592000D01*
X114158000Y-44592000D02*
X115158000Y-44592000D01*
X114158000Y-31592000D02*
X114158000Y-30592000D01*
D11*
X121158000Y-40652000D02*
X121158000Y-40332000D01*
X123828000Y-42292000D02*
X124148000Y-42292000D01*
D10*
%TO.C,SW25*%
X132984000Y-49642000D02*
X132984000Y-50642000D01*
X131984000Y-63642000D02*
X132984000Y-63642000D01*
X132984000Y-49642000D02*
X131984000Y-49642000D01*
X132984000Y-62642000D02*
X132984000Y-63642000D01*
X118984000Y-63642000D02*
X118984000Y-62642000D01*
X119984000Y-49642000D02*
X118984000Y-49642000D01*
X118984000Y-63642000D02*
X119984000Y-63642000D01*
X118984000Y-50642000D02*
X118984000Y-49642000D01*
D11*
X125984000Y-59702000D02*
X125984000Y-59382000D01*
X128654000Y-61342000D02*
X128974000Y-61342000D01*
D10*
%TO.C,SW26*%
X147208000Y-30592000D02*
X147208000Y-31592000D01*
X146208000Y-44592000D02*
X147208000Y-44592000D01*
X147208000Y-30592000D02*
X146208000Y-30592000D01*
X147208000Y-43592000D02*
X147208000Y-44592000D01*
X133208000Y-44592000D02*
X133208000Y-43592000D01*
X134208000Y-30592000D02*
X133208000Y-30592000D01*
X133208000Y-44592000D02*
X134208000Y-44592000D01*
X133208000Y-31592000D02*
X133208000Y-30592000D01*
D11*
X140208000Y-40652000D02*
X140208000Y-40332000D01*
X142878000Y-42292000D02*
X143198000Y-42292000D01*
D10*
%TO.C,SW27*%
X152034000Y-49642000D02*
X152034000Y-50642000D01*
X151034000Y-63642000D02*
X152034000Y-63642000D01*
X152034000Y-49642000D02*
X151034000Y-49642000D01*
X152034000Y-62642000D02*
X152034000Y-63642000D01*
X138034000Y-63642000D02*
X138034000Y-62642000D01*
X139034000Y-49642000D02*
X138034000Y-49642000D01*
X138034000Y-63642000D02*
X139034000Y-63642000D01*
X138034000Y-50642000D02*
X138034000Y-49642000D01*
D11*
X145034000Y-59702000D02*
X145034000Y-59382000D01*
X147704000Y-61342000D02*
X148024000Y-61342000D01*
D10*
%TO.C,SW28*%
X156606000Y-68692000D02*
X156606000Y-69692000D01*
X155606000Y-82692000D02*
X156606000Y-82692000D01*
X156606000Y-68692000D02*
X155606000Y-68692000D01*
X156606000Y-81692000D02*
X156606000Y-82692000D01*
X142606000Y-82692000D02*
X142606000Y-81692000D01*
X143606000Y-68692000D02*
X142606000Y-68692000D01*
X142606000Y-82692000D02*
X143606000Y-82692000D01*
X142606000Y-69692000D02*
X142606000Y-68692000D01*
D11*
X149606000Y-78752000D02*
X149606000Y-78432000D01*
X152276000Y-80392000D02*
X152596000Y-80392000D01*
D10*
%TO.C,SW29*%
X147462000Y-87742000D02*
X147462000Y-88742000D01*
X146462000Y-101742000D02*
X147462000Y-101742000D01*
X147462000Y-87742000D02*
X146462000Y-87742000D01*
X147462000Y-100742000D02*
X147462000Y-101742000D01*
X133462000Y-101742000D02*
X133462000Y-100742000D01*
X134462000Y-87742000D02*
X133462000Y-87742000D01*
X133462000Y-101742000D02*
X134462000Y-101742000D01*
X133462000Y-88742000D02*
X133462000Y-87742000D01*
D11*
X140462000Y-97802000D02*
X140462000Y-97482000D01*
X143132000Y-99442000D02*
X143452000Y-99442000D01*
D10*
%TO.C,SW30*%
X180736000Y-106792000D02*
X180736000Y-107792000D01*
X179736000Y-120792000D02*
X180736000Y-120792000D01*
X180736000Y-106792000D02*
X179736000Y-106792000D01*
X180736000Y-119792000D02*
X180736000Y-120792000D01*
X166736000Y-120792000D02*
X166736000Y-119792000D01*
X167736000Y-106792000D02*
X166736000Y-106792000D01*
X166736000Y-120792000D02*
X167736000Y-120792000D01*
X166736000Y-107792000D02*
X166736000Y-106792000D01*
D11*
X173736000Y-116852000D02*
X173736000Y-116532000D01*
X176406000Y-118492000D02*
X176726000Y-118492000D01*
D10*
%TO.C,SW31*%
X175656000Y-68692000D02*
X175656000Y-69692000D01*
X174656000Y-82692000D02*
X175656000Y-82692000D01*
X175656000Y-68692000D02*
X174656000Y-68692000D01*
X175656000Y-81692000D02*
X175656000Y-82692000D01*
X161656000Y-82692000D02*
X161656000Y-81692000D01*
X162656000Y-68692000D02*
X161656000Y-68692000D01*
X161656000Y-82692000D02*
X162656000Y-82692000D01*
X161656000Y-69692000D02*
X161656000Y-68692000D01*
D11*
X168656000Y-78752000D02*
X168656000Y-78432000D01*
X171326000Y-80392000D02*
X171646000Y-80392000D01*
D10*
%TO.C,SW32*%
X166512000Y-87742000D02*
X166512000Y-88742000D01*
X165512000Y-101742000D02*
X166512000Y-101742000D01*
X166512000Y-87742000D02*
X165512000Y-87742000D01*
X166512000Y-100742000D02*
X166512000Y-101742000D01*
X152512000Y-101742000D02*
X152512000Y-100742000D01*
X153512000Y-87742000D02*
X152512000Y-87742000D01*
X152512000Y-101742000D02*
X153512000Y-101742000D01*
X152512000Y-88742000D02*
X152512000Y-87742000D01*
D11*
X159512000Y-97802000D02*
X159512000Y-97482000D01*
X162182000Y-99442000D02*
X162502000Y-99442000D01*
D10*
%TO.C,SW33*%
X199786000Y-106792000D02*
X199786000Y-107792000D01*
X198786000Y-120792000D02*
X199786000Y-120792000D01*
X199786000Y-106792000D02*
X198786000Y-106792000D01*
X199786000Y-119792000D02*
X199786000Y-120792000D01*
X185786000Y-120792000D02*
X185786000Y-119792000D01*
X186786000Y-106792000D02*
X185786000Y-106792000D01*
X185786000Y-120792000D02*
X186786000Y-120792000D01*
X185786000Y-107792000D02*
X185786000Y-106792000D01*
D11*
X192786000Y-116852000D02*
X192786000Y-116532000D01*
X195456000Y-118492000D02*
X195776000Y-118492000D01*
D10*
%TO.C,SW34*%
X261762000Y-87742000D02*
X261762000Y-88742000D01*
X260762000Y-101742000D02*
X261762000Y-101742000D01*
X261762000Y-87742000D02*
X260762000Y-87742000D01*
X261762000Y-100742000D02*
X261762000Y-101742000D01*
X247762000Y-101742000D02*
X247762000Y-100742000D01*
X248762000Y-87742000D02*
X247762000Y-87742000D01*
X247762000Y-101742000D02*
X248762000Y-101742000D01*
X247762000Y-88742000D02*
X247762000Y-87742000D01*
D11*
X254762000Y-97802000D02*
X254762000Y-97482000D01*
X257432000Y-99442000D02*
X257752000Y-99442000D01*
D10*
%TO.C,SW35*%
X166258000Y-30592000D02*
X166258000Y-31592000D01*
X165258000Y-44592000D02*
X166258000Y-44592000D01*
X166258000Y-30592000D02*
X165258000Y-30592000D01*
X166258000Y-43592000D02*
X166258000Y-44592000D01*
X152258000Y-44592000D02*
X152258000Y-43592000D01*
X153258000Y-30592000D02*
X152258000Y-30592000D01*
X152258000Y-44592000D02*
X153258000Y-44592000D01*
X152258000Y-31592000D02*
X152258000Y-30592000D01*
D11*
X159258000Y-40652000D02*
X159258000Y-40332000D01*
X161928000Y-42292000D02*
X162248000Y-42292000D01*
D10*
%TO.C,SW36*%
X171084000Y-49642000D02*
X171084000Y-50642000D01*
X170084000Y-63642000D02*
X171084000Y-63642000D01*
X171084000Y-49642000D02*
X170084000Y-49642000D01*
X171084000Y-62642000D02*
X171084000Y-63642000D01*
X157084000Y-63642000D02*
X157084000Y-62642000D01*
X158084000Y-49642000D02*
X157084000Y-49642000D01*
X157084000Y-63642000D02*
X158084000Y-63642000D01*
X157084000Y-50642000D02*
X157084000Y-49642000D01*
D11*
X164084000Y-59702000D02*
X164084000Y-59382000D01*
X166754000Y-61342000D02*
X167074000Y-61342000D01*
D10*
%TO.C,SW37*%
X185308000Y-30592000D02*
X185308000Y-31592000D01*
X184308000Y-44592000D02*
X185308000Y-44592000D01*
X185308000Y-30592000D02*
X184308000Y-30592000D01*
X185308000Y-43592000D02*
X185308000Y-44592000D01*
X171308000Y-44592000D02*
X171308000Y-43592000D01*
X172308000Y-30592000D02*
X171308000Y-30592000D01*
X171308000Y-44592000D02*
X172308000Y-44592000D01*
X171308000Y-31592000D02*
X171308000Y-30592000D01*
D11*
X178308000Y-40652000D02*
X178308000Y-40332000D01*
X180978000Y-42292000D02*
X181298000Y-42292000D01*
D10*
%TO.C,SW38*%
X190134000Y-49642000D02*
X190134000Y-50642000D01*
X189134000Y-63642000D02*
X190134000Y-63642000D01*
X190134000Y-49642000D02*
X189134000Y-49642000D01*
X190134000Y-62642000D02*
X190134000Y-63642000D01*
X176134000Y-63642000D02*
X176134000Y-62642000D01*
X177134000Y-49642000D02*
X176134000Y-49642000D01*
X176134000Y-63642000D02*
X177134000Y-63642000D01*
X176134000Y-50642000D02*
X176134000Y-49642000D01*
D11*
X183134000Y-59702000D02*
X183134000Y-59382000D01*
X185804000Y-61342000D02*
X186124000Y-61342000D01*
D10*
%TO.C,SW39*%
X194706000Y-68692000D02*
X194706000Y-69692000D01*
X193706000Y-82692000D02*
X194706000Y-82692000D01*
X194706000Y-68692000D02*
X193706000Y-68692000D01*
X194706000Y-81692000D02*
X194706000Y-82692000D01*
X180706000Y-82692000D02*
X180706000Y-81692000D01*
X181706000Y-68692000D02*
X180706000Y-68692000D01*
X180706000Y-82692000D02*
X181706000Y-82692000D01*
X180706000Y-69692000D02*
X180706000Y-68692000D01*
D11*
X187706000Y-78752000D02*
X187706000Y-78432000D01*
X190376000Y-80392000D02*
X190696000Y-80392000D01*
D10*
%TO.C,SW40*%
X185562000Y-87742000D02*
X185562000Y-88742000D01*
X184562000Y-101742000D02*
X185562000Y-101742000D01*
X185562000Y-87742000D02*
X184562000Y-87742000D01*
X185562000Y-100742000D02*
X185562000Y-101742000D01*
X171562000Y-101742000D02*
X171562000Y-100742000D01*
X172562000Y-87742000D02*
X171562000Y-87742000D01*
X171562000Y-101742000D02*
X172562000Y-101742000D01*
X171562000Y-88742000D02*
X171562000Y-87742000D01*
D11*
X178562000Y-97802000D02*
X178562000Y-97482000D01*
X181232000Y-99442000D02*
X181552000Y-99442000D01*
D10*
%TO.C,SW41*%
X261508000Y-30592000D02*
X261508000Y-31592000D01*
X260508000Y-44592000D02*
X261508000Y-44592000D01*
X261508000Y-30592000D02*
X260508000Y-30592000D01*
X261508000Y-43592000D02*
X261508000Y-44592000D01*
X247508000Y-44592000D02*
X247508000Y-43592000D01*
X248508000Y-30592000D02*
X247508000Y-30592000D01*
X247508000Y-44592000D02*
X248508000Y-44592000D01*
X247508000Y-31592000D02*
X247508000Y-30592000D01*
D11*
X254508000Y-40652000D02*
X254508000Y-40332000D01*
X257178000Y-42292000D02*
X257498000Y-42292000D01*
D10*
%TO.C,SW42*%
X213756000Y-68692000D02*
X213756000Y-69692000D01*
X212756000Y-82692000D02*
X213756000Y-82692000D01*
X213756000Y-68692000D02*
X212756000Y-68692000D01*
X213756000Y-81692000D02*
X213756000Y-82692000D01*
X199756000Y-82692000D02*
X199756000Y-81692000D01*
X200756000Y-68692000D02*
X199756000Y-68692000D01*
X199756000Y-82692000D02*
X200756000Y-82692000D01*
X199756000Y-69692000D02*
X199756000Y-68692000D01*
D11*
X206756000Y-78752000D02*
X206756000Y-78432000D01*
X209426000Y-80392000D02*
X209746000Y-80392000D01*
D10*
%TO.C,SW43*%
X204612000Y-87742000D02*
X204612000Y-88742000D01*
X203612000Y-101742000D02*
X204612000Y-101742000D01*
X204612000Y-87742000D02*
X203612000Y-87742000D01*
X204612000Y-100742000D02*
X204612000Y-101742000D01*
X190612000Y-101742000D02*
X190612000Y-100742000D01*
X191612000Y-87742000D02*
X190612000Y-87742000D01*
X190612000Y-101742000D02*
X191612000Y-101742000D01*
X190612000Y-88742000D02*
X190612000Y-87742000D01*
D11*
X197612000Y-97802000D02*
X197612000Y-97482000D01*
X200282000Y-99442000D02*
X200602000Y-99442000D01*
D10*
%TO.C,SW45*%
X280558000Y-30592000D02*
X280558000Y-31592000D01*
X279558000Y-44592000D02*
X280558000Y-44592000D01*
X280558000Y-30592000D02*
X279558000Y-30592000D01*
X280558000Y-43592000D02*
X280558000Y-44592000D01*
X266558000Y-44592000D02*
X266558000Y-43592000D01*
X267558000Y-30592000D02*
X266558000Y-30592000D01*
X266558000Y-44592000D02*
X267558000Y-44592000D01*
X266558000Y-31592000D02*
X266558000Y-30592000D01*
D11*
X273558000Y-40652000D02*
X273558000Y-40332000D01*
X276228000Y-42292000D02*
X276548000Y-42292000D01*
D10*
%TO.C,SW46*%
X204358000Y-30592000D02*
X204358000Y-31592000D01*
X203358000Y-44592000D02*
X204358000Y-44592000D01*
X204358000Y-30592000D02*
X203358000Y-30592000D01*
X204358000Y-43592000D02*
X204358000Y-44592000D01*
X190358000Y-44592000D02*
X190358000Y-43592000D01*
X191358000Y-30592000D02*
X190358000Y-30592000D01*
X190358000Y-44592000D02*
X191358000Y-44592000D01*
X190358000Y-31592000D02*
X190358000Y-30592000D01*
D11*
X197358000Y-40652000D02*
X197358000Y-40332000D01*
X200028000Y-42292000D02*
X200348000Y-42292000D01*
D10*
%TO.C,SW47*%
X209184000Y-49642000D02*
X209184000Y-50642000D01*
X208184000Y-63642000D02*
X209184000Y-63642000D01*
X209184000Y-49642000D02*
X208184000Y-49642000D01*
X209184000Y-62642000D02*
X209184000Y-63642000D01*
X195184000Y-63642000D02*
X195184000Y-62642000D01*
X196184000Y-49642000D02*
X195184000Y-49642000D01*
X195184000Y-63642000D02*
X196184000Y-63642000D01*
X195184000Y-50642000D02*
X195184000Y-49642000D01*
D11*
X202184000Y-59702000D02*
X202184000Y-59382000D01*
X204854000Y-61342000D02*
X205174000Y-61342000D01*
D10*
%TO.C,SW48*%
X223408000Y-30592000D02*
X223408000Y-31592000D01*
X222408000Y-44592000D02*
X223408000Y-44592000D01*
X223408000Y-30592000D02*
X222408000Y-30592000D01*
X223408000Y-43592000D02*
X223408000Y-44592000D01*
X209408000Y-44592000D02*
X209408000Y-43592000D01*
X210408000Y-30592000D02*
X209408000Y-30592000D01*
X209408000Y-44592000D02*
X210408000Y-44592000D01*
X209408000Y-31592000D02*
X209408000Y-30592000D01*
D11*
X216408000Y-40652000D02*
X216408000Y-40332000D01*
X219078000Y-42292000D02*
X219398000Y-42292000D01*
D10*
%TO.C,SW49*%
X228234000Y-49642000D02*
X228234000Y-50642000D01*
X227234000Y-63642000D02*
X228234000Y-63642000D01*
X228234000Y-49642000D02*
X227234000Y-49642000D01*
X228234000Y-62642000D02*
X228234000Y-63642000D01*
X214234000Y-63642000D02*
X214234000Y-62642000D01*
X215234000Y-49642000D02*
X214234000Y-49642000D01*
X214234000Y-63642000D02*
X215234000Y-63642000D01*
X214234000Y-50642000D02*
X214234000Y-49642000D01*
D11*
X221234000Y-59702000D02*
X221234000Y-59382000D01*
X223904000Y-61342000D02*
X224224000Y-61342000D01*
D10*
%TO.C,SW50*%
X232806000Y-68692000D02*
X232806000Y-69692000D01*
X231806000Y-82692000D02*
X232806000Y-82692000D01*
X232806000Y-68692000D02*
X231806000Y-68692000D01*
X232806000Y-81692000D02*
X232806000Y-82692000D01*
X218806000Y-82692000D02*
X218806000Y-81692000D01*
X219806000Y-68692000D02*
X218806000Y-68692000D01*
X218806000Y-82692000D02*
X219806000Y-82692000D01*
X218806000Y-69692000D02*
X218806000Y-68692000D01*
D11*
X225806000Y-78752000D02*
X225806000Y-78432000D01*
X228476000Y-80392000D02*
X228796000Y-80392000D01*
D10*
%TO.C,SW51*%
X223662000Y-87742000D02*
X223662000Y-88742000D01*
X222662000Y-101742000D02*
X223662000Y-101742000D01*
X223662000Y-87742000D02*
X222662000Y-87742000D01*
X223662000Y-100742000D02*
X223662000Y-101742000D01*
X209662000Y-101742000D02*
X209662000Y-100742000D01*
X210662000Y-87742000D02*
X209662000Y-87742000D01*
X209662000Y-101742000D02*
X210662000Y-101742000D01*
X209662000Y-88742000D02*
X209662000Y-87742000D01*
D11*
X216662000Y-97802000D02*
X216662000Y-97482000D01*
X219332000Y-99442000D02*
X219652000Y-99442000D01*
D10*
%TO.C,SW53*%
X242458000Y-30592000D02*
X242458000Y-31592000D01*
X241458000Y-44592000D02*
X242458000Y-44592000D01*
X242458000Y-30592000D02*
X241458000Y-30592000D01*
X242458000Y-43592000D02*
X242458000Y-44592000D01*
X228458000Y-44592000D02*
X228458000Y-43592000D01*
X229458000Y-30592000D02*
X228458000Y-30592000D01*
X228458000Y-44592000D02*
X229458000Y-44592000D01*
X228458000Y-31592000D02*
X228458000Y-30592000D01*
D11*
X235458000Y-40652000D02*
X235458000Y-40332000D01*
X238128000Y-42292000D02*
X238448000Y-42292000D01*
D10*
%TO.C,SW54*%
X361838000Y-68946000D02*
X361838000Y-69946000D01*
X360838000Y-82946000D02*
X361838000Y-82946000D01*
X361838000Y-68946000D02*
X360838000Y-68946000D01*
X361838000Y-81946000D02*
X361838000Y-82946000D01*
X347838000Y-82946000D02*
X347838000Y-81946000D01*
X348838000Y-68946000D02*
X347838000Y-68946000D01*
X347838000Y-82946000D02*
X348838000Y-82946000D01*
X347838000Y-69946000D02*
X347838000Y-68946000D01*
D11*
X354838000Y-79006000D02*
X354838000Y-78686000D01*
X357508000Y-80646000D02*
X357828000Y-80646000D01*
D10*
%TO.C,SW55*%
X285384000Y-49642000D02*
X285384000Y-50642000D01*
X284384000Y-63642000D02*
X285384000Y-63642000D01*
X285384000Y-49642000D02*
X284384000Y-49642000D01*
X285384000Y-62642000D02*
X285384000Y-63642000D01*
X271384000Y-63642000D02*
X271384000Y-62642000D01*
X272384000Y-49642000D02*
X271384000Y-49642000D01*
X271384000Y-63642000D02*
X272384000Y-63642000D01*
X271384000Y-50642000D02*
X271384000Y-49642000D01*
D11*
X278384000Y-59702000D02*
X278384000Y-59382000D01*
X281054000Y-61342000D02*
X281374000Y-61342000D01*
D10*
%TO.C,SW56*%
X380888000Y-68946000D02*
X380888000Y-69946000D01*
X379888000Y-82946000D02*
X380888000Y-82946000D01*
X380888000Y-68946000D02*
X379888000Y-68946000D01*
X380888000Y-81946000D02*
X380888000Y-82946000D01*
X366888000Y-82946000D02*
X366888000Y-81946000D01*
X367888000Y-68946000D02*
X366888000Y-68946000D01*
X366888000Y-82946000D02*
X367888000Y-82946000D01*
X366888000Y-69946000D02*
X366888000Y-68946000D01*
D11*
X373888000Y-79006000D02*
X373888000Y-78686000D01*
X376558000Y-80646000D02*
X376878000Y-80646000D01*
D10*
%TO.C,SW58*%
X270906000Y-68692000D02*
X270906000Y-69692000D01*
X269906000Y-82692000D02*
X270906000Y-82692000D01*
X270906000Y-68692000D02*
X269906000Y-68692000D01*
X270906000Y-81692000D02*
X270906000Y-82692000D01*
X256906000Y-82692000D02*
X256906000Y-81692000D01*
X257906000Y-68692000D02*
X256906000Y-68692000D01*
X256906000Y-82692000D02*
X257906000Y-82692000D01*
X256906000Y-69692000D02*
X256906000Y-68692000D01*
D11*
X263906000Y-78752000D02*
X263906000Y-78432000D01*
X266576000Y-80392000D02*
X266896000Y-80392000D01*
D10*
%TO.C,SW59*%
X304434000Y-49642000D02*
X304434000Y-50642000D01*
X303434000Y-63642000D02*
X304434000Y-63642000D01*
X304434000Y-49642000D02*
X303434000Y-49642000D01*
X304434000Y-62642000D02*
X304434000Y-63642000D01*
X290434000Y-63642000D02*
X290434000Y-62642000D01*
X291434000Y-49642000D02*
X290434000Y-49642000D01*
X290434000Y-63642000D02*
X291434000Y-63642000D01*
X290434000Y-50642000D02*
X290434000Y-49642000D01*
D11*
X297434000Y-59702000D02*
X297434000Y-59382000D01*
X300104000Y-61342000D02*
X300424000Y-61342000D01*
D10*
%TO.C,SW61*%
X304688000Y-106792000D02*
X304688000Y-107792000D01*
X303688000Y-120792000D02*
X304688000Y-120792000D01*
X304688000Y-106792000D02*
X303688000Y-106792000D01*
X304688000Y-119792000D02*
X304688000Y-120792000D01*
X290688000Y-120792000D02*
X290688000Y-119792000D01*
X291688000Y-106792000D02*
X290688000Y-106792000D01*
X290688000Y-120792000D02*
X291688000Y-120792000D01*
X290688000Y-107792000D02*
X290688000Y-106792000D01*
D11*
X297688000Y-116852000D02*
X297688000Y-116532000D01*
X300358000Y-118492000D02*
X300678000Y-118492000D01*
D10*
%TO.C,SW62*%
X361838000Y-49896000D02*
X361838000Y-50896000D01*
X360838000Y-63896000D02*
X361838000Y-63896000D01*
X361838000Y-49896000D02*
X360838000Y-49896000D01*
X361838000Y-62896000D02*
X361838000Y-63896000D01*
X347838000Y-63896000D02*
X347838000Y-62896000D01*
X348838000Y-49896000D02*
X347838000Y-49896000D01*
X347838000Y-63896000D02*
X348838000Y-63896000D01*
X347838000Y-50896000D02*
X347838000Y-49896000D01*
D11*
X354838000Y-59956000D02*
X354838000Y-59636000D01*
X357508000Y-61596000D02*
X357828000Y-61596000D01*
D10*
%TO.C,SW63*%
X342788000Y-49896000D02*
X342788000Y-50896000D01*
X341788000Y-63896000D02*
X342788000Y-63896000D01*
X342788000Y-49896000D02*
X341788000Y-49896000D01*
X342788000Y-62896000D02*
X342788000Y-63896000D01*
X328788000Y-63896000D02*
X328788000Y-62896000D01*
X329788000Y-49896000D02*
X328788000Y-49896000D01*
X328788000Y-63896000D02*
X329788000Y-63896000D01*
X328788000Y-50896000D02*
X328788000Y-49896000D01*
D11*
X335788000Y-59956000D02*
X335788000Y-59636000D01*
X338458000Y-61596000D02*
X338778000Y-61596000D01*
D10*
%TO.C,SW60*%
X342788000Y-68946000D02*
X342788000Y-69946000D01*
X341788000Y-82946000D02*
X342788000Y-82946000D01*
X342788000Y-68946000D02*
X341788000Y-68946000D01*
X342788000Y-81946000D02*
X342788000Y-82946000D01*
X328788000Y-82946000D02*
X328788000Y-81946000D01*
X329788000Y-68946000D02*
X328788000Y-68946000D01*
X328788000Y-82946000D02*
X329788000Y-82946000D01*
X328788000Y-69946000D02*
X328788000Y-68946000D01*
D11*
X335788000Y-79006000D02*
X335788000Y-78686000D01*
X338458000Y-80646000D02*
X338778000Y-80646000D01*
D13*
%TO.C,WinKey1*%
X81534000Y-107442000D02*
X83312000Y-107442000D01*
X94234000Y-107442000D02*
X94234000Y-109220000D01*
X92456000Y-107442000D02*
X94234000Y-107442000D01*
X94234000Y-120142000D02*
X92456000Y-120142000D01*
X83312000Y-120142000D02*
X81534000Y-120142000D01*
X94234000Y-118364000D02*
X94234000Y-120142000D01*
X81534000Y-120142000D02*
X81534000Y-118364000D01*
X81534000Y-109220000D02*
X81534000Y-107442000D01*
D10*
X80894000Y-120782000D02*
X81894000Y-120782000D01*
X80894000Y-107782000D02*
X80894000Y-106782000D01*
X93894000Y-120782000D02*
X94894000Y-120782000D01*
X94894000Y-119782000D02*
X94894000Y-120782000D01*
X94894000Y-106782000D02*
X93894000Y-106782000D01*
X80894000Y-120782000D02*
X80894000Y-119782000D01*
X81894000Y-106782000D02*
X80894000Y-106782000D01*
X94894000Y-106782000D02*
X94894000Y-107782000D01*
%TO.C,TAB1*%
X54254000Y-49632000D02*
X54254000Y-50632000D01*
X41254000Y-49632000D02*
X40254000Y-49632000D01*
X40254000Y-63632000D02*
X40254000Y-62632000D01*
X54254000Y-49632000D02*
X53254000Y-49632000D01*
X54254000Y-62632000D02*
X54254000Y-63632000D01*
X53254000Y-63632000D02*
X54254000Y-63632000D01*
X40254000Y-50632000D02*
X40254000Y-49632000D01*
X40254000Y-63632000D02*
X41254000Y-63632000D01*
D13*
X40894000Y-52070000D02*
X40894000Y-50292000D01*
X40894000Y-62992000D02*
X40894000Y-61214000D01*
X53594000Y-61214000D02*
X53594000Y-62992000D01*
X42672000Y-62992000D02*
X40894000Y-62992000D01*
X53594000Y-62992000D02*
X51816000Y-62992000D01*
X51816000Y-50292000D02*
X53594000Y-50292000D01*
X53594000Y-50292000D02*
X53594000Y-52070000D01*
X40894000Y-50292000D02*
X42672000Y-50292000D01*
%TO.C,CAPS1*%
X43434000Y-69342000D02*
X45212000Y-69342000D01*
X56134000Y-69342000D02*
X56134000Y-71120000D01*
X54356000Y-69342000D02*
X56134000Y-69342000D01*
X56134000Y-82042000D02*
X54356000Y-82042000D01*
X45212000Y-82042000D02*
X43434000Y-82042000D01*
X56134000Y-80264000D02*
X56134000Y-82042000D01*
X43434000Y-82042000D02*
X43434000Y-80264000D01*
X43434000Y-71120000D02*
X43434000Y-69342000D01*
D10*
X42794000Y-82682000D02*
X43794000Y-82682000D01*
X42794000Y-69682000D02*
X42794000Y-68682000D01*
X55794000Y-82682000D02*
X56794000Y-82682000D01*
X56794000Y-81682000D02*
X56794000Y-82682000D01*
X56794000Y-68682000D02*
X55794000Y-68682000D01*
X42794000Y-82682000D02*
X42794000Y-81682000D01*
X43794000Y-68682000D02*
X42794000Y-68682000D01*
X56794000Y-68682000D02*
X56794000Y-69682000D01*
%TO.C,Backspace1*%
X301904000Y-30582000D02*
X301904000Y-31582000D01*
X288904000Y-30582000D02*
X287904000Y-30582000D01*
X287904000Y-44582000D02*
X287904000Y-43582000D01*
X301904000Y-30582000D02*
X300904000Y-30582000D01*
X301904000Y-43582000D02*
X301904000Y-44582000D01*
X300904000Y-44582000D02*
X301904000Y-44582000D01*
X287904000Y-31582000D02*
X287904000Y-30582000D01*
X287904000Y-44582000D02*
X288904000Y-44582000D01*
D13*
X288544000Y-33020000D02*
X288544000Y-31242000D01*
X288544000Y-43942000D02*
X288544000Y-42164000D01*
X301244000Y-42164000D02*
X301244000Y-43942000D01*
X290322000Y-43942000D02*
X288544000Y-43942000D01*
X301244000Y-43942000D02*
X299466000Y-43942000D01*
X299466000Y-31242000D02*
X301244000Y-31242000D01*
X301244000Y-31242000D02*
X301244000Y-33020000D01*
X288544000Y-31242000D02*
X290322000Y-31242000D01*
D10*
%TO.C,RIGHT-SHIFT1*%
X292760000Y-87732000D02*
X292760000Y-88732000D01*
X279760000Y-87732000D02*
X278760000Y-87732000D01*
X278760000Y-101732000D02*
X278760000Y-100732000D01*
X292760000Y-87732000D02*
X291760000Y-87732000D01*
X292760000Y-100732000D02*
X292760000Y-101732000D01*
X291760000Y-101732000D02*
X292760000Y-101732000D01*
X278760000Y-88732000D02*
X278760000Y-87732000D01*
X278760000Y-101732000D02*
X279760000Y-101732000D01*
D13*
X279400000Y-90170000D02*
X279400000Y-88392000D01*
X279400000Y-101092000D02*
X279400000Y-99314000D01*
X292100000Y-99314000D02*
X292100000Y-101092000D01*
X281178000Y-101092000D02*
X279400000Y-101092000D01*
X292100000Y-101092000D02*
X290322000Y-101092000D01*
X290322000Y-88392000D02*
X292100000Y-88392000D01*
X292100000Y-88392000D02*
X292100000Y-90170000D01*
X279400000Y-88392000D02*
X281178000Y-88392000D01*
D10*
%TO.C,LEFT-SPACE1*%
X149758000Y-106782000D02*
X149758000Y-107782000D01*
X136758000Y-106782000D02*
X135758000Y-106782000D01*
X135758000Y-120782000D02*
X135758000Y-119782000D01*
X149758000Y-106782000D02*
X148758000Y-106782000D01*
X149758000Y-119782000D02*
X149758000Y-120782000D01*
X148758000Y-120782000D02*
X149758000Y-120782000D01*
X135758000Y-107782000D02*
X135758000Y-106782000D01*
X135758000Y-120782000D02*
X136758000Y-120782000D01*
D13*
X136398000Y-109220000D02*
X136398000Y-107442000D01*
X136398000Y-120142000D02*
X136398000Y-118364000D01*
X149098000Y-118364000D02*
X149098000Y-120142000D01*
X138176000Y-120142000D02*
X136398000Y-120142000D01*
X149098000Y-120142000D02*
X147320000Y-120142000D01*
X147320000Y-107442000D02*
X149098000Y-107442000D01*
X149098000Y-107442000D02*
X149098000Y-109220000D01*
X136398000Y-107442000D02*
X138176000Y-107442000D01*
D10*
%TO.C,RIGHT-SPACE1*%
X230784000Y-106782000D02*
X230784000Y-107782000D01*
X217784000Y-106782000D02*
X216784000Y-106782000D01*
X216784000Y-120782000D02*
X216784000Y-119782000D01*
X230784000Y-106782000D02*
X229784000Y-106782000D01*
X230784000Y-119782000D02*
X230784000Y-120782000D01*
X229784000Y-120782000D02*
X230784000Y-120782000D01*
X216784000Y-107782000D02*
X216784000Y-106782000D01*
X216784000Y-120782000D02*
X217784000Y-120782000D01*
D13*
X217424000Y-109220000D02*
X217424000Y-107442000D01*
X217424000Y-120142000D02*
X217424000Y-118364000D01*
X230124000Y-118364000D02*
X230124000Y-120142000D01*
X219202000Y-120142000D02*
X217424000Y-120142000D01*
X230124000Y-120142000D02*
X228346000Y-120142000D01*
X228346000Y-107442000D02*
X230124000Y-107442000D01*
X230124000Y-107442000D02*
X230124000Y-109220000D01*
X217424000Y-107442000D02*
X219202000Y-107442000D01*
D10*
%TO.C,SW64*%
X361838000Y-87996000D02*
X361838000Y-88996000D01*
X360838000Y-101996000D02*
X361838000Y-101996000D01*
X361838000Y-87996000D02*
X360838000Y-87996000D01*
X361838000Y-100996000D02*
X361838000Y-101996000D01*
X347838000Y-101996000D02*
X347838000Y-100996000D01*
X348838000Y-87996000D02*
X347838000Y-87996000D01*
X347838000Y-101996000D02*
X348838000Y-101996000D01*
X347838000Y-88996000D02*
X347838000Y-87996000D01*
D11*
X354838000Y-98056000D02*
X354838000Y-97736000D01*
X357508000Y-99696000D02*
X357828000Y-99696000D01*
D10*
%TO.C,SW65*%
X342788000Y-30846000D02*
X342788000Y-31846000D01*
X341788000Y-44846000D02*
X342788000Y-44846000D01*
X342788000Y-30846000D02*
X341788000Y-30846000D01*
X342788000Y-43846000D02*
X342788000Y-44846000D01*
X328788000Y-44846000D02*
X328788000Y-43846000D01*
X329788000Y-30846000D02*
X328788000Y-30846000D01*
X328788000Y-44846000D02*
X329788000Y-44846000D01*
X328788000Y-31846000D02*
X328788000Y-30846000D01*
D11*
X335788000Y-40906000D02*
X335788000Y-40586000D01*
X338458000Y-42546000D02*
X338778000Y-42546000D01*
D10*
%TO.C,SW66*%
X399938000Y-107046000D02*
X399938000Y-108046000D01*
X398938000Y-121046000D02*
X399938000Y-121046000D01*
X399938000Y-107046000D02*
X398938000Y-107046000D01*
X399938000Y-120046000D02*
X399938000Y-121046000D01*
X385938000Y-121046000D02*
X385938000Y-120046000D01*
X386938000Y-107046000D02*
X385938000Y-107046000D01*
X385938000Y-121046000D02*
X386938000Y-121046000D01*
X385938000Y-108046000D02*
X385938000Y-107046000D01*
D11*
X392938000Y-117106000D02*
X392938000Y-116786000D01*
X395608000Y-118746000D02*
X395928000Y-118746000D01*
D10*
%TO.C,SW67*%
X380888000Y-49896000D02*
X380888000Y-50896000D01*
X379888000Y-63896000D02*
X380888000Y-63896000D01*
X380888000Y-49896000D02*
X379888000Y-49896000D01*
X380888000Y-62896000D02*
X380888000Y-63896000D01*
X366888000Y-63896000D02*
X366888000Y-62896000D01*
X367888000Y-49896000D02*
X366888000Y-49896000D01*
X366888000Y-63896000D02*
X367888000Y-63896000D01*
X366888000Y-50896000D02*
X366888000Y-49896000D01*
D11*
X373888000Y-59956000D02*
X373888000Y-59636000D01*
X376558000Y-61596000D02*
X376878000Y-61596000D01*
D10*
%TO.C,SW68*%
X380888000Y-87996000D02*
X380888000Y-88996000D01*
X379888000Y-101996000D02*
X380888000Y-101996000D01*
X380888000Y-87996000D02*
X379888000Y-87996000D01*
X380888000Y-100996000D02*
X380888000Y-101996000D01*
X366888000Y-101996000D02*
X366888000Y-100996000D01*
X367888000Y-87996000D02*
X366888000Y-87996000D01*
X366888000Y-101996000D02*
X367888000Y-101996000D01*
X366888000Y-88996000D02*
X366888000Y-87996000D01*
D11*
X373888000Y-98056000D02*
X373888000Y-97736000D01*
X376558000Y-99696000D02*
X376878000Y-99696000D01*
D10*
%TO.C,SW69*%
X399938000Y-30846000D02*
X399938000Y-31846000D01*
X398938000Y-44846000D02*
X399938000Y-44846000D01*
X399938000Y-30846000D02*
X398938000Y-30846000D01*
X399938000Y-43846000D02*
X399938000Y-44846000D01*
X385938000Y-44846000D02*
X385938000Y-43846000D01*
X386938000Y-30846000D02*
X385938000Y-30846000D01*
X385938000Y-44846000D02*
X386938000Y-44846000D01*
X385938000Y-31846000D02*
X385938000Y-30846000D01*
D11*
X392938000Y-40906000D02*
X392938000Y-40586000D01*
X395608000Y-42546000D02*
X395928000Y-42546000D01*
D10*
%TO.C,SW70*%
X380888000Y-30846000D02*
X380888000Y-31846000D01*
X379888000Y-44846000D02*
X380888000Y-44846000D01*
X380888000Y-30846000D02*
X379888000Y-30846000D01*
X380888000Y-43846000D02*
X380888000Y-44846000D01*
X366888000Y-44846000D02*
X366888000Y-43846000D01*
X367888000Y-30846000D02*
X366888000Y-30846000D01*
X366888000Y-44846000D02*
X367888000Y-44846000D01*
X366888000Y-31846000D02*
X366888000Y-30846000D01*
D11*
X373888000Y-40906000D02*
X373888000Y-40586000D01*
X376558000Y-42546000D02*
X376878000Y-42546000D01*
D10*
%TO.C,SW71*%
X380888000Y-107046000D02*
X380888000Y-108046000D01*
X379888000Y-121046000D02*
X380888000Y-121046000D01*
X380888000Y-107046000D02*
X379888000Y-107046000D01*
X380888000Y-120046000D02*
X380888000Y-121046000D01*
X366888000Y-121046000D02*
X366888000Y-120046000D01*
X367888000Y-107046000D02*
X366888000Y-107046000D01*
X366888000Y-121046000D02*
X367888000Y-121046000D01*
X366888000Y-108046000D02*
X366888000Y-107046000D01*
D11*
X373888000Y-117106000D02*
X373888000Y-116786000D01*
X376558000Y-118746000D02*
X376878000Y-118746000D01*
D10*
%TO.C,SW72*%
X361838000Y-107046000D02*
X361838000Y-108046000D01*
X360838000Y-121046000D02*
X361838000Y-121046000D01*
X361838000Y-107046000D02*
X360838000Y-107046000D01*
X361838000Y-120046000D02*
X361838000Y-121046000D01*
X347838000Y-121046000D02*
X347838000Y-120046000D01*
X348838000Y-107046000D02*
X347838000Y-107046000D01*
X347838000Y-121046000D02*
X348838000Y-121046000D01*
X347838000Y-108046000D02*
X347838000Y-107046000D01*
D11*
X354838000Y-117106000D02*
X354838000Y-116786000D01*
X357508000Y-118746000D02*
X357828000Y-118746000D01*
D10*
%TO.C,SW73*%
X342788000Y-107046000D02*
X342788000Y-108046000D01*
X341788000Y-121046000D02*
X342788000Y-121046000D01*
X342788000Y-107046000D02*
X341788000Y-107046000D01*
X342788000Y-120046000D02*
X342788000Y-121046000D01*
X328788000Y-121046000D02*
X328788000Y-120046000D01*
X329788000Y-107046000D02*
X328788000Y-107046000D01*
X328788000Y-121046000D02*
X329788000Y-121046000D01*
X328788000Y-108046000D02*
X328788000Y-107046000D01*
D11*
X335788000Y-117106000D02*
X335788000Y-116786000D01*
X338458000Y-118746000D02*
X338778000Y-118746000D01*
D10*
%TO.C,S2*%
X399938000Y-87996000D02*
X399938000Y-88996000D01*
X398938000Y-101996000D02*
X399938000Y-101996000D01*
X399938000Y-87996000D02*
X398938000Y-87996000D01*
X399938000Y-100996000D02*
X399938000Y-101996000D01*
X385938000Y-101996000D02*
X385938000Y-100996000D01*
X386938000Y-87996000D02*
X385938000Y-87996000D01*
X385938000Y-101996000D02*
X386938000Y-101996000D01*
X385938000Y-88996000D02*
X385938000Y-87996000D01*
D11*
X392938000Y-98056000D02*
X392938000Y-97736000D01*
X395608000Y-99696000D02*
X395928000Y-99696000D01*
D10*
%TO.C,S1*%
X361838000Y-30846000D02*
X361838000Y-31846000D01*
X360838000Y-44846000D02*
X361838000Y-44846000D01*
X361838000Y-30846000D02*
X360838000Y-30846000D01*
X361838000Y-43846000D02*
X361838000Y-44846000D01*
X347838000Y-44846000D02*
X347838000Y-43846000D01*
X348838000Y-30846000D02*
X347838000Y-30846000D01*
X347838000Y-44846000D02*
X348838000Y-44846000D01*
X347838000Y-31846000D02*
X347838000Y-30846000D01*
D11*
X354838000Y-40906000D02*
X354838000Y-40586000D01*
X357508000Y-42546000D02*
X357828000Y-42546000D01*
D10*
%TO.C,ENTER1*%
X297332000Y-68682000D02*
X297332000Y-69682000D01*
X284332000Y-68682000D02*
X283332000Y-68682000D01*
X283332000Y-82682000D02*
X283332000Y-81682000D01*
X297332000Y-68682000D02*
X296332000Y-68682000D01*
X297332000Y-81682000D02*
X297332000Y-82682000D01*
X296332000Y-82682000D02*
X297332000Y-82682000D01*
X283332000Y-69682000D02*
X283332000Y-68682000D01*
X283332000Y-82682000D02*
X284332000Y-82682000D01*
D13*
X283972000Y-71120000D02*
X283972000Y-69342000D01*
X283972000Y-82042000D02*
X283972000Y-80264000D01*
X296672000Y-80264000D02*
X296672000Y-82042000D01*
X285750000Y-82042000D02*
X283972000Y-82042000D01*
X296672000Y-82042000D02*
X294894000Y-82042000D01*
X294894000Y-69342000D02*
X296672000Y-69342000D01*
X296672000Y-69342000D02*
X296672000Y-71120000D01*
X283972000Y-69342000D02*
X285750000Y-69342000D01*
D10*
%TO.C,SW44*%
X264058000Y-106782000D02*
X264058000Y-107782000D01*
X251058000Y-106782000D02*
X250058000Y-106782000D01*
X250058000Y-120782000D02*
X250058000Y-119782000D01*
X264058000Y-106782000D02*
X263058000Y-106782000D01*
X264058000Y-119782000D02*
X264058000Y-120782000D01*
X263058000Y-120782000D02*
X264058000Y-120782000D01*
X250058000Y-107782000D02*
X250058000Y-106782000D01*
X250058000Y-120782000D02*
X251058000Y-120782000D01*
D13*
X250698000Y-109220000D02*
X250698000Y-107442000D01*
X250698000Y-120142000D02*
X250698000Y-118364000D01*
X263398000Y-118364000D02*
X263398000Y-120142000D01*
X252476000Y-120142000D02*
X250698000Y-120142000D01*
X263398000Y-120142000D02*
X261620000Y-120142000D01*
X261620000Y-107442000D02*
X263398000Y-107442000D01*
X263398000Y-107442000D02*
X263398000Y-109220000D01*
X250698000Y-107442000D02*
X252476000Y-107442000D01*
%TO.C,LEFT-SHIFT1*%
X48260000Y-88392000D02*
X50038000Y-88392000D01*
X60960000Y-88392000D02*
X60960000Y-90170000D01*
X59182000Y-88392000D02*
X60960000Y-88392000D01*
X60960000Y-101092000D02*
X59182000Y-101092000D01*
X50038000Y-101092000D02*
X48260000Y-101092000D01*
X60960000Y-99314000D02*
X60960000Y-101092000D01*
X48260000Y-101092000D02*
X48260000Y-99314000D01*
X48260000Y-90170000D02*
X48260000Y-88392000D01*
D10*
X47620000Y-101732000D02*
X48620000Y-101732000D01*
X47620000Y-88732000D02*
X47620000Y-87732000D01*
X60620000Y-101732000D02*
X61620000Y-101732000D01*
X61620000Y-100732000D02*
X61620000Y-101732000D01*
X61620000Y-87732000D02*
X60620000Y-87732000D01*
X47620000Y-101732000D02*
X47620000Y-100732000D01*
X48620000Y-87732000D02*
X47620000Y-87732000D01*
X61620000Y-87732000D02*
X61620000Y-88732000D01*
%TO.C,SW52*%
X285638000Y-106792000D02*
X285638000Y-107792000D01*
X284638000Y-120792000D02*
X285638000Y-120792000D01*
X285638000Y-106792000D02*
X284638000Y-106792000D01*
X285638000Y-119792000D02*
X285638000Y-120792000D01*
X271638000Y-120792000D02*
X271638000Y-119792000D01*
X272638000Y-106792000D02*
X271638000Y-106792000D01*
X271638000Y-120792000D02*
X272638000Y-120792000D01*
X271638000Y-107792000D02*
X271638000Y-106792000D01*
D11*
X278638000Y-116852000D02*
X278638000Y-116532000D01*
X281308000Y-118492000D02*
X281628000Y-118492000D01*
%TO.C,D85*%
X43358000Y-43419000D02*
X43358000Y-40889000D01*
X46568000Y-43449000D02*
X43358000Y-43449000D01*
X46558000Y-40899000D02*
X46558000Y-43439000D01*
X43358000Y-40889000D02*
X46558000Y-40889000D01*
X46958000Y-42289000D02*
X46708000Y-42289000D01*
X44958000Y-40809000D02*
X44958000Y-40369000D01*
X42058000Y-40789000D02*
X47858000Y-40789000D01*
X46978000Y-42289000D02*
X49558000Y-42289000D01*
%TO.C,D90*%
X62408000Y-43421000D02*
X62408000Y-40891000D01*
X65618000Y-43451000D02*
X62408000Y-43451000D01*
X65608000Y-40901000D02*
X65608000Y-43441000D01*
X62408000Y-40891000D02*
X65608000Y-40891000D01*
X66008000Y-42291000D02*
X65758000Y-42291000D01*
X64008000Y-40811000D02*
X64008000Y-40371000D01*
X61108000Y-40791000D02*
X66908000Y-40791000D01*
X66028000Y-42291000D02*
X68608000Y-42291000D01*
%TO.C,D95*%
X81458000Y-43419000D02*
X81458000Y-40889000D01*
X84668000Y-43449000D02*
X81458000Y-43449000D01*
X84658000Y-40899000D02*
X84658000Y-43439000D01*
X81458000Y-40889000D02*
X84658000Y-40889000D01*
X85058000Y-42289000D02*
X84808000Y-42289000D01*
X83058000Y-40809000D02*
X83058000Y-40369000D01*
X80158000Y-40789000D02*
X85958000Y-40789000D01*
X85078000Y-42289000D02*
X87658000Y-42289000D01*
%TO.C,D100*%
X100508000Y-43445000D02*
X100508000Y-40915000D01*
X103718000Y-43475000D02*
X100508000Y-43475000D01*
X103708000Y-40925000D02*
X103708000Y-43465000D01*
X100508000Y-40915000D02*
X103708000Y-40915000D01*
X104108000Y-42315000D02*
X103858000Y-42315000D01*
X102108000Y-40835000D02*
X102108000Y-40395000D01*
X99208000Y-40815000D02*
X105008000Y-40815000D01*
X104128000Y-42315000D02*
X106708000Y-42315000D01*
%TO.C,D104*%
X119558000Y-43421000D02*
X119558000Y-40891000D01*
X122768000Y-43451000D02*
X119558000Y-43451000D01*
X122758000Y-40901000D02*
X122758000Y-43441000D01*
X119558000Y-40891000D02*
X122758000Y-40891000D01*
X123158000Y-42291000D02*
X122908000Y-42291000D01*
X121158000Y-40811000D02*
X121158000Y-40371000D01*
X118258000Y-40791000D02*
X124058000Y-40791000D01*
X123178000Y-42291000D02*
X125758000Y-42291000D01*
%TO.C,D108*%
X138608000Y-43396000D02*
X138608000Y-40866000D01*
X141818000Y-43426000D02*
X138608000Y-43426000D01*
X141808000Y-40876000D02*
X141808000Y-43416000D01*
X138608000Y-40866000D02*
X141808000Y-40866000D01*
X142208000Y-42266000D02*
X141958000Y-42266000D01*
X140208000Y-40786000D02*
X140208000Y-40346000D01*
X137308000Y-40766000D02*
X143108000Y-40766000D01*
X142228000Y-42266000D02*
X144808000Y-42266000D01*
%TO.C,D112*%
X157683000Y-43421000D02*
X157683000Y-40891000D01*
X160893000Y-43451000D02*
X157683000Y-43451000D01*
X160883000Y-40901000D02*
X160883000Y-43441000D01*
X157683000Y-40891000D02*
X160883000Y-40891000D01*
X161283000Y-42291000D02*
X161033000Y-42291000D01*
X159283000Y-40811000D02*
X159283000Y-40371000D01*
X156383000Y-40791000D02*
X162183000Y-40791000D01*
X161303000Y-42291000D02*
X163883000Y-42291000D01*
%TO.C,D116*%
X176708000Y-43421000D02*
X176708000Y-40891000D01*
X179918000Y-43451000D02*
X176708000Y-43451000D01*
X179908000Y-40901000D02*
X179908000Y-43441000D01*
X176708000Y-40891000D02*
X179908000Y-40891000D01*
X180308000Y-42291000D02*
X180058000Y-42291000D01*
X178308000Y-40811000D02*
X178308000Y-40371000D01*
X175408000Y-40791000D02*
X181208000Y-40791000D01*
X180328000Y-42291000D02*
X182908000Y-42291000D01*
%TO.C,D120*%
X195733000Y-43421000D02*
X195733000Y-40891000D01*
X198943000Y-43451000D02*
X195733000Y-43451000D01*
X198933000Y-40901000D02*
X198933000Y-43441000D01*
X195733000Y-40891000D02*
X198933000Y-40891000D01*
X199333000Y-42291000D02*
X199083000Y-42291000D01*
X197333000Y-40811000D02*
X197333000Y-40371000D01*
X194433000Y-40791000D02*
X200233000Y-40791000D01*
X199353000Y-42291000D02*
X201933000Y-42291000D01*
%TO.C,D124*%
X214808000Y-43421000D02*
X214808000Y-40891000D01*
X218018000Y-43451000D02*
X214808000Y-43451000D01*
X218008000Y-40901000D02*
X218008000Y-43441000D01*
X214808000Y-40891000D02*
X218008000Y-40891000D01*
X218408000Y-42291000D02*
X218158000Y-42291000D01*
X216408000Y-40811000D02*
X216408000Y-40371000D01*
X213508000Y-40791000D02*
X219308000Y-40791000D01*
X218428000Y-42291000D02*
X221008000Y-42291000D01*
%TO.C,D128*%
X233883000Y-43396000D02*
X233883000Y-40866000D01*
X237093000Y-43426000D02*
X233883000Y-43426000D01*
X237083000Y-40876000D02*
X237083000Y-43416000D01*
X233883000Y-40866000D02*
X237083000Y-40866000D01*
X237483000Y-42266000D02*
X237233000Y-42266000D01*
X235483000Y-40786000D02*
X235483000Y-40346000D01*
X232583000Y-40766000D02*
X238383000Y-40766000D01*
X237503000Y-42266000D02*
X240083000Y-42266000D01*
%TO.C,D132*%
X252908000Y-43421000D02*
X252908000Y-40891000D01*
X256118000Y-43451000D02*
X252908000Y-43451000D01*
X256108000Y-40901000D02*
X256108000Y-43441000D01*
X252908000Y-40891000D02*
X256108000Y-40891000D01*
X256508000Y-42291000D02*
X256258000Y-42291000D01*
X254508000Y-40811000D02*
X254508000Y-40371000D01*
X251608000Y-40791000D02*
X257408000Y-40791000D01*
X256528000Y-42291000D02*
X259108000Y-42291000D01*
%TO.C,D136*%
X271933000Y-43446000D02*
X271933000Y-40916000D01*
X275143000Y-43476000D02*
X271933000Y-43476000D01*
X275133000Y-40926000D02*
X275133000Y-43466000D01*
X271933000Y-40916000D02*
X275133000Y-40916000D01*
X275533000Y-42316000D02*
X275283000Y-42316000D01*
X273533000Y-40836000D02*
X273533000Y-40396000D01*
X270633000Y-40816000D02*
X276433000Y-40816000D01*
X275553000Y-42316000D02*
X278133000Y-42316000D01*
%TO.C,D140*%
X334163000Y-43675000D02*
X334163000Y-41145000D01*
X337373000Y-43705000D02*
X334163000Y-43705000D01*
X337363000Y-41155000D02*
X337363000Y-43695000D01*
X334163000Y-41145000D02*
X337363000Y-41145000D01*
X337763000Y-42545000D02*
X337513000Y-42545000D01*
X335763000Y-41065000D02*
X335763000Y-40625000D01*
X332863000Y-41045000D02*
X338663000Y-41045000D01*
X337783000Y-42545000D02*
X340363000Y-42545000D01*
%TO.C,D144*%
X353238000Y-43675000D02*
X353238000Y-41145000D01*
X356448000Y-43705000D02*
X353238000Y-43705000D01*
X356438000Y-41155000D02*
X356438000Y-43695000D01*
X353238000Y-41145000D02*
X356438000Y-41145000D01*
X356838000Y-42545000D02*
X356588000Y-42545000D01*
X354838000Y-41065000D02*
X354838000Y-40625000D01*
X351938000Y-41045000D02*
X357738000Y-41045000D01*
X356858000Y-42545000D02*
X359438000Y-42545000D01*
%TO.C,D148*%
X372263000Y-43700000D02*
X372263000Y-41170000D01*
X375473000Y-43730000D02*
X372263000Y-43730000D01*
X375463000Y-41180000D02*
X375463000Y-43720000D01*
X372263000Y-41170000D02*
X375463000Y-41170000D01*
X375863000Y-42570000D02*
X375613000Y-42570000D01*
X373863000Y-41090000D02*
X373863000Y-40650000D01*
X370963000Y-41070000D02*
X376763000Y-41070000D01*
X375883000Y-42570000D02*
X378463000Y-42570000D01*
%TO.C,D152*%
X391363000Y-43650000D02*
X391363000Y-41120000D01*
X394573000Y-43680000D02*
X391363000Y-43680000D01*
X394563000Y-41130000D02*
X394563000Y-43670000D01*
X391363000Y-41120000D02*
X394563000Y-41120000D01*
X394963000Y-42520000D02*
X394713000Y-42520000D01*
X392963000Y-41040000D02*
X392963000Y-40600000D01*
X390063000Y-41020000D02*
X395863000Y-41020000D01*
X394983000Y-42520000D02*
X397563000Y-42520000D01*
%TO.C,D156*%
X391363000Y-62700000D02*
X391363000Y-60170000D01*
X394573000Y-62730000D02*
X391363000Y-62730000D01*
X394563000Y-60180000D02*
X394563000Y-62720000D01*
X391363000Y-60170000D02*
X394563000Y-60170000D01*
X394963000Y-61570000D02*
X394713000Y-61570000D01*
X392963000Y-60090000D02*
X392963000Y-59650000D01*
X390063000Y-60070000D02*
X395863000Y-60070000D01*
X394983000Y-61570000D02*
X397563000Y-61570000D01*
%TO.C,D160*%
X372313000Y-62700000D02*
X372313000Y-60170000D01*
X375523000Y-62730000D02*
X372313000Y-62730000D01*
X375513000Y-60180000D02*
X375513000Y-62720000D01*
X372313000Y-60170000D02*
X375513000Y-60170000D01*
X375913000Y-61570000D02*
X375663000Y-61570000D01*
X373913000Y-60090000D02*
X373913000Y-59650000D01*
X371013000Y-60070000D02*
X376813000Y-60070000D01*
X375933000Y-61570000D02*
X378513000Y-61570000D01*
%TO.C,D164*%
X353263000Y-62700000D02*
X353263000Y-60170000D01*
X356473000Y-62730000D02*
X353263000Y-62730000D01*
X356463000Y-60180000D02*
X356463000Y-62720000D01*
X353263000Y-60170000D02*
X356463000Y-60170000D01*
X356863000Y-61570000D02*
X356613000Y-61570000D01*
X354863000Y-60090000D02*
X354863000Y-59650000D01*
X351963000Y-60070000D02*
X357763000Y-60070000D01*
X356883000Y-61570000D02*
X359463000Y-61570000D01*
%TO.C,D168*%
X334188000Y-62725000D02*
X334188000Y-60195000D01*
X337398000Y-62755000D02*
X334188000Y-62755000D01*
X337388000Y-60205000D02*
X337388000Y-62745000D01*
X334188000Y-60195000D02*
X337388000Y-60195000D01*
X337788000Y-61595000D02*
X337538000Y-61595000D01*
X335788000Y-60115000D02*
X335788000Y-59675000D01*
X332888000Y-60095000D02*
X338688000Y-60095000D01*
X337808000Y-61595000D02*
X340388000Y-61595000D01*
%TO.C,D86*%
X295834000Y-62457000D02*
X295834000Y-59927000D01*
X299044000Y-62487000D02*
X295834000Y-62487000D01*
X299034000Y-59937000D02*
X299034000Y-62477000D01*
X295834000Y-59927000D02*
X299034000Y-59927000D01*
X299434000Y-61327000D02*
X299184000Y-61327000D01*
X297434000Y-59847000D02*
X297434000Y-59407000D01*
X294534000Y-59827000D02*
X300334000Y-59827000D01*
X299454000Y-61327000D02*
X302034000Y-61327000D01*
%TO.C,D91*%
X276784000Y-62457000D02*
X276784000Y-59927000D01*
X279994000Y-62487000D02*
X276784000Y-62487000D01*
X279984000Y-59937000D02*
X279984000Y-62477000D01*
X276784000Y-59927000D02*
X279984000Y-59927000D01*
X280384000Y-61327000D02*
X280134000Y-61327000D01*
X278384000Y-59847000D02*
X278384000Y-59407000D01*
X275484000Y-59827000D02*
X281284000Y-59827000D01*
X280404000Y-61327000D02*
X282984000Y-61327000D01*
%TO.C,D96*%
X257734000Y-62432000D02*
X257734000Y-59902000D01*
X260944000Y-62462000D02*
X257734000Y-62462000D01*
X260934000Y-59912000D02*
X260934000Y-62452000D01*
X257734000Y-59902000D02*
X260934000Y-59902000D01*
X261334000Y-61302000D02*
X261084000Y-61302000D01*
X259334000Y-59822000D02*
X259334000Y-59382000D01*
X256434000Y-59802000D02*
X262234000Y-59802000D01*
X261354000Y-61302000D02*
X263934000Y-61302000D01*
%TO.C,D101*%
X238684000Y-62457000D02*
X238684000Y-59927000D01*
X241894000Y-62487000D02*
X238684000Y-62487000D01*
X241884000Y-59937000D02*
X241884000Y-62477000D01*
X238684000Y-59927000D02*
X241884000Y-59927000D01*
X242284000Y-61327000D02*
X242034000Y-61327000D01*
X240284000Y-59847000D02*
X240284000Y-59407000D01*
X237384000Y-59827000D02*
X243184000Y-59827000D01*
X242304000Y-61327000D02*
X244884000Y-61327000D01*
%TO.C,D105*%
X219634000Y-62406000D02*
X219634000Y-59876000D01*
X222844000Y-62436000D02*
X219634000Y-62436000D01*
X222834000Y-59886000D02*
X222834000Y-62426000D01*
X219634000Y-59876000D02*
X222834000Y-59876000D01*
X223234000Y-61276000D02*
X222984000Y-61276000D01*
X221234000Y-59796000D02*
X221234000Y-59356000D01*
X218334000Y-59776000D02*
X224134000Y-59776000D01*
X223254000Y-61276000D02*
X225834000Y-61276000D01*
%TO.C,D109*%
X200609000Y-62381000D02*
X200609000Y-59851000D01*
X203819000Y-62411000D02*
X200609000Y-62411000D01*
X203809000Y-59861000D02*
X203809000Y-62401000D01*
X200609000Y-59851000D02*
X203809000Y-59851000D01*
X204209000Y-61251000D02*
X203959000Y-61251000D01*
X202209000Y-59771000D02*
X202209000Y-59331000D01*
X199309000Y-59751000D02*
X205109000Y-59751000D01*
X204229000Y-61251000D02*
X206809000Y-61251000D01*
%TO.C,D113*%
X181559000Y-62432000D02*
X181559000Y-59902000D01*
X184769000Y-62462000D02*
X181559000Y-62462000D01*
X184759000Y-59912000D02*
X184759000Y-62452000D01*
X181559000Y-59902000D02*
X184759000Y-59902000D01*
X185159000Y-61302000D02*
X184909000Y-61302000D01*
X183159000Y-59822000D02*
X183159000Y-59382000D01*
X180259000Y-59802000D02*
X186059000Y-59802000D01*
X185179000Y-61302000D02*
X187759000Y-61302000D01*
%TO.C,D117*%
X162484000Y-62420000D02*
X162484000Y-59890000D01*
X165694000Y-62450000D02*
X162484000Y-62450000D01*
X165684000Y-59900000D02*
X165684000Y-62440000D01*
X162484000Y-59890000D02*
X165684000Y-59890000D01*
X166084000Y-61290000D02*
X165834000Y-61290000D01*
X164084000Y-59810000D02*
X164084000Y-59370000D01*
X161184000Y-59790000D02*
X166984000Y-59790000D01*
X166104000Y-61290000D02*
X168684000Y-61290000D01*
%TO.C,D121*%
X143434000Y-62432000D02*
X143434000Y-59902000D01*
X146644000Y-62462000D02*
X143434000Y-62462000D01*
X146634000Y-59912000D02*
X146634000Y-62452000D01*
X143434000Y-59902000D02*
X146634000Y-59902000D01*
X147034000Y-61302000D02*
X146784000Y-61302000D01*
X145034000Y-59822000D02*
X145034000Y-59382000D01*
X142134000Y-59802000D02*
X147934000Y-59802000D01*
X147054000Y-61302000D02*
X149634000Y-61302000D01*
%TO.C,D125*%
X124359000Y-62406000D02*
X124359000Y-59876000D01*
X127569000Y-62436000D02*
X124359000Y-62436000D01*
X127559000Y-59886000D02*
X127559000Y-62426000D01*
X124359000Y-59876000D02*
X127559000Y-59876000D01*
X127959000Y-61276000D02*
X127709000Y-61276000D01*
X125959000Y-59796000D02*
X125959000Y-59356000D01*
X123059000Y-59776000D02*
X128859000Y-59776000D01*
X127979000Y-61276000D02*
X130559000Y-61276000D01*
%TO.C,D129*%
X105334000Y-62395000D02*
X105334000Y-59865000D01*
X108544000Y-62425000D02*
X105334000Y-62425000D01*
X108534000Y-59875000D02*
X108534000Y-62415000D01*
X105334000Y-59865000D02*
X108534000Y-59865000D01*
X108934000Y-61265000D02*
X108684000Y-61265000D01*
X106934000Y-59785000D02*
X106934000Y-59345000D01*
X104034000Y-59765000D02*
X109834000Y-59765000D01*
X108954000Y-61265000D02*
X111534000Y-61265000D01*
%TO.C,D133*%
X86284000Y-62446000D02*
X86284000Y-59916000D01*
X89494000Y-62476000D02*
X86284000Y-62476000D01*
X89484000Y-59926000D02*
X89484000Y-62466000D01*
X86284000Y-59916000D02*
X89484000Y-59916000D01*
X89884000Y-61316000D02*
X89634000Y-61316000D01*
X87884000Y-59836000D02*
X87884000Y-59396000D01*
X84984000Y-59816000D02*
X90784000Y-59816000D01*
X89904000Y-61316000D02*
X92484000Y-61316000D01*
%TO.C,D137*%
X67208600Y-62471000D02*
X67208600Y-59941000D01*
X70418600Y-62501000D02*
X67208600Y-62501000D01*
X70408600Y-59951000D02*
X70408600Y-62491000D01*
X67208600Y-59941000D02*
X70408600Y-59941000D01*
X70808600Y-61341000D02*
X70558600Y-61341000D01*
X68808600Y-59861000D02*
X68808600Y-59421000D01*
X65908600Y-59841000D02*
X71708600Y-59841000D01*
X70828600Y-61341000D02*
X73408600Y-61341000D01*
%TO.C,D141*%
X45644000Y-62471000D02*
X45644000Y-59941000D01*
X48854000Y-62501000D02*
X45644000Y-62501000D01*
X48844000Y-59951000D02*
X48844000Y-62491000D01*
X45644000Y-59941000D02*
X48844000Y-59941000D01*
X49244000Y-61341000D02*
X48994000Y-61341000D01*
X47244000Y-59861000D02*
X47244000Y-59421000D01*
X44344000Y-59841000D02*
X50144000Y-59841000D01*
X49264000Y-61341000D02*
X51844000Y-61341000D01*
%TO.C,D145*%
X48057000Y-81267000D02*
X48057000Y-78737000D01*
X51267000Y-81297000D02*
X48057000Y-81297000D01*
X51257000Y-78747000D02*
X51257000Y-81287000D01*
X48057000Y-78737000D02*
X51257000Y-78737000D01*
X51657000Y-80137000D02*
X51407000Y-80137000D01*
X49657000Y-78657000D02*
X49657000Y-78217000D01*
X46757000Y-78637000D02*
X52557000Y-78637000D01*
X51677000Y-80137000D02*
X54257000Y-80137000D01*
%TO.C,D149*%
X72060000Y-81521000D02*
X72060000Y-78991000D01*
X75270000Y-81551000D02*
X72060000Y-81551000D01*
X75260000Y-79001000D02*
X75260000Y-81541000D01*
X72060000Y-78991000D02*
X75260000Y-78991000D01*
X75660000Y-80391000D02*
X75410000Y-80391000D01*
X73660000Y-78911000D02*
X73660000Y-78471000D01*
X70760000Y-78891000D02*
X76560000Y-78891000D01*
X75680000Y-80391000D02*
X78260000Y-80391000D01*
%TO.C,D153*%
X91110000Y-81521000D02*
X91110000Y-78991000D01*
X94320000Y-81551000D02*
X91110000Y-81551000D01*
X94310000Y-79001000D02*
X94310000Y-81541000D01*
X91110000Y-78991000D02*
X94310000Y-78991000D01*
X94710000Y-80391000D02*
X94460000Y-80391000D01*
X92710000Y-78911000D02*
X92710000Y-78471000D01*
X89810000Y-78891000D02*
X95610000Y-78891000D01*
X94730000Y-80391000D02*
X97310000Y-80391000D01*
%TO.C,D157*%
X110135000Y-81496000D02*
X110135000Y-78966000D01*
X113345000Y-81526000D02*
X110135000Y-81526000D01*
X113335000Y-78976000D02*
X113335000Y-81516000D01*
X110135000Y-78966000D02*
X113335000Y-78966000D01*
X113735000Y-80366000D02*
X113485000Y-80366000D01*
X111735000Y-78886000D02*
X111735000Y-78446000D01*
X108835000Y-78866000D02*
X114635000Y-78866000D01*
X113755000Y-80366000D02*
X116335000Y-80366000D01*
%TO.C,D161*%
X129210000Y-81521000D02*
X129210000Y-78991000D01*
X132420000Y-81551000D02*
X129210000Y-81551000D01*
X132410000Y-79001000D02*
X132410000Y-81541000D01*
X129210000Y-78991000D02*
X132410000Y-78991000D01*
X132810000Y-80391000D02*
X132560000Y-80391000D01*
X130810000Y-78911000D02*
X130810000Y-78471000D01*
X127910000Y-78891000D02*
X133710000Y-78891000D01*
X132830000Y-80391000D02*
X135410000Y-80391000D01*
%TO.C,D165*%
X148031000Y-81521000D02*
X148031000Y-78991000D01*
X151241000Y-81551000D02*
X148031000Y-81551000D01*
X151231000Y-79001000D02*
X151231000Y-81541000D01*
X148031000Y-78991000D02*
X151231000Y-78991000D01*
X151631000Y-80391000D02*
X151381000Y-80391000D01*
X149631000Y-78911000D02*
X149631000Y-78471000D01*
X146731000Y-78891000D02*
X152531000Y-78891000D01*
X151651000Y-80391000D02*
X154231000Y-80391000D01*
%TO.C,D87*%
X167081000Y-81546000D02*
X167081000Y-79016000D01*
X170291000Y-81576000D02*
X167081000Y-81576000D01*
X170281000Y-79026000D02*
X170281000Y-81566000D01*
X167081000Y-79016000D02*
X170281000Y-79016000D01*
X170681000Y-80416000D02*
X170431000Y-80416000D01*
X168681000Y-78936000D02*
X168681000Y-78496000D01*
X165781000Y-78916000D02*
X171581000Y-78916000D01*
X170701000Y-80416000D02*
X173281000Y-80416000D01*
%TO.C,D92*%
X186106000Y-81532000D02*
X186106000Y-79002000D01*
X189316000Y-81562000D02*
X186106000Y-81562000D01*
X189306000Y-79012000D02*
X189306000Y-81552000D01*
X186106000Y-79002000D02*
X189306000Y-79002000D01*
X189706000Y-80402000D02*
X189456000Y-80402000D01*
X187706000Y-78922000D02*
X187706000Y-78482000D01*
X184806000Y-78902000D02*
X190606000Y-78902000D01*
X189726000Y-80402000D02*
X192306000Y-80402000D01*
%TO.C,D97*%
X205131000Y-81546000D02*
X205131000Y-79016000D01*
X208341000Y-81576000D02*
X205131000Y-81576000D01*
X208331000Y-79026000D02*
X208331000Y-81566000D01*
X205131000Y-79016000D02*
X208331000Y-79016000D01*
X208731000Y-80416000D02*
X208481000Y-80416000D01*
X206731000Y-78936000D02*
X206731000Y-78496000D01*
X203831000Y-78916000D02*
X209631000Y-78916000D01*
X208751000Y-80416000D02*
X211331000Y-80416000D01*
%TO.C,D102*%
X224231000Y-81496000D02*
X224231000Y-78966000D01*
X227441000Y-81526000D02*
X224231000Y-81526000D01*
X227431000Y-78976000D02*
X227431000Y-81516000D01*
X224231000Y-78966000D02*
X227431000Y-78966000D01*
X227831000Y-80366000D02*
X227581000Y-80366000D01*
X225831000Y-78886000D02*
X225831000Y-78446000D01*
X222931000Y-78866000D02*
X228731000Y-78866000D01*
X227851000Y-80366000D02*
X230431000Y-80366000D01*
%TO.C,D106*%
X243256000Y-81521000D02*
X243256000Y-78991000D01*
X246466000Y-81551000D02*
X243256000Y-81551000D01*
X246456000Y-79001000D02*
X246456000Y-81541000D01*
X243256000Y-78991000D02*
X246456000Y-78991000D01*
X246856000Y-80391000D02*
X246606000Y-80391000D01*
X244856000Y-78911000D02*
X244856000Y-78471000D01*
X241956000Y-78891000D02*
X247756000Y-78891000D01*
X246876000Y-80391000D02*
X249456000Y-80391000D01*
%TO.C,D110*%
X262306000Y-81507000D02*
X262306000Y-78977000D01*
X265516000Y-81537000D02*
X262306000Y-81537000D01*
X265506000Y-78987000D02*
X265506000Y-81527000D01*
X262306000Y-78977000D02*
X265506000Y-78977000D01*
X265906000Y-80377000D02*
X265656000Y-80377000D01*
X263906000Y-78897000D02*
X263906000Y-78457000D01*
X261006000Y-78877000D02*
X266806000Y-78877000D01*
X265926000Y-80377000D02*
X268506000Y-80377000D01*
%TO.C,D114*%
X288773000Y-81939000D02*
X288773000Y-79409000D01*
X291983000Y-81969000D02*
X288773000Y-81969000D01*
X291973000Y-79419000D02*
X291973000Y-81959000D01*
X288773000Y-79409000D02*
X291973000Y-79409000D01*
X292373000Y-80809000D02*
X292123000Y-80809000D01*
X290373000Y-79329000D02*
X290373000Y-78889000D01*
X287473000Y-79309000D02*
X293273000Y-79309000D01*
X292393000Y-80809000D02*
X294973000Y-80809000D01*
%TO.C,D118*%
X334239000Y-81736000D02*
X334239000Y-79206000D01*
X337449000Y-81766000D02*
X334239000Y-81766000D01*
X337439000Y-79216000D02*
X337439000Y-81756000D01*
X334239000Y-79206000D02*
X337439000Y-79206000D01*
X337839000Y-80606000D02*
X337589000Y-80606000D01*
X335839000Y-79126000D02*
X335839000Y-78686000D01*
X332939000Y-79106000D02*
X338739000Y-79106000D01*
X337859000Y-80606000D02*
X340439000Y-80606000D01*
%TO.C,D122*%
X353263000Y-81786000D02*
X353263000Y-79256000D01*
X356473000Y-81816000D02*
X353263000Y-81816000D01*
X356463000Y-79266000D02*
X356463000Y-81806000D01*
X353263000Y-79256000D02*
X356463000Y-79256000D01*
X356863000Y-80656000D02*
X356613000Y-80656000D01*
X354863000Y-79176000D02*
X354863000Y-78736000D01*
X351963000Y-79156000D02*
X357763000Y-79156000D01*
X356883000Y-80656000D02*
X359463000Y-80656000D01*
%TO.C,D126*%
X372288000Y-81761000D02*
X372288000Y-79231000D01*
X375498000Y-81791000D02*
X372288000Y-81791000D01*
X375488000Y-79241000D02*
X375488000Y-81781000D01*
X372288000Y-79231000D02*
X375488000Y-79231000D01*
X375888000Y-80631000D02*
X375638000Y-80631000D01*
X373888000Y-79151000D02*
X373888000Y-78711000D01*
X370988000Y-79131000D02*
X376788000Y-79131000D01*
X375908000Y-80631000D02*
X378488000Y-80631000D01*
%TO.C,D130*%
X391287000Y-81750000D02*
X391287000Y-79220000D01*
X394497000Y-81780000D02*
X391287000Y-81780000D01*
X394487000Y-79230000D02*
X394487000Y-81770000D01*
X391287000Y-79220000D02*
X394487000Y-79220000D01*
X394887000Y-80620000D02*
X394637000Y-80620000D01*
X392887000Y-79140000D02*
X392887000Y-78700000D01*
X389987000Y-79120000D02*
X395787000Y-79120000D01*
X394907000Y-80620000D02*
X397487000Y-80620000D01*
%TO.C,D134*%
X391287000Y-100786000D02*
X391287000Y-98256000D01*
X394497000Y-100816000D02*
X391287000Y-100816000D01*
X394487000Y-98266000D02*
X394487000Y-100806000D01*
X391287000Y-98256000D02*
X394487000Y-98256000D01*
X394887000Y-99656000D02*
X394637000Y-99656000D01*
X392887000Y-98176000D02*
X392887000Y-97736000D01*
X389987000Y-98156000D02*
X395787000Y-98156000D01*
X394907000Y-99656000D02*
X397487000Y-99656000D01*
%TO.C,D138*%
X372288000Y-100836000D02*
X372288000Y-98306000D01*
X375498000Y-100866000D02*
X372288000Y-100866000D01*
X375488000Y-98316000D02*
X375488000Y-100856000D01*
X372288000Y-98306000D02*
X375488000Y-98306000D01*
X375888000Y-99706000D02*
X375638000Y-99706000D01*
X373888000Y-98226000D02*
X373888000Y-97786000D01*
X370988000Y-98206000D02*
X376788000Y-98206000D01*
X375908000Y-99706000D02*
X378488000Y-99706000D01*
%TO.C,D142*%
X353238000Y-100760000D02*
X353238000Y-98230000D01*
X356448000Y-100790000D02*
X353238000Y-100790000D01*
X356438000Y-98240000D02*
X356438000Y-100780000D01*
X353238000Y-98230000D02*
X356438000Y-98230000D01*
X356838000Y-99630000D02*
X356588000Y-99630000D01*
X354838000Y-98150000D02*
X354838000Y-97710000D01*
X351938000Y-98130000D02*
X357738000Y-98130000D01*
X356858000Y-99630000D02*
X359438000Y-99630000D01*
%TO.C,D146*%
X334137000Y-100786000D02*
X334137000Y-98256000D01*
X337347000Y-100816000D02*
X334137000Y-100816000D01*
X337337000Y-98266000D02*
X337337000Y-100806000D01*
X334137000Y-98256000D02*
X337337000Y-98256000D01*
X337737000Y-99656000D02*
X337487000Y-99656000D01*
X335737000Y-98176000D02*
X335737000Y-97736000D01*
X332837000Y-98156000D02*
X338637000Y-98156000D01*
X337757000Y-99656000D02*
X340337000Y-99656000D01*
%TO.C,D150*%
X284023000Y-101206000D02*
X284023000Y-98676000D01*
X287233000Y-101236000D02*
X284023000Y-101236000D01*
X287223000Y-98686000D02*
X287223000Y-101226000D01*
X284023000Y-98676000D02*
X287223000Y-98676000D01*
X287623000Y-100076000D02*
X287373000Y-100076000D01*
X285623000Y-98596000D02*
X285623000Y-98156000D01*
X282723000Y-98576000D02*
X288523000Y-98576000D01*
X287643000Y-100076000D02*
X290223000Y-100076000D01*
%TO.C,D154*%
X253162000Y-100546000D02*
X253162000Y-98016000D01*
X256372000Y-100576000D02*
X253162000Y-100576000D01*
X256362000Y-98026000D02*
X256362000Y-100566000D01*
X253162000Y-98016000D02*
X256362000Y-98016000D01*
X256762000Y-99416000D02*
X256512000Y-99416000D01*
X254762000Y-97936000D02*
X254762000Y-97496000D01*
X251862000Y-97916000D02*
X257662000Y-97916000D01*
X256782000Y-99416000D02*
X259362000Y-99416000D01*
%TO.C,D158*%
X234112000Y-100571000D02*
X234112000Y-98041000D01*
X237322000Y-100601000D02*
X234112000Y-100601000D01*
X237312000Y-98051000D02*
X237312000Y-100591000D01*
X234112000Y-98041000D02*
X237312000Y-98041000D01*
X237712000Y-99441000D02*
X237462000Y-99441000D01*
X235712000Y-97961000D02*
X235712000Y-97521000D01*
X232812000Y-97941000D02*
X238612000Y-97941000D01*
X237732000Y-99441000D02*
X240312000Y-99441000D01*
%TO.C,D162*%
X215037000Y-100571000D02*
X215037000Y-98041000D01*
X218247000Y-100601000D02*
X215037000Y-100601000D01*
X218237000Y-98051000D02*
X218237000Y-100591000D01*
X215037000Y-98041000D02*
X218237000Y-98041000D01*
X218637000Y-99441000D02*
X218387000Y-99441000D01*
X216637000Y-97961000D02*
X216637000Y-97521000D01*
X213737000Y-97941000D02*
X219537000Y-97941000D01*
X218657000Y-99441000D02*
X221237000Y-99441000D01*
%TO.C,D166*%
X196012000Y-100546000D02*
X196012000Y-98016000D01*
X199222000Y-100576000D02*
X196012000Y-100576000D01*
X199212000Y-98026000D02*
X199212000Y-100566000D01*
X196012000Y-98016000D02*
X199212000Y-98016000D01*
X199612000Y-99416000D02*
X199362000Y-99416000D01*
X197612000Y-97936000D02*
X197612000Y-97496000D01*
X194712000Y-97916000D02*
X200512000Y-97916000D01*
X199632000Y-99416000D02*
X202212000Y-99416000D01*
%TO.C,D88*%
X176962000Y-100571000D02*
X176962000Y-98041000D01*
X180172000Y-100601000D02*
X176962000Y-100601000D01*
X180162000Y-98051000D02*
X180162000Y-100591000D01*
X176962000Y-98041000D02*
X180162000Y-98041000D01*
X180562000Y-99441000D02*
X180312000Y-99441000D01*
X178562000Y-97961000D02*
X178562000Y-97521000D01*
X175662000Y-97941000D02*
X181462000Y-97941000D01*
X180582000Y-99441000D02*
X183162000Y-99441000D01*
%TO.C,D93*%
X157887000Y-100571000D02*
X157887000Y-98041000D01*
X161097000Y-100601000D02*
X157887000Y-100601000D01*
X161087000Y-98051000D02*
X161087000Y-100591000D01*
X157887000Y-98041000D02*
X161087000Y-98041000D01*
X161487000Y-99441000D02*
X161237000Y-99441000D01*
X159487000Y-97961000D02*
X159487000Y-97521000D01*
X156587000Y-97941000D02*
X162387000Y-97941000D01*
X161507000Y-99441000D02*
X164087000Y-99441000D01*
%TO.C,D98*%
X138862000Y-100571000D02*
X138862000Y-98041000D01*
X142072000Y-100601000D02*
X138862000Y-100601000D01*
X142062000Y-98051000D02*
X142062000Y-100591000D01*
X138862000Y-98041000D02*
X142062000Y-98041000D01*
X142462000Y-99441000D02*
X142212000Y-99441000D01*
X140462000Y-97961000D02*
X140462000Y-97521000D01*
X137562000Y-97941000D02*
X143362000Y-97941000D01*
X142482000Y-99441000D02*
X145062000Y-99441000D01*
%TO.C,D103*%
X119812000Y-100571000D02*
X119812000Y-98041000D01*
X123022000Y-100601000D02*
X119812000Y-100601000D01*
X123012000Y-98051000D02*
X123012000Y-100591000D01*
X119812000Y-98041000D02*
X123012000Y-98041000D01*
X123412000Y-99441000D02*
X123162000Y-99441000D01*
X121412000Y-97961000D02*
X121412000Y-97521000D01*
X118512000Y-97941000D02*
X124312000Y-97941000D01*
X123432000Y-99441000D02*
X126012000Y-99441000D01*
%TO.C,D107*%
X100762000Y-100546000D02*
X100762000Y-98016000D01*
X103972000Y-100576000D02*
X100762000Y-100576000D01*
X103962000Y-98026000D02*
X103962000Y-100566000D01*
X100762000Y-98016000D02*
X103962000Y-98016000D01*
X104362000Y-99416000D02*
X104112000Y-99416000D01*
X102362000Y-97936000D02*
X102362000Y-97496000D01*
X99462000Y-97916000D02*
X105262000Y-97916000D01*
X104382000Y-99416000D02*
X106962000Y-99416000D01*
%TO.C,D111*%
X81712000Y-100546000D02*
X81712000Y-98016000D01*
X84922000Y-100576000D02*
X81712000Y-100576000D01*
X84912000Y-98026000D02*
X84912000Y-100566000D01*
X81712000Y-98016000D02*
X84912000Y-98016000D01*
X85312000Y-99416000D02*
X85062000Y-99416000D01*
X83312000Y-97936000D02*
X83312000Y-97496000D01*
X80412000Y-97916000D02*
X86212000Y-97916000D01*
X85332000Y-99416000D02*
X87912000Y-99416000D01*
%TO.C,D115*%
X53137000Y-101433000D02*
X53137000Y-98903000D01*
X56347000Y-101463000D02*
X53137000Y-101463000D01*
X56337000Y-98913000D02*
X56337000Y-101453000D01*
X53137000Y-98903000D02*
X56337000Y-98903000D01*
X56737000Y-100303000D02*
X56487000Y-100303000D01*
X54737000Y-98823000D02*
X54737000Y-98383000D01*
X51837000Y-98803000D02*
X57637000Y-98803000D01*
X56757000Y-100303000D02*
X59337000Y-100303000D01*
%TO.C,D119*%
X43358000Y-119658000D02*
X43358000Y-117128000D01*
X46568000Y-119688000D02*
X43358000Y-119688000D01*
X46558000Y-117138000D02*
X46558000Y-119678000D01*
X43358000Y-117128000D02*
X46558000Y-117128000D01*
X46958000Y-118528000D02*
X46708000Y-118528000D01*
X44958000Y-117048000D02*
X44958000Y-116608000D01*
X42058000Y-117028000D02*
X47858000Y-117028000D01*
X46978000Y-118528000D02*
X49558000Y-118528000D01*
%TO.C,D123*%
X62408000Y-119531000D02*
X62408000Y-117001000D01*
X65618000Y-119561000D02*
X62408000Y-119561000D01*
X65608000Y-117011000D02*
X65608000Y-119551000D01*
X62408000Y-117001000D02*
X65608000Y-117001000D01*
X66008000Y-118401000D02*
X65758000Y-118401000D01*
X64008000Y-116921000D02*
X64008000Y-116481000D01*
X61108000Y-116901000D02*
X66908000Y-116901000D01*
X66028000Y-118401000D02*
X68608000Y-118401000D01*
%TO.C,D127*%
X86411000Y-120383000D02*
X86411000Y-117853000D01*
X89621000Y-120413000D02*
X86411000Y-120413000D01*
X89611000Y-117863000D02*
X89611000Y-120403000D01*
X86411000Y-117853000D02*
X89611000Y-117853000D01*
X90011000Y-119253000D02*
X89761000Y-119253000D01*
X88011000Y-117773000D02*
X88011000Y-117333000D01*
X85111000Y-117753000D02*
X90911000Y-117753000D01*
X90031000Y-119253000D02*
X92611000Y-119253000D01*
%TO.C,D131*%
X110160000Y-119632000D02*
X110160000Y-117102000D01*
X113370000Y-119662000D02*
X110160000Y-119662000D01*
X113360000Y-117112000D02*
X113360000Y-119652000D01*
X110160000Y-117102000D02*
X113360000Y-117102000D01*
X113760000Y-118502000D02*
X113510000Y-118502000D01*
X111760000Y-117022000D02*
X111760000Y-116582000D01*
X108860000Y-117002000D02*
X114660000Y-117002000D01*
X113780000Y-118502000D02*
X116360000Y-118502000D01*
%TO.C,D135*%
X141173000Y-120115000D02*
X141173000Y-117585000D01*
X144383000Y-120145000D02*
X141173000Y-120145000D01*
X144373000Y-117595000D02*
X144373000Y-120135000D01*
X141173000Y-117585000D02*
X144373000Y-117585000D01*
X144773000Y-118985000D02*
X144523000Y-118985000D01*
X142773000Y-117505000D02*
X142773000Y-117065000D01*
X139873000Y-117485000D02*
X145673000Y-117485000D01*
X144793000Y-118985000D02*
X147373000Y-118985000D01*
%TO.C,D139*%
X172161000Y-119621000D02*
X172161000Y-117091000D01*
X175371000Y-119651000D02*
X172161000Y-119651000D01*
X175361000Y-117101000D02*
X175361000Y-119641000D01*
X172161000Y-117091000D02*
X175361000Y-117091000D01*
X175761000Y-118491000D02*
X175511000Y-118491000D01*
X173761000Y-117011000D02*
X173761000Y-116571000D01*
X170861000Y-116991000D02*
X176661000Y-116991000D01*
X175781000Y-118491000D02*
X178361000Y-118491000D01*
%TO.C,D143*%
X191186000Y-119582000D02*
X191186000Y-117052000D01*
X194396000Y-119612000D02*
X191186000Y-119612000D01*
X194386000Y-117062000D02*
X194386000Y-119602000D01*
X191186000Y-117052000D02*
X194386000Y-117052000D01*
X194786000Y-118452000D02*
X194536000Y-118452000D01*
X192786000Y-116972000D02*
X192786000Y-116532000D01*
X189886000Y-116952000D02*
X195686000Y-116952000D01*
X194806000Y-118452000D02*
X197386000Y-118452000D01*
%TO.C,D147*%
X222377000Y-120280000D02*
X222377000Y-117750000D01*
X225587000Y-120310000D02*
X222377000Y-120310000D01*
X225577000Y-117760000D02*
X225577000Y-120300000D01*
X222377000Y-117750000D02*
X225577000Y-117750000D01*
X225977000Y-119150000D02*
X225727000Y-119150000D01*
X223977000Y-117670000D02*
X223977000Y-117230000D01*
X221077000Y-117650000D02*
X226877000Y-117650000D01*
X225997000Y-119150000D02*
X228577000Y-119150000D01*
%TO.C,D151*%
X255448000Y-120191000D02*
X255448000Y-117661000D01*
X258658000Y-120221000D02*
X255448000Y-120221000D01*
X258648000Y-117671000D02*
X258648000Y-120211000D01*
X255448000Y-117661000D02*
X258648000Y-117661000D01*
X259048000Y-119061000D02*
X258798000Y-119061000D01*
X257048000Y-117581000D02*
X257048000Y-117141000D01*
X254148000Y-117561000D02*
X259948000Y-117561000D01*
X259068000Y-119061000D02*
X261648000Y-119061000D01*
%TO.C,D155*%
X277038000Y-119621000D02*
X277038000Y-117091000D01*
X280248000Y-119651000D02*
X277038000Y-119651000D01*
X280238000Y-117101000D02*
X280238000Y-119641000D01*
X277038000Y-117091000D02*
X280238000Y-117091000D01*
X280638000Y-118491000D02*
X280388000Y-118491000D01*
X278638000Y-117011000D02*
X278638000Y-116571000D01*
X275738000Y-116991000D02*
X281538000Y-116991000D01*
X280658000Y-118491000D02*
X283238000Y-118491000D01*
%TO.C,D159*%
X296113000Y-119632000D02*
X296113000Y-117102000D01*
X299323000Y-119662000D02*
X296113000Y-119662000D01*
X299313000Y-117112000D02*
X299313000Y-119652000D01*
X296113000Y-117102000D02*
X299313000Y-117102000D01*
X299713000Y-118502000D02*
X299463000Y-118502000D01*
X297713000Y-117022000D02*
X297713000Y-116582000D01*
X294813000Y-117002000D02*
X300613000Y-117002000D01*
X299733000Y-118502000D02*
X302313000Y-118502000D01*
%TO.C,D163*%
X334188000Y-119836000D02*
X334188000Y-117306000D01*
X337398000Y-119866000D02*
X334188000Y-119866000D01*
X337388000Y-117316000D02*
X337388000Y-119856000D01*
X334188000Y-117306000D02*
X337388000Y-117306000D01*
X337788000Y-118706000D02*
X337538000Y-118706000D01*
X335788000Y-117226000D02*
X335788000Y-116786000D01*
X332888000Y-117206000D02*
X338688000Y-117206000D01*
X337808000Y-118706000D02*
X340388000Y-118706000D01*
%TO.C,D167*%
X353238000Y-119836000D02*
X353238000Y-117306000D01*
X356448000Y-119866000D02*
X353238000Y-119866000D01*
X356438000Y-117316000D02*
X356438000Y-119856000D01*
X353238000Y-117306000D02*
X356438000Y-117306000D01*
X356838000Y-118706000D02*
X356588000Y-118706000D01*
X354838000Y-117226000D02*
X354838000Y-116786000D01*
X351938000Y-117206000D02*
X357738000Y-117206000D01*
X356858000Y-118706000D02*
X359438000Y-118706000D01*
%TO.C,D89*%
X372288000Y-119810000D02*
X372288000Y-117280000D01*
X375498000Y-119840000D02*
X372288000Y-119840000D01*
X375488000Y-117290000D02*
X375488000Y-119830000D01*
X372288000Y-117280000D02*
X375488000Y-117280000D01*
X375888000Y-118680000D02*
X375638000Y-118680000D01*
X373888000Y-117200000D02*
X373888000Y-116760000D01*
X370988000Y-117180000D02*
X376788000Y-117180000D01*
X375908000Y-118680000D02*
X378488000Y-118680000D01*
%TO.C,D94*%
X391313000Y-119810000D02*
X391313000Y-117280000D01*
X394523000Y-119840000D02*
X391313000Y-119840000D01*
X394513000Y-117290000D02*
X394513000Y-119830000D01*
X391313000Y-117280000D02*
X394513000Y-117280000D01*
X394913000Y-118680000D02*
X394663000Y-118680000D01*
X392913000Y-117200000D02*
X392913000Y-116760000D01*
X390013000Y-117180000D02*
X395813000Y-117180000D01*
X394933000Y-118680000D02*
X397513000Y-118680000D01*
%TO.C,D99*%
X293548000Y-44132000D02*
X293548000Y-41602000D01*
X296758000Y-44162000D02*
X293548000Y-44162000D01*
X296748000Y-41612000D02*
X296748000Y-44152000D01*
X293548000Y-41602000D02*
X296748000Y-41602000D01*
X297148000Y-43002000D02*
X296898000Y-43002000D01*
X295148000Y-41522000D02*
X295148000Y-41082000D01*
X292248000Y-41502000D02*
X298048000Y-41502000D01*
X297168000Y-43002000D02*
X299748000Y-43002000D01*
%TO.C,J1*%
X318195000Y-122415000D02*
X318195000Y-121592530D01*
X318195000Y-119707470D02*
X318195000Y-118885000D01*
X318195000Y-120977470D02*
X318195000Y-120322530D01*
X310640000Y-122415000D02*
X318195000Y-122415000D01*
X309185000Y-118885000D02*
X318195000Y-118885000D01*
X310640000Y-122415000D02*
X310640000Y-121848471D01*
X310640000Y-120721529D02*
X310640000Y-120578471D01*
X310586529Y-120525000D02*
X310443471Y-120525000D01*
X309316529Y-120525000D02*
X309185000Y-120525000D01*
X309185000Y-120525000D02*
X309185000Y-120322530D01*
X309185000Y-119707470D02*
X309185000Y-118885000D01*
X309880000Y-122415000D02*
X309120000Y-122415000D01*
X309120000Y-122415000D02*
X309120000Y-121285000D01*
%TO.C,U1*%
D10*
X326477380Y-39496904D02*
X327286904Y-39496904D01*
X327382142Y-39449285D01*
X327429761Y-39401666D01*
X327477380Y-39306428D01*
X327477380Y-39115952D01*
X327429761Y-39020714D01*
X327382142Y-38973095D01*
X327286904Y-38925476D01*
X326477380Y-38925476D01*
X327477380Y-37925476D02*
X327477380Y-38496904D01*
X327477380Y-38211190D02*
X326477380Y-38211190D01*
X326620238Y-38306428D01*
X326715476Y-38401666D01*
X326763095Y-38496904D01*
X316038666Y-43841666D02*
X315338666Y-43841666D01*
X315838666Y-43608333D01*
X315338666Y-43375000D01*
X316038666Y-43375000D01*
X315672000Y-43041666D02*
X315672000Y-42808333D01*
X316038666Y-42708333D02*
X316038666Y-43041666D01*
X315338666Y-43041666D01*
X315338666Y-42708333D01*
X315372000Y-42041666D02*
X315338666Y-42108333D01*
X315338666Y-42208333D01*
X315372000Y-42308333D01*
X315438666Y-42375000D01*
X315505333Y-42408333D01*
X315638666Y-42441666D01*
X315738666Y-42441666D01*
X315872000Y-42408333D01*
X315938666Y-42375000D01*
X316005333Y-42308333D01*
X316038666Y-42208333D01*
X316038666Y-42141666D01*
X316005333Y-42041666D01*
X315972000Y-42008333D01*
X315738666Y-42008333D01*
X315738666Y-42141666D01*
X315838666Y-41741666D02*
X315838666Y-41408333D01*
X316038666Y-41808333D02*
X315338666Y-41575000D01*
X316038666Y-41341666D01*
X315338666Y-41175000D02*
X315338666Y-40741666D01*
X315605333Y-40975000D01*
X315605333Y-40875000D01*
X315638666Y-40808333D01*
X315672000Y-40775000D01*
X315738666Y-40741666D01*
X315905333Y-40741666D01*
X315972000Y-40775000D01*
X316005333Y-40808333D01*
X316038666Y-40875000D01*
X316038666Y-41075000D01*
X316005333Y-41141666D01*
X315972000Y-41175000D01*
X315405333Y-40475000D02*
X315372000Y-40441666D01*
X315338666Y-40375000D01*
X315338666Y-40208333D01*
X315372000Y-40141666D01*
X315405333Y-40108333D01*
X315472000Y-40075000D01*
X315538666Y-40075000D01*
X315638666Y-40108333D01*
X316038666Y-40508333D01*
X316038666Y-40075000D01*
X315338666Y-39775000D02*
X315905333Y-39775000D01*
X315972000Y-39741666D01*
X316005333Y-39708333D01*
X316038666Y-39641666D01*
X316038666Y-39508333D01*
X316005333Y-39441666D01*
X315972000Y-39408333D01*
X315905333Y-39375000D01*
X315338666Y-39375000D01*
X315572000Y-38741666D02*
X316038666Y-38741666D01*
X315305333Y-38908333D02*
X315805333Y-39075000D01*
X315805333Y-38641666D01*
%TO.C,WinKey1*%
D14*
X85924571Y-117481047D02*
X86142285Y-117541523D01*
X86505142Y-117541523D01*
X86650285Y-117481047D01*
X86722857Y-117420571D01*
X86795428Y-117299619D01*
X86795428Y-117178666D01*
X86722857Y-117057714D01*
X86650285Y-116997238D01*
X86505142Y-116936761D01*
X86214857Y-116876285D01*
X86069714Y-116815809D01*
X85997142Y-116755333D01*
X85924571Y-116634380D01*
X85924571Y-116513428D01*
X85997142Y-116392476D01*
X86069714Y-116332000D01*
X86214857Y-116271523D01*
X86577714Y-116271523D01*
X86795428Y-116332000D01*
X87303428Y-116271523D02*
X87666285Y-117541523D01*
X87956571Y-116634380D01*
X88246857Y-117541523D01*
X88609714Y-116271523D01*
X89408000Y-117420571D02*
X89480571Y-117481047D01*
X89408000Y-117541523D01*
X89335428Y-117481047D01*
X89408000Y-117420571D01*
X89408000Y-117541523D01*
X89117714Y-116332000D02*
X89262857Y-116271523D01*
X89625714Y-116271523D01*
X89770857Y-116332000D01*
X89843428Y-116452952D01*
X89843428Y-116573904D01*
X89770857Y-116694857D01*
X89698285Y-116755333D01*
X89553142Y-116815809D01*
X89480571Y-116876285D01*
X89408000Y-116997238D01*
X89408000Y-117057714D01*
%TO.C,TAB1*%
X45284571Y-60331047D02*
X45502285Y-60391523D01*
X45865142Y-60391523D01*
X46010285Y-60331047D01*
X46082857Y-60270571D01*
X46155428Y-60149619D01*
X46155428Y-60028666D01*
X46082857Y-59907714D01*
X46010285Y-59847238D01*
X45865142Y-59786761D01*
X45574857Y-59726285D01*
X45429714Y-59665809D01*
X45357142Y-59605333D01*
X45284571Y-59484380D01*
X45284571Y-59363428D01*
X45357142Y-59242476D01*
X45429714Y-59182000D01*
X45574857Y-59121523D01*
X45937714Y-59121523D01*
X46155428Y-59182000D01*
X46663428Y-59121523D02*
X47026285Y-60391523D01*
X47316571Y-59484380D01*
X47606857Y-60391523D01*
X47969714Y-59121523D01*
X48768000Y-60270571D02*
X48840571Y-60331047D01*
X48768000Y-60391523D01*
X48695428Y-60331047D01*
X48768000Y-60270571D01*
X48768000Y-60391523D01*
X48477714Y-59182000D02*
X48622857Y-59121523D01*
X48985714Y-59121523D01*
X49130857Y-59182000D01*
X49203428Y-59302952D01*
X49203428Y-59423904D01*
X49130857Y-59544857D01*
X49058285Y-59605333D01*
X48913142Y-59665809D01*
X48840571Y-59726285D01*
X48768000Y-59847238D01*
X48768000Y-59907714D01*
%TO.C,CAPS1*%
X47824571Y-79381047D02*
X48042285Y-79441523D01*
X48405142Y-79441523D01*
X48550285Y-79381047D01*
X48622857Y-79320571D01*
X48695428Y-79199619D01*
X48695428Y-79078666D01*
X48622857Y-78957714D01*
X48550285Y-78897238D01*
X48405142Y-78836761D01*
X48114857Y-78776285D01*
X47969714Y-78715809D01*
X47897142Y-78655333D01*
X47824571Y-78534380D01*
X47824571Y-78413428D01*
X47897142Y-78292476D01*
X47969714Y-78232000D01*
X48114857Y-78171523D01*
X48477714Y-78171523D01*
X48695428Y-78232000D01*
X49203428Y-78171523D02*
X49566285Y-79441523D01*
X49856571Y-78534380D01*
X50146857Y-79441523D01*
X50509714Y-78171523D01*
X51308000Y-79320571D02*
X51380571Y-79381047D01*
X51308000Y-79441523D01*
X51235428Y-79381047D01*
X51308000Y-79320571D01*
X51308000Y-79441523D01*
X51017714Y-78232000D02*
X51162857Y-78171523D01*
X51525714Y-78171523D01*
X51670857Y-78232000D01*
X51743428Y-78352952D01*
X51743428Y-78473904D01*
X51670857Y-78594857D01*
X51598285Y-78655333D01*
X51453142Y-78715809D01*
X51380571Y-78776285D01*
X51308000Y-78897238D01*
X51308000Y-78957714D01*
%TO.C,Backspace1*%
X292934571Y-41281047D02*
X293152285Y-41341523D01*
X293515142Y-41341523D01*
X293660285Y-41281047D01*
X293732857Y-41220571D01*
X293805428Y-41099619D01*
X293805428Y-40978666D01*
X293732857Y-40857714D01*
X293660285Y-40797238D01*
X293515142Y-40736761D01*
X293224857Y-40676285D01*
X293079714Y-40615809D01*
X293007142Y-40555333D01*
X292934571Y-40434380D01*
X292934571Y-40313428D01*
X293007142Y-40192476D01*
X293079714Y-40132000D01*
X293224857Y-40071523D01*
X293587714Y-40071523D01*
X293805428Y-40132000D01*
X294313428Y-40071523D02*
X294676285Y-41341523D01*
X294966571Y-40434380D01*
X295256857Y-41341523D01*
X295619714Y-40071523D01*
X296418000Y-41220571D02*
X296490571Y-41281047D01*
X296418000Y-41341523D01*
X296345428Y-41281047D01*
X296418000Y-41220571D01*
X296418000Y-41341523D01*
X296127714Y-40132000D02*
X296272857Y-40071523D01*
X296635714Y-40071523D01*
X296780857Y-40132000D01*
X296853428Y-40252952D01*
X296853428Y-40373904D01*
X296780857Y-40494857D01*
X296708285Y-40555333D01*
X296563142Y-40615809D01*
X296490571Y-40676285D01*
X296418000Y-40797238D01*
X296418000Y-40857714D01*
%TO.C,RIGHT-SHIFT1*%
X283790571Y-98431047D02*
X284008285Y-98491523D01*
X284371142Y-98491523D01*
X284516285Y-98431047D01*
X284588857Y-98370571D01*
X284661428Y-98249619D01*
X284661428Y-98128666D01*
X284588857Y-98007714D01*
X284516285Y-97947238D01*
X284371142Y-97886761D01*
X284080857Y-97826285D01*
X283935714Y-97765809D01*
X283863142Y-97705333D01*
X283790571Y-97584380D01*
X283790571Y-97463428D01*
X283863142Y-97342476D01*
X283935714Y-97282000D01*
X284080857Y-97221523D01*
X284443714Y-97221523D01*
X284661428Y-97282000D01*
X285169428Y-97221523D02*
X285532285Y-98491523D01*
X285822571Y-97584380D01*
X286112857Y-98491523D01*
X286475714Y-97221523D01*
X287274000Y-98370571D02*
X287346571Y-98431047D01*
X287274000Y-98491523D01*
X287201428Y-98431047D01*
X287274000Y-98370571D01*
X287274000Y-98491523D01*
X286983714Y-97282000D02*
X287128857Y-97221523D01*
X287491714Y-97221523D01*
X287636857Y-97282000D01*
X287709428Y-97402952D01*
X287709428Y-97523904D01*
X287636857Y-97644857D01*
X287564285Y-97705333D01*
X287419142Y-97765809D01*
X287346571Y-97826285D01*
X287274000Y-97947238D01*
X287274000Y-98007714D01*
%TO.C,LEFT-SPACE1*%
X140788571Y-117481047D02*
X141006285Y-117541523D01*
X141369142Y-117541523D01*
X141514285Y-117481047D01*
X141586857Y-117420571D01*
X141659428Y-117299619D01*
X141659428Y-117178666D01*
X141586857Y-117057714D01*
X141514285Y-116997238D01*
X141369142Y-116936761D01*
X141078857Y-116876285D01*
X140933714Y-116815809D01*
X140861142Y-116755333D01*
X140788571Y-116634380D01*
X140788571Y-116513428D01*
X140861142Y-116392476D01*
X140933714Y-116332000D01*
X141078857Y-116271523D01*
X141441714Y-116271523D01*
X141659428Y-116332000D01*
X142167428Y-116271523D02*
X142530285Y-117541523D01*
X142820571Y-116634380D01*
X143110857Y-117541523D01*
X143473714Y-116271523D01*
X144272000Y-117420571D02*
X144344571Y-117481047D01*
X144272000Y-117541523D01*
X144199428Y-117481047D01*
X144272000Y-117420571D01*
X144272000Y-117541523D01*
X143981714Y-116332000D02*
X144126857Y-116271523D01*
X144489714Y-116271523D01*
X144634857Y-116332000D01*
X144707428Y-116452952D01*
X144707428Y-116573904D01*
X144634857Y-116694857D01*
X144562285Y-116755333D01*
X144417142Y-116815809D01*
X144344571Y-116876285D01*
X144272000Y-116997238D01*
X144272000Y-117057714D01*
%TO.C,RIGHT-SPACE1*%
X221814571Y-117481047D02*
X222032285Y-117541523D01*
X222395142Y-117541523D01*
X222540285Y-117481047D01*
X222612857Y-117420571D01*
X222685428Y-117299619D01*
X222685428Y-117178666D01*
X222612857Y-117057714D01*
X222540285Y-116997238D01*
X222395142Y-116936761D01*
X222104857Y-116876285D01*
X221959714Y-116815809D01*
X221887142Y-116755333D01*
X221814571Y-116634380D01*
X221814571Y-116513428D01*
X221887142Y-116392476D01*
X221959714Y-116332000D01*
X222104857Y-116271523D01*
X222467714Y-116271523D01*
X222685428Y-116332000D01*
X223193428Y-116271523D02*
X223556285Y-117541523D01*
X223846571Y-116634380D01*
X224136857Y-117541523D01*
X224499714Y-116271523D01*
X225298000Y-117420571D02*
X225370571Y-117481047D01*
X225298000Y-117541523D01*
X225225428Y-117481047D01*
X225298000Y-117420571D01*
X225298000Y-117541523D01*
X225007714Y-116332000D02*
X225152857Y-116271523D01*
X225515714Y-116271523D01*
X225660857Y-116332000D01*
X225733428Y-116452952D01*
X225733428Y-116573904D01*
X225660857Y-116694857D01*
X225588285Y-116755333D01*
X225443142Y-116815809D01*
X225370571Y-116876285D01*
X225298000Y-116997238D01*
X225298000Y-117057714D01*
%TO.C,ENTER1*%
X288362571Y-79381047D02*
X288580285Y-79441523D01*
X288943142Y-79441523D01*
X289088285Y-79381047D01*
X289160857Y-79320571D01*
X289233428Y-79199619D01*
X289233428Y-79078666D01*
X289160857Y-78957714D01*
X289088285Y-78897238D01*
X288943142Y-78836761D01*
X288652857Y-78776285D01*
X288507714Y-78715809D01*
X288435142Y-78655333D01*
X288362571Y-78534380D01*
X288362571Y-78413428D01*
X288435142Y-78292476D01*
X288507714Y-78232000D01*
X288652857Y-78171523D01*
X289015714Y-78171523D01*
X289233428Y-78232000D01*
X289741428Y-78171523D02*
X290104285Y-79441523D01*
X290394571Y-78534380D01*
X290684857Y-79441523D01*
X291047714Y-78171523D01*
X291846000Y-79320571D02*
X291918571Y-79381047D01*
X291846000Y-79441523D01*
X291773428Y-79381047D01*
X291846000Y-79320571D01*
X291846000Y-79441523D01*
X291555714Y-78232000D02*
X291700857Y-78171523D01*
X292063714Y-78171523D01*
X292208857Y-78232000D01*
X292281428Y-78352952D01*
X292281428Y-78473904D01*
X292208857Y-78594857D01*
X292136285Y-78655333D01*
X291991142Y-78715809D01*
X291918571Y-78776285D01*
X291846000Y-78897238D01*
X291846000Y-78957714D01*
%TO.C,SW44*%
X255088571Y-117481047D02*
X255306285Y-117541523D01*
X255669142Y-117541523D01*
X255814285Y-117481047D01*
X255886857Y-117420571D01*
X255959428Y-117299619D01*
X255959428Y-117178666D01*
X255886857Y-117057714D01*
X255814285Y-116997238D01*
X255669142Y-116936761D01*
X255378857Y-116876285D01*
X255233714Y-116815809D01*
X255161142Y-116755333D01*
X255088571Y-116634380D01*
X255088571Y-116513428D01*
X255161142Y-116392476D01*
X255233714Y-116332000D01*
X255378857Y-116271523D01*
X255741714Y-116271523D01*
X255959428Y-116332000D01*
X256467428Y-116271523D02*
X256830285Y-117541523D01*
X257120571Y-116634380D01*
X257410857Y-117541523D01*
X257773714Y-116271523D01*
X258572000Y-117420571D02*
X258644571Y-117481047D01*
X258572000Y-117541523D01*
X258499428Y-117481047D01*
X258572000Y-117420571D01*
X258572000Y-117541523D01*
X258281714Y-116332000D02*
X258426857Y-116271523D01*
X258789714Y-116271523D01*
X258934857Y-116332000D01*
X259007428Y-116452952D01*
X259007428Y-116573904D01*
X258934857Y-116694857D01*
X258862285Y-116755333D01*
X258717142Y-116815809D01*
X258644571Y-116876285D01*
X258572000Y-116997238D01*
X258572000Y-117057714D01*
%TO.C,LEFT-SHIFT1*%
X52650571Y-98431047D02*
X52868285Y-98491523D01*
X53231142Y-98491523D01*
X53376285Y-98431047D01*
X53448857Y-98370571D01*
X53521428Y-98249619D01*
X53521428Y-98128666D01*
X53448857Y-98007714D01*
X53376285Y-97947238D01*
X53231142Y-97886761D01*
X52940857Y-97826285D01*
X52795714Y-97765809D01*
X52723142Y-97705333D01*
X52650571Y-97584380D01*
X52650571Y-97463428D01*
X52723142Y-97342476D01*
X52795714Y-97282000D01*
X52940857Y-97221523D01*
X53303714Y-97221523D01*
X53521428Y-97282000D01*
X54029428Y-97221523D02*
X54392285Y-98491523D01*
X54682571Y-97584380D01*
X54972857Y-98491523D01*
X55335714Y-97221523D01*
X56134000Y-98370571D02*
X56206571Y-98431047D01*
X56134000Y-98491523D01*
X56061428Y-98431047D01*
X56134000Y-98370571D01*
X56134000Y-98491523D01*
X55843714Y-97282000D02*
X55988857Y-97221523D01*
X56351714Y-97221523D01*
X56496857Y-97282000D01*
X56569428Y-97402952D01*
X56569428Y-97523904D01*
X56496857Y-97644857D01*
X56424285Y-97705333D01*
X56279142Y-97765809D01*
X56206571Y-97826285D01*
X56134000Y-97947238D01*
X56134000Y-98007714D01*
%TO.C,J1*%
D10*
X307637380Y-120983333D02*
X308351666Y-120983333D01*
X308494523Y-121030952D01*
X308589761Y-121126190D01*
X308637380Y-121269047D01*
X308637380Y-121364285D01*
X308637380Y-119983333D02*
X308637380Y-120554761D01*
X308637380Y-120269047D02*
X307637380Y-120269047D01*
X307780238Y-120364285D01*
X307875476Y-120459523D01*
X307923095Y-120554761D01*
%TD*%
M02*
