%TF.GenerationSoftware,KiCad,Pcbnew,(5.1.9)-1*%
%TF.CreationDate,2021-05-14T10:19:55-07:00*%
%TF.ProjectId,chgray-keyboard,63686772-6179-42d6-9b65-79626f617264,rev?*%
%TF.SameCoordinates,Original*%
%TF.FileFunction,Legend,Top*%
%TF.FilePolarity,Positive*%
%FSLAX46Y46*%
G04 Gerber Fmt 4.6, Leading zero omitted, Abs format (unit mm)*
G04 Created by KiCad (PCBNEW (5.1.9)-1) date 2021-05-14 10:19:55*
%MOMM*%
%LPD*%
G01*
G04 APERTURE LIST*
%ADD10C,0.150000*%
%ADD11C,0.100000*%
%ADD12C,0.120000*%
%ADD13C,0.381000*%
%ADD14C,0.203200*%
G04 APERTURE END LIST*
D10*
X363388571Y-185659542D02*
X361960000Y-185659542D01*
X361960000Y-182659542D01*
X364960000Y-182659542D02*
X365531428Y-182659542D01*
X365817142Y-182802400D01*
X366102857Y-183088114D01*
X366245714Y-183659542D01*
X366245714Y-184659542D01*
X366102857Y-185230971D01*
X365817142Y-185516685D01*
X365531428Y-185659542D01*
X364960000Y-185659542D01*
X364674285Y-185516685D01*
X364388571Y-185230971D01*
X364245714Y-184659542D01*
X364245714Y-183659542D01*
X364388571Y-183088114D01*
X364674285Y-182802400D01*
X364960000Y-182659542D01*
X369102857Y-182802400D02*
X368817142Y-182659542D01*
X368388571Y-182659542D01*
X367960000Y-182802400D01*
X367674285Y-183088114D01*
X367531428Y-183373828D01*
X367388571Y-183945257D01*
X367388571Y-184373828D01*
X367531428Y-184945257D01*
X367674285Y-185230971D01*
X367960000Y-185516685D01*
X368388571Y-185659542D01*
X368674285Y-185659542D01*
X369102857Y-185516685D01*
X369245714Y-185373828D01*
X369245714Y-184373828D01*
X368674285Y-184373828D01*
X371102857Y-182659542D02*
X371388571Y-182659542D01*
X371674285Y-182802400D01*
X371817142Y-182945257D01*
X371960000Y-183230971D01*
X372102857Y-183802400D01*
X372102857Y-184516685D01*
X371960000Y-185088114D01*
X371817142Y-185373828D01*
X371674285Y-185516685D01*
X371388571Y-185659542D01*
X371102857Y-185659542D01*
X370817142Y-185516685D01*
X370674285Y-185373828D01*
X370531428Y-185088114D01*
X370388571Y-184516685D01*
X370388571Y-183802400D01*
X370531428Y-183230971D01*
X370674285Y-182945257D01*
X370817142Y-182802400D01*
X371102857Y-182659542D01*
X373388571Y-185373828D02*
X373531428Y-185516685D01*
X373388571Y-185659542D01*
X373245714Y-185516685D01*
X373388571Y-185373828D01*
X373388571Y-185659542D01*
X374817142Y-185659542D02*
X374817142Y-182659542D01*
X376531428Y-185659542D02*
X375245714Y-183945257D01*
X376531428Y-182659542D02*
X374817142Y-184373828D01*
X378960000Y-185516685D02*
X378674285Y-185659542D01*
X378102857Y-185659542D01*
X377817142Y-185516685D01*
X377674285Y-185230971D01*
X377674285Y-184088114D01*
X377817142Y-183802400D01*
X378102857Y-183659542D01*
X378674285Y-183659542D01*
X378960000Y-183802400D01*
X379102857Y-184088114D01*
X379102857Y-184373828D01*
X377674285Y-184659542D01*
X380102857Y-183659542D02*
X380817142Y-185659542D01*
X381531428Y-183659542D02*
X380817142Y-185659542D01*
X380531428Y-186373828D01*
X380388571Y-186516685D01*
X380102857Y-186659542D01*
X382674285Y-185373828D02*
X382817142Y-185516685D01*
X382674285Y-185659542D01*
X382531428Y-185516685D01*
X382674285Y-185373828D01*
X382674285Y-185659542D01*
X384674285Y-184230971D02*
X384674285Y-185659542D01*
X383674285Y-182659542D02*
X384674285Y-184230971D01*
X385674285Y-182659542D01*
X387817142Y-185516685D02*
X387531428Y-185659542D01*
X386960000Y-185659542D01*
X386674285Y-185516685D01*
X386531428Y-185230971D01*
X386531428Y-184088114D01*
X386674285Y-183802400D01*
X386960000Y-183659542D01*
X387531428Y-183659542D01*
X387817142Y-183802400D01*
X387960000Y-184088114D01*
X387960000Y-184373828D01*
X386531428Y-184659542D01*
X390388571Y-185516685D02*
X390102857Y-185659542D01*
X389531428Y-185659542D01*
X389245714Y-185516685D01*
X389102857Y-185230971D01*
X389102857Y-184088114D01*
X389245714Y-183802400D01*
X389531428Y-183659542D01*
X390102857Y-183659542D01*
X390388571Y-183802400D01*
X390531428Y-184088114D01*
X390531428Y-184373828D01*
X389102857Y-184659542D01*
X391388571Y-183659542D02*
X392531428Y-183659542D01*
X391817142Y-182659542D02*
X391817142Y-185230971D01*
X391960000Y-185516685D01*
X392245714Y-185659542D01*
X392531428Y-185659542D01*
X393388571Y-182945257D02*
X393531428Y-182802400D01*
X393817142Y-182659542D01*
X394531428Y-182659542D01*
X394817142Y-182802400D01*
X394960000Y-182945257D01*
X395102857Y-183230971D01*
X395102857Y-183516685D01*
X394960000Y-183945257D01*
X393245714Y-185659542D01*
X395102857Y-185659542D01*
%TO.C,U1*%
X303530000Y-109220000D02*
X303530000Y-105410000D01*
X303530000Y-105410000D02*
X300990000Y-105410000D01*
X300990000Y-105410000D02*
X300990000Y-109220000D01*
X300990000Y-109220000D02*
X303530000Y-109220000D01*
X308610000Y-109220000D02*
X308610000Y-105410000D01*
X308610000Y-105410000D02*
X306070000Y-105410000D01*
X306070000Y-105410000D02*
X304800000Y-105410000D01*
X304800000Y-105410000D02*
X304800000Y-109220000D01*
X304800000Y-109220000D02*
X308610000Y-109220000D01*
X302260000Y-95250000D02*
X302260000Y-102870000D01*
X302260000Y-102870000D02*
X309880000Y-102870000D01*
X309880000Y-102870000D02*
X309880000Y-95250000D01*
X309880000Y-95250000D02*
X302260000Y-95250000D01*
X302260000Y-88900000D02*
X302260000Y-80010000D01*
X302260000Y-80010000D02*
X309880000Y-80010000D01*
X309880000Y-80010000D02*
X309880000Y-88900000D01*
X309880000Y-88900000D02*
X302260000Y-88900000D01*
X314960000Y-81280000D02*
X314960000Y-111760000D01*
X314960000Y-111760000D02*
X297180000Y-111760000D01*
X297180000Y-111760000D02*
X297180000Y-81280000D01*
X297180000Y-81280000D02*
X314960000Y-81280000D01*
D11*
G36*
X307975000Y-99568000D02*
G01*
X307975000Y-100203000D01*
X307721000Y-100203000D01*
X307721000Y-99822000D01*
X307594000Y-99822000D01*
X307594000Y-100203000D01*
X307340000Y-100203000D01*
X307340000Y-99822000D01*
X307213000Y-99822000D01*
X307213000Y-100203000D01*
X306959000Y-100203000D01*
X306959000Y-99568000D01*
X307975000Y-99568000D01*
G37*
X307975000Y-99568000D02*
X307975000Y-100203000D01*
X307721000Y-100203000D01*
X307721000Y-99822000D01*
X307594000Y-99822000D01*
X307594000Y-100203000D01*
X307340000Y-100203000D01*
X307340000Y-99822000D01*
X307213000Y-99822000D01*
X307213000Y-100203000D01*
X306959000Y-100203000D01*
X306959000Y-99568000D01*
X307975000Y-99568000D01*
G36*
X307975000Y-100330000D02*
G01*
X306959000Y-100330000D01*
X306959000Y-100965000D01*
X307213000Y-101092000D01*
X307213000Y-100584000D01*
X307975000Y-100584000D01*
X307975000Y-100330000D01*
G37*
X307975000Y-100330000D02*
X306959000Y-100330000D01*
X306959000Y-100965000D01*
X307213000Y-101092000D01*
X307213000Y-100584000D01*
X307975000Y-100584000D01*
X307975000Y-100330000D01*
G36*
X306959000Y-99441000D02*
G01*
X307975000Y-99441000D01*
X307975000Y-98425000D01*
X306959000Y-98425000D01*
X306959000Y-98679000D01*
X307721000Y-98679000D01*
X307721000Y-98806000D01*
X306959000Y-98806000D01*
X306959000Y-99060000D01*
X307721000Y-99060000D01*
X307721000Y-99187000D01*
X306959000Y-99187000D01*
X306959000Y-99441000D01*
G37*
X306959000Y-99441000D02*
X307975000Y-99441000D01*
X307975000Y-98425000D01*
X306959000Y-98425000D01*
X306959000Y-98679000D01*
X307721000Y-98679000D01*
X307721000Y-98806000D01*
X306959000Y-98806000D01*
X306959000Y-99060000D01*
X307721000Y-99060000D01*
X307721000Y-99187000D01*
X306959000Y-99187000D01*
X306959000Y-99441000D01*
G36*
X308102000Y-100584000D02*
G01*
X308102000Y-98298000D01*
X306959000Y-98298000D01*
X306959000Y-98044000D01*
X308102000Y-98044000D01*
X308102000Y-97536000D01*
X308356000Y-97663000D01*
X308356000Y-100584000D01*
X308102000Y-100584000D01*
G37*
X308102000Y-100584000D02*
X308102000Y-98298000D01*
X306959000Y-98298000D01*
X306959000Y-98044000D01*
X308102000Y-98044000D01*
X308102000Y-97536000D01*
X308356000Y-97663000D01*
X308356000Y-100584000D01*
X308102000Y-100584000D01*
G36*
X306959000Y-97917000D02*
G01*
X307975000Y-97917000D01*
X307975000Y-97536000D01*
X306959000Y-97155000D01*
X306959000Y-97409000D01*
X307721000Y-97663000D01*
X306959000Y-97663000D01*
X306959000Y-97917000D01*
G37*
X306959000Y-97917000D02*
X307975000Y-97917000D01*
X307975000Y-97536000D01*
X306959000Y-97155000D01*
X306959000Y-97409000D01*
X307721000Y-97663000D01*
X306959000Y-97663000D01*
X306959000Y-97917000D01*
G36*
X306832000Y-97155000D02*
G01*
X306832000Y-100965000D01*
X306578000Y-100838000D01*
X306578000Y-97155000D01*
X306832000Y-97155000D01*
G37*
X306832000Y-97155000D02*
X306832000Y-100965000D01*
X306578000Y-100838000D01*
X306578000Y-97155000D01*
X306832000Y-97155000D01*
D10*
%TO.C,SW1*%
X389143000Y-107681000D02*
X389143000Y-108681000D01*
X388143000Y-121681000D02*
X389143000Y-121681000D01*
X389143000Y-107681000D02*
X388143000Y-107681000D01*
X389143000Y-120681000D02*
X389143000Y-121681000D01*
X375143000Y-121681000D02*
X375143000Y-120681000D01*
X376143000Y-107681000D02*
X375143000Y-107681000D01*
X375143000Y-121681000D02*
X376143000Y-121681000D01*
X375143000Y-108681000D02*
X375143000Y-107681000D01*
D12*
X382143000Y-117741000D02*
X382143000Y-117421000D01*
X384813000Y-119381000D02*
X385133000Y-119381000D01*
D10*
%TO.C,SW2*%
X41163000Y-164577000D02*
X41163000Y-165577000D01*
X40163000Y-178577000D02*
X41163000Y-178577000D01*
X41163000Y-164577000D02*
X40163000Y-164577000D01*
X41163000Y-177577000D02*
X41163000Y-178577000D01*
X27163000Y-178577000D02*
X27163000Y-177577000D01*
X28163000Y-164577000D02*
X27163000Y-164577000D01*
X27163000Y-178577000D02*
X28163000Y-178577000D01*
X27163000Y-165577000D02*
X27163000Y-164577000D01*
D12*
X34163000Y-174637000D02*
X34163000Y-174317000D01*
X36833000Y-176277000D02*
X37153000Y-176277000D01*
D10*
%TO.C,SW3*%
X231917000Y-145527000D02*
X231917000Y-146527000D01*
X230917000Y-159527000D02*
X231917000Y-159527000D01*
X231917000Y-145527000D02*
X230917000Y-145527000D01*
X231917000Y-158527000D02*
X231917000Y-159527000D01*
X217917000Y-159527000D02*
X217917000Y-158527000D01*
X218917000Y-145527000D02*
X217917000Y-145527000D01*
X217917000Y-159527000D02*
X218917000Y-159527000D01*
X217917000Y-146527000D02*
X217917000Y-145527000D01*
D12*
X224917000Y-155587000D02*
X224917000Y-155267000D01*
X227587000Y-157227000D02*
X227907000Y-157227000D01*
D10*
%TO.C,SW4*%
X41163000Y-88377000D02*
X41163000Y-89377000D01*
X40163000Y-102377000D02*
X41163000Y-102377000D01*
X41163000Y-88377000D02*
X40163000Y-88377000D01*
X41163000Y-101377000D02*
X41163000Y-102377000D01*
X27163000Y-102377000D02*
X27163000Y-101377000D01*
X28163000Y-88377000D02*
X27163000Y-88377000D01*
X27163000Y-102377000D02*
X28163000Y-102377000D01*
X27163000Y-89377000D02*
X27163000Y-88377000D01*
D12*
X34163000Y-98437000D02*
X34163000Y-98117000D01*
X36833000Y-100077000D02*
X37153000Y-100077000D01*
D10*
%TO.C,SW5*%
X60213000Y-88377000D02*
X60213000Y-89377000D01*
X59213000Y-102377000D02*
X60213000Y-102377000D01*
X60213000Y-88377000D02*
X59213000Y-88377000D01*
X60213000Y-101377000D02*
X60213000Y-102377000D01*
X46213000Y-102377000D02*
X46213000Y-101377000D01*
X47213000Y-88377000D02*
X46213000Y-88377000D01*
X46213000Y-102377000D02*
X47213000Y-102377000D01*
X46213000Y-89377000D02*
X46213000Y-88377000D01*
D12*
X53213000Y-98437000D02*
X53213000Y-98117000D01*
X55883000Y-100077000D02*
X56203000Y-100077000D01*
D10*
%TO.C,SW6*%
X65039000Y-107427000D02*
X65039000Y-108427000D01*
X64039000Y-121427000D02*
X65039000Y-121427000D01*
X65039000Y-107427000D02*
X64039000Y-107427000D01*
X65039000Y-120427000D02*
X65039000Y-121427000D01*
X51039000Y-121427000D02*
X51039000Y-120427000D01*
X52039000Y-107427000D02*
X51039000Y-107427000D01*
X51039000Y-121427000D02*
X52039000Y-121427000D01*
X51039000Y-108427000D02*
X51039000Y-107427000D01*
D12*
X58039000Y-117487000D02*
X58039000Y-117167000D01*
X60709000Y-119127000D02*
X61029000Y-119127000D01*
D10*
%TO.C,SW7*%
X69865000Y-126477000D02*
X69865000Y-127477000D01*
X68865000Y-140477000D02*
X69865000Y-140477000D01*
X69865000Y-126477000D02*
X68865000Y-126477000D01*
X69865000Y-139477000D02*
X69865000Y-140477000D01*
X55865000Y-140477000D02*
X55865000Y-139477000D01*
X56865000Y-126477000D02*
X55865000Y-126477000D01*
X55865000Y-140477000D02*
X56865000Y-140477000D01*
X55865000Y-127477000D02*
X55865000Y-126477000D01*
D12*
X62865000Y-136537000D02*
X62865000Y-136217000D01*
X65535000Y-138177000D02*
X65855000Y-138177000D01*
D10*
%TO.C,SW8*%
X60213000Y-164577000D02*
X60213000Y-165577000D01*
X59213000Y-178577000D02*
X60213000Y-178577000D01*
X60213000Y-164577000D02*
X59213000Y-164577000D01*
X60213000Y-177577000D02*
X60213000Y-178577000D01*
X46213000Y-178577000D02*
X46213000Y-177577000D01*
X47213000Y-164577000D02*
X46213000Y-164577000D01*
X46213000Y-178577000D02*
X47213000Y-178577000D01*
X46213000Y-165577000D02*
X46213000Y-164577000D01*
D12*
X53213000Y-174637000D02*
X53213000Y-174317000D01*
X55883000Y-176277000D02*
X56203000Y-176277000D01*
D10*
%TO.C,SW9*%
X331993000Y-145781000D02*
X331993000Y-146781000D01*
X330993000Y-159781000D02*
X331993000Y-159781000D01*
X331993000Y-145781000D02*
X330993000Y-145781000D01*
X331993000Y-158781000D02*
X331993000Y-159781000D01*
X317993000Y-159781000D02*
X317993000Y-158781000D01*
X318993000Y-145781000D02*
X317993000Y-145781000D01*
X317993000Y-159781000D02*
X318993000Y-159781000D01*
X317993000Y-146781000D02*
X317993000Y-145781000D01*
D12*
X324993000Y-155841000D02*
X324993000Y-155521000D01*
X327663000Y-157481000D02*
X327983000Y-157481000D01*
D10*
%TO.C,SW10*%
X88915000Y-126477000D02*
X88915000Y-127477000D01*
X87915000Y-140477000D02*
X88915000Y-140477000D01*
X88915000Y-126477000D02*
X87915000Y-126477000D01*
X88915000Y-139477000D02*
X88915000Y-140477000D01*
X74915000Y-140477000D02*
X74915000Y-139477000D01*
X75915000Y-126477000D02*
X74915000Y-126477000D01*
X74915000Y-140477000D02*
X75915000Y-140477000D01*
X74915000Y-127477000D02*
X74915000Y-126477000D01*
D12*
X81915000Y-136537000D02*
X81915000Y-136217000D01*
X84585000Y-138177000D02*
X84905000Y-138177000D01*
D10*
%TO.C,SW11*%
X79517000Y-145527000D02*
X79517000Y-146527000D01*
X78517000Y-159527000D02*
X79517000Y-159527000D01*
X79517000Y-145527000D02*
X78517000Y-145527000D01*
X79517000Y-158527000D02*
X79517000Y-159527000D01*
X65517000Y-159527000D02*
X65517000Y-158527000D01*
X66517000Y-145527000D02*
X65517000Y-145527000D01*
X65517000Y-159527000D02*
X66517000Y-159527000D01*
X65517000Y-146527000D02*
X65517000Y-145527000D01*
D12*
X72517000Y-155587000D02*
X72517000Y-155267000D01*
X75187000Y-157227000D02*
X75507000Y-157227000D01*
D10*
%TO.C,SW12*%
X389143000Y-126731000D02*
X389143000Y-127731000D01*
X388143000Y-140731000D02*
X389143000Y-140731000D01*
X389143000Y-126731000D02*
X388143000Y-126731000D01*
X389143000Y-139731000D02*
X389143000Y-140731000D01*
X375143000Y-140731000D02*
X375143000Y-139731000D01*
X376143000Y-126731000D02*
X375143000Y-126731000D01*
X375143000Y-140731000D02*
X376143000Y-140731000D01*
X375143000Y-127731000D02*
X375143000Y-126731000D01*
D12*
X382143000Y-136791000D02*
X382143000Y-136471000D01*
X384813000Y-138431000D02*
X385133000Y-138431000D01*
D10*
%TO.C,SW13*%
X79263000Y-88377000D02*
X79263000Y-89377000D01*
X78263000Y-102377000D02*
X79263000Y-102377000D01*
X79263000Y-88377000D02*
X78263000Y-88377000D01*
X79263000Y-101377000D02*
X79263000Y-102377000D01*
X65263000Y-102377000D02*
X65263000Y-101377000D01*
X66263000Y-88377000D02*
X65263000Y-88377000D01*
X65263000Y-102377000D02*
X66263000Y-102377000D01*
X65263000Y-89377000D02*
X65263000Y-88377000D01*
D12*
X72263000Y-98437000D02*
X72263000Y-98117000D01*
X74933000Y-100077000D02*
X75253000Y-100077000D01*
D10*
%TO.C,SW14*%
X84089000Y-107427000D02*
X84089000Y-108427000D01*
X83089000Y-121427000D02*
X84089000Y-121427000D01*
X84089000Y-107427000D02*
X83089000Y-107427000D01*
X84089000Y-120427000D02*
X84089000Y-121427000D01*
X70089000Y-121427000D02*
X70089000Y-120427000D01*
X71089000Y-107427000D02*
X70089000Y-107427000D01*
X70089000Y-121427000D02*
X71089000Y-121427000D01*
X70089000Y-108427000D02*
X70089000Y-107427000D01*
D12*
X77089000Y-117487000D02*
X77089000Y-117167000D01*
X79759000Y-119127000D02*
X80079000Y-119127000D01*
D10*
%TO.C,SW15*%
X98313000Y-88377000D02*
X98313000Y-89377000D01*
X97313000Y-102377000D02*
X98313000Y-102377000D01*
X98313000Y-88377000D02*
X97313000Y-88377000D01*
X98313000Y-101377000D02*
X98313000Y-102377000D01*
X84313000Y-102377000D02*
X84313000Y-101377000D01*
X85313000Y-88377000D02*
X84313000Y-88377000D01*
X84313000Y-102377000D02*
X85313000Y-102377000D01*
X84313000Y-89377000D02*
X84313000Y-88377000D01*
D12*
X91313000Y-98437000D02*
X91313000Y-98117000D01*
X93983000Y-100077000D02*
X94303000Y-100077000D01*
D10*
%TO.C,SW16*%
X103139000Y-107427000D02*
X103139000Y-108427000D01*
X102139000Y-121427000D02*
X103139000Y-121427000D01*
X103139000Y-107427000D02*
X102139000Y-107427000D01*
X103139000Y-120427000D02*
X103139000Y-121427000D01*
X89139000Y-121427000D02*
X89139000Y-120427000D01*
X90139000Y-107427000D02*
X89139000Y-107427000D01*
X89139000Y-121427000D02*
X90139000Y-121427000D01*
X89139000Y-108427000D02*
X89139000Y-107427000D01*
D12*
X96139000Y-117487000D02*
X96139000Y-117167000D01*
X98809000Y-119127000D02*
X99129000Y-119127000D01*
D10*
%TO.C,SW17*%
X107965000Y-126477000D02*
X107965000Y-127477000D01*
X106965000Y-140477000D02*
X107965000Y-140477000D01*
X107965000Y-126477000D02*
X106965000Y-126477000D01*
X107965000Y-139477000D02*
X107965000Y-140477000D01*
X93965000Y-140477000D02*
X93965000Y-139477000D01*
X94965000Y-126477000D02*
X93965000Y-126477000D01*
X93965000Y-140477000D02*
X94965000Y-140477000D01*
X93965000Y-127477000D02*
X93965000Y-126477000D01*
D12*
X100965000Y-136537000D02*
X100965000Y-136217000D01*
X103635000Y-138177000D02*
X103955000Y-138177000D01*
D10*
%TO.C,SW18*%
X98567000Y-145527000D02*
X98567000Y-146527000D01*
X97567000Y-159527000D02*
X98567000Y-159527000D01*
X98567000Y-145527000D02*
X97567000Y-145527000D01*
X98567000Y-158527000D02*
X98567000Y-159527000D01*
X84567000Y-159527000D02*
X84567000Y-158527000D01*
X85567000Y-145527000D02*
X84567000Y-145527000D01*
X84567000Y-159527000D02*
X85567000Y-159527000D01*
X84567000Y-146527000D02*
X84567000Y-145527000D01*
D12*
X91567000Y-155587000D02*
X91567000Y-155267000D01*
X94237000Y-157227000D02*
X94557000Y-157227000D01*
D10*
%TO.C,SW19*%
X107965000Y-164577000D02*
X107965000Y-165577000D01*
X106965000Y-178577000D02*
X107965000Y-178577000D01*
X107965000Y-164577000D02*
X106965000Y-164577000D01*
X107965000Y-177577000D02*
X107965000Y-178577000D01*
X93965000Y-178577000D02*
X93965000Y-177577000D01*
X94965000Y-164577000D02*
X93965000Y-164577000D01*
X93965000Y-178577000D02*
X94965000Y-178577000D01*
X93965000Y-165577000D02*
X93965000Y-164577000D01*
D12*
X100965000Y-174637000D02*
X100965000Y-174317000D01*
X103635000Y-176277000D02*
X103955000Y-176277000D01*
D10*
%TO.C,SW20*%
X236489000Y-107427000D02*
X236489000Y-108427000D01*
X235489000Y-121427000D02*
X236489000Y-121427000D01*
X236489000Y-107427000D02*
X235489000Y-107427000D01*
X236489000Y-120427000D02*
X236489000Y-121427000D01*
X222489000Y-121427000D02*
X222489000Y-120427000D01*
X223489000Y-107427000D02*
X222489000Y-107427000D01*
X222489000Y-121427000D02*
X223489000Y-121427000D01*
X222489000Y-108427000D02*
X222489000Y-107427000D01*
D12*
X229489000Y-117487000D02*
X229489000Y-117167000D01*
X232159000Y-119127000D02*
X232479000Y-119127000D01*
D10*
%TO.C,SW21*%
X127015000Y-126477000D02*
X127015000Y-127477000D01*
X126015000Y-140477000D02*
X127015000Y-140477000D01*
X127015000Y-126477000D02*
X126015000Y-126477000D01*
X127015000Y-139477000D02*
X127015000Y-140477000D01*
X113015000Y-140477000D02*
X113015000Y-139477000D01*
X114015000Y-126477000D02*
X113015000Y-126477000D01*
X113015000Y-140477000D02*
X114015000Y-140477000D01*
X113015000Y-127477000D02*
X113015000Y-126477000D01*
D12*
X120015000Y-136537000D02*
X120015000Y-136217000D01*
X122685000Y-138177000D02*
X123005000Y-138177000D01*
D10*
%TO.C,SW22*%
X117617000Y-145527000D02*
X117617000Y-146527000D01*
X116617000Y-159527000D02*
X117617000Y-159527000D01*
X117617000Y-145527000D02*
X116617000Y-145527000D01*
X117617000Y-158527000D02*
X117617000Y-159527000D01*
X103617000Y-159527000D02*
X103617000Y-158527000D01*
X104617000Y-145527000D02*
X103617000Y-145527000D01*
X103617000Y-159527000D02*
X104617000Y-159527000D01*
X103617000Y-146527000D02*
X103617000Y-145527000D01*
D12*
X110617000Y-155587000D02*
X110617000Y-155267000D01*
X113287000Y-157227000D02*
X113607000Y-157227000D01*
D10*
%TO.C,SW23*%
X255539000Y-107427000D02*
X255539000Y-108427000D01*
X254539000Y-121427000D02*
X255539000Y-121427000D01*
X255539000Y-107427000D02*
X254539000Y-107427000D01*
X255539000Y-120427000D02*
X255539000Y-121427000D01*
X241539000Y-121427000D02*
X241539000Y-120427000D01*
X242539000Y-107427000D02*
X241539000Y-107427000D01*
X241539000Y-121427000D02*
X242539000Y-121427000D01*
X241539000Y-108427000D02*
X241539000Y-107427000D01*
D12*
X248539000Y-117487000D02*
X248539000Y-117167000D01*
X251209000Y-119127000D02*
X251529000Y-119127000D01*
D10*
%TO.C,SW24*%
X117363000Y-88377000D02*
X117363000Y-89377000D01*
X116363000Y-102377000D02*
X117363000Y-102377000D01*
X117363000Y-88377000D02*
X116363000Y-88377000D01*
X117363000Y-101377000D02*
X117363000Y-102377000D01*
X103363000Y-102377000D02*
X103363000Y-101377000D01*
X104363000Y-88377000D02*
X103363000Y-88377000D01*
X103363000Y-102377000D02*
X104363000Y-102377000D01*
X103363000Y-89377000D02*
X103363000Y-88377000D01*
D12*
X110363000Y-98437000D02*
X110363000Y-98117000D01*
X113033000Y-100077000D02*
X113353000Y-100077000D01*
D10*
%TO.C,SW25*%
X122189000Y-107427000D02*
X122189000Y-108427000D01*
X121189000Y-121427000D02*
X122189000Y-121427000D01*
X122189000Y-107427000D02*
X121189000Y-107427000D01*
X122189000Y-120427000D02*
X122189000Y-121427000D01*
X108189000Y-121427000D02*
X108189000Y-120427000D01*
X109189000Y-107427000D02*
X108189000Y-107427000D01*
X108189000Y-121427000D02*
X109189000Y-121427000D01*
X108189000Y-108427000D02*
X108189000Y-107427000D01*
D12*
X115189000Y-117487000D02*
X115189000Y-117167000D01*
X117859000Y-119127000D02*
X118179000Y-119127000D01*
D10*
%TO.C,SW26*%
X136413000Y-88377000D02*
X136413000Y-89377000D01*
X135413000Y-102377000D02*
X136413000Y-102377000D01*
X136413000Y-88377000D02*
X135413000Y-88377000D01*
X136413000Y-101377000D02*
X136413000Y-102377000D01*
X122413000Y-102377000D02*
X122413000Y-101377000D01*
X123413000Y-88377000D02*
X122413000Y-88377000D01*
X122413000Y-102377000D02*
X123413000Y-102377000D01*
X122413000Y-89377000D02*
X122413000Y-88377000D01*
D12*
X129413000Y-98437000D02*
X129413000Y-98117000D01*
X132083000Y-100077000D02*
X132403000Y-100077000D01*
D10*
%TO.C,SW27*%
X141239000Y-107427000D02*
X141239000Y-108427000D01*
X140239000Y-121427000D02*
X141239000Y-121427000D01*
X141239000Y-107427000D02*
X140239000Y-107427000D01*
X141239000Y-120427000D02*
X141239000Y-121427000D01*
X127239000Y-121427000D02*
X127239000Y-120427000D01*
X128239000Y-107427000D02*
X127239000Y-107427000D01*
X127239000Y-121427000D02*
X128239000Y-121427000D01*
X127239000Y-108427000D02*
X127239000Y-107427000D01*
D12*
X134239000Y-117487000D02*
X134239000Y-117167000D01*
X136909000Y-119127000D02*
X137229000Y-119127000D01*
D10*
%TO.C,SW28*%
X145811000Y-126477000D02*
X145811000Y-127477000D01*
X144811000Y-140477000D02*
X145811000Y-140477000D01*
X145811000Y-126477000D02*
X144811000Y-126477000D01*
X145811000Y-139477000D02*
X145811000Y-140477000D01*
X131811000Y-140477000D02*
X131811000Y-139477000D01*
X132811000Y-126477000D02*
X131811000Y-126477000D01*
X131811000Y-140477000D02*
X132811000Y-140477000D01*
X131811000Y-127477000D02*
X131811000Y-126477000D01*
D12*
X138811000Y-136537000D02*
X138811000Y-136217000D01*
X141481000Y-138177000D02*
X141801000Y-138177000D01*
D10*
%TO.C,SW29*%
X136667000Y-145527000D02*
X136667000Y-146527000D01*
X135667000Y-159527000D02*
X136667000Y-159527000D01*
X136667000Y-145527000D02*
X135667000Y-145527000D01*
X136667000Y-158527000D02*
X136667000Y-159527000D01*
X122667000Y-159527000D02*
X122667000Y-158527000D01*
X123667000Y-145527000D02*
X122667000Y-145527000D01*
X122667000Y-159527000D02*
X123667000Y-159527000D01*
X122667000Y-146527000D02*
X122667000Y-145527000D01*
D12*
X129667000Y-155587000D02*
X129667000Y-155267000D01*
X132337000Y-157227000D02*
X132657000Y-157227000D01*
D10*
%TO.C,SW30*%
X169941000Y-164577000D02*
X169941000Y-165577000D01*
X168941000Y-178577000D02*
X169941000Y-178577000D01*
X169941000Y-164577000D02*
X168941000Y-164577000D01*
X169941000Y-177577000D02*
X169941000Y-178577000D01*
X155941000Y-178577000D02*
X155941000Y-177577000D01*
X156941000Y-164577000D02*
X155941000Y-164577000D01*
X155941000Y-178577000D02*
X156941000Y-178577000D01*
X155941000Y-165577000D02*
X155941000Y-164577000D01*
D12*
X162941000Y-174637000D02*
X162941000Y-174317000D01*
X165611000Y-176277000D02*
X165931000Y-176277000D01*
D10*
%TO.C,SW31*%
X164861000Y-126477000D02*
X164861000Y-127477000D01*
X163861000Y-140477000D02*
X164861000Y-140477000D01*
X164861000Y-126477000D02*
X163861000Y-126477000D01*
X164861000Y-139477000D02*
X164861000Y-140477000D01*
X150861000Y-140477000D02*
X150861000Y-139477000D01*
X151861000Y-126477000D02*
X150861000Y-126477000D01*
X150861000Y-140477000D02*
X151861000Y-140477000D01*
X150861000Y-127477000D02*
X150861000Y-126477000D01*
D12*
X157861000Y-136537000D02*
X157861000Y-136217000D01*
X160531000Y-138177000D02*
X160851000Y-138177000D01*
D10*
%TO.C,SW32*%
X155717000Y-145527000D02*
X155717000Y-146527000D01*
X154717000Y-159527000D02*
X155717000Y-159527000D01*
X155717000Y-145527000D02*
X154717000Y-145527000D01*
X155717000Y-158527000D02*
X155717000Y-159527000D01*
X141717000Y-159527000D02*
X141717000Y-158527000D01*
X142717000Y-145527000D02*
X141717000Y-145527000D01*
X141717000Y-159527000D02*
X142717000Y-159527000D01*
X141717000Y-146527000D02*
X141717000Y-145527000D01*
D12*
X148717000Y-155587000D02*
X148717000Y-155267000D01*
X151387000Y-157227000D02*
X151707000Y-157227000D01*
D10*
%TO.C,SW33*%
X188991000Y-164577000D02*
X188991000Y-165577000D01*
X187991000Y-178577000D02*
X188991000Y-178577000D01*
X188991000Y-164577000D02*
X187991000Y-164577000D01*
X188991000Y-177577000D02*
X188991000Y-178577000D01*
X174991000Y-178577000D02*
X174991000Y-177577000D01*
X175991000Y-164577000D02*
X174991000Y-164577000D01*
X174991000Y-178577000D02*
X175991000Y-178577000D01*
X174991000Y-165577000D02*
X174991000Y-164577000D01*
D12*
X181991000Y-174637000D02*
X181991000Y-174317000D01*
X184661000Y-176277000D02*
X184981000Y-176277000D01*
D10*
%TO.C,SW34*%
X250967000Y-145527000D02*
X250967000Y-146527000D01*
X249967000Y-159527000D02*
X250967000Y-159527000D01*
X250967000Y-145527000D02*
X249967000Y-145527000D01*
X250967000Y-158527000D02*
X250967000Y-159527000D01*
X236967000Y-159527000D02*
X236967000Y-158527000D01*
X237967000Y-145527000D02*
X236967000Y-145527000D01*
X236967000Y-159527000D02*
X237967000Y-159527000D01*
X236967000Y-146527000D02*
X236967000Y-145527000D01*
D12*
X243967000Y-155587000D02*
X243967000Y-155267000D01*
X246637000Y-157227000D02*
X246957000Y-157227000D01*
D10*
%TO.C,SW35*%
X155463000Y-88377000D02*
X155463000Y-89377000D01*
X154463000Y-102377000D02*
X155463000Y-102377000D01*
X155463000Y-88377000D02*
X154463000Y-88377000D01*
X155463000Y-101377000D02*
X155463000Y-102377000D01*
X141463000Y-102377000D02*
X141463000Y-101377000D01*
X142463000Y-88377000D02*
X141463000Y-88377000D01*
X141463000Y-102377000D02*
X142463000Y-102377000D01*
X141463000Y-89377000D02*
X141463000Y-88377000D01*
D12*
X148463000Y-98437000D02*
X148463000Y-98117000D01*
X151133000Y-100077000D02*
X151453000Y-100077000D01*
D10*
%TO.C,SW36*%
X160289000Y-107427000D02*
X160289000Y-108427000D01*
X159289000Y-121427000D02*
X160289000Y-121427000D01*
X160289000Y-107427000D02*
X159289000Y-107427000D01*
X160289000Y-120427000D02*
X160289000Y-121427000D01*
X146289000Y-121427000D02*
X146289000Y-120427000D01*
X147289000Y-107427000D02*
X146289000Y-107427000D01*
X146289000Y-121427000D02*
X147289000Y-121427000D01*
X146289000Y-108427000D02*
X146289000Y-107427000D01*
D12*
X153289000Y-117487000D02*
X153289000Y-117167000D01*
X155959000Y-119127000D02*
X156279000Y-119127000D01*
D10*
%TO.C,SW37*%
X174513000Y-88377000D02*
X174513000Y-89377000D01*
X173513000Y-102377000D02*
X174513000Y-102377000D01*
X174513000Y-88377000D02*
X173513000Y-88377000D01*
X174513000Y-101377000D02*
X174513000Y-102377000D01*
X160513000Y-102377000D02*
X160513000Y-101377000D01*
X161513000Y-88377000D02*
X160513000Y-88377000D01*
X160513000Y-102377000D02*
X161513000Y-102377000D01*
X160513000Y-89377000D02*
X160513000Y-88377000D01*
D12*
X167513000Y-98437000D02*
X167513000Y-98117000D01*
X170183000Y-100077000D02*
X170503000Y-100077000D01*
D10*
%TO.C,SW38*%
X179339000Y-107427000D02*
X179339000Y-108427000D01*
X178339000Y-121427000D02*
X179339000Y-121427000D01*
X179339000Y-107427000D02*
X178339000Y-107427000D01*
X179339000Y-120427000D02*
X179339000Y-121427000D01*
X165339000Y-121427000D02*
X165339000Y-120427000D01*
X166339000Y-107427000D02*
X165339000Y-107427000D01*
X165339000Y-121427000D02*
X166339000Y-121427000D01*
X165339000Y-108427000D02*
X165339000Y-107427000D01*
D12*
X172339000Y-117487000D02*
X172339000Y-117167000D01*
X175009000Y-119127000D02*
X175329000Y-119127000D01*
D10*
%TO.C,SW39*%
X183911000Y-126477000D02*
X183911000Y-127477000D01*
X182911000Y-140477000D02*
X183911000Y-140477000D01*
X183911000Y-126477000D02*
X182911000Y-126477000D01*
X183911000Y-139477000D02*
X183911000Y-140477000D01*
X169911000Y-140477000D02*
X169911000Y-139477000D01*
X170911000Y-126477000D02*
X169911000Y-126477000D01*
X169911000Y-140477000D02*
X170911000Y-140477000D01*
X169911000Y-127477000D02*
X169911000Y-126477000D01*
D12*
X176911000Y-136537000D02*
X176911000Y-136217000D01*
X179581000Y-138177000D02*
X179901000Y-138177000D01*
D10*
%TO.C,SW40*%
X174767000Y-145527000D02*
X174767000Y-146527000D01*
X173767000Y-159527000D02*
X174767000Y-159527000D01*
X174767000Y-145527000D02*
X173767000Y-145527000D01*
X174767000Y-158527000D02*
X174767000Y-159527000D01*
X160767000Y-159527000D02*
X160767000Y-158527000D01*
X161767000Y-145527000D02*
X160767000Y-145527000D01*
X160767000Y-159527000D02*
X161767000Y-159527000D01*
X160767000Y-146527000D02*
X160767000Y-145527000D01*
D12*
X167767000Y-155587000D02*
X167767000Y-155267000D01*
X170437000Y-157227000D02*
X170757000Y-157227000D01*
D10*
%TO.C,SW41*%
X250713000Y-88377000D02*
X250713000Y-89377000D01*
X249713000Y-102377000D02*
X250713000Y-102377000D01*
X250713000Y-88377000D02*
X249713000Y-88377000D01*
X250713000Y-101377000D02*
X250713000Y-102377000D01*
X236713000Y-102377000D02*
X236713000Y-101377000D01*
X237713000Y-88377000D02*
X236713000Y-88377000D01*
X236713000Y-102377000D02*
X237713000Y-102377000D01*
X236713000Y-89377000D02*
X236713000Y-88377000D01*
D12*
X243713000Y-98437000D02*
X243713000Y-98117000D01*
X246383000Y-100077000D02*
X246703000Y-100077000D01*
D10*
%TO.C,SW42*%
X202961000Y-126477000D02*
X202961000Y-127477000D01*
X201961000Y-140477000D02*
X202961000Y-140477000D01*
X202961000Y-126477000D02*
X201961000Y-126477000D01*
X202961000Y-139477000D02*
X202961000Y-140477000D01*
X188961000Y-140477000D02*
X188961000Y-139477000D01*
X189961000Y-126477000D02*
X188961000Y-126477000D01*
X188961000Y-140477000D02*
X189961000Y-140477000D01*
X188961000Y-127477000D02*
X188961000Y-126477000D01*
D12*
X195961000Y-136537000D02*
X195961000Y-136217000D01*
X198631000Y-138177000D02*
X198951000Y-138177000D01*
D10*
%TO.C,SW43*%
X193817000Y-145527000D02*
X193817000Y-146527000D01*
X192817000Y-159527000D02*
X193817000Y-159527000D01*
X193817000Y-145527000D02*
X192817000Y-145527000D01*
X193817000Y-158527000D02*
X193817000Y-159527000D01*
X179817000Y-159527000D02*
X179817000Y-158527000D01*
X180817000Y-145527000D02*
X179817000Y-145527000D01*
X179817000Y-159527000D02*
X180817000Y-159527000D01*
X179817000Y-146527000D02*
X179817000Y-145527000D01*
D12*
X186817000Y-155587000D02*
X186817000Y-155267000D01*
X189487000Y-157227000D02*
X189807000Y-157227000D01*
D10*
%TO.C,SW45*%
X269763000Y-88377000D02*
X269763000Y-89377000D01*
X268763000Y-102377000D02*
X269763000Y-102377000D01*
X269763000Y-88377000D02*
X268763000Y-88377000D01*
X269763000Y-101377000D02*
X269763000Y-102377000D01*
X255763000Y-102377000D02*
X255763000Y-101377000D01*
X256763000Y-88377000D02*
X255763000Y-88377000D01*
X255763000Y-102377000D02*
X256763000Y-102377000D01*
X255763000Y-89377000D02*
X255763000Y-88377000D01*
D12*
X262763000Y-98437000D02*
X262763000Y-98117000D01*
X265433000Y-100077000D02*
X265753000Y-100077000D01*
D10*
%TO.C,SW46*%
X193563000Y-88377000D02*
X193563000Y-89377000D01*
X192563000Y-102377000D02*
X193563000Y-102377000D01*
X193563000Y-88377000D02*
X192563000Y-88377000D01*
X193563000Y-101377000D02*
X193563000Y-102377000D01*
X179563000Y-102377000D02*
X179563000Y-101377000D01*
X180563000Y-88377000D02*
X179563000Y-88377000D01*
X179563000Y-102377000D02*
X180563000Y-102377000D01*
X179563000Y-89377000D02*
X179563000Y-88377000D01*
D12*
X186563000Y-98437000D02*
X186563000Y-98117000D01*
X189233000Y-100077000D02*
X189553000Y-100077000D01*
D10*
%TO.C,SW47*%
X198389000Y-107427000D02*
X198389000Y-108427000D01*
X197389000Y-121427000D02*
X198389000Y-121427000D01*
X198389000Y-107427000D02*
X197389000Y-107427000D01*
X198389000Y-120427000D02*
X198389000Y-121427000D01*
X184389000Y-121427000D02*
X184389000Y-120427000D01*
X185389000Y-107427000D02*
X184389000Y-107427000D01*
X184389000Y-121427000D02*
X185389000Y-121427000D01*
X184389000Y-108427000D02*
X184389000Y-107427000D01*
D12*
X191389000Y-117487000D02*
X191389000Y-117167000D01*
X194059000Y-119127000D02*
X194379000Y-119127000D01*
D10*
%TO.C,SW48*%
X212613000Y-88377000D02*
X212613000Y-89377000D01*
X211613000Y-102377000D02*
X212613000Y-102377000D01*
X212613000Y-88377000D02*
X211613000Y-88377000D01*
X212613000Y-101377000D02*
X212613000Y-102377000D01*
X198613000Y-102377000D02*
X198613000Y-101377000D01*
X199613000Y-88377000D02*
X198613000Y-88377000D01*
X198613000Y-102377000D02*
X199613000Y-102377000D01*
X198613000Y-89377000D02*
X198613000Y-88377000D01*
D12*
X205613000Y-98437000D02*
X205613000Y-98117000D01*
X208283000Y-100077000D02*
X208603000Y-100077000D01*
D10*
%TO.C,SW49*%
X217439000Y-107427000D02*
X217439000Y-108427000D01*
X216439000Y-121427000D02*
X217439000Y-121427000D01*
X217439000Y-107427000D02*
X216439000Y-107427000D01*
X217439000Y-120427000D02*
X217439000Y-121427000D01*
X203439000Y-121427000D02*
X203439000Y-120427000D01*
X204439000Y-107427000D02*
X203439000Y-107427000D01*
X203439000Y-121427000D02*
X204439000Y-121427000D01*
X203439000Y-108427000D02*
X203439000Y-107427000D01*
D12*
X210439000Y-117487000D02*
X210439000Y-117167000D01*
X213109000Y-119127000D02*
X213429000Y-119127000D01*
D10*
%TO.C,SW50*%
X222011000Y-126477000D02*
X222011000Y-127477000D01*
X221011000Y-140477000D02*
X222011000Y-140477000D01*
X222011000Y-126477000D02*
X221011000Y-126477000D01*
X222011000Y-139477000D02*
X222011000Y-140477000D01*
X208011000Y-140477000D02*
X208011000Y-139477000D01*
X209011000Y-126477000D02*
X208011000Y-126477000D01*
X208011000Y-140477000D02*
X209011000Y-140477000D01*
X208011000Y-127477000D02*
X208011000Y-126477000D01*
D12*
X215011000Y-136537000D02*
X215011000Y-136217000D01*
X217681000Y-138177000D02*
X218001000Y-138177000D01*
D10*
%TO.C,SW51*%
X212867000Y-145527000D02*
X212867000Y-146527000D01*
X211867000Y-159527000D02*
X212867000Y-159527000D01*
X212867000Y-145527000D02*
X211867000Y-145527000D01*
X212867000Y-158527000D02*
X212867000Y-159527000D01*
X198867000Y-159527000D02*
X198867000Y-158527000D01*
X199867000Y-145527000D02*
X198867000Y-145527000D01*
X198867000Y-159527000D02*
X199867000Y-159527000D01*
X198867000Y-146527000D02*
X198867000Y-145527000D01*
D12*
X205867000Y-155587000D02*
X205867000Y-155267000D01*
X208537000Y-157227000D02*
X208857000Y-157227000D01*
D10*
%TO.C,SW53*%
X231663000Y-88377000D02*
X231663000Y-89377000D01*
X230663000Y-102377000D02*
X231663000Y-102377000D01*
X231663000Y-88377000D02*
X230663000Y-88377000D01*
X231663000Y-101377000D02*
X231663000Y-102377000D01*
X217663000Y-102377000D02*
X217663000Y-101377000D01*
X218663000Y-88377000D02*
X217663000Y-88377000D01*
X217663000Y-102377000D02*
X218663000Y-102377000D01*
X217663000Y-89377000D02*
X217663000Y-88377000D01*
D12*
X224663000Y-98437000D02*
X224663000Y-98117000D01*
X227333000Y-100077000D02*
X227653000Y-100077000D01*
D10*
%TO.C,SW54*%
X351043000Y-126731000D02*
X351043000Y-127731000D01*
X350043000Y-140731000D02*
X351043000Y-140731000D01*
X351043000Y-126731000D02*
X350043000Y-126731000D01*
X351043000Y-139731000D02*
X351043000Y-140731000D01*
X337043000Y-140731000D02*
X337043000Y-139731000D01*
X338043000Y-126731000D02*
X337043000Y-126731000D01*
X337043000Y-140731000D02*
X338043000Y-140731000D01*
X337043000Y-127731000D02*
X337043000Y-126731000D01*
D12*
X344043000Y-136791000D02*
X344043000Y-136471000D01*
X346713000Y-138431000D02*
X347033000Y-138431000D01*
D10*
%TO.C,SW55*%
X274589000Y-107427000D02*
X274589000Y-108427000D01*
X273589000Y-121427000D02*
X274589000Y-121427000D01*
X274589000Y-107427000D02*
X273589000Y-107427000D01*
X274589000Y-120427000D02*
X274589000Y-121427000D01*
X260589000Y-121427000D02*
X260589000Y-120427000D01*
X261589000Y-107427000D02*
X260589000Y-107427000D01*
X260589000Y-121427000D02*
X261589000Y-121427000D01*
X260589000Y-108427000D02*
X260589000Y-107427000D01*
D12*
X267589000Y-117487000D02*
X267589000Y-117167000D01*
X270259000Y-119127000D02*
X270579000Y-119127000D01*
D10*
%TO.C,SW56*%
X370093000Y-126731000D02*
X370093000Y-127731000D01*
X369093000Y-140731000D02*
X370093000Y-140731000D01*
X370093000Y-126731000D02*
X369093000Y-126731000D01*
X370093000Y-139731000D02*
X370093000Y-140731000D01*
X356093000Y-140731000D02*
X356093000Y-139731000D01*
X357093000Y-126731000D02*
X356093000Y-126731000D01*
X356093000Y-140731000D02*
X357093000Y-140731000D01*
X356093000Y-127731000D02*
X356093000Y-126731000D01*
D12*
X363093000Y-136791000D02*
X363093000Y-136471000D01*
X365763000Y-138431000D02*
X366083000Y-138431000D01*
D10*
%TO.C,SW57*%
X241061000Y-126477000D02*
X241061000Y-127477000D01*
X240061000Y-140477000D02*
X241061000Y-140477000D01*
X241061000Y-126477000D02*
X240061000Y-126477000D01*
X241061000Y-139477000D02*
X241061000Y-140477000D01*
X227061000Y-140477000D02*
X227061000Y-139477000D01*
X228061000Y-126477000D02*
X227061000Y-126477000D01*
X227061000Y-140477000D02*
X228061000Y-140477000D01*
X227061000Y-127477000D02*
X227061000Y-126477000D01*
D12*
X234061000Y-136537000D02*
X234061000Y-136217000D01*
X236731000Y-138177000D02*
X237051000Y-138177000D01*
D10*
%TO.C,SW58*%
X260111000Y-126477000D02*
X260111000Y-127477000D01*
X259111000Y-140477000D02*
X260111000Y-140477000D01*
X260111000Y-126477000D02*
X259111000Y-126477000D01*
X260111000Y-139477000D02*
X260111000Y-140477000D01*
X246111000Y-140477000D02*
X246111000Y-139477000D01*
X247111000Y-126477000D02*
X246111000Y-126477000D01*
X246111000Y-140477000D02*
X247111000Y-140477000D01*
X246111000Y-127477000D02*
X246111000Y-126477000D01*
D12*
X253111000Y-136537000D02*
X253111000Y-136217000D01*
X255781000Y-138177000D02*
X256101000Y-138177000D01*
D10*
%TO.C,SW59*%
X293639000Y-107427000D02*
X293639000Y-108427000D01*
X292639000Y-121427000D02*
X293639000Y-121427000D01*
X293639000Y-107427000D02*
X292639000Y-107427000D01*
X293639000Y-120427000D02*
X293639000Y-121427000D01*
X279639000Y-121427000D02*
X279639000Y-120427000D01*
X280639000Y-107427000D02*
X279639000Y-107427000D01*
X279639000Y-121427000D02*
X280639000Y-121427000D01*
X279639000Y-108427000D02*
X279639000Y-107427000D01*
D12*
X286639000Y-117487000D02*
X286639000Y-117167000D01*
X289309000Y-119127000D02*
X289629000Y-119127000D01*
D10*
%TO.C,SW61*%
X293893000Y-164577000D02*
X293893000Y-165577000D01*
X292893000Y-178577000D02*
X293893000Y-178577000D01*
X293893000Y-164577000D02*
X292893000Y-164577000D01*
X293893000Y-177577000D02*
X293893000Y-178577000D01*
X279893000Y-178577000D02*
X279893000Y-177577000D01*
X280893000Y-164577000D02*
X279893000Y-164577000D01*
X279893000Y-178577000D02*
X280893000Y-178577000D01*
X279893000Y-165577000D02*
X279893000Y-164577000D01*
D12*
X286893000Y-174637000D02*
X286893000Y-174317000D01*
X289563000Y-176277000D02*
X289883000Y-176277000D01*
D10*
%TO.C,SW62*%
X351043000Y-107681000D02*
X351043000Y-108681000D01*
X350043000Y-121681000D02*
X351043000Y-121681000D01*
X351043000Y-107681000D02*
X350043000Y-107681000D01*
X351043000Y-120681000D02*
X351043000Y-121681000D01*
X337043000Y-121681000D02*
X337043000Y-120681000D01*
X338043000Y-107681000D02*
X337043000Y-107681000D01*
X337043000Y-121681000D02*
X338043000Y-121681000D01*
X337043000Y-108681000D02*
X337043000Y-107681000D01*
D12*
X344043000Y-117741000D02*
X344043000Y-117421000D01*
X346713000Y-119381000D02*
X347033000Y-119381000D01*
D10*
%TO.C,SW63*%
X331993000Y-107681000D02*
X331993000Y-108681000D01*
X330993000Y-121681000D02*
X331993000Y-121681000D01*
X331993000Y-107681000D02*
X330993000Y-107681000D01*
X331993000Y-120681000D02*
X331993000Y-121681000D01*
X317993000Y-121681000D02*
X317993000Y-120681000D01*
X318993000Y-107681000D02*
X317993000Y-107681000D01*
X317993000Y-121681000D02*
X318993000Y-121681000D01*
X317993000Y-108681000D02*
X317993000Y-107681000D01*
D12*
X324993000Y-117741000D02*
X324993000Y-117421000D01*
X327663000Y-119381000D02*
X327983000Y-119381000D01*
D10*
%TO.C,SW60*%
X331993000Y-126731000D02*
X331993000Y-127731000D01*
X330993000Y-140731000D02*
X331993000Y-140731000D01*
X331993000Y-126731000D02*
X330993000Y-126731000D01*
X331993000Y-139731000D02*
X331993000Y-140731000D01*
X317993000Y-140731000D02*
X317993000Y-139731000D01*
X318993000Y-126731000D02*
X317993000Y-126731000D01*
X317993000Y-140731000D02*
X318993000Y-140731000D01*
X317993000Y-127731000D02*
X317993000Y-126731000D01*
D12*
X324993000Y-136791000D02*
X324993000Y-136471000D01*
X327663000Y-138431000D02*
X327983000Y-138431000D01*
D13*
%TO.C,WinKey1*%
X70739000Y-165227000D02*
X72517000Y-165227000D01*
X83439000Y-165227000D02*
X83439000Y-167005000D01*
X81661000Y-165227000D02*
X83439000Y-165227000D01*
X83439000Y-177927000D02*
X81661000Y-177927000D01*
X72517000Y-177927000D02*
X70739000Y-177927000D01*
X83439000Y-176149000D02*
X83439000Y-177927000D01*
X70739000Y-177927000D02*
X70739000Y-176149000D01*
X70739000Y-167005000D02*
X70739000Y-165227000D01*
D10*
X70099000Y-178567000D02*
X71099000Y-178567000D01*
X70099000Y-165567000D02*
X70099000Y-164567000D01*
X83099000Y-178567000D02*
X84099000Y-178567000D01*
X84099000Y-177567000D02*
X84099000Y-178567000D01*
X84099000Y-164567000D02*
X83099000Y-164567000D01*
X70099000Y-178567000D02*
X70099000Y-177567000D01*
X71099000Y-164567000D02*
X70099000Y-164567000D01*
X84099000Y-164567000D02*
X84099000Y-165567000D01*
%TO.C,TAB1*%
X43459000Y-107417000D02*
X43459000Y-108417000D01*
X30459000Y-107417000D02*
X29459000Y-107417000D01*
X29459000Y-121417000D02*
X29459000Y-120417000D01*
X43459000Y-107417000D02*
X42459000Y-107417000D01*
X43459000Y-120417000D02*
X43459000Y-121417000D01*
X42459000Y-121417000D02*
X43459000Y-121417000D01*
X29459000Y-108417000D02*
X29459000Y-107417000D01*
X29459000Y-121417000D02*
X30459000Y-121417000D01*
D13*
X30099000Y-109855000D02*
X30099000Y-108077000D01*
X30099000Y-120777000D02*
X30099000Y-118999000D01*
X42799000Y-118999000D02*
X42799000Y-120777000D01*
X31877000Y-120777000D02*
X30099000Y-120777000D01*
X42799000Y-120777000D02*
X41021000Y-120777000D01*
X41021000Y-108077000D02*
X42799000Y-108077000D01*
X42799000Y-108077000D02*
X42799000Y-109855000D01*
X30099000Y-108077000D02*
X31877000Y-108077000D01*
%TO.C,CAPS1*%
X32639000Y-127127000D02*
X34417000Y-127127000D01*
X45339000Y-127127000D02*
X45339000Y-128905000D01*
X43561000Y-127127000D02*
X45339000Y-127127000D01*
X45339000Y-139827000D02*
X43561000Y-139827000D01*
X34417000Y-139827000D02*
X32639000Y-139827000D01*
X45339000Y-138049000D02*
X45339000Y-139827000D01*
X32639000Y-139827000D02*
X32639000Y-138049000D01*
X32639000Y-128905000D02*
X32639000Y-127127000D01*
D10*
X31999000Y-140467000D02*
X32999000Y-140467000D01*
X31999000Y-127467000D02*
X31999000Y-126467000D01*
X44999000Y-140467000D02*
X45999000Y-140467000D01*
X45999000Y-139467000D02*
X45999000Y-140467000D01*
X45999000Y-126467000D02*
X44999000Y-126467000D01*
X31999000Y-140467000D02*
X31999000Y-139467000D01*
X32999000Y-126467000D02*
X31999000Y-126467000D01*
X45999000Y-126467000D02*
X45999000Y-127467000D01*
%TO.C,Backspace1*%
X291109000Y-88367000D02*
X291109000Y-89367000D01*
X278109000Y-88367000D02*
X277109000Y-88367000D01*
X277109000Y-102367000D02*
X277109000Y-101367000D01*
X291109000Y-88367000D02*
X290109000Y-88367000D01*
X291109000Y-101367000D02*
X291109000Y-102367000D01*
X290109000Y-102367000D02*
X291109000Y-102367000D01*
X277109000Y-89367000D02*
X277109000Y-88367000D01*
X277109000Y-102367000D02*
X278109000Y-102367000D01*
D13*
X277749000Y-90805000D02*
X277749000Y-89027000D01*
X277749000Y-101727000D02*
X277749000Y-99949000D01*
X290449000Y-99949000D02*
X290449000Y-101727000D01*
X279527000Y-101727000D02*
X277749000Y-101727000D01*
X290449000Y-101727000D02*
X288671000Y-101727000D01*
X288671000Y-89027000D02*
X290449000Y-89027000D01*
X290449000Y-89027000D02*
X290449000Y-90805000D01*
X277749000Y-89027000D02*
X279527000Y-89027000D01*
D10*
%TO.C,RIGHT-SHIFT1*%
X281965000Y-145517000D02*
X281965000Y-146517000D01*
X268965000Y-145517000D02*
X267965000Y-145517000D01*
X267965000Y-159517000D02*
X267965000Y-158517000D01*
X281965000Y-145517000D02*
X280965000Y-145517000D01*
X281965000Y-158517000D02*
X281965000Y-159517000D01*
X280965000Y-159517000D02*
X281965000Y-159517000D01*
X267965000Y-146517000D02*
X267965000Y-145517000D01*
X267965000Y-159517000D02*
X268965000Y-159517000D01*
D13*
X268605000Y-147955000D02*
X268605000Y-146177000D01*
X268605000Y-158877000D02*
X268605000Y-157099000D01*
X281305000Y-157099000D02*
X281305000Y-158877000D01*
X270383000Y-158877000D02*
X268605000Y-158877000D01*
X281305000Y-158877000D02*
X279527000Y-158877000D01*
X279527000Y-146177000D02*
X281305000Y-146177000D01*
X281305000Y-146177000D02*
X281305000Y-147955000D01*
X268605000Y-146177000D02*
X270383000Y-146177000D01*
D10*
%TO.C,LEFT-SPACE1*%
X138963000Y-164567000D02*
X138963000Y-165567000D01*
X125963000Y-164567000D02*
X124963000Y-164567000D01*
X124963000Y-178567000D02*
X124963000Y-177567000D01*
X138963000Y-164567000D02*
X137963000Y-164567000D01*
X138963000Y-177567000D02*
X138963000Y-178567000D01*
X137963000Y-178567000D02*
X138963000Y-178567000D01*
X124963000Y-165567000D02*
X124963000Y-164567000D01*
X124963000Y-178567000D02*
X125963000Y-178567000D01*
D13*
X125603000Y-167005000D02*
X125603000Y-165227000D01*
X125603000Y-177927000D02*
X125603000Y-176149000D01*
X138303000Y-176149000D02*
X138303000Y-177927000D01*
X127381000Y-177927000D02*
X125603000Y-177927000D01*
X138303000Y-177927000D02*
X136525000Y-177927000D01*
X136525000Y-165227000D02*
X138303000Y-165227000D01*
X138303000Y-165227000D02*
X138303000Y-167005000D01*
X125603000Y-165227000D02*
X127381000Y-165227000D01*
D10*
%TO.C,RIGHT-SPACE1*%
X219989000Y-164567000D02*
X219989000Y-165567000D01*
X206989000Y-164567000D02*
X205989000Y-164567000D01*
X205989000Y-178567000D02*
X205989000Y-177567000D01*
X219989000Y-164567000D02*
X218989000Y-164567000D01*
X219989000Y-177567000D02*
X219989000Y-178567000D01*
X218989000Y-178567000D02*
X219989000Y-178567000D01*
X205989000Y-165567000D02*
X205989000Y-164567000D01*
X205989000Y-178567000D02*
X206989000Y-178567000D01*
D13*
X206629000Y-167005000D02*
X206629000Y-165227000D01*
X206629000Y-177927000D02*
X206629000Y-176149000D01*
X219329000Y-176149000D02*
X219329000Y-177927000D01*
X208407000Y-177927000D02*
X206629000Y-177927000D01*
X219329000Y-177927000D02*
X217551000Y-177927000D01*
X217551000Y-165227000D02*
X219329000Y-165227000D01*
X219329000Y-165227000D02*
X219329000Y-167005000D01*
X206629000Y-165227000D02*
X208407000Y-165227000D01*
D10*
%TO.C,SW64*%
X351043000Y-145781000D02*
X351043000Y-146781000D01*
X350043000Y-159781000D02*
X351043000Y-159781000D01*
X351043000Y-145781000D02*
X350043000Y-145781000D01*
X351043000Y-158781000D02*
X351043000Y-159781000D01*
X337043000Y-159781000D02*
X337043000Y-158781000D01*
X338043000Y-145781000D02*
X337043000Y-145781000D01*
X337043000Y-159781000D02*
X338043000Y-159781000D01*
X337043000Y-146781000D02*
X337043000Y-145781000D01*
D12*
X344043000Y-155841000D02*
X344043000Y-155521000D01*
X346713000Y-157481000D02*
X347033000Y-157481000D01*
D10*
%TO.C,SW65*%
X331993000Y-88631000D02*
X331993000Y-89631000D01*
X330993000Y-102631000D02*
X331993000Y-102631000D01*
X331993000Y-88631000D02*
X330993000Y-88631000D01*
X331993000Y-101631000D02*
X331993000Y-102631000D01*
X317993000Y-102631000D02*
X317993000Y-101631000D01*
X318993000Y-88631000D02*
X317993000Y-88631000D01*
X317993000Y-102631000D02*
X318993000Y-102631000D01*
X317993000Y-89631000D02*
X317993000Y-88631000D01*
D12*
X324993000Y-98691000D02*
X324993000Y-98371000D01*
X327663000Y-100331000D02*
X327983000Y-100331000D01*
D10*
%TO.C,SW66*%
X389143000Y-164831000D02*
X389143000Y-165831000D01*
X388143000Y-178831000D02*
X389143000Y-178831000D01*
X389143000Y-164831000D02*
X388143000Y-164831000D01*
X389143000Y-177831000D02*
X389143000Y-178831000D01*
X375143000Y-178831000D02*
X375143000Y-177831000D01*
X376143000Y-164831000D02*
X375143000Y-164831000D01*
X375143000Y-178831000D02*
X376143000Y-178831000D01*
X375143000Y-165831000D02*
X375143000Y-164831000D01*
D12*
X382143000Y-174891000D02*
X382143000Y-174571000D01*
X384813000Y-176531000D02*
X385133000Y-176531000D01*
D10*
%TO.C,SW67*%
X370093000Y-107681000D02*
X370093000Y-108681000D01*
X369093000Y-121681000D02*
X370093000Y-121681000D01*
X370093000Y-107681000D02*
X369093000Y-107681000D01*
X370093000Y-120681000D02*
X370093000Y-121681000D01*
X356093000Y-121681000D02*
X356093000Y-120681000D01*
X357093000Y-107681000D02*
X356093000Y-107681000D01*
X356093000Y-121681000D02*
X357093000Y-121681000D01*
X356093000Y-108681000D02*
X356093000Y-107681000D01*
D12*
X363093000Y-117741000D02*
X363093000Y-117421000D01*
X365763000Y-119381000D02*
X366083000Y-119381000D01*
D10*
%TO.C,SW68*%
X370093000Y-145781000D02*
X370093000Y-146781000D01*
X369093000Y-159781000D02*
X370093000Y-159781000D01*
X370093000Y-145781000D02*
X369093000Y-145781000D01*
X370093000Y-158781000D02*
X370093000Y-159781000D01*
X356093000Y-159781000D02*
X356093000Y-158781000D01*
X357093000Y-145781000D02*
X356093000Y-145781000D01*
X356093000Y-159781000D02*
X357093000Y-159781000D01*
X356093000Y-146781000D02*
X356093000Y-145781000D01*
D12*
X363093000Y-155841000D02*
X363093000Y-155521000D01*
X365763000Y-157481000D02*
X366083000Y-157481000D01*
D10*
%TO.C,SW69*%
X389143000Y-88631000D02*
X389143000Y-89631000D01*
X388143000Y-102631000D02*
X389143000Y-102631000D01*
X389143000Y-88631000D02*
X388143000Y-88631000D01*
X389143000Y-101631000D02*
X389143000Y-102631000D01*
X375143000Y-102631000D02*
X375143000Y-101631000D01*
X376143000Y-88631000D02*
X375143000Y-88631000D01*
X375143000Y-102631000D02*
X376143000Y-102631000D01*
X375143000Y-89631000D02*
X375143000Y-88631000D01*
D12*
X382143000Y-98691000D02*
X382143000Y-98371000D01*
X384813000Y-100331000D02*
X385133000Y-100331000D01*
D10*
%TO.C,SW70*%
X370093000Y-88631000D02*
X370093000Y-89631000D01*
X369093000Y-102631000D02*
X370093000Y-102631000D01*
X370093000Y-88631000D02*
X369093000Y-88631000D01*
X370093000Y-101631000D02*
X370093000Y-102631000D01*
X356093000Y-102631000D02*
X356093000Y-101631000D01*
X357093000Y-88631000D02*
X356093000Y-88631000D01*
X356093000Y-102631000D02*
X357093000Y-102631000D01*
X356093000Y-89631000D02*
X356093000Y-88631000D01*
D12*
X363093000Y-98691000D02*
X363093000Y-98371000D01*
X365763000Y-100331000D02*
X366083000Y-100331000D01*
D10*
%TO.C,SW71*%
X370093000Y-164831000D02*
X370093000Y-165831000D01*
X369093000Y-178831000D02*
X370093000Y-178831000D01*
X370093000Y-164831000D02*
X369093000Y-164831000D01*
X370093000Y-177831000D02*
X370093000Y-178831000D01*
X356093000Y-178831000D02*
X356093000Y-177831000D01*
X357093000Y-164831000D02*
X356093000Y-164831000D01*
X356093000Y-178831000D02*
X357093000Y-178831000D01*
X356093000Y-165831000D02*
X356093000Y-164831000D01*
D12*
X363093000Y-174891000D02*
X363093000Y-174571000D01*
X365763000Y-176531000D02*
X366083000Y-176531000D01*
D10*
%TO.C,SW72*%
X351043000Y-164831000D02*
X351043000Y-165831000D01*
X350043000Y-178831000D02*
X351043000Y-178831000D01*
X351043000Y-164831000D02*
X350043000Y-164831000D01*
X351043000Y-177831000D02*
X351043000Y-178831000D01*
X337043000Y-178831000D02*
X337043000Y-177831000D01*
X338043000Y-164831000D02*
X337043000Y-164831000D01*
X337043000Y-178831000D02*
X338043000Y-178831000D01*
X337043000Y-165831000D02*
X337043000Y-164831000D01*
D12*
X344043000Y-174891000D02*
X344043000Y-174571000D01*
X346713000Y-176531000D02*
X347033000Y-176531000D01*
D10*
%TO.C,SW73*%
X331993000Y-164831000D02*
X331993000Y-165831000D01*
X330993000Y-178831000D02*
X331993000Y-178831000D01*
X331993000Y-164831000D02*
X330993000Y-164831000D01*
X331993000Y-177831000D02*
X331993000Y-178831000D01*
X317993000Y-178831000D02*
X317993000Y-177831000D01*
X318993000Y-164831000D02*
X317993000Y-164831000D01*
X317993000Y-178831000D02*
X318993000Y-178831000D01*
X317993000Y-165831000D02*
X317993000Y-164831000D01*
D12*
X324993000Y-174891000D02*
X324993000Y-174571000D01*
X327663000Y-176531000D02*
X327983000Y-176531000D01*
D10*
%TO.C,S2*%
X389143000Y-145781000D02*
X389143000Y-146781000D01*
X388143000Y-159781000D02*
X389143000Y-159781000D01*
X389143000Y-145781000D02*
X388143000Y-145781000D01*
X389143000Y-158781000D02*
X389143000Y-159781000D01*
X375143000Y-159781000D02*
X375143000Y-158781000D01*
X376143000Y-145781000D02*
X375143000Y-145781000D01*
X375143000Y-159781000D02*
X376143000Y-159781000D01*
X375143000Y-146781000D02*
X375143000Y-145781000D01*
D12*
X382143000Y-155841000D02*
X382143000Y-155521000D01*
X384813000Y-157481000D02*
X385133000Y-157481000D01*
D10*
%TO.C,S1*%
X351043000Y-88631000D02*
X351043000Y-89631000D01*
X350043000Y-102631000D02*
X351043000Y-102631000D01*
X351043000Y-88631000D02*
X350043000Y-88631000D01*
X351043000Y-101631000D02*
X351043000Y-102631000D01*
X337043000Y-102631000D02*
X337043000Y-101631000D01*
X338043000Y-88631000D02*
X337043000Y-88631000D01*
X337043000Y-102631000D02*
X338043000Y-102631000D01*
X337043000Y-89631000D02*
X337043000Y-88631000D01*
D12*
X344043000Y-98691000D02*
X344043000Y-98371000D01*
X346713000Y-100331000D02*
X347033000Y-100331000D01*
D10*
%TO.C,ENTER1*%
X286537000Y-126467000D02*
X286537000Y-127467000D01*
X273537000Y-126467000D02*
X272537000Y-126467000D01*
X272537000Y-140467000D02*
X272537000Y-139467000D01*
X286537000Y-126467000D02*
X285537000Y-126467000D01*
X286537000Y-139467000D02*
X286537000Y-140467000D01*
X285537000Y-140467000D02*
X286537000Y-140467000D01*
X272537000Y-127467000D02*
X272537000Y-126467000D01*
X272537000Y-140467000D02*
X273537000Y-140467000D01*
D13*
X273177000Y-128905000D02*
X273177000Y-127127000D01*
X273177000Y-139827000D02*
X273177000Y-138049000D01*
X285877000Y-138049000D02*
X285877000Y-139827000D01*
X274955000Y-139827000D02*
X273177000Y-139827000D01*
X285877000Y-139827000D02*
X284099000Y-139827000D01*
X284099000Y-127127000D02*
X285877000Y-127127000D01*
X285877000Y-127127000D02*
X285877000Y-128905000D01*
X273177000Y-127127000D02*
X274955000Y-127127000D01*
D10*
%TO.C,SW44*%
X253263000Y-164567000D02*
X253263000Y-165567000D01*
X240263000Y-164567000D02*
X239263000Y-164567000D01*
X239263000Y-178567000D02*
X239263000Y-177567000D01*
X253263000Y-164567000D02*
X252263000Y-164567000D01*
X253263000Y-177567000D02*
X253263000Y-178567000D01*
X252263000Y-178567000D02*
X253263000Y-178567000D01*
X239263000Y-165567000D02*
X239263000Y-164567000D01*
X239263000Y-178567000D02*
X240263000Y-178567000D01*
D13*
X239903000Y-167005000D02*
X239903000Y-165227000D01*
X239903000Y-177927000D02*
X239903000Y-176149000D01*
X252603000Y-176149000D02*
X252603000Y-177927000D01*
X241681000Y-177927000D02*
X239903000Y-177927000D01*
X252603000Y-177927000D02*
X250825000Y-177927000D01*
X250825000Y-165227000D02*
X252603000Y-165227000D01*
X252603000Y-165227000D02*
X252603000Y-167005000D01*
X239903000Y-165227000D02*
X241681000Y-165227000D01*
%TO.C,LEFT-SHIFT1*%
X37465000Y-146177000D02*
X39243000Y-146177000D01*
X50165000Y-146177000D02*
X50165000Y-147955000D01*
X48387000Y-146177000D02*
X50165000Y-146177000D01*
X50165000Y-158877000D02*
X48387000Y-158877000D01*
X39243000Y-158877000D02*
X37465000Y-158877000D01*
X50165000Y-157099000D02*
X50165000Y-158877000D01*
X37465000Y-158877000D02*
X37465000Y-157099000D01*
X37465000Y-147955000D02*
X37465000Y-146177000D01*
D10*
X36825000Y-159517000D02*
X37825000Y-159517000D01*
X36825000Y-146517000D02*
X36825000Y-145517000D01*
X49825000Y-159517000D02*
X50825000Y-159517000D01*
X50825000Y-158517000D02*
X50825000Y-159517000D01*
X50825000Y-145517000D02*
X49825000Y-145517000D01*
X36825000Y-159517000D02*
X36825000Y-158517000D01*
X37825000Y-145517000D02*
X36825000Y-145517000D01*
X50825000Y-145517000D02*
X50825000Y-146517000D01*
%TO.C,SW52*%
X274843000Y-164577000D02*
X274843000Y-165577000D01*
X273843000Y-178577000D02*
X274843000Y-178577000D01*
X274843000Y-164577000D02*
X273843000Y-164577000D01*
X274843000Y-177577000D02*
X274843000Y-178577000D01*
X260843000Y-178577000D02*
X260843000Y-177577000D01*
X261843000Y-164577000D02*
X260843000Y-164577000D01*
X260843000Y-178577000D02*
X261843000Y-178577000D01*
X260843000Y-165577000D02*
X260843000Y-164577000D01*
D12*
X267843000Y-174637000D02*
X267843000Y-174317000D01*
X270513000Y-176277000D02*
X270833000Y-176277000D01*
%TO.C,D85*%
X32563000Y-101204000D02*
X32563000Y-98674000D01*
X35773000Y-101234000D02*
X32563000Y-101234000D01*
X35763000Y-98684000D02*
X35763000Y-101224000D01*
X32563000Y-98674000D02*
X35763000Y-98674000D01*
X36163000Y-100074000D02*
X35913000Y-100074000D01*
X34163000Y-98594000D02*
X34163000Y-98154000D01*
X31263000Y-98574000D02*
X37063000Y-98574000D01*
X36183000Y-100074000D02*
X38763000Y-100074000D01*
%TO.C,D90*%
X51613000Y-101206000D02*
X51613000Y-98676000D01*
X54823000Y-101236000D02*
X51613000Y-101236000D01*
X54813000Y-98686000D02*
X54813000Y-101226000D01*
X51613000Y-98676000D02*
X54813000Y-98676000D01*
X55213000Y-100076000D02*
X54963000Y-100076000D01*
X53213000Y-98596000D02*
X53213000Y-98156000D01*
X50313000Y-98576000D02*
X56113000Y-98576000D01*
X55233000Y-100076000D02*
X57813000Y-100076000D01*
%TO.C,D95*%
X70663000Y-101204000D02*
X70663000Y-98674000D01*
X73873000Y-101234000D02*
X70663000Y-101234000D01*
X73863000Y-98684000D02*
X73863000Y-101224000D01*
X70663000Y-98674000D02*
X73863000Y-98674000D01*
X74263000Y-100074000D02*
X74013000Y-100074000D01*
X72263000Y-98594000D02*
X72263000Y-98154000D01*
X69363000Y-98574000D02*
X75163000Y-98574000D01*
X74283000Y-100074000D02*
X76863000Y-100074000D01*
%TO.C,D100*%
X89713000Y-101230000D02*
X89713000Y-98700000D01*
X92923000Y-101260000D02*
X89713000Y-101260000D01*
X92913000Y-98710000D02*
X92913000Y-101250000D01*
X89713000Y-98700000D02*
X92913000Y-98700000D01*
X93313000Y-100100000D02*
X93063000Y-100100000D01*
X91313000Y-98620000D02*
X91313000Y-98180000D01*
X88413000Y-98600000D02*
X94213000Y-98600000D01*
X93333000Y-100100000D02*
X95913000Y-100100000D01*
%TO.C,D104*%
X108763000Y-101206000D02*
X108763000Y-98676000D01*
X111973000Y-101236000D02*
X108763000Y-101236000D01*
X111963000Y-98686000D02*
X111963000Y-101226000D01*
X108763000Y-98676000D02*
X111963000Y-98676000D01*
X112363000Y-100076000D02*
X112113000Y-100076000D01*
X110363000Y-98596000D02*
X110363000Y-98156000D01*
X107463000Y-98576000D02*
X113263000Y-98576000D01*
X112383000Y-100076000D02*
X114963000Y-100076000D01*
%TO.C,D108*%
X127813000Y-101181000D02*
X127813000Y-98651000D01*
X131023000Y-101211000D02*
X127813000Y-101211000D01*
X131013000Y-98661000D02*
X131013000Y-101201000D01*
X127813000Y-98651000D02*
X131013000Y-98651000D01*
X131413000Y-100051000D02*
X131163000Y-100051000D01*
X129413000Y-98571000D02*
X129413000Y-98131000D01*
X126513000Y-98551000D02*
X132313000Y-98551000D01*
X131433000Y-100051000D02*
X134013000Y-100051000D01*
%TO.C,D112*%
X146888000Y-101206000D02*
X146888000Y-98676000D01*
X150098000Y-101236000D02*
X146888000Y-101236000D01*
X150088000Y-98686000D02*
X150088000Y-101226000D01*
X146888000Y-98676000D02*
X150088000Y-98676000D01*
X150488000Y-100076000D02*
X150238000Y-100076000D01*
X148488000Y-98596000D02*
X148488000Y-98156000D01*
X145588000Y-98576000D02*
X151388000Y-98576000D01*
X150508000Y-100076000D02*
X153088000Y-100076000D01*
%TO.C,D116*%
X165913000Y-101206000D02*
X165913000Y-98676000D01*
X169123000Y-101236000D02*
X165913000Y-101236000D01*
X169113000Y-98686000D02*
X169113000Y-101226000D01*
X165913000Y-98676000D02*
X169113000Y-98676000D01*
X169513000Y-100076000D02*
X169263000Y-100076000D01*
X167513000Y-98596000D02*
X167513000Y-98156000D01*
X164613000Y-98576000D02*
X170413000Y-98576000D01*
X169533000Y-100076000D02*
X172113000Y-100076000D01*
%TO.C,D120*%
X184938000Y-101206000D02*
X184938000Y-98676000D01*
X188148000Y-101236000D02*
X184938000Y-101236000D01*
X188138000Y-98686000D02*
X188138000Y-101226000D01*
X184938000Y-98676000D02*
X188138000Y-98676000D01*
X188538000Y-100076000D02*
X188288000Y-100076000D01*
X186538000Y-98596000D02*
X186538000Y-98156000D01*
X183638000Y-98576000D02*
X189438000Y-98576000D01*
X188558000Y-100076000D02*
X191138000Y-100076000D01*
%TO.C,D124*%
X204013000Y-101206000D02*
X204013000Y-98676000D01*
X207223000Y-101236000D02*
X204013000Y-101236000D01*
X207213000Y-98686000D02*
X207213000Y-101226000D01*
X204013000Y-98676000D02*
X207213000Y-98676000D01*
X207613000Y-100076000D02*
X207363000Y-100076000D01*
X205613000Y-98596000D02*
X205613000Y-98156000D01*
X202713000Y-98576000D02*
X208513000Y-98576000D01*
X207633000Y-100076000D02*
X210213000Y-100076000D01*
%TO.C,D128*%
X223088000Y-101181000D02*
X223088000Y-98651000D01*
X226298000Y-101211000D02*
X223088000Y-101211000D01*
X226288000Y-98661000D02*
X226288000Y-101201000D01*
X223088000Y-98651000D02*
X226288000Y-98651000D01*
X226688000Y-100051000D02*
X226438000Y-100051000D01*
X224688000Y-98571000D02*
X224688000Y-98131000D01*
X221788000Y-98551000D02*
X227588000Y-98551000D01*
X226708000Y-100051000D02*
X229288000Y-100051000D01*
%TO.C,D132*%
X242113000Y-101206000D02*
X242113000Y-98676000D01*
X245323000Y-101236000D02*
X242113000Y-101236000D01*
X245313000Y-98686000D02*
X245313000Y-101226000D01*
X242113000Y-98676000D02*
X245313000Y-98676000D01*
X245713000Y-100076000D02*
X245463000Y-100076000D01*
X243713000Y-98596000D02*
X243713000Y-98156000D01*
X240813000Y-98576000D02*
X246613000Y-98576000D01*
X245733000Y-100076000D02*
X248313000Y-100076000D01*
%TO.C,D136*%
X261138000Y-101231000D02*
X261138000Y-98701000D01*
X264348000Y-101261000D02*
X261138000Y-101261000D01*
X264338000Y-98711000D02*
X264338000Y-101251000D01*
X261138000Y-98701000D02*
X264338000Y-98701000D01*
X264738000Y-100101000D02*
X264488000Y-100101000D01*
X262738000Y-98621000D02*
X262738000Y-98181000D01*
X259838000Y-98601000D02*
X265638000Y-98601000D01*
X264758000Y-100101000D02*
X267338000Y-100101000D01*
%TO.C,D140*%
X323368000Y-101460000D02*
X323368000Y-98930000D01*
X326578000Y-101490000D02*
X323368000Y-101490000D01*
X326568000Y-98940000D02*
X326568000Y-101480000D01*
X323368000Y-98930000D02*
X326568000Y-98930000D01*
X326968000Y-100330000D02*
X326718000Y-100330000D01*
X324968000Y-98850000D02*
X324968000Y-98410000D01*
X322068000Y-98830000D02*
X327868000Y-98830000D01*
X326988000Y-100330000D02*
X329568000Y-100330000D01*
%TO.C,D144*%
X342443000Y-101460000D02*
X342443000Y-98930000D01*
X345653000Y-101490000D02*
X342443000Y-101490000D01*
X345643000Y-98940000D02*
X345643000Y-101480000D01*
X342443000Y-98930000D02*
X345643000Y-98930000D01*
X346043000Y-100330000D02*
X345793000Y-100330000D01*
X344043000Y-98850000D02*
X344043000Y-98410000D01*
X341143000Y-98830000D02*
X346943000Y-98830000D01*
X346063000Y-100330000D02*
X348643000Y-100330000D01*
%TO.C,D148*%
X361468000Y-101485000D02*
X361468000Y-98955000D01*
X364678000Y-101515000D02*
X361468000Y-101515000D01*
X364668000Y-98965000D02*
X364668000Y-101505000D01*
X361468000Y-98955000D02*
X364668000Y-98955000D01*
X365068000Y-100355000D02*
X364818000Y-100355000D01*
X363068000Y-98875000D02*
X363068000Y-98435000D01*
X360168000Y-98855000D02*
X365968000Y-98855000D01*
X365088000Y-100355000D02*
X367668000Y-100355000D01*
%TO.C,D152*%
X380568000Y-101435000D02*
X380568000Y-98905000D01*
X383778000Y-101465000D02*
X380568000Y-101465000D01*
X383768000Y-98915000D02*
X383768000Y-101455000D01*
X380568000Y-98905000D02*
X383768000Y-98905000D01*
X384168000Y-100305000D02*
X383918000Y-100305000D01*
X382168000Y-98825000D02*
X382168000Y-98385000D01*
X379268000Y-98805000D02*
X385068000Y-98805000D01*
X384188000Y-100305000D02*
X386768000Y-100305000D01*
%TO.C,D156*%
X380568000Y-120485000D02*
X380568000Y-117955000D01*
X383778000Y-120515000D02*
X380568000Y-120515000D01*
X383768000Y-117965000D02*
X383768000Y-120505000D01*
X380568000Y-117955000D02*
X383768000Y-117955000D01*
X384168000Y-119355000D02*
X383918000Y-119355000D01*
X382168000Y-117875000D02*
X382168000Y-117435000D01*
X379268000Y-117855000D02*
X385068000Y-117855000D01*
X384188000Y-119355000D02*
X386768000Y-119355000D01*
%TO.C,D160*%
X361518000Y-120485000D02*
X361518000Y-117955000D01*
X364728000Y-120515000D02*
X361518000Y-120515000D01*
X364718000Y-117965000D02*
X364718000Y-120505000D01*
X361518000Y-117955000D02*
X364718000Y-117955000D01*
X365118000Y-119355000D02*
X364868000Y-119355000D01*
X363118000Y-117875000D02*
X363118000Y-117435000D01*
X360218000Y-117855000D02*
X366018000Y-117855000D01*
X365138000Y-119355000D02*
X367718000Y-119355000D01*
%TO.C,D164*%
X342468000Y-120485000D02*
X342468000Y-117955000D01*
X345678000Y-120515000D02*
X342468000Y-120515000D01*
X345668000Y-117965000D02*
X345668000Y-120505000D01*
X342468000Y-117955000D02*
X345668000Y-117955000D01*
X346068000Y-119355000D02*
X345818000Y-119355000D01*
X344068000Y-117875000D02*
X344068000Y-117435000D01*
X341168000Y-117855000D02*
X346968000Y-117855000D01*
X346088000Y-119355000D02*
X348668000Y-119355000D01*
%TO.C,D168*%
X323393000Y-120510000D02*
X323393000Y-117980000D01*
X326603000Y-120540000D02*
X323393000Y-120540000D01*
X326593000Y-117990000D02*
X326593000Y-120530000D01*
X323393000Y-117980000D02*
X326593000Y-117980000D01*
X326993000Y-119380000D02*
X326743000Y-119380000D01*
X324993000Y-117900000D02*
X324993000Y-117460000D01*
X322093000Y-117880000D02*
X327893000Y-117880000D01*
X327013000Y-119380000D02*
X329593000Y-119380000D01*
%TO.C,D86*%
X285039000Y-120242000D02*
X285039000Y-117712000D01*
X288249000Y-120272000D02*
X285039000Y-120272000D01*
X288239000Y-117722000D02*
X288239000Y-120262000D01*
X285039000Y-117712000D02*
X288239000Y-117712000D01*
X288639000Y-119112000D02*
X288389000Y-119112000D01*
X286639000Y-117632000D02*
X286639000Y-117192000D01*
X283739000Y-117612000D02*
X289539000Y-117612000D01*
X288659000Y-119112000D02*
X291239000Y-119112000D01*
%TO.C,D91*%
X265989000Y-120242000D02*
X265989000Y-117712000D01*
X269199000Y-120272000D02*
X265989000Y-120272000D01*
X269189000Y-117722000D02*
X269189000Y-120262000D01*
X265989000Y-117712000D02*
X269189000Y-117712000D01*
X269589000Y-119112000D02*
X269339000Y-119112000D01*
X267589000Y-117632000D02*
X267589000Y-117192000D01*
X264689000Y-117612000D02*
X270489000Y-117612000D01*
X269609000Y-119112000D02*
X272189000Y-119112000D01*
%TO.C,D96*%
X246939000Y-120217000D02*
X246939000Y-117687000D01*
X250149000Y-120247000D02*
X246939000Y-120247000D01*
X250139000Y-117697000D02*
X250139000Y-120237000D01*
X246939000Y-117687000D02*
X250139000Y-117687000D01*
X250539000Y-119087000D02*
X250289000Y-119087000D01*
X248539000Y-117607000D02*
X248539000Y-117167000D01*
X245639000Y-117587000D02*
X251439000Y-117587000D01*
X250559000Y-119087000D02*
X253139000Y-119087000D01*
%TO.C,D101*%
X227889000Y-120242000D02*
X227889000Y-117712000D01*
X231099000Y-120272000D02*
X227889000Y-120272000D01*
X231089000Y-117722000D02*
X231089000Y-120262000D01*
X227889000Y-117712000D02*
X231089000Y-117712000D01*
X231489000Y-119112000D02*
X231239000Y-119112000D01*
X229489000Y-117632000D02*
X229489000Y-117192000D01*
X226589000Y-117612000D02*
X232389000Y-117612000D01*
X231509000Y-119112000D02*
X234089000Y-119112000D01*
%TO.C,D105*%
X208839000Y-120191000D02*
X208839000Y-117661000D01*
X212049000Y-120221000D02*
X208839000Y-120221000D01*
X212039000Y-117671000D02*
X212039000Y-120211000D01*
X208839000Y-117661000D02*
X212039000Y-117661000D01*
X212439000Y-119061000D02*
X212189000Y-119061000D01*
X210439000Y-117581000D02*
X210439000Y-117141000D01*
X207539000Y-117561000D02*
X213339000Y-117561000D01*
X212459000Y-119061000D02*
X215039000Y-119061000D01*
%TO.C,D109*%
X189814000Y-120166000D02*
X189814000Y-117636000D01*
X193024000Y-120196000D02*
X189814000Y-120196000D01*
X193014000Y-117646000D02*
X193014000Y-120186000D01*
X189814000Y-117636000D02*
X193014000Y-117636000D01*
X193414000Y-119036000D02*
X193164000Y-119036000D01*
X191414000Y-117556000D02*
X191414000Y-117116000D01*
X188514000Y-117536000D02*
X194314000Y-117536000D01*
X193434000Y-119036000D02*
X196014000Y-119036000D01*
%TO.C,D113*%
X170764000Y-120217000D02*
X170764000Y-117687000D01*
X173974000Y-120247000D02*
X170764000Y-120247000D01*
X173964000Y-117697000D02*
X173964000Y-120237000D01*
X170764000Y-117687000D02*
X173964000Y-117687000D01*
X174364000Y-119087000D02*
X174114000Y-119087000D01*
X172364000Y-117607000D02*
X172364000Y-117167000D01*
X169464000Y-117587000D02*
X175264000Y-117587000D01*
X174384000Y-119087000D02*
X176964000Y-119087000D01*
%TO.C,D117*%
X151689000Y-120205000D02*
X151689000Y-117675000D01*
X154899000Y-120235000D02*
X151689000Y-120235000D01*
X154889000Y-117685000D02*
X154889000Y-120225000D01*
X151689000Y-117675000D02*
X154889000Y-117675000D01*
X155289000Y-119075000D02*
X155039000Y-119075000D01*
X153289000Y-117595000D02*
X153289000Y-117155000D01*
X150389000Y-117575000D02*
X156189000Y-117575000D01*
X155309000Y-119075000D02*
X157889000Y-119075000D01*
%TO.C,D121*%
X132639000Y-120217000D02*
X132639000Y-117687000D01*
X135849000Y-120247000D02*
X132639000Y-120247000D01*
X135839000Y-117697000D02*
X135839000Y-120237000D01*
X132639000Y-117687000D02*
X135839000Y-117687000D01*
X136239000Y-119087000D02*
X135989000Y-119087000D01*
X134239000Y-117607000D02*
X134239000Y-117167000D01*
X131339000Y-117587000D02*
X137139000Y-117587000D01*
X136259000Y-119087000D02*
X138839000Y-119087000D01*
%TO.C,D125*%
X113564000Y-120191000D02*
X113564000Y-117661000D01*
X116774000Y-120221000D02*
X113564000Y-120221000D01*
X116764000Y-117671000D02*
X116764000Y-120211000D01*
X113564000Y-117661000D02*
X116764000Y-117661000D01*
X117164000Y-119061000D02*
X116914000Y-119061000D01*
X115164000Y-117581000D02*
X115164000Y-117141000D01*
X112264000Y-117561000D02*
X118064000Y-117561000D01*
X117184000Y-119061000D02*
X119764000Y-119061000D01*
%TO.C,D129*%
X94539000Y-120180000D02*
X94539000Y-117650000D01*
X97749000Y-120210000D02*
X94539000Y-120210000D01*
X97739000Y-117660000D02*
X97739000Y-120200000D01*
X94539000Y-117650000D02*
X97739000Y-117650000D01*
X98139000Y-119050000D02*
X97889000Y-119050000D01*
X96139000Y-117570000D02*
X96139000Y-117130000D01*
X93239000Y-117550000D02*
X99039000Y-117550000D01*
X98159000Y-119050000D02*
X100739000Y-119050000D01*
%TO.C,D133*%
X75489000Y-120231000D02*
X75489000Y-117701000D01*
X78699000Y-120261000D02*
X75489000Y-120261000D01*
X78689000Y-117711000D02*
X78689000Y-120251000D01*
X75489000Y-117701000D02*
X78689000Y-117701000D01*
X79089000Y-119101000D02*
X78839000Y-119101000D01*
X77089000Y-117621000D02*
X77089000Y-117181000D01*
X74189000Y-117601000D02*
X79989000Y-117601000D01*
X79109000Y-119101000D02*
X81689000Y-119101000D01*
%TO.C,D137*%
X56413600Y-120256000D02*
X56413600Y-117726000D01*
X59623600Y-120286000D02*
X56413600Y-120286000D01*
X59613600Y-117736000D02*
X59613600Y-120276000D01*
X56413600Y-117726000D02*
X59613600Y-117726000D01*
X60013600Y-119126000D02*
X59763600Y-119126000D01*
X58013600Y-117646000D02*
X58013600Y-117206000D01*
X55113600Y-117626000D02*
X60913600Y-117626000D01*
X60033600Y-119126000D02*
X62613600Y-119126000D01*
%TO.C,D141*%
X34849000Y-120256000D02*
X34849000Y-117726000D01*
X38059000Y-120286000D02*
X34849000Y-120286000D01*
X38049000Y-117736000D02*
X38049000Y-120276000D01*
X34849000Y-117726000D02*
X38049000Y-117726000D01*
X38449000Y-119126000D02*
X38199000Y-119126000D01*
X36449000Y-117646000D02*
X36449000Y-117206000D01*
X33549000Y-117626000D02*
X39349000Y-117626000D01*
X38469000Y-119126000D02*
X41049000Y-119126000D01*
%TO.C,D145*%
X37262000Y-139052000D02*
X37262000Y-136522000D01*
X40472000Y-139082000D02*
X37262000Y-139082000D01*
X40462000Y-136532000D02*
X40462000Y-139072000D01*
X37262000Y-136522000D02*
X40462000Y-136522000D01*
X40862000Y-137922000D02*
X40612000Y-137922000D01*
X38862000Y-136442000D02*
X38862000Y-136002000D01*
X35962000Y-136422000D02*
X41762000Y-136422000D01*
X40882000Y-137922000D02*
X43462000Y-137922000D01*
%TO.C,D149*%
X61265000Y-139306000D02*
X61265000Y-136776000D01*
X64475000Y-139336000D02*
X61265000Y-139336000D01*
X64465000Y-136786000D02*
X64465000Y-139326000D01*
X61265000Y-136776000D02*
X64465000Y-136776000D01*
X64865000Y-138176000D02*
X64615000Y-138176000D01*
X62865000Y-136696000D02*
X62865000Y-136256000D01*
X59965000Y-136676000D02*
X65765000Y-136676000D01*
X64885000Y-138176000D02*
X67465000Y-138176000D01*
%TO.C,D153*%
X80315000Y-139306000D02*
X80315000Y-136776000D01*
X83525000Y-139336000D02*
X80315000Y-139336000D01*
X83515000Y-136786000D02*
X83515000Y-139326000D01*
X80315000Y-136776000D02*
X83515000Y-136776000D01*
X83915000Y-138176000D02*
X83665000Y-138176000D01*
X81915000Y-136696000D02*
X81915000Y-136256000D01*
X79015000Y-136676000D02*
X84815000Y-136676000D01*
X83935000Y-138176000D02*
X86515000Y-138176000D01*
%TO.C,D157*%
X99340000Y-139281000D02*
X99340000Y-136751000D01*
X102550000Y-139311000D02*
X99340000Y-139311000D01*
X102540000Y-136761000D02*
X102540000Y-139301000D01*
X99340000Y-136751000D02*
X102540000Y-136751000D01*
X102940000Y-138151000D02*
X102690000Y-138151000D01*
X100940000Y-136671000D02*
X100940000Y-136231000D01*
X98040000Y-136651000D02*
X103840000Y-136651000D01*
X102960000Y-138151000D02*
X105540000Y-138151000D01*
%TO.C,D161*%
X118415000Y-139306000D02*
X118415000Y-136776000D01*
X121625000Y-139336000D02*
X118415000Y-139336000D01*
X121615000Y-136786000D02*
X121615000Y-139326000D01*
X118415000Y-136776000D02*
X121615000Y-136776000D01*
X122015000Y-138176000D02*
X121765000Y-138176000D01*
X120015000Y-136696000D02*
X120015000Y-136256000D01*
X117115000Y-136676000D02*
X122915000Y-136676000D01*
X122035000Y-138176000D02*
X124615000Y-138176000D01*
%TO.C,D165*%
X137236000Y-139306000D02*
X137236000Y-136776000D01*
X140446000Y-139336000D02*
X137236000Y-139336000D01*
X140436000Y-136786000D02*
X140436000Y-139326000D01*
X137236000Y-136776000D02*
X140436000Y-136776000D01*
X140836000Y-138176000D02*
X140586000Y-138176000D01*
X138836000Y-136696000D02*
X138836000Y-136256000D01*
X135936000Y-136676000D02*
X141736000Y-136676000D01*
X140856000Y-138176000D02*
X143436000Y-138176000D01*
%TO.C,D87*%
X156286000Y-139331000D02*
X156286000Y-136801000D01*
X159496000Y-139361000D02*
X156286000Y-139361000D01*
X159486000Y-136811000D02*
X159486000Y-139351000D01*
X156286000Y-136801000D02*
X159486000Y-136801000D01*
X159886000Y-138201000D02*
X159636000Y-138201000D01*
X157886000Y-136721000D02*
X157886000Y-136281000D01*
X154986000Y-136701000D02*
X160786000Y-136701000D01*
X159906000Y-138201000D02*
X162486000Y-138201000D01*
%TO.C,D92*%
X175311000Y-139317000D02*
X175311000Y-136787000D01*
X178521000Y-139347000D02*
X175311000Y-139347000D01*
X178511000Y-136797000D02*
X178511000Y-139337000D01*
X175311000Y-136787000D02*
X178511000Y-136787000D01*
X178911000Y-138187000D02*
X178661000Y-138187000D01*
X176911000Y-136707000D02*
X176911000Y-136267000D01*
X174011000Y-136687000D02*
X179811000Y-136687000D01*
X178931000Y-138187000D02*
X181511000Y-138187000D01*
%TO.C,D97*%
X194336000Y-139331000D02*
X194336000Y-136801000D01*
X197546000Y-139361000D02*
X194336000Y-139361000D01*
X197536000Y-136811000D02*
X197536000Y-139351000D01*
X194336000Y-136801000D02*
X197536000Y-136801000D01*
X197936000Y-138201000D02*
X197686000Y-138201000D01*
X195936000Y-136721000D02*
X195936000Y-136281000D01*
X193036000Y-136701000D02*
X198836000Y-136701000D01*
X197956000Y-138201000D02*
X200536000Y-138201000D01*
%TO.C,D102*%
X213436000Y-139281000D02*
X213436000Y-136751000D01*
X216646000Y-139311000D02*
X213436000Y-139311000D01*
X216636000Y-136761000D02*
X216636000Y-139301000D01*
X213436000Y-136751000D02*
X216636000Y-136751000D01*
X217036000Y-138151000D02*
X216786000Y-138151000D01*
X215036000Y-136671000D02*
X215036000Y-136231000D01*
X212136000Y-136651000D02*
X217936000Y-136651000D01*
X217056000Y-138151000D02*
X219636000Y-138151000D01*
%TO.C,D106*%
X232461000Y-139306000D02*
X232461000Y-136776000D01*
X235671000Y-139336000D02*
X232461000Y-139336000D01*
X235661000Y-136786000D02*
X235661000Y-139326000D01*
X232461000Y-136776000D02*
X235661000Y-136776000D01*
X236061000Y-138176000D02*
X235811000Y-138176000D01*
X234061000Y-136696000D02*
X234061000Y-136256000D01*
X231161000Y-136676000D02*
X236961000Y-136676000D01*
X236081000Y-138176000D02*
X238661000Y-138176000D01*
%TO.C,D110*%
X251511000Y-139292000D02*
X251511000Y-136762000D01*
X254721000Y-139322000D02*
X251511000Y-139322000D01*
X254711000Y-136772000D02*
X254711000Y-139312000D01*
X251511000Y-136762000D02*
X254711000Y-136762000D01*
X255111000Y-138162000D02*
X254861000Y-138162000D01*
X253111000Y-136682000D02*
X253111000Y-136242000D01*
X250211000Y-136662000D02*
X256011000Y-136662000D01*
X255131000Y-138162000D02*
X257711000Y-138162000D01*
%TO.C,D114*%
X277978000Y-139724000D02*
X277978000Y-137194000D01*
X281188000Y-139754000D02*
X277978000Y-139754000D01*
X281178000Y-137204000D02*
X281178000Y-139744000D01*
X277978000Y-137194000D02*
X281178000Y-137194000D01*
X281578000Y-138594000D02*
X281328000Y-138594000D01*
X279578000Y-137114000D02*
X279578000Y-136674000D01*
X276678000Y-137094000D02*
X282478000Y-137094000D01*
X281598000Y-138594000D02*
X284178000Y-138594000D01*
%TO.C,D118*%
X323444000Y-139521000D02*
X323444000Y-136991000D01*
X326654000Y-139551000D02*
X323444000Y-139551000D01*
X326644000Y-137001000D02*
X326644000Y-139541000D01*
X323444000Y-136991000D02*
X326644000Y-136991000D01*
X327044000Y-138391000D02*
X326794000Y-138391000D01*
X325044000Y-136911000D02*
X325044000Y-136471000D01*
X322144000Y-136891000D02*
X327944000Y-136891000D01*
X327064000Y-138391000D02*
X329644000Y-138391000D01*
%TO.C,D122*%
X342468000Y-139571000D02*
X342468000Y-137041000D01*
X345678000Y-139601000D02*
X342468000Y-139601000D01*
X345668000Y-137051000D02*
X345668000Y-139591000D01*
X342468000Y-137041000D02*
X345668000Y-137041000D01*
X346068000Y-138441000D02*
X345818000Y-138441000D01*
X344068000Y-136961000D02*
X344068000Y-136521000D01*
X341168000Y-136941000D02*
X346968000Y-136941000D01*
X346088000Y-138441000D02*
X348668000Y-138441000D01*
%TO.C,D126*%
X361493000Y-139546000D02*
X361493000Y-137016000D01*
X364703000Y-139576000D02*
X361493000Y-139576000D01*
X364693000Y-137026000D02*
X364693000Y-139566000D01*
X361493000Y-137016000D02*
X364693000Y-137016000D01*
X365093000Y-138416000D02*
X364843000Y-138416000D01*
X363093000Y-136936000D02*
X363093000Y-136496000D01*
X360193000Y-136916000D02*
X365993000Y-136916000D01*
X365113000Y-138416000D02*
X367693000Y-138416000D01*
%TO.C,D130*%
X380492000Y-139535000D02*
X380492000Y-137005000D01*
X383702000Y-139565000D02*
X380492000Y-139565000D01*
X383692000Y-137015000D02*
X383692000Y-139555000D01*
X380492000Y-137005000D02*
X383692000Y-137005000D01*
X384092000Y-138405000D02*
X383842000Y-138405000D01*
X382092000Y-136925000D02*
X382092000Y-136485000D01*
X379192000Y-136905000D02*
X384992000Y-136905000D01*
X384112000Y-138405000D02*
X386692000Y-138405000D01*
%TO.C,D134*%
X380492000Y-158571000D02*
X380492000Y-156041000D01*
X383702000Y-158601000D02*
X380492000Y-158601000D01*
X383692000Y-156051000D02*
X383692000Y-158591000D01*
X380492000Y-156041000D02*
X383692000Y-156041000D01*
X384092000Y-157441000D02*
X383842000Y-157441000D01*
X382092000Y-155961000D02*
X382092000Y-155521000D01*
X379192000Y-155941000D02*
X384992000Y-155941000D01*
X384112000Y-157441000D02*
X386692000Y-157441000D01*
%TO.C,D138*%
X361493000Y-158621000D02*
X361493000Y-156091000D01*
X364703000Y-158651000D02*
X361493000Y-158651000D01*
X364693000Y-156101000D02*
X364693000Y-158641000D01*
X361493000Y-156091000D02*
X364693000Y-156091000D01*
X365093000Y-157491000D02*
X364843000Y-157491000D01*
X363093000Y-156011000D02*
X363093000Y-155571000D01*
X360193000Y-155991000D02*
X365993000Y-155991000D01*
X365113000Y-157491000D02*
X367693000Y-157491000D01*
%TO.C,D142*%
X342443000Y-158545000D02*
X342443000Y-156015000D01*
X345653000Y-158575000D02*
X342443000Y-158575000D01*
X345643000Y-156025000D02*
X345643000Y-158565000D01*
X342443000Y-156015000D02*
X345643000Y-156015000D01*
X346043000Y-157415000D02*
X345793000Y-157415000D01*
X344043000Y-155935000D02*
X344043000Y-155495000D01*
X341143000Y-155915000D02*
X346943000Y-155915000D01*
X346063000Y-157415000D02*
X348643000Y-157415000D01*
%TO.C,D146*%
X323342000Y-158571000D02*
X323342000Y-156041000D01*
X326552000Y-158601000D02*
X323342000Y-158601000D01*
X326542000Y-156051000D02*
X326542000Y-158591000D01*
X323342000Y-156041000D02*
X326542000Y-156041000D01*
X326942000Y-157441000D02*
X326692000Y-157441000D01*
X324942000Y-155961000D02*
X324942000Y-155521000D01*
X322042000Y-155941000D02*
X327842000Y-155941000D01*
X326962000Y-157441000D02*
X329542000Y-157441000D01*
%TO.C,D150*%
X273228000Y-158991000D02*
X273228000Y-156461000D01*
X276438000Y-159021000D02*
X273228000Y-159021000D01*
X276428000Y-156471000D02*
X276428000Y-159011000D01*
X273228000Y-156461000D02*
X276428000Y-156461000D01*
X276828000Y-157861000D02*
X276578000Y-157861000D01*
X274828000Y-156381000D02*
X274828000Y-155941000D01*
X271928000Y-156361000D02*
X277728000Y-156361000D01*
X276848000Y-157861000D02*
X279428000Y-157861000D01*
%TO.C,D154*%
X242367000Y-158331000D02*
X242367000Y-155801000D01*
X245577000Y-158361000D02*
X242367000Y-158361000D01*
X245567000Y-155811000D02*
X245567000Y-158351000D01*
X242367000Y-155801000D02*
X245567000Y-155801000D01*
X245967000Y-157201000D02*
X245717000Y-157201000D01*
X243967000Y-155721000D02*
X243967000Y-155281000D01*
X241067000Y-155701000D02*
X246867000Y-155701000D01*
X245987000Y-157201000D02*
X248567000Y-157201000D01*
%TO.C,D158*%
X223317000Y-158356000D02*
X223317000Y-155826000D01*
X226527000Y-158386000D02*
X223317000Y-158386000D01*
X226517000Y-155836000D02*
X226517000Y-158376000D01*
X223317000Y-155826000D02*
X226517000Y-155826000D01*
X226917000Y-157226000D02*
X226667000Y-157226000D01*
X224917000Y-155746000D02*
X224917000Y-155306000D01*
X222017000Y-155726000D02*
X227817000Y-155726000D01*
X226937000Y-157226000D02*
X229517000Y-157226000D01*
%TO.C,D162*%
X204242000Y-158356000D02*
X204242000Y-155826000D01*
X207452000Y-158386000D02*
X204242000Y-158386000D01*
X207442000Y-155836000D02*
X207442000Y-158376000D01*
X204242000Y-155826000D02*
X207442000Y-155826000D01*
X207842000Y-157226000D02*
X207592000Y-157226000D01*
X205842000Y-155746000D02*
X205842000Y-155306000D01*
X202942000Y-155726000D02*
X208742000Y-155726000D01*
X207862000Y-157226000D02*
X210442000Y-157226000D01*
%TO.C,D166*%
X185217000Y-158331000D02*
X185217000Y-155801000D01*
X188427000Y-158361000D02*
X185217000Y-158361000D01*
X188417000Y-155811000D02*
X188417000Y-158351000D01*
X185217000Y-155801000D02*
X188417000Y-155801000D01*
X188817000Y-157201000D02*
X188567000Y-157201000D01*
X186817000Y-155721000D02*
X186817000Y-155281000D01*
X183917000Y-155701000D02*
X189717000Y-155701000D01*
X188837000Y-157201000D02*
X191417000Y-157201000D01*
%TO.C,D88*%
X166167000Y-158356000D02*
X166167000Y-155826000D01*
X169377000Y-158386000D02*
X166167000Y-158386000D01*
X169367000Y-155836000D02*
X169367000Y-158376000D01*
X166167000Y-155826000D02*
X169367000Y-155826000D01*
X169767000Y-157226000D02*
X169517000Y-157226000D01*
X167767000Y-155746000D02*
X167767000Y-155306000D01*
X164867000Y-155726000D02*
X170667000Y-155726000D01*
X169787000Y-157226000D02*
X172367000Y-157226000D01*
%TO.C,D93*%
X147092000Y-158356000D02*
X147092000Y-155826000D01*
X150302000Y-158386000D02*
X147092000Y-158386000D01*
X150292000Y-155836000D02*
X150292000Y-158376000D01*
X147092000Y-155826000D02*
X150292000Y-155826000D01*
X150692000Y-157226000D02*
X150442000Y-157226000D01*
X148692000Y-155746000D02*
X148692000Y-155306000D01*
X145792000Y-155726000D02*
X151592000Y-155726000D01*
X150712000Y-157226000D02*
X153292000Y-157226000D01*
%TO.C,D98*%
X128067000Y-158356000D02*
X128067000Y-155826000D01*
X131277000Y-158386000D02*
X128067000Y-158386000D01*
X131267000Y-155836000D02*
X131267000Y-158376000D01*
X128067000Y-155826000D02*
X131267000Y-155826000D01*
X131667000Y-157226000D02*
X131417000Y-157226000D01*
X129667000Y-155746000D02*
X129667000Y-155306000D01*
X126767000Y-155726000D02*
X132567000Y-155726000D01*
X131687000Y-157226000D02*
X134267000Y-157226000D01*
%TO.C,D103*%
X109017000Y-158356000D02*
X109017000Y-155826000D01*
X112227000Y-158386000D02*
X109017000Y-158386000D01*
X112217000Y-155836000D02*
X112217000Y-158376000D01*
X109017000Y-155826000D02*
X112217000Y-155826000D01*
X112617000Y-157226000D02*
X112367000Y-157226000D01*
X110617000Y-155746000D02*
X110617000Y-155306000D01*
X107717000Y-155726000D02*
X113517000Y-155726000D01*
X112637000Y-157226000D02*
X115217000Y-157226000D01*
%TO.C,D107*%
X89967000Y-158331000D02*
X89967000Y-155801000D01*
X93177000Y-158361000D02*
X89967000Y-158361000D01*
X93167000Y-155811000D02*
X93167000Y-158351000D01*
X89967000Y-155801000D02*
X93167000Y-155801000D01*
X93567000Y-157201000D02*
X93317000Y-157201000D01*
X91567000Y-155721000D02*
X91567000Y-155281000D01*
X88667000Y-155701000D02*
X94467000Y-155701000D01*
X93587000Y-157201000D02*
X96167000Y-157201000D01*
%TO.C,D111*%
X70917000Y-158331000D02*
X70917000Y-155801000D01*
X74127000Y-158361000D02*
X70917000Y-158361000D01*
X74117000Y-155811000D02*
X74117000Y-158351000D01*
X70917000Y-155801000D02*
X74117000Y-155801000D01*
X74517000Y-157201000D02*
X74267000Y-157201000D01*
X72517000Y-155721000D02*
X72517000Y-155281000D01*
X69617000Y-155701000D02*
X75417000Y-155701000D01*
X74537000Y-157201000D02*
X77117000Y-157201000D01*
%TO.C,D115*%
X42342000Y-159218000D02*
X42342000Y-156688000D01*
X45552000Y-159248000D02*
X42342000Y-159248000D01*
X45542000Y-156698000D02*
X45542000Y-159238000D01*
X42342000Y-156688000D02*
X45542000Y-156688000D01*
X45942000Y-158088000D02*
X45692000Y-158088000D01*
X43942000Y-156608000D02*
X43942000Y-156168000D01*
X41042000Y-156588000D02*
X46842000Y-156588000D01*
X45962000Y-158088000D02*
X48542000Y-158088000D01*
%TO.C,D119*%
X32563000Y-177443000D02*
X32563000Y-174913000D01*
X35773000Y-177473000D02*
X32563000Y-177473000D01*
X35763000Y-174923000D02*
X35763000Y-177463000D01*
X32563000Y-174913000D02*
X35763000Y-174913000D01*
X36163000Y-176313000D02*
X35913000Y-176313000D01*
X34163000Y-174833000D02*
X34163000Y-174393000D01*
X31263000Y-174813000D02*
X37063000Y-174813000D01*
X36183000Y-176313000D02*
X38763000Y-176313000D01*
%TO.C,D123*%
X51613000Y-177316000D02*
X51613000Y-174786000D01*
X54823000Y-177346000D02*
X51613000Y-177346000D01*
X54813000Y-174796000D02*
X54813000Y-177336000D01*
X51613000Y-174786000D02*
X54813000Y-174786000D01*
X55213000Y-176186000D02*
X54963000Y-176186000D01*
X53213000Y-174706000D02*
X53213000Y-174266000D01*
X50313000Y-174686000D02*
X56113000Y-174686000D01*
X55233000Y-176186000D02*
X57813000Y-176186000D01*
%TO.C,D127*%
X75616000Y-178168000D02*
X75616000Y-175638000D01*
X78826000Y-178198000D02*
X75616000Y-178198000D01*
X78816000Y-175648000D02*
X78816000Y-178188000D01*
X75616000Y-175638000D02*
X78816000Y-175638000D01*
X79216000Y-177038000D02*
X78966000Y-177038000D01*
X77216000Y-175558000D02*
X77216000Y-175118000D01*
X74316000Y-175538000D02*
X80116000Y-175538000D01*
X79236000Y-177038000D02*
X81816000Y-177038000D01*
%TO.C,D131*%
X99365000Y-177417000D02*
X99365000Y-174887000D01*
X102575000Y-177447000D02*
X99365000Y-177447000D01*
X102565000Y-174897000D02*
X102565000Y-177437000D01*
X99365000Y-174887000D02*
X102565000Y-174887000D01*
X102965000Y-176287000D02*
X102715000Y-176287000D01*
X100965000Y-174807000D02*
X100965000Y-174367000D01*
X98065000Y-174787000D02*
X103865000Y-174787000D01*
X102985000Y-176287000D02*
X105565000Y-176287000D01*
%TO.C,D135*%
X130378000Y-177900000D02*
X130378000Y-175370000D01*
X133588000Y-177930000D02*
X130378000Y-177930000D01*
X133578000Y-175380000D02*
X133578000Y-177920000D01*
X130378000Y-175370000D02*
X133578000Y-175370000D01*
X133978000Y-176770000D02*
X133728000Y-176770000D01*
X131978000Y-175290000D02*
X131978000Y-174850000D01*
X129078000Y-175270000D02*
X134878000Y-175270000D01*
X133998000Y-176770000D02*
X136578000Y-176770000D01*
%TO.C,D139*%
X161366000Y-177406000D02*
X161366000Y-174876000D01*
X164576000Y-177436000D02*
X161366000Y-177436000D01*
X164566000Y-174886000D02*
X164566000Y-177426000D01*
X161366000Y-174876000D02*
X164566000Y-174876000D01*
X164966000Y-176276000D02*
X164716000Y-176276000D01*
X162966000Y-174796000D02*
X162966000Y-174356000D01*
X160066000Y-174776000D02*
X165866000Y-174776000D01*
X164986000Y-176276000D02*
X167566000Y-176276000D01*
%TO.C,D143*%
X180391000Y-177367000D02*
X180391000Y-174837000D01*
X183601000Y-177397000D02*
X180391000Y-177397000D01*
X183591000Y-174847000D02*
X183591000Y-177387000D01*
X180391000Y-174837000D02*
X183591000Y-174837000D01*
X183991000Y-176237000D02*
X183741000Y-176237000D01*
X181991000Y-174757000D02*
X181991000Y-174317000D01*
X179091000Y-174737000D02*
X184891000Y-174737000D01*
X184011000Y-176237000D02*
X186591000Y-176237000D01*
%TO.C,D147*%
X211582000Y-178065000D02*
X211582000Y-175535000D01*
X214792000Y-178095000D02*
X211582000Y-178095000D01*
X214782000Y-175545000D02*
X214782000Y-178085000D01*
X211582000Y-175535000D02*
X214782000Y-175535000D01*
X215182000Y-176935000D02*
X214932000Y-176935000D01*
X213182000Y-175455000D02*
X213182000Y-175015000D01*
X210282000Y-175435000D02*
X216082000Y-175435000D01*
X215202000Y-176935000D02*
X217782000Y-176935000D01*
%TO.C,D151*%
X244653000Y-177976000D02*
X244653000Y-175446000D01*
X247863000Y-178006000D02*
X244653000Y-178006000D01*
X247853000Y-175456000D02*
X247853000Y-177996000D01*
X244653000Y-175446000D02*
X247853000Y-175446000D01*
X248253000Y-176846000D02*
X248003000Y-176846000D01*
X246253000Y-175366000D02*
X246253000Y-174926000D01*
X243353000Y-175346000D02*
X249153000Y-175346000D01*
X248273000Y-176846000D02*
X250853000Y-176846000D01*
%TO.C,D155*%
X266243000Y-177406000D02*
X266243000Y-174876000D01*
X269453000Y-177436000D02*
X266243000Y-177436000D01*
X269443000Y-174886000D02*
X269443000Y-177426000D01*
X266243000Y-174876000D02*
X269443000Y-174876000D01*
X269843000Y-176276000D02*
X269593000Y-176276000D01*
X267843000Y-174796000D02*
X267843000Y-174356000D01*
X264943000Y-174776000D02*
X270743000Y-174776000D01*
X269863000Y-176276000D02*
X272443000Y-176276000D01*
%TO.C,D159*%
X285318000Y-177417000D02*
X285318000Y-174887000D01*
X288528000Y-177447000D02*
X285318000Y-177447000D01*
X288518000Y-174897000D02*
X288518000Y-177437000D01*
X285318000Y-174887000D02*
X288518000Y-174887000D01*
X288918000Y-176287000D02*
X288668000Y-176287000D01*
X286918000Y-174807000D02*
X286918000Y-174367000D01*
X284018000Y-174787000D02*
X289818000Y-174787000D01*
X288938000Y-176287000D02*
X291518000Y-176287000D01*
%TO.C,D163*%
X323393000Y-177621000D02*
X323393000Y-175091000D01*
X326603000Y-177651000D02*
X323393000Y-177651000D01*
X326593000Y-175101000D02*
X326593000Y-177641000D01*
X323393000Y-175091000D02*
X326593000Y-175091000D01*
X326993000Y-176491000D02*
X326743000Y-176491000D01*
X324993000Y-175011000D02*
X324993000Y-174571000D01*
X322093000Y-174991000D02*
X327893000Y-174991000D01*
X327013000Y-176491000D02*
X329593000Y-176491000D01*
%TO.C,D167*%
X342443000Y-177621000D02*
X342443000Y-175091000D01*
X345653000Y-177651000D02*
X342443000Y-177651000D01*
X345643000Y-175101000D02*
X345643000Y-177641000D01*
X342443000Y-175091000D02*
X345643000Y-175091000D01*
X346043000Y-176491000D02*
X345793000Y-176491000D01*
X344043000Y-175011000D02*
X344043000Y-174571000D01*
X341143000Y-174991000D02*
X346943000Y-174991000D01*
X346063000Y-176491000D02*
X348643000Y-176491000D01*
%TO.C,D89*%
X361493000Y-177595000D02*
X361493000Y-175065000D01*
X364703000Y-177625000D02*
X361493000Y-177625000D01*
X364693000Y-175075000D02*
X364693000Y-177615000D01*
X361493000Y-175065000D02*
X364693000Y-175065000D01*
X365093000Y-176465000D02*
X364843000Y-176465000D01*
X363093000Y-174985000D02*
X363093000Y-174545000D01*
X360193000Y-174965000D02*
X365993000Y-174965000D01*
X365113000Y-176465000D02*
X367693000Y-176465000D01*
%TO.C,D94*%
X380518000Y-177595000D02*
X380518000Y-175065000D01*
X383728000Y-177625000D02*
X380518000Y-177625000D01*
X383718000Y-175075000D02*
X383718000Y-177615000D01*
X380518000Y-175065000D02*
X383718000Y-175065000D01*
X384118000Y-176465000D02*
X383868000Y-176465000D01*
X382118000Y-174985000D02*
X382118000Y-174545000D01*
X379218000Y-174965000D02*
X385018000Y-174965000D01*
X384138000Y-176465000D02*
X386718000Y-176465000D01*
%TO.C,D99*%
X282753000Y-101917000D02*
X282753000Y-99387000D01*
X285963000Y-101947000D02*
X282753000Y-101947000D01*
X285953000Y-99397000D02*
X285953000Y-101937000D01*
X282753000Y-99387000D02*
X285953000Y-99387000D01*
X286353000Y-100787000D02*
X286103000Y-100787000D01*
X284353000Y-99307000D02*
X284353000Y-98867000D01*
X281453000Y-99287000D02*
X287253000Y-99287000D01*
X286373000Y-100787000D02*
X288953000Y-100787000D01*
%TO.C,J1*%
X307400000Y-180200000D02*
X307400000Y-179377530D01*
X307400000Y-177492470D02*
X307400000Y-176670000D01*
X307400000Y-178762470D02*
X307400000Y-178107530D01*
X299845000Y-180200000D02*
X307400000Y-180200000D01*
X298390000Y-176670000D02*
X307400000Y-176670000D01*
X299845000Y-180200000D02*
X299845000Y-179633471D01*
X299845000Y-178506529D02*
X299845000Y-178363471D01*
X299791529Y-178310000D02*
X299648471Y-178310000D01*
X298521529Y-178310000D02*
X298390000Y-178310000D01*
X298390000Y-178310000D02*
X298390000Y-178107530D01*
X298390000Y-177492470D02*
X298390000Y-176670000D01*
X299085000Y-180200000D02*
X298325000Y-180200000D01*
X298325000Y-180200000D02*
X298325000Y-179070000D01*
%TO.C,U1*%
D10*
X315682380Y-97281904D02*
X316491904Y-97281904D01*
X316587142Y-97234285D01*
X316634761Y-97186666D01*
X316682380Y-97091428D01*
X316682380Y-96900952D01*
X316634761Y-96805714D01*
X316587142Y-96758095D01*
X316491904Y-96710476D01*
X315682380Y-96710476D01*
X316682380Y-95710476D02*
X316682380Y-96281904D01*
X316682380Y-95996190D02*
X315682380Y-95996190D01*
X315825238Y-96091428D01*
X315920476Y-96186666D01*
X315968095Y-96281904D01*
X305243666Y-101626666D02*
X304543666Y-101626666D01*
X305043666Y-101393333D01*
X304543666Y-101160000D01*
X305243666Y-101160000D01*
X304877000Y-100826666D02*
X304877000Y-100593333D01*
X305243666Y-100493333D02*
X305243666Y-100826666D01*
X304543666Y-100826666D01*
X304543666Y-100493333D01*
X304577000Y-99826666D02*
X304543666Y-99893333D01*
X304543666Y-99993333D01*
X304577000Y-100093333D01*
X304643666Y-100160000D01*
X304710333Y-100193333D01*
X304843666Y-100226666D01*
X304943666Y-100226666D01*
X305077000Y-100193333D01*
X305143666Y-100160000D01*
X305210333Y-100093333D01*
X305243666Y-99993333D01*
X305243666Y-99926666D01*
X305210333Y-99826666D01*
X305177000Y-99793333D01*
X304943666Y-99793333D01*
X304943666Y-99926666D01*
X305043666Y-99526666D02*
X305043666Y-99193333D01*
X305243666Y-99593333D02*
X304543666Y-99360000D01*
X305243666Y-99126666D01*
X304543666Y-98960000D02*
X304543666Y-98526666D01*
X304810333Y-98760000D01*
X304810333Y-98660000D01*
X304843666Y-98593333D01*
X304877000Y-98560000D01*
X304943666Y-98526666D01*
X305110333Y-98526666D01*
X305177000Y-98560000D01*
X305210333Y-98593333D01*
X305243666Y-98660000D01*
X305243666Y-98860000D01*
X305210333Y-98926666D01*
X305177000Y-98960000D01*
X304610333Y-98260000D02*
X304577000Y-98226666D01*
X304543666Y-98160000D01*
X304543666Y-97993333D01*
X304577000Y-97926666D01*
X304610333Y-97893333D01*
X304677000Y-97860000D01*
X304743666Y-97860000D01*
X304843666Y-97893333D01*
X305243666Y-98293333D01*
X305243666Y-97860000D01*
X304543666Y-97560000D02*
X305110333Y-97560000D01*
X305177000Y-97526666D01*
X305210333Y-97493333D01*
X305243666Y-97426666D01*
X305243666Y-97293333D01*
X305210333Y-97226666D01*
X305177000Y-97193333D01*
X305110333Y-97160000D01*
X304543666Y-97160000D01*
X304777000Y-96526666D02*
X305243666Y-96526666D01*
X304510333Y-96693333D02*
X305010333Y-96860000D01*
X305010333Y-96426666D01*
%TO.C,WinKey1*%
D14*
X75129571Y-175266047D02*
X75347285Y-175326523D01*
X75710142Y-175326523D01*
X75855285Y-175266047D01*
X75927857Y-175205571D01*
X76000428Y-175084619D01*
X76000428Y-174963666D01*
X75927857Y-174842714D01*
X75855285Y-174782238D01*
X75710142Y-174721761D01*
X75419857Y-174661285D01*
X75274714Y-174600809D01*
X75202142Y-174540333D01*
X75129571Y-174419380D01*
X75129571Y-174298428D01*
X75202142Y-174177476D01*
X75274714Y-174117000D01*
X75419857Y-174056523D01*
X75782714Y-174056523D01*
X76000428Y-174117000D01*
X76508428Y-174056523D02*
X76871285Y-175326523D01*
X77161571Y-174419380D01*
X77451857Y-175326523D01*
X77814714Y-174056523D01*
X78613000Y-175205571D02*
X78685571Y-175266047D01*
X78613000Y-175326523D01*
X78540428Y-175266047D01*
X78613000Y-175205571D01*
X78613000Y-175326523D01*
X78322714Y-174117000D02*
X78467857Y-174056523D01*
X78830714Y-174056523D01*
X78975857Y-174117000D01*
X79048428Y-174237952D01*
X79048428Y-174358904D01*
X78975857Y-174479857D01*
X78903285Y-174540333D01*
X78758142Y-174600809D01*
X78685571Y-174661285D01*
X78613000Y-174782238D01*
X78613000Y-174842714D01*
%TO.C,TAB1*%
X34489571Y-118116047D02*
X34707285Y-118176523D01*
X35070142Y-118176523D01*
X35215285Y-118116047D01*
X35287857Y-118055571D01*
X35360428Y-117934619D01*
X35360428Y-117813666D01*
X35287857Y-117692714D01*
X35215285Y-117632238D01*
X35070142Y-117571761D01*
X34779857Y-117511285D01*
X34634714Y-117450809D01*
X34562142Y-117390333D01*
X34489571Y-117269380D01*
X34489571Y-117148428D01*
X34562142Y-117027476D01*
X34634714Y-116967000D01*
X34779857Y-116906523D01*
X35142714Y-116906523D01*
X35360428Y-116967000D01*
X35868428Y-116906523D02*
X36231285Y-118176523D01*
X36521571Y-117269380D01*
X36811857Y-118176523D01*
X37174714Y-116906523D01*
X37973000Y-118055571D02*
X38045571Y-118116047D01*
X37973000Y-118176523D01*
X37900428Y-118116047D01*
X37973000Y-118055571D01*
X37973000Y-118176523D01*
X37682714Y-116967000D02*
X37827857Y-116906523D01*
X38190714Y-116906523D01*
X38335857Y-116967000D01*
X38408428Y-117087952D01*
X38408428Y-117208904D01*
X38335857Y-117329857D01*
X38263285Y-117390333D01*
X38118142Y-117450809D01*
X38045571Y-117511285D01*
X37973000Y-117632238D01*
X37973000Y-117692714D01*
%TO.C,CAPS1*%
X37029571Y-137166047D02*
X37247285Y-137226523D01*
X37610142Y-137226523D01*
X37755285Y-137166047D01*
X37827857Y-137105571D01*
X37900428Y-136984619D01*
X37900428Y-136863666D01*
X37827857Y-136742714D01*
X37755285Y-136682238D01*
X37610142Y-136621761D01*
X37319857Y-136561285D01*
X37174714Y-136500809D01*
X37102142Y-136440333D01*
X37029571Y-136319380D01*
X37029571Y-136198428D01*
X37102142Y-136077476D01*
X37174714Y-136017000D01*
X37319857Y-135956523D01*
X37682714Y-135956523D01*
X37900428Y-136017000D01*
X38408428Y-135956523D02*
X38771285Y-137226523D01*
X39061571Y-136319380D01*
X39351857Y-137226523D01*
X39714714Y-135956523D01*
X40513000Y-137105571D02*
X40585571Y-137166047D01*
X40513000Y-137226523D01*
X40440428Y-137166047D01*
X40513000Y-137105571D01*
X40513000Y-137226523D01*
X40222714Y-136017000D02*
X40367857Y-135956523D01*
X40730714Y-135956523D01*
X40875857Y-136017000D01*
X40948428Y-136137952D01*
X40948428Y-136258904D01*
X40875857Y-136379857D01*
X40803285Y-136440333D01*
X40658142Y-136500809D01*
X40585571Y-136561285D01*
X40513000Y-136682238D01*
X40513000Y-136742714D01*
%TO.C,Backspace1*%
X282139571Y-99066047D02*
X282357285Y-99126523D01*
X282720142Y-99126523D01*
X282865285Y-99066047D01*
X282937857Y-99005571D01*
X283010428Y-98884619D01*
X283010428Y-98763666D01*
X282937857Y-98642714D01*
X282865285Y-98582238D01*
X282720142Y-98521761D01*
X282429857Y-98461285D01*
X282284714Y-98400809D01*
X282212142Y-98340333D01*
X282139571Y-98219380D01*
X282139571Y-98098428D01*
X282212142Y-97977476D01*
X282284714Y-97917000D01*
X282429857Y-97856523D01*
X282792714Y-97856523D01*
X283010428Y-97917000D01*
X283518428Y-97856523D02*
X283881285Y-99126523D01*
X284171571Y-98219380D01*
X284461857Y-99126523D01*
X284824714Y-97856523D01*
X285623000Y-99005571D02*
X285695571Y-99066047D01*
X285623000Y-99126523D01*
X285550428Y-99066047D01*
X285623000Y-99005571D01*
X285623000Y-99126523D01*
X285332714Y-97917000D02*
X285477857Y-97856523D01*
X285840714Y-97856523D01*
X285985857Y-97917000D01*
X286058428Y-98037952D01*
X286058428Y-98158904D01*
X285985857Y-98279857D01*
X285913285Y-98340333D01*
X285768142Y-98400809D01*
X285695571Y-98461285D01*
X285623000Y-98582238D01*
X285623000Y-98642714D01*
%TO.C,RIGHT-SHIFT1*%
X272995571Y-156216047D02*
X273213285Y-156276523D01*
X273576142Y-156276523D01*
X273721285Y-156216047D01*
X273793857Y-156155571D01*
X273866428Y-156034619D01*
X273866428Y-155913666D01*
X273793857Y-155792714D01*
X273721285Y-155732238D01*
X273576142Y-155671761D01*
X273285857Y-155611285D01*
X273140714Y-155550809D01*
X273068142Y-155490333D01*
X272995571Y-155369380D01*
X272995571Y-155248428D01*
X273068142Y-155127476D01*
X273140714Y-155067000D01*
X273285857Y-155006523D01*
X273648714Y-155006523D01*
X273866428Y-155067000D01*
X274374428Y-155006523D02*
X274737285Y-156276523D01*
X275027571Y-155369380D01*
X275317857Y-156276523D01*
X275680714Y-155006523D01*
X276479000Y-156155571D02*
X276551571Y-156216047D01*
X276479000Y-156276523D01*
X276406428Y-156216047D01*
X276479000Y-156155571D01*
X276479000Y-156276523D01*
X276188714Y-155067000D02*
X276333857Y-155006523D01*
X276696714Y-155006523D01*
X276841857Y-155067000D01*
X276914428Y-155187952D01*
X276914428Y-155308904D01*
X276841857Y-155429857D01*
X276769285Y-155490333D01*
X276624142Y-155550809D01*
X276551571Y-155611285D01*
X276479000Y-155732238D01*
X276479000Y-155792714D01*
%TO.C,LEFT-SPACE1*%
X129993571Y-175266047D02*
X130211285Y-175326523D01*
X130574142Y-175326523D01*
X130719285Y-175266047D01*
X130791857Y-175205571D01*
X130864428Y-175084619D01*
X130864428Y-174963666D01*
X130791857Y-174842714D01*
X130719285Y-174782238D01*
X130574142Y-174721761D01*
X130283857Y-174661285D01*
X130138714Y-174600809D01*
X130066142Y-174540333D01*
X129993571Y-174419380D01*
X129993571Y-174298428D01*
X130066142Y-174177476D01*
X130138714Y-174117000D01*
X130283857Y-174056523D01*
X130646714Y-174056523D01*
X130864428Y-174117000D01*
X131372428Y-174056523D02*
X131735285Y-175326523D01*
X132025571Y-174419380D01*
X132315857Y-175326523D01*
X132678714Y-174056523D01*
X133477000Y-175205571D02*
X133549571Y-175266047D01*
X133477000Y-175326523D01*
X133404428Y-175266047D01*
X133477000Y-175205571D01*
X133477000Y-175326523D01*
X133186714Y-174117000D02*
X133331857Y-174056523D01*
X133694714Y-174056523D01*
X133839857Y-174117000D01*
X133912428Y-174237952D01*
X133912428Y-174358904D01*
X133839857Y-174479857D01*
X133767285Y-174540333D01*
X133622142Y-174600809D01*
X133549571Y-174661285D01*
X133477000Y-174782238D01*
X133477000Y-174842714D01*
%TO.C,RIGHT-SPACE1*%
X211019571Y-175266047D02*
X211237285Y-175326523D01*
X211600142Y-175326523D01*
X211745285Y-175266047D01*
X211817857Y-175205571D01*
X211890428Y-175084619D01*
X211890428Y-174963666D01*
X211817857Y-174842714D01*
X211745285Y-174782238D01*
X211600142Y-174721761D01*
X211309857Y-174661285D01*
X211164714Y-174600809D01*
X211092142Y-174540333D01*
X211019571Y-174419380D01*
X211019571Y-174298428D01*
X211092142Y-174177476D01*
X211164714Y-174117000D01*
X211309857Y-174056523D01*
X211672714Y-174056523D01*
X211890428Y-174117000D01*
X212398428Y-174056523D02*
X212761285Y-175326523D01*
X213051571Y-174419380D01*
X213341857Y-175326523D01*
X213704714Y-174056523D01*
X214503000Y-175205571D02*
X214575571Y-175266047D01*
X214503000Y-175326523D01*
X214430428Y-175266047D01*
X214503000Y-175205571D01*
X214503000Y-175326523D01*
X214212714Y-174117000D02*
X214357857Y-174056523D01*
X214720714Y-174056523D01*
X214865857Y-174117000D01*
X214938428Y-174237952D01*
X214938428Y-174358904D01*
X214865857Y-174479857D01*
X214793285Y-174540333D01*
X214648142Y-174600809D01*
X214575571Y-174661285D01*
X214503000Y-174782238D01*
X214503000Y-174842714D01*
%TO.C,ENTER1*%
X277567571Y-137166047D02*
X277785285Y-137226523D01*
X278148142Y-137226523D01*
X278293285Y-137166047D01*
X278365857Y-137105571D01*
X278438428Y-136984619D01*
X278438428Y-136863666D01*
X278365857Y-136742714D01*
X278293285Y-136682238D01*
X278148142Y-136621761D01*
X277857857Y-136561285D01*
X277712714Y-136500809D01*
X277640142Y-136440333D01*
X277567571Y-136319380D01*
X277567571Y-136198428D01*
X277640142Y-136077476D01*
X277712714Y-136017000D01*
X277857857Y-135956523D01*
X278220714Y-135956523D01*
X278438428Y-136017000D01*
X278946428Y-135956523D02*
X279309285Y-137226523D01*
X279599571Y-136319380D01*
X279889857Y-137226523D01*
X280252714Y-135956523D01*
X281051000Y-137105571D02*
X281123571Y-137166047D01*
X281051000Y-137226523D01*
X280978428Y-137166047D01*
X281051000Y-137105571D01*
X281051000Y-137226523D01*
X280760714Y-136017000D02*
X280905857Y-135956523D01*
X281268714Y-135956523D01*
X281413857Y-136017000D01*
X281486428Y-136137952D01*
X281486428Y-136258904D01*
X281413857Y-136379857D01*
X281341285Y-136440333D01*
X281196142Y-136500809D01*
X281123571Y-136561285D01*
X281051000Y-136682238D01*
X281051000Y-136742714D01*
%TO.C,SW44*%
X244293571Y-175266047D02*
X244511285Y-175326523D01*
X244874142Y-175326523D01*
X245019285Y-175266047D01*
X245091857Y-175205571D01*
X245164428Y-175084619D01*
X245164428Y-174963666D01*
X245091857Y-174842714D01*
X245019285Y-174782238D01*
X244874142Y-174721761D01*
X244583857Y-174661285D01*
X244438714Y-174600809D01*
X244366142Y-174540333D01*
X244293571Y-174419380D01*
X244293571Y-174298428D01*
X244366142Y-174177476D01*
X244438714Y-174117000D01*
X244583857Y-174056523D01*
X244946714Y-174056523D01*
X245164428Y-174117000D01*
X245672428Y-174056523D02*
X246035285Y-175326523D01*
X246325571Y-174419380D01*
X246615857Y-175326523D01*
X246978714Y-174056523D01*
X247777000Y-175205571D02*
X247849571Y-175266047D01*
X247777000Y-175326523D01*
X247704428Y-175266047D01*
X247777000Y-175205571D01*
X247777000Y-175326523D01*
X247486714Y-174117000D02*
X247631857Y-174056523D01*
X247994714Y-174056523D01*
X248139857Y-174117000D01*
X248212428Y-174237952D01*
X248212428Y-174358904D01*
X248139857Y-174479857D01*
X248067285Y-174540333D01*
X247922142Y-174600809D01*
X247849571Y-174661285D01*
X247777000Y-174782238D01*
X247777000Y-174842714D01*
%TO.C,LEFT-SHIFT1*%
X41855571Y-156216047D02*
X42073285Y-156276523D01*
X42436142Y-156276523D01*
X42581285Y-156216047D01*
X42653857Y-156155571D01*
X42726428Y-156034619D01*
X42726428Y-155913666D01*
X42653857Y-155792714D01*
X42581285Y-155732238D01*
X42436142Y-155671761D01*
X42145857Y-155611285D01*
X42000714Y-155550809D01*
X41928142Y-155490333D01*
X41855571Y-155369380D01*
X41855571Y-155248428D01*
X41928142Y-155127476D01*
X42000714Y-155067000D01*
X42145857Y-155006523D01*
X42508714Y-155006523D01*
X42726428Y-155067000D01*
X43234428Y-155006523D02*
X43597285Y-156276523D01*
X43887571Y-155369380D01*
X44177857Y-156276523D01*
X44540714Y-155006523D01*
X45339000Y-156155571D02*
X45411571Y-156216047D01*
X45339000Y-156276523D01*
X45266428Y-156216047D01*
X45339000Y-156155571D01*
X45339000Y-156276523D01*
X45048714Y-155067000D02*
X45193857Y-155006523D01*
X45556714Y-155006523D01*
X45701857Y-155067000D01*
X45774428Y-155187952D01*
X45774428Y-155308904D01*
X45701857Y-155429857D01*
X45629285Y-155490333D01*
X45484142Y-155550809D01*
X45411571Y-155611285D01*
X45339000Y-155732238D01*
X45339000Y-155792714D01*
%TO.C,J1*%
D10*
X296842380Y-178768333D02*
X297556666Y-178768333D01*
X297699523Y-178815952D01*
X297794761Y-178911190D01*
X297842380Y-179054047D01*
X297842380Y-179149285D01*
X297842380Y-177768333D02*
X297842380Y-178339761D01*
X297842380Y-178054047D02*
X296842380Y-178054047D01*
X296985238Y-178149285D01*
X297080476Y-178244523D01*
X297128095Y-178339761D01*
%TD*%
M02*
