%TF.GenerationSoftware,KiCad,Pcbnew,(5.1.9)-1*%
%TF.CreationDate,2021-05-14T10:19:55-07:00*%
%TF.ProjectId,chgray-keyboard,63686772-6179-42d6-9b65-79626f617264,rev?*%
%TF.SameCoordinates,Original*%
%TF.FileFunction,Paste,Bot*%
%TF.FilePolarity,Positive*%
%FSLAX46Y46*%
G04 Gerber Fmt 4.6, Leading zero omitted, Abs format (unit mm)*
G04 Created by KiCad (PCBNEW (5.1.9)-1) date 2021-05-14 10:19:55*
%MOMM*%
%LPD*%
G01*
G04 APERTURE LIST*
%ADD10R,0.900000X1.200000*%
%ADD11R,2.550000X2.500000*%
%ADD12R,1.600000X0.850000*%
G04 APERTURE END LIST*
D10*
%TO.C,D1*%
X74243200Y-143027000D03*
X70943200Y-143027000D03*
%TD*%
%TO.C,D2*%
X73939400Y-161950000D03*
X70639400Y-161950000D03*
%TD*%
%TO.C,D3*%
X308016000Y-160613000D03*
X304716000Y-160613000D03*
%TD*%
%TO.C,D4*%
X256662000Y-143027000D03*
X253362000Y-143027000D03*
%TD*%
%TO.C,D5*%
X36803600Y-104902000D03*
X33503600Y-104902000D03*
%TD*%
%TO.C,D6*%
X74829400Y-123723000D03*
X71529400Y-123723000D03*
%TD*%
%TO.C,D7*%
X56008200Y-104902000D03*
X52708200Y-104902000D03*
%TD*%
%TO.C,D8*%
X93664400Y-123723000D03*
X90364400Y-123723000D03*
%TD*%
%TO.C,D9*%
X92485100Y-143027000D03*
X89185100Y-143027000D03*
%TD*%
%TO.C,D10*%
X93043700Y-161950000D03*
X89743700Y-161950000D03*
%TD*%
%TO.C,D11*%
X308016000Y-163689000D03*
X304716000Y-163689000D03*
%TD*%
%TO.C,D12*%
X278204000Y-143027000D03*
X274904000Y-143027000D03*
%TD*%
%TO.C,D13*%
X110727000Y-143027000D03*
X107427000Y-143027000D03*
%TD*%
%TO.C,D14*%
X112148000Y-161950000D03*
X108848000Y-161950000D03*
%TD*%
%TO.C,D15*%
X308016000Y-151384000D03*
X304716000Y-151384000D03*
%TD*%
%TO.C,D16*%
X313261000Y-146603000D03*
X309961000Y-146603000D03*
%TD*%
%TO.C,D17*%
X75212800Y-104902000D03*
X71912800Y-104902000D03*
%TD*%
%TO.C,D18*%
X112500000Y-123723000D03*
X109200000Y-123723000D03*
%TD*%
%TO.C,D19*%
X94417500Y-104902000D03*
X91117500Y-104902000D03*
%TD*%
%TO.C,D20*%
X131335000Y-123723000D03*
X128035000Y-123723000D03*
%TD*%
%TO.C,D21*%
X128969000Y-143027000D03*
X125669000Y-143027000D03*
%TD*%
%TO.C,D22*%
X131252000Y-161950000D03*
X127952000Y-161950000D03*
%TD*%
%TO.C,D23*%
X308016000Y-154460000D03*
X304716000Y-154460000D03*
%TD*%
%TO.C,D24*%
X263180000Y-123723000D03*
X259880000Y-123723000D03*
%TD*%
%TO.C,D25*%
X147211000Y-143027000D03*
X143911000Y-143027000D03*
%TD*%
%TO.C,D26*%
X150357000Y-161950000D03*
X147057000Y-161950000D03*
%TD*%
%TO.C,D27*%
X308016000Y-157536000D03*
X304716000Y-157536000D03*
%TD*%
%TO.C,D28*%
X165453000Y-143027000D03*
X162153000Y-143027000D03*
%TD*%
%TO.C,D29*%
X113622000Y-104902000D03*
X110322000Y-104902000D03*
%TD*%
%TO.C,D30*%
X150170000Y-123723000D03*
X146870000Y-123723000D03*
%TD*%
%TO.C,D31*%
X132827000Y-104902000D03*
X129527000Y-104902000D03*
%TD*%
%TO.C,D32*%
X169005000Y-123723000D03*
X165705000Y-123723000D03*
%TD*%
%TO.C,D33*%
X282015000Y-123723000D03*
X278715000Y-123723000D03*
%TD*%
%TO.C,D34*%
X169461000Y-161950000D03*
X166161000Y-161950000D03*
%TD*%
%TO.C,D35*%
X308016000Y-166765000D03*
X304716000Y-166765000D03*
%TD*%
%TO.C,D36*%
X313261000Y-131493000D03*
X309961000Y-131493000D03*
%TD*%
%TO.C,D37*%
X183695000Y-143027000D03*
X180395000Y-143027000D03*
%TD*%
%TO.C,D38*%
X188565000Y-161950000D03*
X185265000Y-161950000D03*
%TD*%
%TO.C,D39*%
X308016000Y-169841000D03*
X304716000Y-169841000D03*
%TD*%
%TO.C,D40*%
X341653000Y-142977000D03*
X338353000Y-142977000D03*
%TD*%
%TO.C,D41*%
X152031000Y-104902000D03*
X148731000Y-104902000D03*
%TD*%
%TO.C,D42*%
X187840000Y-123723000D03*
X184540000Y-123723000D03*
%TD*%
%TO.C,D43*%
X171236000Y-104902000D03*
X167936000Y-104902000D03*
%TD*%
%TO.C,D44*%
X206675000Y-123723000D03*
X203375000Y-123723000D03*
%TD*%
%TO.C,D45*%
X201937000Y-143027000D03*
X198637000Y-143027000D03*
%TD*%
%TO.C,D46*%
X207669000Y-161950000D03*
X204369000Y-161950000D03*
%TD*%
%TO.C,D47*%
X302385000Y-164465000D03*
X299085000Y-164465000D03*
%TD*%
%TO.C,D48*%
X248054000Y-104902000D03*
X244754000Y-104902000D03*
%TD*%
%TO.C,D49*%
X220178000Y-143027000D03*
X216878000Y-143027000D03*
%TD*%
%TO.C,D50*%
X354889000Y-143256000D03*
X351589000Y-143256000D03*
%TD*%
%TO.C,D51*%
X302385000Y-173355000D03*
X299085000Y-173355000D03*
%TD*%
%TO.C,D52*%
X313261000Y-137537000D03*
X309961000Y-137537000D03*
%TD*%
%TO.C,D53*%
X190441000Y-104902000D03*
X187141000Y-104902000D03*
%TD*%
%TO.C,D54*%
X225510000Y-123723000D03*
X222210000Y-123723000D03*
%TD*%
%TO.C,D55*%
X209645000Y-104902000D03*
X206345000Y-104902000D03*
%TD*%
%TO.C,D56*%
X244345000Y-123723000D03*
X241045000Y-123723000D03*
%TD*%
%TO.C,D57*%
X238420000Y-143027000D03*
X235120000Y-143027000D03*
%TD*%
%TO.C,D58*%
X365480000Y-143256000D03*
X362180000Y-143256000D03*
%TD*%
%TO.C,D59*%
X302385000Y-167005000D03*
X299085000Y-167005000D03*
%TD*%
%TO.C,D60*%
X376070000Y-143256000D03*
X372770000Y-143256000D03*
%TD*%
%TO.C,D61*%
X228850000Y-104902000D03*
X225550000Y-104902000D03*
%TD*%
%TO.C,D62*%
X313261000Y-128471000D03*
X309961000Y-128471000D03*
%TD*%
%TO.C,D63*%
X313261000Y-164735000D03*
X309961000Y-164735000D03*
%TD*%
%TO.C,D64*%
X313261000Y-149625000D03*
X309961000Y-149625000D03*
%TD*%
%TO.C,D65*%
X313261000Y-155669000D03*
X309961000Y-155669000D03*
%TD*%
%TO.C,D66*%
X313261000Y-140559000D03*
X309961000Y-140559000D03*
%TD*%
%TO.C,D67*%
X313261000Y-161713000D03*
X309961000Y-161713000D03*
%TD*%
%TO.C,D68*%
X313261000Y-143581000D03*
X309961000Y-143581000D03*
%TD*%
%TO.C,D69*%
X313261000Y-167757000D03*
X309961000Y-167757000D03*
%TD*%
%TO.C,D70*%
X313261000Y-134515000D03*
X309961000Y-134515000D03*
%TD*%
%TO.C,D71*%
X313261000Y-170779000D03*
X309961000Y-170779000D03*
%TD*%
%TO.C,D72*%
X313261000Y-152647000D03*
X309961000Y-152647000D03*
%TD*%
D11*
%TO.C,SW1*%
X374583000Y-112141000D03*
X388433000Y-109601000D03*
%TD*%
%TO.C,SW2*%
X26603000Y-169037000D03*
X40453000Y-166497000D03*
%TD*%
%TO.C,SW3*%
X217357000Y-149987000D03*
X231207000Y-147447000D03*
%TD*%
%TO.C,SW4*%
X26603000Y-92837000D03*
X40453000Y-90297000D03*
%TD*%
%TO.C,SW5*%
X45653000Y-92837000D03*
X59503000Y-90297000D03*
%TD*%
%TO.C,SW6*%
X50479000Y-111887000D03*
X64329000Y-109347000D03*
%TD*%
%TO.C,SW7*%
X55305000Y-130937000D03*
X69155000Y-128397000D03*
%TD*%
%TO.C,SW8*%
X45653000Y-169037000D03*
X59503000Y-166497000D03*
%TD*%
%TO.C,SW9*%
X317433000Y-150241000D03*
X331283000Y-147701000D03*
%TD*%
%TO.C,SW10*%
X74355000Y-130937000D03*
X88205000Y-128397000D03*
%TD*%
%TO.C,SW11*%
X64957000Y-149987000D03*
X78807000Y-147447000D03*
%TD*%
%TO.C,SW12*%
X374583000Y-131191000D03*
X388433000Y-128651000D03*
%TD*%
%TO.C,SW13*%
X64703000Y-92837000D03*
X78553000Y-90297000D03*
%TD*%
%TO.C,SW14*%
X69529000Y-111887000D03*
X83379000Y-109347000D03*
%TD*%
%TO.C,SW15*%
X83753000Y-92837000D03*
X97603000Y-90297000D03*
%TD*%
%TO.C,SW16*%
X88579000Y-111887000D03*
X102429000Y-109347000D03*
%TD*%
%TO.C,SW17*%
X93405000Y-130937000D03*
X107255000Y-128397000D03*
%TD*%
%TO.C,SW18*%
X84007000Y-149987000D03*
X97857000Y-147447000D03*
%TD*%
%TO.C,SW19*%
X93405000Y-169037000D03*
X107255000Y-166497000D03*
%TD*%
%TO.C,SW20*%
X221929000Y-111887000D03*
X235779000Y-109347000D03*
%TD*%
%TO.C,SW21*%
X112455000Y-130937000D03*
X126305000Y-128397000D03*
%TD*%
%TO.C,SW22*%
X103057000Y-149987000D03*
X116907000Y-147447000D03*
%TD*%
%TO.C,SW23*%
X240979000Y-111887000D03*
X254829000Y-109347000D03*
%TD*%
%TO.C,SW24*%
X102803000Y-92837000D03*
X116653000Y-90297000D03*
%TD*%
%TO.C,SW25*%
X107629000Y-111887000D03*
X121479000Y-109347000D03*
%TD*%
%TO.C,SW26*%
X121853000Y-92837000D03*
X135703000Y-90297000D03*
%TD*%
%TO.C,SW27*%
X126679000Y-111887000D03*
X140529000Y-109347000D03*
%TD*%
%TO.C,SW28*%
X131251000Y-130937000D03*
X145101000Y-128397000D03*
%TD*%
%TO.C,SW29*%
X122107000Y-149987000D03*
X135957000Y-147447000D03*
%TD*%
%TO.C,SW30*%
X155381000Y-169037000D03*
X169231000Y-166497000D03*
%TD*%
%TO.C,SW31*%
X150301000Y-130937000D03*
X164151000Y-128397000D03*
%TD*%
%TO.C,SW32*%
X141157000Y-149987000D03*
X155007000Y-147447000D03*
%TD*%
%TO.C,SW33*%
X174431000Y-169037000D03*
X188281000Y-166497000D03*
%TD*%
%TO.C,SW34*%
X236407000Y-149987000D03*
X250257000Y-147447000D03*
%TD*%
%TO.C,SW35*%
X140903000Y-92837000D03*
X154753000Y-90297000D03*
%TD*%
%TO.C,SW36*%
X145729000Y-111887000D03*
X159579000Y-109347000D03*
%TD*%
%TO.C,SW37*%
X159953000Y-92837000D03*
X173803000Y-90297000D03*
%TD*%
%TO.C,SW38*%
X164779000Y-111887000D03*
X178629000Y-109347000D03*
%TD*%
%TO.C,SW39*%
X169351000Y-130937000D03*
X183201000Y-128397000D03*
%TD*%
%TO.C,SW40*%
X160207000Y-149987000D03*
X174057000Y-147447000D03*
%TD*%
%TO.C,SW41*%
X236153000Y-92837000D03*
X250003000Y-90297000D03*
%TD*%
%TO.C,SW42*%
X188401000Y-130937000D03*
X202251000Y-128397000D03*
%TD*%
%TO.C,SW43*%
X179257000Y-149987000D03*
X193107000Y-147447000D03*
%TD*%
%TO.C,SW45*%
X255203000Y-92837000D03*
X269053000Y-90297000D03*
%TD*%
%TO.C,SW46*%
X179003000Y-92837000D03*
X192853000Y-90297000D03*
%TD*%
%TO.C,SW47*%
X183829000Y-111887000D03*
X197679000Y-109347000D03*
%TD*%
%TO.C,SW48*%
X198053000Y-92837000D03*
X211903000Y-90297000D03*
%TD*%
%TO.C,SW49*%
X202879000Y-111887000D03*
X216729000Y-109347000D03*
%TD*%
%TO.C,SW50*%
X207451000Y-130937000D03*
X221301000Y-128397000D03*
%TD*%
%TO.C,SW51*%
X198307000Y-149987000D03*
X212157000Y-147447000D03*
%TD*%
%TO.C,SW53*%
X217103000Y-92837000D03*
X230953000Y-90297000D03*
%TD*%
%TO.C,SW54*%
X336483000Y-131191000D03*
X350333000Y-128651000D03*
%TD*%
%TO.C,SW55*%
X260029000Y-111887000D03*
X273879000Y-109347000D03*
%TD*%
%TO.C,SW56*%
X355533000Y-131191000D03*
X369383000Y-128651000D03*
%TD*%
%TO.C,SW57*%
X226501000Y-130937000D03*
X240351000Y-128397000D03*
%TD*%
%TO.C,SW58*%
X245551000Y-130937000D03*
X259401000Y-128397000D03*
%TD*%
%TO.C,SW59*%
X279079000Y-111887000D03*
X292929000Y-109347000D03*
%TD*%
%TO.C,SW61*%
X279333000Y-169037000D03*
X293183000Y-166497000D03*
%TD*%
%TO.C,SW62*%
X336483000Y-112141000D03*
X350333000Y-109601000D03*
%TD*%
%TO.C,SW63*%
X317433000Y-112141000D03*
X331283000Y-109601000D03*
%TD*%
%TO.C,SW60*%
X317433000Y-131191000D03*
X331283000Y-128651000D03*
%TD*%
%TO.C,WinKey1*%
X69539000Y-169027000D03*
X83389000Y-166487000D03*
%TD*%
%TO.C,TAB1*%
X28899000Y-111877000D03*
X42749000Y-109337000D03*
%TD*%
%TO.C,CAPS1*%
X31439000Y-130927000D03*
X45289000Y-128387000D03*
%TD*%
%TO.C,Backspace1*%
X276549000Y-92827000D03*
X290399000Y-90287000D03*
%TD*%
%TO.C,RIGHT-SHIFT1*%
X267405000Y-149977000D03*
X281255000Y-147437000D03*
%TD*%
%TO.C,LEFT-SPACE1*%
X124403000Y-169027000D03*
X138253000Y-166487000D03*
%TD*%
%TO.C,RIGHT-SPACE1*%
X205429000Y-169027000D03*
X219279000Y-166487000D03*
%TD*%
D10*
%TO.C,D73*%
X302385000Y-170180000D03*
X299085000Y-170180000D03*
%TD*%
%TO.C,D74*%
X313261000Y-125449000D03*
X309961000Y-125449000D03*
%TD*%
%TO.C,D75*%
X313261000Y-122427000D03*
X309961000Y-122427000D03*
%TD*%
%TO.C,D76*%
X313261000Y-176823000D03*
X309961000Y-176823000D03*
%TD*%
%TO.C,D77*%
X334212000Y-142977000D03*
X330912000Y-142977000D03*
%TD*%
%TO.C,D78*%
X313261000Y-119405000D03*
X309961000Y-119405000D03*
%TD*%
%TO.C,D79*%
X313261000Y-158691000D03*
X309961000Y-158691000D03*
%TD*%
%TO.C,D80*%
X313261000Y-116383000D03*
X309961000Y-116383000D03*
%TD*%
%TO.C,D81*%
X313261000Y-173801000D03*
X309961000Y-173801000D03*
%TD*%
%TO.C,D82*%
X55994300Y-123723000D03*
X52694300Y-123723000D03*
%TD*%
%TO.C,D83*%
X37159200Y-123723000D03*
X33859200Y-123723000D03*
%TD*%
%TO.C,D84*%
X326770000Y-142977000D03*
X323470000Y-142977000D03*
%TD*%
D11*
%TO.C,SW64*%
X336483000Y-150241000D03*
X350333000Y-147701000D03*
%TD*%
%TO.C,SW65*%
X317433000Y-93091000D03*
X331283000Y-90551000D03*
%TD*%
%TO.C,SW66*%
X374583000Y-169291000D03*
X388433000Y-166751000D03*
%TD*%
%TO.C,SW67*%
X355533000Y-112141000D03*
X369383000Y-109601000D03*
%TD*%
%TO.C,SW68*%
X355533000Y-150241000D03*
X369383000Y-147701000D03*
%TD*%
%TO.C,SW69*%
X374583000Y-93091000D03*
X388433000Y-90551000D03*
%TD*%
%TO.C,SW70*%
X355533000Y-93091000D03*
X369383000Y-90551000D03*
%TD*%
%TO.C,SW71*%
X355533000Y-169291000D03*
X369383000Y-166751000D03*
%TD*%
%TO.C,SW72*%
X336483000Y-169291000D03*
X350333000Y-166751000D03*
%TD*%
%TO.C,SW73*%
X317433000Y-169291000D03*
X331283000Y-166751000D03*
%TD*%
%TO.C,S2*%
X374583000Y-150241000D03*
X388433000Y-147701000D03*
%TD*%
%TO.C,S1*%
X336483000Y-93091000D03*
X350333000Y-90551000D03*
%TD*%
%TO.C,ENTER1*%
X285827000Y-128387000D03*
X271977000Y-130927000D03*
%TD*%
%TO.C,SW44*%
X238703000Y-169027000D03*
X252553000Y-166487000D03*
%TD*%
%TO.C,LEFT-SHIFT1*%
X36265000Y-149977000D03*
X50115000Y-147437000D03*
%TD*%
%TO.C,SW52*%
X260283000Y-169037000D03*
X274133000Y-166497000D03*
%TD*%
D12*
%TO.C,D85*%
X30903000Y-100684000D03*
X30883000Y-99144000D03*
X37423000Y-100804000D03*
X37433000Y-99134000D03*
%TD*%
%TO.C,D90*%
X49953000Y-100686000D03*
X49933000Y-99146000D03*
X56473000Y-100806000D03*
X56483000Y-99136000D03*
%TD*%
%TO.C,D95*%
X69003000Y-100684000D03*
X68983000Y-99144000D03*
X75523000Y-100804000D03*
X75533000Y-99134000D03*
%TD*%
%TO.C,D100*%
X88053000Y-100710000D03*
X88033000Y-99170000D03*
X94573000Y-100830000D03*
X94583000Y-99160000D03*
%TD*%
%TO.C,D104*%
X107103000Y-100686000D03*
X107083000Y-99146000D03*
X113623000Y-100806000D03*
X113633000Y-99136000D03*
%TD*%
%TO.C,D108*%
X126153000Y-100661000D03*
X126133000Y-99121000D03*
X132673000Y-100781000D03*
X132683000Y-99111000D03*
%TD*%
%TO.C,D112*%
X145228000Y-100686000D03*
X145208000Y-99146000D03*
X151748000Y-100806000D03*
X151758000Y-99136000D03*
%TD*%
%TO.C,D116*%
X164253000Y-100686000D03*
X164233000Y-99146000D03*
X170773000Y-100806000D03*
X170783000Y-99136000D03*
%TD*%
%TO.C,D120*%
X183278000Y-100686000D03*
X183258000Y-99146000D03*
X189798000Y-100806000D03*
X189808000Y-99136000D03*
%TD*%
%TO.C,D124*%
X202353000Y-100686000D03*
X202333000Y-99146000D03*
X208873000Y-100806000D03*
X208883000Y-99136000D03*
%TD*%
%TO.C,D128*%
X221428000Y-100661000D03*
X221408000Y-99121000D03*
X227948000Y-100781000D03*
X227958000Y-99111000D03*
%TD*%
%TO.C,D132*%
X240453000Y-100686000D03*
X240433000Y-99146000D03*
X246973000Y-100806000D03*
X246983000Y-99136000D03*
%TD*%
%TO.C,D136*%
X259478000Y-100711000D03*
X259458000Y-99171000D03*
X265998000Y-100831000D03*
X266008000Y-99161000D03*
%TD*%
%TO.C,D140*%
X321708000Y-100940000D03*
X321688000Y-99400000D03*
X328228000Y-101060000D03*
X328238000Y-99390000D03*
%TD*%
%TO.C,D144*%
X340783000Y-100940000D03*
X340763000Y-99400000D03*
X347303000Y-101060000D03*
X347313000Y-99390000D03*
%TD*%
%TO.C,D148*%
X359808000Y-100965000D03*
X359788000Y-99425000D03*
X366328000Y-101085000D03*
X366338000Y-99415000D03*
%TD*%
%TO.C,D152*%
X378908000Y-100915000D03*
X378888000Y-99375000D03*
X385428000Y-101035000D03*
X385438000Y-99365000D03*
%TD*%
%TO.C,D156*%
X378908000Y-119965000D03*
X378888000Y-118425000D03*
X385428000Y-120085000D03*
X385438000Y-118415000D03*
%TD*%
%TO.C,D160*%
X359858000Y-119965000D03*
X359838000Y-118425000D03*
X366378000Y-120085000D03*
X366388000Y-118415000D03*
%TD*%
%TO.C,D164*%
X340808000Y-119965000D03*
X340788000Y-118425000D03*
X347328000Y-120085000D03*
X347338000Y-118415000D03*
%TD*%
%TO.C,D168*%
X321733000Y-119990000D03*
X321713000Y-118450000D03*
X328253000Y-120110000D03*
X328263000Y-118440000D03*
%TD*%
%TO.C,D86*%
X283379000Y-119722000D03*
X283359000Y-118182000D03*
X289899000Y-119842000D03*
X289909000Y-118172000D03*
%TD*%
%TO.C,D91*%
X264329000Y-119722000D03*
X264309000Y-118182000D03*
X270849000Y-119842000D03*
X270859000Y-118172000D03*
%TD*%
%TO.C,D96*%
X245279000Y-119697000D03*
X245259000Y-118157000D03*
X251799000Y-119817000D03*
X251809000Y-118147000D03*
%TD*%
%TO.C,D101*%
X226229000Y-119722000D03*
X226209000Y-118182000D03*
X232749000Y-119842000D03*
X232759000Y-118172000D03*
%TD*%
%TO.C,D105*%
X207179000Y-119671000D03*
X207159000Y-118131000D03*
X213699000Y-119791000D03*
X213709000Y-118121000D03*
%TD*%
%TO.C,D109*%
X188154000Y-119646000D03*
X188134000Y-118106000D03*
X194674000Y-119766000D03*
X194684000Y-118096000D03*
%TD*%
%TO.C,D113*%
X169104000Y-119697000D03*
X169084000Y-118157000D03*
X175624000Y-119817000D03*
X175634000Y-118147000D03*
%TD*%
%TO.C,D117*%
X150029000Y-119685000D03*
X150009000Y-118145000D03*
X156549000Y-119805000D03*
X156559000Y-118135000D03*
%TD*%
%TO.C,D121*%
X130979000Y-119697000D03*
X130959000Y-118157000D03*
X137499000Y-119817000D03*
X137509000Y-118147000D03*
%TD*%
%TO.C,D125*%
X111904000Y-119671000D03*
X111884000Y-118131000D03*
X118424000Y-119791000D03*
X118434000Y-118121000D03*
%TD*%
%TO.C,D129*%
X92879000Y-119660000D03*
X92859000Y-118120000D03*
X99399000Y-119780000D03*
X99409000Y-118110000D03*
%TD*%
%TO.C,D133*%
X73829000Y-119711000D03*
X73809000Y-118171000D03*
X80349000Y-119831000D03*
X80359000Y-118161000D03*
%TD*%
%TO.C,D137*%
X54753600Y-119736000D03*
X54733600Y-118196000D03*
X61273600Y-119856000D03*
X61283600Y-118186000D03*
%TD*%
%TO.C,D141*%
X33189000Y-119736000D03*
X33169000Y-118196000D03*
X39709000Y-119856000D03*
X39719000Y-118186000D03*
%TD*%
%TO.C,D145*%
X35602000Y-138532000D03*
X35582000Y-136992000D03*
X42122000Y-138652000D03*
X42132000Y-136982000D03*
%TD*%
%TO.C,D149*%
X59605000Y-138786000D03*
X59585000Y-137246000D03*
X66125000Y-138906000D03*
X66135000Y-137236000D03*
%TD*%
%TO.C,D153*%
X78655000Y-138786000D03*
X78635000Y-137246000D03*
X85175000Y-138906000D03*
X85185000Y-137236000D03*
%TD*%
%TO.C,D157*%
X97680000Y-138761000D03*
X97660000Y-137221000D03*
X104200000Y-138881000D03*
X104210000Y-137211000D03*
%TD*%
%TO.C,D161*%
X116755000Y-138786000D03*
X116735000Y-137246000D03*
X123275000Y-138906000D03*
X123285000Y-137236000D03*
%TD*%
%TO.C,D165*%
X135576000Y-138786000D03*
X135556000Y-137246000D03*
X142096000Y-138906000D03*
X142106000Y-137236000D03*
%TD*%
%TO.C,D87*%
X154626000Y-138811000D03*
X154606000Y-137271000D03*
X161146000Y-138931000D03*
X161156000Y-137261000D03*
%TD*%
%TO.C,D92*%
X173651000Y-138797000D03*
X173631000Y-137257000D03*
X180171000Y-138917000D03*
X180181000Y-137247000D03*
%TD*%
%TO.C,D97*%
X192676000Y-138811000D03*
X192656000Y-137271000D03*
X199196000Y-138931000D03*
X199206000Y-137261000D03*
%TD*%
%TO.C,D102*%
X211776000Y-138761000D03*
X211756000Y-137221000D03*
X218296000Y-138881000D03*
X218306000Y-137211000D03*
%TD*%
%TO.C,D106*%
X230801000Y-138786000D03*
X230781000Y-137246000D03*
X237321000Y-138906000D03*
X237331000Y-137236000D03*
%TD*%
%TO.C,D110*%
X249851000Y-138772000D03*
X249831000Y-137232000D03*
X256371000Y-138892000D03*
X256381000Y-137222000D03*
%TD*%
%TO.C,D114*%
X276318000Y-139204000D03*
X276298000Y-137664000D03*
X282838000Y-139324000D03*
X282848000Y-137654000D03*
%TD*%
%TO.C,D118*%
X321784000Y-139001000D03*
X321764000Y-137461000D03*
X328304000Y-139121000D03*
X328314000Y-137451000D03*
%TD*%
%TO.C,D122*%
X340808000Y-139051000D03*
X340788000Y-137511000D03*
X347328000Y-139171000D03*
X347338000Y-137501000D03*
%TD*%
%TO.C,D126*%
X359833000Y-139026000D03*
X359813000Y-137486000D03*
X366353000Y-139146000D03*
X366363000Y-137476000D03*
%TD*%
%TO.C,D130*%
X378832000Y-139015000D03*
X378812000Y-137475000D03*
X385352000Y-139135000D03*
X385362000Y-137465000D03*
%TD*%
%TO.C,D134*%
X378832000Y-158051000D03*
X378812000Y-156511000D03*
X385352000Y-158171000D03*
X385362000Y-156501000D03*
%TD*%
%TO.C,D138*%
X359833000Y-158101000D03*
X359813000Y-156561000D03*
X366353000Y-158221000D03*
X366363000Y-156551000D03*
%TD*%
%TO.C,D142*%
X340783000Y-158025000D03*
X340763000Y-156485000D03*
X347303000Y-158145000D03*
X347313000Y-156475000D03*
%TD*%
%TO.C,D146*%
X321682000Y-158051000D03*
X321662000Y-156511000D03*
X328202000Y-158171000D03*
X328212000Y-156501000D03*
%TD*%
%TO.C,D150*%
X271568000Y-158471000D03*
X271548000Y-156931000D03*
X278088000Y-158591000D03*
X278098000Y-156921000D03*
%TD*%
%TO.C,D154*%
X240707000Y-157811000D03*
X240687000Y-156271000D03*
X247227000Y-157931000D03*
X247237000Y-156261000D03*
%TD*%
%TO.C,D158*%
X221657000Y-157836000D03*
X221637000Y-156296000D03*
X228177000Y-157956000D03*
X228187000Y-156286000D03*
%TD*%
%TO.C,D162*%
X202582000Y-157836000D03*
X202562000Y-156296000D03*
X209102000Y-157956000D03*
X209112000Y-156286000D03*
%TD*%
%TO.C,D166*%
X183557000Y-157811000D03*
X183537000Y-156271000D03*
X190077000Y-157931000D03*
X190087000Y-156261000D03*
%TD*%
%TO.C,D88*%
X164507000Y-157836000D03*
X164487000Y-156296000D03*
X171027000Y-157956000D03*
X171037000Y-156286000D03*
%TD*%
%TO.C,D93*%
X145432000Y-157836000D03*
X145412000Y-156296000D03*
X151952000Y-157956000D03*
X151962000Y-156286000D03*
%TD*%
%TO.C,D98*%
X126407000Y-157836000D03*
X126387000Y-156296000D03*
X132927000Y-157956000D03*
X132937000Y-156286000D03*
%TD*%
%TO.C,D103*%
X107357000Y-157836000D03*
X107337000Y-156296000D03*
X113877000Y-157956000D03*
X113887000Y-156286000D03*
%TD*%
%TO.C,D107*%
X88307000Y-157811000D03*
X88287000Y-156271000D03*
X94827000Y-157931000D03*
X94837000Y-156261000D03*
%TD*%
%TO.C,D111*%
X69257000Y-157811000D03*
X69237000Y-156271000D03*
X75777000Y-157931000D03*
X75787000Y-156261000D03*
%TD*%
%TO.C,D115*%
X40682000Y-158698000D03*
X40662000Y-157158000D03*
X47202000Y-158818000D03*
X47212000Y-157148000D03*
%TD*%
%TO.C,D119*%
X30903000Y-176923000D03*
X30883000Y-175383000D03*
X37423000Y-177043000D03*
X37433000Y-175373000D03*
%TD*%
%TO.C,D123*%
X49953000Y-176796000D03*
X49933000Y-175256000D03*
X56473000Y-176916000D03*
X56483000Y-175246000D03*
%TD*%
%TO.C,D127*%
X73956000Y-177648000D03*
X73936000Y-176108000D03*
X80476000Y-177768000D03*
X80486000Y-176098000D03*
%TD*%
%TO.C,D131*%
X97705000Y-176897000D03*
X97685000Y-175357000D03*
X104225000Y-177017000D03*
X104235000Y-175347000D03*
%TD*%
%TO.C,D135*%
X128718000Y-177380000D03*
X128698000Y-175840000D03*
X135238000Y-177500000D03*
X135248000Y-175830000D03*
%TD*%
%TO.C,D139*%
X159706000Y-176886000D03*
X159686000Y-175346000D03*
X166226000Y-177006000D03*
X166236000Y-175336000D03*
%TD*%
%TO.C,D143*%
X178731000Y-176847000D03*
X178711000Y-175307000D03*
X185251000Y-176967000D03*
X185261000Y-175297000D03*
%TD*%
%TO.C,D147*%
X209922000Y-177545000D03*
X209902000Y-176005000D03*
X216442000Y-177665000D03*
X216452000Y-175995000D03*
%TD*%
%TO.C,D151*%
X242993000Y-177456000D03*
X242973000Y-175916000D03*
X249513000Y-177576000D03*
X249523000Y-175906000D03*
%TD*%
%TO.C,D155*%
X264583000Y-176886000D03*
X264563000Y-175346000D03*
X271103000Y-177006000D03*
X271113000Y-175336000D03*
%TD*%
%TO.C,D159*%
X283658000Y-176897000D03*
X283638000Y-175357000D03*
X290178000Y-177017000D03*
X290188000Y-175347000D03*
%TD*%
%TO.C,D163*%
X321733000Y-177101000D03*
X321713000Y-175561000D03*
X328253000Y-177221000D03*
X328263000Y-175551000D03*
%TD*%
%TO.C,D167*%
X340783000Y-177101000D03*
X340763000Y-175561000D03*
X347303000Y-177221000D03*
X347313000Y-175551000D03*
%TD*%
%TO.C,D89*%
X359833000Y-177075000D03*
X359813000Y-175535000D03*
X366353000Y-177195000D03*
X366363000Y-175525000D03*
%TD*%
%TO.C,D94*%
X378858000Y-177075000D03*
X378838000Y-175535000D03*
X385378000Y-177195000D03*
X385388000Y-175525000D03*
%TD*%
%TO.C,D99*%
X281093000Y-101397000D03*
X281073000Y-99857000D03*
X287613000Y-101517000D03*
X287623000Y-99847000D03*
%TD*%
%TO.C,C3*%
G36*
G01*
X302155000Y-158285000D02*
X302155000Y-157945000D01*
G75*
G02*
X302295000Y-157805000I140000J0D01*
G01*
X302575000Y-157805000D01*
G75*
G02*
X302715000Y-157945000I0J-140000D01*
G01*
X302715000Y-158285000D01*
G75*
G02*
X302575000Y-158425000I-140000J0D01*
G01*
X302295000Y-158425000D01*
G75*
G02*
X302155000Y-158285000I0J140000D01*
G01*
G37*
G36*
G01*
X301195000Y-158285000D02*
X301195000Y-157945000D01*
G75*
G02*
X301335000Y-157805000I140000J0D01*
G01*
X301615000Y-157805000D01*
G75*
G02*
X301755000Y-157945000I0J-140000D01*
G01*
X301755000Y-158285000D01*
G75*
G02*
X301615000Y-158425000I-140000J0D01*
G01*
X301335000Y-158425000D01*
G75*
G02*
X301195000Y-158285000I0J140000D01*
G01*
G37*
%TD*%
%TO.C,C5*%
G36*
G01*
X302155000Y-156697000D02*
X302155000Y-156357000D01*
G75*
G02*
X302295000Y-156217000I140000J0D01*
G01*
X302575000Y-156217000D01*
G75*
G02*
X302715000Y-156357000I0J-140000D01*
G01*
X302715000Y-156697000D01*
G75*
G02*
X302575000Y-156837000I-140000J0D01*
G01*
X302295000Y-156837000D01*
G75*
G02*
X302155000Y-156697000I0J140000D01*
G01*
G37*
G36*
G01*
X301195000Y-156697000D02*
X301195000Y-156357000D01*
G75*
G02*
X301335000Y-156217000I140000J0D01*
G01*
X301615000Y-156217000D01*
G75*
G02*
X301755000Y-156357000I0J-140000D01*
G01*
X301755000Y-156697000D01*
G75*
G02*
X301615000Y-156837000I-140000J0D01*
G01*
X301335000Y-156837000D01*
G75*
G02*
X301195000Y-156697000I0J140000D01*
G01*
G37*
%TD*%
%TO.C,C7*%
G36*
G01*
X305660000Y-149395000D02*
X305660000Y-149055000D01*
G75*
G02*
X305800000Y-148915000I140000J0D01*
G01*
X306080000Y-148915000D01*
G75*
G02*
X306220000Y-149055000I0J-140000D01*
G01*
X306220000Y-149395000D01*
G75*
G02*
X306080000Y-149535000I-140000J0D01*
G01*
X305800000Y-149535000D01*
G75*
G02*
X305660000Y-149395000I0J140000D01*
G01*
G37*
G36*
G01*
X304700000Y-149395000D02*
X304700000Y-149055000D01*
G75*
G02*
X304840000Y-148915000I140000J0D01*
G01*
X305120000Y-148915000D01*
G75*
G02*
X305260000Y-149055000I0J-140000D01*
G01*
X305260000Y-149395000D01*
G75*
G02*
X305120000Y-149535000I-140000J0D01*
G01*
X304840000Y-149535000D01*
G75*
G02*
X304700000Y-149395000I0J140000D01*
G01*
G37*
%TD*%
%TO.C,C9*%
G36*
G01*
X302155000Y-155109000D02*
X302155000Y-154769000D01*
G75*
G02*
X302295000Y-154629000I140000J0D01*
G01*
X302575000Y-154629000D01*
G75*
G02*
X302715000Y-154769000I0J-140000D01*
G01*
X302715000Y-155109000D01*
G75*
G02*
X302575000Y-155249000I-140000J0D01*
G01*
X302295000Y-155249000D01*
G75*
G02*
X302155000Y-155109000I0J140000D01*
G01*
G37*
G36*
G01*
X301195000Y-155109000D02*
X301195000Y-154769000D01*
G75*
G02*
X301335000Y-154629000I140000J0D01*
G01*
X301615000Y-154629000D01*
G75*
G02*
X301755000Y-154769000I0J-140000D01*
G01*
X301755000Y-155109000D01*
G75*
G02*
X301615000Y-155249000I-140000J0D01*
G01*
X301335000Y-155249000D01*
G75*
G02*
X301195000Y-155109000I0J140000D01*
G01*
G37*
%TD*%
%TO.C,C10*%
G36*
G01*
X305660000Y-147854000D02*
X305660000Y-147514000D01*
G75*
G02*
X305800000Y-147374000I140000J0D01*
G01*
X306080000Y-147374000D01*
G75*
G02*
X306220000Y-147514000I0J-140000D01*
G01*
X306220000Y-147854000D01*
G75*
G02*
X306080000Y-147994000I-140000J0D01*
G01*
X305800000Y-147994000D01*
G75*
G02*
X305660000Y-147854000I0J140000D01*
G01*
G37*
G36*
G01*
X304700000Y-147854000D02*
X304700000Y-147514000D01*
G75*
G02*
X304840000Y-147374000I140000J0D01*
G01*
X305120000Y-147374000D01*
G75*
G02*
X305260000Y-147514000I0J-140000D01*
G01*
X305260000Y-147854000D01*
G75*
G02*
X305120000Y-147994000I-140000J0D01*
G01*
X304840000Y-147994000D01*
G75*
G02*
X304700000Y-147854000I0J140000D01*
G01*
G37*
%TD*%
%TO.C,C13*%
G36*
G01*
X302155000Y-147169000D02*
X302155000Y-146829000D01*
G75*
G02*
X302295000Y-146689000I140000J0D01*
G01*
X302575000Y-146689000D01*
G75*
G02*
X302715000Y-146829000I0J-140000D01*
G01*
X302715000Y-147169000D01*
G75*
G02*
X302575000Y-147309000I-140000J0D01*
G01*
X302295000Y-147309000D01*
G75*
G02*
X302155000Y-147169000I0J140000D01*
G01*
G37*
G36*
G01*
X301195000Y-147169000D02*
X301195000Y-146829000D01*
G75*
G02*
X301335000Y-146689000I140000J0D01*
G01*
X301615000Y-146689000D01*
G75*
G02*
X301755000Y-146829000I0J-140000D01*
G01*
X301755000Y-147169000D01*
G75*
G02*
X301615000Y-147309000I-140000J0D01*
G01*
X301335000Y-147309000D01*
G75*
G02*
X301195000Y-147169000I0J140000D01*
G01*
G37*
%TD*%
%TO.C,C15*%
G36*
G01*
X305660000Y-146313000D02*
X305660000Y-145973000D01*
G75*
G02*
X305800000Y-145833000I140000J0D01*
G01*
X306080000Y-145833000D01*
G75*
G02*
X306220000Y-145973000I0J-140000D01*
G01*
X306220000Y-146313000D01*
G75*
G02*
X306080000Y-146453000I-140000J0D01*
G01*
X305800000Y-146453000D01*
G75*
G02*
X305660000Y-146313000I0J140000D01*
G01*
G37*
G36*
G01*
X304700000Y-146313000D02*
X304700000Y-145973000D01*
G75*
G02*
X304840000Y-145833000I140000J0D01*
G01*
X305120000Y-145833000D01*
G75*
G02*
X305260000Y-145973000I0J-140000D01*
G01*
X305260000Y-146313000D01*
G75*
G02*
X305120000Y-146453000I-140000J0D01*
G01*
X304840000Y-146453000D01*
G75*
G02*
X304700000Y-146313000I0J140000D01*
G01*
G37*
%TD*%
%TO.C,C19*%
G36*
G01*
X302155000Y-143993000D02*
X302155000Y-143653000D01*
G75*
G02*
X302295000Y-143513000I140000J0D01*
G01*
X302575000Y-143513000D01*
G75*
G02*
X302715000Y-143653000I0J-140000D01*
G01*
X302715000Y-143993000D01*
G75*
G02*
X302575000Y-144133000I-140000J0D01*
G01*
X302295000Y-144133000D01*
G75*
G02*
X302155000Y-143993000I0J140000D01*
G01*
G37*
G36*
G01*
X301195000Y-143993000D02*
X301195000Y-143653000D01*
G75*
G02*
X301335000Y-143513000I140000J0D01*
G01*
X301615000Y-143513000D01*
G75*
G02*
X301755000Y-143653000I0J-140000D01*
G01*
X301755000Y-143993000D01*
G75*
G02*
X301615000Y-144133000I-140000J0D01*
G01*
X301335000Y-144133000D01*
G75*
G02*
X301195000Y-143993000I0J140000D01*
G01*
G37*
%TD*%
%TO.C,C20*%
G36*
G01*
X302155000Y-151933000D02*
X302155000Y-151593000D01*
G75*
G02*
X302295000Y-151453000I140000J0D01*
G01*
X302575000Y-151453000D01*
G75*
G02*
X302715000Y-151593000I0J-140000D01*
G01*
X302715000Y-151933000D01*
G75*
G02*
X302575000Y-152073000I-140000J0D01*
G01*
X302295000Y-152073000D01*
G75*
G02*
X302155000Y-151933000I0J140000D01*
G01*
G37*
G36*
G01*
X301195000Y-151933000D02*
X301195000Y-151593000D01*
G75*
G02*
X301335000Y-151453000I140000J0D01*
G01*
X301615000Y-151453000D01*
G75*
G02*
X301755000Y-151593000I0J-140000D01*
G01*
X301755000Y-151933000D01*
G75*
G02*
X301615000Y-152073000I-140000J0D01*
G01*
X301335000Y-152073000D01*
G75*
G02*
X301195000Y-151933000I0J140000D01*
G01*
G37*
%TD*%
%TO.C,C21*%
G36*
G01*
X305660000Y-144772000D02*
X305660000Y-144432000D01*
G75*
G02*
X305800000Y-144292000I140000J0D01*
G01*
X306080000Y-144292000D01*
G75*
G02*
X306220000Y-144432000I0J-140000D01*
G01*
X306220000Y-144772000D01*
G75*
G02*
X306080000Y-144912000I-140000J0D01*
G01*
X305800000Y-144912000D01*
G75*
G02*
X305660000Y-144772000I0J140000D01*
G01*
G37*
G36*
G01*
X304700000Y-144772000D02*
X304700000Y-144432000D01*
G75*
G02*
X304840000Y-144292000I140000J0D01*
G01*
X305120000Y-144292000D01*
G75*
G02*
X305260000Y-144432000I0J-140000D01*
G01*
X305260000Y-144772000D01*
G75*
G02*
X305120000Y-144912000I-140000J0D01*
G01*
X304840000Y-144912000D01*
G75*
G02*
X304700000Y-144772000I0J140000D01*
G01*
G37*
%TD*%
%TO.C,C24*%
G36*
G01*
X302155000Y-142405000D02*
X302155000Y-142065000D01*
G75*
G02*
X302295000Y-141925000I140000J0D01*
G01*
X302575000Y-141925000D01*
G75*
G02*
X302715000Y-142065000I0J-140000D01*
G01*
X302715000Y-142405000D01*
G75*
G02*
X302575000Y-142545000I-140000J0D01*
G01*
X302295000Y-142545000D01*
G75*
G02*
X302155000Y-142405000I0J140000D01*
G01*
G37*
G36*
G01*
X301195000Y-142405000D02*
X301195000Y-142065000D01*
G75*
G02*
X301335000Y-141925000I140000J0D01*
G01*
X301615000Y-141925000D01*
G75*
G02*
X301755000Y-142065000I0J-140000D01*
G01*
X301755000Y-142405000D01*
G75*
G02*
X301615000Y-142545000I-140000J0D01*
G01*
X301335000Y-142545000D01*
G75*
G02*
X301195000Y-142405000I0J140000D01*
G01*
G37*
%TD*%
%TO.C,C26*%
G36*
G01*
X305660000Y-135525000D02*
X305660000Y-135185000D01*
G75*
G02*
X305800000Y-135045000I140000J0D01*
G01*
X306080000Y-135045000D01*
G75*
G02*
X306220000Y-135185000I0J-140000D01*
G01*
X306220000Y-135525000D01*
G75*
G02*
X306080000Y-135665000I-140000J0D01*
G01*
X305800000Y-135665000D01*
G75*
G02*
X305660000Y-135525000I0J140000D01*
G01*
G37*
G36*
G01*
X304700000Y-135525000D02*
X304700000Y-135185000D01*
G75*
G02*
X304840000Y-135045000I140000J0D01*
G01*
X305120000Y-135045000D01*
G75*
G02*
X305260000Y-135185000I0J-140000D01*
G01*
X305260000Y-135525000D01*
G75*
G02*
X305120000Y-135665000I-140000J0D01*
G01*
X304840000Y-135665000D01*
G75*
G02*
X304700000Y-135525000I0J140000D01*
G01*
G37*
%TD*%
%TO.C,C28*%
G36*
G01*
X305660000Y-143231000D02*
X305660000Y-142891000D01*
G75*
G02*
X305800000Y-142751000I140000J0D01*
G01*
X306080000Y-142751000D01*
G75*
G02*
X306220000Y-142891000I0J-140000D01*
G01*
X306220000Y-143231000D01*
G75*
G02*
X306080000Y-143371000I-140000J0D01*
G01*
X305800000Y-143371000D01*
G75*
G02*
X305660000Y-143231000I0J140000D01*
G01*
G37*
G36*
G01*
X304700000Y-143231000D02*
X304700000Y-142891000D01*
G75*
G02*
X304840000Y-142751000I140000J0D01*
G01*
X305120000Y-142751000D01*
G75*
G02*
X305260000Y-142891000I0J-140000D01*
G01*
X305260000Y-143231000D01*
G75*
G02*
X305120000Y-143371000I-140000J0D01*
G01*
X304840000Y-143371000D01*
G75*
G02*
X304700000Y-143231000I0J140000D01*
G01*
G37*
%TD*%
%TO.C,C30*%
G36*
G01*
X302155000Y-139229000D02*
X302155000Y-138889000D01*
G75*
G02*
X302295000Y-138749000I140000J0D01*
G01*
X302575000Y-138749000D01*
G75*
G02*
X302715000Y-138889000I0J-140000D01*
G01*
X302715000Y-139229000D01*
G75*
G02*
X302575000Y-139369000I-140000J0D01*
G01*
X302295000Y-139369000D01*
G75*
G02*
X302155000Y-139229000I0J140000D01*
G01*
G37*
G36*
G01*
X301195000Y-139229000D02*
X301195000Y-138889000D01*
G75*
G02*
X301335000Y-138749000I140000J0D01*
G01*
X301615000Y-138749000D01*
G75*
G02*
X301755000Y-138889000I0J-140000D01*
G01*
X301755000Y-139229000D01*
G75*
G02*
X301615000Y-139369000I-140000J0D01*
G01*
X301335000Y-139369000D01*
G75*
G02*
X301195000Y-139229000I0J140000D01*
G01*
G37*
%TD*%
%TO.C,C31*%
G36*
G01*
X302155000Y-148757000D02*
X302155000Y-148417000D01*
G75*
G02*
X302295000Y-148277000I140000J0D01*
G01*
X302575000Y-148277000D01*
G75*
G02*
X302715000Y-148417000I0J-140000D01*
G01*
X302715000Y-148757000D01*
G75*
G02*
X302575000Y-148897000I-140000J0D01*
G01*
X302295000Y-148897000D01*
G75*
G02*
X302155000Y-148757000I0J140000D01*
G01*
G37*
G36*
G01*
X301195000Y-148757000D02*
X301195000Y-148417000D01*
G75*
G02*
X301335000Y-148277000I140000J0D01*
G01*
X301615000Y-148277000D01*
G75*
G02*
X301755000Y-148417000I0J-140000D01*
G01*
X301755000Y-148757000D01*
G75*
G02*
X301615000Y-148897000I-140000J0D01*
G01*
X301335000Y-148897000D01*
G75*
G02*
X301195000Y-148757000I0J140000D01*
G01*
G37*
%TD*%
%TO.C,C32*%
G36*
G01*
X305660000Y-133984000D02*
X305660000Y-133644000D01*
G75*
G02*
X305800000Y-133504000I140000J0D01*
G01*
X306080000Y-133504000D01*
G75*
G02*
X306220000Y-133644000I0J-140000D01*
G01*
X306220000Y-133984000D01*
G75*
G02*
X306080000Y-134124000I-140000J0D01*
G01*
X305800000Y-134124000D01*
G75*
G02*
X305660000Y-133984000I0J140000D01*
G01*
G37*
G36*
G01*
X304700000Y-133984000D02*
X304700000Y-133644000D01*
G75*
G02*
X304840000Y-133504000I140000J0D01*
G01*
X305120000Y-133504000D01*
G75*
G02*
X305260000Y-133644000I0J-140000D01*
G01*
X305260000Y-133984000D01*
G75*
G02*
X305120000Y-134124000I-140000J0D01*
G01*
X304840000Y-134124000D01*
G75*
G02*
X304700000Y-133984000I0J140000D01*
G01*
G37*
%TD*%
%TO.C,C33*%
G36*
G01*
X305660000Y-141690000D02*
X305660000Y-141350000D01*
G75*
G02*
X305800000Y-141210000I140000J0D01*
G01*
X306080000Y-141210000D01*
G75*
G02*
X306220000Y-141350000I0J-140000D01*
G01*
X306220000Y-141690000D01*
G75*
G02*
X306080000Y-141830000I-140000J0D01*
G01*
X305800000Y-141830000D01*
G75*
G02*
X305660000Y-141690000I0J140000D01*
G01*
G37*
G36*
G01*
X304700000Y-141690000D02*
X304700000Y-141350000D01*
G75*
G02*
X304840000Y-141210000I140000J0D01*
G01*
X305120000Y-141210000D01*
G75*
G02*
X305260000Y-141350000I0J-140000D01*
G01*
X305260000Y-141690000D01*
G75*
G02*
X305120000Y-141830000I-140000J0D01*
G01*
X304840000Y-141830000D01*
G75*
G02*
X304700000Y-141690000I0J140000D01*
G01*
G37*
%TD*%
%TO.C,C35*%
G36*
G01*
X302155000Y-153521000D02*
X302155000Y-153181000D01*
G75*
G02*
X302295000Y-153041000I140000J0D01*
G01*
X302575000Y-153041000D01*
G75*
G02*
X302715000Y-153181000I0J-140000D01*
G01*
X302715000Y-153521000D01*
G75*
G02*
X302575000Y-153661000I-140000J0D01*
G01*
X302295000Y-153661000D01*
G75*
G02*
X302155000Y-153521000I0J140000D01*
G01*
G37*
G36*
G01*
X301195000Y-153521000D02*
X301195000Y-153181000D01*
G75*
G02*
X301335000Y-153041000I140000J0D01*
G01*
X301615000Y-153041000D01*
G75*
G02*
X301755000Y-153181000I0J-140000D01*
G01*
X301755000Y-153521000D01*
G75*
G02*
X301615000Y-153661000I-140000J0D01*
G01*
X301335000Y-153661000D01*
G75*
G02*
X301195000Y-153521000I0J140000D01*
G01*
G37*
%TD*%
%TO.C,C36*%
G36*
G01*
X302155000Y-150345000D02*
X302155000Y-150005000D01*
G75*
G02*
X302295000Y-149865000I140000J0D01*
G01*
X302575000Y-149865000D01*
G75*
G02*
X302715000Y-150005000I0J-140000D01*
G01*
X302715000Y-150345000D01*
G75*
G02*
X302575000Y-150485000I-140000J0D01*
G01*
X302295000Y-150485000D01*
G75*
G02*
X302155000Y-150345000I0J140000D01*
G01*
G37*
G36*
G01*
X301195000Y-150345000D02*
X301195000Y-150005000D01*
G75*
G02*
X301335000Y-149865000I140000J0D01*
G01*
X301615000Y-149865000D01*
G75*
G02*
X301755000Y-150005000I0J-140000D01*
G01*
X301755000Y-150345000D01*
G75*
G02*
X301615000Y-150485000I-140000J0D01*
G01*
X301335000Y-150485000D01*
G75*
G02*
X301195000Y-150345000I0J140000D01*
G01*
G37*
%TD*%
%TO.C,C38*%
G36*
G01*
X302155000Y-136053000D02*
X302155000Y-135713000D01*
G75*
G02*
X302295000Y-135573000I140000J0D01*
G01*
X302575000Y-135573000D01*
G75*
G02*
X302715000Y-135713000I0J-140000D01*
G01*
X302715000Y-136053000D01*
G75*
G02*
X302575000Y-136193000I-140000J0D01*
G01*
X302295000Y-136193000D01*
G75*
G02*
X302155000Y-136053000I0J140000D01*
G01*
G37*
G36*
G01*
X301195000Y-136053000D02*
X301195000Y-135713000D01*
G75*
G02*
X301335000Y-135573000I140000J0D01*
G01*
X301615000Y-135573000D01*
G75*
G02*
X301755000Y-135713000I0J-140000D01*
G01*
X301755000Y-136053000D01*
G75*
G02*
X301615000Y-136193000I-140000J0D01*
G01*
X301335000Y-136193000D01*
G75*
G02*
X301195000Y-136053000I0J140000D01*
G01*
G37*
%TD*%
%TO.C,C39*%
G36*
G01*
X305660000Y-130902000D02*
X305660000Y-130562000D01*
G75*
G02*
X305800000Y-130422000I140000J0D01*
G01*
X306080000Y-130422000D01*
G75*
G02*
X306220000Y-130562000I0J-140000D01*
G01*
X306220000Y-130902000D01*
G75*
G02*
X306080000Y-131042000I-140000J0D01*
G01*
X305800000Y-131042000D01*
G75*
G02*
X305660000Y-130902000I0J140000D01*
G01*
G37*
G36*
G01*
X304700000Y-130902000D02*
X304700000Y-130562000D01*
G75*
G02*
X304840000Y-130422000I140000J0D01*
G01*
X305120000Y-130422000D01*
G75*
G02*
X305260000Y-130562000I0J-140000D01*
G01*
X305260000Y-130902000D01*
G75*
G02*
X305120000Y-131042000I-140000J0D01*
G01*
X304840000Y-131042000D01*
G75*
G02*
X304700000Y-130902000I0J140000D01*
G01*
G37*
%TD*%
%TO.C,C40*%
G36*
G01*
X305660000Y-140148000D02*
X305660000Y-139808000D01*
G75*
G02*
X305800000Y-139668000I140000J0D01*
G01*
X306080000Y-139668000D01*
G75*
G02*
X306220000Y-139808000I0J-140000D01*
G01*
X306220000Y-140148000D01*
G75*
G02*
X306080000Y-140288000I-140000J0D01*
G01*
X305800000Y-140288000D01*
G75*
G02*
X305660000Y-140148000I0J140000D01*
G01*
G37*
G36*
G01*
X304700000Y-140148000D02*
X304700000Y-139808000D01*
G75*
G02*
X304840000Y-139668000I140000J0D01*
G01*
X305120000Y-139668000D01*
G75*
G02*
X305260000Y-139808000I0J-140000D01*
G01*
X305260000Y-140148000D01*
G75*
G02*
X305120000Y-140288000I-140000J0D01*
G01*
X304840000Y-140288000D01*
G75*
G02*
X304700000Y-140148000I0J140000D01*
G01*
G37*
%TD*%
%TO.C,C43*%
G36*
G01*
X302155000Y-145581000D02*
X302155000Y-145241000D01*
G75*
G02*
X302295000Y-145101000I140000J0D01*
G01*
X302575000Y-145101000D01*
G75*
G02*
X302715000Y-145241000I0J-140000D01*
G01*
X302715000Y-145581000D01*
G75*
G02*
X302575000Y-145721000I-140000J0D01*
G01*
X302295000Y-145721000D01*
G75*
G02*
X302155000Y-145581000I0J140000D01*
G01*
G37*
G36*
G01*
X301195000Y-145581000D02*
X301195000Y-145241000D01*
G75*
G02*
X301335000Y-145101000I140000J0D01*
G01*
X301615000Y-145101000D01*
G75*
G02*
X301755000Y-145241000I0J-140000D01*
G01*
X301755000Y-145581000D01*
G75*
G02*
X301615000Y-145721000I-140000J0D01*
G01*
X301335000Y-145721000D01*
G75*
G02*
X301195000Y-145581000I0J140000D01*
G01*
G37*
%TD*%
%TO.C,C44*%
G36*
G01*
X302155000Y-140817000D02*
X302155000Y-140477000D01*
G75*
G02*
X302295000Y-140337000I140000J0D01*
G01*
X302575000Y-140337000D01*
G75*
G02*
X302715000Y-140477000I0J-140000D01*
G01*
X302715000Y-140817000D01*
G75*
G02*
X302575000Y-140957000I-140000J0D01*
G01*
X302295000Y-140957000D01*
G75*
G02*
X302155000Y-140817000I0J140000D01*
G01*
G37*
G36*
G01*
X301195000Y-140817000D02*
X301195000Y-140477000D01*
G75*
G02*
X301335000Y-140337000I140000J0D01*
G01*
X301615000Y-140337000D01*
G75*
G02*
X301755000Y-140477000I0J-140000D01*
G01*
X301755000Y-140817000D01*
G75*
G02*
X301615000Y-140957000I-140000J0D01*
G01*
X301335000Y-140957000D01*
G75*
G02*
X301195000Y-140817000I0J140000D01*
G01*
G37*
%TD*%
%TO.C,C45*%
G36*
G01*
X305660000Y-138607000D02*
X305660000Y-138267000D01*
G75*
G02*
X305800000Y-138127000I140000J0D01*
G01*
X306080000Y-138127000D01*
G75*
G02*
X306220000Y-138267000I0J-140000D01*
G01*
X306220000Y-138607000D01*
G75*
G02*
X306080000Y-138747000I-140000J0D01*
G01*
X305800000Y-138747000D01*
G75*
G02*
X305660000Y-138607000I0J140000D01*
G01*
G37*
G36*
G01*
X304700000Y-138607000D02*
X304700000Y-138267000D01*
G75*
G02*
X304840000Y-138127000I140000J0D01*
G01*
X305120000Y-138127000D01*
G75*
G02*
X305260000Y-138267000I0J-140000D01*
G01*
X305260000Y-138607000D01*
G75*
G02*
X305120000Y-138747000I-140000J0D01*
G01*
X304840000Y-138747000D01*
G75*
G02*
X304700000Y-138607000I0J140000D01*
G01*
G37*
%TD*%
%TO.C,C46*%
G36*
G01*
X302155000Y-115408000D02*
X302155000Y-115068000D01*
G75*
G02*
X302295000Y-114928000I140000J0D01*
G01*
X302575000Y-114928000D01*
G75*
G02*
X302715000Y-115068000I0J-140000D01*
G01*
X302715000Y-115408000D01*
G75*
G02*
X302575000Y-115548000I-140000J0D01*
G01*
X302295000Y-115548000D01*
G75*
G02*
X302155000Y-115408000I0J140000D01*
G01*
G37*
G36*
G01*
X301195000Y-115408000D02*
X301195000Y-115068000D01*
G75*
G02*
X301335000Y-114928000I140000J0D01*
G01*
X301615000Y-114928000D01*
G75*
G02*
X301755000Y-115068000I0J-140000D01*
G01*
X301755000Y-115408000D01*
G75*
G02*
X301615000Y-115548000I-140000J0D01*
G01*
X301335000Y-115548000D01*
G75*
G02*
X301195000Y-115408000I0J140000D01*
G01*
G37*
%TD*%
%TO.C,C47*%
G36*
G01*
X305660000Y-127820000D02*
X305660000Y-127480000D01*
G75*
G02*
X305800000Y-127340000I140000J0D01*
G01*
X306080000Y-127340000D01*
G75*
G02*
X306220000Y-127480000I0J-140000D01*
G01*
X306220000Y-127820000D01*
G75*
G02*
X306080000Y-127960000I-140000J0D01*
G01*
X305800000Y-127960000D01*
G75*
G02*
X305660000Y-127820000I0J140000D01*
G01*
G37*
G36*
G01*
X304700000Y-127820000D02*
X304700000Y-127480000D01*
G75*
G02*
X304840000Y-127340000I140000J0D01*
G01*
X305120000Y-127340000D01*
G75*
G02*
X305260000Y-127480000I0J-140000D01*
G01*
X305260000Y-127820000D01*
G75*
G02*
X305120000Y-127960000I-140000J0D01*
G01*
X304840000Y-127960000D01*
G75*
G02*
X304700000Y-127820000I0J140000D01*
G01*
G37*
%TD*%
%TO.C,C50*%
G36*
G01*
X302155000Y-137641000D02*
X302155000Y-137301000D01*
G75*
G02*
X302295000Y-137161000I140000J0D01*
G01*
X302575000Y-137161000D01*
G75*
G02*
X302715000Y-137301000I0J-140000D01*
G01*
X302715000Y-137641000D01*
G75*
G02*
X302575000Y-137781000I-140000J0D01*
G01*
X302295000Y-137781000D01*
G75*
G02*
X302155000Y-137641000I0J140000D01*
G01*
G37*
G36*
G01*
X301195000Y-137641000D02*
X301195000Y-137301000D01*
G75*
G02*
X301335000Y-137161000I140000J0D01*
G01*
X301615000Y-137161000D01*
G75*
G02*
X301755000Y-137301000I0J-140000D01*
G01*
X301755000Y-137641000D01*
G75*
G02*
X301615000Y-137781000I-140000J0D01*
G01*
X301335000Y-137781000D01*
G75*
G02*
X301195000Y-137641000I0J140000D01*
G01*
G37*
%TD*%
%TO.C,C51*%
G36*
G01*
X302155000Y-129700000D02*
X302155000Y-129360000D01*
G75*
G02*
X302295000Y-129220000I140000J0D01*
G01*
X302575000Y-129220000D01*
G75*
G02*
X302715000Y-129360000I0J-140000D01*
G01*
X302715000Y-129700000D01*
G75*
G02*
X302575000Y-129840000I-140000J0D01*
G01*
X302295000Y-129840000D01*
G75*
G02*
X302155000Y-129700000I0J140000D01*
G01*
G37*
G36*
G01*
X301195000Y-129700000D02*
X301195000Y-129360000D01*
G75*
G02*
X301335000Y-129220000I140000J0D01*
G01*
X301615000Y-129220000D01*
G75*
G02*
X301755000Y-129360000I0J-140000D01*
G01*
X301755000Y-129700000D01*
G75*
G02*
X301615000Y-129840000I-140000J0D01*
G01*
X301335000Y-129840000D01*
G75*
G02*
X301195000Y-129700000I0J140000D01*
G01*
G37*
%TD*%
%TO.C,C52*%
G36*
G01*
X305660000Y-137066000D02*
X305660000Y-136726000D01*
G75*
G02*
X305800000Y-136586000I140000J0D01*
G01*
X306080000Y-136586000D01*
G75*
G02*
X306220000Y-136726000I0J-140000D01*
G01*
X306220000Y-137066000D01*
G75*
G02*
X306080000Y-137206000I-140000J0D01*
G01*
X305800000Y-137206000D01*
G75*
G02*
X305660000Y-137066000I0J140000D01*
G01*
G37*
G36*
G01*
X304700000Y-137066000D02*
X304700000Y-136726000D01*
G75*
G02*
X304840000Y-136586000I140000J0D01*
G01*
X305120000Y-136586000D01*
G75*
G02*
X305260000Y-136726000I0J-140000D01*
G01*
X305260000Y-137066000D01*
G75*
G02*
X305120000Y-137206000I-140000J0D01*
G01*
X304840000Y-137206000D01*
G75*
G02*
X304700000Y-137066000I0J140000D01*
G01*
G37*
%TD*%
%TO.C,C53*%
G36*
G01*
X305660000Y-132443000D02*
X305660000Y-132103000D01*
G75*
G02*
X305800000Y-131963000I140000J0D01*
G01*
X306080000Y-131963000D01*
G75*
G02*
X306220000Y-132103000I0J-140000D01*
G01*
X306220000Y-132443000D01*
G75*
G02*
X306080000Y-132583000I-140000J0D01*
G01*
X305800000Y-132583000D01*
G75*
G02*
X305660000Y-132443000I0J140000D01*
G01*
G37*
G36*
G01*
X304700000Y-132443000D02*
X304700000Y-132103000D01*
G75*
G02*
X304840000Y-131963000I140000J0D01*
G01*
X305120000Y-131963000D01*
G75*
G02*
X305260000Y-132103000I0J-140000D01*
G01*
X305260000Y-132443000D01*
G75*
G02*
X305120000Y-132583000I-140000J0D01*
G01*
X304840000Y-132583000D01*
G75*
G02*
X304700000Y-132443000I0J140000D01*
G01*
G37*
%TD*%
%TO.C,C55*%
G36*
G01*
X305660000Y-124738000D02*
X305660000Y-124398000D01*
G75*
G02*
X305800000Y-124258000I140000J0D01*
G01*
X306080000Y-124258000D01*
G75*
G02*
X306220000Y-124398000I0J-140000D01*
G01*
X306220000Y-124738000D01*
G75*
G02*
X306080000Y-124878000I-140000J0D01*
G01*
X305800000Y-124878000D01*
G75*
G02*
X305660000Y-124738000I0J140000D01*
G01*
G37*
G36*
G01*
X304700000Y-124738000D02*
X304700000Y-124398000D01*
G75*
G02*
X304840000Y-124258000I140000J0D01*
G01*
X305120000Y-124258000D01*
G75*
G02*
X305260000Y-124398000I0J-140000D01*
G01*
X305260000Y-124738000D01*
G75*
G02*
X305120000Y-124878000I-140000J0D01*
G01*
X304840000Y-124878000D01*
G75*
G02*
X304700000Y-124738000I0J140000D01*
G01*
G37*
%TD*%
%TO.C,C56*%
G36*
G01*
X302155000Y-124936000D02*
X302155000Y-124596000D01*
G75*
G02*
X302295000Y-124456000I140000J0D01*
G01*
X302575000Y-124456000D01*
G75*
G02*
X302715000Y-124596000I0J-140000D01*
G01*
X302715000Y-124936000D01*
G75*
G02*
X302575000Y-125076000I-140000J0D01*
G01*
X302295000Y-125076000D01*
G75*
G02*
X302155000Y-124936000I0J140000D01*
G01*
G37*
G36*
G01*
X301195000Y-124936000D02*
X301195000Y-124596000D01*
G75*
G02*
X301335000Y-124456000I140000J0D01*
G01*
X301615000Y-124456000D01*
G75*
G02*
X301755000Y-124596000I0J-140000D01*
G01*
X301755000Y-124936000D01*
G75*
G02*
X301615000Y-125076000I-140000J0D01*
G01*
X301335000Y-125076000D01*
G75*
G02*
X301195000Y-124936000I0J140000D01*
G01*
G37*
%TD*%
%TO.C,C57*%
G36*
G01*
X302155000Y-132876000D02*
X302155000Y-132536000D01*
G75*
G02*
X302295000Y-132396000I140000J0D01*
G01*
X302575000Y-132396000D01*
G75*
G02*
X302715000Y-132536000I0J-140000D01*
G01*
X302715000Y-132876000D01*
G75*
G02*
X302575000Y-133016000I-140000J0D01*
G01*
X302295000Y-133016000D01*
G75*
G02*
X302155000Y-132876000I0J140000D01*
G01*
G37*
G36*
G01*
X301195000Y-132876000D02*
X301195000Y-132536000D01*
G75*
G02*
X301335000Y-132396000I140000J0D01*
G01*
X301615000Y-132396000D01*
G75*
G02*
X301755000Y-132536000I0J-140000D01*
G01*
X301755000Y-132876000D01*
G75*
G02*
X301615000Y-133016000I-140000J0D01*
G01*
X301335000Y-133016000D01*
G75*
G02*
X301195000Y-132876000I0J140000D01*
G01*
G37*
%TD*%
%TO.C,C58*%
G36*
G01*
X302155000Y-126524000D02*
X302155000Y-126184000D01*
G75*
G02*
X302295000Y-126044000I140000J0D01*
G01*
X302575000Y-126044000D01*
G75*
G02*
X302715000Y-126184000I0J-140000D01*
G01*
X302715000Y-126524000D01*
G75*
G02*
X302575000Y-126664000I-140000J0D01*
G01*
X302295000Y-126664000D01*
G75*
G02*
X302155000Y-126524000I0J140000D01*
G01*
G37*
G36*
G01*
X301195000Y-126524000D02*
X301195000Y-126184000D01*
G75*
G02*
X301335000Y-126044000I140000J0D01*
G01*
X301615000Y-126044000D01*
G75*
G02*
X301755000Y-126184000I0J-140000D01*
G01*
X301755000Y-126524000D01*
G75*
G02*
X301615000Y-126664000I-140000J0D01*
G01*
X301335000Y-126664000D01*
G75*
G02*
X301195000Y-126524000I0J140000D01*
G01*
G37*
%TD*%
%TO.C,C59*%
G36*
G01*
X305660000Y-129361000D02*
X305660000Y-129021000D01*
G75*
G02*
X305800000Y-128881000I140000J0D01*
G01*
X306080000Y-128881000D01*
G75*
G02*
X306220000Y-129021000I0J-140000D01*
G01*
X306220000Y-129361000D01*
G75*
G02*
X306080000Y-129501000I-140000J0D01*
G01*
X305800000Y-129501000D01*
G75*
G02*
X305660000Y-129361000I0J140000D01*
G01*
G37*
G36*
G01*
X304700000Y-129361000D02*
X304700000Y-129021000D01*
G75*
G02*
X304840000Y-128881000I140000J0D01*
G01*
X305120000Y-128881000D01*
G75*
G02*
X305260000Y-129021000I0J-140000D01*
G01*
X305260000Y-129361000D01*
G75*
G02*
X305120000Y-129501000I-140000J0D01*
G01*
X304840000Y-129501000D01*
G75*
G02*
X304700000Y-129361000I0J140000D01*
G01*
G37*
%TD*%
%TO.C,C60*%
G36*
G01*
X305660000Y-121655000D02*
X305660000Y-121315000D01*
G75*
G02*
X305800000Y-121175000I140000J0D01*
G01*
X306080000Y-121175000D01*
G75*
G02*
X306220000Y-121315000I0J-140000D01*
G01*
X306220000Y-121655000D01*
G75*
G02*
X306080000Y-121795000I-140000J0D01*
G01*
X305800000Y-121795000D01*
G75*
G02*
X305660000Y-121655000I0J140000D01*
G01*
G37*
G36*
G01*
X304700000Y-121655000D02*
X304700000Y-121315000D01*
G75*
G02*
X304840000Y-121175000I140000J0D01*
G01*
X305120000Y-121175000D01*
G75*
G02*
X305260000Y-121315000I0J-140000D01*
G01*
X305260000Y-121655000D01*
G75*
G02*
X305120000Y-121795000I-140000J0D01*
G01*
X304840000Y-121795000D01*
G75*
G02*
X304700000Y-121655000I0J140000D01*
G01*
G37*
%TD*%
%TO.C,C63*%
G36*
G01*
X302155000Y-123348000D02*
X302155000Y-123008000D01*
G75*
G02*
X302295000Y-122868000I140000J0D01*
G01*
X302575000Y-122868000D01*
G75*
G02*
X302715000Y-123008000I0J-140000D01*
G01*
X302715000Y-123348000D01*
G75*
G02*
X302575000Y-123488000I-140000J0D01*
G01*
X302295000Y-123488000D01*
G75*
G02*
X302155000Y-123348000I0J140000D01*
G01*
G37*
G36*
G01*
X301195000Y-123348000D02*
X301195000Y-123008000D01*
G75*
G02*
X301335000Y-122868000I140000J0D01*
G01*
X301615000Y-122868000D01*
G75*
G02*
X301755000Y-123008000I0J-140000D01*
G01*
X301755000Y-123348000D01*
G75*
G02*
X301615000Y-123488000I-140000J0D01*
G01*
X301335000Y-123488000D01*
G75*
G02*
X301195000Y-123348000I0J140000D01*
G01*
G37*
%TD*%
%TO.C,C65*%
G36*
G01*
X302155000Y-131288000D02*
X302155000Y-130948000D01*
G75*
G02*
X302295000Y-130808000I140000J0D01*
G01*
X302575000Y-130808000D01*
G75*
G02*
X302715000Y-130948000I0J-140000D01*
G01*
X302715000Y-131288000D01*
G75*
G02*
X302575000Y-131428000I-140000J0D01*
G01*
X302295000Y-131428000D01*
G75*
G02*
X302155000Y-131288000I0J140000D01*
G01*
G37*
G36*
G01*
X301195000Y-131288000D02*
X301195000Y-130948000D01*
G75*
G02*
X301335000Y-130808000I140000J0D01*
G01*
X301615000Y-130808000D01*
G75*
G02*
X301755000Y-130948000I0J-140000D01*
G01*
X301755000Y-131288000D01*
G75*
G02*
X301615000Y-131428000I-140000J0D01*
G01*
X301335000Y-131428000D01*
G75*
G02*
X301195000Y-131288000I0J140000D01*
G01*
G37*
%TD*%
%TO.C,C66*%
G36*
G01*
X305660000Y-126279000D02*
X305660000Y-125939000D01*
G75*
G02*
X305800000Y-125799000I140000J0D01*
G01*
X306080000Y-125799000D01*
G75*
G02*
X306220000Y-125939000I0J-140000D01*
G01*
X306220000Y-126279000D01*
G75*
G02*
X306080000Y-126419000I-140000J0D01*
G01*
X305800000Y-126419000D01*
G75*
G02*
X305660000Y-126279000I0J140000D01*
G01*
G37*
G36*
G01*
X304700000Y-126279000D02*
X304700000Y-125939000D01*
G75*
G02*
X304840000Y-125799000I140000J0D01*
G01*
X305120000Y-125799000D01*
G75*
G02*
X305260000Y-125939000I0J-140000D01*
G01*
X305260000Y-126279000D01*
G75*
G02*
X305120000Y-126419000I-140000J0D01*
G01*
X304840000Y-126419000D01*
G75*
G02*
X304700000Y-126279000I0J140000D01*
G01*
G37*
%TD*%
%TO.C,C70*%
G36*
G01*
X302155000Y-120172000D02*
X302155000Y-119832000D01*
G75*
G02*
X302295000Y-119692000I140000J0D01*
G01*
X302575000Y-119692000D01*
G75*
G02*
X302715000Y-119832000I0J-140000D01*
G01*
X302715000Y-120172000D01*
G75*
G02*
X302575000Y-120312000I-140000J0D01*
G01*
X302295000Y-120312000D01*
G75*
G02*
X302155000Y-120172000I0J140000D01*
G01*
G37*
G36*
G01*
X301195000Y-120172000D02*
X301195000Y-119832000D01*
G75*
G02*
X301335000Y-119692000I140000J0D01*
G01*
X301615000Y-119692000D01*
G75*
G02*
X301755000Y-119832000I0J-140000D01*
G01*
X301755000Y-120172000D01*
G75*
G02*
X301615000Y-120312000I-140000J0D01*
G01*
X301335000Y-120312000D01*
G75*
G02*
X301195000Y-120172000I0J140000D01*
G01*
G37*
%TD*%
%TO.C,C71*%
G36*
G01*
X302155000Y-116996000D02*
X302155000Y-116656000D01*
G75*
G02*
X302295000Y-116516000I140000J0D01*
G01*
X302575000Y-116516000D01*
G75*
G02*
X302715000Y-116656000I0J-140000D01*
G01*
X302715000Y-116996000D01*
G75*
G02*
X302575000Y-117136000I-140000J0D01*
G01*
X302295000Y-117136000D01*
G75*
G02*
X302155000Y-116996000I0J140000D01*
G01*
G37*
G36*
G01*
X301195000Y-116996000D02*
X301195000Y-116656000D01*
G75*
G02*
X301335000Y-116516000I140000J0D01*
G01*
X301615000Y-116516000D01*
G75*
G02*
X301755000Y-116656000I0J-140000D01*
G01*
X301755000Y-116996000D01*
G75*
G02*
X301615000Y-117136000I-140000J0D01*
G01*
X301335000Y-117136000D01*
G75*
G02*
X301195000Y-116996000I0J140000D01*
G01*
G37*
%TD*%
%TO.C,C72*%
G36*
G01*
X305660000Y-115491000D02*
X305660000Y-115151000D01*
G75*
G02*
X305800000Y-115011000I140000J0D01*
G01*
X306080000Y-115011000D01*
G75*
G02*
X306220000Y-115151000I0J-140000D01*
G01*
X306220000Y-115491000D01*
G75*
G02*
X306080000Y-115631000I-140000J0D01*
G01*
X305800000Y-115631000D01*
G75*
G02*
X305660000Y-115491000I0J140000D01*
G01*
G37*
G36*
G01*
X304700000Y-115491000D02*
X304700000Y-115151000D01*
G75*
G02*
X304840000Y-115011000I140000J0D01*
G01*
X305120000Y-115011000D01*
G75*
G02*
X305260000Y-115151000I0J-140000D01*
G01*
X305260000Y-115491000D01*
G75*
G02*
X305120000Y-115631000I-140000J0D01*
G01*
X304840000Y-115631000D01*
G75*
G02*
X304700000Y-115491000I0J140000D01*
G01*
G37*
%TD*%
%TO.C,C73*%
G36*
G01*
X302155000Y-128112000D02*
X302155000Y-127772000D01*
G75*
G02*
X302295000Y-127632000I140000J0D01*
G01*
X302575000Y-127632000D01*
G75*
G02*
X302715000Y-127772000I0J-140000D01*
G01*
X302715000Y-128112000D01*
G75*
G02*
X302575000Y-128252000I-140000J0D01*
G01*
X302295000Y-128252000D01*
G75*
G02*
X302155000Y-128112000I0J140000D01*
G01*
G37*
G36*
G01*
X301195000Y-128112000D02*
X301195000Y-127772000D01*
G75*
G02*
X301335000Y-127632000I140000J0D01*
G01*
X301615000Y-127632000D01*
G75*
G02*
X301755000Y-127772000I0J-140000D01*
G01*
X301755000Y-128112000D01*
G75*
G02*
X301615000Y-128252000I-140000J0D01*
G01*
X301335000Y-128252000D01*
G75*
G02*
X301195000Y-128112000I0J140000D01*
G01*
G37*
%TD*%
%TO.C,C74*%
G36*
G01*
X305660000Y-123197000D02*
X305660000Y-122857000D01*
G75*
G02*
X305800000Y-122717000I140000J0D01*
G01*
X306080000Y-122717000D01*
G75*
G02*
X306220000Y-122857000I0J-140000D01*
G01*
X306220000Y-123197000D01*
G75*
G02*
X306080000Y-123337000I-140000J0D01*
G01*
X305800000Y-123337000D01*
G75*
G02*
X305660000Y-123197000I0J140000D01*
G01*
G37*
G36*
G01*
X304700000Y-123197000D02*
X304700000Y-122857000D01*
G75*
G02*
X304840000Y-122717000I140000J0D01*
G01*
X305120000Y-122717000D01*
G75*
G02*
X305260000Y-122857000I0J-140000D01*
G01*
X305260000Y-123197000D01*
G75*
G02*
X305120000Y-123337000I-140000J0D01*
G01*
X304840000Y-123337000D01*
G75*
G02*
X304700000Y-123197000I0J140000D01*
G01*
G37*
%TD*%
%TO.C,C77*%
G36*
G01*
X302155000Y-134464000D02*
X302155000Y-134124000D01*
G75*
G02*
X302295000Y-133984000I140000J0D01*
G01*
X302575000Y-133984000D01*
G75*
G02*
X302715000Y-134124000I0J-140000D01*
G01*
X302715000Y-134464000D01*
G75*
G02*
X302575000Y-134604000I-140000J0D01*
G01*
X302295000Y-134604000D01*
G75*
G02*
X302155000Y-134464000I0J140000D01*
G01*
G37*
G36*
G01*
X301195000Y-134464000D02*
X301195000Y-134124000D01*
G75*
G02*
X301335000Y-133984000I140000J0D01*
G01*
X301615000Y-133984000D01*
G75*
G02*
X301755000Y-134124000I0J-140000D01*
G01*
X301755000Y-134464000D01*
G75*
G02*
X301615000Y-134604000I-140000J0D01*
G01*
X301335000Y-134604000D01*
G75*
G02*
X301195000Y-134464000I0J140000D01*
G01*
G37*
%TD*%
%TO.C,C78*%
G36*
G01*
X305660000Y-118573000D02*
X305660000Y-118233000D01*
G75*
G02*
X305800000Y-118093000I140000J0D01*
G01*
X306080000Y-118093000D01*
G75*
G02*
X306220000Y-118233000I0J-140000D01*
G01*
X306220000Y-118573000D01*
G75*
G02*
X306080000Y-118713000I-140000J0D01*
G01*
X305800000Y-118713000D01*
G75*
G02*
X305660000Y-118573000I0J140000D01*
G01*
G37*
G36*
G01*
X304700000Y-118573000D02*
X304700000Y-118233000D01*
G75*
G02*
X304840000Y-118093000I140000J0D01*
G01*
X305120000Y-118093000D01*
G75*
G02*
X305260000Y-118233000I0J-140000D01*
G01*
X305260000Y-118573000D01*
G75*
G02*
X305120000Y-118713000I-140000J0D01*
G01*
X304840000Y-118713000D01*
G75*
G02*
X304700000Y-118573000I0J140000D01*
G01*
G37*
%TD*%
%TO.C,C79*%
G36*
G01*
X305660000Y-113950000D02*
X305660000Y-113610000D01*
G75*
G02*
X305800000Y-113470000I140000J0D01*
G01*
X306080000Y-113470000D01*
G75*
G02*
X306220000Y-113610000I0J-140000D01*
G01*
X306220000Y-113950000D01*
G75*
G02*
X306080000Y-114090000I-140000J0D01*
G01*
X305800000Y-114090000D01*
G75*
G02*
X305660000Y-113950000I0J140000D01*
G01*
G37*
G36*
G01*
X304700000Y-113950000D02*
X304700000Y-113610000D01*
G75*
G02*
X304840000Y-113470000I140000J0D01*
G01*
X305120000Y-113470000D01*
G75*
G02*
X305260000Y-113610000I0J-140000D01*
G01*
X305260000Y-113950000D01*
G75*
G02*
X305120000Y-114090000I-140000J0D01*
G01*
X304840000Y-114090000D01*
G75*
G02*
X304700000Y-113950000I0J140000D01*
G01*
G37*
%TD*%
%TO.C,C81*%
G36*
G01*
X305660000Y-120114000D02*
X305660000Y-119774000D01*
G75*
G02*
X305800000Y-119634000I140000J0D01*
G01*
X306080000Y-119634000D01*
G75*
G02*
X306220000Y-119774000I0J-140000D01*
G01*
X306220000Y-120114000D01*
G75*
G02*
X306080000Y-120254000I-140000J0D01*
G01*
X305800000Y-120254000D01*
G75*
G02*
X305660000Y-120114000I0J140000D01*
G01*
G37*
G36*
G01*
X304700000Y-120114000D02*
X304700000Y-119774000D01*
G75*
G02*
X304840000Y-119634000I140000J0D01*
G01*
X305120000Y-119634000D01*
G75*
G02*
X305260000Y-119774000I0J-140000D01*
G01*
X305260000Y-120114000D01*
G75*
G02*
X305120000Y-120254000I-140000J0D01*
G01*
X304840000Y-120254000D01*
G75*
G02*
X304700000Y-120114000I0J140000D01*
G01*
G37*
%TD*%
%TO.C,C83*%
G36*
G01*
X302155000Y-113820000D02*
X302155000Y-113480000D01*
G75*
G02*
X302295000Y-113340000I140000J0D01*
G01*
X302575000Y-113340000D01*
G75*
G02*
X302715000Y-113480000I0J-140000D01*
G01*
X302715000Y-113820000D01*
G75*
G02*
X302575000Y-113960000I-140000J0D01*
G01*
X302295000Y-113960000D01*
G75*
G02*
X302155000Y-113820000I0J140000D01*
G01*
G37*
G36*
G01*
X301195000Y-113820000D02*
X301195000Y-113480000D01*
G75*
G02*
X301335000Y-113340000I140000J0D01*
G01*
X301615000Y-113340000D01*
G75*
G02*
X301755000Y-113480000I0J-140000D01*
G01*
X301755000Y-113820000D01*
G75*
G02*
X301615000Y-113960000I-140000J0D01*
G01*
X301335000Y-113960000D01*
G75*
G02*
X301195000Y-113820000I0J140000D01*
G01*
G37*
%TD*%
%TO.C,C84*%
G36*
G01*
X302155000Y-121760000D02*
X302155000Y-121420000D01*
G75*
G02*
X302295000Y-121280000I140000J0D01*
G01*
X302575000Y-121280000D01*
G75*
G02*
X302715000Y-121420000I0J-140000D01*
G01*
X302715000Y-121760000D01*
G75*
G02*
X302575000Y-121900000I-140000J0D01*
G01*
X302295000Y-121900000D01*
G75*
G02*
X302155000Y-121760000I0J140000D01*
G01*
G37*
G36*
G01*
X301195000Y-121760000D02*
X301195000Y-121420000D01*
G75*
G02*
X301335000Y-121280000I140000J0D01*
G01*
X301615000Y-121280000D01*
G75*
G02*
X301755000Y-121420000I0J-140000D01*
G01*
X301755000Y-121760000D01*
G75*
G02*
X301615000Y-121900000I-140000J0D01*
G01*
X301335000Y-121900000D01*
G75*
G02*
X301195000Y-121760000I0J140000D01*
G01*
G37*
%TD*%
%TO.C,C85*%
G36*
G01*
X305660000Y-117032000D02*
X305660000Y-116692000D01*
G75*
G02*
X305800000Y-116552000I140000J0D01*
G01*
X306080000Y-116552000D01*
G75*
G02*
X306220000Y-116692000I0J-140000D01*
G01*
X306220000Y-117032000D01*
G75*
G02*
X306080000Y-117172000I-140000J0D01*
G01*
X305800000Y-117172000D01*
G75*
G02*
X305660000Y-117032000I0J140000D01*
G01*
G37*
G36*
G01*
X304700000Y-117032000D02*
X304700000Y-116692000D01*
G75*
G02*
X304840000Y-116552000I140000J0D01*
G01*
X305120000Y-116552000D01*
G75*
G02*
X305260000Y-116692000I0J-140000D01*
G01*
X305260000Y-117032000D01*
G75*
G02*
X305120000Y-117172000I-140000J0D01*
G01*
X304840000Y-117172000D01*
G75*
G02*
X304700000Y-117032000I0J140000D01*
G01*
G37*
%TD*%
%TO.C,C87*%
G36*
G01*
X302155000Y-118584000D02*
X302155000Y-118244000D01*
G75*
G02*
X302295000Y-118104000I140000J0D01*
G01*
X302575000Y-118104000D01*
G75*
G02*
X302715000Y-118244000I0J-140000D01*
G01*
X302715000Y-118584000D01*
G75*
G02*
X302575000Y-118724000I-140000J0D01*
G01*
X302295000Y-118724000D01*
G75*
G02*
X302155000Y-118584000I0J140000D01*
G01*
G37*
G36*
G01*
X301195000Y-118584000D02*
X301195000Y-118244000D01*
G75*
G02*
X301335000Y-118104000I140000J0D01*
G01*
X301615000Y-118104000D01*
G75*
G02*
X301755000Y-118244000I0J-140000D01*
G01*
X301755000Y-118584000D01*
G75*
G02*
X301615000Y-118724000I-140000J0D01*
G01*
X301335000Y-118724000D01*
G75*
G02*
X301195000Y-118584000I0J140000D01*
G01*
G37*
%TD*%
%TO.C,C25*%
G36*
G01*
X298370000Y-153999000D02*
X298370000Y-153659000D01*
G75*
G02*
X298510000Y-153519000I140000J0D01*
G01*
X298790000Y-153519000D01*
G75*
G02*
X298930000Y-153659000I0J-140000D01*
G01*
X298930000Y-153999000D01*
G75*
G02*
X298790000Y-154139000I-140000J0D01*
G01*
X298510000Y-154139000D01*
G75*
G02*
X298370000Y-153999000I0J140000D01*
G01*
G37*
G36*
G01*
X297410000Y-153999000D02*
X297410000Y-153659000D01*
G75*
G02*
X297550000Y-153519000I140000J0D01*
G01*
X297830000Y-153519000D01*
G75*
G02*
X297970000Y-153659000I0J-140000D01*
G01*
X297970000Y-153999000D01*
G75*
G02*
X297830000Y-154139000I-140000J0D01*
G01*
X297550000Y-154139000D01*
G75*
G02*
X297410000Y-153999000I0J140000D01*
G01*
G37*
%TD*%
%TO.C,C27*%
G36*
G01*
X298370000Y-149355000D02*
X298370000Y-149015000D01*
G75*
G02*
X298510000Y-148875000I140000J0D01*
G01*
X298790000Y-148875000D01*
G75*
G02*
X298930000Y-149015000I0J-140000D01*
G01*
X298930000Y-149355000D01*
G75*
G02*
X298790000Y-149495000I-140000J0D01*
G01*
X298510000Y-149495000D01*
G75*
G02*
X298370000Y-149355000I0J140000D01*
G01*
G37*
G36*
G01*
X297410000Y-149355000D02*
X297410000Y-149015000D01*
G75*
G02*
X297550000Y-148875000I140000J0D01*
G01*
X297830000Y-148875000D01*
G75*
G02*
X297970000Y-149015000I0J-140000D01*
G01*
X297970000Y-149355000D01*
G75*
G02*
X297830000Y-149495000I-140000J0D01*
G01*
X297550000Y-149495000D01*
G75*
G02*
X297410000Y-149355000I0J140000D01*
G01*
G37*
%TD*%
%TO.C,C29*%
G36*
G01*
X298370000Y-138520000D02*
X298370000Y-138180000D01*
G75*
G02*
X298510000Y-138040000I140000J0D01*
G01*
X298790000Y-138040000D01*
G75*
G02*
X298930000Y-138180000I0J-140000D01*
G01*
X298930000Y-138520000D01*
G75*
G02*
X298790000Y-138660000I-140000J0D01*
G01*
X298510000Y-138660000D01*
G75*
G02*
X298370000Y-138520000I0J140000D01*
G01*
G37*
G36*
G01*
X297410000Y-138520000D02*
X297410000Y-138180000D01*
G75*
G02*
X297550000Y-138040000I140000J0D01*
G01*
X297830000Y-138040000D01*
G75*
G02*
X297970000Y-138180000I0J-140000D01*
G01*
X297970000Y-138520000D01*
G75*
G02*
X297830000Y-138660000I-140000J0D01*
G01*
X297550000Y-138660000D01*
G75*
G02*
X297410000Y-138520000I0J140000D01*
G01*
G37*
%TD*%
%TO.C,C17*%
G36*
G01*
X298370000Y-152451000D02*
X298370000Y-152111000D01*
G75*
G02*
X298510000Y-151971000I140000J0D01*
G01*
X298790000Y-151971000D01*
G75*
G02*
X298930000Y-152111000I0J-140000D01*
G01*
X298930000Y-152451000D01*
G75*
G02*
X298790000Y-152591000I-140000J0D01*
G01*
X298510000Y-152591000D01*
G75*
G02*
X298370000Y-152451000I0J140000D01*
G01*
G37*
G36*
G01*
X297410000Y-152451000D02*
X297410000Y-152111000D01*
G75*
G02*
X297550000Y-151971000I140000J0D01*
G01*
X297830000Y-151971000D01*
G75*
G02*
X297970000Y-152111000I0J-140000D01*
G01*
X297970000Y-152451000D01*
G75*
G02*
X297830000Y-152591000I-140000J0D01*
G01*
X297550000Y-152591000D01*
G75*
G02*
X297410000Y-152451000I0J140000D01*
G01*
G37*
%TD*%
%TO.C,C23*%
G36*
G01*
X298370000Y-150903000D02*
X298370000Y-150563000D01*
G75*
G02*
X298510000Y-150423000I140000J0D01*
G01*
X298790000Y-150423000D01*
G75*
G02*
X298930000Y-150563000I0J-140000D01*
G01*
X298930000Y-150903000D01*
G75*
G02*
X298790000Y-151043000I-140000J0D01*
G01*
X298510000Y-151043000D01*
G75*
G02*
X298370000Y-150903000I0J140000D01*
G01*
G37*
G36*
G01*
X297410000Y-150903000D02*
X297410000Y-150563000D01*
G75*
G02*
X297550000Y-150423000I140000J0D01*
G01*
X297830000Y-150423000D01*
G75*
G02*
X297970000Y-150563000I0J-140000D01*
G01*
X297970000Y-150903000D01*
G75*
G02*
X297830000Y-151043000I-140000J0D01*
G01*
X297550000Y-151043000D01*
G75*
G02*
X297410000Y-150903000I0J140000D01*
G01*
G37*
%TD*%
%TO.C,C22*%
G36*
G01*
X298370000Y-141616000D02*
X298370000Y-141276000D01*
G75*
G02*
X298510000Y-141136000I140000J0D01*
G01*
X298790000Y-141136000D01*
G75*
G02*
X298930000Y-141276000I0J-140000D01*
G01*
X298930000Y-141616000D01*
G75*
G02*
X298790000Y-141756000I-140000J0D01*
G01*
X298510000Y-141756000D01*
G75*
G02*
X298370000Y-141616000I0J140000D01*
G01*
G37*
G36*
G01*
X297410000Y-141616000D02*
X297410000Y-141276000D01*
G75*
G02*
X297550000Y-141136000I140000J0D01*
G01*
X297830000Y-141136000D01*
G75*
G02*
X297970000Y-141276000I0J-140000D01*
G01*
X297970000Y-141616000D01*
G75*
G02*
X297830000Y-141756000I-140000J0D01*
G01*
X297550000Y-141756000D01*
G75*
G02*
X297410000Y-141616000I0J140000D01*
G01*
G37*
%TD*%
%TO.C,C42*%
G36*
G01*
X298370000Y-132329000D02*
X298370000Y-131989000D01*
G75*
G02*
X298510000Y-131849000I140000J0D01*
G01*
X298790000Y-131849000D01*
G75*
G02*
X298930000Y-131989000I0J-140000D01*
G01*
X298930000Y-132329000D01*
G75*
G02*
X298790000Y-132469000I-140000J0D01*
G01*
X298510000Y-132469000D01*
G75*
G02*
X298370000Y-132329000I0J140000D01*
G01*
G37*
G36*
G01*
X297410000Y-132329000D02*
X297410000Y-131989000D01*
G75*
G02*
X297550000Y-131849000I140000J0D01*
G01*
X297830000Y-131849000D01*
G75*
G02*
X297970000Y-131989000I0J-140000D01*
G01*
X297970000Y-132329000D01*
G75*
G02*
X297830000Y-132469000I-140000J0D01*
G01*
X297550000Y-132469000D01*
G75*
G02*
X297410000Y-132329000I0J140000D01*
G01*
G37*
%TD*%
%TO.C,C37*%
G36*
G01*
X298370000Y-135425000D02*
X298370000Y-135085000D01*
G75*
G02*
X298510000Y-134945000I140000J0D01*
G01*
X298790000Y-134945000D01*
G75*
G02*
X298930000Y-135085000I0J-140000D01*
G01*
X298930000Y-135425000D01*
G75*
G02*
X298790000Y-135565000I-140000J0D01*
G01*
X298510000Y-135565000D01*
G75*
G02*
X298370000Y-135425000I0J140000D01*
G01*
G37*
G36*
G01*
X297410000Y-135425000D02*
X297410000Y-135085000D01*
G75*
G02*
X297550000Y-134945000I140000J0D01*
G01*
X297830000Y-134945000D01*
G75*
G02*
X297970000Y-135085000I0J-140000D01*
G01*
X297970000Y-135425000D01*
G75*
G02*
X297830000Y-135565000I-140000J0D01*
G01*
X297550000Y-135565000D01*
G75*
G02*
X297410000Y-135425000I0J140000D01*
G01*
G37*
%TD*%
%TO.C,C48*%
G36*
G01*
X298370000Y-136973000D02*
X298370000Y-136633000D01*
G75*
G02*
X298510000Y-136493000I140000J0D01*
G01*
X298790000Y-136493000D01*
G75*
G02*
X298930000Y-136633000I0J-140000D01*
G01*
X298930000Y-136973000D01*
G75*
G02*
X298790000Y-137113000I-140000J0D01*
G01*
X298510000Y-137113000D01*
G75*
G02*
X298370000Y-136973000I0J140000D01*
G01*
G37*
G36*
G01*
X297410000Y-136973000D02*
X297410000Y-136633000D01*
G75*
G02*
X297550000Y-136493000I140000J0D01*
G01*
X297830000Y-136493000D01*
G75*
G02*
X297970000Y-136633000I0J-140000D01*
G01*
X297970000Y-136973000D01*
G75*
G02*
X297830000Y-137113000I-140000J0D01*
G01*
X297550000Y-137113000D01*
G75*
G02*
X297410000Y-136973000I0J140000D01*
G01*
G37*
%TD*%
%TO.C,C34*%
G36*
G01*
X298370000Y-147807000D02*
X298370000Y-147467000D01*
G75*
G02*
X298510000Y-147327000I140000J0D01*
G01*
X298790000Y-147327000D01*
G75*
G02*
X298930000Y-147467000I0J-140000D01*
G01*
X298930000Y-147807000D01*
G75*
G02*
X298790000Y-147947000I-140000J0D01*
G01*
X298510000Y-147947000D01*
G75*
G02*
X298370000Y-147807000I0J140000D01*
G01*
G37*
G36*
G01*
X297410000Y-147807000D02*
X297410000Y-147467000D01*
G75*
G02*
X297550000Y-147327000I140000J0D01*
G01*
X297830000Y-147327000D01*
G75*
G02*
X297970000Y-147467000I0J-140000D01*
G01*
X297970000Y-147807000D01*
G75*
G02*
X297830000Y-147947000I-140000J0D01*
G01*
X297550000Y-147947000D01*
G75*
G02*
X297410000Y-147807000I0J140000D01*
G01*
G37*
%TD*%
%TO.C,C41*%
G36*
G01*
X298370000Y-140068000D02*
X298370000Y-139728000D01*
G75*
G02*
X298510000Y-139588000I140000J0D01*
G01*
X298790000Y-139588000D01*
G75*
G02*
X298930000Y-139728000I0J-140000D01*
G01*
X298930000Y-140068000D01*
G75*
G02*
X298790000Y-140208000I-140000J0D01*
G01*
X298510000Y-140208000D01*
G75*
G02*
X298370000Y-140068000I0J140000D01*
G01*
G37*
G36*
G01*
X297410000Y-140068000D02*
X297410000Y-139728000D01*
G75*
G02*
X297550000Y-139588000I140000J0D01*
G01*
X297830000Y-139588000D01*
G75*
G02*
X297970000Y-139728000I0J-140000D01*
G01*
X297970000Y-140068000D01*
G75*
G02*
X297830000Y-140208000I-140000J0D01*
G01*
X297550000Y-140208000D01*
G75*
G02*
X297410000Y-140068000I0J140000D01*
G01*
G37*
%TD*%
%TO.C,C49*%
G36*
G01*
X298370000Y-129233000D02*
X298370000Y-128893000D01*
G75*
G02*
X298510000Y-128753000I140000J0D01*
G01*
X298790000Y-128753000D01*
G75*
G02*
X298930000Y-128893000I0J-140000D01*
G01*
X298930000Y-129233000D01*
G75*
G02*
X298790000Y-129373000I-140000J0D01*
G01*
X298510000Y-129373000D01*
G75*
G02*
X298370000Y-129233000I0J140000D01*
G01*
G37*
G36*
G01*
X297410000Y-129233000D02*
X297410000Y-128893000D01*
G75*
G02*
X297550000Y-128753000I140000J0D01*
G01*
X297830000Y-128753000D01*
G75*
G02*
X297970000Y-128893000I0J-140000D01*
G01*
X297970000Y-129233000D01*
G75*
G02*
X297830000Y-129373000I-140000J0D01*
G01*
X297550000Y-129373000D01*
G75*
G02*
X297410000Y-129233000I0J140000D01*
G01*
G37*
%TD*%
%TO.C,C54*%
G36*
G01*
X298370000Y-126138000D02*
X298370000Y-125798000D01*
G75*
G02*
X298510000Y-125658000I140000J0D01*
G01*
X298790000Y-125658000D01*
G75*
G02*
X298930000Y-125798000I0J-140000D01*
G01*
X298930000Y-126138000D01*
G75*
G02*
X298790000Y-126278000I-140000J0D01*
G01*
X298510000Y-126278000D01*
G75*
G02*
X298370000Y-126138000I0J140000D01*
G01*
G37*
G36*
G01*
X297410000Y-126138000D02*
X297410000Y-125798000D01*
G75*
G02*
X297550000Y-125658000I140000J0D01*
G01*
X297830000Y-125658000D01*
G75*
G02*
X297970000Y-125798000I0J-140000D01*
G01*
X297970000Y-126138000D01*
G75*
G02*
X297830000Y-126278000I-140000J0D01*
G01*
X297550000Y-126278000D01*
G75*
G02*
X297410000Y-126138000I0J140000D01*
G01*
G37*
%TD*%
%TO.C,C69*%
G36*
G01*
X298370000Y-127686000D02*
X298370000Y-127346000D01*
G75*
G02*
X298510000Y-127206000I140000J0D01*
G01*
X298790000Y-127206000D01*
G75*
G02*
X298930000Y-127346000I0J-140000D01*
G01*
X298930000Y-127686000D01*
G75*
G02*
X298790000Y-127826000I-140000J0D01*
G01*
X298510000Y-127826000D01*
G75*
G02*
X298370000Y-127686000I0J140000D01*
G01*
G37*
G36*
G01*
X297410000Y-127686000D02*
X297410000Y-127346000D01*
G75*
G02*
X297550000Y-127206000I140000J0D01*
G01*
X297830000Y-127206000D01*
G75*
G02*
X297970000Y-127346000I0J-140000D01*
G01*
X297970000Y-127686000D01*
G75*
G02*
X297830000Y-127826000I-140000J0D01*
G01*
X297550000Y-127826000D01*
G75*
G02*
X297410000Y-127686000I0J140000D01*
G01*
G37*
%TD*%
%TO.C,C75*%
G36*
G01*
X298370000Y-115303000D02*
X298370000Y-114963000D01*
G75*
G02*
X298510000Y-114823000I140000J0D01*
G01*
X298790000Y-114823000D01*
G75*
G02*
X298930000Y-114963000I0J-140000D01*
G01*
X298930000Y-115303000D01*
G75*
G02*
X298790000Y-115443000I-140000J0D01*
G01*
X298510000Y-115443000D01*
G75*
G02*
X298370000Y-115303000I0J140000D01*
G01*
G37*
G36*
G01*
X297410000Y-115303000D02*
X297410000Y-114963000D01*
G75*
G02*
X297550000Y-114823000I140000J0D01*
G01*
X297830000Y-114823000D01*
G75*
G02*
X297970000Y-114963000I0J-140000D01*
G01*
X297970000Y-115303000D01*
G75*
G02*
X297830000Y-115443000I-140000J0D01*
G01*
X297550000Y-115443000D01*
G75*
G02*
X297410000Y-115303000I0J140000D01*
G01*
G37*
%TD*%
%TO.C,C80*%
G36*
G01*
X298370000Y-121494000D02*
X298370000Y-121154000D01*
G75*
G02*
X298510000Y-121014000I140000J0D01*
G01*
X298790000Y-121014000D01*
G75*
G02*
X298930000Y-121154000I0J-140000D01*
G01*
X298930000Y-121494000D01*
G75*
G02*
X298790000Y-121634000I-140000J0D01*
G01*
X298510000Y-121634000D01*
G75*
G02*
X298370000Y-121494000I0J140000D01*
G01*
G37*
G36*
G01*
X297410000Y-121494000D02*
X297410000Y-121154000D01*
G75*
G02*
X297550000Y-121014000I140000J0D01*
G01*
X297830000Y-121014000D01*
G75*
G02*
X297970000Y-121154000I0J-140000D01*
G01*
X297970000Y-121494000D01*
G75*
G02*
X297830000Y-121634000I-140000J0D01*
G01*
X297550000Y-121634000D01*
G75*
G02*
X297410000Y-121494000I0J140000D01*
G01*
G37*
%TD*%
%TO.C,C86*%
G36*
G01*
X298370000Y-119946000D02*
X298370000Y-119606000D01*
G75*
G02*
X298510000Y-119466000I140000J0D01*
G01*
X298790000Y-119466000D01*
G75*
G02*
X298930000Y-119606000I0J-140000D01*
G01*
X298930000Y-119946000D01*
G75*
G02*
X298790000Y-120086000I-140000J0D01*
G01*
X298510000Y-120086000D01*
G75*
G02*
X298370000Y-119946000I0J140000D01*
G01*
G37*
G36*
G01*
X297410000Y-119946000D02*
X297410000Y-119606000D01*
G75*
G02*
X297550000Y-119466000I140000J0D01*
G01*
X297830000Y-119466000D01*
G75*
G02*
X297970000Y-119606000I0J-140000D01*
G01*
X297970000Y-119946000D01*
G75*
G02*
X297830000Y-120086000I-140000J0D01*
G01*
X297550000Y-120086000D01*
G75*
G02*
X297410000Y-119946000I0J140000D01*
G01*
G37*
%TD*%
%TO.C,C76*%
G36*
G01*
X298370000Y-124590000D02*
X298370000Y-124250000D01*
G75*
G02*
X298510000Y-124110000I140000J0D01*
G01*
X298790000Y-124110000D01*
G75*
G02*
X298930000Y-124250000I0J-140000D01*
G01*
X298930000Y-124590000D01*
G75*
G02*
X298790000Y-124730000I-140000J0D01*
G01*
X298510000Y-124730000D01*
G75*
G02*
X298370000Y-124590000I0J140000D01*
G01*
G37*
G36*
G01*
X297410000Y-124590000D02*
X297410000Y-124250000D01*
G75*
G02*
X297550000Y-124110000I140000J0D01*
G01*
X297830000Y-124110000D01*
G75*
G02*
X297970000Y-124250000I0J-140000D01*
G01*
X297970000Y-124590000D01*
G75*
G02*
X297830000Y-124730000I-140000J0D01*
G01*
X297550000Y-124730000D01*
G75*
G02*
X297410000Y-124590000I0J140000D01*
G01*
G37*
%TD*%
%TO.C,C67*%
G36*
G01*
X298370000Y-133877000D02*
X298370000Y-133537000D01*
G75*
G02*
X298510000Y-133397000I140000J0D01*
G01*
X298790000Y-133397000D01*
G75*
G02*
X298930000Y-133537000I0J-140000D01*
G01*
X298930000Y-133877000D01*
G75*
G02*
X298790000Y-134017000I-140000J0D01*
G01*
X298510000Y-134017000D01*
G75*
G02*
X298370000Y-133877000I0J140000D01*
G01*
G37*
G36*
G01*
X297410000Y-133877000D02*
X297410000Y-133537000D01*
G75*
G02*
X297550000Y-133397000I140000J0D01*
G01*
X297830000Y-133397000D01*
G75*
G02*
X297970000Y-133537000I0J-140000D01*
G01*
X297970000Y-133877000D01*
G75*
G02*
X297830000Y-134017000I-140000J0D01*
G01*
X297550000Y-134017000D01*
G75*
G02*
X297410000Y-133877000I0J140000D01*
G01*
G37*
%TD*%
%TO.C,C82*%
G36*
G01*
X298370000Y-113755000D02*
X298370000Y-113415000D01*
G75*
G02*
X298510000Y-113275000I140000J0D01*
G01*
X298790000Y-113275000D01*
G75*
G02*
X298930000Y-113415000I0J-140000D01*
G01*
X298930000Y-113755000D01*
G75*
G02*
X298790000Y-113895000I-140000J0D01*
G01*
X298510000Y-113895000D01*
G75*
G02*
X298370000Y-113755000I0J140000D01*
G01*
G37*
G36*
G01*
X297410000Y-113755000D02*
X297410000Y-113415000D01*
G75*
G02*
X297550000Y-113275000I140000J0D01*
G01*
X297830000Y-113275000D01*
G75*
G02*
X297970000Y-113415000I0J-140000D01*
G01*
X297970000Y-113755000D01*
G75*
G02*
X297830000Y-113895000I-140000J0D01*
G01*
X297550000Y-113895000D01*
G75*
G02*
X297410000Y-113755000I0J140000D01*
G01*
G37*
%TD*%
%TO.C,C68*%
G36*
G01*
X298370000Y-116851000D02*
X298370000Y-116511000D01*
G75*
G02*
X298510000Y-116371000I140000J0D01*
G01*
X298790000Y-116371000D01*
G75*
G02*
X298930000Y-116511000I0J-140000D01*
G01*
X298930000Y-116851000D01*
G75*
G02*
X298790000Y-116991000I-140000J0D01*
G01*
X298510000Y-116991000D01*
G75*
G02*
X298370000Y-116851000I0J140000D01*
G01*
G37*
G36*
G01*
X297410000Y-116851000D02*
X297410000Y-116511000D01*
G75*
G02*
X297550000Y-116371000I140000J0D01*
G01*
X297830000Y-116371000D01*
G75*
G02*
X297970000Y-116511000I0J-140000D01*
G01*
X297970000Y-116851000D01*
G75*
G02*
X297830000Y-116991000I-140000J0D01*
G01*
X297550000Y-116991000D01*
G75*
G02*
X297410000Y-116851000I0J140000D01*
G01*
G37*
%TD*%
%TO.C,C62*%
G36*
G01*
X298370000Y-118399000D02*
X298370000Y-118059000D01*
G75*
G02*
X298510000Y-117919000I140000J0D01*
G01*
X298790000Y-117919000D01*
G75*
G02*
X298930000Y-118059000I0J-140000D01*
G01*
X298930000Y-118399000D01*
G75*
G02*
X298790000Y-118539000I-140000J0D01*
G01*
X298510000Y-118539000D01*
G75*
G02*
X298370000Y-118399000I0J140000D01*
G01*
G37*
G36*
G01*
X297410000Y-118399000D02*
X297410000Y-118059000D01*
G75*
G02*
X297550000Y-117919000I140000J0D01*
G01*
X297830000Y-117919000D01*
G75*
G02*
X297970000Y-118059000I0J-140000D01*
G01*
X297970000Y-118399000D01*
G75*
G02*
X297830000Y-118539000I-140000J0D01*
G01*
X297550000Y-118539000D01*
G75*
G02*
X297410000Y-118399000I0J140000D01*
G01*
G37*
%TD*%
%TO.C,C61*%
G36*
G01*
X298370000Y-123042000D02*
X298370000Y-122702000D01*
G75*
G02*
X298510000Y-122562000I140000J0D01*
G01*
X298790000Y-122562000D01*
G75*
G02*
X298930000Y-122702000I0J-140000D01*
G01*
X298930000Y-123042000D01*
G75*
G02*
X298790000Y-123182000I-140000J0D01*
G01*
X298510000Y-123182000D01*
G75*
G02*
X298370000Y-123042000I0J140000D01*
G01*
G37*
G36*
G01*
X297410000Y-123042000D02*
X297410000Y-122702000D01*
G75*
G02*
X297550000Y-122562000I140000J0D01*
G01*
X297830000Y-122562000D01*
G75*
G02*
X297970000Y-122702000I0J-140000D01*
G01*
X297970000Y-123042000D01*
G75*
G02*
X297830000Y-123182000I-140000J0D01*
G01*
X297550000Y-123182000D01*
G75*
G02*
X297410000Y-123042000I0J140000D01*
G01*
G37*
%TD*%
%TO.C,C64*%
G36*
G01*
X298370000Y-130781000D02*
X298370000Y-130441000D01*
G75*
G02*
X298510000Y-130301000I140000J0D01*
G01*
X298790000Y-130301000D01*
G75*
G02*
X298930000Y-130441000I0J-140000D01*
G01*
X298930000Y-130781000D01*
G75*
G02*
X298790000Y-130921000I-140000J0D01*
G01*
X298510000Y-130921000D01*
G75*
G02*
X298370000Y-130781000I0J140000D01*
G01*
G37*
G36*
G01*
X297410000Y-130781000D02*
X297410000Y-130441000D01*
G75*
G02*
X297550000Y-130301000I140000J0D01*
G01*
X297830000Y-130301000D01*
G75*
G02*
X297970000Y-130441000I0J-140000D01*
G01*
X297970000Y-130781000D01*
G75*
G02*
X297830000Y-130921000I-140000J0D01*
G01*
X297550000Y-130921000D01*
G75*
G02*
X297410000Y-130781000I0J140000D01*
G01*
G37*
%TD*%
%TO.C,C4*%
G36*
G01*
X298370000Y-157094000D02*
X298370000Y-156754000D01*
G75*
G02*
X298510000Y-156614000I140000J0D01*
G01*
X298790000Y-156614000D01*
G75*
G02*
X298930000Y-156754000I0J-140000D01*
G01*
X298930000Y-157094000D01*
G75*
G02*
X298790000Y-157234000I-140000J0D01*
G01*
X298510000Y-157234000D01*
G75*
G02*
X298370000Y-157094000I0J140000D01*
G01*
G37*
G36*
G01*
X297410000Y-157094000D02*
X297410000Y-156754000D01*
G75*
G02*
X297550000Y-156614000I140000J0D01*
G01*
X297830000Y-156614000D01*
G75*
G02*
X297970000Y-156754000I0J-140000D01*
G01*
X297970000Y-157094000D01*
G75*
G02*
X297830000Y-157234000I-140000J0D01*
G01*
X297550000Y-157234000D01*
G75*
G02*
X297410000Y-157094000I0J140000D01*
G01*
G37*
%TD*%
%TO.C,C8*%
G36*
G01*
X298370000Y-155547000D02*
X298370000Y-155207000D01*
G75*
G02*
X298510000Y-155067000I140000J0D01*
G01*
X298790000Y-155067000D01*
G75*
G02*
X298930000Y-155207000I0J-140000D01*
G01*
X298930000Y-155547000D01*
G75*
G02*
X298790000Y-155687000I-140000J0D01*
G01*
X298510000Y-155687000D01*
G75*
G02*
X298370000Y-155547000I0J140000D01*
G01*
G37*
G36*
G01*
X297410000Y-155547000D02*
X297410000Y-155207000D01*
G75*
G02*
X297550000Y-155067000I140000J0D01*
G01*
X297830000Y-155067000D01*
G75*
G02*
X297970000Y-155207000I0J-140000D01*
G01*
X297970000Y-155547000D01*
G75*
G02*
X297830000Y-155687000I-140000J0D01*
G01*
X297550000Y-155687000D01*
G75*
G02*
X297410000Y-155547000I0J140000D01*
G01*
G37*
%TD*%
%TO.C,C11*%
G36*
G01*
X298370000Y-146260000D02*
X298370000Y-145920000D01*
G75*
G02*
X298510000Y-145780000I140000J0D01*
G01*
X298790000Y-145780000D01*
G75*
G02*
X298930000Y-145920000I0J-140000D01*
G01*
X298930000Y-146260000D01*
G75*
G02*
X298790000Y-146400000I-140000J0D01*
G01*
X298510000Y-146400000D01*
G75*
G02*
X298370000Y-146260000I0J140000D01*
G01*
G37*
G36*
G01*
X297410000Y-146260000D02*
X297410000Y-145920000D01*
G75*
G02*
X297550000Y-145780000I140000J0D01*
G01*
X297830000Y-145780000D01*
G75*
G02*
X297970000Y-145920000I0J-140000D01*
G01*
X297970000Y-146260000D01*
G75*
G02*
X297830000Y-146400000I-140000J0D01*
G01*
X297550000Y-146400000D01*
G75*
G02*
X297410000Y-146260000I0J140000D01*
G01*
G37*
%TD*%
%TO.C,C16*%
G36*
G01*
X298370000Y-144712000D02*
X298370000Y-144372000D01*
G75*
G02*
X298510000Y-144232000I140000J0D01*
G01*
X298790000Y-144232000D01*
G75*
G02*
X298930000Y-144372000I0J-140000D01*
G01*
X298930000Y-144712000D01*
G75*
G02*
X298790000Y-144852000I-140000J0D01*
G01*
X298510000Y-144852000D01*
G75*
G02*
X298370000Y-144712000I0J140000D01*
G01*
G37*
G36*
G01*
X297410000Y-144712000D02*
X297410000Y-144372000D01*
G75*
G02*
X297550000Y-144232000I140000J0D01*
G01*
X297830000Y-144232000D01*
G75*
G02*
X297970000Y-144372000I0J-140000D01*
G01*
X297970000Y-144712000D01*
G75*
G02*
X297830000Y-144852000I-140000J0D01*
G01*
X297550000Y-144852000D01*
G75*
G02*
X297410000Y-144712000I0J140000D01*
G01*
G37*
%TD*%
%TO.C,C2*%
G36*
G01*
X298370000Y-158642000D02*
X298370000Y-158302000D01*
G75*
G02*
X298510000Y-158162000I140000J0D01*
G01*
X298790000Y-158162000D01*
G75*
G02*
X298930000Y-158302000I0J-140000D01*
G01*
X298930000Y-158642000D01*
G75*
G02*
X298790000Y-158782000I-140000J0D01*
G01*
X298510000Y-158782000D01*
G75*
G02*
X298370000Y-158642000I0J140000D01*
G01*
G37*
G36*
G01*
X297410000Y-158642000D02*
X297410000Y-158302000D01*
G75*
G02*
X297550000Y-158162000I140000J0D01*
G01*
X297830000Y-158162000D01*
G75*
G02*
X297970000Y-158302000I0J-140000D01*
G01*
X297970000Y-158642000D01*
G75*
G02*
X297830000Y-158782000I-140000J0D01*
G01*
X297550000Y-158782000D01*
G75*
G02*
X297410000Y-158642000I0J140000D01*
G01*
G37*
%TD*%
%TO.C,C14*%
G36*
G01*
X298370000Y-160190000D02*
X298370000Y-159850000D01*
G75*
G02*
X298510000Y-159710000I140000J0D01*
G01*
X298790000Y-159710000D01*
G75*
G02*
X298930000Y-159850000I0J-140000D01*
G01*
X298930000Y-160190000D01*
G75*
G02*
X298790000Y-160330000I-140000J0D01*
G01*
X298510000Y-160330000D01*
G75*
G02*
X298370000Y-160190000I0J140000D01*
G01*
G37*
G36*
G01*
X297410000Y-160190000D02*
X297410000Y-159850000D01*
G75*
G02*
X297550000Y-159710000I140000J0D01*
G01*
X297830000Y-159710000D01*
G75*
G02*
X297970000Y-159850000I0J-140000D01*
G01*
X297970000Y-160190000D01*
G75*
G02*
X297830000Y-160330000I-140000J0D01*
G01*
X297550000Y-160330000D01*
G75*
G02*
X297410000Y-160190000I0J140000D01*
G01*
G37*
%TD*%
%TO.C,C1*%
G36*
G01*
X298370000Y-143164000D02*
X298370000Y-142824000D01*
G75*
G02*
X298510000Y-142684000I140000J0D01*
G01*
X298790000Y-142684000D01*
G75*
G02*
X298930000Y-142824000I0J-140000D01*
G01*
X298930000Y-143164000D01*
G75*
G02*
X298790000Y-143304000I-140000J0D01*
G01*
X298510000Y-143304000D01*
G75*
G02*
X298370000Y-143164000I0J140000D01*
G01*
G37*
G36*
G01*
X297410000Y-143164000D02*
X297410000Y-142824000D01*
G75*
G02*
X297550000Y-142684000I140000J0D01*
G01*
X297830000Y-142684000D01*
G75*
G02*
X297970000Y-142824000I0J-140000D01*
G01*
X297970000Y-143164000D01*
G75*
G02*
X297830000Y-143304000I-140000J0D01*
G01*
X297550000Y-143304000D01*
G75*
G02*
X297410000Y-143164000I0J140000D01*
G01*
G37*
%TD*%
M02*
