%TF.GenerationSoftware,KiCad,Pcbnew,(5.1.9)-1*%
%TF.CreationDate,2021-05-14T10:54:05-07:00*%
%TF.ProjectId,chgray-keyboard,63686772-6179-42d6-9b65-79626f617264,Yeet2*%
%TF.SameCoordinates,Original*%
%TF.FileFunction,Copper,L1,Top*%
%TF.FilePolarity,Positive*%
%FSLAX46Y46*%
G04 Gerber Fmt 4.6, Leading zero omitted, Abs format (unit mm)*
G04 Created by KiCad (PCBNEW (5.1.9)-1) date 2021-05-14 10:54:05*
%MOMM*%
%LPD*%
G01*
G04 APERTURE LIST*
%TA.AperFunction,ComponentPad*%
%ADD10C,1.600000*%
%TD*%
%TA.AperFunction,ComponentPad*%
%ADD11R,1.600000X1.600000*%
%TD*%
%TA.AperFunction,WasherPad*%
%ADD12R,4.500000X3.000000*%
%TD*%
%TA.AperFunction,ComponentPad*%
%ADD13O,1.000000X1.000000*%
%TD*%
%TA.AperFunction,ComponentPad*%
%ADD14R,1.000000X1.000000*%
%TD*%
%TA.AperFunction,ViaPad*%
%ADD15C,0.800000*%
%TD*%
%TA.AperFunction,Conductor*%
%ADD16C,0.250000*%
%TD*%
G04 APERTURE END LIST*
D10*
%TO.P,U1,31*%
%TO.N,N/C*%
X321945000Y-34925000D03*
%TO.P,U1,30*%
X311785000Y-34925000D03*
%TO.P,U1,29*%
%TO.N,PWR_5V*%
X324485000Y-24765000D03*
%TO.P,U1,28*%
%TO.N,/Keyboard Keys/KEY_ROW2*%
X324485000Y-27305000D03*
%TO.P,U1,27*%
%TO.N,/Keyboard Keys/KEY_COL12*%
X324485000Y-29845000D03*
%TO.P,U1,26*%
%TO.N,/Keyboard Keys/KEY_COL13*%
X324485000Y-32385000D03*
%TO.P,U1,25*%
%TO.N,Net-(J1-Pad3)*%
X324485000Y-34925000D03*
%TO.P,U1,24*%
%TO.N,/Keyboard Keys/KEY_COL11*%
X324485000Y-37465000D03*
%TO.P,U1,23*%
%TO.N,/Keyboard Keys/KEY_COL4*%
X324485000Y-40005000D03*
%TO.P,U1,22*%
%TO.N,/Keyboard Keys/KEY_COL5*%
X324485000Y-42545000D03*
%TO.P,U1,21*%
%TO.N,/Keyboard Keys/KEY_COL6*%
X324485000Y-45085000D03*
%TO.P,U1,20*%
%TO.N,/Keyboard Keys/KEY_COL7*%
X324485000Y-47625000D03*
%TO.P,U1,19*%
%TO.N,/Keyboard Keys/KEY_COL8*%
X324485000Y-50165000D03*
%TO.P,U1,18*%
%TO.N,/Keyboard Keys/KEY_COL9*%
X324485000Y-52705000D03*
%TO.P,U1,17*%
%TO.N,/Keyboard Keys/KEY_COL10*%
X321945000Y-52705000D03*
%TO.P,U1,16*%
%TO.N,/Keyboard Keys/KEY_ROW3*%
X319405000Y-52705000D03*
%TO.P,U1,14*%
%TO.N,N/C*%
X314325000Y-52705000D03*
%TO.P,U1,13*%
%TO.N,/Keyboard Keys/KEY_ROW1*%
X311785000Y-52705000D03*
%TO.P,U1,12*%
%TO.N,/Keyboard Keys/KEY_ROW0*%
X309245000Y-52705000D03*
%TO.P,U1,11*%
%TO.N,/Keyboard Keys/KEY_COL1*%
X309245000Y-50165000D03*
%TO.P,U1,10*%
%TO.N,Net-(J1-Pad7)*%
X309245000Y-47625000D03*
%TO.P,U1,9*%
%TO.N,Net-(J1-Pad5)*%
X309245000Y-45085000D03*
%TO.P,U1,8*%
%TO.N,/Keyboard Keys/KEY_COL0*%
X309245000Y-42545000D03*
%TO.P,U1,7*%
%TO.N,N/C*%
X309245000Y-40005000D03*
%TO.P,U1,6*%
X309245000Y-37465000D03*
%TO.P,U1,5*%
%TO.N,/Keyboard Keys/KEY_COL3*%
X309245000Y-34925000D03*
%TO.P,U1,4*%
%TO.N,/Keyboard Keys/KEY_COL2*%
X309245000Y-32385000D03*
%TO.P,U1,3*%
%TO.N,/Keyboard Keys/KEY_ROW4*%
X309245000Y-29845000D03*
%TO.P,U1,2*%
%TO.N,/Keyboard Keys/KEY_ROW5*%
X309245000Y-27305000D03*
D11*
%TO.P,U1,1*%
%TO.N,TEENSY_GND*%
X309245000Y-24765000D03*
D10*
%TO.P,U1,15*%
X316865000Y-52705000D03*
%TD*%
D12*
%TO.P,D85,*%
%TO.N,*%
X44958000Y-42189000D03*
%TD*%
%TO.P,D90,*%
%TO.N,*%
X64008000Y-42191000D03*
%TD*%
%TO.P,D95,*%
%TO.N,*%
X83058000Y-42189000D03*
%TD*%
%TO.P,D100,*%
%TO.N,*%
X102108000Y-42215000D03*
%TD*%
%TO.P,D104,*%
%TO.N,*%
X121158000Y-42191000D03*
%TD*%
%TO.P,D108,*%
%TO.N,*%
X140208000Y-42166000D03*
%TD*%
%TO.P,D112,*%
%TO.N,*%
X159283000Y-42191000D03*
%TD*%
%TO.P,D116,*%
%TO.N,*%
X178308000Y-42191000D03*
%TD*%
%TO.P,D120,*%
%TO.N,*%
X197333000Y-42191000D03*
%TD*%
%TO.P,D124,*%
%TO.N,*%
X216408000Y-42191000D03*
%TD*%
%TO.P,D128,*%
%TO.N,*%
X235483000Y-42166000D03*
%TD*%
%TO.P,D132,*%
%TO.N,*%
X254508000Y-42191000D03*
%TD*%
%TO.P,D136,*%
%TO.N,*%
X273533000Y-42216000D03*
%TD*%
%TO.P,D140,*%
%TO.N,*%
X335763000Y-42445000D03*
%TD*%
%TO.P,D144,*%
%TO.N,*%
X354838000Y-42445000D03*
%TD*%
%TO.P,D148,*%
%TO.N,*%
X373863000Y-42470000D03*
%TD*%
%TO.P,D152,*%
%TO.N,*%
X392963000Y-42420000D03*
%TD*%
%TO.P,D156,*%
%TO.N,*%
X392963000Y-61470000D03*
%TD*%
%TO.P,D160,*%
%TO.N,*%
X373913000Y-61470000D03*
%TD*%
%TO.P,D164,*%
%TO.N,*%
X354863000Y-61470000D03*
%TD*%
%TO.P,D168,*%
%TO.N,*%
X335788000Y-61495000D03*
%TD*%
%TO.P,D86,*%
%TO.N,*%
X297434000Y-61227000D03*
%TD*%
%TO.P,D91,*%
%TO.N,*%
X278384000Y-61227000D03*
%TD*%
%TO.P,D96,*%
%TO.N,*%
X259334000Y-61202000D03*
%TD*%
%TO.P,D101,*%
%TO.N,*%
X240284000Y-61227000D03*
%TD*%
%TO.P,D105,*%
%TO.N,*%
X221234000Y-61176000D03*
%TD*%
%TO.P,D109,*%
%TO.N,*%
X202209000Y-61151000D03*
%TD*%
%TO.P,D113,*%
%TO.N,*%
X183159000Y-61202000D03*
%TD*%
%TO.P,D117,*%
%TO.N,*%
X164084000Y-61190000D03*
%TD*%
%TO.P,D121,*%
%TO.N,*%
X145034000Y-61202000D03*
%TD*%
%TO.P,D125,*%
%TO.N,*%
X125959000Y-61176000D03*
%TD*%
%TO.P,D129,*%
%TO.N,*%
X106934000Y-61165000D03*
%TD*%
%TO.P,D133,*%
%TO.N,*%
X87884000Y-61216000D03*
%TD*%
%TO.P,D137,*%
%TO.N,*%
X68808600Y-61241000D03*
%TD*%
%TO.P,D141,*%
%TO.N,*%
X47244000Y-61241000D03*
%TD*%
%TO.P,D145,*%
%TO.N,*%
X49657000Y-80037000D03*
%TD*%
%TO.P,D149,*%
%TO.N,*%
X73660000Y-80291000D03*
%TD*%
%TO.P,D153,*%
%TO.N,*%
X92710000Y-80291000D03*
%TD*%
%TO.P,D157,*%
%TO.N,*%
X111735000Y-80266000D03*
%TD*%
%TO.P,D161,*%
%TO.N,*%
X130810000Y-80291000D03*
%TD*%
%TO.P,D165,*%
%TO.N,*%
X149631000Y-80291000D03*
%TD*%
%TO.P,D87,*%
%TO.N,*%
X168681000Y-80316000D03*
%TD*%
%TO.P,D92,*%
%TO.N,*%
X187706000Y-80302000D03*
%TD*%
%TO.P,D97,*%
%TO.N,*%
X206731000Y-80316000D03*
%TD*%
%TO.P,D102,*%
%TO.N,*%
X225831000Y-80266000D03*
%TD*%
%TO.P,D106,*%
%TO.N,*%
X244856000Y-80291000D03*
%TD*%
%TO.P,D110,*%
%TO.N,*%
X263906000Y-80277000D03*
%TD*%
%TO.P,D114,*%
%TO.N,*%
X290373000Y-80709000D03*
%TD*%
%TO.P,D118,*%
%TO.N,*%
X335839000Y-80506000D03*
%TD*%
%TO.P,D122,*%
%TO.N,*%
X354863000Y-80556000D03*
%TD*%
%TO.P,D126,*%
%TO.N,*%
X373888000Y-80531000D03*
%TD*%
%TO.P,D130,*%
%TO.N,*%
X392887000Y-80520000D03*
%TD*%
%TO.P,D134,*%
%TO.N,*%
X392887000Y-99556000D03*
%TD*%
%TO.P,D138,*%
%TO.N,*%
X373888000Y-99606000D03*
%TD*%
%TO.P,D142,*%
%TO.N,*%
X354838000Y-99530000D03*
%TD*%
%TO.P,D146,*%
%TO.N,*%
X335737000Y-99556000D03*
%TD*%
%TO.P,D150,*%
%TO.N,*%
X285623000Y-99976000D03*
%TD*%
%TO.P,D154,*%
%TO.N,*%
X254762000Y-99316000D03*
%TD*%
%TO.P,D158,*%
%TO.N,*%
X235712000Y-99341000D03*
%TD*%
%TO.P,D162,*%
%TO.N,*%
X216637000Y-99341000D03*
%TD*%
%TO.P,D166,*%
%TO.N,*%
X197612000Y-99316000D03*
%TD*%
%TO.P,D88,*%
%TO.N,*%
X178562000Y-99341000D03*
%TD*%
%TO.P,D93,*%
%TO.N,*%
X159487000Y-99341000D03*
%TD*%
%TO.P,D98,*%
%TO.N,*%
X140462000Y-99341000D03*
%TD*%
%TO.P,D103,*%
%TO.N,*%
X121412000Y-99341000D03*
%TD*%
%TO.P,D107,*%
%TO.N,*%
X102362000Y-99316000D03*
%TD*%
%TO.P,D111,*%
%TO.N,*%
X83312000Y-99316000D03*
%TD*%
%TO.P,D115,*%
%TO.N,*%
X54737000Y-100203000D03*
%TD*%
%TO.P,D119,*%
%TO.N,*%
X44958000Y-118428000D03*
%TD*%
%TO.P,D123,*%
%TO.N,*%
X64008000Y-118301000D03*
%TD*%
%TO.P,D127,*%
%TO.N,*%
X88011000Y-119153000D03*
%TD*%
%TO.P,D131,*%
%TO.N,*%
X111760000Y-118402000D03*
%TD*%
%TO.P,D135,*%
%TO.N,*%
X142773000Y-118885000D03*
%TD*%
%TO.P,D139,*%
%TO.N,*%
X173761000Y-118391000D03*
%TD*%
%TO.P,D143,*%
%TO.N,*%
X192786000Y-118352000D03*
%TD*%
%TO.P,D147,*%
%TO.N,*%
X223977000Y-119050000D03*
%TD*%
%TO.P,D151,*%
%TO.N,*%
X257048000Y-118961000D03*
%TD*%
%TO.P,D155,*%
%TO.N,*%
X278638000Y-118391000D03*
%TD*%
%TO.P,D159,*%
%TO.N,*%
X297713000Y-118402000D03*
%TD*%
%TO.P,D163,*%
%TO.N,*%
X335788000Y-118606000D03*
%TD*%
%TO.P,D167,*%
%TO.N,*%
X354838000Y-118606000D03*
%TD*%
%TO.P,D89,*%
%TO.N,*%
X373888000Y-118580000D03*
%TD*%
%TO.P,D94,*%
%TO.N,*%
X392913000Y-118580000D03*
%TD*%
%TO.P,D99,*%
%TO.N,*%
X295148000Y-42902000D03*
%TD*%
D13*
%TO.P,J1,14*%
%TO.N,LED_GND*%
X317500000Y-120015000D03*
%TO.P,J1,13*%
%TO.N,PWR_5V*%
X317500000Y-121285000D03*
%TO.P,J1,12*%
%TO.N,N/C*%
X316230000Y-120015000D03*
%TO.P,J1,11*%
X316230000Y-121285000D03*
%TO.P,J1,10*%
X314960000Y-120015000D03*
%TO.P,J1,9*%
X314960000Y-121285000D03*
%TO.P,J1,8*%
X313690000Y-120015000D03*
%TO.P,J1,7*%
%TO.N,Net-(J1-Pad7)*%
X313690000Y-121285000D03*
%TO.P,J1,6*%
%TO.N,N/C*%
X312420000Y-120015000D03*
%TO.P,J1,5*%
%TO.N,Net-(J1-Pad5)*%
X312420000Y-121285000D03*
%TO.P,J1,4*%
%TO.N,/Sheet6096EA01/INPUT*%
X311150000Y-120015000D03*
%TO.P,J1,3*%
%TO.N,Net-(J1-Pad3)*%
X311150000Y-121285000D03*
%TO.P,J1,2*%
%TO.N,LED_5V*%
X309880000Y-120015000D03*
D14*
%TO.P,J1,1*%
%TO.N,TEENSY_GND*%
X309880000Y-121285000D03*
%TD*%
D15*
%TO.N,/Keyboard Keys/KEY_COL0*%
X304886200Y-48022000D03*
X270211300Y-48022000D03*
X272143100Y-74536700D03*
X273269300Y-76977100D03*
X318726900Y-100978800D03*
X291613300Y-100371700D03*
X91485800Y-88480500D03*
X88372500Y-100829800D03*
X64572700Y-65963100D03*
X84070600Y-65963100D03*
X266375700Y-85227700D03*
X91485800Y-85474500D03*
%TO.N,Net-(D2-Pad1)*%
X82957600Y-102641800D03*
X329438000Y-83580000D03*
X342649400Y-59058500D03*
X370711300Y-59227800D03*
%TO.N,Net-(D3-Pad1)*%
X314978800Y-114208900D03*
X52967300Y-124090400D03*
%TO.N,/Keyboard Keys/KEY_COL1*%
X116858400Y-84249500D03*
X119639700Y-77675600D03*
X121090400Y-77299100D03*
X318620600Y-104061700D03*
X302656300Y-103177000D03*
X121069200Y-65323500D03*
X103076600Y-87432200D03*
X107028500Y-100904100D03*
X105941800Y-65230900D03*
X275153700Y-64285500D03*
%TO.N,Net-(D7-Pad1)*%
X62136800Y-45750600D03*
X52075400Y-41443500D03*
%TO.N,Net-(D10-Pad1)*%
X95294400Y-101555100D03*
X59559000Y-98019500D03*
%TO.N,Net-(D11-Pad1)*%
X311889900Y-116122900D03*
X72844900Y-116122900D03*
%TO.N,Net-(D12-Pad1)*%
X297481400Y-90825300D03*
X328041200Y-90585500D03*
%TO.N,/Keyboard Keys/KEY_ROW2*%
X338774900Y-45310500D03*
X313560000Y-38879600D03*
X286145400Y-45514200D03*
X283208200Y-58942700D03*
X216506900Y-63837100D03*
X195878500Y-71020500D03*
X203489300Y-71020500D03*
X116855800Y-68423600D03*
X136322200Y-68423600D03*
X81832400Y-69291000D03*
X55702700Y-67912400D03*
%TO.N,/Keyboard Keys/KEY_ROW3*%
X303633100Y-105179500D03*
X291524900Y-91749200D03*
X203902000Y-87695000D03*
X222894300Y-87503600D03*
X379681400Y-106051000D03*
X306631000Y-108191500D03*
X381018100Y-64109600D03*
X165802000Y-87720700D03*
X147013400Y-87605200D03*
X398456000Y-53895100D03*
%TO.N,/Keyboard Keys/KEY_ROW4*%
X344424900Y-66633900D03*
X301206200Y-66670100D03*
X289342600Y-107739800D03*
X361045300Y-106946000D03*
X298498900Y-69377400D03*
X252017200Y-68291300D03*
X359255700Y-45538100D03*
X119981000Y-108733000D03*
X147572900Y-111563800D03*
%TO.N,/Keyboard Keys/KEY_ROW5*%
X346610800Y-96961000D03*
X340306900Y-101276300D03*
X340431800Y-86026800D03*
X295379600Y-89760600D03*
X342668000Y-87824600D03*
X380178000Y-87347600D03*
%TO.N,/Keyboard Keys/KEY_ROW1*%
X150969300Y-49253700D03*
X112474200Y-48601900D03*
X96704900Y-49565800D03*
X402518900Y-65930700D03*
X171107000Y-49253700D03*
X191392400Y-49253700D03*
X211251500Y-49253700D03*
X232938500Y-49253700D03*
X360030400Y-65256500D03*
%TO.N,/Keyboard Keys/KEY_COL2*%
X325114100Y-92331000D03*
X318789000Y-92386800D03*
X124804300Y-101206700D03*
X146184800Y-96151800D03*
%TO.N,Net-(D14-Pad1)*%
X115068200Y-101658900D03*
X86656400Y-96292100D03*
%TO.N,Net-(D15-Pad1)*%
X314116300Y-97237200D03*
X126575300Y-103089200D03*
%TO.N,Net-(D16-Pad1)*%
X321294700Y-87354000D03*
X379079600Y-86620700D03*
%TO.N,Net-(D17-Pad1)*%
X82290200Y-45563200D03*
X75459800Y-39422800D03*
%TO.N,/Keyboard Keys/KEY_COL3*%
X107489900Y-49394400D03*
X123191500Y-67509100D03*
X140541100Y-65658600D03*
X147073900Y-97032000D03*
X142172300Y-101933600D03*
X141607500Y-63842300D03*
X273975000Y-62987100D03*
X318564400Y-98524900D03*
X301120900Y-98741300D03*
X277348400Y-45033300D03*
%TO.N,Net-(D19-Pad1)*%
X99317400Y-45297200D03*
X89152900Y-43253100D03*
%TO.N,Net-(D20-Pad1)*%
X131470800Y-61077200D03*
X102312200Y-58765200D03*
%TO.N,Net-(D22-Pad1)*%
X137482200Y-101974900D03*
X115423500Y-98031900D03*
%TO.N,Net-(D23-Pad1)*%
X315056900Y-97981100D03*
X130458900Y-103814500D03*
%TO.N,/Keyboard Keys/KEY_COL4*%
X306559600Y-61341100D03*
X307130300Y-95547800D03*
X317370400Y-95547800D03*
X271681700Y-58109500D03*
X275073500Y-46475600D03*
X321490900Y-43815000D03*
X152295400Y-47925200D03*
X163158400Y-66650100D03*
X162354000Y-82511300D03*
%TO.N,Net-(D27-Pad1)*%
X312092000Y-101274900D03*
X135164700Y-104539800D03*
%TO.N,Net-(D28-Pad1)*%
X174634000Y-84298800D03*
X238825400Y-84033900D03*
X244853200Y-62947900D03*
X251774000Y-58624400D03*
%TO.N,Net-(D29-Pad1)*%
X115599400Y-42879900D03*
X116417200Y-39647900D03*
%TO.N,/Keyboard Keys/KEY_COL5*%
X317127400Y-101468200D03*
X307014400Y-101461200D03*
X306153100Y-68617100D03*
X178815000Y-102413400D03*
X206079500Y-101610800D03*
X200107000Y-68185200D03*
X196421900Y-66650100D03*
X291611900Y-64427100D03*
X323205200Y-69548300D03*
X291757600Y-66426800D03*
%TO.N,Net-(D33-Pad1)*%
X145465100Y-69488900D03*
X288443700Y-65199300D03*
%TO.N,Net-(D34-Pad1)*%
X166468500Y-101562100D03*
X149047200Y-101562100D03*
%TO.N,Net-(D35-Pad1)*%
X315481800Y-107205800D03*
X238145300Y-106745500D03*
%TO.N,Net-(D36-Pad1)*%
X279650600Y-86357700D03*
X319490900Y-85831100D03*
%TO.N,/Keyboard Keys/KEY_COL6*%
X318341400Y-110207500D03*
X335132500Y-108288800D03*
X339138100Y-101820500D03*
X350463100Y-97496000D03*
X345581300Y-47888700D03*
X344488700Y-65618300D03*
X200487900Y-103434300D03*
X207933900Y-102989000D03*
X206499700Y-86397900D03*
X198823000Y-86397900D03*
X355385400Y-65994400D03*
X198408400Y-67145000D03*
%TO.N,Net-(D38-Pad1)*%
X194715800Y-101737700D03*
X163110900Y-96975700D03*
%TO.N,Net-(D39-Pad1)*%
X314251700Y-112020600D03*
X255385200Y-110669500D03*
%TO.N,Net-(D40-Pad1)*%
X273253100Y-85629900D03*
X346063100Y-85355000D03*
%TO.N,Net-(D41-Pad1)*%
X159329100Y-45606000D03*
X150988600Y-39422800D03*
%TO.N,/Keyboard Keys/KEY_COL7*%
X199541600Y-79094400D03*
X214418100Y-68730400D03*
X314009300Y-102643800D03*
X219253500Y-103038000D03*
X212883100Y-62252200D03*
X216333300Y-59391100D03*
X212998000Y-47240700D03*
X183098000Y-47240700D03*
X272565500Y-47240700D03*
%TO.N,Net-(D43-Pad1)*%
X174839700Y-44003300D03*
X170864600Y-39201300D03*
%TO.N,Net-(D44-Pad1)*%
X211127200Y-63361300D03*
X177305200Y-58932400D03*
%TO.N,Net-(D45-Pad1)*%
X198744000Y-78403200D03*
X182208800Y-77700300D03*
%TO.N,Net-(D46-Pad1)*%
X211906500Y-101324600D03*
X182452400Y-96772500D03*
%TO.N,/Keyboard Keys/KEY_COL8*%
X342400200Y-49071000D03*
X344205800Y-82946100D03*
X330438400Y-83603100D03*
X234082700Y-84498100D03*
X325417600Y-83158300D03*
X364296600Y-83158300D03*
X207688200Y-58959600D03*
X213572400Y-62977500D03*
%TO.N,Net-(D50-Pad1)*%
X362364500Y-84054400D03*
X191846500Y-90407500D03*
%TO.N,Net-(D51-Pad1)*%
X305592200Y-121907500D03*
X263959100Y-119662500D03*
%TO.N,Net-(D52-Pad1)*%
X321725800Y-77699100D03*
X296681600Y-77433300D03*
%TO.N,Net-(D53-Pad1)*%
X205390400Y-41184000D03*
X190740600Y-39422800D03*
%TO.N,Net-(D54-Pad1)*%
X231853500Y-59556000D03*
X211249300Y-58665800D03*
%TO.N,/Keyboard Keys/KEY_COL9*%
X304877700Y-60555500D03*
X323572900Y-60000600D03*
X306759900Y-103812500D03*
X302581200Y-68164300D03*
X384909000Y-97078300D03*
X315063000Y-104695900D03*
X270572400Y-67550700D03*
X254971500Y-67550700D03*
%TO.N,Net-(D56-Pad1)*%
X246971500Y-63395000D03*
X226517400Y-58908400D03*
%TO.N,Net-(D58-Pad1)*%
X368834000Y-84779700D03*
X209422400Y-86925000D03*
%TO.N,/Keyboard Keys/KEY_COL10*%
X241151400Y-48505900D03*
%TO.N,Net-(D62-Pad1)*%
X320667400Y-68865800D03*
X346295300Y-68260700D03*
%TO.N,Net-(D63-Pad1)*%
X320466100Y-93069300D03*
X285486400Y-86767300D03*
%TO.N,Net-(D64-Pad1)*%
X320005200Y-87658700D03*
X363510300Y-88085100D03*
%TO.N,Net-(D65-Pad1)*%
X317211300Y-92534100D03*
X283246300Y-86965200D03*
X276169100Y-81841100D03*
X238074800Y-80782700D03*
%TO.N,Net-(D66-Pad1)*%
X320501700Y-81070500D03*
X269264900Y-78864500D03*
%TO.N,Net-(D67-Pad1)*%
X320877900Y-105147700D03*
X303933700Y-104179100D03*
X302042700Y-80328100D03*
X294126200Y-78744600D03*
%TO.N,Net-(D68-Pad1)*%
X319011600Y-76797500D03*
X307126700Y-76797500D03*
X306145500Y-58410200D03*
X299887300Y-58410200D03*
%TO.N,Net-(D70-Pad1)*%
X322083200Y-111295300D03*
X299995500Y-111295300D03*
%TO.N,Net-(D71-Pad1)*%
X320712600Y-114210100D03*
X318098000Y-114210100D03*
X316075700Y-94822400D03*
X325516100Y-94507900D03*
X327642200Y-57119100D03*
X346345700Y-56630400D03*
%TO.N,Net-(D72-Pad1)*%
X318521000Y-74348600D03*
X330130900Y-71924800D03*
%TO.N,/Keyboard Keys/KEY_ROW0*%
X327669000Y-86424300D03*
X326269800Y-57920400D03*
X401110400Y-77901800D03*
X403707900Y-77901800D03*
X250675900Y-50011200D03*
%TO.N,Net-(Backspace1-Pad2)*%
X386782400Y-81407000D03*
X341444600Y-68860900D03*
X336102300Y-47895400D03*
X311014600Y-42231600D03*
%TO.N,Net-(D73-Pad1)*%
X304208400Y-63885200D03*
X344717100Y-61922600D03*
X347031400Y-45100200D03*
X345773400Y-39416900D03*
%TO.N,Net-(D74-Pad1)*%
X319681900Y-68367600D03*
X341941200Y-73210600D03*
%TO.N,/Keyboard Keys/KEY_COL12*%
X316875000Y-98469900D03*
X345689800Y-95003200D03*
X346031700Y-67260300D03*
X325127500Y-67389300D03*
%TO.N,Net-(D75-Pad1)*%
X320869700Y-65908500D03*
X327066500Y-65908500D03*
%TO.N,Net-(D76-Pad1)*%
X322997800Y-116414500D03*
X380958200Y-116414500D03*
%TO.N,Net-(D78-Pad1)*%
X319104800Y-70491900D03*
X364256200Y-78497900D03*
%TO.N,/Keyboard Keys/KEY_COL13*%
X314502500Y-63067500D03*
X314943900Y-72197000D03*
X323563500Y-72197000D03*
X326163100Y-89244500D03*
X322354100Y-113908700D03*
X324668800Y-111483000D03*
X325428100Y-63143000D03*
X138553300Y-64470700D03*
X136663100Y-65395800D03*
X67825000Y-64514700D03*
X330626300Y-90792500D03*
X324551700Y-96462700D03*
X327025300Y-96462700D03*
%TO.N,Net-(D79-Pad1)*%
X321425500Y-102712800D03*
X383894200Y-96799400D03*
%TO.N,Net-(D80-Pad1)*%
X321008100Y-54923900D03*
X330546600Y-52537500D03*
X336972200Y-45999800D03*
X383901600Y-39381900D03*
%TO.N,Net-(D81-Pad1)*%
X402912400Y-107592900D03*
X321995900Y-116005200D03*
%TO.N,Net-(D82-Pad1)*%
X67295200Y-83044300D03*
X301575300Y-82708300D03*
X302021500Y-101242400D03*
X365527000Y-102279800D03*
%TO.N,Net-(D83-Pad1)*%
X48148900Y-73335800D03*
X278544600Y-83046900D03*
X301474400Y-104046700D03*
X342077400Y-104518700D03*
%TO.N,Net-(D92-Pad2)*%
X201221500Y-80058000D03*
X185738300Y-82583300D03*
%TO.N,Net-(D94-Pad2)*%
X398088000Y-46726100D03*
X303014200Y-41678800D03*
%TO.N,Net-(D91-Pad2)*%
X276154100Y-64749000D03*
X265037600Y-64749000D03*
%TO.N,Net-(D104-Pad2)*%
X119429900Y-44861100D03*
X134075500Y-41331000D03*
%TO.N,Net-(D110-Pad2)*%
X261802100Y-82401500D03*
X282169300Y-81115800D03*
%TO.N,Net-(D114-Pad2)*%
X339068700Y-78464400D03*
X296908400Y-78464400D03*
%TO.N,Net-(D117-Pad2)*%
X168847100Y-62960700D03*
X150988600Y-63259100D03*
%TO.N,Net-(D118-Pad2)*%
X333000200Y-82335500D03*
X346762000Y-81867300D03*
%TO.N,Net-(D122-Pad2)*%
X351002600Y-82381400D03*
X367228300Y-82381400D03*
%TO.N,Net-(D125-Pad2)*%
X122859900Y-62941200D03*
X112831200Y-62879600D03*
%TO.N,Net-(D128-Pad2)*%
X231633600Y-40185100D03*
X260094900Y-40926800D03*
%TO.N,Net-(D136-Pad2)*%
X268841000Y-42375100D03*
X338323200Y-40212800D03*
%TO.N,Net-(D146-Pad2)*%
X329675900Y-99835200D03*
X290498800Y-99616500D03*
%TO.N,Net-(D155-Pad2)*%
X273653900Y-119699800D03*
X302833600Y-119111500D03*
%TO.N,Net-(D157-Pad2)*%
X133263400Y-78188400D03*
X118220600Y-79349300D03*
%TO.N,Net-(D162-Pad2)*%
X211477200Y-96207400D03*
X203828800Y-96005300D03*
%TO.N,Net-(D164-Pad2)*%
X349933400Y-64638800D03*
X341022900Y-64638800D03*
%TO.N,/Sheet6096EA01/INPUT*%
X44387200Y-124871400D03*
%TO.N,Net-(J1-Pad7)*%
X311774100Y-54993800D03*
X306062500Y-56917400D03*
%TO.N,Net-(J1-Pad3)*%
X396070500Y-115990300D03*
%TO.N,LED_GND*%
X339048000Y-64869000D03*
X315179300Y-64475100D03*
X340073500Y-69381200D03*
X351569700Y-69381100D03*
X300265800Y-54990000D03*
X308990000Y-54769800D03*
X270199700Y-72929600D03*
X276193500Y-72929600D03*
X129495200Y-64055300D03*
X116264700Y-64055300D03*
X221097400Y-42860800D03*
X259943500Y-43309100D03*
X239010800Y-44908100D03*
X340453200Y-119196900D03*
%TO.N,LED_5V*%
X251274000Y-39459800D03*
X239281600Y-39459800D03*
X124520700Y-77072500D03*
X118018400Y-76573800D03*
X261788100Y-78139200D03*
X296929600Y-79874700D03*
X331141200Y-79915000D03*
X314502500Y-79874700D03*
X309054700Y-124391000D03*
%TO.N,Net-(D168-Pad2)*%
X332489100Y-63231200D03*
X294783400Y-59275300D03*
%TO.N,PWR_5V*%
X331102300Y-121020900D03*
%TO.N,TEENSY_GND*%
X317424600Y-65981500D03*
X303714100Y-65335900D03*
X305167400Y-118425700D03*
X309805100Y-118896500D03*
%TD*%
D16*
%TO.N,/Keyboard Keys/KEY_COL0*%
X91485800Y-85474500D02*
X194336800Y-85474500D01*
X194336800Y-85474500D02*
X195039400Y-84771900D01*
X195039400Y-84771900D02*
X207195700Y-84771900D01*
X207195700Y-84771900D02*
X207651500Y-85227700D01*
X207651500Y-85227700D02*
X266375700Y-85227700D01*
X291613300Y-100371700D02*
X291918200Y-100066800D01*
X291918200Y-100066800D02*
X305974800Y-100066800D01*
X305974800Y-100066800D02*
X306193500Y-100285500D01*
X306193500Y-100285500D02*
X318033600Y-100285500D01*
X318033600Y-100285500D02*
X318726900Y-100978800D01*
X273269300Y-76977100D02*
X272143100Y-75850900D01*
X272143100Y-75850900D02*
X272143100Y-74536700D01*
X270211300Y-48022000D02*
X304886200Y-48022000D01*
X64572700Y-65963100D02*
X84070600Y-65963100D01*
X88372500Y-100829800D02*
X85931000Y-98388300D01*
X85931000Y-98388300D02*
X85931000Y-94035300D01*
X85931000Y-94035300D02*
X91485800Y-88480500D01*
%TO.N,Net-(D2-Pad1)*%
X329438000Y-83580000D02*
X329120200Y-83897800D01*
X329120200Y-83897800D02*
X324435900Y-83897800D01*
X324435900Y-83897800D02*
X324189800Y-83651700D01*
X324189800Y-83651700D02*
X306718900Y-83651700D01*
X306718900Y-83651700D02*
X306464200Y-83906400D01*
X306464200Y-83906400D02*
X291424800Y-83906400D01*
X291424800Y-83906400D02*
X291201700Y-83683300D01*
X291201700Y-83683300D02*
X279755100Y-83683300D01*
X279755100Y-83683300D02*
X279187700Y-84250700D01*
X279187700Y-84250700D02*
X278085800Y-84250700D01*
X278085800Y-84250700D02*
X277756600Y-83921500D01*
X277756600Y-83921500D02*
X268707700Y-83921500D01*
X268707700Y-83921500D02*
X266676200Y-85953000D01*
X266676200Y-85953000D02*
X266075300Y-85953000D01*
X266075300Y-85953000D02*
X265838600Y-85716300D01*
X265838600Y-85716300D02*
X207503200Y-85716300D01*
X207503200Y-85716300D02*
X207009100Y-85222200D01*
X207009100Y-85222200D02*
X195226000Y-85222200D01*
X195226000Y-85222200D02*
X193726800Y-86721400D01*
X193726800Y-86721400D02*
X129832500Y-86721400D01*
X129832500Y-86721400D02*
X125009000Y-91544900D01*
X125009000Y-91544900D02*
X121318900Y-91544900D01*
X121318900Y-91544900D02*
X115738500Y-97125300D01*
X115738500Y-97125300D02*
X115276900Y-97125300D01*
X115276900Y-97125300D02*
X114648300Y-97753900D01*
X114648300Y-97753900D02*
X114648300Y-99260500D01*
X114648300Y-99260500D02*
X115838100Y-100450300D01*
X115838100Y-100450300D02*
X115838100Y-101944200D01*
X115838100Y-101944200D02*
X115140500Y-102641800D01*
X115140500Y-102641800D02*
X82957600Y-102641800D01*
X370711300Y-59227800D02*
X342818700Y-59227800D01*
X342818700Y-59227800D02*
X342649400Y-59058500D01*
%TO.N,Net-(D3-Pad1)*%
X314978800Y-114208900D02*
X312070100Y-117117600D01*
X312070100Y-117117600D02*
X303207500Y-117117600D01*
X303207500Y-117117600D02*
X300097800Y-120227300D01*
X300097800Y-120227300D02*
X275836500Y-120227300D01*
X275836500Y-120227300D02*
X272744800Y-117135600D01*
X272744800Y-117135600D02*
X205644300Y-117135600D01*
X205644300Y-117135600D02*
X198377900Y-124402000D01*
X198377900Y-124402000D02*
X53278900Y-124402000D01*
X53278900Y-124402000D02*
X52967300Y-124090400D01*
%TO.N,/Keyboard Keys/KEY_COL1*%
X302656300Y-103177000D02*
X302892700Y-102940600D01*
X302892700Y-102940600D02*
X306194300Y-102940600D01*
X306194300Y-102940600D02*
X306340800Y-103087100D01*
X306340800Y-103087100D02*
X310967800Y-103087100D01*
X310967800Y-103087100D02*
X311231800Y-103351100D01*
X311231800Y-103351100D02*
X313690600Y-103351100D01*
X313690600Y-103351100D02*
X313859800Y-103520300D01*
X313859800Y-103520300D02*
X318079200Y-103520300D01*
X318079200Y-103520300D02*
X318620600Y-104061700D01*
X275153700Y-64285500D02*
X265599900Y-64285500D01*
X265599900Y-64285500D02*
X265338100Y-64023700D01*
X265338100Y-64023700D02*
X250234900Y-64023700D01*
X250234900Y-64023700D02*
X249234500Y-65024100D01*
X249234500Y-65024100D02*
X248279100Y-65024100D01*
X248279100Y-65024100D02*
X247828800Y-65474400D01*
X247828800Y-65474400D02*
X141453700Y-65474400D01*
X141453700Y-65474400D02*
X140877100Y-64897800D01*
X140877100Y-64897800D02*
X139152000Y-64897800D01*
X139152000Y-64897800D02*
X138853800Y-65196000D01*
X138853800Y-65196000D02*
X138252900Y-65196000D01*
X138252900Y-65196000D02*
X137727400Y-64670500D01*
X137727400Y-64670500D02*
X136362700Y-64670500D01*
X136362700Y-64670500D02*
X135802300Y-65230900D01*
X135802300Y-65230900D02*
X121069200Y-65230900D01*
X116858400Y-84249500D02*
X91675700Y-84249500D01*
X91675700Y-84249500D02*
X90749200Y-85176000D01*
X90749200Y-85176000D02*
X90749200Y-85807600D01*
X90749200Y-85807600D02*
X92373800Y-87432200D01*
X92373800Y-87432200D02*
X103076600Y-87432200D01*
X119639700Y-77675600D02*
X120016200Y-77299100D01*
X120016200Y-77299100D02*
X121090400Y-77299100D01*
X121069200Y-65230900D02*
X105941800Y-65230900D01*
X121069200Y-65230900D02*
X121069200Y-65323500D01*
X107028500Y-100904100D02*
X106265700Y-100141300D01*
X106265700Y-100141300D02*
X106265700Y-94684600D01*
X106265700Y-94684600D02*
X103076600Y-91495500D01*
X103076600Y-91495500D02*
X103076600Y-87432200D01*
%TO.N,Net-(D7-Pad1)*%
X52075400Y-41443500D02*
X56382500Y-45750600D01*
X56382500Y-45750600D02*
X62136800Y-45750600D01*
%TO.N,Net-(D10-Pad1)*%
X59559000Y-98019500D02*
X65745400Y-98019500D01*
X65745400Y-98019500D02*
X69281000Y-101555100D01*
X69281000Y-101555100D02*
X95294400Y-101555100D01*
%TO.N,Net-(D11-Pad1)*%
X72844900Y-116122900D02*
X311889900Y-116122900D01*
%TO.N,Net-(D12-Pad1)*%
X328041200Y-90585500D02*
X327801400Y-90825300D01*
X327801400Y-90825300D02*
X297481400Y-90825300D01*
%TO.N,/Keyboard Keys/KEY_ROW2*%
X216506900Y-63837100D02*
X216793300Y-64123500D01*
X216793300Y-64123500D02*
X247269000Y-64123500D01*
X247269000Y-64123500D02*
X247719300Y-63673200D01*
X247719300Y-63673200D02*
X247809100Y-63673200D01*
X247809100Y-63673200D02*
X252153300Y-59329000D01*
X252153300Y-59329000D02*
X271920700Y-59329000D01*
X271920700Y-59329000D02*
X272296100Y-59704400D01*
X272296100Y-59704400D02*
X272897000Y-59704400D01*
X272897000Y-59704400D02*
X273272400Y-59329000D01*
X273272400Y-59329000D02*
X282821900Y-59329000D01*
X282821900Y-59329000D02*
X283208200Y-58942700D01*
X286145400Y-45514200D02*
X297712700Y-45514200D01*
X297712700Y-45514200D02*
X304347300Y-38879600D01*
X304347300Y-38879600D02*
X313560000Y-38879600D01*
X203489300Y-71020500D02*
X195878500Y-71020500D01*
X313560000Y-38879600D02*
X327906400Y-38879600D01*
X327906400Y-38879600D02*
X333733700Y-44706900D01*
X333733700Y-44706900D02*
X338171300Y-44706900D01*
X338171300Y-44706900D02*
X338774900Y-45310500D01*
X81832400Y-69291000D02*
X82699800Y-68423600D01*
X82699800Y-68423600D02*
X116855800Y-68423600D01*
X55702700Y-67912400D02*
X80453800Y-67912400D01*
X80453800Y-67912400D02*
X81832400Y-69291000D01*
X136322200Y-68423600D02*
X116855800Y-68423600D01*
%TO.N,/Keyboard Keys/KEY_ROW3*%
X303633100Y-105179500D02*
X303892000Y-105438400D01*
X303892000Y-105438400D02*
X313230200Y-105438400D01*
X313230200Y-105438400D02*
X314203200Y-106411400D01*
X314203200Y-106411400D02*
X316246800Y-106411400D01*
X316246800Y-106411400D02*
X319859100Y-106411400D01*
X319859100Y-106411400D02*
X320219500Y-106051000D01*
X320219500Y-106051000D02*
X379681400Y-106051000D01*
X306631000Y-108191500D02*
X315546400Y-108191500D01*
X315546400Y-108191500D02*
X316246800Y-107491100D01*
X316246800Y-107491100D02*
X316246800Y-106411400D01*
X203902000Y-87695000D02*
X222702900Y-87695000D01*
X222702900Y-87695000D02*
X222894300Y-87503600D01*
X319405000Y-52705000D02*
X320356600Y-53656600D01*
X320356600Y-53656600D02*
X320677100Y-53656600D01*
X320677100Y-53656600D02*
X320850900Y-53830400D01*
X320850900Y-53830400D02*
X322417200Y-53830400D01*
X322417200Y-53830400D02*
X323359600Y-52888000D01*
X323359600Y-52888000D02*
X323359600Y-52225700D01*
X323359600Y-52225700D02*
X324150300Y-51435000D01*
X324150300Y-51435000D02*
X330080800Y-51435000D01*
X330080800Y-51435000D02*
X331095000Y-50420800D01*
X331095000Y-50420800D02*
X331731800Y-50420800D01*
X331731800Y-50420800D02*
X332182100Y-49970500D01*
X332182100Y-49970500D02*
X377229300Y-49970500D01*
X377229300Y-49970500D02*
X386193300Y-58934400D01*
X222894300Y-87503600D02*
X269438100Y-87503600D01*
X269438100Y-87503600D02*
X271920200Y-89985700D01*
X271920200Y-89985700D02*
X284293800Y-89985700D01*
X284293800Y-89985700D02*
X286057300Y-91749200D01*
X286057300Y-91749200D02*
X291524900Y-91749200D01*
X386193300Y-58934400D02*
X381018100Y-64109600D01*
X386193300Y-58934400D02*
X386193300Y-58934500D01*
X386193300Y-58934500D02*
X387607600Y-58934500D01*
X387607600Y-58934500D02*
X392647000Y-53895100D01*
X392647000Y-53895100D02*
X398456000Y-53895100D01*
X147013400Y-87605200D02*
X165686500Y-87605200D01*
X165686500Y-87605200D02*
X165802000Y-87720700D01*
%TO.N,/Keyboard Keys/KEY_ROW4*%
X298498900Y-69377400D02*
X297412800Y-68291300D01*
X297412800Y-68291300D02*
X252017200Y-68291300D01*
X344424900Y-66633900D02*
X322788400Y-66633900D01*
X322788400Y-66633900D02*
X322702000Y-66720300D01*
X322702000Y-66720300D02*
X301256400Y-66720300D01*
X301256400Y-66720300D02*
X301206200Y-66670100D01*
X309245000Y-29845000D02*
X310515000Y-31115000D01*
X310515000Y-31115000D02*
X332368900Y-31115000D01*
X332368900Y-31115000D02*
X346176700Y-44922800D01*
X346176700Y-44922800D02*
X346176700Y-45355600D01*
X346176700Y-45355600D02*
X346646600Y-45825500D01*
X346646600Y-45825500D02*
X358968300Y-45825500D01*
X358968300Y-45825500D02*
X359255700Y-45538100D01*
X361045300Y-106946000D02*
X318300500Y-106946000D01*
X318300500Y-106946000D02*
X314676500Y-110570000D01*
X314676500Y-110570000D02*
X298960800Y-110570000D01*
X298960800Y-110570000D02*
X296130600Y-107739800D01*
X296130600Y-107739800D02*
X289342600Y-107739800D01*
X147572900Y-111563800D02*
X144219600Y-111563800D01*
X144219600Y-111563800D02*
X141388800Y-108733000D01*
X141388800Y-108733000D02*
X119981000Y-108733000D01*
%TO.N,/Keyboard Keys/KEY_ROW5*%
X340431800Y-86026800D02*
X340104000Y-85699000D01*
X340104000Y-85699000D02*
X320885900Y-85699000D01*
X320885900Y-85699000D02*
X316824300Y-89760600D01*
X316824300Y-89760600D02*
X295379600Y-89760600D01*
X380178000Y-87347600D02*
X348507500Y-87347600D01*
X348507500Y-87347600D02*
X348333800Y-87521300D01*
X348333800Y-87521300D02*
X342971300Y-87521300D01*
X342971300Y-87521300D02*
X342668000Y-87824600D01*
X346610800Y-96961000D02*
X342295500Y-101276300D01*
X342295500Y-101276300D02*
X340306900Y-101276300D01*
%TO.N,/Keyboard Keys/KEY_ROW1*%
X311785000Y-52705000D02*
X310515000Y-51435000D01*
X310515000Y-51435000D02*
X303905400Y-51435000D01*
X303905400Y-51435000D02*
X301724100Y-49253700D01*
X301724100Y-49253700D02*
X232938500Y-49253700D01*
X311785000Y-52705000D02*
X315904800Y-56824800D01*
X315904800Y-56824800D02*
X326219000Y-56824800D01*
X326219000Y-56824800D02*
X327238600Y-57844400D01*
X327238600Y-57844400D02*
X327856700Y-57844400D01*
X327856700Y-57844400D02*
X329614000Y-59601700D01*
X329614000Y-59601700D02*
X342166900Y-59601700D01*
X342166900Y-59601700D02*
X342349000Y-59783800D01*
X342349000Y-59783800D02*
X346786800Y-59783800D01*
X346786800Y-59783800D02*
X352259500Y-65256500D01*
X352259500Y-65256500D02*
X360030400Y-65256500D01*
X171107000Y-49253700D02*
X150969300Y-49253700D01*
X191392400Y-49253700D02*
X171107000Y-49253700D01*
X96704900Y-49565800D02*
X97668800Y-48601900D01*
X97668800Y-48601900D02*
X112474200Y-48601900D01*
X360030400Y-65256500D02*
X360704600Y-65930700D01*
X360704600Y-65930700D02*
X402518900Y-65930700D01*
X211251500Y-49253700D02*
X191392400Y-49253700D01*
X232938500Y-49253700D02*
X211251500Y-49253700D01*
%TO.N,/Keyboard Keys/KEY_COL2*%
X321219600Y-92331000D02*
X321219600Y-93341600D01*
X321219600Y-93341600D02*
X320766600Y-93794600D01*
X320766600Y-93794600D02*
X306519600Y-93794600D01*
X306519600Y-93794600D02*
X303233900Y-97080300D01*
X303233900Y-97080300D02*
X194826400Y-97080300D01*
X194826400Y-97080300D02*
X193761700Y-96015600D01*
X193761700Y-96015600D02*
X180912800Y-96015600D01*
X180912800Y-96015600D02*
X179848000Y-97080400D01*
X179848000Y-97080400D02*
X171645700Y-97080400D01*
X171645700Y-97080400D02*
X170770400Y-96205100D01*
X170770400Y-96205100D02*
X162792700Y-96205100D01*
X162792700Y-96205100D02*
X161914600Y-97083200D01*
X161914600Y-97083200D02*
X154193200Y-97083200D01*
X154193200Y-97083200D02*
X153261800Y-96151800D01*
X153261800Y-96151800D02*
X146184800Y-96151800D01*
X321219600Y-92331000D02*
X325114100Y-92331000D01*
X318789000Y-92386800D02*
X318844800Y-92331000D01*
X318844800Y-92331000D02*
X321219600Y-92331000D01*
X124804300Y-101206700D02*
X128563300Y-97447700D01*
X128563300Y-97447700D02*
X144888900Y-97447700D01*
X144888900Y-97447700D02*
X146184800Y-96151800D01*
%TO.N,Net-(D14-Pad1)*%
X86656400Y-96292100D02*
X93919500Y-96292100D01*
X93919500Y-96292100D02*
X99286300Y-101658900D01*
X99286300Y-101658900D02*
X115068200Y-101658900D01*
%TO.N,Net-(D15-Pad1)*%
X126575300Y-103089200D02*
X178465100Y-103089200D01*
X178465100Y-103089200D02*
X178514600Y-103138700D01*
X178514600Y-103138700D02*
X197774500Y-103138700D01*
X197774500Y-103138700D02*
X198577100Y-102336100D01*
X198577100Y-102336100D02*
X206380000Y-102336100D01*
X206380000Y-102336100D02*
X206457500Y-102258600D01*
X206457500Y-102258600D02*
X216074800Y-102258600D01*
X216074800Y-102258600D02*
X216975400Y-101358000D01*
X216975400Y-101358000D02*
X258430000Y-101358000D01*
X258430000Y-101358000D02*
X262257300Y-97530700D01*
X262257300Y-97530700D02*
X313822800Y-97530700D01*
X313822800Y-97530700D02*
X314116300Y-97237200D01*
%TO.N,Net-(D16-Pad1)*%
X379079600Y-86620700D02*
X348597400Y-86620700D01*
X348597400Y-86620700D02*
X348147100Y-87071000D01*
X348147100Y-87071000D02*
X342077000Y-87071000D01*
X342077000Y-87071000D02*
X341794000Y-87354000D01*
X341794000Y-87354000D02*
X321294700Y-87354000D01*
%TO.N,Net-(D17-Pad1)*%
X75459800Y-39422800D02*
X81600200Y-45563200D01*
X81600200Y-45563200D02*
X82290200Y-45563200D01*
%TO.N,/Keyboard Keys/KEY_COL3*%
X301120900Y-98741300D02*
X305923100Y-98741300D01*
X305923100Y-98741300D02*
X306405800Y-99224000D01*
X306405800Y-99224000D02*
X317865300Y-99224000D01*
X317865300Y-99224000D02*
X318564400Y-98524900D01*
X273975000Y-62987100D02*
X273909700Y-63052400D01*
X273909700Y-63052400D02*
X249066800Y-63052400D01*
X249066800Y-63052400D02*
X247995700Y-64123500D01*
X247995700Y-64123500D02*
X247905900Y-64123500D01*
X247905900Y-64123500D02*
X247455600Y-64573800D01*
X247455600Y-64573800D02*
X142339000Y-64573800D01*
X142339000Y-64573800D02*
X141607500Y-63842300D01*
X277348400Y-45033300D02*
X277592800Y-44788900D01*
X277592800Y-44788900D02*
X297801100Y-44788900D01*
X297801100Y-44788900D02*
X307665000Y-34925000D01*
X307665000Y-34925000D02*
X309245000Y-34925000D01*
X140541100Y-65658600D02*
X138690600Y-67509100D01*
X138690600Y-67509100D02*
X123191500Y-67509100D01*
X141607500Y-63842300D02*
X141510600Y-63745400D01*
X141510600Y-63745400D02*
X136477500Y-63745400D01*
X136477500Y-63745400D02*
X122126500Y-49394400D01*
X122126500Y-49394400D02*
X107489900Y-49394400D01*
X142172300Y-101933600D02*
X147073900Y-97032000D01*
%TO.N,Net-(D19-Pad1)*%
X89152900Y-43253100D02*
X97273300Y-43253100D01*
X97273300Y-43253100D02*
X99317400Y-45297200D01*
%TO.N,Net-(D20-Pad1)*%
X102312200Y-58765200D02*
X102856700Y-59309700D01*
X102856700Y-59309700D02*
X129703300Y-59309700D01*
X129703300Y-59309700D02*
X131470800Y-61077200D01*
%TO.N,Net-(D22-Pad1)*%
X137482200Y-101974900D02*
X119366500Y-101974900D01*
X119366500Y-101974900D02*
X115423500Y-98031900D01*
%TO.N,Net-(D23-Pad1)*%
X315056900Y-97981100D02*
X268275200Y-97981100D01*
X268275200Y-97981100D02*
X264448000Y-101808300D01*
X264448000Y-101808300D02*
X218554400Y-101808300D01*
X218554400Y-101808300D02*
X216203100Y-104159600D01*
X216203100Y-104159600D02*
X200187500Y-104159600D01*
X200187500Y-104159600D02*
X199842400Y-103814500D01*
X199842400Y-103814500D02*
X130458900Y-103814500D01*
%TO.N,/Keyboard Keys/KEY_COL4*%
X306559600Y-61341100D02*
X302967300Y-61341100D01*
X302967300Y-61341100D02*
X301221700Y-63086700D01*
X301221700Y-63086700D02*
X295027500Y-63086700D01*
X295027500Y-63086700D02*
X286249400Y-54308600D01*
X286249400Y-54308600D02*
X277437500Y-54308600D01*
X277437500Y-54308600D02*
X273636600Y-58109500D01*
X273636600Y-58109500D02*
X271681700Y-58109500D01*
X307130300Y-95547800D02*
X317370400Y-95547800D01*
X321490900Y-43815000D02*
X300182800Y-43815000D01*
X300182800Y-43815000D02*
X297522200Y-46475600D01*
X297522200Y-46475600D02*
X275073500Y-46475600D01*
X152295400Y-47925200D02*
X153745000Y-46475600D01*
X153745000Y-46475600D02*
X275073500Y-46475600D01*
X162354000Y-82511300D02*
X162354000Y-67454500D01*
X162354000Y-67454500D02*
X163158400Y-66650100D01*
%TO.N,Net-(D27-Pad1)*%
X135164700Y-104539800D02*
X135234800Y-104609900D01*
X135234800Y-104609900D02*
X216390000Y-104609900D01*
X216390000Y-104609900D02*
X218741200Y-102258700D01*
X218741200Y-102258700D02*
X270411400Y-102258700D01*
X270411400Y-102258700D02*
X272020000Y-100650100D01*
X272020000Y-100650100D02*
X274980000Y-100650100D01*
X274980000Y-100650100D02*
X276146600Y-101816700D01*
X276146600Y-101816700D02*
X294064300Y-101816700D01*
X294064300Y-101816700D02*
X295363900Y-100517100D01*
X295363900Y-100517100D02*
X305788200Y-100517100D01*
X305788200Y-100517100D02*
X306006900Y-100735800D01*
X306006900Y-100735800D02*
X311552900Y-100735800D01*
X311552900Y-100735800D02*
X312092000Y-101274900D01*
%TO.N,Net-(D28-Pad1)*%
X174634000Y-84298800D02*
X232525900Y-84298800D01*
X232525900Y-84298800D02*
X233065900Y-83758800D01*
X233065900Y-83758800D02*
X238550300Y-83758800D01*
X238550300Y-83758800D02*
X238825400Y-84033900D01*
X244853200Y-62947900D02*
X249176600Y-58624500D01*
X249176600Y-58624500D02*
X251774000Y-58624500D01*
X251774000Y-58624500D02*
X251774000Y-58624400D01*
%TO.N,Net-(D29-Pad1)*%
X115599400Y-42879900D02*
X115599400Y-40465700D01*
X115599400Y-40465700D02*
X116417200Y-39647900D01*
%TO.N,/Keyboard Keys/KEY_COL5*%
X307014400Y-101461200D02*
X311252600Y-101461200D01*
X311252600Y-101461200D02*
X311791600Y-102000200D01*
X311791600Y-102000200D02*
X312392500Y-102000200D01*
X312392500Y-102000200D02*
X312924500Y-101468200D01*
X312924500Y-101468200D02*
X317127400Y-101468200D01*
X306153100Y-68617100D02*
X318439400Y-68617100D01*
X318439400Y-68617100D02*
X319863800Y-70041500D01*
X319863800Y-70041500D02*
X322712000Y-70041500D01*
X322712000Y-70041500D02*
X323205200Y-69548300D01*
X291757600Y-66426800D02*
X297141900Y-66426800D01*
X297141900Y-66426800D02*
X298132300Y-67417200D01*
X298132300Y-67417200D02*
X304953200Y-67417200D01*
X304953200Y-67417200D02*
X306153100Y-68617100D01*
X291611900Y-64427100D02*
X290831400Y-64427100D01*
X290831400Y-64427100D02*
X289653500Y-65605000D01*
X289653500Y-65605000D02*
X289597200Y-65605000D01*
X289597200Y-65605000D02*
X289277500Y-65924700D01*
X289277500Y-65924700D02*
X248652300Y-65924700D01*
X248652300Y-65924700D02*
X248202000Y-66375000D01*
X248202000Y-66375000D02*
X198093400Y-66375000D01*
X198093400Y-66375000D02*
X197310000Y-67158400D01*
X197310000Y-67158400D02*
X197309900Y-67158500D01*
X197309900Y-67158500D02*
X197205500Y-67158500D01*
X197205500Y-67158500D02*
X196697100Y-66650100D01*
X196697100Y-66650100D02*
X196421900Y-66650100D01*
X197310000Y-67158400D02*
X198336700Y-68185200D01*
X198336700Y-68185200D02*
X200107000Y-68185200D01*
X206079500Y-101610800D02*
X205915300Y-101775000D01*
X205915300Y-101775000D02*
X197864400Y-101775000D01*
X197864400Y-101775000D02*
X197169700Y-102469700D01*
X197169700Y-102469700D02*
X178871300Y-102469700D01*
X178871300Y-102469700D02*
X178815000Y-102413400D01*
%TO.N,Net-(D33-Pad1)*%
X288443700Y-65199300D02*
X288168600Y-65474400D01*
X288168600Y-65474400D02*
X248465700Y-65474400D01*
X248465700Y-65474400D02*
X248015400Y-65924700D01*
X248015400Y-65924700D02*
X149029300Y-65924700D01*
X149029300Y-65924700D02*
X145465100Y-69488900D01*
%TO.N,Net-(D34-Pad1)*%
X166468500Y-101562100D02*
X149047200Y-101562100D01*
%TO.N,Net-(D35-Pad1)*%
X238145300Y-106745500D02*
X306211000Y-106745500D01*
X306211000Y-106745500D02*
X306671300Y-107205800D01*
X306671300Y-107205800D02*
X315481800Y-107205800D01*
%TO.N,Net-(D36-Pad1)*%
X319490900Y-85831100D02*
X290801900Y-85831100D01*
X290801900Y-85831100D02*
X290512700Y-85541900D01*
X290512700Y-85541900D02*
X280466400Y-85541900D01*
X280466400Y-85541900D02*
X279650600Y-86357700D01*
%TO.N,/Keyboard Keys/KEY_COL6*%
X198408400Y-67145000D02*
X248069000Y-67145000D01*
X248069000Y-67145000D02*
X248839000Y-66375000D01*
X248839000Y-66375000D02*
X290101000Y-66375000D01*
X290101000Y-66375000D02*
X291256700Y-65219300D01*
X291256700Y-65219300D02*
X302693000Y-65219300D01*
X302693000Y-65219300D02*
X303301800Y-64610500D01*
X303301800Y-64610500D02*
X304245600Y-64610500D01*
X304245600Y-64610500D02*
X304854400Y-65219300D01*
X304854400Y-65219300D02*
X320533200Y-65219300D01*
X320533200Y-65219300D02*
X320585000Y-65167500D01*
X320585000Y-65167500D02*
X327729900Y-65167500D01*
X327729900Y-65167500D02*
X328180700Y-65618300D01*
X328180700Y-65618300D02*
X344488700Y-65618300D01*
X350463100Y-97496000D02*
X345910700Y-102048400D01*
X345910700Y-102048400D02*
X339366000Y-102048400D01*
X339366000Y-102048400D02*
X339138100Y-101820500D01*
X335132500Y-108288800D02*
X320260100Y-108288800D01*
X320260100Y-108288800D02*
X318341400Y-110207500D01*
X207933900Y-102989000D02*
X207488600Y-103434300D01*
X207488600Y-103434300D02*
X200487900Y-103434300D01*
X324485000Y-45085000D02*
X328020700Y-48620700D01*
X328020700Y-48620700D02*
X337113200Y-48620700D01*
X337113200Y-48620700D02*
X337845200Y-47888700D01*
X337845200Y-47888700D02*
X345581300Y-47888700D01*
X344488700Y-65618300D02*
X344864800Y-65994400D01*
X344864800Y-65994400D02*
X355385400Y-65994400D01*
X198823000Y-86397900D02*
X206499700Y-86397900D01*
%TO.N,Net-(D38-Pad1)*%
X194715800Y-101737700D02*
X194666200Y-101688100D01*
X194666200Y-101688100D02*
X167823300Y-101688100D01*
X167823300Y-101688100D02*
X163110900Y-96975700D01*
%TO.N,Net-(D39-Pad1)*%
X255385200Y-110669500D02*
X271933300Y-110669500D01*
X271933300Y-110669500D02*
X273231400Y-109371400D01*
X273231400Y-109371400D02*
X278814400Y-109371400D01*
X278814400Y-109371400D02*
X280043900Y-110600900D01*
X280043900Y-110600900D02*
X284925300Y-110600900D01*
X284925300Y-110600900D02*
X286154900Y-109371300D01*
X286154900Y-109371300D02*
X297032100Y-109371300D01*
X297032100Y-109371300D02*
X299681400Y-112020600D01*
X299681400Y-112020600D02*
X314251700Y-112020600D01*
%TO.N,Net-(D40-Pad1)*%
X346063100Y-85355000D02*
X345956800Y-85248700D01*
X345956800Y-85248700D02*
X323650800Y-85248700D01*
X323650800Y-85248700D02*
X323492100Y-85090000D01*
X323492100Y-85090000D02*
X319206300Y-85090000D01*
X319206300Y-85090000D02*
X318966200Y-85330100D01*
X318966200Y-85330100D02*
X290937800Y-85330100D01*
X290937800Y-85330100D02*
X290680100Y-85072400D01*
X290680100Y-85072400D02*
X280276700Y-85072400D01*
X280276700Y-85072400D02*
X279719200Y-85629900D01*
X279719200Y-85629900D02*
X273253100Y-85629900D01*
%TO.N,Net-(D41-Pad1)*%
X150988600Y-39422800D02*
X157171800Y-45606000D01*
X157171800Y-45606000D02*
X159329100Y-45606000D01*
%TO.N,/Keyboard Keys/KEY_COL7*%
X219253500Y-103038000D02*
X269545700Y-103038000D01*
X269545700Y-103038000D02*
X271863800Y-105356100D01*
X271863800Y-105356100D02*
X298659800Y-105356100D01*
X298659800Y-105356100D02*
X301607400Y-102408500D01*
X301607400Y-102408500D02*
X306299100Y-102408500D01*
X306299100Y-102408500D02*
X306527400Y-102636800D01*
X306527400Y-102636800D02*
X311154400Y-102636800D01*
X311154400Y-102636800D02*
X311418400Y-102900800D01*
X311418400Y-102900800D02*
X313752300Y-102900800D01*
X313752300Y-102900800D02*
X314009300Y-102643800D01*
X324485000Y-47625000D02*
X323335600Y-46475600D01*
X323335600Y-46475600D02*
X298307600Y-46475600D01*
X298307600Y-46475600D02*
X297542600Y-47240600D01*
X297542600Y-47240600D02*
X272565500Y-47240600D01*
X272565500Y-47240600D02*
X272565500Y-47240700D01*
X214418100Y-68730400D02*
X214418100Y-71310000D01*
X214418100Y-71310000D02*
X207317900Y-78410200D01*
X207317900Y-78410200D02*
X200225800Y-78410200D01*
X200225800Y-78410200D02*
X199541600Y-79094400D01*
X272565500Y-47240700D02*
X212998000Y-47240700D01*
X216333300Y-59391100D02*
X213472200Y-62252200D01*
X213472200Y-62252200D02*
X212883100Y-62252200D01*
X212998000Y-47240700D02*
X183098000Y-47240700D01*
%TO.N,Net-(D43-Pad1)*%
X170864600Y-39201300D02*
X174839700Y-43176400D01*
X174839700Y-43176400D02*
X174839700Y-44003300D01*
%TO.N,Net-(D44-Pad1)*%
X211127200Y-63361300D02*
X194154400Y-63361300D01*
X194154400Y-63361300D02*
X190121300Y-59328200D01*
X190121300Y-59328200D02*
X177701000Y-59328200D01*
X177701000Y-59328200D02*
X177305200Y-58932400D01*
%TO.N,Net-(D45-Pad1)*%
X182208800Y-77700300D02*
X182911700Y-78403200D01*
X182911700Y-78403200D02*
X198744000Y-78403200D01*
%TO.N,Net-(D46-Pad1)*%
X211906500Y-101324600D02*
X211467400Y-100885500D01*
X211467400Y-100885500D02*
X205779100Y-100885500D01*
X205779100Y-100885500D02*
X205504700Y-101159900D01*
X205504700Y-101159900D02*
X195163800Y-101159900D01*
X195163800Y-101159900D02*
X190776400Y-96772500D01*
X190776400Y-96772500D02*
X182452400Y-96772500D01*
%TO.N,/Keyboard Keys/KEY_COL8*%
X325417600Y-83158300D02*
X306575400Y-83158300D01*
X306575400Y-83158300D02*
X306293700Y-83440000D01*
X306293700Y-83440000D02*
X291595300Y-83440000D01*
X291595300Y-83440000D02*
X291384200Y-83228900D01*
X291384200Y-83228900D02*
X279572600Y-83228900D01*
X279572600Y-83228900D02*
X279001100Y-83800400D01*
X279001100Y-83800400D02*
X278272400Y-83800400D01*
X278272400Y-83800400D02*
X277939000Y-83467000D01*
X277939000Y-83467000D02*
X267998200Y-83467000D01*
X267998200Y-83467000D02*
X266962900Y-84502300D01*
X266962900Y-84502300D02*
X239382800Y-84502300D01*
X239382800Y-84502300D02*
X239125900Y-84759200D01*
X239125900Y-84759200D02*
X234343800Y-84759200D01*
X234343800Y-84759200D02*
X234082700Y-84498100D01*
X344205800Y-83158300D02*
X330883200Y-83158300D01*
X330883200Y-83158300D02*
X330438400Y-83603100D01*
X325417600Y-83158300D02*
X325730600Y-82845300D01*
X325730600Y-82845300D02*
X329729100Y-82845300D01*
X329729100Y-82845300D02*
X330438400Y-83554600D01*
X330438400Y-83554600D02*
X330438400Y-83603100D01*
X324485000Y-50165000D02*
X325579000Y-49071000D01*
X325579000Y-49071000D02*
X342400200Y-49071000D01*
X364296600Y-83158300D02*
X344205800Y-83158300D01*
X344205800Y-83158300D02*
X344205800Y-82946100D01*
X207688200Y-58959600D02*
X207826800Y-58959600D01*
X207826800Y-58959600D02*
X211844700Y-62977500D01*
X211844700Y-62977500D02*
X213572400Y-62977500D01*
%TO.N,Net-(D50-Pad1)*%
X362364500Y-84054400D02*
X342636200Y-84054400D01*
X342636200Y-84054400D02*
X342342500Y-84348100D01*
X342342500Y-84348100D02*
X324024000Y-84348100D01*
X324024000Y-84348100D02*
X323821300Y-84145400D01*
X323821300Y-84145400D02*
X306862100Y-84145400D01*
X306862100Y-84145400D02*
X306589000Y-84418500D01*
X306589000Y-84418500D02*
X291300000Y-84418500D01*
X291300000Y-84418500D02*
X291030500Y-84149000D01*
X291030500Y-84149000D02*
X279926300Y-84149000D01*
X279926300Y-84149000D02*
X279374300Y-84701000D01*
X279374300Y-84701000D02*
X277899200Y-84701000D01*
X277899200Y-84701000D02*
X277582600Y-84384400D01*
X277582600Y-84384400D02*
X268881700Y-84384400D01*
X268881700Y-84384400D02*
X266862800Y-86403300D01*
X266862800Y-86403300D02*
X265888700Y-86403300D01*
X265888700Y-86403300D02*
X265652000Y-86166600D01*
X265652000Y-86166600D02*
X207316600Y-86166600D01*
X207316600Y-86166600D02*
X206822500Y-85672500D01*
X206822500Y-85672500D02*
X196581500Y-85672500D01*
X196581500Y-85672500D02*
X191846500Y-90407500D01*
%TO.N,Net-(D51-Pad1)*%
X263959100Y-119662500D02*
X266204100Y-121907500D01*
X266204100Y-121907500D02*
X305592200Y-121907500D01*
%TO.N,Net-(D52-Pad1)*%
X321725800Y-77699100D02*
X296947400Y-77699100D01*
X296947400Y-77699100D02*
X296681600Y-77433300D01*
%TO.N,Net-(D53-Pad1)*%
X190740600Y-39422800D02*
X191229100Y-39911300D01*
X191229100Y-39911300D02*
X204117700Y-39911300D01*
X204117700Y-39911300D02*
X205390400Y-41184000D01*
%TO.N,Net-(D54-Pad1)*%
X231853500Y-59556000D02*
X230473400Y-58175900D01*
X230473400Y-58175900D02*
X226191500Y-58175900D01*
X226191500Y-58175900D02*
X225396200Y-58971200D01*
X225396200Y-58971200D02*
X216939200Y-58971200D01*
X216939200Y-58971200D02*
X216633800Y-58665800D01*
X216633800Y-58665800D02*
X211249300Y-58665800D01*
%TO.N,/Keyboard Keys/KEY_COL9*%
X306759900Y-103812500D02*
X313515000Y-103812500D01*
X313515000Y-103812500D02*
X314398400Y-104695900D01*
X314398400Y-104695900D02*
X315063000Y-104695900D01*
X315063000Y-104695900D02*
X315154100Y-104787000D01*
X315154100Y-104787000D02*
X319558500Y-104787000D01*
X319558500Y-104787000D02*
X320552200Y-103793300D01*
X320552200Y-103793300D02*
X378194000Y-103793300D01*
X378194000Y-103793300D02*
X384909000Y-97078300D01*
X302581200Y-68164300D02*
X298242500Y-68164300D01*
X298242500Y-68164300D02*
X297628900Y-67550700D01*
X297628900Y-67550700D02*
X270572400Y-67550700D01*
X270572400Y-67550700D02*
X254971500Y-67550700D01*
X323572900Y-60000600D02*
X305432600Y-60000600D01*
X305432600Y-60000600D02*
X304877700Y-60555500D01*
%TO.N,Net-(D56-Pad1)*%
X226517400Y-58908400D02*
X231282200Y-63673200D01*
X231282200Y-63673200D02*
X246693300Y-63673200D01*
X246693300Y-63673200D02*
X246971500Y-63395000D01*
%TO.N,Net-(D58-Pad1)*%
X368834000Y-84779700D02*
X361956200Y-84779700D01*
X361956200Y-84779700D02*
X361764800Y-84588300D01*
X361764800Y-84588300D02*
X342739200Y-84588300D01*
X342739200Y-84588300D02*
X342529100Y-84798400D01*
X342529100Y-84798400D02*
X323837400Y-84798400D01*
X323837400Y-84798400D02*
X323644600Y-84605600D01*
X323644600Y-84605600D02*
X310254700Y-84605600D01*
X310254700Y-84605600D02*
X309989100Y-84871200D01*
X309989100Y-84871200D02*
X291115800Y-84871200D01*
X291115800Y-84871200D02*
X290844500Y-84599900D01*
X290844500Y-84599900D02*
X280112300Y-84599900D01*
X280112300Y-84599900D02*
X279560900Y-85151300D01*
X279560900Y-85151300D02*
X277712600Y-85151300D01*
X277712600Y-85151300D02*
X277400600Y-84839300D01*
X277400600Y-84839300D02*
X269173500Y-84839300D01*
X269173500Y-84839300D02*
X267159200Y-86853600D01*
X267159200Y-86853600D02*
X265702100Y-86853600D01*
X265702100Y-86853600D02*
X265579900Y-86731400D01*
X265579900Y-86731400D02*
X209616000Y-86731400D01*
X209616000Y-86731400D02*
X209422400Y-86925000D01*
%TO.N,/Keyboard Keys/KEY_COL10*%
X321945000Y-52705000D02*
X318043300Y-48803300D01*
X318043300Y-48803300D02*
X241448800Y-48803300D01*
X241448800Y-48803300D02*
X241151400Y-48505900D01*
%TO.N,Net-(D62-Pad1)*%
X320667400Y-68865800D02*
X321397600Y-68135600D01*
X321397600Y-68135600D02*
X346170200Y-68135600D01*
X346170200Y-68135600D02*
X346295300Y-68260700D01*
%TO.N,Net-(D63-Pad1)*%
X285486400Y-86767300D02*
X290204900Y-86767300D01*
X290204900Y-86767300D02*
X296697000Y-93259400D01*
X296697000Y-93259400D02*
X320276000Y-93259400D01*
X320276000Y-93259400D02*
X320466100Y-93069300D01*
%TO.N,Net-(D64-Pad1)*%
X320005200Y-87658700D02*
X320431600Y-88085100D01*
X320431600Y-88085100D02*
X341902900Y-88085100D01*
X341902900Y-88085100D02*
X341902900Y-88085200D01*
X341902900Y-88085200D02*
X342367600Y-88549900D01*
X342367600Y-88549900D02*
X342968500Y-88549900D01*
X342968500Y-88549900D02*
X343433200Y-88085200D01*
X343433200Y-88085200D02*
X343433200Y-88085100D01*
X343433200Y-88085100D02*
X363510300Y-88085100D01*
%TO.N,Net-(D65-Pad1)*%
X238074800Y-80782700D02*
X239474900Y-82182800D01*
X239474900Y-82182800D02*
X259587100Y-82182800D01*
X259587100Y-82182800D02*
X260555700Y-83151400D01*
X260555700Y-83151400D02*
X266403100Y-83151400D01*
X266403100Y-83151400D02*
X267713400Y-81841100D01*
X267713400Y-81841100D02*
X276169100Y-81841100D01*
X317211300Y-92534100D02*
X296642700Y-92534100D01*
X296642700Y-92534100D02*
X290137800Y-86029200D01*
X290137800Y-86029200D02*
X284182300Y-86029200D01*
X284182300Y-86029200D02*
X283246300Y-86965200D01*
%TO.N,Net-(D66-Pad1)*%
X269264900Y-78864500D02*
X293220400Y-78864500D01*
X293220400Y-78864500D02*
X295426400Y-81070500D01*
X295426400Y-81070500D02*
X320501700Y-81070500D01*
%TO.N,Net-(D67-Pad1)*%
X302042700Y-80328100D02*
X301755700Y-80615100D01*
X301755700Y-80615100D02*
X295996700Y-80615100D01*
X295996700Y-80615100D02*
X294126200Y-78744600D01*
X303933700Y-104179100D02*
X304742700Y-104988100D01*
X304742700Y-104988100D02*
X313416800Y-104988100D01*
X313416800Y-104988100D02*
X314339000Y-105910300D01*
X314339000Y-105910300D02*
X319723300Y-105910300D01*
X319723300Y-105910300D02*
X320485900Y-105147700D01*
X320485900Y-105147700D02*
X320877900Y-105147700D01*
%TO.N,Net-(D68-Pad1)*%
X307126700Y-76797500D02*
X319011600Y-76797500D01*
X299887300Y-58410200D02*
X306145500Y-58410200D01*
%TO.N,Net-(D70-Pad1)*%
X322083200Y-111295300D02*
X299995500Y-111295300D01*
%TO.N,Net-(D71-Pad1)*%
X327642200Y-57119100D02*
X329029100Y-57119100D01*
X329029100Y-57119100D02*
X329982300Y-58072300D01*
X329982300Y-58072300D02*
X331317600Y-58072300D01*
X331317600Y-58072300D02*
X334813200Y-54576700D01*
X334813200Y-54576700D02*
X344292000Y-54576700D01*
X344292000Y-54576700D02*
X346345700Y-56630400D01*
X325516100Y-94507900D02*
X316390200Y-94507900D01*
X316390200Y-94507900D02*
X316075700Y-94822400D01*
X320712600Y-114210100D02*
X318098000Y-114210100D01*
%TO.N,Net-(D72-Pad1)*%
X330130900Y-71924800D02*
X327707100Y-74348600D01*
X327707100Y-74348600D02*
X318521000Y-74348600D01*
%TO.N,/Keyboard Keys/KEY_ROW0*%
X309245000Y-52705000D02*
X304509900Y-52705000D01*
X304509900Y-52705000D02*
X301508900Y-49704000D01*
X301508900Y-49704000D02*
X250983100Y-49704000D01*
X250983100Y-49704000D02*
X250675900Y-50011200D01*
X309245000Y-52705000D02*
X310804500Y-54264500D01*
X310804500Y-54264500D02*
X312070700Y-54264500D01*
X312070700Y-54264500D02*
X315726600Y-57920400D01*
X315726600Y-57920400D02*
X326269800Y-57920400D01*
X401110400Y-77901800D02*
X393507100Y-85505100D01*
X393507100Y-85505100D02*
X348851200Y-85505100D01*
X348851200Y-85505100D02*
X347735600Y-86620700D01*
X347735600Y-86620700D02*
X341665500Y-86620700D01*
X341665500Y-86620700D02*
X341499800Y-86786400D01*
X341499800Y-86786400D02*
X328031100Y-86786400D01*
X328031100Y-86786400D02*
X327669000Y-86424300D01*
X403707900Y-77901800D02*
X401110400Y-77901800D01*
%TO.N,Net-(Backspace1-Pad2)*%
X341444600Y-68860900D02*
X341569700Y-68986000D01*
X341569700Y-68986000D02*
X347068500Y-68986000D01*
X347068500Y-68986000D02*
X347410800Y-68643700D01*
X347410800Y-68643700D02*
X369910300Y-68643700D01*
X369910300Y-68643700D02*
X382673600Y-81407000D01*
X382673600Y-81407000D02*
X386782400Y-81407000D01*
X311014600Y-42231600D02*
X321592400Y-42231600D01*
X321592400Y-42231600D02*
X323031200Y-43670400D01*
X323031200Y-43670400D02*
X325610400Y-43670400D01*
X325610400Y-43670400D02*
X329835400Y-47895400D01*
X329835400Y-47895400D02*
X336102300Y-47895400D01*
%TO.N,Net-(D73-Pad1)*%
X304208400Y-63885200D02*
X314710600Y-63885200D01*
X314710600Y-63885200D02*
X314892400Y-63703400D01*
X314892400Y-63703400D02*
X324899000Y-63703400D01*
X324899000Y-63703400D02*
X325201600Y-64006000D01*
X325201600Y-64006000D02*
X338462100Y-64006000D01*
X338462100Y-64006000D02*
X340545500Y-61922600D01*
X340545500Y-61922600D02*
X344717100Y-61922600D01*
X345773400Y-39416900D02*
X345773400Y-43842200D01*
X345773400Y-43842200D02*
X347031400Y-45100200D01*
%TO.N,Net-(D74-Pad1)*%
X341941200Y-73210600D02*
X337518300Y-73210600D01*
X337518300Y-73210600D02*
X333098900Y-68791200D01*
X333098900Y-68791200D02*
X322236200Y-68791200D01*
X322236200Y-68791200D02*
X321436200Y-69591200D01*
X321436200Y-69591200D02*
X320352100Y-69591200D01*
X320352100Y-69591200D02*
X319681900Y-68921000D01*
X319681900Y-68921000D02*
X319681900Y-68367600D01*
%TO.N,/Keyboard Keys/KEY_COL12*%
X345689800Y-95003200D02*
X343319700Y-97373300D01*
X343319700Y-97373300D02*
X317971600Y-97373300D01*
X317971600Y-97373300D02*
X316875000Y-98469900D01*
X325127500Y-67389300D02*
X345902700Y-67389300D01*
X345902700Y-67389300D02*
X346031700Y-67260300D01*
%TO.N,Net-(D75-Pad1)*%
X320869700Y-65908500D02*
X327066500Y-65908500D01*
%TO.N,Net-(D76-Pad1)*%
X380958200Y-116414500D02*
X322997800Y-116414500D01*
%TO.N,Net-(D78-Pad1)*%
X319104800Y-70491900D02*
X334085900Y-70491900D01*
X334085900Y-70491900D02*
X337304700Y-73710700D01*
X337304700Y-73710700D02*
X341415500Y-73710700D01*
X341415500Y-73710700D02*
X346202700Y-78497900D01*
X346202700Y-78497900D02*
X364256200Y-78497900D01*
%TO.N,/Keyboard Keys/KEY_COL13*%
X314943900Y-72197000D02*
X323563500Y-72197000D01*
X314502500Y-63067500D02*
X325352600Y-63067500D01*
X325352600Y-63067500D02*
X325428100Y-63143000D01*
X330626300Y-90792500D02*
X329078300Y-89244500D01*
X329078300Y-89244500D02*
X326163100Y-89244500D01*
X138553300Y-64470700D02*
X138599000Y-64425000D01*
X138599000Y-64425000D02*
X141041200Y-64425000D01*
X141041200Y-64425000D02*
X141640300Y-65024100D01*
X141640300Y-65024100D02*
X247642200Y-65024100D01*
X247642200Y-65024100D02*
X248092500Y-64573800D01*
X248092500Y-64573800D02*
X248822600Y-64573800D01*
X248822600Y-64573800D02*
X249823000Y-63573400D01*
X249823000Y-63573400D02*
X265524700Y-63573400D01*
X265524700Y-63573400D02*
X265721000Y-63769700D01*
X265721000Y-63769700D02*
X274218300Y-63769700D01*
X274218300Y-63769700D02*
X274450900Y-63537100D01*
X274450900Y-63537100D02*
X301633100Y-63537100D01*
X301633100Y-63537100D02*
X302027200Y-63143000D01*
X302027200Y-63143000D02*
X325428100Y-63143000D01*
X327025300Y-96462700D02*
X324551700Y-96462700D01*
X324668800Y-111483000D02*
X322354100Y-113797700D01*
X322354100Y-113797700D02*
X322354100Y-113908700D01*
X136663100Y-65395800D02*
X135964600Y-66094300D01*
X135964600Y-66094300D02*
X102896500Y-66094300D01*
X102896500Y-66094300D02*
X101316900Y-64514700D01*
X101316900Y-64514700D02*
X67825000Y-64514700D01*
X327025300Y-96462700D02*
X327025300Y-94393500D01*
X327025300Y-94393500D02*
X330626300Y-90792500D01*
%TO.N,Net-(D79-Pad1)*%
X321425500Y-102712800D02*
X321740600Y-103027900D01*
X321740600Y-103027900D02*
X377665700Y-103027900D01*
X377665700Y-103027900D02*
X383894200Y-96799400D01*
%TO.N,Net-(D80-Pad1)*%
X383901600Y-39381900D02*
X377007700Y-46275800D01*
X377007700Y-46275800D02*
X337248200Y-46275800D01*
X337248200Y-46275800D02*
X336972200Y-45999800D01*
X330546600Y-52537500D02*
X328160200Y-54923900D01*
X328160200Y-54923900D02*
X321008100Y-54923900D01*
%TO.N,Net-(D81-Pad1)*%
X321995900Y-116005200D02*
X328369400Y-109631700D01*
X328369400Y-109631700D02*
X336195900Y-109631700D01*
X336195900Y-109631700D02*
X337408900Y-110844700D01*
X337408900Y-110844700D02*
X348212100Y-110844700D01*
X348212100Y-110844700D02*
X349425100Y-109631700D01*
X349425100Y-109631700D02*
X355337500Y-109631700D01*
X355337500Y-109631700D02*
X356497400Y-110791600D01*
X356497400Y-110791600D02*
X364977700Y-110791600D01*
X364977700Y-110791600D02*
X368667700Y-107101600D01*
X368667700Y-107101600D02*
X402421100Y-107101600D01*
X402421100Y-107101600D02*
X402912400Y-107592900D01*
%TO.N,Net-(D82-Pad1)*%
X301575300Y-82708300D02*
X279231900Y-82708300D01*
X279231900Y-82708300D02*
X278843900Y-82320300D01*
X278843900Y-82320300D02*
X276715700Y-82320300D01*
X276715700Y-82320300D02*
X276469600Y-82566400D01*
X276469600Y-82566400D02*
X267625000Y-82566400D01*
X267625000Y-82566400D02*
X266589700Y-83601700D01*
X266589700Y-83601700D02*
X260144200Y-83601700D01*
X260144200Y-83601700D02*
X259392800Y-82850300D01*
X259392800Y-82850300D02*
X228935200Y-82850300D01*
X228935200Y-82850300D02*
X228452300Y-83333200D01*
X228452300Y-83333200D02*
X175331100Y-83333200D01*
X175331100Y-83333200D02*
X175121100Y-83123200D01*
X175121100Y-83123200D02*
X174147000Y-83123200D01*
X174147000Y-83123200D02*
X173989500Y-83280700D01*
X173989500Y-83280700D02*
X117552300Y-83280700D01*
X117552300Y-83280700D02*
X117315900Y-83044300D01*
X117315900Y-83044300D02*
X67295200Y-83044300D01*
X302021500Y-101242400D02*
X305769900Y-101242400D01*
X305769900Y-101242400D02*
X306714000Y-102186500D01*
X306714000Y-102186500D02*
X311341000Y-102186500D01*
X311341000Y-102186500D02*
X311605000Y-102450500D01*
X311605000Y-102450500D02*
X312579100Y-102450500D01*
X312579100Y-102450500D02*
X313111100Y-101918500D01*
X313111100Y-101918500D02*
X316508700Y-101918500D01*
X316508700Y-101918500D02*
X316785500Y-102195300D01*
X316785500Y-102195300D02*
X317729800Y-102195300D01*
X317729800Y-102195300D02*
X317950500Y-101974600D01*
X317950500Y-101974600D02*
X336854200Y-101974600D01*
X336854200Y-101974600D02*
X337425400Y-102545800D01*
X337425400Y-102545800D02*
X365261000Y-102545800D01*
X365261000Y-102545800D02*
X365527000Y-102279800D01*
%TO.N,Net-(D83-Pad1)*%
X48148900Y-73335800D02*
X56561000Y-73335800D01*
X56561000Y-73335800D02*
X67008700Y-83783500D01*
X67008700Y-83783500D02*
X116298700Y-83783500D01*
X116298700Y-83783500D02*
X116558000Y-83524200D01*
X116558000Y-83524200D02*
X117158900Y-83524200D01*
X117158900Y-83524200D02*
X117365700Y-83731000D01*
X117365700Y-83731000D02*
X174176100Y-83731000D01*
X174176100Y-83731000D02*
X174333600Y-83573500D01*
X174333600Y-83573500D02*
X174934500Y-83573500D01*
X174934500Y-83573500D02*
X175144500Y-83783500D01*
X175144500Y-83783500D02*
X229138200Y-83783500D01*
X229138200Y-83783500D02*
X229621100Y-83300600D01*
X229621100Y-83300600D02*
X259206100Y-83300600D01*
X259206100Y-83300600D02*
X259957500Y-84052000D01*
X259957500Y-84052000D02*
X266776300Y-84052000D01*
X266776300Y-84052000D02*
X267811600Y-83016700D01*
X267811600Y-83016700D02*
X278514400Y-83016700D01*
X278514400Y-83016700D02*
X278544600Y-83046900D01*
X301474400Y-104046700D02*
X302812400Y-104046700D01*
X302812400Y-104046700D02*
X303409200Y-103449900D01*
X303409200Y-103449900D02*
X305371600Y-103449900D01*
X305371600Y-103449900D02*
X306459500Y-104537800D01*
X306459500Y-104537800D02*
X313603400Y-104537800D01*
X313603400Y-104537800D02*
X314486800Y-105421200D01*
X314486800Y-105421200D02*
X319575500Y-105421200D01*
X319575500Y-105421200D02*
X320574300Y-104422400D01*
X320574300Y-104422400D02*
X341981100Y-104422400D01*
X341981100Y-104422400D02*
X342077400Y-104518700D01*
%TO.N,Net-(D92-Pad2)*%
X201221500Y-80058000D02*
X198696200Y-82583300D01*
X198696200Y-82583300D02*
X185738300Y-82583300D01*
%TO.N,Net-(D94-Pad2)*%
X398088000Y-46726100D02*
X335023400Y-46726100D01*
X335023400Y-46726100D02*
X329660000Y-41362700D01*
X329660000Y-41362700D02*
X303330300Y-41362700D01*
X303330300Y-41362700D02*
X303014200Y-41678800D01*
%TO.N,Net-(D91-Pad2)*%
X276154100Y-64749000D02*
X275879000Y-65024100D01*
X275879000Y-65024100D02*
X265312700Y-65024100D01*
X265312700Y-65024100D02*
X265037600Y-64749000D01*
%TO.N,Net-(D104-Pad2)*%
X134075500Y-41331000D02*
X130545400Y-44861100D01*
X130545400Y-44861100D02*
X119429900Y-44861100D01*
%TO.N,Net-(D110-Pad2)*%
X282169300Y-81115800D02*
X267801800Y-81115800D01*
X267801800Y-81115800D02*
X266516100Y-82401500D01*
X266516100Y-82401500D02*
X261802100Y-82401500D01*
%TO.N,Net-(D114-Pad2)*%
X339068700Y-78464400D02*
X296908400Y-78464400D01*
%TO.N,Net-(D117-Pad2)*%
X150988600Y-63259100D02*
X168548700Y-63259100D01*
X168548700Y-63259100D02*
X168847100Y-62960700D01*
%TO.N,Net-(D118-Pad2)*%
X346762000Y-81867300D02*
X344258900Y-81867300D01*
X344258900Y-81867300D02*
X343790700Y-82335500D01*
X343790700Y-82335500D02*
X333000200Y-82335500D01*
%TO.N,Net-(D122-Pad2)*%
X367228300Y-82381400D02*
X351002600Y-82381400D01*
%TO.N,Net-(D125-Pad2)*%
X122859900Y-62941200D02*
X122798300Y-62879600D01*
X122798300Y-62879600D02*
X112831200Y-62879600D01*
%TO.N,Net-(D128-Pad2)*%
X260094900Y-40926800D02*
X259353200Y-40185100D01*
X259353200Y-40185100D02*
X231633600Y-40185100D01*
%TO.N,Net-(D136-Pad2)*%
X338323200Y-40212800D02*
X331364500Y-40212800D01*
X331364500Y-40212800D02*
X326967400Y-35815700D01*
X326967400Y-35815700D02*
X326967400Y-35653500D01*
X326967400Y-35653500D02*
X325103000Y-33789100D01*
X325103000Y-33789100D02*
X299039100Y-33789100D01*
X299039100Y-33789100D02*
X298207700Y-34620500D01*
X298207700Y-34620500D02*
X294539600Y-34620500D01*
X294539600Y-34620500D02*
X288849900Y-40310200D01*
X288849900Y-40310200D02*
X270905900Y-40310200D01*
X270905900Y-40310200D02*
X268841000Y-42375100D01*
%TO.N,Net-(D146-Pad2)*%
X290498800Y-99616500D02*
X306161400Y-99616500D01*
X306161400Y-99616500D02*
X306380100Y-99835200D01*
X306380100Y-99835200D02*
X329675900Y-99835200D01*
%TO.N,Net-(D155-Pad2)*%
X273653900Y-119699800D02*
X274658900Y-120704800D01*
X274658900Y-120704800D02*
X301240300Y-120704800D01*
X301240300Y-120704800D02*
X302833600Y-119111500D01*
%TO.N,Net-(D157-Pad2)*%
X133263400Y-78188400D02*
X133050900Y-78400900D01*
X133050900Y-78400900D02*
X119169000Y-78400900D01*
X119169000Y-78400900D02*
X118220600Y-79349300D01*
%TO.N,Net-(D162-Pad2)*%
X203828800Y-96005300D02*
X211275100Y-96005300D01*
X211275100Y-96005300D02*
X211477200Y-96207400D01*
%TO.N,Net-(D164-Pad2)*%
X349933400Y-64638800D02*
X341022900Y-64638800D01*
%TO.N,/Sheet6096EA01/INPUT*%
X311150000Y-120015000D02*
X311150000Y-118236500D01*
X311150000Y-118236500D02*
X310547600Y-117634100D01*
X310547600Y-117634100D02*
X304932300Y-117634100D01*
X304932300Y-117634100D02*
X304437800Y-118128600D01*
X304437800Y-118128600D02*
X304437800Y-119224600D01*
X304437800Y-119224600D02*
X306329500Y-121116300D01*
X306329500Y-121116300D02*
X306329500Y-122253800D01*
X306329500Y-122253800D02*
X303711900Y-124871400D01*
X303711900Y-124871400D02*
X44387200Y-124871400D01*
%TO.N,Net-(J1-Pad7)*%
X311774100Y-54993800D02*
X309850500Y-56917400D01*
X309850500Y-56917400D02*
X306062500Y-56917400D01*
%TO.N,Net-(J1-Pad3)*%
X396070500Y-115990300D02*
X395695500Y-116365300D01*
X395695500Y-116365300D02*
X390824200Y-116365300D01*
X390824200Y-116365300D02*
X385079100Y-122110400D01*
X385079100Y-122110400D02*
X311975400Y-122110400D01*
X311975400Y-122110400D02*
X311150000Y-121285000D01*
%TO.N,LED_GND*%
X308990000Y-54769800D02*
X300486000Y-54769800D01*
X300486000Y-54769800D02*
X300265800Y-54990000D01*
X315179300Y-64475100D02*
X338654100Y-64475100D01*
X338654100Y-64475100D02*
X339048000Y-64869000D01*
X340073500Y-69381200D02*
X340298600Y-69606300D01*
X340298600Y-69606300D02*
X351344500Y-69606300D01*
X351344500Y-69606300D02*
X351569700Y-69381100D01*
X129495200Y-64055300D02*
X116264700Y-64055300D01*
X340453200Y-119196900D02*
X339218700Y-120431400D01*
X339218700Y-120431400D02*
X331538600Y-120431400D01*
X331538600Y-120431400D02*
X331122200Y-120015000D01*
X331122200Y-120015000D02*
X318325300Y-120015000D01*
X270199700Y-72929600D02*
X276193500Y-72929600D01*
X239010800Y-44908100D02*
X223144700Y-44908100D01*
X223144700Y-44908100D02*
X221097400Y-42860800D01*
X259943500Y-43309100D02*
X258344500Y-44908100D01*
X258344500Y-44908100D02*
X239010800Y-44908100D01*
X317500000Y-120015000D02*
X318325300Y-120015000D01*
%TO.N,LED_5V*%
X314502500Y-79874700D02*
X314226900Y-79599100D01*
X314226900Y-79599100D02*
X297205200Y-79599100D01*
X297205200Y-79599100D02*
X296929600Y-79874700D01*
X309054700Y-120015000D02*
X309054700Y-124391000D01*
X239281600Y-39459800D02*
X251274000Y-39459800D01*
X124520700Y-77072500D02*
X124022000Y-76573800D01*
X124022000Y-76573800D02*
X118018400Y-76573800D01*
X314502500Y-79874700D02*
X314542800Y-79915000D01*
X314542800Y-79915000D02*
X331141200Y-79915000D01*
X296929600Y-79874700D02*
X292651200Y-75596300D01*
X292651200Y-75596300D02*
X292651200Y-74721200D01*
X292651200Y-74721200D02*
X291292800Y-73362800D01*
X291292800Y-73362800D02*
X289371300Y-73362800D01*
X289371300Y-73362800D02*
X284594900Y-78139200D01*
X284594900Y-78139200D02*
X261788100Y-78139200D01*
X309880000Y-120015000D02*
X309054700Y-120015000D01*
%TO.N,Net-(D168-Pad2)*%
X332489100Y-63231200D02*
X328533200Y-59275300D01*
X328533200Y-59275300D02*
X294783400Y-59275300D01*
%TO.N,PWR_5V*%
X317500000Y-121285000D02*
X318325300Y-121285000D01*
X331102300Y-121020900D02*
X318589400Y-121020900D01*
X318589400Y-121020900D02*
X318325300Y-121285000D01*
%TO.N,TEENSY_GND*%
X305167400Y-118425700D02*
X309334300Y-118425700D01*
X309334300Y-118425700D02*
X309805100Y-118896500D01*
X317424600Y-65981500D02*
X304359700Y-65981500D01*
X304359700Y-65981500D02*
X303714100Y-65335900D01*
%TD*%
M02*
