M48
; DRILL file {KiCad (5.1.9)-1} date 05/13/21 22:29:49
; FORMAT={-:-/ absolute / inch / decimal}
; #@! TF.CreationDate,2021-05-13T22:29:49-07:00
; #@! TF.GenerationSoftware,Kicad,Pcbnew,(5.1.9)-1
; #@! TF.FileFunction,Plated,1,2,PTH
FMAT,2
INCH
T1C0.0157
T2C0.0256
T3C0.0433
%
G90
G05
T1
X1.2473Y-4.6468
X1.339Y-6.4073
X1.4503Y-4.9949
X1.455Y-3.8771
X1.5722Y-6.1173
X1.6554Y-4.8819
X1.7614Y-3.955
X2.0562Y-6.6419
X2.0763Y-4.1738
X2.4236Y-4.9232
X2.4735Y-3.9925
X2.479Y-4.6488
X2.5474Y-4.8812
X2.5914Y-4.9143
X2.6085Y-5.3613
X2.656Y-6.2669
X2.679Y-5.5174
X2.849Y-4.6488
X2.9442Y-6.3902
X3.0151Y-5.41
X3.0541Y-4.3661
X3.0681Y-4.95
X3.1151Y-5.6152
X3.1773Y-5.7934
X3.2091Y-6.5982
X3.3108Y-6.0929
X3.3108Y-6.2537
X3.3605Y-6.1128
X3.3697Y-4.3148
X3.4306Y-3.9248
X3.4435Y-6.1134
X3.4547Y-4.1691
X3.5793Y-4.0833
X3.5844Y-5.6952
X3.5848Y-5.0491
X3.7713Y-6.1709
X3.8057Y-5.3523
X3.8089Y-5.4256
X3.8319Y-4.2022
X3.8458Y-5.7246
X3.8711Y-4.6077
X3.9577Y-4.6575
X4.0468Y-6.4509
X4.1109Y-5.6987
X4.1356Y-6.2556
X4.1602Y-6.1709
X4.1797Y-4.9792
X4.1888Y-6.3267
X4.2362Y-4.6423
X4.2873Y-4.8866
X4.3061Y-4.037
X4.3692Y-4.6939
X4.3935Y-5.3523
X4.4478Y-4.0833
X4.4625Y-5.6963
X4.5409Y-5.3719
X4.5604Y-3.8885
X4.5976Y-4.1829
X4.7378Y-4.2319
X4.8913Y-4.9279
X4.9157Y-6.0842
X5.0552Y-6.3107
X5.1956Y-5.0795
X5.2124Y-3.8693
X5.2606Y-3.9359
X5.3175Y-5.5298
X5.36Y-4.8178
X5.3995Y-4.6125
X5.5194Y-6.673
X5.5219Y-6.3136
X5.6342Y-4.3118
X5.6472Y-6.2501
X5.6506Y-3.9925
X5.6864Y-5.7038
X5.7018Y-4.9821
X5.7244Y-5.3652
X5.7778Y-4.505
X5.8418Y-4.9521
X5.8663Y-4.6643
X5.9457Y-5.6982
X5.9887Y-5.4367
X6.0092Y-4.8452
X6.0395Y-4.1821
X6.1454Y-6.3047
X6.1528Y-5.6253
X6.3565Y-4.3148
X6.3765Y-5.4394
X6.4098Y-6.6155
X6.5334Y-4.5816
X6.6976Y-4.6102
X6.7041Y-3.8737
X6.7545Y-3.9527
X6.7609Y-5.317
X6.7972Y-6.1946
X6.8074Y-4.1275
X6.8984Y-6.2315
X6.9121Y-6.1576
X6.9367Y-5.5807
X6.9565Y-4.6528
X6.9762Y-4.4052
X7.1134Y-6.6372
X7.1187Y-5.6247
X7.1198Y-5.5089
X7.1793Y-3.9925
X7.1854Y-6.2081
X7.1881Y-6.1671
X7.2014Y-5.6424
X7.2214Y-4.9348
X7.2439Y-4.8994
X7.2891Y-5.6008
X7.3584Y-5.3574
X7.3648Y-4.6528
X7.4246Y-4.6102
X7.5429Y-4.1726
X7.6134Y-6.3818
X7.8793Y-5.46
X7.9264Y-3.9073
X7.9461Y-4.8242
X8.2596Y-3.9322
X8.2914Y-5.4175
X8.2984Y-4.2329
X8.4132Y-5.5312
X8.4378Y-6.4039
X8.5145Y-6.0843
X8.5937Y-6.2059
X8.6Y-6.0862
X8.625Y-6.2396
X8.6495Y-4.9252
X8.6605Y-5.42
X8.6798Y-3.9694
X8.6921Y-4.2678
X8.728Y-4.6282
X8.8743Y-4.6107
X8.8906Y-5.4885
X9.0103Y-4.1756
X9.0657Y-5.58
X9.2029Y-4.6645
X9.3802Y-5.4259
X9.3834Y-5.8432
X9.418Y-4.022
X9.4626Y-4.8633
X9.5376Y-5.0044
X9.6406Y-4.7751
X9.7593Y-3.9079
X9.778Y-5.3339
X9.7991Y-5.4796
X9.845Y-6.4538
X9.9403Y-6.8743
X9.9514Y-4.2041
X9.9825Y-5.8054
X9.9993Y-6.3074
X10.0721Y-5.524
X10.1009Y-4.7874
X10.1621Y-3.9947
X10.1729Y-3.9472
X10.2146Y-6.3214
X10.3174Y-4.9346
X10.3279Y-4.5971
X10.3347Y-5.835
X10.3649Y-4.6257
X10.4279Y-4.2525
X10.4724Y-4.026
X10.5711Y-5.6001
X10.6189Y-5.7185
X10.6242Y-6.1685
X10.6685Y-4.7603
X10.7118Y-5.7287
X10.7575Y-5.681
X10.7651Y-5.4905
X10.8015Y-5.61
X10.8234Y-6.3992
X10.8357Y-4.9643
X10.8687Y-6.5709
X10.8985Y-4.0431
X10.9403Y-4.6123
X10.9715Y-5.7332
X10.9743Y-6.0699
X10.976Y-3.8547
X10.9874Y-4.0641
X11.0014Y-4.5096
X11.1652Y-4.2501
X11.212Y-5.4914
X11.2325Y-4.041
X11.2575Y-6.1744
X11.2775Y-5.5471
X11.3566Y-5.6056
X11.3783Y-5.4591
X11.4079Y-6.2618
X11.4095Y-4.5281
X11.4547Y-5.6167
X11.5041Y-4.0523
X11.5106Y-5.3879
X11.513Y-6.6951
X11.5226Y-6.2112
X11.5577Y-3.6053
X11.5621Y-6.2274
X11.5677Y-4.3861
X11.5735Y-5.6317
X11.579Y-4.4577
X11.5843Y-5.5738
X11.6165Y-4.1344
X11.6168Y-6.5036
X11.6241Y-6.6643
X11.6741Y-4.9293
X11.6845Y-5.4118
X11.6847Y-5.6168
X11.6892Y-6.9257
X11.7387Y-7.1135
X11.8175Y-6.7132
X11.8816Y-3.9091
X11.9078Y-4.1804
X11.9162Y-3.4406
X11.918Y-3.9979
X11.9314Y-4.2382
X11.9458Y-6.4398
X11.9535Y-6.6712
X11.9552Y-6.7515
X11.9581Y-5.6
X11.9791Y-5.1782
X12.034Y-6.0179
X12.0386Y-4.1687
X12.0395Y-3.9027
X12.043Y-6.5975
X12.0595Y-4.1339
X12.0944Y-4.0881
X12.1007Y-5.4079
X12.1027Y-5.6067
X12.1113Y-5.0951
X12.1191Y-5.4592
X12.1259Y-5.1993
X12.1304Y-4.1557
X12.1329Y-6.4932
X12.1507Y-4.0142
X12.1802Y-3.6409
X12.1946Y-5.9578
X12.2062Y-6.5503
X12.2073Y-6.2964
X12.208Y-3.7659
X12.2156Y-4.5343
X12.2236Y-4.996
X12.2357Y-5.8393
X12.2385Y-5.6012
X12.2453Y-5.2975
X12.2478Y-6.2863
X12.2479Y-3.3057
X12.2536Y-5.024
X12.2555Y-5.0633
X12.256Y-4.5813
X12.2776Y-6.8673
X12.2806Y-5.7476
X12.2928Y-5.8255
X12.3027Y-7.0316
X12.3082Y-5.2479
X12.3104Y-4.9983
X12.318Y-4.0
X12.3269Y-4.5203
X12.3351Y-6.1769
X12.3483Y-4.6528
X12.3571Y-6.5553
X12.376Y-6.4802
X12.384Y-4.52
X12.4056Y-5.3764
X12.4076Y-4.6778
X12.4104Y-6.4087
X12.4251Y-6.0743
X12.4342Y-6.1944
X12.4491Y-5.4381
X12.4504Y-6.4716
X12.457Y-6.0153
X12.4665Y-5.653
X12.485Y-6.2256
X12.5162Y-4.6379
X12.5176Y-5.7973
X12.5216Y-5.5546
X12.5337Y-4.5163
X12.5419Y-5.4554
X12.543Y-5.4948
X12.5461Y-4.6676
X12.5605Y-3.8453
X12.5987Y-3.918
X12.6321Y-4.5823
X12.6563Y-6.4583
X12.7559Y-4.0652
X12.7562Y-4.3018
X12.7594Y-5.5652
X12.7614Y-6.3727
X12.8977Y-4.5437
X12.9095Y-6.3153
X12.954Y-4.0995
X12.9606Y-6.9883
X12.9925Y-3.8327
X13.0152Y-4.7215
X13.0234Y-4.5936
X13.0426Y-6.1208
X13.0902Y-4.4093
X13.1606Y-4.2239
X13.1654Y-5.1554
X13.2435Y-4.0652
X13.2439Y-3.9913
X13.2792Y-4.6008
X13.296Y-5.5549
X13.3446Y-6.2639
X13.4719Y-4.3485
X13.5173Y-6.439
X13.633Y-4.612
X13.6628Y-4.4421
X13.7443Y-4.0316
X13.7899Y-6.4059
X13.7927Y-3.7301
X13.8095Y-4.7971
X13.8247Y-5.7197
X13.8356Y-6.316
X14.0341Y-3.8269
X14.0509Y-4.6227
X14.1702Y-6.1225
X14.3474Y-5.6219
X14.4607Y-3.9911
X14.4708Y-5.7431
X14.4866Y-6.9878
X14.5051Y-6.4263
X14.586Y-5.5508
X14.8478Y-4.6385
X14.8513Y-4.7975
X14.9968Y-7.1545
X15.0778Y-4.0599
X15.1662Y-7.0705
X15.2289Y-4.621
X15.3739Y-4.1303
T2
X11.775Y-7.0
X11.775Y-7.05
X11.825Y-7.0
X11.825Y-7.05
X11.875Y-7.0
X11.875Y-7.05
X11.925Y-7.0
X11.925Y-7.05
X11.975Y-7.0
X11.975Y-7.05
X12.025Y-7.0
X12.025Y-7.05
X12.075Y-7.0
X12.075Y-7.05
T3
X11.75Y-3.25
X11.75Y-3.35
X11.75Y-3.45
X11.75Y-3.55
X11.75Y-3.65
X11.75Y-3.75
X11.75Y-3.85
X11.75Y-3.95
X11.75Y-4.05
X11.75Y-4.15
X11.75Y-4.25
X11.75Y-4.35
X11.85Y-3.65
X11.85Y-4.35
X11.95Y-4.35
X12.05Y-4.35
X12.15Y-4.35
X12.25Y-3.65
X12.25Y-4.35
X12.35Y-3.25
X12.35Y-3.35
X12.35Y-3.45
X12.35Y-3.55
X12.35Y-3.65
X12.35Y-3.75
X12.35Y-3.85
X12.35Y-3.95
X12.35Y-4.05
X12.35Y-4.15
X12.35Y-4.25
X12.35Y-4.35
T0
M30
