M48
; DRILL file {KiCad (5.1.9)-1} date 05/14/21 10:19:57
; FORMAT={-:-/ absolute / inch / decimal}
; #@! TF.CreationDate,2021-05-14T10:19:57-07:00
; #@! TF.GenerationSoftware,Kicad,Pcbnew,(5.1.9)-1
; #@! TF.FileFunction,Plated,1,2,PTH
FMAT,2
INCH
T1C0.0157
T2C0.0256
T3C0.0433
%
G90
G05
T1
X1.3225Y-7.1912
X1.4706Y-5.1622
X1.6252Y-3.9066
X1.6603Y-7.1604
X1.768Y-4.9487
X1.9198Y-6.134
X2.0213Y-4.0762
X2.1172Y-4.872
X2.2244Y-5.5445
X2.2453Y-4.8149
X2.4429Y-6.8468
X2.5459Y-3.8271
X2.7967Y-5.003
X2.8148Y-4.0688
X2.841Y-6.316
X2.8849Y-4.872
X2.9867Y-6.066
X3.0542Y-6.2447
X3.085Y-3.9779
X3.1768Y-5.6401
X3.1768Y-5.7585
X3.3267Y-6.2732
X3.3823Y-4.2264
X3.4851Y-4.0584
X3.603Y-4.5886
X3.6331Y-5.7172
X3.7459Y-4.8431
X3.7887Y-6.2476
X3.8069Y-4.2197
X4.0031Y-4.1885
X4.0172Y-4.7506
X4.1052Y-6.2773
X4.1192Y-6.1345
X4.1262Y-3.9632
X4.1524Y-4.7969
X4.1584Y-3.8359
X4.1756Y-4.9688
X4.1757Y-5.5919
X4.2214Y-5.2897
X4.2294Y-5.399
X4.277Y-4.0412
X4.2852Y-5.3331
X4.2987Y-6.5558
X4.3415Y-4.8468
X4.3423Y-5.3183
X4.412Y-4.753
X4.4251Y-4.9328
X4.4774Y-5.3094
X4.4886Y-6.2595
X4.5583Y-6.3336
X4.6732Y-4.7969
X4.7112Y-6.3622
X4.751Y-4.6796
X4.8216Y-5.3533
X4.8536Y-3.9022
X4.8964Y-6.3907
X4.942Y-4.9688
X4.9554Y-4.8496
X4.9877Y-6.2898
X5.0299Y-4.8132
X5.1081Y-4.86
X5.1501Y-4.7885
X5.1723Y-6.2881
X5.302Y-5.0108
X5.3303Y-6.0605
X5.3629Y-5.724
X5.3653Y-6.0952
X5.385Y-6.6673
X5.443Y-6.2735
X5.5187Y-4.2141
X5.5194Y-3.8271
X5.5194Y-4.7655
X5.5709Y-4.1618
X5.8478Y-4.0705
X5.9669Y-5.5235
X5.9967Y-6.0929
X5.9986Y-4.899
X6.1026Y-5.7286
X6.1289Y-6.2735
X6.2225Y-4.7538
X6.302Y-3.8184
X6.3115Y-4.2141
X6.4504Y-5.5939
X6.4585Y-4.0074
X6.5555Y-4.5952
X6.615Y-6.307
X6.7486Y-5.3341
X6.7582Y-6.0849
X6.7836Y-4.1349
X6.8875Y-5.5263
X7.0845Y-3.8271
X7.1101Y-4.2141
X7.128Y-5.8344
X7.241Y-6.2804
X7.2868Y-5.0711
X7.3081Y-4.899
X7.3864Y-4.9185
X7.3996Y-5.3617
X7.4027Y-5.6765
X7.431Y-5.389
X7.4532Y-4.9595
X7.4682Y-6.3472
X7.4971Y-5.4269
X7.5864Y-5.0711
X7.5998Y-6.0547
X7.6026Y-5.7276
X7.6612Y-3.8964
X7.6884Y-6.2754
X7.7049Y-5.6765
X7.7517Y-4.5962
X7.7614Y-6.3297
X7.82Y-5.6972
X7.8871Y-4.7695
X7.8919Y-4.5847
X7.892Y-4.2141
X7.9009Y-6.0627
X7.9178Y-6.2642
X7.9562Y-4.7259
X7.9607Y-4.1349
X7.9834Y-4.7544
X8.0167Y-4.9809
X8.0921Y-4.6132
X8.0989Y-4.7883
X8.207Y-6.3316
X8.2796Y-3.9624
X8.3504Y-5.72
X8.493Y-4.5942
X8.6944Y-3.8571
X8.7031Y-4.6197
X8.7458Y-4.2141
X8.7909Y-5.6017
X8.948Y-5.4554
X8.9508Y-6.4776
X8.9776Y-5.5834
X8.9849Y-4.043
X8.9955Y-3.8285
X9.0691Y-4.1847
X9.2149Y-4.7533
X9.2983Y-4.7709
X9.4441Y-4.2439
X9.4677Y-3.8285
X9.4874Y-4.583
X9.4969Y-4.9636
X9.6132Y-4.9345
X9.6295Y-6.6321
X9.809Y-3.9801
X9.815Y-3.8863
X9.8816Y-5.3513
X9.8822Y-5.5192
X9.9671Y-6.9861
X10.0096Y-4.8242
X10.0622Y-5.6304
X10.1593Y-3.9433
X10.176Y-5.3799
X10.2128Y-5.1462
X10.2132Y-4.1656
X10.2275Y-4.9345
X10.2711Y-4.5628
X10.2893Y-5.2095
X10.3059Y-4.1349
X10.333Y-5.6463
X10.3336Y-5.3056
X10.3488Y-6.9876
X10.3614Y-4.7548
X10.4047Y-4.1047
X10.4078Y-4.8059
X10.4472Y-4.8242
X10.4478Y-5.4971
X10.4488Y-5.1462
X10.4942Y-4.048
X10.5413Y-5.5446
X10.5849Y-5.6749
X10.684Y-5.4685
X10.7249Y-4.5956
X10.7264Y-5.6988
X10.8146Y-5.691
X10.8406Y-4.0669
X10.9311Y-4.8419
X10.9664Y-6.5167
X11.012Y-6.1969
X11.0524Y-5.8872
X11.0558Y-4.8115
X11.0558Y-6.2266
X11.0615Y-4.8902
X11.1548Y-5.3752
X11.1806Y-4.6087
X11.2041Y-5.8089
X11.2554Y-5.3236
X11.2643Y-5.3641
X11.2651Y-5.4197
X11.2869Y-5.8508
X11.3269Y-5.0064
X11.3816Y-4.5746
X11.3858Y-6.6567
X11.3965Y-4.44
X11.4302Y-6.1625
X11.4335Y-4.8998
X11.4441Y-6.3713
X11.448Y-5.5312
X11.4656Y-6.2609
X11.4664Y-5.4375
X11.4876Y-4.9586
X11.4906Y-6.3371
X11.4976Y-6.9644
X11.5047Y-3.9159
X11.5291Y-6.4159
X11.5322Y-4.8473
X11.5409Y-6.3765
X11.5517Y-4.7902
X11.5781Y-4.6591
X11.5784Y-4.1656
X11.5895Y-6.9374
X11.6062Y-7.0745
X11.6247Y-4.5158
X11.628Y-4.5746
X11.6283Y-4.9765
X11.6443Y-4.69
X11.6471Y-6.5345
X11.6522Y-6.3621
X11.6622Y-6.2695
X11.6666Y-5.2985
X11.6667Y-6.0367
X11.74Y-4.4313
X11.7425Y-7.1723
X11.7721Y-6.956
X11.8197Y-3.9377
X11.8496Y-4.4401
X11.8541Y-6.8468
X11.8621Y-6.2622
X11.9199Y-3.8057
X11.9376Y-6.3161
X11.9418Y-6.1032
X11.9471Y-6.6853
X11.957Y-4.758
X11.957Y-5.4197
X11.9744Y-5.1174
X11.9757Y-6.7714
X11.9788Y-6.1325
X11.9791Y-6.3969
X11.9836Y-4.8134
X11.9955Y-6.4957
X12.0189Y-6.0082
X12.0504Y-6.1518
X12.0603Y-6.2698
X12.0636Y-5.9181
X12.0699Y-6.0367
X12.072Y-4.8727
X12.0985Y-6.7715
X12.1081Y-6.6139
X12.1152Y-5.2021
X12.1169Y-6.1539
X12.1191Y-6.3719
X12.1233Y-6.2505
X12.1257Y-5.9123
X12.1345Y-5.2985
X12.1382Y-5.0503
X12.1534Y-5.6542
X12.1609Y-4.9666
X12.1736Y-5.7261
X12.1918Y-5.9391
X12.1932Y-5.4668
X12.1997Y-4.9863
X12.2015Y-6.7715
X12.2077Y-4.8698
X12.208Y-6.4147
X12.2131Y-4.4374
X12.2244Y-5.7141
X12.2295Y-6.3188
X12.2321Y-4.0
X12.2414Y-5.334
X12.252Y-6.8421
X12.2554Y-6.6567
X12.2661Y-6.7596
X12.2914Y-6.8582
X12.2996Y-5.0131
X12.3137Y-5.1174
X12.3141Y-4.6372
X12.3526Y-6.0727
X12.3572Y-6.6641
X12.3748Y-5.9101
X12.3753Y-4.9281
X12.3867Y-5.5489
X12.3871Y-4.7609
X12.3906Y-5.9958
X12.4161Y-5.7886
X12.4203Y-4.5553
X12.45Y-6.0727
X12.4516Y-4.8698
X12.4743Y-4.5238
X12.4754Y-5.6775
X12.49Y-5.8414
X12.545Y-5.5656
X12.5544Y-6.2055
X12.5723Y-5.1067
X12.5844Y-5.5665
X12.5886Y-4.3434
X12.5918Y-5.8495
X12.6105Y-7.0396
X12.6121Y-5.4213
X12.6651Y-4.7644
X12.6852Y-5.5166
X12.7692Y-6.5383
X12.8074Y-4.1606
X12.8416Y-4.086
X12.8948Y-3.8582
X12.9126Y-4.0589
X12.9233Y-4.8289
X12.9242Y-5.3641
X12.9269Y-6.2837
X12.9637Y-5.0065
X12.9729Y-6.2623
X12.9778Y-5.6619
X12.9787Y-6.9678
X13.0011Y-4.8198
X13.0177Y-4.9861
X13.0373Y-5.1573
X13.0426Y-6.3899
X13.0553Y-4.2069
X13.0651Y-4.6001
X13.0659Y-5.7327
X13.1264Y-5.5406
X13.135Y-4.8984
X13.1375Y-4.8584
X13.1465Y-4.7129
X13.1806Y-4.1604
X13.1848Y-6.0153
X13.1881Y-3.8268
X13.1983Y-4.923
X13.1995Y-5.6354
X13.2087Y-4.9624
X13.2107Y-4.5045
X13.2211Y-6.0924
X13.227Y-5.4981
X13.2377Y-4.0506
X13.3519Y-4.8198
X13.3728Y-6.1134
X13.394Y-5.5184
X13.4163Y-5.0065
X13.5666Y-4.8732
X13.7189Y-4.0678
X13.7494Y-4.8442
X13.7894Y-6.4855
X13.8413Y-5.5842
X13.8864Y-5.7429
X13.9158Y-5.3655
X13.9174Y-5.5489
X13.9658Y-6.3018
X14.0328Y-5.5184
X14.096Y-5.6128
X14.1699Y-4.6068
X14.4994Y-5.6853
X14.5231Y-6.4502
X14.5426Y-5.7139
X14.5734Y-6.8582
X14.5757Y-4.799
X14.6889Y-6.086
X14.6892Y-3.8255
X14.7289Y-6.097
X14.8027Y-5.48
X15.1683Y-6.8415
X15.2478Y-4.1146
X15.2622Y-4.3969
X15.3667Y-5.342
X15.4222Y-4.8707
X15.4377Y-6.5109
X15.469Y-5.342
T2
X11.775Y-7.0
X11.775Y-7.05
X11.825Y-7.0
X11.825Y-7.05
X11.875Y-7.0
X11.875Y-7.05
X11.925Y-7.0
X11.925Y-7.05
X11.975Y-7.0
X11.975Y-7.05
X12.025Y-7.0
X12.025Y-7.05
X12.075Y-7.0
X12.075Y-7.05
T3
X11.75Y-3.25
X11.75Y-3.35
X11.75Y-3.45
X11.75Y-3.55
X11.75Y-3.65
X11.75Y-3.75
X11.75Y-3.85
X11.75Y-3.95
X11.75Y-4.05
X11.75Y-4.15
X11.75Y-4.25
X11.75Y-4.35
X11.85Y-3.65
X11.85Y-4.35
X11.95Y-4.35
X12.05Y-4.35
X12.15Y-4.35
X12.25Y-3.65
X12.25Y-4.35
X12.35Y-3.25
X12.35Y-3.35
X12.35Y-3.45
X12.35Y-3.55
X12.35Y-3.65
X12.35Y-3.75
X12.35Y-3.85
X12.35Y-3.95
X12.35Y-4.05
X12.35Y-4.15
X12.35Y-4.25
X12.35Y-4.35
T0
M30
