M48
; DRILL file {KiCad (5.1.9)-1} date 05/14/21 10:19:57
; FORMAT={-:-/ absolute / inch / decimal}
; #@! TF.CreationDate,2021-05-14T10:19:57-07:00
; #@! TF.GenerationSoftware,Kicad,Pcbnew,(5.1.9)-1
; #@! TF.FileFunction,NonPlated,1,2,NPTH
FMAT,2
INCH
T1C0.0670
T2C0.1181
T3C0.1200
T4C0.1570
%
G90
G05
T1
X1.145Y-3.755
X1.145Y-6.755
X1.2354Y-4.5046
X1.3354Y-5.2546
X1.5254Y-6.0046
X1.545Y-3.755
X1.545Y-6.755
X1.6354Y-4.5046
X1.7354Y-5.2546
X1.895Y-3.755
X1.895Y-6.755
X1.9254Y-6.0046
X2.085Y-4.505
X2.275Y-5.255
X2.295Y-3.755
X2.295Y-6.755
X2.485Y-4.505
X2.645Y-3.755
X2.655Y-6.005
X2.675Y-5.255
X2.835Y-4.505
X2.8354Y-6.7546
X3.025Y-5.255
X3.045Y-3.755
X3.055Y-6.005
X3.235Y-4.505
X3.2354Y-6.7546
X3.395Y-3.755
X3.405Y-6.005
X3.425Y-5.255
X3.585Y-4.505
X3.775Y-5.255
X3.775Y-6.755
X3.795Y-3.755
X3.805Y-6.005
X3.985Y-4.505
X4.145Y-3.755
X4.155Y-6.005
X4.175Y-5.255
X4.175Y-6.755
X4.335Y-4.505
X4.525Y-5.255
X4.545Y-3.755
X4.555Y-6.005
X4.735Y-4.505
X4.895Y-3.755
X4.905Y-6.005
X4.925Y-5.255
X4.9954Y-6.7546
X5.085Y-4.505
X5.265Y-5.255
X5.295Y-3.755
X5.305Y-6.005
X5.3954Y-6.7546
X5.485Y-4.505
X5.645Y-3.755
X5.655Y-6.005
X5.665Y-5.255
X5.835Y-4.505
X6.015Y-5.255
X6.045Y-3.755
X6.055Y-6.005
X6.215Y-6.755
X6.235Y-4.505
X6.395Y-3.755
X6.405Y-6.005
X6.415Y-5.255
X6.585Y-4.505
X6.615Y-6.755
X6.765Y-5.255
X6.795Y-3.755
X6.805Y-6.005
X6.965Y-6.755
X6.985Y-4.505
X7.145Y-3.755
X7.155Y-6.005
X7.165Y-5.255
X7.335Y-4.505
X7.365Y-6.755
X7.515Y-5.255
X7.545Y-3.755
X7.555Y-6.005
X7.735Y-4.505
X7.895Y-3.755
X7.905Y-6.005
X7.915Y-5.255
X8.085Y-4.505
X8.1854Y-6.7546
X8.265Y-5.255
X8.295Y-3.755
X8.305Y-6.005
X8.485Y-4.505
X8.5854Y-6.7546
X8.645Y-3.755
X8.655Y-6.005
X8.665Y-5.255
X8.835Y-4.505
X9.015Y-5.255
X9.045Y-3.755
X9.055Y-6.005
X9.235Y-4.505
X9.395Y-3.755
X9.405Y-6.005
X9.415Y-5.255
X9.4954Y-6.7546
X9.585Y-4.505
X9.765Y-5.255
X9.795Y-3.755
X9.805Y-6.005
X9.8954Y-6.7546
X9.985Y-4.505
X10.145Y-3.755
X10.165Y-5.255
X10.335Y-4.505
X10.345Y-6.755
X10.545Y-3.755
X10.6254Y-6.0046
X10.735Y-4.505
X10.745Y-6.755
X10.8054Y-5.2546
X10.9854Y-3.7546
X11.0254Y-6.0046
X11.085Y-4.505
X11.095Y-6.755
X11.2054Y-5.2546
X11.3854Y-3.7546
X11.485Y-4.505
X11.495Y-6.755
X12.595Y-3.765
X12.595Y-4.515
X12.595Y-5.265
X12.595Y-6.015
X12.595Y-6.765
X12.995Y-3.765
X12.995Y-4.515
X12.995Y-5.265
X12.995Y-6.015
X12.995Y-6.765
X13.345Y-3.765
X13.345Y-4.515
X13.345Y-5.265
X13.345Y-6.015
X13.345Y-6.765
X13.745Y-3.765
X13.745Y-4.515
X13.745Y-5.265
X13.745Y-6.015
X13.745Y-6.765
X14.095Y-3.765
X14.095Y-4.515
X14.095Y-5.265
X14.095Y-6.015
X14.095Y-6.765
X14.495Y-3.765
X14.495Y-4.515
X14.495Y-5.265
X14.495Y-6.015
X14.495Y-6.765
X14.845Y-3.765
X14.845Y-4.515
X14.845Y-5.265
X14.845Y-6.015
X14.845Y-6.765
X15.245Y-3.765
X15.245Y-4.515
X15.245Y-5.265
X15.245Y-6.015
X15.245Y-6.765
T2
X1.195Y-3.655
X1.195Y-6.655
X1.2854Y-4.4046
X1.3854Y-5.1546
X1.445Y-3.555
X1.445Y-6.555
X1.5354Y-4.3046
X1.5754Y-5.9046
X1.6354Y-5.0546
X1.8254Y-5.8046
X1.945Y-3.655
X1.945Y-6.655
X2.135Y-4.405
X2.195Y-3.555
X2.195Y-6.555
X2.325Y-5.155
X2.385Y-4.305
X2.575Y-5.055
X2.695Y-3.655
X2.705Y-5.905
X2.885Y-4.405
X2.8854Y-6.6546
X2.945Y-3.555
X2.955Y-5.805
X3.075Y-5.155
X3.135Y-4.305
X3.1354Y-6.5546
X3.325Y-5.055
X3.445Y-3.655
X3.455Y-5.905
X3.635Y-4.405
X3.695Y-3.555
X3.705Y-5.805
X3.825Y-5.155
X3.825Y-6.655
X3.885Y-4.305
X4.075Y-5.055
X4.075Y-6.555
X4.195Y-3.655
X4.205Y-5.905
X4.385Y-4.405
X4.445Y-3.555
X4.455Y-5.805
X4.575Y-5.155
X4.635Y-4.305
X4.825Y-5.055
X4.945Y-3.655
X4.955Y-5.905
X5.0454Y-6.6546
X5.135Y-4.405
X5.195Y-3.555
X5.205Y-5.805
X5.2954Y-6.5546
X5.315Y-5.155
X5.385Y-4.305
X5.565Y-5.055
X5.695Y-3.655
X5.705Y-5.905
X5.885Y-4.405
X5.945Y-3.555
X5.955Y-5.805
X6.065Y-5.155
X6.135Y-4.305
X6.265Y-6.655
X6.315Y-5.055
X6.445Y-3.655
X6.455Y-5.905
X6.515Y-6.555
X6.635Y-4.405
X6.695Y-3.555
X6.705Y-5.805
X6.815Y-5.155
X6.885Y-4.305
X7.015Y-6.655
X7.065Y-5.055
X7.195Y-3.655
X7.205Y-5.905
X7.265Y-6.555
X7.385Y-4.405
X7.445Y-3.555
X7.455Y-5.805
X7.565Y-5.155
X7.635Y-4.305
X7.815Y-5.055
X7.945Y-3.655
X7.955Y-5.905
X8.135Y-4.405
X8.195Y-3.555
X8.205Y-5.805
X8.2354Y-6.6546
X8.315Y-5.155
X8.385Y-4.305
X8.4854Y-6.5546
X8.565Y-5.055
X8.695Y-3.655
X8.705Y-5.905
X8.885Y-4.405
X8.945Y-3.555
X8.955Y-5.805
X9.065Y-5.155
X9.135Y-4.305
X9.315Y-5.055
X9.445Y-3.655
X9.455Y-5.905
X9.5454Y-6.6546
X9.635Y-4.405
X9.695Y-3.555
X9.705Y-5.805
X9.7954Y-6.5546
X9.815Y-5.155
X9.885Y-4.305
X10.065Y-5.055
X10.195Y-3.655
X10.385Y-4.405
X10.395Y-6.655
X10.445Y-3.555
X10.635Y-4.305
X10.645Y-6.555
X10.6754Y-5.9046
X10.8554Y-5.1546
X10.9254Y-5.8046
X11.0354Y-3.6546
X11.1054Y-5.0546
X11.135Y-4.405
X11.145Y-6.655
X11.2854Y-3.5546
X11.385Y-4.305
X11.395Y-6.555
X12.645Y-3.665
X12.645Y-4.415
X12.645Y-5.165
X12.645Y-5.915
X12.645Y-6.665
X12.895Y-3.565
X12.895Y-4.315
X12.895Y-5.065
X12.895Y-5.815
X12.895Y-6.565
X13.395Y-3.665
X13.395Y-4.415
X13.395Y-5.165
X13.395Y-5.915
X13.395Y-6.665
X13.645Y-3.565
X13.645Y-4.315
X13.645Y-5.065
X13.645Y-5.815
X13.645Y-6.565
X14.145Y-3.665
X14.145Y-4.415
X14.145Y-5.165
X14.145Y-5.915
X14.145Y-6.665
X14.395Y-3.565
X14.395Y-4.315
X14.395Y-5.065
X14.395Y-5.815
X14.395Y-6.565
X14.895Y-3.665
X14.895Y-4.415
X14.895Y-5.165
X14.895Y-5.915
X14.895Y-6.665
X15.145Y-3.565
X15.145Y-4.315
X15.145Y-5.065
X15.145Y-5.815
X15.145Y-6.565
T3
X1.255Y-5.73
X2.195Y-5.73
X4.725Y-6.48
X5.665Y-6.48
X7.915Y-6.48
X8.855Y-6.48
X10.355Y-5.73
X11.295Y-5.73
T4
X1.255Y-6.33
X1.345Y-3.755
X1.345Y-6.755
X1.4354Y-4.5046
X1.5354Y-5.2546
X1.7254Y-6.0046
X2.095Y-3.755
X2.095Y-6.755
X2.195Y-6.33
X2.285Y-4.505
X2.475Y-5.255
X2.845Y-3.755
X2.855Y-6.005
X3.035Y-4.505
X3.0354Y-6.7546
X3.225Y-5.255
X3.595Y-3.755
X3.605Y-6.005
X3.785Y-4.505
X3.975Y-5.255
X3.975Y-6.755
X4.345Y-3.755
X4.355Y-6.005
X4.535Y-4.505
X4.725Y-5.255
X4.725Y-7.08
X5.095Y-3.755
X5.105Y-6.005
X5.1954Y-6.7546
X5.285Y-4.505
X5.465Y-5.255
X5.665Y-7.08
X5.845Y-3.755
X5.855Y-6.005
X6.035Y-4.505
X6.215Y-5.255
X6.415Y-6.755
X6.595Y-3.755
X6.605Y-6.005
X6.785Y-4.505
X6.965Y-5.255
X7.165Y-6.755
X7.345Y-3.755
X7.355Y-6.005
X7.535Y-4.505
X7.715Y-5.255
X7.915Y-7.08
X8.095Y-3.755
X8.105Y-6.005
X8.285Y-4.505
X8.3854Y-6.7546
X8.465Y-5.255
X8.845Y-3.755
X8.855Y-6.005
X8.855Y-7.08
X9.035Y-4.505
X9.215Y-5.255
X9.595Y-3.755
X9.605Y-6.005
X9.6954Y-6.7546
X9.785Y-4.505
X9.965Y-5.255
X10.345Y-3.755
X10.355Y-6.33
X10.535Y-4.505
X10.545Y-6.755
X10.8254Y-6.0046
X11.0054Y-5.2546
X11.1854Y-3.7546
X11.285Y-4.505
X11.295Y-6.33
X11.295Y-6.755
X12.795Y-3.765
X12.795Y-4.515
X12.795Y-5.265
X12.795Y-6.015
X12.795Y-6.765
X13.545Y-3.765
X13.545Y-4.515
X13.545Y-5.265
X13.545Y-6.015
X13.545Y-6.765
X14.295Y-3.765
X14.295Y-4.515
X14.295Y-5.265
X14.295Y-6.015
X14.295Y-6.765
X15.045Y-3.765
X15.045Y-4.515
X15.045Y-5.265
X15.045Y-6.015
X15.045Y-6.765
T2
G00X1.3745Y-3.936
M15
G01X1.3155Y-3.936
M16
G05
G00X1.3745Y-6.9375
M15
G01X1.3155Y-6.9375
M16
G05
G00X1.4645Y-4.6861
M15
G01X1.4055Y-4.6861
M16
G05
G00X1.5595Y-5.4261
M15
G01X1.5005Y-5.4261
M16
G05
G00X1.7595Y-6.22
M15
G01X1.7005Y-6.22
M16
G05
G00X2.1245Y-3.9361
M15
G01X2.0655Y-3.9361
M16
G05
G00X2.1245Y-6.9325
M15
G01X2.0655Y-6.9325
M16
G05
G00X2.3135Y-4.6861
M15
G01X2.2545Y-4.6861
M16
G05
G00X2.5045Y-5.4361
M15
G01X2.4455Y-5.4361
M16
G05
G00X2.8745Y-3.936
M15
G01X2.8155Y-3.936
M16
G05
G00X2.8845Y-6.1851
M15
G01X2.8255Y-6.1851
M16
G05
G00X3.0645Y-4.6851
M15
G01X3.0055Y-4.6851
M16
G05
G00X3.0695Y-6.9661
M15
G01X3.0105Y-6.9661
M16
G05
G00X3.2545Y-5.4361
M15
G01X3.1955Y-5.4361
M16
G05
G00X3.6245Y-3.937
M15
G01X3.5655Y-3.937
M16
G05
G00X3.6345Y-6.1851
M15
G01X3.5755Y-6.1851
M16
G05
G00X3.8145Y-4.6831
M15
G01X3.7555Y-4.6831
M16
G05
G00X4.0035Y-5.4351
M15
G01X3.9445Y-5.4351
M16
G05
G00X4.0045Y-6.9365
M15
G01X3.9455Y-6.9365
M16
G05
G00X4.3745Y-3.9361
M15
G01X4.3155Y-3.9361
M16
G05
G00X4.3845Y-6.1861
M15
G01X4.3255Y-6.1861
M16
G05
G00X4.5635Y-4.6835
M15
G01X4.5045Y-4.6835
M16
G05
G00X4.7545Y-5.4361
M15
G01X4.6955Y-5.4361
M16
G05
G00X5.1245Y-3.9351
M15
G01X5.0655Y-3.9351
M16
G05
G00X5.1345Y-6.1861
M15
G01X5.0755Y-6.1861
M16
G05
G00X5.2255Y-6.9555
M15
G01X5.1665Y-6.9555
M16
G05
G00X5.3145Y-4.6845
M15
G01X5.2555Y-4.6845
M16
G05
G00X5.4955Y-5.4361
M15
G01X5.4365Y-5.4361
M16
G05
G00X5.8755Y-3.9361
M15
G01X5.8165Y-3.9361
M16
G05
G00X5.8835Y-6.1861
M15
G01X5.8245Y-6.1861
M16
G05
G00X6.0645Y-4.6841
M15
G01X6.0055Y-4.6841
M16
G05
G00X6.2455Y-5.437
M15
G01X6.1865Y-5.437
M16
G05
G00X6.4455Y-6.9361
M15
G01X6.3865Y-6.9361
M16
G05
G00X6.6245Y-3.9361
M15
G01X6.5655Y-3.9361
M16
G05
G00X6.6345Y-6.1861
M15
G01X6.5755Y-6.1861
M16
G05
G00X6.8155Y-4.6845
M15
G01X6.7565Y-4.6845
M16
G05
G00X6.9945Y-5.4365
M15
G01X6.9355Y-5.4365
M16
G05
G00X7.1945Y-6.9345
M15
G01X7.1355Y-6.9345
M16
G05
G00X7.3735Y-3.9361
M15
G01X7.3145Y-3.9361
M16
G05
G00X7.3845Y-6.1851
M15
G01X7.3255Y-6.1851
M16
G05
G00X7.5655Y-4.6825
M15
G01X7.5065Y-4.6825
M16
G05
G00X7.7435Y-5.437
M15
G01X7.6845Y-5.437
M16
G05
G00X8.1245Y-3.9361
M15
G01X8.0655Y-3.9361
M16
G05
G00X8.1335Y-6.1861
M15
G01X8.0745Y-6.1861
M16
G05
G00X8.3145Y-4.6835
M15
G01X8.2555Y-4.6835
M16
G05
G00X8.4225Y-6.962
M15
G01X8.3635Y-6.962
M16
G05
G00X8.4955Y-5.4351
M15
G01X8.4365Y-5.4351
M16
G05
G00X8.8755Y-3.9351
M15
G01X8.8165Y-3.9351
M16
G05
G00X8.8845Y-6.1861
M15
G01X8.8255Y-6.1861
M16
G05
G00X9.0645Y-4.6855
M15
G01X9.0055Y-4.6855
M16
G05
G00X9.2445Y-5.4361
M15
G01X9.1855Y-5.4361
M16
G05
G00X9.6245Y-3.9361
M15
G01X9.5655Y-3.9361
M16
G05
G00X9.6345Y-6.1851
M15
G01X9.5755Y-6.1851
M16
G05
G00X9.7245Y-6.9585
M15
G01X9.6655Y-6.9585
M16
G05
G00X9.8145Y-4.6845
M15
G01X9.7555Y-4.6845
M16
G05
G00X9.9945Y-5.4355
M15
G01X9.9355Y-5.4355
M16
G05
G00X10.3735Y-3.937
M15
G01X10.3145Y-3.937
M16
G05
G00X10.5645Y-4.6855
M15
G01X10.5055Y-4.6855
M16
G05
G00X10.5745Y-6.9361
M15
G01X10.5155Y-6.9361
M16
G05
G00X10.8495Y-6.2111
M15
G01X10.7905Y-6.2111
M16
G05
G00X11.0365Y-5.4525
M15
G01X10.9775Y-5.4525
M16
G05
G00X11.2245Y-3.9641
M15
G01X11.1655Y-3.9641
M16
G05
G00X11.3145Y-4.6855
M15
G01X11.2555Y-4.6855
M16
G05
G00X11.3255Y-6.9365
M15
G01X11.2665Y-6.9365
M16
G05
G00X12.8225Y-6.1945
M15
G01X12.7635Y-6.1945
M16
G05
G00X12.8235Y-3.9461
M15
G01X12.7645Y-3.9461
M16
G05
G00X12.8245Y-4.6961
M15
G01X12.7655Y-4.6961
M16
G05
G00X12.8245Y-6.9445
M15
G01X12.7655Y-6.9445
M16
G05
G00X12.8265Y-5.4445
M15
G01X12.7675Y-5.4445
M16
G05
G00X13.5745Y-3.9461
M15
G01X13.5155Y-3.9461
M16
G05
G00X13.5745Y-6.1935
M15
G01X13.5155Y-6.1935
M16
G05
G00X13.5745Y-6.9445
M15
G01X13.5155Y-6.9445
M16
G05
G00X13.5755Y-4.6951
M15
G01X13.5165Y-4.6951
M16
G05
G00X13.5755Y-5.4465
M15
G01X13.5165Y-5.4465
M16
G05
G00X14.3235Y-3.947
M15
G01X14.2645Y-3.947
M16
G05
G00X14.3245Y-5.4455
M15
G01X14.2655Y-5.4455
M16
G05
G00X14.3245Y-6.1965
M15
G01X14.2655Y-6.1965
M16
G05
G00X14.3245Y-6.9435
M15
G01X14.2655Y-6.9435
M16
G05
G00X14.3255Y-4.6951
M15
G01X14.2665Y-4.6951
M16
G05
G00X15.0725Y-5.4451
M15
G01X15.0135Y-5.4451
M16
G05
G00X15.0725Y-6.1945
M15
G01X15.0135Y-6.1945
M16
G05
G00X15.0735Y-6.9435
M15
G01X15.0145Y-6.9435
M16
G05
G00X15.0755Y-3.9451
M15
G01X15.0165Y-3.9451
M16
G05
G00X15.0755Y-4.6951
M15
G01X15.0165Y-4.6951
M16
G05
T0
M30
