%TF.GenerationSoftware,KiCad,Pcbnew,(5.1.9)-1*%
%TF.CreationDate,2021-05-13T22:29:40-07:00*%
%TF.ProjectId,chgray-keyboard,63686772-6179-42d6-9b65-79626f617264,rev?*%
%TF.SameCoordinates,Original*%
%TF.FileFunction,Paste,Top*%
%TF.FilePolarity,Positive*%
%FSLAX46Y46*%
G04 Gerber Fmt 4.6, Leading zero omitted, Abs format (unit mm)*
G04 Created by KiCad (PCBNEW (5.1.9)-1) date 2021-05-13 22:29:40*
%MOMM*%
%LPD*%
G01*
G04 APERTURE LIST*
G04 APERTURE END LIST*
%TO.C,C87*%
G36*
G01*
X302155000Y-152901000D02*
X302155000Y-152561000D01*
G75*
G02*
X302295000Y-152421000I140000J0D01*
G01*
X302575000Y-152421000D01*
G75*
G02*
X302715000Y-152561000I0J-140000D01*
G01*
X302715000Y-152901000D01*
G75*
G02*
X302575000Y-153041000I-140000J0D01*
G01*
X302295000Y-153041000D01*
G75*
G02*
X302155000Y-152901000I0J140000D01*
G01*
G37*
G36*
G01*
X301195000Y-152901000D02*
X301195000Y-152561000D01*
G75*
G02*
X301335000Y-152421000I140000J0D01*
G01*
X301615000Y-152421000D01*
G75*
G02*
X301755000Y-152561000I0J-140000D01*
G01*
X301755000Y-152901000D01*
G75*
G02*
X301615000Y-153041000I-140000J0D01*
G01*
X301335000Y-153041000D01*
G75*
G02*
X301195000Y-152901000I0J140000D01*
G01*
G37*
%TD*%
%TO.C,C86*%
G36*
G01*
X298370000Y-153444000D02*
X298370000Y-153104000D01*
G75*
G02*
X298510000Y-152964000I140000J0D01*
G01*
X298790000Y-152964000D01*
G75*
G02*
X298930000Y-153104000I0J-140000D01*
G01*
X298930000Y-153444000D01*
G75*
G02*
X298790000Y-153584000I-140000J0D01*
G01*
X298510000Y-153584000D01*
G75*
G02*
X298370000Y-153444000I0J140000D01*
G01*
G37*
G36*
G01*
X297410000Y-153444000D02*
X297410000Y-153104000D01*
G75*
G02*
X297550000Y-152964000I140000J0D01*
G01*
X297830000Y-152964000D01*
G75*
G02*
X297970000Y-153104000I0J-140000D01*
G01*
X297970000Y-153444000D01*
G75*
G02*
X297830000Y-153584000I-140000J0D01*
G01*
X297550000Y-153584000D01*
G75*
G02*
X297410000Y-153444000I0J140000D01*
G01*
G37*
%TD*%
%TO.C,C85*%
G36*
G01*
X306295000Y-146198000D02*
X306295000Y-145858000D01*
G75*
G02*
X306435000Y-145718000I140000J0D01*
G01*
X306715000Y-145718000D01*
G75*
G02*
X306855000Y-145858000I0J-140000D01*
G01*
X306855000Y-146198000D01*
G75*
G02*
X306715000Y-146338000I-140000J0D01*
G01*
X306435000Y-146338000D01*
G75*
G02*
X306295000Y-146198000I0J140000D01*
G01*
G37*
G36*
G01*
X305335000Y-146198000D02*
X305335000Y-145858000D01*
G75*
G02*
X305475000Y-145718000I140000J0D01*
G01*
X305755000Y-145718000D01*
G75*
G02*
X305895000Y-145858000I0J-140000D01*
G01*
X305895000Y-146198000D01*
G75*
G02*
X305755000Y-146338000I-140000J0D01*
G01*
X305475000Y-146338000D01*
G75*
G02*
X305335000Y-146198000I0J140000D01*
G01*
G37*
%TD*%
%TO.C,C84*%
G36*
G01*
X302155000Y-149725000D02*
X302155000Y-149385000D01*
G75*
G02*
X302295000Y-149245000I140000J0D01*
G01*
X302575000Y-149245000D01*
G75*
G02*
X302715000Y-149385000I0J-140000D01*
G01*
X302715000Y-149725000D01*
G75*
G02*
X302575000Y-149865000I-140000J0D01*
G01*
X302295000Y-149865000D01*
G75*
G02*
X302155000Y-149725000I0J140000D01*
G01*
G37*
G36*
G01*
X301195000Y-149725000D02*
X301195000Y-149385000D01*
G75*
G02*
X301335000Y-149245000I140000J0D01*
G01*
X301615000Y-149245000D01*
G75*
G02*
X301755000Y-149385000I0J-140000D01*
G01*
X301755000Y-149725000D01*
G75*
G02*
X301615000Y-149865000I-140000J0D01*
G01*
X301335000Y-149865000D01*
G75*
G02*
X301195000Y-149725000I0J140000D01*
G01*
G37*
%TD*%
%TO.C,C83*%
G36*
G01*
X302155000Y-157665000D02*
X302155000Y-157325000D01*
G75*
G02*
X302295000Y-157185000I140000J0D01*
G01*
X302575000Y-157185000D01*
G75*
G02*
X302715000Y-157325000I0J-140000D01*
G01*
X302715000Y-157665000D01*
G75*
G02*
X302575000Y-157805000I-140000J0D01*
G01*
X302295000Y-157805000D01*
G75*
G02*
X302155000Y-157665000I0J140000D01*
G01*
G37*
G36*
G01*
X301195000Y-157665000D02*
X301195000Y-157325000D01*
G75*
G02*
X301335000Y-157185000I140000J0D01*
G01*
X301615000Y-157185000D01*
G75*
G02*
X301755000Y-157325000I0J-140000D01*
G01*
X301755000Y-157665000D01*
G75*
G02*
X301615000Y-157805000I-140000J0D01*
G01*
X301335000Y-157805000D01*
G75*
G02*
X301195000Y-157665000I0J140000D01*
G01*
G37*
%TD*%
%TO.C,C82*%
G36*
G01*
X298370000Y-159635000D02*
X298370000Y-159295000D01*
G75*
G02*
X298510000Y-159155000I140000J0D01*
G01*
X298790000Y-159155000D01*
G75*
G02*
X298930000Y-159295000I0J-140000D01*
G01*
X298930000Y-159635000D01*
G75*
G02*
X298790000Y-159775000I-140000J0D01*
G01*
X298510000Y-159775000D01*
G75*
G02*
X298370000Y-159635000I0J140000D01*
G01*
G37*
G36*
G01*
X297410000Y-159635000D02*
X297410000Y-159295000D01*
G75*
G02*
X297550000Y-159155000I140000J0D01*
G01*
X297830000Y-159155000D01*
G75*
G02*
X297970000Y-159295000I0J-140000D01*
G01*
X297970000Y-159635000D01*
G75*
G02*
X297830000Y-159775000I-140000J0D01*
G01*
X297550000Y-159775000D01*
G75*
G02*
X297410000Y-159635000I0J140000D01*
G01*
G37*
%TD*%
%TO.C,C81*%
G36*
G01*
X306295000Y-143116000D02*
X306295000Y-142776000D01*
G75*
G02*
X306435000Y-142636000I140000J0D01*
G01*
X306715000Y-142636000D01*
G75*
G02*
X306855000Y-142776000I0J-140000D01*
G01*
X306855000Y-143116000D01*
G75*
G02*
X306715000Y-143256000I-140000J0D01*
G01*
X306435000Y-143256000D01*
G75*
G02*
X306295000Y-143116000I0J140000D01*
G01*
G37*
G36*
G01*
X305335000Y-143116000D02*
X305335000Y-142776000D01*
G75*
G02*
X305475000Y-142636000I140000J0D01*
G01*
X305755000Y-142636000D01*
G75*
G02*
X305895000Y-142776000I0J-140000D01*
G01*
X305895000Y-143116000D01*
G75*
G02*
X305755000Y-143256000I-140000J0D01*
G01*
X305475000Y-143256000D01*
G75*
G02*
X305335000Y-143116000I0J140000D01*
G01*
G37*
%TD*%
%TO.C,C80*%
G36*
G01*
X298370000Y-151896000D02*
X298370000Y-151556000D01*
G75*
G02*
X298510000Y-151416000I140000J0D01*
G01*
X298790000Y-151416000D01*
G75*
G02*
X298930000Y-151556000I0J-140000D01*
G01*
X298930000Y-151896000D01*
G75*
G02*
X298790000Y-152036000I-140000J0D01*
G01*
X298510000Y-152036000D01*
G75*
G02*
X298370000Y-151896000I0J140000D01*
G01*
G37*
G36*
G01*
X297410000Y-151896000D02*
X297410000Y-151556000D01*
G75*
G02*
X297550000Y-151416000I140000J0D01*
G01*
X297830000Y-151416000D01*
G75*
G02*
X297970000Y-151556000I0J-140000D01*
G01*
X297970000Y-151896000D01*
G75*
G02*
X297830000Y-152036000I-140000J0D01*
G01*
X297550000Y-152036000D01*
G75*
G02*
X297410000Y-151896000I0J140000D01*
G01*
G37*
%TD*%
%TO.C,C79*%
G36*
G01*
X306295000Y-149280000D02*
X306295000Y-148940000D01*
G75*
G02*
X306435000Y-148800000I140000J0D01*
G01*
X306715000Y-148800000D01*
G75*
G02*
X306855000Y-148940000I0J-140000D01*
G01*
X306855000Y-149280000D01*
G75*
G02*
X306715000Y-149420000I-140000J0D01*
G01*
X306435000Y-149420000D01*
G75*
G02*
X306295000Y-149280000I0J140000D01*
G01*
G37*
G36*
G01*
X305335000Y-149280000D02*
X305335000Y-148940000D01*
G75*
G02*
X305475000Y-148800000I140000J0D01*
G01*
X305755000Y-148800000D01*
G75*
G02*
X305895000Y-148940000I0J-140000D01*
G01*
X305895000Y-149280000D01*
G75*
G02*
X305755000Y-149420000I-140000J0D01*
G01*
X305475000Y-149420000D01*
G75*
G02*
X305335000Y-149280000I0J140000D01*
G01*
G37*
%TD*%
%TO.C,C78*%
G36*
G01*
X306295000Y-144657000D02*
X306295000Y-144317000D01*
G75*
G02*
X306435000Y-144177000I140000J0D01*
G01*
X306715000Y-144177000D01*
G75*
G02*
X306855000Y-144317000I0J-140000D01*
G01*
X306855000Y-144657000D01*
G75*
G02*
X306715000Y-144797000I-140000J0D01*
G01*
X306435000Y-144797000D01*
G75*
G02*
X306295000Y-144657000I0J140000D01*
G01*
G37*
G36*
G01*
X305335000Y-144657000D02*
X305335000Y-144317000D01*
G75*
G02*
X305475000Y-144177000I140000J0D01*
G01*
X305755000Y-144177000D01*
G75*
G02*
X305895000Y-144317000I0J-140000D01*
G01*
X305895000Y-144657000D01*
G75*
G02*
X305755000Y-144797000I-140000J0D01*
G01*
X305475000Y-144797000D01*
G75*
G02*
X305335000Y-144657000I0J140000D01*
G01*
G37*
%TD*%
%TO.C,C77*%
G36*
G01*
X302155000Y-137021000D02*
X302155000Y-136681000D01*
G75*
G02*
X302295000Y-136541000I140000J0D01*
G01*
X302575000Y-136541000D01*
G75*
G02*
X302715000Y-136681000I0J-140000D01*
G01*
X302715000Y-137021000D01*
G75*
G02*
X302575000Y-137161000I-140000J0D01*
G01*
X302295000Y-137161000D01*
G75*
G02*
X302155000Y-137021000I0J140000D01*
G01*
G37*
G36*
G01*
X301195000Y-137021000D02*
X301195000Y-136681000D01*
G75*
G02*
X301335000Y-136541000I140000J0D01*
G01*
X301615000Y-136541000D01*
G75*
G02*
X301755000Y-136681000I0J-140000D01*
G01*
X301755000Y-137021000D01*
G75*
G02*
X301615000Y-137161000I-140000J0D01*
G01*
X301335000Y-137161000D01*
G75*
G02*
X301195000Y-137021000I0J140000D01*
G01*
G37*
%TD*%
%TO.C,C76*%
G36*
G01*
X298370000Y-148800000D02*
X298370000Y-148460000D01*
G75*
G02*
X298510000Y-148320000I140000J0D01*
G01*
X298790000Y-148320000D01*
G75*
G02*
X298930000Y-148460000I0J-140000D01*
G01*
X298930000Y-148800000D01*
G75*
G02*
X298790000Y-148940000I-140000J0D01*
G01*
X298510000Y-148940000D01*
G75*
G02*
X298370000Y-148800000I0J140000D01*
G01*
G37*
G36*
G01*
X297410000Y-148800000D02*
X297410000Y-148460000D01*
G75*
G02*
X297550000Y-148320000I140000J0D01*
G01*
X297830000Y-148320000D01*
G75*
G02*
X297970000Y-148460000I0J-140000D01*
G01*
X297970000Y-148800000D01*
G75*
G02*
X297830000Y-148940000I-140000J0D01*
G01*
X297550000Y-148940000D01*
G75*
G02*
X297410000Y-148800000I0J140000D01*
G01*
G37*
%TD*%
%TO.C,C75*%
G36*
G01*
X298370000Y-158087000D02*
X298370000Y-157747000D01*
G75*
G02*
X298510000Y-157607000I140000J0D01*
G01*
X298790000Y-157607000D01*
G75*
G02*
X298930000Y-157747000I0J-140000D01*
G01*
X298930000Y-158087000D01*
G75*
G02*
X298790000Y-158227000I-140000J0D01*
G01*
X298510000Y-158227000D01*
G75*
G02*
X298370000Y-158087000I0J140000D01*
G01*
G37*
G36*
G01*
X297410000Y-158087000D02*
X297410000Y-157747000D01*
G75*
G02*
X297550000Y-157607000I140000J0D01*
G01*
X297830000Y-157607000D01*
G75*
G02*
X297970000Y-157747000I0J-140000D01*
G01*
X297970000Y-158087000D01*
G75*
G02*
X297830000Y-158227000I-140000J0D01*
G01*
X297550000Y-158227000D01*
G75*
G02*
X297410000Y-158087000I0J140000D01*
G01*
G37*
%TD*%
%TO.C,C74*%
G36*
G01*
X306295000Y-140033000D02*
X306295000Y-139693000D01*
G75*
G02*
X306435000Y-139553000I140000J0D01*
G01*
X306715000Y-139553000D01*
G75*
G02*
X306855000Y-139693000I0J-140000D01*
G01*
X306855000Y-140033000D01*
G75*
G02*
X306715000Y-140173000I-140000J0D01*
G01*
X306435000Y-140173000D01*
G75*
G02*
X306295000Y-140033000I0J140000D01*
G01*
G37*
G36*
G01*
X305335000Y-140033000D02*
X305335000Y-139693000D01*
G75*
G02*
X305475000Y-139553000I140000J0D01*
G01*
X305755000Y-139553000D01*
G75*
G02*
X305895000Y-139693000I0J-140000D01*
G01*
X305895000Y-140033000D01*
G75*
G02*
X305755000Y-140173000I-140000J0D01*
G01*
X305475000Y-140173000D01*
G75*
G02*
X305335000Y-140033000I0J140000D01*
G01*
G37*
%TD*%
%TO.C,C73*%
G36*
G01*
X302155000Y-143373000D02*
X302155000Y-143033000D01*
G75*
G02*
X302295000Y-142893000I140000J0D01*
G01*
X302575000Y-142893000D01*
G75*
G02*
X302715000Y-143033000I0J-140000D01*
G01*
X302715000Y-143373000D01*
G75*
G02*
X302575000Y-143513000I-140000J0D01*
G01*
X302295000Y-143513000D01*
G75*
G02*
X302155000Y-143373000I0J140000D01*
G01*
G37*
G36*
G01*
X301195000Y-143373000D02*
X301195000Y-143033000D01*
G75*
G02*
X301335000Y-142893000I140000J0D01*
G01*
X301615000Y-142893000D01*
G75*
G02*
X301755000Y-143033000I0J-140000D01*
G01*
X301755000Y-143373000D01*
G75*
G02*
X301615000Y-143513000I-140000J0D01*
G01*
X301335000Y-143513000D01*
G75*
G02*
X301195000Y-143373000I0J140000D01*
G01*
G37*
%TD*%
%TO.C,C72*%
G36*
G01*
X306295000Y-147739000D02*
X306295000Y-147399000D01*
G75*
G02*
X306435000Y-147259000I140000J0D01*
G01*
X306715000Y-147259000D01*
G75*
G02*
X306855000Y-147399000I0J-140000D01*
G01*
X306855000Y-147739000D01*
G75*
G02*
X306715000Y-147879000I-140000J0D01*
G01*
X306435000Y-147879000D01*
G75*
G02*
X306295000Y-147739000I0J140000D01*
G01*
G37*
G36*
G01*
X305335000Y-147739000D02*
X305335000Y-147399000D01*
G75*
G02*
X305475000Y-147259000I140000J0D01*
G01*
X305755000Y-147259000D01*
G75*
G02*
X305895000Y-147399000I0J-140000D01*
G01*
X305895000Y-147739000D01*
G75*
G02*
X305755000Y-147879000I-140000J0D01*
G01*
X305475000Y-147879000D01*
G75*
G02*
X305335000Y-147739000I0J140000D01*
G01*
G37*
%TD*%
%TO.C,C71*%
G36*
G01*
X302155000Y-154489000D02*
X302155000Y-154149000D01*
G75*
G02*
X302295000Y-154009000I140000J0D01*
G01*
X302575000Y-154009000D01*
G75*
G02*
X302715000Y-154149000I0J-140000D01*
G01*
X302715000Y-154489000D01*
G75*
G02*
X302575000Y-154629000I-140000J0D01*
G01*
X302295000Y-154629000D01*
G75*
G02*
X302155000Y-154489000I0J140000D01*
G01*
G37*
G36*
G01*
X301195000Y-154489000D02*
X301195000Y-154149000D01*
G75*
G02*
X301335000Y-154009000I140000J0D01*
G01*
X301615000Y-154009000D01*
G75*
G02*
X301755000Y-154149000I0J-140000D01*
G01*
X301755000Y-154489000D01*
G75*
G02*
X301615000Y-154629000I-140000J0D01*
G01*
X301335000Y-154629000D01*
G75*
G02*
X301195000Y-154489000I0J140000D01*
G01*
G37*
%TD*%
%TO.C,C70*%
G36*
G01*
X302155000Y-151313000D02*
X302155000Y-150973000D01*
G75*
G02*
X302295000Y-150833000I140000J0D01*
G01*
X302575000Y-150833000D01*
G75*
G02*
X302715000Y-150973000I0J-140000D01*
G01*
X302715000Y-151313000D01*
G75*
G02*
X302575000Y-151453000I-140000J0D01*
G01*
X302295000Y-151453000D01*
G75*
G02*
X302155000Y-151313000I0J140000D01*
G01*
G37*
G36*
G01*
X301195000Y-151313000D02*
X301195000Y-150973000D01*
G75*
G02*
X301335000Y-150833000I140000J0D01*
G01*
X301615000Y-150833000D01*
G75*
G02*
X301755000Y-150973000I0J-140000D01*
G01*
X301755000Y-151313000D01*
G75*
G02*
X301615000Y-151453000I-140000J0D01*
G01*
X301335000Y-151453000D01*
G75*
G02*
X301195000Y-151313000I0J140000D01*
G01*
G37*
%TD*%
%TO.C,C69*%
G36*
G01*
X298370000Y-145704000D02*
X298370000Y-145364000D01*
G75*
G02*
X298510000Y-145224000I140000J0D01*
G01*
X298790000Y-145224000D01*
G75*
G02*
X298930000Y-145364000I0J-140000D01*
G01*
X298930000Y-145704000D01*
G75*
G02*
X298790000Y-145844000I-140000J0D01*
G01*
X298510000Y-145844000D01*
G75*
G02*
X298370000Y-145704000I0J140000D01*
G01*
G37*
G36*
G01*
X297410000Y-145704000D02*
X297410000Y-145364000D01*
G75*
G02*
X297550000Y-145224000I140000J0D01*
G01*
X297830000Y-145224000D01*
G75*
G02*
X297970000Y-145364000I0J-140000D01*
G01*
X297970000Y-145704000D01*
G75*
G02*
X297830000Y-145844000I-140000J0D01*
G01*
X297550000Y-145844000D01*
G75*
G02*
X297410000Y-145704000I0J140000D01*
G01*
G37*
%TD*%
%TO.C,C68*%
G36*
G01*
X298370000Y-156539000D02*
X298370000Y-156199000D01*
G75*
G02*
X298510000Y-156059000I140000J0D01*
G01*
X298790000Y-156059000D01*
G75*
G02*
X298930000Y-156199000I0J-140000D01*
G01*
X298930000Y-156539000D01*
G75*
G02*
X298790000Y-156679000I-140000J0D01*
G01*
X298510000Y-156679000D01*
G75*
G02*
X298370000Y-156539000I0J140000D01*
G01*
G37*
G36*
G01*
X297410000Y-156539000D02*
X297410000Y-156199000D01*
G75*
G02*
X297550000Y-156059000I140000J0D01*
G01*
X297830000Y-156059000D01*
G75*
G02*
X297970000Y-156199000I0J-140000D01*
G01*
X297970000Y-156539000D01*
G75*
G02*
X297830000Y-156679000I-140000J0D01*
G01*
X297550000Y-156679000D01*
G75*
G02*
X297410000Y-156539000I0J140000D01*
G01*
G37*
%TD*%
%TO.C,C67*%
G36*
G01*
X298370000Y-139513000D02*
X298370000Y-139173000D01*
G75*
G02*
X298510000Y-139033000I140000J0D01*
G01*
X298790000Y-139033000D01*
G75*
G02*
X298930000Y-139173000I0J-140000D01*
G01*
X298930000Y-139513000D01*
G75*
G02*
X298790000Y-139653000I-140000J0D01*
G01*
X298510000Y-139653000D01*
G75*
G02*
X298370000Y-139513000I0J140000D01*
G01*
G37*
G36*
G01*
X297410000Y-139513000D02*
X297410000Y-139173000D01*
G75*
G02*
X297550000Y-139033000I140000J0D01*
G01*
X297830000Y-139033000D01*
G75*
G02*
X297970000Y-139173000I0J-140000D01*
G01*
X297970000Y-139513000D01*
G75*
G02*
X297830000Y-139653000I-140000J0D01*
G01*
X297550000Y-139653000D01*
G75*
G02*
X297410000Y-139513000I0J140000D01*
G01*
G37*
%TD*%
%TO.C,C66*%
G36*
G01*
X306295000Y-136951000D02*
X306295000Y-136611000D01*
G75*
G02*
X306435000Y-136471000I140000J0D01*
G01*
X306715000Y-136471000D01*
G75*
G02*
X306855000Y-136611000I0J-140000D01*
G01*
X306855000Y-136951000D01*
G75*
G02*
X306715000Y-137091000I-140000J0D01*
G01*
X306435000Y-137091000D01*
G75*
G02*
X306295000Y-136951000I0J140000D01*
G01*
G37*
G36*
G01*
X305335000Y-136951000D02*
X305335000Y-136611000D01*
G75*
G02*
X305475000Y-136471000I140000J0D01*
G01*
X305755000Y-136471000D01*
G75*
G02*
X305895000Y-136611000I0J-140000D01*
G01*
X305895000Y-136951000D01*
G75*
G02*
X305755000Y-137091000I-140000J0D01*
G01*
X305475000Y-137091000D01*
G75*
G02*
X305335000Y-136951000I0J140000D01*
G01*
G37*
%TD*%
%TO.C,C65*%
G36*
G01*
X302155000Y-140197000D02*
X302155000Y-139857000D01*
G75*
G02*
X302295000Y-139717000I140000J0D01*
G01*
X302575000Y-139717000D01*
G75*
G02*
X302715000Y-139857000I0J-140000D01*
G01*
X302715000Y-140197000D01*
G75*
G02*
X302575000Y-140337000I-140000J0D01*
G01*
X302295000Y-140337000D01*
G75*
G02*
X302155000Y-140197000I0J140000D01*
G01*
G37*
G36*
G01*
X301195000Y-140197000D02*
X301195000Y-139857000D01*
G75*
G02*
X301335000Y-139717000I140000J0D01*
G01*
X301615000Y-139717000D01*
G75*
G02*
X301755000Y-139857000I0J-140000D01*
G01*
X301755000Y-140197000D01*
G75*
G02*
X301615000Y-140337000I-140000J0D01*
G01*
X301335000Y-140337000D01*
G75*
G02*
X301195000Y-140197000I0J140000D01*
G01*
G37*
%TD*%
%TO.C,C64*%
G36*
G01*
X298370000Y-142609000D02*
X298370000Y-142269000D01*
G75*
G02*
X298510000Y-142129000I140000J0D01*
G01*
X298790000Y-142129000D01*
G75*
G02*
X298930000Y-142269000I0J-140000D01*
G01*
X298930000Y-142609000D01*
G75*
G02*
X298790000Y-142749000I-140000J0D01*
G01*
X298510000Y-142749000D01*
G75*
G02*
X298370000Y-142609000I0J140000D01*
G01*
G37*
G36*
G01*
X297410000Y-142609000D02*
X297410000Y-142269000D01*
G75*
G02*
X297550000Y-142129000I140000J0D01*
G01*
X297830000Y-142129000D01*
G75*
G02*
X297970000Y-142269000I0J-140000D01*
G01*
X297970000Y-142609000D01*
G75*
G02*
X297830000Y-142749000I-140000J0D01*
G01*
X297550000Y-142749000D01*
G75*
G02*
X297410000Y-142609000I0J140000D01*
G01*
G37*
%TD*%
%TO.C,C63*%
G36*
G01*
X302155000Y-148137000D02*
X302155000Y-147797000D01*
G75*
G02*
X302295000Y-147657000I140000J0D01*
G01*
X302575000Y-147657000D01*
G75*
G02*
X302715000Y-147797000I0J-140000D01*
G01*
X302715000Y-148137000D01*
G75*
G02*
X302575000Y-148277000I-140000J0D01*
G01*
X302295000Y-148277000D01*
G75*
G02*
X302155000Y-148137000I0J140000D01*
G01*
G37*
G36*
G01*
X301195000Y-148137000D02*
X301195000Y-147797000D01*
G75*
G02*
X301335000Y-147657000I140000J0D01*
G01*
X301615000Y-147657000D01*
G75*
G02*
X301755000Y-147797000I0J-140000D01*
G01*
X301755000Y-148137000D01*
G75*
G02*
X301615000Y-148277000I-140000J0D01*
G01*
X301335000Y-148277000D01*
G75*
G02*
X301195000Y-148137000I0J140000D01*
G01*
G37*
%TD*%
%TO.C,C62*%
G36*
G01*
X298370000Y-154991000D02*
X298370000Y-154651000D01*
G75*
G02*
X298510000Y-154511000I140000J0D01*
G01*
X298790000Y-154511000D01*
G75*
G02*
X298930000Y-154651000I0J-140000D01*
G01*
X298930000Y-154991000D01*
G75*
G02*
X298790000Y-155131000I-140000J0D01*
G01*
X298510000Y-155131000D01*
G75*
G02*
X298370000Y-154991000I0J140000D01*
G01*
G37*
G36*
G01*
X297410000Y-154991000D02*
X297410000Y-154651000D01*
G75*
G02*
X297550000Y-154511000I140000J0D01*
G01*
X297830000Y-154511000D01*
G75*
G02*
X297970000Y-154651000I0J-140000D01*
G01*
X297970000Y-154991000D01*
G75*
G02*
X297830000Y-155131000I-140000J0D01*
G01*
X297550000Y-155131000D01*
G75*
G02*
X297410000Y-154991000I0J140000D01*
G01*
G37*
%TD*%
%TO.C,C61*%
G36*
G01*
X298370000Y-150348000D02*
X298370000Y-150008000D01*
G75*
G02*
X298510000Y-149868000I140000J0D01*
G01*
X298790000Y-149868000D01*
G75*
G02*
X298930000Y-150008000I0J-140000D01*
G01*
X298930000Y-150348000D01*
G75*
G02*
X298790000Y-150488000I-140000J0D01*
G01*
X298510000Y-150488000D01*
G75*
G02*
X298370000Y-150348000I0J140000D01*
G01*
G37*
G36*
G01*
X297410000Y-150348000D02*
X297410000Y-150008000D01*
G75*
G02*
X297550000Y-149868000I140000J0D01*
G01*
X297830000Y-149868000D01*
G75*
G02*
X297970000Y-150008000I0J-140000D01*
G01*
X297970000Y-150348000D01*
G75*
G02*
X297830000Y-150488000I-140000J0D01*
G01*
X297550000Y-150488000D01*
G75*
G02*
X297410000Y-150348000I0J140000D01*
G01*
G37*
%TD*%
%TO.C,C60*%
G36*
G01*
X306295000Y-141575000D02*
X306295000Y-141235000D01*
G75*
G02*
X306435000Y-141095000I140000J0D01*
G01*
X306715000Y-141095000D01*
G75*
G02*
X306855000Y-141235000I0J-140000D01*
G01*
X306855000Y-141575000D01*
G75*
G02*
X306715000Y-141715000I-140000J0D01*
G01*
X306435000Y-141715000D01*
G75*
G02*
X306295000Y-141575000I0J140000D01*
G01*
G37*
G36*
G01*
X305335000Y-141575000D02*
X305335000Y-141235000D01*
G75*
G02*
X305475000Y-141095000I140000J0D01*
G01*
X305755000Y-141095000D01*
G75*
G02*
X305895000Y-141235000I0J-140000D01*
G01*
X305895000Y-141575000D01*
G75*
G02*
X305755000Y-141715000I-140000J0D01*
G01*
X305475000Y-141715000D01*
G75*
G02*
X305335000Y-141575000I0J140000D01*
G01*
G37*
%TD*%
%TO.C,C59*%
G36*
G01*
X306295000Y-133869000D02*
X306295000Y-133529000D01*
G75*
G02*
X306435000Y-133389000I140000J0D01*
G01*
X306715000Y-133389000D01*
G75*
G02*
X306855000Y-133529000I0J-140000D01*
G01*
X306855000Y-133869000D01*
G75*
G02*
X306715000Y-134009000I-140000J0D01*
G01*
X306435000Y-134009000D01*
G75*
G02*
X306295000Y-133869000I0J140000D01*
G01*
G37*
G36*
G01*
X305335000Y-133869000D02*
X305335000Y-133529000D01*
G75*
G02*
X305475000Y-133389000I140000J0D01*
G01*
X305755000Y-133389000D01*
G75*
G02*
X305895000Y-133529000I0J-140000D01*
G01*
X305895000Y-133869000D01*
G75*
G02*
X305755000Y-134009000I-140000J0D01*
G01*
X305475000Y-134009000D01*
G75*
G02*
X305335000Y-133869000I0J140000D01*
G01*
G37*
%TD*%
%TO.C,C58*%
G36*
G01*
X302155000Y-144961000D02*
X302155000Y-144621000D01*
G75*
G02*
X302295000Y-144481000I140000J0D01*
G01*
X302575000Y-144481000D01*
G75*
G02*
X302715000Y-144621000I0J-140000D01*
G01*
X302715000Y-144961000D01*
G75*
G02*
X302575000Y-145101000I-140000J0D01*
G01*
X302295000Y-145101000D01*
G75*
G02*
X302155000Y-144961000I0J140000D01*
G01*
G37*
G36*
G01*
X301195000Y-144961000D02*
X301195000Y-144621000D01*
G75*
G02*
X301335000Y-144481000I140000J0D01*
G01*
X301615000Y-144481000D01*
G75*
G02*
X301755000Y-144621000I0J-140000D01*
G01*
X301755000Y-144961000D01*
G75*
G02*
X301615000Y-145101000I-140000J0D01*
G01*
X301335000Y-145101000D01*
G75*
G02*
X301195000Y-144961000I0J140000D01*
G01*
G37*
%TD*%
%TO.C,C57*%
G36*
G01*
X302155000Y-138609000D02*
X302155000Y-138269000D01*
G75*
G02*
X302295000Y-138129000I140000J0D01*
G01*
X302575000Y-138129000D01*
G75*
G02*
X302715000Y-138269000I0J-140000D01*
G01*
X302715000Y-138609000D01*
G75*
G02*
X302575000Y-138749000I-140000J0D01*
G01*
X302295000Y-138749000D01*
G75*
G02*
X302155000Y-138609000I0J140000D01*
G01*
G37*
G36*
G01*
X301195000Y-138609000D02*
X301195000Y-138269000D01*
G75*
G02*
X301335000Y-138129000I140000J0D01*
G01*
X301615000Y-138129000D01*
G75*
G02*
X301755000Y-138269000I0J-140000D01*
G01*
X301755000Y-138609000D01*
G75*
G02*
X301615000Y-138749000I-140000J0D01*
G01*
X301335000Y-138749000D01*
G75*
G02*
X301195000Y-138609000I0J140000D01*
G01*
G37*
%TD*%
%TO.C,C56*%
G36*
G01*
X302155000Y-146549000D02*
X302155000Y-146209000D01*
G75*
G02*
X302295000Y-146069000I140000J0D01*
G01*
X302575000Y-146069000D01*
G75*
G02*
X302715000Y-146209000I0J-140000D01*
G01*
X302715000Y-146549000D01*
G75*
G02*
X302575000Y-146689000I-140000J0D01*
G01*
X302295000Y-146689000D01*
G75*
G02*
X302155000Y-146549000I0J140000D01*
G01*
G37*
G36*
G01*
X301195000Y-146549000D02*
X301195000Y-146209000D01*
G75*
G02*
X301335000Y-146069000I140000J0D01*
G01*
X301615000Y-146069000D01*
G75*
G02*
X301755000Y-146209000I0J-140000D01*
G01*
X301755000Y-146549000D01*
G75*
G02*
X301615000Y-146689000I-140000J0D01*
G01*
X301335000Y-146689000D01*
G75*
G02*
X301195000Y-146549000I0J140000D01*
G01*
G37*
%TD*%
%TO.C,C55*%
G36*
G01*
X306295000Y-138492000D02*
X306295000Y-138152000D01*
G75*
G02*
X306435000Y-138012000I140000J0D01*
G01*
X306715000Y-138012000D01*
G75*
G02*
X306855000Y-138152000I0J-140000D01*
G01*
X306855000Y-138492000D01*
G75*
G02*
X306715000Y-138632000I-140000J0D01*
G01*
X306435000Y-138632000D01*
G75*
G02*
X306295000Y-138492000I0J140000D01*
G01*
G37*
G36*
G01*
X305335000Y-138492000D02*
X305335000Y-138152000D01*
G75*
G02*
X305475000Y-138012000I140000J0D01*
G01*
X305755000Y-138012000D01*
G75*
G02*
X305895000Y-138152000I0J-140000D01*
G01*
X305895000Y-138492000D01*
G75*
G02*
X305755000Y-138632000I-140000J0D01*
G01*
X305475000Y-138632000D01*
G75*
G02*
X305335000Y-138492000I0J140000D01*
G01*
G37*
%TD*%
%TO.C,C54*%
G36*
G01*
X298370000Y-147252000D02*
X298370000Y-146912000D01*
G75*
G02*
X298510000Y-146772000I140000J0D01*
G01*
X298790000Y-146772000D01*
G75*
G02*
X298930000Y-146912000I0J-140000D01*
G01*
X298930000Y-147252000D01*
G75*
G02*
X298790000Y-147392000I-140000J0D01*
G01*
X298510000Y-147392000D01*
G75*
G02*
X298370000Y-147252000I0J140000D01*
G01*
G37*
G36*
G01*
X297410000Y-147252000D02*
X297410000Y-146912000D01*
G75*
G02*
X297550000Y-146772000I140000J0D01*
G01*
X297830000Y-146772000D01*
G75*
G02*
X297970000Y-146912000I0J-140000D01*
G01*
X297970000Y-147252000D01*
G75*
G02*
X297830000Y-147392000I-140000J0D01*
G01*
X297550000Y-147392000D01*
G75*
G02*
X297410000Y-147252000I0J140000D01*
G01*
G37*
%TD*%
%TO.C,C53*%
G36*
G01*
X306295000Y-130787000D02*
X306295000Y-130447000D01*
G75*
G02*
X306435000Y-130307000I140000J0D01*
G01*
X306715000Y-130307000D01*
G75*
G02*
X306855000Y-130447000I0J-140000D01*
G01*
X306855000Y-130787000D01*
G75*
G02*
X306715000Y-130927000I-140000J0D01*
G01*
X306435000Y-130927000D01*
G75*
G02*
X306295000Y-130787000I0J140000D01*
G01*
G37*
G36*
G01*
X305335000Y-130787000D02*
X305335000Y-130447000D01*
G75*
G02*
X305475000Y-130307000I140000J0D01*
G01*
X305755000Y-130307000D01*
G75*
G02*
X305895000Y-130447000I0J-140000D01*
G01*
X305895000Y-130787000D01*
G75*
G02*
X305755000Y-130927000I-140000J0D01*
G01*
X305475000Y-130927000D01*
G75*
G02*
X305335000Y-130787000I0J140000D01*
G01*
G37*
%TD*%
%TO.C,C52*%
G36*
G01*
X306295000Y-126164000D02*
X306295000Y-125824000D01*
G75*
G02*
X306435000Y-125684000I140000J0D01*
G01*
X306715000Y-125684000D01*
G75*
G02*
X306855000Y-125824000I0J-140000D01*
G01*
X306855000Y-126164000D01*
G75*
G02*
X306715000Y-126304000I-140000J0D01*
G01*
X306435000Y-126304000D01*
G75*
G02*
X306295000Y-126164000I0J140000D01*
G01*
G37*
G36*
G01*
X305335000Y-126164000D02*
X305335000Y-125824000D01*
G75*
G02*
X305475000Y-125684000I140000J0D01*
G01*
X305755000Y-125684000D01*
G75*
G02*
X305895000Y-125824000I0J-140000D01*
G01*
X305895000Y-126164000D01*
G75*
G02*
X305755000Y-126304000I-140000J0D01*
G01*
X305475000Y-126304000D01*
G75*
G02*
X305335000Y-126164000I0J140000D01*
G01*
G37*
%TD*%
%TO.C,C51*%
G36*
G01*
X302155000Y-141785000D02*
X302155000Y-141445000D01*
G75*
G02*
X302295000Y-141305000I140000J0D01*
G01*
X302575000Y-141305000D01*
G75*
G02*
X302715000Y-141445000I0J-140000D01*
G01*
X302715000Y-141785000D01*
G75*
G02*
X302575000Y-141925000I-140000J0D01*
G01*
X302295000Y-141925000D01*
G75*
G02*
X302155000Y-141785000I0J140000D01*
G01*
G37*
G36*
G01*
X301195000Y-141785000D02*
X301195000Y-141445000D01*
G75*
G02*
X301335000Y-141305000I140000J0D01*
G01*
X301615000Y-141305000D01*
G75*
G02*
X301755000Y-141445000I0J-140000D01*
G01*
X301755000Y-141785000D01*
G75*
G02*
X301615000Y-141925000I-140000J0D01*
G01*
X301335000Y-141925000D01*
G75*
G02*
X301195000Y-141785000I0J140000D01*
G01*
G37*
%TD*%
%TO.C,C50*%
G36*
G01*
X302155000Y-133844000D02*
X302155000Y-133504000D01*
G75*
G02*
X302295000Y-133364000I140000J0D01*
G01*
X302575000Y-133364000D01*
G75*
G02*
X302715000Y-133504000I0J-140000D01*
G01*
X302715000Y-133844000D01*
G75*
G02*
X302575000Y-133984000I-140000J0D01*
G01*
X302295000Y-133984000D01*
G75*
G02*
X302155000Y-133844000I0J140000D01*
G01*
G37*
G36*
G01*
X301195000Y-133844000D02*
X301195000Y-133504000D01*
G75*
G02*
X301335000Y-133364000I140000J0D01*
G01*
X301615000Y-133364000D01*
G75*
G02*
X301755000Y-133504000I0J-140000D01*
G01*
X301755000Y-133844000D01*
G75*
G02*
X301615000Y-133984000I-140000J0D01*
G01*
X301335000Y-133984000D01*
G75*
G02*
X301195000Y-133844000I0J140000D01*
G01*
G37*
%TD*%
%TO.C,C49*%
G36*
G01*
X298370000Y-144157000D02*
X298370000Y-143817000D01*
G75*
G02*
X298510000Y-143677000I140000J0D01*
G01*
X298790000Y-143677000D01*
G75*
G02*
X298930000Y-143817000I0J-140000D01*
G01*
X298930000Y-144157000D01*
G75*
G02*
X298790000Y-144297000I-140000J0D01*
G01*
X298510000Y-144297000D01*
G75*
G02*
X298370000Y-144157000I0J140000D01*
G01*
G37*
G36*
G01*
X297410000Y-144157000D02*
X297410000Y-143817000D01*
G75*
G02*
X297550000Y-143677000I140000J0D01*
G01*
X297830000Y-143677000D01*
G75*
G02*
X297970000Y-143817000I0J-140000D01*
G01*
X297970000Y-144157000D01*
G75*
G02*
X297830000Y-144297000I-140000J0D01*
G01*
X297550000Y-144297000D01*
G75*
G02*
X297410000Y-144157000I0J140000D01*
G01*
G37*
%TD*%
%TO.C,C48*%
G36*
G01*
X298370000Y-136417000D02*
X298370000Y-136077000D01*
G75*
G02*
X298510000Y-135937000I140000J0D01*
G01*
X298790000Y-135937000D01*
G75*
G02*
X298930000Y-136077000I0J-140000D01*
G01*
X298930000Y-136417000D01*
G75*
G02*
X298790000Y-136557000I-140000J0D01*
G01*
X298510000Y-136557000D01*
G75*
G02*
X298370000Y-136417000I0J140000D01*
G01*
G37*
G36*
G01*
X297410000Y-136417000D02*
X297410000Y-136077000D01*
G75*
G02*
X297550000Y-135937000I140000J0D01*
G01*
X297830000Y-135937000D01*
G75*
G02*
X297970000Y-136077000I0J-140000D01*
G01*
X297970000Y-136417000D01*
G75*
G02*
X297830000Y-136557000I-140000J0D01*
G01*
X297550000Y-136557000D01*
G75*
G02*
X297410000Y-136417000I0J140000D01*
G01*
G37*
%TD*%
%TO.C,C47*%
G36*
G01*
X306295000Y-135410000D02*
X306295000Y-135070000D01*
G75*
G02*
X306435000Y-134930000I140000J0D01*
G01*
X306715000Y-134930000D01*
G75*
G02*
X306855000Y-135070000I0J-140000D01*
G01*
X306855000Y-135410000D01*
G75*
G02*
X306715000Y-135550000I-140000J0D01*
G01*
X306435000Y-135550000D01*
G75*
G02*
X306295000Y-135410000I0J140000D01*
G01*
G37*
G36*
G01*
X305335000Y-135410000D02*
X305335000Y-135070000D01*
G75*
G02*
X305475000Y-134930000I140000J0D01*
G01*
X305755000Y-134930000D01*
G75*
G02*
X305895000Y-135070000I0J-140000D01*
G01*
X305895000Y-135410000D01*
G75*
G02*
X305755000Y-135550000I-140000J0D01*
G01*
X305475000Y-135550000D01*
G75*
G02*
X305335000Y-135410000I0J140000D01*
G01*
G37*
%TD*%
%TO.C,C46*%
G36*
G01*
X302155000Y-156077000D02*
X302155000Y-155737000D01*
G75*
G02*
X302295000Y-155597000I140000J0D01*
G01*
X302575000Y-155597000D01*
G75*
G02*
X302715000Y-155737000I0J-140000D01*
G01*
X302715000Y-156077000D01*
G75*
G02*
X302575000Y-156217000I-140000J0D01*
G01*
X302295000Y-156217000D01*
G75*
G02*
X302155000Y-156077000I0J140000D01*
G01*
G37*
G36*
G01*
X301195000Y-156077000D02*
X301195000Y-155737000D01*
G75*
G02*
X301335000Y-155597000I140000J0D01*
G01*
X301615000Y-155597000D01*
G75*
G02*
X301755000Y-155737000I0J-140000D01*
G01*
X301755000Y-156077000D01*
G75*
G02*
X301615000Y-156217000I-140000J0D01*
G01*
X301335000Y-156217000D01*
G75*
G02*
X301195000Y-156077000I0J140000D01*
G01*
G37*
%TD*%
%TO.C,C45*%
G36*
G01*
X306295000Y-124623000D02*
X306295000Y-124283000D01*
G75*
G02*
X306435000Y-124143000I140000J0D01*
G01*
X306715000Y-124143000D01*
G75*
G02*
X306855000Y-124283000I0J-140000D01*
G01*
X306855000Y-124623000D01*
G75*
G02*
X306715000Y-124763000I-140000J0D01*
G01*
X306435000Y-124763000D01*
G75*
G02*
X306295000Y-124623000I0J140000D01*
G01*
G37*
G36*
G01*
X305335000Y-124623000D02*
X305335000Y-124283000D01*
G75*
G02*
X305475000Y-124143000I140000J0D01*
G01*
X305755000Y-124143000D01*
G75*
G02*
X305895000Y-124283000I0J-140000D01*
G01*
X305895000Y-124623000D01*
G75*
G02*
X305755000Y-124763000I-140000J0D01*
G01*
X305475000Y-124763000D01*
G75*
G02*
X305335000Y-124623000I0J140000D01*
G01*
G37*
%TD*%
%TO.C,C44*%
G36*
G01*
X302155000Y-130668000D02*
X302155000Y-130328000D01*
G75*
G02*
X302295000Y-130188000I140000J0D01*
G01*
X302575000Y-130188000D01*
G75*
G02*
X302715000Y-130328000I0J-140000D01*
G01*
X302715000Y-130668000D01*
G75*
G02*
X302575000Y-130808000I-140000J0D01*
G01*
X302295000Y-130808000D01*
G75*
G02*
X302155000Y-130668000I0J140000D01*
G01*
G37*
G36*
G01*
X301195000Y-130668000D02*
X301195000Y-130328000D01*
G75*
G02*
X301335000Y-130188000I140000J0D01*
G01*
X301615000Y-130188000D01*
G75*
G02*
X301755000Y-130328000I0J-140000D01*
G01*
X301755000Y-130668000D01*
G75*
G02*
X301615000Y-130808000I-140000J0D01*
G01*
X301335000Y-130808000D01*
G75*
G02*
X301195000Y-130668000I0J140000D01*
G01*
G37*
%TD*%
%TO.C,C43*%
G36*
G01*
X302155000Y-125904000D02*
X302155000Y-125564000D01*
G75*
G02*
X302295000Y-125424000I140000J0D01*
G01*
X302575000Y-125424000D01*
G75*
G02*
X302715000Y-125564000I0J-140000D01*
G01*
X302715000Y-125904000D01*
G75*
G02*
X302575000Y-126044000I-140000J0D01*
G01*
X302295000Y-126044000D01*
G75*
G02*
X302155000Y-125904000I0J140000D01*
G01*
G37*
G36*
G01*
X301195000Y-125904000D02*
X301195000Y-125564000D01*
G75*
G02*
X301335000Y-125424000I140000J0D01*
G01*
X301615000Y-125424000D01*
G75*
G02*
X301755000Y-125564000I0J-140000D01*
G01*
X301755000Y-125904000D01*
G75*
G02*
X301615000Y-126044000I-140000J0D01*
G01*
X301335000Y-126044000D01*
G75*
G02*
X301195000Y-125904000I0J140000D01*
G01*
G37*
%TD*%
%TO.C,C42*%
G36*
G01*
X298370000Y-141061000D02*
X298370000Y-140721000D01*
G75*
G02*
X298510000Y-140581000I140000J0D01*
G01*
X298790000Y-140581000D01*
G75*
G02*
X298930000Y-140721000I0J-140000D01*
G01*
X298930000Y-141061000D01*
G75*
G02*
X298790000Y-141201000I-140000J0D01*
G01*
X298510000Y-141201000D01*
G75*
G02*
X298370000Y-141061000I0J140000D01*
G01*
G37*
G36*
G01*
X297410000Y-141061000D02*
X297410000Y-140721000D01*
G75*
G02*
X297550000Y-140581000I140000J0D01*
G01*
X297830000Y-140581000D01*
G75*
G02*
X297970000Y-140721000I0J-140000D01*
G01*
X297970000Y-141061000D01*
G75*
G02*
X297830000Y-141201000I-140000J0D01*
G01*
X297550000Y-141201000D01*
G75*
G02*
X297410000Y-141061000I0J140000D01*
G01*
G37*
%TD*%
%TO.C,C41*%
G36*
G01*
X298370000Y-133322000D02*
X298370000Y-132982000D01*
G75*
G02*
X298510000Y-132842000I140000J0D01*
G01*
X298790000Y-132842000D01*
G75*
G02*
X298930000Y-132982000I0J-140000D01*
G01*
X298930000Y-133322000D01*
G75*
G02*
X298790000Y-133462000I-140000J0D01*
G01*
X298510000Y-133462000D01*
G75*
G02*
X298370000Y-133322000I0J140000D01*
G01*
G37*
G36*
G01*
X297410000Y-133322000D02*
X297410000Y-132982000D01*
G75*
G02*
X297550000Y-132842000I140000J0D01*
G01*
X297830000Y-132842000D01*
G75*
G02*
X297970000Y-132982000I0J-140000D01*
G01*
X297970000Y-133322000D01*
G75*
G02*
X297830000Y-133462000I-140000J0D01*
G01*
X297550000Y-133462000D01*
G75*
G02*
X297410000Y-133322000I0J140000D01*
G01*
G37*
%TD*%
%TO.C,C40*%
G36*
G01*
X306295000Y-123082000D02*
X306295000Y-122742000D01*
G75*
G02*
X306435000Y-122602000I140000J0D01*
G01*
X306715000Y-122602000D01*
G75*
G02*
X306855000Y-122742000I0J-140000D01*
G01*
X306855000Y-123082000D01*
G75*
G02*
X306715000Y-123222000I-140000J0D01*
G01*
X306435000Y-123222000D01*
G75*
G02*
X306295000Y-123082000I0J140000D01*
G01*
G37*
G36*
G01*
X305335000Y-123082000D02*
X305335000Y-122742000D01*
G75*
G02*
X305475000Y-122602000I140000J0D01*
G01*
X305755000Y-122602000D01*
G75*
G02*
X305895000Y-122742000I0J-140000D01*
G01*
X305895000Y-123082000D01*
G75*
G02*
X305755000Y-123222000I-140000J0D01*
G01*
X305475000Y-123222000D01*
G75*
G02*
X305335000Y-123082000I0J140000D01*
G01*
G37*
%TD*%
%TO.C,C39*%
G36*
G01*
X306295000Y-132328000D02*
X306295000Y-131988000D01*
G75*
G02*
X306435000Y-131848000I140000J0D01*
G01*
X306715000Y-131848000D01*
G75*
G02*
X306855000Y-131988000I0J-140000D01*
G01*
X306855000Y-132328000D01*
G75*
G02*
X306715000Y-132468000I-140000J0D01*
G01*
X306435000Y-132468000D01*
G75*
G02*
X306295000Y-132328000I0J140000D01*
G01*
G37*
G36*
G01*
X305335000Y-132328000D02*
X305335000Y-131988000D01*
G75*
G02*
X305475000Y-131848000I140000J0D01*
G01*
X305755000Y-131848000D01*
G75*
G02*
X305895000Y-131988000I0J-140000D01*
G01*
X305895000Y-132328000D01*
G75*
G02*
X305755000Y-132468000I-140000J0D01*
G01*
X305475000Y-132468000D01*
G75*
G02*
X305335000Y-132328000I0J140000D01*
G01*
G37*
%TD*%
%TO.C,C38*%
G36*
G01*
X302155000Y-135432000D02*
X302155000Y-135092000D01*
G75*
G02*
X302295000Y-134952000I140000J0D01*
G01*
X302575000Y-134952000D01*
G75*
G02*
X302715000Y-135092000I0J-140000D01*
G01*
X302715000Y-135432000D01*
G75*
G02*
X302575000Y-135572000I-140000J0D01*
G01*
X302295000Y-135572000D01*
G75*
G02*
X302155000Y-135432000I0J140000D01*
G01*
G37*
G36*
G01*
X301195000Y-135432000D02*
X301195000Y-135092000D01*
G75*
G02*
X301335000Y-134952000I140000J0D01*
G01*
X301615000Y-134952000D01*
G75*
G02*
X301755000Y-135092000I0J-140000D01*
G01*
X301755000Y-135432000D01*
G75*
G02*
X301615000Y-135572000I-140000J0D01*
G01*
X301335000Y-135572000D01*
G75*
G02*
X301195000Y-135432000I0J140000D01*
G01*
G37*
%TD*%
%TO.C,C37*%
G36*
G01*
X298370000Y-137965000D02*
X298370000Y-137625000D01*
G75*
G02*
X298510000Y-137485000I140000J0D01*
G01*
X298790000Y-137485000D01*
G75*
G02*
X298930000Y-137625000I0J-140000D01*
G01*
X298930000Y-137965000D01*
G75*
G02*
X298790000Y-138105000I-140000J0D01*
G01*
X298510000Y-138105000D01*
G75*
G02*
X298370000Y-137965000I0J140000D01*
G01*
G37*
G36*
G01*
X297410000Y-137965000D02*
X297410000Y-137625000D01*
G75*
G02*
X297550000Y-137485000I140000J0D01*
G01*
X297830000Y-137485000D01*
G75*
G02*
X297970000Y-137625000I0J-140000D01*
G01*
X297970000Y-137965000D01*
G75*
G02*
X297830000Y-138105000I-140000J0D01*
G01*
X297550000Y-138105000D01*
G75*
G02*
X297410000Y-137965000I0J140000D01*
G01*
G37*
%TD*%
%TO.C,C36*%
G36*
G01*
X302155000Y-121140000D02*
X302155000Y-120800000D01*
G75*
G02*
X302295000Y-120660000I140000J0D01*
G01*
X302575000Y-120660000D01*
G75*
G02*
X302715000Y-120800000I0J-140000D01*
G01*
X302715000Y-121140000D01*
G75*
G02*
X302575000Y-121280000I-140000J0D01*
G01*
X302295000Y-121280000D01*
G75*
G02*
X302155000Y-121140000I0J140000D01*
G01*
G37*
G36*
G01*
X301195000Y-121140000D02*
X301195000Y-120800000D01*
G75*
G02*
X301335000Y-120660000I140000J0D01*
G01*
X301615000Y-120660000D01*
G75*
G02*
X301755000Y-120800000I0J-140000D01*
G01*
X301755000Y-121140000D01*
G75*
G02*
X301615000Y-121280000I-140000J0D01*
G01*
X301335000Y-121280000D01*
G75*
G02*
X301195000Y-121140000I0J140000D01*
G01*
G37*
%TD*%
%TO.C,C35*%
G36*
G01*
X302155000Y-117964000D02*
X302155000Y-117624000D01*
G75*
G02*
X302295000Y-117484000I140000J0D01*
G01*
X302575000Y-117484000D01*
G75*
G02*
X302715000Y-117624000I0J-140000D01*
G01*
X302715000Y-117964000D01*
G75*
G02*
X302575000Y-118104000I-140000J0D01*
G01*
X302295000Y-118104000D01*
G75*
G02*
X302155000Y-117964000I0J140000D01*
G01*
G37*
G36*
G01*
X301195000Y-117964000D02*
X301195000Y-117624000D01*
G75*
G02*
X301335000Y-117484000I140000J0D01*
G01*
X301615000Y-117484000D01*
G75*
G02*
X301755000Y-117624000I0J-140000D01*
G01*
X301755000Y-117964000D01*
G75*
G02*
X301615000Y-118104000I-140000J0D01*
G01*
X301335000Y-118104000D01*
G75*
G02*
X301195000Y-117964000I0J140000D01*
G01*
G37*
%TD*%
%TO.C,C34*%
G36*
G01*
X298370000Y-125583000D02*
X298370000Y-125243000D01*
G75*
G02*
X298510000Y-125103000I140000J0D01*
G01*
X298790000Y-125103000D01*
G75*
G02*
X298930000Y-125243000I0J-140000D01*
G01*
X298930000Y-125583000D01*
G75*
G02*
X298790000Y-125723000I-140000J0D01*
G01*
X298510000Y-125723000D01*
G75*
G02*
X298370000Y-125583000I0J140000D01*
G01*
G37*
G36*
G01*
X297410000Y-125583000D02*
X297410000Y-125243000D01*
G75*
G02*
X297550000Y-125103000I140000J0D01*
G01*
X297830000Y-125103000D01*
G75*
G02*
X297970000Y-125243000I0J-140000D01*
G01*
X297970000Y-125583000D01*
G75*
G02*
X297830000Y-125723000I-140000J0D01*
G01*
X297550000Y-125723000D01*
G75*
G02*
X297410000Y-125583000I0J140000D01*
G01*
G37*
%TD*%
%TO.C,C33*%
G36*
G01*
X306295000Y-121540000D02*
X306295000Y-121200000D01*
G75*
G02*
X306435000Y-121060000I140000J0D01*
G01*
X306715000Y-121060000D01*
G75*
G02*
X306855000Y-121200000I0J-140000D01*
G01*
X306855000Y-121540000D01*
G75*
G02*
X306715000Y-121680000I-140000J0D01*
G01*
X306435000Y-121680000D01*
G75*
G02*
X306295000Y-121540000I0J140000D01*
G01*
G37*
G36*
G01*
X305335000Y-121540000D02*
X305335000Y-121200000D01*
G75*
G02*
X305475000Y-121060000I140000J0D01*
G01*
X305755000Y-121060000D01*
G75*
G02*
X305895000Y-121200000I0J-140000D01*
G01*
X305895000Y-121540000D01*
G75*
G02*
X305755000Y-121680000I-140000J0D01*
G01*
X305475000Y-121680000D01*
G75*
G02*
X305335000Y-121540000I0J140000D01*
G01*
G37*
%TD*%
%TO.C,C32*%
G36*
G01*
X306295000Y-129246000D02*
X306295000Y-128906000D01*
G75*
G02*
X306435000Y-128766000I140000J0D01*
G01*
X306715000Y-128766000D01*
G75*
G02*
X306855000Y-128906000I0J-140000D01*
G01*
X306855000Y-129246000D01*
G75*
G02*
X306715000Y-129386000I-140000J0D01*
G01*
X306435000Y-129386000D01*
G75*
G02*
X306295000Y-129246000I0J140000D01*
G01*
G37*
G36*
G01*
X305335000Y-129246000D02*
X305335000Y-128906000D01*
G75*
G02*
X305475000Y-128766000I140000J0D01*
G01*
X305755000Y-128766000D01*
G75*
G02*
X305895000Y-128906000I0J-140000D01*
G01*
X305895000Y-129246000D01*
G75*
G02*
X305755000Y-129386000I-140000J0D01*
G01*
X305475000Y-129386000D01*
G75*
G02*
X305335000Y-129246000I0J140000D01*
G01*
G37*
%TD*%
%TO.C,C31*%
G36*
G01*
X302155000Y-122728000D02*
X302155000Y-122388000D01*
G75*
G02*
X302295000Y-122248000I140000J0D01*
G01*
X302575000Y-122248000D01*
G75*
G02*
X302715000Y-122388000I0J-140000D01*
G01*
X302715000Y-122728000D01*
G75*
G02*
X302575000Y-122868000I-140000J0D01*
G01*
X302295000Y-122868000D01*
G75*
G02*
X302155000Y-122728000I0J140000D01*
G01*
G37*
G36*
G01*
X301195000Y-122728000D02*
X301195000Y-122388000D01*
G75*
G02*
X301335000Y-122248000I140000J0D01*
G01*
X301615000Y-122248000D01*
G75*
G02*
X301755000Y-122388000I0J-140000D01*
G01*
X301755000Y-122728000D01*
G75*
G02*
X301615000Y-122868000I-140000J0D01*
G01*
X301335000Y-122868000D01*
G75*
G02*
X301195000Y-122728000I0J140000D01*
G01*
G37*
%TD*%
%TO.C,C30*%
G36*
G01*
X302155000Y-132256000D02*
X302155000Y-131916000D01*
G75*
G02*
X302295000Y-131776000I140000J0D01*
G01*
X302575000Y-131776000D01*
G75*
G02*
X302715000Y-131916000I0J-140000D01*
G01*
X302715000Y-132256000D01*
G75*
G02*
X302575000Y-132396000I-140000J0D01*
G01*
X302295000Y-132396000D01*
G75*
G02*
X302155000Y-132256000I0J140000D01*
G01*
G37*
G36*
G01*
X301195000Y-132256000D02*
X301195000Y-131916000D01*
G75*
G02*
X301335000Y-131776000I140000J0D01*
G01*
X301615000Y-131776000D01*
G75*
G02*
X301755000Y-131916000I0J-140000D01*
G01*
X301755000Y-132256000D01*
G75*
G02*
X301615000Y-132396000I-140000J0D01*
G01*
X301335000Y-132396000D01*
G75*
G02*
X301195000Y-132256000I0J140000D01*
G01*
G37*
%TD*%
%TO.C,C29*%
G36*
G01*
X298370000Y-134870000D02*
X298370000Y-134530000D01*
G75*
G02*
X298510000Y-134390000I140000J0D01*
G01*
X298790000Y-134390000D01*
G75*
G02*
X298930000Y-134530000I0J-140000D01*
G01*
X298930000Y-134870000D01*
G75*
G02*
X298790000Y-135010000I-140000J0D01*
G01*
X298510000Y-135010000D01*
G75*
G02*
X298370000Y-134870000I0J140000D01*
G01*
G37*
G36*
G01*
X297410000Y-134870000D02*
X297410000Y-134530000D01*
G75*
G02*
X297550000Y-134390000I140000J0D01*
G01*
X297830000Y-134390000D01*
G75*
G02*
X297970000Y-134530000I0J-140000D01*
G01*
X297970000Y-134870000D01*
G75*
G02*
X297830000Y-135010000I-140000J0D01*
G01*
X297550000Y-135010000D01*
G75*
G02*
X297410000Y-134870000I0J140000D01*
G01*
G37*
%TD*%
%TO.C,C28*%
G36*
G01*
X306295000Y-119999000D02*
X306295000Y-119659000D01*
G75*
G02*
X306435000Y-119519000I140000J0D01*
G01*
X306715000Y-119519000D01*
G75*
G02*
X306855000Y-119659000I0J-140000D01*
G01*
X306855000Y-119999000D01*
G75*
G02*
X306715000Y-120139000I-140000J0D01*
G01*
X306435000Y-120139000D01*
G75*
G02*
X306295000Y-119999000I0J140000D01*
G01*
G37*
G36*
G01*
X305335000Y-119999000D02*
X305335000Y-119659000D01*
G75*
G02*
X305475000Y-119519000I140000J0D01*
G01*
X305755000Y-119519000D01*
G75*
G02*
X305895000Y-119659000I0J-140000D01*
G01*
X305895000Y-119999000D01*
G75*
G02*
X305755000Y-120139000I-140000J0D01*
G01*
X305475000Y-120139000D01*
G75*
G02*
X305335000Y-119999000I0J140000D01*
G01*
G37*
%TD*%
%TO.C,C27*%
G36*
G01*
X298370000Y-124035000D02*
X298370000Y-123695000D01*
G75*
G02*
X298510000Y-123555000I140000J0D01*
G01*
X298790000Y-123555000D01*
G75*
G02*
X298930000Y-123695000I0J-140000D01*
G01*
X298930000Y-124035000D01*
G75*
G02*
X298790000Y-124175000I-140000J0D01*
G01*
X298510000Y-124175000D01*
G75*
G02*
X298370000Y-124035000I0J140000D01*
G01*
G37*
G36*
G01*
X297410000Y-124035000D02*
X297410000Y-123695000D01*
G75*
G02*
X297550000Y-123555000I140000J0D01*
G01*
X297830000Y-123555000D01*
G75*
G02*
X297970000Y-123695000I0J-140000D01*
G01*
X297970000Y-124035000D01*
G75*
G02*
X297830000Y-124175000I-140000J0D01*
G01*
X297550000Y-124175000D01*
G75*
G02*
X297410000Y-124035000I0J140000D01*
G01*
G37*
%TD*%
%TO.C,C26*%
G36*
G01*
X306295000Y-127705000D02*
X306295000Y-127365000D01*
G75*
G02*
X306435000Y-127225000I140000J0D01*
G01*
X306715000Y-127225000D01*
G75*
G02*
X306855000Y-127365000I0J-140000D01*
G01*
X306855000Y-127705000D01*
G75*
G02*
X306715000Y-127845000I-140000J0D01*
G01*
X306435000Y-127845000D01*
G75*
G02*
X306295000Y-127705000I0J140000D01*
G01*
G37*
G36*
G01*
X305335000Y-127705000D02*
X305335000Y-127365000D01*
G75*
G02*
X305475000Y-127225000I140000J0D01*
G01*
X305755000Y-127225000D01*
G75*
G02*
X305895000Y-127365000I0J-140000D01*
G01*
X305895000Y-127705000D01*
G75*
G02*
X305755000Y-127845000I-140000J0D01*
G01*
X305475000Y-127845000D01*
G75*
G02*
X305335000Y-127705000I0J140000D01*
G01*
G37*
%TD*%
%TO.C,C25*%
G36*
G01*
X298370000Y-119391000D02*
X298370000Y-119051000D01*
G75*
G02*
X298510000Y-118911000I140000J0D01*
G01*
X298790000Y-118911000D01*
G75*
G02*
X298930000Y-119051000I0J-140000D01*
G01*
X298930000Y-119391000D01*
G75*
G02*
X298790000Y-119531000I-140000J0D01*
G01*
X298510000Y-119531000D01*
G75*
G02*
X298370000Y-119391000I0J140000D01*
G01*
G37*
G36*
G01*
X297410000Y-119391000D02*
X297410000Y-119051000D01*
G75*
G02*
X297550000Y-118911000I140000J0D01*
G01*
X297830000Y-118911000D01*
G75*
G02*
X297970000Y-119051000I0J-140000D01*
G01*
X297970000Y-119391000D01*
G75*
G02*
X297830000Y-119531000I-140000J0D01*
G01*
X297550000Y-119531000D01*
G75*
G02*
X297410000Y-119391000I0J140000D01*
G01*
G37*
%TD*%
%TO.C,C24*%
G36*
G01*
X302155000Y-129080000D02*
X302155000Y-128740000D01*
G75*
G02*
X302295000Y-128600000I140000J0D01*
G01*
X302575000Y-128600000D01*
G75*
G02*
X302715000Y-128740000I0J-140000D01*
G01*
X302715000Y-129080000D01*
G75*
G02*
X302575000Y-129220000I-140000J0D01*
G01*
X302295000Y-129220000D01*
G75*
G02*
X302155000Y-129080000I0J140000D01*
G01*
G37*
G36*
G01*
X301195000Y-129080000D02*
X301195000Y-128740000D01*
G75*
G02*
X301335000Y-128600000I140000J0D01*
G01*
X301615000Y-128600000D01*
G75*
G02*
X301755000Y-128740000I0J-140000D01*
G01*
X301755000Y-129080000D01*
G75*
G02*
X301615000Y-129220000I-140000J0D01*
G01*
X301335000Y-129220000D01*
G75*
G02*
X301195000Y-129080000I0J140000D01*
G01*
G37*
%TD*%
%TO.C,C23*%
G36*
G01*
X298370000Y-122487000D02*
X298370000Y-122147000D01*
G75*
G02*
X298510000Y-122007000I140000J0D01*
G01*
X298790000Y-122007000D01*
G75*
G02*
X298930000Y-122147000I0J-140000D01*
G01*
X298930000Y-122487000D01*
G75*
G02*
X298790000Y-122627000I-140000J0D01*
G01*
X298510000Y-122627000D01*
G75*
G02*
X298370000Y-122487000I0J140000D01*
G01*
G37*
G36*
G01*
X297410000Y-122487000D02*
X297410000Y-122147000D01*
G75*
G02*
X297550000Y-122007000I140000J0D01*
G01*
X297830000Y-122007000D01*
G75*
G02*
X297970000Y-122147000I0J-140000D01*
G01*
X297970000Y-122487000D01*
G75*
G02*
X297830000Y-122627000I-140000J0D01*
G01*
X297550000Y-122627000D01*
G75*
G02*
X297410000Y-122487000I0J140000D01*
G01*
G37*
%TD*%
%TO.C,C22*%
G36*
G01*
X298370000Y-131774000D02*
X298370000Y-131434000D01*
G75*
G02*
X298510000Y-131294000I140000J0D01*
G01*
X298790000Y-131294000D01*
G75*
G02*
X298930000Y-131434000I0J-140000D01*
G01*
X298930000Y-131774000D01*
G75*
G02*
X298790000Y-131914000I-140000J0D01*
G01*
X298510000Y-131914000D01*
G75*
G02*
X298370000Y-131774000I0J140000D01*
G01*
G37*
G36*
G01*
X297410000Y-131774000D02*
X297410000Y-131434000D01*
G75*
G02*
X297550000Y-131294000I140000J0D01*
G01*
X297830000Y-131294000D01*
G75*
G02*
X297970000Y-131434000I0J-140000D01*
G01*
X297970000Y-131774000D01*
G75*
G02*
X297830000Y-131914000I-140000J0D01*
G01*
X297550000Y-131914000D01*
G75*
G02*
X297410000Y-131774000I0J140000D01*
G01*
G37*
%TD*%
%TO.C,C21*%
G36*
G01*
X306295000Y-118458000D02*
X306295000Y-118118000D01*
G75*
G02*
X306435000Y-117978000I140000J0D01*
G01*
X306715000Y-117978000D01*
G75*
G02*
X306855000Y-118118000I0J-140000D01*
G01*
X306855000Y-118458000D01*
G75*
G02*
X306715000Y-118598000I-140000J0D01*
G01*
X306435000Y-118598000D01*
G75*
G02*
X306295000Y-118458000I0J140000D01*
G01*
G37*
G36*
G01*
X305335000Y-118458000D02*
X305335000Y-118118000D01*
G75*
G02*
X305475000Y-117978000I140000J0D01*
G01*
X305755000Y-117978000D01*
G75*
G02*
X305895000Y-118118000I0J-140000D01*
G01*
X305895000Y-118458000D01*
G75*
G02*
X305755000Y-118598000I-140000J0D01*
G01*
X305475000Y-118598000D01*
G75*
G02*
X305335000Y-118458000I0J140000D01*
G01*
G37*
%TD*%
%TO.C,C20*%
G36*
G01*
X302155000Y-119552000D02*
X302155000Y-119212000D01*
G75*
G02*
X302295000Y-119072000I140000J0D01*
G01*
X302575000Y-119072000D01*
G75*
G02*
X302715000Y-119212000I0J-140000D01*
G01*
X302715000Y-119552000D01*
G75*
G02*
X302575000Y-119692000I-140000J0D01*
G01*
X302295000Y-119692000D01*
G75*
G02*
X302155000Y-119552000I0J140000D01*
G01*
G37*
G36*
G01*
X301195000Y-119552000D02*
X301195000Y-119212000D01*
G75*
G02*
X301335000Y-119072000I140000J0D01*
G01*
X301615000Y-119072000D01*
G75*
G02*
X301755000Y-119212000I0J-140000D01*
G01*
X301755000Y-119552000D01*
G75*
G02*
X301615000Y-119692000I-140000J0D01*
G01*
X301335000Y-119692000D01*
G75*
G02*
X301195000Y-119552000I0J140000D01*
G01*
G37*
%TD*%
%TO.C,C19*%
G36*
G01*
X302155000Y-127492000D02*
X302155000Y-127152000D01*
G75*
G02*
X302295000Y-127012000I140000J0D01*
G01*
X302575000Y-127012000D01*
G75*
G02*
X302715000Y-127152000I0J-140000D01*
G01*
X302715000Y-127492000D01*
G75*
G02*
X302575000Y-127632000I-140000J0D01*
G01*
X302295000Y-127632000D01*
G75*
G02*
X302155000Y-127492000I0J140000D01*
G01*
G37*
G36*
G01*
X301195000Y-127492000D02*
X301195000Y-127152000D01*
G75*
G02*
X301335000Y-127012000I140000J0D01*
G01*
X301615000Y-127012000D01*
G75*
G02*
X301755000Y-127152000I0J-140000D01*
G01*
X301755000Y-127492000D01*
G75*
G02*
X301615000Y-127632000I-140000J0D01*
G01*
X301335000Y-127632000D01*
G75*
G02*
X301195000Y-127492000I0J140000D01*
G01*
G37*
%TD*%
%TO.C,C17*%
G36*
G01*
X298370000Y-120939000D02*
X298370000Y-120599000D01*
G75*
G02*
X298510000Y-120459000I140000J0D01*
G01*
X298790000Y-120459000D01*
G75*
G02*
X298930000Y-120599000I0J-140000D01*
G01*
X298930000Y-120939000D01*
G75*
G02*
X298790000Y-121079000I-140000J0D01*
G01*
X298510000Y-121079000D01*
G75*
G02*
X298370000Y-120939000I0J140000D01*
G01*
G37*
G36*
G01*
X297410000Y-120939000D02*
X297410000Y-120599000D01*
G75*
G02*
X297550000Y-120459000I140000J0D01*
G01*
X297830000Y-120459000D01*
G75*
G02*
X297970000Y-120599000I0J-140000D01*
G01*
X297970000Y-120939000D01*
G75*
G02*
X297830000Y-121079000I-140000J0D01*
G01*
X297550000Y-121079000D01*
G75*
G02*
X297410000Y-120939000I0J140000D01*
G01*
G37*
%TD*%
%TO.C,C16*%
G36*
G01*
X298370000Y-128678000D02*
X298370000Y-128338000D01*
G75*
G02*
X298510000Y-128198000I140000J0D01*
G01*
X298790000Y-128198000D01*
G75*
G02*
X298930000Y-128338000I0J-140000D01*
G01*
X298930000Y-128678000D01*
G75*
G02*
X298790000Y-128818000I-140000J0D01*
G01*
X298510000Y-128818000D01*
G75*
G02*
X298370000Y-128678000I0J140000D01*
G01*
G37*
G36*
G01*
X297410000Y-128678000D02*
X297410000Y-128338000D01*
G75*
G02*
X297550000Y-128198000I140000J0D01*
G01*
X297830000Y-128198000D01*
G75*
G02*
X297970000Y-128338000I0J-140000D01*
G01*
X297970000Y-128678000D01*
G75*
G02*
X297830000Y-128818000I-140000J0D01*
G01*
X297550000Y-128818000D01*
G75*
G02*
X297410000Y-128678000I0J140000D01*
G01*
G37*
%TD*%
%TO.C,C15*%
G36*
G01*
X306295000Y-116917000D02*
X306295000Y-116577000D01*
G75*
G02*
X306435000Y-116437000I140000J0D01*
G01*
X306715000Y-116437000D01*
G75*
G02*
X306855000Y-116577000I0J-140000D01*
G01*
X306855000Y-116917000D01*
G75*
G02*
X306715000Y-117057000I-140000J0D01*
G01*
X306435000Y-117057000D01*
G75*
G02*
X306295000Y-116917000I0J140000D01*
G01*
G37*
G36*
G01*
X305335000Y-116917000D02*
X305335000Y-116577000D01*
G75*
G02*
X305475000Y-116437000I140000J0D01*
G01*
X305755000Y-116437000D01*
G75*
G02*
X305895000Y-116577000I0J-140000D01*
G01*
X305895000Y-116917000D01*
G75*
G02*
X305755000Y-117057000I-140000J0D01*
G01*
X305475000Y-117057000D01*
G75*
G02*
X305335000Y-116917000I0J140000D01*
G01*
G37*
%TD*%
%TO.C,C14*%
G36*
G01*
X298370000Y-113200000D02*
X298370000Y-112860000D01*
G75*
G02*
X298510000Y-112720000I140000J0D01*
G01*
X298790000Y-112720000D01*
G75*
G02*
X298930000Y-112860000I0J-140000D01*
G01*
X298930000Y-113200000D01*
G75*
G02*
X298790000Y-113340000I-140000J0D01*
G01*
X298510000Y-113340000D01*
G75*
G02*
X298370000Y-113200000I0J140000D01*
G01*
G37*
G36*
G01*
X297410000Y-113200000D02*
X297410000Y-112860000D01*
G75*
G02*
X297550000Y-112720000I140000J0D01*
G01*
X297830000Y-112720000D01*
G75*
G02*
X297970000Y-112860000I0J-140000D01*
G01*
X297970000Y-113200000D01*
G75*
G02*
X297830000Y-113340000I-140000J0D01*
G01*
X297550000Y-113340000D01*
G75*
G02*
X297410000Y-113200000I0J140000D01*
G01*
G37*
%TD*%
%TO.C,C13*%
G36*
G01*
X302155000Y-124316000D02*
X302155000Y-123976000D01*
G75*
G02*
X302295000Y-123836000I140000J0D01*
G01*
X302575000Y-123836000D01*
G75*
G02*
X302715000Y-123976000I0J-140000D01*
G01*
X302715000Y-124316000D01*
G75*
G02*
X302575000Y-124456000I-140000J0D01*
G01*
X302295000Y-124456000D01*
G75*
G02*
X302155000Y-124316000I0J140000D01*
G01*
G37*
G36*
G01*
X301195000Y-124316000D02*
X301195000Y-123976000D01*
G75*
G02*
X301335000Y-123836000I140000J0D01*
G01*
X301615000Y-123836000D01*
G75*
G02*
X301755000Y-123976000I0J-140000D01*
G01*
X301755000Y-124316000D01*
G75*
G02*
X301615000Y-124456000I-140000J0D01*
G01*
X301335000Y-124456000D01*
G75*
G02*
X301195000Y-124316000I0J140000D01*
G01*
G37*
%TD*%
%TO.C,C11*%
G36*
G01*
X298370000Y-127130000D02*
X298370000Y-126790000D01*
G75*
G02*
X298510000Y-126650000I140000J0D01*
G01*
X298790000Y-126650000D01*
G75*
G02*
X298930000Y-126790000I0J-140000D01*
G01*
X298930000Y-127130000D01*
G75*
G02*
X298790000Y-127270000I-140000J0D01*
G01*
X298510000Y-127270000D01*
G75*
G02*
X298370000Y-127130000I0J140000D01*
G01*
G37*
G36*
G01*
X297410000Y-127130000D02*
X297410000Y-126790000D01*
G75*
G02*
X297550000Y-126650000I140000J0D01*
G01*
X297830000Y-126650000D01*
G75*
G02*
X297970000Y-126790000I0J-140000D01*
G01*
X297970000Y-127130000D01*
G75*
G02*
X297830000Y-127270000I-140000J0D01*
G01*
X297550000Y-127270000D01*
G75*
G02*
X297410000Y-127130000I0J140000D01*
G01*
G37*
%TD*%
%TO.C,C10*%
G36*
G01*
X306295000Y-115376000D02*
X306295000Y-115036000D01*
G75*
G02*
X306435000Y-114896000I140000J0D01*
G01*
X306715000Y-114896000D01*
G75*
G02*
X306855000Y-115036000I0J-140000D01*
G01*
X306855000Y-115376000D01*
G75*
G02*
X306715000Y-115516000I-140000J0D01*
G01*
X306435000Y-115516000D01*
G75*
G02*
X306295000Y-115376000I0J140000D01*
G01*
G37*
G36*
G01*
X305335000Y-115376000D02*
X305335000Y-115036000D01*
G75*
G02*
X305475000Y-114896000I140000J0D01*
G01*
X305755000Y-114896000D01*
G75*
G02*
X305895000Y-115036000I0J-140000D01*
G01*
X305895000Y-115376000D01*
G75*
G02*
X305755000Y-115516000I-140000J0D01*
G01*
X305475000Y-115516000D01*
G75*
G02*
X305335000Y-115376000I0J140000D01*
G01*
G37*
%TD*%
%TO.C,C9*%
G36*
G01*
X302155000Y-116376000D02*
X302155000Y-116036000D01*
G75*
G02*
X302295000Y-115896000I140000J0D01*
G01*
X302575000Y-115896000D01*
G75*
G02*
X302715000Y-116036000I0J-140000D01*
G01*
X302715000Y-116376000D01*
G75*
G02*
X302575000Y-116516000I-140000J0D01*
G01*
X302295000Y-116516000D01*
G75*
G02*
X302155000Y-116376000I0J140000D01*
G01*
G37*
G36*
G01*
X301195000Y-116376000D02*
X301195000Y-116036000D01*
G75*
G02*
X301335000Y-115896000I140000J0D01*
G01*
X301615000Y-115896000D01*
G75*
G02*
X301755000Y-116036000I0J-140000D01*
G01*
X301755000Y-116376000D01*
G75*
G02*
X301615000Y-116516000I-140000J0D01*
G01*
X301335000Y-116516000D01*
G75*
G02*
X301195000Y-116376000I0J140000D01*
G01*
G37*
%TD*%
%TO.C,C8*%
G36*
G01*
X298370000Y-117843000D02*
X298370000Y-117503000D01*
G75*
G02*
X298510000Y-117363000I140000J0D01*
G01*
X298790000Y-117363000D01*
G75*
G02*
X298930000Y-117503000I0J-140000D01*
G01*
X298930000Y-117843000D01*
G75*
G02*
X298790000Y-117983000I-140000J0D01*
G01*
X298510000Y-117983000D01*
G75*
G02*
X298370000Y-117843000I0J140000D01*
G01*
G37*
G36*
G01*
X297410000Y-117843000D02*
X297410000Y-117503000D01*
G75*
G02*
X297550000Y-117363000I140000J0D01*
G01*
X297830000Y-117363000D01*
G75*
G02*
X297970000Y-117503000I0J-140000D01*
G01*
X297970000Y-117843000D01*
G75*
G02*
X297830000Y-117983000I-140000J0D01*
G01*
X297550000Y-117983000D01*
G75*
G02*
X297410000Y-117843000I0J140000D01*
G01*
G37*
%TD*%
%TO.C,C7*%
G36*
G01*
X306295000Y-113835000D02*
X306295000Y-113495000D01*
G75*
G02*
X306435000Y-113355000I140000J0D01*
G01*
X306715000Y-113355000D01*
G75*
G02*
X306855000Y-113495000I0J-140000D01*
G01*
X306855000Y-113835000D01*
G75*
G02*
X306715000Y-113975000I-140000J0D01*
G01*
X306435000Y-113975000D01*
G75*
G02*
X306295000Y-113835000I0J140000D01*
G01*
G37*
G36*
G01*
X305335000Y-113835000D02*
X305335000Y-113495000D01*
G75*
G02*
X305475000Y-113355000I140000J0D01*
G01*
X305755000Y-113355000D01*
G75*
G02*
X305895000Y-113495000I0J-140000D01*
G01*
X305895000Y-113835000D01*
G75*
G02*
X305755000Y-113975000I-140000J0D01*
G01*
X305475000Y-113975000D01*
G75*
G02*
X305335000Y-113835000I0J140000D01*
G01*
G37*
%TD*%
%TO.C,C5*%
G36*
G01*
X302155000Y-114788000D02*
X302155000Y-114448000D01*
G75*
G02*
X302295000Y-114308000I140000J0D01*
G01*
X302575000Y-114308000D01*
G75*
G02*
X302715000Y-114448000I0J-140000D01*
G01*
X302715000Y-114788000D01*
G75*
G02*
X302575000Y-114928000I-140000J0D01*
G01*
X302295000Y-114928000D01*
G75*
G02*
X302155000Y-114788000I0J140000D01*
G01*
G37*
G36*
G01*
X301195000Y-114788000D02*
X301195000Y-114448000D01*
G75*
G02*
X301335000Y-114308000I140000J0D01*
G01*
X301615000Y-114308000D01*
G75*
G02*
X301755000Y-114448000I0J-140000D01*
G01*
X301755000Y-114788000D01*
G75*
G02*
X301615000Y-114928000I-140000J0D01*
G01*
X301335000Y-114928000D01*
G75*
G02*
X301195000Y-114788000I0J140000D01*
G01*
G37*
%TD*%
%TO.C,C4*%
G36*
G01*
X298370000Y-116296000D02*
X298370000Y-115956000D01*
G75*
G02*
X298510000Y-115816000I140000J0D01*
G01*
X298790000Y-115816000D01*
G75*
G02*
X298930000Y-115956000I0J-140000D01*
G01*
X298930000Y-116296000D01*
G75*
G02*
X298790000Y-116436000I-140000J0D01*
G01*
X298510000Y-116436000D01*
G75*
G02*
X298370000Y-116296000I0J140000D01*
G01*
G37*
G36*
G01*
X297410000Y-116296000D02*
X297410000Y-115956000D01*
G75*
G02*
X297550000Y-115816000I140000J0D01*
G01*
X297830000Y-115816000D01*
G75*
G02*
X297970000Y-115956000I0J-140000D01*
G01*
X297970000Y-116296000D01*
G75*
G02*
X297830000Y-116436000I-140000J0D01*
G01*
X297550000Y-116436000D01*
G75*
G02*
X297410000Y-116296000I0J140000D01*
G01*
G37*
%TD*%
%TO.C,C3*%
G36*
G01*
X302155000Y-113200000D02*
X302155000Y-112860000D01*
G75*
G02*
X302295000Y-112720000I140000J0D01*
G01*
X302575000Y-112720000D01*
G75*
G02*
X302715000Y-112860000I0J-140000D01*
G01*
X302715000Y-113200000D01*
G75*
G02*
X302575000Y-113340000I-140000J0D01*
G01*
X302295000Y-113340000D01*
G75*
G02*
X302155000Y-113200000I0J140000D01*
G01*
G37*
G36*
G01*
X301195000Y-113200000D02*
X301195000Y-112860000D01*
G75*
G02*
X301335000Y-112720000I140000J0D01*
G01*
X301615000Y-112720000D01*
G75*
G02*
X301755000Y-112860000I0J-140000D01*
G01*
X301755000Y-113200000D01*
G75*
G02*
X301615000Y-113340000I-140000J0D01*
G01*
X301335000Y-113340000D01*
G75*
G02*
X301195000Y-113200000I0J140000D01*
G01*
G37*
%TD*%
%TO.C,C2*%
G36*
G01*
X298370000Y-114748000D02*
X298370000Y-114408000D01*
G75*
G02*
X298510000Y-114268000I140000J0D01*
G01*
X298790000Y-114268000D01*
G75*
G02*
X298930000Y-114408000I0J-140000D01*
G01*
X298930000Y-114748000D01*
G75*
G02*
X298790000Y-114888000I-140000J0D01*
G01*
X298510000Y-114888000D01*
G75*
G02*
X298370000Y-114748000I0J140000D01*
G01*
G37*
G36*
G01*
X297410000Y-114748000D02*
X297410000Y-114408000D01*
G75*
G02*
X297550000Y-114268000I140000J0D01*
G01*
X297830000Y-114268000D01*
G75*
G02*
X297970000Y-114408000I0J-140000D01*
G01*
X297970000Y-114748000D01*
G75*
G02*
X297830000Y-114888000I-140000J0D01*
G01*
X297550000Y-114888000D01*
G75*
G02*
X297410000Y-114748000I0J140000D01*
G01*
G37*
%TD*%
%TO.C,C1*%
G36*
G01*
X298370000Y-130226000D02*
X298370000Y-129886000D01*
G75*
G02*
X298510000Y-129746000I140000J0D01*
G01*
X298790000Y-129746000D01*
G75*
G02*
X298930000Y-129886000I0J-140000D01*
G01*
X298930000Y-130226000D01*
G75*
G02*
X298790000Y-130366000I-140000J0D01*
G01*
X298510000Y-130366000D01*
G75*
G02*
X298370000Y-130226000I0J140000D01*
G01*
G37*
G36*
G01*
X297410000Y-130226000D02*
X297410000Y-129886000D01*
G75*
G02*
X297550000Y-129746000I140000J0D01*
G01*
X297830000Y-129746000D01*
G75*
G02*
X297970000Y-129886000I0J-140000D01*
G01*
X297970000Y-130226000D01*
G75*
G02*
X297830000Y-130366000I-140000J0D01*
G01*
X297550000Y-130366000D01*
G75*
G02*
X297410000Y-130226000I0J140000D01*
G01*
G37*
%TD*%
M02*
