M48
; DRILL file {KiCad (5.1.9)-1} date 05/14/21 10:54:07
; FORMAT={-:-/ absolute / inch / decimal}
; #@! TF.CreationDate,2021-05-14T10:54:07-07:00
; #@! TF.GenerationSoftware,Kicad,Pcbnew,(5.1.9)-1
; #@! TF.FileFunction,NonPlated,1,2,NPTH
FMAT,2
INCH
T1C0.0670
T2C0.1181
T3C0.1200
T4C0.1570
%
G90
G05
T1
X1.57Y-1.48
X1.57Y-4.48
X1.6604Y-2.2296
X1.7604Y-2.9796
X1.9504Y-3.7296
X1.97Y-1.48
X1.97Y-4.48
X2.0604Y-2.2296
X2.1604Y-2.9796
X2.32Y-1.48
X2.32Y-4.48
X2.3504Y-3.7296
X2.51Y-2.23
X2.7Y-2.98
X2.72Y-1.48
X2.72Y-4.48
X2.91Y-2.23
X3.07Y-1.48
X3.08Y-3.73
X3.1Y-2.98
X3.26Y-2.23
X3.2604Y-4.4796
X3.45Y-2.98
X3.47Y-1.48
X3.48Y-3.73
X3.66Y-2.23
X3.6604Y-4.4796
X3.82Y-1.48
X3.83Y-3.73
X3.85Y-2.98
X4.01Y-2.23
X4.2Y-2.98
X4.2Y-4.48
X4.22Y-1.48
X4.23Y-3.73
X4.41Y-2.23
X4.57Y-1.48
X4.58Y-3.73
X4.6Y-2.98
X4.6Y-4.48
X4.76Y-2.23
X4.95Y-2.98
X4.97Y-1.48
X4.98Y-3.73
X5.16Y-2.23
X5.32Y-1.48
X5.33Y-3.73
X5.35Y-2.98
X5.4204Y-4.4796
X5.51Y-2.23
X5.69Y-2.98
X5.72Y-1.48
X5.73Y-3.73
X5.8204Y-4.4796
X5.91Y-2.23
X6.07Y-1.48
X6.08Y-3.73
X6.09Y-2.98
X6.26Y-2.23
X6.44Y-2.98
X6.47Y-1.48
X6.48Y-3.73
X6.64Y-4.48
X6.66Y-2.23
X6.82Y-1.48
X6.83Y-3.73
X6.84Y-2.98
X7.01Y-2.23
X7.04Y-4.48
X7.19Y-2.98
X7.22Y-1.48
X7.23Y-3.73
X7.39Y-4.48
X7.41Y-2.23
X7.57Y-1.48
X7.58Y-3.73
X7.59Y-2.98
X7.76Y-2.23
X7.79Y-4.48
X7.94Y-2.98
X7.97Y-1.48
X7.98Y-3.73
X8.16Y-2.23
X8.32Y-1.48
X8.33Y-3.73
X8.34Y-2.98
X8.51Y-2.23
X8.6104Y-4.4796
X8.69Y-2.98
X8.72Y-1.48
X8.73Y-3.73
X8.91Y-2.23
X9.0104Y-4.4796
X9.07Y-1.48
X9.08Y-3.73
X9.09Y-2.98
X9.26Y-2.23
X9.44Y-2.98
X9.47Y-1.48
X9.48Y-3.73
X9.66Y-2.23
X9.82Y-1.48
X9.83Y-3.73
X9.84Y-2.98
X9.9204Y-4.4796
X10.01Y-2.23
X10.19Y-2.98
X10.22Y-1.48
X10.23Y-3.73
X10.3204Y-4.4796
X10.41Y-2.23
X10.57Y-1.48
X10.59Y-2.98
X10.76Y-2.23
X10.77Y-4.48
X10.97Y-1.48
X11.0504Y-3.7296
X11.16Y-2.23
X11.17Y-4.48
X11.2304Y-2.9796
X11.4104Y-1.4796
X11.4504Y-3.7296
X11.51Y-2.23
X11.52Y-4.48
X11.6304Y-2.9796
X11.8104Y-1.4796
X11.91Y-2.23
X11.92Y-4.48
X13.02Y-1.49
X13.02Y-2.24
X13.02Y-2.99
X13.02Y-3.74
X13.02Y-4.49
X13.42Y-1.49
X13.42Y-2.24
X13.42Y-2.99
X13.42Y-3.74
X13.42Y-4.49
X13.77Y-1.49
X13.77Y-2.24
X13.77Y-2.99
X13.77Y-3.74
X13.77Y-4.49
X14.17Y-1.49
X14.17Y-2.24
X14.17Y-2.99
X14.17Y-3.74
X14.17Y-4.49
X14.52Y-1.49
X14.52Y-2.24
X14.52Y-2.99
X14.52Y-3.74
X14.52Y-4.49
X14.92Y-1.49
X14.92Y-2.24
X14.92Y-2.99
X14.92Y-3.74
X14.92Y-4.49
X15.27Y-1.49
X15.27Y-2.24
X15.27Y-2.99
X15.27Y-3.74
X15.27Y-4.49
X15.67Y-1.49
X15.67Y-2.24
X15.67Y-2.99
X15.67Y-3.74
X15.67Y-4.49
T2
X1.62Y-1.38
X1.62Y-4.38
X1.7104Y-2.1296
X1.8104Y-2.8796
X1.87Y-1.28
X1.87Y-4.28
X1.9604Y-2.0296
X2.0004Y-3.6296
X2.0604Y-2.7796
X2.2504Y-3.5296
X2.37Y-1.38
X2.37Y-4.38
X2.56Y-2.13
X2.62Y-1.28
X2.62Y-4.28
X2.75Y-2.88
X2.81Y-2.03
X3.0Y-2.78
X3.12Y-1.38
X3.13Y-3.63
X3.31Y-2.13
X3.3104Y-4.3796
X3.37Y-1.28
X3.38Y-3.53
X3.5Y-2.88
X3.56Y-2.03
X3.5604Y-4.2796
X3.75Y-2.78
X3.87Y-1.38
X3.88Y-3.63
X4.06Y-2.13
X4.12Y-1.28
X4.13Y-3.53
X4.25Y-2.88
X4.25Y-4.38
X4.31Y-2.03
X4.5Y-2.78
X4.5Y-4.28
X4.62Y-1.38
X4.63Y-3.63
X4.81Y-2.13
X4.87Y-1.28
X4.88Y-3.53
X5.0Y-2.88
X5.06Y-2.03
X5.25Y-2.78
X5.37Y-1.38
X5.38Y-3.63
X5.4704Y-4.3796
X5.56Y-2.13
X5.62Y-1.28
X5.63Y-3.53
X5.7204Y-4.2796
X5.74Y-2.88
X5.81Y-2.03
X5.99Y-2.78
X6.12Y-1.38
X6.13Y-3.63
X6.31Y-2.13
X6.37Y-1.28
X6.38Y-3.53
X6.49Y-2.88
X6.56Y-2.03
X6.69Y-4.38
X6.74Y-2.78
X6.87Y-1.38
X6.88Y-3.63
X6.94Y-4.28
X7.06Y-2.13
X7.12Y-1.28
X7.13Y-3.53
X7.24Y-2.88
X7.31Y-2.03
X7.44Y-4.38
X7.49Y-2.78
X7.62Y-1.38
X7.63Y-3.63
X7.69Y-4.28
X7.81Y-2.13
X7.87Y-1.28
X7.88Y-3.53
X7.99Y-2.88
X8.06Y-2.03
X8.24Y-2.78
X8.37Y-1.38
X8.38Y-3.63
X8.56Y-2.13
X8.62Y-1.28
X8.63Y-3.53
X8.6604Y-4.3796
X8.74Y-2.88
X8.81Y-2.03
X8.9104Y-4.2796
X8.99Y-2.78
X9.12Y-1.38
X9.13Y-3.63
X9.31Y-2.13
X9.37Y-1.28
X9.38Y-3.53
X9.49Y-2.88
X9.56Y-2.03
X9.74Y-2.78
X9.87Y-1.38
X9.88Y-3.63
X9.9704Y-4.3796
X10.06Y-2.13
X10.12Y-1.28
X10.13Y-3.53
X10.2204Y-4.2796
X10.24Y-2.88
X10.31Y-2.03
X10.49Y-2.78
X10.62Y-1.38
X10.81Y-2.13
X10.82Y-4.38
X10.87Y-1.28
X11.06Y-2.03
X11.07Y-4.28
X11.1004Y-3.6296
X11.2804Y-2.8796
X11.3504Y-3.5296
X11.4604Y-1.3796
X11.5304Y-2.7796
X11.56Y-2.13
X11.57Y-4.38
X11.7104Y-1.2796
X11.81Y-2.03
X11.82Y-4.28
X13.07Y-1.39
X13.07Y-2.14
X13.07Y-2.89
X13.07Y-3.64
X13.07Y-4.39
X13.32Y-1.29
X13.32Y-2.04
X13.32Y-2.79
X13.32Y-3.54
X13.32Y-4.29
X13.82Y-1.39
X13.82Y-2.14
X13.82Y-2.89
X13.82Y-3.64
X13.82Y-4.39
X14.07Y-1.29
X14.07Y-2.04
X14.07Y-2.79
X14.07Y-3.54
X14.07Y-4.29
X14.57Y-1.39
X14.57Y-2.14
X14.57Y-2.89
X14.57Y-3.64
X14.57Y-4.39
X14.82Y-1.29
X14.82Y-2.04
X14.82Y-2.79
X14.82Y-3.54
X14.82Y-4.29
X15.32Y-1.39
X15.32Y-2.14
X15.32Y-2.89
X15.32Y-3.64
X15.32Y-4.39
X15.57Y-1.29
X15.57Y-2.04
X15.57Y-2.79
X15.57Y-3.54
X15.57Y-4.29
T3
X1.68Y-3.455
X2.62Y-3.455
X5.15Y-4.205
X6.09Y-4.205
X8.34Y-4.205
X9.28Y-4.205
X10.78Y-3.455
X11.72Y-3.455
T4
X1.68Y-4.055
X1.77Y-1.48
X1.77Y-4.48
X1.8604Y-2.2296
X1.9604Y-2.9796
X2.1504Y-3.7296
X2.52Y-1.48
X2.52Y-4.48
X2.62Y-4.055
X2.71Y-2.23
X2.9Y-2.98
X3.27Y-1.48
X3.28Y-3.73
X3.46Y-2.23
X3.4604Y-4.4796
X3.65Y-2.98
X4.02Y-1.48
X4.03Y-3.73
X4.21Y-2.23
X4.4Y-2.98
X4.4Y-4.48
X4.77Y-1.48
X4.78Y-3.73
X4.96Y-2.23
X5.15Y-2.98
X5.15Y-4.805
X5.52Y-1.48
X5.53Y-3.73
X5.6204Y-4.4796
X5.71Y-2.23
X5.89Y-2.98
X6.09Y-4.805
X6.27Y-1.48
X6.28Y-3.73
X6.46Y-2.23
X6.64Y-2.98
X6.84Y-4.48
X7.02Y-1.48
X7.03Y-3.73
X7.21Y-2.23
X7.39Y-2.98
X7.59Y-4.48
X7.77Y-1.48
X7.78Y-3.73
X7.96Y-2.23
X8.14Y-2.98
X8.34Y-4.805
X8.52Y-1.48
X8.53Y-3.73
X8.71Y-2.23
X8.8104Y-4.4796
X8.89Y-2.98
X9.27Y-1.48
X9.28Y-3.73
X9.28Y-4.805
X9.46Y-2.23
X9.64Y-2.98
X10.02Y-1.48
X10.03Y-3.73
X10.1204Y-4.4796
X10.21Y-2.23
X10.39Y-2.98
X10.77Y-1.48
X10.78Y-4.055
X10.96Y-2.23
X10.97Y-4.48
X11.2504Y-3.7296
X11.4304Y-2.9796
X11.6104Y-1.4796
X11.71Y-2.23
X11.72Y-4.055
X11.72Y-4.48
X13.22Y-1.49
X13.22Y-2.24
X13.22Y-2.99
X13.22Y-3.74
X13.22Y-4.49
X13.97Y-1.49
X13.97Y-2.24
X13.97Y-2.99
X13.97Y-3.74
X13.97Y-4.49
X14.72Y-1.49
X14.72Y-2.24
X14.72Y-2.99
X14.72Y-3.74
X14.72Y-4.49
X15.47Y-1.49
X15.47Y-2.24
X15.47Y-2.99
X15.47Y-3.74
X15.47Y-4.49
T2
G00X1.7995Y-1.661
M15
G01X1.7405Y-1.661
M16
G05
G00X1.7995Y-4.6625
M15
G01X1.7405Y-4.6625
M16
G05
G00X1.8895Y-2.4111
M15
G01X1.8305Y-2.4111
M16
G05
G00X1.9845Y-3.1511
M15
G01X1.9255Y-3.1511
M16
G05
G00X2.1845Y-3.945
M15
G01X2.1255Y-3.945
M16
G05
G00X2.5495Y-1.6611
M15
G01X2.4905Y-1.6611
M16
G05
G00X2.5495Y-4.6575
M15
G01X2.4905Y-4.6575
M16
G05
G00X2.7385Y-2.4111
M15
G01X2.6795Y-2.4111
M16
G05
G00X2.9295Y-3.1611
M15
G01X2.8705Y-3.1611
M16
G05
G00X3.2995Y-1.661
M15
G01X3.2405Y-1.661
M16
G05
G00X3.3095Y-3.9101
M15
G01X3.2505Y-3.9101
M16
G05
G00X3.4895Y-2.4101
M15
G01X3.4305Y-2.4101
M16
G05
G00X3.4945Y-4.6911
M15
G01X3.4355Y-4.6911
M16
G05
G00X3.6795Y-3.1611
M15
G01X3.6205Y-3.1611
M16
G05
G00X4.0495Y-1.662
M15
G01X3.9905Y-1.662
M16
G05
G00X4.0595Y-3.9101
M15
G01X4.0005Y-3.9101
M16
G05
G00X4.2395Y-2.4081
M15
G01X4.1805Y-2.4081
M16
G05
G00X4.4285Y-3.1601
M15
G01X4.3695Y-3.1601
M16
G05
G00X4.4295Y-4.6615
M15
G01X4.3705Y-4.6615
M16
G05
G00X4.7995Y-1.6611
M15
G01X4.7405Y-1.6611
M16
G05
G00X4.8095Y-3.9111
M15
G01X4.7505Y-3.9111
M16
G05
G00X4.9885Y-2.4085
M15
G01X4.9295Y-2.4085
M16
G05
G00X5.1795Y-3.1611
M15
G01X5.1205Y-3.1611
M16
G05
G00X5.5495Y-1.6601
M15
G01X5.4905Y-1.6601
M16
G05
G00X5.5595Y-3.9111
M15
G01X5.5005Y-3.9111
M16
G05
G00X5.6505Y-4.6805
M15
G01X5.5915Y-4.6805
M16
G05
G00X5.7395Y-2.4095
M15
G01X5.6805Y-2.4095
M16
G05
G00X5.9205Y-3.1611
M15
G01X5.8615Y-3.1611
M16
G05
G00X6.3005Y-1.6611
M15
G01X6.2415Y-1.6611
M16
G05
G00X6.3085Y-3.9111
M15
G01X6.2495Y-3.9111
M16
G05
G00X6.4895Y-2.4091
M15
G01X6.4305Y-2.4091
M16
G05
G00X6.6705Y-3.162
M15
G01X6.6115Y-3.162
M16
G05
G00X6.8705Y-4.6611
M15
G01X6.8115Y-4.6611
M16
G05
G00X7.0495Y-1.6611
M15
G01X6.9905Y-1.6611
M16
G05
G00X7.0595Y-3.9111
M15
G01X7.0005Y-3.9111
M16
G05
G00X7.2405Y-2.4095
M15
G01X7.1815Y-2.4095
M16
G05
G00X7.4195Y-3.1615
M15
G01X7.3605Y-3.1615
M16
G05
G00X7.6195Y-4.6595
M15
G01X7.5605Y-4.6595
M16
G05
G00X7.7985Y-1.6611
M15
G01X7.7395Y-1.6611
M16
G05
G00X7.8095Y-3.9101
M15
G01X7.7505Y-3.9101
M16
G05
G00X7.9905Y-2.4075
M15
G01X7.9315Y-2.4075
M16
G05
G00X8.1685Y-3.162
M15
G01X8.1095Y-3.162
M16
G05
G00X8.5495Y-1.6611
M15
G01X8.4905Y-1.6611
M16
G05
G00X8.5585Y-3.9111
M15
G01X8.4995Y-3.9111
M16
G05
G00X8.7395Y-2.4085
M15
G01X8.6805Y-2.4085
M16
G05
G00X8.8475Y-4.687
M15
G01X8.7885Y-4.687
M16
G05
G00X8.9205Y-3.1601
M15
G01X8.8615Y-3.1601
M16
G05
G00X9.3005Y-1.6601
M15
G01X9.2415Y-1.6601
M16
G05
G00X9.3095Y-3.9111
M15
G01X9.2505Y-3.9111
M16
G05
G00X9.4895Y-2.4105
M15
G01X9.4305Y-2.4105
M16
G05
G00X9.6695Y-3.1611
M15
G01X9.6105Y-3.1611
M16
G05
G00X10.0495Y-1.6611
M15
G01X9.9905Y-1.6611
M16
G05
G00X10.0595Y-3.9101
M15
G01X10.0005Y-3.9101
M16
G05
G00X10.1495Y-4.6835
M15
G01X10.0905Y-4.6835
M16
G05
G00X10.2395Y-2.4095
M15
G01X10.1805Y-2.4095
M16
G05
G00X10.4195Y-3.1605
M15
G01X10.3605Y-3.1605
M16
G05
G00X10.7985Y-1.662
M15
G01X10.7395Y-1.662
M16
G05
G00X10.9895Y-2.4105
M15
G01X10.9305Y-2.4105
M16
G05
G00X10.9995Y-4.6611
M15
G01X10.9405Y-4.6611
M16
G05
G00X11.2745Y-3.9361
M15
G01X11.2155Y-3.9361
M16
G05
G00X11.4615Y-3.1775
M15
G01X11.4025Y-3.1775
M16
G05
G00X11.6495Y-1.6891
M15
G01X11.5905Y-1.6891
M16
G05
G00X11.7395Y-2.4105
M15
G01X11.6805Y-2.4105
M16
G05
G00X11.7505Y-4.6615
M15
G01X11.6915Y-4.6615
M16
G05
G00X13.2475Y-3.9195
M15
G01X13.1885Y-3.9195
M16
G05
G00X13.2485Y-1.6711
M15
G01X13.1895Y-1.6711
M16
G05
G00X13.2495Y-2.4211
M15
G01X13.1905Y-2.4211
M16
G05
G00X13.2495Y-4.6695
M15
G01X13.1905Y-4.6695
M16
G05
G00X13.2515Y-3.1695
M15
G01X13.1925Y-3.1695
M16
G05
G00X13.9995Y-1.6711
M15
G01X13.9405Y-1.6711
M16
G05
G00X13.9995Y-3.9185
M15
G01X13.9405Y-3.9185
M16
G05
G00X13.9995Y-4.6695
M15
G01X13.9405Y-4.6695
M16
G05
G00X14.0005Y-2.4201
M15
G01X13.9415Y-2.4201
M16
G05
G00X14.0005Y-3.1715
M15
G01X13.9415Y-3.1715
M16
G05
G00X14.7485Y-1.672
M15
G01X14.6895Y-1.672
M16
G05
G00X14.7495Y-3.1705
M15
G01X14.6905Y-3.1705
M16
G05
G00X14.7495Y-3.9215
M15
G01X14.6905Y-3.9215
M16
G05
G00X14.7495Y-4.6685
M15
G01X14.6905Y-4.6685
M16
G05
G00X14.7505Y-2.4201
M15
G01X14.6915Y-2.4201
M16
G05
G00X15.4975Y-3.1701
M15
G01X15.4385Y-3.1701
M16
G05
G00X15.4975Y-3.9195
M15
G01X15.4385Y-3.9195
M16
G05
G00X15.4985Y-4.6685
M15
G01X15.4395Y-4.6685
M16
G05
G00X15.5005Y-1.6701
M15
G01X15.4415Y-1.6701
M16
G05
G00X15.5005Y-2.4201
M15
G01X15.4415Y-2.4201
M16
G05
T0
M30
