  0
SECTION
  2
HEADER
  9
$ANGBASE
  50
0.0
  9
$ANGDIR
  70
1
  9
$MEASUREMENT
  70
1
  0
ENDSEC
  0
SECTION
  2
TABLES
  0
TABLE
  2
LTYPE
  70
4
  0
LTYPE
  5
40F
  2
CONTINUOUS
  70
0
  3
Solid line
  72
65
  73
0
  40
0.0
  0
LTYPE
  5
410
  2
DASHDOT
 70
0
  3
Dash Dot ____ _ ____ _
 72
65
 73
4
 40
2.0
 49
1.25
 49
-0.25
 49
0.25
 49
-0.25
  0
LTYPE
  5
411
  2
DASHED
 70
0
  3
Dashed __ __ __ __ __
 72
65
 73
2
 40
0.75
 49
0.5
 49
-0.25
  0
LTYPE
  5
43B
  2
DOTTED
 70
0
  3
Dotted .  .  .  .
 72
65
 73
2
 40
0.2
 49
0.0
 49
-0.2
  0
ENDTAB
  0
TABLE
  2
STYLE
  70
4
  0
STYLE
  2
KICAD
  70
0
  40
0
  41
1
  42
1
  50
0
  71
0
  3
isocp.shx
  0
STYLE
  2
KICADB
  70
0
  40
0
  41
1
  42
1
  50
0
  71
0
  3
isocp.shx
  0
STYLE
  2
KICADI
  70
0
  40
0
  41
1
  42
1
  50
15
  71
0
  3
isocp.shx
  0
STYLE
  2
KICADBI
  70
0
  40
0
  41
1
  42
1
  50
15
  71
0
  3
isocp.shx
  0
ENDTAB
  0
TABLE
  2
LAYER
  70
1
  0
LAYER
  2
BLACK
  70
0
  62
7
  6
CONTINUOUS
  0
ENDTAB
  0
ENDSEC
  0
SECTION
  2
ENTITIES
0
LINE
8
BLACK
6
CONTINUOUS
10
319.207
20
-91.638
11
310.967
21
-91.638
0
LINE
8
BLACK
6
CONTINUOUS
10
319.207
20
-99.878
11
319.207
21
-91.638
0
LINE
8
BLACK
6
CONTINUOUS
10
310.967
20
-99.878
11
319.207
21
-99.878
0
LINE
8
BLACK
6
CONTINUOUS
10
310.967
20
-91.638
11
310.967
21
-99.878
0
LINE
8
BLACK
6
CONTINUOUS
10
160.588
20
-118.333
11
160.588
21
-120.833
0
LINE
8
BLACK
6
CONTINUOUS
10
160.588
20
-120.833
11
163.618
21
-120.833
0
LINE
8
BLACK
6
CONTINUOUS
10
163.618
20
-120.833
11
163.618
21
-118.333
0
LINE
8
BLACK
6
CONTINUOUS
10
163.613
20
-118.333
11
160.588
21
-118.333
0
LINE
8
BLACK
6
CONTINUOUS
10
316.131
20
-38.8029
11
316.131
21
-40.6229
0
LINE
8
BLACK
6
CONTINUOUS
10
315.211
20
-38.8029
11
316.131
21
-38.8029
0
LINE
8
BLACK
6
CONTINUOUS
10
315.211
20
-40.6229
11
315.211
21
-38.8029
0
LINE
8
BLACK
6
CONTINUOUS
10
316.131
20
-40.6229
11
315.211
21
-40.6229
0
LINE
8
BLACK
6
CONTINUOUS
10
177.758
20
-117.969
11
177.758
21
-120.469
0
LINE
8
BLACK
6
CONTINUOUS
10
177.758
20
-120.469
11
180.788
21
-120.469
0
LINE
8
BLACK
6
CONTINUOUS
10
180.788
20
-120.469
11
180.788
21
-117.969
0
LINE
8
BLACK
6
CONTINUOUS
10
180.783
20
-117.969
11
177.758
21
-117.969
0
LINE
8
BLACK
6
CONTINUOUS
10
139.201
20
-118.13
11
139.201
21
-120.63
0
LINE
8
BLACK
6
CONTINUOUS
10
139.201
20
-120.63
11
142.231
21
-120.63
0
LINE
8
BLACK
6
CONTINUOUS
10
142.231
20
-120.63
11
142.231
21
-118.13
0
LINE
8
BLACK
6
CONTINUOUS
10
142.226
20
-118.13
11
139.201
21
-118.13
0
LINE
8
BLACK
6
CONTINUOUS
10
195.03
20
-117.774
11
195.03
21
-120.274
0
LINE
8
BLACK
6
CONTINUOUS
10
195.03
20
-120.274
11
198.06
21
-120.274
0
LINE
8
BLACK
6
CONTINUOUS
10
198.06
20
-120.274
11
198.06
21
-117.774
0
LINE
8
BLACK
6
CONTINUOUS
10
198.055
20
-117.774
11
195.03
21
-117.774
0
LINE
8
BLACK
6
CONTINUOUS
10
118.627
20
-118.13
11
118.627
21
-120.63
0
LINE
8
BLACK
6
CONTINUOUS
10
118.627
20
-120.63
11
121.657
21
-120.63
0
LINE
8
BLACK
6
CONTINUOUS
10
121.657
20
-120.63
11
121.657
21
-118.13
0
LINE
8
BLACK
6
CONTINUOUS
10
121.652
20
-118.13
11
118.627
21
-118.13
0
LINE
8
BLACK
6
CONTINUOUS
10
316.131
20
-34.5802
11
316.131
21
-36.4002
0
LINE
8
BLACK
6
CONTINUOUS
10
315.211
20
-34.5802
11
316.131
21
-34.5802
0
LINE
8
BLACK
6
CONTINUOUS
10
315.211
20
-36.4002
11
315.211
21
-34.5802
0
LINE
8
BLACK
6
CONTINUOUS
10
316.131
20
-36.4002
11
315.211
21
-36.4002
0
LINE
8
BLACK
6
CONTINUOUS
10
316.131
20
-45.137
11
316.131
21
-46.957
0
LINE
8
BLACK
6
CONTINUOUS
10
315.211
20
-45.137
11
316.131
21
-45.137
0
LINE
8
BLACK
6
CONTINUOUS
10
315.211
20
-46.957
11
315.211
21
-45.137
0
LINE
8
BLACK
6
CONTINUOUS
10
316.131
20
-46.957
11
315.211
21
-46.957
0
LINE
8
BLACK
6
CONTINUOUS
10
316.131
20
-19.8005
11
316.131
21
-21.6205
0
LINE
8
BLACK
6
CONTINUOUS
10
315.211
20
-19.8005
11
316.131
21
-19.8005
0
LINE
8
BLACK
6
CONTINUOUS
10
315.211
20
-21.6205
11
315.211
21
-19.8005
0
LINE
8
BLACK
6
CONTINUOUS
10
316.131
20
-21.6205
11
315.211
21
-21.6205
0
LINE
8
BLACK
6
CONTINUOUS
10
316.131
20
-43.0257
11
316.131
21
-44.8457
0
LINE
8
BLACK
6
CONTINUOUS
10
315.211
20
-43.0257
11
316.131
21
-43.0257
0
LINE
8
BLACK
6
CONTINUOUS
10
315.211
20
-44.8457
11
315.211
21
-43.0257
0
LINE
8
BLACK
6
CONTINUOUS
10
316.131
20
-44.8457
11
315.211
21
-44.8457
0
LINE
8
BLACK
6
CONTINUOUS
10
367.649
20
-23.0324
11
367.649
21
-25.5324
0
LINE
8
BLACK
6
CONTINUOUS
10
367.649
20
-25.5324
11
370.679
21
-25.5324
0
LINE
8
BLACK
6
CONTINUOUS
10
370.679
20
-25.5324
11
370.679
21
-23.0324
0
LINE
8
BLACK
6
CONTINUOUS
10
370.674
20
-23.0324
11
367.649
21
-23.0324
0
LINE
8
BLACK
6
CONTINUOUS
10
316.131
20
-21.9119
11
316.131
21
-23.7319
0
LINE
8
BLACK
6
CONTINUOUS
10
315.211
20
-21.9119
11
316.131
21
-21.9119
0
LINE
8
BLACK
6
CONTINUOUS
10
315.211
20
-23.7319
11
315.211
21
-21.9119
0
LINE
8
BLACK
6
CONTINUOUS
10
316.131
20
-23.7319
11
315.211
21
-23.7319
0
LINE
8
BLACK
6
CONTINUOUS
10
348.752
20
-22.9904
11
348.752
21
-25.4904
0
LINE
8
BLACK
6
CONTINUOUS
10
348.752
20
-25.4904
11
351.782
21
-25.4904
0
LINE
8
BLACK
6
CONTINUOUS
10
351.782
20
-25.4904
11
351.782
21
-22.9904
0
LINE
8
BLACK
6
CONTINUOUS
10
351.777
20
-22.9904
11
348.752
21
-22.9904
0
LINE
8
BLACK
6
CONTINUOUS
10
267.472
20
-22.9904
11
267.472
21
-25.4904
0
LINE
8
BLACK
6
CONTINUOUS
10
267.472
20
-25.4904
11
270.502
21
-25.4904
0
LINE
8
BLACK
6
CONTINUOUS
10
270.502
20
-25.4904
11
270.502
21
-22.9904
0
LINE
8
BLACK
6
CONTINUOUS
10
270.497
20
-22.9904
11
267.472
21
-22.9904
0
LINE
8
BLACK
6
CONTINUOUS
10
329.651
20
-22.9904
11
329.651
21
-25.4904
0
LINE
8
BLACK
6
CONTINUOUS
10
329.651
20
-25.4904
11
332.681
21
-25.4904
0
LINE
8
BLACK
6
CONTINUOUS
10
332.681
20
-25.4904
11
332.681
21
-22.9904
0
LINE
8
BLACK
6
CONTINUOUS
10
332.676
20
-22.9904
11
329.651
21
-22.9904
0
LINE
8
BLACK
6
CONTINUOUS
10
286.522
20
-22.9904
11
286.522
21
-25.4904
0
LINE
8
BLACK
6
CONTINUOUS
10
286.522
20
-25.4904
11
289.552
21
-25.4904
0
LINE
8
BLACK
6
CONTINUOUS
10
289.552
20
-25.4904
11
289.552
21
-22.9904
0
LINE
8
BLACK
6
CONTINUOUS
10
289.547
20
-22.9904
11
286.522
21
-22.9904
0
LINE
8
BLACK
6
CONTINUOUS
10
210.322
20
-23.0412
11
210.322
21
-25.5412
0
LINE
8
BLACK
6
CONTINUOUS
10
210.322
20
-25.5412
11
213.352
21
-25.5412
0
LINE
8
BLACK
6
CONTINUOUS
10
213.352
20
-25.5412
11
213.352
21
-23.0412
0
LINE
8
BLACK
6
CONTINUOUS
10
213.347
20
-23.0412
11
210.322
21
-23.0412
0
LINE
8
BLACK
6
CONTINUOUS
10
305.724
20
-22.9396
11
305.724
21
-25.4396
0
LINE
8
BLACK
6
CONTINUOUS
10
305.724
20
-25.4396
11
308.754
21
-25.4396
0
LINE
8
BLACK
6
CONTINUOUS
10
308.754
20
-25.4396
11
308.754
21
-22.9396
0
LINE
8
BLACK
6
CONTINUOUS
10
308.749
20
-22.9396
11
305.724
21
-22.9396
0
LINE
8
BLACK
6
CONTINUOUS
10
229.372
20
-22.9396
11
229.372
21
-25.4396
0
LINE
8
BLACK
6
CONTINUOUS
10
229.372
20
-25.4396
11
232.402
21
-25.4396
0
LINE
8
BLACK
6
CONTINUOUS
10
232.402
20
-25.4396
11
232.402
21
-22.9396
0
LINE
8
BLACK
6
CONTINUOUS
10
232.397
20
-22.9396
11
229.372
21
-22.9396
0
LINE
8
BLACK
6
CONTINUOUS
10
248.472
20
-22.9728
11
248.472
21
-25.4728
0
LINE
8
BLACK
6
CONTINUOUS
10
248.472
20
-25.4728
11
251.502
21
-25.4728
0
LINE
8
BLACK
6
CONTINUOUS
10
251.502
20
-25.4728
11
251.502
21
-22.9728
0
LINE
8
BLACK
6
CONTINUOUS
10
251.497
20
-22.9728
11
248.472
21
-22.9728
0
LINE
8
BLACK
6
CONTINUOUS
10
316.131
20
-30.3574
11
316.131
21
-32.1774
0
LINE
8
BLACK
6
CONTINUOUS
10
315.211
20
-30.3574
11
316.131
21
-30.3574
0
LINE
8
BLACK
6
CONTINUOUS
10
315.211
20
-32.1774
11
315.211
21
-30.3574
0
LINE
8
BLACK
6
CONTINUOUS
10
316.131
20
-32.1774
11
315.211
21
-32.1774
0
LINE
8
BLACK
6
CONTINUOUS
10
316.131
20
-15.5778
11
316.131
21
-17.3978
0
LINE
8
BLACK
6
CONTINUOUS
10
315.211
20
-15.5778
11
316.131
21
-15.5778
0
LINE
8
BLACK
6
CONTINUOUS
10
315.211
20
-17.3978
11
315.211
21
-15.5778
0
LINE
8
BLACK
6
CONTINUOUS
10
316.131
20
-17.3978
11
315.211
21
-17.3978
0
LINE
8
BLACK
6
CONTINUOUS
10
316.131
20
-17.6892
11
316.131
21
-19.5092
0
LINE
8
BLACK
6
CONTINUOUS
10
315.211
20
-17.6892
11
316.131
21
-17.6892
0
LINE
8
BLACK
6
CONTINUOUS
10
315.211
20
-19.5092
11
315.211
21
-17.6892
0
LINE
8
BLACK
6
CONTINUOUS
10
316.131
20
-19.5092
11
315.211
21
-19.5092
0
LINE
8
BLACK
6
CONTINUOUS
10
316.131
20
-24.0233
11
316.131
21
-25.8433
0
LINE
8
BLACK
6
CONTINUOUS
10
315.211
20
-24.0233
11
316.131
21
-24.0233
0
LINE
8
BLACK
6
CONTINUOUS
10
315.211
20
-25.8433
11
315.211
21
-24.0233
0
LINE
8
BLACK
6
CONTINUOUS
10
316.131
20
-25.8433
11
315.211
21
-25.8433
0
LINE
8
BLACK
6
CONTINUOUS
10
316.131
20
-13.4664
11
316.131
21
-15.2864
0
LINE
8
BLACK
6
CONTINUOUS
10
315.211
20
-13.4664
11
316.131
21
-13.4664
0
LINE
8
BLACK
6
CONTINUOUS
10
315.211
20
-15.2864
11
315.211
21
-13.4664
0
LINE
8
BLACK
6
CONTINUOUS
10
316.131
20
-15.2864
11
315.211
21
-15.2864
0
LINE
8
BLACK
6
CONTINUOUS
10
315.979
20
-47.2484
11
315.979
21
-49.0684
0
LINE
8
BLACK
6
CONTINUOUS
10
315.059
20
-47.2484
11
315.979
21
-47.2484
0
LINE
8
BLACK
6
CONTINUOUS
10
315.059
20
-49.0684
11
315.059
21
-47.2484
0
LINE
8
BLACK
6
CONTINUOUS
10
315.979
20
-49.0684
11
315.059
21
-49.0684
0
LINE
8
BLACK
6
CONTINUOUS
10
316.131
20
-32.4688
11
316.131
21
-34.2888
0
LINE
8
BLACK
6
CONTINUOUS
10
315.211
20
-32.4688
11
316.131
21
-32.4688
0
LINE
8
BLACK
6
CONTINUOUS
10
315.211
20
-34.2888
11
315.211
21
-32.4688
0
LINE
8
BLACK
6
CONTINUOUS
10
316.131
20
-34.2888
11
315.211
21
-34.2888
0
LINE
8
BLACK
6
CONTINUOUS
10
316.131
20
-40.9143
11
316.131
21
-42.7343
0
LINE
8
BLACK
6
CONTINUOUS
10
315.211
20
-40.9143
11
316.131
21
-40.9143
0
LINE
8
BLACK
6
CONTINUOUS
10
315.211
20
-42.7343
11
315.211
21
-40.9143
0
LINE
8
BLACK
6
CONTINUOUS
10
316.131
20
-42.7343
11
315.211
21
-42.7343
0
LINE
8
BLACK
6
CONTINUOUS
10
185.985
20
-46.0056
11
185.985
21
-48.3056
0
LINE
8
BLACK
6
CONTINUOUS
10
190.685
20
-48.3056
11
185.985
21
-48.3056
0
LINE
8
BLACK
6
CONTINUOUS
10
190.685
20
-46.0056
11
190.685
21
-48.3056
0
LINE
8
BLACK
6
CONTINUOUS
10
185.985
20
-46.0056
11
190.685
21
-46.0056
0
LINE
8
BLACK
6
CONTINUOUS
10
115.172
20
-46.0056
11
115.172
21
-48.3056
0
LINE
8
BLACK
6
CONTINUOUS
10
119.872
20
-48.3056
11
115.172
21
-48.3056
0
LINE
8
BLACK
6
CONTINUOUS
10
119.872
20
-46.0056
11
119.872
21
-48.3056
0
LINE
8
BLACK
6
CONTINUOUS
10
115.172
20
-46.0056
11
119.872
21
-46.0056
0
LINE
8
BLACK
6
CONTINUOUS
10
262.244
20
-46.0056
11
262.244
21
-48.3056
0
LINE
8
BLACK
6
CONTINUOUS
10
266.944
20
-48.3056
11
262.244
21
-48.3056
0
LINE
8
BLACK
6
CONTINUOUS
10
266.944
20
-46.0056
11
266.944
21
-48.3056
0
LINE
8
BLACK
6
CONTINUOUS
10
262.244
20
-46.0056
11
266.944
21
-46.0056
0
LINE
8
BLACK
6
CONTINUOUS
10
251.35
20
-46.0056
11
251.35
21
-48.3056
0
LINE
8
BLACK
6
CONTINUOUS
10
256.05
20
-48.3056
11
251.35
21
-48.3056
0
LINE
8
BLACK
6
CONTINUOUS
10
256.05
20
-46.0056
11
256.05
21
-48.3056
0
LINE
8
BLACK
6
CONTINUOUS
10
251.35
20
-46.0056
11
256.05
21
-46.0056
0
LINE
8
BLACK
6
CONTINUOUS
10
240.456
20
-46.0056
11
240.456
21
-48.3056
0
LINE
8
BLACK
6
CONTINUOUS
10
245.156
20
-48.3056
11
240.456
21
-48.3056
0
LINE
8
BLACK
6
CONTINUOUS
10
245.156
20
-46.0056
11
245.156
21
-48.3056
0
LINE
8
BLACK
6
CONTINUOUS
10
240.456
20
-46.0056
11
245.156
21
-46.0056
0
LINE
8
BLACK
6
CONTINUOUS
10
224.114
20
-46.0056
11
224.114
21
-48.3056
0
LINE
8
BLACK
6
CONTINUOUS
10
228.814
20
-48.3056
11
224.114
21
-48.3056
0
LINE
8
BLACK
6
CONTINUOUS
10
228.814
20
-46.0056
11
228.814
21
-48.3056
0
LINE
8
BLACK
6
CONTINUOUS
10
224.114
20
-46.0056
11
228.814
21
-46.0056
0
LINE
8
BLACK
6
CONTINUOUS
10
213.22
20
-46.0056
11
213.22
21
-48.3056
0
LINE
8
BLACK
6
CONTINUOUS
10
217.92
20
-48.3056
11
213.22
21
-48.3056
0
LINE
8
BLACK
6
CONTINUOUS
10
217.92
20
-46.0056
11
217.92
21
-48.3056
0
LINE
8
BLACK
6
CONTINUOUS
10
213.22
20
-46.0056
11
217.92
21
-46.0056
0
LINE
8
BLACK
6
CONTINUOUS
10
196.879
20
-46.0056
11
196.879
21
-48.3056
0
LINE
8
BLACK
6
CONTINUOUS
10
201.579
20
-48.3056
11
196.879
21
-48.3056
0
LINE
8
BLACK
6
CONTINUOUS
10
201.579
20
-46.0056
11
201.579
21
-48.3056
0
LINE
8
BLACK
6
CONTINUOUS
10
196.879
20
-46.0056
11
201.579
21
-46.0056
0
LINE
8
BLACK
6
CONTINUOUS
10
120.619
20
-46.0056
11
120.619
21
-48.3056
0
LINE
8
BLACK
6
CONTINUOUS
10
125.319
20
-48.3056
11
120.619
21
-48.3056
0
LINE
8
BLACK
6
CONTINUOUS
10
125.319
20
-46.0056
11
125.319
21
-48.3056
0
LINE
8
BLACK
6
CONTINUOUS
10
120.619
20
-46.0056
11
125.319
21
-46.0056
0
LINE
8
BLACK
6
CONTINUOUS
10
164.196
20
-46.0056
11
164.196
21
-48.3056
0
LINE
8
BLACK
6
CONTINUOUS
10
168.896
20
-48.3056
11
164.196
21
-48.3056
0
LINE
8
BLACK
6
CONTINUOUS
10
168.896
20
-46.0056
11
168.896
21
-48.3056
0
LINE
8
BLACK
6
CONTINUOUS
10
164.196
20
-46.0056
11
168.896
21
-46.0056
0
LINE
8
BLACK
6
CONTINUOUS
10
93.3836
20
-46.0056
11
93.3836
21
-48.3056
0
LINE
8
BLACK
6
CONTINUOUS
10
98.0836
20
-48.3056
11
93.3836
21
-48.3056
0
LINE
8
BLACK
6
CONTINUOUS
10
98.0836
20
-46.0056
11
98.0836
21
-48.3056
0
LINE
8
BLACK
6
CONTINUOUS
10
93.3836
20
-46.0056
11
98.0836
21
-46.0056
0
LINE
8
BLACK
6
CONTINUOUS
10
126.066
20
-46.0056
11
126.066
21
-48.3056
0
LINE
8
BLACK
6
CONTINUOUS
10
130.766
20
-48.3056
11
126.066
21
-48.3056
0
LINE
8
BLACK
6
CONTINUOUS
10
130.766
20
-46.0056
11
130.766
21
-48.3056
0
LINE
8
BLACK
6
CONTINUOUS
10
126.066
20
-46.0056
11
130.766
21
-46.0056
0
LINE
8
BLACK
6
CONTINUOUS
10
104.278
20
-46.0056
11
104.278
21
-48.3056
0
LINE
8
BLACK
6
CONTINUOUS
10
108.978
20
-48.3056
11
104.278
21
-48.3056
0
LINE
8
BLACK
6
CONTINUOUS
10
108.978
20
-46.0056
11
108.978
21
-48.3056
0
LINE
8
BLACK
6
CONTINUOUS
10
104.278
20
-46.0056
11
108.978
21
-46.0056
0
LINE
8
BLACK
6
CONTINUOUS
10
136.961
20
-46.0056
11
136.961
21
-48.3056
0
LINE
8
BLACK
6
CONTINUOUS
10
141.661
20
-48.3056
11
136.961
21
-48.3056
0
LINE
8
BLACK
6
CONTINUOUS
10
141.661
20
-46.0056
11
141.661
21
-48.3056
0
LINE
8
BLACK
6
CONTINUOUS
10
136.961
20
-46.0056
11
141.661
21
-46.0056
0
LINE
8
BLACK
6
CONTINUOUS
10
273.138
20
-46.0056
11
273.138
21
-48.3056
0
LINE
8
BLACK
6
CONTINUOUS
10
277.838
20
-48.3056
11
273.138
21
-48.3056
0
LINE
8
BLACK
6
CONTINUOUS
10
277.838
20
-46.0056
11
277.838
21
-48.3056
0
LINE
8
BLACK
6
CONTINUOUS
10
273.138
20
-46.0056
11
277.838
21
-46.0056
0
LINE
8
BLACK
6
CONTINUOUS
10
176.41
20
-84.2072
11
176.41
21
-86.5072
0
LINE
8
BLACK
6
CONTINUOUS
10
181.11
20
-86.5072
11
176.41
21
-86.5072
0
LINE
8
BLACK
6
CONTINUOUS
10
181.11
20
-84.2072
11
181.11
21
-86.5072
0
LINE
8
BLACK
6
CONTINUOUS
10
176.41
20
-84.2072
11
181.11
21
-84.2072
0
LINE
8
BLACK
6
CONTINUOUS
10
229.561
20
-46.0056
11
229.561
21
-48.3056
0
LINE
8
BLACK
6
CONTINUOUS
10
234.261
20
-48.3056
11
229.561
21
-48.3056
0
LINE
8
BLACK
6
CONTINUOUS
10
234.261
20
-46.0056
11
234.261
21
-48.3056
0
LINE
8
BLACK
6
CONTINUOUS
10
229.561
20
-46.0056
11
234.261
21
-46.0056
0
LINE
8
BLACK
6
CONTINUOUS
10
147.855
20
-46.0056
11
147.855
21
-48.3056
0
LINE
8
BLACK
6
CONTINUOUS
10
152.555
20
-48.3056
11
147.855
21
-48.3056
0
LINE
8
BLACK
6
CONTINUOUS
10
152.555
20
-46.0056
11
152.555
21
-48.3056
0
LINE
8
BLACK
6
CONTINUOUS
10
147.855
20
-46.0056
11
152.555
21
-46.0056
0
LINE
8
BLACK
6
CONTINUOUS
10
134.006
20
-84.2072
11
134.006
21
-86.5072
0
LINE
8
BLACK
6
CONTINUOUS
10
138.706
20
-86.5072
11
134.006
21
-86.5072
0
LINE
8
BLACK
6
CONTINUOUS
10
138.706
20
-84.2072
11
138.706
21
-86.5072
0
LINE
8
BLACK
6
CONTINUOUS
10
134.006
20
-84.2072
11
138.706
21
-84.2072
0
LINE
8
BLACK
6
CONTINUOUS
10
256.797
20
-46.0056
11
256.797
21
-48.3056
0
LINE
8
BLACK
6
CONTINUOUS
10
261.497
20
-48.3056
11
256.797
21
-48.3056
0
LINE
8
BLACK
6
CONTINUOUS
10
261.497
20
-46.0056
11
261.497
21
-48.3056
0
LINE
8
BLACK
6
CONTINUOUS
10
256.797
20
-46.0056
11
261.497
21
-46.0056
0
LINE
8
BLACK
6
CONTINUOUS
10
81.0004
20
-84.2072
11
81.0004
21
-86.5072
0
LINE
8
BLACK
6
CONTINUOUS
10
85.7004
20
-86.5072
11
81.0004
21
-86.5072
0
LINE
8
BLACK
6
CONTINUOUS
10
85.7004
20
-84.2072
11
85.7004
21
-86.5072
0
LINE
8
BLACK
6
CONTINUOUS
10
81.0004
20
-84.2072
11
85.7004
21
-84.2072
0
LINE
8
BLACK
6
CONTINUOUS
10
202.326
20
-46.0056
11
202.326
21
-48.3056
0
LINE
8
BLACK
6
CONTINUOUS
10
207.026
20
-48.3056
11
202.326
21
-48.3056
0
LINE
8
BLACK
6
CONTINUOUS
10
207.026
20
-46.0056
11
207.026
21
-48.3056
0
LINE
8
BLACK
6
CONTINUOUS
10
202.326
20
-46.0056
11
207.026
21
-46.0056
0
LINE
8
BLACK
6
CONTINUOUS
10
155.208
20
-84.2072
11
155.208
21
-86.5072
0
LINE
8
BLACK
6
CONTINUOUS
10
159.908
20
-86.5072
11
155.208
21
-86.5072
0
LINE
8
BLACK
6
CONTINUOUS
10
159.908
20
-84.2072
11
159.908
21
-86.5072
0
LINE
8
BLACK
6
CONTINUOUS
10
155.208
20
-84.2072
11
159.908
21
-84.2072
0
LINE
8
BLACK
6
CONTINUOUS
10
245.903
20
-46.0056
11
245.903
21
-48.3056
0
LINE
8
BLACK
6
CONTINUOUS
10
250.603
20
-48.3056
11
245.903
21
-48.3056
0
LINE
8
BLACK
6
CONTINUOUS
10
250.603
20
-46.0056
11
250.603
21
-48.3056
0
LINE
8
BLACK
6
CONTINUOUS
10
245.903
20
-46.0056
11
250.603
21
-46.0056
0
LINE
8
BLACK
6
CONTINUOUS
10
229.415
20
-84.2072
11
229.415
21
-86.5072
0
LINE
8
BLACK
6
CONTINUOUS
10
234.115
20
-86.5072
11
229.415
21
-86.5072
0
LINE
8
BLACK
6
CONTINUOUS
10
234.115
20
-84.2072
11
234.115
21
-86.5072
0
LINE
8
BLACK
6
CONTINUOUS
10
229.415
20
-84.2072
11
234.115
21
-84.2072
0
LINE
8
BLACK
6
CONTINUOUS
10
235.009
20
-46.0056
11
235.009
21
-48.3056
0
LINE
8
BLACK
6
CONTINUOUS
10
239.709
20
-48.3056
11
235.009
21
-48.3056
0
LINE
8
BLACK
6
CONTINUOUS
10
239.709
20
-46.0056
11
239.709
21
-48.3056
0
LINE
8
BLACK
6
CONTINUOUS
10
235.009
20
-46.0056
11
239.709
21
-46.0056
0
LINE
8
BLACK
6
CONTINUOUS
10
218.667
20
-46.0056
11
218.667
21
-48.3056
0
LINE
8
BLACK
6
CONTINUOUS
10
223.367
20
-48.3056
11
218.667
21
-48.3056
0
LINE
8
BLACK
6
CONTINUOUS
10
223.367
20
-46.0056
11
223.367
21
-48.3056
0
LINE
8
BLACK
6
CONTINUOUS
10
218.667
20
-46.0056
11
223.367
21
-46.0056
0
LINE
8
BLACK
6
CONTINUOUS
10
70.3994
20
-84.2072
11
70.3994
21
-86.5072
0
LINE
8
BLACK
6
CONTINUOUS
10
75.0994
20
-86.5072
11
70.3994
21
-86.5072
0
LINE
8
BLACK
6
CONTINUOUS
10
75.0994
20
-84.2072
11
75.0994
21
-86.5072
0
LINE
8
BLACK
6
CONTINUOUS
10
70.3994
20
-84.2072
11
75.0994
21
-84.2072
0
LINE
8
BLACK
6
CONTINUOUS
10
362.922
20
-103.511
11
362.922
21
-105.811
0
LINE
8
BLACK
6
CONTINUOUS
10
367.622
20
-105.811
11
362.922
21
-105.811
0
LINE
8
BLACK
6
CONTINUOUS
10
367.622
20
-103.511
11
367.622
21
-105.811
0
LINE
8
BLACK
6
CONTINUOUS
10
362.922
20
-103.511
11
367.622
21
-103.511
0
LINE
8
BLACK
6
CONTINUOUS
10
144.607
20
-84.2072
11
144.607
21
-86.5072
0
LINE
8
BLACK
6
CONTINUOUS
10
149.307
20
-86.5072
11
144.607
21
-86.5072
0
LINE
8
BLACK
6
CONTINUOUS
10
149.307
20
-84.2072
11
149.307
21
-86.5072
0
LINE
8
BLACK
6
CONTINUOUS
10
144.607
20
-84.2072
11
149.307
21
-84.2072
0
LINE
8
BLACK
6
CONTINUOUS
10
171.109
20
-84.2072
11
171.109
21
-86.5072
0
LINE
8
BLACK
6
CONTINUOUS
10
175.809
20
-86.5072
11
171.109
21
-86.5072
0
LINE
8
BLACK
6
CONTINUOUS
10
175.809
20
-84.2072
11
175.809
21
-86.5072
0
LINE
8
BLACK
6
CONTINUOUS
10
171.109
20
-84.2072
11
175.809
21
-84.2072
0
LINE
8
BLACK
6
CONTINUOUS
10
202.912
20
-84.2072
11
202.912
21
-86.5072
0
LINE
8
BLACK
6
CONTINUOUS
10
207.612
20
-86.5072
11
202.912
21
-86.5072
0
LINE
8
BLACK
6
CONTINUOUS
10
207.612
20
-84.2072
11
207.612
21
-86.5072
0
LINE
8
BLACK
6
CONTINUOUS
10
202.912
20
-84.2072
11
207.612
21
-84.2072
0
LINE
8
BLACK
6
CONTINUOUS
10
123.405
20
-84.2072
11
123.405
21
-86.5072
0
LINE
8
BLACK
6
CONTINUOUS
10
128.105
20
-86.5072
11
123.405
21
-86.5072
0
LINE
8
BLACK
6
CONTINUOUS
10
128.105
20
-84.2072
11
128.105
21
-86.5072
0
LINE
8
BLACK
6
CONTINUOUS
10
123.405
20
-84.2072
11
128.105
21
-84.2072
0
LINE
8
BLACK
6
CONTINUOUS
10
341.72
20
-103.511
11
341.72
21
-105.811
0
LINE
8
BLACK
6
CONTINUOUS
10
346.42
20
-105.811
11
341.72
21
-105.811
0
LINE
8
BLACK
6
CONTINUOUS
10
346.42
20
-103.511
11
346.42
21
-105.811
0
LINE
8
BLACK
6
CONTINUOUS
10
341.72
20
-103.511
11
346.42
21
-103.511
0
LINE
8
BLACK
6
CONTINUOUS
10
218.814
20
-84.2072
11
218.814
21
-86.5072
0
LINE
8
BLACK
6
CONTINUOUS
10
223.514
20
-86.5072
11
218.814
21
-86.5072
0
LINE
8
BLACK
6
CONTINUOUS
10
223.514
20
-84.2072
11
223.514
21
-86.5072
0
LINE
8
BLACK
6
CONTINUOUS
10
218.814
20
-84.2072
11
223.514
21
-84.2072
0
LINE
8
BLACK
6
CONTINUOUS
10
352.321
20
-103.511
11
352.321
21
-105.811
0
LINE
8
BLACK
6
CONTINUOUS
10
357.021
20
-105.811
11
352.321
21
-105.811
0
LINE
8
BLACK
6
CONTINUOUS
10
357.021
20
-103.511
11
357.021
21
-105.811
0
LINE
8
BLACK
6
CONTINUOUS
10
352.321
20
-103.511
11
357.021
21
-103.511
0
LINE
8
BLACK
6
CONTINUOUS
10
66.1481
20
-46.0056
11
66.1481
21
-48.3056
0
LINE
8
BLACK
6
CONTINUOUS
10
70.8481
20
-48.3056
11
66.1481
21
-48.3056
0
LINE
8
BLACK
6
CONTINUOUS
10
70.8481
20
-46.0056
11
70.8481
21
-48.3056
0
LINE
8
BLACK
6
CONTINUOUS
10
66.1481
20
-46.0056
11
70.8481
21
-46.0056
0
LINE
8
BLACK
6
CONTINUOUS
10
197.612
20
-84.2072
11
197.612
21
-86.5072
0
LINE
8
BLACK
6
CONTINUOUS
10
202.312
20
-86.5072
11
197.612
21
-86.5072
0
LINE
8
BLACK
6
CONTINUOUS
10
202.312
20
-84.2072
11
202.312
21
-86.5072
0
LINE
8
BLACK
6
CONTINUOUS
10
197.612
20
-84.2072
11
202.312
21
-84.2072
0
LINE
8
BLACK
6
CONTINUOUS
10
208.213
20
-84.2072
11
208.213
21
-86.5072
0
LINE
8
BLACK
6
CONTINUOUS
10
212.913
20
-86.5072
11
208.213
21
-86.5072
0
LINE
8
BLACK
6
CONTINUOUS
10
212.913
20
-84.2072
11
212.913
21
-86.5072
0
LINE
8
BLACK
6
CONTINUOUS
10
208.213
20
-84.2072
11
212.913
21
-84.2072
0
LINE
8
BLACK
6
CONTINUOUS
10
261.218
20
-84.2072
11
261.218
21
-86.5072
0
LINE
8
BLACK
6
CONTINUOUS
10
265.918
20
-86.5072
11
261.218
21
-86.5072
0
LINE
8
BLACK
6
CONTINUOUS
10
265.918
20
-84.2072
11
265.918
21
-86.5072
0
LINE
8
BLACK
6
CONTINUOUS
10
261.218
20
-84.2072
11
265.918
21
-84.2072
0
LINE
8
BLACK
6
CONTINUOUS
10
44.1659
20
-46.0564
11
44.1659
21
-48.3564
0
LINE
8
BLACK
6
CONTINUOUS
10
48.8659
20
-48.3564
11
44.1659
21
-48.3564
0
LINE
8
BLACK
6
CONTINUOUS
10
48.8659
20
-46.0564
11
48.8659
21
-48.3564
0
LINE
8
BLACK
6
CONTINUOUS
10
44.1659
20
-46.0564
11
48.8659
21
-46.0564
0
LINE
8
BLACK
6
CONTINUOUS
10
331.119
20
-103.511
11
331.119
21
-105.811
0
LINE
8
BLACK
6
CONTINUOUS
10
335.819
20
-105.811
11
331.119
21
-105.811
0
LINE
8
BLACK
6
CONTINUOUS
10
335.819
20
-103.511
11
335.819
21
-105.811
0
LINE
8
BLACK
6
CONTINUOUS
10
331.119
20
-103.511
11
335.819
21
-103.511
0
LINE
8
BLACK
6
CONTINUOUS
10
261.834
20
-65.0932
11
261.834
21
-67.3932
0
LINE
8
BLACK
6
CONTINUOUS
10
266.534
20
-67.3932
11
261.834
21
-67.3932
0
LINE
8
BLACK
6
CONTINUOUS
10
266.534
20
-65.0932
11
266.534
21
-67.3932
0
LINE
8
BLACK
6
CONTINUOUS
10
261.834
20
-65.0932
11
266.534
21
-65.0932
0
LINE
8
BLACK
6
CONTINUOUS
10
86.3009
20
-84.2072
11
86.3009
21
-86.5072
0
LINE
8
BLACK
6
CONTINUOUS
10
91.0009
20
-86.5072
11
86.3009
21
-86.5072
0
LINE
8
BLACK
6
CONTINUOUS
10
91.0009
20
-84.2072
11
91.0009
21
-86.5072
0
LINE
8
BLACK
6
CONTINUOUS
10
86.3009
20
-84.2072
11
91.0009
21
-84.2072
0
LINE
8
BLACK
6
CONTINUOUS
10
91.6015
20
-84.2072
11
91.6015
21
-86.5072
0
LINE
8
BLACK
6
CONTINUOUS
10
96.3015
20
-86.5072
11
91.6015
21
-86.5072
0
LINE
8
BLACK
6
CONTINUOUS
10
96.3015
20
-84.2072
11
96.3015
21
-86.5072
0
LINE
8
BLACK
6
CONTINUOUS
10
91.6015
20
-84.2072
11
96.3015
21
-84.2072
0
LINE
8
BLACK
6
CONTINUOUS
10
82.4894
20
-46.0056
11
82.4894
21
-48.3056
0
LINE
8
BLACK
6
CONTINUOUS
10
87.1894
20
-48.3056
11
82.4894
21
-48.3056
0
LINE
8
BLACK
6
CONTINUOUS
10
87.1894
20
-46.0056
11
87.1894
21
-48.3056
0
LINE
8
BLACK
6
CONTINUOUS
10
82.4894
20
-46.0056
11
87.1894
21
-46.0056
0
LINE
8
BLACK
6
CONTINUOUS
10
165.809
20
-84.2072
11
165.809
21
-86.5072
0
LINE
8
BLACK
6
CONTINUOUS
10
170.509
20
-86.5072
11
165.809
21
-86.5072
0
LINE
8
BLACK
6
CONTINUOUS
10
170.509
20
-84.2072
11
170.509
21
-86.5072
0
LINE
8
BLACK
6
CONTINUOUS
10
165.809
20
-84.2072
11
170.509
21
-84.2072
0
LINE
8
BLACK
6
CONTINUOUS
10
102.202
20
-84.2072
11
102.202
21
-86.5072
0
LINE
8
BLACK
6
CONTINUOUS
10
106.902
20
-86.5072
11
102.202
21
-86.5072
0
LINE
8
BLACK
6
CONTINUOUS
10
106.902
20
-84.2072
11
106.902
21
-86.5072
0
LINE
8
BLACK
6
CONTINUOUS
10
102.202
20
-84.2072
11
106.902
21
-84.2072
0
LINE
8
BLACK
6
CONTINUOUS
10
128.705
20
-84.2072
11
128.705
21
-86.5072
0
LINE
8
BLACK
6
CONTINUOUS
10
133.405
20
-86.5072
11
128.705
21
-86.5072
0
LINE
8
BLACK
6
CONTINUOUS
10
133.405
20
-84.2072
11
133.405
21
-86.5072
0
LINE
8
BLACK
6
CONTINUOUS
10
128.705
20
-84.2072
11
133.405
21
-84.2072
0
LINE
8
BLACK
6
CONTINUOUS
10
266.518
20
-84.2072
11
266.518
21
-86.5072
0
LINE
8
BLACK
6
CONTINUOUS
10
271.218
20
-86.5072
11
266.518
21
-86.5072
0
LINE
8
BLACK
6
CONTINUOUS
10
271.218
20
-84.2072
11
271.218
21
-86.5072
0
LINE
8
BLACK
6
CONTINUOUS
10
266.518
20
-84.2072
11
271.218
21
-84.2072
0
LINE
8
BLACK
6
CONTINUOUS
10
112.804
20
-84.2072
11
112.804
21
-86.5072
0
LINE
8
BLACK
6
CONTINUOUS
10
117.504
20
-86.5072
11
112.804
21
-86.5072
0
LINE
8
BLACK
6
CONTINUOUS
10
117.504
20
-84.2072
11
117.504
21
-86.5072
0
LINE
8
BLACK
6
CONTINUOUS
10
112.804
20
-84.2072
11
117.504
21
-84.2072
0
LINE
8
BLACK
6
CONTINUOUS
10
71.5952
20
-46.0056
11
71.5952
21
-48.3056
0
LINE
8
BLACK
6
CONTINUOUS
10
76.2952
20
-48.3056
11
71.5952
21
-48.3056
0
LINE
8
BLACK
6
CONTINUOUS
10
76.2952
20
-46.0056
11
76.2952
21
-48.3056
0
LINE
8
BLACK
6
CONTINUOUS
10
71.5952
20
-46.0056
11
76.2952
21
-46.0056
0
LINE
8
BLACK
6
CONTINUOUS
10
325.818
20
-103.511
11
325.818
21
-105.811
0
LINE
8
BLACK
6
CONTINUOUS
10
330.518
20
-105.811
11
325.818
21
-105.811
0
LINE
8
BLACK
6
CONTINUOUS
10
330.518
20
-103.511
11
330.518
21
-105.811
0
LINE
8
BLACK
6
CONTINUOUS
10
325.818
20
-103.511
11
330.518
21
-103.511
0
LINE
8
BLACK
6
CONTINUOUS
10
336.419
20
-103.511
11
336.419
21
-105.811
0
LINE
8
BLACK
6
CONTINUOUS
10
341.119
20
-105.811
11
336.419
21
-105.811
0
LINE
8
BLACK
6
CONTINUOUS
10
341.119
20
-103.511
11
341.119
21
-105.811
0
LINE
8
BLACK
6
CONTINUOUS
10
336.419
20
-103.511
11
341.119
21
-103.511
0
LINE
8
BLACK
6
CONTINUOUS
10
149.907
20
-84.2072
11
149.907
21
-86.5072
0
LINE
8
BLACK
6
CONTINUOUS
10
154.607
20
-86.5072
11
149.907
21
-86.5072
0
LINE
8
BLACK
6
CONTINUOUS
10
154.607
20
-84.2072
11
154.607
21
-86.5072
0
LINE
8
BLACK
6
CONTINUOUS
10
149.907
20
-84.2072
11
154.607
21
-84.2072
0
LINE
8
BLACK
6
CONTINUOUS
10
250.617
20
-84.2072
11
250.617
21
-86.5072
0
LINE
8
BLACK
6
CONTINUOUS
10
255.317
20
-86.5072
11
250.617
21
-86.5072
0
LINE
8
BLACK
6
CONTINUOUS
10
255.317
20
-84.2072
11
255.317
21
-86.5072
0
LINE
8
BLACK
6
CONTINUOUS
10
250.617
20
-84.2072
11
255.317
21
-84.2072
0
LINE
8
BLACK
6
CONTINUOUS
10
49.8067
20
-46.0056
11
49.8067
21
-48.3056
0
LINE
8
BLACK
6
CONTINUOUS
10
54.5067
20
-48.3056
11
49.8067
21
-48.3056
0
LINE
8
BLACK
6
CONTINUOUS
10
54.5067
20
-46.0056
11
54.5067
21
-48.3056
0
LINE
8
BLACK
6
CONTINUOUS
10
49.8067
20
-46.0056
11
54.5067
21
-46.0056
0
LINE
8
BLACK
6
CONTINUOUS
10
347.02
20
-103.511
11
347.02
21
-105.811
0
LINE
8
BLACK
6
CONTINUOUS
10
351.72
20
-105.811
11
347.02
21
-105.811
0
LINE
8
BLACK
6
CONTINUOUS
10
351.72
20
-103.511
11
351.72
21
-105.811
0
LINE
8
BLACK
6
CONTINUOUS
10
347.02
20
-103.511
11
351.72
21
-103.511
0
LINE
8
BLACK
6
CONTINUOUS
10
255.917
20
-84.2072
11
255.917
21
-86.5072
0
LINE
8
BLACK
6
CONTINUOUS
10
260.617
20
-86.5072
11
255.917
21
-86.5072
0
LINE
8
BLACK
6
CONTINUOUS
10
260.617
20
-84.2072
11
260.617
21
-86.5072
0
LINE
8
BLACK
6
CONTINUOUS
10
255.917
20
-84.2072
11
260.617
21
-84.2072
0
LINE
8
BLACK
6
CONTINUOUS
10
187.011
20
-84.2072
11
187.011
21
-86.5072
0
LINE
8
BLACK
6
CONTINUOUS
10
191.711
20
-86.5072
11
187.011
21
-86.5072
0
LINE
8
BLACK
6
CONTINUOUS
10
191.711
20
-84.2072
11
191.711
21
-86.5072
0
LINE
8
BLACK
6
CONTINUOUS
10
187.011
20
-84.2072
11
191.711
21
-84.2072
0
LINE
8
BLACK
6
CONTINUOUS
10
368.222
20
-103.511
11
368.222
21
-105.811
0
LINE
8
BLACK
6
CONTINUOUS
10
372.922
20
-105.811
11
368.222
21
-105.811
0
LINE
8
BLACK
6
CONTINUOUS
10
372.922
20
-103.511
11
372.922
21
-105.811
0
LINE
8
BLACK
6
CONTINUOUS
10
368.222
20
-103.511
11
372.922
21
-103.511
0
LINE
8
BLACK
6
CONTINUOUS
10
224.114
20
-84.2072
11
224.114
21
-86.5072
0
LINE
8
BLACK
6
CONTINUOUS
10
228.814
20
-86.5072
11
224.114
21
-86.5072
0
LINE
8
BLACK
6
CONTINUOUS
10
228.814
20
-84.2072
11
228.814
21
-86.5072
0
LINE
8
BLACK
6
CONTINUOUS
10
224.114
20
-84.2072
11
228.814
21
-84.2072
0
LINE
8
BLACK
6
CONTINUOUS
10
77.0423
20
-46.0056
11
77.0423
21
-48.3056
0
LINE
8
BLACK
6
CONTINUOUS
10
81.7423
20
-48.3056
11
77.0423
21
-48.3056
0
LINE
8
BLACK
6
CONTINUOUS
10
81.7423
20
-46.0056
11
81.7423
21
-48.3056
0
LINE
8
BLACK
6
CONTINUOUS
10
77.0423
20
-46.0056
11
81.7423
21
-46.0056
0
LINE
8
BLACK
6
CONTINUOUS
10
240.016
20
-84.2072
11
240.016
21
-86.5072
0
LINE
8
BLACK
6
CONTINUOUS
10
244.716
20
-86.5072
11
240.016
21
-86.5072
0
LINE
8
BLACK
6
CONTINUOUS
10
244.716
20
-84.2072
11
244.716
21
-86.5072
0
LINE
8
BLACK
6
CONTINUOUS
10
240.016
20
-84.2072
11
244.716
21
-84.2072
0
LINE
8
BLACK
6
CONTINUOUS
10
234.715
20
-84.2072
11
234.715
21
-86.5072
0
LINE
8
BLACK
6
CONTINUOUS
10
239.415
20
-86.5072
11
234.715
21
-86.5072
0
LINE
8
BLACK
6
CONTINUOUS
10
239.415
20
-84.2072
11
239.415
21
-86.5072
0
LINE
8
BLACK
6
CONTINUOUS
10
234.715
20
-84.2072
11
239.415
21
-84.2072
0
LINE
8
BLACK
6
CONTINUOUS
10
213.513
20
-84.2072
11
213.513
21
-86.5072
0
LINE
8
BLACK
6
CONTINUOUS
10
218.213
20
-86.5072
11
213.513
21
-86.5072
0
LINE
8
BLACK
6
CONTINUOUS
10
218.213
20
-84.2072
11
218.213
21
-86.5072
0
LINE
8
BLACK
6
CONTINUOUS
10
213.513
20
-84.2072
11
218.213
21
-84.2072
0
LINE
8
BLACK
6
CONTINUOUS
10
160.508
20
-84.2072
11
160.508
21
-86.5072
0
LINE
8
BLACK
6
CONTINUOUS
10
165.208
20
-86.5072
11
160.508
21
-86.5072
0
LINE
8
BLACK
6
CONTINUOUS
10
165.208
20
-84.2072
11
165.208
21
-86.5072
0
LINE
8
BLACK
6
CONTINUOUS
10
160.508
20
-84.2072
11
165.208
21
-84.2072
0
LINE
8
BLACK
6
CONTINUOUS
10
87.9365
20
-46.0056
11
87.9365
21
-48.3056
0
LINE
8
BLACK
6
CONTINUOUS
10
92.6365
20
-48.3056
11
87.9365
21
-48.3056
0
LINE
8
BLACK
6
CONTINUOUS
10
92.6365
20
-46.0056
11
92.6365
21
-48.3056
0
LINE
8
BLACK
6
CONTINUOUS
10
87.9365
20
-46.0056
11
92.6365
21
-46.0056
0
LINE
8
BLACK
6
CONTINUOUS
10
357.621
20
-103.511
11
357.621
21
-105.811
0
LINE
8
BLACK
6
CONTINUOUS
10
362.321
20
-105.811
11
357.621
21
-105.811
0
LINE
8
BLACK
6
CONTINUOUS
10
362.321
20
-103.511
11
362.321
21
-105.811
0
LINE
8
BLACK
6
CONTINUOUS
10
357.621
20
-103.511
11
362.321
21
-103.511
0
LINE
8
BLACK
6
CONTINUOUS
10
180.537
20
-46.0056
11
180.537
21
-48.3056
0
LINE
8
BLACK
6
CONTINUOUS
10
185.237
20
-48.3056
11
180.537
21
-48.3056
0
LINE
8
BLACK
6
CONTINUOUS
10
185.237
20
-46.0056
11
185.237
21
-48.3056
0
LINE
8
BLACK
6
CONTINUOUS
10
180.537
20
-46.0056
11
185.237
21
-46.0056
0
LINE
8
BLACK
6
CONTINUOUS
10
139.306
20
-84.2072
11
139.306
21
-86.5072
0
LINE
8
BLACK
6
CONTINUOUS
10
144.006
20
-86.5072
11
139.306
21
-86.5072
0
LINE
8
BLACK
6
CONTINUOUS
10
144.006
20
-84.2072
11
144.006
21
-86.5072
0
LINE
8
BLACK
6
CONTINUOUS
10
139.306
20
-84.2072
11
144.006
21
-84.2072
0
LINE
8
BLACK
6
CONTINUOUS
10
33.5648
20
-46.0564
11
33.5648
21
-48.3564
0
LINE
8
BLACK
6
CONTINUOUS
10
38.2648
20
-48.3564
11
33.5648
21
-48.3564
0
LINE
8
BLACK
6
CONTINUOUS
10
38.2648
20
-46.0564
11
38.2648
21
-48.3564
0
LINE
8
BLACK
6
CONTINUOUS
10
33.5648
20
-46.0564
11
38.2648
21
-46.0564
0
LINE
8
BLACK
6
CONTINUOUS
10
181.71
20
-84.2072
11
181.71
21
-86.5072
0
LINE
8
BLACK
6
CONTINUOUS
10
186.41
20
-86.5072
11
181.71
21
-86.5072
0
LINE
8
BLACK
6
CONTINUOUS
10
186.41
20
-84.2072
11
186.41
21
-86.5072
0
LINE
8
BLACK
6
CONTINUOUS
10
181.71
20
-84.2072
11
186.41
21
-84.2072
0
LINE
8
BLACK
6
CONTINUOUS
10
169.643
20
-46.0056
11
169.643
21
-48.3056
0
LINE
8
BLACK
6
CONTINUOUS
10
174.343
20
-48.3056
11
169.643
21
-48.3056
0
LINE
8
BLACK
6
CONTINUOUS
10
174.343
20
-46.0056
11
174.343
21
-48.3056
0
LINE
8
BLACK
6
CONTINUOUS
10
169.643
20
-46.0056
11
174.343
21
-46.0056
0
LINE
8
BLACK
6
CONTINUOUS
10
118.104
20
-84.2072
11
118.104
21
-86.5072
0
LINE
8
BLACK
6
CONTINUOUS
10
122.804
20
-86.5072
11
118.104
21
-86.5072
0
LINE
8
BLACK
6
CONTINUOUS
10
122.804
20
-84.2072
11
122.804
21
-86.5072
0
LINE
8
BLACK
6
CONTINUOUS
10
118.104
20
-84.2072
11
122.804
21
-84.2072
0
LINE
8
BLACK
6
CONTINUOUS
10
38.8654
20
-46.0564
11
38.8654
21
-48.3564
0
LINE
8
BLACK
6
CONTINUOUS
10
43.5654
20
-48.3564
11
38.8654
21
-48.3564
0
LINE
8
BLACK
6
CONTINUOUS
10
43.5654
20
-46.0564
11
43.5654
21
-48.3564
0
LINE
8
BLACK
6
CONTINUOUS
10
38.8654
20
-46.0564
11
43.5654
21
-46.0564
0
LINE
8
BLACK
6
CONTINUOUS
10
192.311
20
-84.2072
11
192.311
21
-86.5072
0
LINE
8
BLACK
6
CONTINUOUS
10
197.011
20
-86.5072
11
192.311
21
-86.5072
0
LINE
8
BLACK
6
CONTINUOUS
10
197.011
20
-84.2072
11
197.011
21
-86.5072
0
LINE
8
BLACK
6
CONTINUOUS
10
192.311
20
-84.2072
11
197.011
21
-84.2072
0
LINE
8
BLACK
6
CONTINUOUS
10
107.503
20
-84.2072
11
107.503
21
-86.5072
0
LINE
8
BLACK
6
CONTINUOUS
10
112.203
20
-86.5072
11
107.503
21
-86.5072
0
LINE
8
BLACK
6
CONTINUOUS
10
112.203
20
-84.2072
11
112.203
21
-86.5072
0
LINE
8
BLACK
6
CONTINUOUS
10
107.503
20
-84.2072
11
112.203
21
-84.2072
0
LINE
8
BLACK
6
CONTINUOUS
10
245.316
20
-84.2072
11
245.316
21
-86.5072
0
LINE
8
BLACK
6
CONTINUOUS
10
250.016
20
-86.5072
11
245.316
21
-86.5072
0
LINE
8
BLACK
6
CONTINUOUS
10
250.016
20
-84.2072
11
250.016
21
-86.5072
0
LINE
8
BLACK
6
CONTINUOUS
10
245.316
20
-84.2072
11
250.016
21
-84.2072
0
LINE
8
BLACK
6
CONTINUOUS
10
60.701
20
-46.0056
11
60.701
21
-48.3056
0
LINE
8
BLACK
6
CONTINUOUS
10
65.401
20
-48.3056
11
60.701
21
-48.3056
0
LINE
8
BLACK
6
CONTINUOUS
10
65.401
20
-46.0056
11
65.401
21
-48.3056
0
LINE
8
BLACK
6
CONTINUOUS
10
60.701
20
-46.0056
11
65.401
21
-46.0056
0
LINE
8
BLACK
6
CONTINUOUS
10
75.6999
20
-84.2072
11
75.6999
21
-86.5072
0
LINE
8
BLACK
6
CONTINUOUS
10
80.3999
20
-86.5072
11
75.6999
21
-86.5072
0
LINE
8
BLACK
6
CONTINUOUS
10
80.3999
20
-84.2072
11
80.3999
21
-86.5072
0
LINE
8
BLACK
6
CONTINUOUS
10
75.6999
20
-84.2072
11
80.3999
21
-84.2072
0
LINE
8
BLACK
6
CONTINUOUS
10
55.2538
20
-46.0056
11
55.2538
21
-48.3056
0
LINE
8
BLACK
6
CONTINUOUS
10
59.9538
20
-48.3056
11
55.2538
21
-48.3056
0
LINE
8
BLACK
6
CONTINUOUS
10
59.9538
20
-46.0056
11
59.9538
21
-48.3056
0
LINE
8
BLACK
6
CONTINUOUS
10
55.2538
20
-46.0056
11
59.9538
21
-46.0056
0
LINE
8
BLACK
6
CONTINUOUS
10
96.902
20
-84.2072
11
96.902
21
-86.5072
0
LINE
8
BLACK
6
CONTINUOUS
10
101.602
20
-86.5072
11
96.902
21
-86.5072
0
LINE
8
BLACK
6
CONTINUOUS
10
101.602
20
-84.2072
11
101.602
21
-86.5072
0
LINE
8
BLACK
6
CONTINUOUS
10
96.902
20
-84.2072
11
101.602
21
-84.2072
0
LINE
8
BLACK
6
CONTINUOUS
10
267.691
20
-46.0056
11
267.691
21
-48.3056
0
LINE
8
BLACK
6
CONTINUOUS
10
272.391
20
-48.3056
11
267.691
21
-48.3056
0
LINE
8
BLACK
6
CONTINUOUS
10
272.391
20
-46.0056
11
272.391
21
-48.3056
0
LINE
8
BLACK
6
CONTINUOUS
10
267.691
20
-46.0056
11
272.391
21
-46.0056
0
LINE
8
BLACK
6
CONTINUOUS
10
267.652
20
-65.0932
11
267.652
21
-67.3932
0
LINE
8
BLACK
6
CONTINUOUS
10
272.352
20
-67.3932
11
267.652
21
-67.3932
0
LINE
8
BLACK
6
CONTINUOUS
10
272.352
20
-65.0932
11
272.352
21
-67.3932
0
LINE
8
BLACK
6
CONTINUOUS
10
267.652
20
-65.0932
11
272.352
21
-65.0932
0
LINE
8
BLACK
6
CONTINUOUS
10
207.773
20
-46.0056
11
207.773
21
-48.3056
0
LINE
8
BLACK
6
CONTINUOUS
10
212.473
20
-48.3056
11
207.773
21
-48.3056
0
LINE
8
BLACK
6
CONTINUOUS
10
212.473
20
-46.0056
11
212.473
21
-48.3056
0
LINE
8
BLACK
6
CONTINUOUS
10
207.773
20
-46.0056
11
212.473
21
-46.0056
0
LINE
8
BLACK
6
CONTINUOUS
10
191.432
20
-46.0056
11
191.432
21
-48.3056
0
LINE
8
BLACK
6
CONTINUOUS
10
196.132
20
-48.3056
11
191.432
21
-48.3056
0
LINE
8
BLACK
6
CONTINUOUS
10
196.132
20
-46.0056
11
196.132
21
-48.3056
0
LINE
8
BLACK
6
CONTINUOUS
10
191.432
20
-46.0056
11
196.132
21
-46.0056
0
LINE
8
BLACK
6
CONTINUOUS
10
175.09
20
-46.0056
11
175.09
21
-48.3056
0
LINE
8
BLACK
6
CONTINUOUS
10
179.79
20
-48.3056
11
175.09
21
-48.3056
0
LINE
8
BLACK
6
CONTINUOUS
10
179.79
20
-46.0056
11
179.79
21
-48.3056
0
LINE
8
BLACK
6
CONTINUOUS
10
175.09
20
-46.0056
11
179.79
21
-46.0056
0
LINE
8
BLACK
6
CONTINUOUS
10
158.749
20
-46.0056
11
158.749
21
-48.3056
0
LINE
8
BLACK
6
CONTINUOUS
10
163.449
20
-48.3056
11
158.749
21
-48.3056
0
LINE
8
BLACK
6
CONTINUOUS
10
163.449
20
-46.0056
11
163.449
21
-48.3056
0
LINE
8
BLACK
6
CONTINUOUS
10
158.749
20
-46.0056
11
163.449
21
-46.0056
0
LINE
8
BLACK
6
CONTINUOUS
10
142.408
20
-46.0056
11
142.408
21
-48.3056
0
LINE
8
BLACK
6
CONTINUOUS
10
147.108
20
-48.3056
11
142.408
21
-48.3056
0
LINE
8
BLACK
6
CONTINUOUS
10
147.108
20
-46.0056
11
147.108
21
-48.3056
0
LINE
8
BLACK
6
CONTINUOUS
10
142.408
20
-46.0056
11
147.108
21
-46.0056
0
LINE
8
BLACK
6
CONTINUOUS
10
98.831
20
-46.0056
11
98.831
21
-48.3056
0
LINE
8
BLACK
6
CONTINUOUS
10
103.531
20
-48.3056
11
98.831
21
-48.3056
0
LINE
8
BLACK
6
CONTINUOUS
10
103.531
20
-46.0056
11
103.531
21
-48.3056
0
LINE
8
BLACK
6
CONTINUOUS
10
98.831
20
-46.0056
11
103.531
21
-46.0056
0
LINE
8
BLACK
6
CONTINUOUS
10
153.302
20
-46.0056
11
153.302
21
-48.3056
0
LINE
8
BLACK
6
CONTINUOUS
10
158.002
20
-48.3056
11
153.302
21
-48.3056
0
LINE
8
BLACK
6
CONTINUOUS
10
158.002
20
-46.0056
11
158.002
21
-48.3056
0
LINE
8
BLACK
6
CONTINUOUS
10
153.302
20
-46.0056
11
158.002
21
-46.0056
0
LINE
8
BLACK
6
CONTINUOUS
10
131.513
20
-46.0056
11
131.513
21
-48.3056
0
LINE
8
BLACK
6
CONTINUOUS
10
136.213
20
-48.3056
11
131.513
21
-48.3056
0
LINE
8
BLACK
6
CONTINUOUS
10
136.213
20
-46.0056
11
136.213
21
-48.3056
0
LINE
8
BLACK
6
CONTINUOUS
10
131.513
20
-46.0056
11
136.213
21
-46.0056
0
LINE
8
BLACK
6
CONTINUOUS
10
109.725
20
-46.0056
11
109.725
21
-48.3056
0
LINE
8
BLACK
6
CONTINUOUS
10
114.425
20
-48.3056
11
109.725
21
-48.3056
0
LINE
8
BLACK
6
CONTINUOUS
10
114.425
20
-46.0056
11
114.425
21
-48.3056
0
LINE
8
BLACK
6
CONTINUOUS
10
109.725
20
-46.0056
11
114.425
21
-46.0056
0
LINE
8
BLACK
6
CONTINUOUS
10
324.445
20
-124.281
11
314.345
21
-124.281
0
LINE
8
BLACK
6
CONTINUOUS
10
324.445
20
-120.301
11
314.345
21
-120.301
0
LINE
8
BLACK
6
CONTINUOUS
10
324.455
20
-124.275
11
324.455
21
-120.301
0
LINE
8
BLACK
6
CONTINUOUS
10
314.355
20
-120.291
11
314.345
21
-124.281
0
LINE
8
BLACK
6
CONTINUOUS
10
316.932
20
-103.842
11
316.932
21
-117.442
0
LINE
8
BLACK
6
CONTINUOUS
10
322.132
20
-103.842
11
316.932
21
-103.842
0
LINE
8
BLACK
6
CONTINUOUS
10
322.132
20
-117.442
11
322.132
21
-103.842
0
LINE
8
BLACK
6
CONTINUOUS
10
316.932
20
-117.442
11
322.132
21
-117.442
0
LINE
8
BLACK
6
CONTINUOUS
10
324.762
20
-4.0876
11
324.772
21
-7.5876
0
LINE
8
BLACK
6
CONTINUOUS
10
323.222
20
-9.5876
11
324.772
21
-9.5876
0
LINE
8
BLACK
6
CONTINUOUS
10
324.772
20
-7.5876
11
323.222
21
-7.5876
0
LINE
8
BLACK
6
CONTINUOUS
10
323.222
20
-4.0876
11
324.762
21
-4.0876
0
LINE
8
BLACK
6
CONTINUOUS
10
312.972
20
-7.5876
11
312.972
21
-4.0876
0
LINE
8
BLACK
6
CONTINUOUS
10
312.972
20
-9.5876
11
314.522
21
-9.5876
0
LINE
8
BLACK
6
CONTINUOUS
10
314.522
20
-7.5876
11
312.972
21
-7.5876
0
LINE
8
BLACK
6
CONTINUOUS
10
312.972
20
-4.0876
11
314.522
21
-4.0876
0
LINE
8
BLACK
6
CONTINUOUS
10
314.522
20
-9.5876
11
314.522
21
-7.5876
0
LINE
8
BLACK
6
CONTINUOUS
10
323.222
20
-7.5876
11
323.222
21
-9.5876
0
LINE
8
BLACK
6
CONTINUOUS
10
314.522
20
-4.0876
11
314.522
21
-2.3376
0
LINE
8
BLACK
6
CONTINUOUS
10
323.222
20
-2.3376
11
323.222
21
-4.0876
0
LINE
8
BLACK
6
CONTINUOUS
10
314.522
20
-2.3376
11
323.222
21
-2.3376
0
LINE
8
BLACK
6
CONTINUOUS
10
312.972
20
-13.0876
11
312.972
21
-9.5876
0
LINE
8
BLACK
6
CONTINUOUS
10
324.772
20
-13.0876
11
312.972
21
-13.0876
0
LINE
8
BLACK
6
CONTINUOUS
10
324.772
20
-9.5876
11
324.772
21
-13.0876
0
LINE
8
BLACK
6
CONTINUOUS
10
329.6
20
-61.0904
11
329.6
21
-63.5904
0
LINE
8
BLACK
6
CONTINUOUS
10
329.6
20
-63.5904
11
332.63
21
-63.5904
0
LINE
8
BLACK
6
CONTINUOUS
10
332.63
20
-63.5904
11
332.63
21
-61.0904
0
LINE
8
BLACK
6
CONTINUOUS
10
332.625
20
-61.0904
11
329.6
21
-61.0904
0
LINE
8
BLACK
6
CONTINUOUS
10
348.701
20
-118.342
11
348.701
21
-120.842
0
LINE
8
BLACK
6
CONTINUOUS
10
348.701
20
-120.842
11
351.731
21
-120.842
0
LINE
8
BLACK
6
CONTINUOUS
10
351.731
20
-120.842
11
351.731
21
-118.342
0
LINE
8
BLACK
6
CONTINUOUS
10
351.726
20
-118.342
11
348.701
21
-118.342
0
LINE
8
BLACK
6
CONTINUOUS
10
195.334
20
-99.19
11
195.334
21
-101.69
0
LINE
8
BLACK
6
CONTINUOUS
10
195.334
20
-101.69
11
198.364
21
-101.69
0
LINE
8
BLACK
6
CONTINUOUS
10
198.364
20
-101.69
11
198.364
21
-99.19
0
LINE
8
BLACK
6
CONTINUOUS
10
198.359
20
-99.19
11
195.334
21
-99.19
0
LINE
8
BLACK
6
CONTINUOUS
10
148.307
20
-80.157
11
148.307
21
-82.657
0
LINE
8
BLACK
6
CONTINUOUS
10
148.307
20
-82.657
11
151.337
21
-82.657
0
LINE
8
BLACK
6
CONTINUOUS
10
151.337
20
-82.657
11
151.337
21
-80.157
0
LINE
8
BLACK
6
CONTINUOUS
10
151.332
20
-80.157
11
148.307
21
-80.157
0
LINE
8
BLACK
6
CONTINUOUS
10
348.752
20
-61.0904
11
348.752
21
-63.5904
0
LINE
8
BLACK
6
CONTINUOUS
10
348.752
20
-63.5904
11
351.782
21
-63.5904
0
LINE
8
BLACK
6
CONTINUOUS
10
351.782
20
-63.5904
11
351.782
21
-61.0904
0
LINE
8
BLACK
6
CONTINUOUS
10
351.777
20
-61.0904
11
348.752
21
-61.0904
0
LINE
8
BLACK
6
CONTINUOUS
10
329.651
20
-118.444
11
329.651
21
-120.944
0
LINE
8
BLACK
6
CONTINUOUS
10
329.651
20
-120.944
11
332.681
21
-120.944
0
LINE
8
BLACK
6
CONTINUOUS
10
332.681
20
-120.944
11
332.681
21
-118.444
0
LINE
8
BLACK
6
CONTINUOUS
10
332.676
20
-118.444
11
329.651
21
-118.444
0
LINE
8
BLACK
6
CONTINUOUS
10
214.486
20
-99.19
11
214.486
21
-101.69
0
LINE
8
BLACK
6
CONTINUOUS
10
214.486
20
-101.69
11
217.516
21
-101.69
0
LINE
8
BLACK
6
CONTINUOUS
10
217.516
20
-101.69
11
217.516
21
-99.19
0
LINE
8
BLACK
6
CONTINUOUS
10
217.511
20
-99.19
11
214.486
21
-99.19
0
LINE
8
BLACK
6
CONTINUOUS
10
129.485
20
-80.157
11
129.485
21
-82.657
0
LINE
8
BLACK
6
CONTINUOUS
10
129.485
20
-82.657
11
132.515
21
-82.657
0
LINE
8
BLACK
6
CONTINUOUS
10
132.515
20
-82.657
11
132.515
21
-80.157
0
LINE
8
BLACK
6
CONTINUOUS
10
132.51
20
-80.157
11
129.485
21
-80.157
0
LINE
8
BLACK
6
CONTINUOUS
10
367.649
20
-61.1412
11
367.649
21
-63.6412
0
LINE
8
BLACK
6
CONTINUOUS
10
367.649
20
-63.6412
11
370.679
21
-63.6412
0
LINE
8
BLACK
6
CONTINUOUS
10
370.679
20
-63.6412
11
370.679
21
-61.1412
0
LINE
8
BLACK
6
CONTINUOUS
10
370.674
20
-61.1412
11
367.649
21
-61.1412
0
LINE
8
BLACK
6
CONTINUOUS
10
303.234
20
-118.342
11
303.234
21
-120.842
0
LINE
8
BLACK
6
CONTINUOUS
10
303.234
20
-120.842
11
306.264
21
-120.842
0
LINE
8
BLACK
6
CONTINUOUS
10
306.264
20
-120.842
11
306.264
21
-118.342
0
LINE
8
BLACK
6
CONTINUOUS
10
306.259
20
-118.342
11
303.234
21
-118.342
0
LINE
8
BLACK
6
CONTINUOUS
10
233.537
20
-99.182
11
233.537
21
-101.682
0
LINE
8
BLACK
6
CONTINUOUS
10
233.537
20
-101.682
11
236.567
21
-101.682
0
LINE
8
BLACK
6
CONTINUOUS
10
236.567
20
-101.682
11
236.567
21
-99.182
0
LINE
8
BLACK
6
CONTINUOUS
10
236.562
20
-99.182
11
233.537
21
-99.182
0
LINE
8
BLACK
6
CONTINUOUS
10
110.411
20
-80.132
11
110.411
21
-82.632
0
LINE
8
BLACK
6
CONTINUOUS
10
110.411
20
-82.632
11
113.441
21
-82.632
0
LINE
8
BLACK
6
CONTINUOUS
10
113.441
20
-82.632
11
113.441
21
-80.132
0
LINE
8
BLACK
6
CONTINUOUS
10
113.436
20
-80.132
11
110.411
21
-80.132
0
LINE
8
BLACK
6
CONTINUOUS
10
57.9724
20
-23.0412
11
57.9724
21
-25.5412
0
LINE
8
BLACK
6
CONTINUOUS
10
57.9724
20
-25.5412
11
61.0024
21
-25.5412
0
LINE
8
BLACK
6
CONTINUOUS
10
61.0024
20
-25.5412
11
61.0024
21
-23.0412
0
LINE
8
BLACK
6
CONTINUOUS
10
60.9974
20
-23.0412
11
57.9724
21
-23.0412
0
LINE
8
BLACK
6
CONTINUOUS
10
279.41
20
-118.342
11
279.41
21
-120.842
0
LINE
8
BLACK
6
CONTINUOUS
10
279.41
20
-120.842
11
282.44
21
-120.842
0
LINE
8
BLACK
6
CONTINUOUS
10
282.44
20
-120.842
11
282.44
21
-118.342
0
LINE
8
BLACK
6
CONTINUOUS
10
282.435
20
-118.342
11
279.41
21
-118.342
0
LINE
8
BLACK
6
CONTINUOUS
10
252.738
20
-99.241
11
252.738
21
-101.741
0
LINE
8
BLACK
6
CONTINUOUS
10
252.738
20
-101.741
11
255.768
21
-101.741
0
LINE
8
BLACK
6
CONTINUOUS
10
255.768
20
-101.741
11
255.768
21
-99.241
0
LINE
8
BLACK
6
CONTINUOUS
10
255.763
20
-99.241
11
252.738
21
-99.241
0
LINE
8
BLACK
6
CONTINUOUS
10
91.3855
20
-80.157
11
91.3855
21
-82.657
0
LINE
8
BLACK
6
CONTINUOUS
10
91.3855
20
-82.657
11
94.4155
21
-82.657
0
LINE
8
BLACK
6
CONTINUOUS
10
94.4155
20
-82.657
11
94.4155
21
-80.157
0
LINE
8
BLACK
6
CONTINUOUS
10
94.4105
20
-80.157
11
91.3855
21
-80.157
0
LINE
8
BLACK
6
CONTINUOUS
10
38.871
20
-22.9816
11
38.871
21
-25.4816
0
LINE
8
BLACK
6
CONTINUOUS
10
38.871
20
-25.4816
11
41.901
21
-25.4816
0
LINE
8
BLACK
6
CONTINUOUS
10
41.901
20
-25.4816
11
41.901
21
-22.9816
0
LINE
8
BLACK
6
CONTINUOUS
10
41.896
20
-22.9816
11
38.871
21
-22.9816
0
LINE
8
BLACK
6
CONTINUOUS
10
255.584
20
-118.393
11
255.584
21
-120.893
0
LINE
8
BLACK
6
CONTINUOUS
10
255.584
20
-120.893
11
258.614
21
-120.893
0
LINE
8
BLACK
6
CONTINUOUS
10
258.614
20
-120.893
11
258.614
21
-118.393
0
LINE
8
BLACK
6
CONTINUOUS
10
258.609
20
-118.393
11
255.584
21
-118.393
0
LINE
8
BLACK
6
CONTINUOUS
10
288.808
20
-99.325
11
288.808
21
-101.825
0
LINE
8
BLACK
6
CONTINUOUS
10
288.808
20
-101.825
11
291.838
21
-101.825
0
LINE
8
BLACK
6
CONTINUOUS
10
291.838
20
-101.825
11
291.838
21
-99.325
0
LINE
8
BLACK
6
CONTINUOUS
10
291.833
20
-99.325
11
288.808
21
-99.325
0
LINE
8
BLACK
6
CONTINUOUS
10
72.3355
20
-80.157
11
72.3355
21
-82.657
0
LINE
8
BLACK
6
CONTINUOUS
10
72.3355
20
-82.657
11
75.3655
21
-82.657
0
LINE
8
BLACK
6
CONTINUOUS
10
75.3655
20
-82.657
11
75.3655
21
-80.157
0
LINE
8
BLACK
6
CONTINUOUS
10
75.3605
20
-80.157
11
72.3355
21
-80.157
0
LINE
8
BLACK
6
CONTINUOUS
10
367.598
20
-42.226
11
367.598
21
-44.726
0
LINE
8
BLACK
6
CONTINUOUS
10
367.598
20
-44.726
11
370.628
21
-44.726
0
LINE
8
BLACK
6
CONTINUOUS
10
370.628
20
-44.726
11
370.628
21
-42.226
0
LINE
8
BLACK
6
CONTINUOUS
10
370.623
20
-42.226
11
367.598
21
-42.226
0
LINE
8
BLACK
6
CONTINUOUS
10
231.606
20
-118.393
11
231.606
21
-120.893
0
LINE
8
BLACK
6
CONTINUOUS
10
231.606
20
-120.893
11
234.636
21
-120.893
0
LINE
8
BLACK
6
CONTINUOUS
10
234.636
20
-120.893
11
234.636
21
-118.393
0
LINE
8
BLACK
6
CONTINUOUS
10
234.631
20
-118.393
11
231.606
21
-118.393
0
LINE
8
BLACK
6
CONTINUOUS
10
330.996
20
-98.784
11
330.996
21
-101.284
0
LINE
8
BLACK
6
CONTINUOUS
10
330.996
20
-101.284
11
334.026
21
-101.284
0
LINE
8
BLACK
6
CONTINUOUS
10
334.026
20
-101.284
11
334.026
21
-98.784
0
LINE
8
BLACK
6
CONTINUOUS
10
334.021
20
-98.784
11
330.996
21
-98.784
0
LINE
8
BLACK
6
CONTINUOUS
10
46.1348
20
-80.157
11
46.1348
21
-82.657
0
LINE
8
BLACK
6
CONTINUOUS
10
46.1348
20
-82.657
11
49.1648
21
-82.657
0
LINE
8
BLACK
6
CONTINUOUS
10
49.1648
20
-82.657
11
49.1648
21
-80.157
0
LINE
8
BLACK
6
CONTINUOUS
10
49.1598
20
-80.157
11
46.1348
21
-80.157
0
LINE
8
BLACK
6
CONTINUOUS
10
348.7
20
-42.184
11
348.7
21
-44.684
0
LINE
8
BLACK
6
CONTINUOUS
10
348.7
20
-44.684
11
351.73
21
-44.684
0
LINE
8
BLACK
6
CONTINUOUS
10
351.73
20
-44.684
11
351.73
21
-42.184
0
LINE
8
BLACK
6
CONTINUOUS
10
351.725
20
-42.184
11
348.7
21
-42.184
0
LINE
8
BLACK
6
CONTINUOUS
10
191.322
20
-22.9816
11
191.322
21
-25.4816
0
LINE
8
BLACK
6
CONTINUOUS
10
191.322
20
-25.4816
11
194.352
21
-25.4816
0
LINE
8
BLACK
6
CONTINUOUS
10
194.352
20
-25.4816
11
194.352
21
-22.9816
0
LINE
8
BLACK
6
CONTINUOUS
10
194.347
20
-22.9816
11
191.322
21
-22.9816
0
LINE
8
BLACK
6
CONTINUOUS
10
348.7
20
-99.224
11
348.7
21
-101.724
0
LINE
8
BLACK
6
CONTINUOUS
10
348.7
20
-101.724
11
351.73
21
-101.724
0
LINE
8
BLACK
6
CONTINUOUS
10
351.73
20
-101.724
11
351.73
21
-99.224
0
LINE
8
BLACK
6
CONTINUOUS
10
351.725
20
-99.224
11
348.7
21
-99.224
0
LINE
8
BLACK
6
CONTINUOUS
10
43.7484
20
-61.107
11
43.7484
21
-63.607
0
LINE
8
BLACK
6
CONTINUOUS
10
43.7484
20
-63.607
11
46.7784
21
-63.607
0
LINE
8
BLACK
6
CONTINUOUS
10
46.7784
20
-63.607
11
46.7784
21
-61.107
0
LINE
8
BLACK
6
CONTINUOUS
10
46.7734
20
-61.107
11
43.7484
21
-61.107
0
LINE
8
BLACK
6
CONTINUOUS
10
329.65
20
-42.1752
11
329.65
21
-44.6752
0
LINE
8
BLACK
6
CONTINUOUS
10
329.65
20
-44.6752
11
332.68
21
-44.6752
0
LINE
8
BLACK
6
CONTINUOUS
10
332.68
20
-44.6752
11
332.68
21
-42.1752
0
LINE
8
BLACK
6
CONTINUOUS
10
332.675
20
-42.1752
11
329.65
21
-42.1752
0
LINE
8
BLACK
6
CONTINUOUS
10
172.222
20
-23.0412
11
172.222
21
-25.5412
0
LINE
8
BLACK
6
CONTINUOUS
10
172.222
20
-25.5412
11
175.252
21
-25.5412
0
LINE
8
BLACK
6
CONTINUOUS
10
175.252
20
-25.5412
11
175.252
21
-23.0412
0
LINE
8
BLACK
6
CONTINUOUS
10
175.247
20
-23.0412
11
172.222
21
-23.0412
0
LINE
8
BLACK
6
CONTINUOUS
10
367.598
20
-99.224
11
367.598
21
-101.724
0
LINE
8
BLACK
6
CONTINUOUS
10
367.598
20
-101.724
11
370.628
21
-101.724
0
LINE
8
BLACK
6
CONTINUOUS
10
370.628
20
-101.724
11
370.628
21
-99.224
0
LINE
8
BLACK
6
CONTINUOUS
10
370.623
20
-99.224
11
367.598
21
-99.224
0
LINE
8
BLACK
6
CONTINUOUS
10
67.573
20
-60.9888
11
67.573
21
-63.4888
0
LINE
8
BLACK
6
CONTINUOUS
10
67.573
20
-63.4888
11
70.603
21
-63.4888
0
LINE
8
BLACK
6
CONTINUOUS
10
70.603
20
-63.4888
11
70.603
21
-60.9888
0
LINE
8
BLACK
6
CONTINUOUS
10
70.598
20
-60.9888
11
67.573
21
-60.9888
0
LINE
8
BLACK
6
CONTINUOUS
10
267.471
20
-41.9935
11
267.471
21
-44.4935
0
LINE
8
BLACK
6
CONTINUOUS
10
267.471
20
-44.4935
11
270.501
21
-44.4935
0
LINE
8
BLACK
6
CONTINUOUS
10
270.501
20
-44.4935
11
270.501
21
-41.9935
0
LINE
8
BLACK
6
CONTINUOUS
10
270.496
20
-41.9935
11
267.471
21
-41.9935
0
LINE
8
BLACK
6
CONTINUOUS
10
153.172
20
-22.9396
11
153.172
21
-25.4396
0
LINE
8
BLACK
6
CONTINUOUS
10
153.172
20
-25.4396
11
156.202
21
-25.4396
0
LINE
8
BLACK
6
CONTINUOUS
10
156.202
20
-25.4396
11
156.202
21
-22.9396
0
LINE
8
BLACK
6
CONTINUOUS
10
156.197
20
-22.9396
11
153.172
21
-22.9396
0
LINE
8
BLACK
6
CONTINUOUS
10
96.0216
20
-23.0412
11
96.0216
21
-25.5412
0
LINE
8
BLACK
6
CONTINUOUS
10
96.0216
20
-25.5412
11
99.0516
21
-25.5412
0
LINE
8
BLACK
6
CONTINUOUS
10
99.0516
20
-25.5412
11
99.0516
21
-23.0412
0
LINE
8
BLACK
6
CONTINUOUS
10
99.0466
20
-23.0412
11
96.0216
21
-23.0412
0
LINE
8
BLACK
6
CONTINUOUS
10
86.522
20
-60.938
11
86.522
21
-63.438
0
LINE
8
BLACK
6
CONTINUOUS
10
86.522
20
-63.438
11
89.552
21
-63.438
0
LINE
8
BLACK
6
CONTINUOUS
10
89.552
20
-63.438
11
89.552
21
-60.938
0
LINE
8
BLACK
6
CONTINUOUS
10
89.547
20
-60.938
11
86.522
21
-60.938
0
LINE
8
BLACK
6
CONTINUOUS
10
248.459
20
-42.015
11
248.459
21
-44.515
0
LINE
8
BLACK
6
CONTINUOUS
10
248.459
20
-44.515
11
251.489
21
-44.515
0
LINE
8
BLACK
6
CONTINUOUS
10
251.489
20
-44.515
11
251.489
21
-42.015
0
LINE
8
BLACK
6
CONTINUOUS
10
251.484
20
-42.015
11
248.459
21
-42.015
0
LINE
8
BLACK
6
CONTINUOUS
10
134.172
20
-23.0236
11
134.172
21
-25.5236
0
LINE
8
BLACK
6
CONTINUOUS
10
134.172
20
-25.5236
11
137.202
21
-25.5236
0
LINE
8
BLACK
6
CONTINUOUS
10
137.202
20
-25.5236
11
137.202
21
-23.0236
0
LINE
8
BLACK
6
CONTINUOUS
10
137.197
20
-23.0236
11
134.172
21
-23.0236
0
LINE
8
BLACK
6
CONTINUOUS
10
77.0732
20
-22.9396
11
77.0732
21
-25.4396
0
LINE
8
BLACK
6
CONTINUOUS
10
77.0732
20
-25.4396
11
80.1032
21
-25.4396
0
LINE
8
BLACK
6
CONTINUOUS
10
80.1032
20
-25.4396
11
80.1032
21
-22.9396
0
LINE
8
BLACK
6
CONTINUOUS
10
80.0982
20
-22.9396
11
77.0732
21
-22.9396
0
LINE
8
BLACK
6
CONTINUOUS
10
105.42
20
-60.9888
11
105.42
21
-63.4888
0
LINE
8
BLACK
6
CONTINUOUS
10
105.42
20
-63.4888
11
108.45
21
-63.4888
0
LINE
8
BLACK
6
CONTINUOUS
10
108.45
20
-63.4888
11
108.45
21
-60.9888
0
LINE
8
BLACK
6
CONTINUOUS
10
108.445
20
-60.9888
11
105.42
21
-60.9888
0
LINE
8
BLACK
6
CONTINUOUS
10
229.333
20
-42.015
11
229.333
21
-44.515
0
LINE
8
BLACK
6
CONTINUOUS
10
229.333
20
-44.515
11
232.363
21
-44.515
0
LINE
8
BLACK
6
CONTINUOUS
10
232.363
20
-44.515
11
232.363
21
-42.015
0
LINE
8
BLACK
6
CONTINUOUS
10
232.358
20
-42.015
11
229.333
21
-42.015
0
LINE
8
BLACK
6
CONTINUOUS
10
89.189
20
-118.426
11
89.189
21
-120.926
0
LINE
8
BLACK
6
CONTINUOUS
10
89.189
20
-120.926
11
92.219
21
-120.926
0
LINE
8
BLACK
6
CONTINUOUS
10
92.219
20
-120.926
11
92.219
21
-118.426
0
LINE
8
BLACK
6
CONTINUOUS
10
92.214
20
-118.426
11
89.189
21
-118.426
0
LINE
8
BLACK
6
CONTINUOUS
10
367.598
20
-80.1404
11
367.598
21
-82.6404
0
LINE
8
BLACK
6
CONTINUOUS
10
367.598
20
-82.6404
11
370.628
21
-82.6404
0
LINE
8
BLACK
6
CONTINUOUS
10
370.628
20
-82.6404
11
370.628
21
-80.1404
0
LINE
8
BLACK
6
CONTINUOUS
10
370.623
20
-80.1404
11
367.598
21
-80.1404
0
LINE
8
BLACK
6
CONTINUOUS
10
124.317
20
-60.938
11
124.317
21
-63.438
0
LINE
8
BLACK
6
CONTINUOUS
10
124.317
20
-63.438
11
127.347
21
-63.438
0
LINE
8
BLACK
6
CONTINUOUS
10
127.347
20
-63.438
11
127.347
21
-60.938
0
LINE
8
BLACK
6
CONTINUOUS
10
127.342
20
-60.938
11
124.317
21
-60.938
0
LINE
8
BLACK
6
CONTINUOUS
10
210.359
20
-42.015
11
210.359
21
-44.515
0
LINE
8
BLACK
6
CONTINUOUS
10
210.359
20
-44.515
11
213.389
21
-44.515
0
LINE
8
BLACK
6
CONTINUOUS
10
213.389
20
-44.515
11
213.389
21
-42.015
0
LINE
8
BLACK
6
CONTINUOUS
10
213.384
20
-42.015
11
210.359
21
-42.015
0
LINE
8
BLACK
6
CONTINUOUS
10
65.3384
20
-118.393
11
65.3384
21
-120.893
0
LINE
8
BLACK
6
CONTINUOUS
10
65.3384
20
-120.893
11
68.3684
21
-120.893
0
LINE
8
BLACK
6
CONTINUOUS
10
68.3684
20
-120.893
11
68.3684
21
-118.393
0
LINE
8
BLACK
6
CONTINUOUS
10
68.3634
20
-118.393
11
65.3384
21
-118.393
0
LINE
8
BLACK
6
CONTINUOUS
10
348.701
20
-80.1404
11
348.701
21
-82.6404
0
LINE
8
BLACK
6
CONTINUOUS
10
348.701
20
-82.6404
11
351.731
21
-82.6404
0
LINE
8
BLACK
6
CONTINUOUS
10
351.731
20
-82.6404
11
351.731
21
-80.1404
0
LINE
8
BLACK
6
CONTINUOUS
10
351.726
20
-80.1404
11
348.701
21
-80.1404
0
LINE
8
BLACK
6
CONTINUOUS
10
143.215
20
-60.9888
11
143.215
21
-63.4888
0
LINE
8
BLACK
6
CONTINUOUS
10
143.215
20
-63.4888
11
146.245
21
-63.4888
0
LINE
8
BLACK
6
CONTINUOUS
10
146.245
20
-63.4888
11
146.245
21
-60.9888
0
LINE
8
BLACK
6
CONTINUOUS
10
146.24
20
-60.9888
11
143.215
21
-60.9888
0
LINE
8
BLACK
6
CONTINUOUS
10
191.245
20
-41.972
11
191.245
21
-44.472
0
LINE
8
BLACK
6
CONTINUOUS
10
191.245
20
-44.472
11
194.275
21
-44.472
0
LINE
8
BLACK
6
CONTINUOUS
10
194.275
20
-44.472
11
194.275
21
-41.972
0
LINE
8
BLACK
6
CONTINUOUS
10
194.27
20
-41.972
11
191.245
21
-41.972
0
LINE
8
BLACK
6
CONTINUOUS
10
41.4116
20
-118.421
11
41.4116
21
-120.921
0
LINE
8
BLACK
6
CONTINUOUS
10
41.4116
20
-120.921
11
44.4416
21
-120.921
0
LINE
8
BLACK
6
CONTINUOUS
10
44.4416
20
-120.921
11
44.4416
21
-118.421
0
LINE
8
BLACK
6
CONTINUOUS
10
44.4366
20
-118.421
11
41.4116
21
-118.421
0
LINE
8
BLACK
6
CONTINUOUS
10
329.651
20
-80.1404
11
329.651
21
-82.6404
0
LINE
8
BLACK
6
CONTINUOUS
10
329.651
20
-82.6404
11
332.681
21
-82.6404
0
LINE
8
BLACK
6
CONTINUOUS
10
332.681
20
-82.6404
11
332.681
21
-80.1404
0
LINE
8
BLACK
6
CONTINUOUS
10
332.676
20
-80.1404
11
329.651
21
-80.1404
0
LINE
8
BLACK
6
CONTINUOUS
10
162.163
20
-60.938
11
162.163
21
-63.438
0
LINE
8
BLACK
6
CONTINUOUS
10
162.163
20
-63.438
11
165.193
21
-63.438
0
LINE
8
BLACK
6
CONTINUOUS
10
165.193
20
-63.438
11
165.193
21
-60.938
0
LINE
8
BLACK
6
CONTINUOUS
10
165.188
20
-60.938
11
162.163
21
-60.938
0
LINE
8
BLACK
6
CONTINUOUS
10
172.221
20
-41.9935
11
172.221
21
-44.4935
0
LINE
8
BLACK
6
CONTINUOUS
10
172.221
20
-44.4935
11
175.251
21
-44.4935
0
LINE
8
BLACK
6
CONTINUOUS
10
175.251
20
-44.4935
11
175.251
21
-41.9935
0
LINE
8
BLACK
6
CONTINUOUS
10
175.246
20
-41.9935
11
172.221
21
-41.9935
0
LINE
8
BLACK
6
CONTINUOUS
10
50.91
20
-99.19
11
50.91
21
-101.69
0
LINE
8
BLACK
6
CONTINUOUS
10
50.91
20
-101.69
11
53.94
21
-101.69
0
LINE
8
BLACK
6
CONTINUOUS
10
53.94
20
-101.69
11
53.94
21
-99.19
0
LINE
8
BLACK
6
CONTINUOUS
10
53.935
20
-99.19
11
50.91
21
-99.19
0
LINE
8
BLACK
6
CONTINUOUS
10
293.607
20
-80.115
11
293.607
21
-82.615
0
LINE
8
BLACK
6
CONTINUOUS
10
293.607
20
-82.615
11
296.637
21
-82.615
0
LINE
8
BLACK
6
CONTINUOUS
10
296.637
20
-82.615
11
296.637
21
-80.115
0
LINE
8
BLACK
6
CONTINUOUS
10
296.632
20
-80.115
11
293.607
21
-80.115
0
LINE
8
BLACK
6
CONTINUOUS
10
181.112
20
-60.9888
11
181.112
21
-63.4888
0
LINE
8
BLACK
6
CONTINUOUS
10
181.112
20
-63.4888
11
184.142
21
-63.4888
0
LINE
8
BLACK
6
CONTINUOUS
10
184.142
20
-63.4888
11
184.142
21
-60.9888
0
LINE
8
BLACK
6
CONTINUOUS
10
184.137
20
-60.9888
11
181.112
21
-60.9888
0
LINE
8
BLACK
6
CONTINUOUS
10
153.145
20
-42.015
11
153.145
21
-44.515
0
LINE
8
BLACK
6
CONTINUOUS
10
153.145
20
-44.515
11
156.175
21
-44.515
0
LINE
8
BLACK
6
CONTINUOUS
10
156.175
20
-44.515
11
156.175
21
-42.015
0
LINE
8
BLACK
6
CONTINUOUS
10
156.17
20
-42.015
11
153.145
21
-42.015
0
LINE
8
BLACK
6
CONTINUOUS
10
81.7456
20
-99.19
11
81.7456
21
-101.69
0
LINE
8
BLACK
6
CONTINUOUS
10
81.7456
20
-101.69
11
84.7756
21
-101.69
0
LINE
8
BLACK
6
CONTINUOUS
10
84.7756
20
-101.69
11
84.7756
21
-99.19
0
LINE
8
BLACK
6
CONTINUOUS
10
84.7706
20
-99.19
11
81.7456
21
-99.19
0
LINE
8
BLACK
6
CONTINUOUS
10
262.581
20
-80.143
11
262.581
21
-82.643
0
LINE
8
BLACK
6
CONTINUOUS
10
262.581
20
-82.643
11
265.611
21
-82.643
0
LINE
8
BLACK
6
CONTINUOUS
10
265.611
20
-82.643
11
265.611
21
-80.143
0
LINE
8
BLACK
6
CONTINUOUS
10
265.606
20
-80.143
11
262.581
21
-80.143
0
LINE
8
BLACK
6
CONTINUOUS
10
200.06
20
-60.9888
11
200.06
21
-63.4888
0
LINE
8
BLACK
6
CONTINUOUS
10
200.06
20
-63.4888
11
203.09
21
-63.4888
0
LINE
8
BLACK
6
CONTINUOUS
10
203.09
20
-63.4888
11
203.09
21
-60.9888
0
LINE
8
BLACK
6
CONTINUOUS
10
203.085
20
-60.9888
11
200.06
21
-60.9888
0
LINE
8
BLACK
6
CONTINUOUS
10
134.147
20
-42.015
11
134.147
21
-44.515
0
LINE
8
BLACK
6
CONTINUOUS
10
134.147
20
-44.515
11
137.177
21
-44.515
0
LINE
8
BLACK
6
CONTINUOUS
10
137.177
20
-44.515
11
137.177
21
-42.015
0
LINE
8
BLACK
6
CONTINUOUS
10
137.172
20
-42.015
11
134.147
21
-42.015
0
LINE
8
BLACK
6
CONTINUOUS
10
100.592
20
-99.19
11
100.592
21
-101.69
0
LINE
8
BLACK
6
CONTINUOUS
10
100.592
20
-101.69
11
103.622
21
-101.69
0
LINE
8
BLACK
6
CONTINUOUS
10
103.622
20
-101.69
11
103.622
21
-99.19
0
LINE
8
BLACK
6
CONTINUOUS
10
103.617
20
-99.19
11
100.592
21
-99.19
0
LINE
8
BLACK
6
CONTINUOUS
10
243.531
20
-80.157
11
243.531
21
-82.657
0
LINE
8
BLACK
6
CONTINUOUS
10
243.531
20
-82.657
11
246.561
21
-82.657
0
LINE
8
BLACK
6
CONTINUOUS
10
246.561
20
-82.657
11
246.561
21
-80.157
0
LINE
8
BLACK
6
CONTINUOUS
10
246.556
20
-80.157
11
243.531
21
-80.157
0
LINE
8
BLACK
6
CONTINUOUS
10
218.958
20
-60.938
11
218.958
21
-63.438
0
LINE
8
BLACK
6
CONTINUOUS
10
218.958
20
-63.438
11
221.988
21
-63.438
0
LINE
8
BLACK
6
CONTINUOUS
10
221.988
20
-63.438
11
221.988
21
-60.938
0
LINE
8
BLACK
6
CONTINUOUS
10
221.983
20
-60.938
11
218.958
21
-60.938
0
LINE
8
BLACK
6
CONTINUOUS
10
115.097
20
-42.015
11
115.097
21
-44.515
0
LINE
8
BLACK
6
CONTINUOUS
10
115.097
20
-44.515
11
118.127
21
-44.515
0
LINE
8
BLACK
6
CONTINUOUS
10
118.127
20
-44.515
11
118.127
21
-42.015
0
LINE
8
BLACK
6
CONTINUOUS
10
118.122
20
-42.015
11
115.097
21
-42.015
0
LINE
8
BLACK
6
CONTINUOUS
10
119.49
20
-99.19
11
119.49
21
-101.69
0
LINE
8
BLACK
6
CONTINUOUS
10
119.49
20
-101.69
11
122.52
21
-101.69
0
LINE
8
BLACK
6
CONTINUOUS
10
122.52
20
-101.69
11
122.52
21
-99.19
0
LINE
8
BLACK
6
CONTINUOUS
10
122.515
20
-99.19
11
119.49
21
-99.19
0
LINE
8
BLACK
6
CONTINUOUS
10
224.507
20
-80.132
11
224.507
21
-82.632
0
LINE
8
BLACK
6
CONTINUOUS
10
224.507
20
-82.632
11
227.537
21
-82.632
0
LINE
8
BLACK
6
CONTINUOUS
10
227.537
20
-82.632
11
227.537
21
-80.132
0
LINE
8
BLACK
6
CONTINUOUS
10
227.532
20
-80.132
11
224.507
21
-80.132
0
LINE
8
BLACK
6
CONTINUOUS
10
237.906
20
-60.9888
11
237.906
21
-63.4888
0
LINE
8
BLACK
6
CONTINUOUS
10
237.906
20
-63.4888
11
240.936
21
-63.4888
0
LINE
8
BLACK
6
CONTINUOUS
10
240.936
20
-63.4888
11
240.936
21
-60.9888
0
LINE
8
BLACK
6
CONTINUOUS
10
240.931
20
-60.9888
11
237.906
21
-60.9888
0
LINE
8
BLACK
6
CONTINUOUS
10
96.047
20
-42.015
11
96.047
21
-44.515
0
LINE
8
BLACK
6
CONTINUOUS
10
96.047
20
-44.515
11
99.077
21
-44.515
0
LINE
8
BLACK
6
CONTINUOUS
10
99.077
20
-44.515
11
99.077
21
-42.015
0
LINE
8
BLACK
6
CONTINUOUS
10
99.072
20
-42.015
11
96.047
21
-42.015
0
LINE
8
BLACK
6
CONTINUOUS
10
296.072
20
-42.184
11
296.072
21
-44.684
0
LINE
8
BLACK
6
CONTINUOUS
10
296.072
20
-44.684
11
299.102
21
-44.684
0
LINE
8
BLACK
6
CONTINUOUS
10
299.102
20
-44.684
11
299.102
21
-42.184
0
LINE
8
BLACK
6
CONTINUOUS
10
299.097
20
-42.184
11
296.072
21
-42.184
0
LINE
8
BLACK
6
CONTINUOUS
10
138.438
20
-99.19
11
138.438
21
-101.69
0
LINE
8
BLACK
6
CONTINUOUS
10
138.438
20
-101.69
11
141.468
21
-101.69
0
LINE
8
BLACK
6
CONTINUOUS
10
141.468
20
-101.69
11
141.468
21
-99.19
0
LINE
8
BLACK
6
CONTINUOUS
10
141.463
20
-99.19
11
138.438
21
-99.19
0
LINE
8
BLACK
6
CONTINUOUS
10
205.407
20
-80.182
11
205.407
21
-82.682
0
LINE
8
BLACK
6
CONTINUOUS
10
205.407
20
-82.682
11
208.437
21
-82.682
0
LINE
8
BLACK
6
CONTINUOUS
10
208.437
20
-82.682
11
208.437
21
-80.182
0
LINE
8
BLACK
6
CONTINUOUS
10
208.432
20
-80.182
11
205.407
21
-80.182
0
LINE
8
BLACK
6
CONTINUOUS
10
256.854
20
-60.938
11
256.854
21
-63.438
0
LINE
8
BLACK
6
CONTINUOUS
10
256.854
20
-63.438
11
259.884
21
-63.438
0
LINE
8
BLACK
6
CONTINUOUS
10
259.884
20
-63.438
11
259.884
21
-60.938
0
LINE
8
BLACK
6
CONTINUOUS
10
259.879
20
-60.938
11
256.854
21
-60.938
0
LINE
8
BLACK
6
CONTINUOUS
10
76.997
20
-42.015
11
76.997
21
-44.515
0
LINE
8
BLACK
6
CONTINUOUS
10
76.997
20
-44.515
11
80.027
21
-44.515
0
LINE
8
BLACK
6
CONTINUOUS
10
80.027
20
-44.515
11
80.027
21
-42.015
0
LINE
8
BLACK
6
CONTINUOUS
10
80.022
20
-42.015
11
76.997
21
-42.015
0
LINE
8
BLACK
6
CONTINUOUS
10
115.122
20
-22.9396
11
115.122
21
-25.4396
0
LINE
8
BLACK
6
CONTINUOUS
10
115.122
20
-25.4396
11
118.152
21
-25.4396
0
LINE
8
BLACK
6
CONTINUOUS
10
118.152
20
-25.4396
11
118.152
21
-22.9396
0
LINE
8
BLACK
6
CONTINUOUS
10
118.147
20
-22.9396
11
115.122
21
-22.9396
0
LINE
8
BLACK
6
CONTINUOUS
10
157.387
20
-99.19
11
157.387
21
-101.69
0
LINE
8
BLACK
6
CONTINUOUS
10
157.387
20
-101.69
11
160.417
21
-101.69
0
LINE
8
BLACK
6
CONTINUOUS
10
160.417
20
-101.69
11
160.417
21
-99.19
0
LINE
8
BLACK
6
CONTINUOUS
10
160.412
20
-99.19
11
157.387
21
-99.19
0
LINE
8
BLACK
6
CONTINUOUS
10
186.381
20
-80.168
11
186.381
21
-82.668
0
LINE
8
BLACK
6
CONTINUOUS
10
186.381
20
-82.668
11
189.411
21
-82.668
0
LINE
8
BLACK
6
CONTINUOUS
10
189.411
20
-82.668
11
189.411
21
-80.168
0
LINE
8
BLACK
6
CONTINUOUS
10
189.406
20
-80.168
11
186.381
21
-80.168
0
LINE
8
BLACK
6
CONTINUOUS
10
276.057
20
-60.938
11
276.057
21
-63.438
0
LINE
8
BLACK
6
CONTINUOUS
10
276.057
20
-63.438
11
279.087
21
-63.438
0
LINE
8
BLACK
6
CONTINUOUS
10
279.087
20
-63.438
11
279.087
21
-60.938
0
LINE
8
BLACK
6
CONTINUOUS
10
279.082
20
-60.938
11
276.057
21
-60.938
0
LINE
8
BLACK
6
CONTINUOUS
10
57.9845
20
-41.9935
11
57.9845
21
-44.4935
0
LINE
8
BLACK
6
CONTINUOUS
10
57.9845
20
-44.4935
11
61.0145
21
-44.4935
0
LINE
8
BLACK
6
CONTINUOUS
10
61.0145
20
-44.4935
11
61.0145
21
-41.9935
0
LINE
8
BLACK
6
CONTINUOUS
10
61.0095
20
-41.9935
11
57.9845
21
-41.9935
0
LINE
8
BLACK
6
CONTINUOUS
10
367.648
20
-118.444
11
367.648
21
-120.944
0
LINE
8
BLACK
6
CONTINUOUS
10
367.648
20
-120.944
11
370.678
21
-120.944
0
LINE
8
BLACK
6
CONTINUOUS
10
370.678
20
-120.944
11
370.678
21
-118.444
0
LINE
8
BLACK
6
CONTINUOUS
10
370.673
20
-118.444
11
367.648
21
-118.444
0
LINE
8
BLACK
6
CONTINUOUS
10
176.284
20
-99.19
11
176.284
21
-101.69
0
LINE
8
BLACK
6
CONTINUOUS
10
176.284
20
-101.69
11
179.314
21
-101.69
0
LINE
8
BLACK
6
CONTINUOUS
10
179.314
20
-101.69
11
179.314
21
-99.19
0
LINE
8
BLACK
6
CONTINUOUS
10
179.309
20
-99.19
11
176.284
21
-99.19
0
LINE
8
BLACK
6
CONTINUOUS
10
167.357
20
-80.182
11
167.357
21
-82.682
0
LINE
8
BLACK
6
CONTINUOUS
10
167.357
20
-82.682
11
170.387
21
-82.682
0
LINE
8
BLACK
6
CONTINUOUS
10
170.387
20
-82.682
11
170.387
21
-80.182
0
LINE
8
BLACK
6
CONTINUOUS
10
170.382
20
-80.182
11
167.357
21
-80.182
0
LINE
8
BLACK
6
CONTINUOUS
10
300.796
20
-60.938
11
300.796
21
-63.438
0
LINE
8
BLACK
6
CONTINUOUS
10
300.796
20
-63.438
11
303.826
21
-63.438
0
LINE
8
BLACK
6
CONTINUOUS
10
303.826
20
-63.438
11
303.826
21
-60.938
0
LINE
8
BLACK
6
CONTINUOUS
10
303.821
20
-60.938
11
300.796
21
-60.938
0
LINE
8
BLACK
6
CONTINUOUS
10
38.77
20
-42.015
11
38.77
21
-44.515
0
LINE
8
BLACK
6
CONTINUOUS
10
38.77
20
-44.515
11
41.8
21
-44.515
0
LINE
8
BLACK
6
CONTINUOUS
10
41.8
20
-44.515
11
41.8
21
-42.015
0
LINE
8
BLACK
6
CONTINUOUS
10
41.795
20
-42.015
11
38.77
21
-42.015
0
LINE
8
BLACK
6
CONTINUOUS
10
248.607
20
-65.3538
11
252.007
21
-65.3538
0
LINE
8
BLACK
6
CONTINUOUS
10
248.607
20
-67.3138
11
248.607
21
-65.3538
0
LINE
8
BLACK
6
CONTINUOUS
10
252.007
20
-67.3138
11
248.607
21
-67.3138
0
LINE
8
BLACK
6
CONTINUOUS
10
252.007
20
-65.3538
11
252.007
21
-67.3138
0
LINE
8
BLACK
6
CONTINUOUS
10
230.692
20
-67.2538
11
227.332
21
-67.2538
0
LINE
8
BLACK
6
CONTINUOUS
10
230.692
20
-65.3538
11
230.692
21
-67.2538
0
LINE
8
BLACK
6
CONTINUOUS
10
227.332
20
-65.3538
11
230.692
21
-65.3538
0
LINE
8
BLACK
6
CONTINUOUS
10
227.332
20
-67.2538
11
227.332
21
-65.3538
0
LINE
8
BLACK
6
CONTINUOUS
10
227.179
20
-67.2538
11
223.819
21
-67.2538
0
LINE
8
BLACK
6
CONTINUOUS
10
227.179
20
-65.3538
11
227.179
21
-67.2538
0
LINE
8
BLACK
6
CONTINUOUS
10
223.819
20
-65.3538
11
227.179
21
-65.3538
0
LINE
8
BLACK
6
CONTINUOUS
10
223.819
20
-67.2538
11
223.819
21
-65.3538
0
LINE
8
BLACK
6
CONTINUOUS
10
237.797
20
-67.3138
11
234.397
21
-67.3138
0
LINE
8
BLACK
6
CONTINUOUS
10
237.797
20
-65.3538
11
237.797
21
-67.3138
0
LINE
8
BLACK
6
CONTINUOUS
10
234.397
20
-65.3538
11
237.797
21
-65.3538
0
LINE
8
BLACK
6
CONTINUOUS
10
234.397
20
-67.3138
11
234.397
21
-65.3538
0
LINE
8
BLACK
6
CONTINUOUS
10
248.454
20
-67.3138
11
245.054
21
-67.3138
0
LINE
8
BLACK
6
CONTINUOUS
10
248.454
20
-65.3538
11
248.454
21
-67.3138
0
LINE
8
BLACK
6
CONTINUOUS
10
245.054
20
-65.3538
11
248.454
21
-65.3538
0
LINE
8
BLACK
6
CONTINUOUS
10
245.054
20
-67.3138
11
245.054
21
-65.3538
0
LINE
8
BLACK
6
CONTINUOUS
10
241.349
20
-67.3138
11
237.949
21
-67.3138
0
LINE
8
BLACK
6
CONTINUOUS
10
241.349
20
-65.3538
11
241.349
21
-67.3138
0
LINE
8
BLACK
6
CONTINUOUS
10
237.949
20
-65.3538
11
241.349
21
-65.3538
0
LINE
8
BLACK
6
CONTINUOUS
10
237.949
20
-67.3138
11
237.949
21
-65.3538
0
LINE
8
BLACK
6
CONTINUOUS
10
244.902
20
-67.3138
11
241.502
21
-67.3138
0
LINE
8
BLACK
6
CONTINUOUS
10
244.902
20
-65.3538
11
244.902
21
-67.3138
0
LINE
8
BLACK
6
CONTINUOUS
10
241.502
20
-65.3538
11
244.902
21
-65.3538
0
LINE
8
BLACK
6
CONTINUOUS
10
241.502
20
-67.3138
11
241.502
21
-65.3538
0
LINE
8
BLACK
6
CONTINUOUS
10
234.244
20
-67.3138
11
230.844
21
-67.3138
0
LINE
8
BLACK
6
CONTINUOUS
10
234.244
20
-65.3538
11
234.244
21
-67.3138
0
LINE
8
BLACK
6
CONTINUOUS
10
230.844
20
-65.3538
11
234.244
21
-65.3538
0
LINE
8
BLACK
6
CONTINUOUS
10
230.844
20
-67.3138
11
230.844
21
-65.3538
0
LINE
8
BLACK
6
CONTINUOUS
10
259.112
20
-67.3138
11
255.712
21
-67.3138
0
LINE
8
BLACK
6
CONTINUOUS
10
259.112
20
-65.3538
11
259.112
21
-67.3138
0
LINE
8
BLACK
6
CONTINUOUS
10
255.712
20
-65.3538
11
259.112
21
-65.3538
0
LINE
8
BLACK
6
CONTINUOUS
10
255.712
20
-67.3138
11
255.712
21
-65.3538
0
LINE
8
BLACK
6
CONTINUOUS
10
255.56
20
-67.3138
11
252.16
21
-67.3138
0
LINE
8
BLACK
6
CONTINUOUS
10
255.56
20
-65.3538
11
255.56
21
-67.3138
0
LINE
8
BLACK
6
CONTINUOUS
10
252.16
20
-65.3538
11
255.56
21
-65.3538
0
LINE
8
BLACK
6
CONTINUOUS
10
252.16
20
-67.3138
11
252.16
21
-65.3538
0
LINE
8
BLACK
6
CONTINUOUS
10
314.399
20
-53.9436
11
314.399
21
-49.3836
0
LINE
8
BLACK
6
CONTINUOUS
10
316.639
20
-53.9436
11
314.399
21
-53.9436
0
LINE
8
BLACK
6
CONTINUOUS
10
316.639
20
-49.3836
11
316.639
21
-53.9436
0
LINE
8
BLACK
6
CONTINUOUS
10
314.399
20
-49.3836
11
316.639
21
-49.3836
0
LINE
8
BLACK
6
CONTINUOUS
10
314.45
20
-58.9835
11
314.45
21
-54.4235
0
LINE
8
BLACK
6
CONTINUOUS
10
316.69
20
-58.9835
11
314.45
21
-58.9835
0
LINE
8
BLACK
6
CONTINUOUS
10
316.69
20
-54.4235
11
316.69
21
-58.9835
0
LINE
8
BLACK
6
CONTINUOUS
10
314.45
20
-54.4235
11
316.69
21
-54.4235
0
LINE
8
BLACK
6
CONTINUOUS
10
312.161
20
-116.11
11
316.611
21
-116.11
0
LINE
8
BLACK
6
CONTINUOUS
10
312.161
20
-106.16
11
312.161
21
-116.11
0
LINE
8
BLACK
6
CONTINUOUS
10
316.611
20
-106.16
11
312.161
21
-106.16
0
LINE
8
BLACK
6
CONTINUOUS
10
316.611
20
-116.11
11
316.611
21
-106.16
0
LINE
8
BLACK
6
CONTINUOUS
10
315.91
20
-62.4728
11
317.73
21
-62.4728
0
LINE
8
BLACK
6
CONTINUOUS
10
315.91
20
-63.3928
11
315.91
21
-62.4728
0
LINE
8
BLACK
6
CONTINUOUS
10
317.73
20
-63.3928
11
315.91
21
-63.3928
0
LINE
8
BLACK
6
CONTINUOUS
10
317.73
20
-62.4728
11
317.73
21
-63.3928
0
LINE
8
BLACK
6
CONTINUOUS
10
319.385
20
-75.4689
11
321.205
21
-75.4689
0
LINE
8
BLACK
6
CONTINUOUS
10
319.385
20
-76.3889
11
319.385
21
-75.4689
0
LINE
8
BLACK
6
CONTINUOUS
10
321.205
20
-76.3889
11
319.385
21
-76.3889
0
LINE
8
BLACK
6
CONTINUOUS
10
321.205
20
-75.4689
11
321.205
21
-76.3889
0
LINE
8
BLACK
6
CONTINUOUS
10
319.385
20
-60.4737
11
321.205
21
-60.4737
0
LINE
8
BLACK
6
CONTINUOUS
10
319.385
20
-61.3937
11
319.385
21
-60.4737
0
LINE
8
BLACK
6
CONTINUOUS
10
321.205
20
-61.3937
11
319.385
21
-61.3937
0
LINE
8
BLACK
6
CONTINUOUS
10
321.205
20
-60.4737
11
321.205
21
-61.3937
0
LINE
8
BLACK
6
CONTINUOUS
10
319.385
20
-73.3267
11
321.205
21
-73.3267
0
LINE
8
BLACK
6
CONTINUOUS
10
319.385
20
-74.2467
11
319.385
21
-73.3267
0
LINE
8
BLACK
6
CONTINUOUS
10
321.205
20
-74.2467
11
319.385
21
-74.2467
0
LINE
8
BLACK
6
CONTINUOUS
10
321.205
20
-73.3267
11
321.205
21
-74.2467
0
LINE
8
BLACK
6
CONTINUOUS
10
319.385
20
-54.0472
11
321.205
21
-54.0472
0
LINE
8
BLACK
6
CONTINUOUS
10
319.385
20
-54.9672
11
319.385
21
-54.0472
0
LINE
8
BLACK
6
CONTINUOUS
10
321.205
20
-54.9672
11
319.385
21
-54.9672
0
LINE
8
BLACK
6
CONTINUOUS
10
321.205
20
-54.0472
11
321.205
21
-54.9672
0
LINE
8
BLACK
6
CONTINUOUS
10
319.385
20
-50.8339
11
321.205
21
-50.8339
0
LINE
8
BLACK
6
CONTINUOUS
10
319.385
20
-51.7539
11
319.385
21
-50.8339
0
LINE
8
BLACK
6
CONTINUOUS
10
321.205
20
-51.7539
11
319.385
21
-51.7539
0
LINE
8
BLACK
6
CONTINUOUS
10
321.205
20
-50.8339
11
321.205
21
-51.7539
0
LINE
8
BLACK
6
CONTINUOUS
10
319.385
20
-47.6207
11
321.205
21
-47.6207
0
LINE
8
BLACK
6
CONTINUOUS
10
319.385
20
-48.5407
11
319.385
21
-47.6207
0
LINE
8
BLACK
6
CONTINUOUS
10
321.205
20
-48.5407
11
319.385
21
-48.5407
0
LINE
8
BLACK
6
CONTINUOUS
10
321.205
20
-47.6207
11
321.205
21
-48.5407
0
LINE
8
BLACK
6
CONTINUOUS
10
319.385
20
-37.9809
11
321.205
21
-37.9809
0
LINE
8
BLACK
6
CONTINUOUS
10
319.385
20
-38.9009
11
319.385
21
-37.9809
0
LINE
8
BLACK
6
CONTINUOUS
10
321.205
20
-38.9009
11
319.385
21
-38.9009
0
LINE
8
BLACK
6
CONTINUOUS
10
321.205
20
-37.9809
11
321.205
21
-38.9009
0
LINE
8
BLACK
6
CONTINUOUS
10
319.385
20
-69.0424
11
321.205
21
-69.0424
0
LINE
8
BLACK
6
CONTINUOUS
10
319.385
20
-69.9624
11
319.385
21
-69.0424
0
LINE
8
BLACK
6
CONTINUOUS
10
321.205
20
-69.9624
11
319.385
21
-69.9624
0
LINE
8
BLACK
6
CONTINUOUS
10
321.205
20
-69.0424
11
321.205
21
-69.9624
0
LINE
8
BLACK
6
CONTINUOUS
10
319.385
20
-41.1942
11
321.205
21
-41.1942
0
LINE
8
BLACK
6
CONTINUOUS
10
319.385
20
-42.1142
11
319.385
21
-41.1942
0
LINE
8
BLACK
6
CONTINUOUS
10
321.205
20
-42.1142
11
319.385
21
-42.1142
0
LINE
8
BLACK
6
CONTINUOUS
10
321.205
20
-41.1942
11
321.205
21
-42.1142
0
LINE
8
BLACK
6
CONTINUOUS
10
319.385
20
-31.5542
11
321.205
21
-31.5542
0
LINE
8
BLACK
6
CONTINUOUS
10
319.385
20
-32.4742
11
319.385
21
-31.5542
0
LINE
8
BLACK
6
CONTINUOUS
10
321.205
20
-32.4742
11
319.385
21
-32.4742
0
LINE
8
BLACK
6
CONTINUOUS
10
321.205
20
-31.5542
11
321.205
21
-32.4742
0
LINE
8
BLACK
6
CONTINUOUS
10
319.389
20
-83.0812
11
321.209
21
-83.0812
0
LINE
8
BLACK
6
CONTINUOUS
10
319.389
20
-84.0012
11
319.389
21
-83.0812
0
LINE
8
BLACK
6
CONTINUOUS
10
321.209
20
-84.0012
11
319.389
21
-84.0012
0
LINE
8
BLACK
6
CONTINUOUS
10
321.209
20
-83.0812
11
321.209
21
-84.0012
0
LINE
8
BLACK
6
CONTINUOUS
10
319.385
20
-34.7677
11
321.205
21
-34.7677
0
LINE
8
BLACK
6
CONTINUOUS
10
319.385
20
-35.6877
11
319.385
21
-34.7677
0
LINE
8
BLACK
6
CONTINUOUS
10
321.205
20
-35.6877
11
319.385
21
-35.6877
0
LINE
8
BLACK
6
CONTINUOUS
10
321.205
20
-34.7677
11
321.205
21
-35.6877
0
LINE
8
BLACK
6
CONTINUOUS
10
319.385
20
-18.7012
11
321.205
21
-18.7012
0
LINE
8
BLACK
6
CONTINUOUS
10
319.385
20
-19.6212
11
319.385
21
-18.7012
0
LINE
8
BLACK
6
CONTINUOUS
10
321.205
20
-19.6212
11
319.385
21
-19.6212
0
LINE
8
BLACK
6
CONTINUOUS
10
321.205
20
-18.7012
11
321.205
21
-19.6212
0
LINE
8
BLACK
6
CONTINUOUS
10
319.385
20
-57.2604
11
321.205
21
-57.2604
0
LINE
8
BLACK
6
CONTINUOUS
10
319.385
20
-58.1804
11
319.385
21
-57.2604
0
LINE
8
BLACK
6
CONTINUOUS
10
321.205
20
-58.1804
11
319.385
21
-58.1804
0
LINE
8
BLACK
6
CONTINUOUS
10
321.205
20
-57.2604
11
321.205
21
-58.1804
0
LINE
8
BLACK
6
CONTINUOUS
10
317.022
20
-21.9982
11
318.842
21
-21.9982
0
LINE
8
BLACK
6
CONTINUOUS
10
317.022
20
-22.9182
11
317.022
21
-21.9982
0
LINE
8
BLACK
6
CONTINUOUS
10
318.842
20
-22.9182
11
317.022
21
-22.9182
0
LINE
8
BLACK
6
CONTINUOUS
10
318.842
20
-21.9982
11
318.842
21
-22.9182
0
LINE
8
BLACK
6
CONTINUOUS
10
319.385
20
-28.3412
11
321.205
21
-28.3412
0
LINE
8
BLACK
6
CONTINUOUS
10
319.385
20
-29.2612
11
319.385
21
-28.3412
0
LINE
8
BLACK
6
CONTINUOUS
10
321.205
20
-29.2612
11
319.385
21
-29.2612
0
LINE
8
BLACK
6
CONTINUOUS
10
321.205
20
-28.3412
11
321.205
21
-29.2612
0
LINE
8
BLACK
6
CONTINUOUS
10
319.385
20
-71.1845
11
321.205
21
-71.1845
0
LINE
8
BLACK
6
CONTINUOUS
10
319.385
20
-72.1045
11
319.385
21
-71.1845
0
LINE
8
BLACK
6
CONTINUOUS
10
321.205
20
-72.1045
11
319.385
21
-72.1045
0
LINE
8
BLACK
6
CONTINUOUS
10
321.205
20
-71.1845
11
321.205
21
-72.1045
0
LINE
8
BLACK
6
CONTINUOUS
10
319.385
20
-63.6869
11
321.205
21
-63.6869
0
LINE
8
BLACK
6
CONTINUOUS
10
319.385
20
-64.6069
11
319.385
21
-63.6869
0
LINE
8
BLACK
6
CONTINUOUS
10
321.205
20
-64.6069
11
319.385
21
-64.6069
0
LINE
8
BLACK
6
CONTINUOUS
10
321.205
20
-63.6869
11
321.205
21
-64.6069
0
LINE
8
BLACK
6
CONTINUOUS
10
319.404
20
-84.0912
11
321.224
21
-84.0912
0
LINE
8
BLACK
6
CONTINUOUS
10
319.404
20
-85.0112
11
319.404
21
-84.0912
0
LINE
8
BLACK
6
CONTINUOUS
10
321.224
20
-85.0112
11
319.404
21
-85.0112
0
LINE
8
BLACK
6
CONTINUOUS
10
321.224
20
-84.0912
11
321.224
21
-85.0112
0
LINE
8
BLACK
6
CONTINUOUS
10
317.022
20
-15.5717
11
318.842
21
-15.5717
0
LINE
8
BLACK
6
CONTINUOUS
10
317.022
20
-16.4917
11
317.022
21
-15.5717
0
LINE
8
BLACK
6
CONTINUOUS
10
318.842
20
-16.4917
11
317.022
21
-16.4917
0
LINE
8
BLACK
6
CONTINUOUS
10
318.842
20
-15.5717
11
318.842
21
-16.4917
0
LINE
8
BLACK
6
CONTINUOUS
10
319.385
20
-21.9142
11
321.205
21
-21.9142
0
LINE
8
BLACK
6
CONTINUOUS
10
319.385
20
-22.8342
11
319.385
21
-21.9142
0
LINE
8
BLACK
6
CONTINUOUS
10
321.205
20
-22.8342
11
319.385
21
-22.8342
0
LINE
8
BLACK
6
CONTINUOUS
10
321.205
20
-21.9142
11
321.205
21
-22.8342
0
LINE
8
BLACK
6
CONTINUOUS
10
319.385
20
-44.4074
11
321.205
21
-44.4074
0
LINE
8
BLACK
6
CONTINUOUS
10
319.385
20
-45.3274
11
319.385
21
-44.4074
0
LINE
8
BLACK
6
CONTINUOUS
10
321.205
20
-45.3274
11
319.385
21
-45.3274
0
LINE
8
BLACK
6
CONTINUOUS
10
321.205
20
-44.4074
11
321.205
21
-45.3274
0
LINE
8
BLACK
6
CONTINUOUS
10
319.385
20
-25.1282
11
321.205
21
-25.1282
0
LINE
8
BLACK
6
CONTINUOUS
10
319.385
20
-26.0482
11
319.385
21
-25.1282
0
LINE
8
BLACK
6
CONTINUOUS
10
321.205
20
-26.0482
11
319.385
21
-26.0482
0
LINE
8
BLACK
6
CONTINUOUS
10
321.205
20
-25.1282
11
321.205
21
-26.0482
0
LINE
8
BLACK
6
CONTINUOUS
10
319.385
20
-16.5592
11
321.205
21
-16.5592
0
LINE
8
BLACK
6
CONTINUOUS
10
319.385
20
-17.4792
11
319.385
21
-16.5592
0
LINE
8
BLACK
6
CONTINUOUS
10
321.205
20
-17.4792
11
319.385
21
-17.4792
0
LINE
8
BLACK
6
CONTINUOUS
10
321.205
20
-16.5592
11
321.205
21
-17.4792
0
LINE
8
BLACK
6
CONTINUOUS
10
315.905
20
-59.2368
11
317.725
21
-59.2368
0
LINE
8
BLACK
6
CONTINUOUS
10
315.905
20
-60.1568
11
315.905
21
-59.2368
0
LINE
8
BLACK
6
CONTINUOUS
10
317.725
20
-60.1568
11
315.905
21
-60.1568
0
LINE
8
BLACK
6
CONTINUOUS
10
317.725
20
-59.2368
11
317.725
21
-60.1568
0
LINE
8
BLACK
6
CONTINUOUS
10
319.385
20
-61.5448
11
321.205
21
-61.5448
0
LINE
8
BLACK
6
CONTINUOUS
10
319.385
20
-62.4648
11
319.385
21
-61.5448
0
LINE
8
BLACK
6
CONTINUOUS
10
321.205
20
-62.4648
11
319.385
21
-62.4648
0
LINE
8
BLACK
6
CONTINUOUS
10
321.205
20
-61.5448
11
321.205
21
-62.4648
0
LINE
8
BLACK
6
CONTINUOUS
10
319.394
20
-78.7262
11
321.214
21
-78.7262
0
LINE
8
BLACK
6
CONTINUOUS
10
319.394
20
-79.6462
11
319.394
21
-78.7262
0
LINE
8
BLACK
6
CONTINUOUS
10
321.214
20
-79.6462
11
319.394
21
-79.6462
0
LINE
8
BLACK
6
CONTINUOUS
10
321.214
20
-78.7262
11
321.214
21
-79.6462
0
LINE
8
BLACK
6
CONTINUOUS
10
319.385
20
-67.9713
11
321.205
21
-67.9713
0
LINE
8
BLACK
6
CONTINUOUS
10
319.385
20
-68.8913
11
319.385
21
-67.9713
0
LINE
8
BLACK
6
CONTINUOUS
10
321.205
20
-68.8913
11
319.385
21
-68.8913
0
LINE
8
BLACK
6
CONTINUOUS
10
321.205
20
-67.9713
11
321.205
21
-68.8913
0
LINE
8
BLACK
6
CONTINUOUS
10
315.905
20
-60.3088
11
317.725
21
-60.3088
0
LINE
8
BLACK
6
CONTINUOUS
10
315.905
20
-61.2288
11
315.905
21
-60.3088
0
LINE
8
BLACK
6
CONTINUOUS
10
317.725
20
-61.2288
11
315.905
21
-61.2288
0
LINE
8
BLACK
6
CONTINUOUS
10
317.725
20
-60.3088
11
317.725
21
-61.2288
0
LINE
8
BLACK
6
CONTINUOUS
10
317.022
20
-18.785
11
318.842
21
-18.785
0
LINE
8
BLACK
6
CONTINUOUS
10
317.022
20
-19.705
11
317.022
21
-18.785
0
LINE
8
BLACK
6
CONTINUOUS
10
318.842
20
-19.705
11
317.022
21
-19.705
0
LINE
8
BLACK
6
CONTINUOUS
10
318.842
20
-18.785
11
318.842
21
-19.705
0
LINE
8
BLACK
6
CONTINUOUS
10
319.385
20
-48.6918
11
321.205
21
-48.6918
0
LINE
8
BLACK
6
CONTINUOUS
10
319.385
20
-49.6118
11
319.385
21
-48.6918
0
LINE
8
BLACK
6
CONTINUOUS
10
321.205
20
-49.6118
11
319.385
21
-49.6118
0
LINE
8
BLACK
6
CONTINUOUS
10
321.205
20
-48.6918
11
321.205
21
-49.6118
0
LINE
8
BLACK
6
CONTINUOUS
10
319.385
20
-49.7628
11
321.205
21
-49.7628
0
LINE
8
BLACK
6
CONTINUOUS
10
319.385
20
-50.6828
11
319.385
21
-49.7628
0
LINE
8
BLACK
6
CONTINUOUS
10
321.205
20
-50.6828
11
319.385
21
-50.6828
0
LINE
8
BLACK
6
CONTINUOUS
10
321.205
20
-49.7628
11
321.205
21
-50.6828
0
LINE
8
BLACK
6
CONTINUOUS
10
317.022
20
-19.856
11
318.842
21
-19.856
0
LINE
8
BLACK
6
CONTINUOUS
10
317.022
20
-20.776
11
317.022
21
-19.856
0
LINE
8
BLACK
6
CONTINUOUS
10
318.842
20
-20.776
11
317.022
21
-20.776
0
LINE
8
BLACK
6
CONTINUOUS
10
318.842
20
-19.856
11
318.842
21
-20.776
0
LINE
8
BLACK
6
CONTINUOUS
10
319.385
20
-56.1894
11
321.205
21
-56.1894
0
LINE
8
BLACK
6
CONTINUOUS
10
319.385
20
-57.1094
11
319.385
21
-56.1894
0
LINE
8
BLACK
6
CONTINUOUS
10
321.205
20
-57.1094
11
319.385
21
-57.1094
0
LINE
8
BLACK
6
CONTINUOUS
10
321.205
20
-56.1894
11
321.205
21
-57.1094
0
LINE
8
BLACK
6
CONTINUOUS
10
319.385
20
-66.9002
11
321.205
21
-66.9002
0
LINE
8
BLACK
6
CONTINUOUS
10
319.385
20
-67.8202
11
319.385
21
-66.9002
0
LINE
8
BLACK
6
CONTINUOUS
10
321.205
20
-67.8202
11
319.385
21
-67.8202
0
LINE
8
BLACK
6
CONTINUOUS
10
321.205
20
-66.9002
11
321.205
21
-67.8202
0
LINE
8
BLACK
6
CONTINUOUS
10
319.385
20
-35.8388
11
321.205
21
-35.8388
0
LINE
8
BLACK
6
CONTINUOUS
10
319.385
20
-36.7588
11
319.385
21
-35.8388
0
LINE
8
BLACK
6
CONTINUOUS
10
321.205
20
-36.7588
11
319.385
21
-36.7588
0
LINE
8
BLACK
6
CONTINUOUS
10
321.205
20
-35.8388
11
321.205
21
-36.7588
0
LINE
8
BLACK
6
CONTINUOUS
10
319.385
20
-43.3363
11
321.205
21
-43.3363
0
LINE
8
BLACK
6
CONTINUOUS
10
319.385
20
-44.2563
11
319.385
21
-43.3363
0
LINE
8
BLACK
6
CONTINUOUS
10
321.205
20
-44.2563
11
319.385
21
-44.2563
0
LINE
8
BLACK
6
CONTINUOUS
10
321.205
20
-43.3363
11
321.205
21
-44.2563
0
LINE
8
BLACK
6
CONTINUOUS
10
317.022
20
-16.6428
11
318.842
21
-16.6428
0
LINE
8
BLACK
6
CONTINUOUS
10
317.022
20
-17.5628
11
317.022
21
-16.6428
0
LINE
8
BLACK
6
CONTINUOUS
10
318.842
20
-17.5628
11
317.022
21
-17.5628
0
LINE
8
BLACK
6
CONTINUOUS
10
318.842
20
-16.6428
11
318.842
21
-17.5628
0
LINE
8
BLACK
6
CONTINUOUS
10
319.385
20
-55.1183
11
321.205
21
-55.1183
0
LINE
8
BLACK
6
CONTINUOUS
10
319.385
20
-56.0383
11
319.385
21
-55.1183
0
LINE
8
BLACK
6
CONTINUOUS
10
321.205
20
-56.0383
11
319.385
21
-56.0383
0
LINE
8
BLACK
6
CONTINUOUS
10
321.205
20
-55.1183
11
321.205
21
-56.0383
0
LINE
8
BLACK
6
CONTINUOUS
10
319.385
20
-30.4832
11
321.205
21
-30.4832
0
LINE
8
BLACK
6
CONTINUOUS
10
319.385
20
-31.4032
11
319.385
21
-30.4832
0
LINE
8
BLACK
6
CONTINUOUS
10
321.205
20
-31.4032
11
319.385
21
-31.4032
0
LINE
8
BLACK
6
CONTINUOUS
10
321.205
20
-30.4832
11
321.205
21
-31.4032
0
LINE
8
BLACK
6
CONTINUOUS
10
319.385
20
-15.4882
11
321.205
21
-15.4882
0
LINE
8
BLACK
6
CONTINUOUS
10
319.385
20
-16.4082
11
319.385
21
-15.4882
0
LINE
8
BLACK
6
CONTINUOUS
10
321.205
20
-16.4082
11
319.385
21
-16.4082
0
LINE
8
BLACK
6
CONTINUOUS
10
321.205
20
-15.4882
11
321.205
21
-16.4082
0
LINE
8
BLACK
6
CONTINUOUS
10
315.905
20
-61.3798
11
317.725
21
-61.3798
0
LINE
8
BLACK
6
CONTINUOUS
10
315.905
20
-62.2998
11
315.905
21
-61.3798
0
LINE
8
BLACK
6
CONTINUOUS
10
317.725
20
-62.2998
11
315.905
21
-62.2998
0
LINE
8
BLACK
6
CONTINUOUS
10
317.725
20
-61.3798
11
317.725
21
-62.2998
0
LINE
8
BLACK
6
CONTINUOUS
10
319.385
20
-62.6159
11
321.205
21
-62.6159
0
LINE
8
BLACK
6
CONTINUOUS
10
319.385
20
-63.5359
11
319.385
21
-62.6159
0
LINE
8
BLACK
6
CONTINUOUS
10
321.205
20
-63.5359
11
319.385
21
-63.5359
0
LINE
8
BLACK
6
CONTINUOUS
10
321.205
20
-62.6159
11
321.205
21
-63.5359
0
LINE
8
BLACK
6
CONTINUOUS
10
319.385
20
-42.2653
11
321.205
21
-42.2653
0
LINE
8
BLACK
6
CONTINUOUS
10
319.385
20
-43.1853
11
319.385
21
-42.2653
0
LINE
8
BLACK
6
CONTINUOUS
10
321.205
20
-43.1853
11
319.385
21
-43.1853
0
LINE
8
BLACK
6
CONTINUOUS
10
321.205
20
-42.2653
11
321.205
21
-43.1853
0
LINE
8
BLACK
6
CONTINUOUS
10
317.022
20
-23.0693
11
318.842
21
-23.0693
0
LINE
8
BLACK
6
CONTINUOUS
10
317.022
20
-23.9893
11
317.022
21
-23.0693
0
LINE
8
BLACK
6
CONTINUOUS
10
318.842
20
-23.9893
11
317.022
21
-23.9893
0
LINE
8
BLACK
6
CONTINUOUS
10
318.842
20
-23.0693
11
318.842
21
-23.9893
0
LINE
8
BLACK
6
CONTINUOUS
10
319.385
20
-22.9862
11
321.205
21
-22.9862
0
LINE
8
BLACK
6
CONTINUOUS
10
319.385
20
-23.9062
11
319.385
21
-22.9862
0
LINE
8
BLACK
6
CONTINUOUS
10
321.205
20
-23.9062
11
319.385
21
-23.9062
0
LINE
8
BLACK
6
CONTINUOUS
10
321.205
20
-22.9862
11
321.205
21
-23.9062
0
LINE
8
BLACK
6
CONTINUOUS
10
317.029
20
-26.21
11
318.849
21
-26.21
0
LINE
8
BLACK
6
CONTINUOUS
10
317.029
20
-27.13
11
317.029
21
-26.21
0
LINE
8
BLACK
6
CONTINUOUS
10
318.849
20
-27.13
11
317.029
21
-27.13
0
LINE
8
BLACK
6
CONTINUOUS
10
318.849
20
-26.21
11
318.849
21
-27.13
0
LINE
8
BLACK
6
CONTINUOUS
10
319.385
20
-29.4122
11
321.205
21
-29.4122
0
LINE
8
BLACK
6
CONTINUOUS
10
319.385
20
-30.3322
11
319.385
21
-29.4122
0
LINE
8
BLACK
6
CONTINUOUS
10
321.205
20
-30.3322
11
319.385
21
-30.3322
0
LINE
8
BLACK
6
CONTINUOUS
10
321.205
20
-29.4122
11
321.205
21
-30.3322
0
LINE
8
BLACK
6
CONTINUOUS
10
317.022
20
-25.2115
11
318.842
21
-25.2115
0
LINE
8
BLACK
6
CONTINUOUS
10
317.022
20
-26.1315
11
317.022
21
-25.2115
0
LINE
8
BLACK
6
CONTINUOUS
10
318.842
20
-26.1315
11
317.022
21
-26.1315
0
LINE
8
BLACK
6
CONTINUOUS
10
318.842
20
-25.2115
11
318.842
21
-26.1315
0
LINE
8
BLACK
6
CONTINUOUS
10
319.385
20
-36.9098
11
321.205
21
-36.9098
0
LINE
8
BLACK
6
CONTINUOUS
10
319.385
20
-37.8298
11
319.385
21
-36.9098
0
LINE
8
BLACK
6
CONTINUOUS
10
321.205
20
-37.8298
11
319.385
21
-37.8298
0
LINE
8
BLACK
6
CONTINUOUS
10
321.205
20
-36.9098
11
321.205
21
-37.8298
0
LINE
8
BLACK
6
CONTINUOUS
10
319.385
20
-17.6302
11
321.205
21
-17.6302
0
LINE
8
BLACK
6
CONTINUOUS
10
319.385
20
-18.5502
11
319.385
21
-17.6302
0
LINE
8
BLACK
6
CONTINUOUS
10
321.205
20
-18.5502
11
319.385
21
-18.5502
0
LINE
8
BLACK
6
CONTINUOUS
10
321.205
20
-17.6302
11
321.205
21
-18.5502
0
LINE
8
BLACK
6
CONTINUOUS
10
319.385
20
-24.0572
11
321.205
21
-24.0572
0
LINE
8
BLACK
6
CONTINUOUS
10
319.385
20
-24.9772
11
319.385
21
-24.0572
0
LINE
8
BLACK
6
CONTINUOUS
10
321.205
20
-24.9772
11
319.385
21
-24.9772
0
LINE
8
BLACK
6
CONTINUOUS
10
321.205
20
-24.0572
11
321.205
21
-24.9772
0
LINE
8
BLACK
6
CONTINUOUS
10
319.385
20
-72.2556
11
321.205
21
-72.2556
0
LINE
8
BLACK
6
CONTINUOUS
10
319.385
20
-73.1756
11
319.385
21
-72.2556
0
LINE
8
BLACK
6
CONTINUOUS
10
321.205
20
-73.1756
11
319.385
21
-73.1756
0
LINE
8
BLACK
6
CONTINUOUS
10
321.205
20
-72.2556
11
321.205
21
-73.1756
0
LINE
8
BLACK
6
CONTINUOUS
10
319.385
20
-59.4026
11
321.205
21
-59.4026
0
LINE
8
BLACK
6
CONTINUOUS
10
319.385
20
-60.3226
11
319.385
21
-59.4026
0
LINE
8
BLACK
6
CONTINUOUS
10
321.205
20
-60.3226
11
319.385
21
-60.3226
0
LINE
8
BLACK
6
CONTINUOUS
10
321.205
20
-59.4026
11
321.205
21
-60.3226
0
LINE
8
BLACK
6
CONTINUOUS
10
319.394
20
-80.8682
11
321.214
21
-80.8682
0
LINE
8
BLACK
6
CONTINUOUS
10
319.394
20
-81.7882
11
319.394
21
-80.8682
0
LINE
8
BLACK
6
CONTINUOUS
10
321.214
20
-81.7882
11
319.394
21
-81.7882
0
LINE
8
BLACK
6
CONTINUOUS
10
321.214
20
-80.8682
11
321.214
21
-81.7882
0
LINE
8
BLACK
6
CONTINUOUS
10
319.385
20
-70.1134
11
321.205
21
-70.1134
0
LINE
8
BLACK
6
CONTINUOUS
10
319.385
20
-71.0334
11
319.385
21
-70.1134
0
LINE
8
BLACK
6
CONTINUOUS
10
321.205
20
-71.0334
11
319.385
21
-71.0334
0
LINE
8
BLACK
6
CONTINUOUS
10
321.205
20
-70.1134
11
321.205
21
-71.0334
0
LINE
8
BLACK
6
CONTINUOUS
10
319.385
20
-65.8291
11
321.205
21
-65.8291
0
LINE
8
BLACK
6
CONTINUOUS
10
319.385
20
-66.7491
11
319.385
21
-65.8291
0
LINE
8
BLACK
6
CONTINUOUS
10
321.205
20
-66.7491
11
319.385
21
-66.7491
0
LINE
8
BLACK
6
CONTINUOUS
10
321.205
20
-65.8291
11
321.205
21
-66.7491
0
LINE
8
BLACK
6
CONTINUOUS
10
319.385
20
-27.2702
11
321.205
21
-27.2702
0
LINE
8
BLACK
6
CONTINUOUS
10
319.385
20
-28.1902
11
319.385
21
-27.2702
0
LINE
8
BLACK
6
CONTINUOUS
10
321.205
20
-28.1902
11
319.385
21
-28.1902
0
LINE
8
BLACK
6
CONTINUOUS
10
321.205
20
-27.2702
11
321.205
21
-28.1902
0
LINE
8
BLACK
6
CONTINUOUS
10
317.022
20
-17.7139
11
318.842
21
-17.7139
0
LINE
8
BLACK
6
CONTINUOUS
10
317.022
20
-18.6339
11
317.022
21
-17.7139
0
LINE
8
BLACK
6
CONTINUOUS
10
318.842
20
-18.6339
11
317.022
21
-18.6339
0
LINE
8
BLACK
6
CONTINUOUS
10
318.842
20
-17.7139
11
318.842
21
-18.6339
0
LINE
8
BLACK
6
CONTINUOUS
10
319.389
20
-82.0102
11
321.209
21
-82.0102
0
LINE
8
BLACK
6
CONTINUOUS
10
319.389
20
-82.9302
11
319.389
21
-82.0102
0
LINE
8
BLACK
6
CONTINUOUS
10
321.209
20
-82.9302
11
319.389
21
-82.9302
0
LINE
8
BLACK
6
CONTINUOUS
10
321.209
20
-82.0102
11
321.209
21
-82.9302
0
LINE
8
BLACK
6
CONTINUOUS
10
315.91
20
-64.5438
11
317.73
21
-64.5438
0
LINE
8
BLACK
6
CONTINUOUS
10
315.91
20
-65.4638
11
315.91
21
-64.5438
0
LINE
8
BLACK
6
CONTINUOUS
10
317.73
20
-65.4638
11
315.91
21
-65.4638
0
LINE
8
BLACK
6
CONTINUOUS
10
317.73
20
-64.5438
11
317.73
21
-65.4638
0
LINE
8
BLACK
6
CONTINUOUS
10
319.385
20
-52.9761
11
321.205
21
-52.9761
0
LINE
8
BLACK
6
CONTINUOUS
10
319.385
20
-53.8961
11
319.385
21
-52.9761
0
LINE
8
BLACK
6
CONTINUOUS
10
321.205
20
-53.8961
11
319.385
21
-53.8961
0
LINE
8
BLACK
6
CONTINUOUS
10
321.205
20
-52.9761
11
321.205
21
-53.8961
0
LINE
8
BLACK
6
CONTINUOUS
10
319.385
20
-20.8432
11
321.205
21
-20.8432
0
LINE
8
BLACK
6
CONTINUOUS
10
319.385
20
-21.7632
11
319.385
21
-20.8432
0
LINE
8
BLACK
6
CONTINUOUS
10
321.205
20
-21.7632
11
319.385
21
-21.7632
0
LINE
8
BLACK
6
CONTINUOUS
10
321.205
20
-20.8432
11
321.205
21
-21.7632
0
LINE
8
BLACK
6
CONTINUOUS
10
319.385
20
-64.758
11
321.205
21
-64.758
0
LINE
8
BLACK
6
CONTINUOUS
10
319.385
20
-65.678
11
319.385
21
-64.758
0
LINE
8
BLACK
6
CONTINUOUS
10
321.205
20
-65.678
11
319.385
21
-65.678
0
LINE
8
BLACK
6
CONTINUOUS
10
321.205
20
-64.758
11
321.205
21
-65.678
0
LINE
8
BLACK
6
CONTINUOUS
10
319.385
20
-51.905
11
321.205
21
-51.905
0
LINE
8
BLACK
6
CONTINUOUS
10
319.385
20
-52.825
11
319.385
21
-51.905
0
LINE
8
BLACK
6
CONTINUOUS
10
321.205
20
-52.825
11
319.385
21
-52.825
0
LINE
8
BLACK
6
CONTINUOUS
10
321.205
20
-51.905
11
321.205
21
-52.825
0
LINE
8
BLACK
6
CONTINUOUS
10
319.385
20
-58.3315
11
321.205
21
-58.3315
0
LINE
8
BLACK
6
CONTINUOUS
10
319.385
20
-59.2515
11
319.385
21
-58.3315
0
LINE
8
BLACK
6
CONTINUOUS
10
321.205
20
-59.2515
11
319.385
21
-59.2515
0
LINE
8
BLACK
6
CONTINUOUS
10
321.205
20
-58.3315
11
321.205
21
-59.2515
0
LINE
8
BLACK
6
CONTINUOUS
10
319.37
20
-14.4272
11
321.19
21
-14.4272
0
LINE
8
BLACK
6
CONTINUOUS
10
319.37
20
-15.3472
11
319.37
21
-14.4272
0
LINE
8
BLACK
6
CONTINUOUS
10
321.19
20
-15.3472
11
319.37
21
-15.3472
0
LINE
8
BLACK
6
CONTINUOUS
10
321.19
20
-14.4272
11
321.19
21
-15.3472
0
LINE
8
BLACK
6
CONTINUOUS
10
319.385
20
-32.6255
11
321.205
21
-32.6255
0
LINE
8
BLACK
6
CONTINUOUS
10
319.385
20
-33.5455
11
319.385
21
-32.6255
0
LINE
8
BLACK
6
CONTINUOUS
10
321.205
20
-33.5455
11
319.385
21
-33.5455
0
LINE
8
BLACK
6
CONTINUOUS
10
321.205
20
-32.6255
11
321.205
21
-33.5455
0
LINE
8
BLACK
6
CONTINUOUS
10
319.385
20
-26.1992
11
321.205
21
-26.1992
0
LINE
8
BLACK
6
CONTINUOUS
10
319.385
20
-27.1192
11
319.385
21
-26.1992
0
LINE
8
BLACK
6
CONTINUOUS
10
321.205
20
-27.1192
11
319.385
21
-27.1192
0
LINE
8
BLACK
6
CONTINUOUS
10
321.205
20
-26.1992
11
321.205
21
-27.1192
0
LINE
8
BLACK
6
CONTINUOUS
10
319.385
20
-45.4785
11
321.205
21
-45.4785
0
LINE
8
BLACK
6
CONTINUOUS
10
319.385
20
-46.3985
11
319.385
21
-45.4785
0
LINE
8
BLACK
6
CONTINUOUS
10
321.205
20
-46.3985
11
319.385
21
-46.3985
0
LINE
8
BLACK
6
CONTINUOUS
10
321.205
20
-45.4785
11
321.205
21
-46.3985
0
LINE
8
BLACK
6
CONTINUOUS
10
317.022
20
-20.9271
11
318.842
21
-20.9271
0
LINE
8
BLACK
6
CONTINUOUS
10
317.022
20
-21.8471
11
317.022
21
-20.9271
0
LINE
8
BLACK
6
CONTINUOUS
10
318.842
20
-21.8471
11
317.022
21
-21.8471
0
LINE
8
BLACK
6
CONTINUOUS
10
318.842
20
-20.9271
11
318.842
21
-21.8471
0
LINE
8
BLACK
6
CONTINUOUS
10
317.022
20
-24.1404
11
318.842
21
-24.1404
0
LINE
8
BLACK
6
CONTINUOUS
10
317.022
20
-25.0604
11
317.022
21
-24.1404
0
LINE
8
BLACK
6
CONTINUOUS
10
318.842
20
-25.0604
11
317.022
21
-25.0604
0
LINE
8
BLACK
6
CONTINUOUS
10
318.842
20
-24.1404
11
318.842
21
-25.0604
0
LINE
8
BLACK
6
CONTINUOUS
10
319.394
20
-79.7972
11
321.214
21
-79.7972
0
LINE
8
BLACK
6
CONTINUOUS
10
319.394
20
-80.7172
11
319.394
21
-79.7972
0
LINE
8
BLACK
6
CONTINUOUS
10
321.214
20
-80.7172
11
319.394
21
-80.7172
0
LINE
8
BLACK
6
CONTINUOUS
10
321.214
20
-79.7972
11
321.214
21
-80.7172
0
LINE
8
BLACK
6
CONTINUOUS
10
319.385
20
-19.7722
11
321.205
21
-19.7722
0
LINE
8
BLACK
6
CONTINUOUS
10
319.385
20
-20.6922
11
319.385
21
-19.7722
0
LINE
8
BLACK
6
CONTINUOUS
10
321.205
20
-20.6922
11
319.385
21
-20.6922
0
LINE
8
BLACK
6
CONTINUOUS
10
321.205
20
-19.7722
11
321.205
21
-20.6922
0
LINE
8
BLACK
6
CONTINUOUS
10
319.385
20
-39.052
11
321.205
21
-39.052
0
LINE
8
BLACK
6
CONTINUOUS
10
319.385
20
-39.972
11
319.385
21
-39.052
0
LINE
8
BLACK
6
CONTINUOUS
10
321.205
20
-39.972
11
319.385
21
-39.972
0
LINE
8
BLACK
6
CONTINUOUS
10
321.205
20
-39.052
11
321.205
21
-39.972
0
LINE
8
BLACK
6
CONTINUOUS
10
317.022
20
-14.5006
11
318.842
21
-14.5006
0
LINE
8
BLACK
6
CONTINUOUS
10
317.022
20
-15.4206
11
317.022
21
-14.5006
0
LINE
8
BLACK
6
CONTINUOUS
10
318.842
20
-15.4206
11
317.022
21
-15.4206
0
LINE
8
BLACK
6
CONTINUOUS
10
318.842
20
-14.5006
11
318.842
21
-15.4206
0
LINE
8
BLACK
6
CONTINUOUS
10
319.385
20
-76.5399
11
321.205
21
-76.5399
0
LINE
8
BLACK
6
CONTINUOUS
10
319.385
20
-77.4599
11
319.385
21
-76.5399
0
LINE
8
BLACK
6
CONTINUOUS
10
321.205
20
-77.4599
11
319.385
21
-77.4599
0
LINE
8
BLACK
6
CONTINUOUS
10
321.205
20
-76.5399
11
321.205
21
-77.4599
0
LINE
8
BLACK
6
CONTINUOUS
10
319.385
20
-74.3978
11
321.205
21
-74.3978
0
LINE
8
BLACK
6
CONTINUOUS
10
319.385
20
-75.3178
11
319.385
21
-74.3978
0
LINE
8
BLACK
6
CONTINUOUS
10
321.205
20
-75.3178
11
319.385
21
-75.3178
0
LINE
8
BLACK
6
CONTINUOUS
10
321.205
20
-74.3978
11
321.205
21
-75.3178
0
LINE
8
BLACK
6
CONTINUOUS
10
319.385
20
-46.5496
11
321.205
21
-46.5496
0
LINE
8
BLACK
6
CONTINUOUS
10
319.385
20
-47.4696
11
319.385
21
-46.5496
0
LINE
8
BLACK
6
CONTINUOUS
10
321.205
20
-47.4696
11
319.385
21
-47.4696
0
LINE
8
BLACK
6
CONTINUOUS
10
321.205
20
-46.5496
11
321.205
21
-47.4696
0
LINE
8
BLACK
6
CONTINUOUS
10
319.385
20
-40.1231
11
321.205
21
-40.1231
0
LINE
8
BLACK
6
CONTINUOUS
10
319.385
20
-41.0431
11
319.385
21
-40.1231
0
LINE
8
BLACK
6
CONTINUOUS
10
321.205
20
-41.0431
11
319.385
21
-41.0431
0
LINE
8
BLACK
6
CONTINUOUS
10
321.205
20
-40.1231
11
321.205
21
-41.0431
0
LINE
8
BLACK
6
CONTINUOUS
10
315.91
20
-63.5438
11
317.73
21
-63.5438
0
LINE
8
BLACK
6
CONTINUOUS
10
315.91
20
-64.4638
11
315.91
21
-63.5438
0
LINE
8
BLACK
6
CONTINUOUS
10
317.73
20
-64.4638
11
315.91
21
-64.4638
0
LINE
8
BLACK
6
CONTINUOUS
10
317.73
20
-63.5438
11
317.73
21
-64.4638
0
LINE
8
BLACK
6
CONTINUOUS
10
319.392
20
-77.5586
11
321.212
21
-77.5586
0
LINE
8
BLACK
6
CONTINUOUS
10
319.392
20
-78.4786
11
319.392
21
-77.5586
0
LINE
8
BLACK
6
CONTINUOUS
10
321.212
20
-78.4786
11
319.392
21
-78.4786
0
LINE
8
BLACK
6
CONTINUOUS
10
321.212
20
-77.5586
11
321.212
21
-78.4786
0
LINE
8
BLACK
6
CONTINUOUS
10
319.385
20
-33.6966
11
321.205
21
-33.6966
0
LINE
8
BLACK
6
CONTINUOUS
10
319.385
20
-34.6166
11
319.385
21
-33.6966
0
LINE
8
BLACK
6
CONTINUOUS
10
321.205
20
-34.6166
11
319.385
21
-34.6166
0
LINE
8
BLACK
6
CONTINUOUS
10
321.205
20
-33.6966
11
321.205
21
-34.6166
  0
ENDSEC
  0
EOF
