%TF.GenerationSoftware,KiCad,Pcbnew,(5.1.10)-1*%
%TF.CreationDate,2021-09-10T11:23:46-07:00*%
%TF.ProjectId,chgray-keyboard,63686772-6179-42d6-9b65-79626f617264,Yeet2*%
%TF.SameCoordinates,Original*%
%TF.FileFunction,Other,ECO1*%
%FSLAX46Y46*%
G04 Gerber Fmt 4.6, Leading zero omitted, Abs format (unit mm)*
G04 Created by KiCad (PCBNEW (5.1.10)-1) date 2021-09-10 11:23:46*
%MOMM*%
%LPD*%
G01*
G04 APERTURE LIST*
%ADD10C,0.150000*%
%ADD11C,0.120000*%
G04 APERTURE END LIST*
D10*
%TO.C,SW58*%
X225922000Y-121296000D02*
X225922000Y-106796000D01*
X240422000Y-106796000D02*
X240422000Y-121296000D01*
X225922000Y-106796000D02*
X240422000Y-106796000D01*
X240422000Y-121296000D02*
X225922000Y-121296000D01*
%TO.C,RIGHT-SPACE1*%
X249798000Y-121296000D02*
X249798000Y-106796000D01*
X264298000Y-106796000D02*
X264298000Y-121296000D01*
X249798000Y-106796000D02*
X264298000Y-106796000D01*
X264298000Y-121296000D02*
X249798000Y-121296000D01*
%TO.C,LEFT_ALT1*%
X128536000Y-11569000D02*
X142736000Y-11569000D01*
X142736000Y-11569000D02*
X142736000Y-25769000D01*
X142736000Y-25769000D02*
X128536000Y-25769000D01*
X128536000Y-25769000D02*
X128536000Y-11569000D01*
%TO.C,RIGHT-SHIFT2*%
X204736000Y-11569000D02*
X218936000Y-11569000D01*
X218936000Y-11569000D02*
X218936000Y-25769000D01*
X218936000Y-25769000D02*
X204736000Y-25769000D01*
X204736000Y-25769000D02*
X204736000Y-11569000D01*
%TO.C,LEFT-SPACE1*%
X147586000Y-11569000D02*
X161786000Y-11569000D01*
X161786000Y-11569000D02*
X161786000Y-25769000D01*
X161786000Y-25769000D02*
X147586000Y-25769000D01*
X147586000Y-25769000D02*
X147586000Y-11569000D01*
%TO.C,SW50*%
X324065000Y-11569000D02*
X338265000Y-11569000D01*
X338265000Y-11569000D02*
X338265000Y-25769000D01*
X338265000Y-25769000D02*
X324065000Y-25769000D01*
X324065000Y-25769000D02*
X324065000Y-11569000D01*
%TO.C,SW45*%
X261886000Y-11569000D02*
X276086000Y-11569000D01*
X276086000Y-11569000D02*
X276086000Y-25769000D01*
X276086000Y-25769000D02*
X261886000Y-25769000D01*
X261886000Y-25769000D02*
X261886000Y-11569000D01*
%TO.C,SW37*%
X362038000Y-11569000D02*
X376238000Y-11569000D01*
X376238000Y-11569000D02*
X376238000Y-25769000D01*
X376238000Y-25769000D02*
X362038000Y-25769000D01*
X362038000Y-25769000D02*
X362038000Y-11569000D01*
%TO.C,SW25*%
X280936000Y-11569000D02*
X295136000Y-11569000D01*
X295136000Y-11569000D02*
X295136000Y-25769000D01*
X295136000Y-25769000D02*
X280936000Y-25769000D01*
X280936000Y-25769000D02*
X280936000Y-11569000D01*
%TO.C,SW21*%
X300134000Y-11569000D02*
X314334000Y-11569000D01*
X314334000Y-11569000D02*
X314334000Y-25769000D01*
X314334000Y-25769000D02*
X300134000Y-25769000D01*
X300134000Y-25769000D02*
X300134000Y-11569000D01*
%TO.C,SW13*%
X242836000Y-11569000D02*
X257036000Y-11569000D01*
X257036000Y-11569000D02*
X257036000Y-25769000D01*
X257036000Y-25769000D02*
X242836000Y-25769000D01*
X242836000Y-25769000D02*
X242836000Y-11569000D01*
%TO.C,SW9*%
X343115000Y-11569000D02*
X357315000Y-11569000D01*
X357315000Y-11569000D02*
X357315000Y-25769000D01*
X357315000Y-25769000D02*
X343115000Y-25769000D01*
X343115000Y-25769000D02*
X343115000Y-11569000D01*
%TO.C,SW3*%
X223786000Y-11569000D02*
X237986000Y-11569000D01*
X237986000Y-11569000D02*
X237986000Y-25769000D01*
X237986000Y-25769000D02*
X223786000Y-25769000D01*
X223786000Y-25769000D02*
X223786000Y-11569000D01*
%TO.C,RightMeta1*%
X297480000Y-121296000D02*
X297480000Y-106796000D01*
X311980000Y-106796000D02*
X311980000Y-121296000D01*
X297480000Y-106796000D02*
X311980000Y-106796000D01*
X311980000Y-121296000D02*
X297480000Y-121296000D01*
D11*
%TO.C,RIGHT-SHIFT1*%
X306802000Y-86386000D02*
X306802000Y-105496000D01*
X298542000Y-86386000D02*
X298542000Y-105496000D01*
X298542000Y-105496000D02*
X306802000Y-105496000D01*
X298542000Y-86386000D02*
X306802000Y-86386000D01*
X282152000Y-86386000D02*
X282152000Y-105496000D01*
X273892000Y-86386000D02*
X273892000Y-105496000D01*
X273892000Y-105496000D02*
X282152000Y-105496000D01*
X273892000Y-86386000D02*
X282152000Y-86386000D01*
D10*
X283072000Y-102246000D02*
X283072000Y-87746000D01*
X297572000Y-87746000D02*
X297572000Y-102246000D01*
X283072000Y-87746000D02*
X297572000Y-87746000D01*
X297572000Y-102246000D02*
X283072000Y-102246000D01*
%TO.C,ENTER1*%
X287960000Y-83069000D02*
X287960000Y-68569000D01*
X302460000Y-68569000D02*
X302460000Y-83069000D01*
X287960000Y-68569000D02*
X302460000Y-68569000D01*
X302460000Y-83069000D02*
X287960000Y-83069000D01*
D11*
X278830000Y-66759000D02*
X287090000Y-66759000D01*
X278830000Y-86239000D02*
X287090000Y-86239000D01*
X278830000Y-66759000D02*
X278830000Y-86239000D01*
X287090000Y-66759000D02*
X287090000Y-86239000D01*
X303370000Y-66759000D02*
X311630000Y-66759000D01*
X303370000Y-86329000D02*
X311630000Y-86329000D01*
X303370000Y-66759000D02*
X303370000Y-86329000D01*
X311630000Y-66759000D02*
X311630000Y-86329000D01*
D10*
%TO.C,SW4*%
X33286000Y-30573900D02*
X47486000Y-30573900D01*
X47486000Y-30573900D02*
X47486000Y-44773900D01*
X47486000Y-44773900D02*
X33286000Y-44773900D01*
X33286000Y-44773900D02*
X33286000Y-30573900D01*
%TO.C,WinKey1*%
X83428000Y-121296000D02*
X83428000Y-106796000D01*
X97928000Y-106796000D02*
X97928000Y-121296000D01*
X83428000Y-106796000D02*
X97928000Y-106796000D01*
X97928000Y-121296000D02*
X83428000Y-121296000D01*
%TO.C,LEFT_FN1*%
X59552000Y-121296000D02*
X59552000Y-106796000D01*
X74052000Y-106796000D02*
X74052000Y-121296000D01*
X59552000Y-106796000D02*
X74052000Y-106796000D01*
X74052000Y-121296000D02*
X59552000Y-121296000D01*
%TO.C,LEFT_CTRL1*%
X35634700Y-121296000D02*
X35634700Y-106796000D01*
X50134700Y-106796000D02*
X50134700Y-121296000D01*
X35634700Y-106796000D02*
X50134700Y-106796000D01*
X50134700Y-121296000D02*
X35634700Y-121296000D01*
%TO.C,Slash1*%
X295255000Y-63742000D02*
X295255000Y-49542000D01*
X309455000Y-49542000D02*
X309455000Y-63742000D01*
X295255000Y-49542000D02*
X309455000Y-49542000D01*
X309455000Y-63742000D02*
X295255000Y-63742000D01*
%TO.C,LEFT-SHIFT1*%
X45159700Y-102119000D02*
X45159700Y-87619000D01*
X59659700Y-87619000D02*
X59659700Y-102119000D01*
X45159700Y-87619000D02*
X59659700Y-87619000D01*
X59659700Y-102119000D02*
X45159700Y-102119000D01*
D11*
X36029700Y-85809000D02*
X44289700Y-85809000D01*
X36029700Y-105289000D02*
X44289700Y-105289000D01*
X36029700Y-85809000D02*
X36029700Y-105289000D01*
X44289700Y-85809000D02*
X44289700Y-105289000D01*
X60569700Y-85809000D02*
X68829700Y-85809000D01*
X60569700Y-105379000D02*
X68829700Y-105379000D01*
X60569700Y-85809000D02*
X60569700Y-105379000D01*
X68829700Y-85809000D02*
X68829700Y-105379000D01*
%TO.C,Backspace1*%
X289353000Y-28646000D02*
X289353000Y-48266000D01*
D10*
X304843000Y-45096000D02*
X290343000Y-45096000D01*
X290343000Y-30596000D02*
X304843000Y-30596000D01*
X304843000Y-30596000D02*
X304843000Y-45096000D01*
X290343000Y-45096000D02*
X290343000Y-30596000D01*
D11*
X281093000Y-28646000D02*
X289353000Y-28646000D01*
X281093000Y-28646000D02*
X281093000Y-48266000D01*
X281093000Y-48266000D02*
X289353000Y-48266000D01*
X305773000Y-28646000D02*
X314033000Y-28646000D01*
X305773000Y-48236000D02*
X314033000Y-48236000D01*
X305773000Y-28646000D02*
X305773000Y-48236000D01*
X314033000Y-28646000D02*
X314033000Y-48236000D01*
D10*
%TO.C,TAB1*%
X38164700Y-63885200D02*
X38164700Y-49685200D01*
X52364700Y-49685200D02*
X52364700Y-63885200D01*
X38164700Y-49685200D02*
X52364700Y-49685200D01*
X52364700Y-63885200D02*
X38164700Y-63885200D01*
%TO.C,CAPS1*%
X40397200Y-83069000D02*
X40397200Y-68569000D01*
X54897200Y-68569000D02*
X54897200Y-83069000D01*
X40397200Y-68569000D02*
X54897200Y-68569000D01*
X54897200Y-83069000D02*
X40397200Y-83069000D01*
%TO.C,SW63*%
X237883000Y-68719000D02*
X252083000Y-68719000D01*
X252083000Y-68719000D02*
X252083000Y-82919000D01*
X252083000Y-82919000D02*
X237883000Y-82919000D01*
X237883000Y-82919000D02*
X237883000Y-68719000D01*
%TO.C,SW1*%
X109486000Y-11569000D02*
X123686000Y-11569000D01*
X123686000Y-11569000D02*
X123686000Y-25769000D01*
X123686000Y-25769000D02*
X109486000Y-25769000D01*
X109486000Y-25769000D02*
X109486000Y-11569000D01*
%TO.C,SW2*%
X227977000Y-87769000D02*
X242177000Y-87769000D01*
X242177000Y-87769000D02*
X242177000Y-101969000D01*
X242177000Y-101969000D02*
X227977000Y-101969000D01*
X227977000Y-101969000D02*
X227977000Y-87769000D01*
%TO.C,SW5*%
X52336000Y-30573900D02*
X66536000Y-30573900D01*
X66536000Y-30573900D02*
X66536000Y-44773900D01*
X66536000Y-44773900D02*
X52336000Y-44773900D01*
X52336000Y-44773900D02*
X52336000Y-30573900D01*
%TO.C,SW6*%
X61988000Y-49542000D02*
X76188000Y-49542000D01*
X76188000Y-49542000D02*
X76188000Y-63742000D01*
X76188000Y-63742000D02*
X61988000Y-63742000D01*
X61988000Y-63742000D02*
X61988000Y-49542000D01*
%TO.C,SW7*%
X66687000Y-68719000D02*
X80887000Y-68719000D01*
X80887000Y-68719000D02*
X80887000Y-82919000D01*
X80887000Y-82919000D02*
X66687000Y-82919000D01*
X66687000Y-82919000D02*
X66687000Y-68719000D01*
%TO.C,SW8*%
X324065000Y-87769000D02*
X338265000Y-87769000D01*
X338265000Y-87769000D02*
X338265000Y-101969000D01*
X338265000Y-101969000D02*
X324065000Y-101969000D01*
X324065000Y-101969000D02*
X324065000Y-87769000D01*
%TO.C,SW10*%
X85737000Y-68719000D02*
X99937000Y-68719000D01*
X99937000Y-68719000D02*
X99937000Y-82919000D01*
X99937000Y-82919000D02*
X85737000Y-82919000D01*
X85737000Y-82919000D02*
X85737000Y-68719000D01*
%TO.C,SW11*%
X76212000Y-87769000D02*
X90412000Y-87769000D01*
X90412000Y-87769000D02*
X90412000Y-101969000D01*
X90412000Y-101969000D02*
X76212000Y-101969000D01*
X76212000Y-101969000D02*
X76212000Y-87769000D01*
%TO.C,SW12*%
X90436000Y-11569000D02*
X104636000Y-11569000D01*
X104636000Y-11569000D02*
X104636000Y-25769000D01*
X104636000Y-25769000D02*
X90436000Y-25769000D01*
X90436000Y-25769000D02*
X90436000Y-11569000D01*
%TO.C,SW14*%
X71386000Y-30573900D02*
X85586000Y-30573900D01*
X85586000Y-30573900D02*
X85586000Y-44773900D01*
X85586000Y-44773900D02*
X71386000Y-44773900D01*
X71386000Y-44773900D02*
X71386000Y-30573900D01*
%TO.C,SW15*%
X80911000Y-49542000D02*
X95111000Y-49542000D01*
X95111000Y-49542000D02*
X95111000Y-63742000D01*
X95111000Y-63742000D02*
X80911000Y-63742000D01*
X80911000Y-63742000D02*
X80911000Y-49542000D01*
%TO.C,SW16*%
X90436000Y-30573900D02*
X104636000Y-30573900D01*
X104636000Y-30573900D02*
X104636000Y-44773900D01*
X104636000Y-44773900D02*
X90436000Y-44773900D01*
X90436000Y-44773900D02*
X90436000Y-30573900D01*
%TO.C,SW17*%
X99834000Y-49542000D02*
X114034000Y-49542000D01*
X114034000Y-49542000D02*
X114034000Y-63742000D01*
X114034000Y-63742000D02*
X99834000Y-63742000D01*
X99834000Y-63742000D02*
X99834000Y-49542000D01*
%TO.C,SW18*%
X104787000Y-68719000D02*
X118987000Y-68719000D01*
X118987000Y-68719000D02*
X118987000Y-82919000D01*
X118987000Y-82919000D02*
X104787000Y-82919000D01*
X104787000Y-82919000D02*
X104787000Y-68719000D01*
%TO.C,SW19*%
X95008000Y-87769000D02*
X109208000Y-87769000D01*
X109208000Y-87769000D02*
X109208000Y-101969000D01*
X109208000Y-101969000D02*
X95008000Y-101969000D01*
X95008000Y-101969000D02*
X95008000Y-87769000D01*
%TO.C,SW20*%
X232295000Y-49542000D02*
X246495000Y-49542000D01*
X246495000Y-49542000D02*
X246495000Y-63742000D01*
X246495000Y-63742000D02*
X232295000Y-63742000D01*
X232295000Y-63742000D02*
X232295000Y-49542000D01*
%TO.C,SW22*%
X123837000Y-68719000D02*
X138037000Y-68719000D01*
X138037000Y-68719000D02*
X138037000Y-82919000D01*
X138037000Y-82919000D02*
X123837000Y-82919000D01*
X123837000Y-82919000D02*
X123837000Y-68719000D01*
%TO.C,SW23*%
X113931000Y-87769000D02*
X128131000Y-87769000D01*
X128131000Y-87769000D02*
X128131000Y-101969000D01*
X128131000Y-101969000D02*
X113931000Y-101969000D01*
X113931000Y-101969000D02*
X113931000Y-87769000D01*
%TO.C,SW24*%
X251345000Y-49542000D02*
X265545000Y-49542000D01*
X265545000Y-49542000D02*
X265545000Y-63742000D01*
X265545000Y-63742000D02*
X251345000Y-63742000D01*
X251345000Y-63742000D02*
X251345000Y-49542000D01*
%TO.C,SW26*%
X109486000Y-30573900D02*
X123686000Y-30573900D01*
X123686000Y-30573900D02*
X123686000Y-44773900D01*
X123686000Y-44773900D02*
X109486000Y-44773900D01*
X109486000Y-44773900D02*
X109486000Y-30573900D01*
%TO.C,SW27*%
X118757000Y-49542000D02*
X132957000Y-49542000D01*
X132957000Y-49542000D02*
X132957000Y-63742000D01*
X132957000Y-63742000D02*
X118757000Y-63742000D01*
X118757000Y-63742000D02*
X118757000Y-49542000D01*
%TO.C,SW28*%
X128536000Y-30573900D02*
X142736000Y-30573900D01*
X142736000Y-30573900D02*
X142736000Y-44773900D01*
X142736000Y-44773900D02*
X128536000Y-44773900D01*
X128536000Y-44773900D02*
X128536000Y-30573900D01*
%TO.C,SW29*%
X137680000Y-49542000D02*
X151880000Y-49542000D01*
X151880000Y-49542000D02*
X151880000Y-63742000D01*
X151880000Y-63742000D02*
X137680000Y-63742000D01*
X137680000Y-63742000D02*
X137680000Y-49542000D01*
%TO.C,SW30*%
X142633000Y-68719000D02*
X156833000Y-68719000D01*
X156833000Y-68719000D02*
X156833000Y-82919000D01*
X156833000Y-82919000D02*
X142633000Y-82919000D01*
X142633000Y-82919000D02*
X142633000Y-68719000D01*
%TO.C,SW31*%
X132854000Y-87769000D02*
X147054000Y-87769000D01*
X147054000Y-87769000D02*
X147054000Y-101969000D01*
X147054000Y-101969000D02*
X132854000Y-101969000D01*
X132854000Y-101969000D02*
X132854000Y-87769000D01*
%TO.C,SW32*%
X166636000Y-11569000D02*
X180836000Y-11569000D01*
X180836000Y-11569000D02*
X180836000Y-25769000D01*
X180836000Y-25769000D02*
X166636000Y-25769000D01*
X166636000Y-25769000D02*
X166636000Y-11569000D01*
%TO.C,SW33*%
X161683000Y-68719000D02*
X175883000Y-68719000D01*
X175883000Y-68719000D02*
X175883000Y-82919000D01*
X175883000Y-82919000D02*
X161683000Y-82919000D01*
X161683000Y-82919000D02*
X161683000Y-68719000D01*
%TO.C,SW34*%
X151777000Y-87769000D02*
X165977000Y-87769000D01*
X165977000Y-87769000D02*
X165977000Y-101969000D01*
X165977000Y-101969000D02*
X151777000Y-101969000D01*
X151777000Y-101969000D02*
X151777000Y-87769000D01*
%TO.C,SW35*%
X185686000Y-11569000D02*
X199886000Y-11569000D01*
X199886000Y-11569000D02*
X199886000Y-25769000D01*
X199886000Y-25769000D02*
X185686000Y-25769000D01*
X185686000Y-25769000D02*
X185686000Y-11569000D01*
%TO.C,SW36*%
X247154000Y-87769000D02*
X261354000Y-87769000D01*
X261354000Y-87769000D02*
X261354000Y-101969000D01*
X261354000Y-101969000D02*
X247154000Y-101969000D01*
X247154000Y-101969000D02*
X247154000Y-87769000D01*
%TO.C,SW38*%
X147586000Y-30573900D02*
X161786000Y-30573900D01*
X161786000Y-30573900D02*
X161786000Y-44773900D01*
X161786000Y-44773900D02*
X147586000Y-44773900D01*
X147586000Y-44773900D02*
X147586000Y-30573900D01*
%TO.C,SW39*%
X156603000Y-49542000D02*
X170803000Y-49542000D01*
X170803000Y-49542000D02*
X170803000Y-63742000D01*
X170803000Y-63742000D02*
X156603000Y-63742000D01*
X156603000Y-63742000D02*
X156603000Y-49542000D01*
%TO.C,SW40*%
X166636000Y-30573900D02*
X180836000Y-30573900D01*
X180836000Y-30573900D02*
X180836000Y-44773900D01*
X180836000Y-44773900D02*
X166636000Y-44773900D01*
X166636000Y-44773900D02*
X166636000Y-30573900D01*
%TO.C,SW41*%
X175526000Y-49542000D02*
X189726000Y-49542000D01*
X189726000Y-49542000D02*
X189726000Y-63742000D01*
X189726000Y-63742000D02*
X175526000Y-63742000D01*
X175526000Y-63742000D02*
X175526000Y-49542000D01*
%TO.C,SW42*%
X180733000Y-68719000D02*
X194933000Y-68719000D01*
X194933000Y-68719000D02*
X194933000Y-82919000D01*
X194933000Y-82919000D02*
X180733000Y-82919000D01*
X180733000Y-82919000D02*
X180733000Y-68719000D01*
%TO.C,SW43*%
X170700000Y-87769000D02*
X184900000Y-87769000D01*
X184900000Y-87769000D02*
X184900000Y-101969000D01*
X184900000Y-101969000D02*
X170700000Y-101969000D01*
X170700000Y-101969000D02*
X170700000Y-87769000D01*
%TO.C,SW44*%
X242836000Y-30573900D02*
X257036000Y-30573900D01*
X257036000Y-30573900D02*
X257036000Y-44773900D01*
X257036000Y-44773900D02*
X242836000Y-44773900D01*
X242836000Y-44773900D02*
X242836000Y-30573900D01*
%TO.C,SW46*%
X199783000Y-68719000D02*
X213983000Y-68719000D01*
X213983000Y-68719000D02*
X213983000Y-82919000D01*
X213983000Y-82919000D02*
X199783000Y-82919000D01*
X199783000Y-82919000D02*
X199783000Y-68719000D01*
%TO.C,SW47*%
X189750000Y-87769000D02*
X203950000Y-87769000D01*
X203950000Y-87769000D02*
X203950000Y-101969000D01*
X203950000Y-101969000D02*
X189750000Y-101969000D01*
X189750000Y-101969000D02*
X189750000Y-87769000D01*
%TO.C,SW49*%
X261886000Y-30573900D02*
X276086000Y-30573900D01*
X276086000Y-30573900D02*
X276086000Y-44773900D01*
X276086000Y-44773900D02*
X261886000Y-44773900D01*
X261886000Y-44773900D02*
X261886000Y-30573900D01*
%TO.C,SW51*%
X185686000Y-30573900D02*
X199886000Y-30573900D01*
X199886000Y-30573900D02*
X199886000Y-44773900D01*
X199886000Y-44773900D02*
X185686000Y-44773900D01*
X185686000Y-44773900D02*
X185686000Y-30573900D01*
%TO.C,SW52*%
X194449000Y-49542000D02*
X208649000Y-49542000D01*
X208649000Y-49542000D02*
X208649000Y-63742000D01*
X208649000Y-63742000D02*
X194449000Y-63742000D01*
X194449000Y-63742000D02*
X194449000Y-49542000D01*
%TO.C,SW53*%
X204736000Y-30573900D02*
X218936000Y-30573900D01*
X218936000Y-30573900D02*
X218936000Y-44773900D01*
X218936000Y-44773900D02*
X204736000Y-44773900D01*
X204736000Y-44773900D02*
X204736000Y-30573900D01*
%TO.C,SW54*%
X213372000Y-49542000D02*
X227572000Y-49542000D01*
X227572000Y-49542000D02*
X227572000Y-63742000D01*
X227572000Y-63742000D02*
X213372000Y-63742000D01*
X213372000Y-63742000D02*
X213372000Y-49542000D01*
%TO.C,SW55*%
X218833000Y-68719000D02*
X233033000Y-68719000D01*
X233033000Y-68719000D02*
X233033000Y-82919000D01*
X233033000Y-82919000D02*
X218833000Y-82919000D01*
X218833000Y-82919000D02*
X218833000Y-68719000D01*
%TO.C,SW56*%
X208927000Y-87769000D02*
X223127000Y-87769000D01*
X223127000Y-87769000D02*
X223127000Y-101969000D01*
X223127000Y-101969000D02*
X208927000Y-101969000D01*
X208927000Y-101969000D02*
X208927000Y-87769000D01*
%TO.C,SW59*%
X223786000Y-30573900D02*
X237986000Y-30573900D01*
X237986000Y-30573900D02*
X237986000Y-44773900D01*
X237986000Y-44773900D02*
X223786000Y-44773900D01*
X223786000Y-44773900D02*
X223786000Y-30573900D01*
%TO.C,SW60*%
X343115000Y-68719000D02*
X357315000Y-68719000D01*
X357315000Y-68719000D02*
X357315000Y-82919000D01*
X357315000Y-82919000D02*
X343115000Y-82919000D01*
X343115000Y-82919000D02*
X343115000Y-68719000D01*
%TO.C,SW61*%
X270522000Y-49542000D02*
X284722000Y-49542000D01*
X284722000Y-49542000D02*
X284722000Y-63742000D01*
X284722000Y-63742000D02*
X270522000Y-63742000D01*
X270522000Y-63742000D02*
X270522000Y-49542000D01*
%TO.C,SW62*%
X362038000Y-68719000D02*
X376238000Y-68719000D01*
X376238000Y-68719000D02*
X376238000Y-82919000D01*
X376238000Y-82919000D02*
X362038000Y-82919000D01*
X362038000Y-82919000D02*
X362038000Y-68719000D01*
%TO.C,SW64*%
X256933000Y-68719000D02*
X271133000Y-68719000D01*
X271133000Y-68719000D02*
X271133000Y-82919000D01*
X271133000Y-82919000D02*
X256933000Y-82919000D01*
X256933000Y-82919000D02*
X256933000Y-68719000D01*
%TO.C,SW66*%
X343115000Y-49669000D02*
X357315000Y-49669000D01*
X357315000Y-49669000D02*
X357315000Y-63869000D01*
X357315000Y-63869000D02*
X343115000Y-63869000D01*
X343115000Y-63869000D02*
X343115000Y-49669000D01*
%TO.C,SW67*%
X324065000Y-49669000D02*
X338265000Y-49669000D01*
X338265000Y-49669000D02*
X338265000Y-63869000D01*
X338265000Y-63869000D02*
X324065000Y-63869000D01*
X324065000Y-63869000D02*
X324065000Y-49669000D01*
%TO.C,SW65*%
X324065000Y-68719000D02*
X338265000Y-68719000D01*
X338265000Y-68719000D02*
X338265000Y-82919000D01*
X338265000Y-82919000D02*
X324065000Y-82919000D01*
X324065000Y-82919000D02*
X324065000Y-68719000D01*
%TO.C,SW68*%
X343115000Y-87769000D02*
X357315000Y-87769000D01*
X357315000Y-87769000D02*
X357315000Y-101969000D01*
X357315000Y-101969000D02*
X343115000Y-101969000D01*
X343115000Y-101969000D02*
X343115000Y-87769000D01*
%TO.C,SW69*%
X324065000Y-30746000D02*
X338265000Y-30746000D01*
X338265000Y-30746000D02*
X338265000Y-44946000D01*
X338265000Y-44946000D02*
X324065000Y-44946000D01*
X324065000Y-44946000D02*
X324065000Y-30746000D01*
%TO.C,SW70*%
X52336000Y-11569000D02*
X66536000Y-11569000D01*
X66536000Y-11569000D02*
X66536000Y-25769000D01*
X66536000Y-25769000D02*
X52336000Y-25769000D01*
X52336000Y-25769000D02*
X52336000Y-11569000D01*
%TO.C,SW71*%
X362038000Y-49669000D02*
X376238000Y-49669000D01*
X376238000Y-49669000D02*
X376238000Y-63869000D01*
X376238000Y-63869000D02*
X362038000Y-63869000D01*
X362038000Y-63869000D02*
X362038000Y-49669000D01*
%TO.C,SW72*%
X362038000Y-87769000D02*
X376238000Y-87769000D01*
X376238000Y-87769000D02*
X376238000Y-101969000D01*
X376238000Y-101969000D02*
X362038000Y-101969000D01*
X362038000Y-101969000D02*
X362038000Y-87769000D01*
%TO.C,SW73*%
X33286000Y-11569000D02*
X47486000Y-11569000D01*
X47486000Y-11569000D02*
X47486000Y-25769000D01*
X47486000Y-25769000D02*
X33286000Y-25769000D01*
X33286000Y-25769000D02*
X33286000Y-11569000D01*
%TO.C,SW74*%
X362038000Y-30746000D02*
X376238000Y-30746000D01*
X376238000Y-30746000D02*
X376238000Y-44946000D01*
X376238000Y-44946000D02*
X362038000Y-44946000D01*
X362038000Y-44946000D02*
X362038000Y-30746000D01*
%TO.C,SW75*%
X362038000Y-106946000D02*
X376238000Y-106946000D01*
X376238000Y-106946000D02*
X376238000Y-121146000D01*
X376238000Y-121146000D02*
X362038000Y-121146000D01*
X362038000Y-121146000D02*
X362038000Y-106946000D01*
%TO.C,SW76*%
X343115000Y-106946000D02*
X357315000Y-106946000D01*
X357315000Y-106946000D02*
X357315000Y-121146000D01*
X357315000Y-121146000D02*
X343115000Y-121146000D01*
X343115000Y-121146000D02*
X343115000Y-106946000D01*
%TO.C,SW77*%
X324065000Y-106946000D02*
X338265000Y-106946000D01*
X338265000Y-106946000D02*
X338265000Y-121146000D01*
X338265000Y-121146000D02*
X324065000Y-121146000D01*
X324065000Y-121146000D02*
X324065000Y-106946000D01*
%TO.C,S2*%
X71386000Y-11569000D02*
X85586000Y-11569000D01*
X85586000Y-11569000D02*
X85586000Y-25769000D01*
X85586000Y-25769000D02*
X71386000Y-25769000D01*
X71386000Y-25769000D02*
X71386000Y-11569000D01*
%TO.C,S1*%
X343115000Y-30746000D02*
X357315000Y-30746000D01*
X357315000Y-30746000D02*
X357315000Y-44946000D01*
X357315000Y-44946000D02*
X343115000Y-44946000D01*
X343115000Y-44946000D02*
X343115000Y-30746000D01*
%TO.C,SW48*%
X273674000Y-121296000D02*
X273674000Y-106796000D01*
X288174000Y-106796000D02*
X288174000Y-121296000D01*
X273674000Y-106796000D02*
X288174000Y-106796000D01*
X288174000Y-121296000D02*
X273674000Y-121296000D01*
%TD*%
M02*
