  0
SECTION
  2
HEADER
  9
$ANGBASE
  50
0.0
  9
$ANGDIR
  70
1
  9
$MEASUREMENT
  70
1
  0
ENDSEC
  0
SECTION
  2
TABLES
  0
TABLE
  2
LTYPE
  70
4
  0
LTYPE
  5
40F
  2
CONTINUOUS
  70
0
  3
Solid line
  72
65
  73
0
  40
0.0
  0
LTYPE
  5
410
  2
DASHDOT
 70
0
  3
Dash Dot ____ _ ____ _
 72
65
 73
4
 40
2.0
 49
1.25
 49
-0.25
 49
0.25
 49
-0.25
  0
LTYPE
  5
411
  2
DASHED
 70
0
  3
Dashed __ __ __ __ __
 72
65
 73
2
 40
0.75
 49
0.5
 49
-0.25
  0
LTYPE
  5
43B
  2
DOTTED
 70
0
  3
Dotted .  .  .  .
 72
65
 73
2
 40
0.2
 49
0.0
 49
-0.2
  0
ENDTAB
  0
TABLE
  2
STYLE
  70
4
  0
STYLE
  2
KICAD
  70
0
  40
0
  41
1
  42
1
  50
0
  71
0
  3
isocp.shx
  0
STYLE
  2
KICADB
  70
0
  40
0
  41
1
  42
1
  50
0
  71
0
  3
isocp.shx
  0
STYLE
  2
KICADI
  70
0
  40
0
  41
1
  42
1
  50
15
  71
0
  3
isocp.shx
  0
STYLE
  2
KICADBI
  70
0
  40
0
  41
1
  42
1
  50
15
  71
0
  3
isocp.shx
  0
ENDTAB
  0
TABLE
  2
LAYER
  70
1
  0
LAYER
  2
BLACK
  70
0
  62
7
  6
CONTINUOUS
  0
ENDTAB
  0
ENDSEC
  0
SECTION
  2
ENTITIES
0
LINE
8
BLACK
6
CONTINUOUS
10
321.564
20
-12.827
11
314.833
21
-12.827
0
LINE
8
BLACK
6
CONTINUOUS
10
321.564
20
-103.124
11
321.564
21
-12.827
0
LINE
8
BLACK
6
CONTINUOUS
10
324.739
20
-103.124
11
321.564
21
-103.124
0
LINE
8
BLACK
6
CONTINUOUS
10
324.739
20
-119.38
11
324.739
21
-103.124
0
LINE
8
BLACK
6
CONTINUOUS
10
324.739
20
-124.333
11
324.739
21
-119.38
0
LINE
8
BLACK
6
CONTINUOUS
10
312.42
20
-124.333
11
324.739
21
-124.333
0
LINE
8
BLACK
6
CONTINUOUS
10
312.42
20
-105.918
11
312.42
21
-124.333
0
LINE
8
BLACK
6
CONTINUOUS
10
307.34
20
-103.124
11
312.42
21
-105.918
0
LINE
8
BLACK
6
CONTINUOUS
10
307.34
20
-87.63
11
307.34
21
-103.124
0
LINE
8
BLACK
6
CONTINUOUS
10
318.897
20
-87.63
11
307.34
21
-87.63
0
LINE
8
BLACK
6
CONTINUOUS
10
318.897
20
-67.691
11
318.897
21
-87.63
0
LINE
8
BLACK
6
CONTINUOUS
10
316.103
20
-67.691
11
318.897
21
-67.691
0
LINE
8
BLACK
6
CONTINUOUS
10
313.563
20
-59.69
11
316.103
21
-67.691
0
LINE
8
BLACK
6
CONTINUOUS
10
313.563
20
-48.895
11
313.563
21
-59.69
0
LINE
8
BLACK
6
CONTINUOUS
10
314.833
20
-48.895
11
313.563
21
-48.895
0
LINE
8
BLACK
6
CONTINUOUS
10
314.833
20
-12.827
11
314.833
21
-48.895
0
LINE
8
BLACK
6
CONTINUOUS
10
325.628
20
-103.378
11
373.126
21
-103.378
0
LINE
8
BLACK
6
CONTINUOUS
10
325.628
20
-105.918
11
325.628
21
-103.378
0
LINE
8
BLACK
6
CONTINUOUS
10
373.126
20
-105.918
11
325.628
21
-105.918
0
LINE
8
BLACK
6
CONTINUOUS
10
373.126
20
-103.378
11
373.126
21
-105.918
0
LINE
8
BLACK
6
CONTINUOUS
10
271.526
20
-83.947
11
69.977
21
-83.947
0
LINE
8
BLACK
6
CONTINUOUS
10
271.526
20
-86.741
11
271.526
21
-83.947
0
LINE
8
BLACK
6
CONTINUOUS
10
69.977
20
-86.741
11
271.526
21
-86.741
0
LINE
8
BLACK
6
CONTINUOUS
10
69.977
20
-83.947
11
69.977
21
-86.741
0
LINE
8
BLACK
6
CONTINUOUS
10
278.257
20
-45.593
11
33.147
21
-45.593
0
LINE
8
BLACK
6
CONTINUOUS
10
278.257
20
-48.641
11
278.257
21
-45.593
0
LINE
8
BLACK
6
CONTINUOUS
10
33.147
20
-48.641
11
278.257
21
-48.641
0
LINE
8
BLACK
6
CONTINUOUS
10
33.147
20
-45.593
11
33.147
21
-48.641
0
LINE
8
BLACK
6
CONTINUOUS
10
240.422
20
-121.296
11
225.922
21
-121.296
0
LINE
8
BLACK
6
CONTINUOUS
10
225.922
20
-106.796
11
240.422
21
-106.796
0
LINE
8
BLACK
6
CONTINUOUS
10
240.422
20
-106.796
11
240.422
21
-121.296
0
LINE
8
BLACK
6
CONTINUOUS
10
225.922
20
-121.296
11
225.922
21
-106.796
0
LINE
8
BLACK
6
CONTINUOUS
10
169.079
20
-107.146
11
169.079
21
-120.946
0
LINE
8
BLACK
6
CONTINUOUS
10
155.279
20
-120.946
11
155.279
21
-107.146
0
LINE
8
BLACK
6
CONTINUOUS
10
155.279
20
-107.146
11
169.079
21
-107.146
0
LINE
8
BLACK
6
CONTINUOUS
10
169.079
20
-120.946
11
155.279
21
-120.946
0
LINE
8
BLACK
6
CONTINUOUS
10
116.459
20
-116.586
11
206.629
21
-116.586
0
LINE
8
BLACK
6
CONTINUOUS
10
206.629
20
-116.586
11
206.629
21
-125.476
0
LINE
8
BLACK
6
CONTINUOUS
10
206.629
20
-125.476
11
218.059
21
-125.476
0
LINE
8
BLACK
6
CONTINUOUS
10
218.059
20
-125.476
11
218.059
21
-102.616
0
LINE
8
BLACK
6
CONTINUOUS
10
206.629
20
-102.616
11
206.629
21
-111.506
0
LINE
8
BLACK
6
CONTINUOUS
10
206.629
20
-111.506
11
116.459
21
-111.506
0
LINE
8
BLACK
6
CONTINUOUS
10
116.459
20
-111.506
11
116.459
21
-102.616
0
LINE
8
BLACK
6
CONTINUOUS
10
116.459
20
-102.616
11
106.299
21
-102.616
0
LINE
8
BLACK
6
CONTINUOUS
10
106.299
20
-102.616
11
106.299
21
-125.476
0
LINE
8
BLACK
6
CONTINUOUS
10
106.299
20
-125.476
11
116.459
21
-125.476
0
LINE
8
BLACK
6
CONTINUOUS
10
116.459
20
-125.476
11
116.459
21
-116.586
0
LINE
8
BLACK
6
CONTINUOUS
10
206.629
20
-102.616
11
218.059
21
-102.616
0
LINE
8
BLACK
6
CONTINUOUS
10
264.298
20
-121.296
11
249.798
21
-121.296
0
LINE
8
BLACK
6
CONTINUOUS
10
249.798
20
-106.796
11
264.298
21
-106.796
0
LINE
8
BLACK
6
CONTINUOUS
10
264.298
20
-106.796
11
264.298
21
-121.296
0
LINE
8
BLACK
6
CONTINUOUS
10
249.798
20
-121.296
11
249.798
21
-106.796
0
LINE
8
BLACK
6
CONTINUOUS
10
128.736
20
-11.769
11
142.536
21
-11.769
0
LINE
8
BLACK
6
CONTINUOUS
10
142.536
20
-11.769
11
142.536
21
-25.569
0
LINE
8
BLACK
6
CONTINUOUS
10
142.536
20
-25.569
11
128.736
21
-25.569
0
LINE
8
BLACK
6
CONTINUOUS
10
128.736
20
-25.569
11
128.736
21
-11.769
0
LINE
8
BLACK
6
CONTINUOUS
10
204.936
20
-11.769
11
218.736
21
-11.769
0
LINE
8
BLACK
6
CONTINUOUS
10
218.736
20
-11.769
11
218.736
21
-25.569
0
LINE
8
BLACK
6
CONTINUOUS
10
218.736
20
-25.569
11
204.936
21
-25.569
0
LINE
8
BLACK
6
CONTINUOUS
10
204.936
20
-25.569
11
204.936
21
-11.769
0
LINE
8
BLACK
6
CONTINUOUS
10
147.786
20
-11.769
11
161.586
21
-11.769
0
LINE
8
BLACK
6
CONTINUOUS
10
161.586
20
-11.769
11
161.586
21
-25.569
0
LINE
8
BLACK
6
CONTINUOUS
10
161.586
20
-25.569
11
147.786
21
-25.569
0
LINE
8
BLACK
6
CONTINUOUS
10
147.786
20
-25.569
11
147.786
21
-11.769
0
LINE
8
BLACK
6
CONTINUOUS
10
324.265
20
-11.769
11
338.065
21
-11.769
0
LINE
8
BLACK
6
CONTINUOUS
10
338.065
20
-11.769
11
338.065
21
-25.569
0
LINE
8
BLACK
6
CONTINUOUS
10
338.065
20
-25.569
11
324.265
21
-25.569
0
LINE
8
BLACK
6
CONTINUOUS
10
324.265
20
-25.569
11
324.265
21
-11.769
0
LINE
8
BLACK
6
CONTINUOUS
10
262.086
20
-11.769
11
275.886
21
-11.769
0
LINE
8
BLACK
6
CONTINUOUS
10
275.886
20
-11.769
11
275.886
21
-25.569
0
LINE
8
BLACK
6
CONTINUOUS
10
275.886
20
-25.569
11
262.086
21
-25.569
0
LINE
8
BLACK
6
CONTINUOUS
10
262.086
20
-25.569
11
262.086
21
-11.769
0
LINE
8
BLACK
6
CONTINUOUS
10
362.238
20
-11.769
11
376.038
21
-11.769
0
LINE
8
BLACK
6
CONTINUOUS
10
376.038
20
-11.769
11
376.038
21
-25.569
0
LINE
8
BLACK
6
CONTINUOUS
10
376.038
20
-25.569
11
362.238
21
-25.569
0
LINE
8
BLACK
6
CONTINUOUS
10
362.238
20
-25.569
11
362.238
21
-11.769
0
LINE
8
BLACK
6
CONTINUOUS
10
281.136
20
-11.769
11
294.936
21
-11.769
0
LINE
8
BLACK
6
CONTINUOUS
10
294.936
20
-11.769
11
294.936
21
-25.569
0
LINE
8
BLACK
6
CONTINUOUS
10
294.936
20
-25.569
11
281.136
21
-25.569
0
LINE
8
BLACK
6
CONTINUOUS
10
281.136
20
-25.569
11
281.136
21
-11.769
0
LINE
8
BLACK
6
CONTINUOUS
10
300.334
20
-11.769
11
314.134
21
-11.769
0
LINE
8
BLACK
6
CONTINUOUS
10
314.134
20
-11.769
11
314.134
21
-25.569
0
LINE
8
BLACK
6
CONTINUOUS
10
314.134
20
-25.569
11
300.334
21
-25.569
0
LINE
8
BLACK
6
CONTINUOUS
10
300.334
20
-25.569
11
300.334
21
-11.769
0
LINE
8
BLACK
6
CONTINUOUS
10
243.036
20
-11.769
11
256.836
21
-11.769
0
LINE
8
BLACK
6
CONTINUOUS
10
256.836
20
-11.769
11
256.836
21
-25.569
0
LINE
8
BLACK
6
CONTINUOUS
10
256.836
20
-25.569
11
243.036
21
-25.569
0
LINE
8
BLACK
6
CONTINUOUS
10
243.036
20
-25.569
11
243.036
21
-11.769
0
LINE
8
BLACK
6
CONTINUOUS
10
343.315
20
-11.769
11
357.115
21
-11.769
0
LINE
8
BLACK
6
CONTINUOUS
10
357.115
20
-11.769
11
357.115
21
-25.569
0
LINE
8
BLACK
6
CONTINUOUS
10
357.115
20
-25.569
11
343.315
21
-25.569
0
LINE
8
BLACK
6
CONTINUOUS
10
343.315
20
-25.569
11
343.315
21
-11.769
0
LINE
8
BLACK
6
CONTINUOUS
10
223.986
20
-11.769
11
237.786
21
-11.769
0
LINE
8
BLACK
6
CONTINUOUS
10
237.786
20
-11.769
11
237.786
21
-25.569
0
LINE
8
BLACK
6
CONTINUOUS
10
237.786
20
-25.569
11
223.986
21
-25.569
0
LINE
8
BLACK
6
CONTINUOUS
10
223.986
20
-25.569
11
223.986
21
-11.769
0
LINE
8
BLACK
6
CONTINUOUS
10
311.98
20
-121.296
11
297.48
21
-121.296
0
LINE
8
BLACK
6
CONTINUOUS
10
297.48
20
-106.796
11
311.98
21
-106.796
0
LINE
8
BLACK
6
CONTINUOUS
10
311.98
20
-106.796
11
311.98
21
-121.296
0
LINE
8
BLACK
6
CONTINUOUS
10
297.48
20
-121.296
11
297.48
21
-106.796
0
LINE
8
BLACK
6
CONTINUOUS
10
297.572
20
-102.246
11
283.072
21
-102.246
0
LINE
8
BLACK
6
CONTINUOUS
10
283.072
20
-87.746
11
297.572
21
-87.746
0
LINE
8
BLACK
6
CONTINUOUS
10
297.572
20
-87.746
11
297.572
21
-102.246
0
LINE
8
BLACK
6
CONTINUOUS
10
283.072
20
-102.246
11
283.072
21
-87.746
0
LINE
8
BLACK
6
CONTINUOUS
10
273.892
20
-86.386
11
282.152
21
-86.386
0
LINE
8
BLACK
6
CONTINUOUS
10
273.892
20
-105.496
11
282.152
21
-105.496
0
LINE
8
BLACK
6
CONTINUOUS
10
273.892
20
-86.386
11
273.892
21
-105.496
0
LINE
8
BLACK
6
CONTINUOUS
10
282.152
20
-86.386
11
282.152
21
-105.496
0
LINE
8
BLACK
6
CONTINUOUS
10
298.542
20
-86.386
11
306.802
21
-86.386
0
LINE
8
BLACK
6
CONTINUOUS
10
298.542
20
-105.496
11
306.802
21
-105.496
0
LINE
8
BLACK
6
CONTINUOUS
10
298.542
20
-86.386
11
298.542
21
-105.496
0
LINE
8
BLACK
6
CONTINUOUS
10
306.802
20
-86.386
11
306.802
21
-105.496
0
LINE
8
BLACK
6
CONTINUOUS
10
311.63
20
-66.759
11
311.63
21
-86.329
0
LINE
8
BLACK
6
CONTINUOUS
10
303.37
20
-66.759
11
303.37
21
-86.329
0
LINE
8
BLACK
6
CONTINUOUS
10
303.37
20
-86.329
11
311.63
21
-86.329
0
LINE
8
BLACK
6
CONTINUOUS
10
303.37
20
-66.759
11
311.63
21
-66.759
0
LINE
8
BLACK
6
CONTINUOUS
10
287.09
20
-66.759
11
287.09
21
-86.239
0
LINE
8
BLACK
6
CONTINUOUS
10
278.83
20
-66.759
11
278.83
21
-86.239
0
LINE
8
BLACK
6
CONTINUOUS
10
278.83
20
-86.239
11
287.09
21
-86.239
0
LINE
8
BLACK
6
CONTINUOUS
10
278.83
20
-66.759
11
287.09
21
-66.759
0
LINE
8
BLACK
6
CONTINUOUS
10
302.46
20
-83.069
11
287.96
21
-83.069
0
LINE
8
BLACK
6
CONTINUOUS
10
287.96
20
-68.569
11
302.46
21
-68.569
0
LINE
8
BLACK
6
CONTINUOUS
10
302.46
20
-68.569
11
302.46
21
-83.069
0
LINE
8
BLACK
6
CONTINUOUS
10
287.96
20
-83.069
11
287.96
21
-68.569
0
LINE
8
BLACK
6
CONTINUOUS
10
33.486
20
-30.7739
11
47.286
21
-30.7739
0
LINE
8
BLACK
6
CONTINUOUS
10
47.286
20
-30.7739
11
47.286
21
-44.5739
0
LINE
8
BLACK
6
CONTINUOUS
10
47.286
20
-44.5739
11
33.486
21
-44.5739
0
LINE
8
BLACK
6
CONTINUOUS
10
33.486
20
-44.5739
11
33.486
21
-30.7739
0
LINE
8
BLACK
6
CONTINUOUS
10
97.928
20
-121.296
11
83.428
21
-121.296
0
LINE
8
BLACK
6
CONTINUOUS
10
83.428
20
-106.796
11
97.928
21
-106.796
0
LINE
8
BLACK
6
CONTINUOUS
10
97.928
20
-106.796
11
97.928
21
-121.296
0
LINE
8
BLACK
6
CONTINUOUS
10
83.428
20
-121.296
11
83.428
21
-106.796
0
LINE
8
BLACK
6
CONTINUOUS
10
74.052
20
-121.296
11
59.552
21
-121.296
0
LINE
8
BLACK
6
CONTINUOUS
10
59.552
20
-106.796
11
74.052
21
-106.796
0
LINE
8
BLACK
6
CONTINUOUS
10
74.052
20
-106.796
11
74.052
21
-121.296
0
LINE
8
BLACK
6
CONTINUOUS
10
59.552
20
-121.296
11
59.552
21
-106.796
0
LINE
8
BLACK
6
CONTINUOUS
10
50.1347
20
-121.296
11
35.6347
21
-121.296
0
LINE
8
BLACK
6
CONTINUOUS
10
35.6347
20
-106.796
11
50.1347
21
-106.796
0
LINE
8
BLACK
6
CONTINUOUS
10
50.1347
20
-106.796
11
50.1347
21
-121.296
0
LINE
8
BLACK
6
CONTINUOUS
10
35.6347
20
-121.296
11
35.6347
21
-106.796
0
LINE
8
BLACK
6
CONTINUOUS
10
309.455
20
-63.742
11
295.255
21
-63.742
0
LINE
8
BLACK
6
CONTINUOUS
10
295.255
20
-49.542
11
309.455
21
-49.542
0
LINE
8
BLACK
6
CONTINUOUS
10
309.455
20
-49.542
11
309.455
21
-63.742
0
LINE
8
BLACK
6
CONTINUOUS
10
295.255
20
-63.742
11
295.255
21
-49.542
0
LINE
8
BLACK
6
CONTINUOUS
10
68.8297
20
-85.809
11
68.8297
21
-105.379
0
LINE
8
BLACK
6
CONTINUOUS
10
60.5697
20
-85.809
11
60.5697
21
-105.379
0
LINE
8
BLACK
6
CONTINUOUS
10
60.5697
20
-105.379
11
68.8297
21
-105.379
0
LINE
8
BLACK
6
CONTINUOUS
10
60.5697
20
-85.809
11
68.8297
21
-85.809
0
LINE
8
BLACK
6
CONTINUOUS
10
44.2897
20
-85.809
11
44.2897
21
-105.289
0
LINE
8
BLACK
6
CONTINUOUS
10
36.0297
20
-85.809
11
36.0297
21
-105.289
0
LINE
8
BLACK
6
CONTINUOUS
10
36.0297
20
-105.289
11
44.2897
21
-105.289
0
LINE
8
BLACK
6
CONTINUOUS
10
36.0297
20
-85.809
11
44.2897
21
-85.809
0
LINE
8
BLACK
6
CONTINUOUS
10
59.6597
20
-102.119
11
45.1597
21
-102.119
0
LINE
8
BLACK
6
CONTINUOUS
10
45.1597
20
-87.619
11
59.6597
21
-87.619
0
LINE
8
BLACK
6
CONTINUOUS
10
59.6597
20
-87.619
11
59.6597
21
-102.119
0
LINE
8
BLACK
6
CONTINUOUS
10
45.1597
20
-102.119
11
45.1597
21
-87.619
0
LINE
8
BLACK
6
CONTINUOUS
10
314.033
20
-28.646
11
314.033
21
-48.236
0
LINE
8
BLACK
6
CONTINUOUS
10
305.773
20
-28.646
11
305.773
21
-48.236
0
LINE
8
BLACK
6
CONTINUOUS
10
305.773
20
-48.236
11
314.033
21
-48.236
0
LINE
8
BLACK
6
CONTINUOUS
10
305.773
20
-28.646
11
314.033
21
-28.646
0
LINE
8
BLACK
6
CONTINUOUS
10
281.093
20
-48.266
11
289.353
21
-48.266
0
LINE
8
BLACK
6
CONTINUOUS
10
281.093
20
-28.646
11
281.093
21
-48.266
0
LINE
8
BLACK
6
CONTINUOUS
10
281.093
20
-28.646
11
289.353
21
-28.646
0
LINE
8
BLACK
6
CONTINUOUS
10
290.343
20
-45.096
11
290.343
21
-30.596
0
LINE
8
BLACK
6
CONTINUOUS
10
304.843
20
-30.596
11
304.843
21
-45.096
0
LINE
8
BLACK
6
CONTINUOUS
10
290.343
20
-30.596
11
304.843
21
-30.596
0
LINE
8
BLACK
6
CONTINUOUS
10
304.843
20
-45.096
11
290.343
21
-45.096
0
LINE
8
BLACK
6
CONTINUOUS
10
289.353
20
-28.646
11
289.353
21
-48.266
0
LINE
8
BLACK
6
CONTINUOUS
10
52.3647
20
-63.8852
11
38.1647
21
-63.8852
0
LINE
8
BLACK
6
CONTINUOUS
10
38.1647
20
-49.6852
11
52.3647
21
-49.6852
0
LINE
8
BLACK
6
CONTINUOUS
10
52.3647
20
-49.6852
11
52.3647
21
-63.8852
0
LINE
8
BLACK
6
CONTINUOUS
10
38.1647
20
-63.8852
11
38.1647
21
-49.6852
0
LINE
8
BLACK
6
CONTINUOUS
10
54.8972
20
-83.069
11
40.3972
21
-83.069
0
LINE
8
BLACK
6
CONTINUOUS
10
40.3972
20
-68.569
11
54.8972
21
-68.569
0
LINE
8
BLACK
6
CONTINUOUS
10
54.8972
20
-68.569
11
54.8972
21
-83.069
0
LINE
8
BLACK
6
CONTINUOUS
10
40.3972
20
-83.069
11
40.3972
21
-68.569
0
LINE
8
BLACK
6
CONTINUOUS
10
238.083
20
-68.919
11
251.883
21
-68.919
0
LINE
8
BLACK
6
CONTINUOUS
10
251.883
20
-68.919
11
251.883
21
-82.719
0
LINE
8
BLACK
6
CONTINUOUS
10
251.883
20
-82.719
11
238.083
21
-82.719
0
LINE
8
BLACK
6
CONTINUOUS
10
238.083
20
-82.719
11
238.083
21
-68.919
0
LINE
8
BLACK
6
CONTINUOUS
10
109.686
20
-11.769
11
123.486
21
-11.769
0
LINE
8
BLACK
6
CONTINUOUS
10
123.486
20
-11.769
11
123.486
21
-25.569
0
LINE
8
BLACK
6
CONTINUOUS
10
123.486
20
-25.569
11
109.686
21
-25.569
0
LINE
8
BLACK
6
CONTINUOUS
10
109.686
20
-25.569
11
109.686
21
-11.769
0
LINE
8
BLACK
6
CONTINUOUS
10
228.177
20
-87.969
11
241.977
21
-87.969
0
LINE
8
BLACK
6
CONTINUOUS
10
241.977
20
-87.969
11
241.977
21
-101.769
0
LINE
8
BLACK
6
CONTINUOUS
10
241.977
20
-101.769
11
228.177
21
-101.769
0
LINE
8
BLACK
6
CONTINUOUS
10
228.177
20
-101.769
11
228.177
21
-87.969
0
LINE
8
BLACK
6
CONTINUOUS
10
52.536
20
-30.7739
11
66.336
21
-30.7739
0
LINE
8
BLACK
6
CONTINUOUS
10
66.336
20
-30.7739
11
66.336
21
-44.5739
0
LINE
8
BLACK
6
CONTINUOUS
10
66.336
20
-44.5739
11
52.536
21
-44.5739
0
LINE
8
BLACK
6
CONTINUOUS
10
52.536
20
-44.5739
11
52.536
21
-30.7739
0
LINE
8
BLACK
6
CONTINUOUS
10
62.188
20
-49.742
11
75.988
21
-49.742
0
LINE
8
BLACK
6
CONTINUOUS
10
75.988
20
-49.742
11
75.988
21
-63.542
0
LINE
8
BLACK
6
CONTINUOUS
10
75.988
20
-63.542
11
62.188
21
-63.542
0
LINE
8
BLACK
6
CONTINUOUS
10
62.188
20
-63.542
11
62.188
21
-49.742
0
LINE
8
BLACK
6
CONTINUOUS
10
66.887
20
-68.919
11
80.687
21
-68.919
0
LINE
8
BLACK
6
CONTINUOUS
10
80.687
20
-68.919
11
80.687
21
-82.719
0
LINE
8
BLACK
6
CONTINUOUS
10
80.687
20
-82.719
11
66.887
21
-82.719
0
LINE
8
BLACK
6
CONTINUOUS
10
66.887
20
-82.719
11
66.887
21
-68.919
0
LINE
8
BLACK
6
CONTINUOUS
10
324.265
20
-87.969
11
338.065
21
-87.969
0
LINE
8
BLACK
6
CONTINUOUS
10
338.065
20
-87.969
11
338.065
21
-101.769
0
LINE
8
BLACK
6
CONTINUOUS
10
338.065
20
-101.769
11
324.265
21
-101.769
0
LINE
8
BLACK
6
CONTINUOUS
10
324.265
20
-101.769
11
324.265
21
-87.969
0
LINE
8
BLACK
6
CONTINUOUS
10
85.937
20
-68.919
11
99.737
21
-68.919
0
LINE
8
BLACK
6
CONTINUOUS
10
99.737
20
-68.919
11
99.737
21
-82.719
0
LINE
8
BLACK
6
CONTINUOUS
10
99.737
20
-82.719
11
85.937
21
-82.719
0
LINE
8
BLACK
6
CONTINUOUS
10
85.937
20
-82.719
11
85.937
21
-68.919
0
LINE
8
BLACK
6
CONTINUOUS
10
76.412
20
-87.969
11
90.212
21
-87.969
0
LINE
8
BLACK
6
CONTINUOUS
10
90.212
20
-87.969
11
90.212
21
-101.769
0
LINE
8
BLACK
6
CONTINUOUS
10
90.212
20
-101.769
11
76.412
21
-101.769
0
LINE
8
BLACK
6
CONTINUOUS
10
76.412
20
-101.769
11
76.412
21
-87.969
0
LINE
8
BLACK
6
CONTINUOUS
10
90.636
20
-11.769
11
104.436
21
-11.769
0
LINE
8
BLACK
6
CONTINUOUS
10
104.436
20
-11.769
11
104.436
21
-25.569
0
LINE
8
BLACK
6
CONTINUOUS
10
104.436
20
-25.569
11
90.636
21
-25.569
0
LINE
8
BLACK
6
CONTINUOUS
10
90.636
20
-25.569
11
90.636
21
-11.769
0
LINE
8
BLACK
6
CONTINUOUS
10
71.586
20
-30.7739
11
85.386
21
-30.7739
0
LINE
8
BLACK
6
CONTINUOUS
10
85.386
20
-30.7739
11
85.386
21
-44.5739
0
LINE
8
BLACK
6
CONTINUOUS
10
85.386
20
-44.5739
11
71.586
21
-44.5739
0
LINE
8
BLACK
6
CONTINUOUS
10
71.586
20
-44.5739
11
71.586
21
-30.7739
0
LINE
8
BLACK
6
CONTINUOUS
10
81.111
20
-49.742
11
94.911
21
-49.742
0
LINE
8
BLACK
6
CONTINUOUS
10
94.911
20
-49.742
11
94.911
21
-63.542
0
LINE
8
BLACK
6
CONTINUOUS
10
94.911
20
-63.542
11
81.111
21
-63.542
0
LINE
8
BLACK
6
CONTINUOUS
10
81.111
20
-63.542
11
81.111
21
-49.742
0
LINE
8
BLACK
6
CONTINUOUS
10
90.636
20
-30.7739
11
104.436
21
-30.7739
0
LINE
8
BLACK
6
CONTINUOUS
10
104.436
20
-30.7739
11
104.436
21
-44.5739
0
LINE
8
BLACK
6
CONTINUOUS
10
104.436
20
-44.5739
11
90.636
21
-44.5739
0
LINE
8
BLACK
6
CONTINUOUS
10
90.636
20
-44.5739
11
90.636
21
-30.7739
0
LINE
8
BLACK
6
CONTINUOUS
10
100.034
20
-49.742
11
113.834
21
-49.742
0
LINE
8
BLACK
6
CONTINUOUS
10
113.834
20
-49.742
11
113.834
21
-63.542
0
LINE
8
BLACK
6
CONTINUOUS
10
113.834
20
-63.542
11
100.034
21
-63.542
0
LINE
8
BLACK
6
CONTINUOUS
10
100.034
20
-63.542
11
100.034
21
-49.742
0
LINE
8
BLACK
6
CONTINUOUS
10
104.987
20
-68.919
11
118.787
21
-68.919
0
LINE
8
BLACK
6
CONTINUOUS
10
118.787
20
-68.919
11
118.787
21
-82.719
0
LINE
8
BLACK
6
CONTINUOUS
10
118.787
20
-82.719
11
104.987
21
-82.719
0
LINE
8
BLACK
6
CONTINUOUS
10
104.987
20
-82.719
11
104.987
21
-68.919
0
LINE
8
BLACK
6
CONTINUOUS
10
95.208
20
-87.969
11
109.008
21
-87.969
0
LINE
8
BLACK
6
CONTINUOUS
10
109.008
20
-87.969
11
109.008
21
-101.769
0
LINE
8
BLACK
6
CONTINUOUS
10
109.008
20
-101.769
11
95.208
21
-101.769
0
LINE
8
BLACK
6
CONTINUOUS
10
95.208
20
-101.769
11
95.208
21
-87.969
0
LINE
8
BLACK
6
CONTINUOUS
10
232.495
20
-49.742
11
246.295
21
-49.742
0
LINE
8
BLACK
6
CONTINUOUS
10
246.295
20
-49.742
11
246.295
21
-63.542
0
LINE
8
BLACK
6
CONTINUOUS
10
246.295
20
-63.542
11
232.495
21
-63.542
0
LINE
8
BLACK
6
CONTINUOUS
10
232.495
20
-63.542
11
232.495
21
-49.742
0
LINE
8
BLACK
6
CONTINUOUS
10
124.037
20
-68.919
11
137.837
21
-68.919
0
LINE
8
BLACK
6
CONTINUOUS
10
137.837
20
-68.919
11
137.837
21
-82.719
0
LINE
8
BLACK
6
CONTINUOUS
10
137.837
20
-82.719
11
124.037
21
-82.719
0
LINE
8
BLACK
6
CONTINUOUS
10
124.037
20
-82.719
11
124.037
21
-68.919
0
LINE
8
BLACK
6
CONTINUOUS
10
114.131
20
-87.969
11
127.931
21
-87.969
0
LINE
8
BLACK
6
CONTINUOUS
10
127.931
20
-87.969
11
127.931
21
-101.769
0
LINE
8
BLACK
6
CONTINUOUS
10
127.931
20
-101.769
11
114.131
21
-101.769
0
LINE
8
BLACK
6
CONTINUOUS
10
114.131
20
-101.769
11
114.131
21
-87.969
0
LINE
8
BLACK
6
CONTINUOUS
10
251.545
20
-49.742
11
265.345
21
-49.742
0
LINE
8
BLACK
6
CONTINUOUS
10
265.345
20
-49.742
11
265.345
21
-63.542
0
LINE
8
BLACK
6
CONTINUOUS
10
265.345
20
-63.542
11
251.545
21
-63.542
0
LINE
8
BLACK
6
CONTINUOUS
10
251.545
20
-63.542
11
251.545
21
-49.742
0
LINE
8
BLACK
6
CONTINUOUS
10
109.686
20
-30.7739
11
123.486
21
-30.7739
0
LINE
8
BLACK
6
CONTINUOUS
10
123.486
20
-30.7739
11
123.486
21
-44.5739
0
LINE
8
BLACK
6
CONTINUOUS
10
123.486
20
-44.5739
11
109.686
21
-44.5739
0
LINE
8
BLACK
6
CONTINUOUS
10
109.686
20
-44.5739
11
109.686
21
-30.7739
0
LINE
8
BLACK
6
CONTINUOUS
10
118.957
20
-49.742
11
132.757
21
-49.742
0
LINE
8
BLACK
6
CONTINUOUS
10
132.757
20
-49.742
11
132.757
21
-63.542
0
LINE
8
BLACK
6
CONTINUOUS
10
132.757
20
-63.542
11
118.957
21
-63.542
0
LINE
8
BLACK
6
CONTINUOUS
10
118.957
20
-63.542
11
118.957
21
-49.742
0
LINE
8
BLACK
6
CONTINUOUS
10
128.736
20
-30.7739
11
142.536
21
-30.7739
0
LINE
8
BLACK
6
CONTINUOUS
10
142.536
20
-30.7739
11
142.536
21
-44.5739
0
LINE
8
BLACK
6
CONTINUOUS
10
142.536
20
-44.5739
11
128.736
21
-44.5739
0
LINE
8
BLACK
6
CONTINUOUS
10
128.736
20
-44.5739
11
128.736
21
-30.7739
0
LINE
8
BLACK
6
CONTINUOUS
10
137.88
20
-49.742
11
151.68
21
-49.742
0
LINE
8
BLACK
6
CONTINUOUS
10
151.68
20
-49.742
11
151.68
21
-63.542
0
LINE
8
BLACK
6
CONTINUOUS
10
151.68
20
-63.542
11
137.88
21
-63.542
0
LINE
8
BLACK
6
CONTINUOUS
10
137.88
20
-63.542
11
137.88
21
-49.742
0
LINE
8
BLACK
6
CONTINUOUS
10
142.833
20
-68.919
11
156.633
21
-68.919
0
LINE
8
BLACK
6
CONTINUOUS
10
156.633
20
-68.919
11
156.633
21
-82.719
0
LINE
8
BLACK
6
CONTINUOUS
10
156.633
20
-82.719
11
142.833
21
-82.719
0
LINE
8
BLACK
6
CONTINUOUS
10
142.833
20
-82.719
11
142.833
21
-68.919
0
LINE
8
BLACK
6
CONTINUOUS
10
133.054
20
-87.969
11
146.854
21
-87.969
0
LINE
8
BLACK
6
CONTINUOUS
10
146.854
20
-87.969
11
146.854
21
-101.769
0
LINE
8
BLACK
6
CONTINUOUS
10
146.854
20
-101.769
11
133.054
21
-101.769
0
LINE
8
BLACK
6
CONTINUOUS
10
133.054
20
-101.769
11
133.054
21
-87.969
0
LINE
8
BLACK
6
CONTINUOUS
10
166.836
20
-11.769
11
180.636
21
-11.769
0
LINE
8
BLACK
6
CONTINUOUS
10
180.636
20
-11.769
11
180.636
21
-25.569
0
LINE
8
BLACK
6
CONTINUOUS
10
180.636
20
-25.569
11
166.836
21
-25.569
0
LINE
8
BLACK
6
CONTINUOUS
10
166.836
20
-25.569
11
166.836
21
-11.769
0
LINE
8
BLACK
6
CONTINUOUS
10
161.883
20
-68.919
11
175.683
21
-68.919
0
LINE
8
BLACK
6
CONTINUOUS
10
175.683
20
-68.919
11
175.683
21
-82.719
0
LINE
8
BLACK
6
CONTINUOUS
10
175.683
20
-82.719
11
161.883
21
-82.719
0
LINE
8
BLACK
6
CONTINUOUS
10
161.883
20
-82.719
11
161.883
21
-68.919
0
LINE
8
BLACK
6
CONTINUOUS
10
151.977
20
-87.969
11
165.777
21
-87.969
0
LINE
8
BLACK
6
CONTINUOUS
10
165.777
20
-87.969
11
165.777
21
-101.769
0
LINE
8
BLACK
6
CONTINUOUS
10
165.777
20
-101.769
11
151.977
21
-101.769
0
LINE
8
BLACK
6
CONTINUOUS
10
151.977
20
-101.769
11
151.977
21
-87.969
0
LINE
8
BLACK
6
CONTINUOUS
10
185.886
20
-11.769
11
199.686
21
-11.769
0
LINE
8
BLACK
6
CONTINUOUS
10
199.686
20
-11.769
11
199.686
21
-25.569
0
LINE
8
BLACK
6
CONTINUOUS
10
199.686
20
-25.569
11
185.886
21
-25.569
0
LINE
8
BLACK
6
CONTINUOUS
10
185.886
20
-25.569
11
185.886
21
-11.769
0
LINE
8
BLACK
6
CONTINUOUS
10
247.354
20
-87.969
11
261.154
21
-87.969
0
LINE
8
BLACK
6
CONTINUOUS
10
261.154
20
-87.969
11
261.154
21
-101.769
0
LINE
8
BLACK
6
CONTINUOUS
10
261.154
20
-101.769
11
247.354
21
-101.769
0
LINE
8
BLACK
6
CONTINUOUS
10
247.354
20
-101.769
11
247.354
21
-87.969
0
LINE
8
BLACK
6
CONTINUOUS
10
147.786
20
-30.7739
11
161.586
21
-30.7739
0
LINE
8
BLACK
6
CONTINUOUS
10
161.586
20
-30.7739
11
161.586
21
-44.5739
0
LINE
8
BLACK
6
CONTINUOUS
10
161.586
20
-44.5739
11
147.786
21
-44.5739
0
LINE
8
BLACK
6
CONTINUOUS
10
147.786
20
-44.5739
11
147.786
21
-30.7739
0
LINE
8
BLACK
6
CONTINUOUS
10
156.803
20
-49.742
11
170.603
21
-49.742
0
LINE
8
BLACK
6
CONTINUOUS
10
170.603
20
-49.742
11
170.603
21
-63.542
0
LINE
8
BLACK
6
CONTINUOUS
10
170.603
20
-63.542
11
156.803
21
-63.542
0
LINE
8
BLACK
6
CONTINUOUS
10
156.803
20
-63.542
11
156.803
21
-49.742
0
LINE
8
BLACK
6
CONTINUOUS
10
166.836
20
-30.7739
11
180.636
21
-30.7739
0
LINE
8
BLACK
6
CONTINUOUS
10
180.636
20
-30.7739
11
180.636
21
-44.5739
0
LINE
8
BLACK
6
CONTINUOUS
10
180.636
20
-44.5739
11
166.836
21
-44.5739
0
LINE
8
BLACK
6
CONTINUOUS
10
166.836
20
-44.5739
11
166.836
21
-30.7739
0
LINE
8
BLACK
6
CONTINUOUS
10
175.726
20
-49.742
11
189.526
21
-49.742
0
LINE
8
BLACK
6
CONTINUOUS
10
189.526
20
-49.742
11
189.526
21
-63.542
0
LINE
8
BLACK
6
CONTINUOUS
10
189.526
20
-63.542
11
175.726
21
-63.542
0
LINE
8
BLACK
6
CONTINUOUS
10
175.726
20
-63.542
11
175.726
21
-49.742
0
LINE
8
BLACK
6
CONTINUOUS
10
180.933
20
-68.919
11
194.733
21
-68.919
0
LINE
8
BLACK
6
CONTINUOUS
10
194.733
20
-68.919
11
194.733
21
-82.719
0
LINE
8
BLACK
6
CONTINUOUS
10
194.733
20
-82.719
11
180.933
21
-82.719
0
LINE
8
BLACK
6
CONTINUOUS
10
180.933
20
-82.719
11
180.933
21
-68.919
0
LINE
8
BLACK
6
CONTINUOUS
10
170.9
20
-87.969
11
184.7
21
-87.969
0
LINE
8
BLACK
6
CONTINUOUS
10
184.7
20
-87.969
11
184.7
21
-101.769
0
LINE
8
BLACK
6
CONTINUOUS
10
184.7
20
-101.769
11
170.9
21
-101.769
0
LINE
8
BLACK
6
CONTINUOUS
10
170.9
20
-101.769
11
170.9
21
-87.969
0
LINE
8
BLACK
6
CONTINUOUS
10
243.036
20
-30.7739
11
256.836
21
-30.7739
0
LINE
8
BLACK
6
CONTINUOUS
10
256.836
20
-30.7739
11
256.836
21
-44.5739
0
LINE
8
BLACK
6
CONTINUOUS
10
256.836
20
-44.5739
11
243.036
21
-44.5739
0
LINE
8
BLACK
6
CONTINUOUS
10
243.036
20
-44.5739
11
243.036
21
-30.7739
0
LINE
8
BLACK
6
CONTINUOUS
10
199.983
20
-68.919
11
213.783
21
-68.919
0
LINE
8
BLACK
6
CONTINUOUS
10
213.783
20
-68.919
11
213.783
21
-82.719
0
LINE
8
BLACK
6
CONTINUOUS
10
213.783
20
-82.719
11
199.983
21
-82.719
0
LINE
8
BLACK
6
CONTINUOUS
10
199.983
20
-82.719
11
199.983
21
-68.919
0
LINE
8
BLACK
6
CONTINUOUS
10
189.95
20
-87.969
11
203.75
21
-87.969
0
LINE
8
BLACK
6
CONTINUOUS
10
203.75
20
-87.969
11
203.75
21
-101.769
0
LINE
8
BLACK
6
CONTINUOUS
10
203.75
20
-101.769
11
189.95
21
-101.769
0
LINE
8
BLACK
6
CONTINUOUS
10
189.95
20
-101.769
11
189.95
21
-87.969
0
LINE
8
BLACK
6
CONTINUOUS
10
262.086
20
-30.7739
11
275.886
21
-30.7739
0
LINE
8
BLACK
6
CONTINUOUS
10
275.886
20
-30.7739
11
275.886
21
-44.5739
0
LINE
8
BLACK
6
CONTINUOUS
10
275.886
20
-44.5739
11
262.086
21
-44.5739
0
LINE
8
BLACK
6
CONTINUOUS
10
262.086
20
-44.5739
11
262.086
21
-30.7739
0
LINE
8
BLACK
6
CONTINUOUS
10
185.886
20
-30.7739
11
199.686
21
-30.7739
0
LINE
8
BLACK
6
CONTINUOUS
10
199.686
20
-30.7739
11
199.686
21
-44.5739
0
LINE
8
BLACK
6
CONTINUOUS
10
199.686
20
-44.5739
11
185.886
21
-44.5739
0
LINE
8
BLACK
6
CONTINUOUS
10
185.886
20
-44.5739
11
185.886
21
-30.7739
0
LINE
8
BLACK
6
CONTINUOUS
10
194.649
20
-49.742
11
208.449
21
-49.742
0
LINE
8
BLACK
6
CONTINUOUS
10
208.449
20
-49.742
11
208.449
21
-63.542
0
LINE
8
BLACK
6
CONTINUOUS
10
208.449
20
-63.542
11
194.649
21
-63.542
0
LINE
8
BLACK
6
CONTINUOUS
10
194.649
20
-63.542
11
194.649
21
-49.742
0
LINE
8
BLACK
6
CONTINUOUS
10
204.936
20
-30.7739
11
218.736
21
-30.7739
0
LINE
8
BLACK
6
CONTINUOUS
10
218.736
20
-30.7739
11
218.736
21
-44.5739
0
LINE
8
BLACK
6
CONTINUOUS
10
218.736
20
-44.5739
11
204.936
21
-44.5739
0
LINE
8
BLACK
6
CONTINUOUS
10
204.936
20
-44.5739
11
204.936
21
-30.7739
0
LINE
8
BLACK
6
CONTINUOUS
10
213.572
20
-49.742
11
227.372
21
-49.742
0
LINE
8
BLACK
6
CONTINUOUS
10
227.372
20
-49.742
11
227.372
21
-63.542
0
LINE
8
BLACK
6
CONTINUOUS
10
227.372
20
-63.542
11
213.572
21
-63.542
0
LINE
8
BLACK
6
CONTINUOUS
10
213.572
20
-63.542
11
213.572
21
-49.742
0
LINE
8
BLACK
6
CONTINUOUS
10
219.033
20
-68.919
11
232.833
21
-68.919
0
LINE
8
BLACK
6
CONTINUOUS
10
232.833
20
-68.919
11
232.833
21
-82.719
0
LINE
8
BLACK
6
CONTINUOUS
10
232.833
20
-82.719
11
219.033
21
-82.719
0
LINE
8
BLACK
6
CONTINUOUS
10
219.033
20
-82.719
11
219.033
21
-68.919
0
LINE
8
BLACK
6
CONTINUOUS
10
209.127
20
-87.969
11
222.927
21
-87.969
0
LINE
8
BLACK
6
CONTINUOUS
10
222.927
20
-87.969
11
222.927
21
-101.769
0
LINE
8
BLACK
6
CONTINUOUS
10
222.927
20
-101.769
11
209.127
21
-101.769
0
LINE
8
BLACK
6
CONTINUOUS
10
209.127
20
-101.769
11
209.127
21
-87.969
0
LINE
8
BLACK
6
CONTINUOUS
10
223.986
20
-30.7739
11
237.786
21
-30.7739
0
LINE
8
BLACK
6
CONTINUOUS
10
237.786
20
-30.7739
11
237.786
21
-44.5739
0
LINE
8
BLACK
6
CONTINUOUS
10
237.786
20
-44.5739
11
223.986
21
-44.5739
0
LINE
8
BLACK
6
CONTINUOUS
10
223.986
20
-44.5739
11
223.986
21
-30.7739
0
LINE
8
BLACK
6
CONTINUOUS
10
343.315
20
-68.919
11
357.115
21
-68.919
0
LINE
8
BLACK
6
CONTINUOUS
10
357.115
20
-68.919
11
357.115
21
-82.719
0
LINE
8
BLACK
6
CONTINUOUS
10
357.115
20
-82.719
11
343.315
21
-82.719
0
LINE
8
BLACK
6
CONTINUOUS
10
343.315
20
-82.719
11
343.315
21
-68.919
0
LINE
8
BLACK
6
CONTINUOUS
10
270.722
20
-49.742
11
284.522
21
-49.742
0
LINE
8
BLACK
6
CONTINUOUS
10
284.522
20
-49.742
11
284.522
21
-63.542
0
LINE
8
BLACK
6
CONTINUOUS
10
284.522
20
-63.542
11
270.722
21
-63.542
0
LINE
8
BLACK
6
CONTINUOUS
10
270.722
20
-63.542
11
270.722
21
-49.742
0
LINE
8
BLACK
6
CONTINUOUS
10
362.238
20
-68.919
11
376.038
21
-68.919
0
LINE
8
BLACK
6
CONTINUOUS
10
376.038
20
-68.919
11
376.038
21
-82.719
0
LINE
8
BLACK
6
CONTINUOUS
10
376.038
20
-82.719
11
362.238
21
-82.719
0
LINE
8
BLACK
6
CONTINUOUS
10
362.238
20
-82.719
11
362.238
21
-68.919
0
LINE
8
BLACK
6
CONTINUOUS
10
257.133
20
-68.919
11
270.933
21
-68.919
0
LINE
8
BLACK
6
CONTINUOUS
10
270.933
20
-68.919
11
270.933
21
-82.719
0
LINE
8
BLACK
6
CONTINUOUS
10
270.933
20
-82.719
11
257.133
21
-82.719
0
LINE
8
BLACK
6
CONTINUOUS
10
257.133
20
-82.719
11
257.133
21
-68.919
0
LINE
8
BLACK
6
CONTINUOUS
10
343.315
20
-49.869
11
357.115
21
-49.869
0
LINE
8
BLACK
6
CONTINUOUS
10
357.115
20
-49.869
11
357.115
21
-63.669
0
LINE
8
BLACK
6
CONTINUOUS
10
357.115
20
-63.669
11
343.315
21
-63.669
0
LINE
8
BLACK
6
CONTINUOUS
10
343.315
20
-63.669
11
343.315
21
-49.869
0
LINE
8
BLACK
6
CONTINUOUS
10
324.265
20
-49.869
11
338.065
21
-49.869
0
LINE
8
BLACK
6
CONTINUOUS
10
338.065
20
-49.869
11
338.065
21
-63.669
0
LINE
8
BLACK
6
CONTINUOUS
10
338.065
20
-63.669
11
324.265
21
-63.669
0
LINE
8
BLACK
6
CONTINUOUS
10
324.265
20
-63.669
11
324.265
21
-49.869
0
LINE
8
BLACK
6
CONTINUOUS
10
324.265
20
-68.919
11
338.065
21
-68.919
0
LINE
8
BLACK
6
CONTINUOUS
10
338.065
20
-68.919
11
338.065
21
-82.719
0
LINE
8
BLACK
6
CONTINUOUS
10
338.065
20
-82.719
11
324.265
21
-82.719
0
LINE
8
BLACK
6
CONTINUOUS
10
324.265
20
-82.719
11
324.265
21
-68.919
0
LINE
8
BLACK
6
CONTINUOUS
10
343.315
20
-87.969
11
357.115
21
-87.969
0
LINE
8
BLACK
6
CONTINUOUS
10
357.115
20
-87.969
11
357.115
21
-101.769
0
LINE
8
BLACK
6
CONTINUOUS
10
357.115
20
-101.769
11
343.315
21
-101.769
0
LINE
8
BLACK
6
CONTINUOUS
10
343.315
20
-101.769
11
343.315
21
-87.969
0
LINE
8
BLACK
6
CONTINUOUS
10
324.265
20
-30.946
11
338.065
21
-30.946
0
LINE
8
BLACK
6
CONTINUOUS
10
338.065
20
-30.946
11
338.065
21
-44.746
0
LINE
8
BLACK
6
CONTINUOUS
10
338.065
20
-44.746
11
324.265
21
-44.746
0
LINE
8
BLACK
6
CONTINUOUS
10
324.265
20
-44.746
11
324.265
21
-30.946
0
LINE
8
BLACK
6
CONTINUOUS
10
52.536
20
-11.769
11
66.336
21
-11.769
0
LINE
8
BLACK
6
CONTINUOUS
10
66.336
20
-11.769
11
66.336
21
-25.569
0
LINE
8
BLACK
6
CONTINUOUS
10
66.336
20
-25.569
11
52.536
21
-25.569
0
LINE
8
BLACK
6
CONTINUOUS
10
52.536
20
-25.569
11
52.536
21
-11.769
0
LINE
8
BLACK
6
CONTINUOUS
10
362.238
20
-49.869
11
376.038
21
-49.869
0
LINE
8
BLACK
6
CONTINUOUS
10
376.038
20
-49.869
11
376.038
21
-63.669
0
LINE
8
BLACK
6
CONTINUOUS
10
376.038
20
-63.669
11
362.238
21
-63.669
0
LINE
8
BLACK
6
CONTINUOUS
10
362.238
20
-63.669
11
362.238
21
-49.869
0
LINE
8
BLACK
6
CONTINUOUS
10
362.238
20
-87.969
11
376.038
21
-87.969
0
LINE
8
BLACK
6
CONTINUOUS
10
376.038
20
-87.969
11
376.038
21
-101.769
0
LINE
8
BLACK
6
CONTINUOUS
10
376.038
20
-101.769
11
362.238
21
-101.769
0
LINE
8
BLACK
6
CONTINUOUS
10
362.238
20
-101.769
11
362.238
21
-87.969
0
LINE
8
BLACK
6
CONTINUOUS
10
33.486
20
-11.769
11
47.286
21
-11.769
0
LINE
8
BLACK
6
CONTINUOUS
10
47.286
20
-11.769
11
47.286
21
-25.569
0
LINE
8
BLACK
6
CONTINUOUS
10
47.286
20
-25.569
11
33.486
21
-25.569
0
LINE
8
BLACK
6
CONTINUOUS
10
33.486
20
-25.569
11
33.486
21
-11.769
0
LINE
8
BLACK
6
CONTINUOUS
10
362.238
20
-30.946
11
376.038
21
-30.946
0
LINE
8
BLACK
6
CONTINUOUS
10
376.038
20
-30.946
11
376.038
21
-44.746
0
LINE
8
BLACK
6
CONTINUOUS
10
376.038
20
-44.746
11
362.238
21
-44.746
0
LINE
8
BLACK
6
CONTINUOUS
10
362.238
20
-44.746
11
362.238
21
-30.946
0
LINE
8
BLACK
6
CONTINUOUS
10
362.238
20
-107.146
11
376.038
21
-107.146
0
LINE
8
BLACK
6
CONTINUOUS
10
376.038
20
-107.146
11
376.038
21
-120.946
0
LINE
8
BLACK
6
CONTINUOUS
10
376.038
20
-120.946
11
362.238
21
-120.946
0
LINE
8
BLACK
6
CONTINUOUS
10
362.238
20
-120.946
11
362.238
21
-107.146
0
LINE
8
BLACK
6
CONTINUOUS
10
343.315
20
-107.146
11
357.115
21
-107.146
0
LINE
8
BLACK
6
CONTINUOUS
10
357.115
20
-107.146
11
357.115
21
-120.946
0
LINE
8
BLACK
6
CONTINUOUS
10
357.115
20
-120.946
11
343.315
21
-120.946
0
LINE
8
BLACK
6
CONTINUOUS
10
343.315
20
-120.946
11
343.315
21
-107.146
0
LINE
8
BLACK
6
CONTINUOUS
10
324.265
20
-107.146
11
338.065
21
-107.146
0
LINE
8
BLACK
6
CONTINUOUS
10
338.065
20
-107.146
11
338.065
21
-120.946
0
LINE
8
BLACK
6
CONTINUOUS
10
338.065
20
-120.946
11
324.265
21
-120.946
0
LINE
8
BLACK
6
CONTINUOUS
10
324.265
20
-120.946
11
324.265
21
-107.146
0
LINE
8
BLACK
6
CONTINUOUS
10
71.586
20
-11.769
11
85.386
21
-11.769
0
LINE
8
BLACK
6
CONTINUOUS
10
85.386
20
-11.769
11
85.386
21
-25.569
0
LINE
8
BLACK
6
CONTINUOUS
10
85.386
20
-25.569
11
71.586
21
-25.569
0
LINE
8
BLACK
6
CONTINUOUS
10
71.586
20
-25.569
11
71.586
21
-11.769
0
LINE
8
BLACK
6
CONTINUOUS
10
343.315
20
-30.946
11
357.115
21
-30.946
0
LINE
8
BLACK
6
CONTINUOUS
10
357.115
20
-30.946
11
357.115
21
-44.746
0
LINE
8
BLACK
6
CONTINUOUS
10
357.115
20
-44.746
11
343.315
21
-44.746
0
LINE
8
BLACK
6
CONTINUOUS
10
343.315
20
-44.746
11
343.315
21
-30.946
0
LINE
8
BLACK
6
CONTINUOUS
10
288.174
20
-121.296
11
273.674
21
-121.296
0
LINE
8
BLACK
6
CONTINUOUS
10
273.674
20
-106.796
11
288.174
21
-106.796
0
LINE
8
BLACK
6
CONTINUOUS
10
288.174
20
-106.796
11
288.174
21
-121.296
0
LINE
8
BLACK
6
CONTINUOUS
10
273.674
20
-121.296
11
273.674
21
-106.796
  0
ENDSEC
  0
EOF
