  0
SECTION
  2
HEADER
  9
$ANGBASE
  50
0.0
  9
$ANGDIR
  70
1
  9
$MEASUREMENT
  70
1
  0
ENDSEC
  0
SECTION
  2
TABLES
  0
TABLE
  2
LTYPE
  70
4
  0
LTYPE
  5
40F
  2
CONTINUOUS
  70
0
  3
Solid line
  72
65
  73
0
  40
0.0
  0
LTYPE
  5
410
  2
DASHDOT
 70
0
  3
Dash Dot ____ _ ____ _
 72
65
 73
4
 40
2.0
 49
1.25
 49
-0.25
 49
0.25
 49
-0.25
  0
LTYPE
  5
411
  2
DASHED
 70
0
  3
Dashed __ __ __ __ __
 72
65
 73
2
 40
0.75
 49
0.5
 49
-0.25
  0
LTYPE
  5
43B
  2
DOTTED
 70
0
  3
Dotted .  .  .  .
 72
65
 73
2
 40
0.2
 49
0.0
 49
-0.2
  0
ENDTAB
  0
TABLE
  2
STYLE
  70
4
  0
STYLE
  2
KICAD
  70
0
  40
0
  41
1
  42
1
  50
0
  71
0
  3
isocp.shx
  0
STYLE
  2
KICADB
  70
0
  40
0
  41
1
  42
1
  50
0
  71
0
  3
isocp.shx
  0
STYLE
  2
KICADI
  70
0
  40
0
  41
1
  42
1
  50
15
  71
0
  3
isocp.shx
  0
STYLE
  2
KICADBI
  70
0
  40
0
  41
1
  42
1
  50
15
  71
0
  3
isocp.shx
  0
ENDTAB
  0
TABLE
  2
LAYER
  70
1
  0
LAYER
  2
BLACK
  70
0
  62
7
  6
CONTINUOUS
  0
ENDTAB
  0
ENDSEC
  0
SECTION
  2
ENTITIES
0
LINE
8
BLACK
6
CONTINUOUS
10
226.822
20
-120.396
11
226.822
21
-107.696
0
LINE
8
BLACK
6
CONTINUOUS
10
226.822
20
-107.696
11
239.522
21
-107.696
0
LINE
8
BLACK
6
CONTINUOUS
10
239.522
20
-107.696
11
239.522
21
-120.396
0
LINE
8
BLACK
6
CONTINUOUS
10
239.522
20
-120.396
11
226.822
21
-120.396
0
CIRCLE
8
BLACK
10
233.172
20
-114.046
40
3
0
LINE
8
BLACK
6
CONTINUOUS
10
155.829
20
-107.696
11
168.529
21
-107.696
0
LINE
8
BLACK
6
CONTINUOUS
10
168.529
20
-107.696
11
168.529
21
-120.396
0
LINE
8
BLACK
6
CONTINUOUS
10
168.529
20
-120.396
11
155.829
21
-120.396
0
LINE
8
BLACK
6
CONTINUOUS
10
155.829
20
-120.396
11
155.829
21
-107.696
0
LINE
8
BLACK
6
CONTINUOUS
10
215.646
20
-106.426
11
208.788
21
-106.426
0
LINE
8
BLACK
6
CONTINUOUS
10
208.788
20
-106.426
11
208.788
21
-121.666
0
LINE
8
BLACK
6
CONTINUOUS
10
208.788
20
-121.666
11
115.57
21
-121.666
0
LINE
8
BLACK
6
CONTINUOUS
10
115.57
20
-121.666
11
115.57
21
-106.426
0
LINE
8
BLACK
6
CONTINUOUS
10
115.57
20
-106.426
11
108.712
21
-106.426
0
LINE
8
BLACK
6
CONTINUOUS
10
108.712
20
-106.426
11
108.712
21
-124.206
0
LINE
8
BLACK
6
CONTINUOUS
10
108.712
20
-124.206
11
215.646
21
-124.206
0
LINE
8
BLACK
6
CONTINUOUS
10
215.646
20
-124.206
11
215.646
21
-106.426
0
LINE
8
BLACK
6
CONTINUOUS
10
250.698
20
-120.396
11
250.698
21
-107.696
0
LINE
8
BLACK
6
CONTINUOUS
10
250.698
20
-107.696
11
263.398
21
-107.696
0
LINE
8
BLACK
6
CONTINUOUS
10
263.398
20
-107.696
11
263.398
21
-120.396
0
LINE
8
BLACK
6
CONTINUOUS
10
263.398
20
-120.396
11
250.698
21
-120.396
0
CIRCLE
8
BLACK
10
257.048
20
-114.046
40
3
0
LINE
8
BLACK
6
CONTINUOUS
10
298.38
20
-120.396
11
298.38
21
-107.696
0
LINE
8
BLACK
6
CONTINUOUS
10
298.38
20
-107.696
11
311.08
21
-107.696
0
LINE
8
BLACK
6
CONTINUOUS
10
311.08
20
-107.696
11
311.08
21
-120.396
0
LINE
8
BLACK
6
CONTINUOUS
10
311.08
20
-120.396
11
298.38
21
-120.396
0
CIRCLE
8
BLACK
10
304.73
20
-114.046
40
3
0
LINE
8
BLACK
6
CONTINUOUS
10
283.972
20
-101.346
11
283.972
21
-88.646
0
LINE
8
BLACK
6
CONTINUOUS
10
283.972
20
-88.646
11
296.672
21
-88.646
0
LINE
8
BLACK
6
CONTINUOUS
10
296.672
20
-88.646
11
296.672
21
-101.346
0
LINE
8
BLACK
6
CONTINUOUS
10
296.672
20
-101.346
11
283.972
21
-101.346
0
LINE
8
BLACK
6
CONTINUOUS
10
281.813
20
-102.616
11
281.813
21
-87.376
0
LINE
8
BLACK
6
CONTINUOUS
10
298.831
20
-87.376
11
298.831
21
-102.616
0
LINE
8
BLACK
6
CONTINUOUS
10
274.955
20
-105.156
11
305.689
21
-105.156
0
LINE
8
BLACK
6
CONTINUOUS
10
305.689
20
-105.156
11
305.689
21
-87.376
0
LINE
8
BLACK
6
CONTINUOUS
10
305.689
20
-87.376
11
298.831
21
-87.376
0
LINE
8
BLACK
6
CONTINUOUS
10
298.831
20
-102.616
11
281.813
21
-102.616
0
LINE
8
BLACK
6
CONTINUOUS
10
274.955
20
-87.376
11
274.955
21
-105.156
0
LINE
8
BLACK
6
CONTINUOUS
10
281.813
20
-87.376
11
274.955
21
-87.376
0
CIRCLE
8
BLACK
10
290.322
20
-94.996
40
3
0
LINE
8
BLACK
6
CONTINUOUS
10
288.86
20
-82.169
11
288.86
21
-69.469
0
LINE
8
BLACK
6
CONTINUOUS
10
288.86
20
-69.469
11
301.56
21
-69.469
0
LINE
8
BLACK
6
CONTINUOUS
10
301.56
20
-69.469
11
301.56
21
-82.169
0
LINE
8
BLACK
6
CONTINUOUS
10
301.56
20
-82.169
11
288.86
21
-82.169
0
LINE
8
BLACK
6
CONTINUOUS
10
286.701
20
-83.439
11
286.701
21
-68.199
0
LINE
8
BLACK
6
CONTINUOUS
10
303.719
20
-68.199
11
303.719
21
-83.439
0
LINE
8
BLACK
6
CONTINUOUS
10
279.843
20
-85.979
11
310.577
21
-85.979
0
LINE
8
BLACK
6
CONTINUOUS
10
310.577
20
-85.979
11
310.577
21
-68.199
0
LINE
8
BLACK
6
CONTINUOUS
10
310.577
20
-68.199
11
303.719
21
-68.199
0
LINE
8
BLACK
6
CONTINUOUS
10
303.719
20
-83.439
11
286.701
21
-83.439
0
LINE
8
BLACK
6
CONTINUOUS
10
279.843
20
-68.199
11
279.843
21
-85.979
0
LINE
8
BLACK
6
CONTINUOUS
10
286.701
20
-68.199
11
279.843
21
-68.199
0
CIRCLE
8
BLACK
10
295.21
20
-75.819
40
3
0
LINE
8
BLACK
6
CONTINUOUS
10
84.328
20
-120.396
11
84.328
21
-107.696
0
LINE
8
BLACK
6
CONTINUOUS
10
84.328
20
-107.696
11
97.028
21
-107.696
0
LINE
8
BLACK
6
CONTINUOUS
10
97.028
20
-107.696
11
97.028
21
-120.396
0
LINE
8
BLACK
6
CONTINUOUS
10
97.028
20
-120.396
11
84.328
21
-120.396
0
CIRCLE
8
BLACK
10
90.678
20
-114.046
40
3
0
LINE
8
BLACK
6
CONTINUOUS
10
60.452
20
-120.396
11
60.452
21
-107.696
0
LINE
8
BLACK
6
CONTINUOUS
10
60.452
20
-107.696
11
73.152
21
-107.696
0
LINE
8
BLACK
6
CONTINUOUS
10
73.152
20
-107.696
11
73.152
21
-120.396
0
LINE
8
BLACK
6
CONTINUOUS
10
73.152
20
-120.396
11
60.452
21
-120.396
0
CIRCLE
8
BLACK
10
66.802
20
-114.046
40
3
0
LINE
8
BLACK
6
CONTINUOUS
10
36.5347
20
-120.396
11
36.5347
21
-107.696
0
LINE
8
BLACK
6
CONTINUOUS
10
36.5347
20
-107.696
11
49.2347
21
-107.696
0
LINE
8
BLACK
6
CONTINUOUS
10
49.2347
20
-107.696
11
49.2347
21
-120.396
0
LINE
8
BLACK
6
CONTINUOUS
10
49.2347
20
-120.396
11
36.5347
21
-120.396
0
CIRCLE
8
BLACK
10
42.8847
20
-114.046
40
3
0
LINE
8
BLACK
6
CONTINUOUS
10
296.005
20
-62.992
11
296.005
21
-50.292
0
LINE
8
BLACK
6
CONTINUOUS
10
296.005
20
-50.292
11
308.705
21
-50.292
0
LINE
8
BLACK
6
CONTINUOUS
10
308.705
20
-50.292
11
308.705
21
-62.992
0
LINE
8
BLACK
6
CONTINUOUS
10
308.705
20
-62.992
11
296.005
21
-62.992
0
CIRCLE
8
BLACK
10
302.355
20
-56.642
40
3
0
LINE
8
BLACK
6
CONTINUOUS
10
46.0597
20
-101.219
11
46.0597
21
-88.519
0
LINE
8
BLACK
6
CONTINUOUS
10
46.0597
20
-88.519
11
58.7597
21
-88.519
0
LINE
8
BLACK
6
CONTINUOUS
10
58.7597
20
-88.519
11
58.7597
21
-101.219
0
LINE
8
BLACK
6
CONTINUOUS
10
58.7597
20
-101.219
11
46.0597
21
-101.219
0
LINE
8
BLACK
6
CONTINUOUS
10
43.9007
20
-102.489
11
43.9007
21
-87.249
0
LINE
8
BLACK
6
CONTINUOUS
10
60.9187
20
-87.249
11
60.9187
21
-102.489
0
LINE
8
BLACK
6
CONTINUOUS
10
37.0427
20
-105.029
11
67.7767
21
-105.029
0
LINE
8
BLACK
6
CONTINUOUS
10
67.7767
20
-105.029
11
67.7767
21
-87.249
0
LINE
8
BLACK
6
CONTINUOUS
10
67.7767
20
-87.249
11
60.9187
21
-87.249
0
LINE
8
BLACK
6
CONTINUOUS
10
60.9187
20
-102.489
11
43.9007
21
-102.489
0
LINE
8
BLACK
6
CONTINUOUS
10
37.0427
20
-87.249
11
37.0427
21
-105.029
0
LINE
8
BLACK
6
CONTINUOUS
10
43.9007
20
-87.249
11
37.0427
21
-87.249
0
CIRCLE
8
BLACK
10
52.4097
20
-94.869
40
3
0
CIRCLE
8
BLACK
10
297.593
20
-37.846
40
3
0
LINE
8
BLACK
6
CONTINUOUS
10
289.084
20
-30.226
11
282.226
21
-30.226
0
LINE
8
BLACK
6
CONTINUOUS
10
282.226
20
-30.226
11
282.226
21
-48.006
0
LINE
8
BLACK
6
CONTINUOUS
10
306.102
20
-45.466
11
289.084
21
-45.466
0
LINE
8
BLACK
6
CONTINUOUS
10
312.96
20
-30.226
11
306.102
21
-30.226
0
LINE
8
BLACK
6
CONTINUOUS
10
312.96
20
-48.006
11
312.96
21
-30.226
0
LINE
8
BLACK
6
CONTINUOUS
10
282.226
20
-48.006
11
312.96
21
-48.006
0
LINE
8
BLACK
6
CONTINUOUS
10
306.102
20
-30.226
11
306.102
21
-45.466
0
LINE
8
BLACK
6
CONTINUOUS
10
289.084
20
-45.466
11
289.084
21
-30.226
0
LINE
8
BLACK
6
CONTINUOUS
10
303.943
20
-44.196
11
291.243
21
-44.196
0
LINE
8
BLACK
6
CONTINUOUS
10
303.943
20
-31.496
11
303.943
21
-44.196
0
LINE
8
BLACK
6
CONTINUOUS
10
291.243
20
-31.496
11
303.943
21
-31.496
0
LINE
8
BLACK
6
CONTINUOUS
10
291.243
20
-44.196
11
291.243
21
-31.496
0
LINE
8
BLACK
6
CONTINUOUS
10
38.9147
20
-63.1352
11
38.9147
21
-50.4352
0
LINE
8
BLACK
6
CONTINUOUS
10
38.9147
20
-50.4352
11
51.6147
21
-50.4352
0
LINE
8
BLACK
6
CONTINUOUS
10
51.6147
20
-50.4352
11
51.6147
21
-63.1352
0
LINE
8
BLACK
6
CONTINUOUS
10
51.6147
20
-63.1352
11
38.9147
21
-63.1352
0
CIRCLE
8
BLACK
10
45.2647
20
-56.7852
40
3
0
LINE
8
BLACK
6
CONTINUOUS
10
41.2972
20
-82.169
11
41.2972
21
-69.469
0
LINE
8
BLACK
6
CONTINUOUS
10
41.2972
20
-69.469
11
53.9972
21
-69.469
0
LINE
8
BLACK
6
CONTINUOUS
10
53.9972
20
-69.469
11
53.9972
21
-82.169
0
LINE
8
BLACK
6
CONTINUOUS
10
53.9972
20
-82.169
11
41.2972
21
-82.169
0
CIRCLE
8
BLACK
10
47.6472
20
-75.819
40
3
0
LINE
8
BLACK
6
CONTINUOUS
10
274.574
20
-120.396
11
274.574
21
-107.696
0
LINE
8
BLACK
6
CONTINUOUS
10
274.574
20
-107.696
11
287.274
21
-107.696
0
LINE
8
BLACK
6
CONTINUOUS
10
287.274
20
-107.696
11
287.274
21
-120.396
0
LINE
8
BLACK
6
CONTINUOUS
10
287.274
20
-120.396
11
274.574
21
-120.396
0
CIRCLE
8
BLACK
10
280.924
20
-114.046
40
3
  0
ENDSEC
  0
EOF
