%TF.GenerationSoftware,KiCad,Pcbnew,(5.1.10)-1*%
%TF.CreationDate,2021-12-12T17:38:06-08:00*%
%TF.ProjectId,chgray-keyboard,63686772-6179-42d6-9b65-79626f617264,Yeet2*%
%TF.SameCoordinates,Original*%
%TF.FileFunction,OtherDrawing,Comment*%
%FSLAX46Y46*%
G04 Gerber Fmt 4.6, Leading zero omitted, Abs format (unit mm)*
G04 Created by KiCad (PCBNEW (5.1.10)-1) date 2021-12-12 17:38:06*
%MOMM*%
%LPD*%
G01*
G04 APERTURE LIST*
%ADD10C,0.120000*%
%ADD11C,0.152400*%
%ADD12C,0.150000*%
%ADD13C,0.304800*%
G04 APERTURE END LIST*
D10*
%TO.C,SW54*%
X211174000Y-47344000D02*
X229770000Y-47344000D01*
X229770000Y-47344000D02*
X229770000Y-65940000D01*
X229770000Y-65940000D02*
X211174000Y-65940000D01*
X211174000Y-65940000D02*
X211174000Y-47344000D01*
%TO.C,SW41*%
X173328000Y-47344000D02*
X191924000Y-47344000D01*
X191924000Y-47344000D02*
X191924000Y-65940000D01*
X191924000Y-65940000D02*
X173328000Y-65940000D01*
X173328000Y-65940000D02*
X173328000Y-47344000D01*
%TO.C,SW10*%
X83539000Y-66521000D02*
X102135000Y-66521000D01*
X102135000Y-66521000D02*
X102135000Y-85117000D01*
X102135000Y-85117000D02*
X83539000Y-85117000D01*
X83539000Y-85117000D02*
X83539000Y-66521000D01*
D11*
%TO.C,SW57*%
X102773480Y-123444000D02*
X102773480Y-104648000D01*
X221584520Y-123444000D02*
X102773480Y-123444000D01*
X221584520Y-104648000D02*
X221584520Y-123444000D01*
X102773480Y-104648000D02*
X221584520Y-104648000D01*
D10*
X171477000Y-104748000D02*
X171477000Y-123344000D01*
X171477000Y-123344000D02*
X152881000Y-123344000D01*
X152881000Y-123344000D02*
X152881000Y-104748000D01*
X152881000Y-104748000D02*
X171477000Y-104748000D01*
%TO.C,SW21*%
X297936000Y-9371000D02*
X316532000Y-9371000D01*
X316532000Y-9371000D02*
X316532000Y-27967000D01*
X316532000Y-27967000D02*
X297936000Y-27967000D01*
X297936000Y-27967000D02*
X297936000Y-9371000D01*
%TO.C,RIGHT-SHIFT1*%
X280553000Y-85524500D02*
X299349000Y-85524500D01*
X299349000Y-104320500D02*
X280553000Y-104320500D01*
X299349000Y-85524500D02*
X299349000Y-104320500D01*
X280553000Y-104320500D02*
X280553000Y-85524500D01*
D11*
X316134750Y-85534500D02*
X316134750Y-104330500D01*
X263747250Y-104330500D02*
X263747250Y-85534500D01*
D12*
X316134750Y-104330500D02*
X263747250Y-104330500D01*
X263747250Y-85534500D02*
X316134750Y-85534500D01*
D11*
%TO.C,Slash1*%
X287147500Y-47434500D02*
X287147500Y-66230500D01*
X315468500Y-66230500D02*
X287147500Y-66230500D01*
X315468500Y-66230500D02*
X315468500Y-47434500D01*
X287147500Y-47434500D02*
X315468500Y-47434500D01*
D10*
%TO.C,SW52*%
X192251000Y-47344000D02*
X210847000Y-47344000D01*
X210847000Y-47344000D02*
X210847000Y-65940000D01*
X210847000Y-65940000D02*
X192251000Y-65940000D01*
X192251000Y-65940000D02*
X192251000Y-47344000D01*
%TO.C,SW51*%
X183488000Y-28375900D02*
X202084000Y-28375900D01*
X202084000Y-28375900D02*
X202084000Y-46971900D01*
X202084000Y-46971900D02*
X183488000Y-46971900D01*
X183488000Y-46971900D02*
X183488000Y-28375900D01*
D11*
%TO.C,SW58*%
X221391480Y-104648000D02*
X244952520Y-104648000D01*
X221396560Y-123444000D02*
X221396560Y-104648000D01*
X244957600Y-104648000D02*
X244957600Y-123444000D01*
X244957600Y-123444000D02*
X221396560Y-123444000D01*
%TO.C,RIGHT-SPACE1*%
X245267480Y-104648000D02*
X268828520Y-104648000D01*
X245272560Y-123444000D02*
X245272560Y-104648000D01*
X268833600Y-104648000D02*
X268833600Y-123444000D01*
X268833600Y-123444000D02*
X245272560Y-123444000D01*
D10*
%TO.C,LEFT_ALT1*%
X126338000Y-9371000D02*
X144934000Y-9371000D01*
X144934000Y-9371000D02*
X144934000Y-27967000D01*
X144934000Y-27967000D02*
X126338000Y-27967000D01*
X126338000Y-27967000D02*
X126338000Y-9371000D01*
%TO.C,RIGHT-SHIFT2*%
X202538000Y-9371000D02*
X221134000Y-9371000D01*
X221134000Y-9371000D02*
X221134000Y-27967000D01*
X221134000Y-27967000D02*
X202538000Y-27967000D01*
X202538000Y-27967000D02*
X202538000Y-9371000D01*
%TO.C,LEFT-SPACE1*%
X145388000Y-9371000D02*
X163984000Y-9371000D01*
X163984000Y-9371000D02*
X163984000Y-27967000D01*
X163984000Y-27967000D02*
X145388000Y-27967000D01*
X145388000Y-27967000D02*
X145388000Y-9371000D01*
%TO.C,SW50*%
X321867000Y-9371000D02*
X340463000Y-9371000D01*
X340463000Y-9371000D02*
X340463000Y-27967000D01*
X340463000Y-27967000D02*
X321867000Y-27967000D01*
X321867000Y-27967000D02*
X321867000Y-9371000D01*
%TO.C,SW45*%
X259688000Y-9371000D02*
X278284000Y-9371000D01*
X278284000Y-9371000D02*
X278284000Y-27967000D01*
X278284000Y-27967000D02*
X259688000Y-27967000D01*
X259688000Y-27967000D02*
X259688000Y-9371000D01*
%TO.C,SW37*%
X359840000Y-9371000D02*
X378436000Y-9371000D01*
X378436000Y-9371000D02*
X378436000Y-27967000D01*
X378436000Y-27967000D02*
X359840000Y-27967000D01*
X359840000Y-27967000D02*
X359840000Y-9371000D01*
%TO.C,SW25*%
X278738000Y-9371000D02*
X297334000Y-9371000D01*
X297334000Y-9371000D02*
X297334000Y-27967000D01*
X297334000Y-27967000D02*
X278738000Y-27967000D01*
X278738000Y-27967000D02*
X278738000Y-9371000D01*
%TO.C,SW13*%
X240638000Y-9371000D02*
X259234000Y-9371000D01*
X259234000Y-9371000D02*
X259234000Y-27967000D01*
X259234000Y-27967000D02*
X240638000Y-27967000D01*
X240638000Y-27967000D02*
X240638000Y-9371000D01*
%TO.C,SW9*%
X340917000Y-9371000D02*
X359513000Y-9371000D01*
X359513000Y-9371000D02*
X359513000Y-27967000D01*
X359513000Y-27967000D02*
X340917000Y-27967000D01*
X340917000Y-27967000D02*
X340917000Y-9371000D01*
%TO.C,SW3*%
X221588000Y-9371000D02*
X240184000Y-9371000D01*
X240184000Y-9371000D02*
X240184000Y-27967000D01*
X240184000Y-27967000D02*
X221588000Y-27967000D01*
X221588000Y-27967000D02*
X221588000Y-9371000D01*
D11*
%TO.C,RightMeta1*%
X292949480Y-104648000D02*
X316510520Y-104648000D01*
X292954560Y-123444000D02*
X292954560Y-104648000D01*
X316515600Y-104648000D02*
X316515600Y-123444000D01*
X316515600Y-123444000D02*
X292954560Y-123444000D01*
%TO.C,ENTER1*%
X273715480Y-85153500D02*
X273715480Y-66357500D01*
X316326520Y-66357500D02*
X316326520Y-85153500D01*
X316326520Y-85153500D02*
X273715480Y-85153500D01*
X273715480Y-66357500D02*
X316326520Y-66357500D01*
D10*
X285633000Y-85143500D02*
X285633000Y-66347500D01*
X304429000Y-66347500D02*
X304429000Y-85143500D01*
X304429000Y-85143500D02*
X285633000Y-85143500D01*
X285633000Y-66347500D02*
X304429000Y-66347500D01*
%TO.C,SW4*%
X31088000Y-28375900D02*
X49684000Y-28375900D01*
X49684000Y-28375900D02*
X49684000Y-46971900D01*
X49684000Y-46971900D02*
X31088000Y-46971900D01*
X31088000Y-46971900D02*
X31088000Y-28375900D01*
D11*
%TO.C,WinKey1*%
X78897480Y-104648000D02*
X102458520Y-104648000D01*
X78902560Y-123444000D02*
X78902560Y-104648000D01*
X102463600Y-104648000D02*
X102463600Y-123444000D01*
X102463600Y-123444000D02*
X78902560Y-123444000D01*
%TO.C,LEFT_FN1*%
X55021480Y-104648000D02*
X78582520Y-104648000D01*
X55026560Y-123444000D02*
X55026560Y-104648000D01*
X78587600Y-104648000D02*
X78587600Y-123444000D01*
X78587600Y-123444000D02*
X55026560Y-123444000D01*
%TO.C,LEFT_CTRL1*%
X31104180Y-104648000D02*
X54665220Y-104648000D01*
X31109260Y-123444000D02*
X31109260Y-104648000D01*
X54670300Y-104648000D02*
X54670300Y-123444000D01*
X54670300Y-123444000D02*
X31109260Y-123444000D01*
%TO.C,LEFT-SHIFT1*%
X31104180Y-104267000D02*
X31104180Y-85471000D01*
X73715220Y-85471000D02*
X73715220Y-104267000D01*
X73715220Y-104267000D02*
X31104180Y-104267000D01*
X31104180Y-85471000D02*
X73715220Y-85471000D01*
D10*
X43021700Y-104257000D02*
X43021700Y-85461000D01*
X61817700Y-85461000D02*
X61817700Y-104257000D01*
X61817700Y-104257000D02*
X43021700Y-104257000D01*
X43021700Y-85461000D02*
X61817700Y-85461000D01*
D11*
%TO.C,Backspace1*%
X278670000Y-47244000D02*
X278670000Y-28448000D01*
X316516000Y-28448000D02*
X316516000Y-47244000D01*
X316516000Y-47244000D02*
X278670000Y-47244000D01*
X278670000Y-28448000D02*
X316516000Y-28448000D01*
D10*
X288205000Y-47234000D02*
X288205000Y-28438000D01*
X307001000Y-28438000D02*
X307001000Y-47234000D01*
X307001000Y-47234000D02*
X288205000Y-47234000D01*
X288205000Y-28438000D02*
X307001000Y-28438000D01*
D11*
%TO.C,TAB1*%
X31104200Y-47387200D02*
X31104200Y-66183200D01*
X59425200Y-66183200D02*
X31104200Y-66183200D01*
X59425200Y-66183200D02*
X59425200Y-47387200D01*
X31104200Y-47387200D02*
X59425200Y-47387200D01*
D10*
%TO.C,CAPS1*%
X38259200Y-66411000D02*
X57055200Y-66411000D01*
X57055200Y-85207000D02*
X38259200Y-85207000D01*
X57055200Y-66411000D02*
X57055200Y-85207000D01*
X38259200Y-85207000D02*
X38259200Y-66411000D01*
D11*
X31104180Y-66421000D02*
X64190220Y-66421000D01*
X31104180Y-85217000D02*
X64190220Y-85217000D01*
X31104180Y-66421000D02*
X31104180Y-85217000D01*
X64190220Y-85217000D02*
X64190220Y-66421000D01*
D10*
%TO.C,SW63*%
X235685000Y-66521000D02*
X254281000Y-66521000D01*
X254281000Y-66521000D02*
X254281000Y-85117000D01*
X254281000Y-85117000D02*
X235685000Y-85117000D01*
X235685000Y-85117000D02*
X235685000Y-66521000D01*
%TO.C,SW1*%
X107288000Y-9371000D02*
X125884000Y-9371000D01*
X125884000Y-9371000D02*
X125884000Y-27967000D01*
X125884000Y-27967000D02*
X107288000Y-27967000D01*
X107288000Y-27967000D02*
X107288000Y-9371000D01*
%TO.C,SW2*%
X225779000Y-85571000D02*
X244375000Y-85571000D01*
X244375000Y-85571000D02*
X244375000Y-104167000D01*
X244375000Y-104167000D02*
X225779000Y-104167000D01*
X225779000Y-104167000D02*
X225779000Y-85571000D01*
%TO.C,SW5*%
X50138000Y-28375900D02*
X68734000Y-28375900D01*
X68734000Y-28375900D02*
X68734000Y-46971900D01*
X68734000Y-46971900D02*
X50138000Y-46971900D01*
X50138000Y-46971900D02*
X50138000Y-28375900D01*
%TO.C,SW6*%
X59790000Y-47344000D02*
X78386000Y-47344000D01*
X78386000Y-47344000D02*
X78386000Y-65940000D01*
X78386000Y-65940000D02*
X59790000Y-65940000D01*
X59790000Y-65940000D02*
X59790000Y-47344000D01*
%TO.C,SW7*%
X64489000Y-66521000D02*
X83085000Y-66521000D01*
X83085000Y-66521000D02*
X83085000Y-85117000D01*
X83085000Y-85117000D02*
X64489000Y-85117000D01*
X64489000Y-85117000D02*
X64489000Y-66521000D01*
%TO.C,SW8*%
X321867000Y-85571000D02*
X340463000Y-85571000D01*
X340463000Y-85571000D02*
X340463000Y-104167000D01*
X340463000Y-104167000D02*
X321867000Y-104167000D01*
X321867000Y-104167000D02*
X321867000Y-85571000D01*
%TO.C,SW11*%
X74014000Y-85571000D02*
X92610000Y-85571000D01*
X92610000Y-85571000D02*
X92610000Y-104167000D01*
X92610000Y-104167000D02*
X74014000Y-104167000D01*
X74014000Y-104167000D02*
X74014000Y-85571000D01*
%TO.C,SW12*%
X88238000Y-9371000D02*
X106834000Y-9371000D01*
X106834000Y-9371000D02*
X106834000Y-27967000D01*
X106834000Y-27967000D02*
X88238000Y-27967000D01*
X88238000Y-27967000D02*
X88238000Y-9371000D01*
%TO.C,SW14*%
X69188000Y-28375900D02*
X87784000Y-28375900D01*
X87784000Y-28375900D02*
X87784000Y-46971900D01*
X87784000Y-46971900D02*
X69188000Y-46971900D01*
X69188000Y-46971900D02*
X69188000Y-28375900D01*
%TO.C,SW15*%
X78713000Y-47344000D02*
X97309000Y-47344000D01*
X97309000Y-47344000D02*
X97309000Y-65940000D01*
X97309000Y-65940000D02*
X78713000Y-65940000D01*
X78713000Y-65940000D02*
X78713000Y-47344000D01*
%TO.C,SW16*%
X88238000Y-28375900D02*
X106834000Y-28375900D01*
X106834000Y-28375900D02*
X106834000Y-46971900D01*
X106834000Y-46971900D02*
X88238000Y-46971900D01*
X88238000Y-46971900D02*
X88238000Y-28375900D01*
%TO.C,SW17*%
X97636000Y-47344000D02*
X116232000Y-47344000D01*
X116232000Y-47344000D02*
X116232000Y-65940000D01*
X116232000Y-65940000D02*
X97636000Y-65940000D01*
X97636000Y-65940000D02*
X97636000Y-47344000D01*
%TO.C,SW18*%
X102589000Y-66521000D02*
X121185000Y-66521000D01*
X121185000Y-66521000D02*
X121185000Y-85117000D01*
X121185000Y-85117000D02*
X102589000Y-85117000D01*
X102589000Y-85117000D02*
X102589000Y-66521000D01*
%TO.C,SW19*%
X92810000Y-85571000D02*
X111406000Y-85571000D01*
X111406000Y-85571000D02*
X111406000Y-104167000D01*
X111406000Y-104167000D02*
X92810000Y-104167000D01*
X92810000Y-104167000D02*
X92810000Y-85571000D01*
%TO.C,SW20*%
X230097000Y-47344000D02*
X248693000Y-47344000D01*
X248693000Y-47344000D02*
X248693000Y-65940000D01*
X248693000Y-65940000D02*
X230097000Y-65940000D01*
X230097000Y-65940000D02*
X230097000Y-47344000D01*
%TO.C,SW22*%
X121639000Y-66521000D02*
X140235000Y-66521000D01*
X140235000Y-66521000D02*
X140235000Y-85117000D01*
X140235000Y-85117000D02*
X121639000Y-85117000D01*
X121639000Y-85117000D02*
X121639000Y-66521000D01*
%TO.C,SW23*%
X111733000Y-85571000D02*
X130329000Y-85571000D01*
X130329000Y-85571000D02*
X130329000Y-104167000D01*
X130329000Y-104167000D02*
X111733000Y-104167000D01*
X111733000Y-104167000D02*
X111733000Y-85571000D01*
%TO.C,SW24*%
X249147000Y-47344000D02*
X267743000Y-47344000D01*
X267743000Y-47344000D02*
X267743000Y-65940000D01*
X267743000Y-65940000D02*
X249147000Y-65940000D01*
X249147000Y-65940000D02*
X249147000Y-47344000D01*
%TO.C,SW26*%
X107288000Y-28375900D02*
X125884000Y-28375900D01*
X125884000Y-28375900D02*
X125884000Y-46971900D01*
X125884000Y-46971900D02*
X107288000Y-46971900D01*
X107288000Y-46971900D02*
X107288000Y-28375900D01*
%TO.C,SW27*%
X116559000Y-47344000D02*
X135155000Y-47344000D01*
X135155000Y-47344000D02*
X135155000Y-65940000D01*
X135155000Y-65940000D02*
X116559000Y-65940000D01*
X116559000Y-65940000D02*
X116559000Y-47344000D01*
%TO.C,SW28*%
X126338000Y-28375900D02*
X144934000Y-28375900D01*
X144934000Y-28375900D02*
X144934000Y-46971900D01*
X144934000Y-46971900D02*
X126338000Y-46971900D01*
X126338000Y-46971900D02*
X126338000Y-28375900D01*
%TO.C,SW29*%
X135482000Y-47344000D02*
X154078000Y-47344000D01*
X154078000Y-47344000D02*
X154078000Y-65940000D01*
X154078000Y-65940000D02*
X135482000Y-65940000D01*
X135482000Y-65940000D02*
X135482000Y-47344000D01*
%TO.C,SW30*%
X140435000Y-66521000D02*
X159031000Y-66521000D01*
X159031000Y-66521000D02*
X159031000Y-85117000D01*
X159031000Y-85117000D02*
X140435000Y-85117000D01*
X140435000Y-85117000D02*
X140435000Y-66521000D01*
%TO.C,SW31*%
X130656000Y-85571000D02*
X149252000Y-85571000D01*
X149252000Y-85571000D02*
X149252000Y-104167000D01*
X149252000Y-104167000D02*
X130656000Y-104167000D01*
X130656000Y-104167000D02*
X130656000Y-85571000D01*
%TO.C,SW32*%
X164438000Y-9371000D02*
X183034000Y-9371000D01*
X183034000Y-9371000D02*
X183034000Y-27967000D01*
X183034000Y-27967000D02*
X164438000Y-27967000D01*
X164438000Y-27967000D02*
X164438000Y-9371000D01*
%TO.C,SW33*%
X159485000Y-66521000D02*
X178081000Y-66521000D01*
X178081000Y-66521000D02*
X178081000Y-85117000D01*
X178081000Y-85117000D02*
X159485000Y-85117000D01*
X159485000Y-85117000D02*
X159485000Y-66521000D01*
%TO.C,SW34*%
X149579000Y-85571000D02*
X168175000Y-85571000D01*
X168175000Y-85571000D02*
X168175000Y-104167000D01*
X168175000Y-104167000D02*
X149579000Y-104167000D01*
X149579000Y-104167000D02*
X149579000Y-85571000D01*
%TO.C,SW35*%
X183488000Y-9371000D02*
X202084000Y-9371000D01*
X202084000Y-9371000D02*
X202084000Y-27967000D01*
X202084000Y-27967000D02*
X183488000Y-27967000D01*
X183488000Y-27967000D02*
X183488000Y-9371000D01*
%TO.C,SW36*%
X244702000Y-85571000D02*
X263298000Y-85571000D01*
X263298000Y-85571000D02*
X263298000Y-104167000D01*
X263298000Y-104167000D02*
X244702000Y-104167000D01*
X244702000Y-104167000D02*
X244702000Y-85571000D01*
%TO.C,SW38*%
X145388000Y-28375900D02*
X163984000Y-28375900D01*
X163984000Y-28375900D02*
X163984000Y-46971900D01*
X163984000Y-46971900D02*
X145388000Y-46971900D01*
X145388000Y-46971900D02*
X145388000Y-28375900D01*
%TO.C,SW39*%
X154405000Y-47344000D02*
X173001000Y-47344000D01*
X173001000Y-47344000D02*
X173001000Y-65940000D01*
X173001000Y-65940000D02*
X154405000Y-65940000D01*
X154405000Y-65940000D02*
X154405000Y-47344000D01*
%TO.C,SW40*%
X164438000Y-28375900D02*
X183034000Y-28375900D01*
X183034000Y-28375900D02*
X183034000Y-46971900D01*
X183034000Y-46971900D02*
X164438000Y-46971900D01*
X164438000Y-46971900D02*
X164438000Y-28375900D01*
%TO.C,SW42*%
X178535000Y-66521000D02*
X197131000Y-66521000D01*
X197131000Y-66521000D02*
X197131000Y-85117000D01*
X197131000Y-85117000D02*
X178535000Y-85117000D01*
X178535000Y-85117000D02*
X178535000Y-66521000D01*
%TO.C,SW43*%
X168502000Y-85571000D02*
X187098000Y-85571000D01*
X187098000Y-85571000D02*
X187098000Y-104167000D01*
X187098000Y-104167000D02*
X168502000Y-104167000D01*
X168502000Y-104167000D02*
X168502000Y-85571000D01*
%TO.C,SW44*%
X240638000Y-28375900D02*
X259234000Y-28375900D01*
X259234000Y-28375900D02*
X259234000Y-46971900D01*
X259234000Y-46971900D02*
X240638000Y-46971900D01*
X240638000Y-46971900D02*
X240638000Y-28375900D01*
%TO.C,SW46*%
X197585000Y-66521000D02*
X216181000Y-66521000D01*
X216181000Y-66521000D02*
X216181000Y-85117000D01*
X216181000Y-85117000D02*
X197585000Y-85117000D01*
X197585000Y-85117000D02*
X197585000Y-66521000D01*
%TO.C,SW47*%
X187552000Y-85571000D02*
X206148000Y-85571000D01*
X206148000Y-85571000D02*
X206148000Y-104167000D01*
X206148000Y-104167000D02*
X187552000Y-104167000D01*
X187552000Y-104167000D02*
X187552000Y-85571000D01*
%TO.C,SW49*%
X259688000Y-28375900D02*
X278284000Y-28375900D01*
X278284000Y-28375900D02*
X278284000Y-46971900D01*
X278284000Y-46971900D02*
X259688000Y-46971900D01*
X259688000Y-46971900D02*
X259688000Y-28375900D01*
%TO.C,SW53*%
X202538000Y-28375900D02*
X221134000Y-28375900D01*
X221134000Y-28375900D02*
X221134000Y-46971900D01*
X221134000Y-46971900D02*
X202538000Y-46971900D01*
X202538000Y-46971900D02*
X202538000Y-28375900D01*
%TO.C,SW55*%
X216635000Y-66521000D02*
X235231000Y-66521000D01*
X235231000Y-66521000D02*
X235231000Y-85117000D01*
X235231000Y-85117000D02*
X216635000Y-85117000D01*
X216635000Y-85117000D02*
X216635000Y-66521000D01*
%TO.C,SW56*%
X206729000Y-85571000D02*
X225325000Y-85571000D01*
X225325000Y-85571000D02*
X225325000Y-104167000D01*
X225325000Y-104167000D02*
X206729000Y-104167000D01*
X206729000Y-104167000D02*
X206729000Y-85571000D01*
%TO.C,SW59*%
X221588000Y-28375900D02*
X240184000Y-28375900D01*
X240184000Y-28375900D02*
X240184000Y-46971900D01*
X240184000Y-46971900D02*
X221588000Y-46971900D01*
X221588000Y-46971900D02*
X221588000Y-28375900D01*
%TO.C,SW60*%
X340917000Y-66521000D02*
X359513000Y-66521000D01*
X359513000Y-66521000D02*
X359513000Y-85117000D01*
X359513000Y-85117000D02*
X340917000Y-85117000D01*
X340917000Y-85117000D02*
X340917000Y-66521000D01*
%TO.C,SW61*%
X268324000Y-47344000D02*
X286920000Y-47344000D01*
X286920000Y-47344000D02*
X286920000Y-65940000D01*
X286920000Y-65940000D02*
X268324000Y-65940000D01*
X268324000Y-65940000D02*
X268324000Y-47344000D01*
%TO.C,SW62*%
X359840000Y-66521000D02*
X378436000Y-66521000D01*
X378436000Y-66521000D02*
X378436000Y-85117000D01*
X378436000Y-85117000D02*
X359840000Y-85117000D01*
X359840000Y-85117000D02*
X359840000Y-66521000D01*
%TO.C,SW64*%
X254735000Y-66521000D02*
X273331000Y-66521000D01*
X273331000Y-66521000D02*
X273331000Y-85117000D01*
X273331000Y-85117000D02*
X254735000Y-85117000D01*
X254735000Y-85117000D02*
X254735000Y-66521000D01*
%TO.C,SW66*%
X340917000Y-47471000D02*
X359513000Y-47471000D01*
X359513000Y-47471000D02*
X359513000Y-66067000D01*
X359513000Y-66067000D02*
X340917000Y-66067000D01*
X340917000Y-66067000D02*
X340917000Y-47471000D01*
%TO.C,SW67*%
X321867000Y-47471000D02*
X340463000Y-47471000D01*
X340463000Y-47471000D02*
X340463000Y-66067000D01*
X340463000Y-66067000D02*
X321867000Y-66067000D01*
X321867000Y-66067000D02*
X321867000Y-47471000D01*
%TO.C,SW65*%
X321867000Y-66521000D02*
X340463000Y-66521000D01*
X340463000Y-66521000D02*
X340463000Y-85117000D01*
X340463000Y-85117000D02*
X321867000Y-85117000D01*
X321867000Y-85117000D02*
X321867000Y-66521000D01*
%TO.C,SW68*%
X340917000Y-85571000D02*
X359513000Y-85571000D01*
X359513000Y-85571000D02*
X359513000Y-104167000D01*
X359513000Y-104167000D02*
X340917000Y-104167000D01*
X340917000Y-104167000D02*
X340917000Y-85571000D01*
%TO.C,SW69*%
X321867000Y-28548000D02*
X340463000Y-28548000D01*
X340463000Y-28548000D02*
X340463000Y-47144000D01*
X340463000Y-47144000D02*
X321867000Y-47144000D01*
X321867000Y-47144000D02*
X321867000Y-28548000D01*
%TO.C,SW70*%
X50138000Y-9371000D02*
X68734000Y-9371000D01*
X68734000Y-9371000D02*
X68734000Y-27967000D01*
X68734000Y-27967000D02*
X50138000Y-27967000D01*
X50138000Y-27967000D02*
X50138000Y-9371000D01*
%TO.C,SW71*%
X359840000Y-47471000D02*
X378436000Y-47471000D01*
X378436000Y-47471000D02*
X378436000Y-66067000D01*
X378436000Y-66067000D02*
X359840000Y-66067000D01*
X359840000Y-66067000D02*
X359840000Y-47471000D01*
%TO.C,SW72*%
X359840000Y-85571000D02*
X378436000Y-85571000D01*
X378436000Y-85571000D02*
X378436000Y-104167000D01*
X378436000Y-104167000D02*
X359840000Y-104167000D01*
X359840000Y-104167000D02*
X359840000Y-85571000D01*
%TO.C,SW73*%
X31088000Y-9371000D02*
X49684000Y-9371000D01*
X49684000Y-9371000D02*
X49684000Y-27967000D01*
X49684000Y-27967000D02*
X31088000Y-27967000D01*
X31088000Y-27967000D02*
X31088000Y-9371000D01*
%TO.C,SW74*%
X359840000Y-28548000D02*
X378436000Y-28548000D01*
X378436000Y-28548000D02*
X378436000Y-47144000D01*
X378436000Y-47144000D02*
X359840000Y-47144000D01*
X359840000Y-47144000D02*
X359840000Y-28548000D01*
%TO.C,SW75*%
X359840000Y-104748000D02*
X378436000Y-104748000D01*
X378436000Y-104748000D02*
X378436000Y-123344000D01*
X378436000Y-123344000D02*
X359840000Y-123344000D01*
X359840000Y-123344000D02*
X359840000Y-104748000D01*
%TO.C,SW76*%
X340917000Y-104748000D02*
X359513000Y-104748000D01*
X359513000Y-104748000D02*
X359513000Y-123344000D01*
X359513000Y-123344000D02*
X340917000Y-123344000D01*
X340917000Y-123344000D02*
X340917000Y-104748000D01*
%TO.C,SW77*%
X321867000Y-104748000D02*
X340463000Y-104748000D01*
X340463000Y-104748000D02*
X340463000Y-123344000D01*
X340463000Y-123344000D02*
X321867000Y-123344000D01*
X321867000Y-123344000D02*
X321867000Y-104748000D01*
%TO.C,S2*%
X69188000Y-9371000D02*
X87784000Y-9371000D01*
X87784000Y-9371000D02*
X87784000Y-27967000D01*
X87784000Y-27967000D02*
X69188000Y-27967000D01*
X69188000Y-27967000D02*
X69188000Y-9371000D01*
%TO.C,S1*%
X340917000Y-28548000D02*
X359513000Y-28548000D01*
X359513000Y-28548000D02*
X359513000Y-47144000D01*
X359513000Y-47144000D02*
X340917000Y-47144000D01*
X340917000Y-47144000D02*
X340917000Y-28548000D01*
D11*
%TO.C,SW48*%
X269143480Y-104648000D02*
X292704520Y-104648000D01*
X269148560Y-123444000D02*
X269148560Y-104648000D01*
X292709600Y-104648000D02*
X292709600Y-123444000D01*
X292709600Y-123444000D02*
X269148560Y-123444000D01*
%TD*%
%TO.C,SW57*%
D13*
X104243051Y-121466428D02*
X103952765Y-121466428D01*
X103807622Y-121539000D01*
X103735051Y-121611571D01*
X103589908Y-121829285D01*
X103517337Y-122119571D01*
X103517337Y-122700142D01*
X103589908Y-122845285D01*
X103662480Y-122917857D01*
X103807622Y-122990428D01*
X104097908Y-122990428D01*
X104243051Y-122917857D01*
X104315622Y-122845285D01*
X104388194Y-122700142D01*
X104388194Y-122337285D01*
X104315622Y-122192142D01*
X104243051Y-122119571D01*
X104097908Y-122047000D01*
X103807622Y-122047000D01*
X103662480Y-122119571D01*
X103589908Y-122192142D01*
X103517337Y-122337285D01*
X105041337Y-122845285D02*
X105113908Y-122917857D01*
X105041337Y-122990428D01*
X104968765Y-122917857D01*
X105041337Y-122845285D01*
X105041337Y-122990428D01*
X105694480Y-121611571D02*
X105767051Y-121539000D01*
X105912194Y-121466428D01*
X106275051Y-121466428D01*
X106420194Y-121539000D01*
X106492765Y-121611571D01*
X106565337Y-121756714D01*
X106565337Y-121901857D01*
X106492765Y-122119571D01*
X105621908Y-122990428D01*
X106565337Y-122990428D01*
X107944194Y-121466428D02*
X107218480Y-121466428D01*
X107145908Y-122192142D01*
X107218480Y-122119571D01*
X107363622Y-122047000D01*
X107726480Y-122047000D01*
X107871622Y-122119571D01*
X107944194Y-122192142D01*
X108016765Y-122337285D01*
X108016765Y-122700142D01*
X107944194Y-122845285D01*
X107871622Y-122917857D01*
X107726480Y-122990428D01*
X107363622Y-122990428D01*
X107218480Y-122917857D01*
X107145908Y-122845285D01*
X109323051Y-121974428D02*
X109323051Y-122990428D01*
X108669908Y-121974428D02*
X108669908Y-122772714D01*
X108742480Y-122917857D01*
X108887622Y-122990428D01*
X109105337Y-122990428D01*
X109250480Y-122917857D01*
X109323051Y-122845285D01*
%TO.C,RIGHT-SHIFT1*%
X269961857Y-98303071D02*
X270034428Y-98230500D01*
X270179571Y-98157928D01*
X270542428Y-98157928D01*
X270687571Y-98230500D01*
X270760142Y-98303071D01*
X270832714Y-98448214D01*
X270832714Y-98593357D01*
X270760142Y-98811071D01*
X269889285Y-99681928D01*
X270832714Y-99681928D01*
X271485857Y-99536785D02*
X271558428Y-99609357D01*
X271485857Y-99681928D01*
X271413285Y-99609357D01*
X271485857Y-99536785D01*
X271485857Y-99681928D01*
X272066428Y-98157928D02*
X273082428Y-98157928D01*
X272429285Y-99681928D01*
X274388714Y-98157928D02*
X273663000Y-98157928D01*
X273590428Y-98883642D01*
X273663000Y-98811071D01*
X273808142Y-98738500D01*
X274171000Y-98738500D01*
X274316142Y-98811071D01*
X274388714Y-98883642D01*
X274461285Y-99028785D01*
X274461285Y-99391642D01*
X274388714Y-99536785D01*
X274316142Y-99609357D01*
X274171000Y-99681928D01*
X273808142Y-99681928D01*
X273663000Y-99609357D01*
X273590428Y-99536785D01*
X275767571Y-98665928D02*
X275767571Y-99681928D01*
X275114428Y-98665928D02*
X275114428Y-99464214D01*
X275187000Y-99609357D01*
X275332142Y-99681928D01*
X275549857Y-99681928D01*
X275695000Y-99609357D01*
X275767571Y-99536785D01*
%TO.C,Slash1*%
X290032214Y-64506928D02*
X289161357Y-64506928D01*
X289596785Y-64506928D02*
X289596785Y-62982928D01*
X289451642Y-63200642D01*
X289306500Y-63345785D01*
X289161357Y-63418357D01*
X290685357Y-64361785D02*
X290757928Y-64434357D01*
X290685357Y-64506928D01*
X290612785Y-64434357D01*
X290685357Y-64361785D01*
X290685357Y-64506928D01*
X292136785Y-62982928D02*
X291411071Y-62982928D01*
X291338500Y-63708642D01*
X291411071Y-63636071D01*
X291556214Y-63563500D01*
X291919071Y-63563500D01*
X292064214Y-63636071D01*
X292136785Y-63708642D01*
X292209357Y-63853785D01*
X292209357Y-64216642D01*
X292136785Y-64361785D01*
X292064214Y-64434357D01*
X291919071Y-64506928D01*
X291556214Y-64506928D01*
X291411071Y-64434357D01*
X291338500Y-64361785D01*
X293152785Y-62982928D02*
X293297928Y-62982928D01*
X293443071Y-63055500D01*
X293515642Y-63128071D01*
X293588214Y-63273214D01*
X293660785Y-63563500D01*
X293660785Y-63926357D01*
X293588214Y-64216642D01*
X293515642Y-64361785D01*
X293443071Y-64434357D01*
X293297928Y-64506928D01*
X293152785Y-64506928D01*
X293007642Y-64434357D01*
X292935071Y-64361785D01*
X292862500Y-64216642D01*
X292789928Y-63926357D01*
X292789928Y-63563500D01*
X292862500Y-63273214D01*
X292935071Y-63128071D01*
X293007642Y-63055500D01*
X293152785Y-62982928D01*
X294967071Y-63490928D02*
X294967071Y-64506928D01*
X294313928Y-63490928D02*
X294313928Y-64289214D01*
X294386500Y-64434357D01*
X294531642Y-64506928D01*
X294749357Y-64506928D01*
X294894500Y-64434357D01*
X294967071Y-64361785D01*
%TO.C,SW58*%
X223336394Y-122914228D02*
X222465537Y-122914228D01*
X222900965Y-122914228D02*
X222900965Y-121390228D01*
X222755822Y-121607942D01*
X222610680Y-121753085D01*
X222465537Y-121825657D01*
X223989537Y-122769085D02*
X224062108Y-122841657D01*
X223989537Y-122914228D01*
X223916965Y-122841657D01*
X223989537Y-122769085D01*
X223989537Y-122914228D01*
X224642680Y-121535371D02*
X224715251Y-121462800D01*
X224860394Y-121390228D01*
X225223251Y-121390228D01*
X225368394Y-121462800D01*
X225440965Y-121535371D01*
X225513537Y-121680514D01*
X225513537Y-121825657D01*
X225440965Y-122043371D01*
X224570108Y-122914228D01*
X225513537Y-122914228D01*
X226892394Y-121390228D02*
X226166680Y-121390228D01*
X226094108Y-122115942D01*
X226166680Y-122043371D01*
X226311822Y-121970800D01*
X226674680Y-121970800D01*
X226819822Y-122043371D01*
X226892394Y-122115942D01*
X226964965Y-122261085D01*
X226964965Y-122623942D01*
X226892394Y-122769085D01*
X226819822Y-122841657D01*
X226674680Y-122914228D01*
X226311822Y-122914228D01*
X226166680Y-122841657D01*
X226094108Y-122769085D01*
X228271251Y-121898228D02*
X228271251Y-122914228D01*
X227618108Y-121898228D02*
X227618108Y-122696514D01*
X227690680Y-122841657D01*
X227835822Y-122914228D01*
X228053537Y-122914228D01*
X228198680Y-122841657D01*
X228271251Y-122769085D01*
%TO.C,RIGHT-SPACE1*%
X247212394Y-122914228D02*
X246341537Y-122914228D01*
X246776965Y-122914228D02*
X246776965Y-121390228D01*
X246631822Y-121607942D01*
X246486680Y-121753085D01*
X246341537Y-121825657D01*
X247865537Y-122769085D02*
X247938108Y-122841657D01*
X247865537Y-122914228D01*
X247792965Y-122841657D01*
X247865537Y-122769085D01*
X247865537Y-122914228D01*
X248518680Y-121535371D02*
X248591251Y-121462800D01*
X248736394Y-121390228D01*
X249099251Y-121390228D01*
X249244394Y-121462800D01*
X249316965Y-121535371D01*
X249389537Y-121680514D01*
X249389537Y-121825657D01*
X249316965Y-122043371D01*
X248446108Y-122914228D01*
X249389537Y-122914228D01*
X250768394Y-121390228D02*
X250042680Y-121390228D01*
X249970108Y-122115942D01*
X250042680Y-122043371D01*
X250187822Y-121970800D01*
X250550680Y-121970800D01*
X250695822Y-122043371D01*
X250768394Y-122115942D01*
X250840965Y-122261085D01*
X250840965Y-122623942D01*
X250768394Y-122769085D01*
X250695822Y-122841657D01*
X250550680Y-122914228D01*
X250187822Y-122914228D01*
X250042680Y-122841657D01*
X249970108Y-122769085D01*
X252147251Y-121898228D02*
X252147251Y-122914228D01*
X251494108Y-121898228D02*
X251494108Y-122696514D01*
X251566680Y-122841657D01*
X251711822Y-122914228D01*
X251929537Y-122914228D01*
X252074680Y-122841657D01*
X252147251Y-122769085D01*
%TO.C,RightMeta1*%
X294894394Y-122914228D02*
X294023537Y-122914228D01*
X294458965Y-122914228D02*
X294458965Y-121390228D01*
X294313822Y-121607942D01*
X294168680Y-121753085D01*
X294023537Y-121825657D01*
X295547537Y-122769085D02*
X295620108Y-122841657D01*
X295547537Y-122914228D01*
X295474965Y-122841657D01*
X295547537Y-122769085D01*
X295547537Y-122914228D01*
X296200680Y-121535371D02*
X296273251Y-121462800D01*
X296418394Y-121390228D01*
X296781251Y-121390228D01*
X296926394Y-121462800D01*
X296998965Y-121535371D01*
X297071537Y-121680514D01*
X297071537Y-121825657D01*
X296998965Y-122043371D01*
X296128108Y-122914228D01*
X297071537Y-122914228D01*
X298450394Y-121390228D02*
X297724680Y-121390228D01*
X297652108Y-122115942D01*
X297724680Y-122043371D01*
X297869822Y-121970800D01*
X298232680Y-121970800D01*
X298377822Y-122043371D01*
X298450394Y-122115942D01*
X298522965Y-122261085D01*
X298522965Y-122623942D01*
X298450394Y-122769085D01*
X298377822Y-122841657D01*
X298232680Y-122914228D01*
X297869822Y-122914228D01*
X297724680Y-122841657D01*
X297652108Y-122769085D01*
X299829251Y-121898228D02*
X299829251Y-122914228D01*
X299176108Y-121898228D02*
X299176108Y-122696514D01*
X299248680Y-122841657D01*
X299393822Y-122914228D01*
X299611537Y-122914228D01*
X299756680Y-122841657D01*
X299829251Y-122769085D01*
%TO.C,ENTER1*%
X275825857Y-82178071D02*
X275898428Y-82105500D01*
X276043571Y-82032928D01*
X276406428Y-82032928D01*
X276551571Y-82105500D01*
X276624142Y-82178071D01*
X276696714Y-82323214D01*
X276696714Y-82468357D01*
X276624142Y-82686071D01*
X275753285Y-83556928D01*
X276696714Y-83556928D01*
X277349857Y-83411785D02*
X277422428Y-83484357D01*
X277349857Y-83556928D01*
X277277285Y-83484357D01*
X277349857Y-83411785D01*
X277349857Y-83556928D01*
X278003000Y-82178071D02*
X278075571Y-82105500D01*
X278220714Y-82032928D01*
X278583571Y-82032928D01*
X278728714Y-82105500D01*
X278801285Y-82178071D01*
X278873857Y-82323214D01*
X278873857Y-82468357D01*
X278801285Y-82686071D01*
X277930428Y-83556928D01*
X278873857Y-83556928D01*
X280252714Y-82032928D02*
X279527000Y-82032928D01*
X279454428Y-82758642D01*
X279527000Y-82686071D01*
X279672142Y-82613500D01*
X280035000Y-82613500D01*
X280180142Y-82686071D01*
X280252714Y-82758642D01*
X280325285Y-82903785D01*
X280325285Y-83266642D01*
X280252714Y-83411785D01*
X280180142Y-83484357D01*
X280035000Y-83556928D01*
X279672142Y-83556928D01*
X279527000Y-83484357D01*
X279454428Y-83411785D01*
X281631571Y-82540928D02*
X281631571Y-83556928D01*
X280978428Y-82540928D02*
X280978428Y-83339214D01*
X281051000Y-83484357D01*
X281196142Y-83556928D01*
X281413857Y-83556928D01*
X281559000Y-83484357D01*
X281631571Y-83411785D01*
%TO.C,WinKey1*%
X80842394Y-122914228D02*
X79971537Y-122914228D01*
X80406965Y-122914228D02*
X80406965Y-121390228D01*
X80261822Y-121607942D01*
X80116680Y-121753085D01*
X79971537Y-121825657D01*
X81495537Y-122769085D02*
X81568108Y-122841657D01*
X81495537Y-122914228D01*
X81422965Y-122841657D01*
X81495537Y-122769085D01*
X81495537Y-122914228D01*
X82148680Y-121535371D02*
X82221251Y-121462800D01*
X82366394Y-121390228D01*
X82729251Y-121390228D01*
X82874394Y-121462800D01*
X82946965Y-121535371D01*
X83019537Y-121680514D01*
X83019537Y-121825657D01*
X82946965Y-122043371D01*
X82076108Y-122914228D01*
X83019537Y-122914228D01*
X84398394Y-121390228D02*
X83672680Y-121390228D01*
X83600108Y-122115942D01*
X83672680Y-122043371D01*
X83817822Y-121970800D01*
X84180680Y-121970800D01*
X84325822Y-122043371D01*
X84398394Y-122115942D01*
X84470965Y-122261085D01*
X84470965Y-122623942D01*
X84398394Y-122769085D01*
X84325822Y-122841657D01*
X84180680Y-122914228D01*
X83817822Y-122914228D01*
X83672680Y-122841657D01*
X83600108Y-122769085D01*
X85777251Y-121898228D02*
X85777251Y-122914228D01*
X85124108Y-121898228D02*
X85124108Y-122696514D01*
X85196680Y-122841657D01*
X85341822Y-122914228D01*
X85559537Y-122914228D01*
X85704680Y-122841657D01*
X85777251Y-122769085D01*
%TO.C,LEFT_FN1*%
X56966394Y-122914228D02*
X56095537Y-122914228D01*
X56530965Y-122914228D02*
X56530965Y-121390228D01*
X56385822Y-121607942D01*
X56240680Y-121753085D01*
X56095537Y-121825657D01*
X57619537Y-122769085D02*
X57692108Y-122841657D01*
X57619537Y-122914228D01*
X57546965Y-122841657D01*
X57619537Y-122769085D01*
X57619537Y-122914228D01*
X58272680Y-121535371D02*
X58345251Y-121462800D01*
X58490394Y-121390228D01*
X58853251Y-121390228D01*
X58998394Y-121462800D01*
X59070965Y-121535371D01*
X59143537Y-121680514D01*
X59143537Y-121825657D01*
X59070965Y-122043371D01*
X58200108Y-122914228D01*
X59143537Y-122914228D01*
X60522394Y-121390228D02*
X59796680Y-121390228D01*
X59724108Y-122115942D01*
X59796680Y-122043371D01*
X59941822Y-121970800D01*
X60304680Y-121970800D01*
X60449822Y-122043371D01*
X60522394Y-122115942D01*
X60594965Y-122261085D01*
X60594965Y-122623942D01*
X60522394Y-122769085D01*
X60449822Y-122841657D01*
X60304680Y-122914228D01*
X59941822Y-122914228D01*
X59796680Y-122841657D01*
X59724108Y-122769085D01*
X61901251Y-121898228D02*
X61901251Y-122914228D01*
X61248108Y-121898228D02*
X61248108Y-122696514D01*
X61320680Y-122841657D01*
X61465822Y-122914228D01*
X61683537Y-122914228D01*
X61828680Y-122841657D01*
X61901251Y-122769085D01*
%TO.C,LEFT_CTRL1*%
X33049094Y-122914228D02*
X32178237Y-122914228D01*
X32613665Y-122914228D02*
X32613665Y-121390228D01*
X32468522Y-121607942D01*
X32323380Y-121753085D01*
X32178237Y-121825657D01*
X33702237Y-122769085D02*
X33774808Y-122841657D01*
X33702237Y-122914228D01*
X33629665Y-122841657D01*
X33702237Y-122769085D01*
X33702237Y-122914228D01*
X34355380Y-121535371D02*
X34427951Y-121462800D01*
X34573094Y-121390228D01*
X34935951Y-121390228D01*
X35081094Y-121462800D01*
X35153665Y-121535371D01*
X35226237Y-121680514D01*
X35226237Y-121825657D01*
X35153665Y-122043371D01*
X34282808Y-122914228D01*
X35226237Y-122914228D01*
X36605094Y-121390228D02*
X35879380Y-121390228D01*
X35806808Y-122115942D01*
X35879380Y-122043371D01*
X36024522Y-121970800D01*
X36387380Y-121970800D01*
X36532522Y-122043371D01*
X36605094Y-122115942D01*
X36677665Y-122261085D01*
X36677665Y-122623942D01*
X36605094Y-122769085D01*
X36532522Y-122841657D01*
X36387380Y-122914228D01*
X36024522Y-122914228D01*
X35879380Y-122841657D01*
X35806808Y-122769085D01*
X37983951Y-121898228D02*
X37983951Y-122914228D01*
X37330808Y-121898228D02*
X37330808Y-122696514D01*
X37403380Y-122841657D01*
X37548522Y-122914228D01*
X37766237Y-122914228D01*
X37911380Y-122841657D01*
X37983951Y-122769085D01*
%TO.C,LEFT-SHIFT1*%
X33214557Y-101291571D02*
X33287128Y-101219000D01*
X33432271Y-101146428D01*
X33795128Y-101146428D01*
X33940271Y-101219000D01*
X34012842Y-101291571D01*
X34085414Y-101436714D01*
X34085414Y-101581857D01*
X34012842Y-101799571D01*
X33141985Y-102670428D01*
X34085414Y-102670428D01*
X34738557Y-102525285D02*
X34811128Y-102597857D01*
X34738557Y-102670428D01*
X34665985Y-102597857D01*
X34738557Y-102525285D01*
X34738557Y-102670428D01*
X35391700Y-101291571D02*
X35464271Y-101219000D01*
X35609414Y-101146428D01*
X35972271Y-101146428D01*
X36117414Y-101219000D01*
X36189985Y-101291571D01*
X36262557Y-101436714D01*
X36262557Y-101581857D01*
X36189985Y-101799571D01*
X35319128Y-102670428D01*
X36262557Y-102670428D01*
X37641414Y-101146428D02*
X36915700Y-101146428D01*
X36843128Y-101872142D01*
X36915700Y-101799571D01*
X37060842Y-101727000D01*
X37423700Y-101727000D01*
X37568842Y-101799571D01*
X37641414Y-101872142D01*
X37713985Y-102017285D01*
X37713985Y-102380142D01*
X37641414Y-102525285D01*
X37568842Y-102597857D01*
X37423700Y-102670428D01*
X37060842Y-102670428D01*
X36915700Y-102597857D01*
X36843128Y-102525285D01*
X39020271Y-101654428D02*
X39020271Y-102670428D01*
X38367128Y-101654428D02*
X38367128Y-102452714D01*
X38439700Y-102597857D01*
X38584842Y-102670428D01*
X38802557Y-102670428D01*
X38947700Y-102597857D01*
X39020271Y-102525285D01*
%TO.C,Backspace1*%
X279413857Y-45411571D02*
X279486428Y-45339000D01*
X279631571Y-45266428D01*
X279994428Y-45266428D01*
X280139571Y-45339000D01*
X280212142Y-45411571D01*
X280284714Y-45556714D01*
X280284714Y-45701857D01*
X280212142Y-45919571D01*
X279341285Y-46790428D01*
X280284714Y-46790428D01*
X280937857Y-46645285D02*
X281010428Y-46717857D01*
X280937857Y-46790428D01*
X280865285Y-46717857D01*
X280937857Y-46645285D01*
X280937857Y-46790428D01*
X281953857Y-45266428D02*
X282099000Y-45266428D01*
X282244142Y-45339000D01*
X282316714Y-45411571D01*
X282389285Y-45556714D01*
X282461857Y-45847000D01*
X282461857Y-46209857D01*
X282389285Y-46500142D01*
X282316714Y-46645285D01*
X282244142Y-46717857D01*
X282099000Y-46790428D01*
X281953857Y-46790428D01*
X281808714Y-46717857D01*
X281736142Y-46645285D01*
X281663571Y-46500142D01*
X281591000Y-46209857D01*
X281591000Y-45847000D01*
X281663571Y-45556714D01*
X281736142Y-45411571D01*
X281808714Y-45339000D01*
X281953857Y-45266428D01*
X283405285Y-45266428D02*
X283550428Y-45266428D01*
X283695571Y-45339000D01*
X283768142Y-45411571D01*
X283840714Y-45556714D01*
X283913285Y-45847000D01*
X283913285Y-46209857D01*
X283840714Y-46500142D01*
X283768142Y-46645285D01*
X283695571Y-46717857D01*
X283550428Y-46790428D01*
X283405285Y-46790428D01*
X283260142Y-46717857D01*
X283187571Y-46645285D01*
X283115000Y-46500142D01*
X283042428Y-46209857D01*
X283042428Y-45847000D01*
X283115000Y-45556714D01*
X283187571Y-45411571D01*
X283260142Y-45339000D01*
X283405285Y-45266428D01*
X285219571Y-45774428D02*
X285219571Y-46790428D01*
X284566428Y-45774428D02*
X284566428Y-46572714D01*
X284639000Y-46717857D01*
X284784142Y-46790428D01*
X285001857Y-46790428D01*
X285147000Y-46717857D01*
X285219571Y-46645285D01*
%TO.C,TAB1*%
X33988914Y-64459628D02*
X33118057Y-64459628D01*
X33553485Y-64459628D02*
X33553485Y-62935628D01*
X33408342Y-63153342D01*
X33263200Y-63298485D01*
X33118057Y-63371057D01*
X34642057Y-64314485D02*
X34714628Y-64387057D01*
X34642057Y-64459628D01*
X34569485Y-64387057D01*
X34642057Y-64314485D01*
X34642057Y-64459628D01*
X36093485Y-62935628D02*
X35367771Y-62935628D01*
X35295200Y-63661342D01*
X35367771Y-63588771D01*
X35512914Y-63516200D01*
X35875771Y-63516200D01*
X36020914Y-63588771D01*
X36093485Y-63661342D01*
X36166057Y-63806485D01*
X36166057Y-64169342D01*
X36093485Y-64314485D01*
X36020914Y-64387057D01*
X35875771Y-64459628D01*
X35512914Y-64459628D01*
X35367771Y-64387057D01*
X35295200Y-64314485D01*
X37109485Y-62935628D02*
X37254628Y-62935628D01*
X37399771Y-63008200D01*
X37472342Y-63080771D01*
X37544914Y-63225914D01*
X37617485Y-63516200D01*
X37617485Y-63879057D01*
X37544914Y-64169342D01*
X37472342Y-64314485D01*
X37399771Y-64387057D01*
X37254628Y-64459628D01*
X37109485Y-64459628D01*
X36964342Y-64387057D01*
X36891771Y-64314485D01*
X36819200Y-64169342D01*
X36746628Y-63879057D01*
X36746628Y-63516200D01*
X36819200Y-63225914D01*
X36891771Y-63080771D01*
X36964342Y-63008200D01*
X37109485Y-62935628D01*
X38923771Y-63443628D02*
X38923771Y-64459628D01*
X38270628Y-63443628D02*
X38270628Y-64241914D01*
X38343200Y-64387057D01*
X38488342Y-64459628D01*
X38706057Y-64459628D01*
X38851200Y-64387057D01*
X38923771Y-64314485D01*
%TO.C,CAPS1*%
X32878914Y-84128428D02*
X32008057Y-84128428D01*
X32443485Y-84128428D02*
X32443485Y-82604428D01*
X32298342Y-82822142D01*
X32153200Y-82967285D01*
X32008057Y-83039857D01*
X33532057Y-83983285D02*
X33604628Y-84055857D01*
X33532057Y-84128428D01*
X33459485Y-84055857D01*
X33532057Y-83983285D01*
X33532057Y-84128428D01*
X34112628Y-82604428D02*
X35128628Y-82604428D01*
X34475485Y-84128428D01*
X36434914Y-82604428D02*
X35709200Y-82604428D01*
X35636628Y-83330142D01*
X35709200Y-83257571D01*
X35854342Y-83185000D01*
X36217200Y-83185000D01*
X36362342Y-83257571D01*
X36434914Y-83330142D01*
X36507485Y-83475285D01*
X36507485Y-83838142D01*
X36434914Y-83983285D01*
X36362342Y-84055857D01*
X36217200Y-84128428D01*
X35854342Y-84128428D01*
X35709200Y-84055857D01*
X35636628Y-83983285D01*
X37813771Y-83112428D02*
X37813771Y-84128428D01*
X37160628Y-83112428D02*
X37160628Y-83910714D01*
X37233200Y-84055857D01*
X37378342Y-84128428D01*
X37596057Y-84128428D01*
X37741200Y-84055857D01*
X37813771Y-83983285D01*
%TO.C,SW48*%
X271088394Y-122914228D02*
X270217537Y-122914228D01*
X270652965Y-122914228D02*
X270652965Y-121390228D01*
X270507822Y-121607942D01*
X270362680Y-121753085D01*
X270217537Y-121825657D01*
X271741537Y-122769085D02*
X271814108Y-122841657D01*
X271741537Y-122914228D01*
X271668965Y-122841657D01*
X271741537Y-122769085D01*
X271741537Y-122914228D01*
X272394680Y-121535371D02*
X272467251Y-121462800D01*
X272612394Y-121390228D01*
X272975251Y-121390228D01*
X273120394Y-121462800D01*
X273192965Y-121535371D01*
X273265537Y-121680514D01*
X273265537Y-121825657D01*
X273192965Y-122043371D01*
X272322108Y-122914228D01*
X273265537Y-122914228D01*
X274644394Y-121390228D02*
X273918680Y-121390228D01*
X273846108Y-122115942D01*
X273918680Y-122043371D01*
X274063822Y-121970800D01*
X274426680Y-121970800D01*
X274571822Y-122043371D01*
X274644394Y-122115942D01*
X274716965Y-122261085D01*
X274716965Y-122623942D01*
X274644394Y-122769085D01*
X274571822Y-122841657D01*
X274426680Y-122914228D01*
X274063822Y-122914228D01*
X273918680Y-122841657D01*
X273846108Y-122769085D01*
X276023251Y-121898228D02*
X276023251Y-122914228D01*
X275370108Y-121898228D02*
X275370108Y-122696514D01*
X275442680Y-122841657D01*
X275587822Y-122914228D01*
X275805537Y-122914228D01*
X275950680Y-122841657D01*
X276023251Y-122769085D01*
%TD*%
M02*
