M48
; DRILL file {KiCad (5.1.9)-1} date 06/12/21 15:25:08
; FORMAT={-:-/ absolute / inch / decimal}
; #@! TF.CreationDate,2021-06-12T15:25:08-07:00
; #@! TF.GenerationSoftware,Kicad,Pcbnew,(5.1.9)-1
; #@! TF.FileFunction,Plated,1,2,PTH
FMAT,2
INCH
T1C0.0157
T2C0.0256
%
G90
G05
T1
X1.6233Y-2.0383
X1.8134Y-2.5154
X1.834Y-3.1451
X2.5202Y-1.9339
X2.5268Y-2.3591
X2.7776Y-1.9002
X2.8893Y-1.8668
X2.9046Y-2.4746
X2.9766Y-2.4032
X3.031Y-2.3734
X3.0596Y-4.0336
X3.1531Y-1.8263
X3.3959Y-2.4366
X3.5528Y-1.8012
X3.6366Y-1.7917
X3.8669Y-1.6292
X3.8735Y-3.4922
X4.0809Y-2.3731
X4.1431Y-1.8449
X4.1753Y-4.0913
X4.2002Y-2.091
X4.2266Y-2.7397
X4.2936Y-2.4737
X4.3762Y-1.7698
X4.4363Y-4.1058
X4.5484Y-1.7694
X4.6903Y-1.8534
X4.6924Y-3.8745
X4.6932Y-3.9791
X4.8642Y-2.0155
X4.8748Y-3.6852
X4.8977Y-1.9932
X4.9474Y-3.8155
X4.9816Y-4.1045
X4.9836Y-1.9761
X5.0418Y-3.4588
X5.0493Y-4.0625
X5.1229Y-1.8731
X5.129Y-4.2725
X5.1536Y-3.3227
X5.1784Y-4.2892
X5.2121Y-3.3393
X5.2192Y-1.9616
X5.2436Y-3.4302
X5.2787Y-4.0871
X5.2886Y-4.1492
X5.309Y-3.3569
X5.3879Y-2.5416
X5.4377Y-2.7075
X5.4743Y-2.615
X5.4955Y-3.5305
X5.5331Y-4.2957
X5.6044Y-2.6598
X5.6465Y-2.492
X5.6601Y-4.1984
X5.7569Y-1.8611
X5.7869Y-4.11
X5.7878Y-4.2298
X5.7934Y-2.4751
X5.8029Y-2.362
X5.8141Y-3.7842
X5.8271Y-1.9331
X5.8931Y-1.991
X5.9473Y-4.0752
X5.9563Y-1.9616
X6.0223Y-4.06
X6.0361Y-1.923
X6.0577Y-2.5954
X6.0607Y-1.8112
X6.1127Y-4.1489
X6.1341Y-2.7075
X6.1775Y-1.8325
X6.2173Y-2.7462
X6.2547Y-4.0589
X6.3091Y-1.8201
X6.3449Y-1.5807
X6.3825Y-4.0779
X6.3962Y-2.4937
X6.5404Y-3.4494
X6.5987Y-2.282
X6.7166Y-4.0496
X6.7297Y-1.8676
X6.7614Y-1.8013
X6.8085Y-1.9757
X6.8632Y-1.9799
X6.8737Y-1.8586
X6.8912Y-1.897
X6.9058Y-4.1822
X6.9207Y-1.9247
X6.9621Y-1.6006
X6.9751Y-3.4014
X7.04Y-1.8004
X7.09Y-3.1071
X7.1315Y-4.0233
X7.1902Y-4.0955
X7.2197Y-2.3648
X7.2422Y-3.4494
X7.2898Y-3.8703
X7.2945Y-2.4751
X7.3002Y-1.8207
X7.313Y-4.1928
X7.3208Y-1.925
X7.3567Y-2.5777
X7.4007Y-4.0613
X7.4657Y-3.1499
X7.4816Y-4.1036
X7.5981Y-1.9819
X7.6854Y-1.961
X7.708Y-3.9416
X7.7143Y-4.1036
X7.7804Y-3.3736
X7.7811Y-1.9347
X7.8369Y-1.9346
X7.9862Y-1.8157
X7.9957Y-3.827
X8.1057Y-4.0496
X8.1884Y-4.169
X8.3923Y-2.2081
X8.4276Y-4.2216
X8.4472Y-1.9178
X8.4847Y-2.0508
X8.5147Y-1.6163
X8.5672Y-2.7409
X8.5898Y-2.4999
X8.605Y-3.9768
X8.6077Y-2.7422
X8.6107Y-3.9357
X8.6702Y-3.8762
X8.7781Y-4.0138
X8.7946Y-2.4741
X8.8197Y-3.6955
X8.8238Y-4.0143
X8.9552Y-3.3386
X8.9583Y-4.1397
X8.9764Y-1.7988
X8.9892Y-4.0015
X9.015Y-4.0314
X9.0554Y-1.8973
X9.1052Y-3.0428
X9.1792Y-2.6784
X9.1818Y-2.2941
X9.196Y-1.9148
X9.2086Y-3.9361
X9.2246Y-1.9531
X9.3559Y-3.8586
X9.3887Y-3.934
X9.5295Y-4.0572
X9.578Y-4.1694
X9.6008Y-2.3753
X9.6021Y-2.1565
X9.6513Y-1.8764
X9.6889Y-1.9071
X9.708Y-2.1082
X9.7927Y-4.0988
X9.8066Y-2.5851
X9.8259Y-4.0763
X9.8872Y-1.8441
X9.8953Y-1.884
X9.9641Y-1.6786
X9.9652Y-1.637
X9.9852Y-4.0621
X9.9999Y-2.3948
X10.1018Y-4.0104
X10.1088Y-2.8116
X10.3092Y-3.9624
X10.3195Y-2.5565
X10.3567Y-3.9463
X10.4338Y-1.8768
X10.6054Y-2.616
X10.6225Y-2.3971
X10.6788Y-1.7056
X10.785Y-1.8807
X10.9466Y-2.1046
X11.077Y-3.2177
X11.1006Y-2.493
X11.101Y-1.7531
X11.1018Y-2.6027
X11.1023Y-2.9759
X11.5128Y-3.975
X11.5621Y-2.2083
X11.6173Y-1.7245
X11.6481Y-4.3846
X11.8297Y-2.4374
X11.9252Y-3.0629
X11.9297Y-4.7562
X11.9918Y-3.8292
X12.0321Y-1.8527
X12.218Y-2.5559
X12.2274Y-1.3992
X12.2643Y-1.4185
X12.2885Y-1.7615
X12.2927Y-3.6543
X12.3705Y-3.0356
X12.3708Y-1.9811
X12.3779Y-2.2449
X12.3863Y-1.7245
X12.3891Y-1.8025
X12.4102Y-1.9858
X12.4173Y-1.5671
X12.4247Y-1.6815
X12.4399Y-1.6421
X12.4415Y-2.843
X12.466Y-3.2825
X12.5019Y-3.9966
X12.5106Y-1.5093
X12.5124Y-3.2295
X12.5265Y-2.9551
X12.5479Y-2.9081
X12.5791Y-3.2506
X12.5793Y-1.7119
X12.5975Y-1.8686
X12.6117Y-4.7053
X12.6278Y-1.7382
X12.6319Y-3.1259
X12.6328Y-1.6587
X12.6492Y-1.3708
X12.6512Y-2.7816
X12.6559Y-1.8554
X12.6643Y-4.3662
X12.668Y-2.6678
X12.6743Y-2.0879
X12.6748Y-2.4099
X12.6767Y-2.4654
X12.6878Y-1.3296
X12.6886Y-1.369
X12.6904Y-2.7011
X12.6975Y-3.9624
X12.698Y-3.6853
X12.7083Y-1.8727
X12.7173Y-1.7767
X12.7677Y-1.5312
X12.7831Y-4.2951
X12.7831Y-4.7282
X12.7871Y-2.7296
X12.7982Y-2.8865
X12.8036Y-4.1921
X12.804Y-2.6664
X12.8351Y-2.0536
X12.8697Y-1.6652
X12.8886Y-1.7965
X12.8936Y-2.0328
X12.9102Y-1.9026
X12.9179Y-3.9846
X12.9184Y-4.1946
X12.9189Y-4.5781
X12.9224Y-1.4312
X12.9426Y-3.1667
X12.9562Y-2.5039
X12.9891Y-4.7339
X12.9967Y-1.6823
X12.9973Y-1.5445
X13.0095Y-4.0661
X13.0096Y-1.9168
X13.0135Y-1.83
X13.0408Y-1.567
X13.0459Y-1.6507
X13.1225Y-1.702
X13.204Y-1.7908
X13.2094Y-1.5502
X13.2194Y-1.8477
X13.236Y-2.4003
X13.3168Y-1.8192
X13.3232Y-4.0418
X13.4635Y-1.8793
X13.5197Y-4.1201
X13.6707Y-1.8227
X13.6976Y-4.1644
X13.7848Y-1.5714
X13.8172Y-1.4714
X13.892Y-1.5873
X14.0083Y-3.8901
X14.0197Y-4.6989
X14.1288Y-4.0604
X14.2098Y-3.96
X14.2977Y-4.0234
X14.2982Y-1.957
X14.3076Y-4.0807
X14.3956Y-2.6714
X14.4444Y-1.8767
X14.5059Y-4.1119
X14.6141Y-1.8385
X14.6847Y-4.0251
X14.7344Y-4.0435
X14.7803Y-1.8475
X14.7857Y-2.4774
X14.8554Y-4.0926
X14.9597Y-2.4578
X14.9732Y-1.8626
X15.1639Y-4.1914
X15.2184Y-4.0637
X15.2836Y-1.7909
X15.3369Y-1.9088
X15.5248Y-2.4167
X15.5452Y-4.1025
X15.6114Y-3.8789
X15.672Y-1.7697
X15.672Y-4.7475
X15.6956Y-3.6064
X15.7053Y-3.8832
X15.9265Y-2.4501
T2
X12.5636Y-3.524
X12.5636Y-3.574
X12.5636Y-3.624
X12.5636Y-3.674
X12.5636Y-3.724
X12.5636Y-3.774
X12.5636Y-3.824
X12.6136Y-3.524
X12.6136Y-3.574
X12.6136Y-3.624
X12.6136Y-3.674
X12.6136Y-3.724
X12.6136Y-3.774
X12.6136Y-3.824
T0
M30
