%TF.GenerationSoftware,KiCad,Pcbnew,(5.1.10)-1*%
%TF.CreationDate,2021-11-17T09:30:15-08:00*%
%TF.ProjectId,chgray-keyboard,63686772-6179-42d6-9b65-79626f617264,Yeet2*%
%TF.SameCoordinates,Original*%
%TF.FileFunction,Copper,L2,Bot*%
%TF.FilePolarity,Positive*%
%FSLAX46Y46*%
G04 Gerber Fmt 4.6, Leading zero omitted, Abs format (unit mm)*
G04 Created by KiCad (PCBNEW (5.1.10)-1) date 2021-11-17 09:30:15*
%MOMM*%
%LPD*%
G01*
G04 APERTURE LIST*
%TA.AperFunction,SMDPad,CuDef*%
%ADD10C,0.020000*%
%TD*%
%TA.AperFunction,SMDPad,CuDef*%
%ADD11R,2.550000X2.500000*%
%TD*%
%TA.AperFunction,ComponentPad*%
%ADD12O,1.000000X1.000000*%
%TD*%
%TA.AperFunction,ComponentPad*%
%ADD13R,1.000000X1.000000*%
%TD*%
%TA.AperFunction,ViaPad*%
%ADD14C,0.800000*%
%TD*%
%TA.AperFunction,Conductor*%
%ADD15C,0.250000*%
%TD*%
G04 APERTURE END LIST*
%TA.AperFunction,SMDPad,CuDef*%
D10*
%TO.P,U1,44*%
%TO.N,VCC*%
G36*
X311416940Y-25749398D02*
G01*
X311805848Y-26138306D01*
X310745188Y-27198966D01*
X310356280Y-26810058D01*
X311416940Y-25749398D01*
G37*
%TD.AperFunction*%
%TA.AperFunction,SMDPad,CuDef*%
%TO.P,U1,43*%
%TO.N,LED_GND*%
G36*
X311982626Y-26315083D02*
G01*
X312371534Y-26703991D01*
X311310874Y-27764651D01*
X310921966Y-27375743D01*
X311982626Y-26315083D01*
G37*
%TD.AperFunction*%
%TA.AperFunction,SMDPad,CuDef*%
%TO.P,U1,42*%
%TO.N,N/C*%
G36*
X312548311Y-26880768D02*
G01*
X312937219Y-27269676D01*
X311876559Y-28330336D01*
X311487651Y-27941428D01*
X312548311Y-26880768D01*
G37*
%TD.AperFunction*%
%TA.AperFunction,SMDPad,CuDef*%
%TO.P,U1,41*%
G36*
X313113996Y-27446454D02*
G01*
X313502904Y-27835362D01*
X312442244Y-28896022D01*
X312053336Y-28507114D01*
X313113996Y-27446454D01*
G37*
%TD.AperFunction*%
%TA.AperFunction,SMDPad,CuDef*%
%TO.P,U1,40*%
G36*
X313679682Y-28012139D02*
G01*
X314068590Y-28401047D01*
X313007930Y-29461707D01*
X312619022Y-29072799D01*
X313679682Y-28012139D01*
G37*
%TD.AperFunction*%
%TA.AperFunction,SMDPad,CuDef*%
%TO.P,U1,39*%
%TO.N,ROW5*%
G36*
X314245367Y-28577825D02*
G01*
X314634275Y-28966733D01*
X313573615Y-30027393D01*
X313184707Y-29638485D01*
X314245367Y-28577825D01*
G37*
%TD.AperFunction*%
%TA.AperFunction,SMDPad,CuDef*%
%TO.P,U1,38*%
%TO.N,ROW4*%
G36*
X314811053Y-29143510D02*
G01*
X315199961Y-29532418D01*
X314139301Y-30593078D01*
X313750393Y-30204170D01*
X314811053Y-29143510D01*
G37*
%TD.AperFunction*%
%TA.AperFunction,SMDPad,CuDef*%
%TO.P,U1,37*%
%TO.N,ROW3*%
G36*
X315376738Y-29709196D02*
G01*
X315765646Y-30098104D01*
X314704986Y-31158764D01*
X314316078Y-30769856D01*
X315376738Y-29709196D01*
G37*
%TD.AperFunction*%
%TA.AperFunction,SMDPad,CuDef*%
%TO.P,U1,36*%
%TO.N,ROW2*%
G36*
X315942424Y-30274881D02*
G01*
X316331332Y-30663789D01*
X315270672Y-31724449D01*
X314881764Y-31335541D01*
X315942424Y-30274881D01*
G37*
%TD.AperFunction*%
%TA.AperFunction,SMDPad,CuDef*%
%TO.P,U1,35*%
%TO.N,LED_GND*%
G36*
X316508109Y-30840566D02*
G01*
X316897017Y-31229474D01*
X315836357Y-32290134D01*
X315447449Y-31901226D01*
X316508109Y-30840566D01*
G37*
%TD.AperFunction*%
%TA.AperFunction,SMDPad,CuDef*%
%TO.P,U1,34*%
%TO.N,VCC*%
G36*
X317073794Y-31406252D02*
G01*
X317462702Y-31795160D01*
X316402042Y-32855820D01*
X316013134Y-32466912D01*
X317073794Y-31406252D01*
G37*
%TD.AperFunction*%
%TA.AperFunction,SMDPad,CuDef*%
%TO.P,U1,33*%
%TO.N,Net-(R4-Pad2)*%
G36*
X318417298Y-31795160D02*
G01*
X318806206Y-31406252D01*
X319866866Y-32466912D01*
X319477958Y-32855820D01*
X318417298Y-31795160D01*
G37*
%TD.AperFunction*%
%TA.AperFunction,SMDPad,CuDef*%
%TO.P,U1,32*%
%TO.N,ROW6*%
G36*
X318982983Y-31229474D02*
G01*
X319371891Y-30840566D01*
X320432551Y-31901226D01*
X320043643Y-32290134D01*
X318982983Y-31229474D01*
G37*
%TD.AperFunction*%
%TA.AperFunction,SMDPad,CuDef*%
%TO.P,U1,31*%
%TO.N,N/C*%
G36*
X319548668Y-30663789D02*
G01*
X319937576Y-30274881D01*
X320998236Y-31335541D01*
X320609328Y-31724449D01*
X319548668Y-30663789D01*
G37*
%TD.AperFunction*%
%TA.AperFunction,SMDPad,CuDef*%
%TO.P,U1,30*%
%TO.N,COL9*%
G36*
X320114354Y-30098104D02*
G01*
X320503262Y-29709196D01*
X321563922Y-30769856D01*
X321175014Y-31158764D01*
X320114354Y-30098104D01*
G37*
%TD.AperFunction*%
%TA.AperFunction,SMDPad,CuDef*%
%TO.P,U1,29*%
%TO.N,COL10*%
G36*
X320680039Y-29532418D02*
G01*
X321068947Y-29143510D01*
X322129607Y-30204170D01*
X321740699Y-30593078D01*
X320680039Y-29532418D01*
G37*
%TD.AperFunction*%
%TA.AperFunction,SMDPad,CuDef*%
%TO.P,U1,28*%
%TO.N,COL11*%
G36*
X321245725Y-28966733D02*
G01*
X321634633Y-28577825D01*
X322695293Y-29638485D01*
X322306385Y-30027393D01*
X321245725Y-28966733D01*
G37*
%TD.AperFunction*%
%TA.AperFunction,SMDPad,CuDef*%
%TO.P,U1,27*%
%TO.N,COL0*%
G36*
X321811410Y-28401047D02*
G01*
X322200318Y-28012139D01*
X323260978Y-29072799D01*
X322872070Y-29461707D01*
X321811410Y-28401047D01*
G37*
%TD.AperFunction*%
%TA.AperFunction,SMDPad,CuDef*%
%TO.P,U1,26*%
%TO.N,COL1*%
G36*
X322377096Y-27835362D02*
G01*
X322766004Y-27446454D01*
X323826664Y-28507114D01*
X323437756Y-28896022D01*
X322377096Y-27835362D01*
G37*
%TD.AperFunction*%
%TA.AperFunction,SMDPad,CuDef*%
%TO.P,U1,25*%
%TO.N,COL3*%
G36*
X322942781Y-27269676D02*
G01*
X323331689Y-26880768D01*
X324392349Y-27941428D01*
X324003441Y-28330336D01*
X322942781Y-27269676D01*
G37*
%TD.AperFunction*%
%TA.AperFunction,SMDPad,CuDef*%
%TO.P,U1,24*%
%TO.N,VCC*%
G36*
X323508466Y-26703991D02*
G01*
X323897374Y-26315083D01*
X324958034Y-27375743D01*
X324569126Y-27764651D01*
X323508466Y-26703991D01*
G37*
%TD.AperFunction*%
%TA.AperFunction,SMDPad,CuDef*%
%TO.P,U1,23*%
%TO.N,LED_GND*%
G36*
X324074152Y-26138306D02*
G01*
X324463060Y-25749398D01*
X325523720Y-26810058D01*
X325134812Y-27198966D01*
X324074152Y-26138306D01*
G37*
%TD.AperFunction*%
%TA.AperFunction,SMDPad,CuDef*%
%TO.P,U1,22*%
%TO.N,COL2*%
G36*
X325134812Y-23345234D02*
G01*
X325523720Y-23734142D01*
X324463060Y-24794802D01*
X324074152Y-24405894D01*
X325134812Y-23345234D01*
G37*
%TD.AperFunction*%
%TA.AperFunction,SMDPad,CuDef*%
%TO.P,U1,21*%
%TO.N,COL4*%
G36*
X324569126Y-22779549D02*
G01*
X324958034Y-23168457D01*
X323897374Y-24229117D01*
X323508466Y-23840209D01*
X324569126Y-22779549D01*
G37*
%TD.AperFunction*%
%TA.AperFunction,SMDPad,CuDef*%
%TO.P,U1,20*%
%TO.N,COL5*%
G36*
X324003441Y-22213864D02*
G01*
X324392349Y-22602772D01*
X323331689Y-23663432D01*
X322942781Y-23274524D01*
X324003441Y-22213864D01*
G37*
%TD.AperFunction*%
%TA.AperFunction,SMDPad,CuDef*%
%TO.P,U1,19*%
%TO.N,COL6*%
G36*
X323437756Y-21648178D02*
G01*
X323826664Y-22037086D01*
X322766004Y-23097746D01*
X322377096Y-22708838D01*
X323437756Y-21648178D01*
G37*
%TD.AperFunction*%
%TA.AperFunction,SMDPad,CuDef*%
%TO.P,U1,18*%
%TO.N,COL7*%
G36*
X322872070Y-21082493D02*
G01*
X323260978Y-21471401D01*
X322200318Y-22532061D01*
X321811410Y-22143153D01*
X322872070Y-21082493D01*
G37*
%TD.AperFunction*%
%TA.AperFunction,SMDPad,CuDef*%
%TO.P,U1,17*%
%TO.N,Net-(C107-Pad1)*%
G36*
X322306385Y-20516807D02*
G01*
X322695293Y-20905715D01*
X321634633Y-21966375D01*
X321245725Y-21577467D01*
X322306385Y-20516807D01*
G37*
%TD.AperFunction*%
%TA.AperFunction,SMDPad,CuDef*%
%TO.P,U1,16*%
%TO.N,Net-(C108-Pad1)*%
G36*
X321740699Y-19951122D02*
G01*
X322129607Y-20340030D01*
X321068947Y-21400690D01*
X320680039Y-21011782D01*
X321740699Y-19951122D01*
G37*
%TD.AperFunction*%
%TA.AperFunction,SMDPad,CuDef*%
%TO.P,U1,15*%
%TO.N,LED_GND*%
G36*
X321175014Y-19385436D02*
G01*
X321563922Y-19774344D01*
X320503262Y-20835004D01*
X320114354Y-20446096D01*
X321175014Y-19385436D01*
G37*
%TD.AperFunction*%
%TA.AperFunction,SMDPad,CuDef*%
%TO.P,U1,14*%
%TO.N,VCC*%
G36*
X320609328Y-18819751D02*
G01*
X320998236Y-19208659D01*
X319937576Y-20269319D01*
X319548668Y-19880411D01*
X320609328Y-18819751D01*
G37*
%TD.AperFunction*%
%TA.AperFunction,SMDPad,CuDef*%
%TO.P,U1,13*%
%TO.N,RESET*%
G36*
X320043643Y-18254066D02*
G01*
X320432551Y-18642974D01*
X319371891Y-19703634D01*
X318982983Y-19314726D01*
X320043643Y-18254066D01*
G37*
%TD.AperFunction*%
%TA.AperFunction,SMDPad,CuDef*%
%TO.P,U1,12*%
%TO.N,COL8*%
G36*
X319477958Y-17688380D02*
G01*
X319866866Y-18077288D01*
X318806206Y-19137948D01*
X318417298Y-18749040D01*
X319477958Y-17688380D01*
G37*
%TD.AperFunction*%
%TA.AperFunction,SMDPad,CuDef*%
%TO.P,U1,11*%
%TO.N,COL12*%
G36*
X316013134Y-18077288D02*
G01*
X316402042Y-17688380D01*
X317462702Y-18749040D01*
X317073794Y-19137948D01*
X316013134Y-18077288D01*
G37*
%TD.AperFunction*%
%TA.AperFunction,SMDPad,CuDef*%
%TO.P,U1,10*%
%TO.N,COL13*%
G36*
X315447449Y-18642974D02*
G01*
X315836357Y-18254066D01*
X316897017Y-19314726D01*
X316508109Y-19703634D01*
X315447449Y-18642974D01*
G37*
%TD.AperFunction*%
%TA.AperFunction,SMDPad,CuDef*%
%TO.P,U1,9*%
%TO.N,ROW0*%
G36*
X314881764Y-19208659D02*
G01*
X315270672Y-18819751D01*
X316331332Y-19880411D01*
X315942424Y-20269319D01*
X314881764Y-19208659D01*
G37*
%TD.AperFunction*%
%TA.AperFunction,SMDPad,CuDef*%
%TO.P,U1,8*%
%TO.N,ROW1*%
G36*
X314316078Y-19774344D02*
G01*
X314704986Y-19385436D01*
X315765646Y-20446096D01*
X315376738Y-20835004D01*
X314316078Y-19774344D01*
G37*
%TD.AperFunction*%
%TA.AperFunction,SMDPad,CuDef*%
%TO.P,U1,7*%
%TO.N,VCC*%
G36*
X313750393Y-20340030D02*
G01*
X314139301Y-19951122D01*
X315199961Y-21011782D01*
X314811053Y-21400690D01*
X313750393Y-20340030D01*
G37*
%TD.AperFunction*%
%TA.AperFunction,SMDPad,CuDef*%
%TO.P,U1,6*%
%TO.N,Net-(C109-Pad2)*%
G36*
X313184707Y-20905715D02*
G01*
X313573615Y-20516807D01*
X314634275Y-21577467D01*
X314245367Y-21966375D01*
X313184707Y-20905715D01*
G37*
%TD.AperFunction*%
%TA.AperFunction,SMDPad,CuDef*%
%TO.P,U1,5*%
%TO.N,LED_GND*%
G36*
X312619022Y-21471401D02*
G01*
X313007930Y-21082493D01*
X314068590Y-22143153D01*
X313679682Y-22532061D01*
X312619022Y-21471401D01*
G37*
%TD.AperFunction*%
%TA.AperFunction,SMDPad,CuDef*%
%TO.P,U1,4*%
%TO.N,Net-(R2-Pad1)*%
G36*
X312053336Y-22037086D02*
G01*
X312442244Y-21648178D01*
X313502904Y-22708838D01*
X313113996Y-23097746D01*
X312053336Y-22037086D01*
G37*
%TD.AperFunction*%
%TA.AperFunction,SMDPad,CuDef*%
%TO.P,U1,3*%
%TO.N,Net-(R3-Pad1)*%
G36*
X311487651Y-22602772D02*
G01*
X311876559Y-22213864D01*
X312937219Y-23274524D01*
X312548311Y-23663432D01*
X311487651Y-22602772D01*
G37*
%TD.AperFunction*%
%TA.AperFunction,SMDPad,CuDef*%
%TO.P,U1,2*%
%TO.N,VCC*%
G36*
X310921966Y-23168457D02*
G01*
X311310874Y-22779549D01*
X312371534Y-23840209D01*
X311982626Y-24229117D01*
X310921966Y-23168457D01*
G37*
%TD.AperFunction*%
%TA.AperFunction,SMDPad,CuDef*%
%TO.P,U1,1*%
%TO.N,LED_DATA*%
G36*
X310356280Y-23734142D02*
G01*
X310745188Y-23345234D01*
X311805848Y-24405894D01*
X311416940Y-24794802D01*
X310356280Y-23734142D01*
G37*
%TD.AperFunction*%
%TD*%
D11*
%TO.P,SW10,2*%
%TO.N,Net-(D15-Pad1)*%
X85277000Y-73279000D03*
%TO.P,SW10,1*%
%TO.N,ROW2*%
X99127000Y-70739000D03*
%TD*%
%TO.P,SW57,2*%
%TO.N,Net-(D68-Pad1)*%
X154619000Y-111506000D03*
%TO.P,SW57,1*%
%TO.N,ROW4*%
X168469000Y-108966000D03*
%TD*%
%TO.P,SW21,2*%
%TO.N,Net-(D28-Pad1)*%
X299674000Y-16129000D03*
%TO.P,SW21,1*%
%TO.N,ROW6*%
X313524000Y-13589000D03*
%TD*%
%TO.P,RIGHT-SHIFT1,2*%
%TO.N,Net-(D41-Pad1)*%
X282772000Y-92446000D03*
%TO.P,RIGHT-SHIFT1,1*%
%TO.N,ROW5*%
X296622000Y-89906000D03*
%TD*%
%TO.P,Slash1,2*%
%TO.N,Net-(D78-Pad1)*%
X294805000Y-54092000D03*
%TO.P,Slash1,1*%
%TO.N,ROW1*%
X308655000Y-51552000D03*
%TD*%
%TO.P,SW52,2*%
%TO.N,Net-(D63-Pad1)*%
X193989000Y-54102000D03*
%TO.P,SW52,1*%
%TO.N,ROW1*%
X207839000Y-51562000D03*
%TD*%
%TO.P,SW51,2*%
%TO.N,Net-(D62-Pad1)*%
X185226000Y-35133900D03*
%TO.P,SW51,1*%
%TO.N,ROW0*%
X199076000Y-32593900D03*
%TD*%
%TO.P,SW58,2*%
%TO.N,Net-(D70-Pad1)*%
X225622000Y-111496000D03*
%TO.P,SW58,1*%
%TO.N,ROW6*%
X239472000Y-108956000D03*
%TD*%
%TO.P,RIGHT-SPACE1,2*%
%TO.N,Net-(D54-Pad1)*%
X249498000Y-111496000D03*
%TO.P,RIGHT-SPACE1,1*%
%TO.N,ROW4*%
X263348000Y-108956000D03*
%TD*%
%TO.P,LEFT_ALT1,2*%
%TO.N,Net-(D26-Pad1)*%
X128076000Y-16129000D03*
%TO.P,LEFT_ALT1,1*%
%TO.N,ROW4*%
X141926000Y-13589000D03*
%TD*%
%TO.P,RIGHT-SHIFT2,2*%
%TO.N,Net-(D42-Pad1)*%
X204276000Y-16129000D03*
%TO.P,RIGHT-SHIFT2,1*%
%TO.N,ROW6*%
X218126000Y-13589000D03*
%TD*%
%TO.P,LEFT-SPACE1,2*%
%TO.N,Net-(D31-Pad1)*%
X147126000Y-16129000D03*
%TO.P,LEFT-SPACE1,1*%
%TO.N,ROW4*%
X160976000Y-13589000D03*
%TD*%
%TO.P,SW50,2*%
%TO.N,Net-(D61-Pad1)*%
X323605000Y-16129000D03*
%TO.P,SW50,1*%
%TO.N,ROW6*%
X337455000Y-13589000D03*
%TD*%
%TO.P,SW45,2*%
%TO.N,Net-(D56-Pad1)*%
X261426000Y-16129000D03*
%TO.P,SW45,1*%
%TO.N,ROW6*%
X275276000Y-13589000D03*
%TD*%
%TO.P,SW37,2*%
%TO.N,Net-(D47-Pad1)*%
X361578000Y-16129000D03*
%TO.P,SW37,1*%
%TO.N,ROW6*%
X375428000Y-13589000D03*
%TD*%
%TO.P,SW25,2*%
%TO.N,Net-(D33-Pad1)*%
X280476000Y-16129000D03*
%TO.P,SW25,1*%
%TO.N,ROW6*%
X294326000Y-13589000D03*
%TD*%
%TO.P,SW13,2*%
%TO.N,Net-(D19-Pad1)*%
X242376000Y-16129000D03*
%TO.P,SW13,1*%
%TO.N,ROW6*%
X256226000Y-13589000D03*
%TD*%
%TO.P,SW9,2*%
%TO.N,Net-(D14-Pad1)*%
X342655000Y-16129000D03*
%TO.P,SW9,1*%
%TO.N,ROW6*%
X356505000Y-13589000D03*
%TD*%
%TO.P,SW3,2*%
%TO.N,Net-(D5-Pad1)*%
X223326000Y-16129000D03*
%TO.P,SW3,1*%
%TO.N,ROW6*%
X237176000Y-13589000D03*
%TD*%
%TO.P,RightMeta1,2*%
%TO.N,Net-(D80-Pad1)*%
X297180000Y-111496000D03*
%TO.P,RightMeta1,1*%
%TO.N,ROW3*%
X311030000Y-108956000D03*
%TD*%
%TO.P,ENTER1,2*%
%TO.N,Net-(D77-Pad1)*%
X287660000Y-73269000D03*
%TO.P,ENTER1,1*%
%TO.N,ROW0*%
X301510000Y-70729000D03*
%TD*%
%TO.P,SW4,2*%
%TO.N,Net-(D6-Pad1)*%
X32826000Y-35133900D03*
%TO.P,SW4,1*%
%TO.N,ROW0*%
X46676000Y-32593900D03*
%TD*%
%TO.P,WinKey1,2*%
%TO.N,Net-(D17-Pad1)*%
X83128000Y-111496000D03*
%TO.P,WinKey1,1*%
%TO.N,ROW4*%
X96978000Y-108956000D03*
%TD*%
%TO.P,LEFT_FN1,2*%
%TO.N,Net-(D12-Pad1)*%
X59252000Y-111496000D03*
%TO.P,LEFT_FN1,1*%
%TO.N,ROW4*%
X73102000Y-108956000D03*
%TD*%
%TO.P,LEFT_CTRL1,2*%
%TO.N,Net-(D3-Pad1)*%
X35334700Y-111496000D03*
%TO.P,LEFT_CTRL1,1*%
%TO.N,ROW4*%
X49184700Y-108956000D03*
%TD*%
%TO.P,LEFT-SHIFT1,2*%
%TO.N,Net-(D11-Pad1)*%
X44859700Y-92319000D03*
%TO.P,LEFT-SHIFT1,1*%
%TO.N,ROW3*%
X58709700Y-89779000D03*
%TD*%
%TO.P,Backspace1,2*%
%TO.N,Net-(Backspace1-Pad2)*%
X290043000Y-35296000D03*
%TO.P,Backspace1,1*%
%TO.N,ROW5*%
X303893000Y-32756000D03*
%TD*%
%TO.P,TAB1,2*%
%TO.N,Net-(D7-Pad1)*%
X37714700Y-54235200D03*
%TO.P,TAB1,1*%
%TO.N,ROW1*%
X51564700Y-51695200D03*
%TD*%
%TO.P,CAPS1,1*%
%TO.N,ROW2*%
X53947200Y-70729000D03*
%TO.P,CAPS1,2*%
%TO.N,Net-(CAPS1-Pad2)*%
X40097200Y-73269000D03*
%TD*%
%TO.P,SW63,2*%
%TO.N,Net-(D75-Pad1)*%
X237423000Y-73279000D03*
%TO.P,SW63,1*%
%TO.N,ROW4*%
X251273000Y-70739000D03*
%TD*%
%TO.P,SW1,2*%
%TO.N,Net-(D2-Pad1)*%
X109026000Y-16129000D03*
%TO.P,SW1,1*%
%TO.N,ROW3*%
X122876000Y-13589000D03*
%TD*%
%TO.P,SW2,2*%
%TO.N,Net-(D4-Pad1)*%
X227517000Y-92329000D03*
%TO.P,SW2,1*%
%TO.N,ROW5*%
X241367000Y-89789000D03*
%TD*%
%TO.P,SW5,2*%
%TO.N,Net-(D8-Pad1)*%
X51876000Y-35133900D03*
%TO.P,SW5,1*%
%TO.N,ROW0*%
X65726000Y-32593900D03*
%TD*%
%TO.P,SW6,2*%
%TO.N,Net-(D9-Pad1)*%
X61528000Y-54102000D03*
%TO.P,SW6,1*%
%TO.N,ROW1*%
X75378000Y-51562000D03*
%TD*%
%TO.P,SW7,2*%
%TO.N,Net-(D10-Pad1)*%
X66227000Y-73279000D03*
%TO.P,SW7,1*%
%TO.N,ROW2*%
X80077000Y-70739000D03*
%TD*%
%TO.P,SW8,2*%
%TO.N,Net-(D13-Pad1)*%
X323605000Y-92329000D03*
%TO.P,SW8,1*%
%TO.N,ROW5*%
X337455000Y-89789000D03*
%TD*%
%TO.P,SW11,2*%
%TO.N,Net-(D16-Pad1)*%
X75752000Y-92329000D03*
%TO.P,SW11,1*%
%TO.N,ROW3*%
X89602000Y-89789000D03*
%TD*%
%TO.P,SW12,2*%
%TO.N,Net-(D18-Pad1)*%
X89976000Y-16129000D03*
%TO.P,SW12,1*%
%TO.N,ROW5*%
X103826000Y-13589000D03*
%TD*%
%TO.P,SW14,2*%
%TO.N,Net-(D20-Pad1)*%
X70926000Y-35133900D03*
%TO.P,SW14,1*%
%TO.N,ROW0*%
X84776000Y-32593900D03*
%TD*%
%TO.P,SW15,2*%
%TO.N,Net-(D21-Pad1)*%
X80451000Y-54102000D03*
%TO.P,SW15,1*%
%TO.N,ROW1*%
X94301000Y-51562000D03*
%TD*%
%TO.P,SW16,2*%
%TO.N,Net-(D22-Pad1)*%
X89976000Y-35133900D03*
%TO.P,SW16,1*%
%TO.N,ROW0*%
X103826000Y-32593900D03*
%TD*%
%TO.P,SW17,2*%
%TO.N,Net-(D23-Pad1)*%
X99374000Y-54102000D03*
%TO.P,SW17,1*%
%TO.N,ROW1*%
X113224000Y-51562000D03*
%TD*%
%TO.P,SW18,2*%
%TO.N,Net-(D24-Pad1)*%
X104327000Y-73279000D03*
%TO.P,SW18,1*%
%TO.N,ROW2*%
X118177000Y-70739000D03*
%TD*%
%TO.P,SW19,2*%
%TO.N,Net-(D25-Pad1)*%
X94548000Y-92329000D03*
%TO.P,SW19,1*%
%TO.N,ROW3*%
X108398000Y-89789000D03*
%TD*%
%TO.P,SW20,2*%
%TO.N,Net-(D27-Pad1)*%
X231835000Y-54102000D03*
%TO.P,SW20,1*%
%TO.N,ROW5*%
X245685000Y-51562000D03*
%TD*%
%TO.P,SW22,2*%
%TO.N,Net-(D29-Pad1)*%
X123377000Y-73279000D03*
%TO.P,SW22,1*%
%TO.N,ROW2*%
X137227000Y-70739000D03*
%TD*%
%TO.P,SW23,2*%
%TO.N,Net-(D30-Pad1)*%
X113471000Y-92329000D03*
%TO.P,SW23,1*%
%TO.N,ROW3*%
X127321000Y-89789000D03*
%TD*%
%TO.P,SW24,2*%
%TO.N,Net-(D32-Pad1)*%
X250885000Y-54102000D03*
%TO.P,SW24,1*%
%TO.N,ROW5*%
X264735000Y-51562000D03*
%TD*%
%TO.P,SW26,2*%
%TO.N,Net-(D34-Pad1)*%
X109026000Y-35133900D03*
%TO.P,SW26,1*%
%TO.N,ROW0*%
X122876000Y-32593900D03*
%TD*%
%TO.P,SW27,2*%
%TO.N,Net-(D35-Pad1)*%
X118297000Y-54102000D03*
%TO.P,SW27,1*%
%TO.N,ROW1*%
X132147000Y-51562000D03*
%TD*%
%TO.P,SW28,2*%
%TO.N,Net-(D36-Pad1)*%
X128076000Y-35133900D03*
%TO.P,SW28,1*%
%TO.N,ROW0*%
X141926000Y-32593900D03*
%TD*%
%TO.P,SW29,2*%
%TO.N,Net-(D37-Pad1)*%
X137220000Y-54102000D03*
%TO.P,SW29,1*%
%TO.N,ROW1*%
X151070000Y-51562000D03*
%TD*%
%TO.P,SW30,2*%
%TO.N,Net-(D38-Pad1)*%
X142173000Y-73279000D03*
%TO.P,SW30,1*%
%TO.N,ROW2*%
X156023000Y-70739000D03*
%TD*%
%TO.P,SW31,2*%
%TO.N,Net-(D39-Pad1)*%
X132394000Y-92329000D03*
%TO.P,SW31,1*%
%TO.N,ROW3*%
X146244000Y-89789000D03*
%TD*%
%TO.P,SW32,2*%
%TO.N,Net-(D40-Pad1)*%
X166176000Y-16129000D03*
%TO.P,SW32,1*%
%TO.N,ROW4*%
X180026000Y-13589000D03*
%TD*%
%TO.P,SW33,2*%
%TO.N,Net-(D43-Pad1)*%
X161223000Y-73279000D03*
%TO.P,SW33,1*%
%TO.N,ROW2*%
X175073000Y-70739000D03*
%TD*%
%TO.P,SW34,2*%
%TO.N,Net-(D44-Pad1)*%
X151317000Y-92329000D03*
%TO.P,SW34,1*%
%TO.N,ROW3*%
X165167000Y-89789000D03*
%TD*%
%TO.P,SW35,2*%
%TO.N,Net-(D45-Pad1)*%
X185226000Y-16129000D03*
%TO.P,SW35,1*%
%TO.N,ROW4*%
X199076000Y-13589000D03*
%TD*%
%TO.P,SW36,2*%
%TO.N,Net-(D46-Pad1)*%
X246694000Y-92329000D03*
%TO.P,SW36,1*%
%TO.N,ROW5*%
X260544000Y-89789000D03*
%TD*%
%TO.P,SW38,2*%
%TO.N,Net-(D48-Pad1)*%
X147126000Y-35133900D03*
%TO.P,SW38,1*%
%TO.N,ROW0*%
X160976000Y-32593900D03*
%TD*%
%TO.P,SW39,2*%
%TO.N,Net-(D49-Pad1)*%
X156143000Y-54102000D03*
%TO.P,SW39,1*%
%TO.N,ROW1*%
X169993000Y-51562000D03*
%TD*%
%TO.P,SW40,2*%
%TO.N,Net-(D50-Pad1)*%
X166176000Y-35133900D03*
%TO.P,SW40,1*%
%TO.N,ROW0*%
X180026000Y-32593900D03*
%TD*%
%TO.P,SW41,2*%
%TO.N,Net-(D51-Pad1)*%
X175066000Y-54102000D03*
%TO.P,SW41,1*%
%TO.N,ROW1*%
X188916000Y-51562000D03*
%TD*%
%TO.P,SW42,2*%
%TO.N,Net-(D52-Pad1)*%
X180273000Y-73279000D03*
%TO.P,SW42,1*%
%TO.N,ROW2*%
X194123000Y-70739000D03*
%TD*%
%TO.P,SW43,2*%
%TO.N,Net-(D53-Pad1)*%
X170240000Y-92329000D03*
%TO.P,SW43,1*%
%TO.N,ROW3*%
X184090000Y-89789000D03*
%TD*%
%TO.P,SW44,2*%
%TO.N,Net-(D55-Pad1)*%
X242376000Y-35133900D03*
%TO.P,SW44,1*%
%TO.N,ROW5*%
X256226000Y-32593900D03*
%TD*%
%TO.P,SW46,2*%
%TO.N,Net-(D57-Pad1)*%
X199323000Y-73279000D03*
%TO.P,SW46,1*%
%TO.N,ROW2*%
X213173000Y-70739000D03*
%TD*%
%TO.P,SW47,2*%
%TO.N,Net-(D58-Pad1)*%
X189290000Y-92329000D03*
%TO.P,SW47,1*%
%TO.N,ROW3*%
X203140000Y-89789000D03*
%TD*%
%TO.P,SW49,2*%
%TO.N,Net-(D60-Pad1)*%
X261426000Y-35133900D03*
%TO.P,SW49,1*%
%TO.N,ROW5*%
X275276000Y-32593900D03*
%TD*%
%TO.P,SW53,2*%
%TO.N,Net-(D64-Pad1)*%
X204276000Y-35133900D03*
%TO.P,SW53,1*%
%TO.N,ROW0*%
X218126000Y-32593900D03*
%TD*%
%TO.P,SW54,2*%
%TO.N,Net-(D65-Pad1)*%
X212912000Y-54102000D03*
%TO.P,SW54,1*%
%TO.N,ROW1*%
X226762000Y-51562000D03*
%TD*%
%TO.P,SW55,2*%
%TO.N,Net-(D66-Pad1)*%
X218373000Y-73279000D03*
%TO.P,SW55,1*%
%TO.N,ROW2*%
X232223000Y-70739000D03*
%TD*%
%TO.P,SW56,2*%
%TO.N,Net-(D67-Pad1)*%
X208467000Y-92329000D03*
%TO.P,SW56,1*%
%TO.N,ROW3*%
X222317000Y-89789000D03*
%TD*%
%TO.P,SW59,2*%
%TO.N,Net-(D71-Pad1)*%
X223326000Y-35133900D03*
%TO.P,SW59,1*%
%TO.N,ROW0*%
X237176000Y-32593900D03*
%TD*%
%TO.P,SW60,2*%
%TO.N,Net-(D72-Pad1)*%
X342655000Y-73279000D03*
%TO.P,SW60,1*%
%TO.N,ROW1*%
X356505000Y-70739000D03*
%TD*%
%TO.P,SW61,2*%
%TO.N,Net-(D73-Pad1)*%
X270062000Y-54102000D03*
%TO.P,SW61,1*%
%TO.N,ROW2*%
X283912000Y-51562000D03*
%TD*%
%TO.P,SW62,2*%
%TO.N,Net-(D74-Pad1)*%
X361578000Y-73279000D03*
%TO.P,SW62,1*%
%TO.N,ROW3*%
X375428000Y-70739000D03*
%TD*%
%TO.P,SW64,2*%
%TO.N,Net-(D76-Pad1)*%
X256473000Y-73279000D03*
%TO.P,SW64,1*%
%TO.N,ROW5*%
X270323000Y-70739000D03*
%TD*%
%TO.P,SW66,2*%
%TO.N,Net-(D81-Pad1)*%
X342655000Y-54229000D03*
%TO.P,SW66,1*%
%TO.N,ROW4*%
X356505000Y-51689000D03*
%TD*%
%TO.P,SW67,2*%
%TO.N,Net-(D82-Pad1)*%
X323605000Y-54229000D03*
%TO.P,SW67,1*%
%TO.N,ROW5*%
X337455000Y-51689000D03*
%TD*%
%TO.P,SW65,2*%
%TO.N,Net-(D79-Pad1)*%
X323605000Y-73279000D03*
%TO.P,SW65,1*%
%TO.N,ROW2*%
X337455000Y-70739000D03*
%TD*%
%TO.P,SW68,2*%
%TO.N,Net-(D84-Pad1)*%
X342655000Y-92329000D03*
%TO.P,SW68,1*%
%TO.N,ROW1*%
X356505000Y-89789000D03*
%TD*%
%TO.P,SW69,2*%
%TO.N,Net-(D85-Pad1)*%
X323605000Y-35306000D03*
%TO.P,SW69,1*%
%TO.N,ROW2*%
X337455000Y-32766000D03*
%TD*%
%TO.P,SW70,2*%
%TO.N,Net-(D86-Pad1)*%
X51876000Y-16129000D03*
%TO.P,SW70,1*%
%TO.N,ROW3*%
X65726000Y-13589000D03*
%TD*%
%TO.P,SW71,2*%
%TO.N,Net-(D87-Pad1)*%
X361578000Y-54229000D03*
%TO.P,SW71,1*%
%TO.N,ROW4*%
X375428000Y-51689000D03*
%TD*%
%TO.P,SW72,2*%
%TO.N,Net-(D88-Pad1)*%
X361578000Y-92329000D03*
%TO.P,SW72,1*%
%TO.N,ROW5*%
X375428000Y-89789000D03*
%TD*%
%TO.P,SW73,2*%
%TO.N,Net-(D90-Pad1)*%
X32826000Y-16129000D03*
%TO.P,SW73,1*%
%TO.N,ROW1*%
X46676000Y-13589000D03*
%TD*%
%TO.P,SW74,2*%
%TO.N,Net-(D91-Pad1)*%
X361578000Y-35306000D03*
%TO.P,SW74,1*%
%TO.N,ROW2*%
X375428000Y-32766000D03*
%TD*%
%TO.P,SW75,2*%
%TO.N,Net-(D92-Pad1)*%
X361578000Y-111506000D03*
%TO.P,SW75,1*%
%TO.N,ROW3*%
X375428000Y-108966000D03*
%TD*%
%TO.P,SW76,2*%
%TO.N,Net-(D93-Pad1)*%
X342655000Y-111506000D03*
%TO.P,SW76,1*%
%TO.N,ROW4*%
X356505000Y-108966000D03*
%TD*%
%TO.P,SW77,2*%
%TO.N,Net-(D94-Pad1)*%
X323605000Y-111506000D03*
%TO.P,SW77,1*%
%TO.N,ROW5*%
X337455000Y-108966000D03*
%TD*%
%TO.P,S2,2*%
%TO.N,Net-(D89-Pad1)*%
X70926000Y-16129000D03*
%TO.P,S2,1*%
%TO.N,ROW0*%
X84776000Y-13589000D03*
%TD*%
%TO.P,S1,2*%
%TO.N,Net-(D83-Pad1)*%
X342655000Y-35306000D03*
%TO.P,S1,1*%
%TO.N,ROW0*%
X356505000Y-32766000D03*
%TD*%
%TO.P,SW48,2*%
%TO.N,Net-(D59-Pad1)*%
X273374000Y-111496000D03*
%TO.P,SW48,1*%
%TO.N,ROW4*%
X287224000Y-108956000D03*
%TD*%
D12*
%TO.P,J1,14*%
%TO.N,N/C*%
X313817000Y-114046000D03*
%TO.P,J1,13*%
%TO.N,LED_5V*%
X315087000Y-114046000D03*
%TO.P,J1,12*%
%TO.N,N/C*%
X313817000Y-115316000D03*
%TO.P,J1,11*%
%TO.N,RESET*%
X315087000Y-115316000D03*
%TO.P,J1,10*%
%TO.N,N/C*%
X313817000Y-116586000D03*
%TO.P,J1,9*%
%TO.N,ROW0*%
X315087000Y-116586000D03*
%TO.P,J1,8*%
%TO.N,N/C*%
X313817000Y-117856000D03*
%TO.P,J1,7*%
%TO.N,COL13*%
X315087000Y-117856000D03*
%TO.P,J1,6*%
%TO.N,N/C*%
X313817000Y-119126000D03*
%TO.P,J1,5*%
%TO.N,COL12*%
X315087000Y-119126000D03*
%TO.P,J1,4*%
%TO.N,N/C*%
X313817000Y-120396000D03*
%TO.P,J1,3*%
%TO.N,LED_DATA*%
X315087000Y-120396000D03*
%TO.P,J1,2*%
%TO.N,N/C*%
X313817000Y-121666000D03*
D13*
%TO.P,J1,1*%
%TO.N,LED_GND*%
X315087000Y-121666000D03*
%TD*%
D14*
%TO.N,Net-(D2-Pad1)*%
X265374400Y-45863000D03*
X256950800Y-34899100D03*
X156556500Y-28394700D03*
%TO.N,Net-(D3-Pad1)*%
X94854200Y-87406800D03*
%TO.N,Net-(D4-Pad1)*%
X230972200Y-60605200D03*
%TO.N,Net-(D5-Pad1)*%
X112518600Y-47590500D03*
%TO.N,Net-(D6-Pad1)*%
X76055100Y-84154000D03*
%TO.N,Net-(D7-Pad1)*%
X45411700Y-49576100D03*
%TO.N,Net-(D8-Pad1)*%
X245447900Y-86559400D03*
X91478600Y-54424200D03*
X63535000Y-48554800D03*
%TO.N,Net-(D9-Pad1)*%
X109421200Y-85263500D03*
%TO.N,Net-(D10-Pad1)*%
X191806000Y-83990200D03*
X186181600Y-78365800D03*
X69388800Y-78167300D03*
%TO.N,Net-(D11-Pad1)*%
X44028200Y-87704800D03*
%TO.N,Net-(D12-Pad1)*%
X115971500Y-86651700D03*
%TO.N,Net-(D13-Pad1)*%
X172576100Y-48150900D03*
X224961600Y-70038500D03*
X314813200Y-78717100D03*
%TO.N,Net-(D14-Pad1)*%
X134366600Y-46018100D03*
X165545400Y-32709400D03*
X186808400Y-31062800D03*
X199647600Y-18206900D03*
X315879700Y-12895100D03*
%TO.N,Net-(D15-Pad1)*%
X179102100Y-86783100D03*
X122103400Y-79648000D03*
X93278600Y-79881400D03*
%TO.N,Net-(D16-Pad1)*%
X35497600Y-47186200D03*
%TO.N,Net-(D17-Pad1)*%
X116646200Y-87404200D03*
%TO.N,Net-(D18-Pad1)*%
X166130400Y-45907500D03*
X160097400Y-39968700D03*
X101372900Y-29295800D03*
%TO.N,Net-(D19-Pad1)*%
X166985300Y-48110700D03*
X201100000Y-21373200D03*
X242130100Y-18012400D03*
%TO.N,Net-(D20-Pad1)*%
X246771400Y-106976200D03*
X94852200Y-58766200D03*
X69597500Y-49280100D03*
%TO.N,Net-(D21-Pad1)*%
X83976400Y-50609900D03*
%TO.N,Net-(D22-Pad1)*%
X157438100Y-84038000D03*
%TO.N,Net-(D23-Pad1)*%
X215414400Y-85357200D03*
X177091300Y-77910500D03*
X112298400Y-69158600D03*
%TO.N,Net-(D24-Pad1)*%
X207435100Y-86810600D03*
X117787300Y-77127500D03*
X104734400Y-71296300D03*
%TO.N,Net-(D25-Pad1)*%
X243368100Y-87128700D03*
%TO.N,Net-(D26-Pad1)*%
X78974400Y-47155600D03*
X87548800Y-34057600D03*
X101331300Y-27817700D03*
%TO.N,Net-(D27-Pad1)*%
X226864400Y-85357200D03*
%TO.N,Net-(D28-Pad1)*%
X132948000Y-44104400D03*
X166085400Y-31806400D03*
X230149800Y-32669300D03*
%TO.N,Net-(D29-Pad1)*%
X127716200Y-79440600D03*
X313800800Y-79021500D03*
X322475900Y-97805600D03*
%TO.N,Net-(D30-Pad1)*%
X117683200Y-88341900D03*
%TO.N,Net-(D31-Pad1)*%
X255841800Y-84221100D03*
X248763700Y-60061000D03*
X229765500Y-56394500D03*
X207452600Y-39101900D03*
X182229800Y-32287400D03*
X176533500Y-21088600D03*
X164290200Y-21088600D03*
%TO.N,Net-(D32-Pad1)*%
X262657300Y-83133800D03*
%TO.N,Net-(D33-Pad1)*%
X225395900Y-39838000D03*
X158082100Y-40702200D03*
X145608200Y-45186900D03*
%TO.N,Net-(D34-Pad1)*%
X74099200Y-45468300D03*
%TO.N,Net-(D35-Pad1)*%
X244962100Y-83808100D03*
X238634200Y-78486200D03*
X140162800Y-69723700D03*
%TO.N,Net-(D36-Pad1)*%
X134697000Y-82642800D03*
%TO.N,Net-(D37-Pad1)*%
X335600400Y-103034800D03*
X314792700Y-77658300D03*
X146541600Y-67990000D03*
%TO.N,Net-(D38-Pad1)*%
X309469300Y-104456100D03*
X280419200Y-72105200D03*
X149259100Y-67387600D03*
%TO.N,Net-(D39-Pad1)*%
X80895600Y-50159500D03*
%TO.N,Net-(D40-Pad1)*%
X113604000Y-86592100D03*
%TO.N,Net-(D41-Pad1)*%
X278366200Y-92234100D03*
%TO.N,Net-(D42-Pad1)*%
X171215300Y-45482900D03*
%TO.N,Net-(D43-Pad1)*%
X131301500Y-84030700D03*
%TO.N,Net-(D44-Pad1)*%
X121522000Y-83196400D03*
%TO.N,Net-(D45-Pad1)*%
X166540300Y-83929100D03*
%TO.N,Net-(D46-Pad1)*%
X246824400Y-60024700D03*
%TO.N,Net-(D47-Pad1)*%
X177855200Y-44738000D03*
X202337000Y-16462500D03*
X345958300Y-12482100D03*
%TO.N,Net-(D48-Pad1)*%
X95471700Y-83919600D03*
X100951300Y-68046500D03*
X109728600Y-67302700D03*
%TO.N,Net-(D49-Pad1)*%
X88210400Y-85357200D03*
X85755000Y-79551400D03*
X153180500Y-78867100D03*
%TO.N,Net-(D50-Pad1)*%
X265735600Y-64947000D03*
X256993800Y-39735800D03*
X167875200Y-31806400D03*
%TO.N,Net-(D51-Pad1)*%
X312859500Y-102496400D03*
X271698000Y-63596100D03*
X178751600Y-64231900D03*
%TO.N,Net-(D52-Pad1)*%
X79782800Y-59463900D03*
X97790900Y-64479300D03*
X174718300Y-64231900D03*
%TO.N,Net-(D53-Pad1)*%
X214927100Y-91767700D03*
%TO.N,Net-(D54-Pad1)*%
X210462900Y-85621100D03*
X212401300Y-88828500D03*
X215224600Y-90010600D03*
X223581700Y-109284100D03*
X245565300Y-111713700D03*
%TO.N,Net-(D55-Pad1)*%
X202799500Y-83997100D03*
X209950200Y-76995300D03*
X236862700Y-70048800D03*
%TO.N,Net-(D56-Pad1)*%
X194150700Y-46828800D03*
X202439500Y-22259300D03*
X243128000Y-22178900D03*
%TO.N,Net-(D57-Pad1)*%
X194720000Y-56027100D03*
%TO.N,Net-(D58-Pad1)*%
X348939100Y-105314400D03*
X338989000Y-111538700D03*
X220869900Y-106250900D03*
%TO.N,Net-(D59-Pad1)*%
X232191500Y-86707700D03*
X244167700Y-107926100D03*
X254690300Y-109009400D03*
%TO.N,Net-(D61-Pad1)*%
X228496400Y-44133200D03*
%TO.N,Net-(D62-Pad1)*%
X142451200Y-83194700D03*
X177465500Y-35404400D03*
X183330800Y-35404400D03*
%TO.N,Net-(D63-Pad1)*%
X204844600Y-83851900D03*
%TO.N,Net-(D64-Pad1)*%
X171742600Y-84135800D03*
%TO.N,Net-(D65-Pad1)*%
X148994400Y-83587400D03*
X161317200Y-59105800D03*
X211140700Y-57602600D03*
%TO.N,Net-(D66-Pad1)*%
X362621500Y-104190800D03*
X251667400Y-84046800D03*
X224494700Y-83082700D03*
%TO.N,Net-(D67-Pad1)*%
X185977400Y-90172000D03*
%TO.N,Net-(D68-Pad1)*%
X220790300Y-47236700D03*
X224557400Y-71498400D03*
X216089100Y-77740900D03*
X222641300Y-102908100D03*
X197409700Y-116750400D03*
%TO.N,Net-(D70-Pad1)*%
X201000600Y-51221900D03*
%TO.N,Net-(D71-Pad1)*%
X229114500Y-84957500D03*
%TO.N,Net-(D72-Pad1)*%
X316498500Y-55583300D03*
X321799100Y-50630700D03*
X339112500Y-58102100D03*
%TO.N,Net-(Backspace1-Pad2)*%
X237212400Y-47182900D03*
%TO.N,Net-(D73-Pad1)*%
X289872800Y-78859200D03*
X159866100Y-78956300D03*
X155468500Y-83892400D03*
%TO.N,Net-(D74-Pad1)*%
X269519700Y-55952800D03*
X275775900Y-64727700D03*
X314309300Y-63509500D03*
%TO.N,Net-(CAPS1-Pad2)*%
X58449200Y-68918700D03*
%TO.N,Net-(D75-Pad1)*%
X228054600Y-97592800D03*
%TO.N,Net-(D76-Pad1)*%
X258709200Y-47258500D03*
%TO.N,Net-(D77-Pad1)*%
X136134800Y-83580400D03*
X143532000Y-68258400D03*
X280164400Y-68903000D03*
%TO.N,Net-(D78-Pad1)*%
X156226200Y-46176700D03*
X165893800Y-61104900D03*
X292101200Y-60165900D03*
%TO.N,Net-(D79-Pad1)*%
X239949400Y-46219100D03*
X242882000Y-66805100D03*
X319875600Y-71831800D03*
%TO.N,Net-(D80-Pad1)*%
X290742200Y-98973200D03*
%TO.N,Net-(D81-Pad1)*%
X313821100Y-55143100D03*
%TO.N,Net-(D82-Pad1)*%
X141647600Y-49978700D03*
X150255600Y-64131700D03*
X315470200Y-64248600D03*
%TO.N,Net-(D83-Pad1)*%
X129971100Y-45391000D03*
X140539900Y-36098400D03*
X310607900Y-34243800D03*
%TO.N,Net-(D84-Pad1)*%
X128051600Y-47390500D03*
X156759200Y-42158000D03*
X260752900Y-41666200D03*
X281090600Y-73598900D03*
X316042900Y-73739200D03*
%TO.N,LED_GND*%
X327628200Y-29476600D03*
X102841500Y-105861200D03*
X104888200Y-100616800D03*
X320602100Y-22017500D03*
X261402200Y-80167700D03*
X314111200Y-26536600D03*
X313858000Y-23331000D03*
X262556700Y-60843400D03*
X257954600Y-43607700D03*
X89233000Y-23284200D03*
X86004800Y-27334500D03*
X319112700Y-101736900D03*
X321794600Y-99813000D03*
%TO.N,LED_5V*%
X288449400Y-101064200D03*
X302878000Y-119915200D03*
X300928900Y-40996200D03*
X291691300Y-24694800D03*
X286123100Y-24821700D03*
%TO.N,ROW5*%
X131193200Y-27494100D03*
X254556400Y-30159300D03*
X316519800Y-90682200D03*
X296917800Y-88034900D03*
X314407700Y-27877800D03*
X304821700Y-29175400D03*
%TO.N,ROW2*%
X337054600Y-59514300D03*
X350482100Y-51295800D03*
X320932600Y-71833700D03*
X311607600Y-41672100D03*
X301547000Y-45238300D03*
X233135100Y-68299500D03*
X174340300Y-66149400D03*
X57425400Y-68533600D03*
X290042500Y-70025300D03*
X117929900Y-66775600D03*
X79100800Y-67492800D03*
X156815800Y-65942200D03*
%TO.N,COL0*%
X275144400Y-63376800D03*
X271272200Y-48359400D03*
X134601700Y-49583100D03*
X142908800Y-63956500D03*
X79356700Y-84150100D03*
X60504400Y-50745600D03*
X314936100Y-42599800D03*
X329788800Y-31436200D03*
X323475000Y-30837900D03*
%TO.N,COL1*%
X194842700Y-84894800D03*
X129938500Y-83920400D03*
X60642300Y-58757200D03*
X106824500Y-86875900D03*
X174087300Y-50785400D03*
X252554400Y-86282500D03*
X253840700Y-45515200D03*
X315908000Y-43734600D03*
X334382600Y-35422400D03*
X323906700Y-29806700D03*
X173697500Y-52236100D03*
%TO.N,COL2*%
X221130300Y-107261900D03*
X195482400Y-91230000D03*
X360383000Y-104646000D03*
X340605000Y-35947800D03*
X325236400Y-25566300D03*
X143793300Y-83580000D03*
X155966600Y-47373500D03*
X82857100Y-44853800D03*
X90339500Y-46711300D03*
X154818800Y-51982500D03*
%TO.N,COL3*%
X243761900Y-83972200D03*
X256092800Y-41096200D03*
X315286900Y-38874500D03*
X97345500Y-45742300D03*
X163507600Y-86596400D03*
%TO.N,COL4*%
X272837400Y-92741700D03*
X169689000Y-60269400D03*
X189734200Y-83990200D03*
X356925000Y-103430000D03*
X339278300Y-35921300D03*
X325726000Y-27850700D03*
X147138800Y-48276500D03*
X151112900Y-60234000D03*
%TO.N,COL5*%
X338769000Y-104661000D03*
X338352500Y-39891000D03*
X324466800Y-31924700D03*
X315246600Y-103181100D03*
X306863000Y-93584400D03*
X101952100Y-69611400D03*
X163132400Y-67427900D03*
X254841900Y-67530400D03*
X264895600Y-83859100D03*
X153807000Y-84005200D03*
X114710300Y-85340200D03*
X87347600Y-51730300D03*
X160513300Y-48293500D03*
%TO.N,COL6*%
X322180800Y-11427400D03*
X324096400Y-21434200D03*
X167658300Y-83219700D03*
X182576800Y-46766100D03*
X107089500Y-84369700D03*
X86416300Y-50609900D03*
%TO.N,COL7*%
X211671000Y-84050500D03*
X198694200Y-50491900D03*
X305855500Y-93627100D03*
X303694000Y-45891400D03*
X314759200Y-43835000D03*
X329227900Y-20580000D03*
X323490600Y-20580000D03*
X46158300Y-48197600D03*
X61191500Y-65229900D03*
X199933300Y-65467800D03*
X295910800Y-66071400D03*
%TO.N,COL8*%
X244661400Y-102817100D03*
X239844000Y-44733900D03*
X71221700Y-47270400D03*
X314534000Y-25050600D03*
X229131000Y-86928600D03*
X254795100Y-36170900D03*
X205112200Y-86701900D03*
X126133800Y-85476600D03*
%TO.N,COL9*%
X366952500Y-103434500D03*
X344109000Y-45465800D03*
X321785600Y-45465800D03*
X186923400Y-50335100D03*
X313385900Y-39206900D03*
X253306900Y-42842000D03*
X243288500Y-48135600D03*
X185141200Y-82419500D03*
X90556900Y-82172600D03*
X99968400Y-75025600D03*
X184676100Y-77289500D03*
%TO.N,COL10*%
X210727500Y-51944900D03*
X91858200Y-83474000D03*
X98864600Y-78414000D03*
X121782100Y-77901400D03*
X313767600Y-41609100D03*
X222137300Y-87505500D03*
X158004500Y-84970500D03*
%TO.N,COL11*%
X314050500Y-43129000D03*
X264302100Y-42065000D03*
X275935300Y-47155600D03*
X157914800Y-42603200D03*
X150510300Y-47482500D03*
X141428300Y-83569700D03*
X234635000Y-47261000D03*
X234831000Y-41809700D03*
%TO.N,COL12*%
X170531700Y-48709500D03*
X188006100Y-48629200D03*
X315471600Y-17743200D03*
X311370600Y-20161000D03*
X306119100Y-53412600D03*
%TO.N,COL13*%
X302411000Y-36088200D03*
X305123300Y-38003500D03*
X117958000Y-47155600D03*
X127987800Y-36986900D03*
X243072500Y-32807900D03*
X238140500Y-45180000D03*
%TO.N,ROW0*%
X307052500Y-21747200D03*
X237981500Y-20132400D03*
X181108200Y-26733700D03*
X199526500Y-27925400D03*
X315905800Y-15313300D03*
X313428500Y-17525300D03*
%TO.N,ROW3*%
X310717400Y-105948400D03*
X374663000Y-107056700D03*
X317786800Y-30614800D03*
X368262400Y-41498900D03*
X222792000Y-103928200D03*
X129200400Y-90249800D03*
X111525300Y-89535400D03*
%TO.N,ROW4*%
X325422200Y-8261600D03*
X342673200Y-23059500D03*
X318615500Y-25107300D03*
X344394900Y-25235400D03*
%TO.N,ROW1*%
X315183200Y-61869900D03*
X310489600Y-61869900D03*
X168428200Y-54147700D03*
X152250000Y-54111300D03*
X227106400Y-55327200D03*
X308655000Y-59997200D03*
X115110300Y-51328600D03*
X94000400Y-49686100D03*
%TO.N,LED_DATA*%
X309434300Y-26637200D03*
%TO.N,Net-(R4-Pad2)*%
X316384200Y-51117400D03*
%TO.N,Net-(R2-Pad1)*%
X311012500Y-60175200D03*
%TO.N,Net-(R3-Pad1)*%
X310613000Y-69474600D03*
%TO.N,Net-(D167-Pad2)*%
X288282800Y-99835700D03*
X333220300Y-101007700D03*
%TO.N,Net-(D101-Pad2)*%
X275437700Y-61744900D03*
X279438400Y-62738000D03*
%TO.N,Net-(D104-Pad2)*%
X287628600Y-41914900D03*
X265388700Y-29933400D03*
X158732800Y-26556100D03*
X118756300Y-24739600D03*
%TO.N,Net-(D109-Pad2)*%
X248101000Y-24000400D03*
X297802100Y-41781200D03*
%TO.N,Net-(D113-Pad2)*%
X100241700Y-99911700D03*
X122882300Y-100777700D03*
%TO.N,Net-(D114-Pad2)*%
X229002700Y-23933600D03*
X237079500Y-23812000D03*
%TO.N,Net-(D121-Pad2)*%
X180743000Y-61982500D03*
X185480900Y-61314700D03*
%TO.N,Net-(D124-Pad2)*%
X209968700Y-24019200D03*
X236311600Y-21169800D03*
%TO.N,Net-(D127-Pad2)*%
X322540300Y-80789500D03*
X316486000Y-80210400D03*
%TO.N,Net-(D131-Pad2)*%
X142842700Y-61808100D03*
X145633800Y-68496900D03*
X168317700Y-70070600D03*
X166782300Y-62424100D03*
%TO.N,Net-(D139-Pad2)*%
X267108700Y-23761500D03*
X281177500Y-29056800D03*
X318025400Y-37917700D03*
X333038800Y-24533800D03*
%TO.N,Net-(D141-Pad2)*%
X105043000Y-61990500D03*
X114328200Y-61225400D03*
%TO.N,Net-(D142-Pad2)*%
X76114300Y-23585900D03*
X79020700Y-12489100D03*
X209273400Y-9667200D03*
X376791100Y-72839200D03*
%TO.N,Net-(D143-Pad2)*%
X133576700Y-23504100D03*
X109797700Y-19010000D03*
%TO.N,Net-(D144-Pad2)*%
X335068200Y-24301000D03*
X324206800Y-41649300D03*
X292780600Y-29865000D03*
X282580500Y-24756800D03*
%TO.N,Net-(D151-Pad2)*%
X67191700Y-61651100D03*
X89916900Y-62738000D03*
%TO.N,Net-(D152-Pad2)*%
X369841800Y-103306600D03*
X313070500Y-9498600D03*
X153045200Y-15837800D03*
X113687800Y-23215200D03*
%TO.N,Net-(D155-Pad2)*%
X323438000Y-43216900D03*
X316604500Y-42997500D03*
X302707400Y-42036900D03*
X279972600Y-43735200D03*
%TO.N,Net-(D157-Pad2)*%
X348340200Y-100012700D03*
X350955200Y-98714400D03*
%TO.N,Net-(D163-Pad2)*%
X235286000Y-111687000D03*
X243572400Y-113706600D03*
X231225700Y-119173400D03*
X200075600Y-24851000D03*
%TO.N,Net-(J2-Pad3)*%
X327180500Y-19841600D03*
X326897300Y-32650900D03*
X335405000Y-40543900D03*
X313581500Y-59188500D03*
%TO.N,Net-(J2-Pad2)*%
X333770800Y-17994800D03*
X349247900Y-50176800D03*
X336969300Y-53824100D03*
X321254000Y-69168000D03*
%TO.N,ROW6*%
X313036500Y-25087300D03*
X238776400Y-30006300D03*
%TO.N,Net-(D180-Pad2)*%
X367259600Y-61870100D03*
X370814100Y-60565200D03*
X376788700Y-49018000D03*
X206657200Y-11387100D03*
X84050700Y-15780700D03*
X75937900Y-24788100D03*
%TO.N,Net-(D185-Pad2)*%
X365659100Y-63299200D03*
X371045800Y-62901700D03*
%TO.N,Net-(D187-Pad2)*%
X194982700Y-100166000D03*
X217878500Y-100990000D03*
%TO.N,Net-(D192-Pad2)*%
X198750900Y-100989500D03*
X175918000Y-100010700D03*
%TO.N,Net-(D195-Pad2)*%
X333002600Y-63110500D03*
X321823500Y-70053500D03*
X304438300Y-65265100D03*
X300430200Y-61638000D03*
%TO.N,Net-(C107-Pad1)*%
X318754400Y-36337000D03*
%TO.N,Net-(C108-Pad1)*%
X324067600Y-33448900D03*
%TO.N,Net-(C109-Pad2)*%
X314615100Y-22452000D03*
%TO.N,Net-(D60-Pad1)*%
X314448200Y-103906400D03*
%TO.N,Net-(D85-Pad1)*%
X95313400Y-47956700D03*
X94524600Y-41458600D03*
X316576600Y-38520500D03*
%TO.N,Net-(D86-Pad1)*%
X162774300Y-45931400D03*
X147674600Y-40867800D03*
X93499900Y-30030700D03*
%TO.N,Net-(D87-Pad1)*%
X144115900Y-48976800D03*
X122519600Y-47155600D03*
X313831700Y-57185000D03*
X322035400Y-49432100D03*
X358403300Y-52819400D03*
%TO.N,Net-(D88-Pad1)*%
X316571200Y-61696200D03*
%TO.N,Net-(D89-Pad1)*%
X215155200Y-47295500D03*
X204072200Y-37785700D03*
X157808000Y-30039900D03*
%TO.N,Net-(D90-Pad1)*%
X223695000Y-46423200D03*
X201468500Y-23396700D03*
X42365100Y-22190500D03*
%TO.N,Net-(D91-Pad1)*%
X242362300Y-47155600D03*
X253270000Y-39380800D03*
X318013000Y-39406400D03*
X323580400Y-39406400D03*
X360544100Y-41464400D03*
%TO.N,Net-(D92-Pad1)*%
X253286300Y-47408100D03*
X290704300Y-106955800D03*
X357128400Y-111163000D03*
%TO.N,Net-(D93-Pad1)*%
X264467600Y-47467900D03*
%TO.N,Net-(D94-Pad1)*%
X144627300Y-68477700D03*
X139455600Y-49929000D03*
X312865200Y-76976400D03*
%TO.N,Net-(D104-Pad4)*%
X114743200Y-23582700D03*
X371143600Y-119063700D03*
%TO.N,Net-(D169-Pad2)*%
X175394600Y-118955100D03*
X143003500Y-119930000D03*
%TO.N,Net-(D170-Pad2)*%
X315808900Y-13991700D03*
X367345600Y-34338100D03*
%TO.N,Net-(D177-Pad2)*%
X233181100Y-100131500D03*
X235317800Y-102091800D03*
%TO.N,RESET*%
X318263800Y-113907100D03*
X313807900Y-51823500D03*
X337825200Y-35925300D03*
X322681500Y-26668400D03*
X315061400Y-67935000D03*
%TO.N,VCC*%
X315318400Y-51242200D03*
X321553100Y-25527300D03*
X321700500Y-15025200D03*
X317418900Y-20678400D03*
%TD*%
D15*
%TO.N,Net-(D2-Pad1)*%
X109026000Y-17704300D02*
X109026000Y-19579100D01*
X109026000Y-19579100D02*
X115027300Y-25580400D01*
X115027300Y-25580400D02*
X153742200Y-25580400D01*
X153742200Y-25580400D02*
X156556500Y-28394700D01*
X265374400Y-45863000D02*
X265374400Y-45261900D01*
X265374400Y-45261900D02*
X256950800Y-36838300D01*
X256950800Y-36838300D02*
X256950800Y-34899100D01*
X109026000Y-16129000D02*
X109026000Y-17704300D01*
%TO.N,Net-(D3-Pad1)*%
X35334700Y-109920700D02*
X39506100Y-105749300D01*
X39506100Y-105749300D02*
X75757300Y-105749300D01*
X75757300Y-105749300D02*
X90140100Y-91366500D01*
X90140100Y-91366500D02*
X91020300Y-91366500D01*
X91020300Y-91366500D02*
X94854200Y-87532600D01*
X94854200Y-87532600D02*
X94854200Y-87406800D01*
X35334700Y-111496000D02*
X35334700Y-109920700D01*
%TO.N,Net-(D4-Pad1)*%
X227517000Y-90753700D02*
X226134700Y-89371400D01*
X226134700Y-89371400D02*
X226134700Y-84437100D01*
X226134700Y-84437100D02*
X234761000Y-75810800D01*
X234761000Y-75810800D02*
X234761000Y-67625800D01*
X234761000Y-67625800D02*
X230972200Y-63837000D01*
X230972200Y-63837000D02*
X230972200Y-60605200D01*
X227517000Y-92329000D02*
X227517000Y-90753700D01*
%TO.N,Net-(D5-Pad1)*%
X112518600Y-47590500D02*
X113438300Y-47590500D01*
X113438300Y-47590500D02*
X125706900Y-35321900D01*
X125706900Y-35321900D02*
X125706900Y-34440900D01*
X125706900Y-34440900D02*
X126888800Y-33259000D01*
X126888800Y-33259000D02*
X133820000Y-33259000D01*
X133820000Y-33259000D02*
X135915600Y-35354600D01*
X135915600Y-35354600D02*
X142317400Y-35354600D01*
X142317400Y-35354600D02*
X145823700Y-38860900D01*
X145823700Y-38860900D02*
X150173100Y-38860900D01*
X150173100Y-38860900D02*
X154566500Y-34467500D01*
X154566500Y-34467500D02*
X162124700Y-34467500D01*
X162124700Y-34467500D02*
X165511300Y-31080900D01*
X165511300Y-31080900D02*
X172171000Y-31080900D01*
X172171000Y-31080900D02*
X175512900Y-34422800D01*
X175512900Y-34422800D02*
X181219600Y-34422800D01*
X181219600Y-34422800D02*
X182968900Y-32673500D01*
X182968900Y-32673500D02*
X182968900Y-15356600D01*
X182968900Y-15356600D02*
X184022800Y-14302700D01*
X184022800Y-14302700D02*
X191458100Y-14302700D01*
X191458100Y-14302700D02*
X193079900Y-15924500D01*
X193079900Y-15924500D02*
X201456700Y-15924500D01*
X201456700Y-15924500D02*
X202827600Y-14553600D01*
X202827600Y-14553600D02*
X205766300Y-14553600D01*
X205766300Y-14553600D02*
X205879200Y-14666500D01*
X205879200Y-14666500D02*
X205879200Y-17590200D01*
X205879200Y-17590200D02*
X205566400Y-17903000D01*
X205566400Y-17903000D02*
X205566400Y-19191400D01*
X205566400Y-19191400D02*
X207364900Y-20989900D01*
X207364900Y-20989900D02*
X220040400Y-20989900D01*
X220040400Y-20989900D02*
X223326000Y-17704300D01*
X223326000Y-16129000D02*
X223326000Y-17704300D01*
%TO.N,Net-(D6-Pad1)*%
X32826000Y-35133900D02*
X32826000Y-36878500D01*
X32826000Y-36878500D02*
X43160100Y-47212600D01*
X43160100Y-47212600D02*
X46262100Y-47212600D01*
X46262100Y-47212600D02*
X49936300Y-50886800D01*
X49936300Y-50886800D02*
X49936300Y-53069900D01*
X49936300Y-53069900D02*
X59122400Y-62256000D01*
X59122400Y-62256000D02*
X61536300Y-62256000D01*
X61536300Y-62256000D02*
X71825100Y-72544800D01*
X71825100Y-72544800D02*
X71825100Y-74454900D01*
X71825100Y-74454900D02*
X71451700Y-74828300D01*
X71451700Y-74828300D02*
X71451700Y-79550600D01*
X71451700Y-79550600D02*
X76055100Y-84154000D01*
%TO.N,Net-(D7-Pad1)*%
X45411700Y-49576100D02*
X40798500Y-49576100D01*
X40798500Y-49576100D02*
X37714700Y-52659900D01*
X37714700Y-54235200D02*
X37714700Y-52659900D01*
%TO.N,Net-(D8-Pad1)*%
X91478600Y-54424200D02*
X92602200Y-54424200D01*
X92602200Y-54424200D02*
X105986700Y-67808700D01*
X105986700Y-67808700D02*
X105986700Y-74683700D01*
X105986700Y-74683700D02*
X105593900Y-75076500D01*
X105593900Y-75076500D02*
X105593900Y-76272200D01*
X105593900Y-76272200D02*
X112486000Y-83164300D01*
X112486000Y-83164300D02*
X114271300Y-83164300D01*
X114271300Y-83164300D02*
X120878300Y-89771300D01*
X120878300Y-89771300D02*
X120878300Y-90388300D01*
X120878300Y-90388300D02*
X122998000Y-92508000D01*
X122998000Y-92508000D02*
X127983300Y-92508000D01*
X127983300Y-92508000D02*
X137789600Y-102314300D01*
X137789600Y-102314300D02*
X199402200Y-102314300D01*
X199402200Y-102314300D02*
X212313400Y-115225500D01*
X212313400Y-115225500D02*
X228666600Y-115225500D01*
X228666600Y-115225500D02*
X232186100Y-111706000D01*
X232186100Y-111706000D02*
X234205700Y-111706000D01*
X234205700Y-111706000D02*
X234912100Y-112412400D01*
X234912100Y-112412400D02*
X240732900Y-112412400D01*
X240732900Y-112412400D02*
X245386700Y-107758600D01*
X245386700Y-107758600D02*
X245386700Y-102516600D01*
X245386700Y-102516600D02*
X244643300Y-101773200D01*
X244643300Y-101773200D02*
X244643300Y-87364000D01*
X244643300Y-87364000D02*
X245447900Y-86559400D01*
X51876000Y-35133900D02*
X51876000Y-36895800D01*
X51876000Y-36895800D02*
X63535000Y-48554800D01*
%TO.N,Net-(D9-Pad1)*%
X109421200Y-85263500D02*
X98366400Y-85263500D01*
X98366400Y-85263500D02*
X97778600Y-84675700D01*
X97778600Y-84675700D02*
X92024000Y-84675700D01*
X92024000Y-84675700D02*
X87594900Y-80246600D01*
X87594900Y-80246600D02*
X87594900Y-79717000D01*
X87594900Y-79717000D02*
X80877800Y-72999900D01*
X80877800Y-72999900D02*
X75968700Y-72999900D01*
X75968700Y-72999900D02*
X61528000Y-58559200D01*
X61528000Y-58559200D02*
X61528000Y-55677300D01*
X61528000Y-54102000D02*
X61528000Y-55677300D01*
%TO.N,Net-(D10-Pad1)*%
X191806000Y-83990200D02*
X186181600Y-78365800D01*
X66227000Y-73279000D02*
X66227000Y-75005500D01*
X66227000Y-75005500D02*
X69388800Y-78167300D01*
%TO.N,Net-(D11-Pad1)*%
X44859700Y-92319000D02*
X44859700Y-90743700D01*
X44859700Y-90743700D02*
X44028200Y-89912200D01*
X44028200Y-89912200D02*
X44028200Y-87704800D01*
%TO.N,Net-(D12-Pad1)*%
X59252000Y-109920700D02*
X59552600Y-109620100D01*
X59552600Y-109620100D02*
X65676200Y-109620100D01*
X65676200Y-109620100D02*
X66853900Y-110797800D01*
X66853900Y-110797800D02*
X74293100Y-110797800D01*
X74293100Y-110797800D02*
X92449600Y-92641300D01*
X92449600Y-92641300D02*
X92449600Y-91433900D01*
X92449600Y-91433900D02*
X93403400Y-90480100D01*
X93403400Y-90480100D02*
X101971700Y-90480100D01*
X101971700Y-90480100D02*
X103125300Y-91633700D01*
X103125300Y-91633700D02*
X110518900Y-91633700D01*
X110518900Y-91633700D02*
X114637500Y-87515100D01*
X114637500Y-87515100D02*
X115108200Y-87515100D01*
X115108200Y-87515100D02*
X115108200Y-87515000D01*
X115108200Y-87515000D02*
X115971500Y-86651700D01*
X59252000Y-111496000D02*
X59252000Y-109920700D01*
%TO.N,Net-(D13-Pad1)*%
X172576100Y-48150900D02*
X187458700Y-48150900D01*
X187458700Y-48150900D02*
X187705700Y-47903900D01*
X187705700Y-47903900D02*
X188306600Y-47903900D01*
X188306600Y-47903900D02*
X188709200Y-48306500D01*
X188709200Y-48306500D02*
X222641900Y-48306500D01*
X222641900Y-48306500D02*
X223506000Y-49170600D01*
X223506000Y-49170600D02*
X227355800Y-49170600D01*
X227355800Y-49170600D02*
X228362400Y-50177200D01*
X228362400Y-50177200D02*
X228362400Y-55498100D01*
X228362400Y-55498100D02*
X224961600Y-58898900D01*
X224961600Y-58898900D02*
X224961600Y-70038500D01*
X323605000Y-90753700D02*
X314813200Y-81961900D01*
X314813200Y-81961900D02*
X314813200Y-78717100D01*
X323605000Y-92329000D02*
X323605000Y-90753700D01*
%TO.N,Net-(D14-Pad1)*%
X199647600Y-18206900D02*
X199647600Y-18559200D01*
X199647600Y-18559200D02*
X187144000Y-31062800D01*
X187144000Y-31062800D02*
X186808400Y-31062800D01*
X315879700Y-12895100D02*
X315879700Y-12895200D01*
X315879700Y-12895200D02*
X330371900Y-12895200D01*
X330371900Y-12895200D02*
X333270400Y-15793700D01*
X333270400Y-15793700D02*
X340719400Y-15793700D01*
X340719400Y-15793700D02*
X341054700Y-16129000D01*
X165545400Y-32709400D02*
X162290700Y-35964100D01*
X162290700Y-35964100D02*
X162290700Y-36924700D01*
X162290700Y-36924700D02*
X160365200Y-38850200D01*
X160365200Y-38850200D02*
X157937100Y-38850200D01*
X157937100Y-38850200D02*
X156288100Y-40499200D01*
X156288100Y-40499200D02*
X149947000Y-40499200D01*
X149947000Y-40499200D02*
X149590300Y-40142500D01*
X149590300Y-40142500D02*
X140242200Y-40142500D01*
X140242200Y-40142500D02*
X134366600Y-46018100D01*
X342655000Y-16129000D02*
X341054700Y-16129000D01*
%TO.N,Net-(D15-Pad1)*%
X122103400Y-79648000D02*
X129023900Y-86568500D01*
X129023900Y-86568500D02*
X162321200Y-86568500D01*
X162321200Y-86568500D02*
X163018600Y-85871100D01*
X163018600Y-85871100D02*
X164255200Y-85871100D01*
X164255200Y-85871100D02*
X165167200Y-86783100D01*
X165167200Y-86783100D02*
X179102100Y-86783100D01*
X85277000Y-73279000D02*
X85277000Y-75087100D01*
X85277000Y-75087100D02*
X90071300Y-79881400D01*
X90071300Y-79881400D02*
X93278600Y-79881400D01*
%TO.N,Net-(D16-Pad1)*%
X75752000Y-92329000D02*
X54856400Y-92329000D01*
X54856400Y-92329000D02*
X35211000Y-72683600D01*
X35211000Y-72683600D02*
X35211000Y-47472800D01*
X35211000Y-47472800D02*
X35497600Y-47186200D01*
%TO.N,Net-(D17-Pad1)*%
X83128000Y-109920700D02*
X95354400Y-97694300D01*
X95354400Y-97694300D02*
X106103500Y-97694300D01*
X106103500Y-97694300D02*
X111440400Y-92357400D01*
X111440400Y-92357400D02*
X111440400Y-91349100D01*
X111440400Y-91349100D02*
X114537800Y-88251700D01*
X114537800Y-88251700D02*
X115798700Y-88251700D01*
X115798700Y-88251700D02*
X116646200Y-87404200D01*
X83128000Y-111496000D02*
X83128000Y-109920700D01*
%TO.N,Net-(D18-Pad1)*%
X160097400Y-39968700D02*
X160470800Y-40342100D01*
X160470800Y-40342100D02*
X160470800Y-40342200D01*
X160470800Y-40342200D02*
X160565100Y-40342200D01*
X160565100Y-40342200D02*
X166130400Y-45907500D01*
X89976000Y-16129000D02*
X89976000Y-17898900D01*
X89976000Y-17898900D02*
X101372900Y-29295800D01*
%TO.N,Net-(D19-Pad1)*%
X201100000Y-21373200D02*
X191660400Y-30812800D01*
X191660400Y-30812800D02*
X191660400Y-35383100D01*
X191660400Y-35383100D02*
X180689700Y-46353800D01*
X180689700Y-46353800D02*
X170563200Y-46353800D01*
X170563200Y-46353800D02*
X168806300Y-48110700D01*
X168806300Y-48110700D02*
X166985300Y-48110700D01*
X242376000Y-16129000D02*
X242376000Y-17704300D01*
X242376000Y-17704300D02*
X242130100Y-17950200D01*
X242130100Y-17950200D02*
X242130100Y-18012400D01*
%TO.N,Net-(D20-Pad1)*%
X246771400Y-106976200D02*
X246771400Y-107250200D01*
X246771400Y-107250200D02*
X237662000Y-116359600D01*
X237662000Y-116359600D02*
X210587800Y-116359600D01*
X210587800Y-116359600D02*
X199472700Y-105244500D01*
X199472700Y-105244500D02*
X138215900Y-105244500D01*
X138215900Y-105244500D02*
X126137600Y-93166200D01*
X126137600Y-93166200D02*
X122966200Y-93166200D01*
X122966200Y-93166200D02*
X120203000Y-90403000D01*
X120203000Y-90403000D02*
X120203000Y-89806400D01*
X120203000Y-89806400D02*
X114170300Y-83773700D01*
X114170300Y-83773700D02*
X111832700Y-83773700D01*
X111832700Y-83773700D02*
X102726600Y-74667600D01*
X102726600Y-74667600D02*
X102726600Y-66640600D01*
X102726600Y-66640600D02*
X94852200Y-58766200D01*
X70926000Y-35133900D02*
X70926000Y-36709200D01*
X70926000Y-36709200D02*
X69597500Y-38037700D01*
X69597500Y-38037700D02*
X69597500Y-49280100D01*
%TO.N,Net-(D21-Pad1)*%
X80451000Y-52526700D02*
X82059600Y-52526700D01*
X82059600Y-52526700D02*
X83976400Y-50609900D01*
X80451000Y-54102000D02*
X80451000Y-52526700D01*
%TO.N,Net-(D22-Pad1)*%
X89976000Y-35133900D02*
X89976000Y-36935900D01*
X89976000Y-36935900D02*
X93756900Y-40716800D01*
X93756900Y-40716800D02*
X94825700Y-40716800D01*
X94825700Y-40716800D02*
X98070800Y-43961900D01*
X98070800Y-43961900D02*
X98070800Y-46042800D01*
X98070800Y-46042800D02*
X97773600Y-46340000D01*
X97773600Y-46340000D02*
X97773600Y-57029100D01*
X97773600Y-57029100D02*
X113601500Y-72857000D01*
X113601500Y-72857000D02*
X115695500Y-72857000D01*
X115695500Y-72857000D02*
X118958300Y-76119800D01*
X118958300Y-76119800D02*
X121042900Y-76119800D01*
X121042900Y-76119800D02*
X130140700Y-85217600D01*
X130140700Y-85217600D02*
X156258500Y-85217600D01*
X156258500Y-85217600D02*
X157438100Y-84038000D01*
%TO.N,Net-(D23-Pad1)*%
X99374000Y-54102000D02*
X99374000Y-57992600D01*
X99374000Y-57992600D02*
X110540000Y-69158600D01*
X110540000Y-69158600D02*
X112298400Y-69158600D01*
X177091300Y-77910500D02*
X184830700Y-85649900D01*
X184830700Y-85649900D02*
X196796600Y-85649900D01*
X196796600Y-85649900D02*
X197370700Y-85075800D01*
X197370700Y-85075800D02*
X205857300Y-85075800D01*
X205857300Y-85075800D02*
X206487600Y-84445500D01*
X206487600Y-84445500D02*
X210950000Y-84445500D01*
X210950000Y-84445500D02*
X211861700Y-85357200D01*
X211861700Y-85357200D02*
X215414400Y-85357200D01*
%TO.N,Net-(D24-Pad1)*%
X117787300Y-77127500D02*
X119295000Y-78635200D01*
X119295000Y-78635200D02*
X122151900Y-78635200D01*
X122151900Y-78635200D02*
X129634900Y-86118200D01*
X129634900Y-86118200D02*
X158392900Y-86118200D01*
X158392900Y-86118200D02*
X159090300Y-85420800D01*
X159090300Y-85420800D02*
X164441800Y-85420800D01*
X164441800Y-85420800D02*
X165078700Y-86057700D01*
X165078700Y-86057700D02*
X183932200Y-86057700D01*
X183932200Y-86057700D02*
X184443700Y-86569200D01*
X184443700Y-86569200D02*
X197151100Y-86569200D01*
X197151100Y-86569200D02*
X197743800Y-85976500D01*
X197743800Y-85976500D02*
X206601000Y-85976500D01*
X206601000Y-85976500D02*
X207435100Y-86810600D01*
X104327000Y-71703700D02*
X104734400Y-71296300D01*
X104327000Y-73279000D02*
X104327000Y-71703700D01*
%TO.N,Net-(D25-Pad1)*%
X94548000Y-93904300D02*
X81485900Y-106966400D01*
X81485900Y-106966400D02*
X81485900Y-112905300D01*
X81485900Y-112905300D02*
X81652000Y-113071400D01*
X81652000Y-113071400D02*
X84545500Y-113071400D01*
X84545500Y-113071400D02*
X84843200Y-112773700D01*
X84843200Y-112773700D02*
X84843200Y-110835600D01*
X84843200Y-110835600D02*
X88587700Y-107091100D01*
X88587700Y-107091100D02*
X104256500Y-107091100D01*
X104256500Y-107091100D02*
X105282700Y-108117300D01*
X105282700Y-108117300D02*
X162986300Y-108117300D01*
X162986300Y-108117300D02*
X164025500Y-107078100D01*
X164025500Y-107078100D02*
X189602200Y-107078100D01*
X189602200Y-107078100D02*
X199334100Y-116810000D01*
X199334100Y-116810000D02*
X238031000Y-116810000D01*
X238031000Y-116810000D02*
X247501800Y-107339200D01*
X247501800Y-107339200D02*
X247501800Y-103994800D01*
X247501800Y-103994800D02*
X245093700Y-101586700D01*
X245093700Y-101586700D02*
X245093700Y-90098800D01*
X245093700Y-90098800D02*
X246173300Y-89019200D01*
X246173300Y-89019200D02*
X246173300Y-86254700D01*
X246173300Y-86254700D02*
X245743200Y-85824600D01*
X245743200Y-85824600D02*
X244672200Y-85824600D01*
X244672200Y-85824600D02*
X243368100Y-87128700D01*
X94548000Y-92329000D02*
X94548000Y-93904300D01*
%TO.N,Net-(D26-Pad1)*%
X128076000Y-16129000D02*
X116903700Y-16129000D01*
X116903700Y-16129000D02*
X112788300Y-12013600D01*
X112788300Y-12013600D02*
X102406300Y-12013600D01*
X102406300Y-12013600D02*
X102222800Y-12197100D01*
X102222800Y-12197100D02*
X102222800Y-17262300D01*
X102222800Y-17262300D02*
X101331300Y-18153800D01*
X101331300Y-18153800D02*
X101331300Y-27817700D01*
X87548800Y-34057600D02*
X87548800Y-38581200D01*
X87548800Y-38581200D02*
X78974400Y-47155600D01*
%TO.N,Net-(D27-Pad1)*%
X226864400Y-85357200D02*
X235211300Y-77010300D01*
X235211300Y-77010300D02*
X235211300Y-67294900D01*
X235211300Y-67294900D02*
X231835000Y-63918600D01*
X231835000Y-63918600D02*
X231835000Y-55677300D01*
X231835000Y-54102000D02*
X231835000Y-55677300D01*
%TO.N,Net-(D28-Pad1)*%
X132948000Y-44104400D02*
X134533600Y-44104400D01*
X134533600Y-44104400D02*
X138945800Y-39692200D01*
X138945800Y-39692200D02*
X149776900Y-39692200D01*
X149776900Y-39692200D02*
X150133500Y-40048800D01*
X150133500Y-40048800D02*
X155717500Y-40048800D01*
X155717500Y-40048800D02*
X160848400Y-34917900D01*
X160848400Y-34917900D02*
X162311200Y-34917900D01*
X162311200Y-34917900D02*
X165422700Y-31806400D01*
X165422700Y-31806400D02*
X166085400Y-31806400D01*
X299674000Y-16129000D02*
X287151700Y-16129000D01*
X287151700Y-16129000D02*
X285323200Y-14300500D01*
X285323200Y-14300500D02*
X278739900Y-14300500D01*
X278739900Y-14300500D02*
X277332900Y-15707500D01*
X277332900Y-15707500D02*
X268621600Y-15707500D01*
X268621600Y-15707500D02*
X263294900Y-21034200D01*
X263294900Y-21034200D02*
X248026000Y-21034200D01*
X248026000Y-21034200D02*
X243734000Y-25326200D01*
X243734000Y-25326200D02*
X243734000Y-27777000D01*
X243734000Y-27777000D02*
X239313300Y-32197700D01*
X239313300Y-32197700D02*
X239313300Y-34104300D01*
X239313300Y-34104300D02*
X238740700Y-34676900D01*
X238740700Y-34676900D02*
X232157400Y-34676900D01*
X232157400Y-34676900D02*
X230149800Y-32669300D01*
%TO.N,Net-(D29-Pad1)*%
X313800800Y-79021500D02*
X313800800Y-89130500D01*
X313800800Y-89130500D02*
X322475900Y-97805600D01*
X123377000Y-73279000D02*
X123377000Y-75101400D01*
X123377000Y-75101400D02*
X127716200Y-79440600D01*
%TO.N,Net-(D30-Pad1)*%
X113471000Y-92329000D02*
X115071300Y-92329000D01*
X115071300Y-92329000D02*
X115071300Y-90953800D01*
X115071300Y-90953800D02*
X117683200Y-88341900D01*
%TO.N,Net-(D31-Pad1)*%
X164290200Y-21088600D02*
X159330600Y-16129000D01*
X159330600Y-16129000D02*
X154362200Y-16129000D01*
X154362200Y-16129000D02*
X152488700Y-14255500D01*
X152488700Y-14255500D02*
X150126400Y-14255500D01*
X150126400Y-14255500D02*
X148726300Y-15655600D01*
X148726300Y-15655600D02*
X148726300Y-16129000D01*
X248763700Y-60061000D02*
X248763700Y-63987600D01*
X248763700Y-63987600D02*
X253342900Y-68566800D01*
X253342900Y-68566800D02*
X253342900Y-81722200D01*
X253342900Y-81722200D02*
X255841800Y-84221100D01*
X176533500Y-21088600D02*
X182229800Y-26784900D01*
X182229800Y-26784900D02*
X182229800Y-32287400D01*
X147126000Y-16129000D02*
X148726300Y-16129000D01*
X207452600Y-39101900D02*
X210505100Y-42154400D01*
X210505100Y-42154400D02*
X218400500Y-42154400D01*
X218400500Y-42154400D02*
X223394600Y-47148500D01*
X223394600Y-47148500D02*
X227349900Y-47148500D01*
X227349900Y-47148500D02*
X229765500Y-49564100D01*
X229765500Y-49564100D02*
X229765500Y-56394500D01*
%TO.N,Net-(D32-Pad1)*%
X262657300Y-83133800D02*
X254396000Y-74872500D01*
X254396000Y-74872500D02*
X254396000Y-68326500D01*
X254396000Y-68326500D02*
X254116500Y-68047000D01*
X254116500Y-68047000D02*
X254116500Y-61206000D01*
X254116500Y-61206000D02*
X250885000Y-57974500D01*
X250885000Y-57974500D02*
X250885000Y-55677300D01*
X250885000Y-54102000D02*
X250885000Y-55677300D01*
%TO.N,Net-(D33-Pad1)*%
X145608200Y-45186900D02*
X149372000Y-41423100D01*
X149372000Y-41423100D02*
X157361200Y-41423100D01*
X157361200Y-41423100D02*
X158082100Y-40702200D01*
X280476000Y-17704300D02*
X276085100Y-22095200D01*
X276085100Y-22095200D02*
X247639100Y-22095200D01*
X247639100Y-22095200D02*
X246159700Y-23574600D01*
X246159700Y-23574600D02*
X246159700Y-27105600D01*
X246159700Y-27105600D02*
X239763700Y-33501600D01*
X239763700Y-33501600D02*
X239763700Y-34290800D01*
X239763700Y-34290800D02*
X238703700Y-35350800D01*
X238703700Y-35350800D02*
X229883100Y-35350800D01*
X229883100Y-35350800D02*
X225395900Y-39838000D01*
X280476000Y-16129000D02*
X280476000Y-17704300D01*
%TO.N,Net-(D34-Pad1)*%
X107425700Y-35133900D02*
X98344800Y-35133900D01*
X98344800Y-35133900D02*
X96497400Y-33286500D01*
X96497400Y-33286500D02*
X87294200Y-33286500D01*
X87294200Y-33286500D02*
X85079300Y-35501400D01*
X85079300Y-35501400D02*
X84066100Y-35501400D01*
X84066100Y-35501400D02*
X74099200Y-45468300D01*
X109026000Y-35133900D02*
X107425700Y-35133900D01*
%TO.N,Net-(D35-Pad1)*%
X244962100Y-83808100D02*
X244032000Y-84738200D01*
X244032000Y-84738200D02*
X243474300Y-84738200D01*
X243474300Y-84738200D02*
X238634200Y-79898100D01*
X238634200Y-79898100D02*
X238634200Y-78486200D01*
X118297000Y-54102000D02*
X118297000Y-55839600D01*
X118297000Y-55839600D02*
X130733700Y-68276300D01*
X130733700Y-68276300D02*
X138715400Y-68276300D01*
X138715400Y-68276300D02*
X140162800Y-69723700D01*
%TO.N,Net-(D36-Pad1)*%
X126475700Y-35133900D02*
X126475700Y-35315900D01*
X126475700Y-35315900D02*
X111620800Y-50170800D01*
X111620800Y-50170800D02*
X111620800Y-54107900D01*
X111620800Y-54107900D02*
X116271600Y-58758700D01*
X116271600Y-58758700D02*
X116271600Y-71821200D01*
X116271600Y-71821200D02*
X119304800Y-74854400D01*
X119304800Y-74854400D02*
X122036700Y-74854400D01*
X122036700Y-74854400D02*
X129825100Y-82642800D01*
X129825100Y-82642800D02*
X134697000Y-82642800D01*
X128076000Y-35133900D02*
X126475700Y-35133900D01*
%TO.N,Net-(D37-Pad1)*%
X137220000Y-54102000D02*
X137220000Y-55833200D01*
X137220000Y-55833200D02*
X141574500Y-60187700D01*
X141574500Y-60187700D02*
X142275300Y-60187700D01*
X142275300Y-60187700D02*
X146541600Y-64454000D01*
X146541600Y-64454000D02*
X146541600Y-67990000D01*
X335600400Y-103034800D02*
X335600400Y-95968400D01*
X335600400Y-95968400D02*
X321113200Y-81481200D01*
X321113200Y-81481200D02*
X316725900Y-81481200D01*
X316725900Y-81481200D02*
X315568100Y-80323400D01*
X315568100Y-80323400D02*
X315568100Y-78433700D01*
X315568100Y-78433700D02*
X314792700Y-77658300D01*
%TO.N,Net-(D38-Pad1)*%
X280419200Y-72105200D02*
X280725800Y-72105200D01*
X280725800Y-72105200D02*
X294605600Y-85985000D01*
X294605600Y-85985000D02*
X296552700Y-85985000D01*
X296552700Y-85985000D02*
X299139500Y-88571800D01*
X299139500Y-88571800D02*
X299139500Y-94126300D01*
X299139500Y-94126300D02*
X309469300Y-104456100D01*
X143773300Y-73279000D02*
X143773300Y-72753000D01*
X143773300Y-72753000D02*
X149138700Y-67387600D01*
X149138700Y-67387600D02*
X149259100Y-67387600D01*
X142173000Y-73279000D02*
X143773300Y-73279000D01*
%TO.N,Net-(D39-Pad1)*%
X80895600Y-50159500D02*
X81170600Y-49884500D01*
X81170600Y-49884500D02*
X86766300Y-49884500D01*
X86766300Y-49884500D02*
X87306000Y-50424200D01*
X87306000Y-50424200D02*
X87306000Y-50663000D01*
X87306000Y-50663000D02*
X87306100Y-50663000D01*
X87306100Y-50663000D02*
X88072900Y-51429800D01*
X88072900Y-51429800D02*
X88072900Y-51678400D01*
X88072900Y-51678400D02*
X89915700Y-53521200D01*
X89915700Y-53521200D02*
X92336100Y-53521200D01*
X92336100Y-53521200D02*
X109932800Y-71117900D01*
X109932800Y-71117900D02*
X109932800Y-74447200D01*
X109932800Y-74447200D02*
X109561800Y-74818200D01*
X109561800Y-74818200D02*
X109561800Y-77200900D01*
X109561800Y-77200900D02*
X121328700Y-88967800D01*
X121328700Y-88967800D02*
X121328700Y-90141600D01*
X121328700Y-90141600D02*
X123244800Y-92057700D01*
X123244800Y-92057700D02*
X130522400Y-92057700D01*
X130522400Y-92057700D02*
X130793700Y-92329000D01*
X132394000Y-92329000D02*
X130793700Y-92329000D01*
%TO.N,Net-(D40-Pad1)*%
X164575700Y-16129000D02*
X164125400Y-15678700D01*
X164125400Y-15678700D02*
X154548800Y-15678700D01*
X154548800Y-15678700D02*
X152675300Y-13805200D01*
X152675300Y-13805200D02*
X145885200Y-13805200D01*
X145885200Y-13805200D02*
X144242900Y-15447500D01*
X144242900Y-15447500D02*
X133803200Y-15447500D01*
X133803200Y-15447500D02*
X132614300Y-14258600D01*
X132614300Y-14258600D02*
X126381800Y-14258600D01*
X126381800Y-14258600D02*
X125217000Y-15423400D01*
X125217000Y-15423400D02*
X117930400Y-15423400D01*
X117930400Y-15423400D02*
X113327600Y-10820600D01*
X113327600Y-10820600D02*
X72138200Y-10820600D01*
X72138200Y-10820600D02*
X67511100Y-15447700D01*
X67511100Y-15447700D02*
X60787500Y-15447700D01*
X60787500Y-15447700D02*
X57328100Y-11988300D01*
X57328100Y-11988300D02*
X45244600Y-11988300D01*
X45244600Y-11988300D02*
X45072800Y-12160100D01*
X45072800Y-12160100D02*
X45072800Y-14631300D01*
X45072800Y-14631300D02*
X44289800Y-15414300D01*
X44289800Y-15414300D02*
X44289800Y-21989800D01*
X44289800Y-21989800D02*
X42167500Y-24112100D01*
X42167500Y-24112100D02*
X40814200Y-24112100D01*
X40814200Y-24112100D02*
X31177100Y-33749200D01*
X31177100Y-33749200D02*
X31177100Y-36753200D01*
X31177100Y-36753200D02*
X36733800Y-42309900D01*
X36733800Y-42309900D02*
X36733800Y-52166200D01*
X36733800Y-52166200D02*
X36114400Y-52785600D01*
X36114400Y-52785600D02*
X36114400Y-55620000D01*
X36114400Y-55620000D02*
X47815900Y-67321500D01*
X47815900Y-67321500D02*
X57913000Y-67321500D01*
X57913000Y-67321500D02*
X63622200Y-73030700D01*
X63622200Y-73030700D02*
X63622200Y-73705800D01*
X63622200Y-73705800D02*
X76015500Y-86099100D01*
X76015500Y-86099100D02*
X97165000Y-86099100D01*
X97165000Y-86099100D02*
X98490700Y-87424800D01*
X98490700Y-87424800D02*
X106347700Y-87424800D01*
X106347700Y-87424800D02*
X106524100Y-87601200D01*
X106524100Y-87601200D02*
X112594900Y-87601200D01*
X112594900Y-87601200D02*
X113604000Y-86592100D01*
X166176000Y-16129000D02*
X164575700Y-16129000D01*
%TO.N,Net-(D41-Pad1)*%
X282772000Y-92446000D02*
X278578100Y-92446000D01*
X278578100Y-92446000D02*
X278366200Y-92234100D01*
%TO.N,Net-(D42-Pad1)*%
X171215300Y-45482900D02*
X178151400Y-45482900D01*
X178151400Y-45482900D02*
X186829200Y-36805100D01*
X186829200Y-36805100D02*
X186829200Y-34609000D01*
X186829200Y-34609000D02*
X203733900Y-17704300D01*
X203733900Y-17704300D02*
X204276000Y-17704300D01*
X204276000Y-16129000D02*
X204276000Y-17704300D01*
%TO.N,Net-(D43-Pad1)*%
X131301500Y-84030700D02*
X131583500Y-84312700D01*
X131583500Y-84312700D02*
X151764600Y-84312700D01*
X151764600Y-84312700D02*
X161223000Y-74854300D01*
X161223000Y-73279000D02*
X161223000Y-74854300D01*
%TO.N,Net-(D44-Pad1)*%
X121522000Y-83196400D02*
X125717800Y-87392200D01*
X125717800Y-87392200D02*
X125717800Y-91256100D01*
X125717800Y-91256100D02*
X125826100Y-91364400D01*
X125826100Y-91364400D02*
X129857500Y-91364400D01*
X129857500Y-91364400D02*
X130718300Y-90503600D01*
X130718300Y-90503600D02*
X138553300Y-90503600D01*
X138553300Y-90503600D02*
X140378700Y-92329000D01*
X140378700Y-92329000D02*
X151317000Y-92329000D01*
%TO.N,Net-(D45-Pad1)*%
X185226000Y-16129000D02*
X185226000Y-17704300D01*
X185226000Y-17704300D02*
X185226000Y-31053300D01*
X185226000Y-31053300D02*
X180753200Y-35526100D01*
X180753200Y-35526100D02*
X179286800Y-35526100D01*
X179286800Y-35526100D02*
X167671000Y-47141900D01*
X167671000Y-47141900D02*
X166897400Y-47141900D01*
X166897400Y-47141900D02*
X163929200Y-50110100D01*
X163929200Y-50110100D02*
X163929200Y-52507600D01*
X163929200Y-52507600D02*
X166627100Y-55205500D01*
X166627100Y-55205500D02*
X166627100Y-61475500D01*
X166627100Y-61475500D02*
X166038700Y-62063900D01*
X166038700Y-62063900D02*
X166038700Y-71349300D01*
X166038700Y-71349300D02*
X166815400Y-72126000D01*
X166815400Y-72126000D02*
X166815400Y-74460600D01*
X166815400Y-74460600D02*
X166407800Y-74868200D01*
X166407800Y-74868200D02*
X166407800Y-83796600D01*
X166407800Y-83796600D02*
X166540300Y-83929100D01*
%TO.N,Net-(D46-Pad1)*%
X246694000Y-92329000D02*
X246694000Y-90753700D01*
X246694000Y-90753700D02*
X248165400Y-89282300D01*
X248165400Y-89282300D02*
X248165400Y-73296800D01*
X248165400Y-73296800D02*
X249387700Y-72074500D01*
X249387700Y-72074500D02*
X249387700Y-67896100D01*
X249387700Y-67896100D02*
X246824400Y-65332800D01*
X246824400Y-65332800D02*
X246824400Y-60024700D01*
%TO.N,Net-(D47-Pad1)*%
X177855200Y-44738000D02*
X181402800Y-41190400D01*
X181402800Y-41190400D02*
X181402800Y-35966100D01*
X181402800Y-35966100D02*
X184078300Y-33290600D01*
X184078300Y-33290600D02*
X185618200Y-33290600D01*
X185618200Y-33290600D02*
X202337000Y-16571800D01*
X202337000Y-16571800D02*
X202337000Y-16462500D01*
X361578000Y-16129000D02*
X349605200Y-16129000D01*
X349605200Y-16129000D02*
X345958300Y-12482100D01*
%TO.N,Net-(D48-Pad1)*%
X147126000Y-35133900D02*
X145525700Y-35133900D01*
X145525700Y-35133900D02*
X145212800Y-34821000D01*
X145212800Y-34821000D02*
X136350600Y-34821000D01*
X136350600Y-34821000D02*
X134334800Y-32805200D01*
X134334800Y-32805200D02*
X126281100Y-32805200D01*
X126281100Y-32805200D02*
X123197500Y-35888800D01*
X123197500Y-35888800D02*
X121771000Y-35888800D01*
X121771000Y-35888800D02*
X105278500Y-52381300D01*
X105278500Y-52381300D02*
X105278500Y-54971500D01*
X105278500Y-54971500D02*
X104296200Y-55953800D01*
X104296200Y-55953800D02*
X104296200Y-62277900D01*
X104296200Y-62277900D02*
X109320900Y-67302600D01*
X109320900Y-67302600D02*
X109728600Y-67302600D01*
X109728600Y-67302600D02*
X109728600Y-67302700D01*
X100951300Y-68046500D02*
X100727300Y-68270500D01*
X100727300Y-68270500D02*
X100727300Y-78664000D01*
X100727300Y-78664000D02*
X95471700Y-83919600D01*
%TO.N,Net-(D49-Pad1)*%
X85755000Y-79551400D02*
X85755000Y-82901800D01*
X85755000Y-82901800D02*
X88210400Y-85357200D01*
X156143000Y-54102000D02*
X156143000Y-64187000D01*
X156143000Y-64187000D02*
X157623400Y-65667400D01*
X157623400Y-65667400D02*
X157623400Y-74672200D01*
X157623400Y-74672200D02*
X153428500Y-78867100D01*
X153428500Y-78867100D02*
X153180500Y-78867100D01*
%TO.N,Net-(D50-Pad1)*%
X256993800Y-39735800D02*
X260256200Y-42998200D01*
X260256200Y-42998200D02*
X260256200Y-44284700D01*
X260256200Y-44284700D02*
X264174300Y-48202800D01*
X264174300Y-48202800D02*
X264408900Y-48202800D01*
X264408900Y-48202800D02*
X266341000Y-50134900D01*
X266341000Y-50134900D02*
X266341000Y-64341600D01*
X266341000Y-64341600D02*
X265735600Y-64947000D01*
X166176000Y-33558600D02*
X167875200Y-31859400D01*
X167875200Y-31859400D02*
X167875200Y-31806400D01*
X166176000Y-35133900D02*
X166176000Y-33558600D01*
%TO.N,Net-(D51-Pad1)*%
X312859500Y-102496400D02*
X299749100Y-89386000D01*
X299749100Y-89386000D02*
X299749100Y-88544500D01*
X299749100Y-88544500D02*
X296580300Y-85375700D01*
X296580300Y-85375700D02*
X294715500Y-85375700D01*
X294715500Y-85375700D02*
X280719700Y-71379900D01*
X280719700Y-71379900D02*
X279481800Y-71379900D01*
X279481800Y-71379900D02*
X271698000Y-63596100D01*
X175066000Y-54102000D02*
X175066000Y-60546300D01*
X175066000Y-60546300D02*
X178751600Y-64231900D01*
%TO.N,Net-(D52-Pad1)*%
X79782800Y-59463900D02*
X92775500Y-59463900D01*
X92775500Y-59463900D02*
X97790900Y-64479300D01*
X180273000Y-73279000D02*
X180273000Y-69786600D01*
X180273000Y-69786600D02*
X174718300Y-64231900D01*
%TO.N,Net-(D53-Pad1)*%
X214927100Y-91767700D02*
X214927100Y-92586500D01*
X214927100Y-92586500D02*
X211438600Y-96075000D01*
X211438600Y-96075000D02*
X201415700Y-96075000D01*
X201415700Y-96075000D02*
X199828100Y-94487400D01*
X199828100Y-94487400D02*
X199828100Y-93930100D01*
X199828100Y-93930100D02*
X196401600Y-90503600D01*
X196401600Y-90503600D02*
X187096300Y-90503600D01*
X187096300Y-90503600D02*
X185934300Y-91665600D01*
X185934300Y-91665600D02*
X177876700Y-91665600D01*
X177876700Y-91665600D02*
X176664000Y-90452900D01*
X176664000Y-90452900D02*
X170540800Y-90452900D01*
X170540800Y-90452900D02*
X170240000Y-90753700D01*
X170240000Y-92329000D02*
X170240000Y-90753700D01*
%TO.N,Net-(D54-Pad1)*%
X223581700Y-109284100D02*
X222045500Y-107747900D01*
X222045500Y-107747900D02*
X222045500Y-103974900D01*
X222045500Y-103974900D02*
X221465700Y-103395100D01*
X221465700Y-103395100D02*
X221465700Y-101140900D01*
X221465700Y-101140900D02*
X218965700Y-98640900D01*
X218965700Y-98640900D02*
X218965700Y-93751700D01*
X218965700Y-93751700D02*
X215224600Y-90010600D01*
X249498000Y-111496000D02*
X245783000Y-111496000D01*
X245783000Y-111496000D02*
X245565300Y-111713700D01*
X210462900Y-85621100D02*
X210463000Y-85621100D01*
X210463000Y-85621100D02*
X210463000Y-86890200D01*
X210463000Y-86890200D02*
X212401300Y-88828500D01*
%TO.N,Net-(D55-Pad1)*%
X202799500Y-83997100D02*
X203380200Y-84577800D01*
X203380200Y-84577800D02*
X205160600Y-84577800D01*
X205160600Y-84577800D02*
X209950200Y-79788200D01*
X209950200Y-79788200D02*
X209950200Y-76995300D01*
X242376000Y-35133900D02*
X242376000Y-36709200D01*
X242376000Y-36709200D02*
X236484400Y-42600800D01*
X236484400Y-42600800D02*
X236484400Y-52353600D01*
X236484400Y-52353600D02*
X237428700Y-53297900D01*
X237428700Y-53297900D02*
X237428700Y-55282300D01*
X237428700Y-55282300D02*
X236862700Y-55848300D01*
X236862700Y-55848300D02*
X236862700Y-70048800D01*
%TO.N,Net-(D56-Pad1)*%
X202439500Y-22259300D02*
X202027400Y-22671400D01*
X202027400Y-22671400D02*
X201168100Y-22671400D01*
X201168100Y-22671400D02*
X193022900Y-30816600D01*
X193022900Y-30816600D02*
X193022900Y-33588500D01*
X193022900Y-33588500D02*
X195614200Y-36179800D01*
X195614200Y-36179800D02*
X195614200Y-45365300D01*
X195614200Y-45365300D02*
X194150700Y-46828800D01*
X261426000Y-16129000D02*
X249177900Y-16129000D01*
X249177900Y-16129000D02*
X243128000Y-22178900D01*
%TO.N,Net-(D57-Pad1)*%
X199323000Y-71703700D02*
X194720000Y-67100700D01*
X194720000Y-67100700D02*
X194720000Y-56027100D01*
X199323000Y-73279000D02*
X199323000Y-71703700D01*
%TO.N,Net-(D58-Pad1)*%
X338989000Y-111538700D02*
X345213300Y-105314400D01*
X345213300Y-105314400D02*
X348939100Y-105314400D01*
X189290000Y-92329000D02*
X189290000Y-94053800D01*
X189290000Y-94053800D02*
X193471100Y-98234900D01*
X193471100Y-98234900D02*
X216171700Y-98234900D01*
X216171700Y-98234900D02*
X220339900Y-102403100D01*
X220339900Y-102403100D02*
X220339900Y-105720900D01*
X220339900Y-105720900D02*
X220869900Y-106250900D01*
%TO.N,Net-(D59-Pad1)*%
X232191500Y-86707700D02*
X232191500Y-88687000D01*
X232191500Y-88687000D02*
X238078800Y-94574300D01*
X238078800Y-94574300D02*
X238078800Y-101837300D01*
X238078800Y-101837300D02*
X238078900Y-101837300D01*
X238078900Y-101837300D02*
X244167700Y-107926100D01*
X273374000Y-111496000D02*
X257176900Y-111496000D01*
X257176900Y-111496000D02*
X254690300Y-109009400D01*
%TO.N,Net-(D61-Pad1)*%
X323605000Y-14553700D02*
X323351200Y-14299900D01*
X323351200Y-14299900D02*
X321255400Y-14299900D01*
X321255400Y-14299900D02*
X319255300Y-16300000D01*
X319255300Y-16300000D02*
X306277100Y-16300000D01*
X306277100Y-16300000D02*
X300031600Y-22545500D01*
X300031600Y-22545500D02*
X247833600Y-22545500D01*
X247833600Y-22545500D02*
X246610000Y-23769100D01*
X246610000Y-23769100D02*
X246610000Y-27292200D01*
X246610000Y-27292200D02*
X240373300Y-33528900D01*
X240373300Y-33528900D02*
X240373300Y-35003800D01*
X240373300Y-35003800D02*
X231243900Y-44133200D01*
X231243900Y-44133200D02*
X228496400Y-44133200D01*
X323605000Y-16129000D02*
X323605000Y-14553700D01*
%TO.N,Net-(D62-Pad1)*%
X177465500Y-35404400D02*
X177415700Y-35354600D01*
X177415700Y-35354600D02*
X172729300Y-35354600D01*
X172729300Y-35354600D02*
X167409600Y-40674300D01*
X167409600Y-40674300D02*
X167409600Y-45708700D01*
X167409600Y-45708700D02*
X166426800Y-46691500D01*
X166426800Y-46691500D02*
X161499900Y-46691500D01*
X161499900Y-46691500D02*
X160235400Y-45427000D01*
X160235400Y-45427000D02*
X155871300Y-45427000D01*
X155871300Y-45427000D02*
X153969400Y-47328900D01*
X153969400Y-47328900D02*
X153969400Y-64706500D01*
X153969400Y-64706500D02*
X150414200Y-68261700D01*
X150414200Y-68261700D02*
X150414200Y-72183200D01*
X150414200Y-72183200D02*
X152057800Y-73826800D01*
X152057800Y-73826800D02*
X152057800Y-76798200D01*
X152057800Y-76798200D02*
X146570300Y-82285700D01*
X146570300Y-82285700D02*
X143360100Y-82285700D01*
X143360100Y-82285700D02*
X143360100Y-82285800D01*
X143360100Y-82285800D02*
X142451200Y-83194700D01*
X183625700Y-35133900D02*
X183355200Y-35404400D01*
X183355200Y-35404400D02*
X183330800Y-35404400D01*
X185226000Y-35133900D02*
X183625700Y-35133900D01*
%TO.N,Net-(D63-Pad1)*%
X193989000Y-54102000D02*
X193989000Y-67058600D01*
X193989000Y-67058600D02*
X196148000Y-69217600D01*
X196148000Y-69217600D02*
X196148000Y-75155300D01*
X196148000Y-75155300D02*
X204844600Y-83851900D01*
%TO.N,Net-(D64-Pad1)*%
X204276000Y-36709200D02*
X204079000Y-36709200D01*
X204079000Y-36709200D02*
X202700700Y-38087500D01*
X202700700Y-38087500D02*
X202700700Y-39305600D01*
X202700700Y-39305600D02*
X194445600Y-47560700D01*
X194445600Y-47560700D02*
X188600300Y-47560700D01*
X188600300Y-47560700D02*
X188493200Y-47453600D01*
X188493200Y-47453600D02*
X187519100Y-47453600D01*
X187519100Y-47453600D02*
X187465600Y-47507100D01*
X187465600Y-47507100D02*
X182291900Y-47507100D01*
X182291900Y-47507100D02*
X182209000Y-47424200D01*
X182209000Y-47424200D02*
X170791300Y-47424200D01*
X170791300Y-47424200D02*
X168080000Y-50135500D01*
X168080000Y-50135500D02*
X168080000Y-52996800D01*
X168080000Y-52996800D02*
X167597900Y-53478900D01*
X167597900Y-53478900D02*
X167597900Y-60301100D01*
X167597900Y-60301100D02*
X169493400Y-62196600D01*
X169493400Y-62196600D02*
X169493400Y-71915100D01*
X169493400Y-71915100D02*
X171742600Y-74164300D01*
X171742600Y-74164300D02*
X171742600Y-84135800D01*
X204276000Y-35133900D02*
X204276000Y-36709200D01*
%TO.N,Net-(D65-Pad1)*%
X212912000Y-55677300D02*
X211140700Y-57448600D01*
X211140700Y-57448600D02*
X211140700Y-57602600D01*
X148994400Y-83587400D02*
X149514100Y-83587400D01*
X149514100Y-83587400D02*
X159622600Y-73478900D01*
X159622600Y-73478900D02*
X159622600Y-60800400D01*
X159622600Y-60800400D02*
X161317200Y-59105800D01*
X212912000Y-54102000D02*
X212912000Y-55677300D01*
%TO.N,Net-(D66-Pad1)*%
X218373000Y-73279000D02*
X218373000Y-76961000D01*
X218373000Y-76961000D02*
X224494700Y-83082700D01*
X251667400Y-84046800D02*
X251667400Y-87243900D01*
X251667400Y-87243900D02*
X257890600Y-93467100D01*
X257890600Y-93467100D02*
X274722200Y-93467100D01*
X274722200Y-93467100D02*
X288824400Y-107569300D01*
X288824400Y-107569300D02*
X288824400Y-108887200D01*
X288824400Y-108887200D02*
X303911100Y-123973900D01*
X303911100Y-123973900D02*
X343576200Y-123973900D01*
X343576200Y-123973900D02*
X352873200Y-114676900D01*
X352873200Y-114676900D02*
X352873200Y-112708100D01*
X352873200Y-112708100D02*
X354901800Y-110679500D01*
X354901800Y-110679500D02*
X354901800Y-107579500D01*
X354901800Y-107579500D02*
X358560700Y-103920600D01*
X358560700Y-103920600D02*
X362351300Y-103920600D01*
X362351300Y-103920600D02*
X362621500Y-104190800D01*
%TO.N,Net-(D67-Pad1)*%
X206866700Y-92329000D02*
X198863900Y-92329000D01*
X198863900Y-92329000D02*
X196552600Y-90017700D01*
X196552600Y-90017700D02*
X186131700Y-90017700D01*
X186131700Y-90017700D02*
X185977400Y-90172000D01*
X208467000Y-92329000D02*
X206866700Y-92329000D01*
%TO.N,Net-(D68-Pad1)*%
X220790300Y-47236700D02*
X222209000Y-47236700D01*
X222209000Y-47236700D02*
X223692500Y-48720200D01*
X223692500Y-48720200D02*
X227542300Y-48720200D01*
X227542300Y-48720200D02*
X228848000Y-50025900D01*
X228848000Y-50025900D02*
X228848000Y-55649400D01*
X228848000Y-55649400D02*
X228587500Y-55909900D01*
X228587500Y-55909900D02*
X228587500Y-67468300D01*
X228587500Y-67468300D02*
X224557400Y-71498400D01*
X154619000Y-111506000D02*
X154619000Y-109930700D01*
X222641300Y-102908100D02*
X223917400Y-101632000D01*
X223917400Y-101632000D02*
X223917400Y-85569200D01*
X223917400Y-85569200D02*
X216089100Y-77740900D01*
X154619000Y-109930700D02*
X154887900Y-109661800D01*
X154887900Y-109661800D02*
X159743900Y-109661800D01*
X159743900Y-109661800D02*
X161325400Y-111243300D01*
X161325400Y-111243300D02*
X191902600Y-111243300D01*
X191902600Y-111243300D02*
X197409700Y-116750400D01*
%TO.N,Net-(D70-Pad1)*%
X225622000Y-109920700D02*
X223675500Y-107974200D01*
X223675500Y-107974200D02*
X223675500Y-103360900D01*
X223675500Y-103360900D02*
X224399700Y-102636700D01*
X224399700Y-102636700D02*
X224399700Y-84987400D01*
X224399700Y-84987400D02*
X211266600Y-71854300D01*
X211266600Y-71854300D02*
X211266600Y-65635900D01*
X211266600Y-65635900D02*
X210409000Y-64778300D01*
X210409000Y-64778300D02*
X210409000Y-55074400D01*
X210409000Y-55074400D02*
X211201000Y-54282400D01*
X211201000Y-54282400D02*
X211201000Y-52533800D01*
X211201000Y-52533800D02*
X211512900Y-52221900D01*
X211512900Y-52221900D02*
X211512900Y-51675400D01*
X211512900Y-51675400D02*
X211006700Y-51169200D01*
X211006700Y-51169200D02*
X210432300Y-51169200D01*
X210432300Y-51169200D02*
X210002200Y-51599300D01*
X210002200Y-51599300D02*
X210002200Y-53032200D01*
X210002200Y-53032200D02*
X209196700Y-53837700D01*
X209196700Y-53837700D02*
X203059100Y-53837700D01*
X203059100Y-53837700D02*
X201000600Y-51779200D01*
X201000600Y-51779200D02*
X201000600Y-51221900D01*
X225622000Y-111496000D02*
X225622000Y-109920700D01*
%TO.N,Net-(D71-Pad1)*%
X229114500Y-84957500D02*
X235661600Y-78410400D01*
X235661600Y-78410400D02*
X235661600Y-64698500D01*
X235661600Y-64698500D02*
X233086700Y-62123600D01*
X233086700Y-62123600D02*
X233086700Y-55882800D01*
X233086700Y-55882800D02*
X233438200Y-55531300D01*
X233438200Y-55531300D02*
X233438200Y-50275000D01*
X233438200Y-50275000D02*
X223326000Y-40162800D01*
X223326000Y-40162800D02*
X223326000Y-36709200D01*
X223326000Y-35133900D02*
X223326000Y-36709200D01*
%TO.N,Net-(D72-Pad1)*%
X316498500Y-55583300D02*
X316846500Y-55583300D01*
X316846500Y-55583300D02*
X321799100Y-50630700D01*
X342655000Y-73279000D02*
X342655000Y-71195700D01*
X342655000Y-71195700D02*
X338856000Y-67396700D01*
X338856000Y-67396700D02*
X338856000Y-58358600D01*
X338856000Y-58358600D02*
X339112500Y-58102100D01*
%TO.N,Net-(Backspace1-Pad2)*%
X237212400Y-47182900D02*
X239118700Y-45276600D01*
X239118700Y-45276600D02*
X239118700Y-44433500D01*
X239118700Y-44433500D02*
X239756000Y-43796200D01*
X239756000Y-43796200D02*
X240397200Y-43796200D01*
X240397200Y-43796200D02*
X249460300Y-34733100D01*
X249460300Y-34733100D02*
X249460300Y-32995800D01*
X249460300Y-32995800D02*
X253248000Y-29208100D01*
X253248000Y-29208100D02*
X275648500Y-29208100D01*
X275648500Y-29208100D02*
X281736400Y-35296000D01*
X281736400Y-35296000D02*
X290043000Y-35296000D01*
%TO.N,Net-(D73-Pad1)*%
X159866100Y-78956300D02*
X155468500Y-83353900D01*
X155468500Y-83353900D02*
X155468500Y-83892400D01*
X289872800Y-78859200D02*
X289472800Y-78859200D01*
X289472800Y-78859200D02*
X281092900Y-70479300D01*
X281092900Y-70479300D02*
X280501600Y-70479300D01*
X280501600Y-70479300D02*
X268794300Y-58772000D01*
X268794300Y-58772000D02*
X268794300Y-55369700D01*
X268794300Y-55369700D02*
X270062000Y-54102000D01*
%TO.N,Net-(D74-Pad1)*%
X314309300Y-63509500D02*
X314309300Y-59229600D01*
X314309300Y-59229600D02*
X324644800Y-48894100D01*
X324644800Y-48894100D02*
X338993100Y-48894100D01*
X338993100Y-48894100D02*
X341054700Y-50955700D01*
X341054700Y-50955700D02*
X341054700Y-55632000D01*
X341054700Y-55632000D02*
X349608900Y-64186200D01*
X349608900Y-64186200D02*
X354060500Y-64186200D01*
X354060500Y-64186200D02*
X361578000Y-71703700D01*
X269519700Y-55952800D02*
X269519700Y-58777800D01*
X269519700Y-58777800D02*
X275469600Y-64727700D01*
X275469600Y-64727700D02*
X275775900Y-64727700D01*
X361578000Y-73279000D02*
X361578000Y-71703700D01*
%TO.N,Net-(CAPS1-Pad2)*%
X58449200Y-68918700D02*
X58449200Y-69212100D01*
X58449200Y-69212100D02*
X55106900Y-72554400D01*
X55106900Y-72554400D02*
X47682700Y-72554400D01*
X47682700Y-72554400D02*
X46498100Y-71369800D01*
X46498100Y-71369800D02*
X40421100Y-71369800D01*
X40421100Y-71369800D02*
X40097200Y-71693700D01*
X40097200Y-73269000D02*
X40097200Y-71693700D01*
%TO.N,Net-(D75-Pad1)*%
X237423000Y-73279000D02*
X237423000Y-74854300D01*
X237423000Y-74854300D02*
X236845100Y-75432200D01*
X236845100Y-75432200D02*
X236845100Y-78252800D01*
X236845100Y-78252800D02*
X228894700Y-86203200D01*
X228894700Y-86203200D02*
X228771900Y-86203200D01*
X228771900Y-86203200D02*
X228393200Y-86581900D01*
X228393200Y-86581900D02*
X228393200Y-88475600D01*
X228393200Y-88475600D02*
X229120200Y-89202600D01*
X229120200Y-89202600D02*
X229120200Y-93758300D01*
X229120200Y-93758300D02*
X228054600Y-94823900D01*
X228054600Y-94823900D02*
X228054600Y-97592800D01*
%TO.N,Net-(D76-Pad1)*%
X256473000Y-71703700D02*
X260775100Y-67401600D01*
X260775100Y-67401600D02*
X260775100Y-55642300D01*
X260775100Y-55642300D02*
X258709200Y-53576400D01*
X258709200Y-53576400D02*
X258709200Y-47258500D01*
X256473000Y-73279000D02*
X256473000Y-71703700D01*
%TO.N,Net-(D77-Pad1)*%
X136134800Y-83580400D02*
X139564000Y-80151200D01*
X139564000Y-80151200D02*
X139564000Y-72226400D01*
X139564000Y-72226400D02*
X143532000Y-68258400D01*
X287660000Y-73269000D02*
X284530400Y-73269000D01*
X284530400Y-73269000D02*
X280164400Y-68903000D01*
%TO.N,Net-(D78-Pad1)*%
X156226200Y-46176700D02*
X159446700Y-46176700D01*
X159446700Y-46176700D02*
X163239000Y-49969000D01*
X163239000Y-49969000D02*
X163239000Y-52838700D01*
X163239000Y-52838700D02*
X166022400Y-55622100D01*
X166022400Y-55622100D02*
X166022400Y-60976300D01*
X166022400Y-60976300D02*
X165893800Y-61104900D01*
X294805000Y-55667300D02*
X294805000Y-57462100D01*
X294805000Y-57462100D02*
X292101200Y-60165900D01*
X294805000Y-54092000D02*
X294805000Y-55667300D01*
%TO.N,Net-(D79-Pad1)*%
X323605000Y-73279000D02*
X321322800Y-73279000D01*
X321322800Y-73279000D02*
X319875600Y-71831800D01*
X239949400Y-46219100D02*
X239949400Y-52910900D01*
X239949400Y-52910900D02*
X242808100Y-55769600D01*
X242808100Y-55769600D02*
X242808100Y-66731200D01*
X242808100Y-66731200D02*
X242882000Y-66805100D01*
%TO.N,Net-(D80-Pad1)*%
X297180000Y-111496000D02*
X297180000Y-105411000D01*
X297180000Y-105411000D02*
X290742200Y-98973200D01*
%TO.N,Net-(D81-Pad1)*%
X313821100Y-55143100D02*
X315333500Y-53630700D01*
X315333500Y-53630700D02*
X316810800Y-53630700D01*
X316810800Y-53630700D02*
X322039800Y-48401700D01*
X322039800Y-48401700D02*
X339139300Y-48401700D01*
X339139300Y-48401700D02*
X342655000Y-51917400D01*
X342655000Y-51917400D02*
X342655000Y-52653700D01*
X342655000Y-54229000D02*
X342655000Y-52653700D01*
%TO.N,Net-(D82-Pad1)*%
X141647600Y-49978700D02*
X141647600Y-50229500D01*
X141647600Y-50229500D02*
X150255600Y-58837500D01*
X150255600Y-58837500D02*
X150255600Y-64131700D01*
X323605000Y-54229000D02*
X323605000Y-56113800D01*
X323605000Y-56113800D02*
X315470200Y-64248600D01*
%TO.N,Net-(D83-Pad1)*%
X341054700Y-35306000D02*
X340926100Y-35177400D01*
X340926100Y-35177400D02*
X337201400Y-35177400D01*
X337201400Y-35177400D02*
X334933000Y-37445800D01*
X334933000Y-37445800D02*
X334933000Y-39353300D01*
X334933000Y-39353300D02*
X327460800Y-46825500D01*
X327460800Y-46825500D02*
X327460800Y-46825600D01*
X327460800Y-46825600D02*
X321705200Y-46825600D01*
X321705200Y-46825600D02*
X316513200Y-52017600D01*
X316513200Y-52017600D02*
X315067200Y-52017600D01*
X315067200Y-52017600D02*
X313416500Y-50366900D01*
X313416500Y-50366900D02*
X313416500Y-45431800D01*
X313416500Y-45431800D02*
X310375700Y-42391000D01*
X310375700Y-42391000D02*
X310375700Y-34476000D01*
X310375700Y-34476000D02*
X310607900Y-34243800D01*
X129971100Y-45391000D02*
X135007900Y-40354200D01*
X135007900Y-40354200D02*
X136284100Y-40354200D01*
X136284100Y-40354200D02*
X140539900Y-36098400D01*
X342655000Y-35306000D02*
X341054700Y-35306000D01*
%TO.N,Net-(D84-Pad1)*%
X260752900Y-41666200D02*
X260752900Y-42638700D01*
X260752900Y-42638700D02*
X267893700Y-49779500D01*
X267893700Y-49779500D02*
X267893700Y-60817500D01*
X267893700Y-60817500D02*
X280675100Y-73598900D01*
X280675100Y-73598900D02*
X281090600Y-73598900D01*
X128051600Y-47390500D02*
X149576500Y-47390500D01*
X149576500Y-47390500D02*
X154809000Y-42158000D01*
X154809000Y-42158000D02*
X156759200Y-42158000D01*
X342655000Y-90753700D02*
X329592000Y-77690700D01*
X329592000Y-77690700D02*
X319994400Y-77690700D01*
X319994400Y-77690700D02*
X316042900Y-73739200D01*
X342655000Y-92329000D02*
X342655000Y-90753700D01*
%TO.N,LED_GND*%
X327628200Y-29476600D02*
X327926500Y-29178300D01*
X327926500Y-29178300D02*
X327926500Y-22633100D01*
X327926500Y-22633100D02*
X324190500Y-18897100D01*
X324190500Y-18897100D02*
X322052200Y-18897100D01*
X322052200Y-18897100D02*
X320839100Y-20110200D01*
X320839100Y-20110200D02*
X320078800Y-20870500D01*
X320602100Y-22017500D02*
X320078800Y-21494200D01*
X320078800Y-21494200D02*
X320078800Y-20870500D01*
X324038600Y-25713900D02*
X324038600Y-25454000D01*
X324038600Y-25454000D02*
X320602100Y-22017500D01*
X315912300Y-121666000D02*
X319112700Y-118465600D01*
X319112700Y-118465600D02*
X319112700Y-101736900D01*
X319112700Y-101736900D02*
X319870700Y-101736900D01*
X319870700Y-101736900D02*
X321794600Y-99813000D01*
X257954600Y-43607700D02*
X259448000Y-45101100D01*
X259448000Y-45101100D02*
X259448000Y-47831300D01*
X259448000Y-47831300D02*
X259159600Y-48119700D01*
X259159600Y-48119700D02*
X259159600Y-52748500D01*
X259159600Y-52748500D02*
X262348700Y-55937600D01*
X262348700Y-55937600D02*
X262348700Y-60635400D01*
X262348700Y-60635400D02*
X262556700Y-60843400D01*
X102841500Y-105861200D02*
X102841500Y-102663500D01*
X102841500Y-102663500D02*
X104888200Y-100616800D01*
X262556700Y-60843400D02*
X262556700Y-73969300D01*
X262556700Y-73969300D02*
X261402200Y-75123800D01*
X261402200Y-75123800D02*
X261402200Y-80167700D01*
X324798900Y-26474200D02*
X324038600Y-25713900D01*
X314111200Y-26536600D02*
X312664100Y-26536600D01*
X312664100Y-26536600D02*
X312407100Y-26279500D01*
X311646700Y-27039900D02*
X312407100Y-26279500D01*
X313343800Y-21807300D02*
X313858000Y-22321500D01*
X313858000Y-22321500D02*
X313858000Y-23331000D01*
X89233000Y-23284200D02*
X89233000Y-24106300D01*
X89233000Y-24106300D02*
X86004800Y-27334500D01*
X315087000Y-121666000D02*
X315912300Y-121666000D01*
X316172200Y-31565400D02*
X315411800Y-32325800D01*
X311646700Y-27039900D02*
X311162400Y-27524200D01*
X311162400Y-27524200D02*
X311162400Y-28076400D01*
X311162400Y-28076400D02*
X315411800Y-32325800D01*
%TO.N,LED_5V*%
X302878000Y-118772700D02*
X301442400Y-118772700D01*
X301442400Y-118772700D02*
X295579600Y-112909900D01*
X295579600Y-112909900D02*
X295579600Y-108194400D01*
X295579600Y-108194400D02*
X288449400Y-101064200D01*
X315087000Y-114046000D02*
X314249500Y-113208500D01*
X314249500Y-113208500D02*
X313411400Y-113208500D01*
X313411400Y-113208500D02*
X307847200Y-118772700D01*
X307847200Y-118772700D02*
X302878000Y-118772700D01*
X302878000Y-118772700D02*
X302878000Y-119915200D01*
X300928900Y-40996200D02*
X300928900Y-36987500D01*
X300928900Y-36987500D02*
X291691300Y-27749900D01*
X291691300Y-27749900D02*
X291691300Y-24694800D01*
X286123100Y-24821700D02*
X291564400Y-24821700D01*
X291564400Y-24821700D02*
X291691300Y-24694800D01*
%TO.N,ROW5*%
X103826000Y-15164300D02*
X114854600Y-26192900D01*
X114854600Y-26192900D02*
X129892000Y-26192900D01*
X129892000Y-26192900D02*
X131193200Y-27494100D01*
X264735000Y-53137300D02*
X264735000Y-64972100D01*
X264735000Y-64972100D02*
X268926600Y-69163700D01*
X268926600Y-69163700D02*
X270323000Y-69163700D01*
X275276000Y-34423200D02*
X283493000Y-42640200D01*
X283493000Y-42640200D02*
X300310700Y-42640200D01*
X300310700Y-42640200D02*
X303893000Y-39057900D01*
X303893000Y-39057900D02*
X303893000Y-34331300D01*
X256226000Y-32593900D02*
X256226000Y-31018600D01*
X103826000Y-13589000D02*
X103826000Y-15164300D01*
X256226000Y-31018600D02*
X255415700Y-31018600D01*
X255415700Y-31018600D02*
X254556400Y-30159300D01*
X256226000Y-32624800D02*
X256226000Y-32593900D01*
X256226000Y-32624800D02*
X256226000Y-34169200D01*
X335584000Y-104128500D02*
X339995000Y-99717500D01*
X339995000Y-99717500D02*
X339995000Y-93904300D01*
X337455000Y-107390700D02*
X335583900Y-105519600D01*
X335583900Y-105519600D02*
X335583900Y-104128600D01*
X335583900Y-104128600D02*
X335584000Y-104128500D01*
X316519800Y-90682200D02*
X325622800Y-99785200D01*
X325622800Y-99785200D02*
X333029200Y-99785200D01*
X333029200Y-99785200D02*
X334074000Y-100830000D01*
X334074000Y-100830000D02*
X334074000Y-102618600D01*
X334074000Y-102618600D02*
X335584000Y-104128500D01*
X339995000Y-93904300D02*
X344144100Y-93904300D01*
X344144100Y-93904300D02*
X344258200Y-93790200D01*
X344258200Y-93790200D02*
X344258200Y-90497600D01*
X337455000Y-91364300D02*
X339995000Y-93904300D01*
X296622000Y-88330700D02*
X296917800Y-88034900D01*
X270323000Y-79470600D02*
X282775600Y-79470600D01*
X282775600Y-79470600D02*
X291248500Y-87943500D01*
X291248500Y-87943500D02*
X296234800Y-87943500D01*
X296234800Y-87943500D02*
X296622000Y-88330700D01*
X337455000Y-108966000D02*
X337455000Y-107390700D01*
X256818100Y-42028800D02*
X256243100Y-42028800D01*
X256243100Y-42028800D02*
X247285300Y-50986600D01*
X247285300Y-50986600D02*
X247285300Y-51562000D01*
X264735000Y-51562000D02*
X264735000Y-49400400D01*
X264735000Y-49400400D02*
X259083600Y-43749000D01*
X259083600Y-43749000D02*
X259083600Y-43666000D01*
X259083600Y-43666000D02*
X257446400Y-42028800D01*
X257446400Y-42028800D02*
X256818100Y-42028800D01*
X256818100Y-42028800D02*
X256818100Y-40795700D01*
X256818100Y-40795700D02*
X256192400Y-40170000D01*
X256192400Y-40170000D02*
X256192400Y-34202800D01*
X256192400Y-34202800D02*
X256226000Y-34169200D01*
X303893000Y-32756000D02*
X303893000Y-31180700D01*
X303893000Y-31180700D02*
X304821700Y-30252000D01*
X304821700Y-30252000D02*
X304821700Y-29175400D01*
X303893000Y-33543600D02*
X303893000Y-32756000D01*
X313909500Y-29302600D02*
X314669900Y-28542200D01*
X314669900Y-28542200D02*
X314407700Y-28280100D01*
X314407700Y-28280100D02*
X314407700Y-27877800D01*
X241367000Y-88213700D02*
X241367000Y-88104100D01*
X241367000Y-88104100D02*
X243533700Y-85937400D01*
X243533700Y-85937400D02*
X243858600Y-85937400D01*
X243858600Y-85937400D02*
X247312200Y-82483800D01*
X247312200Y-82483800D02*
X247312200Y-73112500D01*
X247312200Y-73112500D02*
X245685000Y-71485300D01*
X245685000Y-71485300D02*
X245685000Y-53137300D01*
X270323000Y-79470600D02*
X261579900Y-88213700D01*
X261579900Y-88213700D02*
X260544000Y-88213700D01*
X270323000Y-70739000D02*
X270323000Y-79470600D01*
X260544000Y-89789000D02*
X260544000Y-88213700D01*
X270323000Y-69951300D02*
X270323000Y-70739000D01*
X245685000Y-51562000D02*
X247285300Y-51562000D01*
X256338400Y-32593900D02*
X256226000Y-32593900D01*
X275276000Y-34423200D02*
X268363400Y-34423200D01*
X268363400Y-34423200D02*
X266534100Y-32593900D01*
X266534100Y-32593900D02*
X257826300Y-32593900D01*
X296622000Y-89906000D02*
X296622000Y-88330700D01*
X256338400Y-32593900D02*
X257826300Y-32593900D01*
X337455000Y-89789000D02*
X337455000Y-91364300D01*
X270323000Y-69951300D02*
X270323000Y-69163700D01*
X337455000Y-53264300D02*
X338387100Y-54196400D01*
X338387100Y-54196400D02*
X338387100Y-67789600D01*
X338387100Y-67789600D02*
X339665300Y-69067800D01*
X339665300Y-69067800D02*
X339665300Y-85904700D01*
X339665300Y-85904700D02*
X344258200Y-90497600D01*
X375428000Y-91364300D02*
X375129700Y-91662600D01*
X375129700Y-91662600D02*
X369006100Y-91662600D01*
X369006100Y-91662600D02*
X364600000Y-96068700D01*
X364600000Y-96068700D02*
X359137200Y-96068700D01*
X359137200Y-96068700D02*
X354691000Y-91622500D01*
X354691000Y-91622500D02*
X350929600Y-91622500D01*
X350929600Y-91622500D02*
X349804700Y-90497600D01*
X349804700Y-90497600D02*
X344258200Y-90497600D01*
X375428000Y-89789000D02*
X375428000Y-91364300D01*
X337455000Y-51689000D02*
X337455000Y-53264300D01*
X303893000Y-33543600D02*
X303893000Y-34331300D01*
X275276000Y-34169200D02*
X275276000Y-34423200D01*
X264735000Y-51562000D02*
X264735000Y-53137300D01*
X245685000Y-51562000D02*
X245685000Y-53137300D01*
X241367000Y-89789000D02*
X241367000Y-88213700D01*
X275276000Y-32593900D02*
X275276000Y-34169200D01*
%TO.N,ROW2*%
X337455000Y-72314300D02*
X337190300Y-72579000D01*
X337190300Y-72579000D02*
X332522000Y-72579000D01*
X332522000Y-72579000D02*
X331395700Y-71452700D01*
X331395700Y-71452700D02*
X321313600Y-71452700D01*
X321313600Y-71452700D02*
X320932600Y-71833700D01*
X288312100Y-57537400D02*
X288312100Y-68294900D01*
X288312100Y-68294900D02*
X290042500Y-70025300D01*
X301547000Y-45238300D02*
X300611200Y-45238300D01*
X300611200Y-45238300D02*
X288312100Y-57537400D01*
X55547500Y-70729000D02*
X55547500Y-70411500D01*
X55547500Y-70411500D02*
X57425400Y-68533600D01*
X352570400Y-42199700D02*
X352570400Y-36873700D01*
X352570400Y-36873700D02*
X348462700Y-32766000D01*
X348462700Y-32766000D02*
X337455000Y-32766000D01*
X375428000Y-34341300D02*
X375092800Y-34341300D01*
X375092800Y-34341300D02*
X373944400Y-35489700D01*
X373944400Y-35489700D02*
X368155900Y-35489700D01*
X368155900Y-35489700D02*
X361445900Y-42199700D01*
X361445900Y-42199700D02*
X352570400Y-42199700D01*
X352570400Y-42199700D02*
X352570400Y-49207500D01*
X352570400Y-49207500D02*
X350482100Y-51295800D01*
X337455000Y-70739000D02*
X337455000Y-69163700D01*
X337054600Y-59514300D02*
X337054600Y-68763300D01*
X337054600Y-68763300D02*
X337455000Y-69163700D01*
X337455000Y-70739000D02*
X337455000Y-72314300D01*
X283912000Y-53137300D02*
X288312100Y-57537400D01*
X315606500Y-30999700D02*
X316366900Y-30239300D01*
X311607600Y-41672100D02*
X311607600Y-38617400D01*
X311607600Y-38617400D02*
X317789800Y-32435200D01*
X317789800Y-32435200D02*
X317789800Y-31652800D01*
X317789800Y-31652800D02*
X316606300Y-30469300D01*
X316606300Y-30469300D02*
X316596800Y-30469300D01*
X316596800Y-30469300D02*
X316366900Y-30239300D01*
X232223000Y-71526600D02*
X233135100Y-70614500D01*
X233135100Y-70614500D02*
X233135100Y-68299500D01*
X232223000Y-71526600D02*
X232223000Y-72314300D01*
X232223000Y-70739000D02*
X232223000Y-71526600D01*
X194123000Y-70739000D02*
X194123000Y-82744300D01*
X194123000Y-82744300D02*
X192151700Y-84715600D01*
X192151700Y-84715600D02*
X185774500Y-84715600D01*
X185774500Y-84715600D02*
X175073000Y-74014100D01*
X175073000Y-74014100D02*
X175073000Y-70739000D01*
X174340300Y-66149400D02*
X175073000Y-66882100D01*
X175073000Y-66882100D02*
X175073000Y-70739000D01*
X194123000Y-69951300D02*
X194123000Y-70739000D01*
X194123000Y-69951300D02*
X194123000Y-69163700D01*
X53947200Y-70729000D02*
X55547500Y-70729000D01*
X194123000Y-69163700D02*
X192379400Y-67420100D01*
X192379400Y-67420100D02*
X192379400Y-52677200D01*
X192379400Y-52677200D02*
X195290200Y-49766400D01*
X195290200Y-49766400D02*
X200623900Y-49766400D01*
X200623900Y-49766400D02*
X201911100Y-51053600D01*
X201911100Y-51053600D02*
X201911100Y-51997500D01*
X201911100Y-51997500D02*
X203301000Y-53387400D01*
X203301000Y-53387400D02*
X209010100Y-53387400D01*
X209010100Y-53387400D02*
X209459400Y-52938100D01*
X209459400Y-52938100D02*
X209459400Y-51486500D01*
X209459400Y-51486500D02*
X210256600Y-50689300D01*
X210256600Y-50689300D02*
X212486600Y-50689300D01*
X212486600Y-50689300D02*
X214518100Y-52720800D01*
X214518100Y-52720800D02*
X214518100Y-55560300D01*
X214518100Y-55560300D02*
X214202400Y-55876000D01*
X214202400Y-55876000D02*
X214202400Y-70739000D01*
X156023000Y-70739000D02*
X156023000Y-66735000D01*
X156023000Y-66735000D02*
X156815800Y-65942200D01*
X375428000Y-32766000D02*
X375428000Y-34341300D01*
X214202400Y-70739000D02*
X222762300Y-70739000D01*
X222762300Y-70739000D02*
X224587700Y-72564400D01*
X224587700Y-72564400D02*
X231972900Y-72564400D01*
X231972900Y-72564400D02*
X232223000Y-72314300D01*
X213173000Y-70739000D02*
X214202400Y-70739000D01*
X118177000Y-69951300D02*
X118177000Y-67022700D01*
X118177000Y-67022700D02*
X117929900Y-66775600D01*
X80077000Y-68868000D02*
X80077000Y-70739000D01*
X79100800Y-67492800D02*
X80077000Y-68469000D01*
X80077000Y-68469000D02*
X80077000Y-68868000D01*
X80077000Y-68868000D02*
X98831300Y-68868000D01*
X98831300Y-68868000D02*
X99127000Y-69163700D01*
X99127000Y-70739000D02*
X99127000Y-69163700D01*
X283912000Y-51562000D02*
X283912000Y-53137300D01*
X118177000Y-69951300D02*
X119231200Y-68897100D01*
X119231200Y-68897100D02*
X136960400Y-68897100D01*
X136960400Y-68897100D02*
X137227000Y-69163700D01*
X118177000Y-70739000D02*
X118177000Y-69951300D01*
X137227000Y-70739000D02*
X137227000Y-69163700D01*
%TO.N,COL0*%
X314936100Y-42599800D02*
X317065100Y-40470800D01*
X317065100Y-40470800D02*
X325214200Y-40470800D01*
X325214200Y-40470800D02*
X329788800Y-35896200D01*
X329788800Y-35896200D02*
X329788800Y-31436200D01*
X275144400Y-63376800D02*
X271307600Y-59540000D01*
X271307600Y-59540000D02*
X271307600Y-55888900D01*
X271307600Y-55888900D02*
X271662400Y-55534100D01*
X271662400Y-55534100D02*
X271662400Y-48749600D01*
X271662400Y-48749600D02*
X271272200Y-48359400D01*
X322536200Y-28736900D02*
X323181400Y-29382100D01*
X323181400Y-29382100D02*
X323181400Y-30544300D01*
X323181400Y-30544300D02*
X323475000Y-30837900D01*
X60504400Y-50745600D02*
X59878300Y-51371700D01*
X59878300Y-51371700D02*
X59878300Y-59058700D01*
X59878300Y-59058700D02*
X60481200Y-59661600D01*
X60481200Y-59661600D02*
X60909800Y-59661600D01*
X60909800Y-59661600D02*
X79356700Y-78108500D01*
X79356700Y-78108500D02*
X79356700Y-84150100D01*
X134601700Y-49583100D02*
X134601700Y-55649400D01*
X134601700Y-55649400D02*
X142908800Y-63956500D01*
%TO.N,COL1*%
X176862000Y-77076900D02*
X177498900Y-77076900D01*
X177498900Y-77076900D02*
X185607300Y-85185300D01*
X185607300Y-85185300D02*
X194552200Y-85185300D01*
X194552200Y-85185300D02*
X194842700Y-84894800D01*
X106824500Y-86875900D02*
X99341900Y-86875900D01*
X99341900Y-86875900D02*
X98114700Y-85648700D01*
X98114700Y-85648700D02*
X92331200Y-85648700D01*
X92331200Y-85648700D02*
X87144600Y-80462100D01*
X87144600Y-80462100D02*
X87144600Y-79903600D01*
X87144600Y-79903600D02*
X81645500Y-74404500D01*
X81645500Y-74404500D02*
X76289600Y-74404500D01*
X76289600Y-74404500D02*
X60642300Y-58757200D01*
X323101900Y-28171200D02*
X323906700Y-28976000D01*
X323906700Y-28976000D02*
X323906700Y-29806700D01*
X315908000Y-43734600D02*
X316132600Y-43959200D01*
X316132600Y-43959200D02*
X329688400Y-43959200D01*
X329688400Y-43959200D02*
X334424400Y-39223200D01*
X334424400Y-39223200D02*
X334424400Y-35464200D01*
X334424400Y-35464200D02*
X334382600Y-35422400D01*
X129938500Y-83920400D02*
X130781100Y-84763000D01*
X130781100Y-84763000D02*
X155634800Y-84763000D01*
X155634800Y-84763000D02*
X157116200Y-83281600D01*
X157116200Y-83281600D02*
X164867100Y-83281600D01*
X164867100Y-83281600D02*
X166447200Y-84861700D01*
X166447200Y-84861700D02*
X172098100Y-84861700D01*
X172098100Y-84861700D02*
X175150300Y-81809500D01*
X175150300Y-81809500D02*
X175150300Y-78788600D01*
X175150300Y-78788600D02*
X176862000Y-77076900D01*
X176862000Y-77076900D02*
X173430300Y-73645200D01*
X173430300Y-73645200D02*
X173430300Y-52503300D01*
X173430300Y-52503300D02*
X173697500Y-52236100D01*
X253840700Y-45515200D02*
X248038400Y-51317500D01*
X248038400Y-51317500D02*
X248038400Y-64369300D01*
X248038400Y-64369300D02*
X252892500Y-69223400D01*
X252892500Y-69223400D02*
X252892500Y-85944400D01*
X252892500Y-85944400D02*
X252554400Y-86282500D01*
X174087300Y-50785400D02*
X174087300Y-51846300D01*
X174087300Y-51846300D02*
X173697500Y-52236100D01*
%TO.N,COL2*%
X221130300Y-107261900D02*
X221595200Y-106797000D01*
X221595200Y-106797000D02*
X221595200Y-104391800D01*
X221595200Y-104391800D02*
X220790200Y-103586800D01*
X220790200Y-103586800D02*
X220790200Y-102142100D01*
X220790200Y-102142100D02*
X216215600Y-97567500D01*
X216215600Y-97567500D02*
X202242300Y-97567500D01*
X202242300Y-97567500D02*
X199218500Y-94543700D01*
X199218500Y-94543700D02*
X199218500Y-93957400D01*
X199218500Y-93957400D02*
X196491100Y-91230000D01*
X196491100Y-91230000D02*
X195482400Y-91230000D01*
X154818800Y-51982500D02*
X154419800Y-52381500D01*
X154419800Y-52381500D02*
X154419800Y-72632700D01*
X154419800Y-72632700D02*
X152913100Y-74139400D01*
X152913100Y-74139400D02*
X152913100Y-76579800D01*
X152913100Y-76579800D02*
X145912900Y-83580000D01*
X145912900Y-83580000D02*
X143793300Y-83580000D01*
X360383000Y-104646000D02*
X360653100Y-104916100D01*
X360653100Y-104916100D02*
X366527200Y-104916100D01*
X366527200Y-104916100D02*
X378396800Y-93046500D01*
X378396800Y-93046500D02*
X378396800Y-84129700D01*
X378396800Y-84129700D02*
X373007500Y-78740400D01*
X373007500Y-78740400D02*
X373007500Y-74659700D01*
X373007500Y-74659700D02*
X368784000Y-70436200D01*
X368784000Y-70436200D02*
X368783900Y-70436200D01*
X368783900Y-70436200D02*
X368783900Y-67892900D01*
X368783900Y-67892900D02*
X354484900Y-53593900D01*
X354484900Y-53593900D02*
X351636000Y-53593900D01*
X351636000Y-53593900D02*
X347198100Y-49156000D01*
X347198100Y-49156000D02*
X347198100Y-47444300D01*
X347198100Y-47444300D02*
X340605000Y-40851200D01*
X340605000Y-40851200D02*
X340605000Y-35947800D01*
X324798900Y-24070000D02*
X325236400Y-24507500D01*
X325236400Y-24507500D02*
X325236400Y-25566300D01*
X90339500Y-46711300D02*
X84714600Y-46711300D01*
X84714600Y-46711300D02*
X82857100Y-44853800D01*
X155966600Y-47373500D02*
X154818800Y-48521300D01*
X154818800Y-48521300D02*
X154818800Y-51982500D01*
%TO.N,COL3*%
X323667600Y-27605600D02*
X324675200Y-28613200D01*
X324675200Y-28613200D02*
X324675200Y-30669300D01*
X324675200Y-30669300D02*
X322674900Y-32669600D01*
X322674900Y-32669600D02*
X322533700Y-32669600D01*
X322533700Y-32669600D02*
X319606600Y-35596700D01*
X319606600Y-35596700D02*
X318452800Y-35596700D01*
X318452800Y-35596700D02*
X315286900Y-38762600D01*
X315286900Y-38762600D02*
X315286900Y-38874500D01*
X97345500Y-45742300D02*
X97323200Y-45764600D01*
X97323200Y-45764600D02*
X97323200Y-57234500D01*
X97323200Y-57234500D02*
X115605600Y-75516900D01*
X115605600Y-75516900D02*
X115605600Y-76171200D01*
X115605600Y-76171200D02*
X121033700Y-81599300D01*
X121033700Y-81599300D02*
X123417800Y-81599300D01*
X123417800Y-81599300D02*
X128837300Y-87018800D01*
X128837300Y-87018800D02*
X163085200Y-87018800D01*
X163085200Y-87018800D02*
X163507600Y-86596400D01*
X256092800Y-41096200D02*
X248661500Y-48527500D01*
X248661500Y-48527500D02*
X245680900Y-48527500D01*
X245680900Y-48527500D02*
X244081800Y-50126600D01*
X244081800Y-50126600D02*
X244081800Y-51996800D01*
X244081800Y-51996800D02*
X243258500Y-52820100D01*
X243258500Y-52820100D02*
X243258500Y-57469400D01*
X243258500Y-57469400D02*
X243607400Y-57818300D01*
X243607400Y-57818300D02*
X243607400Y-73868600D01*
X243607400Y-73868600D02*
X242643700Y-74832300D01*
X242643700Y-74832300D02*
X242643700Y-82854000D01*
X242643700Y-82854000D02*
X243761900Y-83972200D01*
%TO.N,COL4*%
X169689000Y-60269400D02*
X172213400Y-57745000D01*
X172213400Y-57745000D02*
X172213400Y-51594800D01*
X172213400Y-51594800D02*
X173765000Y-50043200D01*
X173765000Y-50043200D02*
X174380400Y-50043200D01*
X174380400Y-50043200D02*
X176714100Y-52376900D01*
X176714100Y-52376900D02*
X176714100Y-55518300D01*
X176714100Y-55518300D02*
X176336700Y-55895700D01*
X176336700Y-55895700D02*
X176336700Y-58651700D01*
X176336700Y-58651700D02*
X181887100Y-64202100D01*
X181887100Y-64202100D02*
X181887100Y-74729300D01*
X181887100Y-74729300D02*
X181541400Y-75075000D01*
X181541400Y-75075000D02*
X181541400Y-79845600D01*
X181541400Y-79845600D02*
X185686000Y-83990200D01*
X185686000Y-83990200D02*
X189734200Y-83990200D01*
X324993700Y-22743900D02*
X325966400Y-23716600D01*
X325966400Y-23716600D02*
X325966400Y-27610300D01*
X325966400Y-27610300D02*
X325726000Y-27850700D01*
X356925000Y-103430000D02*
X364517800Y-103430000D01*
X364517800Y-103430000D02*
X372107400Y-95840400D01*
X372107400Y-95840400D02*
X372107400Y-95252800D01*
X372107400Y-95252800D02*
X374359900Y-93000300D01*
X374359900Y-93000300D02*
X375878400Y-93000300D01*
X375878400Y-93000300D02*
X377478700Y-91400000D01*
X377478700Y-91400000D02*
X377478700Y-87667600D01*
X377478700Y-87667600D02*
X371567800Y-81756700D01*
X371567800Y-81756700D02*
X371567800Y-74832900D01*
X371567800Y-74832900D02*
X339278300Y-42543400D01*
X339278300Y-42543400D02*
X339278300Y-35921300D01*
X356925000Y-103430000D02*
X351899500Y-103430000D01*
X351899500Y-103430000D02*
X344258200Y-111071300D01*
X344258200Y-111071300D02*
X344258200Y-112935300D01*
X344258200Y-112935300D02*
X333670000Y-123523500D01*
X333670000Y-123523500D02*
X304168500Y-123523500D01*
X304168500Y-123523500D02*
X290578500Y-109933500D01*
X290578500Y-109933500D02*
X290578500Y-108686400D01*
X290578500Y-108686400D02*
X274633800Y-92741700D01*
X274633800Y-92741700D02*
X272837400Y-92741700D01*
X324233300Y-23504300D02*
X324993700Y-22743900D01*
X151112900Y-60234000D02*
X152975300Y-58371600D01*
X152975300Y-58371600D02*
X152975300Y-50427500D01*
X152975300Y-50427500D02*
X150824300Y-48276500D01*
X150824300Y-48276500D02*
X147138800Y-48276500D01*
%TO.N,COL5*%
X114710300Y-85340200D02*
X112672900Y-85340200D01*
X112672900Y-85340200D02*
X101952100Y-74619400D01*
X101952100Y-74619400D02*
X101952100Y-69611400D01*
X101952100Y-69611400D02*
X102126900Y-69436600D01*
X102126900Y-69436600D02*
X102126900Y-67098400D01*
X102126900Y-67098400D02*
X97390500Y-62362000D01*
X97390500Y-62362000D02*
X97128200Y-62362000D01*
X97128200Y-62362000D02*
X91914700Y-57148500D01*
X91914700Y-57148500D02*
X91914700Y-56297400D01*
X91914700Y-56297400D02*
X87347600Y-51730300D01*
X315246600Y-103181100D02*
X315246600Y-101968000D01*
X315246600Y-101968000D02*
X306863000Y-93584400D01*
X338352500Y-39891000D02*
X338352500Y-43592100D01*
X338352500Y-43592100D02*
X348238400Y-53478000D01*
X348238400Y-53478000D02*
X348238400Y-55419600D01*
X348238400Y-55419600D02*
X347861800Y-55796200D01*
X347861800Y-55796200D02*
X347861800Y-57748900D01*
X347861800Y-57748900D02*
X349573300Y-59460400D01*
X349573300Y-59460400D02*
X354161800Y-59460400D01*
X354161800Y-59460400D02*
X367167300Y-72465900D01*
X367167300Y-72465900D02*
X367167300Y-74463700D01*
X367167300Y-74463700D02*
X366796600Y-74834400D01*
X366796600Y-74834400D02*
X366796600Y-78172500D01*
X366796600Y-78172500D02*
X377028300Y-88404200D01*
X377028300Y-88404200D02*
X377028300Y-91213500D01*
X377028300Y-91213500D02*
X376128800Y-92113000D01*
X376128800Y-92113000D02*
X374593400Y-92113000D01*
X374593400Y-92113000D02*
X371657000Y-95049400D01*
X371657000Y-95049400D02*
X371657000Y-95653900D01*
X371657000Y-95653900D02*
X365034900Y-102276000D01*
X365034900Y-102276000D02*
X341154000Y-102276000D01*
X341154000Y-102276000D02*
X338769000Y-104661000D01*
X163132400Y-67427900D02*
X163132400Y-74402100D01*
X163132400Y-74402100D02*
X153807000Y-83727500D01*
X153807000Y-83727500D02*
X153807000Y-84005200D01*
X324427900Y-22178300D02*
X324497300Y-22247800D01*
X324497300Y-22247800D02*
X325195800Y-22247800D01*
X325195800Y-22247800D02*
X326416800Y-23468800D01*
X326416800Y-23468800D02*
X326416800Y-27327700D01*
X326416800Y-27327700D02*
X326474800Y-27385700D01*
X326474800Y-27385700D02*
X326474800Y-28137800D01*
X326474800Y-28137800D02*
X326002200Y-28610400D01*
X326002200Y-28610400D02*
X326002200Y-30010900D01*
X326002200Y-30010900D02*
X324466800Y-31546300D01*
X324466800Y-31546300D02*
X324466800Y-31924700D01*
X323667600Y-22938600D02*
X324427900Y-22178300D01*
X163132400Y-67427900D02*
X163132400Y-59722900D01*
X163132400Y-59722900D02*
X161332200Y-57922700D01*
X161332200Y-57922700D02*
X161332200Y-55244300D01*
X161332200Y-55244300D02*
X161758300Y-54818200D01*
X161758300Y-54818200D02*
X161758300Y-49538500D01*
X161758300Y-49538500D02*
X160513300Y-48293500D01*
X264895600Y-83859100D02*
X262907700Y-81871200D01*
X262907700Y-81871200D02*
X262031600Y-81871200D01*
X262031600Y-81871200D02*
X254872600Y-74712200D01*
X254872600Y-74712200D02*
X254872600Y-67561100D01*
X254872600Y-67561100D02*
X254841900Y-67530400D01*
%TO.N,COL6*%
X107089500Y-84369700D02*
X101177800Y-78458000D01*
X101177800Y-78458000D02*
X101177800Y-68845800D01*
X101177800Y-68845800D02*
X101676600Y-68347000D01*
X101676600Y-68347000D02*
X101676600Y-67746000D01*
X101676600Y-67746000D02*
X101177700Y-67247100D01*
X101177700Y-67247100D02*
X101177600Y-67247100D01*
X101177600Y-67247100D02*
X101177600Y-66786200D01*
X101177600Y-66786200D02*
X97203700Y-62812300D01*
X97203700Y-62812300D02*
X96932400Y-62812300D01*
X96932400Y-62812300D02*
X91258300Y-57138200D01*
X91258300Y-57138200D02*
X91258300Y-56580600D01*
X91258300Y-56580600D02*
X88788200Y-54110500D01*
X88788200Y-54110500D02*
X88663000Y-54110500D01*
X88663000Y-54110500D02*
X86416300Y-51863800D01*
X86416300Y-51863800D02*
X86416300Y-50609900D01*
X182576800Y-46766100D02*
X187015900Y-46766100D01*
X187015900Y-46766100D02*
X195109500Y-38672500D01*
X195109500Y-38672500D02*
X195109500Y-36312000D01*
X195109500Y-36312000D02*
X192562200Y-33764700D01*
X192562200Y-33764700D02*
X192562200Y-30640400D01*
X192562200Y-30640400D02*
X200981500Y-22221100D01*
X200981500Y-22221100D02*
X201423200Y-22221100D01*
X201423200Y-22221100D02*
X202150300Y-21494000D01*
X202150300Y-21494000D02*
X220993500Y-21494000D01*
X220993500Y-21494000D02*
X224929200Y-17558300D01*
X224929200Y-17558300D02*
X224929200Y-14661900D01*
X224929200Y-14661900D02*
X224820900Y-14553600D01*
X224820900Y-14553600D02*
X220726000Y-14553600D01*
X220726000Y-14553600D02*
X220115200Y-15164400D01*
X220115200Y-15164400D02*
X216708900Y-15164400D01*
X216708900Y-15164400D02*
X216522800Y-14978300D01*
X216522800Y-14978300D02*
X216522800Y-12121900D01*
X216522800Y-12121900D02*
X217349700Y-11295000D01*
X217349700Y-11295000D02*
X322048400Y-11295000D01*
X322048400Y-11295000D02*
X322180800Y-11427400D01*
X182576800Y-46766100D02*
X182370400Y-46972500D01*
X182370400Y-46972500D02*
X170581400Y-46972500D01*
X170581400Y-46972500D02*
X168124200Y-49429700D01*
X168124200Y-49429700D02*
X165742200Y-49429700D01*
X165742200Y-49429700D02*
X164405300Y-50766600D01*
X164405300Y-50766600D02*
X164405300Y-52346800D01*
X164405300Y-52346800D02*
X167147500Y-55089000D01*
X167147500Y-55089000D02*
X167147500Y-60805800D01*
X167147500Y-60805800D02*
X169043000Y-62701300D01*
X169043000Y-62701300D02*
X169043000Y-72101600D01*
X169043000Y-72101600D02*
X171164400Y-74223000D01*
X171164400Y-74223000D02*
X171164400Y-79713600D01*
X171164400Y-79713600D02*
X167658300Y-83219700D01*
X323101900Y-22373000D02*
X324040700Y-21434200D01*
X324040700Y-21434200D02*
X324096400Y-21434200D01*
%TO.N,COL7*%
X46158300Y-48197600D02*
X46158300Y-50004300D01*
X46158300Y-50004300D02*
X45989300Y-50173300D01*
X45989300Y-50173300D02*
X45989300Y-52470400D01*
X45989300Y-52470400D02*
X47047600Y-53528700D01*
X47047600Y-53528700D02*
X49490300Y-53528700D01*
X49490300Y-53528700D02*
X61191500Y-65229900D01*
X303694000Y-45891400D02*
X296408200Y-53177200D01*
X296408200Y-53177200D02*
X296408200Y-55521300D01*
X296408200Y-55521300D02*
X295910800Y-56018700D01*
X295910800Y-56018700D02*
X295910800Y-66071400D01*
X329227900Y-20580000D02*
X331209400Y-22561500D01*
X331209400Y-22561500D02*
X332159200Y-22561500D01*
X332159200Y-22561500D02*
X333777500Y-24179800D01*
X333777500Y-24179800D02*
X333777500Y-25579800D01*
X333777500Y-25579800D02*
X331366000Y-27991300D01*
X331366000Y-27991300D02*
X331366000Y-34205100D01*
X331366000Y-34205100D02*
X333520300Y-36359400D01*
X333520300Y-36359400D02*
X333520300Y-38775600D01*
X333520300Y-38775600D02*
X331374700Y-40921200D01*
X331374700Y-40921200D02*
X317640400Y-40921200D01*
X317640400Y-40921200D02*
X317640400Y-40921300D01*
X317640400Y-40921300D02*
X314759200Y-43802500D01*
X314759200Y-43802500D02*
X314759200Y-43835000D01*
X202430300Y-65467800D02*
X202430300Y-68017800D01*
X202430300Y-68017800D02*
X211671000Y-77258500D01*
X211671000Y-77258500D02*
X211671000Y-84050500D01*
X198694200Y-50491900D02*
X203898500Y-55696200D01*
X203898500Y-55696200D02*
X203898500Y-63999600D01*
X203898500Y-63999600D02*
X202430300Y-65467800D01*
X202430300Y-65467800D02*
X199933300Y-65467800D01*
X322536200Y-21807300D02*
X323490600Y-20852900D01*
X323490600Y-20852900D02*
X323490600Y-20580000D01*
X295910800Y-66071400D02*
X295910800Y-73219700D01*
X295910800Y-73219700D02*
X297888000Y-75196900D01*
X297888000Y-75196900D02*
X297888000Y-80566700D01*
X297888000Y-80566700D02*
X305855500Y-88534200D01*
X305855500Y-88534200D02*
X305855500Y-93627100D01*
%TO.N,COL8*%
X231931900Y-85376300D02*
X237349600Y-79958600D01*
X237349600Y-79958600D02*
X237349600Y-76416800D01*
X237349600Y-76416800D02*
X239026200Y-74740200D01*
X239026200Y-74740200D02*
X239026200Y-69645400D01*
X239026200Y-69645400D02*
X241737300Y-66934300D01*
X241737300Y-66934300D02*
X241737300Y-55638100D01*
X241737300Y-55638100D02*
X239211200Y-53112000D01*
X239211200Y-53112000D02*
X239211200Y-45931300D01*
X239211200Y-45931300D02*
X240126300Y-45016200D01*
X229131000Y-86928600D02*
X230379600Y-86928600D01*
X230379600Y-86928600D02*
X231931900Y-85376300D01*
X231931900Y-85376300D02*
X234726200Y-88170700D01*
X234726200Y-88170700D02*
X234726200Y-90560300D01*
X234726200Y-90560300D02*
X238625700Y-94459800D01*
X238625700Y-94459800D02*
X238625700Y-96781400D01*
X238625700Y-96781400D02*
X244661400Y-102817100D01*
X240126300Y-45016200D02*
X245949800Y-45016200D01*
X245949800Y-45016200D02*
X254795100Y-36170900D01*
X240126300Y-45016200D02*
X239844000Y-44733900D01*
X126133800Y-85476600D02*
X128126300Y-87469100D01*
X128126300Y-87469100D02*
X144680600Y-87469100D01*
X144680600Y-87469100D02*
X144719900Y-87508400D01*
X144719900Y-87508400D02*
X204305700Y-87508400D01*
X204305700Y-87508400D02*
X205112200Y-86701900D01*
X126133800Y-85476600D02*
X122706800Y-82049600D01*
X122706800Y-82049600D02*
X120847100Y-82049600D01*
X120847100Y-82049600D02*
X114330400Y-75532900D01*
X114330400Y-75532900D02*
X114330400Y-74878600D01*
X114330400Y-74878600D02*
X96231300Y-56779500D01*
X96231300Y-56779500D02*
X96231300Y-50449700D01*
X96231300Y-50449700D02*
X93864800Y-48083200D01*
X93864800Y-48083200D02*
X72034500Y-48083200D01*
X72034500Y-48083200D02*
X71221700Y-47270400D01*
X319142100Y-18413200D02*
X318381800Y-19173500D01*
X318381800Y-19173500D02*
X318381800Y-21202800D01*
X318381800Y-21202800D02*
X314534000Y-25050600D01*
%TO.N,COL9*%
X344109000Y-45465800D02*
X344109000Y-46703800D01*
X344109000Y-46703800D02*
X352034100Y-54628900D01*
X352034100Y-54628900D02*
X354828000Y-54628900D01*
X354828000Y-54628900D02*
X368333500Y-68134400D01*
X368333500Y-68134400D02*
X368333500Y-70622700D01*
X368333500Y-70622700D02*
X372398100Y-74687300D01*
X372398100Y-74687300D02*
X372398200Y-74687300D01*
X372398200Y-74687300D02*
X372398200Y-79418400D01*
X372398200Y-79418400D02*
X377934000Y-84954200D01*
X377934000Y-84954200D02*
X377934000Y-92872400D01*
X377934000Y-92872400D02*
X367371900Y-103434500D01*
X367371900Y-103434500D02*
X366952500Y-103434500D01*
X313385900Y-39206900D02*
X313035400Y-39557400D01*
X313035400Y-39557400D02*
X313035400Y-43139700D01*
X313035400Y-43139700D02*
X315361500Y-45465800D01*
X315361500Y-45465800D02*
X321785600Y-45465800D01*
X320839100Y-30434000D02*
X321323500Y-30918400D01*
X321323500Y-30918400D02*
X321323500Y-31470300D01*
X321323500Y-31470300D02*
X321316600Y-31477200D01*
X321316600Y-31477200D02*
X321316600Y-31511900D01*
X321316600Y-31511900D02*
X319576800Y-33251700D01*
X319576800Y-33251700D02*
X318575200Y-33251700D01*
X318575200Y-33251700D02*
X313386000Y-38440900D01*
X313386000Y-38440900D02*
X313386000Y-39206900D01*
X313386000Y-39206900D02*
X313385900Y-39206900D01*
X185141200Y-82419500D02*
X184676100Y-81954400D01*
X184676100Y-81954400D02*
X184676100Y-77289500D01*
X99968400Y-75025600D02*
X99968400Y-75537300D01*
X99968400Y-75537300D02*
X93333100Y-82172600D01*
X93333100Y-82172600D02*
X90556900Y-82172600D01*
X243288500Y-48135600D02*
X244114500Y-47309600D01*
X244114500Y-47309600D02*
X244114500Y-47309500D01*
X244114500Y-47309500D02*
X248839400Y-47309500D01*
X248839400Y-47309500D02*
X253306900Y-42842000D01*
X186923400Y-50335100D02*
X187005500Y-50417200D01*
X187005500Y-50417200D02*
X187005500Y-55542600D01*
X187005500Y-55542600D02*
X186490000Y-56058100D01*
X186490000Y-56058100D02*
X186490000Y-73745600D01*
X186490000Y-73745600D02*
X184676100Y-75559500D01*
X184676100Y-75559500D02*
X184676100Y-77289500D01*
%TO.N,COL10*%
X91858200Y-83474000D02*
X93804600Y-83474000D01*
X93804600Y-83474000D02*
X98864600Y-78414000D01*
X322165200Y-30628600D02*
X321900100Y-30893700D01*
X321900100Y-30893700D02*
X321900100Y-30928400D01*
X321900100Y-30928400D02*
X321773800Y-31054700D01*
X321773800Y-31054700D02*
X321773800Y-31656900D01*
X321773800Y-31656900D02*
X321766900Y-31663800D01*
X321766900Y-31663800D02*
X321766900Y-31698500D01*
X321766900Y-31698500D02*
X319763400Y-33702000D01*
X319763400Y-33702000D02*
X318796800Y-33702000D01*
X318796800Y-33702000D02*
X314111300Y-38387500D01*
X314111300Y-38387500D02*
X314111300Y-39876800D01*
X314111300Y-39876800D02*
X313879600Y-40108500D01*
X313879600Y-40108500D02*
X313879600Y-40304900D01*
X313879600Y-40304900D02*
X313767600Y-40416900D01*
X313767600Y-40416900D02*
X313767600Y-41609100D01*
X158004500Y-84970500D02*
X164628400Y-84970500D01*
X164628400Y-84970500D02*
X165265300Y-85607400D01*
X165265300Y-85607400D02*
X184118800Y-85607400D01*
X184118800Y-85607400D02*
X184630300Y-86118900D01*
X184630300Y-86118900D02*
X196964500Y-86118900D01*
X196964500Y-86118900D02*
X197557300Y-85526100D01*
X197557300Y-85526100D02*
X207664900Y-85526100D01*
X207664900Y-85526100D02*
X208295200Y-84895800D01*
X208295200Y-84895800D02*
X210763400Y-84895800D01*
X210763400Y-84895800D02*
X211955700Y-86088100D01*
X211955700Y-86088100D02*
X215780000Y-86088100D01*
X215780000Y-86088100D02*
X217501600Y-84366500D01*
X121782100Y-77901400D02*
X122055100Y-77901400D01*
X122055100Y-77901400D02*
X129821600Y-85667900D01*
X129821600Y-85667900D02*
X157307100Y-85667900D01*
X157307100Y-85667900D02*
X158004500Y-84970500D01*
X217501600Y-84366500D02*
X213139200Y-80004100D01*
X213139200Y-80004100D02*
X213139200Y-75331700D01*
X213139200Y-75331700D02*
X212450300Y-74642800D01*
X212450300Y-74642800D02*
X210685800Y-74642800D01*
X210685800Y-74642800D02*
X207544900Y-71501900D01*
X207544900Y-71501900D02*
X207544900Y-66149400D01*
X207544900Y-66149400D02*
X208758400Y-64935900D01*
X208758400Y-64935900D02*
X208758400Y-55995000D01*
X208758400Y-55995000D02*
X210727500Y-54025900D01*
X210727500Y-54025900D02*
X210727500Y-51944900D01*
X217501600Y-84366500D02*
X218998300Y-84366500D01*
X218998300Y-84366500D02*
X222137300Y-87505500D01*
X321404800Y-29868300D02*
X322165200Y-30628600D01*
%TO.N,COL11*%
X322730900Y-30062900D02*
X322649800Y-30144000D01*
X322649800Y-30144000D02*
X322649800Y-30898900D01*
X322649800Y-30898900D02*
X322224100Y-31324600D01*
X322224100Y-31324600D02*
X322224100Y-31843500D01*
X322224100Y-31843500D02*
X322217200Y-31850400D01*
X322217200Y-31850400D02*
X322217200Y-31885100D01*
X322217200Y-31885100D02*
X319950000Y-34152300D01*
X319950000Y-34152300D02*
X318983400Y-34152300D01*
X318983400Y-34152300D02*
X314561600Y-38574100D01*
X314561600Y-38574100D02*
X314561600Y-40063400D01*
X314561600Y-40063400D02*
X314500000Y-40125000D01*
X314500000Y-40125000D02*
X314500000Y-41113300D01*
X314500000Y-41113300D02*
X314492900Y-41120400D01*
X314492900Y-41120400D02*
X314492900Y-41909700D01*
X314492900Y-41909700D02*
X314317800Y-42084800D01*
X314317800Y-42084800D02*
X314317800Y-42192100D01*
X314317800Y-42192100D02*
X314144600Y-42365300D01*
X314144600Y-42365300D02*
X314144600Y-43034900D01*
X314144600Y-43034900D02*
X314050500Y-43129000D01*
X153035500Y-47482500D02*
X153425600Y-47872600D01*
X153425600Y-47872600D02*
X153425600Y-64613400D01*
X153425600Y-64613400D02*
X149027400Y-69011600D01*
X149027400Y-69011600D02*
X149027400Y-73198500D01*
X149027400Y-73198500D02*
X141428300Y-80797600D01*
X141428300Y-80797600D02*
X141428300Y-83569700D01*
X153035500Y-47482500D02*
X157914800Y-42603200D01*
X150510300Y-47482500D02*
X153035500Y-47482500D01*
X275935300Y-47155600D02*
X270844700Y-42065000D01*
X270844700Y-42065000D02*
X264302100Y-42065000D01*
X321970500Y-29302600D02*
X322730900Y-30062900D01*
X234635000Y-47261000D02*
X234831000Y-47065000D01*
X234831000Y-47065000D02*
X234831000Y-41809700D01*
%TO.N,COL12*%
X311370600Y-20161000D02*
X306281100Y-25250500D01*
X306281100Y-25250500D02*
X306281100Y-50293200D01*
X306281100Y-50293200D02*
X306730400Y-50742500D01*
X306730400Y-50742500D02*
X306730400Y-52801300D01*
X306730400Y-52801300D02*
X306119100Y-53412600D01*
X306119100Y-53412600D02*
X306119200Y-53412600D01*
X306119200Y-53412600D02*
X306119200Y-59191900D01*
X306119200Y-59191900D02*
X309887700Y-62960400D01*
X309887700Y-62960400D02*
X309887700Y-69775000D01*
X309887700Y-69775000D02*
X309920900Y-69808200D01*
X309920900Y-69808200D02*
X309920900Y-90281800D01*
X309920900Y-90281800D02*
X316906600Y-97267500D01*
X316906600Y-97267500D02*
X316906600Y-117306400D01*
X316906600Y-117306400D02*
X315087000Y-119126000D01*
X188006100Y-48629200D02*
X187757200Y-48878100D01*
X187757200Y-48878100D02*
X170700300Y-48878100D01*
X170700300Y-48878100D02*
X170531700Y-48709500D01*
X316737900Y-18413200D02*
X315977600Y-17652800D01*
X315471600Y-17743200D02*
X315887200Y-17743200D01*
X315887200Y-17743200D02*
X315977600Y-17652800D01*
%TO.N,COL13*%
X305123300Y-38003500D02*
X305123300Y-48588000D01*
X305123300Y-48588000D02*
X303065000Y-50646300D01*
X303065000Y-50646300D02*
X303065000Y-53057700D01*
X303065000Y-53057700D02*
X305668700Y-55661400D01*
X305668700Y-55661400D02*
X305668700Y-63226900D01*
X305668700Y-63226900D02*
X309437400Y-66995600D01*
X309437400Y-66995600D02*
X309437400Y-69961600D01*
X309437400Y-69961600D02*
X309470600Y-69994800D01*
X309470600Y-69994800D02*
X309470600Y-92176000D01*
X309470600Y-92176000D02*
X316456200Y-99161600D01*
X316456200Y-99161600D02*
X316456200Y-116486800D01*
X316456200Y-116486800D02*
X315087000Y-117856000D01*
X302232700Y-23140000D02*
X302088500Y-22995800D01*
X302088500Y-22995800D02*
X248052800Y-22995800D01*
X248052800Y-22995800D02*
X247060300Y-23988300D01*
X247060300Y-23988300D02*
X247060300Y-28820100D01*
X247060300Y-28820100D02*
X243072500Y-32807900D01*
X316172200Y-18978800D02*
X315661900Y-18468500D01*
X315661900Y-18468500D02*
X315171200Y-18468500D01*
X315171200Y-18468500D02*
X314256000Y-17553300D01*
X314256000Y-17553300D02*
X314256000Y-17270400D01*
X314256000Y-17270400D02*
X313784800Y-16799200D01*
X313784800Y-16799200D02*
X312420500Y-16799200D01*
X312420500Y-16799200D02*
X308221300Y-20998400D01*
X308221300Y-20998400D02*
X304374300Y-20998400D01*
X304374300Y-20998400D02*
X302232700Y-23140000D01*
X302411000Y-36088200D02*
X302232700Y-35909900D01*
X302232700Y-35909900D02*
X302232700Y-23140000D01*
X243072500Y-32807900D02*
X243977300Y-33712700D01*
X243977300Y-33712700D02*
X243977300Y-36543800D01*
X243977300Y-36543800D02*
X238140600Y-42380500D01*
X238140600Y-42380500D02*
X238140600Y-45180000D01*
X238140600Y-45180000D02*
X238140500Y-45180000D01*
X127987800Y-36986900D02*
X117958000Y-47016700D01*
X117958000Y-47016700D02*
X117958000Y-47155600D01*
%TO.N,ROW0*%
X301510000Y-71472500D02*
X305164400Y-67818100D01*
X305164400Y-67818100D02*
X305164400Y-56110300D01*
X305164400Y-56110300D02*
X302611800Y-53557700D01*
X302611800Y-53557700D02*
X302611800Y-49602800D01*
X302611800Y-49602800D02*
X304475600Y-47739000D01*
X304475600Y-47739000D02*
X304475600Y-38381500D01*
X304475600Y-38381500D02*
X304398000Y-38303900D01*
X304398000Y-38303900D02*
X304398000Y-37703100D01*
X304398000Y-37703100D02*
X305557800Y-36543300D01*
X305557800Y-36543300D02*
X305557800Y-23241900D01*
X305557800Y-23241900D02*
X307052500Y-21747200D01*
X315905800Y-15313300D02*
X317369600Y-13849500D01*
X317369600Y-13849500D02*
X329625600Y-13849500D01*
X329625600Y-13849500D02*
X332531300Y-16755200D01*
X332531300Y-16755200D02*
X335995700Y-16755200D01*
X335995700Y-16755200D02*
X341486000Y-22245500D01*
X341486000Y-22245500D02*
X341486000Y-23989100D01*
X341486000Y-23989100D02*
X348396300Y-30899400D01*
X348396300Y-30899400D02*
X356213700Y-30899400D01*
X356213700Y-30899400D02*
X356505000Y-31190700D01*
X301510000Y-71472500D02*
X301510000Y-72304300D01*
X301510000Y-70729000D02*
X301510000Y-71472500D01*
X315087000Y-116586000D02*
X315971900Y-115701100D01*
X315971900Y-115701100D02*
X315971900Y-99314200D01*
X315971900Y-99314200D02*
X308405200Y-91747500D01*
X308405200Y-91747500D02*
X308405200Y-89096300D01*
X308405200Y-89096300D02*
X303271900Y-83963000D01*
X303271900Y-83963000D02*
X303271900Y-74066100D01*
X303271900Y-74066100D02*
X303271800Y-74066100D01*
X303271800Y-74066100D02*
X301510000Y-72304300D01*
X141926000Y-31018600D02*
X141593100Y-30685700D01*
X141593100Y-30685700D02*
X123455200Y-30685700D01*
X123455200Y-30685700D02*
X122876000Y-31264900D01*
X160976000Y-31062700D02*
X160681800Y-30768500D01*
X160681800Y-30768500D02*
X142176100Y-30768500D01*
X142176100Y-30768500D02*
X141926000Y-31018600D01*
X141926000Y-32593900D02*
X141926000Y-31018600D01*
X160976000Y-31062700D02*
X160976000Y-31018600D01*
X160976000Y-32593900D02*
X160976000Y-31062700D01*
X122876000Y-31264900D02*
X122363400Y-30752300D01*
X122363400Y-30752300D02*
X104092300Y-30752300D01*
X104092300Y-30752300D02*
X103826000Y-31018600D01*
X180026000Y-32593900D02*
X180026000Y-29947900D01*
X180026000Y-29947900D02*
X179997800Y-29919700D01*
X179997800Y-29919700D02*
X162074900Y-29919700D01*
X162074900Y-29919700D02*
X160976000Y-31018600D01*
X179997800Y-29919700D02*
X179997800Y-27844100D01*
X179997800Y-27844100D02*
X181108200Y-26733700D01*
X84776000Y-30768500D02*
X103575900Y-30768500D01*
X103575900Y-30768500D02*
X103826000Y-31018600D01*
X84776000Y-31219100D02*
X84776000Y-30768500D01*
X103826000Y-32593900D02*
X103826000Y-31018600D01*
X65726000Y-31018600D02*
X65464500Y-30757100D01*
X65464500Y-30757100D02*
X46937500Y-30757100D01*
X46937500Y-30757100D02*
X46676000Y-31018600D01*
X46676000Y-32593900D02*
X46676000Y-31018600D01*
X84776000Y-30768500D02*
X65976100Y-30768500D01*
X65976100Y-30768500D02*
X65726000Y-31018600D01*
X65726000Y-32593900D02*
X65726000Y-31018600D01*
X84776000Y-30768500D02*
X84776000Y-15164300D01*
X199526500Y-30746600D02*
X199348000Y-30746600D01*
X199348000Y-30746600D02*
X199076000Y-31018600D01*
X218126000Y-30746600D02*
X199526500Y-30746600D01*
X199526500Y-30746600D02*
X199526500Y-27925400D01*
X122876000Y-32593900D02*
X122876000Y-31264900D01*
X236725600Y-30318300D02*
X218554300Y-30318300D01*
X218554300Y-30318300D02*
X218126000Y-30746600D01*
X237176000Y-31018600D02*
X237176000Y-30768700D01*
X237176000Y-30768700D02*
X236725600Y-30318300D01*
X237981500Y-20132400D02*
X237981500Y-29062400D01*
X237981500Y-29062400D02*
X236725600Y-30318300D01*
X84776000Y-13589000D02*
X84776000Y-15164300D01*
X356505000Y-32766000D02*
X356505000Y-31190700D01*
X314846300Y-18784200D02*
X314846200Y-18784300D01*
X314846200Y-18784300D02*
X314687500Y-18784300D01*
X314687500Y-18784300D02*
X313428500Y-17525300D01*
X218126000Y-30746600D02*
X218126000Y-31018600D01*
X199076000Y-32593900D02*
X199076000Y-31018600D01*
X84776000Y-32593900D02*
X84776000Y-31219100D01*
X315606500Y-19544500D02*
X314846300Y-18784200D01*
X218126000Y-32593900D02*
X218126000Y-31018600D01*
X237176000Y-32593900D02*
X237176000Y-31018600D01*
%TO.N,ROW3*%
X222317000Y-91364300D02*
X222317000Y-102206700D01*
X222317000Y-102206700D02*
X221916000Y-102607700D01*
X221916000Y-102607700D02*
X221916000Y-103208500D01*
X221916000Y-103208500D02*
X222635700Y-103928200D01*
X222635700Y-103928200D02*
X222792000Y-103928200D01*
X375428000Y-72314300D02*
X375428000Y-72530000D01*
X375428000Y-72530000D02*
X379348500Y-76450500D01*
X379348500Y-76450500D02*
X379348500Y-102496400D01*
X379348500Y-102496400D02*
X374941100Y-106903800D01*
X58709700Y-89779000D02*
X57109400Y-89779000D01*
X57109400Y-89779000D02*
X57109400Y-89253800D01*
X57109400Y-89253800D02*
X45311200Y-77455600D01*
X45311200Y-77455600D02*
X41285400Y-77455600D01*
X41285400Y-77455600D02*
X35661400Y-71831600D01*
X35661400Y-71831600D02*
X35661400Y-51437900D01*
X35661400Y-51437900D02*
X36283400Y-50815900D01*
X36283400Y-50815900D02*
X36283400Y-44506200D01*
X36283400Y-44506200D02*
X30680700Y-38903500D01*
X30680700Y-38903500D02*
X30680700Y-33608700D01*
X30680700Y-33608700D02*
X40786700Y-23502700D01*
X40786700Y-23502700D02*
X42118300Y-23502700D01*
X42118300Y-23502700D02*
X43103300Y-22517700D01*
X43103300Y-22517700D02*
X43103300Y-17068400D01*
X43103300Y-17068400D02*
X41083800Y-15048900D01*
X41083800Y-15048900D02*
X41083800Y-12842600D01*
X41083800Y-12842600D02*
X42401100Y-11525300D01*
X42401100Y-11525300D02*
X65237600Y-11525300D01*
X65237600Y-11525300D02*
X65726000Y-12013700D01*
X89602000Y-88213700D02*
X89296600Y-87908300D01*
X89296600Y-87908300D02*
X84930800Y-87908300D01*
X84930800Y-87908300D02*
X83060100Y-89779000D01*
X83060100Y-89779000D02*
X58709700Y-89779000D01*
X311030000Y-107380700D02*
X311030000Y-106261000D01*
X311030000Y-106261000D02*
X310717400Y-105948400D01*
X311030000Y-108956000D02*
X311030000Y-107380700D01*
X222317000Y-89789000D02*
X222317000Y-91364300D01*
X146244000Y-89789000D02*
X146244000Y-88213700D01*
X146244000Y-88213700D02*
X146498900Y-87958800D01*
X146498900Y-87958800D02*
X164912100Y-87958800D01*
X164912100Y-87958800D02*
X165167000Y-88213700D01*
X89602000Y-88213700D02*
X91134200Y-86681500D01*
X91134200Y-86681500D02*
X95401400Y-86681500D01*
X95401400Y-86681500D02*
X96683500Y-87963600D01*
X96683500Y-87963600D02*
X106249600Y-87963600D01*
X106249600Y-87963600D02*
X107287300Y-89001300D01*
X107287300Y-89001300D02*
X108398000Y-89001300D01*
X374663000Y-107056700D02*
X374788200Y-107056700D01*
X374788200Y-107056700D02*
X374941100Y-106903800D01*
X375428000Y-107390700D02*
X374941100Y-106903800D01*
X375428000Y-70739000D02*
X375428000Y-72314300D01*
X375428000Y-108966000D02*
X375428000Y-107390700D01*
X375428000Y-70739000D02*
X375428000Y-69163700D01*
X315040900Y-30434000D02*
X315801200Y-29673700D01*
X317786800Y-30614800D02*
X316845700Y-29673700D01*
X316845700Y-29673700D02*
X315801200Y-29673700D01*
X375428000Y-69163700D02*
X377028400Y-67563300D01*
X377028400Y-67563300D02*
X377028400Y-50295400D01*
X377028400Y-50295400D02*
X368262400Y-41529400D01*
X368262400Y-41529400D02*
X368262400Y-41498900D01*
X203140000Y-89585200D02*
X212919800Y-89585200D01*
X212919800Y-89585200D02*
X214557100Y-87947900D01*
X214557100Y-87947900D02*
X220475900Y-87947900D01*
X220475900Y-87947900D02*
X222317000Y-89789000D01*
X184090000Y-88213700D02*
X183835100Y-87958800D01*
X183835100Y-87958800D02*
X165498300Y-87958800D01*
X165498300Y-87958800D02*
X165167000Y-88290100D01*
X165167000Y-88290100D02*
X165167000Y-88213700D01*
X165167000Y-89789000D02*
X165167000Y-88290100D01*
X203140000Y-89585200D02*
X201513600Y-87958800D01*
X201513600Y-87958800D02*
X184344900Y-87958800D01*
X184344900Y-87958800D02*
X184090000Y-88213700D01*
X184090000Y-89789000D02*
X184090000Y-88213700D01*
X146244000Y-89789000D02*
X144643700Y-89789000D01*
X144643700Y-89789000D02*
X144643700Y-89321800D01*
X144643700Y-89321800D02*
X143241300Y-87919400D01*
X143241300Y-87919400D02*
X131530800Y-87919400D01*
X131530800Y-87919400D02*
X129200400Y-90249800D01*
X128921300Y-89789000D02*
X128921300Y-89970700D01*
X128921300Y-89970700D02*
X129200400Y-90249800D01*
X111525300Y-89535400D02*
X110991200Y-89001300D01*
X110991200Y-89001300D02*
X108398000Y-89001300D01*
X89602000Y-89789000D02*
X89602000Y-88213700D01*
X203140000Y-89789000D02*
X203140000Y-89585200D01*
X122876000Y-12013700D02*
X121230500Y-10368200D01*
X121230500Y-10368200D02*
X67371500Y-10368200D01*
X67371500Y-10368200D02*
X65726000Y-12013700D01*
X127321000Y-89789000D02*
X128921300Y-89789000D01*
X108398000Y-89789000D02*
X108398000Y-89001300D01*
X122876000Y-13589000D02*
X122876000Y-12013700D01*
X65726000Y-13589000D02*
X65726000Y-12013700D01*
%TO.N,ROW4*%
X325422200Y-8261600D02*
X325254700Y-8429100D01*
X325254700Y-8429100D02*
X313663700Y-8429100D01*
X313663700Y-8429100D02*
X313557600Y-8323000D01*
X313557600Y-8323000D02*
X312583500Y-8323000D01*
X312583500Y-8323000D02*
X312174400Y-8732100D01*
X312174400Y-8732100D02*
X210001000Y-8732100D01*
X210001000Y-8732100D02*
X209760500Y-8491600D01*
X209760500Y-8491600D02*
X202341100Y-8491600D01*
X202341100Y-8491600D02*
X199076000Y-11756700D01*
X251273000Y-70739000D02*
X251273000Y-83415500D01*
X251273000Y-83415500D02*
X250942100Y-83746400D01*
X250942100Y-83746400D02*
X250942100Y-87378100D01*
X250942100Y-87378100D02*
X252279600Y-88715600D01*
X252279600Y-88715600D02*
X252279600Y-93438800D01*
X252279600Y-93438800D02*
X251924300Y-93794100D01*
X251924300Y-93794100D02*
X251924300Y-107072800D01*
X356505000Y-109241000D02*
X362839200Y-109241000D01*
X362839200Y-109241000D02*
X378853500Y-93226700D01*
X378853500Y-93226700D02*
X378853500Y-78504400D01*
X378853500Y-78504400D02*
X373821800Y-73472700D01*
X373821800Y-73472700D02*
X373821800Y-59643000D01*
X373821800Y-59643000D02*
X375428000Y-58036800D01*
X375428000Y-58036800D02*
X375428000Y-51689000D01*
X344394900Y-25235400D02*
X344394900Y-24781200D01*
X344394900Y-24781200D02*
X342673200Y-23059500D01*
X367494800Y-48179100D02*
X367494800Y-41220400D01*
X367494800Y-41220400D02*
X367968000Y-40747200D01*
X367968000Y-40747200D02*
X369543400Y-40747200D01*
X369543400Y-40747200D02*
X374538600Y-35752000D01*
X374538600Y-35752000D02*
X375427100Y-35752000D01*
X375427100Y-35752000D02*
X377028400Y-34150700D01*
X377028400Y-34150700D02*
X377028400Y-31341800D01*
X377028400Y-31341800D02*
X370922000Y-25235400D01*
X370922000Y-25235400D02*
X344394900Y-25235400D01*
X199076000Y-11756700D02*
X180283000Y-11756700D01*
X180283000Y-11756700D02*
X180026000Y-12013700D01*
X199076000Y-12013700D02*
X199076000Y-11756700D01*
X314475200Y-29868300D02*
X315235600Y-29107900D01*
X318615500Y-25107300D02*
X318615500Y-25445700D01*
X318615500Y-25445700D02*
X315235500Y-28825700D01*
X315235500Y-28825700D02*
X315235500Y-29107900D01*
X315235500Y-29107900D02*
X315235600Y-29107900D01*
X287224000Y-108956000D02*
X287224000Y-107380700D01*
X287224000Y-108956000D02*
X287224000Y-110531300D01*
X356505000Y-110541300D02*
X353343900Y-113702400D01*
X353343900Y-113702400D02*
X353343900Y-114843100D01*
X353343900Y-114843100D02*
X343762700Y-124424300D01*
X343762700Y-124424300D02*
X301117000Y-124424300D01*
X301117000Y-124424300D02*
X287224000Y-110531300D01*
X287224000Y-107380700D02*
X286936000Y-107092700D01*
X286936000Y-107092700D02*
X263636000Y-107092700D01*
X263636000Y-107092700D02*
X263348000Y-107380700D01*
X168469000Y-110376600D02*
X168052700Y-110792900D01*
X168052700Y-110792900D02*
X162439800Y-110792900D01*
X162439800Y-110792900D02*
X160858400Y-109211500D01*
X160858400Y-109211500D02*
X97572200Y-109211500D01*
X97572200Y-109211500D02*
X96978000Y-109805700D01*
X251924300Y-107072800D02*
X249163400Y-107072800D01*
X249163400Y-107072800D02*
X238975800Y-117260400D01*
X238975800Y-117260400D02*
X199147600Y-117260400D01*
X199147600Y-117260400D02*
X191558500Y-109671300D01*
X191558500Y-109671300D02*
X168469000Y-109671300D01*
X367494800Y-48179100D02*
X373030300Y-48179100D01*
X373030300Y-48179100D02*
X374964900Y-50113700D01*
X374964900Y-50113700D02*
X375428000Y-50113700D01*
X356505000Y-50113700D02*
X365560200Y-50113700D01*
X365560200Y-50113700D02*
X367494800Y-48179100D01*
X251924300Y-107072800D02*
X263040100Y-107072800D01*
X263040100Y-107072800D02*
X263348000Y-107380700D01*
X168469000Y-109671300D02*
X168469000Y-110376600D01*
X168469000Y-108966000D02*
X168469000Y-109671300D01*
X263348000Y-108956000D02*
X263348000Y-107380700D01*
X160976000Y-12013700D02*
X160676300Y-11714000D01*
X160676300Y-11714000D02*
X142225700Y-11714000D01*
X142225700Y-11714000D02*
X141926000Y-12013700D01*
X141926000Y-13589000D02*
X141926000Y-12013700D01*
X180026000Y-12013700D02*
X179762800Y-11750500D01*
X179762800Y-11750500D02*
X161239200Y-11750500D01*
X161239200Y-11750500D02*
X160976000Y-12013700D01*
X160976000Y-13589000D02*
X160976000Y-12013700D01*
X180026000Y-13589000D02*
X180026000Y-12013700D01*
X56560200Y-111175900D02*
X60621500Y-107114600D01*
X60621500Y-107114600D02*
X72835900Y-107114600D01*
X72835900Y-107114600D02*
X73102000Y-107380700D01*
X96978000Y-109805700D02*
X95709200Y-111074500D01*
X95709200Y-111074500D02*
X90323600Y-111074500D01*
X90323600Y-111074500D02*
X84995100Y-116403000D01*
X84995100Y-116403000D02*
X61133800Y-116403000D01*
X61133800Y-116403000D02*
X56560200Y-111829400D01*
X56560200Y-111829400D02*
X56560200Y-111175900D01*
X56560200Y-111175900D02*
X49829300Y-111175900D01*
X49829300Y-111175900D02*
X49184700Y-110531300D01*
X73102000Y-108956000D02*
X73102000Y-107380700D01*
X49184700Y-108956000D02*
X49184700Y-110531300D01*
X375428000Y-51689000D02*
X375428000Y-50113700D01*
X356505000Y-109241000D02*
X356505000Y-110541300D01*
X356505000Y-108966000D02*
X356505000Y-109241000D01*
X356505000Y-51689000D02*
X356505000Y-50113700D01*
X199076000Y-13589000D02*
X199076000Y-12013700D01*
X96978000Y-108956000D02*
X96978000Y-109805700D01*
%TO.N,ROW1*%
X308655000Y-59997200D02*
X308655000Y-60035300D01*
X308655000Y-60035300D02*
X310489600Y-61869900D01*
X308655000Y-51552000D02*
X308655000Y-59997200D01*
X51621900Y-50005500D02*
X51621900Y-41879700D01*
X51621900Y-41879700D02*
X45072800Y-35330600D01*
X45072800Y-35330600D02*
X45072800Y-20766000D01*
X45072800Y-20766000D02*
X46676000Y-19162800D01*
X46676000Y-19162800D02*
X46676000Y-13589000D01*
X51564700Y-50119900D02*
X51621900Y-50062700D01*
X51621900Y-50062700D02*
X51621900Y-50005500D01*
X51621900Y-50005500D02*
X69976700Y-50005500D01*
X69976700Y-50005500D02*
X70266500Y-49715700D01*
X70266500Y-49715700D02*
X75107000Y-49715700D01*
X75107000Y-49715700D02*
X75378000Y-49986700D01*
X51564700Y-51695200D02*
X51564700Y-50119900D01*
X356505000Y-70739000D02*
X354904700Y-70739000D01*
X315183200Y-61869900D02*
X315183200Y-58992600D01*
X315183200Y-58992600D02*
X324831300Y-49344500D01*
X324831300Y-49344500D02*
X338805700Y-49344500D01*
X338805700Y-49344500D02*
X340288200Y-50827000D01*
X340288200Y-50827000D02*
X340288200Y-55507100D01*
X340288200Y-55507100D02*
X354904700Y-70123600D01*
X354904700Y-70123600D02*
X354904700Y-70739000D01*
X314280600Y-19349800D02*
X314052100Y-19578300D01*
X314052100Y-19578300D02*
X313781900Y-19578300D01*
X313781900Y-19578300D02*
X312505500Y-20854700D01*
X312505500Y-20854700D02*
X312438300Y-20854700D01*
X312438300Y-20854700D02*
X312406700Y-20886300D01*
X312406700Y-20886300D02*
X312255100Y-20886300D01*
X312255100Y-20886300D02*
X312214300Y-20927100D01*
X312214300Y-20927100D02*
X311969000Y-20927100D01*
X311969000Y-20927100D02*
X311886600Y-21009500D01*
X311886600Y-21009500D02*
X311185200Y-21009500D01*
X311185200Y-21009500D02*
X308891400Y-23303300D01*
X308891400Y-23303300D02*
X308891400Y-23463000D01*
X308891400Y-23463000D02*
X308666100Y-23688300D01*
X308666100Y-23688300D02*
X308666100Y-23800800D01*
X308666100Y-23800800D02*
X307881300Y-24585600D01*
X307881300Y-24585600D02*
X307881300Y-25222500D01*
X307881300Y-25222500D02*
X307328400Y-25775400D01*
X307328400Y-25775400D02*
X307328400Y-26153300D01*
X307328400Y-26153300D02*
X307328200Y-26153500D01*
X307328200Y-26153500D02*
X307328200Y-26274000D01*
X307328200Y-26274000D02*
X306731600Y-26870600D01*
X306731600Y-26870600D02*
X306731600Y-48053300D01*
X306731600Y-48053300D02*
X308655000Y-49976700D01*
X169993000Y-53137300D02*
X169438600Y-53137300D01*
X169438600Y-53137300D02*
X168428200Y-54147700D01*
X207839000Y-49986700D02*
X208094600Y-49731100D01*
X208094600Y-49731100D02*
X226506400Y-49731100D01*
X226506400Y-49731100D02*
X226762000Y-49986700D01*
X188916000Y-49986700D02*
X188521900Y-49592600D01*
X188521900Y-49592600D02*
X172430800Y-49592600D01*
X172430800Y-49592600D02*
X169993000Y-52030400D01*
X94000400Y-49686100D02*
X93737100Y-49422800D01*
X93737100Y-49422800D02*
X75941900Y-49422800D01*
X75941900Y-49422800D02*
X75378000Y-49986700D01*
X94301000Y-49986700D02*
X94000400Y-49686100D01*
X75378000Y-51562000D02*
X75378000Y-49986700D01*
X188916000Y-50774300D02*
X190387100Y-49303200D01*
X190387100Y-49303200D02*
X207155500Y-49303200D01*
X207155500Y-49303200D02*
X207839000Y-49986700D01*
X188916000Y-50774300D02*
X188916000Y-49986700D01*
X188916000Y-51562000D02*
X188916000Y-50774300D01*
X226762000Y-51562000D02*
X226762000Y-49986700D01*
X227106400Y-55327200D02*
X226762000Y-54982800D01*
X226762000Y-54982800D02*
X226762000Y-51562000D01*
X207839000Y-51562000D02*
X207839000Y-49986700D01*
X169993000Y-52030400D02*
X169993000Y-52498800D01*
X169993000Y-51562000D02*
X169993000Y-52030400D01*
X151070000Y-51562000D02*
X151070000Y-49986700D01*
X151070000Y-51562000D02*
X151070000Y-53137300D01*
X132147000Y-49986700D02*
X133306100Y-48827600D01*
X133306100Y-48827600D02*
X142941000Y-48827600D01*
X142941000Y-48827600D02*
X143844600Y-49731200D01*
X143844600Y-49731200D02*
X150814500Y-49731200D01*
X150814500Y-49731200D02*
X151070000Y-49986700D01*
X151070000Y-53137300D02*
X151276000Y-53137300D01*
X151276000Y-53137300D02*
X152250000Y-54111300D01*
X169993000Y-52506400D02*
X169993000Y-53137300D01*
X169993000Y-52506400D02*
X169993000Y-52498800D01*
X308655000Y-50764300D02*
X308655000Y-51552000D01*
X308655000Y-50764300D02*
X308655000Y-49976700D01*
X115110300Y-51328600D02*
X116743800Y-49695100D01*
X116743800Y-49695100D02*
X131855400Y-49695100D01*
X131855400Y-49695100D02*
X132147000Y-49986700D01*
X115110300Y-51328600D02*
X115057700Y-51328600D01*
X115057700Y-51328600D02*
X114824300Y-51562000D01*
X132147000Y-51562000D02*
X132147000Y-49986700D01*
X113224000Y-51562000D02*
X114824300Y-51562000D01*
X356505000Y-70739000D02*
X356505000Y-72314300D01*
X315040900Y-20110200D02*
X314280600Y-19349800D01*
X356505000Y-72314300D02*
X356505000Y-88213700D01*
X356505000Y-89789000D02*
X356505000Y-88213700D01*
X94301000Y-51562000D02*
X94301000Y-49986700D01*
%TO.N,LED_DATA*%
X309835500Y-26836200D02*
X309835500Y-28386000D01*
X309835500Y-28386000D02*
X311389200Y-29939700D01*
X311389200Y-29939700D02*
X311389200Y-32049000D01*
X311389200Y-32049000D02*
X309879700Y-33558500D01*
X309879700Y-33558500D02*
X309879700Y-42532000D01*
X309879700Y-42532000D02*
X312365100Y-45017400D01*
X312365100Y-45017400D02*
X312365100Y-53427900D01*
X312365100Y-53427900D02*
X312195200Y-53597800D01*
X312195200Y-53597800D02*
X312195200Y-63520700D01*
X312195200Y-63520700D02*
X311305100Y-64410800D01*
X311305100Y-64410800D02*
X311305100Y-69107700D01*
X311305100Y-69107700D02*
X311371500Y-69174100D01*
X311371500Y-69174100D02*
X311371500Y-90458600D01*
X311371500Y-90458600D02*
X317414800Y-96501900D01*
X317414800Y-96501900D02*
X317414800Y-118068200D01*
X317414800Y-118068200D02*
X315087000Y-120396000D01*
X309835500Y-26836200D02*
X311841400Y-24830300D01*
X309835500Y-26836200D02*
X309633300Y-26836200D01*
X309633300Y-26836200D02*
X309434300Y-26637200D01*
X311081100Y-24070000D02*
X311841400Y-24830300D01*
%TO.N,Net-(R4-Pad2)*%
X319142100Y-32131000D02*
X319016000Y-32131000D01*
X319016000Y-32131000D02*
X312585000Y-38562000D01*
X312585000Y-38562000D02*
X312585000Y-43326400D01*
X312585000Y-43326400D02*
X316384200Y-47125600D01*
X316384200Y-47125600D02*
X316384200Y-51117400D01*
%TO.N,Net-(R2-Pad1)*%
X312778100Y-22373000D02*
X312017800Y-21612600D01*
X311012500Y-60175200D02*
X311012500Y-50862600D01*
X311012500Y-50862600D02*
X307182000Y-47032100D01*
X307182000Y-47032100D02*
X307182000Y-27118000D01*
X307182000Y-27118000D02*
X309341800Y-24958200D01*
X309341800Y-24958200D02*
X309341800Y-23560000D01*
X309341800Y-23560000D02*
X311213600Y-21688200D01*
X311213600Y-21688200D02*
X311942200Y-21688200D01*
X311942200Y-21688200D02*
X312017800Y-21612600D01*
%TO.N,Net-(R3-Pad1)*%
X310613000Y-69474600D02*
X310613000Y-63829100D01*
X310613000Y-63829100D02*
X311713900Y-62728200D01*
X311713900Y-62728200D02*
X311713900Y-60499600D01*
X311713900Y-60499600D02*
X311737800Y-60475700D01*
X311737800Y-60475700D02*
X311737800Y-52912800D01*
X311737800Y-52912800D02*
X311864500Y-52786100D01*
X311864500Y-52786100D02*
X311864500Y-45153800D01*
X311864500Y-45153800D02*
X307632400Y-40921700D01*
X307632400Y-40921700D02*
X307632400Y-27413300D01*
X307632400Y-27413300D02*
X309951000Y-25094700D01*
X309951000Y-25094700D02*
X309951000Y-23657800D01*
X309951000Y-23657800D02*
X311176000Y-22432800D01*
X311176000Y-22432800D02*
X311197700Y-22432800D01*
X311197700Y-22432800D02*
X311452200Y-22178300D01*
X312212400Y-22938600D02*
X311452200Y-22178300D01*
%TO.N,Net-(D167-Pad2)*%
X288282800Y-99835700D02*
X287717800Y-100400700D01*
X287717800Y-100400700D02*
X287717800Y-102172700D01*
X287717800Y-102172700D02*
X294999200Y-109454100D01*
X294999200Y-109454100D02*
X294999200Y-113062100D01*
X294999200Y-113062100D02*
X304439300Y-122502200D01*
X304439300Y-122502200D02*
X315750800Y-122502200D01*
X315750800Y-122502200D02*
X325208200Y-113044800D01*
X325208200Y-113044800D02*
X325208200Y-109019800D01*
X325208200Y-109019800D02*
X333220300Y-101007700D01*
%TO.N,Net-(D101-Pad2)*%
X279438400Y-62738000D02*
X276430800Y-62738000D01*
X276430800Y-62738000D02*
X275437700Y-61744900D01*
%TO.N,Net-(D104-Pad2)*%
X158732800Y-26556100D02*
X157306800Y-25130100D01*
X157306800Y-25130100D02*
X119146800Y-25130100D01*
X119146800Y-25130100D02*
X118756300Y-24739600D01*
X265388700Y-29933400D02*
X275647100Y-29933400D01*
X275647100Y-29933400D02*
X287628600Y-41914900D01*
%TO.N,Net-(D109-Pad2)*%
X248101000Y-24000400D02*
X251394600Y-27294000D01*
X251394600Y-27294000D02*
X275030500Y-27294000D01*
X275030500Y-27294000D02*
X280452100Y-32715600D01*
X280452100Y-32715600D02*
X290451400Y-32715600D01*
X290451400Y-32715600D02*
X291646200Y-33910400D01*
X291646200Y-33910400D02*
X291646200Y-36757200D01*
X291646200Y-36757200D02*
X291329400Y-37074000D01*
X291329400Y-37074000D02*
X291329400Y-38321700D01*
X291329400Y-38321700D02*
X294788900Y-41781200D01*
X294788900Y-41781200D02*
X297802100Y-41781200D01*
%TO.N,Net-(D113-Pad2)*%
X122882300Y-100777700D02*
X121996000Y-99891400D01*
X121996000Y-99891400D02*
X100262000Y-99891400D01*
X100262000Y-99891400D02*
X100241700Y-99911700D01*
%TO.N,Net-(D114-Pad2)*%
X237079500Y-23812000D02*
X236957900Y-23933600D01*
X236957900Y-23933600D02*
X229002700Y-23933600D01*
%TO.N,Net-(D121-Pad2)*%
X185480900Y-61314700D02*
X184813100Y-61982500D01*
X184813100Y-61982500D02*
X180743000Y-61982500D01*
%TO.N,Net-(D124-Pad2)*%
X236311600Y-21169800D02*
X230333600Y-21169800D01*
X230333600Y-21169800D02*
X227484200Y-24019200D01*
X227484200Y-24019200D02*
X209968700Y-24019200D01*
%TO.N,Net-(D127-Pad2)*%
X322540300Y-80789500D02*
X321961200Y-80210400D01*
X321961200Y-80210400D02*
X316486000Y-80210400D01*
%TO.N,Net-(D131-Pad2)*%
X166782300Y-62424100D02*
X168317700Y-63959500D01*
X168317700Y-63959500D02*
X168317700Y-70070600D01*
X142842700Y-61808100D02*
X145633800Y-64599200D01*
X145633800Y-64599200D02*
X145633800Y-68496900D01*
%TO.N,Net-(D139-Pad2)*%
X318025400Y-37917700D02*
X323984100Y-37917700D01*
X323984100Y-37917700D02*
X325386100Y-36515700D01*
X325386100Y-36515700D02*
X325386100Y-34687500D01*
X325386100Y-34687500D02*
X326696500Y-33377100D01*
X326696500Y-33377100D02*
X327218900Y-33377100D01*
X327218900Y-33377100D02*
X327803600Y-32792400D01*
X327803600Y-32792400D02*
X327803600Y-32395700D01*
X327803600Y-32395700D02*
X329679900Y-30519400D01*
X329679900Y-30519400D02*
X329679900Y-27892700D01*
X329679900Y-27892700D02*
X333038800Y-24533800D01*
X267108700Y-23761500D02*
X275882200Y-23761500D01*
X275882200Y-23761500D02*
X281177500Y-29056800D01*
%TO.N,Net-(D141-Pad2)*%
X105043000Y-61990500D02*
X113563100Y-61990500D01*
X113563100Y-61990500D02*
X114328200Y-61225400D01*
%TO.N,Net-(D142-Pad2)*%
X209273400Y-9667200D02*
X209330000Y-9723800D01*
X209330000Y-9723800D02*
X312270000Y-9723800D01*
X312270000Y-9723800D02*
X312770100Y-10223900D01*
X312770100Y-10223900D02*
X313371000Y-10223900D01*
X313371000Y-10223900D02*
X313420800Y-10174100D01*
X313420800Y-10174100D02*
X375670200Y-10174100D01*
X375670200Y-10174100D02*
X378013900Y-12517800D01*
X378013900Y-12517800D02*
X378013900Y-71616400D01*
X378013900Y-71616400D02*
X376791100Y-72839200D01*
X76114300Y-23585900D02*
X76114300Y-17682500D01*
X76114300Y-17682500D02*
X79020700Y-14776100D01*
X79020700Y-14776100D02*
X79020700Y-12489100D01*
%TO.N,Net-(D143-Pad2)*%
X133576700Y-23504100D02*
X132200500Y-22127900D01*
X132200500Y-22127900D02*
X112915600Y-22127900D01*
X112915600Y-22127900D02*
X109797700Y-19010000D01*
%TO.N,Net-(D144-Pad2)*%
X324206800Y-41649300D02*
X331361400Y-41649300D01*
X331361400Y-41649300D02*
X333970700Y-39040000D01*
X333970700Y-39040000D02*
X333970700Y-36061700D01*
X333970700Y-36061700D02*
X331852900Y-33943900D01*
X331852900Y-33943900D02*
X331852900Y-31467600D01*
X331852900Y-31467600D02*
X335068200Y-28252300D01*
X335068200Y-28252300D02*
X335068200Y-24301000D01*
X292780600Y-29865000D02*
X287688700Y-29865000D01*
X287688700Y-29865000D02*
X282580500Y-24756800D01*
%TO.N,Net-(D151-Pad2)*%
X67191700Y-61651100D02*
X88830000Y-61651100D01*
X88830000Y-61651100D02*
X89916900Y-62738000D01*
%TO.N,Net-(D152-Pad2)*%
X313070500Y-9498600D02*
X313295700Y-9723800D01*
X313295700Y-9723800D02*
X375983200Y-9723800D01*
X375983200Y-9723800D02*
X378633000Y-12373600D01*
X378633000Y-12373600D02*
X378633000Y-13159300D01*
X378633000Y-13159300D02*
X379865500Y-14391800D01*
X379865500Y-14391800D02*
X379865500Y-107571700D01*
X379865500Y-107571700D02*
X376895800Y-110541400D01*
X376895800Y-110541400D02*
X373978100Y-110541400D01*
X373978100Y-110541400D02*
X373522600Y-110085900D01*
X373522600Y-110085900D02*
X373522600Y-106987400D01*
X373522600Y-106987400D02*
X369841800Y-103306600D01*
X113687800Y-23215200D02*
X114085900Y-22817100D01*
X114085900Y-22817100D02*
X118496600Y-22817100D01*
X118496600Y-22817100D02*
X119909000Y-24229500D01*
X119909000Y-24229500D02*
X133964200Y-24229500D01*
X133964200Y-24229500D02*
X137606700Y-20587000D01*
X137606700Y-20587000D02*
X149399800Y-20587000D01*
X149399800Y-20587000D02*
X153045200Y-16941600D01*
X153045200Y-16941600D02*
X153045200Y-15837800D01*
%TO.N,Net-(D155-Pad2)*%
X279972600Y-43735200D02*
X301009100Y-43735200D01*
X301009100Y-43735200D02*
X302707400Y-42036900D01*
X323438000Y-43216900D02*
X316823900Y-43216900D01*
X316823900Y-43216900D02*
X316604500Y-42997500D01*
%TO.N,Net-(D157-Pad2)*%
X348340200Y-100012700D02*
X349638500Y-98714400D01*
X349638500Y-98714400D02*
X350955200Y-98714400D01*
%TO.N,Net-(D163-Pad2)*%
X235286000Y-111687000D02*
X228963600Y-105364600D01*
X228963600Y-105364600D02*
X228963600Y-100164400D01*
X228963600Y-100164400D02*
X225195400Y-96396200D01*
X225195400Y-96396200D02*
X225195400Y-84102600D01*
X225195400Y-84102600D02*
X233860400Y-75437600D01*
X233860400Y-75437600D02*
X233860400Y-67999000D01*
X233860400Y-67999000D02*
X229040200Y-63178800D01*
X229040200Y-63178800D02*
X229040200Y-56094100D01*
X229040200Y-56094100D02*
X229298400Y-55835900D01*
X229298400Y-55835900D02*
X229298400Y-49770600D01*
X229298400Y-49770600D02*
X227347500Y-47819700D01*
X227347500Y-47819700D02*
X223428900Y-47819700D01*
X223428900Y-47819700D02*
X222014700Y-46405500D01*
X222014700Y-46405500D02*
X213730500Y-46405500D01*
X213730500Y-46405500D02*
X205545400Y-38220400D01*
X205545400Y-38220400D02*
X205545400Y-37121900D01*
X205545400Y-37121900D02*
X205879200Y-36788100D01*
X205879200Y-36788100D02*
X205879200Y-33673800D01*
X205879200Y-33673800D02*
X205732000Y-33526600D01*
X205732000Y-33526600D02*
X202788300Y-33526600D01*
X202788300Y-33526600D02*
X201684300Y-34630600D01*
X201684300Y-34630600D02*
X194763500Y-34630600D01*
X194763500Y-34630600D02*
X193497900Y-33365000D01*
X193497900Y-33365000D02*
X193497900Y-31428700D01*
X193497900Y-31428700D02*
X200075600Y-24851000D01*
X231225700Y-119173400D02*
X238105600Y-119173400D01*
X238105600Y-119173400D02*
X243572400Y-113706600D01*
%TO.N,Net-(J2-Pad3)*%
X335405000Y-40543900D02*
X327997600Y-47951300D01*
X327997600Y-47951300D02*
X321853300Y-47951300D01*
X321853300Y-47951300D02*
X316624300Y-53180300D01*
X316624300Y-53180300D02*
X314758200Y-53180300D01*
X314758200Y-53180300D02*
X313095800Y-54842700D01*
X313095800Y-54842700D02*
X313095800Y-58702800D01*
X313095800Y-58702800D02*
X313581500Y-59188500D01*
X326897300Y-32650900D02*
X328422400Y-31125800D01*
X328422400Y-31125800D02*
X328422400Y-21083500D01*
X328422400Y-21083500D02*
X327180500Y-19841600D01*
%TO.N,Net-(J2-Pad2)*%
X349247900Y-50176800D02*
X347895800Y-48824700D01*
X347895800Y-48824700D02*
X347895800Y-36885300D01*
X347895800Y-36885300D02*
X348235500Y-36545600D01*
X348235500Y-36545600D02*
X348235500Y-34508000D01*
X348235500Y-34508000D02*
X347182700Y-33455200D01*
X347182700Y-33455200D02*
X339949300Y-33455200D01*
X339949300Y-33455200D02*
X339063100Y-34341400D01*
X339063100Y-34341400D02*
X335960100Y-34341400D01*
X335960100Y-34341400D02*
X335813400Y-34194700D01*
X335813400Y-34194700D02*
X335813400Y-20037400D01*
X335813400Y-20037400D02*
X333770800Y-17994800D01*
X321254000Y-69168000D02*
X322061100Y-69168000D01*
X322061100Y-69168000D02*
X336969300Y-54259800D01*
X336969300Y-54259800D02*
X336969300Y-53824100D01*
%TO.N,ROW6*%
X375428000Y-13589000D02*
X375428000Y-12013700D01*
X375428000Y-12013700D02*
X375165900Y-11751600D01*
X375165900Y-11751600D02*
X356767100Y-11751600D01*
X356767100Y-11751600D02*
X356505000Y-12013700D01*
X337455000Y-12013700D02*
X337719300Y-11749400D01*
X337719300Y-11749400D02*
X356240700Y-11749400D01*
X356240700Y-11749400D02*
X356505000Y-12013700D01*
X356505000Y-13589000D02*
X356505000Y-12013700D01*
X337455000Y-12013700D02*
X337203600Y-11762300D01*
X337203600Y-11762300D02*
X327789000Y-11762300D01*
X327789000Y-11762300D02*
X327397300Y-12154000D01*
X327397300Y-12154000D02*
X313524000Y-12154000D01*
X318947500Y-30805000D02*
X318996800Y-30755700D01*
X318996800Y-30755700D02*
X318996800Y-25751800D01*
X318996800Y-25751800D02*
X319340800Y-25407800D01*
X319340800Y-25407800D02*
X319340800Y-24806800D01*
X319340800Y-24806800D02*
X318916000Y-24382000D01*
X318916000Y-24382000D02*
X317578700Y-24382000D01*
X317578700Y-24382000D02*
X316154100Y-25806600D01*
X316154100Y-25806600D02*
X313755800Y-25806600D01*
X313755800Y-25806600D02*
X313036500Y-25087300D01*
X319707800Y-31565400D02*
X318947500Y-30805000D01*
X313524000Y-12154000D02*
X313133600Y-11763600D01*
X313133600Y-11763600D02*
X294576100Y-11763600D01*
X294576100Y-11763600D02*
X294326000Y-12013700D01*
X275276000Y-12013700D02*
X275544300Y-11745400D01*
X275544300Y-11745400D02*
X294057700Y-11745400D01*
X294057700Y-11745400D02*
X294326000Y-12013700D01*
X294326000Y-13589000D02*
X294326000Y-12013700D01*
X275276000Y-12013700D02*
X275009200Y-11746900D01*
X275009200Y-11746900D02*
X256672900Y-11746900D01*
X256672900Y-11746900D02*
X256226000Y-12193800D01*
X238776400Y-30006300D02*
X238776400Y-17306300D01*
X238776400Y-17306300D02*
X236905200Y-15435100D01*
X239472000Y-107380700D02*
X236816800Y-107380700D01*
X236816800Y-107380700D02*
X225648800Y-96212700D01*
X225648800Y-96212700D02*
X225648800Y-84286100D01*
X225648800Y-84286100D02*
X234310700Y-75624200D01*
X234310700Y-75624200D02*
X234310700Y-67812400D01*
X234310700Y-67812400D02*
X230232700Y-63734400D01*
X230232700Y-63734400D02*
X230232700Y-57461700D01*
X230232700Y-57461700D02*
X230490800Y-57203600D01*
X230490800Y-57203600D02*
X230490800Y-56094000D01*
X230490800Y-56094000D02*
X230232600Y-55835800D01*
X230232600Y-55835800D02*
X230232600Y-48343200D01*
X230232600Y-48343200D02*
X221725700Y-39836300D01*
X221725700Y-39836300D02*
X221725700Y-33736800D01*
X221725700Y-33736800D02*
X224693900Y-30768600D01*
X224693900Y-30768600D02*
X234182200Y-30768600D01*
X234182200Y-30768600D02*
X235251300Y-31837700D01*
X235251300Y-31837700D02*
X235251300Y-33678400D01*
X235251300Y-33678400D02*
X235797800Y-34224900D01*
X235797800Y-34224900D02*
X238546400Y-34224900D01*
X238546400Y-34224900D02*
X238776400Y-33994900D01*
X238776400Y-33994900D02*
X238776400Y-30006300D01*
X337455000Y-13589000D02*
X337455000Y-12013700D01*
X313524000Y-12200800D02*
X313524000Y-12154000D01*
X313524000Y-12219900D02*
X313524000Y-12200800D01*
X313524000Y-13589000D02*
X313524000Y-12219900D01*
X256226000Y-12193800D02*
X256226000Y-12153000D01*
X256226000Y-13589000D02*
X256226000Y-12193800D01*
X275276000Y-13589000D02*
X275276000Y-12013700D01*
X237176000Y-13833700D02*
X239246100Y-11763600D01*
X239246100Y-11763600D02*
X255836600Y-11763600D01*
X255836600Y-11763600D02*
X256226000Y-12153000D01*
X237176000Y-13833700D02*
X237176000Y-15164300D01*
X237176000Y-13589000D02*
X237176000Y-13833700D01*
X236905200Y-15435100D02*
X232474300Y-15435100D01*
X232474300Y-15435100D02*
X230628200Y-13589000D01*
X230628200Y-13589000D02*
X219726300Y-13589000D01*
X237176000Y-15164300D02*
X236905200Y-15435100D01*
X218126000Y-13589000D02*
X219726300Y-13589000D01*
X239472000Y-108956000D02*
X239472000Y-107380700D01*
%TO.N,Net-(D180-Pad2)*%
X206657200Y-11387100D02*
X207370100Y-10674200D01*
X207370100Y-10674200D02*
X375505100Y-10674200D01*
X375505100Y-10674200D02*
X377508300Y-12677400D01*
X377508300Y-12677400D02*
X377508300Y-48298400D01*
X377508300Y-48298400D02*
X376788700Y-49018000D01*
X75937900Y-24788100D02*
X81197500Y-19528500D01*
X81197500Y-19528500D02*
X81197500Y-18633900D01*
X81197500Y-18633900D02*
X84050700Y-15780700D01*
X370814100Y-60565200D02*
X369509200Y-61870100D01*
X369509200Y-61870100D02*
X367259600Y-61870100D01*
%TO.N,Net-(D185-Pad2)*%
X371045800Y-62901700D02*
X366056600Y-62901700D01*
X366056600Y-62901700D02*
X365659100Y-63299200D01*
%TO.N,Net-(D187-Pad2)*%
X217878500Y-100990000D02*
X217054500Y-100166000D01*
X217054500Y-100166000D02*
X194982700Y-100166000D01*
%TO.N,Net-(D192-Pad2)*%
X175918000Y-100010700D02*
X176896800Y-100989500D01*
X176896800Y-100989500D02*
X198750900Y-100989500D01*
%TO.N,Net-(D195-Pad2)*%
X304438300Y-65265100D02*
X300811200Y-61638000D01*
X300811200Y-61638000D02*
X300430200Y-61638000D01*
X333002600Y-63110500D02*
X326059600Y-70053500D01*
X326059600Y-70053500D02*
X321823500Y-70053500D01*
%TO.N,Net-(C107-Pad1)*%
X318754400Y-36337000D02*
X319516700Y-36337000D01*
X319516700Y-36337000D02*
X322508700Y-33345000D01*
X322508700Y-33345000D02*
X323145400Y-33345000D01*
X323145400Y-33345000D02*
X323595700Y-32894700D01*
X323595700Y-32894700D02*
X323595800Y-32894700D01*
X323595800Y-32894700D02*
X323830500Y-32660000D01*
X323830500Y-32660000D02*
X324735800Y-32660000D01*
X324735800Y-32660000D02*
X324739300Y-32656500D01*
X324739300Y-32656500D02*
X324767300Y-32656500D01*
X324767300Y-32656500D02*
X325192100Y-32231700D01*
X325192100Y-32231700D02*
X325192100Y-31916900D01*
X325192100Y-31916900D02*
X325444900Y-31664100D01*
X325444900Y-31664100D02*
X325444900Y-31559100D01*
X325444900Y-31559100D02*
X326452600Y-30551400D01*
X326452600Y-30551400D02*
X326452600Y-28989600D01*
X326452600Y-28989600D02*
X326874000Y-28568200D01*
X326874000Y-28568200D02*
X326874000Y-28421800D01*
X326874000Y-28421800D02*
X326967200Y-28328600D01*
X326967200Y-28328600D02*
X326967200Y-24905200D01*
X326967200Y-24905200D02*
X326874000Y-24812000D01*
X326874000Y-24812000D02*
X326874000Y-23169500D01*
X326874000Y-23169500D02*
X326870300Y-23165800D01*
X326870300Y-23165800D02*
X326870300Y-22878400D01*
X326870300Y-22878400D02*
X323845500Y-19853600D01*
X323845500Y-19853600D02*
X323190700Y-19853600D01*
X323190700Y-19853600D02*
X322730800Y-20313500D01*
X322730800Y-20313500D02*
X322730800Y-20481200D01*
X322730800Y-20481200D02*
X322730900Y-20481200D01*
X321970500Y-21241600D02*
X322730900Y-20481200D01*
%TO.N,Net-(C108-Pad1)*%
X324067600Y-33448900D02*
X324406200Y-33110300D01*
X324406200Y-33110300D02*
X324922400Y-33110300D01*
X324922400Y-33110300D02*
X324925900Y-33106800D01*
X324925900Y-33106800D02*
X324953900Y-33106800D01*
X324953900Y-33106800D02*
X325642400Y-32418300D01*
X325642400Y-32418300D02*
X325642400Y-32103500D01*
X325642400Y-32103500D02*
X325895200Y-31850700D01*
X325895200Y-31850700D02*
X325895200Y-31745700D01*
X325895200Y-31745700D02*
X326902900Y-30738000D01*
X326902900Y-30738000D02*
X326902900Y-29176200D01*
X326902900Y-29176200D02*
X327324300Y-28754800D01*
X327324300Y-28754800D02*
X327324300Y-28608400D01*
X327324300Y-28608400D02*
X327436900Y-28495800D01*
X327436900Y-28495800D02*
X327436900Y-24737900D01*
X327436900Y-24737900D02*
X327324300Y-24625300D01*
X327324300Y-24625300D02*
X327324300Y-22676400D01*
X327324300Y-22676400D02*
X324051100Y-19403200D01*
X324051100Y-19403200D02*
X323003600Y-19403200D01*
X323003600Y-19403200D02*
X322491200Y-19915600D01*
X322491200Y-19915600D02*
X322165200Y-19915600D01*
X322165200Y-19915600D02*
X322165200Y-19915500D01*
X321404800Y-20675900D02*
X322165200Y-19915500D01*
%TO.N,Net-(C109-Pad2)*%
X313909500Y-21241600D02*
X314669900Y-22001900D01*
X314615100Y-22452000D02*
X314615100Y-22056700D01*
X314615100Y-22056700D02*
X314669900Y-22001900D01*
%TO.N,Net-(D60-Pad1)*%
X261426000Y-36709200D02*
X261426000Y-40221500D01*
X261426000Y-40221500D02*
X268344000Y-47139500D01*
X268344000Y-47139500D02*
X268344000Y-58966200D01*
X268344000Y-58966200D02*
X280307400Y-70929600D01*
X280307400Y-70929600D02*
X280906300Y-70929600D01*
X280906300Y-70929600D02*
X290375900Y-80399200D01*
X290375900Y-80399200D02*
X292240700Y-80399200D01*
X292240700Y-80399200D02*
X300199400Y-88357900D01*
X300199400Y-88357900D02*
X300199400Y-89034200D01*
X300199400Y-89034200D02*
X312624600Y-101459400D01*
X312624600Y-101459400D02*
X312848400Y-101459400D01*
X312848400Y-101459400D02*
X314269400Y-102880400D01*
X314269400Y-102880400D02*
X314269400Y-103727700D01*
X314269400Y-103727700D02*
X314269500Y-103727700D01*
X314269500Y-103727700D02*
X314448200Y-103906400D01*
X261426000Y-35133900D02*
X261426000Y-36709200D01*
%TO.N,Net-(D85-Pad1)*%
X323605000Y-36881300D02*
X323293900Y-37192400D01*
X323293900Y-37192400D02*
X317725000Y-37192400D01*
X317725000Y-37192400D02*
X316576600Y-38340800D01*
X316576600Y-38340800D02*
X316576600Y-38520500D01*
X94524600Y-41458600D02*
X94524600Y-47167900D01*
X94524600Y-47167900D02*
X95313400Y-47956700D01*
X323605000Y-35306000D02*
X323605000Y-36881300D01*
%TO.N,Net-(D86-Pad1)*%
X51876000Y-14553700D02*
X52172600Y-14257100D01*
X52172600Y-14257100D02*
X58641700Y-14257100D01*
X58641700Y-14257100D02*
X60489100Y-16104500D01*
X60489100Y-16104500D02*
X64092400Y-16104500D01*
X64092400Y-16104500D02*
X65692300Y-17704400D01*
X65692300Y-17704400D02*
X72415000Y-17704400D01*
X72415000Y-17704400D02*
X72641200Y-17478200D01*
X72641200Y-17478200D02*
X72641200Y-15494000D01*
X72641200Y-15494000D02*
X76375800Y-11759400D01*
X76375800Y-11759400D02*
X86000500Y-11759400D01*
X86000500Y-11759400D02*
X86376400Y-12135300D01*
X86376400Y-12135300D02*
X86376400Y-16444100D01*
X86376400Y-16444100D02*
X93499900Y-23567600D01*
X93499900Y-23567600D02*
X93499900Y-30030700D01*
X51876000Y-16129000D02*
X51876000Y-14553700D01*
X147674600Y-40867800D02*
X147766800Y-40960000D01*
X147766800Y-40960000D02*
X156464200Y-40960000D01*
X156464200Y-40960000D02*
X157466600Y-39957600D01*
X157466600Y-39957600D02*
X158424000Y-39957600D01*
X158424000Y-39957600D02*
X162774300Y-44307900D01*
X162774300Y-44307900D02*
X162774300Y-45931400D01*
%TO.N,Net-(D87-Pad1)*%
X313831700Y-57185000D02*
X316935700Y-54081000D01*
X316935700Y-54081000D02*
X317313800Y-54081000D01*
X317313800Y-54081000D02*
X321962700Y-49432100D01*
X321962700Y-49432100D02*
X322035400Y-49432100D01*
X361578000Y-54229000D02*
X359812900Y-54229000D01*
X359812900Y-54229000D02*
X358403300Y-52819400D01*
X144115900Y-48976800D02*
X143486700Y-48347600D01*
X143486700Y-48347600D02*
X123711600Y-48347600D01*
X123711600Y-48347600D02*
X122519600Y-47155600D01*
%TO.N,Net-(D88-Pad1)*%
X316571200Y-61696200D02*
X316571200Y-58258900D01*
X316571200Y-58258900D02*
X325007100Y-49823000D01*
X325007100Y-49823000D02*
X338647300Y-49823000D01*
X338647300Y-49823000D02*
X339837800Y-51013500D01*
X339837800Y-51013500D02*
X339837800Y-62025300D01*
X339837800Y-62025300D02*
X354901800Y-77089300D01*
X354901800Y-77089300D02*
X354901800Y-91196400D01*
X354901800Y-91196400D02*
X356034400Y-92329000D01*
X356034400Y-92329000D02*
X361578000Y-92329000D01*
%TO.N,Net-(D89-Pad1)*%
X157808000Y-30039900D02*
X100878400Y-30039900D01*
X100878400Y-30039900D02*
X86826700Y-15988200D01*
X86826700Y-15988200D02*
X86826700Y-11948700D01*
X86826700Y-11948700D02*
X86187100Y-11309100D01*
X86187100Y-11309100D02*
X74170600Y-11309100D01*
X74170600Y-11309100D02*
X70926000Y-14553700D01*
X70926000Y-16129000D02*
X70926000Y-14553700D01*
X204072200Y-37785700D02*
X213582000Y-47295500D01*
X213582000Y-47295500D02*
X215155200Y-47295500D01*
%TO.N,Net-(D90-Pad1)*%
X32826000Y-16129000D02*
X32826000Y-17914500D01*
X32826000Y-17914500D02*
X37102000Y-22190500D01*
X37102000Y-22190500D02*
X42365100Y-22190500D01*
X201468500Y-23396700D02*
X201468500Y-24905500D01*
X201468500Y-24905500D02*
X197472800Y-28901200D01*
X197472800Y-28901200D02*
X197472800Y-33983200D01*
X197472800Y-33983200D02*
X197658900Y-34169300D01*
X197658900Y-34169300D02*
X200567800Y-34169300D01*
X200567800Y-34169300D02*
X201698900Y-33038200D01*
X201698900Y-33038200D02*
X210495200Y-33038200D01*
X210495200Y-33038200D02*
X223695000Y-46238000D01*
X223695000Y-46238000D02*
X223695000Y-46423200D01*
%TO.N,Net-(D91-Pad1)*%
X253270000Y-39380800D02*
X246080400Y-46570400D01*
X246080400Y-46570400D02*
X242947500Y-46570400D01*
X242947500Y-46570400D02*
X242362300Y-47155600D01*
X361578000Y-35306000D02*
X361578000Y-36881300D01*
X323580400Y-39406400D02*
X318013000Y-39406400D01*
X361578000Y-36881300D02*
X360544100Y-37915200D01*
X360544100Y-37915200D02*
X360544100Y-41464400D01*
%TO.N,Net-(D92-Pad1)*%
X253286300Y-47408100D02*
X249284600Y-51409800D01*
X249284600Y-51409800D02*
X249284600Y-57211500D01*
X249284600Y-57211500D02*
X253666200Y-61593100D01*
X253666200Y-61593100D02*
X253666200Y-68233700D01*
X253666200Y-68233700D02*
X253945600Y-68513100D01*
X253945600Y-68513100D02*
X253945600Y-76897300D01*
X253945600Y-76897300D02*
X258940900Y-81892600D01*
X258940900Y-81892600D02*
X258940900Y-91188600D01*
X258940900Y-91188600D02*
X259618600Y-91866300D01*
X259618600Y-91866300D02*
X275614800Y-91866300D01*
X275614800Y-91866300D02*
X290704300Y-106955800D01*
X361578000Y-111506000D02*
X357471400Y-111506000D01*
X357471400Y-111506000D02*
X357128400Y-111163000D01*
%TO.N,Net-(D93-Pad1)*%
X264467600Y-47467900D02*
X267387300Y-50387600D01*
X267387300Y-50387600D02*
X267387300Y-60948000D01*
X267387300Y-60948000D02*
X293095000Y-86655700D01*
X293095000Y-86655700D02*
X296586500Y-86655700D01*
X296586500Y-86655700D02*
X298222400Y-88291600D01*
X298222400Y-88291600D02*
X298222400Y-91294500D01*
X298222400Y-91294500D02*
X296857300Y-92659600D01*
X296857300Y-92659600D02*
X296010600Y-92659600D01*
X296010600Y-92659600D02*
X289640200Y-99030000D01*
X289640200Y-99030000D02*
X288007600Y-99030000D01*
X288007600Y-99030000D02*
X287265800Y-99771800D01*
X287265800Y-99771800D02*
X287265800Y-102357700D01*
X287265800Y-102357700D02*
X294098600Y-109190500D01*
X294098600Y-109190500D02*
X294098600Y-112798400D01*
X294098600Y-112798400D02*
X304312700Y-123012500D01*
X304312700Y-123012500D02*
X332723800Y-123012500D01*
X332723800Y-123012500D02*
X342655000Y-113081300D01*
X342655000Y-111506000D02*
X342655000Y-113081300D01*
%TO.N,Net-(D94-Pad1)*%
X139455600Y-49929000D02*
X142804000Y-53277400D01*
X142804000Y-53277400D02*
X142804000Y-55292000D01*
X142804000Y-55292000D02*
X142406100Y-55689900D01*
X142406100Y-55689900D02*
X142406100Y-57608900D01*
X142406100Y-57608900D02*
X147267000Y-62469800D01*
X147267000Y-62469800D02*
X147267000Y-68349700D01*
X147267000Y-68349700D02*
X146394300Y-69222400D01*
X146394300Y-69222400D02*
X145297300Y-69222400D01*
X145297300Y-69222400D02*
X144627300Y-68552400D01*
X144627300Y-68552400D02*
X144627300Y-68477700D01*
X323605000Y-111506000D02*
X323605000Y-109930700D01*
X323605000Y-109930700D02*
X323605000Y-100597600D01*
X323605000Y-100597600D02*
X312865200Y-89857800D01*
X312865200Y-89857800D02*
X312865200Y-76976400D01*
%TO.N,Net-(D104-Pad4)*%
X371143600Y-119063700D02*
X380315900Y-109891400D01*
X380315900Y-109891400D02*
X380315900Y-13320600D01*
X380315900Y-13320600D02*
X375982300Y-8987000D01*
X375982300Y-8987000D02*
X313584700Y-8987000D01*
X313584700Y-8987000D02*
X313371000Y-8773300D01*
X313371000Y-8773300D02*
X312770100Y-8773300D01*
X312770100Y-8773300D02*
X312353000Y-9190400D01*
X312353000Y-9190400D02*
X209822400Y-9190400D01*
X209822400Y-9190400D02*
X209573900Y-8941900D01*
X209573900Y-8941900D02*
X206710200Y-8941900D01*
X206710200Y-8941900D02*
X200211500Y-15440600D01*
X200211500Y-15440600D02*
X194509000Y-15440600D01*
X194509000Y-15440600D02*
X192919400Y-13851000D01*
X192919400Y-13851000D02*
X182807800Y-13851000D01*
X182807800Y-13851000D02*
X180656200Y-16002600D01*
X180656200Y-16002600D02*
X173076500Y-16002600D01*
X173076500Y-16002600D02*
X164849600Y-24229500D01*
X164849600Y-24229500D02*
X134713900Y-24229500D01*
X134713900Y-24229500D02*
X134263600Y-24679800D01*
X134263600Y-24679800D02*
X119722400Y-24679800D01*
X119722400Y-24679800D02*
X118625300Y-23582700D01*
X118625300Y-23582700D02*
X114743200Y-23582700D01*
%TO.N,Net-(D169-Pad2)*%
X175394600Y-118955100D02*
X143978400Y-118955100D01*
X143978400Y-118955100D02*
X143003500Y-119930000D01*
%TO.N,Net-(D170-Pad2)*%
X315808900Y-13991700D02*
X316401400Y-13399200D01*
X316401400Y-13399200D02*
X329812200Y-13399200D01*
X329812200Y-13399200D02*
X332717900Y-16304900D01*
X332717900Y-16304900D02*
X336182300Y-16304900D01*
X336182300Y-16304900D02*
X341936300Y-22058900D01*
X341936300Y-22058900D02*
X341936300Y-23802500D01*
X341936300Y-23802500D02*
X348582900Y-30449100D01*
X348582900Y-30449100D02*
X363456600Y-30449100D01*
X363456600Y-30449100D02*
X367345600Y-34338100D01*
%TO.N,Net-(D177-Pad2)*%
X233181100Y-100131500D02*
X235141400Y-102091800D01*
X235141400Y-102091800D02*
X235317800Y-102091800D01*
%TO.N,RESET*%
X314273800Y-52554200D02*
X316613500Y-52554200D01*
X316613500Y-52554200D02*
X321891800Y-47275900D01*
X321891800Y-47275900D02*
X327730000Y-47275900D01*
X327730000Y-47275900D02*
X334679700Y-40326200D01*
X334679700Y-40326200D02*
X334679700Y-40243500D01*
X334679700Y-40243500D02*
X335149100Y-39774100D01*
X335149100Y-39774100D02*
X336041500Y-39774100D01*
X336041500Y-39774100D02*
X337825200Y-37990400D01*
X337825200Y-37990400D02*
X337825200Y-35925300D01*
X315061400Y-67935000D02*
X315061400Y-65287500D01*
X315061400Y-65287500D02*
X312645500Y-62871600D01*
X312645500Y-62871600D02*
X312645500Y-54182500D01*
X312645500Y-54182500D02*
X314273800Y-52554200D01*
X314273800Y-52554200D02*
X313807900Y-52088300D01*
X313807900Y-52088300D02*
X313807900Y-51823500D01*
X318947500Y-19739100D02*
X319007400Y-19799100D01*
X319007400Y-19799100D02*
X319007400Y-23836500D01*
X319007400Y-23836500D02*
X319791100Y-24620200D01*
X319791100Y-24620200D02*
X319791100Y-24878200D01*
X319791100Y-24878200D02*
X321169100Y-26256200D01*
X321169100Y-26256200D02*
X322269300Y-26256200D01*
X322269300Y-26256200D02*
X322681500Y-26668400D01*
X318263800Y-113907100D02*
X318263800Y-96714000D01*
X318263800Y-96714000D02*
X312125200Y-90575400D01*
X312125200Y-90575400D02*
X312125200Y-70871200D01*
X312125200Y-70871200D02*
X315061400Y-67935000D01*
X319707800Y-18978800D02*
X318947500Y-19739100D01*
%TO.N,VCC*%
X315234200Y-32785100D02*
X315871300Y-32785100D01*
X315871300Y-32785100D02*
X315977600Y-32891300D01*
X310320800Y-27234500D02*
X310594500Y-27508300D01*
X310594500Y-27508300D02*
X310594500Y-28145400D01*
X310594500Y-28145400D02*
X315234200Y-32785100D01*
X315234200Y-32785100D02*
X310826100Y-37193200D01*
X310826100Y-37193200D02*
X310826100Y-42204400D01*
X310826100Y-42204400D02*
X315318400Y-46696700D01*
X315318400Y-46696700D02*
X315318400Y-51242200D01*
X323473000Y-26279500D02*
X322520000Y-25326600D01*
X322520000Y-25326600D02*
X321753800Y-25326600D01*
X321753800Y-25326600D02*
X321753800Y-24943000D01*
X321753800Y-24943000D02*
X319833400Y-23022600D01*
X319833400Y-23022600D02*
X319833400Y-22637800D01*
X319833400Y-22637800D02*
X319608200Y-22412600D01*
X319608200Y-22412600D02*
X319608200Y-20399900D01*
X319608200Y-20399900D02*
X319513200Y-20304800D01*
X321553100Y-25527300D02*
X321753800Y-25326600D01*
X316737900Y-32131000D02*
X315977600Y-32891300D01*
X311081100Y-26474200D02*
X310320800Y-27234500D01*
X312407100Y-24264600D02*
X312300300Y-24371400D01*
X312300300Y-24371400D02*
X312300300Y-25038700D01*
X312300300Y-25038700D02*
X311970200Y-25368800D01*
X311970200Y-25368800D02*
X311970200Y-25585100D01*
X311970200Y-25585100D02*
X311081100Y-26474200D01*
X320273500Y-19544500D02*
X319513200Y-20304800D01*
X319589300Y-17336600D02*
X319335300Y-17336600D01*
X319335300Y-17336600D02*
X317418900Y-19253000D01*
X317418900Y-19253000D02*
X317418900Y-20678400D01*
X321033800Y-18784200D02*
X320808400Y-18558900D01*
X320808400Y-18558900D02*
X320808400Y-18555700D01*
X320808400Y-18555700D02*
X319589300Y-17336600D01*
X312407100Y-24264600D02*
X312833500Y-24264600D01*
X312833500Y-24264600D02*
X312896500Y-24201600D01*
X312896500Y-24201600D02*
X313540200Y-24201600D01*
X313540200Y-24201600D02*
X313608700Y-24133100D01*
X313608700Y-24133100D02*
X314018600Y-24133100D01*
X314018600Y-24133100D02*
X314087300Y-24064400D01*
X314087300Y-24064400D02*
X314217800Y-24064400D01*
X314217800Y-24064400D02*
X314642600Y-23639600D01*
X314642600Y-23639600D02*
X314642600Y-23509100D01*
X314642600Y-23509100D02*
X315372200Y-22779500D01*
X315372200Y-22779500D02*
X315372200Y-21436200D01*
X321700500Y-15025200D02*
X319589300Y-17136400D01*
X319589300Y-17136400D02*
X319589300Y-17336600D01*
X320273500Y-19544500D02*
X321033800Y-18784200D01*
X317418900Y-20678400D02*
X316130000Y-20678400D01*
X316130000Y-20678400D02*
X315372200Y-21436200D01*
X324233300Y-27039900D02*
X323473000Y-26279500D01*
X315372200Y-21436200D02*
X315235600Y-21436200D01*
X314475200Y-20675900D02*
X315235600Y-21436200D01*
X311646700Y-23504300D02*
X312407100Y-24264600D01*
%TD*%
M02*
