M48
; DRILL file {KiCad (5.1.10)-1} date 11/11/21 14:39:19
; FORMAT={-:-/ absolute / metric / decimal}
; #@! TF.CreationDate,2021-11-11T14:39:19-08:00
; #@! TF.GenerationSoftware,Kicad,Pcbnew,(5.1.10)-1
; #@! TF.FileFunction,Plated,1,2,PTH
FMAT,2
METRIC
T1C0.400
T2C0.650
%
G90
G05
T1
X39.658Y-48.832
X40.087Y-41.879
X40.398Y-49.694
X41.323Y-46.281
X43.416Y-84.045
X45.328Y-82.632
X47.107Y-48.381
X48.247Y-48.409
X50.18Y-41.568
X51.062Y-61.888
X53.082Y-59.869
X54.881Y-93.211
X60.933Y-67.134
X61.374Y-48.357
X61.659Y-68.633
X63.011Y-92.435
X64.029Y-30.011
X65.841Y-61.4
X66.078Y-49.319
X67.765Y-48.234
X69.499Y-53.429
X70.064Y-45.585
X70.093Y-78.906
X71.222Y-48.243
X71.548Y-90.986
X72.549Y-92.944
X73.312Y-85.311
X74.229Y-41.42
X75.101Y-60.216
X75.901Y-24.802
X76.008Y-53.417
X76.332Y-23.645
X77.209Y-12.468
X77.985Y-65.854
X78.202Y-63.829
X79.083Y-78.73
X79.134Y-46.23
X80.185Y-48.309
X80.608Y-68.619
X81.144Y-77.047
X81.145Y-65.828
X81.197Y-84.082
X81.197Y-86.767
X82.058Y-66.966
X82.058Y-68.619
X82.059Y-69.727
X82.202Y-48.835
X82.518Y-90.999
X83.114Y-98.043
X83.897Y-49.965
X83.935Y-15.451
X84.026Y-45.832
X85.117Y-26.552
X88.072Y-85.357
X90.081Y-47.2
X90.323Y-60.187
X90.409Y-26.092
X91.11Y-93.337
X91.228Y-44.824
X91.814Y-55.077
X92.036Y-69.727
X92.575Y-120.084
X92.727Y-64.312
X93.099Y-41.793
X93.531Y-45.436
X93.605Y-27.447
X93.83Y-59.228
X93.928Y-54.109
X94.274Y-84.2
X94.58Y-45.454
X95.176Y-59.325
X97.086Y-65.102
X97.338Y-58.878
X99.542Y-26.344
X99.846Y-85.357
X100.237Y-99.881
X100.3Y-45.266
X101.777Y-46.363
X102.092Y-27.719
X102.697Y-23.801
X103.656Y-40.503
X104.372Y-51.015
X105.03Y-21.468
X105.267Y-84.134
X106.033Y-46.679
X109.39Y-83.059
X109.798Y-85.084
X111.905Y-48.563
X112.08Y-45.324
X112.526Y-53.725
X112.609Y-69.15
X112.632Y-47.837
X114.769Y-23.64
X115.728Y-85.357
X117.316Y-64.946
X117.829Y-119.083
X118.087Y-47.156
X118.378Y-25.566
X118.855Y-20.735
X119.583Y-23.607
X119.638Y-64.028
X119.914Y-19.845
X119.989Y-49.019
X120.028Y-124.391
X120.254Y-26.02
X121.062Y-58.75
X122.831Y-47.582
X122.881Y-100.703
X123.95Y-61.824
X126.353Y-85.605
X126.604Y-64.744
X127.032Y-69.184
X127.453Y-93.464
X127.661Y-83.229
X129.09Y-68.059
X129.096Y-25.221
X129.48Y-83.455
X129.531Y-61.313
X130.401Y-29.463
X130.848Y-87.678
X131.539Y-96.045
X132.023Y-83.974
X133.59Y-47.602
X134.743Y-87.998
X136.932Y-45.98
X141.146Y-87.432
X144.031Y-48.333
X144.146Y-88.203
X145.503Y-26.755
X145.847Y-41.429
X146.048Y-25.881
X146.124Y-83.153
X147.757Y-40.704
X148.024Y-96.547
X148.114Y-83.469
X149.735Y-49.7
X150.804Y-47.025
X151.031Y-45.861
X152.684Y-82.015
X153.178Y-83.5
X153.437Y-60.76
X153.873Y-82.691
X154.198Y-59.954
X154.442Y-50.384
X155.119Y-68.448
X155.549Y-50.454
X156.635Y-83.932
X156.665Y-67.602
X158.043Y-69.984
X158.131Y-83.989
X158.654Y-83.04
X158.778Y-45.937
X159.576Y-78.281
X159.799Y-76.38
X160.187Y-45.596
X160.392Y-41.935
X160.678Y-63.229
X161.428Y-15.906
X161.693Y-79.314
X161.719Y-68.861
X161.903Y-84.154
X163.147Y-20.733
X163.638Y-69.35
X164.097Y-46.038
X164.786Y-27.116
X165.432Y-38.041
X165.927Y-62.028
X165.947Y-47.156
X166.627Y-64.398
X167.465Y-84.299
X167.741Y-61.153
X168.394Y-83.814
X169.45Y-53.432
X169.642Y-61.153
X169.697Y-27.841
X170.642Y-60.507
X170.737Y-44.662
X172.318Y-84.136
X173.793Y-50.932
X173.796Y-85.29
X174.716Y-47.156
X175.395Y-87.777
X175.69Y-16.623
X175.807Y-56.238
X175.918Y-99.945
X176.114Y-84.427
X177.242Y-49.262
X177.487Y-21.313
X177.823Y-47.262
X179.054Y-71.424
X179.163Y-48.661
X179.755Y-27.082
X180.203Y-22.22
X180.61Y-50.54
X180.743Y-61.983
X181.85Y-39.242
X182.289Y-46.739
X185.634Y-47.246
X186.447Y-45.268
X186.888Y-65.024
X187.551Y-45.009
X188.719Y-54.965
X189.947Y-84.579
X191.234Y-14.316
X191.397Y-15.737
X194.009Y-66.475
X195.156Y-84.183
X195.246Y-85.474
X195.441Y-39.343
X195.861Y-79.82
X196.091Y-103.255
X196.34Y-117.032
X196.532Y-91.343
X197.401Y-73.023
X198.719Y-100.757
X198.769Y-30.292
X199.232Y-46.974
X199.704Y-61.545
X199.826Y-22.025
X200.069Y-30.721
X200.18Y-75.863
X201.892Y-84.152
X202.159Y-49.356
X202.592Y-87.35
X203.169Y-36.996
X203.467Y-62.635
X203.876Y-86.755
X204.632Y-38.994
X204.656Y-37.992
X204.671Y-85.073
X204.741Y-32.565
X205.859Y-85.224
X206.427Y-69.757
X206.499Y-64.114
X206.571Y-91.289
X206.872Y-33.291
X207.0Y-71.448
X207.779Y-55.384
X208.121Y-23.821
X209.506Y-23.462
X209.527Y-31.662
X209.571Y-32.781
X210.109Y-45.869
X210.513Y-47.0
X210.833Y-51.341
X211.137Y-79.074
X211.144Y-57.86
X212.247Y-32.134
X213.727Y-23.741
X214.13Y-100.199
X214.524Y-73.079
X214.658Y-68.186
X215.101Y-83.848
X215.12Y-91.361
X215.403Y-69.805
X215.437Y-44.827
X216.874Y-45.032
X217.235Y-98.826
X218.202Y-29.59
X219.858Y-45.482
X220.622Y-85.871
X220.693Y-44.266
X221.165Y-48.294
X222.323Y-79.253
X222.338Y-62.738
X224.38Y-89.056
X225.228Y-68.165
X225.229Y-106.898
X225.306Y-95.316
X225.343Y-82.9
X225.96Y-96.078
X226.254Y-84.927
X226.509Y-96.943
X226.581Y-90.437
X226.702Y-40.316
X227.234Y-58.011
X228.005Y-60.719
X228.964Y-25.072
X230.014Y-51.256
X230.129Y-104.997
X230.297Y-28.407
X230.584Y-102.393
X231.176Y-85.357
X231.627Y-59.873
X231.792Y-98.1
X231.905Y-47.156
X231.957Y-87.909
X232.364Y-85.357
X232.381Y-79.747
X233.003Y-50.007
X233.203Y-23.64
X233.443Y-35.631
X234.725Y-76.368
X235.329Y-119.214
X236.424Y-63.468
X237.086Y-100.307
X237.09Y-30.563
X237.466Y-36.818
X237.719Y-84.401
X238.387Y-30.151
X238.451Y-76.507
X238.755Y-35.912
X238.983Y-45.84
X239.938Y-84.023
X240.463Y-38.083
X240.925Y-33.218
X241.309Y-62.569
X242.101Y-66.272
X242.217Y-45.218
X242.246Y-79.802
X242.324Y-121.671
X242.687Y-83.141
X243.36Y-89.269
X243.497Y-87.998
X243.687Y-39.228
X243.697Y-82.939
X244.572Y-45.92
X244.82Y-48.675
X245.285Y-24.544
X246.363Y-100.206
X246.756Y-44.788
X247.145Y-20.787
X247.199Y-85.357
X248.076Y-24.295
X248.918Y-79.308
X249.327Y-81.006
X249.345Y-29.846
X249.771Y-68.674
X249.829Y-12.617
X250.177Y-86.759
X250.703Y-80.034
X251.696Y-97.046
X252.782Y-42.615
X253.119Y-47.233
X254.077Y-38.852
X255.715Y-84.348
X256.434Y-26.757
X256.922Y-103.273
X257.257Y-35.134
X258.044Y-39.903
X258.091Y-87.177
X258.549Y-47.277
X258.835Y-14.748
X258.836Y-51.366
X258.9Y-39.152
X260.419Y-48.369
X264.645Y-66.104
X265.218Y-84.128
X265.465Y-54.248
X267.069Y-44.12
X268.811Y-48.904
X269.102Y-85.605
X269.595Y-73.561
X270.062Y-47.842
X270.7Y-29.373
X270.856Y-24.593
X271.071Y-77.877
X271.106Y-41.647
X271.98Y-48.654
X272.374Y-63.527
X273.05Y-41.827
X273.674Y-30.814
X273.73Y-10.832
X274.111Y-29.01
X274.56Y-71.745
X275.082Y-41.323
X277.29Y-33.008
X277.787Y-72.998
X278.094Y-21.538
X279.043Y-47.431
X279.203Y-14.114
X280.101Y-67.469
X280.156Y-69.879
X280.63Y-24.798
X280.72Y-65.72
X280.923Y-36.28
X281.892Y-73.669
X281.922Y-49.515
X282.254Y-23.538
X282.528Y-63.135
X284.564Y-25.835
X284.961Y-42.467
X284.991Y-67.535
X285.026Y-54.005
X285.258Y-76.398
X285.346Y-98.087
X285.447Y-66.055
X285.465Y-36.449
X285.882Y-35.098
X286.037Y-12.071
X286.363Y-22.9
X286.719Y-105.713
X286.767Y-50.529
X286.812Y-14.981
X287.154Y-39.778
X287.597Y-25.835
X287.966Y-53.28
X288.57Y-26.285
X288.893Y-12.285
X289.624Y-29.255
X290.097Y-53.253
X290.141Y-16.188
X290.805Y-22.244
X291.038Y-38.174
X291.294Y-83.781
X291.889Y-22.239
X292.149Y-24.758
X292.718Y-54.233
X292.946Y-21.862
X293.127Y-85.183
X293.336Y-27.576
X293.389Y-23.763
X295.389Y-42.587
X296.891Y-21.287
X297.522Y-86.162
X298.008Y-48.903
X300.374Y-28.697
X300.423Y-61.79
X301.405Y-37.043
X302.06Y-73.0
X302.204Y-81.051
X302.759Y-29.461
X302.85Y-23.337
X303.222Y-66.807
X303.533Y-34.675
X304.512Y-72.472
X304.603Y-67.322
X304.641Y-25.624
X304.676Y-37.895
X305.131Y-74.414
X305.492Y-93.868
X305.995Y-30.12
X306.297Y-54.908
X306.994Y-26.749
X307.255Y-14.25
X308.329Y-26.761
X309.078Y-96.116
X309.135Y-22.964
X309.141Y-24.78
X309.36Y-39.933
X309.794Y-71.183
X310.486Y-17.169
X310.883Y-92.241
X310.924Y-23.822
X310.956Y-41.848
X311.291Y-19.848
X311.576Y-73.935
X311.952Y-23.78
X312.14Y-31.242
X312.143Y-115.381
X312.654Y-76.261
X312.787Y-49.569
X313.335Y-22.912
X313.911Y-41.065
X314.125Y-62.518
X314.172Y-94.692
X314.298Y-39.213
X314.529Y-74.781
X314.548Y-23.761
X314.699Y-89.132
X314.774Y-21.662
X314.939Y-97.37
X315.089Y-40.191
X315.209Y-19.63
X315.3Y-72.338
X315.537Y-89.896
X315.592Y-12.982
X315.61Y-39.297
X315.821Y-27.749
X315.864Y-28.783
X316.001Y-93.77
X316.315Y-44.893
X316.358Y-18.909
X316.553Y-87.042
X316.758Y-120.142
X316.823Y-34.943
X317.085Y-60.046
X317.388Y-48.509
X317.412Y-15.331
X317.455Y-62.622
X317.573Y-86.262
X317.916Y-89.63
X317.963Y-80.997
X318.023Y-93.325
X318.141Y-41.758
X318.197Y-88.614
X318.238Y-61.616
X318.278Y-19.849
X318.359Y-113.442
X318.687Y-30.718
X318.759Y-18.37
X319.168Y-16.611
X319.278Y-29.502
X319.675Y-106.447
X320.656Y-14.159
X321.547Y-29.498
X322.287Y-45.711
X322.51Y-27.848
X323.047Y-20.58
X323.249Y-57.102
X323.311Y-68.503
X323.317Y-84.88
X323.336Y-80.84
X323.34Y-97.728
X323.344Y-119.144
X323.352Y-59.593
X323.465Y-30.124
X323.493Y-13.366
X323.554Y-28.874
X323.743Y-48.767
X323.763Y-18.582
X323.79Y-103.534
X323.851Y-21.968
X323.892Y-104.661
X323.91Y-24.26
X323.924Y-32.119
X325.247Y-102.994
X325.425Y-60.319
X325.514Y-109.988
X326.025Y-22.399
X326.512Y-20.125
X326.996Y-106.982
X327.492Y-62.361
X327.604Y-21.156
X328.282Y-23.846
X328.501Y-104.661
X328.573Y-64.495
X328.63Y-25.011
X328.891Y-30.021
X329.528Y-28.124
X330.223Y-107.408
X330.364Y-44.954
X330.397Y-30.051
X330.408Y-11.468
X330.665Y-31.81
X331.652Y-26.684
X332.983Y-62.88
X334.048Y-104.661
X334.927Y-112.462
X336.105Y-24.931
X336.469Y-103.344
X336.589Y-48.692
X336.719Y-27.4
X336.873Y-23.59
X338.119Y-16.886
X338.162Y-39.216
X338.516Y-28.895
X338.637Y-65.636
X338.828Y-27.325
X339.056Y-39.981
X339.081Y-59.36
X339.42Y-92.394
X340.753Y-53.761
X340.805Y-37.131
X342.532Y-94.184
X342.55Y-39.852
X343.363Y-49.686
X344.784Y-14.527
X345.804Y-24.058
X347.36Y-45.22
X349.706Y-108.639
X350.375Y-47.123
X350.684Y-60.115
X352.3Y-102.169
X354.367Y-102.673
X355.163Y-102.055
X355.963Y-99.867
X356.693Y-100.619
X356.947Y-63.305
X357.172Y-65.337
X358.125Y-82.667
X359.99Y-24.526
X360.43Y-103.662
X360.497Y-51.676
X361.736Y-25.184
X361.736Y-68.503
X362.119Y-31.662
X365.565Y-124.391
X367.285Y-61.864
X369.49Y-3.418
X371.219Y-120.244
X373.011Y-25.591
X377.366Y-102.216
X378.659Y-24.832
X379.198Y-80.469
T2
X313.741Y-107.34
X313.741Y-108.61
X313.741Y-109.88
X313.741Y-111.15
X313.741Y-112.42
X313.741Y-113.69
X313.741Y-114.96
X315.011Y-107.34
X315.011Y-108.61
X315.011Y-109.88
X315.011Y-111.15
X315.011Y-112.42
X315.011Y-113.69
X315.011Y-114.96
T0
M30
