  0
SECTION
  2
HEADER
  9
$ANGBASE
  50
0.0
  9
$ANGDIR
  70
1
  9
$MEASUREMENT
  70
0
  0
ENDSEC
  0
SECTION
  2
TABLES
  0
TABLE
  2
LTYPE
  70
4
  0
LTYPE
  5
40F
  2
CONTINUOUS
  70
0
  3
Solid line
  72
65
  73
0
  40
0.0
  0
LTYPE
  5
410
  2
DASHDOT
 70
0
  3
Dash Dot ____ _ ____ _
 72
65
 73
4
 40
2.0
 49
1.25
 49
-0.25
 49
0.25
 49
-0.25
  0
LTYPE
  5
411
  2
DASHED
 70
0
  3
Dashed __ __ __ __ __
 72
65
 73
2
 40
0.75
 49
0.5
 49
-0.25
  0
LTYPE
  5
43B
  2
DOTTED
 70
0
  3
Dotted .  .  .  .
 72
65
 73
2
 40
0.2
 49
0.0
 49
-0.2
  0
ENDTAB
  0
TABLE
  2
STYLE
  70
4
  0
STYLE
  2
KICAD
  70
0
  40
0
  41
1
  42
1
  50
0
  71
0
  3
isocp.shx
  0
STYLE
  2
KICADB
  70
0
  40
0
  41
1
  42
1
  50
0
  71
0
  3
isocp.shx
  0
STYLE
  2
KICADI
  70
0
  40
0
  41
1
  42
1
  50
15
  71
0
  3
isocp.shx
  0
STYLE
  2
KICADBI
  70
0
  40
0
  41
1
  42
1
  50
15
  71
0
  3
isocp.shx
  0
ENDTAB
  0
TABLE
  2
LAYER
  70
1
  0
LAYER
  2
BLACK
  70
0
  62
7
  6
CONTINUOUS
  0
ENDTAB
  0
ENDSEC
  0
SECTION
  2
ENTITIES
0
LINE
8
BLACK
6
CONTINUOUS
10
12.7906
20
-4.43921
11
12.6902
21
-4.43921
0
LINE
8
BLACK
6
CONTINUOUS
10
12.6902
20
-4.43921
11
12.6902
21
-4.34079
0
LINE
8
BLACK
6
CONTINUOUS
10
12.6902
20
-4.34079
11
12.7906
21
-4.34079
0
LINE
8
BLACK
6
CONTINUOUS
10
12.7906
20
-4.34079
11
12.7906
21
-4.43921
0
LINE
8
BLACK
6
CONTINUOUS
10
6.13756
20
-4.43921
11
6.03717
21
-4.43921
0
LINE
8
BLACK
6
CONTINUOUS
10
6.03717
20
-4.43921
11
6.03717
21
-4.34079
0
LINE
8
BLACK
6
CONTINUOUS
10
6.03717
20
-4.34079
11
6.13756
21
-4.34079
0
LINE
8
BLACK
6
CONTINUOUS
10
6.13756
20
-4.34079
11
6.13756
21
-4.43921
0
LINE
8
BLACK
6
CONTINUOUS
10
14.2856
20
-4.43921
11
14.1852
21
-4.43921
0
LINE
8
BLACK
6
CONTINUOUS
10
14.1852
20
-4.43921
11
14.1852
21
-4.34079
0
LINE
8
BLACK
6
CONTINUOUS
10
14.1852
20
-4.34079
11
14.2856
21
-4.34079
0
LINE
8
BLACK
6
CONTINUOUS
10
14.2856
20
-4.34079
11
14.2856
21
-4.43921
0
LINE
8
BLACK
6
CONTINUOUS
10
13.5406
20
-4.43921
11
13.4402
21
-4.43921
0
LINE
8
BLACK
6
CONTINUOUS
10
13.4402
20
-4.43921
11
13.4402
21
-4.34079
0
LINE
8
BLACK
6
CONTINUOUS
10
13.4402
20
-4.34079
11
13.5406
21
-4.34079
0
LINE
8
BLACK
6
CONTINUOUS
10
13.5406
20
-4.34079
11
13.5406
21
-4.43921
0
LINE
8
BLACK
6
CONTINUOUS
10
11.7502
20
-4.43882
11
11.6498
21
-4.43882
0
LINE
8
BLACK
6
CONTINUOUS
10
11.6498
20
-4.43882
11
11.6498
21
-4.34039
0
LINE
8
BLACK
6
CONTINUOUS
10
11.6498
20
-4.34039
11
11.7502
21
-4.34039
0
LINE
8
BLACK
6
CONTINUOUS
10
11.7502
20
-4.34039
11
11.7502
21
-4.43882
0
LINE
8
BLACK
6
CONTINUOUS
10
8.93295
20
-4.43882
11
8.83256
21
-4.43882
0
LINE
8
BLACK
6
CONTINUOUS
10
8.83256
20
-4.43882
11
8.83256
21
-4.34039
0
LINE
8
BLACK
6
CONTINUOUS
10
8.83256
20
-4.34039
11
8.93295
21
-4.34039
0
LINE
8
BLACK
6
CONTINUOUS
10
8.93295
20
-4.34039
11
8.93295
21
-4.43882
0
LINE
8
BLACK
6
CONTINUOUS
10
2.38295
20
-4.43882
11
2.28256
21
-4.43882
0
LINE
8
BLACK
6
CONTINUOUS
10
2.28256
20
-4.43882
11
2.28256
21
-4.34039
0
LINE
8
BLACK
6
CONTINUOUS
10
2.28256
20
-4.34039
11
2.38295
21
-4.34039
0
LINE
8
BLACK
6
CONTINUOUS
10
2.38295
20
-4.34039
11
2.38295
21
-4.43882
0
LINE
8
BLACK
6
CONTINUOUS
10
9.87295
20
-4.43882
11
9.77256
21
-4.43882
0
LINE
8
BLACK
6
CONTINUOUS
10
9.77256
20
-4.43882
11
9.77256
21
-4.34039
0
LINE
8
BLACK
6
CONTINUOUS
10
9.77256
20
-4.34039
11
9.87295
21
-4.34039
0
LINE
8
BLACK
6
CONTINUOUS
10
9.87295
20
-4.34039
11
9.87295
21
-4.43882
0
LINE
8
BLACK
6
CONTINUOUS
10
1.44133
20
-4.43882
11
1.34093
21
-4.43882
0
LINE
8
BLACK
6
CONTINUOUS
10
1.34093
20
-4.43882
11
1.34093
21
-4.34039
0
LINE
8
BLACK
6
CONTINUOUS
10
1.34093
20
-4.34039
11
1.44133
21
-4.34039
0
LINE
8
BLACK
6
CONTINUOUS
10
1.44133
20
-4.34039
11
1.44133
21
-4.43882
0
LINE
8
BLACK
6
CONTINUOUS
10
3.32295
20
-4.43882
11
3.22256
21
-4.43882
0
LINE
8
BLACK
6
CONTINUOUS
10
3.22256
20
-4.43882
11
3.22256
21
-4.34039
0
LINE
8
BLACK
6
CONTINUOUS
10
3.22256
20
-4.34039
11
3.32295
21
-4.34039
0
LINE
8
BLACK
6
CONTINUOUS
10
3.32295
20
-4.34039
11
3.32295
21
-4.43882
0
LINE
8
BLACK
6
CONTINUOUS
10
10.813
20
-4.43882
11
10.7126
21
-4.43882
0
LINE
8
BLACK
6
CONTINUOUS
10
10.7126
20
-4.43882
11
10.7126
21
-4.34039
0
LINE
8
BLACK
6
CONTINUOUS
10
10.7126
20
-4.34039
11
10.813
21
-4.34039
0
LINE
8
BLACK
6
CONTINUOUS
10
10.813
20
-4.34039
11
10.813
21
-4.43882
0
LINE
8
BLACK
6
CONTINUOUS
10
14.8308
20
-4.33921
11
14.7304
21
-4.33921
0
LINE
8
BLACK
6
CONTINUOUS
10
14.7304
20
-4.33921
11
14.7304
21
-4.24079
0
LINE
8
BLACK
6
CONTINUOUS
10
14.7304
20
-4.24079
11
14.8308
21
-4.24079
0
LINE
8
BLACK
6
CONTINUOUS
10
14.8308
20
-4.24079
11
14.8308
21
-4.33921
0
LINE
8
BLACK
6
CONTINUOUS
10
6.68283
20
-4.33921
11
6.58244
21
-4.33921
0
LINE
8
BLACK
6
CONTINUOUS
10
6.58244
20
-4.33921
11
6.58244
21
-4.24079
0
LINE
8
BLACK
6
CONTINUOUS
10
6.58244
20
-4.24079
11
6.68283
21
-4.24079
0
LINE
8
BLACK
6
CONTINUOUS
10
6.68283
20
-4.24079
11
6.68283
21
-4.33921
0
LINE
8
BLACK
6
CONTINUOUS
10
14.0858
20
-4.33921
11
13.9854
21
-4.33921
0
LINE
8
BLACK
6
CONTINUOUS
10
13.9854
20
-4.33921
11
13.9854
21
-4.24079
0
LINE
8
BLACK
6
CONTINUOUS
10
13.9854
20
-4.24079
11
14.0858
21
-4.24079
0
LINE
8
BLACK
6
CONTINUOUS
10
14.0858
20
-4.24079
11
14.0858
21
-4.33921
0
LINE
8
BLACK
6
CONTINUOUS
10
13.3358
20
-4.33921
11
13.2354
21
-4.33921
0
LINE
8
BLACK
6
CONTINUOUS
10
13.2354
20
-4.33921
11
13.2354
21
-4.24079
0
LINE
8
BLACK
6
CONTINUOUS
10
13.2354
20
-4.24079
11
13.3358
21
-4.24079
0
LINE
8
BLACK
6
CONTINUOUS
10
13.3358
20
-4.24079
11
13.3358
21
-4.33921
0
LINE
8
BLACK
6
CONTINUOUS
10
12.2955
20
-4.33882
11
12.1951
21
-4.33882
0
LINE
8
BLACK
6
CONTINUOUS
10
12.1951
20
-4.33882
11
12.1951
21
-4.24039
0
LINE
8
BLACK
6
CONTINUOUS
10
12.1951
20
-4.24039
11
12.2955
21
-4.24039
0
LINE
8
BLACK
6
CONTINUOUS
10
12.2955
20
-4.24039
11
12.2955
21
-4.33882
0
LINE
8
BLACK
6
CONTINUOUS
10
3.86823
20
-4.33882
11
3.76783
21
-4.33882
0
LINE
8
BLACK
6
CONTINUOUS
10
3.76783
20
-4.33882
11
3.76783
21
-4.24039
0
LINE
8
BLACK
6
CONTINUOUS
10
3.76783
20
-4.24039
11
3.86823
21
-4.24039
0
LINE
8
BLACK
6
CONTINUOUS
10
3.86823
20
-4.24039
11
3.86823
21
-4.33882
0
LINE
8
BLACK
6
CONTINUOUS
10
10.4182
20
-4.33882
11
10.3178
21
-4.33882
0
LINE
8
BLACK
6
CONTINUOUS
10
10.3178
20
-4.33882
11
10.3178
21
-4.24039
0
LINE
8
BLACK
6
CONTINUOUS
10
10.3178
20
-4.24039
11
10.4182
21
-4.24039
0
LINE
8
BLACK
6
CONTINUOUS
10
10.4182
20
-4.24039
11
10.4182
21
-4.33882
0
LINE
8
BLACK
6
CONTINUOUS
10
11.3582
20
-4.33882
11
11.2578
21
-4.33882
0
LINE
8
BLACK
6
CONTINUOUS
10
11.2578
20
-4.33882
11
11.2578
21
-4.24039
0
LINE
8
BLACK
6
CONTINUOUS
10
11.2578
20
-4.24039
11
11.3582
21
-4.24039
0
LINE
8
BLACK
6
CONTINUOUS
10
11.3582
20
-4.24039
11
11.3582
21
-4.33882
0
LINE
8
BLACK
6
CONTINUOUS
10
9.47823
20
-4.33882
11
9.37783
21
-4.33882
0
LINE
8
BLACK
6
CONTINUOUS
10
9.37783
20
-4.33882
11
9.37783
21
-4.24039
0
LINE
8
BLACK
6
CONTINUOUS
10
9.37783
20
-4.24039
11
9.47823
21
-4.24039
0
LINE
8
BLACK
6
CONTINUOUS
10
9.47823
20
-4.24039
11
9.47823
21
-4.33882
0
LINE
8
BLACK
6
CONTINUOUS
10
2.92823
20
-4.33882
11
2.82783
21
-4.33882
0
LINE
8
BLACK
6
CONTINUOUS
10
2.82783
20
-4.33882
11
2.82783
21
-4.24039
0
LINE
8
BLACK
6
CONTINUOUS
10
2.82783
20
-4.24039
11
2.92823
21
-4.24039
0
LINE
8
BLACK
6
CONTINUOUS
10
2.92823
20
-4.24039
11
2.92823
21
-4.33882
0
LINE
8
BLACK
6
CONTINUOUS
10
1.9866
20
-4.33882
11
1.88621
21
-4.33882
0
LINE
8
BLACK
6
CONTINUOUS
10
1.88621
20
-4.33882
11
1.88621
21
-4.24039
0
LINE
8
BLACK
6
CONTINUOUS
10
1.88621
20
-4.24039
11
1.9866
21
-4.24039
0
LINE
8
BLACK
6
CONTINUOUS
10
1.9866
20
-4.24039
11
1.9866
21
-4.33882
0
LINE
8
BLACK
6
CONTINUOUS
10
11.168
20
-3.68632
11
11.0676
21
-3.68632
0
LINE
8
BLACK
6
CONTINUOUS
10
11.0676
20
-3.68632
11
11.0676
21
-3.58789
0
LINE
8
BLACK
6
CONTINUOUS
10
11.0676
20
-3.58789
11
11.168
21
-3.58789
0
LINE
8
BLACK
6
CONTINUOUS
10
11.168
20
-3.58789
11
11.168
21
-3.68632
0
LINE
8
BLACK
6
CONTINUOUS
10
3.03256
20
-3.68421
11
2.93217
21
-3.68421
0
LINE
8
BLACK
6
CONTINUOUS
10
2.93217
20
-3.68421
11
2.93217
21
-3.58579
0
LINE
8
BLACK
6
CONTINUOUS
10
2.93217
20
-3.58579
11
3.03256
21
-3.58579
0
LINE
8
BLACK
6
CONTINUOUS
10
3.03256
20
-3.58579
11
3.03256
21
-3.68421
0
LINE
8
BLACK
6
CONTINUOUS
10
12.7906
20
-3.68421
11
12.6902
21
-3.68421
0
LINE
8
BLACK
6
CONTINUOUS
10
12.6902
20
-3.68421
11
12.6902
21
-3.58579
0
LINE
8
BLACK
6
CONTINUOUS
10
12.6902
20
-3.58579
11
12.7906
21
-3.58579
0
LINE
8
BLACK
6
CONTINUOUS
10
12.7906
20
-3.58579
11
12.7906
21
-3.68421
0
LINE
8
BLACK
6
CONTINUOUS
10
3.77256
20
-3.68421
11
3.67217
21
-3.68421
0
LINE
8
BLACK
6
CONTINUOUS
10
3.67217
20
-3.68421
11
3.67217
21
-3.58579
0
LINE
8
BLACK
6
CONTINUOUS
10
3.67217
20
-3.58579
11
3.77256
21
-3.58579
0
LINE
8
BLACK
6
CONTINUOUS
10
3.77256
20
-3.58579
11
3.77256
21
-3.68421
0
LINE
8
BLACK
6
CONTINUOUS
10
4.51756
20
-3.68421
11
4.41717
21
-3.68421
0
LINE
8
BLACK
6
CONTINUOUS
10
4.41717
20
-3.68421
11
4.41717
21
-3.58579
0
LINE
8
BLACK
6
CONTINUOUS
10
4.41717
20
-3.58579
11
4.51756
21
-3.58579
0
LINE
8
BLACK
6
CONTINUOUS
10
4.51756
20
-3.58579
11
4.51756
21
-3.68421
0
LINE
8
BLACK
6
CONTINUOUS
10
9.00756
20
-3.68421
11
8.90717
21
-3.68421
0
LINE
8
BLACK
6
CONTINUOUS
10
8.90717
20
-3.68421
11
8.90717
21
-3.58579
0
LINE
8
BLACK
6
CONTINUOUS
10
8.90717
20
-3.58579
11
9.00756
21
-3.58579
0
LINE
8
BLACK
6
CONTINUOUS
10
9.00756
20
-3.58579
11
9.00756
21
-3.68421
0
LINE
8
BLACK
6
CONTINUOUS
10
5.26256
20
-3.68421
11
5.16217
21
-3.68421
0
LINE
8
BLACK
6
CONTINUOUS
10
5.16217
20
-3.68421
11
5.16217
21
-3.58579
0
LINE
8
BLACK
6
CONTINUOUS
10
5.16217
20
-3.58579
11
5.26256
21
-3.58579
0
LINE
8
BLACK
6
CONTINUOUS
10
5.26256
20
-3.58579
11
5.26256
21
-3.68421
0
LINE
8
BLACK
6
CONTINUOUS
10
6.00756
20
-3.68421
11
5.90717
21
-3.68421
0
LINE
8
BLACK
6
CONTINUOUS
10
5.90717
20
-3.68421
11
5.90717
21
-3.58579
0
LINE
8
BLACK
6
CONTINUOUS
10
5.90717
20
-3.58579
11
6.00756
21
-3.58579
0
LINE
8
BLACK
6
CONTINUOUS
10
6.00756
20
-3.58579
11
6.00756
21
-3.68421
0
LINE
8
BLACK
6
CONTINUOUS
10
9.75256
20
-3.68421
11
9.65217
21
-3.68421
0
LINE
8
BLACK
6
CONTINUOUS
10
9.65217
20
-3.68421
11
9.65217
21
-3.58579
0
LINE
8
BLACK
6
CONTINUOUS
10
9.65217
20
-3.58579
11
9.75256
21
-3.58579
0
LINE
8
BLACK
6
CONTINUOUS
10
9.75256
20
-3.58579
11
9.75256
21
-3.68421
0
LINE
8
BLACK
6
CONTINUOUS
10
6.75256
20
-3.68421
11
6.65217
21
-3.68421
0
LINE
8
BLACK
6
CONTINUOUS
10
6.65217
20
-3.68421
11
6.65217
21
-3.58579
0
LINE
8
BLACK
6
CONTINUOUS
10
6.65217
20
-3.58579
11
6.75256
21
-3.58579
0
LINE
8
BLACK
6
CONTINUOUS
10
6.75256
20
-3.58579
11
6.75256
21
-3.68421
0
LINE
8
BLACK
6
CONTINUOUS
10
13.5406
20
-3.68421
11
13.4402
21
-3.68421
0
LINE
8
BLACK
6
CONTINUOUS
10
13.4402
20
-3.68421
11
13.4402
21
-3.58579
0
LINE
8
BLACK
6
CONTINUOUS
10
13.4402
20
-3.58579
11
13.5406
21
-3.58579
0
LINE
8
BLACK
6
CONTINUOUS
10
13.5406
20
-3.58579
11
13.5406
21
-3.68421
0
LINE
8
BLACK
6
CONTINUOUS
10
8.25756
20
-3.68421
11
8.15717
21
-3.68421
0
LINE
8
BLACK
6
CONTINUOUS
10
8.15717
20
-3.68421
11
8.15717
21
-3.58579
0
LINE
8
BLACK
6
CONTINUOUS
10
8.15717
20
-3.58579
11
8.25756
21
-3.58579
0
LINE
8
BLACK
6
CONTINUOUS
10
8.25756
20
-3.58579
11
8.25756
21
-3.68421
0
LINE
8
BLACK
6
CONTINUOUS
10
14.2856
20
-3.68421
11
14.1852
21
-3.68421
0
LINE
8
BLACK
6
CONTINUOUS
10
14.1852
20
-3.68421
11
14.1852
21
-3.58579
0
LINE
8
BLACK
6
CONTINUOUS
10
14.1852
20
-3.58579
11
14.2856
21
-3.58579
0
LINE
8
BLACK
6
CONTINUOUS
10
14.2856
20
-3.58579
11
14.2856
21
-3.68421
0
LINE
8
BLACK
6
CONTINUOUS
10
7.50256
20
-3.68421
11
7.40217
21
-3.68421
0
LINE
8
BLACK
6
CONTINUOUS
10
7.40217
20
-3.68421
11
7.40217
21
-3.58579
0
LINE
8
BLACK
6
CONTINUOUS
10
7.40217
20
-3.58579
11
7.50256
21
-3.58579
0
LINE
8
BLACK
6
CONTINUOUS
10
7.50256
20
-3.58579
11
7.50256
21
-3.68421
0
LINE
8
BLACK
6
CONTINUOUS
10
1.81633
20
-3.68382
11
1.71593
21
-3.68382
0
LINE
8
BLACK
6
CONTINUOUS
10
1.71593
20
-3.68382
11
1.71593
21
-3.58539
0
LINE
8
BLACK
6
CONTINUOUS
10
1.71593
20
-3.58539
11
1.81633
21
-3.58539
0
LINE
8
BLACK
6
CONTINUOUS
10
1.81633
20
-3.58539
11
1.81633
21
-3.68382
0
LINE
8
BLACK
6
CONTINUOUS
10
11.7132
20
-3.58632
11
11.6128
21
-3.58632
0
LINE
8
BLACK
6
CONTINUOUS
10
11.6128
20
-3.58632
11
11.6128
21
-3.48789
0
LINE
8
BLACK
6
CONTINUOUS
10
11.6128
20
-3.48789
11
11.7132
21
-3.48789
0
LINE
8
BLACK
6
CONTINUOUS
10
11.7132
20
-3.48789
11
11.7132
21
-3.58632
0
LINE
8
BLACK
6
CONTINUOUS
10
6.55283
20
-3.58421
11
6.45244
21
-3.58421
0
LINE
8
BLACK
6
CONTINUOUS
10
6.45244
20
-3.58421
11
6.45244
21
-3.48579
0
LINE
8
BLACK
6
CONTINUOUS
10
6.45244
20
-3.48579
11
6.55283
21
-3.48579
0
LINE
8
BLACK
6
CONTINUOUS
10
6.55283
20
-3.48579
11
6.55283
21
-3.58421
0
LINE
8
BLACK
6
CONTINUOUS
10
9.55283
20
-3.58421
11
9.45244
21
-3.58421
0
LINE
8
BLACK
6
CONTINUOUS
10
9.45244
20
-3.58421
11
9.45244
21
-3.48579
0
LINE
8
BLACK
6
CONTINUOUS
10
9.45244
20
-3.48579
11
9.55283
21
-3.48579
0
LINE
8
BLACK
6
CONTINUOUS
10
9.55283
20
-3.48579
11
9.55283
21
-3.58421
0
LINE
8
BLACK
6
CONTINUOUS
10
5.80783
20
-3.58421
11
5.70744
21
-3.58421
0
LINE
8
BLACK
6
CONTINUOUS
10
5.70744
20
-3.58421
11
5.70744
21
-3.48579
0
LINE
8
BLACK
6
CONTINUOUS
10
5.70744
20
-3.48579
11
5.80783
21
-3.48579
0
LINE
8
BLACK
6
CONTINUOUS
10
5.80783
20
-3.48579
11
5.80783
21
-3.58421
0
LINE
8
BLACK
6
CONTINUOUS
10
8.04783
20
-3.58421
11
7.94744
21
-3.58421
0
LINE
8
BLACK
6
CONTINUOUS
10
7.94744
20
-3.58421
11
7.94744
21
-3.48579
0
LINE
8
BLACK
6
CONTINUOUS
10
7.94744
20
-3.48579
11
8.04783
21
-3.48579
0
LINE
8
BLACK
6
CONTINUOUS
10
8.04783
20
-3.48579
11
8.04783
21
-3.58421
0
LINE
8
BLACK
6
CONTINUOUS
10
13.3358
20
-3.58421
11
13.2354
21
-3.58421
0
LINE
8
BLACK
6
CONTINUOUS
10
13.2354
20
-3.58421
11
13.2354
21
-3.48579
0
LINE
8
BLACK
6
CONTINUOUS
10
13.2354
20
-3.48579
11
13.3358
21
-3.48579
0
LINE
8
BLACK
6
CONTINUOUS
10
13.3358
20
-3.48579
11
13.3358
21
-3.58421
0
LINE
8
BLACK
6
CONTINUOUS
10
10.2978
20
-3.58421
11
10.1974
21
-3.58421
0
LINE
8
BLACK
6
CONTINUOUS
10
10.1974
20
-3.58421
11
10.1974
21
-3.48579
0
LINE
8
BLACK
6
CONTINUOUS
10
10.1974
20
-3.48579
11
10.2978
21
-3.48579
0
LINE
8
BLACK
6
CONTINUOUS
10
10.2978
20
-3.48579
11
10.2978
21
-3.58421
0
LINE
8
BLACK
6
CONTINUOUS
10
5.06283
20
-3.58421
11
4.96244
21
-3.58421
0
LINE
8
BLACK
6
CONTINUOUS
10
4.96244
20
-3.58421
11
4.96244
21
-3.48579
0
LINE
8
BLACK
6
CONTINUOUS
10
4.96244
20
-3.48579
11
5.06283
21
-3.48579
0
LINE
8
BLACK
6
CONTINUOUS
10
5.06283
20
-3.48579
11
5.06283
21
-3.58421
0
LINE
8
BLACK
6
CONTINUOUS
10
8.80283
20
-3.58421
11
8.70244
21
-3.58421
0
LINE
8
BLACK
6
CONTINUOUS
10
8.70244
20
-3.58421
11
8.70244
21
-3.48579
0
LINE
8
BLACK
6
CONTINUOUS
10
8.70244
20
-3.48579
11
8.80283
21
-3.48579
0
LINE
8
BLACK
6
CONTINUOUS
10
8.80283
20
-3.48579
11
8.80283
21
-3.58421
0
LINE
8
BLACK
6
CONTINUOUS
10
4.31783
20
-3.58421
11
4.21744
21
-3.58421
0
LINE
8
BLACK
6
CONTINUOUS
10
4.21744
20
-3.58421
11
4.21744
21
-3.48579
0
LINE
8
BLACK
6
CONTINUOUS
10
4.21744
20
-3.48579
11
4.31783
21
-3.48579
0
LINE
8
BLACK
6
CONTINUOUS
10
4.31783
20
-3.48579
11
4.31783
21
-3.58421
0
LINE
8
BLACK
6
CONTINUOUS
10
14.8308
20
-3.58421
11
14.7304
21
-3.58421
0
LINE
8
BLACK
6
CONTINUOUS
10
14.7304
20
-3.58421
11
14.7304
21
-3.48579
0
LINE
8
BLACK
6
CONTINUOUS
10
14.7304
20
-3.48579
11
14.8308
21
-3.48579
0
LINE
8
BLACK
6
CONTINUOUS
10
14.8308
20
-3.48579
11
14.8308
21
-3.58421
0
LINE
8
BLACK
6
CONTINUOUS
10
7.29783
20
-3.58421
11
7.19744
21
-3.58421
0
LINE
8
BLACK
6
CONTINUOUS
10
7.19744
20
-3.58421
11
7.19744
21
-3.48579
0
LINE
8
BLACK
6
CONTINUOUS
10
7.19744
20
-3.48579
11
7.29783
21
-3.48579
0
LINE
8
BLACK
6
CONTINUOUS
10
7.29783
20
-3.48579
11
7.29783
21
-3.58421
0
LINE
8
BLACK
6
CONTINUOUS
10
3.57783
20
-3.58421
11
3.47744
21
-3.58421
0
LINE
8
BLACK
6
CONTINUOUS
10
3.47744
20
-3.58421
11
3.47744
21
-3.48579
0
LINE
8
BLACK
6
CONTINUOUS
10
3.47744
20
-3.48579
11
3.57783
21
-3.48579
0
LINE
8
BLACK
6
CONTINUOUS
10
3.57783
20
-3.48579
11
3.57783
21
-3.58421
0
LINE
8
BLACK
6
CONTINUOUS
10
14.0858
20
-3.58421
11
13.9854
21
-3.58421
0
LINE
8
BLACK
6
CONTINUOUS
10
13.9854
20
-3.58421
11
13.9854
21
-3.48579
0
LINE
8
BLACK
6
CONTINUOUS
10
13.9854
20
-3.48579
11
14.0858
21
-3.48579
0
LINE
8
BLACK
6
CONTINUOUS
10
14.0858
20
-3.48579
11
14.0858
21
-3.58421
0
LINE
8
BLACK
6
CONTINUOUS
10
2.3616
20
-3.58382
11
2.26121
21
-3.58382
0
LINE
8
BLACK
6
CONTINUOUS
10
2.26121
20
-3.58382
11
2.26121
21
-3.48539
0
LINE
8
BLACK
6
CONTINUOUS
10
2.26121
20
-3.48539
11
2.3616
21
-3.48539
0
LINE
8
BLACK
6
CONTINUOUS
10
2.3616
20
-3.48539
11
2.3616
21
-3.58382
0
LINE
8
BLACK
6
CONTINUOUS
10
4.15756
20
-2.93421
11
4.05717
21
-2.93421
0
LINE
8
BLACK
6
CONTINUOUS
10
4.05717
20
-2.93421
11
4.05717
21
-2.83579
0
LINE
8
BLACK
6
CONTINUOUS
10
4.05717
20
-2.83579
11
4.15756
21
-2.83579
0
LINE
8
BLACK
6
CONTINUOUS
10
4.15756
20
-2.83579
11
4.15756
21
-2.93421
0
LINE
8
BLACK
6
CONTINUOUS
10
2.65756
20
-2.93421
11
2.55717
21
-2.93421
0
LINE
8
BLACK
6
CONTINUOUS
10
2.55717
20
-2.93421
11
2.55717
21
-2.83579
0
LINE
8
BLACK
6
CONTINUOUS
10
2.55717
20
-2.83579
11
2.65756
21
-2.83579
0
LINE
8
BLACK
6
CONTINUOUS
10
2.65756
20
-2.83579
11
2.65756
21
-2.93421
0
LINE
8
BLACK
6
CONTINUOUS
10
4.90756
20
-2.93421
11
4.80717
21
-2.93421
0
LINE
8
BLACK
6
CONTINUOUS
10
4.80717
20
-2.93421
11
4.80717
21
-2.83579
0
LINE
8
BLACK
6
CONTINUOUS
10
4.80717
20
-2.83579
11
4.90756
21
-2.83579
0
LINE
8
BLACK
6
CONTINUOUS
10
4.90756
20
-2.83579
11
4.90756
21
-2.93421
0
LINE
8
BLACK
6
CONTINUOUS
10
14.2856
20
-2.93421
11
14.1852
21
-2.93421
0
LINE
8
BLACK
6
CONTINUOUS
10
14.1852
20
-2.93421
11
14.1852
21
-2.83579
0
LINE
8
BLACK
6
CONTINUOUS
10
14.1852
20
-2.83579
11
14.2856
21
-2.83579
0
LINE
8
BLACK
6
CONTINUOUS
10
14.2856
20
-2.83579
11
14.2856
21
-2.93421
0
LINE
8
BLACK
6
CONTINUOUS
10
12.7906
20
-2.93421
11
12.6902
21
-2.93421
0
LINE
8
BLACK
6
CONTINUOUS
10
12.6902
20
-2.93421
11
12.6902
21
-2.83579
0
LINE
8
BLACK
6
CONTINUOUS
10
12.6902
20
-2.83579
11
12.7906
21
-2.83579
0
LINE
8
BLACK
6
CONTINUOUS
10
12.7906
20
-2.83579
11
12.7906
21
-2.93421
0
LINE
8
BLACK
6
CONTINUOUS
10
10.1476
20
-2.93421
11
10.0472
21
-2.93421
0
LINE
8
BLACK
6
CONTINUOUS
10
10.0472
20
-2.93421
11
10.0472
21
-2.83579
0
LINE
8
BLACK
6
CONTINUOUS
10
10.0472
20
-2.83579
11
10.1476
21
-2.83579
0
LINE
8
BLACK
6
CONTINUOUS
10
10.1476
20
-2.83579
11
10.1476
21
-2.93421
0
LINE
8
BLACK
6
CONTINUOUS
10
13.5406
20
-2.93421
11
13.4402
21
-2.93421
0
LINE
8
BLACK
6
CONTINUOUS
10
13.4402
20
-2.93421
11
13.4402
21
-2.83579
0
LINE
8
BLACK
6
CONTINUOUS
10
13.4402
20
-2.83579
11
13.5406
21
-2.83579
0
LINE
8
BLACK
6
CONTINUOUS
10
13.5406
20
-2.83579
11
13.5406
21
-2.93421
0
LINE
8
BLACK
6
CONTINUOUS
10
8.64756
20
-2.93421
11
8.54717
21
-2.93421
0
LINE
8
BLACK
6
CONTINUOUS
10
8.54717
20
-2.93421
11
8.54717
21
-2.83579
0
LINE
8
BLACK
6
CONTINUOUS
10
8.54717
20
-2.83579
11
8.64756
21
-2.83579
0
LINE
8
BLACK
6
CONTINUOUS
10
8.64756
20
-2.83579
11
8.64756
21
-2.93421
0
LINE
8
BLACK
6
CONTINUOUS
10
5.64756
20
-2.93421
11
5.54717
21
-2.93421
0
LINE
8
BLACK
6
CONTINUOUS
10
5.54717
20
-2.93421
11
5.54717
21
-2.83579
0
LINE
8
BLACK
6
CONTINUOUS
10
5.54717
20
-2.83579
11
5.64756
21
-2.83579
0
LINE
8
BLACK
6
CONTINUOUS
10
5.64756
20
-2.83579
11
5.64756
21
-2.93421
0
LINE
8
BLACK
6
CONTINUOUS
10
6.39756
20
-2.93421
11
6.29717
21
-2.93421
0
LINE
8
BLACK
6
CONTINUOUS
10
6.29717
20
-2.93421
11
6.29717
21
-2.83579
0
LINE
8
BLACK
6
CONTINUOUS
10
6.29717
20
-2.83579
11
6.39756
21
-2.83579
0
LINE
8
BLACK
6
CONTINUOUS
10
6.39756
20
-2.83579
11
6.39756
21
-2.93421
0
LINE
8
BLACK
6
CONTINUOUS
10
7.89756
20
-2.93421
11
7.79717
21
-2.93421
0
LINE
8
BLACK
6
CONTINUOUS
10
7.79717
20
-2.93421
11
7.79717
21
-2.83579
0
LINE
8
BLACK
6
CONTINUOUS
10
7.79717
20
-2.83579
11
7.89756
21
-2.83579
0
LINE
8
BLACK
6
CONTINUOUS
10
7.89756
20
-2.83579
11
7.89756
21
-2.93421
0
LINE
8
BLACK
6
CONTINUOUS
10
7.14756
20
-2.93421
11
7.04717
21
-2.93421
0
LINE
8
BLACK
6
CONTINUOUS
10
7.04717
20
-2.93421
11
7.04717
21
-2.83579
0
LINE
8
BLACK
6
CONTINUOUS
10
7.04717
20
-2.83579
11
7.14756
21
-2.83579
0
LINE
8
BLACK
6
CONTINUOUS
10
7.14756
20
-2.83579
11
7.14756
21
-2.93421
0
LINE
8
BLACK
6
CONTINUOUS
10
9.39756
20
-2.93421
11
9.29717
21
-2.93421
0
LINE
8
BLACK
6
CONTINUOUS
10
9.29717
20
-2.93421
11
9.29717
21
-2.83579
0
LINE
8
BLACK
6
CONTINUOUS
10
9.29717
20
-2.83579
11
9.39756
21
-2.83579
0
LINE
8
BLACK
6
CONTINUOUS
10
9.39756
20
-2.83579
11
9.39756
21
-2.93421
0
LINE
8
BLACK
6
CONTINUOUS
10
3.40756
20
-2.93421
11
3.30717
21
-2.93421
0
LINE
8
BLACK
6
CONTINUOUS
10
3.30717
20
-2.93421
11
3.30717
21
-2.83579
0
LINE
8
BLACK
6
CONTINUOUS
10
3.30717
20
-2.83579
11
3.40756
21
-2.83579
0
LINE
8
BLACK
6
CONTINUOUS
10
3.40756
20
-2.83579
11
3.40756
21
-2.93421
0
LINE
8
BLACK
6
CONTINUOUS
10
1.62883
20
-2.93382
11
1.52843
21
-2.93382
0
LINE
8
BLACK
6
CONTINUOUS
10
1.52843
20
-2.93382
11
1.52843
21
-2.83539
0
LINE
8
BLACK
6
CONTINUOUS
10
1.52843
20
-2.83539
11
1.62883
21
-2.83539
0
LINE
8
BLACK
6
CONTINUOUS
10
1.62883
20
-2.83539
11
1.62883
21
-2.93382
0
LINE
8
BLACK
6
CONTINUOUS
10
11.368
20
-2.93132
11
11.2676
21
-2.93132
0
LINE
8
BLACK
6
CONTINUOUS
10
11.2676
20
-2.93132
11
11.2676
21
-2.83289
0
LINE
8
BLACK
6
CONTINUOUS
10
11.2676
20
-2.83289
11
11.368
21
-2.83289
0
LINE
8
BLACK
6
CONTINUOUS
10
11.368
20
-2.83289
11
11.368
21
-2.93132
0
LINE
8
BLACK
6
CONTINUOUS
10
7.69283
20
-2.83421
11
7.59244
21
-2.83421
0
LINE
8
BLACK
6
CONTINUOUS
10
7.59244
20
-2.83421
11
7.59244
21
-2.73579
0
LINE
8
BLACK
6
CONTINUOUS
10
7.59244
20
-2.73579
11
7.69283
21
-2.73579
0
LINE
8
BLACK
6
CONTINUOUS
10
7.69283
20
-2.73579
11
7.69283
21
-2.83421
0
LINE
8
BLACK
6
CONTINUOUS
10
4.70283
20
-2.83421
11
4.60244
21
-2.83421
0
LINE
8
BLACK
6
CONTINUOUS
10
4.60244
20
-2.83421
11
4.60244
21
-2.73579
0
LINE
8
BLACK
6
CONTINUOUS
10
4.60244
20
-2.73579
11
4.70283
21
-2.73579
0
LINE
8
BLACK
6
CONTINUOUS
10
4.70283
20
-2.73579
11
4.70283
21
-2.83421
0
LINE
8
BLACK
6
CONTINUOUS
10
5.45283
20
-2.83421
11
5.35244
21
-2.83421
0
LINE
8
BLACK
6
CONTINUOUS
10
5.35244
20
-2.83421
11
5.35244
21
-2.73579
0
LINE
8
BLACK
6
CONTINUOUS
10
5.35244
20
-2.73579
11
5.45283
21
-2.73579
0
LINE
8
BLACK
6
CONTINUOUS
10
5.45283
20
-2.73579
11
5.45283
21
-2.83421
0
LINE
8
BLACK
6
CONTINUOUS
10
13.3358
20
-2.83421
11
13.2354
21
-2.83421
0
LINE
8
BLACK
6
CONTINUOUS
10
13.2354
20
-2.83421
11
13.2354
21
-2.73579
0
LINE
8
BLACK
6
CONTINUOUS
10
13.2354
20
-2.73579
11
13.3358
21
-2.73579
0
LINE
8
BLACK
6
CONTINUOUS
10
13.3358
20
-2.73579
11
13.3358
21
-2.83421
0
LINE
8
BLACK
6
CONTINUOUS
10
3.95283
20
-2.83421
11
3.85244
21
-2.83421
0
LINE
8
BLACK
6
CONTINUOUS
10
3.85244
20
-2.83421
11
3.85244
21
-2.73579
0
LINE
8
BLACK
6
CONTINUOUS
10
3.85244
20
-2.73579
11
3.95283
21
-2.73579
0
LINE
8
BLACK
6
CONTINUOUS
10
3.95283
20
-2.73579
11
3.95283
21
-2.83421
0
LINE
8
BLACK
6
CONTINUOUS
10
6.19283
20
-2.83421
11
6.09244
21
-2.83421
0
LINE
8
BLACK
6
CONTINUOUS
10
6.09244
20
-2.83421
11
6.09244
21
-2.73579
0
LINE
8
BLACK
6
CONTINUOUS
10
6.09244
20
-2.73579
11
6.19283
21
-2.73579
0
LINE
8
BLACK
6
CONTINUOUS
10
6.19283
20
-2.73579
11
6.19283
21
-2.83421
0
LINE
8
BLACK
6
CONTINUOUS
10
10.6928
20
-2.83421
11
10.5924
21
-2.83421
0
LINE
8
BLACK
6
CONTINUOUS
10
10.5924
20
-2.83421
11
10.5924
21
-2.73579
0
LINE
8
BLACK
6
CONTINUOUS
10
10.5924
20
-2.73579
11
10.6928
21
-2.73579
0
LINE
8
BLACK
6
CONTINUOUS
10
10.6928
20
-2.73579
11
10.6928
21
-2.83421
0
LINE
8
BLACK
6
CONTINUOUS
10
14.8308
20
-2.83421
11
14.7304
21
-2.83421
0
LINE
8
BLACK
6
CONTINUOUS
10
14.7304
20
-2.83421
11
14.7304
21
-2.73579
0
LINE
8
BLACK
6
CONTINUOUS
10
14.7304
20
-2.73579
11
14.8308
21
-2.73579
0
LINE
8
BLACK
6
CONTINUOUS
10
14.8308
20
-2.73579
11
14.8308
21
-2.83421
0
LINE
8
BLACK
6
CONTINUOUS
10
3.20283
20
-2.83421
11
3.10244
21
-2.83421
0
LINE
8
BLACK
6
CONTINUOUS
10
3.10244
20
-2.83421
11
3.10244
21
-2.73579
0
LINE
8
BLACK
6
CONTINUOUS
10
3.10244
20
-2.73579
11
3.20283
21
-2.73579
0
LINE
8
BLACK
6
CONTINUOUS
10
3.20283
20
-2.73579
11
3.20283
21
-2.83421
0
LINE
8
BLACK
6
CONTINUOUS
10
6.94283
20
-2.83421
11
6.84244
21
-2.83421
0
LINE
8
BLACK
6
CONTINUOUS
10
6.84244
20
-2.83421
11
6.84244
21
-2.73579
0
LINE
8
BLACK
6
CONTINUOUS
10
6.84244
20
-2.73579
11
6.94283
21
-2.73579
0
LINE
8
BLACK
6
CONTINUOUS
10
6.94283
20
-2.73579
11
6.94283
21
-2.83421
0
LINE
8
BLACK
6
CONTINUOUS
10
14.0858
20
-2.83421
11
13.9854
21
-2.83421
0
LINE
8
BLACK
6
CONTINUOUS
10
13.9854
20
-2.83421
11
13.9854
21
-2.73579
0
LINE
8
BLACK
6
CONTINUOUS
10
13.9854
20
-2.73579
11
14.0858
21
-2.73579
0
LINE
8
BLACK
6
CONTINUOUS
10
14.0858
20
-2.73579
11
14.0858
21
-2.83421
0
LINE
8
BLACK
6
CONTINUOUS
10
9.19283
20
-2.83421
11
9.09244
21
-2.83421
0
LINE
8
BLACK
6
CONTINUOUS
10
9.09244
20
-2.83421
11
9.09244
21
-2.73579
0
LINE
8
BLACK
6
CONTINUOUS
10
9.09244
20
-2.73579
11
9.19283
21
-2.73579
0
LINE
8
BLACK
6
CONTINUOUS
10
9.19283
20
-2.73579
11
9.19283
21
-2.83421
0
LINE
8
BLACK
6
CONTINUOUS
10
8.44283
20
-2.83421
11
8.34244
21
-2.83421
0
LINE
8
BLACK
6
CONTINUOUS
10
8.34244
20
-2.83421
11
8.34244
21
-2.73579
0
LINE
8
BLACK
6
CONTINUOUS
10
8.34244
20
-2.73579
11
8.44283
21
-2.73579
0
LINE
8
BLACK
6
CONTINUOUS
10
8.44283
20
-2.73579
11
8.44283
21
-2.83421
0
LINE
8
BLACK
6
CONTINUOUS
10
9.94283
20
-2.83421
11
9.84244
21
-2.83421
0
LINE
8
BLACK
6
CONTINUOUS
10
9.84244
20
-2.83421
11
9.84244
21
-2.73579
0
LINE
8
BLACK
6
CONTINUOUS
10
9.84244
20
-2.73579
11
9.94283
21
-2.73579
0
LINE
8
BLACK
6
CONTINUOUS
10
9.94283
20
-2.73579
11
9.94283
21
-2.83421
0
LINE
8
BLACK
6
CONTINUOUS
10
2.1741
20
-2.83382
11
2.07371
21
-2.83382
0
LINE
8
BLACK
6
CONTINUOUS
10
2.07371
20
-2.83382
11
2.07371
21
-2.73539
0
LINE
8
BLACK
6
CONTINUOUS
10
2.07371
20
-2.73539
11
2.1741
21
-2.73539
0
LINE
8
BLACK
6
CONTINUOUS
10
2.1741
20
-2.73539
11
2.1741
21
-2.83382
0
LINE
8
BLACK
6
CONTINUOUS
10
11.9132
20
-2.83132
11
11.8128
21
-2.83132
0
LINE
8
BLACK
6
CONTINUOUS
10
11.8128
20
-2.83132
11
11.8128
21
-2.73289
0
LINE
8
BLACK
6
CONTINUOUS
10
11.8128
20
-2.73289
11
11.9132
21
-2.73289
0
LINE
8
BLACK
6
CONTINUOUS
10
11.9132
20
-2.73289
11
11.9132
21
-2.83132
0
LINE
8
BLACK
6
CONTINUOUS
10
11.6155
20
-2.18632
11
11.5151
21
-2.18632
0
LINE
8
BLACK
6
CONTINUOUS
10
11.5151
20
-2.18632
11
11.5151
21
-2.08789
0
LINE
8
BLACK
6
CONTINUOUS
10
11.5151
20
-2.08789
11
11.6155
21
-2.08789
0
LINE
8
BLACK
6
CONTINUOUS
10
11.6155
20
-2.08789
11
11.6155
21
-2.18632
0
LINE
8
BLACK
6
CONTINUOUS
10
1.53503
20
-2.18446
11
1.43463
21
-2.18446
0
LINE
8
BLACK
6
CONTINUOUS
10
1.43463
20
-2.18446
11
1.43463
21
-2.08603
0
LINE
8
BLACK
6
CONTINUOUS
10
1.43463
20
-2.08603
11
1.53503
21
-2.08603
0
LINE
8
BLACK
6
CONTINUOUS
10
1.53503
20
-2.08603
11
1.53503
21
-2.18446
0
LINE
8
BLACK
6
CONTINUOUS
10
13.5406
20
-2.18421
11
13.4402
21
-2.18421
0
LINE
8
BLACK
6
CONTINUOUS
10
13.4402
20
-2.18421
11
13.4402
21
-2.08579
0
LINE
8
BLACK
6
CONTINUOUS
10
13.4402
20
-2.08579
11
13.5406
21
-2.08579
0
LINE
8
BLACK
6
CONTINUOUS
10
13.5406
20
-2.08579
11
13.5406
21
-2.18421
0
LINE
8
BLACK
6
CONTINUOUS
10
14.2856
20
-2.18421
11
14.1852
21
-2.18421
0
LINE
8
BLACK
6
CONTINUOUS
10
14.1852
20
-2.18421
11
14.1852
21
-2.08579
0
LINE
8
BLACK
6
CONTINUOUS
10
14.1852
20
-2.08579
11
14.2856
21
-2.08579
0
LINE
8
BLACK
6
CONTINUOUS
10
14.2856
20
-2.08579
11
14.2856
21
-2.18421
0
LINE
8
BLACK
6
CONTINUOUS
10
12.7906
20
-2.18421
11
12.6902
21
-2.18421
0
LINE
8
BLACK
6
CONTINUOUS
10
12.6902
20
-2.18421
11
12.6902
21
-2.08579
0
LINE
8
BLACK
6
CONTINUOUS
10
12.6902
20
-2.08579
11
12.7906
21
-2.08579
0
LINE
8
BLACK
6
CONTINUOUS
10
12.7906
20
-2.08579
11
12.7906
21
-2.18421
0
LINE
8
BLACK
6
CONTINUOUS
10
7.68756
20
-2.17921
11
7.58717
21
-2.17921
0
LINE
8
BLACK
6
CONTINUOUS
10
7.58717
20
-2.17921
11
7.58717
21
-2.08079
0
LINE
8
BLACK
6
CONTINUOUS
10
7.58717
20
-2.08079
11
7.68756
21
-2.08079
0
LINE
8
BLACK
6
CONTINUOUS
10
7.68756
20
-2.08079
11
7.68756
21
-2.17921
0
LINE
8
BLACK
6
CONTINUOUS
10
6.19756
20
-2.17921
11
6.09717
21
-2.17921
0
LINE
8
BLACK
6
CONTINUOUS
10
6.09717
20
-2.17921
11
6.09717
21
-2.08079
0
LINE
8
BLACK
6
CONTINUOUS
10
6.09717
20
-2.08079
11
6.19756
21
-2.08079
0
LINE
8
BLACK
6
CONTINUOUS
10
6.19756
20
-2.08079
11
6.19756
21
-2.17921
0
LINE
8
BLACK
6
CONTINUOUS
10
6.94256
20
-2.17921
11
6.84217
21
-2.17921
0
LINE
8
BLACK
6
CONTINUOUS
10
6.84217
20
-2.17921
11
6.84217
21
-2.08079
0
LINE
8
BLACK
6
CONTINUOUS
10
6.84217
20
-2.08079
11
6.94256
21
-2.08079
0
LINE
8
BLACK
6
CONTINUOUS
10
6.94256
20
-2.08079
11
6.94256
21
-2.17921
0
LINE
8
BLACK
6
CONTINUOUS
10
2.47256
20
-2.17921
11
2.37217
21
-2.17921
0
LINE
8
BLACK
6
CONTINUOUS
10
2.37217
20
-2.17921
11
2.37217
21
-2.08079
0
LINE
8
BLACK
6
CONTINUOUS
10
2.37217
20
-2.08079
11
2.47256
21
-2.08079
0
LINE
8
BLACK
6
CONTINUOUS
10
2.47256
20
-2.08079
11
2.47256
21
-2.17921
0
LINE
8
BLACK
6
CONTINUOUS
10
10.6826
20
-2.17921
11
10.5822
21
-2.17921
0
LINE
8
BLACK
6
CONTINUOUS
10
10.5822
20
-2.17921
11
10.5822
21
-2.08079
0
LINE
8
BLACK
6
CONTINUOUS
10
10.5822
20
-2.08079
11
10.6826
21
-2.08079
0
LINE
8
BLACK
6
CONTINUOUS
10
10.6826
20
-2.08079
11
10.6826
21
-2.17921
0
LINE
8
BLACK
6
CONTINUOUS
10
5.45256
20
-2.17921
11
5.35217
21
-2.17921
0
LINE
8
BLACK
6
CONTINUOUS
10
5.35217
20
-2.17921
11
5.35217
21
-2.08079
0
LINE
8
BLACK
6
CONTINUOUS
10
5.35217
20
-2.08079
11
5.45256
21
-2.08079
0
LINE
8
BLACK
6
CONTINUOUS
10
5.45256
20
-2.08079
11
5.45256
21
-2.17921
0
LINE
8
BLACK
6
CONTINUOUS
10
4.70756
20
-2.17921
11
4.60717
21
-2.17921
0
LINE
8
BLACK
6
CONTINUOUS
10
4.60717
20
-2.17921
11
4.60717
21
-2.08079
0
LINE
8
BLACK
6
CONTINUOUS
10
4.60717
20
-2.08079
11
4.70756
21
-2.08079
0
LINE
8
BLACK
6
CONTINUOUS
10
4.70756
20
-2.08079
11
4.70756
21
-2.17921
0
LINE
8
BLACK
6
CONTINUOUS
10
9.92756
20
-2.17921
11
9.82717
21
-2.17921
0
LINE
8
BLACK
6
CONTINUOUS
10
9.82717
20
-2.17921
11
9.82717
21
-2.08079
0
LINE
8
BLACK
6
CONTINUOUS
10
9.82717
20
-2.08079
11
9.92756
21
-2.08079
0
LINE
8
BLACK
6
CONTINUOUS
10
9.92756
20
-2.08079
11
9.92756
21
-2.17921
0
LINE
8
BLACK
6
CONTINUOUS
10
3.96256
20
-2.17921
11
3.86217
21
-2.17921
0
LINE
8
BLACK
6
CONTINUOUS
10
3.86217
20
-2.17921
11
3.86217
21
-2.08079
0
LINE
8
BLACK
6
CONTINUOUS
10
3.86217
20
-2.08079
11
3.96256
21
-2.08079
0
LINE
8
BLACK
6
CONTINUOUS
10
3.96256
20
-2.08079
11
3.96256
21
-2.17921
0
LINE
8
BLACK
6
CONTINUOUS
10
3.21756
20
-2.17921
11
3.11717
21
-2.17921
0
LINE
8
BLACK
6
CONTINUOUS
10
3.11717
20
-2.17921
11
3.11717
21
-2.08079
0
LINE
8
BLACK
6
CONTINUOUS
10
3.11717
20
-2.08079
11
3.21756
21
-2.08079
0
LINE
8
BLACK
6
CONTINUOUS
10
3.21756
20
-2.08079
11
3.21756
21
-2.17921
0
LINE
8
BLACK
6
CONTINUOUS
10
8.43256
20
-2.17921
11
8.33217
21
-2.17921
0
LINE
8
BLACK
6
CONTINUOUS
10
8.33217
20
-2.17921
11
8.33217
21
-2.08079
0
LINE
8
BLACK
6
CONTINUOUS
10
8.33217
20
-2.08079
11
8.43256
21
-2.08079
0
LINE
8
BLACK
6
CONTINUOUS
10
8.43256
20
-2.08079
11
8.43256
21
-2.17921
0
LINE
8
BLACK
6
CONTINUOUS
10
9.17756
20
-2.17921
11
9.07717
21
-2.17921
0
LINE
8
BLACK
6
CONTINUOUS
10
9.07717
20
-2.17921
11
9.07717
21
-2.08079
0
LINE
8
BLACK
6
CONTINUOUS
10
9.07717
20
-2.08079
11
9.17756
21
-2.08079
0
LINE
8
BLACK
6
CONTINUOUS
10
9.17756
20
-2.08079
11
9.17756
21
-2.17921
0
LINE
8
BLACK
6
CONTINUOUS
10
12.1607
20
-2.08632
11
12.0604
21
-2.08632
0
LINE
8
BLACK
6
CONTINUOUS
10
12.0604
20
-2.08632
11
12.0604
21
-1.98789
0
LINE
8
BLACK
6
CONTINUOUS
10
12.0604
20
-1.98789
11
12.1607
21
-1.98789
0
LINE
8
BLACK
6
CONTINUOUS
10
12.1607
20
-1.98789
11
12.1607
21
-2.08632
0
LINE
8
BLACK
6
CONTINUOUS
10
2.0803
20
-2.08446
11
1.97991
21
-2.08446
0
LINE
8
BLACK
6
CONTINUOUS
10
1.97991
20
-2.08446
11
1.97991
21
-1.98603
0
LINE
8
BLACK
6
CONTINUOUS
10
1.97991
20
-1.98603
11
2.0803
21
-1.98603
0
LINE
8
BLACK
6
CONTINUOUS
10
2.0803
20
-1.98603
11
2.0803
21
-2.08446
0
LINE
8
BLACK
6
CONTINUOUS
10
13.3358
20
-2.08421
11
13.2354
21
-2.08421
0
LINE
8
BLACK
6
CONTINUOUS
10
13.2354
20
-2.08421
11
13.2354
21
-1.98579
0
LINE
8
BLACK
6
CONTINUOUS
10
13.2354
20
-1.98579
11
13.3358
21
-1.98579
0
LINE
8
BLACK
6
CONTINUOUS
10
13.3358
20
-1.98579
11
13.3358
21
-2.08421
0
LINE
8
BLACK
6
CONTINUOUS
10
14.8308
20
-2.08421
11
14.7304
21
-2.08421
0
LINE
8
BLACK
6
CONTINUOUS
10
14.7304
20
-2.08421
11
14.7304
21
-1.98579
0
LINE
8
BLACK
6
CONTINUOUS
10
14.7304
20
-1.98579
11
14.8308
21
-1.98579
0
LINE
8
BLACK
6
CONTINUOUS
10
14.8308
20
-1.98579
11
14.8308
21
-2.08421
0
LINE
8
BLACK
6
CONTINUOUS
10
14.0858
20
-2.08421
11
13.9854
21
-2.08421
0
LINE
8
BLACK
6
CONTINUOUS
10
13.9854
20
-2.08421
11
13.9854
21
-1.98579
0
LINE
8
BLACK
6
CONTINUOUS
10
13.9854
20
-1.98579
11
14.0858
21
-1.98579
0
LINE
8
BLACK
6
CONTINUOUS
10
14.0858
20
-1.98579
11
14.0858
21
-2.08421
0
LINE
8
BLACK
6
CONTINUOUS
10
8.97783
20
-2.07921
11
8.87744
21
-2.07921
0
LINE
8
BLACK
6
CONTINUOUS
10
8.87744
20
-2.07921
11
8.87744
21
-1.98079
0
LINE
8
BLACK
6
CONTINUOUS
10
8.87744
20
-1.98079
11
8.97783
21
-1.98079
0
LINE
8
BLACK
6
CONTINUOUS
10
8.97783
20
-1.98079
11
8.97783
21
-2.07921
0
LINE
8
BLACK
6
CONTINUOUS
10
6.74283
20
-2.07921
11
6.64244
21
-2.07921
0
LINE
8
BLACK
6
CONTINUOUS
10
6.64244
20
-2.07921
11
6.64244
21
-1.98079
0
LINE
8
BLACK
6
CONTINUOUS
10
6.64244
20
-1.98079
11
6.74283
21
-1.98079
0
LINE
8
BLACK
6
CONTINUOUS
10
6.74283
20
-1.98079
11
6.74283
21
-2.07921
0
LINE
8
BLACK
6
CONTINUOUS
10
4.50783
20
-2.07921
11
4.40744
21
-2.07921
0
LINE
8
BLACK
6
CONTINUOUS
10
4.40744
20
-2.07921
11
4.40744
21
-1.98079
0
LINE
8
BLACK
6
CONTINUOUS
10
4.40744
20
-1.98079
11
4.50783
21
-1.98079
0
LINE
8
BLACK
6
CONTINUOUS
10
4.50783
20
-1.98079
11
4.50783
21
-2.07921
0
LINE
8
BLACK
6
CONTINUOUS
10
11.2278
20
-2.07921
11
11.1274
21
-2.07921
0
LINE
8
BLACK
6
CONTINUOUS
10
11.1274
20
-2.07921
11
11.1274
21
-1.98079
0
LINE
8
BLACK
6
CONTINUOUS
10
11.1274
20
-1.98079
11
11.2278
21
-1.98079
0
LINE
8
BLACK
6
CONTINUOUS
10
11.2278
20
-1.98079
11
11.2278
21
-2.07921
0
LINE
8
BLACK
6
CONTINUOUS
10
3.01783
20
-2.07921
11
2.91744
21
-2.07921
0
LINE
8
BLACK
6
CONTINUOUS
10
2.91744
20
-2.07921
11
2.91744
21
-1.98079
0
LINE
8
BLACK
6
CONTINUOUS
10
2.91744
20
-1.98079
11
3.01783
21
-1.98079
0
LINE
8
BLACK
6
CONTINUOUS
10
3.01783
20
-1.98079
11
3.01783
21
-2.07921
0
LINE
8
BLACK
6
CONTINUOUS
10
3.76283
20
-2.07921
11
3.66244
21
-2.07921
0
LINE
8
BLACK
6
CONTINUOUS
10
3.66244
20
-2.07921
11
3.66244
21
-1.98079
0
LINE
8
BLACK
6
CONTINUOUS
10
3.66244
20
-1.98079
11
3.76283
21
-1.98079
0
LINE
8
BLACK
6
CONTINUOUS
10
3.76283
20
-1.98079
11
3.76283
21
-2.07921
0
LINE
8
BLACK
6
CONTINUOUS
10
7.48783
20
-2.07921
11
7.38744
21
-2.07921
0
LINE
8
BLACK
6
CONTINUOUS
10
7.38744
20
-2.07921
11
7.38744
21
-1.98079
0
LINE
8
BLACK
6
CONTINUOUS
10
7.38744
20
-1.98079
11
7.48783
21
-1.98079
0
LINE
8
BLACK
6
CONTINUOUS
10
7.48783
20
-1.98079
11
7.48783
21
-2.07921
0
LINE
8
BLACK
6
CONTINUOUS
10
5.99783
20
-2.07921
11
5.89744
21
-2.07921
0
LINE
8
BLACK
6
CONTINUOUS
10
5.89744
20
-2.07921
11
5.89744
21
-1.98079
0
LINE
8
BLACK
6
CONTINUOUS
10
5.89744
20
-1.98079
11
5.99783
21
-1.98079
0
LINE
8
BLACK
6
CONTINUOUS
10
5.99783
20
-1.98079
11
5.99783
21
-2.07921
0
LINE
8
BLACK
6
CONTINUOUS
10
9.72283
20
-2.07921
11
9.62244
21
-2.07921
0
LINE
8
BLACK
6
CONTINUOUS
10
9.62244
20
-2.07921
11
9.62244
21
-1.98079
0
LINE
8
BLACK
6
CONTINUOUS
10
9.62244
20
-1.98079
11
9.72283
21
-1.98079
0
LINE
8
BLACK
6
CONTINUOUS
10
9.72283
20
-1.98079
11
9.72283
21
-2.07921
0
LINE
8
BLACK
6
CONTINUOUS
10
5.25283
20
-2.07921
11
5.15244
21
-2.07921
0
LINE
8
BLACK
6
CONTINUOUS
10
5.15244
20
-2.07921
11
5.15244
21
-1.98079
0
LINE
8
BLACK
6
CONTINUOUS
10
5.15244
20
-1.98079
11
5.25283
21
-1.98079
0
LINE
8
BLACK
6
CONTINUOUS
10
5.25283
20
-1.98079
11
5.25283
21
-2.07921
0
LINE
8
BLACK
6
CONTINUOUS
10
8.23283
20
-2.07921
11
8.13244
21
-2.07921
0
LINE
8
BLACK
6
CONTINUOUS
10
8.13244
20
-2.07921
11
8.13244
21
-1.98079
0
LINE
8
BLACK
6
CONTINUOUS
10
8.13244
20
-1.98079
11
8.23283
21
-1.98079
0
LINE
8
BLACK
6
CONTINUOUS
10
8.23283
20
-1.98079
11
8.23283
21
-2.07921
0
LINE
8
BLACK
6
CONTINUOUS
10
10.4728
20
-2.07921
11
10.3724
21
-2.07921
0
LINE
8
BLACK
6
CONTINUOUS
10
10.3724
20
-2.07921
11
10.3724
21
-1.98079
0
LINE
8
BLACK
6
CONTINUOUS
10
10.3724
20
-1.98079
11
10.4728
21
-1.98079
0
LINE
8
BLACK
6
CONTINUOUS
10
10.4728
20
-1.98079
11
10.4728
21
-2.07921
0
LINE
8
BLACK
6
CONTINUOUS
10
13.5406
20
-1.43921
11
13.4402
21
-1.43921
0
LINE
8
BLACK
6
CONTINUOUS
10
13.4402
20
-1.43921
11
13.4402
21
-1.34079
0
LINE
8
BLACK
6
CONTINUOUS
10
13.4402
20
-1.34079
11
13.5406
21
-1.34079
0
LINE
8
BLACK
6
CONTINUOUS
10
13.5406
20
-1.34079
11
13.5406
21
-1.43921
0
LINE
8
BLACK
6
CONTINUOUS
10
12.7906
20
-1.43921
11
12.6902
21
-1.43921
0
LINE
8
BLACK
6
CONTINUOUS
10
12.6902
20
-1.43921
11
12.6902
21
-1.34079
0
LINE
8
BLACK
6
CONTINUOUS
10
12.6902
20
-1.34079
11
12.7906
21
-1.34079
0
LINE
8
BLACK
6
CONTINUOUS
10
12.7906
20
-1.34079
11
12.7906
21
-1.43921
0
LINE
8
BLACK
6
CONTINUOUS
10
14.2856
20
-1.43921
11
14.1852
21
-1.43921
0
LINE
8
BLACK
6
CONTINUOUS
10
14.1852
20
-1.43921
11
14.1852
21
-1.34079
0
LINE
8
BLACK
6
CONTINUOUS
10
14.1852
20
-1.34079
11
14.2856
21
-1.34079
0
LINE
8
BLACK
6
CONTINUOUS
10
14.2856
20
-1.34079
11
14.2856
21
-1.43921
0
LINE
8
BLACK
6
CONTINUOUS
10
11.4692
20
-1.43882
11
11.3688
21
-1.43882
0
LINE
8
BLACK
6
CONTINUOUS
10
11.3688
20
-1.43882
11
11.3688
21
-1.34039
0
LINE
8
BLACK
6
CONTINUOUS
10
11.3688
20
-1.34039
11
11.4692
21
-1.34039
0
LINE
8
BLACK
6
CONTINUOUS
10
11.4692
20
-1.34039
11
11.4692
21
-1.43882
0
LINE
8
BLACK
6
CONTINUOUS
10
7.34256
20
-1.43244
11
7.24217
21
-1.43244
0
LINE
8
BLACK
6
CONTINUOUS
10
7.24217
20
-1.43244
11
7.24217
21
-1.33401
0
LINE
8
BLACK
6
CONTINUOUS
10
7.24217
20
-1.33401
11
7.34256
21
-1.33401
0
LINE
8
BLACK
6
CONTINUOUS
10
7.34256
20
-1.33401
11
7.34256
21
-1.43244
0
LINE
8
BLACK
6
CONTINUOUS
10
8.84256
20
-1.43244
11
8.74217
21
-1.43244
0
LINE
8
BLACK
6
CONTINUOUS
10
8.74217
20
-1.43244
11
8.74217
21
-1.33401
0
LINE
8
BLACK
6
CONTINUOUS
10
8.74217
20
-1.33401
11
8.84256
21
-1.33401
0
LINE
8
BLACK
6
CONTINUOUS
10
8.84256
20
-1.33401
11
8.84256
21
-1.43244
0
LINE
8
BLACK
6
CONTINUOUS
10
8.09256
20
-1.43244
11
7.99217
21
-1.43244
0
LINE
8
BLACK
6
CONTINUOUS
10
7.99217
20
-1.43244
11
7.99217
21
-1.33401
0
LINE
8
BLACK
6
CONTINUOUS
10
7.99217
20
-1.33401
11
8.09256
21
-1.33401
0
LINE
8
BLACK
6
CONTINUOUS
10
8.09256
20
-1.33401
11
8.09256
21
-1.43244
0
LINE
8
BLACK
6
CONTINUOUS
10
10.3426
20
-1.43244
11
10.2422
21
-1.43244
0
LINE
8
BLACK
6
CONTINUOUS
10
10.2422
20
-1.43244
11
10.2422
21
-1.33401
0
LINE
8
BLACK
6
CONTINUOUS
10
10.2422
20
-1.33401
11
10.3426
21
-1.33401
0
LINE
8
BLACK
6
CONTINUOUS
10
10.3426
20
-1.33401
11
10.3426
21
-1.43244
0
LINE
8
BLACK
6
CONTINUOUS
10
6.59256
20
-1.43244
11
6.49217
21
-1.43244
0
LINE
8
BLACK
6
CONTINUOUS
10
6.49217
20
-1.43244
11
6.49217
21
-1.33401
0
LINE
8
BLACK
6
CONTINUOUS
10
6.49217
20
-1.33401
11
6.59256
21
-1.33401
0
LINE
8
BLACK
6
CONTINUOUS
10
6.59256
20
-1.33401
11
6.59256
21
-1.43244
0
LINE
8
BLACK
6
CONTINUOUS
10
9.59256
20
-1.43244
11
9.49217
21
-1.43244
0
LINE
8
BLACK
6
CONTINUOUS
10
9.49217
20
-1.43244
11
9.49217
21
-1.33401
0
LINE
8
BLACK
6
CONTINUOUS
10
9.49217
20
-1.33401
11
9.59256
21
-1.33401
0
LINE
8
BLACK
6
CONTINUOUS
10
9.59256
20
-1.33401
11
9.59256
21
-1.43244
0
LINE
8
BLACK
6
CONTINUOUS
10
3.59256
20
-1.43244
11
3.49217
21
-1.43244
0
LINE
8
BLACK
6
CONTINUOUS
10
3.49217
20
-1.43244
11
3.49217
21
-1.33401
0
LINE
8
BLACK
6
CONTINUOUS
10
3.49217
20
-1.33401
11
3.59256
21
-1.33401
0
LINE
8
BLACK
6
CONTINUOUS
10
3.59256
20
-1.33401
11
3.59256
21
-1.43244
0
LINE
8
BLACK
6
CONTINUOUS
10
2.09256
20
-1.43244
11
1.99217
21
-1.43244
0
LINE
8
BLACK
6
CONTINUOUS
10
1.99217
20
-1.43244
11
1.99217
21
-1.33401
0
LINE
8
BLACK
6
CONTINUOUS
10
1.99217
20
-1.33401
11
2.09256
21
-1.33401
0
LINE
8
BLACK
6
CONTINUOUS
10
2.09256
20
-1.33401
11
2.09256
21
-1.43244
0
LINE
8
BLACK
6
CONTINUOUS
10
5.09256
20
-1.43244
11
4.99217
21
-1.43244
0
LINE
8
BLACK
6
CONTINUOUS
10
4.99217
20
-1.43244
11
4.99217
21
-1.33401
0
LINE
8
BLACK
6
CONTINUOUS
10
4.99217
20
-1.33401
11
5.09256
21
-1.33401
0
LINE
8
BLACK
6
CONTINUOUS
10
5.09256
20
-1.33401
11
5.09256
21
-1.43244
0
LINE
8
BLACK
6
CONTINUOUS
10
4.34256
20
-1.43244
11
4.24217
21
-1.43244
0
LINE
8
BLACK
6
CONTINUOUS
10
4.24217
20
-1.43244
11
4.24217
21
-1.33401
0
LINE
8
BLACK
6
CONTINUOUS
10
4.24217
20
-1.33401
11
4.34256
21
-1.33401
0
LINE
8
BLACK
6
CONTINUOUS
10
4.34256
20
-1.33401
11
4.34256
21
-1.43244
0
LINE
8
BLACK
6
CONTINUOUS
10
2.84256
20
-1.43244
11
2.74217
21
-1.43244
0
LINE
8
BLACK
6
CONTINUOUS
10
2.74217
20
-1.43244
11
2.74217
21
-1.33401
0
LINE
8
BLACK
6
CONTINUOUS
10
2.74217
20
-1.33401
11
2.84256
21
-1.33401
0
LINE
8
BLACK
6
CONTINUOUS
10
2.84256
20
-1.33401
11
2.84256
21
-1.43244
0
LINE
8
BLACK
6
CONTINUOUS
10
1.34256
20
-1.43244
11
1.24217
21
-1.43244
0
LINE
8
BLACK
6
CONTINUOUS
10
1.24217
20
-1.43244
11
1.24217
21
-1.33401
0
LINE
8
BLACK
6
CONTINUOUS
10
1.24217
20
-1.33401
11
1.34256
21
-1.33401
0
LINE
8
BLACK
6
CONTINUOUS
10
1.34256
20
-1.33401
11
1.34256
21
-1.43244
0
LINE
8
BLACK
6
CONTINUOUS
10
5.84256
20
-1.43244
11
5.74217
21
-1.43244
0
LINE
8
BLACK
6
CONTINUOUS
10
5.74217
20
-1.43244
11
5.74217
21
-1.33401
0
LINE
8
BLACK
6
CONTINUOUS
10
5.74217
20
-1.33401
11
5.84256
21
-1.33401
0
LINE
8
BLACK
6
CONTINUOUS
10
5.84256
20
-1.33401
11
5.84256
21
-1.43244
0
LINE
8
BLACK
6
CONTINUOUS
10
14.0858
20
-1.33921
11
13.9854
21
-1.33921
0
LINE
8
BLACK
6
CONTINUOUS
10
13.9854
20
-1.33921
11
13.9854
21
-1.24079
0
LINE
8
BLACK
6
CONTINUOUS
10
13.9854
20
-1.24079
11
14.0858
21
-1.24079
0
LINE
8
BLACK
6
CONTINUOUS
10
14.0858
20
-1.24079
11
14.0858
21
-1.33921
0
LINE
8
BLACK
6
CONTINUOUS
10
14.8308
20
-1.33921
11
14.7304
21
-1.33921
0
LINE
8
BLACK
6
CONTINUOUS
10
14.7304
20
-1.33921
11
14.7304
21
-1.24079
0
LINE
8
BLACK
6
CONTINUOUS
10
14.7304
20
-1.24079
11
14.8308
21
-1.24079
0
LINE
8
BLACK
6
CONTINUOUS
10
14.8308
20
-1.24079
11
14.8308
21
-1.33921
0
LINE
8
BLACK
6
CONTINUOUS
10
13.3358
20
-1.33921
11
13.2354
21
-1.33921
0
LINE
8
BLACK
6
CONTINUOUS
10
13.2354
20
-1.33921
11
13.2354
21
-1.24079
0
LINE
8
BLACK
6
CONTINUOUS
10
13.2354
20
-1.24079
11
13.3358
21
-1.24079
0
LINE
8
BLACK
6
CONTINUOUS
10
13.3358
20
-1.24079
11
13.3358
21
-1.33921
0
LINE
8
BLACK
6
CONTINUOUS
10
12.0145
20
-1.33882
11
11.9141
21
-1.33882
0
LINE
8
BLACK
6
CONTINUOUS
10
11.9141
20
-1.33882
11
11.9141
21
-1.24039
0
LINE
8
BLACK
6
CONTINUOUS
10
11.9141
20
-1.24039
11
12.0145
21
-1.24039
0
LINE
8
BLACK
6
CONTINUOUS
10
12.0145
20
-1.24039
11
12.0145
21
-1.33882
0
LINE
8
BLACK
6
CONTINUOUS
10
1.88783
20
-1.33244
11
1.78744
21
-1.33244
0
LINE
8
BLACK
6
CONTINUOUS
10
1.78744
20
-1.33244
11
1.78744
21
-1.23401
0
LINE
8
BLACK
6
CONTINUOUS
10
1.78744
20
-1.23401
11
1.88783
21
-1.23401
0
LINE
8
BLACK
6
CONTINUOUS
10
1.88783
20
-1.23401
11
1.88783
21
-1.33244
0
LINE
8
BLACK
6
CONTINUOUS
10
4.13783
20
-1.33244
11
4.03744
21
-1.33244
0
LINE
8
BLACK
6
CONTINUOUS
10
4.03744
20
-1.33244
11
4.03744
21
-1.23401
0
LINE
8
BLACK
6
CONTINUOUS
10
4.03744
20
-1.23401
11
4.13783
21
-1.23401
0
LINE
8
BLACK
6
CONTINUOUS
10
4.13783
20
-1.23401
11
4.13783
21
-1.33244
0
LINE
8
BLACK
6
CONTINUOUS
10
9.38783
20
-1.33244
11
9.28744
21
-1.33244
0
LINE
8
BLACK
6
CONTINUOUS
10
9.28744
20
-1.33244
11
9.28744
21
-1.23401
0
LINE
8
BLACK
6
CONTINUOUS
10
9.28744
20
-1.23401
11
9.38783
21
-1.23401
0
LINE
8
BLACK
6
CONTINUOUS
10
9.38783
20
-1.23401
11
9.38783
21
-1.33244
0
LINE
8
BLACK
6
CONTINUOUS
10
7.88783
20
-1.33244
11
7.78744
21
-1.33244
0
LINE
8
BLACK
6
CONTINUOUS
10
7.78744
20
-1.33244
11
7.78744
21
-1.23401
0
LINE
8
BLACK
6
CONTINUOUS
10
7.78744
20
-1.23401
11
7.88783
21
-1.23401
0
LINE
8
BLACK
6
CONTINUOUS
10
7.88783
20
-1.23401
11
7.88783
21
-1.33244
0
LINE
8
BLACK
6
CONTINUOUS
10
4.88783
20
-1.33244
11
4.78744
21
-1.33244
0
LINE
8
BLACK
6
CONTINUOUS
10
4.78744
20
-1.33244
11
4.78744
21
-1.23401
0
LINE
8
BLACK
6
CONTINUOUS
10
4.78744
20
-1.23401
11
4.88783
21
-1.23401
0
LINE
8
BLACK
6
CONTINUOUS
10
4.88783
20
-1.23401
11
4.88783
21
-1.33244
0
LINE
8
BLACK
6
CONTINUOUS
10
5.63783
20
-1.33244
11
5.53744
21
-1.33244
0
LINE
8
BLACK
6
CONTINUOUS
10
5.53744
20
-1.33244
11
5.53744
21
-1.23401
0
LINE
8
BLACK
6
CONTINUOUS
10
5.53744
20
-1.23401
11
5.63783
21
-1.23401
0
LINE
8
BLACK
6
CONTINUOUS
10
5.63783
20
-1.23401
11
5.63783
21
-1.33244
0
LINE
8
BLACK
6
CONTINUOUS
10
3.38783
20
-1.33244
11
3.28744
21
-1.33244
0
LINE
8
BLACK
6
CONTINUOUS
10
3.28744
20
-1.33244
11
3.28744
21
-1.23401
0
LINE
8
BLACK
6
CONTINUOUS
10
3.28744
20
-1.23401
11
3.38783
21
-1.23401
0
LINE
8
BLACK
6
CONTINUOUS
10
3.38783
20
-1.23401
11
3.38783
21
-1.33244
0
LINE
8
BLACK
6
CONTINUOUS
10
8.63783
20
-1.33244
11
8.53744
21
-1.33244
0
LINE
8
BLACK
6
CONTINUOUS
10
8.53744
20
-1.33244
11
8.53744
21
-1.23401
0
LINE
8
BLACK
6
CONTINUOUS
10
8.53744
20
-1.23401
11
8.63783
21
-1.23401
0
LINE
8
BLACK
6
CONTINUOUS
10
8.63783
20
-1.23401
11
8.63783
21
-1.33244
0
LINE
8
BLACK
6
CONTINUOUS
10
10.8878
20
-1.33244
11
10.7874
21
-1.33244
0
LINE
8
BLACK
6
CONTINUOUS
10
10.7874
20
-1.33244
11
10.7874
21
-1.23401
0
LINE
8
BLACK
6
CONTINUOUS
10
10.7874
20
-1.23401
11
10.8878
21
-1.23401
0
LINE
8
BLACK
6
CONTINUOUS
10
10.8878
20
-1.23401
11
10.8878
21
-1.33244
0
LINE
8
BLACK
6
CONTINUOUS
10
6.38783
20
-1.33244
11
6.28744
21
-1.33244
0
LINE
8
BLACK
6
CONTINUOUS
10
6.28744
20
-1.33244
11
6.28744
21
-1.23401
0
LINE
8
BLACK
6
CONTINUOUS
10
6.28744
20
-1.23401
11
6.38783
21
-1.23401
0
LINE
8
BLACK
6
CONTINUOUS
10
6.38783
20
-1.23401
11
6.38783
21
-1.33244
0
LINE
8
BLACK
6
CONTINUOUS
10
10.1378
20
-1.33244
11
10.0374
21
-1.33244
0
LINE
8
BLACK
6
CONTINUOUS
10
10.0374
20
-1.33244
11
10.0374
21
-1.23401
0
LINE
8
BLACK
6
CONTINUOUS
10
10.0374
20
-1.23401
11
10.1378
21
-1.23401
0
LINE
8
BLACK
6
CONTINUOUS
10
10.1378
20
-1.23401
11
10.1378
21
-1.33244
0
LINE
8
BLACK
6
CONTINUOUS
10
2.63783
20
-1.33244
11
2.53744
21
-1.33244
0
LINE
8
BLACK
6
CONTINUOUS
10
2.53744
20
-1.33244
11
2.53744
21
-1.23401
0
LINE
8
BLACK
6
CONTINUOUS
10
2.53744
20
-1.23401
11
2.63783
21
-1.23401
0
LINE
8
BLACK
6
CONTINUOUS
10
2.63783
20
-1.23401
11
2.63783
21
-1.33244
0
LINE
8
BLACK
6
CONTINUOUS
10
7.13783
20
-1.33244
11
7.03744
21
-1.33244
0
LINE
8
BLACK
6
CONTINUOUS
10
7.03744
20
-1.33244
11
7.03744
21
-1.23401
0
LINE
8
BLACK
6
CONTINUOUS
10
7.03744
20
-1.23401
11
7.13783
21
-1.23401
0
LINE
8
BLACK
6
CONTINUOUS
10
7.13783
20
-1.23401
11
7.13783
21
-1.33244
0
LINE
8
BLACK
6
CONTINUOUS
10
1.34256
20
-0.684213
11
1.24217
21
-0.684213
0
LINE
8
BLACK
6
CONTINUOUS
10
1.24217
20
-0.684213
11
1.24217
21
-0.585787
0
LINE
8
BLACK
6
CONTINUOUS
10
1.24217
20
-0.585787
11
1.34256
21
-0.585787
0
LINE
8
BLACK
6
CONTINUOUS
10
1.34256
20
-0.585787
11
1.34256
21
-0.684213
0
LINE
8
BLACK
6
CONTINUOUS
10
11.8484
20
-0.684213
11
11.748
21
-0.684213
0
LINE
8
BLACK
6
CONTINUOUS
10
11.748
20
-0.684213
11
11.748
21
-0.585787
0
LINE
8
BLACK
6
CONTINUOUS
10
11.748
20
-0.585787
11
11.8484
21
-0.585787
0
LINE
8
BLACK
6
CONTINUOUS
10
11.8484
20
-0.585787
11
11.8484
21
-0.684213
0
LINE
8
BLACK
6
CONTINUOUS
10
3.59256
20
-0.684213
11
3.49217
21
-0.684213
0
LINE
8
BLACK
6
CONTINUOUS
10
3.49217
20
-0.684213
11
3.49217
21
-0.585787
0
LINE
8
BLACK
6
CONTINUOUS
10
3.49217
20
-0.585787
11
3.59256
21
-0.585787
0
LINE
8
BLACK
6
CONTINUOUS
10
3.59256
20
-0.585787
11
3.59256
21
-0.684213
0
LINE
8
BLACK
6
CONTINUOUS
10
2.09256
20
-0.684213
11
1.99217
21
-0.684213
0
LINE
8
BLACK
6
CONTINUOUS
10
1.99217
20
-0.684213
11
1.99217
21
-0.585787
0
LINE
8
BLACK
6
CONTINUOUS
10
1.99217
20
-0.585787
11
2.09256
21
-0.585787
0
LINE
8
BLACK
6
CONTINUOUS
10
2.09256
20
-0.585787
11
2.09256
21
-0.684213
0
LINE
8
BLACK
6
CONTINUOUS
10
2.84256
20
-0.684213
11
2.74217
21
-0.684213
0
LINE
8
BLACK
6
CONTINUOUS
10
2.74217
20
-0.684213
11
2.74217
21
-0.585787
0
LINE
8
BLACK
6
CONTINUOUS
10
2.74217
20
-0.585787
11
2.84256
21
-0.585787
0
LINE
8
BLACK
6
CONTINUOUS
10
2.84256
20
-0.585787
11
2.84256
21
-0.684213
0
LINE
8
BLACK
6
CONTINUOUS
10
8.84256
20
-0.684213
11
8.74217
21
-0.684213
0
LINE
8
BLACK
6
CONTINUOUS
10
8.74217
20
-0.684213
11
8.74217
21
-0.585787
0
LINE
8
BLACK
6
CONTINUOUS
10
8.74217
20
-0.585787
11
8.84256
21
-0.585787
0
LINE
8
BLACK
6
CONTINUOUS
10
8.84256
20
-0.585787
11
8.84256
21
-0.684213
0
LINE
8
BLACK
6
CONTINUOUS
10
14.2856
20
-0.684213
11
14.1852
21
-0.684213
0
LINE
8
BLACK
6
CONTINUOUS
10
14.1852
20
-0.684213
11
14.1852
21
-0.585787
0
LINE
8
BLACK
6
CONTINUOUS
10
14.1852
20
-0.585787
11
14.2856
21
-0.585787
0
LINE
8
BLACK
6
CONTINUOUS
10
14.2856
20
-0.585787
11
14.2856
21
-0.684213
0
LINE
8
BLACK
6
CONTINUOUS
10
6.59256
20
-0.684213
11
6.49217
21
-0.684213
0
LINE
8
BLACK
6
CONTINUOUS
10
6.49217
20
-0.684213
11
6.49217
21
-0.585787
0
LINE
8
BLACK
6
CONTINUOUS
10
6.49217
20
-0.585787
11
6.59256
21
-0.585787
0
LINE
8
BLACK
6
CONTINUOUS
10
6.59256
20
-0.585787
11
6.59256
21
-0.684213
0
LINE
8
BLACK
6
CONTINUOUS
10
11.0926
20
-0.684213
11
10.9922
21
-0.684213
0
LINE
8
BLACK
6
CONTINUOUS
10
10.9922
20
-0.684213
11
10.9922
21
-0.585787
0
LINE
8
BLACK
6
CONTINUOUS
10
10.9922
20
-0.585787
11
11.0926
21
-0.585787
0
LINE
8
BLACK
6
CONTINUOUS
10
11.0926
20
-0.585787
11
11.0926
21
-0.684213
0
LINE
8
BLACK
6
CONTINUOUS
10
5.09256
20
-0.684213
11
4.99217
21
-0.684213
0
LINE
8
BLACK
6
CONTINUOUS
10
4.99217
20
-0.684213
11
4.99217
21
-0.585787
0
LINE
8
BLACK
6
CONTINUOUS
10
4.99217
20
-0.585787
11
5.09256
21
-0.585787
0
LINE
8
BLACK
6
CONTINUOUS
10
5.09256
20
-0.585787
11
5.09256
21
-0.684213
0
LINE
8
BLACK
6
CONTINUOUS
10
13.5406
20
-0.684213
11
13.4402
21
-0.684213
0
LINE
8
BLACK
6
CONTINUOUS
10
13.4402
20
-0.684213
11
13.4402
21
-0.585787
0
LINE
8
BLACK
6
CONTINUOUS
10
13.4402
20
-0.585787
11
13.5406
21
-0.585787
0
LINE
8
BLACK
6
CONTINUOUS
10
13.5406
20
-0.585787
11
13.5406
21
-0.684213
0
LINE
8
BLACK
6
CONTINUOUS
10
4.34256
20
-0.684213
11
4.24217
21
-0.684213
0
LINE
8
BLACK
6
CONTINUOUS
10
4.24217
20
-0.684213
11
4.24217
21
-0.585787
0
LINE
8
BLACK
6
CONTINUOUS
10
4.24217
20
-0.585787
11
4.34256
21
-0.585787
0
LINE
8
BLACK
6
CONTINUOUS
10
4.34256
20
-0.585787
11
4.34256
21
-0.684213
0
LINE
8
BLACK
6
CONTINUOUS
10
5.84256
20
-0.684213
11
5.74217
21
-0.684213
0
LINE
8
BLACK
6
CONTINUOUS
10
5.74217
20
-0.684213
11
5.74217
21
-0.585787
0
LINE
8
BLACK
6
CONTINUOUS
10
5.74217
20
-0.585787
11
5.84256
21
-0.585787
0
LINE
8
BLACK
6
CONTINUOUS
10
5.84256
20
-0.585787
11
5.84256
21
-0.684213
0
LINE
8
BLACK
6
CONTINUOUS
10
10.3426
20
-0.684213
11
10.2422
21
-0.684213
0
LINE
8
BLACK
6
CONTINUOUS
10
10.2422
20
-0.684213
11
10.2422
21
-0.585787
0
LINE
8
BLACK
6
CONTINUOUS
10
10.2422
20
-0.585787
11
10.3426
21
-0.585787
0
LINE
8
BLACK
6
CONTINUOUS
10
10.3426
20
-0.585787
11
10.3426
21
-0.684213
0
LINE
8
BLACK
6
CONTINUOUS
10
9.59256
20
-0.684213
11
9.49217
21
-0.684213
0
LINE
8
BLACK
6
CONTINUOUS
10
9.49217
20
-0.684213
11
9.49217
21
-0.585787
0
LINE
8
BLACK
6
CONTINUOUS
10
9.49217
20
-0.585787
11
9.59256
21
-0.585787
0
LINE
8
BLACK
6
CONTINUOUS
10
9.59256
20
-0.585787
11
9.59256
21
-0.684213
0
LINE
8
BLACK
6
CONTINUOUS
10
7.34256
20
-0.684213
11
7.24217
21
-0.684213
0
LINE
8
BLACK
6
CONTINUOUS
10
7.24217
20
-0.684213
11
7.24217
21
-0.585787
0
LINE
8
BLACK
6
CONTINUOUS
10
7.24217
20
-0.585787
11
7.34256
21
-0.585787
0
LINE
8
BLACK
6
CONTINUOUS
10
7.34256
20
-0.585787
11
7.34256
21
-0.684213
0
LINE
8
BLACK
6
CONTINUOUS
10
8.09256
20
-0.684213
11
7.99217
21
-0.684213
0
LINE
8
BLACK
6
CONTINUOUS
10
7.99217
20
-0.684213
11
7.99217
21
-0.585787
0
LINE
8
BLACK
6
CONTINUOUS
10
7.99217
20
-0.585787
11
8.09256
21
-0.585787
0
LINE
8
BLACK
6
CONTINUOUS
10
8.09256
20
-0.585787
11
8.09256
21
-0.684213
0
LINE
8
BLACK
6
CONTINUOUS
10
12.7906
20
-0.684213
11
12.6902
21
-0.684213
0
LINE
8
BLACK
6
CONTINUOUS
10
12.6902
20
-0.684213
11
12.6902
21
-0.585787
0
LINE
8
BLACK
6
CONTINUOUS
10
12.6902
20
-0.585787
11
12.7906
21
-0.585787
0
LINE
8
BLACK
6
CONTINUOUS
10
12.7906
20
-0.585787
11
12.7906
21
-0.684213
0
LINE
8
BLACK
6
CONTINUOUS
10
12.3937
20
-0.584213
11
12.2933
21
-0.584213
0
LINE
8
BLACK
6
CONTINUOUS
10
12.2933
20
-0.584213
11
12.2933
21
-0.485787
0
LINE
8
BLACK
6
CONTINUOUS
10
12.2933
20
-0.485787
11
12.3937
21
-0.485787
0
LINE
8
BLACK
6
CONTINUOUS
10
12.3937
20
-0.485787
11
12.3937
21
-0.584213
0
LINE
8
BLACK
6
CONTINUOUS
10
1.88783
20
-0.584213
11
1.78744
21
-0.584213
0
LINE
8
BLACK
6
CONTINUOUS
10
1.78744
20
-0.584213
11
1.78744
21
-0.485787
0
LINE
8
BLACK
6
CONTINUOUS
10
1.78744
20
-0.485787
11
1.88783
21
-0.485787
0
LINE
8
BLACK
6
CONTINUOUS
10
1.88783
20
-0.485787
11
1.88783
21
-0.584213
0
LINE
8
BLACK
6
CONTINUOUS
10
4.13783
20
-0.584213
11
4.03744
21
-0.584213
0
LINE
8
BLACK
6
CONTINUOUS
10
4.03744
20
-0.584213
11
4.03744
21
-0.485787
0
LINE
8
BLACK
6
CONTINUOUS
10
4.03744
20
-0.485787
11
4.13783
21
-0.485787
0
LINE
8
BLACK
6
CONTINUOUS
10
4.13783
20
-0.485787
11
4.13783
21
-0.584213
0
LINE
8
BLACK
6
CONTINUOUS
10
13.3358
20
-0.584213
11
13.2354
21
-0.584213
0
LINE
8
BLACK
6
CONTINUOUS
10
13.2354
20
-0.584213
11
13.2354
21
-0.485787
0
LINE
8
BLACK
6
CONTINUOUS
10
13.2354
20
-0.485787
11
13.3358
21
-0.485787
0
LINE
8
BLACK
6
CONTINUOUS
10
13.3358
20
-0.485787
11
13.3358
21
-0.584213
0
LINE
8
BLACK
6
CONTINUOUS
10
3.38783
20
-0.584213
11
3.28744
21
-0.584213
0
LINE
8
BLACK
6
CONTINUOUS
10
3.28744
20
-0.584213
11
3.28744
21
-0.485787
0
LINE
8
BLACK
6
CONTINUOUS
10
3.28744
20
-0.485787
11
3.38783
21
-0.485787
0
LINE
8
BLACK
6
CONTINUOUS
10
3.38783
20
-0.485787
11
3.38783
21
-0.584213
0
LINE
8
BLACK
6
CONTINUOUS
10
10.8878
20
-0.584213
11
10.7874
21
-0.584213
0
LINE
8
BLACK
6
CONTINUOUS
10
10.7874
20
-0.584213
11
10.7874
21
-0.485787
0
LINE
8
BLACK
6
CONTINUOUS
10
10.7874
20
-0.485787
11
10.8878
21
-0.485787
0
LINE
8
BLACK
6
CONTINUOUS
10
10.8878
20
-0.485787
11
10.8878
21
-0.584213
0
LINE
8
BLACK
6
CONTINUOUS
10
4.88783
20
-0.584213
11
4.78744
21
-0.584213
0
LINE
8
BLACK
6
CONTINUOUS
10
4.78744
20
-0.584213
11
4.78744
21
-0.485787
0
LINE
8
BLACK
6
CONTINUOUS
10
4.78744
20
-0.485787
11
4.88783
21
-0.485787
0
LINE
8
BLACK
6
CONTINUOUS
10
4.88783
20
-0.485787
11
4.88783
21
-0.584213
0
LINE
8
BLACK
6
CONTINUOUS
10
6.38783
20
-0.584213
11
6.28744
21
-0.584213
0
LINE
8
BLACK
6
CONTINUOUS
10
6.28744
20
-0.584213
11
6.28744
21
-0.485787
0
LINE
8
BLACK
6
CONTINUOUS
10
6.28744
20
-0.485787
11
6.38783
21
-0.485787
0
LINE
8
BLACK
6
CONTINUOUS
10
6.38783
20
-0.485787
11
6.38783
21
-0.584213
0
LINE
8
BLACK
6
CONTINUOUS
10
11.6378
20
-0.584213
11
11.5374
21
-0.584213
0
LINE
8
BLACK
6
CONTINUOUS
10
11.5374
20
-0.584213
11
11.5374
21
-0.485787
0
LINE
8
BLACK
6
CONTINUOUS
10
11.5374
20
-0.485787
11
11.6378
21
-0.485787
0
LINE
8
BLACK
6
CONTINUOUS
10
11.6378
20
-0.485787
11
11.6378
21
-0.584213
0
LINE
8
BLACK
6
CONTINUOUS
10
14.8308
20
-0.584213
11
14.7304
21
-0.584213
0
LINE
8
BLACK
6
CONTINUOUS
10
14.7304
20
-0.584213
11
14.7304
21
-0.485787
0
LINE
8
BLACK
6
CONTINUOUS
10
14.7304
20
-0.485787
11
14.8308
21
-0.485787
0
LINE
8
BLACK
6
CONTINUOUS
10
14.8308
20
-0.485787
11
14.8308
21
-0.584213
0
LINE
8
BLACK
6
CONTINUOUS
10
8.63783
20
-0.584213
11
8.53744
21
-0.584213
0
LINE
8
BLACK
6
CONTINUOUS
10
8.53744
20
-0.584213
11
8.53744
21
-0.485787
0
LINE
8
BLACK
6
CONTINUOUS
10
8.53744
20
-0.485787
11
8.63783
21
-0.485787
0
LINE
8
BLACK
6
CONTINUOUS
10
8.63783
20
-0.485787
11
8.63783
21
-0.584213
0
LINE
8
BLACK
6
CONTINUOUS
10
7.88783
20
-0.584213
11
7.78744
21
-0.584213
0
LINE
8
BLACK
6
CONTINUOUS
10
7.78744
20
-0.584213
11
7.78744
21
-0.485787
0
LINE
8
BLACK
6
CONTINUOUS
10
7.78744
20
-0.485787
11
7.88783
21
-0.485787
0
LINE
8
BLACK
6
CONTINUOUS
10
7.88783
20
-0.485787
11
7.88783
21
-0.584213
0
LINE
8
BLACK
6
CONTINUOUS
10
2.63783
20
-0.584213
11
2.53744
21
-0.584213
0
LINE
8
BLACK
6
CONTINUOUS
10
2.53744
20
-0.584213
11
2.53744
21
-0.485787
0
LINE
8
BLACK
6
CONTINUOUS
10
2.53744
20
-0.485787
11
2.63783
21
-0.485787
0
LINE
8
BLACK
6
CONTINUOUS
10
2.63783
20
-0.485787
11
2.63783
21
-0.584213
0
LINE
8
BLACK
6
CONTINUOUS
10
10.1378
20
-0.584213
11
10.0374
21
-0.584213
0
LINE
8
BLACK
6
CONTINUOUS
10
10.0374
20
-0.584213
11
10.0374
21
-0.485787
0
LINE
8
BLACK
6
CONTINUOUS
10
10.0374
20
-0.485787
11
10.1378
21
-0.485787
0
LINE
8
BLACK
6
CONTINUOUS
10
10.1378
20
-0.485787
11
10.1378
21
-0.584213
0
LINE
8
BLACK
6
CONTINUOUS
10
5.63783
20
-0.584213
11
5.53744
21
-0.584213
0
LINE
8
BLACK
6
CONTINUOUS
10
5.53744
20
-0.584213
11
5.53744
21
-0.485787
0
LINE
8
BLACK
6
CONTINUOUS
10
5.53744
20
-0.485787
11
5.63783
21
-0.485787
0
LINE
8
BLACK
6
CONTINUOUS
10
5.63783
20
-0.485787
11
5.63783
21
-0.584213
0
LINE
8
BLACK
6
CONTINUOUS
10
7.13783
20
-0.584213
11
7.03744
21
-0.584213
0
LINE
8
BLACK
6
CONTINUOUS
10
7.03744
20
-0.584213
11
7.03744
21
-0.485787
0
LINE
8
BLACK
6
CONTINUOUS
10
7.03744
20
-0.485787
11
7.13783
21
-0.485787
0
LINE
8
BLACK
6
CONTINUOUS
10
7.13783
20
-0.485787
11
7.13783
21
-0.584213
0
LINE
8
BLACK
6
CONTINUOUS
10
14.0858
20
-0.584213
11
13.9854
21
-0.584213
0
LINE
8
BLACK
6
CONTINUOUS
10
13.9854
20
-0.584213
11
13.9854
21
-0.485787
0
LINE
8
BLACK
6
CONTINUOUS
10
13.9854
20
-0.485787
11
14.0858
21
-0.485787
0
LINE
8
BLACK
6
CONTINUOUS
10
14.0858
20
-0.485787
11
14.0858
21
-0.584213
0
LINE
8
BLACK
6
CONTINUOUS
10
9.38783
20
-0.584213
11
9.28744
21
-0.584213
0
LINE
8
BLACK
6
CONTINUOUS
10
9.28744
20
-0.584213
11
9.28744
21
-0.485787
0
LINE
8
BLACK
6
CONTINUOUS
10
9.28744
20
-0.485787
11
9.38783
21
-0.485787
0
LINE
8
BLACK
6
CONTINUOUS
10
9.38783
20
-0.485787
11
9.38783
21
-0.584213
  0
ENDSEC
  0
EOF
