  0
SECTION
  2
HEADER
  9
$ANGBASE
  50
0.0
  9
$ANGDIR
  70
1
  9
$MEASUREMENT
  70
1
  0
ENDSEC
  0
SECTION
  2
TABLES
  0
TABLE
  2
LTYPE
  70
4
  0
LTYPE
  5
40F
  2
CONTINUOUS
  70
0
  3
Solid line
  72
65
  73
0
  40
0.0
  0
LTYPE
  5
410
  2
DASHDOT
 70
0
  3
Dash Dot ____ _ ____ _
 72
65
 73
4
 40
2.0
 49
1.25
 49
-0.25
 49
0.25
 49
-0.25
  0
LTYPE
  5
411
  2
DASHED
 70
0
  3
Dashed __ __ __ __ __
 72
65
 73
2
 40
0.75
 49
0.5
 49
-0.25
  0
LTYPE
  5
43B
  2
DOTTED
 70
0
  3
Dotted .  .  .  .
 72
65
 73
2
 40
0.2
 49
0.0
 49
-0.2
  0
ENDTAB
  0
TABLE
  2
STYLE
  70
4
  0
STYLE
  2
KICAD
  70
0
  40
0
  41
1
  42
1
  50
0
  71
0
  3
isocp.shx
  0
STYLE
  2
KICADB
  70
0
  40
0
  41
1
  42
1
  50
0
  71
0
  3
isocp.shx
  0
STYLE
  2
KICADI
  70
0
  40
0
  41
1
  42
1
  50
15
  71
0
  3
isocp.shx
  0
STYLE
  2
KICADBI
  70
0
  40
0
  41
1
  42
1
  50
15
  71
0
  3
isocp.shx
  0
ENDTAB
  0
TABLE
  2
LAYER
  70
1
  0
LAYER
  2
BLACK
  70
0
  62
7
  6
CONTINUOUS
  0
ENDTAB
  0
ENDSEC
  0
SECTION
  2
ENTITIES
0
LINE
8
BLACK
6
CONTINUOUS
10
226.187
20
-107.061
11
240.157
21
-107.061
0
LINE
8
BLACK
6
CONTINUOUS
10
240.157
20
-107.061
11
240.157
21
-109.169
0
LINE
8
BLACK
6
CONTINUOUS
10
240.157
20
-119.863
11
240.157
21
-121.031
0
LINE
8
BLACK
6
CONTINUOUS
10
240.157
20
-121.031
11
226.187
21
-121.031
0
LINE
8
BLACK
6
CONTINUOUS
10
226.187
20
-121.031
11
226.187
21
-119.863
0
LINE
8
BLACK
6
CONTINUOUS
10
226.187
20
-109.169
11
226.187
21
-107.061
0
LINE
8
BLACK
6
CONTINUOUS
10
226.282
20
-120.936
11
226.282
21
-107.136
0
LINE
8
BLACK
6
CONTINUOUS
10
240.082
20
-107.136
11
240.082
21
-120.936
0
LINE
8
BLACK
6
CONTINUOUS
10
240.082
20
-107.136
11
226.282
21
-107.136
0
LINE
8
BLACK
6
CONTINUOUS
10
226.282
20
-120.936
11
240.082
21
-120.936
0
LINE
8
BLACK
6
CONTINUOUS
10
230.572
20
-121.285
11
235.772
21
-121.285
0
LINE
8
BLACK
6
CONTINUOUS
10
230.572
20
-118.085
11
230.572
21
-121.285
0
LINE
8
BLACK
6
CONTINUOUS
10
235.772
20
-118.046
11
235.772
21
-121.246
0
LINE
8
BLACK
6
CONTINUOUS
10
235.772
20
-118.046
11
230.572
21
-118.046
0
LINE
8
BLACK
6
CONTINUOUS
10
164.779
20
-118.046
11
164.779
21
-121.246
0
LINE
8
BLACK
6
CONTINUOUS
10
169.079
20
-107.146
11
169.079
21
-120.946
0
LINE
8
BLACK
6
CONTINUOUS
10
164.779
20
-118.046
11
159.579
21
-118.046
0
LINE
8
BLACK
6
CONTINUOUS
10
159.579
20
-118.085
11
159.579
21
-121.285
0
LINE
8
BLACK
6
CONTINUOUS
10
155.279
20
-120.946
11
169.079
21
-120.946
0
LINE
8
BLACK
6
CONTINUOUS
10
169.079
20
-107.146
11
155.279
21
-107.146
0
LINE
8
BLACK
6
CONTINUOUS
10
159.579
20
-121.285
11
164.779
21
-121.285
0
LINE
8
BLACK
6
CONTINUOUS
10
155.279
20
-120.946
11
155.279
21
-107.146
0
LINE
8
BLACK
6
CONTINUOUS
10
155.194
20
-107.061
11
169.164
21
-107.061
0
LINE
8
BLACK
6
CONTINUOUS
10
169.164
20
-107.061
11
169.164
21
-111.76
0
LINE
8
BLACK
6
CONTINUOUS
10
169.164
20
-111.76
11
208.89
21
-111.76
0
LINE
8
BLACK
6
CONTINUOUS
10
208.89
20
-111.76
11
208.89
21
-108.356
0
LINE
8
BLACK
6
CONTINUOUS
10
208.89
20
-108.356
11
215.544
21
-108.356
0
LINE
8
BLACK
6
CONTINUOUS
10
215.544
20
-108.356
11
215.544
21
-111.76
0
LINE
8
BLACK
6
CONTINUOUS
10
215.544
20
-111.76
11
216.408
21
-111.76
0
LINE
8
BLACK
6
CONTINUOUS
10
216.408
20
-111.76
11
216.408
21
-114.554
0
LINE
8
BLACK
6
CONTINUOUS
10
216.408
20
-114.554
11
215.544
21
-114.554
0
LINE
8
BLACK
6
CONTINUOUS
10
215.544
20
-114.554
11
215.544
21
-120.65
0
LINE
8
BLACK
6
CONTINUOUS
10
215.544
20
-120.65
11
214.503
21
-120.65
0
LINE
8
BLACK
6
CONTINUOUS
10
214.503
20
-120.65
11
214.503
21
-121.818
0
LINE
8
BLACK
6
CONTINUOUS
10
214.503
20
-121.818
11
209.931
21
-121.818
0
LINE
8
BLACK
6
CONTINUOUS
10
209.931
20
-121.818
11
209.931
21
-120.65
0
LINE
8
BLACK
6
CONTINUOUS
10
209.931
20
-120.65
11
208.89
21
-120.65
0
LINE
8
BLACK
6
CONTINUOUS
10
208.89
20
-120.65
11
208.89
21
-116.332
0
LINE
8
BLACK
6
CONTINUOUS
10
208.89
20
-116.332
11
169.164
21
-116.332
0
LINE
8
BLACK
6
CONTINUOUS
10
169.164
20
-116.332
11
169.164
21
-121.031
0
LINE
8
BLACK
6
CONTINUOUS
10
169.164
20
-121.031
11
155.194
21
-121.031
0
LINE
8
BLACK
6
CONTINUOUS
10
155.194
20
-121.031
11
155.194
21
-116.332
0
LINE
8
BLACK
6
CONTINUOUS
10
155.194
20
-116.332
11
115.468
21
-116.332
0
LINE
8
BLACK
6
CONTINUOUS
10
115.468
20
-116.332
11
115.468
21
-120.65
0
LINE
8
BLACK
6
CONTINUOUS
10
115.468
20
-120.65
11
114.427
21
-120.65
0
LINE
8
BLACK
6
CONTINUOUS
10
114.427
20
-120.65
11
114.427
21
-121.818
0
LINE
8
BLACK
6
CONTINUOUS
10
114.427
20
-121.818
11
109.855
21
-121.818
0
LINE
8
BLACK
6
CONTINUOUS
10
109.855
20
-121.818
11
109.855
21
-120.65
0
LINE
8
BLACK
6
CONTINUOUS
10
109.855
20
-120.65
11
108.814
21
-120.65
0
LINE
8
BLACK
6
CONTINUOUS
10
108.814
20
-120.65
11
108.814
21
-114.554
0
LINE
8
BLACK
6
CONTINUOUS
10
108.814
20
-114.554
11
107.95
21
-114.554
0
LINE
8
BLACK
6
CONTINUOUS
10
107.95
20
-114.554
11
107.95
21
-111.76
0
LINE
8
BLACK
6
CONTINUOUS
10
107.95
20
-111.76
11
108.814
21
-111.76
0
LINE
8
BLACK
6
CONTINUOUS
10
108.814
20
-111.76
11
108.814
21
-108.356
0
LINE
8
BLACK
6
CONTINUOUS
10
108.814
20
-108.356
11
115.468
21
-108.356
0
LINE
8
BLACK
6
CONTINUOUS
10
115.468
20
-108.356
11
115.468
21
-111.76
0
LINE
8
BLACK
6
CONTINUOUS
10
115.468
20
-111.76
11
155.194
21
-111.76
0
LINE
8
BLACK
6
CONTINUOUS
10
155.194
20
-111.76
11
155.194
21
-107.061
0
LINE
8
BLACK
6
CONTINUOUS
10
250.063
20
-107.061
11
264.033
21
-107.061
0
LINE
8
BLACK
6
CONTINUOUS
10
264.033
20
-107.061
11
264.033
21
-109.169
0
LINE
8
BLACK
6
CONTINUOUS
10
264.033
20
-119.863
11
264.033
21
-121.031
0
LINE
8
BLACK
6
CONTINUOUS
10
264.033
20
-121.031
11
250.063
21
-121.031
0
LINE
8
BLACK
6
CONTINUOUS
10
250.063
20
-121.031
11
250.063
21
-119.863
0
LINE
8
BLACK
6
CONTINUOUS
10
250.063
20
-109.169
11
250.063
21
-107.061
0
LINE
8
BLACK
6
CONTINUOUS
10
250.158
20
-120.936
11
250.158
21
-107.136
0
LINE
8
BLACK
6
CONTINUOUS
10
263.958
20
-107.136
11
263.958
21
-120.936
0
LINE
8
BLACK
6
CONTINUOUS
10
263.958
20
-107.136
11
250.158
21
-107.136
0
LINE
8
BLACK
6
CONTINUOUS
10
250.158
20
-120.936
11
263.958
21
-120.936
0
LINE
8
BLACK
6
CONTINUOUS
10
254.448
20
-121.285
11
259.648
21
-121.285
0
LINE
8
BLACK
6
CONTINUOUS
10
254.448
20
-118.085
11
254.448
21
-121.285
0
LINE
8
BLACK
6
CONTINUOUS
10
259.648
20
-118.046
11
259.648
21
-121.246
0
LINE
8
BLACK
6
CONTINUOUS
10
259.648
20
-118.046
11
254.448
21
-118.046
0
LINE
8
BLACK
6
CONTINUOUS
10
138.236
20
-22.669
11
133.036
21
-22.669
0
LINE
8
BLACK
6
CONTINUOUS
10
133.036
20
-25.908
11
138.236
21
-25.908
0
LINE
8
BLACK
6
CONTINUOUS
10
133.036
20
-22.708
11
133.036
21
-25.908
0
LINE
8
BLACK
6
CONTINUOUS
10
138.236
20
-22.669
11
138.236
21
-25.869
0
LINE
8
BLACK
6
CONTINUOUS
10
128.736
20
-25.569
11
128.736
21
-11.769
0
LINE
8
BLACK
6
CONTINUOUS
10
142.536
20
-11.769
11
142.536
21
-25.569
0
LINE
8
BLACK
6
CONTINUOUS
10
142.536
20
-11.769
11
128.736
21
-11.769
0
LINE
8
BLACK
6
CONTINUOUS
10
128.736
20
-25.569
11
142.536
21
-25.569
0
LINE
8
BLACK
6
CONTINUOUS
10
214.436
20
-22.669
11
209.236
21
-22.669
0
LINE
8
BLACK
6
CONTINUOUS
10
209.236
20
-25.908
11
214.436
21
-25.908
0
LINE
8
BLACK
6
CONTINUOUS
10
209.236
20
-22.708
11
209.236
21
-25.908
0
LINE
8
BLACK
6
CONTINUOUS
10
214.436
20
-22.669
11
214.436
21
-25.869
0
LINE
8
BLACK
6
CONTINUOUS
10
204.936
20
-25.569
11
204.936
21
-11.769
0
LINE
8
BLACK
6
CONTINUOUS
10
218.736
20
-11.769
11
218.736
21
-25.569
0
LINE
8
BLACK
6
CONTINUOUS
10
218.736
20
-11.769
11
204.936
21
-11.769
0
LINE
8
BLACK
6
CONTINUOUS
10
204.936
20
-25.569
11
218.736
21
-25.569
0
LINE
8
BLACK
6
CONTINUOUS
10
157.286
20
-22.669
11
152.086
21
-22.669
0
LINE
8
BLACK
6
CONTINUOUS
10
152.086
20
-25.908
11
157.286
21
-25.908
0
LINE
8
BLACK
6
CONTINUOUS
10
152.086
20
-22.708
11
152.086
21
-25.908
0
LINE
8
BLACK
6
CONTINUOUS
10
157.286
20
-22.669
11
157.286
21
-25.869
0
LINE
8
BLACK
6
CONTINUOUS
10
147.786
20
-25.569
11
147.786
21
-11.769
0
LINE
8
BLACK
6
CONTINUOUS
10
161.586
20
-11.769
11
161.586
21
-25.569
0
LINE
8
BLACK
6
CONTINUOUS
10
161.586
20
-11.769
11
147.786
21
-11.769
0
LINE
8
BLACK
6
CONTINUOUS
10
147.786
20
-25.569
11
161.586
21
-25.569
0
LINE
8
BLACK
6
CONTINUOUS
10
333.765
20
-22.669
11
328.565
21
-22.669
0
LINE
8
BLACK
6
CONTINUOUS
10
328.565
20
-25.908
11
333.765
21
-25.908
0
LINE
8
BLACK
6
CONTINUOUS
10
328.565
20
-22.708
11
328.565
21
-25.908
0
LINE
8
BLACK
6
CONTINUOUS
10
333.765
20
-22.669
11
333.765
21
-25.869
0
LINE
8
BLACK
6
CONTINUOUS
10
324.265
20
-25.569
11
324.265
21
-11.769
0
LINE
8
BLACK
6
CONTINUOUS
10
338.065
20
-11.769
11
338.065
21
-25.569
0
LINE
8
BLACK
6
CONTINUOUS
10
338.065
20
-11.769
11
324.265
21
-11.769
0
LINE
8
BLACK
6
CONTINUOUS
10
324.265
20
-25.569
11
338.065
21
-25.569
0
LINE
8
BLACK
6
CONTINUOUS
10
271.586
20
-22.669
11
266.386
21
-22.669
0
LINE
8
BLACK
6
CONTINUOUS
10
266.386
20
-25.908
11
271.586
21
-25.908
0
LINE
8
BLACK
6
CONTINUOUS
10
266.386
20
-22.708
11
266.386
21
-25.908
0
LINE
8
BLACK
6
CONTINUOUS
10
271.586
20
-22.669
11
271.586
21
-25.869
0
LINE
8
BLACK
6
CONTINUOUS
10
262.086
20
-25.569
11
262.086
21
-11.769
0
LINE
8
BLACK
6
CONTINUOUS
10
275.886
20
-11.769
11
275.886
21
-25.569
0
LINE
8
BLACK
6
CONTINUOUS
10
275.886
20
-11.769
11
262.086
21
-11.769
0
LINE
8
BLACK
6
CONTINUOUS
10
262.086
20
-25.569
11
275.886
21
-25.569
0
LINE
8
BLACK
6
CONTINUOUS
10
371.738
20
-22.669
11
366.538
21
-22.669
0
LINE
8
BLACK
6
CONTINUOUS
10
366.538
20
-25.908
11
371.738
21
-25.908
0
LINE
8
BLACK
6
CONTINUOUS
10
366.538
20
-22.708
11
366.538
21
-25.908
0
LINE
8
BLACK
6
CONTINUOUS
10
371.738
20
-22.669
11
371.738
21
-25.869
0
LINE
8
BLACK
6
CONTINUOUS
10
362.238
20
-25.569
11
362.238
21
-11.769
0
LINE
8
BLACK
6
CONTINUOUS
10
376.038
20
-11.769
11
376.038
21
-25.569
0
LINE
8
BLACK
6
CONTINUOUS
10
376.038
20
-11.769
11
362.238
21
-11.769
0
LINE
8
BLACK
6
CONTINUOUS
10
362.238
20
-25.569
11
376.038
21
-25.569
0
LINE
8
BLACK
6
CONTINUOUS
10
290.636
20
-22.669
11
285.436
21
-22.669
0
LINE
8
BLACK
6
CONTINUOUS
10
285.436
20
-25.908
11
290.636
21
-25.908
0
LINE
8
BLACK
6
CONTINUOUS
10
285.436
20
-22.708
11
285.436
21
-25.908
0
LINE
8
BLACK
6
CONTINUOUS
10
290.636
20
-22.669
11
290.636
21
-25.869
0
LINE
8
BLACK
6
CONTINUOUS
10
281.136
20
-25.569
11
281.136
21
-11.769
0
LINE
8
BLACK
6
CONTINUOUS
10
294.936
20
-11.769
11
294.936
21
-25.569
0
LINE
8
BLACK
6
CONTINUOUS
10
294.936
20
-11.769
11
281.136
21
-11.769
0
LINE
8
BLACK
6
CONTINUOUS
10
281.136
20
-25.569
11
294.936
21
-25.569
0
LINE
8
BLACK
6
CONTINUOUS
10
309.834
20
-22.669
11
304.634
21
-22.669
0
LINE
8
BLACK
6
CONTINUOUS
10
304.634
20
-25.908
11
309.834
21
-25.908
0
LINE
8
BLACK
6
CONTINUOUS
10
304.634
20
-22.708
11
304.634
21
-25.908
0
LINE
8
BLACK
6
CONTINUOUS
10
309.834
20
-22.669
11
309.834
21
-25.869
0
LINE
8
BLACK
6
CONTINUOUS
10
300.334
20
-25.569
11
300.334
21
-11.769
0
LINE
8
BLACK
6
CONTINUOUS
10
314.134
20
-11.769
11
314.134
21
-25.569
0
LINE
8
BLACK
6
CONTINUOUS
10
314.134
20
-11.769
11
300.334
21
-11.769
0
LINE
8
BLACK
6
CONTINUOUS
10
300.334
20
-25.569
11
314.134
21
-25.569
0
LINE
8
BLACK
6
CONTINUOUS
10
252.536
20
-22.669
11
247.336
21
-22.669
0
LINE
8
BLACK
6
CONTINUOUS
10
247.336
20
-25.908
11
252.536
21
-25.908
0
LINE
8
BLACK
6
CONTINUOUS
10
247.336
20
-22.708
11
247.336
21
-25.908
0
LINE
8
BLACK
6
CONTINUOUS
10
252.536
20
-22.669
11
252.536
21
-25.869
0
LINE
8
BLACK
6
CONTINUOUS
10
243.036
20
-25.569
11
243.036
21
-11.769
0
LINE
8
BLACK
6
CONTINUOUS
10
256.836
20
-11.769
11
256.836
21
-25.569
0
LINE
8
BLACK
6
CONTINUOUS
10
256.836
20
-11.769
11
243.036
21
-11.769
0
LINE
8
BLACK
6
CONTINUOUS
10
243.036
20
-25.569
11
256.836
21
-25.569
0
LINE
8
BLACK
6
CONTINUOUS
10
352.815
20
-22.669
11
347.615
21
-22.669
0
LINE
8
BLACK
6
CONTINUOUS
10
347.615
20
-25.908
11
352.815
21
-25.908
0
LINE
8
BLACK
6
CONTINUOUS
10
347.615
20
-22.708
11
347.615
21
-25.908
0
LINE
8
BLACK
6
CONTINUOUS
10
352.815
20
-22.669
11
352.815
21
-25.869
0
LINE
8
BLACK
6
CONTINUOUS
10
343.315
20
-25.569
11
343.315
21
-11.769
0
LINE
8
BLACK
6
CONTINUOUS
10
357.115
20
-11.769
11
357.115
21
-25.569
0
LINE
8
BLACK
6
CONTINUOUS
10
357.115
20
-11.769
11
343.315
21
-11.769
0
LINE
8
BLACK
6
CONTINUOUS
10
343.315
20
-25.569
11
357.115
21
-25.569
0
LINE
8
BLACK
6
CONTINUOUS
10
233.486
20
-22.669
11
228.286
21
-22.669
0
LINE
8
BLACK
6
CONTINUOUS
10
228.286
20
-25.908
11
233.486
21
-25.908
0
LINE
8
BLACK
6
CONTINUOUS
10
228.286
20
-22.708
11
228.286
21
-25.908
0
LINE
8
BLACK
6
CONTINUOUS
10
233.486
20
-22.669
11
233.486
21
-25.869
0
LINE
8
BLACK
6
CONTINUOUS
10
223.986
20
-25.569
11
223.986
21
-11.769
0
LINE
8
BLACK
6
CONTINUOUS
10
237.786
20
-11.769
11
237.786
21
-25.569
0
LINE
8
BLACK
6
CONTINUOUS
10
237.786
20
-11.769
11
223.986
21
-11.769
0
LINE
8
BLACK
6
CONTINUOUS
10
223.986
20
-25.569
11
237.786
21
-25.569
0
LINE
8
BLACK
6
CONTINUOUS
10
297.745
20
-107.061
11
311.715
21
-107.061
0
LINE
8
BLACK
6
CONTINUOUS
10
311.715
20
-107.061
11
311.715
21
-109.169
0
LINE
8
BLACK
6
CONTINUOUS
10
311.715
20
-119.863
11
311.715
21
-121.031
0
LINE
8
BLACK
6
CONTINUOUS
10
311.715
20
-121.031
11
297.745
21
-121.031
0
LINE
8
BLACK
6
CONTINUOUS
10
297.745
20
-121.031
11
297.745
21
-119.863
0
LINE
8
BLACK
6
CONTINUOUS
10
297.745
20
-109.169
11
297.745
21
-107.061
0
LINE
8
BLACK
6
CONTINUOUS
10
297.84
20
-120.936
11
297.84
21
-107.136
0
LINE
8
BLACK
6
CONTINUOUS
10
311.64
20
-107.136
11
311.64
21
-120.936
0
LINE
8
BLACK
6
CONTINUOUS
10
311.64
20
-107.136
11
297.84
21
-107.136
0
LINE
8
BLACK
6
CONTINUOUS
10
297.84
20
-120.936
11
311.64
21
-120.936
0
LINE
8
BLACK
6
CONTINUOUS
10
302.13
20
-121.285
11
307.33
21
-121.285
0
LINE
8
BLACK
6
CONTINUOUS
10
302.13
20
-118.085
11
302.13
21
-121.285
0
LINE
8
BLACK
6
CONTINUOUS
10
307.33
20
-118.046
11
307.33
21
-121.246
0
LINE
8
BLACK
6
CONTINUOUS
10
307.33
20
-118.046
11
302.13
21
-118.046
0
LINE
8
BLACK
6
CONTINUOUS
10
306.451
20
-92.71
11
306.451
21
-95.504
0
LINE
8
BLACK
6
CONTINUOUS
10
298.933
20
-90.1192
11
298.933
21
-89.3064
0
LINE
8
BLACK
6
CONTINUOUS
10
283.337
20
-88.011
11
297.307
21
-88.011
0
LINE
8
BLACK
6
CONTINUOUS
10
305.587
20
-101.6
11
304.546
21
-101.6
0
LINE
8
BLACK
6
CONTINUOUS
10
298.933
20
-89.3064
11
305.587
21
-89.3064
0
LINE
8
BLACK
6
CONTINUOUS
10
297.307
20
-90.1192
11
298.933
21
-90.1192
0
LINE
8
BLACK
6
CONTINUOUS
10
305.587
20
-92.71
11
306.451
21
-92.71
0
LINE
8
BLACK
6
CONTINUOUS
10
304.546
20
-102.768
11
299.974
21
-102.768
0
LINE
8
BLACK
6
CONTINUOUS
10
305.587
20
-95.504
11
305.587
21
-101.6
0
LINE
8
BLACK
6
CONTINUOUS
10
297.307
20
-88.011
11
297.307
21
-90.1192
0
LINE
8
BLACK
6
CONTINUOUS
10
306.451
20
-95.504
11
305.587
21
-95.504
0
LINE
8
BLACK
6
CONTINUOUS
10
304.546
20
-101.6
11
304.546
21
-102.768
0
LINE
8
BLACK
6
CONTINUOUS
10
305.587
20
-89.3064
11
305.587
21
-92.71
0
LINE
8
BLACK
6
CONTINUOUS
10
299.974
20
-101.6
11
298.933
21
-101.6
0
LINE
8
BLACK
6
CONTINUOUS
10
283.337
20
-100.813
11
281.711
21
-100.813
0
LINE
8
BLACK
6
CONTINUOUS
10
276.098
20
-102.768
11
276.098
21
-101.6
0
LINE
8
BLACK
6
CONTINUOUS
10
274.193
20
-95.504
11
274.193
21
-92.71
0
LINE
8
BLACK
6
CONTINUOUS
10
275.057
20
-89.3064
11
281.711
21
-89.3064
0
LINE
8
BLACK
6
CONTINUOUS
10
281.711
20
-90.1192
11
283.337
21
-90.1192
0
LINE
8
BLACK
6
CONTINUOUS
10
298.933
20
-101.6
11
298.933
21
-100.813
0
LINE
8
BLACK
6
CONTINUOUS
10
298.933
20
-100.813
11
297.307
21
-100.813
0
LINE
8
BLACK
6
CONTINUOUS
10
297.307
20
-100.813
11
297.307
21
-101.981
0
LINE
8
BLACK
6
CONTINUOUS
10
297.307
20
-101.981
11
283.337
21
-101.981
0
LINE
8
BLACK
6
CONTINUOUS
10
280.67
20
-101.6
11
280.67
21
-102.768
0
LINE
8
BLACK
6
CONTINUOUS
10
283.337
20
-101.981
11
283.337
21
-100.813
0
LINE
8
BLACK
6
CONTINUOUS
10
275.057
20
-95.504
11
274.193
21
-95.504
0
LINE
8
BLACK
6
CONTINUOUS
10
281.711
20
-100.813
11
281.711
21
-101.6
0
LINE
8
BLACK
6
CONTINUOUS
10
281.711
20
-101.6
11
280.67
21
-101.6
0
LINE
8
BLACK
6
CONTINUOUS
10
274.193
20
-92.71
11
275.057
21
-92.71
0
LINE
8
BLACK
6
CONTINUOUS
10
283.337
20
-90.1192
11
283.337
21
-88.011
0
LINE
8
BLACK
6
CONTINUOUS
10
275.057
20
-101.6
11
275.057
21
-95.504
0
LINE
8
BLACK
6
CONTINUOUS
10
281.711
20
-89.3064
11
281.711
21
-90.1192
0
LINE
8
BLACK
6
CONTINUOUS
10
280.67
20
-102.768
11
276.098
21
-102.768
0
LINE
8
BLACK
6
CONTINUOUS
10
276.098
20
-101.6
11
275.057
21
-101.6
0
LINE
8
BLACK
6
CONTINUOUS
10
275.057
20
-92.71
11
275.057
21
-89.3064
0
LINE
8
BLACK
6
CONTINUOUS
10
299.974
20
-102.768
11
299.974
21
-101.6
0
LINE
8
BLACK
6
CONTINUOUS
10
283.432
20
-101.886
11
283.432
21
-88.086
0
LINE
8
BLACK
6
CONTINUOUS
10
297.232
20
-88.086
11
297.232
21
-101.886
0
LINE
8
BLACK
6
CONTINUOUS
10
297.232
20
-88.086
11
283.432
21
-88.086
0
LINE
8
BLACK
6
CONTINUOUS
10
283.432
20
-101.886
11
297.232
21
-101.886
0
LINE
8
BLACK
6
CONTINUOUS
10
287.722
20
-102.235
11
292.922
21
-102.235
0
LINE
8
BLACK
6
CONTINUOUS
10
287.722
20
-99.035
11
287.722
21
-102.235
0
LINE
8
BLACK
6
CONTINUOUS
10
292.922
20
-98.996
11
292.922
21
-102.196
0
LINE
8
BLACK
6
CONTINUOUS
10
292.922
20
-98.996
11
287.722
21
-98.996
0
LINE
8
BLACK
6
CONTINUOUS
10
311.339
20
-73.533
11
311.339
21
-76.327
0
LINE
8
BLACK
6
CONTINUOUS
10
303.821
20
-70.9422
11
303.821
21
-70.1294
0
LINE
8
BLACK
6
CONTINUOUS
10
288.225
20
-68.834
11
302.195
21
-68.834
0
LINE
8
BLACK
6
CONTINUOUS
10
310.475
20
-82.423
11
309.434
21
-82.423
0
LINE
8
BLACK
6
CONTINUOUS
10
303.821
20
-70.1294
11
310.475
21
-70.1294
0
LINE
8
BLACK
6
CONTINUOUS
10
302.195
20
-70.9422
11
303.821
21
-70.9422
0
LINE
8
BLACK
6
CONTINUOUS
10
310.475
20
-73.533
11
311.339
21
-73.533
0
LINE
8
BLACK
6
CONTINUOUS
10
309.434
20
-83.5914
11
304.862
21
-83.5914
0
LINE
8
BLACK
6
CONTINUOUS
10
310.475
20
-76.327
11
310.475
21
-82.423
0
LINE
8
BLACK
6
CONTINUOUS
10
302.195
20
-68.834
11
302.195
21
-70.9422
0
LINE
8
BLACK
6
CONTINUOUS
10
311.339
20
-76.327
11
310.475
21
-76.327
0
LINE
8
BLACK
6
CONTINUOUS
10
309.434
20
-82.423
11
309.434
21
-83.5914
0
LINE
8
BLACK
6
CONTINUOUS
10
310.475
20
-70.1294
11
310.475
21
-73.533
0
LINE
8
BLACK
6
CONTINUOUS
10
304.862
20
-82.423
11
303.821
21
-82.423
0
LINE
8
BLACK
6
CONTINUOUS
10
288.225
20
-81.6356
11
286.599
21
-81.6356
0
LINE
8
BLACK
6
CONTINUOUS
10
280.986
20
-83.5914
11
280.986
21
-82.423
0
LINE
8
BLACK
6
CONTINUOUS
10
279.081
20
-76.327
11
279.081
21
-73.533
0
LINE
8
BLACK
6
CONTINUOUS
10
279.945
20
-70.1294
11
286.599
21
-70.1294
0
LINE
8
BLACK
6
CONTINUOUS
10
286.599
20
-70.9422
11
288.225
21
-70.9422
0
LINE
8
BLACK
6
CONTINUOUS
10
303.821
20
-82.423
11
303.821
21
-81.6356
0
LINE
8
BLACK
6
CONTINUOUS
10
303.821
20
-81.6356
11
302.195
21
-81.6356
0
LINE
8
BLACK
6
CONTINUOUS
10
302.195
20
-81.6356
11
302.195
21
-82.804
0
LINE
8
BLACK
6
CONTINUOUS
10
302.195
20
-82.804
11
288.225
21
-82.804
0
LINE
8
BLACK
6
CONTINUOUS
10
285.558
20
-82.423
11
285.558
21
-83.5914
0
LINE
8
BLACK
6
CONTINUOUS
10
288.225
20
-82.804
11
288.225
21
-81.6356
0
LINE
8
BLACK
6
CONTINUOUS
10
279.945
20
-76.327
11
279.081
21
-76.327
0
LINE
8
BLACK
6
CONTINUOUS
10
286.599
20
-81.6356
11
286.599
21
-82.423
0
LINE
8
BLACK
6
CONTINUOUS
10
286.599
20
-82.423
11
285.558
21
-82.423
0
LINE
8
BLACK
6
CONTINUOUS
10
279.081
20
-73.533
11
279.945
21
-73.533
0
LINE
8
BLACK
6
CONTINUOUS
10
288.225
20
-70.9422
11
288.225
21
-68.834
0
LINE
8
BLACK
6
CONTINUOUS
10
279.945
20
-82.423
11
279.945
21
-76.327
0
LINE
8
BLACK
6
CONTINUOUS
10
286.599
20
-70.1294
11
286.599
21
-70.9422
0
LINE
8
BLACK
6
CONTINUOUS
10
285.558
20
-83.5914
11
280.986
21
-83.5914
0
LINE
8
BLACK
6
CONTINUOUS
10
280.986
20
-82.423
11
279.945
21
-82.423
0
LINE
8
BLACK
6
CONTINUOUS
10
279.945
20
-73.533
11
279.945
21
-70.1294
0
LINE
8
BLACK
6
CONTINUOUS
10
304.862
20
-83.5914
11
304.862
21
-82.423
0
LINE
8
BLACK
6
CONTINUOUS
10
288.32
20
-82.709
11
288.32
21
-68.909
0
LINE
8
BLACK
6
CONTINUOUS
10
302.12
20
-68.909
11
302.12
21
-82.709
0
LINE
8
BLACK
6
CONTINUOUS
10
302.12
20
-68.909
11
288.32
21
-68.909
0
LINE
8
BLACK
6
CONTINUOUS
10
288.32
20
-82.709
11
302.12
21
-82.709
0
LINE
8
BLACK
6
CONTINUOUS
10
292.61
20
-83.058
11
297.81
21
-83.058
0
LINE
8
BLACK
6
CONTINUOUS
10
292.61
20
-79.858
11
292.61
21
-83.058
0
LINE
8
BLACK
6
CONTINUOUS
10
297.81
20
-79.819
11
297.81
21
-83.019
0
LINE
8
BLACK
6
CONTINUOUS
10
297.81
20
-79.819
11
292.61
21
-79.819
0
LINE
8
BLACK
6
CONTINUOUS
10
42.986
20
-41.6739
11
37.786
21
-41.6739
0
LINE
8
BLACK
6
CONTINUOUS
10
37.786
20
-44.9129
11
42.986
21
-44.9129
0
LINE
8
BLACK
6
CONTINUOUS
10
37.786
20
-41.7129
11
37.786
21
-44.9129
0
LINE
8
BLACK
6
CONTINUOUS
10
42.986
20
-41.6739
11
42.986
21
-44.8739
0
LINE
8
BLACK
6
CONTINUOUS
10
33.486
20
-44.5739
11
33.486
21
-30.7739
0
LINE
8
BLACK
6
CONTINUOUS
10
47.286
20
-30.7739
11
47.286
21
-44.5739
0
LINE
8
BLACK
6
CONTINUOUS
10
47.286
20
-30.7739
11
33.486
21
-30.7739
0
LINE
8
BLACK
6
CONTINUOUS
10
33.486
20
-44.5739
11
47.286
21
-44.5739
0
LINE
8
BLACK
6
CONTINUOUS
10
83.693
20
-107.061
11
97.663
21
-107.061
0
LINE
8
BLACK
6
CONTINUOUS
10
97.663
20
-107.061
11
97.663
21
-109.169
0
LINE
8
BLACK
6
CONTINUOUS
10
97.663
20
-119.863
11
97.663
21
-121.031
0
LINE
8
BLACK
6
CONTINUOUS
10
97.663
20
-121.031
11
83.693
21
-121.031
0
LINE
8
BLACK
6
CONTINUOUS
10
83.693
20
-121.031
11
83.693
21
-119.863
0
LINE
8
BLACK
6
CONTINUOUS
10
83.693
20
-109.169
11
83.693
21
-107.061
0
LINE
8
BLACK
6
CONTINUOUS
10
83.788
20
-120.936
11
83.788
21
-107.136
0
LINE
8
BLACK
6
CONTINUOUS
10
97.588
20
-107.136
11
97.588
21
-120.936
0
LINE
8
BLACK
6
CONTINUOUS
10
97.588
20
-107.136
11
83.788
21
-107.136
0
LINE
8
BLACK
6
CONTINUOUS
10
83.788
20
-120.936
11
97.588
21
-120.936
0
LINE
8
BLACK
6
CONTINUOUS
10
88.078
20
-121.285
11
93.278
21
-121.285
0
LINE
8
BLACK
6
CONTINUOUS
10
88.078
20
-118.085
11
88.078
21
-121.285
0
LINE
8
BLACK
6
CONTINUOUS
10
93.278
20
-118.046
11
93.278
21
-121.246
0
LINE
8
BLACK
6
CONTINUOUS
10
93.278
20
-118.046
11
88.078
21
-118.046
0
LINE
8
BLACK
6
CONTINUOUS
10
59.817
20
-107.061
11
73.787
21
-107.061
0
LINE
8
BLACK
6
CONTINUOUS
10
73.787
20
-107.061
11
73.787
21
-109.169
0
LINE
8
BLACK
6
CONTINUOUS
10
73.787
20
-119.863
11
73.787
21
-121.031
0
LINE
8
BLACK
6
CONTINUOUS
10
73.787
20
-121.031
11
59.817
21
-121.031
0
LINE
8
BLACK
6
CONTINUOUS
10
59.817
20
-121.031
11
59.817
21
-119.863
0
LINE
8
BLACK
6
CONTINUOUS
10
59.817
20
-109.169
11
59.817
21
-107.061
0
LINE
8
BLACK
6
CONTINUOUS
10
59.912
20
-120.936
11
59.912
21
-107.136
0
LINE
8
BLACK
6
CONTINUOUS
10
73.712
20
-107.136
11
73.712
21
-120.936
0
LINE
8
BLACK
6
CONTINUOUS
10
73.712
20
-107.136
11
59.912
21
-107.136
0
LINE
8
BLACK
6
CONTINUOUS
10
59.912
20
-120.936
11
73.712
21
-120.936
0
LINE
8
BLACK
6
CONTINUOUS
10
64.202
20
-121.285
11
69.402
21
-121.285
0
LINE
8
BLACK
6
CONTINUOUS
10
64.202
20
-118.085
11
64.202
21
-121.285
0
LINE
8
BLACK
6
CONTINUOUS
10
69.402
20
-118.046
11
69.402
21
-121.246
0
LINE
8
BLACK
6
CONTINUOUS
10
69.402
20
-118.046
11
64.202
21
-118.046
0
LINE
8
BLACK
6
CONTINUOUS
10
35.8997
20
-107.061
11
49.8697
21
-107.061
0
LINE
8
BLACK
6
CONTINUOUS
10
49.8697
20
-107.061
11
49.8697
21
-109.169
0
LINE
8
BLACK
6
CONTINUOUS
10
49.8697
20
-119.863
11
49.8697
21
-121.031
0
LINE
8
BLACK
6
CONTINUOUS
10
49.8697
20
-121.031
11
35.8997
21
-121.031
0
LINE
8
BLACK
6
CONTINUOUS
10
35.8997
20
-121.031
11
35.8997
21
-119.863
0
LINE
8
BLACK
6
CONTINUOUS
10
35.8997
20
-109.169
11
35.8997
21
-107.061
0
LINE
8
BLACK
6
CONTINUOUS
10
35.9947
20
-120.936
11
35.9947
21
-107.136
0
LINE
8
BLACK
6
CONTINUOUS
10
49.7947
20
-107.136
11
49.7947
21
-120.936
0
LINE
8
BLACK
6
CONTINUOUS
10
49.7947
20
-107.136
11
35.9947
21
-107.136
0
LINE
8
BLACK
6
CONTINUOUS
10
35.9947
20
-120.936
11
49.7947
21
-120.936
0
LINE
8
BLACK
6
CONTINUOUS
10
40.2847
20
-121.285
11
45.4847
21
-121.285
0
LINE
8
BLACK
6
CONTINUOUS
10
40.2847
20
-118.085
11
40.2847
21
-121.285
0
LINE
8
BLACK
6
CONTINUOUS
10
45.4847
20
-118.046
11
45.4847
21
-121.246
0
LINE
8
BLACK
6
CONTINUOUS
10
45.4847
20
-118.046
11
40.2847
21
-118.046
0
LINE
8
BLACK
6
CONTINUOUS
10
304.955
20
-60.642
11
299.755
21
-60.642
0
LINE
8
BLACK
6
CONTINUOUS
10
304.955
20
-60.642
11
304.955
21
-63.842
0
LINE
8
BLACK
6
CONTINUOUS
10
299.755
20
-60.681
11
299.755
21
-63.881
0
LINE
8
BLACK
6
CONTINUOUS
10
299.755
20
-63.881
11
304.955
21
-63.881
0
LINE
8
BLACK
6
CONTINUOUS
10
295.37
20
-49.657
11
309.34
21
-49.657
0
LINE
8
BLACK
6
CONTINUOUS
10
309.34
20
-49.657
11
309.34
21
-51.7652
0
LINE
8
BLACK
6
CONTINUOUS
10
309.34
20
-62.4586
11
309.34
21
-63.627
0
LINE
8
BLACK
6
CONTINUOUS
10
309.34
20
-63.627
11
295.37
21
-63.627
0
LINE
8
BLACK
6
CONTINUOUS
10
295.37
20
-63.627
11
295.37
21
-62.4586
0
LINE
8
BLACK
6
CONTINUOUS
10
295.37
20
-51.7652
11
295.37
21
-49.657
0
LINE
8
BLACK
6
CONTINUOUS
10
295.465
20
-63.532
11
295.465
21
-49.732
0
LINE
8
BLACK
6
CONTINUOUS
10
309.265
20
-49.732
11
309.265
21
-63.532
0
LINE
8
BLACK
6
CONTINUOUS
10
309.265
20
-49.732
11
295.465
21
-49.732
0
LINE
8
BLACK
6
CONTINUOUS
10
295.465
20
-63.532
11
309.265
21
-63.532
0
LINE
8
BLACK
6
CONTINUOUS
10
68.5387
20
-92.583
11
68.5387
21
-95.377
0
LINE
8
BLACK
6
CONTINUOUS
10
61.0203
20
-89.9922
11
61.0203
21
-89.1794
0
LINE
8
BLACK
6
CONTINUOUS
10
45.4247
20
-87.884
11
59.3947
21
-87.884
0
LINE
8
BLACK
6
CONTINUOUS
10
67.6751
20
-101.473
11
66.6337
21
-101.473
0
LINE
8
BLACK
6
CONTINUOUS
10
61.0203
20
-89.1794
11
67.6751
21
-89.1794
0
LINE
8
BLACK
6
CONTINUOUS
10
59.3947
20
-89.9922
11
61.0203
21
-89.9922
0
LINE
8
BLACK
6
CONTINUOUS
10
67.6751
20
-92.583
11
68.5387
21
-92.583
0
LINE
8
BLACK
6
CONTINUOUS
10
66.6337
20
-102.641
11
62.0617
21
-102.641
0
LINE
8
BLACK
6
CONTINUOUS
10
67.6751
20
-95.377
11
67.6751
21
-101.473
0
LINE
8
BLACK
6
CONTINUOUS
10
59.3947
20
-87.884
11
59.3947
21
-89.9922
0
LINE
8
BLACK
6
CONTINUOUS
10
68.5387
20
-95.377
11
67.6751
21
-95.377
0
LINE
8
BLACK
6
CONTINUOUS
10
66.6337
20
-101.473
11
66.6337
21
-102.641
0
LINE
8
BLACK
6
CONTINUOUS
10
67.6751
20
-89.1794
11
67.6751
21
-92.583
0
LINE
8
BLACK
6
CONTINUOUS
10
62.0617
20
-101.473
11
61.0203
21
-101.473
0
LINE
8
BLACK
6
CONTINUOUS
10
45.4247
20
-100.686
11
43.7991
21
-100.686
0
LINE
8
BLACK
6
CONTINUOUS
10
38.1857
20
-102.641
11
38.1857
21
-101.473
0
LINE
8
BLACK
6
CONTINUOUS
10
36.2807
20
-95.377
11
36.2807
21
-92.583
0
LINE
8
BLACK
6
CONTINUOUS
10
37.1443
20
-89.1794
11
43.7991
21
-89.1794
0
LINE
8
BLACK
6
CONTINUOUS
10
43.7991
20
-89.9922
11
45.4247
21
-89.9922
0
LINE
8
BLACK
6
CONTINUOUS
10
61.0203
20
-101.473
11
61.0203
21
-100.686
0
LINE
8
BLACK
6
CONTINUOUS
10
61.0203
20
-100.686
11
59.3947
21
-100.686
0
LINE
8
BLACK
6
CONTINUOUS
10
59.3947
20
-100.686
11
59.3947
21
-101.854
0
LINE
8
BLACK
6
CONTINUOUS
10
59.3947
20
-101.854
11
45.4247
21
-101.854
0
LINE
8
BLACK
6
CONTINUOUS
10
42.7577
20
-101.473
11
42.7577
21
-102.641
0
LINE
8
BLACK
6
CONTINUOUS
10
45.4247
20
-101.854
11
45.4247
21
-100.686
0
LINE
8
BLACK
6
CONTINUOUS
10
37.1443
20
-95.377
11
36.2807
21
-95.377
0
LINE
8
BLACK
6
CONTINUOUS
10
43.7991
20
-100.686
11
43.7991
21
-101.473
0
LINE
8
BLACK
6
CONTINUOUS
10
43.7991
20
-101.473
11
42.7577
21
-101.473
0
LINE
8
BLACK
6
CONTINUOUS
10
36.2807
20
-92.583
11
37.1443
21
-92.583
0
LINE
8
BLACK
6
CONTINUOUS
10
45.4247
20
-89.9922
11
45.4247
21
-87.884
0
LINE
8
BLACK
6
CONTINUOUS
10
37.1443
20
-101.473
11
37.1443
21
-95.377
0
LINE
8
BLACK
6
CONTINUOUS
10
43.7991
20
-89.1794
11
43.7991
21
-89.9922
0
LINE
8
BLACK
6
CONTINUOUS
10
42.7577
20
-102.641
11
38.1857
21
-102.641
0
LINE
8
BLACK
6
CONTINUOUS
10
38.1857
20
-101.473
11
37.1443
21
-101.473
0
LINE
8
BLACK
6
CONTINUOUS
10
37.1443
20
-92.583
11
37.1443
21
-89.1794
0
LINE
8
BLACK
6
CONTINUOUS
10
62.0617
20
-102.641
11
62.0617
21
-101.473
0
LINE
8
BLACK
6
CONTINUOUS
10
45.5197
20
-101.759
11
45.5197
21
-87.959
0
LINE
8
BLACK
6
CONTINUOUS
10
59.3197
20
-87.959
11
59.3197
21
-101.759
0
LINE
8
BLACK
6
CONTINUOUS
10
59.3197
20
-87.959
11
45.5197
21
-87.959
0
LINE
8
BLACK
6
CONTINUOUS
10
45.5197
20
-101.759
11
59.3197
21
-101.759
0
LINE
8
BLACK
6
CONTINUOUS
10
49.8097
20
-102.108
11
55.0097
21
-102.108
0
LINE
8
BLACK
6
CONTINUOUS
10
49.8097
20
-98.908
11
49.8097
21
-102.108
0
LINE
8
BLACK
6
CONTINUOUS
10
55.0097
20
-98.869
11
55.0097
21
-102.069
0
LINE
8
BLACK
6
CONTINUOUS
10
55.0097
20
-98.869
11
49.8097
21
-98.869
0
LINE
8
BLACK
6
CONTINUOUS
10
290.703
20
-44.736
11
304.503
21
-44.736
0
LINE
8
BLACK
6
CONTINUOUS
10
304.503
20
-30.936
11
290.703
21
-30.936
0
LINE
8
BLACK
6
CONTINUOUS
10
304.503
20
-30.936
11
304.503
21
-44.736
0
LINE
8
BLACK
6
CONTINUOUS
10
290.703
20
-44.736
11
290.703
21
-30.936
0
LINE
8
BLACK
6
CONTINUOUS
10
307.245
20
-45.6184
11
307.245
21
-44.45
0
LINE
8
BLACK
6
CONTINUOUS
10
282.328
20
-35.56
11
282.328
21
-32.1564
0
LINE
8
BLACK
6
CONTINUOUS
10
283.369
20
-44.45
11
282.328
21
-44.45
0
LINE
8
BLACK
6
CONTINUOUS
10
287.941
20
-45.6184
11
283.369
21
-45.6184
0
LINE
8
BLACK
6
CONTINUOUS
10
288.982
20
-32.1564
11
288.982
21
-32.9692
0
LINE
8
BLACK
6
CONTINUOUS
10
282.328
20
-44.45
11
282.328
21
-38.354
0
LINE
8
BLACK
6
CONTINUOUS
10
290.608
20
-32.9692
11
290.608
21
-30.861
0
LINE
8
BLACK
6
CONTINUOUS
10
281.464
20
-35.56
11
282.328
21
-35.56
0
LINE
8
BLACK
6
CONTINUOUS
10
288.982
20
-44.45
11
287.941
21
-44.45
0
LINE
8
BLACK
6
CONTINUOUS
10
288.982
20
-43.6626
11
288.982
21
-44.45
0
LINE
8
BLACK
6
CONTINUOUS
10
282.328
20
-38.354
11
281.464
21
-38.354
0
LINE
8
BLACK
6
CONTINUOUS
10
290.608
20
-44.831
11
290.608
21
-43.6626
0
LINE
8
BLACK
6
CONTINUOUS
10
287.941
20
-44.45
11
287.941
21
-45.6184
0
LINE
8
BLACK
6
CONTINUOUS
10
304.578
20
-44.831
11
290.608
21
-44.831
0
LINE
8
BLACK
6
CONTINUOUS
10
304.578
20
-43.6626
11
304.578
21
-44.831
0
LINE
8
BLACK
6
CONTINUOUS
10
306.204
20
-43.6626
11
304.578
21
-43.6626
0
LINE
8
BLACK
6
CONTINUOUS
10
306.204
20
-44.45
11
306.204
21
-43.6626
0
LINE
8
BLACK
6
CONTINUOUS
10
288.982
20
-32.9692
11
290.608
21
-32.9692
0
LINE
8
BLACK
6
CONTINUOUS
10
282.328
20
-32.1564
11
288.982
21
-32.1564
0
LINE
8
BLACK
6
CONTINUOUS
10
281.464
20
-38.354
11
281.464
21
-35.56
0
LINE
8
BLACK
6
CONTINUOUS
10
283.369
20
-45.6184
11
283.369
21
-44.45
0
LINE
8
BLACK
6
CONTINUOUS
10
290.608
20
-43.6626
11
288.982
21
-43.6626
0
LINE
8
BLACK
6
CONTINUOUS
10
307.245
20
-44.45
11
306.204
21
-44.45
0
LINE
8
BLACK
6
CONTINUOUS
10
312.858
20
-32.1564
11
312.858
21
-35.56
0
LINE
8
BLACK
6
CONTINUOUS
10
311.817
20
-44.45
11
311.817
21
-45.6184
0
LINE
8
BLACK
6
CONTINUOUS
10
313.722
20
-38.354
11
312.858
21
-38.354
0
LINE
8
BLACK
6
CONTINUOUS
10
304.578
20
-30.861
11
304.578
21
-32.9692
0
LINE
8
BLACK
6
CONTINUOUS
10
312.858
20
-38.354
11
312.858
21
-44.45
0
LINE
8
BLACK
6
CONTINUOUS
10
311.817
20
-45.6184
11
307.245
21
-45.6184
0
LINE
8
BLACK
6
CONTINUOUS
10
312.858
20
-35.56
11
313.722
21
-35.56
0
LINE
8
BLACK
6
CONTINUOUS
10
304.578
20
-32.9692
11
306.204
21
-32.9692
0
LINE
8
BLACK
6
CONTINUOUS
10
306.204
20
-32.1564
11
312.858
21
-32.1564
0
LINE
8
BLACK
6
CONTINUOUS
10
312.858
20
-44.45
11
311.817
21
-44.45
0
LINE
8
BLACK
6
CONTINUOUS
10
290.608
20
-30.861
11
304.578
21
-30.861
0
LINE
8
BLACK
6
CONTINUOUS
10
306.204
20
-32.9692
11
306.204
21
-32.1564
0
LINE
8
BLACK
6
CONTINUOUS
10
313.722
20
-35.56
11
313.722
21
-38.354
0
LINE
8
BLACK
6
CONTINUOUS
10
294.993
20
-45.085
11
300.193
21
-45.085
0
LINE
8
BLACK
6
CONTINUOUS
10
294.993
20
-41.885
11
294.993
21
-45.085
0
LINE
8
BLACK
6
CONTINUOUS
10
300.193
20
-41.846
11
300.193
21
-45.046
0
LINE
8
BLACK
6
CONTINUOUS
10
300.193
20
-41.846
11
294.993
21
-41.846
0
LINE
8
BLACK
6
CONTINUOUS
10
47.8647
20
-60.7852
11
42.6647
21
-60.7852
0
LINE
8
BLACK
6
CONTINUOUS
10
47.8647
20
-60.7852
11
47.8647
21
-63.9852
0
LINE
8
BLACK
6
CONTINUOUS
10
42.6647
20
-60.8242
11
42.6647
21
-64.0242
0
LINE
8
BLACK
6
CONTINUOUS
10
42.6647
20
-64.0242
11
47.8647
21
-64.0242
0
LINE
8
BLACK
6
CONTINUOUS
10
38.2797
20
-49.8002
11
52.2497
21
-49.8002
0
LINE
8
BLACK
6
CONTINUOUS
10
52.2497
20
-49.8002
11
52.2497
21
-51.9084
0
LINE
8
BLACK
6
CONTINUOUS
10
52.2497
20
-62.6018
11
52.2497
21
-63.7702
0
LINE
8
BLACK
6
CONTINUOUS
10
52.2497
20
-63.7702
11
38.2797
21
-63.7702
0
LINE
8
BLACK
6
CONTINUOUS
10
38.2797
20
-63.7702
11
38.2797
21
-62.6018
0
LINE
8
BLACK
6
CONTINUOUS
10
38.2797
20
-51.9084
11
38.2797
21
-49.8002
0
LINE
8
BLACK
6
CONTINUOUS
10
38.3747
20
-63.6752
11
38.3747
21
-49.8752
0
LINE
8
BLACK
6
CONTINUOUS
10
52.1747
20
-49.8752
11
52.1747
21
-63.6752
0
LINE
8
BLACK
6
CONTINUOUS
10
52.1747
20
-49.8752
11
38.3747
21
-49.8752
0
LINE
8
BLACK
6
CONTINUOUS
10
38.3747
20
-63.6752
11
52.1747
21
-63.6752
0
LINE
8
BLACK
6
CONTINUOUS
10
40.6622
20
-68.834
11
54.6322
21
-68.834
0
LINE
8
BLACK
6
CONTINUOUS
10
54.6322
20
-68.834
11
54.6322
21
-70.9422
0
LINE
8
BLACK
6
CONTINUOUS
10
54.6322
20
-81.6356
11
54.6322
21
-82.804
0
LINE
8
BLACK
6
CONTINUOUS
10
54.6322
20
-82.804
11
40.6622
21
-82.804
0
LINE
8
BLACK
6
CONTINUOUS
10
40.6622
20
-82.804
11
40.6622
21
-81.6356
0
LINE
8
BLACK
6
CONTINUOUS
10
40.6622
20
-70.9422
11
40.6622
21
-68.834
0
LINE
8
BLACK
6
CONTINUOUS
10
40.7572
20
-82.709
11
40.7572
21
-68.909
0
LINE
8
BLACK
6
CONTINUOUS
10
54.5572
20
-68.909
11
54.5572
21
-82.709
0
LINE
8
BLACK
6
CONTINUOUS
10
54.5572
20
-68.909
11
40.7572
21
-68.909
0
LINE
8
BLACK
6
CONTINUOUS
10
40.7572
20
-82.709
11
54.5572
21
-82.709
0
LINE
8
BLACK
6
CONTINUOUS
10
45.0472
20
-83.058
11
50.2472
21
-83.058
0
LINE
8
BLACK
6
CONTINUOUS
10
45.0472
20
-79.858
11
45.0472
21
-83.058
0
LINE
8
BLACK
6
CONTINUOUS
10
50.2472
20
-79.819
11
50.2472
21
-83.019
0
LINE
8
BLACK
6
CONTINUOUS
10
50.2472
20
-79.819
11
45.0472
21
-79.819
0
LINE
8
BLACK
6
CONTINUOUS
10
247.583
20
-79.819
11
242.383
21
-79.819
0
LINE
8
BLACK
6
CONTINUOUS
10
242.383
20
-83.058
11
247.583
21
-83.058
0
LINE
8
BLACK
6
CONTINUOUS
10
242.383
20
-79.858
11
242.383
21
-83.058
0
LINE
8
BLACK
6
CONTINUOUS
10
247.583
20
-79.819
11
247.583
21
-83.019
0
LINE
8
BLACK
6
CONTINUOUS
10
238.083
20
-82.719
11
238.083
21
-68.919
0
LINE
8
BLACK
6
CONTINUOUS
10
251.883
20
-68.919
11
251.883
21
-82.719
0
LINE
8
BLACK
6
CONTINUOUS
10
251.883
20
-68.919
11
238.083
21
-68.919
0
LINE
8
BLACK
6
CONTINUOUS
10
238.083
20
-82.719
11
251.883
21
-82.719
0
LINE
8
BLACK
6
CONTINUOUS
10
119.186
20
-22.669
11
113.986
21
-22.669
0
LINE
8
BLACK
6
CONTINUOUS
10
113.986
20
-25.908
11
119.186
21
-25.908
0
LINE
8
BLACK
6
CONTINUOUS
10
113.986
20
-22.708
11
113.986
21
-25.908
0
LINE
8
BLACK
6
CONTINUOUS
10
119.186
20
-22.669
11
119.186
21
-25.869
0
LINE
8
BLACK
6
CONTINUOUS
10
109.686
20
-25.569
11
109.686
21
-11.769
0
LINE
8
BLACK
6
CONTINUOUS
10
123.486
20
-11.769
11
123.486
21
-25.569
0
LINE
8
BLACK
6
CONTINUOUS
10
123.486
20
-11.769
11
109.686
21
-11.769
0
LINE
8
BLACK
6
CONTINUOUS
10
109.686
20
-25.569
11
123.486
21
-25.569
0
LINE
8
BLACK
6
CONTINUOUS
10
237.677
20
-98.869
11
232.477
21
-98.869
0
LINE
8
BLACK
6
CONTINUOUS
10
232.477
20
-102.108
11
237.677
21
-102.108
0
LINE
8
BLACK
6
CONTINUOUS
10
232.477
20
-98.908
11
232.477
21
-102.108
0
LINE
8
BLACK
6
CONTINUOUS
10
237.677
20
-98.869
11
237.677
21
-102.069
0
LINE
8
BLACK
6
CONTINUOUS
10
228.177
20
-101.769
11
228.177
21
-87.969
0
LINE
8
BLACK
6
CONTINUOUS
10
241.977
20
-87.969
11
241.977
21
-101.769
0
LINE
8
BLACK
6
CONTINUOUS
10
241.977
20
-87.969
11
228.177
21
-87.969
0
LINE
8
BLACK
6
CONTINUOUS
10
228.177
20
-101.769
11
241.977
21
-101.769
0
LINE
8
BLACK
6
CONTINUOUS
10
62.036
20
-41.6739
11
56.836
21
-41.6739
0
LINE
8
BLACK
6
CONTINUOUS
10
56.836
20
-44.9129
11
62.036
21
-44.9129
0
LINE
8
BLACK
6
CONTINUOUS
10
56.836
20
-41.7129
11
56.836
21
-44.9129
0
LINE
8
BLACK
6
CONTINUOUS
10
62.036
20
-41.6739
11
62.036
21
-44.8739
0
LINE
8
BLACK
6
CONTINUOUS
10
52.536
20
-44.5739
11
52.536
21
-30.7739
0
LINE
8
BLACK
6
CONTINUOUS
10
66.336
20
-30.7739
11
66.336
21
-44.5739
0
LINE
8
BLACK
6
CONTINUOUS
10
66.336
20
-30.7739
11
52.536
21
-30.7739
0
LINE
8
BLACK
6
CONTINUOUS
10
52.536
20
-44.5739
11
66.336
21
-44.5739
0
LINE
8
BLACK
6
CONTINUOUS
10
71.688
20
-60.642
11
66.488
21
-60.642
0
LINE
8
BLACK
6
CONTINUOUS
10
66.488
20
-63.881
11
71.688
21
-63.881
0
LINE
8
BLACK
6
CONTINUOUS
10
66.488
20
-60.681
11
66.488
21
-63.881
0
LINE
8
BLACK
6
CONTINUOUS
10
71.688
20
-60.642
11
71.688
21
-63.842
0
LINE
8
BLACK
6
CONTINUOUS
10
62.188
20
-63.542
11
62.188
21
-49.742
0
LINE
8
BLACK
6
CONTINUOUS
10
75.988
20
-49.742
11
75.988
21
-63.542
0
LINE
8
BLACK
6
CONTINUOUS
10
75.988
20
-49.742
11
62.188
21
-49.742
0
LINE
8
BLACK
6
CONTINUOUS
10
62.188
20
-63.542
11
75.988
21
-63.542
0
LINE
8
BLACK
6
CONTINUOUS
10
76.387
20
-79.819
11
71.187
21
-79.819
0
LINE
8
BLACK
6
CONTINUOUS
10
71.187
20
-83.058
11
76.387
21
-83.058
0
LINE
8
BLACK
6
CONTINUOUS
10
71.187
20
-79.858
11
71.187
21
-83.058
0
LINE
8
BLACK
6
CONTINUOUS
10
76.387
20
-79.819
11
76.387
21
-83.019
0
LINE
8
BLACK
6
CONTINUOUS
10
66.887
20
-82.719
11
66.887
21
-68.919
0
LINE
8
BLACK
6
CONTINUOUS
10
80.687
20
-68.919
11
80.687
21
-82.719
0
LINE
8
BLACK
6
CONTINUOUS
10
80.687
20
-68.919
11
66.887
21
-68.919
0
LINE
8
BLACK
6
CONTINUOUS
10
66.887
20
-82.719
11
80.687
21
-82.719
0
LINE
8
BLACK
6
CONTINUOUS
10
333.765
20
-98.869
11
328.565
21
-98.869
0
LINE
8
BLACK
6
CONTINUOUS
10
328.565
20
-102.108
11
333.765
21
-102.108
0
LINE
8
BLACK
6
CONTINUOUS
10
328.565
20
-98.908
11
328.565
21
-102.108
0
LINE
8
BLACK
6
CONTINUOUS
10
333.765
20
-98.869
11
333.765
21
-102.069
0
LINE
8
BLACK
6
CONTINUOUS
10
324.265
20
-101.769
11
324.265
21
-87.969
0
LINE
8
BLACK
6
CONTINUOUS
10
338.065
20
-87.969
11
338.065
21
-101.769
0
LINE
8
BLACK
6
CONTINUOUS
10
338.065
20
-87.969
11
324.265
21
-87.969
0
LINE
8
BLACK
6
CONTINUOUS
10
324.265
20
-101.769
11
338.065
21
-101.769
0
LINE
8
BLACK
6
CONTINUOUS
10
95.437
20
-79.819
11
90.237
21
-79.819
0
LINE
8
BLACK
6
CONTINUOUS
10
90.237
20
-83.058
11
95.437
21
-83.058
0
LINE
8
BLACK
6
CONTINUOUS
10
90.237
20
-79.858
11
90.237
21
-83.058
0
LINE
8
BLACK
6
CONTINUOUS
10
95.437
20
-79.819
11
95.437
21
-83.019
0
LINE
8
BLACK
6
CONTINUOUS
10
85.937
20
-82.719
11
85.937
21
-68.919
0
LINE
8
BLACK
6
CONTINUOUS
10
99.737
20
-68.919
11
99.737
21
-82.719
0
LINE
8
BLACK
6
CONTINUOUS
10
99.737
20
-68.919
11
85.937
21
-68.919
0
LINE
8
BLACK
6
CONTINUOUS
10
85.937
20
-82.719
11
99.737
21
-82.719
0
LINE
8
BLACK
6
CONTINUOUS
10
85.912
20
-98.869
11
80.712
21
-98.869
0
LINE
8
BLACK
6
CONTINUOUS
10
80.712
20
-102.108
11
85.912
21
-102.108
0
LINE
8
BLACK
6
CONTINUOUS
10
80.712
20
-98.908
11
80.712
21
-102.108
0
LINE
8
BLACK
6
CONTINUOUS
10
85.912
20
-98.869
11
85.912
21
-102.069
0
LINE
8
BLACK
6
CONTINUOUS
10
76.412
20
-101.769
11
76.412
21
-87.969
0
LINE
8
BLACK
6
CONTINUOUS
10
90.212
20
-87.969
11
90.212
21
-101.769
0
LINE
8
BLACK
6
CONTINUOUS
10
90.212
20
-87.969
11
76.412
21
-87.969
0
LINE
8
BLACK
6
CONTINUOUS
10
76.412
20
-101.769
11
90.212
21
-101.769
0
LINE
8
BLACK
6
CONTINUOUS
10
100.136
20
-22.669
11
94.936
21
-22.669
0
LINE
8
BLACK
6
CONTINUOUS
10
94.936
20
-25.908
11
100.136
21
-25.908
0
LINE
8
BLACK
6
CONTINUOUS
10
94.936
20
-22.708
11
94.936
21
-25.908
0
LINE
8
BLACK
6
CONTINUOUS
10
100.136
20
-22.669
11
100.136
21
-25.869
0
LINE
8
BLACK
6
CONTINUOUS
10
90.636
20
-25.569
11
90.636
21
-11.769
0
LINE
8
BLACK
6
CONTINUOUS
10
104.436
20
-11.769
11
104.436
21
-25.569
0
LINE
8
BLACK
6
CONTINUOUS
10
104.436
20
-11.769
11
90.636
21
-11.769
0
LINE
8
BLACK
6
CONTINUOUS
10
90.636
20
-25.569
11
104.436
21
-25.569
0
LINE
8
BLACK
6
CONTINUOUS
10
81.086
20
-41.6739
11
75.886
21
-41.6739
0
LINE
8
BLACK
6
CONTINUOUS
10
75.886
20
-44.9129
11
81.086
21
-44.9129
0
LINE
8
BLACK
6
CONTINUOUS
10
75.886
20
-41.7129
11
75.886
21
-44.9129
0
LINE
8
BLACK
6
CONTINUOUS
10
81.086
20
-41.6739
11
81.086
21
-44.8739
0
LINE
8
BLACK
6
CONTINUOUS
10
71.586
20
-44.5739
11
71.586
21
-30.7739
0
LINE
8
BLACK
6
CONTINUOUS
10
85.386
20
-30.7739
11
85.386
21
-44.5739
0
LINE
8
BLACK
6
CONTINUOUS
10
85.386
20
-30.7739
11
71.586
21
-30.7739
0
LINE
8
BLACK
6
CONTINUOUS
10
71.586
20
-44.5739
11
85.386
21
-44.5739
0
LINE
8
BLACK
6
CONTINUOUS
10
90.611
20
-60.642
11
85.411
21
-60.642
0
LINE
8
BLACK
6
CONTINUOUS
10
85.411
20
-63.881
11
90.611
21
-63.881
0
LINE
8
BLACK
6
CONTINUOUS
10
85.411
20
-60.681
11
85.411
21
-63.881
0
LINE
8
BLACK
6
CONTINUOUS
10
90.611
20
-60.642
11
90.611
21
-63.842
0
LINE
8
BLACK
6
CONTINUOUS
10
81.111
20
-63.542
11
81.111
21
-49.742
0
LINE
8
BLACK
6
CONTINUOUS
10
94.911
20
-49.742
11
94.911
21
-63.542
0
LINE
8
BLACK
6
CONTINUOUS
10
94.911
20
-49.742
11
81.111
21
-49.742
0
LINE
8
BLACK
6
CONTINUOUS
10
81.111
20
-63.542
11
94.911
21
-63.542
0
LINE
8
BLACK
6
CONTINUOUS
10
100.136
20
-41.6739
11
94.936
21
-41.6739
0
LINE
8
BLACK
6
CONTINUOUS
10
94.936
20
-44.9129
11
100.136
21
-44.9129
0
LINE
8
BLACK
6
CONTINUOUS
10
94.936
20
-41.7129
11
94.936
21
-44.9129
0
LINE
8
BLACK
6
CONTINUOUS
10
100.136
20
-41.6739
11
100.136
21
-44.8739
0
LINE
8
BLACK
6
CONTINUOUS
10
90.636
20
-44.5739
11
90.636
21
-30.7739
0
LINE
8
BLACK
6
CONTINUOUS
10
104.436
20
-30.7739
11
104.436
21
-44.5739
0
LINE
8
BLACK
6
CONTINUOUS
10
104.436
20
-30.7739
11
90.636
21
-30.7739
0
LINE
8
BLACK
6
CONTINUOUS
10
90.636
20
-44.5739
11
104.436
21
-44.5739
0
LINE
8
BLACK
6
CONTINUOUS
10
109.534
20
-60.642
11
104.334
21
-60.642
0
LINE
8
BLACK
6
CONTINUOUS
10
104.334
20
-63.881
11
109.534
21
-63.881
0
LINE
8
BLACK
6
CONTINUOUS
10
104.334
20
-60.681
11
104.334
21
-63.881
0
LINE
8
BLACK
6
CONTINUOUS
10
109.534
20
-60.642
11
109.534
21
-63.842
0
LINE
8
BLACK
6
CONTINUOUS
10
100.034
20
-63.542
11
100.034
21
-49.742
0
LINE
8
BLACK
6
CONTINUOUS
10
113.834
20
-49.742
11
113.834
21
-63.542
0
LINE
8
BLACK
6
CONTINUOUS
10
113.834
20
-49.742
11
100.034
21
-49.742
0
LINE
8
BLACK
6
CONTINUOUS
10
100.034
20
-63.542
11
113.834
21
-63.542
0
LINE
8
BLACK
6
CONTINUOUS
10
114.487
20
-79.819
11
109.287
21
-79.819
0
LINE
8
BLACK
6
CONTINUOUS
10
109.287
20
-83.058
11
114.487
21
-83.058
0
LINE
8
BLACK
6
CONTINUOUS
10
109.287
20
-79.858
11
109.287
21
-83.058
0
LINE
8
BLACK
6
CONTINUOUS
10
114.487
20
-79.819
11
114.487
21
-83.019
0
LINE
8
BLACK
6
CONTINUOUS
10
104.987
20
-82.719
11
104.987
21
-68.919
0
LINE
8
BLACK
6
CONTINUOUS
10
118.787
20
-68.919
11
118.787
21
-82.719
0
LINE
8
BLACK
6
CONTINUOUS
10
118.787
20
-68.919
11
104.987
21
-68.919
0
LINE
8
BLACK
6
CONTINUOUS
10
104.987
20
-82.719
11
118.787
21
-82.719
0
LINE
8
BLACK
6
CONTINUOUS
10
104.708
20
-98.869
11
99.508
21
-98.869
0
LINE
8
BLACK
6
CONTINUOUS
10
99.508
20
-102.108
11
104.708
21
-102.108
0
LINE
8
BLACK
6
CONTINUOUS
10
99.508
20
-98.908
11
99.508
21
-102.108
0
LINE
8
BLACK
6
CONTINUOUS
10
104.708
20
-98.869
11
104.708
21
-102.069
0
LINE
8
BLACK
6
CONTINUOUS
10
95.208
20
-101.769
11
95.208
21
-87.969
0
LINE
8
BLACK
6
CONTINUOUS
10
109.008
20
-87.969
11
109.008
21
-101.769
0
LINE
8
BLACK
6
CONTINUOUS
10
109.008
20
-87.969
11
95.208
21
-87.969
0
LINE
8
BLACK
6
CONTINUOUS
10
95.208
20
-101.769
11
109.008
21
-101.769
0
LINE
8
BLACK
6
CONTINUOUS
10
241.995
20
-60.642
11
236.795
21
-60.642
0
LINE
8
BLACK
6
CONTINUOUS
10
236.795
20
-63.881
11
241.995
21
-63.881
0
LINE
8
BLACK
6
CONTINUOUS
10
236.795
20
-60.681
11
236.795
21
-63.881
0
LINE
8
BLACK
6
CONTINUOUS
10
241.995
20
-60.642
11
241.995
21
-63.842
0
LINE
8
BLACK
6
CONTINUOUS
10
232.495
20
-63.542
11
232.495
21
-49.742
0
LINE
8
BLACK
6
CONTINUOUS
10
246.295
20
-49.742
11
246.295
21
-63.542
0
LINE
8
BLACK
6
CONTINUOUS
10
246.295
20
-49.742
11
232.495
21
-49.742
0
LINE
8
BLACK
6
CONTINUOUS
10
232.495
20
-63.542
11
246.295
21
-63.542
0
LINE
8
BLACK
6
CONTINUOUS
10
133.537
20
-79.819
11
128.337
21
-79.819
0
LINE
8
BLACK
6
CONTINUOUS
10
128.337
20
-83.058
11
133.537
21
-83.058
0
LINE
8
BLACK
6
CONTINUOUS
10
128.337
20
-79.858
11
128.337
21
-83.058
0
LINE
8
BLACK
6
CONTINUOUS
10
133.537
20
-79.819
11
133.537
21
-83.019
0
LINE
8
BLACK
6
CONTINUOUS
10
124.037
20
-82.719
11
124.037
21
-68.919
0
LINE
8
BLACK
6
CONTINUOUS
10
137.837
20
-68.919
11
137.837
21
-82.719
0
LINE
8
BLACK
6
CONTINUOUS
10
137.837
20
-68.919
11
124.037
21
-68.919
0
LINE
8
BLACK
6
CONTINUOUS
10
124.037
20
-82.719
11
137.837
21
-82.719
0
LINE
8
BLACK
6
CONTINUOUS
10
123.631
20
-98.869
11
118.431
21
-98.869
0
LINE
8
BLACK
6
CONTINUOUS
10
118.431
20
-102.108
11
123.631
21
-102.108
0
LINE
8
BLACK
6
CONTINUOUS
10
118.431
20
-98.908
11
118.431
21
-102.108
0
LINE
8
BLACK
6
CONTINUOUS
10
123.631
20
-98.869
11
123.631
21
-102.069
0
LINE
8
BLACK
6
CONTINUOUS
10
114.131
20
-101.769
11
114.131
21
-87.969
0
LINE
8
BLACK
6
CONTINUOUS
10
127.931
20
-87.969
11
127.931
21
-101.769
0
LINE
8
BLACK
6
CONTINUOUS
10
127.931
20
-87.969
11
114.131
21
-87.969
0
LINE
8
BLACK
6
CONTINUOUS
10
114.131
20
-101.769
11
127.931
21
-101.769
0
LINE
8
BLACK
6
CONTINUOUS
10
261.045
20
-60.642
11
255.845
21
-60.642
0
LINE
8
BLACK
6
CONTINUOUS
10
255.845
20
-63.881
11
261.045
21
-63.881
0
LINE
8
BLACK
6
CONTINUOUS
10
255.845
20
-60.681
11
255.845
21
-63.881
0
LINE
8
BLACK
6
CONTINUOUS
10
261.045
20
-60.642
11
261.045
21
-63.842
0
LINE
8
BLACK
6
CONTINUOUS
10
251.545
20
-63.542
11
251.545
21
-49.742
0
LINE
8
BLACK
6
CONTINUOUS
10
265.345
20
-49.742
11
265.345
21
-63.542
0
LINE
8
BLACK
6
CONTINUOUS
10
265.345
20
-49.742
11
251.545
21
-49.742
0
LINE
8
BLACK
6
CONTINUOUS
10
251.545
20
-63.542
11
265.345
21
-63.542
0
LINE
8
BLACK
6
CONTINUOUS
10
119.186
20
-41.6739
11
113.986
21
-41.6739
0
LINE
8
BLACK
6
CONTINUOUS
10
113.986
20
-44.9129
11
119.186
21
-44.9129
0
LINE
8
BLACK
6
CONTINUOUS
10
113.986
20
-41.7129
11
113.986
21
-44.9129
0
LINE
8
BLACK
6
CONTINUOUS
10
119.186
20
-41.6739
11
119.186
21
-44.8739
0
LINE
8
BLACK
6
CONTINUOUS
10
109.686
20
-44.5739
11
109.686
21
-30.7739
0
LINE
8
BLACK
6
CONTINUOUS
10
123.486
20
-30.7739
11
123.486
21
-44.5739
0
LINE
8
BLACK
6
CONTINUOUS
10
123.486
20
-30.7739
11
109.686
21
-30.7739
0
LINE
8
BLACK
6
CONTINUOUS
10
109.686
20
-44.5739
11
123.486
21
-44.5739
0
LINE
8
BLACK
6
CONTINUOUS
10
128.457
20
-60.642
11
123.257
21
-60.642
0
LINE
8
BLACK
6
CONTINUOUS
10
123.257
20
-63.881
11
128.457
21
-63.881
0
LINE
8
BLACK
6
CONTINUOUS
10
123.257
20
-60.681
11
123.257
21
-63.881
0
LINE
8
BLACK
6
CONTINUOUS
10
128.457
20
-60.642
11
128.457
21
-63.842
0
LINE
8
BLACK
6
CONTINUOUS
10
118.957
20
-63.542
11
118.957
21
-49.742
0
LINE
8
BLACK
6
CONTINUOUS
10
132.757
20
-49.742
11
132.757
21
-63.542
0
LINE
8
BLACK
6
CONTINUOUS
10
132.757
20
-49.742
11
118.957
21
-49.742
0
LINE
8
BLACK
6
CONTINUOUS
10
118.957
20
-63.542
11
132.757
21
-63.542
0
LINE
8
BLACK
6
CONTINUOUS
10
138.236
20
-41.6739
11
133.036
21
-41.6739
0
LINE
8
BLACK
6
CONTINUOUS
10
133.036
20
-44.9129
11
138.236
21
-44.9129
0
LINE
8
BLACK
6
CONTINUOUS
10
133.036
20
-41.7129
11
133.036
21
-44.9129
0
LINE
8
BLACK
6
CONTINUOUS
10
138.236
20
-41.6739
11
138.236
21
-44.8739
0
LINE
8
BLACK
6
CONTINUOUS
10
128.736
20
-44.5739
11
128.736
21
-30.7739
0
LINE
8
BLACK
6
CONTINUOUS
10
142.536
20
-30.7739
11
142.536
21
-44.5739
0
LINE
8
BLACK
6
CONTINUOUS
10
142.536
20
-30.7739
11
128.736
21
-30.7739
0
LINE
8
BLACK
6
CONTINUOUS
10
128.736
20
-44.5739
11
142.536
21
-44.5739
0
LINE
8
BLACK
6
CONTINUOUS
10
147.38
20
-60.642
11
142.18
21
-60.642
0
LINE
8
BLACK
6
CONTINUOUS
10
142.18
20
-63.881
11
147.38
21
-63.881
0
LINE
8
BLACK
6
CONTINUOUS
10
142.18
20
-60.681
11
142.18
21
-63.881
0
LINE
8
BLACK
6
CONTINUOUS
10
147.38
20
-60.642
11
147.38
21
-63.842
0
LINE
8
BLACK
6
CONTINUOUS
10
137.88
20
-63.542
11
137.88
21
-49.742
0
LINE
8
BLACK
6
CONTINUOUS
10
151.68
20
-49.742
11
151.68
21
-63.542
0
LINE
8
BLACK
6
CONTINUOUS
10
151.68
20
-49.742
11
137.88
21
-49.742
0
LINE
8
BLACK
6
CONTINUOUS
10
137.88
20
-63.542
11
151.68
21
-63.542
0
LINE
8
BLACK
6
CONTINUOUS
10
152.333
20
-79.819
11
147.133
21
-79.819
0
LINE
8
BLACK
6
CONTINUOUS
10
147.133
20
-83.058
11
152.333
21
-83.058
0
LINE
8
BLACK
6
CONTINUOUS
10
147.133
20
-79.858
11
147.133
21
-83.058
0
LINE
8
BLACK
6
CONTINUOUS
10
152.333
20
-79.819
11
152.333
21
-83.019
0
LINE
8
BLACK
6
CONTINUOUS
10
142.833
20
-82.719
11
142.833
21
-68.919
0
LINE
8
BLACK
6
CONTINUOUS
10
156.633
20
-68.919
11
156.633
21
-82.719
0
LINE
8
BLACK
6
CONTINUOUS
10
156.633
20
-68.919
11
142.833
21
-68.919
0
LINE
8
BLACK
6
CONTINUOUS
10
142.833
20
-82.719
11
156.633
21
-82.719
0
LINE
8
BLACK
6
CONTINUOUS
10
142.554
20
-98.869
11
137.354
21
-98.869
0
LINE
8
BLACK
6
CONTINUOUS
10
137.354
20
-102.108
11
142.554
21
-102.108
0
LINE
8
BLACK
6
CONTINUOUS
10
137.354
20
-98.908
11
137.354
21
-102.108
0
LINE
8
BLACK
6
CONTINUOUS
10
142.554
20
-98.869
11
142.554
21
-102.069
0
LINE
8
BLACK
6
CONTINUOUS
10
133.054
20
-101.769
11
133.054
21
-87.969
0
LINE
8
BLACK
6
CONTINUOUS
10
146.854
20
-87.969
11
146.854
21
-101.769
0
LINE
8
BLACK
6
CONTINUOUS
10
146.854
20
-87.969
11
133.054
21
-87.969
0
LINE
8
BLACK
6
CONTINUOUS
10
133.054
20
-101.769
11
146.854
21
-101.769
0
LINE
8
BLACK
6
CONTINUOUS
10
176.336
20
-22.669
11
171.136
21
-22.669
0
LINE
8
BLACK
6
CONTINUOUS
10
171.136
20
-25.908
11
176.336
21
-25.908
0
LINE
8
BLACK
6
CONTINUOUS
10
171.136
20
-22.708
11
171.136
21
-25.908
0
LINE
8
BLACK
6
CONTINUOUS
10
176.336
20
-22.669
11
176.336
21
-25.869
0
LINE
8
BLACK
6
CONTINUOUS
10
166.836
20
-25.569
11
166.836
21
-11.769
0
LINE
8
BLACK
6
CONTINUOUS
10
180.636
20
-11.769
11
180.636
21
-25.569
0
LINE
8
BLACK
6
CONTINUOUS
10
180.636
20
-11.769
11
166.836
21
-11.769
0
LINE
8
BLACK
6
CONTINUOUS
10
166.836
20
-25.569
11
180.636
21
-25.569
0
LINE
8
BLACK
6
CONTINUOUS
10
171.383
20
-79.819
11
166.183
21
-79.819
0
LINE
8
BLACK
6
CONTINUOUS
10
166.183
20
-83.058
11
171.383
21
-83.058
0
LINE
8
BLACK
6
CONTINUOUS
10
166.183
20
-79.858
11
166.183
21
-83.058
0
LINE
8
BLACK
6
CONTINUOUS
10
171.383
20
-79.819
11
171.383
21
-83.019
0
LINE
8
BLACK
6
CONTINUOUS
10
161.883
20
-82.719
11
161.883
21
-68.919
0
LINE
8
BLACK
6
CONTINUOUS
10
175.683
20
-68.919
11
175.683
21
-82.719
0
LINE
8
BLACK
6
CONTINUOUS
10
175.683
20
-68.919
11
161.883
21
-68.919
0
LINE
8
BLACK
6
CONTINUOUS
10
161.883
20
-82.719
11
175.683
21
-82.719
0
LINE
8
BLACK
6
CONTINUOUS
10
161.477
20
-98.869
11
156.277
21
-98.869
0
LINE
8
BLACK
6
CONTINUOUS
10
156.277
20
-102.108
11
161.477
21
-102.108
0
LINE
8
BLACK
6
CONTINUOUS
10
156.277
20
-98.908
11
156.277
21
-102.108
0
LINE
8
BLACK
6
CONTINUOUS
10
161.477
20
-98.869
11
161.477
21
-102.069
0
LINE
8
BLACK
6
CONTINUOUS
10
151.977
20
-101.769
11
151.977
21
-87.969
0
LINE
8
BLACK
6
CONTINUOUS
10
165.777
20
-87.969
11
165.777
21
-101.769
0
LINE
8
BLACK
6
CONTINUOUS
10
165.777
20
-87.969
11
151.977
21
-87.969
0
LINE
8
BLACK
6
CONTINUOUS
10
151.977
20
-101.769
11
165.777
21
-101.769
0
LINE
8
BLACK
6
CONTINUOUS
10
195.386
20
-22.669
11
190.186
21
-22.669
0
LINE
8
BLACK
6
CONTINUOUS
10
190.186
20
-25.908
11
195.386
21
-25.908
0
LINE
8
BLACK
6
CONTINUOUS
10
190.186
20
-22.708
11
190.186
21
-25.908
0
LINE
8
BLACK
6
CONTINUOUS
10
195.386
20
-22.669
11
195.386
21
-25.869
0
LINE
8
BLACK
6
CONTINUOUS
10
185.886
20
-25.569
11
185.886
21
-11.769
0
LINE
8
BLACK
6
CONTINUOUS
10
199.686
20
-11.769
11
199.686
21
-25.569
0
LINE
8
BLACK
6
CONTINUOUS
10
199.686
20
-11.769
11
185.886
21
-11.769
0
LINE
8
BLACK
6
CONTINUOUS
10
185.886
20
-25.569
11
199.686
21
-25.569
0
LINE
8
BLACK
6
CONTINUOUS
10
256.854
20
-98.869
11
251.654
21
-98.869
0
LINE
8
BLACK
6
CONTINUOUS
10
251.654
20
-102.108
11
256.854
21
-102.108
0
LINE
8
BLACK
6
CONTINUOUS
10
251.654
20
-98.908
11
251.654
21
-102.108
0
LINE
8
BLACK
6
CONTINUOUS
10
256.854
20
-98.869
11
256.854
21
-102.069
0
LINE
8
BLACK
6
CONTINUOUS
10
247.354
20
-101.769
11
247.354
21
-87.969
0
LINE
8
BLACK
6
CONTINUOUS
10
261.154
20
-87.969
11
261.154
21
-101.769
0
LINE
8
BLACK
6
CONTINUOUS
10
261.154
20
-87.969
11
247.354
21
-87.969
0
LINE
8
BLACK
6
CONTINUOUS
10
247.354
20
-101.769
11
261.154
21
-101.769
0
LINE
8
BLACK
6
CONTINUOUS
10
157.286
20
-41.6739
11
152.086
21
-41.6739
0
LINE
8
BLACK
6
CONTINUOUS
10
152.086
20
-44.9129
11
157.286
21
-44.9129
0
LINE
8
BLACK
6
CONTINUOUS
10
152.086
20
-41.7129
11
152.086
21
-44.9129
0
LINE
8
BLACK
6
CONTINUOUS
10
157.286
20
-41.6739
11
157.286
21
-44.8739
0
LINE
8
BLACK
6
CONTINUOUS
10
147.786
20
-44.5739
11
147.786
21
-30.7739
0
LINE
8
BLACK
6
CONTINUOUS
10
161.586
20
-30.7739
11
161.586
21
-44.5739
0
LINE
8
BLACK
6
CONTINUOUS
10
161.586
20
-30.7739
11
147.786
21
-30.7739
0
LINE
8
BLACK
6
CONTINUOUS
10
147.786
20
-44.5739
11
161.586
21
-44.5739
0
LINE
8
BLACK
6
CONTINUOUS
10
166.303
20
-60.642
11
161.103
21
-60.642
0
LINE
8
BLACK
6
CONTINUOUS
10
161.103
20
-63.881
11
166.303
21
-63.881
0
LINE
8
BLACK
6
CONTINUOUS
10
161.103
20
-60.681
11
161.103
21
-63.881
0
LINE
8
BLACK
6
CONTINUOUS
10
166.303
20
-60.642
11
166.303
21
-63.842
0
LINE
8
BLACK
6
CONTINUOUS
10
156.803
20
-63.542
11
156.803
21
-49.742
0
LINE
8
BLACK
6
CONTINUOUS
10
170.603
20
-49.742
11
170.603
21
-63.542
0
LINE
8
BLACK
6
CONTINUOUS
10
170.603
20
-49.742
11
156.803
21
-49.742
0
LINE
8
BLACK
6
CONTINUOUS
10
156.803
20
-63.542
11
170.603
21
-63.542
0
LINE
8
BLACK
6
CONTINUOUS
10
176.336
20
-41.6739
11
171.136
21
-41.6739
0
LINE
8
BLACK
6
CONTINUOUS
10
171.136
20
-44.9129
11
176.336
21
-44.9129
0
LINE
8
BLACK
6
CONTINUOUS
10
171.136
20
-41.7129
11
171.136
21
-44.9129
0
LINE
8
BLACK
6
CONTINUOUS
10
176.336
20
-41.6739
11
176.336
21
-44.8739
0
LINE
8
BLACK
6
CONTINUOUS
10
166.836
20
-44.5739
11
166.836
21
-30.7739
0
LINE
8
BLACK
6
CONTINUOUS
10
180.636
20
-30.7739
11
180.636
21
-44.5739
0
LINE
8
BLACK
6
CONTINUOUS
10
180.636
20
-30.7739
11
166.836
21
-30.7739
0
LINE
8
BLACK
6
CONTINUOUS
10
166.836
20
-44.5739
11
180.636
21
-44.5739
0
LINE
8
BLACK
6
CONTINUOUS
10
185.226
20
-60.642
11
180.026
21
-60.642
0
LINE
8
BLACK
6
CONTINUOUS
10
180.026
20
-63.881
11
185.226
21
-63.881
0
LINE
8
BLACK
6
CONTINUOUS
10
180.026
20
-60.681
11
180.026
21
-63.881
0
LINE
8
BLACK
6
CONTINUOUS
10
185.226
20
-60.642
11
185.226
21
-63.842
0
LINE
8
BLACK
6
CONTINUOUS
10
175.726
20
-63.542
11
175.726
21
-49.742
0
LINE
8
BLACK
6
CONTINUOUS
10
189.526
20
-49.742
11
189.526
21
-63.542
0
LINE
8
BLACK
6
CONTINUOUS
10
189.526
20
-49.742
11
175.726
21
-49.742
0
LINE
8
BLACK
6
CONTINUOUS
10
175.726
20
-63.542
11
189.526
21
-63.542
0
LINE
8
BLACK
6
CONTINUOUS
10
190.433
20
-79.819
11
185.233
21
-79.819
0
LINE
8
BLACK
6
CONTINUOUS
10
185.233
20
-83.058
11
190.433
21
-83.058
0
LINE
8
BLACK
6
CONTINUOUS
10
185.233
20
-79.858
11
185.233
21
-83.058
0
LINE
8
BLACK
6
CONTINUOUS
10
190.433
20
-79.819
11
190.433
21
-83.019
0
LINE
8
BLACK
6
CONTINUOUS
10
180.933
20
-82.719
11
180.933
21
-68.919
0
LINE
8
BLACK
6
CONTINUOUS
10
194.733
20
-68.919
11
194.733
21
-82.719
0
LINE
8
BLACK
6
CONTINUOUS
10
194.733
20
-68.919
11
180.933
21
-68.919
0
LINE
8
BLACK
6
CONTINUOUS
10
180.933
20
-82.719
11
194.733
21
-82.719
0
LINE
8
BLACK
6
CONTINUOUS
10
180.4
20
-98.869
11
175.2
21
-98.869
0
LINE
8
BLACK
6
CONTINUOUS
10
175.2
20
-102.108
11
180.4
21
-102.108
0
LINE
8
BLACK
6
CONTINUOUS
10
175.2
20
-98.908
11
175.2
21
-102.108
0
LINE
8
BLACK
6
CONTINUOUS
10
180.4
20
-98.869
11
180.4
21
-102.069
0
LINE
8
BLACK
6
CONTINUOUS
10
170.9
20
-101.769
11
170.9
21
-87.969
0
LINE
8
BLACK
6
CONTINUOUS
10
184.7
20
-87.969
11
184.7
21
-101.769
0
LINE
8
BLACK
6
CONTINUOUS
10
184.7
20
-87.969
11
170.9
21
-87.969
0
LINE
8
BLACK
6
CONTINUOUS
10
170.9
20
-101.769
11
184.7
21
-101.769
0
LINE
8
BLACK
6
CONTINUOUS
10
252.536
20
-41.6739
11
247.336
21
-41.6739
0
LINE
8
BLACK
6
CONTINUOUS
10
247.336
20
-44.9129
11
252.536
21
-44.9129
0
LINE
8
BLACK
6
CONTINUOUS
10
247.336
20
-41.7129
11
247.336
21
-44.9129
0
LINE
8
BLACK
6
CONTINUOUS
10
252.536
20
-41.6739
11
252.536
21
-44.8739
0
LINE
8
BLACK
6
CONTINUOUS
10
243.036
20
-44.5739
11
243.036
21
-30.7739
0
LINE
8
BLACK
6
CONTINUOUS
10
256.836
20
-30.7739
11
256.836
21
-44.5739
0
LINE
8
BLACK
6
CONTINUOUS
10
256.836
20
-30.7739
11
243.036
21
-30.7739
0
LINE
8
BLACK
6
CONTINUOUS
10
243.036
20
-44.5739
11
256.836
21
-44.5739
0
LINE
8
BLACK
6
CONTINUOUS
10
209.483
20
-79.819
11
204.283
21
-79.819
0
LINE
8
BLACK
6
CONTINUOUS
10
204.283
20
-83.058
11
209.483
21
-83.058
0
LINE
8
BLACK
6
CONTINUOUS
10
204.283
20
-79.858
11
204.283
21
-83.058
0
LINE
8
BLACK
6
CONTINUOUS
10
209.483
20
-79.819
11
209.483
21
-83.019
0
LINE
8
BLACK
6
CONTINUOUS
10
199.983
20
-82.719
11
199.983
21
-68.919
0
LINE
8
BLACK
6
CONTINUOUS
10
213.783
20
-68.919
11
213.783
21
-82.719
0
LINE
8
BLACK
6
CONTINUOUS
10
213.783
20
-68.919
11
199.983
21
-68.919
0
LINE
8
BLACK
6
CONTINUOUS
10
199.983
20
-82.719
11
213.783
21
-82.719
0
LINE
8
BLACK
6
CONTINUOUS
10
199.45
20
-98.869
11
194.25
21
-98.869
0
LINE
8
BLACK
6
CONTINUOUS
10
194.25
20
-102.108
11
199.45
21
-102.108
0
LINE
8
BLACK
6
CONTINUOUS
10
194.25
20
-98.908
11
194.25
21
-102.108
0
LINE
8
BLACK
6
CONTINUOUS
10
199.45
20
-98.869
11
199.45
21
-102.069
0
LINE
8
BLACK
6
CONTINUOUS
10
189.95
20
-101.769
11
189.95
21
-87.969
0
LINE
8
BLACK
6
CONTINUOUS
10
203.75
20
-87.969
11
203.75
21
-101.769
0
LINE
8
BLACK
6
CONTINUOUS
10
203.75
20
-87.969
11
189.95
21
-87.969
0
LINE
8
BLACK
6
CONTINUOUS
10
189.95
20
-101.769
11
203.75
21
-101.769
0
LINE
8
BLACK
6
CONTINUOUS
10
271.586
20
-41.6739
11
266.386
21
-41.6739
0
LINE
8
BLACK
6
CONTINUOUS
10
266.386
20
-44.9129
11
271.586
21
-44.9129
0
LINE
8
BLACK
6
CONTINUOUS
10
266.386
20
-41.7129
11
266.386
21
-44.9129
0
LINE
8
BLACK
6
CONTINUOUS
10
271.586
20
-41.6739
11
271.586
21
-44.8739
0
LINE
8
BLACK
6
CONTINUOUS
10
262.086
20
-44.5739
11
262.086
21
-30.7739
0
LINE
8
BLACK
6
CONTINUOUS
10
275.886
20
-30.7739
11
275.886
21
-44.5739
0
LINE
8
BLACK
6
CONTINUOUS
10
275.886
20
-30.7739
11
262.086
21
-30.7739
0
LINE
8
BLACK
6
CONTINUOUS
10
262.086
20
-44.5739
11
275.886
21
-44.5739
0
LINE
8
BLACK
6
CONTINUOUS
10
195.386
20
-41.6739
11
190.186
21
-41.6739
0
LINE
8
BLACK
6
CONTINUOUS
10
190.186
20
-44.9129
11
195.386
21
-44.9129
0
LINE
8
BLACK
6
CONTINUOUS
10
190.186
20
-41.7129
11
190.186
21
-44.9129
0
LINE
8
BLACK
6
CONTINUOUS
10
195.386
20
-41.6739
11
195.386
21
-44.8739
0
LINE
8
BLACK
6
CONTINUOUS
10
185.886
20
-44.5739
11
185.886
21
-30.7739
0
LINE
8
BLACK
6
CONTINUOUS
10
199.686
20
-30.7739
11
199.686
21
-44.5739
0
LINE
8
BLACK
6
CONTINUOUS
10
199.686
20
-30.7739
11
185.886
21
-30.7739
0
LINE
8
BLACK
6
CONTINUOUS
10
185.886
20
-44.5739
11
199.686
21
-44.5739
0
LINE
8
BLACK
6
CONTINUOUS
10
204.149
20
-60.642
11
198.949
21
-60.642
0
LINE
8
BLACK
6
CONTINUOUS
10
198.949
20
-63.881
11
204.149
21
-63.881
0
LINE
8
BLACK
6
CONTINUOUS
10
198.949
20
-60.681
11
198.949
21
-63.881
0
LINE
8
BLACK
6
CONTINUOUS
10
204.149
20
-60.642
11
204.149
21
-63.842
0
LINE
8
BLACK
6
CONTINUOUS
10
194.649
20
-63.542
11
194.649
21
-49.742
0
LINE
8
BLACK
6
CONTINUOUS
10
208.449
20
-49.742
11
208.449
21
-63.542
0
LINE
8
BLACK
6
CONTINUOUS
10
208.449
20
-49.742
11
194.649
21
-49.742
0
LINE
8
BLACK
6
CONTINUOUS
10
194.649
20
-63.542
11
208.449
21
-63.542
0
LINE
8
BLACK
6
CONTINUOUS
10
214.436
20
-41.6739
11
209.236
21
-41.6739
0
LINE
8
BLACK
6
CONTINUOUS
10
209.236
20
-44.9129
11
214.436
21
-44.9129
0
LINE
8
BLACK
6
CONTINUOUS
10
209.236
20
-41.7129
11
209.236
21
-44.9129
0
LINE
8
BLACK
6
CONTINUOUS
10
214.436
20
-41.6739
11
214.436
21
-44.8739
0
LINE
8
BLACK
6
CONTINUOUS
10
204.936
20
-44.5739
11
204.936
21
-30.7739
0
LINE
8
BLACK
6
CONTINUOUS
10
218.736
20
-30.7739
11
218.736
21
-44.5739
0
LINE
8
BLACK
6
CONTINUOUS
10
218.736
20
-30.7739
11
204.936
21
-30.7739
0
LINE
8
BLACK
6
CONTINUOUS
10
204.936
20
-44.5739
11
218.736
21
-44.5739
0
LINE
8
BLACK
6
CONTINUOUS
10
223.072
20
-60.642
11
217.872
21
-60.642
0
LINE
8
BLACK
6
CONTINUOUS
10
217.872
20
-63.881
11
223.072
21
-63.881
0
LINE
8
BLACK
6
CONTINUOUS
10
217.872
20
-60.681
11
217.872
21
-63.881
0
LINE
8
BLACK
6
CONTINUOUS
10
223.072
20
-60.642
11
223.072
21
-63.842
0
LINE
8
BLACK
6
CONTINUOUS
10
213.572
20
-63.542
11
213.572
21
-49.742
0
LINE
8
BLACK
6
CONTINUOUS
10
227.372
20
-49.742
11
227.372
21
-63.542
0
LINE
8
BLACK
6
CONTINUOUS
10
227.372
20
-49.742
11
213.572
21
-49.742
0
LINE
8
BLACK
6
CONTINUOUS
10
213.572
20
-63.542
11
227.372
21
-63.542
0
LINE
8
BLACK
6
CONTINUOUS
10
228.533
20
-79.819
11
223.333
21
-79.819
0
LINE
8
BLACK
6
CONTINUOUS
10
223.333
20
-83.058
11
228.533
21
-83.058
0
LINE
8
BLACK
6
CONTINUOUS
10
223.333
20
-79.858
11
223.333
21
-83.058
0
LINE
8
BLACK
6
CONTINUOUS
10
228.533
20
-79.819
11
228.533
21
-83.019
0
LINE
8
BLACK
6
CONTINUOUS
10
219.033
20
-82.719
11
219.033
21
-68.919
0
LINE
8
BLACK
6
CONTINUOUS
10
232.833
20
-68.919
11
232.833
21
-82.719
0
LINE
8
BLACK
6
CONTINUOUS
10
232.833
20
-68.919
11
219.033
21
-68.919
0
LINE
8
BLACK
6
CONTINUOUS
10
219.033
20
-82.719
11
232.833
21
-82.719
0
LINE
8
BLACK
6
CONTINUOUS
10
218.627
20
-98.869
11
213.427
21
-98.869
0
LINE
8
BLACK
6
CONTINUOUS
10
213.427
20
-102.108
11
218.627
21
-102.108
0
LINE
8
BLACK
6
CONTINUOUS
10
213.427
20
-98.908
11
213.427
21
-102.108
0
LINE
8
BLACK
6
CONTINUOUS
10
218.627
20
-98.869
11
218.627
21
-102.069
0
LINE
8
BLACK
6
CONTINUOUS
10
209.127
20
-101.769
11
209.127
21
-87.969
0
LINE
8
BLACK
6
CONTINUOUS
10
222.927
20
-87.969
11
222.927
21
-101.769
0
LINE
8
BLACK
6
CONTINUOUS
10
222.927
20
-87.969
11
209.127
21
-87.969
0
LINE
8
BLACK
6
CONTINUOUS
10
209.127
20
-101.769
11
222.927
21
-101.769
0
LINE
8
BLACK
6
CONTINUOUS
10
233.486
20
-41.6739
11
228.286
21
-41.6739
0
LINE
8
BLACK
6
CONTINUOUS
10
228.286
20
-44.9129
11
233.486
21
-44.9129
0
LINE
8
BLACK
6
CONTINUOUS
10
228.286
20
-41.7129
11
228.286
21
-44.9129
0
LINE
8
BLACK
6
CONTINUOUS
10
233.486
20
-41.6739
11
233.486
21
-44.8739
0
LINE
8
BLACK
6
CONTINUOUS
10
223.986
20
-44.5739
11
223.986
21
-30.7739
0
LINE
8
BLACK
6
CONTINUOUS
10
237.786
20
-30.7739
11
237.786
21
-44.5739
0
LINE
8
BLACK
6
CONTINUOUS
10
237.786
20
-30.7739
11
223.986
21
-30.7739
0
LINE
8
BLACK
6
CONTINUOUS
10
223.986
20
-44.5739
11
237.786
21
-44.5739
0
LINE
8
BLACK
6
CONTINUOUS
10
352.815
20
-79.819
11
347.615
21
-79.819
0
LINE
8
BLACK
6
CONTINUOUS
10
347.615
20
-83.058
11
352.815
21
-83.058
0
LINE
8
BLACK
6
CONTINUOUS
10
347.615
20
-79.858
11
347.615
21
-83.058
0
LINE
8
BLACK
6
CONTINUOUS
10
352.815
20
-79.819
11
352.815
21
-83.019
0
LINE
8
BLACK
6
CONTINUOUS
10
343.315
20
-82.719
11
343.315
21
-68.919
0
LINE
8
BLACK
6
CONTINUOUS
10
357.115
20
-68.919
11
357.115
21
-82.719
0
LINE
8
BLACK
6
CONTINUOUS
10
357.115
20
-68.919
11
343.315
21
-68.919
0
LINE
8
BLACK
6
CONTINUOUS
10
343.315
20
-82.719
11
357.115
21
-82.719
0
LINE
8
BLACK
6
CONTINUOUS
10
280.222
20
-60.642
11
275.022
21
-60.642
0
LINE
8
BLACK
6
CONTINUOUS
10
275.022
20
-63.881
11
280.222
21
-63.881
0
LINE
8
BLACK
6
CONTINUOUS
10
275.022
20
-60.681
11
275.022
21
-63.881
0
LINE
8
BLACK
6
CONTINUOUS
10
280.222
20
-60.642
11
280.222
21
-63.842
0
LINE
8
BLACK
6
CONTINUOUS
10
270.722
20
-63.542
11
270.722
21
-49.742
0
LINE
8
BLACK
6
CONTINUOUS
10
284.522
20
-49.742
11
284.522
21
-63.542
0
LINE
8
BLACK
6
CONTINUOUS
10
284.522
20
-49.742
11
270.722
21
-49.742
0
LINE
8
BLACK
6
CONTINUOUS
10
270.722
20
-63.542
11
284.522
21
-63.542
0
LINE
8
BLACK
6
CONTINUOUS
10
371.738
20
-79.819
11
366.538
21
-79.819
0
LINE
8
BLACK
6
CONTINUOUS
10
366.538
20
-83.058
11
371.738
21
-83.058
0
LINE
8
BLACK
6
CONTINUOUS
10
366.538
20
-79.858
11
366.538
21
-83.058
0
LINE
8
BLACK
6
CONTINUOUS
10
371.738
20
-79.819
11
371.738
21
-83.019
0
LINE
8
BLACK
6
CONTINUOUS
10
362.238
20
-82.719
11
362.238
21
-68.919
0
LINE
8
BLACK
6
CONTINUOUS
10
376.038
20
-68.919
11
376.038
21
-82.719
0
LINE
8
BLACK
6
CONTINUOUS
10
376.038
20
-68.919
11
362.238
21
-68.919
0
LINE
8
BLACK
6
CONTINUOUS
10
362.238
20
-82.719
11
376.038
21
-82.719
0
LINE
8
BLACK
6
CONTINUOUS
10
266.633
20
-79.819
11
261.433
21
-79.819
0
LINE
8
BLACK
6
CONTINUOUS
10
261.433
20
-83.058
11
266.633
21
-83.058
0
LINE
8
BLACK
6
CONTINUOUS
10
261.433
20
-79.858
11
261.433
21
-83.058
0
LINE
8
BLACK
6
CONTINUOUS
10
266.633
20
-79.819
11
266.633
21
-83.019
0
LINE
8
BLACK
6
CONTINUOUS
10
257.133
20
-82.719
11
257.133
21
-68.919
0
LINE
8
BLACK
6
CONTINUOUS
10
270.933
20
-68.919
11
270.933
21
-82.719
0
LINE
8
BLACK
6
CONTINUOUS
10
270.933
20
-68.919
11
257.133
21
-68.919
0
LINE
8
BLACK
6
CONTINUOUS
10
257.133
20
-82.719
11
270.933
21
-82.719
0
LINE
8
BLACK
6
CONTINUOUS
10
352.815
20
-60.769
11
347.615
21
-60.769
0
LINE
8
BLACK
6
CONTINUOUS
10
347.615
20
-64.008
11
352.815
21
-64.008
0
LINE
8
BLACK
6
CONTINUOUS
10
347.615
20
-60.808
11
347.615
21
-64.008
0
LINE
8
BLACK
6
CONTINUOUS
10
352.815
20
-60.769
11
352.815
21
-63.969
0
LINE
8
BLACK
6
CONTINUOUS
10
343.315
20
-63.669
11
343.315
21
-49.869
0
LINE
8
BLACK
6
CONTINUOUS
10
357.115
20
-49.869
11
357.115
21
-63.669
0
LINE
8
BLACK
6
CONTINUOUS
10
357.115
20
-49.869
11
343.315
21
-49.869
0
LINE
8
BLACK
6
CONTINUOUS
10
343.315
20
-63.669
11
357.115
21
-63.669
0
LINE
8
BLACK
6
CONTINUOUS
10
333.765
20
-60.769
11
328.565
21
-60.769
0
LINE
8
BLACK
6
CONTINUOUS
10
328.565
20
-64.008
11
333.765
21
-64.008
0
LINE
8
BLACK
6
CONTINUOUS
10
328.565
20
-60.808
11
328.565
21
-64.008
0
LINE
8
BLACK
6
CONTINUOUS
10
333.765
20
-60.769
11
333.765
21
-63.969
0
LINE
8
BLACK
6
CONTINUOUS
10
324.265
20
-63.669
11
324.265
21
-49.869
0
LINE
8
BLACK
6
CONTINUOUS
10
338.065
20
-49.869
11
338.065
21
-63.669
0
LINE
8
BLACK
6
CONTINUOUS
10
338.065
20
-49.869
11
324.265
21
-49.869
0
LINE
8
BLACK
6
CONTINUOUS
10
324.265
20
-63.669
11
338.065
21
-63.669
0
LINE
8
BLACK
6
CONTINUOUS
10
333.765
20
-79.819
11
328.565
21
-79.819
0
LINE
8
BLACK
6
CONTINUOUS
10
328.565
20
-83.058
11
333.765
21
-83.058
0
LINE
8
BLACK
6
CONTINUOUS
10
328.565
20
-79.858
11
328.565
21
-83.058
0
LINE
8
BLACK
6
CONTINUOUS
10
333.765
20
-79.819
11
333.765
21
-83.019
0
LINE
8
BLACK
6
CONTINUOUS
10
324.265
20
-82.719
11
324.265
21
-68.919
0
LINE
8
BLACK
6
CONTINUOUS
10
338.065
20
-68.919
11
338.065
21
-82.719
0
LINE
8
BLACK
6
CONTINUOUS
10
338.065
20
-68.919
11
324.265
21
-68.919
0
LINE
8
BLACK
6
CONTINUOUS
10
324.265
20
-82.719
11
338.065
21
-82.719
0
LINE
8
BLACK
6
CONTINUOUS
10
352.815
20
-98.869
11
347.615
21
-98.869
0
LINE
8
BLACK
6
CONTINUOUS
10
347.615
20
-102.108
11
352.815
21
-102.108
0
LINE
8
BLACK
6
CONTINUOUS
10
347.615
20
-98.908
11
347.615
21
-102.108
0
LINE
8
BLACK
6
CONTINUOUS
10
352.815
20
-98.869
11
352.815
21
-102.069
0
LINE
8
BLACK
6
CONTINUOUS
10
343.315
20
-101.769
11
343.315
21
-87.969
0
LINE
8
BLACK
6
CONTINUOUS
10
357.115
20
-87.969
11
357.115
21
-101.769
0
LINE
8
BLACK
6
CONTINUOUS
10
357.115
20
-87.969
11
343.315
21
-87.969
0
LINE
8
BLACK
6
CONTINUOUS
10
343.315
20
-101.769
11
357.115
21
-101.769
0
LINE
8
BLACK
6
CONTINUOUS
10
333.765
20
-41.846
11
328.565
21
-41.846
0
LINE
8
BLACK
6
CONTINUOUS
10
328.565
20
-45.085
11
333.765
21
-45.085
0
LINE
8
BLACK
6
CONTINUOUS
10
328.565
20
-41.885
11
328.565
21
-45.085
0
LINE
8
BLACK
6
CONTINUOUS
10
333.765
20
-41.846
11
333.765
21
-45.046
0
LINE
8
BLACK
6
CONTINUOUS
10
324.265
20
-44.746
11
324.265
21
-30.946
0
LINE
8
BLACK
6
CONTINUOUS
10
338.065
20
-30.946
11
338.065
21
-44.746
0
LINE
8
BLACK
6
CONTINUOUS
10
338.065
20
-30.946
11
324.265
21
-30.946
0
LINE
8
BLACK
6
CONTINUOUS
10
324.265
20
-44.746
11
338.065
21
-44.746
0
LINE
8
BLACK
6
CONTINUOUS
10
62.036
20
-22.669
11
56.836
21
-22.669
0
LINE
8
BLACK
6
CONTINUOUS
10
56.836
20
-25.908
11
62.036
21
-25.908
0
LINE
8
BLACK
6
CONTINUOUS
10
56.836
20
-22.708
11
56.836
21
-25.908
0
LINE
8
BLACK
6
CONTINUOUS
10
62.036
20
-22.669
11
62.036
21
-25.869
0
LINE
8
BLACK
6
CONTINUOUS
10
52.536
20
-25.569
11
52.536
21
-11.769
0
LINE
8
BLACK
6
CONTINUOUS
10
66.336
20
-11.769
11
66.336
21
-25.569
0
LINE
8
BLACK
6
CONTINUOUS
10
66.336
20
-11.769
11
52.536
21
-11.769
0
LINE
8
BLACK
6
CONTINUOUS
10
52.536
20
-25.569
11
66.336
21
-25.569
0
LINE
8
BLACK
6
CONTINUOUS
10
371.738
20
-60.769
11
366.538
21
-60.769
0
LINE
8
BLACK
6
CONTINUOUS
10
366.538
20
-64.008
11
371.738
21
-64.008
0
LINE
8
BLACK
6
CONTINUOUS
10
366.538
20
-60.808
11
366.538
21
-64.008
0
LINE
8
BLACK
6
CONTINUOUS
10
371.738
20
-60.769
11
371.738
21
-63.969
0
LINE
8
BLACK
6
CONTINUOUS
10
362.238
20
-63.669
11
362.238
21
-49.869
0
LINE
8
BLACK
6
CONTINUOUS
10
376.038
20
-49.869
11
376.038
21
-63.669
0
LINE
8
BLACK
6
CONTINUOUS
10
376.038
20
-49.869
11
362.238
21
-49.869
0
LINE
8
BLACK
6
CONTINUOUS
10
362.238
20
-63.669
11
376.038
21
-63.669
0
LINE
8
BLACK
6
CONTINUOUS
10
371.738
20
-98.869
11
366.538
21
-98.869
0
LINE
8
BLACK
6
CONTINUOUS
10
366.538
20
-102.108
11
371.738
21
-102.108
0
LINE
8
BLACK
6
CONTINUOUS
10
366.538
20
-98.908
11
366.538
21
-102.108
0
LINE
8
BLACK
6
CONTINUOUS
10
371.738
20
-98.869
11
371.738
21
-102.069
0
LINE
8
BLACK
6
CONTINUOUS
10
362.238
20
-101.769
11
362.238
21
-87.969
0
LINE
8
BLACK
6
CONTINUOUS
10
376.038
20
-87.969
11
376.038
21
-101.769
0
LINE
8
BLACK
6
CONTINUOUS
10
376.038
20
-87.969
11
362.238
21
-87.969
0
LINE
8
BLACK
6
CONTINUOUS
10
362.238
20
-101.769
11
376.038
21
-101.769
0
LINE
8
BLACK
6
CONTINUOUS
10
42.986
20
-22.669
11
37.786
21
-22.669
0
LINE
8
BLACK
6
CONTINUOUS
10
37.786
20
-25.908
11
42.986
21
-25.908
0
LINE
8
BLACK
6
CONTINUOUS
10
37.786
20
-22.708
11
37.786
21
-25.908
0
LINE
8
BLACK
6
CONTINUOUS
10
42.986
20
-22.669
11
42.986
21
-25.869
0
LINE
8
BLACK
6
CONTINUOUS
10
33.486
20
-25.569
11
33.486
21
-11.769
0
LINE
8
BLACK
6
CONTINUOUS
10
47.286
20
-11.769
11
47.286
21
-25.569
0
LINE
8
BLACK
6
CONTINUOUS
10
47.286
20
-11.769
11
33.486
21
-11.769
0
LINE
8
BLACK
6
CONTINUOUS
10
33.486
20
-25.569
11
47.286
21
-25.569
0
LINE
8
BLACK
6
CONTINUOUS
10
371.738
20
-41.846
11
366.538
21
-41.846
0
LINE
8
BLACK
6
CONTINUOUS
10
366.538
20
-45.085
11
371.738
21
-45.085
0
LINE
8
BLACK
6
CONTINUOUS
10
366.538
20
-41.885
11
366.538
21
-45.085
0
LINE
8
BLACK
6
CONTINUOUS
10
371.738
20
-41.846
11
371.738
21
-45.046
0
LINE
8
BLACK
6
CONTINUOUS
10
362.238
20
-44.746
11
362.238
21
-30.946
0
LINE
8
BLACK
6
CONTINUOUS
10
376.038
20
-30.946
11
376.038
21
-44.746
0
LINE
8
BLACK
6
CONTINUOUS
10
376.038
20
-30.946
11
362.238
21
-30.946
0
LINE
8
BLACK
6
CONTINUOUS
10
362.238
20
-44.746
11
376.038
21
-44.746
0
LINE
8
BLACK
6
CONTINUOUS
10
371.738
20
-118.046
11
366.538
21
-118.046
0
LINE
8
BLACK
6
CONTINUOUS
10
366.538
20
-121.285
11
371.738
21
-121.285
0
LINE
8
BLACK
6
CONTINUOUS
10
366.538
20
-118.085
11
366.538
21
-121.285
0
LINE
8
BLACK
6
CONTINUOUS
10
371.738
20
-118.046
11
371.738
21
-121.246
0
LINE
8
BLACK
6
CONTINUOUS
10
362.238
20
-120.946
11
362.238
21
-107.146
0
LINE
8
BLACK
6
CONTINUOUS
10
376.038
20
-107.146
11
376.038
21
-120.946
0
LINE
8
BLACK
6
CONTINUOUS
10
376.038
20
-107.146
11
362.238
21
-107.146
0
LINE
8
BLACK
6
CONTINUOUS
10
362.238
20
-120.946
11
376.038
21
-120.946
0
LINE
8
BLACK
6
CONTINUOUS
10
352.815
20
-118.046
11
347.615
21
-118.046
0
LINE
8
BLACK
6
CONTINUOUS
10
347.615
20
-121.285
11
352.815
21
-121.285
0
LINE
8
BLACK
6
CONTINUOUS
10
347.615
20
-118.085
11
347.615
21
-121.285
0
LINE
8
BLACK
6
CONTINUOUS
10
352.815
20
-118.046
11
352.815
21
-121.246
0
LINE
8
BLACK
6
CONTINUOUS
10
343.315
20
-120.946
11
343.315
21
-107.146
0
LINE
8
BLACK
6
CONTINUOUS
10
357.115
20
-107.146
11
357.115
21
-120.946
0
LINE
8
BLACK
6
CONTINUOUS
10
357.115
20
-107.146
11
343.315
21
-107.146
0
LINE
8
BLACK
6
CONTINUOUS
10
343.315
20
-120.946
11
357.115
21
-120.946
0
LINE
8
BLACK
6
CONTINUOUS
10
333.765
20
-118.046
11
328.565
21
-118.046
0
LINE
8
BLACK
6
CONTINUOUS
10
328.565
20
-121.285
11
333.765
21
-121.285
0
LINE
8
BLACK
6
CONTINUOUS
10
328.565
20
-118.085
11
328.565
21
-121.285
0
LINE
8
BLACK
6
CONTINUOUS
10
333.765
20
-118.046
11
333.765
21
-121.246
0
LINE
8
BLACK
6
CONTINUOUS
10
324.265
20
-120.946
11
324.265
21
-107.146
0
LINE
8
BLACK
6
CONTINUOUS
10
338.065
20
-107.146
11
338.065
21
-120.946
0
LINE
8
BLACK
6
CONTINUOUS
10
338.065
20
-107.146
11
324.265
21
-107.146
0
LINE
8
BLACK
6
CONTINUOUS
10
324.265
20
-120.946
11
338.065
21
-120.946
0
LINE
8
BLACK
6
CONTINUOUS
10
81.086
20
-22.669
11
75.886
21
-22.669
0
LINE
8
BLACK
6
CONTINUOUS
10
75.886
20
-25.908
11
81.086
21
-25.908
0
LINE
8
BLACK
6
CONTINUOUS
10
75.886
20
-22.708
11
75.886
21
-25.908
0
LINE
8
BLACK
6
CONTINUOUS
10
81.086
20
-22.669
11
81.086
21
-25.869
0
LINE
8
BLACK
6
CONTINUOUS
10
71.586
20
-25.569
11
71.586
21
-11.769
0
LINE
8
BLACK
6
CONTINUOUS
10
85.386
20
-11.769
11
85.386
21
-25.569
0
LINE
8
BLACK
6
CONTINUOUS
10
85.386
20
-11.769
11
71.586
21
-11.769
0
LINE
8
BLACK
6
CONTINUOUS
10
71.586
20
-25.569
11
85.386
21
-25.569
0
LINE
8
BLACK
6
CONTINUOUS
10
352.815
20
-41.846
11
347.615
21
-41.846
0
LINE
8
BLACK
6
CONTINUOUS
10
347.615
20
-45.085
11
352.815
21
-45.085
0
LINE
8
BLACK
6
CONTINUOUS
10
347.615
20
-41.885
11
347.615
21
-45.085
0
LINE
8
BLACK
6
CONTINUOUS
10
352.815
20
-41.846
11
352.815
21
-45.046
0
LINE
8
BLACK
6
CONTINUOUS
10
343.315
20
-44.746
11
343.315
21
-30.946
0
LINE
8
BLACK
6
CONTINUOUS
10
357.115
20
-30.946
11
357.115
21
-44.746
0
LINE
8
BLACK
6
CONTINUOUS
10
357.115
20
-30.946
11
343.315
21
-30.946
0
LINE
8
BLACK
6
CONTINUOUS
10
343.315
20
-44.746
11
357.115
21
-44.746
0
LINE
8
BLACK
6
CONTINUOUS
10
273.939
20
-107.061
11
287.909
21
-107.061
0
LINE
8
BLACK
6
CONTINUOUS
10
287.909
20
-107.061
11
287.909
21
-109.169
0
LINE
8
BLACK
6
CONTINUOUS
10
287.909
20
-119.863
11
287.909
21
-121.031
0
LINE
8
BLACK
6
CONTINUOUS
10
287.909
20
-121.031
11
273.939
21
-121.031
0
LINE
8
BLACK
6
CONTINUOUS
10
273.939
20
-121.031
11
273.939
21
-119.863
0
LINE
8
BLACK
6
CONTINUOUS
10
273.939
20
-109.169
11
273.939
21
-107.061
0
LINE
8
BLACK
6
CONTINUOUS
10
274.034
20
-120.936
11
274.034
21
-107.136
0
LINE
8
BLACK
6
CONTINUOUS
10
287.834
20
-107.136
11
287.834
21
-120.936
0
LINE
8
BLACK
6
CONTINUOUS
10
287.834
20
-107.136
11
274.034
21
-107.136
0
LINE
8
BLACK
6
CONTINUOUS
10
274.034
20
-120.936
11
287.834
21
-120.936
0
LINE
8
BLACK
6
CONTINUOUS
10
278.324
20
-121.285
11
283.524
21
-121.285
0
LINE
8
BLACK
6
CONTINUOUS
10
278.324
20
-118.085
11
278.324
21
-121.285
0
LINE
8
BLACK
6
CONTINUOUS
10
283.524
20
-118.046
11
283.524
21
-121.246
0
LINE
8
BLACK
6
CONTINUOUS
10
283.524
20
-118.046
11
278.324
21
-118.046
  0
ENDSEC
  0
EOF
