<?xml version="1.0" standalone="no"?>
 <!DOCTYPE svg PUBLIC "-//W3C//DTD SVG 1.1//EN" 
 "http://www.w3.org/Graphics/SVG/1.1/DTD/svg11.dtd"> 
<svg
  xmlns:svg="http://www.w3.org/2000/svg"
  xmlns="http://www.w3.org/2000/svg"
  xmlns:xlink="http://www.w3.org/1999/xlink"
  version="1.1"
  width="43.180000cm" height="17.940020cm" viewBox="0 0 170000 70630">
<title>SVG Picture created as chgray-keyboard-Edge_Cuts.svg date 2022/01/02 11:14:04 </title>
  <desc>Picture generated by PCBNEW </desc>
<g style="fill:#000000; fill-opacity:1;stroke:#000000; stroke-opacity:1;
stroke-linecap:round; stroke-linejoin:round;"
 transform="translate(0 0) scale(1 1)">
</g>
<g style="fill:#000000; fill-opacity:0.0; 
stroke:#000000; stroke-width:-0.000393701; stroke-opacity:1; 
stroke-linecap:round; stroke-linejoin:round;">
</g>
<g style="fill:#000000; fill-opacity:0.0; 
stroke:#000000; stroke-width:39.3701; stroke-opacity:1; 
stroke-linecap:round; stroke-linejoin:round;">
</g>
<g style="fill:#000000; fill-opacity:0.0; 
stroke:#000000; stroke-width:59.0551; stroke-opacity:1; 
stroke-linecap:round; stroke-linejoin:round;">
<rect x="122756" y="53307.2" width="42519.7" height="12598.4" rx="0" />
</g>
<g style="fill:#000000; fill-opacity:0.0; 
stroke:#000000; stroke-width:39.3701; stroke-opacity:1; 
stroke-linecap:round; stroke-linejoin:round;">
</g>
<g style="fill:#000000; fill-opacity:0.0; 
stroke:#000000; stroke-width:59.0551; stroke-opacity:1; 
stroke-linecap:round; stroke-linejoin:round;">
<rect x="3937.01" y="3937.01" width="162126" height="62756" rx="0" />
</g>
<g style="fill:#000000; fill-opacity:0.0; 
stroke:#000000; stroke-width:39.3701; stroke-opacity:1; 
stroke-linecap:round; stroke-linejoin:round;">
</g>
<g style="fill:#000000; fill-opacity:0.0; 
stroke:#000000; stroke-width:59.0551; stroke-opacity:1; 
stroke-linecap:round; stroke-linejoin:round;">
<rect x="4724.41" y="4724.41" width="160551" height="61181.2" rx="0" />
</g>
<g style="fill:#000000; fill-opacity:0.0; 
stroke:#000000; stroke-width:39.3701; stroke-opacity:1; 
stroke-linecap:round; stroke-linejoin:round;">
</g>
<g style="fill:#000000; fill-opacity:0.0; 
stroke:#000000; stroke-width:59.0551; stroke-opacity:1; 
stroke-linecap:round; stroke-linejoin:round;">
<path d="M23622 4724
L23622 3937
" />
</g>
<g style="fill:#000000; fill-opacity:0.0; 
stroke:#000000; stroke-width:39.3701; stroke-opacity:1; 
stroke-linecap:round; stroke-linejoin:round;">
</g>
<g style="fill:#000000; fill-opacity:0.0; 
stroke:#000000; stroke-width:59.0551; stroke-opacity:1; 
stroke-linecap:round; stroke-linejoin:round;">
<path d="M43307 4724
L43307 3937
" />
</g>
<g style="fill:#000000; fill-opacity:0.0; 
stroke:#000000; stroke-width:39.3701; stroke-opacity:1; 
stroke-linecap:round; stroke-linejoin:round;">
</g>
<g style="fill:#000000; fill-opacity:0.0; 
stroke:#000000; stroke-width:59.0551; stroke-opacity:1; 
stroke-linecap:round; stroke-linejoin:round;">
<path d="M62992 4724
L62992 3937
" />
</g>
<g style="fill:#000000; fill-opacity:0.0; 
stroke:#000000; stroke-width:39.3701; stroke-opacity:1; 
stroke-linecap:round; stroke-linejoin:round;">
</g>
<g style="fill:#000000; fill-opacity:0.0; 
stroke:#000000; stroke-width:59.0551; stroke-opacity:1; 
stroke-linecap:round; stroke-linejoin:round;">
<path d="M82677 4724
L82677 3937
" />
</g>
<g style="fill:#000000; fill-opacity:0.0; 
stroke:#000000; stroke-width:39.3701; stroke-opacity:1; 
stroke-linecap:round; stroke-linejoin:round;">
</g>
<g style="fill:#000000; fill-opacity:0.0; 
stroke:#000000; stroke-width:59.0551; stroke-opacity:1; 
stroke-linecap:round; stroke-linejoin:round;">
<path d="M102362 4724
L102362 3937
" />
</g>
<g style="fill:#000000; fill-opacity:0.0; 
stroke:#000000; stroke-width:39.3701; stroke-opacity:1; 
stroke-linecap:round; stroke-linejoin:round;">
</g>
<g style="fill:#000000; fill-opacity:0.0; 
stroke:#000000; stroke-width:59.0551; stroke-opacity:1; 
stroke-linecap:round; stroke-linejoin:round;">
<path d="M122047 4724
L122047 3937
" />
</g>
<g style="fill:#000000; fill-opacity:0.0; 
stroke:#000000; stroke-width:39.3701; stroke-opacity:1; 
stroke-linecap:round; stroke-linejoin:round;">
</g>
<g style="fill:#000000; fill-opacity:0.0; 
stroke:#000000; stroke-width:59.0551; stroke-opacity:1; 
stroke-linecap:round; stroke-linejoin:round;">
<path d="M141732 4724
L141732 3937
" />
</g>
<g style="fill:#000000; fill-opacity:0.0; 
stroke:#000000; stroke-width:39.3701; stroke-opacity:1; 
stroke-linecap:round; stroke-linejoin:round;">
</g>
<g style="fill:#000000; fill-opacity:0.0; 
stroke:#000000; stroke-width:59.0551; stroke-opacity:1; 
stroke-linecap:round; stroke-linejoin:round;">
<path d="M161417 4724
L161417 3937
" />
</g>
<g style="fill:#000000; fill-opacity:0.0; 
stroke:#000000; stroke-width:39.3701; stroke-opacity:1; 
stroke-linecap:round; stroke-linejoin:round;">
</g>
<g style="fill:#000000; fill-opacity:0.0; 
stroke:#000000; stroke-width:59.0551; stroke-opacity:1; 
stroke-linecap:round; stroke-linejoin:round;">
<text x="13779.5" y="4586.61"
textLength="507.911" font-size="682.415" lengthAdjust="spacingAndGlyphs"
text-anchor="start" opacity="0">1</text>
<path d="M14199 4562
L13906 4562
" />
<path d="M14052 4562
L14052 4050
L14004 4123
L13955 4172
L13906 4196
" />
</g>
<g style="fill:#000000; fill-opacity:0.0; 
stroke:#000000; stroke-width:39.3701; stroke-opacity:1; 
stroke-linecap:round; stroke-linejoin:round;">
</g>
<g style="fill:#000000; fill-opacity:0.0; 
stroke:#000000; stroke-width:59.0551; stroke-opacity:1; 
stroke-linecap:round; stroke-linejoin:round;">
<text x="33464.6" y="4586.61"
textLength="546.494" font-size="682.415" lengthAdjust="spacingAndGlyphs"
text-anchor="start" opacity="0">2</text>
<path d="M33591 4099
L33615 4074
L33664 4050
L33786 4050
L33835 4074
L33859 4099
L33884 4147
L33884 4196
L33859 4269
L33567 4562
L33884 4562
" />
</g>
<g style="fill:#000000; fill-opacity:0.0; 
stroke:#000000; stroke-width:39.3701; stroke-opacity:1; 
stroke-linecap:round; stroke-linejoin:round;">
</g>
<g style="fill:#000000; fill-opacity:0.0; 
stroke:#000000; stroke-width:59.0551; stroke-opacity:1; 
stroke-linecap:round; stroke-linejoin:round;">
<text x="53149.6" y="4586.61"
textLength="546.494" font-size="682.415" lengthAdjust="spacingAndGlyphs"
text-anchor="start" opacity="0">3</text>
<path d="M53252 4050
L53569 4050
L53398 4245
L53471 4245
L53520 4269
L53544 4294
L53569 4342
L53569 4464
L53544 4513
L53520 4537
L53471 4562
L53325 4562
L53276 4537
L53252 4513
" />
</g>
<g style="fill:#000000; fill-opacity:0.0; 
stroke:#000000; stroke-width:39.3701; stroke-opacity:1; 
stroke-linecap:round; stroke-linejoin:round;">
</g>
<g style="fill:#000000; fill-opacity:0.0; 
stroke:#000000; stroke-width:59.0551; stroke-opacity:1; 
stroke-linecap:round; stroke-linejoin:round;">
<text x="72834.6" y="4586.61"
textLength="546.494" font-size="682.415" lengthAdjust="spacingAndGlyphs"
text-anchor="start" opacity="0">4</text>
<path d="M73205 4221
L73205 4562
" />
<path d="M73083 4026
L72961 4391
L73278 4391
" />
</g>
<g style="fill:#000000; fill-opacity:0.0; 
stroke:#000000; stroke-width:39.3701; stroke-opacity:1; 
stroke-linecap:round; stroke-linejoin:round;">
</g>
<g style="fill:#000000; fill-opacity:0.0; 
stroke:#000000; stroke-width:59.0551; stroke-opacity:1; 
stroke-linecap:round; stroke-linejoin:round;">
<text x="92519.7" y="4586.61"
textLength="546.494" font-size="682.415" lengthAdjust="spacingAndGlyphs"
text-anchor="start" opacity="0">5</text>
<path d="M92914 4050
L92671 4050
L92646 4294
L92671 4269
L92719 4245
L92841 4245
L92890 4269
L92914 4294
L92939 4342
L92939 4464
L92914 4513
L92890 4537
L92841 4562
L92719 4562
L92671 4537
L92646 4513
" />
</g>
<g style="fill:#000000; fill-opacity:0.0; 
stroke:#000000; stroke-width:39.3701; stroke-opacity:1; 
stroke-linecap:round; stroke-linejoin:round;">
</g>
<g style="fill:#000000; fill-opacity:0.0; 
stroke:#000000; stroke-width:59.0551; stroke-opacity:1; 
stroke-linecap:round; stroke-linejoin:round;">
<text x="112205" y="4586.61"
textLength="546.494" font-size="682.415" lengthAdjust="spacingAndGlyphs"
text-anchor="start" opacity="0">6</text>
<path d="M112575 4050
L112477 4050
L112429 4074
L112404 4099
L112356 4172
L112331 4269
L112331 4464
L112356 4513
L112380 4537
L112429 4562
L112526 4562
L112575 4537
L112599 4513
L112624 4464
L112624 4342
L112599 4294
L112575 4269
L112526 4245
L112429 4245
L112380 4269
L112356 4294
L112331 4342
" />
</g>
<g style="fill:#000000; fill-opacity:0.0; 
stroke:#000000; stroke-width:39.3701; stroke-opacity:1; 
stroke-linecap:round; stroke-linejoin:round;">
</g>
<g style="fill:#000000; fill-opacity:0.0; 
stroke:#000000; stroke-width:59.0551; stroke-opacity:1; 
stroke-linecap:round; stroke-linejoin:round;">
<text x="131890" y="4586.61"
textLength="546.494" font-size="682.415" lengthAdjust="spacingAndGlyphs"
text-anchor="start" opacity="0">7</text>
<path d="M131992 4050
L132333 4050
L132114 4562
" />
</g>
<g style="fill:#000000; fill-opacity:0.0; 
stroke:#000000; stroke-width:39.3701; stroke-opacity:1; 
stroke-linecap:round; stroke-linejoin:round;">
</g>
<g style="fill:#000000; fill-opacity:0.0; 
stroke:#000000; stroke-width:59.0551; stroke-opacity:1; 
stroke-linecap:round; stroke-linejoin:round;">
<text x="151575" y="4586.61"
textLength="546.494" font-size="682.415" lengthAdjust="spacingAndGlyphs"
text-anchor="start" opacity="0">8</text>
<path d="M151799 4269
L151750 4245
L151726 4221
L151701 4172
L151701 4147
L151726 4099
L151750 4074
L151799 4050
L151896 4050
L151945 4074
L151969 4099
L151994 4147
L151994 4172
L151969 4221
L151945 4245
L151896 4269
L151799 4269
L151750 4294
L151726 4318
L151701 4367
L151701 4464
L151726 4513
L151750 4537
L151799 4562
L151896 4562
L151945 4537
L151969 4513
L151994 4464
L151994 4367
L151969 4318
L151945 4294
L151896 4269
" />
</g>
<g style="fill:#000000; fill-opacity:0.0; 
stroke:#000000; stroke-width:39.3701; stroke-opacity:1; 
stroke-linecap:round; stroke-linejoin:round;">
</g>
<g style="fill:#000000; fill-opacity:0.0; 
stroke:#000000; stroke-width:59.0551; stroke-opacity:1; 
stroke-linecap:round; stroke-linejoin:round;">
<path d="M23622 65905
L23622 66692
" />
</g>
<g style="fill:#000000; fill-opacity:0.0; 
stroke:#000000; stroke-width:39.3701; stroke-opacity:1; 
stroke-linecap:round; stroke-linejoin:round;">
</g>
<g style="fill:#000000; fill-opacity:0.0; 
stroke:#000000; stroke-width:59.0551; stroke-opacity:1; 
stroke-linecap:round; stroke-linejoin:round;">
<path d="M43307 65905
L43307 66692
" />
</g>
<g style="fill:#000000; fill-opacity:0.0; 
stroke:#000000; stroke-width:39.3701; stroke-opacity:1; 
stroke-linecap:round; stroke-linejoin:round;">
</g>
<g style="fill:#000000; fill-opacity:0.0; 
stroke:#000000; stroke-width:59.0551; stroke-opacity:1; 
stroke-linecap:round; stroke-linejoin:round;">
<path d="M62992 65905
L62992 66692
" />
</g>
<g style="fill:#000000; fill-opacity:0.0; 
stroke:#000000; stroke-width:39.3701; stroke-opacity:1; 
stroke-linecap:round; stroke-linejoin:round;">
</g>
<g style="fill:#000000; fill-opacity:0.0; 
stroke:#000000; stroke-width:59.0551; stroke-opacity:1; 
stroke-linecap:round; stroke-linejoin:round;">
<path d="M82677 65905
L82677 66692
" />
</g>
<g style="fill:#000000; fill-opacity:0.0; 
stroke:#000000; stroke-width:39.3701; stroke-opacity:1; 
stroke-linecap:round; stroke-linejoin:round;">
</g>
<g style="fill:#000000; fill-opacity:0.0; 
stroke:#000000; stroke-width:59.0551; stroke-opacity:1; 
stroke-linecap:round; stroke-linejoin:round;">
<path d="M102362 65905
L102362 66692
" />
</g>
<g style="fill:#000000; fill-opacity:0.0; 
stroke:#000000; stroke-width:39.3701; stroke-opacity:1; 
stroke-linecap:round; stroke-linejoin:round;">
</g>
<g style="fill:#000000; fill-opacity:0.0; 
stroke:#000000; stroke-width:59.0551; stroke-opacity:1; 
stroke-linecap:round; stroke-linejoin:round;">
<path d="M122047 65905
L122047 66692
" />
</g>
<g style="fill:#000000; fill-opacity:0.0; 
stroke:#000000; stroke-width:39.3701; stroke-opacity:1; 
stroke-linecap:round; stroke-linejoin:round;">
</g>
<g style="fill:#000000; fill-opacity:0.0; 
stroke:#000000; stroke-width:59.0551; stroke-opacity:1; 
stroke-linecap:round; stroke-linejoin:round;">
<path d="M141732 65905
L141732 66692
" />
</g>
<g style="fill:#000000; fill-opacity:0.0; 
stroke:#000000; stroke-width:39.3701; stroke-opacity:1; 
stroke-linecap:round; stroke-linejoin:round;">
</g>
<g style="fill:#000000; fill-opacity:0.0; 
stroke:#000000; stroke-width:59.0551; stroke-opacity:1; 
stroke-linecap:round; stroke-linejoin:round;">
<path d="M161417 65905
L161417 66692
" />
</g>
<g style="fill:#000000; fill-opacity:0.0; 
stroke:#000000; stroke-width:39.3701; stroke-opacity:1; 
stroke-linecap:round; stroke-linejoin:round;">
</g>
<g style="fill:#000000; fill-opacity:0.0; 
stroke:#000000; stroke-width:59.0551; stroke-opacity:1; 
stroke-linecap:round; stroke-linejoin:round;">
<text x="13779.5" y="66555.2"
textLength="546.494" font-size="682.415" lengthAdjust="spacingAndGlyphs"
text-anchor="start" opacity="0">1</text>
<path d="M14199 66530
L13906 66530
" />
<path d="M14052 66530
L14052 66019
L14004 66092
L13955 66140
L13906 66165
" />
</g>
<g style="fill:#000000; fill-opacity:0.0; 
stroke:#000000; stroke-width:39.3701; stroke-opacity:1; 
stroke-linecap:round; stroke-linejoin:round;">
</g>
<g style="fill:#000000; fill-opacity:0.0; 
stroke:#000000; stroke-width:59.0551; stroke-opacity:1; 
stroke-linecap:round; stroke-linejoin:round;">
<text x="33464.6" y="66555.2"
textLength="546.494" font-size="682.415" lengthAdjust="spacingAndGlyphs"
text-anchor="start" opacity="0">2</text>
<path d="M33591 66067
L33615 66043
L33664 66019
L33786 66019
L33835 66043
L33859 66067
L33884 66116
L33884 66165
L33859 66238
L33567 66530
L33884 66530
" />
</g>
<g style="fill:#000000; fill-opacity:0.0; 
stroke:#000000; stroke-width:39.3701; stroke-opacity:1; 
stroke-linecap:round; stroke-linejoin:round;">
</g>
<g style="fill:#000000; fill-opacity:0.0; 
stroke:#000000; stroke-width:59.0551; stroke-opacity:1; 
stroke-linecap:round; stroke-linejoin:round;">
<text x="53149.6" y="66555.2"
textLength="546.494" font-size="682.415" lengthAdjust="spacingAndGlyphs"
text-anchor="start" opacity="0">3</text>
<path d="M53252 66019
L53569 66019
L53398 66213
L53471 66213
L53520 66238
L53544 66262
L53569 66311
L53569 66433
L53544 66482
L53520 66506
L53471 66530
L53325 66530
L53276 66506
L53252 66482
" />
</g>
<g style="fill:#000000; fill-opacity:0.0; 
stroke:#000000; stroke-width:39.3701; stroke-opacity:1; 
stroke-linecap:round; stroke-linejoin:round;">
</g>
<g style="fill:#000000; fill-opacity:0.0; 
stroke:#000000; stroke-width:59.0551; stroke-opacity:1; 
stroke-linecap:round; stroke-linejoin:round;">
<text x="72834.6" y="66555.2"
textLength="546.494" font-size="682.415" lengthAdjust="spacingAndGlyphs"
text-anchor="start" opacity="0">4</text>
<path d="M73205 66189
L73205 66530
" />
<path d="M73083 65994
L72961 66360
L73278 66360
" />
</g>
<g style="fill:#000000; fill-opacity:0.0; 
stroke:#000000; stroke-width:39.3701; stroke-opacity:1; 
stroke-linecap:round; stroke-linejoin:round;">
</g>
<g style="fill:#000000; fill-opacity:0.0; 
stroke:#000000; stroke-width:59.0551; stroke-opacity:1; 
stroke-linecap:round; stroke-linejoin:round;">
<text x="92519.7" y="66555.2"
textLength="546.494" font-size="682.415" lengthAdjust="spacingAndGlyphs"
text-anchor="start" opacity="0">5</text>
<path d="M92914 66019
L92671 66019
L92646 66262
L92671 66238
L92719 66213
L92841 66213
L92890 66238
L92914 66262
L92939 66311
L92939 66433
L92914 66482
L92890 66506
L92841 66530
L92719 66530
L92671 66506
L92646 66482
" />
</g>
<g style="fill:#000000; fill-opacity:0.0; 
stroke:#000000; stroke-width:39.3701; stroke-opacity:1; 
stroke-linecap:round; stroke-linejoin:round;">
</g>
<g style="fill:#000000; fill-opacity:0.0; 
stroke:#000000; stroke-width:59.0551; stroke-opacity:1; 
stroke-linecap:round; stroke-linejoin:round;">
<text x="112205" y="66555.2"
textLength="546.494" font-size="682.415" lengthAdjust="spacingAndGlyphs"
text-anchor="start" opacity="0">6</text>
<path d="M112575 66019
L112477 66019
L112429 66043
L112404 66067
L112356 66140
L112331 66238
L112331 66433
L112356 66482
L112380 66506
L112429 66530
L112526 66530
L112575 66506
L112599 66482
L112624 66433
L112624 66311
L112599 66262
L112575 66238
L112526 66213
L112429 66213
L112380 66238
L112356 66262
L112331 66311
" />
</g>
<g style="fill:#000000; fill-opacity:0.0; 
stroke:#000000; stroke-width:39.3701; stroke-opacity:1; 
stroke-linecap:round; stroke-linejoin:round;">
</g>
<g style="fill:#000000; fill-opacity:0.0; 
stroke:#000000; stroke-width:59.0551; stroke-opacity:1; 
stroke-linecap:round; stroke-linejoin:round;">
<text x="131890" y="66555.2"
textLength="546.494" font-size="682.415" lengthAdjust="spacingAndGlyphs"
text-anchor="start" opacity="0">7</text>
<path d="M131992 66019
L132333 66019
L132114 66530
" />
</g>
<g style="fill:#000000; fill-opacity:0.0; 
stroke:#000000; stroke-width:39.3701; stroke-opacity:1; 
stroke-linecap:round; stroke-linejoin:round;">
</g>
<g style="fill:#000000; fill-opacity:0.0; 
stroke:#000000; stroke-width:59.0551; stroke-opacity:1; 
stroke-linecap:round; stroke-linejoin:round;">
<text x="151575" y="66555.2"
textLength="546.494" font-size="682.415" lengthAdjust="spacingAndGlyphs"
text-anchor="start" opacity="0">8</text>
<path d="M151799 66238
L151750 66213
L151726 66189
L151701 66140
L151701 66116
L151726 66067
L151750 66043
L151799 66019
L151896 66019
L151945 66043
L151969 66067
L151994 66116
L151994 66140
L151969 66189
L151945 66213
L151896 66238
L151799 66238
L151750 66262
L151726 66287
L151701 66335
L151701 66433
L151726 66482
L151750 66506
L151799 66530
L151896 66530
L151945 66506
L151969 66482
L151994 66433
L151994 66335
L151969 66287
L151945 66262
L151896 66238
" />
</g>
<g style="fill:#000000; fill-opacity:0.0; 
stroke:#000000; stroke-width:39.3701; stroke-opacity:1; 
stroke-linecap:round; stroke-linejoin:round;">
</g>
<g style="fill:#000000; fill-opacity:0.0; 
stroke:#000000; stroke-width:59.0551; stroke-opacity:1; 
stroke-linecap:round; stroke-linejoin:round;">
<path d="M3937 23622
L4724 23622
" />
</g>
<g style="fill:#000000; fill-opacity:0.0; 
stroke:#000000; stroke-width:39.3701; stroke-opacity:1; 
stroke-linecap:round; stroke-linejoin:round;">
</g>
<g style="fill:#000000; fill-opacity:0.0; 
stroke:#000000; stroke-width:59.0551; stroke-opacity:1; 
stroke-linecap:round; stroke-linejoin:round;">
<path d="M3937 43307
L4724 43307
" />
</g>
<g style="fill:#000000; fill-opacity:0.0; 
stroke:#000000; stroke-width:39.3701; stroke-opacity:1; 
stroke-linecap:round; stroke-linejoin:round;">
</g>
<g style="fill:#000000; fill-opacity:0.0; 
stroke:#000000; stroke-width:59.0551; stroke-opacity:1; 
stroke-linecap:round; stroke-linejoin:round;">
<path d="M3937 62992
L4724 62992
" />
</g>
<g style="fill:#000000; fill-opacity:0.0; 
stroke:#000000; stroke-width:39.3701; stroke-opacity:1; 
stroke-linecap:round; stroke-linejoin:round;">
</g>
<g style="fill:#000000; fill-opacity:0.0; 
stroke:#000000; stroke-width:59.0551; stroke-opacity:1; 
stroke-linecap:round; stroke-linejoin:round;">
<text x="4330.71" y="14035.4"
textLength="497.75" font-size="682.415" lengthAdjust="spacingAndGlyphs"
text-anchor="middle" opacity="0">A</text>
<path d="M4208 13864
L4452 13864
" />
<path d="M4160 14011
L4330 13499
L4501 14011
" />
</g>
<g style="fill:#000000; fill-opacity:0.0; 
stroke:#000000; stroke-width:39.3701; stroke-opacity:1; 
stroke-linecap:round; stroke-linejoin:round;">
</g>
<g style="fill:#000000; fill-opacity:0.0; 
stroke:#000000; stroke-width:59.0551; stroke-opacity:1; 
stroke-linecap:round; stroke-linejoin:round;">
<text x="4330.71" y="33720.5"
textLength="570.866" font-size="682.415" lengthAdjust="spacingAndGlyphs"
text-anchor="middle" opacity="0">B</text>
<path d="M4367 33428
L4440 33452
L4464 33476
L4489 33525
L4489 33598
L4464 33647
L4440 33671
L4391 33696
L4196 33696
L4196 33184
L4367 33184
L4416 33208
L4440 33233
L4464 33281
L4464 33330
L4440 33379
L4416 33403
L4367 33428
L4196 33428
" />
</g>
<g style="fill:#000000; fill-opacity:0.0; 
stroke:#000000; stroke-width:39.3701; stroke-opacity:1; 
stroke-linecap:round; stroke-linejoin:round;">
</g>
<g style="fill:#000000; fill-opacity:0.0; 
stroke:#000000; stroke-width:59.0551; stroke-opacity:1; 
stroke-linecap:round; stroke-linejoin:round;">
<text x="4330.71" y="53405.5"
textLength="570.866" font-size="682.415" lengthAdjust="spacingAndGlyphs"
text-anchor="middle" opacity="0">C</text>
<path d="M4489 53332
L4464 53356
L4391 53381
L4342 53381
L4269 53356
L4221 53308
L4196 53259
L4172 53161
L4172 53088
L4196 52991
L4221 52942
L4269 52893
L4342 52869
L4391 52869
L4464 52893
L4489 52918
" />
</g>
<g style="fill:#000000; fill-opacity:0.0; 
stroke:#000000; stroke-width:39.3701; stroke-opacity:1; 
stroke-linecap:round; stroke-linejoin:round;">
</g>
<g style="fill:#000000; fill-opacity:0.0; 
stroke:#000000; stroke-width:59.0551; stroke-opacity:1; 
stroke-linecap:round; stroke-linejoin:round;">
<path d="M166062 23622
L165275 23622
" />
</g>
<g style="fill:#000000; fill-opacity:0.0; 
stroke:#000000; stroke-width:39.3701; stroke-opacity:1; 
stroke-linecap:round; stroke-linejoin:round;">
</g>
<g style="fill:#000000; fill-opacity:0.0; 
stroke:#000000; stroke-width:59.0551; stroke-opacity:1; 
stroke-linecap:round; stroke-linejoin:round;">
<path d="M166062 43307
L165275 43307
" />
</g>
<g style="fill:#000000; fill-opacity:0.0; 
stroke:#000000; stroke-width:39.3701; stroke-opacity:1; 
stroke-linecap:round; stroke-linejoin:round;">
</g>
<g style="fill:#000000; fill-opacity:0.0; 
stroke:#000000; stroke-width:59.0551; stroke-opacity:1; 
stroke-linecap:round; stroke-linejoin:round;">
<path d="M166062 62992
L165275 62992
" />
</g>
<g style="fill:#000000; fill-opacity:0.0; 
stroke:#000000; stroke-width:39.3701; stroke-opacity:1; 
stroke-linecap:round; stroke-linejoin:round;">
</g>
<g style="fill:#000000; fill-opacity:0.0; 
stroke:#000000; stroke-width:59.0551; stroke-opacity:1; 
stroke-linecap:round; stroke-linejoin:round;">
<text x="165669" y="14035.4"
textLength="497.75" font-size="682.415" lengthAdjust="spacingAndGlyphs"
text-anchor="middle" opacity="0">A</text>
<path d="M165547 13864
L165791 13864
" />
<path d="M165498 14011
L165669 13499
L165839 14011
" />
</g>
<g style="fill:#000000; fill-opacity:0.0; 
stroke:#000000; stroke-width:39.3701; stroke-opacity:1; 
stroke-linecap:round; stroke-linejoin:round;">
</g>
<g style="fill:#000000; fill-opacity:0.0; 
stroke:#000000; stroke-width:59.0551; stroke-opacity:1; 
stroke-linecap:round; stroke-linejoin:round;">
<text x="165669" y="33720.5"
textLength="570.866" font-size="682.415" lengthAdjust="spacingAndGlyphs"
text-anchor="middle" opacity="0">B</text>
<path d="M165705 33428
L165778 33452
L165803 33476
L165827 33525
L165827 33598
L165803 33647
L165778 33671
L165730 33696
L165535 33696
L165535 33184
L165705 33184
L165754 33208
L165778 33233
L165803 33281
L165803 33330
L165778 33379
L165754 33403
L165705 33428
L165535 33428
" />
</g>
<g style="fill:#000000; fill-opacity:0.0; 
stroke:#000000; stroke-width:39.3701; stroke-opacity:1; 
stroke-linecap:round; stroke-linejoin:round;">
</g>
<g style="fill:#000000; fill-opacity:0.0; 
stroke:#000000; stroke-width:59.0551; stroke-opacity:1; 
stroke-linecap:round; stroke-linejoin:round;">
<text x="165669" y="53405.5"
textLength="570.866" font-size="682.415" lengthAdjust="spacingAndGlyphs"
text-anchor="middle" opacity="0">C</text>
<path d="M165827 53332
L165803 53356
L165730 53381
L165681 53381
L165608 53356
L165559 53308
L165535 53259
L165510 53161
L165510 53088
L165535 52991
L165559 52942
L165608 52893
L165681 52869
L165730 52869
L165803 52893
L165827 52918
" />
</g>
<g style="fill:#000000; fill-opacity:0.0; 
stroke:#000000; stroke-width:39.3701; stroke-opacity:1; 
stroke-linecap:round; stroke-linejoin:round;">
</g>
<g style="fill:#000000; fill-opacity:0.0; 
stroke:#000000; stroke-width:59.0551; stroke-opacity:1; 
stroke-linecap:round; stroke-linejoin:round;">
<text x="131811" y="64271.7"
textLength="8720.47" font-size="787.402" lengthAdjust="spacingAndGlyphs"
text-anchor="start" opacity="0">Date: 2021-05-14</text>
<path d="M131981 64243
L131981 63653
L132121 63653
L132206 63681
L132262 63737
L132290 63793
L132318 63906
L132318 63990
L132290 64103
L132262 64159
L132206 64215
L132121 64243
L131981 64243
" />
<path d="M132824 64243
L132824 63934
L132796 63878
L132740 63849
L132627 63849
L132571 63878
" />
<path d="M132824 64215
L132768 64243
L132627 64243
L132571 64215
L132543 64159
L132543 64103
L132571 64046
L132627 64018
L132768 64018
L132824 63990
" />
<path d="M133021 63849
L133246 63849
" />
<path d="M133106 63653
L133106 64159
L133134 64215
L133190 64243
L133246 64243
" />
<path d="M133668 64215
L133612 64243
L133499 64243
L133443 64215
L133415 64159
L133415 63934
L133443 63878
L133499 63849
L133612 63849
L133668 63878
L133696 63934
L133696 63990
L133415 64046
" />
<path d="M133949 64187
L133977 64215
L133949 64243
L133921 64215
L133949 64187
L133949 64243
" />
<path d="M133949 63878
L133977 63906
L133949 63934
L133921 63906
L133949 63878
L133949 63934
" />
<path d="M134652 63709
L134680 63681
L134737 63653
L134877 63653
L134933 63681
L134962 63709
L134990 63765
L134990 63821
L134962 63906
L134624 64243
L134990 64243
" />
<path d="M135355 63653
L135411 63653
L135468 63681
L135496 63709
L135524 63765
L135552 63878
L135552 64018
L135524 64131
L135496 64187
L135468 64215
L135411 64243
L135355 64243
L135299 64215
L135271 64187
L135243 64131
L135215 64018
L135215 63878
L135243 63765
L135271 63709
L135299 63681
L135355 63653
" />
<path d="M135777 63709
L135805 63681
L135861 63653
L136002 63653
L136058 63681
L136086 63709
L136115 63765
L136115 63821
L136086 63906
L135749 64243
L136115 64243
" />
<path d="M136677 64243
L136339 64243
" />
<path d="M136508 64243
L136508 63653
L136452 63737
L136396 63793
L136339 63821
" />
<path d="M136930 64018
L137380 64018
" />
<path d="M137774 63653
L137830 63653
L137886 63681
L137914 63709
L137942 63765
L137971 63878
L137971 64018
L137942 64131
L137914 64187
L137886 64215
L137830 64243
L137774 64243
L137717 64215
L137689 64187
L137661 64131
L137633 64018
L137633 63878
L137661 63765
L137689 63709
L137717 63681
L137774 63653
" />
<path d="M138505 63653
L138224 63653
L138196 63934
L138224 63906
L138280 63878
L138420 63878
L138477 63906
L138505 63934
L138533 63990
L138533 64131
L138505 64187
L138477 64215
L138420 64243
L138280 64243
L138224 64215
L138196 64187
" />
<path d="M138786 64018
L139236 64018
" />
<path d="M139827 64243
L139489 64243
" />
<path d="M139658 64243
L139658 63653
L139602 63737
L139545 63793
L139489 63821
" />
<path d="M140333 63849
L140333 64243
" />
<path d="M140192 63624
L140052 64046
L140417 64046
" />
</g>
<g style="fill:#000000; fill-opacity:0.0; 
stroke:#000000; stroke-width:39.3701; stroke-opacity:1; 
stroke-linecap:round; stroke-linejoin:round;">
</g>
<g style="fill:#000000; fill-opacity:0.0; 
stroke:#000000; stroke-width:59.0551; stroke-opacity:1; 
stroke-linecap:round; stroke-linejoin:round;">
<path d="M122755 64527
L165275 64527
" />
</g>
<g style="fill:#000000; fill-opacity:0.0; 
stroke:#000000; stroke-width:39.3701; stroke-opacity:1; 
stroke-linecap:round; stroke-linejoin:round;">
</g>
<g style="fill:#000000; fill-opacity:0.0; 
stroke:#000000; stroke-width:59.0551; stroke-opacity:1; 
stroke-linecap:round; stroke-linejoin:round;">
<text x="123150" y="65374.1"
textLength="14091.7" font-size="787.402" lengthAdjust="spacingAndGlyphs"
text-anchor="start" opacity="0">KiCad E.D.A.  kicad (5.1.10)-1</text>
<path d="M123319 65345
L123319 64755
" />
<path d="M123657 65345
L123404 65008
" />
<path d="M123657 64755
L123319 65092
" />
<path d="M123910 65345
L123910 64952
" />
<path d="M123910 64755
L123882 64783
L123910 64811
L123938 64783
L123910 64755
L123910 64811
" />
<path d="M124528 65289
L124500 65317
L124416 65345
L124360 65345
L124275 65317
L124219 65261
L124191 65205
L124163 65092
L124163 65008
L124191 64896
L124219 64839
L124275 64783
L124360 64755
L124416 64755
L124500 64783
L124528 64811
" />
<path d="M125035 65345
L125035 65036
L125007 64980
L124950 64952
L124838 64952
L124782 64980
" />
<path d="M125035 65317
L124978 65345
L124838 65345
L124782 65317
L124753 65261
L124753 65205
L124782 65149
L124838 65121
L124978 65121
L125035 65092
" />
<path d="M125569 65345
L125569 64755
" />
<path d="M125569 65317
L125513 65345
L125400 65345
L125344 65317
L125316 65289
L125288 65233
L125288 65064
L125316 65008
L125344 64980
L125400 64952
L125513 64952
L125569 64980
" />
<path d="M126300 65036
L126497 65036
" />
<path d="M126581 65345
L126300 65345
L126300 64755
L126581 64755
" />
<path d="M126834 65289
L126863 65317
L126834 65345
L126806 65317
L126834 65289
L126834 65345
" />
<path d="M127116 65345
L127116 64755
L127256 64755
L127341 64783
L127397 64839
L127425 64896
L127453 65008
L127453 65092
L127425 65205
L127397 65261
L127341 65317
L127256 65345
L127116 65345
" />
<path d="M127706 65289
L127734 65317
L127706 65345
L127678 65317
L127706 65289
L127706 65345
" />
<path d="M127959 65177
L128241 65177
" />
<path d="M127903 65345
L128100 64755
L128297 65345
" />
<path d="M128494 65289
L128522 65317
L128494 65345
L128465 65317
L128494 65289
L128494 65345
" />
<path d="M129675 65345
L129675 64755
" />
<path d="M129731 65121
L129900 65345
" />
<path d="M129900 64952
L129675 65177
" />
<path d="M130153 65345
L130153 64952
" />
<path d="M130153 64755
L130125 64783
L130153 64811
L130181 64783
L130153 64755
L130153 64811
" />
<path d="M130687 65317
L130631 65345
L130518 65345
L130462 65317
L130434 65289
L130406 65233
L130406 65064
L130434 65008
L130462 64980
L130518 64952
L130631 64952
L130687 64980
" />
<path d="M131193 65345
L131193 65036
L131165 64980
L131109 64952
L130996 64952
L130940 64980
" />
<path d="M131193 65317
L131137 65345
L130996 65345
L130940 65317
L130912 65261
L130912 65205
L130940 65149
L130996 65121
L131137 65121
L131193 65092
" />
<path d="M131728 65345
L131728 64755
" />
<path d="M131728 65317
L131671 65345
L131559 65345
L131503 65317
L131474 65289
L131446 65233
L131446 65064
L131474 65008
L131503 64980
L131559 64952
L131671 64952
L131728 64980
" />
<path d="M132627 65570
L132599 65542
L132543 65458
L132515 65402
L132487 65317
L132459 65177
L132459 65064
L132487 64924
L132515 64839
L132543 64783
L132599 64699
L132627 64671
" />
<path d="M133134 64755
L132852 64755
L132824 65036
L132852 65008
L132909 64980
L133049 64980
L133106 65008
L133134 65036
L133162 65092
L133162 65233
L133134 65289
L133106 65317
L133049 65345
L132909 65345
L132852 65317
L132824 65289
" />
<path d="M133415 65289
L133443 65317
L133415 65345
L133387 65317
L133415 65289
L133415 65345
" />
<path d="M134005 65345
L133668 65345
" />
<path d="M133837 65345
L133837 64755
L133780 64839
L133724 64896
L133668 64924
" />
<path d="M134258 65289
L134287 65317
L134258 65345
L134230 65317
L134258 65289
L134258 65345
" />
<path d="M134849 65345
L134512 65345
" />
<path d="M134680 65345
L134680 64755
L134624 64839
L134568 64896
L134512 64924
" />
<path d="M135215 64755
L135271 64755
L135327 64783
L135355 64811
L135383 64867
L135411 64980
L135411 65121
L135383 65233
L135355 65289
L135327 65317
L135271 65345
L135215 65345
L135158 65317
L135130 65289
L135102 65233
L135074 65121
L135074 64980
L135102 64867
L135130 64811
L135158 64783
L135215 64755
" />
<path d="M135608 65570
L135636 65542
L135693 65458
L135721 65402
L135749 65317
L135777 65177
L135777 65064
L135749 64924
L135721 64839
L135693 64783
L135636 64699
L135608 64671
" />
<path d="M136058 65121
L136508 65121
" />
<path d="M137099 65345
L136761 65345
" />
<path d="M136930 65345
L136930 64755
L136874 64839
L136818 64896
L136761 64924
" />
</g>
<g style="fill:#000000; fill-opacity:0.0; 
stroke:#000000; stroke-width:39.3701; stroke-opacity:1; 
stroke-linecap:round; stroke-linejoin:round;">
</g>
<g style="fill:#000000; fill-opacity:0.0; 
stroke:#000000; stroke-width:59.0551; stroke-opacity:1; 
stroke-linecap:round; stroke-linejoin:round;">
<path d="M122755 63346
L165275 63346
" />
</g>
<g style="fill:#000000; fill-opacity:0.0; 
stroke:#000000; stroke-width:39.3701; stroke-opacity:1; 
stroke-linecap:round; stroke-linejoin:round;">
</g>
<g style="fill:#000000; fill-opacity:0.0; 
stroke:#000000; stroke-width:118.11; stroke-opacity:1; 
stroke-linecap:round; stroke-linejoin:round;">
<text x="156614" y="64271.7"
textLength="4755.34" font-size="787.402" lengthAdjust="spacingAndGlyphs"
text-anchor="start" opacity="0">Rev: Yeet2</text>
<path d="M157169 64243
L156972 63962
" />
<path d="M156831 64243
L156831 63653
L157056 63653
L157112 63681
L157140 63709
L157169 63765
L157169 63849
L157140 63906
L157112 63934
L157056 63962
L156831 63962
" />
<path d="M157647 64215
L157590 64243
L157478 64243
L157422 64215
L157393 64159
L157393 63934
L157422 63878
L157478 63849
L157590 63849
L157647 63878
L157675 63934
L157675 63990
L157393 64046
" />
<path d="M157872 63849
L158012 64243
L158153 63849
" />
<path d="M158378 64187
L158406 64215
L158378 64243
L158350 64215
L158378 64187
L158378 64243
" />
<path d="M158378 63878
L158406 63906
L158378 63934
L158350 63906
L158378 63878
L158378 63934
" />
<path d="M159221 63962
L159221 64243
" />
<path d="M159025 63653
L159221 63962
L159418 63653
" />
<path d="M159840 64215
L159784 64243
L159671 64243
L159615 64215
L159587 64159
L159587 63934
L159615 63878
L159671 63849
L159784 63849
L159840 63878
L159868 63934
L159868 63990
L159587 64046
" />
<path d="M160346 64215
L160290 64243
L160178 64243
L160121 64215
L160093 64159
L160093 63934
L160121 63878
L160178 63849
L160290 63849
L160346 63878
L160374 63934
L160374 63990
L160093 64046
" />
<path d="M160543 63849
L160768 63849
" />
<path d="M160627 63653
L160627 64159
L160656 64215
L160712 64243
L160768 64243
" />
<path d="M160937 63709
L160965 63681
L161021 63653
L161162 63653
L161218 63681
L161246 63709
L161274 63765
L161274 63821
L161246 63906
L160909 64243
L161274 64243
" />
</g>
<g style="fill:#000000; fill-opacity:0.0; 
stroke:#000000; stroke-width:39.3701; stroke-opacity:1; 
stroke-linecap:round; stroke-linejoin:round;">
</g>
<g style="fill:#000000; fill-opacity:0.0; 
stroke:#000000; stroke-width:59.0551; stroke-opacity:1; 
stroke-linecap:round; stroke-linejoin:round;">
<text x="123150" y="64271.7"
textLength="4681.1" font-size="787.402" lengthAdjust="spacingAndGlyphs"
text-anchor="start" opacity="0">Size: User</text>
<path d="M123291 64215
L123375 64243
L123516 64243
L123572 64215
L123600 64187
L123629 64131
L123629 64074
L123600 64018
L123572 63990
L123516 63962
L123404 63934
L123347 63906
L123319 63878
L123291 63821
L123291 63765
L123319 63709
L123347 63681
L123404 63653
L123544 63653
L123629 63681
" />
<path d="M123882 64243
L123882 63849
" />
<path d="M123882 63653
L123854 63681
L123882 63709
L123910 63681
L123882 63653
L123882 63709
" />
<path d="M124107 63849
L124416 63849
L124107 64243
L124416 64243
" />
<path d="M124866 64215
L124810 64243
L124697 64243
L124641 64215
L124613 64159
L124613 63934
L124641 63878
L124697 63849
L124810 63849
L124866 63878
L124894 63934
L124894 63990
L124613 64046
" />
<path d="M125147 64187
L125175 64215
L125147 64243
L125119 64215
L125147 64187
L125147 64243
" />
<path d="M125147 63878
L125175 63906
L125147 63934
L125119 63906
L125147 63878
L125147 63934
" />
<path d="M125878 63653
L125878 64131
L125906 64187
L125935 64215
L125991 64243
L126103 64243
L126160 64215
L126188 64187
L126216 64131
L126216 63653
" />
<path d="M126469 64215
L126525 64243
L126638 64243
L126694 64215
L126722 64159
L126722 64131
L126694 64074
L126638 64046
L126553 64046
L126497 64018
L126469 63962
L126469 63934
L126497 63878
L126553 63849
L126638 63849
L126694 63878
" />
<path d="M127200 64215
L127144 64243
L127031 64243
L126975 64215
L126947 64159
L126947 63934
L126975 63878
L127031 63849
L127144 63849
L127200 63878
L127228 63934
L127228 63990
L126947 64046
" />
<path d="M127481 64243
L127481 63849
" />
<path d="M127481 63962
L127509 63906
L127537 63878
L127594 63849
L127650 63849
" />
</g>
<g style="fill:#000000; fill-opacity:0.0; 
stroke:#000000; stroke-width:39.3701; stroke-opacity:1; 
stroke-linecap:round; stroke-linejoin:round;">
</g>
<g style="fill:#000000; fill-opacity:0.0; 
stroke:#000000; stroke-width:59.0551; stroke-opacity:1; 
stroke-linecap:round; stroke-linejoin:round;">
<text x="156614" y="65374.1"
textLength="3349.27" font-size="787.402" lengthAdjust="spacingAndGlyphs"
text-anchor="start" opacity="0">Id: 1/1</text>
<path d="M156784 65345
L156784 64755
" />
<path d="M157318 65345
L157318 64755
" />
<path d="M157318 65317
L157262 65345
L157149 65345
L157093 65317
L157065 65289
L157037 65233
L157037 65064
L157065 65008
L157093 64980
L157149 64952
L157262 64952
L157318 64980
" />
<path d="M157599 65289
L157627 65317
L157599 65345
L157571 65317
L157599 65289
L157599 65345
" />
<path d="M157599 64980
L157627 65008
L157599 65036
L157571 65008
L157599 64980
L157599 65036
" />
<path d="M158640 65345
L158302 65345
" />
<path d="M158471 65345
L158471 64755
L158415 64839
L158359 64896
L158302 64924
" />
<path d="M159315 64727
L158809 65486
" />
<path d="M159821 65345
L159483 65345
" />
<path d="M159652 65345
L159652 64755
L159596 64839
L159540 64896
L159483 64924
" />
</g>
<g style="fill:#000000; fill-opacity:0.0; 
stroke:#000000; stroke-width:39.3701; stroke-opacity:1; 
stroke-linecap:round; stroke-linejoin:round;">
</g>
<g style="fill:#000000; fill-opacity:0.0; 
stroke:#000000; stroke-width:59.0551; stroke-opacity:1; 
stroke-linecap:round; stroke-linejoin:round;">
<path d="M122755 61771
L165275 61771
" />
</g>
<g style="fill:#000000; fill-opacity:0.0; 
stroke:#000000; stroke-width:39.3701; stroke-opacity:1; 
stroke-linecap:round; stroke-linejoin:round;">
</g>
<g style="fill:#000000; fill-opacity:0.0; 
stroke:#000000; stroke-width:157.48; stroke-opacity:1; 
stroke-linecap:round; stroke-linejoin:round;">
<text x="123150" y="62874.1"
textLength="8088.09" font-size="1049.87" lengthAdjust="spacingAndGlyphs"
text-anchor="start" opacity="0">Title: Lo-Key</text>
<path d="M123430 62049
L123880 62049
" />
<path d="M123556 62836
L123655 62049
" />
<path d="M124044 62836
L124109 62311
" />
<path d="M124142 62049
L124100 62086
L124133 62124
L124175 62086
L124142 62049
L124133 62124
" />
<path d="M124372 62311
L124672 62311
" />
<path d="M124517 62049
L124433 62724
L124461 62799
L124531 62836
L124606 62836
" />
<path d="M124981 62836
L124911 62799
L124883 62724
L124967 62049
" />
<path d="M125586 62799
L125506 62836
L125356 62836
L125286 62799
L125257 62724
L125295 62424
L125342 62349
L125422 62311
L125571 62311
L125642 62349
L125670 62424
L125661 62499
L125276 62574
" />
<path d="M125965 62761
L125998 62799
L125956 62836
L125923 62799
L125965 62761
L125956 62836
" />
<path d="M126017 62349
L126050 62386
L126007 62424
L125975 62386
L126017 62349
L126007 62424
" />
<path d="M127306 62836
L126931 62836
L127029 62049
" />
<path d="M127681 62836
L127610 62799
L127577 62761
L127549 62686
L127577 62461
L127624 62386
L127667 62349
L127746 62311
L127859 62311
L127929 62349
L127962 62386
L127990 62461
L127962 62686
L127915 62761
L127873 62799
L127793 62836
L127681 62836
" />
<path d="M128318 62536
L128918 62536
" />
<path d="M129255 62836
L129354 62049
" />
<path d="M129705 62836
L129424 62386
" />
<path d="M129804 62049
L129298 62499
" />
<path d="M130347 62799
L130268 62836
L130118 62836
L130047 62799
L130019 62724
L130057 62424
L130104 62349
L130183 62311
L130333 62311
L130404 62349
L130432 62424
L130422 62499
L130038 62574
" />
<path d="M130708 62311
L130830 62836
" />
<path d="M131083 62311
L130830 62836
L130732 63024
L130690 63061
L130610 63099
" />
</g>
<g style="fill:#000000; fill-opacity:0.0; 
stroke:#000000; stroke-width:39.3701; stroke-opacity:1; 
stroke-linecap:round; stroke-linejoin:round;">
</g>
<g style="fill:#000000; fill-opacity:0.0; 
stroke:#000000; stroke-width:59.0551; stroke-opacity:1; 
stroke-linecap:round; stroke-linejoin:round;">
<text x="123150" y="61358.3"
textLength="14771.7" font-size="787.402" lengthAdjust="spacingAndGlyphs"
text-anchor="start" opacity="0">File: chgray-keyboard.kicad_pcb</text>
<path d="M123516 61020
L123319 61020
" />
<path d="M123319 61330
L123319 60739
L123600 60739
" />
<path d="M123825 61330
L123825 60936
" />
<path d="M123825 60739
L123797 60767
L123825 60795
L123854 60767
L123825 60739
L123825 60795
" />
<path d="M124191 61330
L124135 61302
L124107 61245
L124107 60739
" />
<path d="M124641 61302
L124585 61330
L124472 61330
L124416 61302
L124388 61245
L124388 61020
L124416 60964
L124472 60936
L124585 60936
L124641 60964
L124669 61020
L124669 61077
L124388 61133
" />
<path d="M124922 61273
L124950 61302
L124922 61330
L124894 61302
L124922 61273
L124922 61330
" />
<path d="M124922 60964
L124950 60992
L124922 61020
L124894 60992
L124922 60964
L124922 61020
" />
<path d="M125906 61302
L125850 61330
L125738 61330
L125681 61302
L125653 61273
L125625 61217
L125625 61049
L125653 60992
L125681 60964
L125738 60936
L125850 60936
L125906 60964
" />
<path d="M126160 61330
L126160 60739
" />
<path d="M126413 61330
L126413 61020
L126384 60964
L126328 60936
L126244 60936
L126188 60964
L126160 60992
" />
<path d="M126947 60936
L126947 61414
L126919 61470
L126891 61498
L126834 61527
L126750 61527
L126694 61498
" />
<path d="M126947 61302
L126891 61330
L126778 61330
L126722 61302
L126694 61273
L126666 61217
L126666 61049
L126694 60992
L126722 60964
L126778 60936
L126891 60936
L126947 60964
" />
<path d="M127228 61330
L127228 60936
" />
<path d="M127228 61049
L127256 60992
L127284 60964
L127341 60936
L127397 60936
" />
<path d="M127847 61330
L127847 61020
L127819 60964
L127762 60936
L127650 60936
L127594 60964
" />
<path d="M127847 61302
L127791 61330
L127650 61330
L127594 61302
L127566 61245
L127566 61189
L127594 61133
L127650 61105
L127791 61105
L127847 61077
" />
<path d="M128072 60936
L128212 61330
" />
<path d="M128353 60936
L128212 61330
L128156 61470
L128128 61498
L128072 61527
" />
<path d="M128578 61105
L129028 61105
" />
<path d="M129309 61330
L129309 60739
" />
<path d="M129365 61105
L129534 61330
" />
<path d="M129534 60936
L129309 61161
" />
<path d="M130012 61302
L129956 61330
L129843 61330
L129787 61302
L129759 61245
L129759 61020
L129787 60964
L129843 60936
L129956 60936
L130012 60964
L130040 61020
L130040 61077
L129759 61133
" />
<path d="M130237 60936
L130378 61330
" />
<path d="M130518 60936
L130378 61330
L130321 61470
L130293 61498
L130237 61527
" />
<path d="M130743 61330
L130743 60739
" />
<path d="M130743 60964
L130800 60936
L130912 60936
L130968 60964
L130996 60992
L131025 61049
L131025 61217
L130996 61273
L130968 61302
L130912 61330
L130800 61330
L130743 61302
" />
<path d="M131362 61330
L131306 61302
L131278 61273
L131250 61217
L131250 61049
L131278 60992
L131306 60964
L131362 60936
L131446 60936
L131503 60964
L131531 60992
L131559 61049
L131559 61217
L131531 61273
L131503 61302
L131446 61330
L131362 61330
" />
<path d="M132065 61330
L132065 61020
L132037 60964
L131981 60936
L131868 60936
L131812 60964
" />
<path d="M132065 61302
L132009 61330
L131868 61330
L131812 61302
L131784 61245
L131784 61189
L131812 61133
L131868 61105
L132009 61105
L132065 61077
" />
<path d="M132346 61330
L132346 60936
" />
<path d="M132346 61049
L132374 60992
L132402 60964
L132459 60936
L132515 60936
" />
<path d="M132965 61330
L132965 60739
" />
<path d="M132965 61302
L132909 61330
L132796 61330
L132740 61302
L132712 61273
L132684 61217
L132684 61049
L132712 60992
L132740 60964
L132796 60936
L132909 60936
L132965 60964
" />
<path d="M133246 61273
L133274 61302
L133246 61330
L133218 61302
L133246 61273
L133246 61330
" />
<path d="M133527 61330
L133527 60739
" />
<path d="M133584 61105
L133752 61330
" />
<path d="M133752 60936
L133527 61161
" />
<path d="M134005 61330
L134005 60936
" />
<path d="M134005 60739
L133977 60767
L134005 60795
L134034 60767
L134005 60739
L134005 60795
" />
<path d="M134540 61302
L134483 61330
L134371 61330
L134315 61302
L134287 61273
L134258 61217
L134258 61049
L134287 60992
L134315 60964
L134371 60936
L134483 60936
L134540 60964
" />
<path d="M135046 61330
L135046 61020
L135018 60964
L134962 60936
L134849 60936
L134793 60964
" />
<path d="M135046 61302
L134990 61330
L134849 61330
L134793 61302
L134765 61245
L134765 61189
L134793 61133
L134849 61105
L134990 61105
L135046 61077
" />
<path d="M135580 61330
L135580 60739
" />
<path d="M135580 61302
L135524 61330
L135411 61330
L135355 61302
L135327 61273
L135299 61217
L135299 61049
L135327 60992
L135355 60964
L135411 60936
L135524 60936
L135580 60964
" />
<path d="M135721 61386
L136171 61386
" />
<path d="M136311 60936
L136311 61527
" />
<path d="M136311 60964
L136368 60936
L136480 60936
L136536 60964
L136564 60992
L136593 61049
L136593 61217
L136564 61273
L136536 61302
L136480 61330
L136368 61330
L136311 61302
" />
<path d="M137099 61302
L137043 61330
L136930 61330
L136874 61302
L136846 61273
L136818 61217
L136818 61049
L136846 60992
L136874 60964
L136930 60936
L137043 60936
L137099 60964
" />
<path d="M137352 61330
L137352 60739
" />
<path d="M137352 60964
L137408 60936
L137521 60936
L137577 60964
L137605 60992
L137633 61049
L137633 61217
L137605 61273
L137577 61302
L137521 61330
L137408 61330
L137352 61302
" />
</g>
<g style="fill:#000000; fill-opacity:0.0; 
stroke:#000000; stroke-width:39.3701; stroke-opacity:1; 
stroke-linecap:round; stroke-linejoin:round;">
</g>
<g style="fill:#000000; fill-opacity:0.0; 
stroke:#000000; stroke-width:59.0551; stroke-opacity:1; 
stroke-linecap:round; stroke-linejoin:round;">
<path d="M122755 59409
L165275 59409
" />
</g>
<g style="fill:#000000; fill-opacity:0.0; 
stroke:#000000; stroke-width:39.3701; stroke-opacity:1; 
stroke-linecap:round; stroke-linejoin:round;">
</g>
<g style="fill:#000000; fill-opacity:0.0; 
stroke:#000000; stroke-width:59.0551; stroke-opacity:1; 
stroke-linecap:round; stroke-linejoin:round;">
<text x="123150" y="60295.4"
textLength="3236.78" font-size="787.402" lengthAdjust="spacingAndGlyphs"
text-anchor="start" opacity="0">Sheet: </text>
<path d="M123291 60239
L123375 60267
L123516 60267
L123572 60239
L123600 60210
L123629 60154
L123629 60098
L123600 60042
L123572 60014
L123516 59986
L123404 59957
L123347 59929
L123319 59901
L123291 59845
L123291 59789
L123319 59732
L123347 59704
L123404 59676
L123544 59676
L123629 59704
" />
<path d="M123882 60267
L123882 59676
" />
<path d="M124135 60267
L124135 59957
L124107 59901
L124050 59873
L123966 59873
L123910 59901
L123882 59929
" />
<path d="M124641 60239
L124585 60267
L124472 60267
L124416 60239
L124388 60182
L124388 59957
L124416 59901
L124472 59873
L124585 59873
L124641 59901
L124669 59957
L124669 60014
L124388 60070
" />
<path d="M125147 60239
L125091 60267
L124978 60267
L124922 60239
L124894 60182
L124894 59957
L124922 59901
L124978 59873
L125091 59873
L125147 59901
L125175 59957
L125175 60014
L124894 60070
" />
<path d="M125344 59873
L125569 59873
" />
<path d="M125428 59676
L125428 60182
L125456 60239
L125513 60267
L125569 60267
" />
<path d="M125766 60210
L125794 60239
L125766 60267
L125738 60239
L125766 60210
L125766 60267
" />
<path d="M125766 59901
L125794 59929
L125766 59957
L125738 59929
L125766 59901
L125766 59957
" />
</g>
<g style="fill:#000000; fill-opacity:0.0; 
stroke:#000000; stroke-width:39.3701; stroke-opacity:1; 
stroke-linecap:round; stroke-linejoin:round;">
</g>
<g style="fill:#000000; fill-opacity:0.0; 
stroke:#000000; stroke-width:118.11; stroke-opacity:1; 
stroke-linecap:round; stroke-linejoin:round;">
<text x="123150" y="59114.3"
textLength="4558.49" font-size="787.402" lengthAdjust="spacingAndGlyphs"
text-anchor="start" opacity="0">L0gan Co.</text>
<path d="M123648 59086
L123366 59086
L123366 58495
" />
<path d="M123957 58495
L124013 58495
L124070 58523
L124098 58551
L124126 58608
L124154 58720
L124154 58861
L124126 58973
L124098 59029
L124070 59058
L124013 59086
L123957 59086
L123901 59058
L123873 59029
L123845 58973
L123816 58861
L123816 58720
L123845 58608
L123873 58551
L123901 58523
L123957 58495
" />
<path d="M124660 58692
L124660 59170
L124632 59226
L124604 59254
L124548 59282
L124463 59282
L124407 59254
" />
<path d="M124660 59058
L124604 59086
L124491 59086
L124435 59058
L124407 59029
L124379 58973
L124379 58804
L124407 58748
L124435 58720
L124491 58692
L124604 58692
L124660 58720
" />
<path d="M125194 59086
L125194 58776
L125166 58720
L125110 58692
L124998 58692
L124941 58720
" />
<path d="M125194 59058
L125138 59086
L124998 59086
L124941 59058
L124913 59001
L124913 58945
L124941 58889
L124998 58861
L125138 58861
L125194 58833
" />
<path d="M125476 58692
L125476 59086
" />
<path d="M125476 58748
L125504 58720
L125560 58692
L125644 58692
L125701 58720
L125729 58776
L125729 59086
" />
<path d="M126797 59029
L126769 59058
L126685 59086
L126629 59086
L126544 59058
L126488 59001
L126460 58945
L126432 58833
L126432 58748
L126460 58636
L126488 58579
L126544 58523
L126629 58495
L126685 58495
L126769 58523
L126797 58551
" />
<path d="M127135 59086
L127079 59058
L127050 59029
L127022 58973
L127022 58804
L127050 58748
L127079 58720
L127135 58692
L127219 58692
L127275 58720
L127303 58748
L127332 58804
L127332 58973
L127303 59029
L127275 59058
L127219 59086
L127135 59086
" />
<path d="M127585 59029
L127613 59058
L127585 59086
L127557 59058
L127585 59029
L127585 59086
" />
</g>
<g style="fill:#000000; fill-opacity:0.0; 
stroke:#000000; stroke-width:39.3701; stroke-opacity:1; 
stroke-linecap:round; stroke-linejoin:round;">
</g>
<g style="fill:#000000; fill-opacity:0.0; 
stroke:#000000; stroke-width:59.0551; stroke-opacity:1; 
stroke-linecap:round; stroke-linejoin:round;">
<path d="M130629 63346
L130629 64527
" />
</g>
<g style="fill:#000000; fill-opacity:0.0; 
stroke:#000000; stroke-width:39.3701; stroke-opacity:1; 
stroke-linecap:round; stroke-linejoin:round;">
</g>
<g style="fill:#000000; fill-opacity:0.0; 
stroke:#000000; stroke-width:59.0551; stroke-opacity:1; 
stroke-linecap:round; stroke-linejoin:round;">
<path d="M155826 63346
L155826 65905
" />
</g>
<g style="fill:#C2C200; fill-opacity:0.0; 
stroke:#C2C200; stroke-width:59.0551; stroke-opacity:1; 
stroke-linecap:round; stroke-linejoin:round;">
</g>
<g style="fill:#C2C200; fill-opacity:0.0; 
stroke:#C2C200; stroke-width:39.3701; stroke-opacity:1; 
stroke-linecap:round; stroke-linejoin:round;">
<circle cx="150000" cy="25900" r="610.236" /> 
</g>
<g style="fill:#C2C200; fill-opacity:0.0; 
stroke:#C2C200; stroke-width:59.0551; stroke-opacity:1; 
stroke-linecap:round; stroke-linejoin:round;">
<circle cx="125650" cy="45948.5" r="1073.55" /> 
</g>
<g style="fill:#C2C200; fill-opacity:0.0; 
stroke:#C2C200; stroke-width:39.3701; stroke-opacity:1; 
stroke-linecap:round; stroke-linejoin:round;">
<circle cx="103900" cy="41150" r="610.236" /> 
<circle cx="141600" cy="11250" r="610.236" /> 
<circle cx="34600" cy="11200" r="610.236" /> 
<circle cx="88800" cy="41050" r="610.236" /> 
<circle cx="36450" cy="41050" r="610.236" /> 
<circle cx="11000" cy="26000" r="610.236" /> 
<circle cx="97600" cy="1912.6" r="610.236" /> 
<circle cx="54050" cy="1912.6" r="610.236" /> 
<circle cx="141600" cy="33600" r="610.236" /> 
<circle cx="134150" cy="26100" r="610.236" /> 
<circle cx="123300" cy="26050" r="610.236" /> 
<circle cx="106610" cy="33650" r="610.236" /> 
<circle cx="94750" cy="11100" r="610.236" /> 
<circle cx="79600" cy="11050" r="610.236" /> 
<circle cx="49650" cy="11050" r="610.236" /> 
<circle cx="11000" cy="1912.6" r="610.236" /> 
<circle cx="11000" cy="48150" r="610.236" /> 
<circle cx="150000" cy="48150" r="610.236" /> 
<circle cx="150000" cy="1912.6" r="610.236" /> 
<path d="M9950 1100
L151000 1100
" />
<path d="M9950 49700
L9950 1100
" />
<path d="M9950 49700
L151000 49700
" />
<path d="M151000 1100
L151000 49700
" />
</g>
<g style="fill:#C2C200; fill-opacity:0.0; 
stroke:#C2C200; stroke-width:59.0551; stroke-opacity:1; 
stroke-linecap:round; stroke-linejoin:round;">
<path d="M84083 25016
L84083 19583
" />
<path d="M89516 25016
L84083 25016
" />
<path d="M89516 19583
L89516 25016
" />
<path d="M84083 19583
L89516 19583
" />
<path d="M69183 25016
L69183 19583
" />
<path d="M74616 25016
L69183 25016
" />
<path d="M74616 19583
L74616 25016
" />
<path d="M69183 19583
L74616 19583
" />
<path d="M33833 32566
L33833 27133
" />
<path d="M39266 32566
L33833 32566
" />
<path d="M39266 27133
L39266 32566
" />
<path d="M33833 27133
L39266 27133
" />
</g>
<g style="fill:#C2C200; fill-opacity:0.0; 
stroke:#C2C200; stroke-width:47.2441; stroke-opacity:1; 
stroke-linecap:round; stroke-linejoin:round;">
<path d="M45850 46700
L45850 48207
" />
<path d="M61123 42183
L61123 43300
" />
<path d="M82015 46293
L82019 48167
" />
<path d="M66570 42183
L66570 43494
" />
</g>
<g style="fill:#C2C200; fill-opacity:0.0; 
stroke:#C2C200; stroke-width:59.0551; stroke-opacity:1; 
stroke-linecap:round; stroke-linejoin:round;">
<path d="M66566 46297
L66566 47616
" />
</g>
<g style="fill:#C2C200; fill-opacity:0.0; 
stroke:#C2C200; stroke-width:47.2441; stroke-opacity:1; 
stroke-linecap:round; stroke-linejoin:round;">
<path d="M82015 46293
L66562 46293
" />
<path d="M66570 43494
L81999 43492
" />
<path d="M45850 43300
L61123 43300
" />
<path d="M45850 46700
L61133 46700
" />
<path d="M81999 41081
L85346 41081
" />
<path d="M42275 48207
L45850 48207
" />
<path d="M42275 40962
L42275 48207
" />
<path d="M45850 40962
L42275 40962
" />
<path d="M45850 43300
L45850 40962
" />
<path d="M81999 41081
L81999 43492
" />
<path d="M85346 48167
L85346 41081
" />
<path d="M82019 48167
L85346 48167
" />
<path d="M61133 47616
L61133 46701
" />
<path d="M66566 47616
L61133 47616
" />
<path d="M61123 42183
L66566 42183
" />
</g>
<g style="fill:#C2C200; fill-opacity:0.0; 
stroke:#C2C200; stroke-width:59.0551; stroke-opacity:1; 
stroke-linecap:round; stroke-linejoin:round;">
<path d="M118241 10066
L118241 4633
" />
<path d="M123674 10066
L118241 10066
" />
<path d="M123674 4633
L123674 10066
" />
<path d="M118241 4633
L123674 4633
" />
<path d="M116866 34658
L116866 40091
" />
<path d="M116866 40091
L111433 40091
" />
<path d="M111433 40091
L111433 34658
" />
<path d="M111433 34658
L116866 34658
" />
</g>
<g style="fill:#C2C200; fill-opacity:0.0; 
stroke:#C2C200; stroke-width:47.2441; stroke-opacity:1; 
stroke-linecap:round; stroke-linejoin:round;">
<path d="M107681 33985
L110933 33985
" />
<path d="M107681 41508
L110933 41508
" />
<path d="M107681 33985
L107681 41508
" />
<path d="M110933 33985
L110933 41508
" />
<path d="M117386 33985
L120638 33985
" />
<path d="M117386 41508
L120638 41508
" />
<path d="M117386 33985
L117386 41508
" />
<path d="M120638 33985
L120638 41508
" />
</g>
<g style="fill:#C2C200; fill-opacity:0.0; 
stroke:#C2C200; stroke-width:59.0551; stroke-opacity:1; 
stroke-linecap:round; stroke-linejoin:round;">
<path d="M115908 25091
L115908 19658
" />
<path d="M121341 25091
L115908 25091
" />
<path d="M115908 19658
L121341 19658
" />
<path d="M121341 19658
L121341 25091
" />
<path d="M76633 25016
L76633 19583
" />
<path d="M82066 25016
L76633 25016
" />
<path d="M82066 19583
L82066 25016
" />
<path d="M76633 19583
L82066 19583
" />
<path d="M73183 17548
L73183 12115
" />
<path d="M78616 17548
L73183 17548
" />
<path d="M78616 12115
L78616 17548
" />
<path d="M73183 12115
L78616 12115
" />
<path d="M89083 47616
L89083 42183
" />
<path d="M94516 47616
L89083 47616
" />
<path d="M89083 42183
L94516 42183
" />
<path d="M94516 42183
L94516 47616
" />
<path d="M98483 47616
L98483 42183
" />
<path d="M103916 47616
L98483 47616
" />
<path d="M98483 42183
L103916 42183
" />
<path d="M103916 42183
L103916 47616
" />
<path d="M50683 10066
L50683 4633
" />
<path d="M56116 10066
L50683 10066
" />
<path d="M56116 4633
L56116 10066
" />
<path d="M50683 4633
L56116 4633
" />
<path d="M80683 10066
L80683 4633
" />
<path d="M86116 10066
L80683 10066
" />
<path d="M86116 4633
L86116 10066
" />
<path d="M80683 4633
L86116 4633
" />
<path d="M58183 10066
L58183 4633
" />
<path d="M63616 10066
L58183 10066
" />
<path d="M63616 4633
L63616 10066
" />
<path d="M58183 4633
L63616 4633
" />
<path d="M127663 10066
L127663 4633
" />
<path d="M133096 10066
L127663 10066
" />
<path d="M133096 4633
L133096 10066
" />
<path d="M127663 4633
L133096 4633
" />
<path d="M103183 10066
L103183 4633
" />
<path d="M108616 10066
L103183 10066
" />
<path d="M108616 4633
L108616 10066
" />
<path d="M103183 4633
L108616 4633
" />
<path d="M142613 10066
L142613 4633
" />
<path d="M148046 10066
L142613 10066
" />
<path d="M148046 4633
L148046 10066
" />
<path d="M142613 4633
L148046 4633
" />
<path d="M110683 10066
L110683 4633
" />
<path d="M116116 10066
L110683 10066
" />
<path d="M116116 4633
L116116 10066
" />
<path d="M110683 4633
L116116 4633
" />
<path d="M95683 10066
L95683 4633
" />
<path d="M101116 10066
L95683 10066
" />
<path d="M101116 4633
L101116 10066
" />
<path d="M95683 4633
L101116 4633
" />
<path d="M135163 10066
L135163 4633
" />
<path d="M140596 10066
L135163 10066
" />
<path d="M140596 4633
L140596 10066
" />
<path d="M135163 4633
L140596 4633
" />
<path d="M88183 10066
L88183 4633
" />
<path d="M93616 10066
L88183 10066
" />
<path d="M93616 4633
L93616 10066
" />
<path d="M88183 4633
L93616 4633
" />
<path d="M117255 47616
L117255 42183
" />
<path d="M122688 47616
L117255 47616
" />
<path d="M117255 42183
L122688 42183
" />
<path d="M122688 42183
L122688 47616
" />
<path d="M113433 32541
L113433 27108
" />
<path d="M118866 27108
L118866 32541
" />
<path d="M113433 27108
L118866 27108
" />
<path d="M118866 32541
L113433 32541
" />
</g>
<g style="fill:#C2C200; fill-opacity:0.0; 
stroke:#C2C200; stroke-width:47.2441; stroke-opacity:1; 
stroke-linecap:round; stroke-linejoin:round;">
<path d="M109701 27167
L112953 27167
" />
<path d="M109701 33073
L112953 33073
" />
<path d="M109701 27167
L109701 33073
" />
<path d="M112953 27167
L112953 33073
" />
<path d="M119362 27167
L122614 27167
" />
<path d="M119362 33073
L122614 33073
" />
<path d="M119362 27167
L119362 33073
" />
<path d="M122614 27167
L122614 33073
" />
</g>
<g style="fill:#C2C200; fill-opacity:0.0; 
stroke:#C2C200; stroke-width:59.0551; stroke-opacity:1; 
stroke-linecap:round; stroke-linejoin:round;">
<path d="M13183 17548
L13183 12115
" />
<path d="M18616 17548
L13183 17548
" />
<path d="M18616 12115
L18616 17548
" />
<path d="M13183 12115
L18616 12115
" />
<path d="M32983 47616
L32983 42183
" />
<path d="M38416 47616
L32983 47616
" />
<path d="M32983 42183
L38416 42183
" />
<path d="M38416 42183
L38416 47616
" />
<path d="M23583 47616
L23583 42183
" />
<path d="M29016 47616
L23583 47616
" />
<path d="M23583 42183
L29016 42183
" />
<path d="M29016 42183
L29016 47616
" />
<path d="M14167 47616
L14167 42183
" />
<path d="M19600 47616
L14167 47616
" />
<path d="M14167 42183
L19600 42183
" />
<path d="M19600 42183
L19600 47616
" />
<path d="M17917 40066
L17917 34633
" />
<path d="M23350 34633
L23350 40066
" />
<path d="M17917 34633
L23350 34633
" />
<path d="M23350 40066
L17917 40066
" />
</g>
<g style="fill:#C2C200; fill-opacity:0.0; 
stroke:#C2C200; stroke-width:47.2441; stroke-opacity:1; 
stroke-linecap:round; stroke-linejoin:round;">
<path d="M14184 34692
L17436 34692
" />
<path d="M14184 40598
L17436 40598
" />
<path d="M14184 34692
L14184 40598
" />
<path d="M17436 34692
L17436 40598
" />
<path d="M23846 34692
L27098 34692
" />
<path d="M23846 40598
L27098 40598
" />
<path d="M23846 34692
L23846 40598
" />
<path d="M27098 34692
L27098 40598
" />
</g>
<g style="fill:#C2C200; fill-opacity:0.0; 
stroke:#C2C200; stroke-width:59.0551; stroke-opacity:1; 
stroke-linecap:round; stroke-linejoin:round;">
<path d="M114446 17616
L114446 12183
" />
<path d="M119879 17616
L114446 17616
" />
<path d="M114446 12183
L119879 12183
" />
<path d="M119879 12183
L119879 17616
" />
</g>
<g style="fill:#C2C200; fill-opacity:0.0; 
stroke:#C2C200; stroke-width:47.2441; stroke-opacity:1; 
stroke-linecap:round; stroke-linejoin:round;">
<path d="M123635 11277
L123635 18990
" />
<path d="M120383 11277
L120383 18990
" />
<path d="M120383 18990
L123635 18990
" />
<path d="M120383 11277
L123635 11277
" />
<path d="M110666 19002
L113918 19002
" />
<path d="M110666 11277
L110666 19002
" />
<path d="M110666 11277
L113918 11277
" />
<path d="M113918 11277
L113918 19002
" />
</g>
<g style="fill:#C2C200; fill-opacity:0.0; 
stroke:#C2C200; stroke-width:59.0551; stroke-opacity:1; 
stroke-linecap:round; stroke-linejoin:round;">
<path d="M15104 25072
L15104 19639
" />
<path d="M20537 25072
L15104 25072
" />
<path d="M15104 19639
L20537 19639
" />
<path d="M20537 19639
L20537 25072
" />
<path d="M16042 32566
L16042 27133
" />
<path d="M21475 32566
L16042 32566
" />
<path d="M16042 27133
L21475 27133
" />
<path d="M21475 27133
L21475 32566
" />
<path d="M93733 32566
L93733 27133
" />
<path d="M99166 32566
L93733 32566
" />
<path d="M99166 27133
L99166 32566
" />
<path d="M93733 27133
L99166 27133
" />
<path d="M43183 10066
L43183 4633
" />
<path d="M48616 10066
L43183 10066
" />
<path d="M48616 4633
L48616 10066
" />
<path d="M43183 4633
L48616 4633
" />
<path d="M89833 40066
L89833 34633
" />
<path d="M95266 40066
L89833 40066
" />
<path d="M95266 34633
L95266 40066
" />
<path d="M89833 34633
L95266 34633
" />
<path d="M20683 17548
L20683 12115
" />
<path d="M26116 17548
L20683 17548
" />
<path d="M26116 12115
L26116 17548
" />
<path d="M20683 12115
L26116 12115
" />
<path d="M24483 25016
L24483 19583
" />
<path d="M29916 25016
L24483 25016
" />
<path d="M29916 19583
L29916 25016
" />
<path d="M24483 19583
L29916 19583
" />
<path d="M26333 32566
L26333 27133
" />
<path d="M31766 32566
L26333 32566
" />
<path d="M31766 27133
L31766 32566
" />
<path d="M26333 27133
L31766 27133
" />
<path d="M127663 40066
L127663 34633
" />
<path d="M133096 40066
L127663 40066
" />
<path d="M133096 34633
L133096 40066
" />
<path d="M127663 34633
L133096 34633
" />
<path d="M30083 40066
L30083 34633
" />
<path d="M35516 40066
L30083 40066
" />
<path d="M35516 34633
L35516 40066
" />
<path d="M30083 34633
L35516 34633
" />
<path d="M35683 10066
L35683 4633
" />
<path d="M41116 10066
L35683 10066
" />
<path d="M41116 4633
L41116 10066
" />
<path d="M35683 4633
L41116 4633
" />
<path d="M28183 17548
L28183 12115
" />
<path d="M33616 17548
L28183 17548
" />
<path d="M33616 12115
L33616 17548
" />
<path d="M28183 12115
L33616 12115
" />
<path d="M31933 25016
L31933 19583
" />
<path d="M37366 25016
L31933 25016
" />
<path d="M37366 19583
L37366 25016
" />
<path d="M31933 19583
L37366 19583
" />
<path d="M35683 17548
L35683 12115
" />
<path d="M41116 17548
L35683 17548
" />
<path d="M41116 12115
L41116 17548
" />
<path d="M35683 12115
L41116 12115
" />
<path d="M39383 25016
L39383 19583
" />
<path d="M44816 25016
L39383 25016
" />
<path d="M44816 19583
L44816 25016
" />
<path d="M39383 19583
L44816 19583
" />
<path d="M41333 32566
L41333 27133
" />
<path d="M46766 32566
L41333 32566
" />
<path d="M46766 27133
L46766 32566
" />
<path d="M41333 27133
L46766 27133
" />
<path d="M37483 40066
L37483 34633
" />
<path d="M42916 40066
L37483 40066
" />
<path d="M42916 34633
L42916 40066
" />
<path d="M37483 34633
L42916 34633
" />
<path d="M91533 25016
L91533 19583
" />
<path d="M96966 25016
L91533 25016
" />
<path d="M96966 19583
L96966 25016
" />
<path d="M91533 19583
L96966 19583
" />
<path d="M48833 32566
L48833 27133
" />
<path d="M54266 32566
L48833 32566
" />
<path d="M54266 27133
L54266 32566
" />
<path d="M48833 27133
L54266 27133
" />
<path d="M44933 40066
L44933 34633
" />
<path d="M50366 40066
L44933 40066
" />
<path d="M50366 34633
L50366 40066
" />
<path d="M44933 34633
L50366 34633
" />
<path d="M99033 25016
L99033 19583
" />
<path d="M104466 25016
L99033 25016
" />
<path d="M104466 19583
L104466 25016
" />
<path d="M99033 19583
L104466 19583
" />
<path d="M43183 17548
L43183 12115
" />
<path d="M48616 17548
L43183 17548
" />
<path d="M48616 12115
L48616 17548
" />
<path d="M43183 12115
L48616 12115
" />
<path d="M46833 25016
L46833 19583
" />
<path d="M52266 25016
L46833 25016
" />
<path d="M52266 19583
L52266 25016
" />
<path d="M46833 19583
L52266 19583
" />
<path d="M50683 17548
L50683 12115
" />
<path d="M56116 17548
L50683 17548
" />
<path d="M56116 12115
L56116 17548
" />
<path d="M50683 12115
L56116 12115
" />
<path d="M54283 25016
L54283 19583
" />
<path d="M59716 25016
L54283 25016
" />
<path d="M59716 19583
L59716 25016
" />
<path d="M54283 19583
L59716 19583
" />
<path d="M56233 32566
L56233 27133
" />
<path d="M61666 32566
L56233 32566
" />
<path d="M61666 27133
L61666 32566
" />
<path d="M56233 27133
L61666 27133
" />
<path d="M52383 40066
L52383 34633
" />
<path d="M57816 40066
L52383 40066
" />
<path d="M57816 34633
L57816 40066
" />
<path d="M52383 34633
L57816 34633
" />
<path d="M65683 10066
L65683 4633
" />
<path d="M71116 10066
L65683 10066
" />
<path d="M71116 4633
L71116 10066
" />
<path d="M65683 4633
L71116 4633
" />
<path d="M63733 32566
L63733 27133
" />
<path d="M69166 32566
L63733 32566
" />
<path d="M69166 27133
L69166 32566
" />
<path d="M63733 27133
L69166 27133
" />
<path d="M59833 40066
L59833 34633
" />
<path d="M65266 40066
L59833 40066
" />
<path d="M65266 34633
L65266 40066
" />
<path d="M59833 34633
L65266 34633
" />
<path d="M73183 10066
L73183 4633
" />
<path d="M78616 10066
L73183 10066
" />
<path d="M78616 4633
L78616 10066
" />
<path d="M73183 4633
L78616 4633
" />
<path d="M97283 40066
L97283 34633
" />
<path d="M102716 40066
L97283 40066
" />
<path d="M102716 34633
L102716 40066
" />
<path d="M97283 34633
L102716 34633
" />
<path d="M58183 17548
L58183 12115
" />
<path d="M63616 17548
L58183 17548
" />
<path d="M63616 12115
L63616 17548
" />
<path d="M58183 12115
L63616 12115
" />
<path d="M61733 25016
L61733 19583
" />
<path d="M67166 25016
L61733 25016
" />
<path d="M67166 19583
L67166 25016
" />
<path d="M61733 19583
L67166 19583
" />
<path d="M65683 17548
L65683 12115
" />
<path d="M71116 17548
L65683 17548
" />
<path d="M71116 12115
L71116 17548
" />
<path d="M65683 12115
L71116 12115
" />
<path d="M71233 32566
L71233 27133
" />
<path d="M76666 32566
L71233 32566
" />
<path d="M76666 27133
L76666 32566
" />
<path d="M71233 27133
L76666 27133
" />
<path d="M67283 40066
L67283 34633
" />
<path d="M72716 40066
L67283 40066
" />
<path d="M72716 34633
L72716 40066
" />
<path d="M67283 34633
L72716 34633
" />
<path d="M95683 17548
L95683 12115
" />
<path d="M101116 17548
L95683 17548
" />
<path d="M101116 12115
L101116 17548
" />
<path d="M95683 12115
L101116 12115
" />
<path d="M78733 32566
L78733 27133
" />
<path d="M84166 32566
L78733 32566
" />
<path d="M84166 27133
L84166 32566
" />
<path d="M78733 27133
L84166 27133
" />
<path d="M74783 40066
L74783 34633
" />
<path d="M80216 40066
L74783 40066
" />
<path d="M80216 34633
L80216 40066
" />
<path d="M74783 34633
L80216 34633
" />
<path d="M103183 17548
L103183 12115
" />
<path d="M108616 17548
L103183 17548
" />
<path d="M108616 12115
L108616 17548
" />
<path d="M103183 12115
L108616 12115
" />
<path d="M80683 17548
L80683 12115
" />
<path d="M86116 17548
L80683 17548
" />
<path d="M86116 12115
L86116 17548
" />
<path d="M80683 12115
L86116 12115
" />
<path d="M86233 32566
L86233 27133
" />
<path d="M91666 32566
L86233 32566
" />
<path d="M91666 27133
L91666 32566
" />
<path d="M86233 27133
L91666 27133
" />
<path d="M82333 40066
L82333 34633
" />
<path d="M87766 40066
L82333 40066
" />
<path d="M87766 34633
L87766 40066
" />
<path d="M82333 34633
L87766 34633
" />
<path d="M88183 17548
L88183 12115
" />
<path d="M93616 17548
L88183 17548
" />
<path d="M93616 12115
L93616 17548
" />
<path d="M88183 12115
L93616 12115
" />
<path d="M135163 32566
L135163 27133
" />
<path d="M140596 32566
L135163 32566
" />
<path d="M140596 27133
L140596 32566
" />
<path d="M135163 27133
L140596 27133
" />
<path d="M106583 25016
L106583 19583
" />
<path d="M112016 25016
L106583 25016
" />
<path d="M112016 19583
L112016 25016
" />
<path d="M106583 19583
L112016 19583
" />
<path d="M142613 32566
L142613 27133
" />
<path d="M148046 32566
L142613 32566
" />
<path d="M148046 27133
L148046 32566
" />
<path d="M142613 27133
L148046 27133
" />
<path d="M101233 32566
L101233 27133
" />
<path d="M106666 32566
L101233 32566
" />
<path d="M106666 27133
L106666 32566
" />
<path d="M101233 27133
L106666 27133
" />
<path d="M135163 25066
L135163 19633
" />
<path d="M140596 25066
L135163 25066
" />
<path d="M140596 19633
L140596 25066
" />
<path d="M135163 19633
L140596 19633
" />
<path d="M127663 25066
L127663 19633
" />
<path d="M133096 25066
L127663 25066
" />
<path d="M133096 19633
L133096 25066
" />
<path d="M127663 19633
L133096 19633
" />
<path d="M127663 32566
L127663 27133
" />
<path d="M133096 32566
L127663 32566
" />
<path d="M133096 27133
L133096 32566
" />
<path d="M127663 27133
L133096 27133
" />
<path d="M135163 40066
L135163 34633
" />
<path d="M140596 40066
L135163 40066
" />
<path d="M140596 34633
L140596 40066
" />
<path d="M135163 34633
L140596 34633
" />
<path d="M127663 17616
L127663 12183
" />
<path d="M133096 17616
L127663 17616
" />
<path d="M133096 12183
L133096 17616
" />
<path d="M127663 12183
L133096 12183
" />
<path d="M20683 10066
L20683 4633
" />
<path d="M26116 10066
L20683 10066
" />
<path d="M26116 4633
L26116 10066
" />
<path d="M20683 4633
L26116 4633
" />
<path d="M142613 25066
L142613 19633
" />
<path d="M148046 25066
L142613 25066
" />
<path d="M148046 19633
L148046 25066
" />
<path d="M142613 19633
L148046 19633
" />
<path d="M142613 40066
L142613 34633
" />
<path d="M148046 40066
L142613 40066
" />
<path d="M148046 34633
L148046 40066
" />
<path d="M142613 34633
L148046 34633
" />
<path d="M13183 10066
L13183 4633
" />
<path d="M18616 10066
L13183 10066
" />
<path d="M18616 4633
L18616 10066
" />
<path d="M13183 4633
L18616 4633
" />
<path d="M142613 17616
L142613 12183
" />
<path d="M148046 17616
L142613 17616
" />
<path d="M148046 12183
L148046 17616
" />
<path d="M142613 12183
L148046 12183
" />
<path d="M142613 47616
L142613 42183
" />
<path d="M148046 47616
L142613 47616
" />
<path d="M148046 42183
L148046 47616
" />
<path d="M142613 42183
L148046 42183
" />
<path d="M135163 47616
L135163 42183
" />
<path d="M140596 47616
L135163 47616
" />
<path d="M140596 42183
L140596 47616
" />
<path d="M135163 42183
L140596 42183
" />
<path d="M127663 47616
L127663 42183
" />
<path d="M133096 47616
L127663 47616
" />
<path d="M133096 42183
L133096 47616
" />
<path d="M127663 42183
L133096 42183
" />
<path d="M28183 10066
L28183 4633
" />
<path d="M33616 10066
L28183 10066
" />
<path d="M33616 4633
L33616 10066
" />
<path d="M28183 4633
L33616 4633
" />
<path d="M135163 17616
L135163 12183
" />
<path d="M140596 17616
L135163 17616
" />
<path d="M140596 12183
L140596 17616
" />
<path d="M135163 12183
L140596 12183
" />
<path d="M107883 47616
L107883 42183
" />
<path d="M113316 47616
L107883 47616
" />
<path d="M107883 42183
L113316 42183
" />
<path d="M113316 42183
L113316 47616
" />
<g >
</g>
<g >
</g>
<g >
</g>
<g >
</g>
<g >
</g>
<g >
</g>
<g >
</g>
<g >
</g>
<g >
</g>
<g >
</g>
<g >
</g>
<g >
</g>
<g >
</g>
<g >
</g>
<g >
</g>
<g >
</g>
<g >
</g>
<g >
</g>
<g >
</g>
<g >
</g>
<g >
</g>
<g >
</g>
<g >
</g>
<g >
</g>
<g >
</g>
<g >
</g>
<g >
</g>
<g >
</g>
<g >
</g>
<g >
</g>
<g >
</g>
<g >
</g>
<g >
</g>
<g >
</g>
<g >
</g>
<g >
</g>
<g >
</g>
<g >
</g>
<g >
</g>
<g >
</g>
<g >
</g>
<g >
</g>
<g >
</g>
<g >
</g>
<g >
</g>
<g >
</g>
<g >
</g>
<g >
</g>
<g >
</g>
<g >
</g>
<g >
</g>
<g >
</g>
<g >
</g>
<g >
</g>
<g >
</g>
<g >
</g>
<g >
</g>
<g >
</g>
<g >
</g>
<g >
</g>
<g >
</g>
<g >
</g>
<g >
</g>
<g >
</g>
<g >
</g>
<g >
</g>
<g >
</g>
<g >
</g>
<g >
</g>
<g >
</g>
<g >
</g>
<g >
</g>
<g >
</g>
<g >
</g>
<g >
</g>
<g >
</g>
<g >
</g>
<g >
</g>
<g >
</g>
<g >
</g>
<g >
</g>
<g >
</g>
<g >
</g>
<g >
</g>
<g >
</g>
<g >
</g>
<g >
</g>
<g >
</g>
<g >
</g>
<g >
</g>
<g >
</g>
<g >
</g>
<g >
</g>
<g >
</g>
<g >
</g>
<g >
</g>
<g >
</g>
<g >
</g>
<g >
</g>
<g >
</g>
<g >
</g>
<g >
</g>
<g >
</g>
<g >
</g>
<g >
</g>
<g >
</g>
<g >
</g>
<g >
</g>
<g >
</g>
<g >
</g>
<g >
</g>
<g >
</g>
<g >
</g>
<g >
</g>
<g >
</g>
<g >
</g>
<g >
</g>
<g >
</g>
<g >
</g>
<g >
</g>
<g >
</g>
<g >
</g>
<g >
</g>
<g >
</g>
<g >
</g>
<g >
</g>
<g >
</g>
<g >
</g>
<g >
</g>
<g >
</g>
<g >
</g>
<g >
</g>
<g >
</g>
<g >
</g>
<g >
</g>
<g >
</g>
<g >
</g>
<g >
</g>
<g >
</g>
<g >
</g>
<g >
</g>
<g >
</g>
<g >
</g>
<g >
</g>
<g >
</g>
<g >
</g>
<g >
</g>
<g >
</g>
<g >
</g>
<g >
</g>
<g >
</g>
<g >
</g>
<g >
</g>
<g >
</g>
<g >
</g>
<g >
</g>
<g >
</g>
<g >
</g>
<g >
</g>
<g >
</g>
<g >
</g>
<g >
</g>
<g >
</g>
<g >
</g>
<g >
</g>
<g >
</g>
<g >
</g>
<g >
</g>
<g >
</g>
<g >
</g>
<g >
</g>
<g >
</g>
<g >
</g>
<g >
</g>
<g >
</g>
<g >
</g>
<g >
</g>
<g >
</g>
<g >
</g>
<g >
</g>
<g >
</g>
<g >
</g>
<g >
</g>
<g >
</g>
<g >
</g>
<g >
</g>
<g >
</g>
<g >
</g>
<g >
</g>
<g >
</g>
<g >
</g>
<g >
</g>
<g >
</g>
<g >
</g>
<g >
</g>
<g >
</g>
<g >
</g>
<g >
</g>
<g >
</g>
<g >
</g>
<g >
</g>
<g >
</g>
<g >
</g>
<g >
</g>
<g >
</g>
<g >
</g>
<g >
</g>
<g >
</g>
<g >
</g>
<g >
</g>
<g >
</g>
<g >
</g>
<g >
</g>
<g >
</g>
<g >
</g>
<g >
</g>
<g >
</g>
<g >
</g>
<g >
</g>
<g >
</g>
<g >
</g>
<g >
</g>
<g >
</g>
<g >
</g>
<g >
</g>
<g >
</g>
<g >
</g>
<g >
</g>
<g >
</g>
<g >
</g>
<g >
</g>
<g >
</g>
<g >
</g>
<g >
</g>
<g >
</g>
<g >
</g>
<g >
</g>
<g >
</g>
<g >
</g>
<g >
</g>
<g >
</g>
<g >
</g>
<g >
</g>
<g >
</g>
<g >
</g>
<g >
</g>
<g >
</g>
<g >
</g>
<g >
</g>
<g >
</g>
<g >
</g>
<g >
</g>
<g >
</g>
<g >
</g>
<g >
</g>
<g >
</g>
<g >
</g>
<g >
</g>
<g >
</g>
<g >
</g>
<g >
</g>
<g >
</g>
<g >
</g>
<g >
</g>
<g >
</g>
<g >
</g>
<g >
</g>
<g >
</g>
<g >
</g>
<g >
</g>
<g >
</g>
<g >
</g>
<g >
</g>
<g >
</g>
<g >
</g>
<g >
</g>
<g >
</g>
<g >
</g>
<g >
</g>
<g >
</g>
<g >
</g>
<g >
</g>
<g >
</g>
<g >
</g>
<g >
</g>
<g >
</g>
<g >
</g>
<g >
</g>
<g >
</g>
<g >
</g>
<g >
</g>
<g >
</g>
<g >
</g>
<g >
</g>
<g >
</g>
<g >
</g>
<g >
</g>
<g >
</g>
<g >
</g>
<g >
</g>
<g >
</g>
<g >
</g>
<g >
</g>
<g >
</g>
<g >
</g>
<g >
</g>
<g >
</g>
<g >
</g>
<g >
</g>
<g >
</g>
<g >
</g>
<g >
</g>
<g >
</g>
<g >
</g>
<g >
</g>
<g >
</g>
<g >
</g>
<g >
</g>
<g >
</g>
<g >
</g>
<g >
</g>
<g >
</g>
<g >
</g>
<g >
</g>
<g >
</g>
<g >
</g>
<g >
</g>
<g >
</g>
<g >
</g>
<g >
</g>
<g >
</g>
<g >
</g>
<g >
</g>
<g >
</g>
<g >
</g>
<g >
</g>
<g >
</g>
<g >
</g>
<g >
</g>
<g >
</g>
<g >
</g>
<g >
</g>
<g >
</g>
<g >
</g>
<g >
</g>
<g >
</g>
<g >
</g>
<g >
</g>
<g >
</g>
<g >
</g>
<g >
</g>
<g >
</g>
<g >
</g>
<g >
</g>
<g >
</g>
<g >
</g>
<g >
</g>
<g >
</g>
<g >
</g>
<g >
</g>
<g >
</g>
<g >
</g>
<g >
</g>
<g >
</g>
<g >
</g>
<g >
</g>
<g >
</g>
<g >
</g>
<g >
</g>
<g >
</g>
<g >
</g>
<g >
</g>
<g >
</g>
<g >
</g>
<g >
</g>
<g >
</g>
<g >
</g>
<g >
</g>
<g >
</g>
<g >
</g>
<g >
</g>
<g >
</g>
<g >
</g>
<g >
</g>
<g >
</g>
<g >
</g>
<g >
</g>
<g >
</g>
<g >
</g>
<g >
</g>
<g >
</g>
<g >
</g>
<g >
</g>
<g >
</g>
<g >
</g>
<g >
</g>
<g >
</g>
<g >
</g>
<g >
</g>
<g >
</g>
<g >
</g>
<g >
</g>
</g> 
</svg>
