%TF.GenerationSoftware,KiCad,Pcbnew,(5.1.10)-1*%
%TF.CreationDate,2021-11-11T14:39:24-08:00*%
%TF.ProjectId,chgray-keyboard,63686772-6179-42d6-9b65-79626f617264,Yeet2*%
%TF.SameCoordinates,Original*%
%TF.FileFunction,Other,Comment*%
%FSLAX46Y46*%
G04 Gerber Fmt 4.6, Leading zero omitted, Abs format (unit mm)*
G04 Created by KiCad (PCBNEW (5.1.10)-1) date 2021-11-11 14:39:24*
%MOMM*%
%LPD*%
G01*
G04 APERTURE LIST*
%ADD10C,0.152400*%
%ADD11C,0.150000*%
G04 APERTURE END LIST*
D10*
%TO.C,SW57*%
X215646000Y-124206000D02*
X215646000Y-106426000D01*
X108712000Y-124206000D02*
X215646000Y-124206000D01*
X108712000Y-106426000D02*
X108712000Y-124206000D01*
X115570000Y-106426000D02*
X108712000Y-106426000D01*
X115570000Y-121666000D02*
X115570000Y-106426000D01*
X208788000Y-121666000D02*
X115570000Y-121666000D01*
X208788000Y-106426000D02*
X208788000Y-121666000D01*
X215646000Y-106426000D02*
X208788000Y-106426000D01*
X155829000Y-120396000D02*
X155829000Y-107696000D01*
X168529000Y-120396000D02*
X155829000Y-120396000D01*
X168529000Y-107696000D02*
X168529000Y-120396000D01*
X155829000Y-107696000D02*
X168529000Y-107696000D01*
%TO.C,RIGHT-SHIFT1*%
X283972000Y-101346000D02*
X283972000Y-88646000D01*
X283972000Y-88646000D02*
X296672000Y-88646000D01*
X296672000Y-88646000D02*
X296672000Y-101346000D01*
X296672000Y-101346000D02*
X283972000Y-101346000D01*
X281813000Y-102616000D02*
X281813000Y-87376000D01*
X298831000Y-87376000D02*
X298831000Y-102616000D01*
X274955000Y-105156000D02*
X305689000Y-105156000D01*
X305689000Y-105156000D02*
X305689000Y-87376000D01*
X305689000Y-87376000D02*
X298831000Y-87376000D01*
X298831000Y-102616000D02*
X281813000Y-102616000D01*
X274955000Y-87376000D02*
X274955000Y-105156000D01*
X281813000Y-87376000D02*
X274955000Y-87376000D01*
D11*
X293322000Y-94996000D02*
G75*
G03*
X293322000Y-94996000I-3000000J0D01*
G01*
D10*
%TO.C,Slash1*%
X296005000Y-62992000D02*
X296005000Y-50292000D01*
X296005000Y-50292000D02*
X308705000Y-50292000D01*
X308705000Y-50292000D02*
X308705000Y-62992000D01*
X308705000Y-62992000D02*
X296005000Y-62992000D01*
D11*
X305355000Y-56642000D02*
G75*
G03*
X305355000Y-56642000I-3000000J0D01*
G01*
D10*
%TO.C,SW58*%
X226822000Y-120396000D02*
X226822000Y-107696000D01*
X226822000Y-107696000D02*
X239522000Y-107696000D01*
X239522000Y-107696000D02*
X239522000Y-120396000D01*
X239522000Y-120396000D02*
X226822000Y-120396000D01*
D11*
X236172000Y-114046000D02*
G75*
G03*
X236172000Y-114046000I-3000000J0D01*
G01*
D10*
%TO.C,RIGHT-SPACE1*%
X250698000Y-120396000D02*
X250698000Y-107696000D01*
X250698000Y-107696000D02*
X263398000Y-107696000D01*
X263398000Y-107696000D02*
X263398000Y-120396000D01*
X263398000Y-120396000D02*
X250698000Y-120396000D01*
D11*
X260048000Y-114046000D02*
G75*
G03*
X260048000Y-114046000I-3000000J0D01*
G01*
D10*
%TO.C,RightMeta1*%
X298380000Y-120396000D02*
X298380000Y-107696000D01*
X298380000Y-107696000D02*
X311080000Y-107696000D01*
X311080000Y-107696000D02*
X311080000Y-120396000D01*
X311080000Y-120396000D02*
X298380000Y-120396000D01*
D11*
X307730000Y-114046000D02*
G75*
G03*
X307730000Y-114046000I-3000000J0D01*
G01*
D10*
%TO.C,ENTER1*%
X288860000Y-82169000D02*
X288860000Y-69469000D01*
X288860000Y-69469000D02*
X301560000Y-69469000D01*
X301560000Y-69469000D02*
X301560000Y-82169000D01*
X301560000Y-82169000D02*
X288860000Y-82169000D01*
X286701000Y-83439000D02*
X286701000Y-68199000D01*
X303719000Y-68199000D02*
X303719000Y-83439000D01*
X279843000Y-85979000D02*
X310577000Y-85979000D01*
X310577000Y-85979000D02*
X310577000Y-68199000D01*
X310577000Y-68199000D02*
X303719000Y-68199000D01*
X303719000Y-83439000D02*
X286701000Y-83439000D01*
X279843000Y-68199000D02*
X279843000Y-85979000D01*
X286701000Y-68199000D02*
X279843000Y-68199000D01*
D11*
X298210000Y-75819000D02*
G75*
G03*
X298210000Y-75819000I-3000000J0D01*
G01*
D10*
%TO.C,WinKey1*%
X84328000Y-120396000D02*
X84328000Y-107696000D01*
X84328000Y-107696000D02*
X97028000Y-107696000D01*
X97028000Y-107696000D02*
X97028000Y-120396000D01*
X97028000Y-120396000D02*
X84328000Y-120396000D01*
D11*
X93678000Y-114046000D02*
G75*
G03*
X93678000Y-114046000I-3000000J0D01*
G01*
D10*
%TO.C,LEFT_FN1*%
X60452000Y-120396000D02*
X60452000Y-107696000D01*
X60452000Y-107696000D02*
X73152000Y-107696000D01*
X73152000Y-107696000D02*
X73152000Y-120396000D01*
X73152000Y-120396000D02*
X60452000Y-120396000D01*
D11*
X69802000Y-114046000D02*
G75*
G03*
X69802000Y-114046000I-3000000J0D01*
G01*
D10*
%TO.C,LEFT_CTRL1*%
X36534700Y-120396000D02*
X36534700Y-107696000D01*
X36534700Y-107696000D02*
X49234700Y-107696000D01*
X49234700Y-107696000D02*
X49234700Y-120396000D01*
X49234700Y-120396000D02*
X36534700Y-120396000D01*
D11*
X45884700Y-114046000D02*
G75*
G03*
X45884700Y-114046000I-3000000J0D01*
G01*
D10*
%TO.C,LEFT-SHIFT1*%
X46059700Y-101219000D02*
X46059700Y-88519000D01*
X46059700Y-88519000D02*
X58759700Y-88519000D01*
X58759700Y-88519000D02*
X58759700Y-101219000D01*
X58759700Y-101219000D02*
X46059700Y-101219000D01*
X43900700Y-102489000D02*
X43900700Y-87249000D01*
X60918700Y-87249000D02*
X60918700Y-102489000D01*
X37042700Y-105029000D02*
X67776700Y-105029000D01*
X67776700Y-105029000D02*
X67776700Y-87249000D01*
X67776700Y-87249000D02*
X60918700Y-87249000D01*
X60918700Y-102489000D02*
X43900700Y-102489000D01*
X37042700Y-87249000D02*
X37042700Y-105029000D01*
X43900700Y-87249000D02*
X37042700Y-87249000D01*
D11*
X55409700Y-94869000D02*
G75*
G03*
X55409700Y-94869000I-3000000J0D01*
G01*
%TO.C,Backspace1*%
X300593000Y-37846000D02*
G75*
G03*
X300593000Y-37846000I-3000000J0D01*
G01*
D10*
X289084000Y-30226000D02*
X282226000Y-30226000D01*
X282226000Y-30226000D02*
X282226000Y-48006000D01*
X306102000Y-45466000D02*
X289084000Y-45466000D01*
X312960000Y-30226000D02*
X306102000Y-30226000D01*
X312960000Y-48006000D02*
X312960000Y-30226000D01*
X282226000Y-48006000D02*
X312960000Y-48006000D01*
X306102000Y-30226000D02*
X306102000Y-45466000D01*
X289084000Y-45466000D02*
X289084000Y-30226000D01*
X303943000Y-44196000D02*
X291243000Y-44196000D01*
X303943000Y-31496000D02*
X303943000Y-44196000D01*
X291243000Y-31496000D02*
X303943000Y-31496000D01*
X291243000Y-44196000D02*
X291243000Y-31496000D01*
%TO.C,TAB1*%
X38914700Y-63135200D02*
X38914700Y-50435200D01*
X38914700Y-50435200D02*
X51614700Y-50435200D01*
X51614700Y-50435200D02*
X51614700Y-63135200D01*
X51614700Y-63135200D02*
X38914700Y-63135200D01*
D11*
X48264700Y-56785200D02*
G75*
G03*
X48264700Y-56785200I-3000000J0D01*
G01*
D10*
%TO.C,CAPS1*%
X41297200Y-82169000D02*
X41297200Y-69469000D01*
X41297200Y-69469000D02*
X53997200Y-69469000D01*
X53997200Y-69469000D02*
X53997200Y-82169000D01*
X53997200Y-82169000D02*
X41297200Y-82169000D01*
D11*
X50647200Y-75819000D02*
G75*
G03*
X50647200Y-75819000I-3000000J0D01*
G01*
D10*
%TO.C,SW48*%
X274574000Y-120396000D02*
X274574000Y-107696000D01*
X274574000Y-107696000D02*
X287274000Y-107696000D01*
X287274000Y-107696000D02*
X287274000Y-120396000D01*
X287274000Y-120396000D02*
X274574000Y-120396000D01*
D11*
X283924000Y-114046000D02*
G75*
G03*
X283924000Y-114046000I-3000000J0D01*
G01*
%TD*%
M02*
