  0
SECTION
  2
HEADER
  9
$ANGBASE
  50
0.0
  9
$ANGDIR
  70
1
  9
$MEASUREMENT
  70
1
  0
ENDSEC
  0
SECTION
  2
TABLES
  0
TABLE
  2
LTYPE
  70
4
  0
LTYPE
  5
40F
  2
CONTINUOUS
  70
0
  3
Solid line
  72
65
  73
0
  40
0.0
  0
LTYPE
  5
410
  2
DASHDOT
 70
0
  3
Dash Dot ____ _ ____ _
 72
65
 73
4
 40
2.0
 49
1.25
 49
-0.25
 49
0.25
 49
-0.25
  0
LTYPE
  5
411
  2
DASHED
 70
0
  3
Dashed __ __ __ __ __
 72
65
 73
2
 40
0.75
 49
0.5
 49
-0.25
  0
LTYPE
  5
43B
  2
DOTTED
 70
0
  3
Dotted .  .  .  .
 72
65
 73
2
 40
0.2
 49
0.0
 49
-0.2
  0
ENDTAB
  0
TABLE
  2
STYLE
  70
4
  0
STYLE
  2
KICAD
  70
0
  40
0
  41
1
  42
1
  50
0
  71
0
  3
isocp.shx
  0
STYLE
  2
KICADB
  70
0
  40
0
  41
1
  42
1
  50
0
  71
0
  3
isocp.shx
  0
STYLE
  2
KICADI
  70
0
  40
0
  41
1
  42
1
  50
15
  71
0
  3
isocp.shx
  0
STYLE
  2
KICADBI
  70
0
  40
0
  41
1
  42
1
  50
15
  71
0
  3
isocp.shx
  0
ENDTAB
  0
TABLE
  2
LAYER
  70
1
  0
LAYER
  2
BLACK
  70
0
  62
7
  6
CONTINUOUS
  0
ENDTAB
  0
ENDSEC
  0
SECTION
  2
ENTITIES
0
LINE
8
BLACK
6
CONTINUOUS
10
379.732
20
-4.014
11
379.74
21
-4.01472
0
LINE
8
BLACK
6
CONTINUOUS
10
379.74
20
-4.01472
11
379.749
21
-4.01758
0
LINE
8
BLACK
6
CONTINUOUS
10
379.749
20
-4.01758
11
379.758
21
-4.02223
0
LINE
8
BLACK
6
CONTINUOUS
10
379.758
20
-4.02223
11
379.766
21
-4.02847
0
LINE
8
BLACK
6
CONTINUOUS
10
379.766
20
-4.02847
11
379.772
21
-4.03609
0
LINE
8
BLACK
6
CONTINUOUS
10
379.772
20
-4.03609
11
379.776
21
-4.04477
0
LINE
8
BLACK
6
CONTINUOUS
10
379.776
20
-4.04477
11
379.779
21
-4.0542
0
LINE
8
BLACK
6
CONTINUOUS
10
379.779
20
-4.0542
11
379.78
21
-4.064
0
LINE
8
BLACK
6
CONTINUOUS
10
379.78
20
-4.064
11
379.78
21
-4.06645
0
LINE
8
BLACK
6
CONTINUOUS
10
379.78
20
-4.06645
11
379.78
21
-124.762
0
LINE
8
BLACK
6
CONTINUOUS
10
379.78
20
-124.762
11
379.78
21
-124.765
0
LINE
8
BLACK
6
CONTINUOUS
10
379.78
20
-124.765
11
379.78
21
-124.767
0
LINE
8
BLACK
6
CONTINUOUS
10
379.78
20
-124.767
11
379.78
21
-124.767
0
LINE
8
BLACK
6
CONTINUOUS
10
379.78
20
-124.767
11
379.779
21
-124.775
0
LINE
8
BLACK
6
CONTINUOUS
10
379.779
20
-124.775
11
379.776
21
-124.784
0
LINE
8
BLACK
6
CONTINUOUS
10
379.776
20
-124.784
11
379.772
21
-124.793
0
LINE
8
BLACK
6
CONTINUOUS
10
379.772
20
-124.793
11
379.766
21
-124.8
0
LINE
8
BLACK
6
CONTINUOUS
10
379.766
20
-124.8
11
379.758
21
-124.807
0
LINE
8
BLACK
6
CONTINUOUS
10
379.758
20
-124.807
11
379.749
21
-124.811
0
LINE
8
BLACK
6
CONTINUOUS
10
379.749
20
-124.811
11
379.74
21
-124.814
0
LINE
8
BLACK
6
CONTINUOUS
10
379.74
20
-124.814
11
379.73
21
-124.815
0
LINE
8
BLACK
6
CONTINUOUS
10
379.73
20
-124.815
11
379.728
21
-124.815
0
LINE
8
BLACK
6
CONTINUOUS
10
379.728
20
-124.815
11
27.028
21
-124.815
0
LINE
8
BLACK
6
CONTINUOUS
10
27.028
20
-124.815
11
27.0256
21
-124.815
0
LINE
8
BLACK
6
CONTINUOUS
10
27.0256
20
-124.815
11
27.0158
21
-124.814
0
LINE
8
BLACK
6
CONTINUOUS
10
27.0158
20
-124.814
11
27.0064
21
-124.811
0
LINE
8
BLACK
6
CONTINUOUS
10
27.0064
20
-124.811
11
26.9977
21
-124.807
0
LINE
8
BLACK
6
CONTINUOUS
10
26.9977
20
-124.807
11
26.9901
21
-124.8
0
LINE
8
BLACK
6
CONTINUOUS
10
26.9901
20
-124.8
11
26.9838
21
-124.793
0
LINE
8
BLACK
6
CONTINUOUS
10
26.9838
20
-124.793
11
26.9792
21
-124.784
0
LINE
8
BLACK
6
CONTINUOUS
10
26.9792
20
-124.784
11
26.9763
21
-124.775
0
LINE
8
BLACK
6
CONTINUOUS
10
26.9763
20
-124.775
11
26.9754
21
-124.765
0
LINE
8
BLACK
6
CONTINUOUS
10
26.9754
20
-124.765
11
26.9756
21
-124.762
0
LINE
8
BLACK
6
CONTINUOUS
10
26.9756
20
-124.762
11
26.9756
21
-4.06646
0
LINE
8
BLACK
6
CONTINUOUS
10
26.9756
20
-4.06646
11
26.9754
21
-4.064
0
LINE
8
BLACK
6
CONTINUOUS
10
26.9754
20
-4.064
11
26.9763
21
-4.0542
0
LINE
8
BLACK
6
CONTINUOUS
10
26.9763
20
-4.0542
11
26.9792
21
-4.04477
0
LINE
8
BLACK
6
CONTINUOUS
10
26.9792
20
-4.04477
11
26.9838
21
-4.03609
0
LINE
8
BLACK
6
CONTINUOUS
10
26.9838
20
-4.03609
11
26.9901
21
-4.02847
0
LINE
8
BLACK
6
CONTINUOUS
10
26.9901
20
-4.02847
11
26.9977
21
-4.02223
0
LINE
8
BLACK
6
CONTINUOUS
10
26.9977
20
-4.02223
11
27.0064
21
-4.01758
0
LINE
8
BLACK
6
CONTINUOUS
10
27.0064
20
-4.01758
11
27.0158
21
-4.01472
0
LINE
8
BLACK
6
CONTINUOUS
10
27.0158
20
-4.01472
11
27.0232
21
-4.014
0
LINE
8
BLACK
6
CONTINUOUS
10
27.0232
20
-4.014
11
27.0256
21
-4.01376
0
LINE
8
BLACK
6
CONTINUOUS
10
27.0256
20
-4.01376
11
27.028
21
-4.014
0
LINE
8
BLACK
6
CONTINUOUS
10
27.028
20
-4.014
11
379.728
21
-4.014
0
LINE
8
BLACK
6
CONTINUOUS
10
379.728
20
-4.014
11
379.73
21
-4.01376
0
LINE
8
BLACK
6
CONTINUOUS
10
379.73
20
-4.01376
11
379.732
21
-4.014
0
LINE
8
BLACK
6
CONTINUOUS
10
27.0756
20
-4.114
11
27.0756
21
-124.715
0
LINE
8
BLACK
6
CONTINUOUS
10
27.0756
20
-124.715
11
379.68
21
-124.715
0
LINE
8
BLACK
6
CONTINUOUS
10
379.68
20
-124.715
11
379.68
21
-4.114
0
LINE
8
BLACK
6
CONTINUOUS
10
379.68
20
-4.114
11
27.0756
21
-4.114
0
LINE
8
BLACK
6
CONTINUOUS
10
376.021
20
-122.212
11
376.142
21
-121.918
0
LINE
8
BLACK
6
CONTINUOUS
10
376.142
20
-121.918
11
376.319
21
-121.654
0
LINE
8
BLACK
6
CONTINUOUS
10
376.319
20
-121.654
11
376.543
21
-121.43
0
LINE
8
BLACK
6
CONTINUOUS
10
376.543
20
-121.43
11
376.807
21
-121.253
0
LINE
8
BLACK
6
CONTINUOUS
10
376.807
20
-121.253
11
377.101
21
-121.132
0
LINE
8
BLACK
6
CONTINUOUS
10
377.101
20
-121.132
11
377.412
21
-121.07
0
LINE
8
BLACK
6
CONTINUOUS
10
377.412
20
-121.07
11
377.73
21
-121.07
0
LINE
8
BLACK
6
CONTINUOUS
10
377.73
20
-121.07
11
378.041
21
-121.132
0
LINE
8
BLACK
6
CONTINUOUS
10
378.041
20
-121.132
11
378.335
21
-121.253
0
LINE
8
BLACK
6
CONTINUOUS
10
378.335
20
-121.253
11
378.599
21
-121.43
0
LINE
8
BLACK
6
CONTINUOUS
10
378.599
20
-121.43
11
378.823
21
-121.654
0
LINE
8
BLACK
6
CONTINUOUS
10
378.823
20
-121.654
11
379
21
-121.918
0
LINE
8
BLACK
6
CONTINUOUS
10
379
20
-121.918
11
379.121
21
-122.212
0
LINE
8
BLACK
6
CONTINUOUS
10
379.121
20
-122.212
11
379.183
21
-122.523
0
LINE
8
BLACK
6
CONTINUOUS
10
379.183
20
-122.523
11
379.183
21
-122.841
0
LINE
8
BLACK
6
CONTINUOUS
10
379.183
20
-122.841
11
379.121
21
-123.152
0
LINE
8
BLACK
6
CONTINUOUS
10
379.121
20
-123.152
11
379
21
-123.446
0
LINE
8
BLACK
6
CONTINUOUS
10
379
20
-123.446
11
378.823
21
-123.71
0
LINE
8
BLACK
6
CONTINUOUS
10
378.823
20
-123.71
11
378.599
21
-123.934
0
LINE
8
BLACK
6
CONTINUOUS
10
378.599
20
-123.934
11
378.335
21
-124.111
0
LINE
8
BLACK
6
CONTINUOUS
10
378.335
20
-124.111
11
378.041
21
-124.232
0
LINE
8
BLACK
6
CONTINUOUS
10
378.041
20
-124.232
11
377.73
21
-124.294
0
LINE
8
BLACK
6
CONTINUOUS
10
377.73
20
-124.294
11
377.412
21
-124.294
0
LINE
8
BLACK
6
CONTINUOUS
10
377.412
20
-124.294
11
377.101
21
-124.232
0
LINE
8
BLACK
6
CONTINUOUS
10
377.101
20
-124.232
11
376.807
21
-124.111
0
LINE
8
BLACK
6
CONTINUOUS
10
376.807
20
-124.111
11
376.543
21
-123.934
0
LINE
8
BLACK
6
CONTINUOUS
10
376.543
20
-123.934
11
376.319
21
-123.71
0
LINE
8
BLACK
6
CONTINUOUS
10
376.319
20
-123.71
11
376.142
21
-123.446
0
LINE
8
BLACK
6
CONTINUOUS
10
376.142
20
-123.446
11
376.021
21
-123.152
0
LINE
8
BLACK
6
CONTINUOUS
10
376.021
20
-123.152
11
375.959
21
-122.841
0
LINE
8
BLACK
6
CONTINUOUS
10
375.959
20
-122.841
11
375.959
21
-122.523
0
LINE
8
BLACK
6
CONTINUOUS
10
375.959
20
-122.523
11
376.021
21
-122.212
0
LINE
8
BLACK
6
CONTINUOUS
10
376.136
20
-123.117
11
376.248
21
-123.389
0
LINE
8
BLACK
6
CONTINUOUS
10
376.248
20
-123.389
11
376.411
21
-123.634
0
LINE
8
BLACK
6
CONTINUOUS
10
376.411
20
-123.634
11
376.619
21
-123.842
0
LINE
8
BLACK
6
CONTINUOUS
10
376.619
20
-123.842
11
376.864
21
-124.005
0
LINE
8
BLACK
6
CONTINUOUS
10
376.864
20
-124.005
11
377.136
21
-124.117
0
LINE
8
BLACK
6
CONTINUOUS
10
377.136
20
-124.117
11
377.424
21
-124.175
0
LINE
8
BLACK
6
CONTINUOUS
10
377.424
20
-124.175
11
377.718
21
-124.175
0
LINE
8
BLACK
6
CONTINUOUS
10
377.718
20
-124.175
11
378.006
21
-124.117
0
LINE
8
BLACK
6
CONTINUOUS
10
378.006
20
-124.117
11
378.278
21
-124.005
0
LINE
8
BLACK
6
CONTINUOUS
10
378.278
20
-124.005
11
378.523
21
-123.842
0
LINE
8
BLACK
6
CONTINUOUS
10
378.523
20
-123.842
11
378.731
21
-123.634
0
LINE
8
BLACK
6
CONTINUOUS
10
378.731
20
-123.634
11
378.894
21
-123.389
0
LINE
8
BLACK
6
CONTINUOUS
10
378.894
20
-123.389
11
379.006
21
-123.117
0
LINE
8
BLACK
6
CONTINUOUS
10
379.006
20
-123.117
11
379.064
21
-122.829
0
LINE
8
BLACK
6
CONTINUOUS
10
379.064
20
-122.829
11
379.064
21
-122.535
0
LINE
8
BLACK
6
CONTINUOUS
10
379.064
20
-122.535
11
379.006
21
-122.247
0
LINE
8
BLACK
6
CONTINUOUS
10
379.006
20
-122.247
11
378.894
21
-121.975
0
LINE
8
BLACK
6
CONTINUOUS
10
378.894
20
-121.975
11
378.731
21
-121.73
0
LINE
8
BLACK
6
CONTINUOUS
10
378.731
20
-121.73
11
378.523
21
-121.522
0
LINE
8
BLACK
6
CONTINUOUS
10
378.523
20
-121.522
11
378.278
21
-121.359
0
LINE
8
BLACK
6
CONTINUOUS
10
378.278
20
-121.359
11
378.006
21
-121.247
0
LINE
8
BLACK
6
CONTINUOUS
10
378.006
20
-121.247
11
377.718
21
-121.189
0
LINE
8
BLACK
6
CONTINUOUS
10
377.718
20
-121.189
11
377.424
21
-121.189
0
LINE
8
BLACK
6
CONTINUOUS
10
377.424
20
-121.189
11
377.136
21
-121.247
0
LINE
8
BLACK
6
CONTINUOUS
10
377.136
20
-121.247
11
376.864
21
-121.359
0
LINE
8
BLACK
6
CONTINUOUS
10
376.864
20
-121.359
11
376.619
21
-121.522
0
LINE
8
BLACK
6
CONTINUOUS
10
376.619
20
-121.522
11
376.411
21
-121.73
0
LINE
8
BLACK
6
CONTINUOUS
10
376.411
20
-121.73
11
376.248
21
-121.975
0
LINE
8
BLACK
6
CONTINUOUS
10
376.248
20
-121.975
11
376.136
21
-122.247
0
LINE
8
BLACK
6
CONTINUOUS
10
376.136
20
-122.247
11
376.078
21
-122.535
0
LINE
8
BLACK
6
CONTINUOUS
10
376.078
20
-122.535
11
376.078
21
-122.829
0
LINE
8
BLACK
6
CONTINUOUS
10
376.078
20
-122.829
11
376.136
21
-123.117
0
LINE
8
BLACK
6
CONTINUOUS
10
27.7868
20
-121.831
11
27.9083
21
-121.537
0
LINE
8
BLACK
6
CONTINUOUS
10
27.9083
20
-121.537
11
28.0847
21
-121.273
0
LINE
8
BLACK
6
CONTINUOUS
10
28.0847
20
-121.273
11
28.3093
21
-121.049
0
LINE
8
BLACK
6
CONTINUOUS
10
28.3093
20
-121.049
11
28.5733
21
-120.872
0
LINE
8
BLACK
6
CONTINUOUS
10
28.5733
20
-120.872
11
28.8667
21
-120.751
0
LINE
8
BLACK
6
CONTINUOUS
10
28.8667
20
-120.751
11
29.1782
21
-120.689
0
LINE
8
BLACK
6
CONTINUOUS
10
29.1782
20
-120.689
11
29.4958
21
-120.689
0
LINE
8
BLACK
6
CONTINUOUS
10
29.4958
20
-120.689
11
29.8073
21
-120.751
0
LINE
8
BLACK
6
CONTINUOUS
10
29.8073
20
-120.751
11
30.1007
21
-120.872
0
LINE
8
BLACK
6
CONTINUOUS
10
30.1007
20
-120.872
11
30.3647
21
-121.049
0
LINE
8
BLACK
6
CONTINUOUS
10
30.3647
20
-121.049
11
30.5893
21
-121.273
0
LINE
8
BLACK
6
CONTINUOUS
10
30.5893
20
-121.273
11
30.7657
21
-121.537
0
LINE
8
BLACK
6
CONTINUOUS
10
30.7657
20
-121.537
11
30.8872
21
-121.831
0
LINE
8
BLACK
6
CONTINUOUS
10
30.8872
20
-121.831
11
30.9492
21
-122.142
0
LINE
8
BLACK
6
CONTINUOUS
10
30.9492
20
-122.142
11
30.9492
21
-122.46
0
LINE
8
BLACK
6
CONTINUOUS
10
30.9492
20
-122.46
11
30.8872
21
-122.771
0
LINE
8
BLACK
6
CONTINUOUS
10
30.8872
20
-122.771
11
30.7657
21
-123.065
0
LINE
8
BLACK
6
CONTINUOUS
10
30.7657
20
-123.065
11
30.5893
21
-123.329
0
LINE
8
BLACK
6
CONTINUOUS
10
30.5893
20
-123.329
11
30.3647
21
-123.553
0
LINE
8
BLACK
6
CONTINUOUS
10
30.3647
20
-123.553
11
30.1007
21
-123.73
0
LINE
8
BLACK
6
CONTINUOUS
10
30.1007
20
-123.73
11
29.8073
21
-123.851
0
LINE
8
BLACK
6
CONTINUOUS
10
29.8073
20
-123.851
11
29.4958
21
-123.913
0
LINE
8
BLACK
6
CONTINUOUS
10
29.4958
20
-123.913
11
29.1782
21
-123.913
0
LINE
8
BLACK
6
CONTINUOUS
10
29.1782
20
-123.913
11
28.8667
21
-123.851
0
LINE
8
BLACK
6
CONTINUOUS
10
28.8667
20
-123.851
11
28.5733
21
-123.73
0
LINE
8
BLACK
6
CONTINUOUS
10
28.5733
20
-123.73
11
28.3093
21
-123.553
0
LINE
8
BLACK
6
CONTINUOUS
10
28.3093
20
-123.553
11
28.0847
21
-123.329
0
LINE
8
BLACK
6
CONTINUOUS
10
28.0847
20
-123.329
11
27.9083
21
-123.065
0
LINE
8
BLACK
6
CONTINUOUS
10
27.9083
20
-123.065
11
27.7868
21
-122.771
0
LINE
8
BLACK
6
CONTINUOUS
10
27.7868
20
-122.771
11
27.7248
21
-122.46
0
LINE
8
BLACK
6
CONTINUOUS
10
27.7248
20
-122.46
11
27.7248
21
-122.142
0
LINE
8
BLACK
6
CONTINUOUS
10
27.7248
20
-122.142
11
27.7868
21
-121.831
0
LINE
8
BLACK
6
CONTINUOUS
10
27.9016
20
-122.736
11
28.0141
21
-123.008
0
LINE
8
BLACK
6
CONTINUOUS
10
28.0141
20
-123.008
11
28.1775
21
-123.253
0
LINE
8
BLACK
6
CONTINUOUS
10
28.1775
20
-123.253
11
28.3854
21
-123.461
0
LINE
8
BLACK
6
CONTINUOUS
10
28.3854
20
-123.461
11
28.6299
21
-123.624
0
LINE
8
BLACK
6
CONTINUOUS
10
28.6299
20
-123.624
11
28.9016
21
-123.736
0
LINE
8
BLACK
6
CONTINUOUS
10
28.9016
20
-123.736
11
29.19
21
-123.794
0
LINE
8
BLACK
6
CONTINUOUS
10
29.19
20
-123.794
11
29.484
21
-123.794
0
LINE
8
BLACK
6
CONTINUOUS
10
29.484
20
-123.794
11
29.7724
21
-123.736
0
LINE
8
BLACK
6
CONTINUOUS
10
29.7724
20
-123.736
11
30.0441
21
-123.624
0
LINE
8
BLACK
6
CONTINUOUS
10
30.0441
20
-123.624
11
30.2886
21
-123.461
0
LINE
8
BLACK
6
CONTINUOUS
10
30.2886
20
-123.461
11
30.4965
21
-123.253
0
LINE
8
BLACK
6
CONTINUOUS
10
30.4965
20
-123.253
11
30.6599
21
-123.008
0
LINE
8
BLACK
6
CONTINUOUS
10
30.6599
20
-123.008
11
30.7724
21
-122.736
0
LINE
8
BLACK
6
CONTINUOUS
10
30.7724
20
-122.736
11
30.8298
21
-122.448
0
LINE
8
BLACK
6
CONTINUOUS
10
30.8298
20
-122.448
11
30.8298
21
-122.154
0
LINE
8
BLACK
6
CONTINUOUS
10
30.8298
20
-122.154
11
30.7724
21
-121.866
0
LINE
8
BLACK
6
CONTINUOUS
10
30.7724
20
-121.866
11
30.6599
21
-121.594
0
LINE
8
BLACK
6
CONTINUOUS
10
30.6599
20
-121.594
11
30.4965
21
-121.349
0
LINE
8
BLACK
6
CONTINUOUS
10
30.4965
20
-121.349
11
30.2886
21
-121.141
0
LINE
8
BLACK
6
CONTINUOUS
10
30.2886
20
-121.141
11
30.0441
21
-120.978
0
LINE
8
BLACK
6
CONTINUOUS
10
30.0441
20
-120.978
11
29.7724
21
-120.866
0
LINE
8
BLACK
6
CONTINUOUS
10
29.7724
20
-120.866
11
29.484
21
-120.808
0
LINE
8
BLACK
6
CONTINUOUS
10
29.484
20
-120.808
11
29.19
21
-120.808
0
LINE
8
BLACK
6
CONTINUOUS
10
29.19
20
-120.808
11
28.9016
21
-120.866
0
LINE
8
BLACK
6
CONTINUOUS
10
28.9016
20
-120.866
11
28.6299
21
-120.978
0
LINE
8
BLACK
6
CONTINUOUS
10
28.6299
20
-120.978
11
28.3854
21
-121.141
0
LINE
8
BLACK
6
CONTINUOUS
10
28.3854
20
-121.141
11
28.1775
21
-121.349
0
LINE
8
BLACK
6
CONTINUOUS
10
28.1775
20
-121.349
11
28.0141
21
-121.594
0
LINE
8
BLACK
6
CONTINUOUS
10
28.0141
20
-121.594
11
27.9016
21
-121.866
0
LINE
8
BLACK
6
CONTINUOUS
10
27.9016
20
-121.866
11
27.8442
21
-122.154
0
LINE
8
BLACK
6
CONTINUOUS
10
27.8442
20
-122.154
11
27.8442
21
-122.448
0
LINE
8
BLACK
6
CONTINUOUS
10
27.8442
20
-122.448
11
27.9016
21
-122.736
0
LINE
8
BLACK
6
CONTINUOUS
10
262.356
20
-104.051
11
262.477
21
-103.757
0
LINE
8
BLACK
6
CONTINUOUS
10
262.477
20
-103.757
11
262.654
21
-103.493
0
LINE
8
BLACK
6
CONTINUOUS
10
262.654
20
-103.493
11
262.878
21
-103.269
0
LINE
8
BLACK
6
CONTINUOUS
10
262.878
20
-103.269
11
263.142
21
-103.092
0
LINE
8
BLACK
6
CONTINUOUS
10
263.142
20
-103.092
11
263.436
21
-102.971
0
LINE
8
BLACK
6
CONTINUOUS
10
263.436
20
-102.971
11
263.747
21
-102.909
0
LINE
8
BLACK
6
CONTINUOUS
10
263.747
20
-102.909
11
264.065
21
-102.909
0
LINE
8
BLACK
6
CONTINUOUS
10
264.065
20
-102.909
11
264.376
21
-102.971
0
LINE
8
BLACK
6
CONTINUOUS
10
264.376
20
-102.971
11
264.67
21
-103.092
0
LINE
8
BLACK
6
CONTINUOUS
10
264.67
20
-103.092
11
264.934
21
-103.269
0
LINE
8
BLACK
6
CONTINUOUS
10
264.934
20
-103.269
11
265.158
21
-103.493
0
LINE
8
BLACK
6
CONTINUOUS
10
265.158
20
-103.493
11
265.335
21
-103.757
0
LINE
8
BLACK
6
CONTINUOUS
10
265.335
20
-103.757
11
265.456
21
-104.051
0
LINE
8
BLACK
6
CONTINUOUS
10
265.456
20
-104.051
11
265.518
21
-104.362
0
LINE
8
BLACK
6
CONTINUOUS
10
265.518
20
-104.362
11
265.518
21
-104.68
0
LINE
8
BLACK
6
CONTINUOUS
10
265.518
20
-104.68
11
265.456
21
-104.991
0
LINE
8
BLACK
6
CONTINUOUS
10
265.456
20
-104.991
11
265.335
21
-105.285
0
LINE
8
BLACK
6
CONTINUOUS
10
265.335
20
-105.285
11
265.158
21
-105.549
0
LINE
8
BLACK
6
CONTINUOUS
10
265.158
20
-105.549
11
264.934
21
-105.773
0
LINE
8
BLACK
6
CONTINUOUS
10
264.934
20
-105.773
11
264.67
21
-105.95
0
LINE
8
BLACK
6
CONTINUOUS
10
264.67
20
-105.95
11
264.376
21
-106.071
0
LINE
8
BLACK
6
CONTINUOUS
10
264.376
20
-106.071
11
264.065
21
-106.133
0
LINE
8
BLACK
6
CONTINUOUS
10
264.065
20
-106.133
11
263.747
21
-106.133
0
LINE
8
BLACK
6
CONTINUOUS
10
263.747
20
-106.133
11
263.436
21
-106.071
0
LINE
8
BLACK
6
CONTINUOUS
10
263.436
20
-106.071
11
263.142
21
-105.95
0
LINE
8
BLACK
6
CONTINUOUS
10
263.142
20
-105.95
11
262.878
21
-105.773
0
LINE
8
BLACK
6
CONTINUOUS
10
262.878
20
-105.773
11
262.654
21
-105.549
0
LINE
8
BLACK
6
CONTINUOUS
10
262.654
20
-105.549
11
262.477
21
-105.285
0
LINE
8
BLACK
6
CONTINUOUS
10
262.477
20
-105.285
11
262.356
21
-104.991
0
LINE
8
BLACK
6
CONTINUOUS
10
262.356
20
-104.991
11
262.294
21
-104.68
0
LINE
8
BLACK
6
CONTINUOUS
10
262.294
20
-104.68
11
262.294
21
-104.362
0
LINE
8
BLACK
6
CONTINUOUS
10
262.294
20
-104.362
11
262.356
21
-104.051
0
LINE
8
BLACK
6
CONTINUOUS
10
262.471
20
-104.956
11
262.583
21
-105.228
0
LINE
8
BLACK
6
CONTINUOUS
10
262.583
20
-105.228
11
262.746
21
-105.473
0
LINE
8
BLACK
6
CONTINUOUS
10
262.746
20
-105.473
11
262.954
21
-105.681
0
LINE
8
BLACK
6
CONTINUOUS
10
262.954
20
-105.681
11
263.199
21
-105.844
0
LINE
8
BLACK
6
CONTINUOUS
10
263.199
20
-105.844
11
263.471
21
-105.956
0
LINE
8
BLACK
6
CONTINUOUS
10
263.471
20
-105.956
11
263.759
21
-106.014
0
LINE
8
BLACK
6
CONTINUOUS
10
263.759
20
-106.014
11
264.053
21
-106.014
0
LINE
8
BLACK
6
CONTINUOUS
10
264.053
20
-106.014
11
264.341
21
-105.956
0
LINE
8
BLACK
6
CONTINUOUS
10
264.341
20
-105.956
11
264.613
21
-105.844
0
LINE
8
BLACK
6
CONTINUOUS
10
264.613
20
-105.844
11
264.858
21
-105.681
0
LINE
8
BLACK
6
CONTINUOUS
10
264.858
20
-105.681
11
265.066
21
-105.473
0
LINE
8
BLACK
6
CONTINUOUS
10
265.066
20
-105.473
11
265.229
21
-105.228
0
LINE
8
BLACK
6
CONTINUOUS
10
265.229
20
-105.228
11
265.341
21
-104.956
0
LINE
8
BLACK
6
CONTINUOUS
10
265.341
20
-104.956
11
265.399
21
-104.668
0
LINE
8
BLACK
6
CONTINUOUS
10
265.399
20
-104.668
11
265.399
21
-104.374
0
LINE
8
BLACK
6
CONTINUOUS
10
265.399
20
-104.374
11
265.341
21
-104.086
0
LINE
8
BLACK
6
CONTINUOUS
10
265.341
20
-104.086
11
265.229
21
-103.814
0
LINE
8
BLACK
6
CONTINUOUS
10
265.229
20
-103.814
11
265.066
21
-103.569
0
LINE
8
BLACK
6
CONTINUOUS
10
265.066
20
-103.569
11
264.858
21
-103.361
0
LINE
8
BLACK
6
CONTINUOUS
10
264.858
20
-103.361
11
264.613
21
-103.198
0
LINE
8
BLACK
6
CONTINUOUS
10
264.613
20
-103.198
11
264.341
21
-103.086
0
LINE
8
BLACK
6
CONTINUOUS
10
264.341
20
-103.086
11
264.053
21
-103.028
0
LINE
8
BLACK
6
CONTINUOUS
10
264.053
20
-103.028
11
263.759
21
-103.028
0
LINE
8
BLACK
6
CONTINUOUS
10
263.759
20
-103.028
11
263.471
21
-103.086
0
LINE
8
BLACK
6
CONTINUOUS
10
263.471
20
-103.086
11
263.199
21
-103.198
0
LINE
8
BLACK
6
CONTINUOUS
10
263.199
20
-103.198
11
262.954
21
-103.361
0
LINE
8
BLACK
6
CONTINUOUS
10
262.954
20
-103.361
11
262.746
21
-103.569
0
LINE
8
BLACK
6
CONTINUOUS
10
262.746
20
-103.569
11
262.583
21
-103.814
0
LINE
8
BLACK
6
CONTINUOUS
10
262.583
20
-103.814
11
262.471
21
-104.086
0
LINE
8
BLACK
6
CONTINUOUS
10
262.471
20
-104.086
11
262.413
21
-104.374
0
LINE
8
BLACK
6
CONTINUOUS
10
262.413
20
-104.374
11
262.413
21
-104.668
0
LINE
8
BLACK
6
CONTINUOUS
10
262.413
20
-104.668
11
262.471
21
-104.956
0
LINE
8
BLACK
6
CONTINUOUS
10
91.0328
20
-103.797
11
91.1543
21
-103.503
0
LINE
8
BLACK
6
CONTINUOUS
10
91.1543
20
-103.503
11
91.3307
21
-103.239
0
LINE
8
BLACK
6
CONTINUOUS
10
91.3307
20
-103.239
11
91.5553
21
-103.015
0
LINE
8
BLACK
6
CONTINUOUS
10
91.5553
20
-103.015
11
91.8193
21
-102.838
0
LINE
8
BLACK
6
CONTINUOUS
10
91.8193
20
-102.838
11
92.1127
21
-102.717
0
LINE
8
BLACK
6
CONTINUOUS
10
92.1127
20
-102.717
11
92.4242
21
-102.655
0
LINE
8
BLACK
6
CONTINUOUS
10
92.4242
20
-102.655
11
92.7418
21
-102.655
0
LINE
8
BLACK
6
CONTINUOUS
10
92.7418
20
-102.655
11
93.0533
21
-102.717
0
LINE
8
BLACK
6
CONTINUOUS
10
93.0533
20
-102.717
11
93.3467
21
-102.838
0
LINE
8
BLACK
6
CONTINUOUS
10
93.3467
20
-102.838
11
93.6107
21
-103.015
0
LINE
8
BLACK
6
CONTINUOUS
10
93.6107
20
-103.015
11
93.8353
21
-103.239
0
LINE
8
BLACK
6
CONTINUOUS
10
93.8353
20
-103.239
11
94.0117
21
-103.503
0
LINE
8
BLACK
6
CONTINUOUS
10
94.0117
20
-103.503
11
94.1332
21
-103.797
0
LINE
8
BLACK
6
CONTINUOUS
10
94.1332
20
-103.797
11
94.1952
21
-104.108
0
LINE
8
BLACK
6
CONTINUOUS
10
94.1952
20
-104.108
11
94.1952
21
-104.426
0
LINE
8
BLACK
6
CONTINUOUS
10
94.1952
20
-104.426
11
94.1332
21
-104.737
0
LINE
8
BLACK
6
CONTINUOUS
10
94.1332
20
-104.737
11
94.0117
21
-105.031
0
LINE
8
BLACK
6
CONTINUOUS
10
94.0117
20
-105.031
11
93.8353
21
-105.295
0
LINE
8
BLACK
6
CONTINUOUS
10
93.8353
20
-105.295
11
93.6107
21
-105.519
0
LINE
8
BLACK
6
CONTINUOUS
10
93.6107
20
-105.519
11
93.3467
21
-105.696
0
LINE
8
BLACK
6
CONTINUOUS
10
93.3467
20
-105.696
11
93.0533
21
-105.817
0
LINE
8
BLACK
6
CONTINUOUS
10
93.0533
20
-105.817
11
92.7418
21
-105.879
0
LINE
8
BLACK
6
CONTINUOUS
10
92.7418
20
-105.879
11
92.4242
21
-105.879
0
LINE
8
BLACK
6
CONTINUOUS
10
92.4242
20
-105.879
11
92.1127
21
-105.817
0
LINE
8
BLACK
6
CONTINUOUS
10
92.1127
20
-105.817
11
91.8193
21
-105.696
0
LINE
8
BLACK
6
CONTINUOUS
10
91.8193
20
-105.696
11
91.5553
21
-105.519
0
LINE
8
BLACK
6
CONTINUOUS
10
91.5553
20
-105.519
11
91.3307
21
-105.295
0
LINE
8
BLACK
6
CONTINUOUS
10
91.3307
20
-105.295
11
91.1543
21
-105.031
0
LINE
8
BLACK
6
CONTINUOUS
10
91.1543
20
-105.031
11
91.0328
21
-104.737
0
LINE
8
BLACK
6
CONTINUOUS
10
91.0328
20
-104.737
11
90.9708
21
-104.426
0
LINE
8
BLACK
6
CONTINUOUS
10
90.9708
20
-104.426
11
90.9708
21
-104.108
0
LINE
8
BLACK
6
CONTINUOUS
10
90.9708
20
-104.108
11
91.0328
21
-103.797
0
LINE
8
BLACK
6
CONTINUOUS
10
91.1476
20
-104.702
11
91.2601
21
-104.974
0
LINE
8
BLACK
6
CONTINUOUS
10
91.2601
20
-104.974
11
91.4235
21
-105.219
0
LINE
8
BLACK
6
CONTINUOUS
10
91.4235
20
-105.219
11
91.6314
21
-105.427
0
LINE
8
BLACK
6
CONTINUOUS
10
91.6314
20
-105.427
11
91.8759
21
-105.59
0
LINE
8
BLACK
6
CONTINUOUS
10
91.8759
20
-105.59
11
92.1476
21
-105.702
0
LINE
8
BLACK
6
CONTINUOUS
10
92.1476
20
-105.702
11
92.436
21
-105.76
0
LINE
8
BLACK
6
CONTINUOUS
10
92.436
20
-105.76
11
92.73
21
-105.76
0
LINE
8
BLACK
6
CONTINUOUS
10
92.73
20
-105.76
11
93.0184
21
-105.702
0
LINE
8
BLACK
6
CONTINUOUS
10
93.0184
20
-105.702
11
93.2901
21
-105.59
0
LINE
8
BLACK
6
CONTINUOUS
10
93.2901
20
-105.59
11
93.5346
21
-105.427
0
LINE
8
BLACK
6
CONTINUOUS
10
93.5346
20
-105.427
11
93.7425
21
-105.219
0
LINE
8
BLACK
6
CONTINUOUS
10
93.7425
20
-105.219
11
93.9059
21
-104.974
0
LINE
8
BLACK
6
CONTINUOUS
10
93.9059
20
-104.974
11
94.0184
21
-104.702
0
LINE
8
BLACK
6
CONTINUOUS
10
94.0184
20
-104.702
11
94.0758
21
-104.414
0
LINE
8
BLACK
6
CONTINUOUS
10
94.0758
20
-104.414
11
94.0758
21
-104.12
0
LINE
8
BLACK
6
CONTINUOUS
10
94.0758
20
-104.12
11
94.0184
21
-103.832
0
LINE
8
BLACK
6
CONTINUOUS
10
94.0184
20
-103.832
11
93.9059
21
-103.56
0
LINE
8
BLACK
6
CONTINUOUS
10
93.9059
20
-103.56
11
93.7425
21
-103.315
0
LINE
8
BLACK
6
CONTINUOUS
10
93.7425
20
-103.315
11
93.5346
21
-103.107
0
LINE
8
BLACK
6
CONTINUOUS
10
93.5346
20
-103.107
11
93.2901
21
-102.944
0
LINE
8
BLACK
6
CONTINUOUS
10
93.2901
20
-102.944
11
93.0184
21
-102.832
0
LINE
8
BLACK
6
CONTINUOUS
10
93.0184
20
-102.832
11
92.73
21
-102.774
0
LINE
8
BLACK
6
CONTINUOUS
10
92.73
20
-102.774
11
92.436
21
-102.774
0
LINE
8
BLACK
6
CONTINUOUS
10
92.436
20
-102.774
11
92.1476
21
-102.832
0
LINE
8
BLACK
6
CONTINUOUS
10
92.1476
20
-102.832
11
91.8759
21
-102.944
0
LINE
8
BLACK
6
CONTINUOUS
10
91.8759
20
-102.944
11
91.6314
21
-103.107
0
LINE
8
BLACK
6
CONTINUOUS
10
91.6314
20
-103.107
11
91.4235
21
-103.315
0
LINE
8
BLACK
6
CONTINUOUS
10
91.4235
20
-103.315
11
91.2601
21
-103.56
0
LINE
8
BLACK
6
CONTINUOUS
10
91.2601
20
-103.56
11
91.1476
21
-103.832
0
LINE
8
BLACK
6
CONTINUOUS
10
91.1476
20
-103.832
11
91.0902
21
-104.12
0
LINE
8
BLACK
6
CONTINUOUS
10
91.0902
20
-104.12
11
91.0902
21
-104.414
0
LINE
8
BLACK
6
CONTINUOUS
10
91.0902
20
-104.414
11
91.1476
21
-104.702
0
LINE
8
BLACK
6
CONTINUOUS
10
224.002
20
-103.797
11
224.123
21
-103.503
0
LINE
8
BLACK
6
CONTINUOUS
10
224.123
20
-103.503
11
224.3
21
-103.239
0
LINE
8
BLACK
6
CONTINUOUS
10
224.3
20
-103.239
11
224.524
21
-103.015
0
LINE
8
BLACK
6
CONTINUOUS
10
224.524
20
-103.015
11
224.788
21
-102.838
0
LINE
8
BLACK
6
CONTINUOUS
10
224.788
20
-102.838
11
225.082
21
-102.717
0
LINE
8
BLACK
6
CONTINUOUS
10
225.082
20
-102.717
11
225.393
21
-102.655
0
LINE
8
BLACK
6
CONTINUOUS
10
225.393
20
-102.655
11
225.711
21
-102.655
0
LINE
8
BLACK
6
CONTINUOUS
10
225.711
20
-102.655
11
226.022
21
-102.717
0
LINE
8
BLACK
6
CONTINUOUS
10
226.022
20
-102.717
11
226.316
21
-102.838
0
LINE
8
BLACK
6
CONTINUOUS
10
226.316
20
-102.838
11
226.58
21
-103.015
0
LINE
8
BLACK
6
CONTINUOUS
10
226.58
20
-103.015
11
226.804
21
-103.239
0
LINE
8
BLACK
6
CONTINUOUS
10
226.804
20
-103.239
11
226.981
21
-103.503
0
LINE
8
BLACK
6
CONTINUOUS
10
226.981
20
-103.503
11
227.102
21
-103.797
0
LINE
8
BLACK
6
CONTINUOUS
10
227.102
20
-103.797
11
227.164
21
-104.108
0
LINE
8
BLACK
6
CONTINUOUS
10
227.164
20
-104.108
11
227.164
21
-104.426
0
LINE
8
BLACK
6
CONTINUOUS
10
227.164
20
-104.426
11
227.102
21
-104.737
0
LINE
8
BLACK
6
CONTINUOUS
10
227.102
20
-104.737
11
226.981
21
-105.031
0
LINE
8
BLACK
6
CONTINUOUS
10
226.981
20
-105.031
11
226.804
21
-105.295
0
LINE
8
BLACK
6
CONTINUOUS
10
226.804
20
-105.295
11
226.58
21
-105.519
0
LINE
8
BLACK
6
CONTINUOUS
10
226.58
20
-105.519
11
226.316
21
-105.696
0
LINE
8
BLACK
6
CONTINUOUS
10
226.316
20
-105.696
11
226.022
21
-105.817
0
LINE
8
BLACK
6
CONTINUOUS
10
226.022
20
-105.817
11
225.711
21
-105.879
0
LINE
8
BLACK
6
CONTINUOUS
10
225.711
20
-105.879
11
225.393
21
-105.879
0
LINE
8
BLACK
6
CONTINUOUS
10
225.393
20
-105.879
11
225.082
21
-105.817
0
LINE
8
BLACK
6
CONTINUOUS
10
225.082
20
-105.817
11
224.788
21
-105.696
0
LINE
8
BLACK
6
CONTINUOUS
10
224.788
20
-105.696
11
224.524
21
-105.519
0
LINE
8
BLACK
6
CONTINUOUS
10
224.524
20
-105.519
11
224.3
21
-105.295
0
LINE
8
BLACK
6
CONTINUOUS
10
224.3
20
-105.295
11
224.123
21
-105.031
0
LINE
8
BLACK
6
CONTINUOUS
10
224.123
20
-105.031
11
224.002
21
-104.737
0
LINE
8
BLACK
6
CONTINUOUS
10
224.002
20
-104.737
11
223.94
21
-104.426
0
LINE
8
BLACK
6
CONTINUOUS
10
223.94
20
-104.426
11
223.94
21
-104.108
0
LINE
8
BLACK
6
CONTINUOUS
10
223.94
20
-104.108
11
224.002
21
-103.797
0
LINE
8
BLACK
6
CONTINUOUS
10
224.117
20
-104.702
11
224.229
21
-104.974
0
LINE
8
BLACK
6
CONTINUOUS
10
224.229
20
-104.974
11
224.392
21
-105.219
0
LINE
8
BLACK
6
CONTINUOUS
10
224.392
20
-105.219
11
224.6
21
-105.427
0
LINE
8
BLACK
6
CONTINUOUS
10
224.6
20
-105.427
11
224.845
21
-105.59
0
LINE
8
BLACK
6
CONTINUOUS
10
224.845
20
-105.59
11
225.117
21
-105.702
0
LINE
8
BLACK
6
CONTINUOUS
10
225.117
20
-105.702
11
225.405
21
-105.76
0
LINE
8
BLACK
6
CONTINUOUS
10
225.405
20
-105.76
11
225.699
21
-105.76
0
LINE
8
BLACK
6
CONTINUOUS
10
225.699
20
-105.76
11
225.987
21
-105.702
0
LINE
8
BLACK
6
CONTINUOUS
10
225.987
20
-105.702
11
226.259
21
-105.59
0
LINE
8
BLACK
6
CONTINUOUS
10
226.259
20
-105.59
11
226.504
21
-105.427
0
LINE
8
BLACK
6
CONTINUOUS
10
226.504
20
-105.427
11
226.712
21
-105.219
0
LINE
8
BLACK
6
CONTINUOUS
10
226.712
20
-105.219
11
226.875
21
-104.974
0
LINE
8
BLACK
6
CONTINUOUS
10
226.875
20
-104.974
11
226.987
21
-104.702
0
LINE
8
BLACK
6
CONTINUOUS
10
226.987
20
-104.702
11
227.045
21
-104.414
0
LINE
8
BLACK
6
CONTINUOUS
10
227.045
20
-104.414
11
227.045
21
-104.12
0
LINE
8
BLACK
6
CONTINUOUS
10
227.045
20
-104.12
11
226.987
21
-103.832
0
LINE
8
BLACK
6
CONTINUOUS
10
226.987
20
-103.832
11
226.875
21
-103.56
0
LINE
8
BLACK
6
CONTINUOUS
10
226.875
20
-103.56
11
226.712
21
-103.315
0
LINE
8
BLACK
6
CONTINUOUS
10
226.712
20
-103.315
11
226.504
21
-103.107
0
LINE
8
BLACK
6
CONTINUOUS
10
226.504
20
-103.107
11
226.259
21
-102.944
0
LINE
8
BLACK
6
CONTINUOUS
10
226.259
20
-102.944
11
225.987
21
-102.832
0
LINE
8
BLACK
6
CONTINUOUS
10
225.987
20
-102.832
11
225.699
21
-102.774
0
LINE
8
BLACK
6
CONTINUOUS
10
225.699
20
-102.774
11
225.405
21
-102.774
0
LINE
8
BLACK
6
CONTINUOUS
10
225.405
20
-102.774
11
225.117
21
-102.832
0
LINE
8
BLACK
6
CONTINUOUS
10
225.117
20
-102.832
11
224.845
21
-102.944
0
LINE
8
BLACK
6
CONTINUOUS
10
224.845
20
-102.944
11
224.6
21
-103.107
0
LINE
8
BLACK
6
CONTINUOUS
10
224.6
20
-103.107
11
224.392
21
-103.315
0
LINE
8
BLACK
6
CONTINUOUS
10
224.392
20
-103.315
11
224.229
21
-103.56
0
LINE
8
BLACK
6
CONTINUOUS
10
224.229
20
-103.56
11
224.117
21
-103.832
0
LINE
8
BLACK
6
CONTINUOUS
10
224.117
20
-103.832
11
224.059
21
-104.12
0
LINE
8
BLACK
6
CONTINUOUS
10
224.059
20
-104.12
11
224.059
21
-104.414
0
LINE
8
BLACK
6
CONTINUOUS
10
224.059
20
-104.414
11
224.117
21
-104.702
0
LINE
8
BLACK
6
CONTINUOUS
10
271.754
20
-85.0007
11
271.875
21
-84.7073
0
LINE
8
BLACK
6
CONTINUOUS
10
271.875
20
-84.7073
11
272.052
21
-84.4433
0
LINE
8
BLACK
6
CONTINUOUS
10
272.052
20
-84.4433
11
272.276
21
-84.2187
0
LINE
8
BLACK
6
CONTINUOUS
10
272.276
20
-84.2187
11
272.54
21
-84.0423
0
LINE
8
BLACK
6
CONTINUOUS
10
272.54
20
-84.0423
11
272.834
21
-83.9208
0
LINE
8
BLACK
6
CONTINUOUS
10
272.834
20
-83.9208
11
273.145
21
-83.8588
0
LINE
8
BLACK
6
CONTINUOUS
10
273.145
20
-83.8588
11
273.463
21
-83.8588
0
LINE
8
BLACK
6
CONTINUOUS
10
273.463
20
-83.8588
11
273.774
21
-83.9208
0
LINE
8
BLACK
6
CONTINUOUS
10
273.774
20
-83.9208
11
274.068
21
-84.0423
0
LINE
8
BLACK
6
CONTINUOUS
10
274.068
20
-84.0423
11
274.332
21
-84.2187
0
LINE
8
BLACK
6
CONTINUOUS
10
274.332
20
-84.2187
11
274.556
21
-84.4433
0
LINE
8
BLACK
6
CONTINUOUS
10
274.556
20
-84.4433
11
274.733
21
-84.7073
0
LINE
8
BLACK
6
CONTINUOUS
10
274.733
20
-84.7073
11
274.854
21
-85.0007
0
LINE
8
BLACK
6
CONTINUOUS
10
274.854
20
-85.0007
11
274.916
21
-85.3122
0
LINE
8
BLACK
6
CONTINUOUS
10
274.916
20
-85.3122
11
274.916
21
-85.6298
0
LINE
8
BLACK
6
CONTINUOUS
10
274.916
20
-85.6298
11
274.854
21
-85.9413
0
LINE
8
BLACK
6
CONTINUOUS
10
274.854
20
-85.9413
11
274.733
21
-86.2347
0
LINE
8
BLACK
6
CONTINUOUS
10
274.733
20
-86.2347
11
274.556
21
-86.4987
0
LINE
8
BLACK
6
CONTINUOUS
10
274.556
20
-86.4987
11
274.332
21
-86.7233
0
LINE
8
BLACK
6
CONTINUOUS
10
274.332
20
-86.7233
11
274.068
21
-86.8997
0
LINE
8
BLACK
6
CONTINUOUS
10
274.068
20
-86.8997
11
273.774
21
-87.0212
0
LINE
8
BLACK
6
CONTINUOUS
10
273.774
20
-87.0212
11
273.463
21
-87.0832
0
LINE
8
BLACK
6
CONTINUOUS
10
273.463
20
-87.0832
11
273.145
21
-87.0832
0
LINE
8
BLACK
6
CONTINUOUS
10
273.145
20
-87.0832
11
272.834
21
-87.0212
0
LINE
8
BLACK
6
CONTINUOUS
10
272.834
20
-87.0212
11
272.54
21
-86.8997
0
LINE
8
BLACK
6
CONTINUOUS
10
272.54
20
-86.8997
11
272.276
21
-86.7233
0
LINE
8
BLACK
6
CONTINUOUS
10
272.276
20
-86.7233
11
272.052
21
-86.4987
0
LINE
8
BLACK
6
CONTINUOUS
10
272.052
20
-86.4987
11
271.875
21
-86.2347
0
LINE
8
BLACK
6
CONTINUOUS
10
271.875
20
-86.2347
11
271.754
21
-85.9413
0
LINE
8
BLACK
6
CONTINUOUS
10
271.754
20
-85.9413
11
271.692
21
-85.6298
0
LINE
8
BLACK
6
CONTINUOUS
10
271.692
20
-85.6298
11
271.692
21
-85.3122
0
LINE
8
BLACK
6
CONTINUOUS
10
271.692
20
-85.3122
11
271.754
21
-85.0007
0
LINE
8
BLACK
6
CONTINUOUS
10
271.869
20
-85.9064
11
271.981
21
-86.1781
0
LINE
8
BLACK
6
CONTINUOUS
10
271.981
20
-86.1781
11
272.144
21
-86.4226
0
LINE
8
BLACK
6
CONTINUOUS
10
272.144
20
-86.4226
11
272.352
21
-86.6305
0
LINE
8
BLACK
6
CONTINUOUS
10
272.352
20
-86.6305
11
272.597
21
-86.7939
0
LINE
8
BLACK
6
CONTINUOUS
10
272.597
20
-86.7939
11
272.869
21
-86.9064
0
LINE
8
BLACK
6
CONTINUOUS
10
272.869
20
-86.9064
11
273.157
21
-86.9638
0
LINE
8
BLACK
6
CONTINUOUS
10
273.157
20
-86.9638
11
273.451
21
-86.9638
0
LINE
8
BLACK
6
CONTINUOUS
10
273.451
20
-86.9638
11
273.739
21
-86.9064
0
LINE
8
BLACK
6
CONTINUOUS
10
273.739
20
-86.9064
11
274.011
21
-86.7939
0
LINE
8
BLACK
6
CONTINUOUS
10
274.011
20
-86.7939
11
274.256
21
-86.6305
0
LINE
8
BLACK
6
CONTINUOUS
10
274.256
20
-86.6305
11
274.464
21
-86.4226
0
LINE
8
BLACK
6
CONTINUOUS
10
274.464
20
-86.4226
11
274.627
21
-86.1781
0
LINE
8
BLACK
6
CONTINUOUS
10
274.627
20
-86.1781
11
274.739
21
-85.9064
0
LINE
8
BLACK
6
CONTINUOUS
10
274.739
20
-85.9064
11
274.797
21
-85.618
0
LINE
8
BLACK
6
CONTINUOUS
10
274.797
20
-85.618
11
274.797
21
-85.324
0
LINE
8
BLACK
6
CONTINUOUS
10
274.797
20
-85.324
11
274.739
21
-85.0356
0
LINE
8
BLACK
6
CONTINUOUS
10
274.739
20
-85.0356
11
274.627
21
-84.7639
0
LINE
8
BLACK
6
CONTINUOUS
10
274.627
20
-84.7639
11
274.464
21
-84.5194
0
LINE
8
BLACK
6
CONTINUOUS
10
274.464
20
-84.5194
11
274.256
21
-84.3115
0
LINE
8
BLACK
6
CONTINUOUS
10
274.256
20
-84.3115
11
274.011
21
-84.1481
0
LINE
8
BLACK
6
CONTINUOUS
10
274.011
20
-84.1481
11
273.739
21
-84.0356
0
LINE
8
BLACK
6
CONTINUOUS
10
273.739
20
-84.0356
11
273.451
21
-83.9782
0
LINE
8
BLACK
6
CONTINUOUS
10
273.451
20
-83.9782
11
273.157
21
-83.9782
0
LINE
8
BLACK
6
CONTINUOUS
10
273.157
20
-83.9782
11
272.869
21
-84.0356
0
LINE
8
BLACK
6
CONTINUOUS
10
272.869
20
-84.0356
11
272.597
21
-84.1481
0
LINE
8
BLACK
6
CONTINUOUS
10
272.597
20
-84.1481
11
272.352
21
-84.3115
0
LINE
8
BLACK
6
CONTINUOUS
10
272.352
20
-84.3115
11
272.144
21
-84.5194
0
LINE
8
BLACK
6
CONTINUOUS
10
272.144
20
-84.5194
11
271.981
21
-84.7639
0
LINE
8
BLACK
6
CONTINUOUS
10
271.981
20
-84.7639
11
271.869
21
-85.0356
0
LINE
8
BLACK
6
CONTINUOUS
10
271.869
20
-85.0356
11
271.811
21
-85.324
0
LINE
8
BLACK
6
CONTINUOUS
10
271.811
20
-85.324
11
271.811
21
-85.618
0
LINE
8
BLACK
6
CONTINUOUS
10
271.811
20
-85.618
11
271.869
21
-85.9064
0
LINE
8
BLACK
6
CONTINUOUS
10
358.114
20
-84.8737
11
358.235
21
-84.5803
0
LINE
8
BLACK
6
CONTINUOUS
10
358.235
20
-84.5803
11
358.412
21
-84.3163
0
LINE
8
BLACK
6
CONTINUOUS
10
358.412
20
-84.3163
11
358.636
21
-84.0917
0
LINE
8
BLACK
6
CONTINUOUS
10
358.636
20
-84.0917
11
358.9
21
-83.9153
0
LINE
8
BLACK
6
CONTINUOUS
10
358.9
20
-83.9153
11
359.194
21
-83.7938
0
LINE
8
BLACK
6
CONTINUOUS
10
359.194
20
-83.7938
11
359.505
21
-83.7318
0
LINE
8
BLACK
6
CONTINUOUS
10
359.505
20
-83.7318
11
359.823
21
-83.7318
0
LINE
8
BLACK
6
CONTINUOUS
10
359.823
20
-83.7318
11
360.134
21
-83.7938
0
LINE
8
BLACK
6
CONTINUOUS
10
360.134
20
-83.7938
11
360.428
21
-83.9153
0
LINE
8
BLACK
6
CONTINUOUS
10
360.428
20
-83.9153
11
360.692
21
-84.0917
0
LINE
8
BLACK
6
CONTINUOUS
10
360.692
20
-84.0917
11
360.916
21
-84.3163
0
LINE
8
BLACK
6
CONTINUOUS
10
360.916
20
-84.3163
11
361.093
21
-84.5803
0
LINE
8
BLACK
6
CONTINUOUS
10
361.093
20
-84.5803
11
361.214
21
-84.8737
0
LINE
8
BLACK
6
CONTINUOUS
10
361.214
20
-84.8737
11
361.276
21
-85.1852
0
LINE
8
BLACK
6
CONTINUOUS
10
361.276
20
-85.1852
11
361.276
21
-85.5028
0
LINE
8
BLACK
6
CONTINUOUS
10
361.276
20
-85.5028
11
361.214
21
-85.8143
0
LINE
8
BLACK
6
CONTINUOUS
10
361.214
20
-85.8143
11
361.093
21
-86.1077
0
LINE
8
BLACK
6
CONTINUOUS
10
361.093
20
-86.1077
11
360.916
21
-86.3717
0
LINE
8
BLACK
6
CONTINUOUS
10
360.916
20
-86.3717
11
360.692
21
-86.5963
0
LINE
8
BLACK
6
CONTINUOUS
10
360.692
20
-86.5963
11
360.428
21
-86.7727
0
LINE
8
BLACK
6
CONTINUOUS
10
360.428
20
-86.7727
11
360.134
21
-86.8942
0
LINE
8
BLACK
6
CONTINUOUS
10
360.134
20
-86.8942
11
359.823
21
-86.9562
0
LINE
8
BLACK
6
CONTINUOUS
10
359.823
20
-86.9562
11
359.505
21
-86.9562
0
LINE
8
BLACK
6
CONTINUOUS
10
359.505
20
-86.9562
11
359.194
21
-86.8942
0
LINE
8
BLACK
6
CONTINUOUS
10
359.194
20
-86.8942
11
358.9
21
-86.7727
0
LINE
8
BLACK
6
CONTINUOUS
10
358.9
20
-86.7727
11
358.636
21
-86.5963
0
LINE
8
BLACK
6
CONTINUOUS
10
358.636
20
-86.5963
11
358.412
21
-86.3717
0
LINE
8
BLACK
6
CONTINUOUS
10
358.412
20
-86.3717
11
358.235
21
-86.1077
0
LINE
8
BLACK
6
CONTINUOUS
10
358.235
20
-86.1077
11
358.114
21
-85.8143
0
LINE
8
BLACK
6
CONTINUOUS
10
358.114
20
-85.8143
11
358.052
21
-85.5028
0
LINE
8
BLACK
6
CONTINUOUS
10
358.052
20
-85.5028
11
358.052
21
-85.1852
0
LINE
8
BLACK
6
CONTINUOUS
10
358.052
20
-85.1852
11
358.114
21
-84.8737
0
LINE
8
BLACK
6
CONTINUOUS
10
358.229
20
-85.7794
11
358.341
21
-86.0511
0
LINE
8
BLACK
6
CONTINUOUS
10
358.341
20
-86.0511
11
358.504
21
-86.2956
0
LINE
8
BLACK
6
CONTINUOUS
10
358.504
20
-86.2956
11
358.712
21
-86.5035
0
LINE
8
BLACK
6
CONTINUOUS
10
358.712
20
-86.5035
11
358.957
21
-86.6669
0
LINE
8
BLACK
6
CONTINUOUS
10
358.957
20
-86.6669
11
359.229
21
-86.7794
0
LINE
8
BLACK
6
CONTINUOUS
10
359.229
20
-86.7794
11
359.517
21
-86.8368
0
LINE
8
BLACK
6
CONTINUOUS
10
359.517
20
-86.8368
11
359.811
21
-86.8368
0
LINE
8
BLACK
6
CONTINUOUS
10
359.811
20
-86.8368
11
360.099
21
-86.7794
0
LINE
8
BLACK
6
CONTINUOUS
10
360.099
20
-86.7794
11
360.371
21
-86.6669
0
LINE
8
BLACK
6
CONTINUOUS
10
360.371
20
-86.6669
11
360.616
21
-86.5035
0
LINE
8
BLACK
6
CONTINUOUS
10
360.616
20
-86.5035
11
360.824
21
-86.2956
0
LINE
8
BLACK
6
CONTINUOUS
10
360.824
20
-86.2956
11
360.987
21
-86.0511
0
LINE
8
BLACK
6
CONTINUOUS
10
360.987
20
-86.0511
11
361.099
21
-85.7794
0
LINE
8
BLACK
6
CONTINUOUS
10
361.099
20
-85.7794
11
361.157
21
-85.491
0
LINE
8
BLACK
6
CONTINUOUS
10
361.157
20
-85.491
11
361.157
21
-85.197
0
LINE
8
BLACK
6
CONTINUOUS
10
361.157
20
-85.197
11
361.099
21
-84.9086
0
LINE
8
BLACK
6
CONTINUOUS
10
361.099
20
-84.9086
11
360.987
21
-84.6369
0
LINE
8
BLACK
6
CONTINUOUS
10
360.987
20
-84.6369
11
360.824
21
-84.3924
0
LINE
8
BLACK
6
CONTINUOUS
10
360.824
20
-84.3924
11
360.616
21
-84.1845
0
LINE
8
BLACK
6
CONTINUOUS
10
360.616
20
-84.1845
11
360.371
21
-84.0211
0
LINE
8
BLACK
6
CONTINUOUS
10
360.371
20
-84.0211
11
360.099
21
-83.9086
0
LINE
8
BLACK
6
CONTINUOUS
10
360.099
20
-83.9086
11
359.811
21
-83.8512
0
LINE
8
BLACK
6
CONTINUOUS
10
359.811
20
-83.8512
11
359.517
21
-83.8512
0
LINE
8
BLACK
6
CONTINUOUS
10
359.517
20
-83.8512
11
359.229
21
-83.9086
0
LINE
8
BLACK
6
CONTINUOUS
10
359.229
20
-83.9086
11
358.957
21
-84.0211
0
LINE
8
BLACK
6
CONTINUOUS
10
358.957
20
-84.0211
11
358.712
21
-84.1845
0
LINE
8
BLACK
6
CONTINUOUS
10
358.712
20
-84.1845
11
358.504
21
-84.3924
0
LINE
8
BLACK
6
CONTINUOUS
10
358.504
20
-84.3924
11
358.341
21
-84.6369
0
LINE
8
BLACK
6
CONTINUOUS
10
358.341
20
-84.6369
11
358.229
21
-84.9086
0
LINE
8
BLACK
6
CONTINUOUS
10
358.229
20
-84.9086
11
358.171
21
-85.197
0
LINE
8
BLACK
6
CONTINUOUS
10
358.171
20
-85.197
11
358.171
21
-85.491
0
LINE
8
BLACK
6
CONTINUOUS
10
358.171
20
-85.491
11
358.229
21
-85.7794
0
LINE
8
BLACK
6
CONTINUOUS
10
209.27
20
-65.8237
11
209.391
21
-65.5303
0
LINE
8
BLACK
6
CONTINUOUS
10
209.391
20
-65.5303
11
209.568
21
-65.2663
0
LINE
8
BLACK
6
CONTINUOUS
10
209.568
20
-65.2663
11
209.792
21
-65.0417
0
LINE
8
BLACK
6
CONTINUOUS
10
209.792
20
-65.0417
11
210.056
21
-64.8653
0
LINE
8
BLACK
6
CONTINUOUS
10
210.056
20
-64.8653
11
210.35
21
-64.7438
0
LINE
8
BLACK
6
CONTINUOUS
10
210.35
20
-64.7438
11
210.661
21
-64.6818
0
LINE
8
BLACK
6
CONTINUOUS
10
210.661
20
-64.6818
11
210.979
21
-64.6818
0
LINE
8
BLACK
6
CONTINUOUS
10
210.979
20
-64.6818
11
211.29
21
-64.7438
0
LINE
8
BLACK
6
CONTINUOUS
10
211.29
20
-64.7438
11
211.584
21
-64.8653
0
LINE
8
BLACK
6
CONTINUOUS
10
211.584
20
-64.8653
11
211.848
21
-65.0417
0
LINE
8
BLACK
6
CONTINUOUS
10
211.848
20
-65.0417
11
212.072
21
-65.2663
0
LINE
8
BLACK
6
CONTINUOUS
10
212.072
20
-65.2663
11
212.249
21
-65.5303
0
LINE
8
BLACK
6
CONTINUOUS
10
212.249
20
-65.5303
11
212.37
21
-65.8237
0
LINE
8
BLACK
6
CONTINUOUS
10
212.37
20
-65.8237
11
212.432
21
-66.1352
0
LINE
8
BLACK
6
CONTINUOUS
10
212.432
20
-66.1352
11
212.432
21
-66.4528
0
LINE
8
BLACK
6
CONTINUOUS
10
212.432
20
-66.4528
11
212.37
21
-66.7643
0
LINE
8
BLACK
6
CONTINUOUS
10
212.37
20
-66.7643
11
212.249
21
-67.0577
0
LINE
8
BLACK
6
CONTINUOUS
10
212.249
20
-67.0577
11
212.072
21
-67.3217
0
LINE
8
BLACK
6
CONTINUOUS
10
212.072
20
-67.3217
11
211.848
21
-67.5463
0
LINE
8
BLACK
6
CONTINUOUS
10
211.848
20
-67.5463
11
211.584
21
-67.7227
0
LINE
8
BLACK
6
CONTINUOUS
10
211.584
20
-67.7227
11
211.29
21
-67.8442
0
LINE
8
BLACK
6
CONTINUOUS
10
211.29
20
-67.8442
11
210.979
21
-67.9062
0
LINE
8
BLACK
6
CONTINUOUS
10
210.979
20
-67.9062
11
210.661
21
-67.9062
0
LINE
8
BLACK
6
CONTINUOUS
10
210.661
20
-67.9062
11
210.35
21
-67.8442
0
LINE
8
BLACK
6
CONTINUOUS
10
210.35
20
-67.8442
11
210.056
21
-67.7227
0
LINE
8
BLACK
6
CONTINUOUS
10
210.056
20
-67.7227
11
209.792
21
-67.5463
0
LINE
8
BLACK
6
CONTINUOUS
10
209.792
20
-67.5463
11
209.568
21
-67.3217
0
LINE
8
BLACK
6
CONTINUOUS
10
209.568
20
-67.3217
11
209.391
21
-67.0577
0
LINE
8
BLACK
6
CONTINUOUS
10
209.391
20
-67.0577
11
209.27
21
-66.7643
0
LINE
8
BLACK
6
CONTINUOUS
10
209.27
20
-66.7643
11
209.208
21
-66.4528
0
LINE
8
BLACK
6
CONTINUOUS
10
209.208
20
-66.4528
11
209.208
21
-66.1352
0
LINE
8
BLACK
6
CONTINUOUS
10
209.208
20
-66.1352
11
209.27
21
-65.8237
0
LINE
8
BLACK
6
CONTINUOUS
10
209.385
20
-66.7294
11
209.497
21
-67.0011
0
LINE
8
BLACK
6
CONTINUOUS
10
209.497
20
-67.0011
11
209.66
21
-67.2456
0
LINE
8
BLACK
6
CONTINUOUS
10
209.66
20
-67.2456
11
209.868
21
-67.4535
0
LINE
8
BLACK
6
CONTINUOUS
10
209.868
20
-67.4535
11
210.113
21
-67.6169
0
LINE
8
BLACK
6
CONTINUOUS
10
210.113
20
-67.6169
11
210.385
21
-67.7294
0
LINE
8
BLACK
6
CONTINUOUS
10
210.385
20
-67.7294
11
210.673
21
-67.7868
0
LINE
8
BLACK
6
CONTINUOUS
10
210.673
20
-67.7868
11
210.967
21
-67.7868
0
LINE
8
BLACK
6
CONTINUOUS
10
210.967
20
-67.7868
11
211.255
21
-67.7294
0
LINE
8
BLACK
6
CONTINUOUS
10
211.255
20
-67.7294
11
211.527
21
-67.6169
0
LINE
8
BLACK
6
CONTINUOUS
10
211.527
20
-67.6169
11
211.772
21
-67.4535
0
LINE
8
BLACK
6
CONTINUOUS
10
211.772
20
-67.4535
11
211.98
21
-67.2456
0
LINE
8
BLACK
6
CONTINUOUS
10
211.98
20
-67.2456
11
212.143
21
-67.0011
0
LINE
8
BLACK
6
CONTINUOUS
10
212.143
20
-67.0011
11
212.255
21
-66.7294
0
LINE
8
BLACK
6
CONTINUOUS
10
212.255
20
-66.7294
11
212.313
21
-66.441
0
LINE
8
BLACK
6
CONTINUOUS
10
212.313
20
-66.441
11
212.313
21
-66.147
0
LINE
8
BLACK
6
CONTINUOUS
10
212.313
20
-66.147
11
212.255
21
-65.8586
0
LINE
8
BLACK
6
CONTINUOUS
10
212.255
20
-65.8586
11
212.143
21
-65.5869
0
LINE
8
BLACK
6
CONTINUOUS
10
212.143
20
-65.5869
11
211.98
21
-65.3424
0
LINE
8
BLACK
6
CONTINUOUS
10
211.98
20
-65.3424
11
211.772
21
-65.1345
0
LINE
8
BLACK
6
CONTINUOUS
10
211.772
20
-65.1345
11
211.527
21
-64.9711
0
LINE
8
BLACK
6
CONTINUOUS
10
211.527
20
-64.9711
11
211.255
21
-64.8586
0
LINE
8
BLACK
6
CONTINUOUS
10
211.255
20
-64.8586
11
210.967
21
-64.8012
0
LINE
8
BLACK
6
CONTINUOUS
10
210.967
20
-64.8012
11
210.673
21
-64.8012
0
LINE
8
BLACK
6
CONTINUOUS
10
210.673
20
-64.8012
11
210.385
21
-64.8586
0
LINE
8
BLACK
6
CONTINUOUS
10
210.385
20
-64.8586
11
210.113
21
-64.9711
0
LINE
8
BLACK
6
CONTINUOUS
10
210.113
20
-64.9711
11
209.868
21
-65.1345
0
LINE
8
BLACK
6
CONTINUOUS
10
209.868
20
-65.1345
11
209.66
21
-65.3424
0
LINE
8
BLACK
6
CONTINUOUS
10
209.66
20
-65.3424
11
209.497
21
-65.5869
0
LINE
8
BLACK
6
CONTINUOUS
10
209.497
20
-65.5869
11
209.385
21
-65.8586
0
LINE
8
BLACK
6
CONTINUOUS
10
209.385
20
-65.8586
11
209.327
21
-66.147
0
LINE
8
BLACK
6
CONTINUOUS
10
209.327
20
-66.147
11
209.327
21
-66.441
0
LINE
8
BLACK
6
CONTINUOUS
10
209.327
20
-66.441
11
209.385
21
-66.7294
0
LINE
8
BLACK
6
CONTINUOUS
10
133.705
20
-65.8237
11
133.826
21
-65.5303
0
LINE
8
BLACK
6
CONTINUOUS
10
133.826
20
-65.5303
11
134.003
21
-65.2663
0
LINE
8
BLACK
6
CONTINUOUS
10
134.003
20
-65.2663
11
134.227
21
-65.0417
0
LINE
8
BLACK
6
CONTINUOUS
10
134.227
20
-65.0417
11
134.491
21
-64.8653
0
LINE
8
BLACK
6
CONTINUOUS
10
134.491
20
-64.8653
11
134.785
21
-64.7438
0
LINE
8
BLACK
6
CONTINUOUS
10
134.785
20
-64.7438
11
135.096
21
-64.6818
0
LINE
8
BLACK
6
CONTINUOUS
10
135.096
20
-64.6818
11
135.414
21
-64.6818
0
LINE
8
BLACK
6
CONTINUOUS
10
135.414
20
-64.6818
11
135.725
21
-64.7438
0
LINE
8
BLACK
6
CONTINUOUS
10
135.725
20
-64.7438
11
136.019
21
-64.8653
0
LINE
8
BLACK
6
CONTINUOUS
10
136.019
20
-64.8653
11
136.283
21
-65.0417
0
LINE
8
BLACK
6
CONTINUOUS
10
136.283
20
-65.0417
11
136.507
21
-65.2663
0
LINE
8
BLACK
6
CONTINUOUS
10
136.507
20
-65.2663
11
136.684
21
-65.5303
0
LINE
8
BLACK
6
CONTINUOUS
10
136.684
20
-65.5303
11
136.805
21
-65.8237
0
LINE
8
BLACK
6
CONTINUOUS
10
136.805
20
-65.8237
11
136.867
21
-66.1352
0
LINE
8
BLACK
6
CONTINUOUS
10
136.867
20
-66.1352
11
136.867
21
-66.4528
0
LINE
8
BLACK
6
CONTINUOUS
10
136.867
20
-66.4528
11
136.805
21
-66.7643
0
LINE
8
BLACK
6
CONTINUOUS
10
136.805
20
-66.7643
11
136.684
21
-67.0577
0
LINE
8
BLACK
6
CONTINUOUS
10
136.684
20
-67.0577
11
136.507
21
-67.3217
0
LINE
8
BLACK
6
CONTINUOUS
10
136.507
20
-67.3217
11
136.283
21
-67.5463
0
LINE
8
BLACK
6
CONTINUOUS
10
136.283
20
-67.5463
11
136.019
21
-67.7227
0
LINE
8
BLACK
6
CONTINUOUS
10
136.019
20
-67.7227
11
135.725
21
-67.8442
0
LINE
8
BLACK
6
CONTINUOUS
10
135.725
20
-67.8442
11
135.414
21
-67.9062
0
LINE
8
BLACK
6
CONTINUOUS
10
135.414
20
-67.9062
11
135.096
21
-67.9062
0
LINE
8
BLACK
6
CONTINUOUS
10
135.096
20
-67.9062
11
134.785
21
-67.8442
0
LINE
8
BLACK
6
CONTINUOUS
10
134.785
20
-67.8442
11
134.491
21
-67.7227
0
LINE
8
BLACK
6
CONTINUOUS
10
134.491
20
-67.7227
11
134.227
21
-67.5463
0
LINE
8
BLACK
6
CONTINUOUS
10
134.227
20
-67.5463
11
134.003
21
-67.3217
0
LINE
8
BLACK
6
CONTINUOUS
10
134.003
20
-67.3217
11
133.826
21
-67.0577
0
LINE
8
BLACK
6
CONTINUOUS
10
133.826
20
-67.0577
11
133.705
21
-66.7643
0
LINE
8
BLACK
6
CONTINUOUS
10
133.705
20
-66.7643
11
133.643
21
-66.4528
0
LINE
8
BLACK
6
CONTINUOUS
10
133.643
20
-66.4528
11
133.643
21
-66.1352
0
LINE
8
BLACK
6
CONTINUOUS
10
133.643
20
-66.1352
11
133.705
21
-65.8237
0
LINE
8
BLACK
6
CONTINUOUS
10
133.82
20
-66.7294
11
133.932
21
-67.0011
0
LINE
8
BLACK
6
CONTINUOUS
10
133.932
20
-67.0011
11
134.095
21
-67.2456
0
LINE
8
BLACK
6
CONTINUOUS
10
134.095
20
-67.2456
11
134.303
21
-67.4535
0
LINE
8
BLACK
6
CONTINUOUS
10
134.303
20
-67.4535
11
134.548
21
-67.6169
0
LINE
8
BLACK
6
CONTINUOUS
10
134.548
20
-67.6169
11
134.82
21
-67.7294
0
LINE
8
BLACK
6
CONTINUOUS
10
134.82
20
-67.7294
11
135.108
21
-67.7868
0
LINE
8
BLACK
6
CONTINUOUS
10
135.108
20
-67.7868
11
135.402
21
-67.7868
0
LINE
8
BLACK
6
CONTINUOUS
10
135.402
20
-67.7868
11
135.69
21
-67.7294
0
LINE
8
BLACK
6
CONTINUOUS
10
135.69
20
-67.7294
11
135.962
21
-67.6169
0
LINE
8
BLACK
6
CONTINUOUS
10
135.962
20
-67.6169
11
136.207
21
-67.4535
0
LINE
8
BLACK
6
CONTINUOUS
10
136.207
20
-67.4535
11
136.415
21
-67.2456
0
LINE
8
BLACK
6
CONTINUOUS
10
136.415
20
-67.2456
11
136.578
21
-67.0011
0
LINE
8
BLACK
6
CONTINUOUS
10
136.578
20
-67.0011
11
136.69
21
-66.7294
0
LINE
8
BLACK
6
CONTINUOUS
10
136.69
20
-66.7294
11
136.748
21
-66.441
0
LINE
8
BLACK
6
CONTINUOUS
10
136.748
20
-66.441
11
136.748
21
-66.147
0
LINE
8
BLACK
6
CONTINUOUS
10
136.748
20
-66.147
11
136.69
21
-65.8586
0
LINE
8
BLACK
6
CONTINUOUS
10
136.69
20
-65.8586
11
136.578
21
-65.5869
0
LINE
8
BLACK
6
CONTINUOUS
10
136.578
20
-65.5869
11
136.415
21
-65.3424
0
LINE
8
BLACK
6
CONTINUOUS
10
136.415
20
-65.3424
11
136.207
21
-65.1345
0
LINE
8
BLACK
6
CONTINUOUS
10
136.207
20
-65.1345
11
135.962
21
-64.9711
0
LINE
8
BLACK
6
CONTINUOUS
10
135.962
20
-64.9711
11
135.69
21
-64.8586
0
LINE
8
BLACK
6
CONTINUOUS
10
135.69
20
-64.8586
11
135.402
21
-64.8012
0
LINE
8
BLACK
6
CONTINUOUS
10
135.402
20
-64.8012
11
135.108
21
-64.8012
0
LINE
8
BLACK
6
CONTINUOUS
10
135.108
20
-64.8012
11
134.82
21
-64.8586
0
LINE
8
BLACK
6
CONTINUOUS
10
134.82
20
-64.8586
11
134.548
21
-64.9711
0
LINE
8
BLACK
6
CONTINUOUS
10
134.548
20
-64.9711
11
134.303
21
-65.1345
0
LINE
8
BLACK
6
CONTINUOUS
10
134.303
20
-65.1345
11
134.095
21
-65.3424
0
LINE
8
BLACK
6
CONTINUOUS
10
134.095
20
-65.3424
11
133.932
21
-65.5869
0
LINE
8
BLACK
6
CONTINUOUS
10
133.932
20
-65.5869
11
133.82
21
-65.8586
0
LINE
8
BLACK
6
CONTINUOUS
10
133.82
20
-65.8586
11
133.762
21
-66.147
0
LINE
8
BLACK
6
CONTINUOUS
10
133.762
20
-66.147
11
133.762
21
-66.441
0
LINE
8
BLACK
6
CONTINUOUS
10
133.762
20
-66.441
11
133.82
21
-66.7294
0
LINE
8
BLACK
6
CONTINUOUS
10
339.191
20
-65.8237
11
339.312
21
-65.5303
0
LINE
8
BLACK
6
CONTINUOUS
10
339.312
20
-65.5303
11
339.489
21
-65.2663
0
LINE
8
BLACK
6
CONTINUOUS
10
339.489
20
-65.2663
11
339.713
21
-65.0417
0
LINE
8
BLACK
6
CONTINUOUS
10
339.713
20
-65.0417
11
339.977
21
-64.8653
0
LINE
8
BLACK
6
CONTINUOUS
10
339.977
20
-64.8653
11
340.271
21
-64.7438
0
LINE
8
BLACK
6
CONTINUOUS
10
340.271
20
-64.7438
11
340.582
21
-64.6818
0
LINE
8
BLACK
6
CONTINUOUS
10
340.582
20
-64.6818
11
340.9
21
-64.6818
0
LINE
8
BLACK
6
CONTINUOUS
10
340.9
20
-64.6818
11
341.211
21
-64.7438
0
LINE
8
BLACK
6
CONTINUOUS
10
341.211
20
-64.7438
11
341.505
21
-64.8653
0
LINE
8
BLACK
6
CONTINUOUS
10
341.505
20
-64.8653
11
341.769
21
-65.0417
0
LINE
8
BLACK
6
CONTINUOUS
10
341.769
20
-65.0417
11
341.993
21
-65.2663
0
LINE
8
BLACK
6
CONTINUOUS
10
341.993
20
-65.2663
11
342.17
21
-65.5303
0
LINE
8
BLACK
6
CONTINUOUS
10
342.17
20
-65.5303
11
342.291
21
-65.8237
0
LINE
8
BLACK
6
CONTINUOUS
10
342.291
20
-65.8237
11
342.353
21
-66.1352
0
LINE
8
BLACK
6
CONTINUOUS
10
342.353
20
-66.1352
11
342.353
21
-66.4528
0
LINE
8
BLACK
6
CONTINUOUS
10
342.353
20
-66.4528
11
342.291
21
-66.7643
0
LINE
8
BLACK
6
CONTINUOUS
10
342.291
20
-66.7643
11
342.17
21
-67.0577
0
LINE
8
BLACK
6
CONTINUOUS
10
342.17
20
-67.0577
11
341.993
21
-67.3217
0
LINE
8
BLACK
6
CONTINUOUS
10
341.993
20
-67.3217
11
341.769
21
-67.5463
0
LINE
8
BLACK
6
CONTINUOUS
10
341.769
20
-67.5463
11
341.505
21
-67.7227
0
LINE
8
BLACK
6
CONTINUOUS
10
341.505
20
-67.7227
11
341.211
21
-67.8442
0
LINE
8
BLACK
6
CONTINUOUS
10
341.211
20
-67.8442
11
340.9
21
-67.9062
0
LINE
8
BLACK
6
CONTINUOUS
10
340.9
20
-67.9062
11
340.582
21
-67.9062
0
LINE
8
BLACK
6
CONTINUOUS
10
340.582
20
-67.9062
11
340.271
21
-67.8442
0
LINE
8
BLACK
6
CONTINUOUS
10
340.271
20
-67.8442
11
339.977
21
-67.7227
0
LINE
8
BLACK
6
CONTINUOUS
10
339.977
20
-67.7227
11
339.713
21
-67.5463
0
LINE
8
BLACK
6
CONTINUOUS
10
339.713
20
-67.5463
11
339.489
21
-67.3217
0
LINE
8
BLACK
6
CONTINUOUS
10
339.489
20
-67.3217
11
339.312
21
-67.0577
0
LINE
8
BLACK
6
CONTINUOUS
10
339.312
20
-67.0577
11
339.191
21
-66.7643
0
LINE
8
BLACK
6
CONTINUOUS
10
339.191
20
-66.7643
11
339.129
21
-66.4528
0
LINE
8
BLACK
6
CONTINUOUS
10
339.129
20
-66.4528
11
339.129
21
-66.1352
0
LINE
8
BLACK
6
CONTINUOUS
10
339.129
20
-66.1352
11
339.191
21
-65.8237
0
LINE
8
BLACK
6
CONTINUOUS
10
339.306
20
-66.7294
11
339.418
21
-67.0011
0
LINE
8
BLACK
6
CONTINUOUS
10
339.418
20
-67.0011
11
339.581
21
-67.2456
0
LINE
8
BLACK
6
CONTINUOUS
10
339.581
20
-67.2456
11
339.789
21
-67.4535
0
LINE
8
BLACK
6
CONTINUOUS
10
339.789
20
-67.4535
11
340.034
21
-67.6169
0
LINE
8
BLACK
6
CONTINUOUS
10
340.034
20
-67.6169
11
340.306
21
-67.7294
0
LINE
8
BLACK
6
CONTINUOUS
10
340.306
20
-67.7294
11
340.594
21
-67.7868
0
LINE
8
BLACK
6
CONTINUOUS
10
340.594
20
-67.7868
11
340.888
21
-67.7868
0
LINE
8
BLACK
6
CONTINUOUS
10
340.888
20
-67.7868
11
341.176
21
-67.7294
0
LINE
8
BLACK
6
CONTINUOUS
10
341.176
20
-67.7294
11
341.448
21
-67.6169
0
LINE
8
BLACK
6
CONTINUOUS
10
341.448
20
-67.6169
11
341.693
21
-67.4535
0
LINE
8
BLACK
6
CONTINUOUS
10
341.693
20
-67.4535
11
341.901
21
-67.2456
0
LINE
8
BLACK
6
CONTINUOUS
10
341.901
20
-67.2456
11
342.064
21
-67.0011
0
LINE
8
BLACK
6
CONTINUOUS
10
342.064
20
-67.0011
11
342.176
21
-66.7294
0
LINE
8
BLACK
6
CONTINUOUS
10
342.176
20
-66.7294
11
342.234
21
-66.441
0
LINE
8
BLACK
6
CONTINUOUS
10
342.234
20
-66.441
11
342.234
21
-66.147
0
LINE
8
BLACK
6
CONTINUOUS
10
342.234
20
-66.147
11
342.176
21
-65.8586
0
LINE
8
BLACK
6
CONTINUOUS
10
342.176
20
-65.8586
11
342.064
21
-65.5869
0
LINE
8
BLACK
6
CONTINUOUS
10
342.064
20
-65.5869
11
341.901
21
-65.3424
0
LINE
8
BLACK
6
CONTINUOUS
10
341.901
20
-65.3424
11
341.693
21
-65.1345
0
LINE
8
BLACK
6
CONTINUOUS
10
341.693
20
-65.1345
11
341.448
21
-64.9711
0
LINE
8
BLACK
6
CONTINUOUS
10
341.448
20
-64.9711
11
341.176
21
-64.8586
0
LINE
8
BLACK
6
CONTINUOUS
10
341.176
20
-64.8586
11
340.888
21
-64.8012
0
LINE
8
BLACK
6
CONTINUOUS
10
340.888
20
-64.8012
11
340.594
21
-64.8012
0
LINE
8
BLACK
6
CONTINUOUS
10
340.594
20
-64.8012
11
340.306
21
-64.8586
0
LINE
8
BLACK
6
CONTINUOUS
10
340.306
20
-64.8586
11
340.034
21
-64.9711
0
LINE
8
BLACK
6
CONTINUOUS
10
340.034
20
-64.9711
11
339.789
21
-65.1345
0
LINE
8
BLACK
6
CONTINUOUS
10
339.789
20
-65.1345
11
339.581
21
-65.3424
0
LINE
8
BLACK
6
CONTINUOUS
10
339.581
20
-65.3424
11
339.418
21
-65.5869
0
LINE
8
BLACK
6
CONTINUOUS
10
339.418
20
-65.5869
11
339.306
21
-65.8586
0
LINE
8
BLACK
6
CONTINUOUS
10
339.306
20
-65.8586
11
339.248
21
-66.147
0
LINE
8
BLACK
6
CONTINUOUS
10
339.248
20
-66.147
11
339.248
21
-66.441
0
LINE
8
BLACK
6
CONTINUOUS
10
339.248
20
-66.441
11
339.306
21
-66.7294
0
LINE
8
BLACK
6
CONTINUOUS
10
311.632
20
-65.6967
11
311.753
21
-65.4033
0
LINE
8
BLACK
6
CONTINUOUS
10
311.753
20
-65.4033
11
311.93
21
-65.1393
0
LINE
8
BLACK
6
CONTINUOUS
10
311.93
20
-65.1393
11
312.154
21
-64.9147
0
LINE
8
BLACK
6
CONTINUOUS
10
312.154
20
-64.9147
11
312.418
21
-64.7383
0
LINE
8
BLACK
6
CONTINUOUS
10
312.418
20
-64.7383
11
312.712
21
-64.6168
0
LINE
8
BLACK
6
CONTINUOUS
10
312.712
20
-64.6168
11
313.023
21
-64.5548
0
LINE
8
BLACK
6
CONTINUOUS
10
313.023
20
-64.5548
11
313.341
21
-64.5548
0
LINE
8
BLACK
6
CONTINUOUS
10
313.341
20
-64.5548
11
313.652
21
-64.6168
0
LINE
8
BLACK
6
CONTINUOUS
10
313.652
20
-64.6168
11
313.946
21
-64.7383
0
LINE
8
BLACK
6
CONTINUOUS
10
313.946
20
-64.7383
11
314.21
21
-64.9147
0
LINE
8
BLACK
6
CONTINUOUS
10
314.21
20
-64.9147
11
314.434
21
-65.1393
0
LINE
8
BLACK
6
CONTINUOUS
10
314.434
20
-65.1393
11
314.611
21
-65.4033
0
LINE
8
BLACK
6
CONTINUOUS
10
314.611
20
-65.4033
11
314.732
21
-65.6967
0
LINE
8
BLACK
6
CONTINUOUS
10
314.732
20
-65.6967
11
314.794
21
-66.0082
0
LINE
8
BLACK
6
CONTINUOUS
10
314.794
20
-66.0082
11
314.794
21
-66.3258
0
LINE
8
BLACK
6
CONTINUOUS
10
314.794
20
-66.3258
11
314.732
21
-66.6373
0
LINE
8
BLACK
6
CONTINUOUS
10
314.732
20
-66.6373
11
314.611
21
-66.9307
0
LINE
8
BLACK
6
CONTINUOUS
10
314.611
20
-66.9307
11
314.434
21
-67.1947
0
LINE
8
BLACK
6
CONTINUOUS
10
314.434
20
-67.1947
11
314.21
21
-67.4193
0
LINE
8
BLACK
6
CONTINUOUS
10
314.21
20
-67.4193
11
313.946
21
-67.5957
0
LINE
8
BLACK
6
CONTINUOUS
10
313.946
20
-67.5957
11
313.652
21
-67.7172
0
LINE
8
BLACK
6
CONTINUOUS
10
313.652
20
-67.7172
11
313.341
21
-67.7792
0
LINE
8
BLACK
6
CONTINUOUS
10
313.341
20
-67.7792
11
313.023
21
-67.7792
0
LINE
8
BLACK
6
CONTINUOUS
10
313.023
20
-67.7792
11
312.712
21
-67.7172
0
LINE
8
BLACK
6
CONTINUOUS
10
312.712
20
-67.7172
11
312.418
21
-67.5957
0
LINE
8
BLACK
6
CONTINUOUS
10
312.418
20
-67.5957
11
312.154
21
-67.4193
0
LINE
8
BLACK
6
CONTINUOUS
10
312.154
20
-67.4193
11
311.93
21
-67.1947
0
LINE
8
BLACK
6
CONTINUOUS
10
311.93
20
-67.1947
11
311.753
21
-66.9307
0
LINE
8
BLACK
6
CONTINUOUS
10
311.753
20
-66.9307
11
311.632
21
-66.6373
0
LINE
8
BLACK
6
CONTINUOUS
10
311.632
20
-66.6373
11
311.57
21
-66.3258
0
LINE
8
BLACK
6
CONTINUOUS
10
311.57
20
-66.3258
11
311.57
21
-66.0082
0
LINE
8
BLACK
6
CONTINUOUS
10
311.57
20
-66.0082
11
311.632
21
-65.6967
0
LINE
8
BLACK
6
CONTINUOUS
10
311.747
20
-66.6024
11
311.859
21
-66.8741
0
LINE
8
BLACK
6
CONTINUOUS
10
311.859
20
-66.8741
11
312.022
21
-67.1186
0
LINE
8
BLACK
6
CONTINUOUS
10
312.022
20
-67.1186
11
312.23
21
-67.3265
0
LINE
8
BLACK
6
CONTINUOUS
10
312.23
20
-67.3265
11
312.475
21
-67.4899
0
LINE
8
BLACK
6
CONTINUOUS
10
312.475
20
-67.4899
11
312.747
21
-67.6024
0
LINE
8
BLACK
6
CONTINUOUS
10
312.747
20
-67.6024
11
313.035
21
-67.6598
0
LINE
8
BLACK
6
CONTINUOUS
10
313.035
20
-67.6598
11
313.329
21
-67.6598
0
LINE
8
BLACK
6
CONTINUOUS
10
313.329
20
-67.6598
11
313.617
21
-67.6024
0
LINE
8
BLACK
6
CONTINUOUS
10
313.617
20
-67.6024
11
313.889
21
-67.4899
0
LINE
8
BLACK
6
CONTINUOUS
10
313.889
20
-67.4899
11
314.134
21
-67.3265
0
LINE
8
BLACK
6
CONTINUOUS
10
314.134
20
-67.3265
11
314.342
21
-67.1186
0
LINE
8
BLACK
6
CONTINUOUS
10
314.342
20
-67.1186
11
314.505
21
-66.8741
0
LINE
8
BLACK
6
CONTINUOUS
10
314.505
20
-66.8741
11
314.617
21
-66.6024
0
LINE
8
BLACK
6
CONTINUOUS
10
314.617
20
-66.6024
11
314.675
21
-66.314
0
LINE
8
BLACK
6
CONTINUOUS
10
314.675
20
-66.314
11
314.675
21
-66.02
0
LINE
8
BLACK
6
CONTINUOUS
10
314.675
20
-66.02
11
314.617
21
-65.7316
0
LINE
8
BLACK
6
CONTINUOUS
10
314.617
20
-65.7316
11
314.505
21
-65.4599
0
LINE
8
BLACK
6
CONTINUOUS
10
314.505
20
-65.4599
11
314.342
21
-65.2154
0
LINE
8
BLACK
6
CONTINUOUS
10
314.342
20
-65.2154
11
314.134
21
-65.0075
0
LINE
8
BLACK
6
CONTINUOUS
10
314.134
20
-65.0075
11
313.889
21
-64.8441
0
LINE
8
BLACK
6
CONTINUOUS
10
313.889
20
-64.8441
11
313.617
21
-64.7316
0
LINE
8
BLACK
6
CONTINUOUS
10
313.617
20
-64.7316
11
313.329
21
-64.6742
0
LINE
8
BLACK
6
CONTINUOUS
10
313.329
20
-64.6742
11
313.035
21
-64.6742
0
LINE
8
BLACK
6
CONTINUOUS
10
313.035
20
-64.6742
11
312.747
21
-64.7316
0
LINE
8
BLACK
6
CONTINUOUS
10
312.747
20
-64.7316
11
312.475
21
-64.8441
0
LINE
8
BLACK
6
CONTINUOUS
10
312.475
20
-64.8441
11
312.23
21
-65.0075
0
LINE
8
BLACK
6
CONTINUOUS
10
312.23
20
-65.0075
11
312.022
21
-65.2154
0
LINE
8
BLACK
6
CONTINUOUS
10
312.022
20
-65.2154
11
311.859
21
-65.4599
0
LINE
8
BLACK
6
CONTINUOUS
10
311.859
20
-65.4599
11
311.747
21
-65.7316
0
LINE
8
BLACK
6
CONTINUOUS
10
311.747
20
-65.7316
11
311.689
21
-66.02
0
LINE
8
BLACK
6
CONTINUOUS
10
311.689
20
-66.02
11
311.689
21
-66.314
0
LINE
8
BLACK
6
CONTINUOUS
10
311.689
20
-66.314
11
311.747
21
-66.6024
0
LINE
8
BLACK
6
CONTINUOUS
10
95.8588
20
-65.6967
11
95.9803
21
-65.4033
0
LINE
8
BLACK
6
CONTINUOUS
10
95.9803
20
-65.4033
11
96.1567
21
-65.1393
0
LINE
8
BLACK
6
CONTINUOUS
10
96.1567
20
-65.1393
11
96.3813
21
-64.9147
0
LINE
8
BLACK
6
CONTINUOUS
10
96.3813
20
-64.9147
11
96.6453
21
-64.7383
0
LINE
8
BLACK
6
CONTINUOUS
10
96.6453
20
-64.7383
11
96.9387
21
-64.6168
0
LINE
8
BLACK
6
CONTINUOUS
10
96.9387
20
-64.6168
11
97.2502
21
-64.5548
0
LINE
8
BLACK
6
CONTINUOUS
10
97.2502
20
-64.5548
11
97.5678
21
-64.5548
0
LINE
8
BLACK
6
CONTINUOUS
10
97.5678
20
-64.5548
11
97.8793
21
-64.6168
0
LINE
8
BLACK
6
CONTINUOUS
10
97.8793
20
-64.6168
11
98.1727
21
-64.7383
0
LINE
8
BLACK
6
CONTINUOUS
10
98.1727
20
-64.7383
11
98.4367
21
-64.9147
0
LINE
8
BLACK
6
CONTINUOUS
10
98.4367
20
-64.9147
11
98.6613
21
-65.1393
0
LINE
8
BLACK
6
CONTINUOUS
10
98.6613
20
-65.1393
11
98.8377
21
-65.4033
0
LINE
8
BLACK
6
CONTINUOUS
10
98.8377
20
-65.4033
11
98.9592
21
-65.6967
0
LINE
8
BLACK
6
CONTINUOUS
10
98.9592
20
-65.6967
11
99.0212
21
-66.0082
0
LINE
8
BLACK
6
CONTINUOUS
10
99.0212
20
-66.0082
11
99.0212
21
-66.3258
0
LINE
8
BLACK
6
CONTINUOUS
10
99.0212
20
-66.3258
11
98.9592
21
-66.6373
0
LINE
8
BLACK
6
CONTINUOUS
10
98.9592
20
-66.6373
11
98.8377
21
-66.9307
0
LINE
8
BLACK
6
CONTINUOUS
10
98.8377
20
-66.9307
11
98.6613
21
-67.1947
0
LINE
8
BLACK
6
CONTINUOUS
10
98.6613
20
-67.1947
11
98.4367
21
-67.4193
0
LINE
8
BLACK
6
CONTINUOUS
10
98.4367
20
-67.4193
11
98.1727
21
-67.5957
0
LINE
8
BLACK
6
CONTINUOUS
10
98.1727
20
-67.5957
11
97.8793
21
-67.7172
0
LINE
8
BLACK
6
CONTINUOUS
10
97.8793
20
-67.7172
11
97.5678
21
-67.7792
0
LINE
8
BLACK
6
CONTINUOUS
10
97.5678
20
-67.7792
11
97.2502
21
-67.7792
0
LINE
8
BLACK
6
CONTINUOUS
10
97.2502
20
-67.7792
11
96.9387
21
-67.7172
0
LINE
8
BLACK
6
CONTINUOUS
10
96.9387
20
-67.7172
11
96.6453
21
-67.5957
0
LINE
8
BLACK
6
CONTINUOUS
10
96.6453
20
-67.5957
11
96.3813
21
-67.4193
0
LINE
8
BLACK
6
CONTINUOUS
10
96.3813
20
-67.4193
11
96.1567
21
-67.1947
0
LINE
8
BLACK
6
CONTINUOUS
10
96.1567
20
-67.1947
11
95.9803
21
-66.9307
0
LINE
8
BLACK
6
CONTINUOUS
10
95.9803
20
-66.9307
11
95.8588
21
-66.6373
0
LINE
8
BLACK
6
CONTINUOUS
10
95.8588
20
-66.6373
11
95.7968
21
-66.3258
0
LINE
8
BLACK
6
CONTINUOUS
10
95.7968
20
-66.3258
11
95.7968
21
-66.0082
0
LINE
8
BLACK
6
CONTINUOUS
10
95.7968
20
-66.0082
11
95.8588
21
-65.6967
0
LINE
8
BLACK
6
CONTINUOUS
10
95.9736
20
-66.6024
11
96.0861
21
-66.8741
0
LINE
8
BLACK
6
CONTINUOUS
10
96.0861
20
-66.8741
11
96.2495
21
-67.1186
0
LINE
8
BLACK
6
CONTINUOUS
10
96.2495
20
-67.1186
11
96.4574
21
-67.3265
0
LINE
8
BLACK
6
CONTINUOUS
10
96.4574
20
-67.3265
11
96.7019
21
-67.4899
0
LINE
8
BLACK
6
CONTINUOUS
10
96.7019
20
-67.4899
11
96.9736
21
-67.6024
0
LINE
8
BLACK
6
CONTINUOUS
10
96.9736
20
-67.6024
11
97.262
21
-67.6598
0
LINE
8
BLACK
6
CONTINUOUS
10
97.262
20
-67.6598
11
97.556
21
-67.6598
0
LINE
8
BLACK
6
CONTINUOUS
10
97.556
20
-67.6598
11
97.8444
21
-67.6024
0
LINE
8
BLACK
6
CONTINUOUS
10
97.8444
20
-67.6024
11
98.1161
21
-67.4899
0
LINE
8
BLACK
6
CONTINUOUS
10
98.1161
20
-67.4899
11
98.3606
21
-67.3265
0
LINE
8
BLACK
6
CONTINUOUS
10
98.3606
20
-67.3265
11
98.5685
21
-67.1186
0
LINE
8
BLACK
6
CONTINUOUS
10
98.5685
20
-67.1186
11
98.7319
21
-66.8741
0
LINE
8
BLACK
6
CONTINUOUS
10
98.7319
20
-66.8741
11
98.8444
21
-66.6024
0
LINE
8
BLACK
6
CONTINUOUS
10
98.8444
20
-66.6024
11
98.9018
21
-66.314
0
LINE
8
BLACK
6
CONTINUOUS
10
98.9018
20
-66.314
11
98.9018
21
-66.02
0
LINE
8
BLACK
6
CONTINUOUS
10
98.9018
20
-66.02
11
98.8444
21
-65.7316
0
LINE
8
BLACK
6
CONTINUOUS
10
98.8444
20
-65.7316
11
98.7319
21
-65.4599
0
LINE
8
BLACK
6
CONTINUOUS
10
98.7319
20
-65.4599
11
98.5685
21
-65.2154
0
LINE
8
BLACK
6
CONTINUOUS
10
98.5685
20
-65.2154
11
98.3606
21
-65.0075
0
LINE
8
BLACK
6
CONTINUOUS
10
98.3606
20
-65.0075
11
98.1161
21
-64.8441
0
LINE
8
BLACK
6
CONTINUOUS
10
98.1161
20
-64.8441
11
97.8444
21
-64.7316
0
LINE
8
BLACK
6
CONTINUOUS
10
97.8444
20
-64.7316
11
97.556
21
-64.6742
0
LINE
8
BLACK
6
CONTINUOUS
10
97.556
20
-64.6742
11
97.262
21
-64.6742
0
LINE
8
BLACK
6
CONTINUOUS
10
97.262
20
-64.6742
11
96.9736
21
-64.7316
0
LINE
8
BLACK
6
CONTINUOUS
10
96.9736
20
-64.7316
11
96.7019
21
-64.8441
0
LINE
8
BLACK
6
CONTINUOUS
10
96.7019
20
-64.8441
11
96.4574
21
-65.0075
0
LINE
8
BLACK
6
CONTINUOUS
10
96.4574
20
-65.0075
11
96.2495
21
-65.2154
0
LINE
8
BLACK
6
CONTINUOUS
10
96.2495
20
-65.2154
11
96.0861
21
-65.4599
0
LINE
8
BLACK
6
CONTINUOUS
10
96.0861
20
-65.4599
11
95.9736
21
-65.7316
0
LINE
8
BLACK
6
CONTINUOUS
10
95.9736
20
-65.7316
11
95.9162
21
-66.02
0
LINE
8
BLACK
6
CONTINUOUS
10
95.9162
20
-66.02
11
95.9162
21
-66.314
0
LINE
8
BLACK
6
CONTINUOUS
10
95.9162
20
-66.314
11
95.9736
21
-66.6024
0
LINE
8
BLACK
6
CONTINUOUS
10
171.551
20
-65.6967
11
171.672
21
-65.4033
0
LINE
8
BLACK
6
CONTINUOUS
10
171.672
20
-65.4033
11
171.849
21
-65.1393
0
LINE
8
BLACK
6
CONTINUOUS
10
171.849
20
-65.1393
11
172.073
21
-64.9147
0
LINE
8
BLACK
6
CONTINUOUS
10
172.073
20
-64.9147
11
172.337
21
-64.7383
0
LINE
8
BLACK
6
CONTINUOUS
10
172.337
20
-64.7383
11
172.631
21
-64.6168
0
LINE
8
BLACK
6
CONTINUOUS
10
172.631
20
-64.6168
11
172.942
21
-64.5548
0
LINE
8
BLACK
6
CONTINUOUS
10
172.942
20
-64.5548
11
173.26
21
-64.5548
0
LINE
8
BLACK
6
CONTINUOUS
10
173.26
20
-64.5548
11
173.571
21
-64.6168
0
LINE
8
BLACK
6
CONTINUOUS
10
173.571
20
-64.6168
11
173.865
21
-64.7383
0
LINE
8
BLACK
6
CONTINUOUS
10
173.865
20
-64.7383
11
174.129
21
-64.9147
0
LINE
8
BLACK
6
CONTINUOUS
10
174.129
20
-64.9147
11
174.353
21
-65.1393
0
LINE
8
BLACK
6
CONTINUOUS
10
174.353
20
-65.1393
11
174.53
21
-65.4033
0
LINE
8
BLACK
6
CONTINUOUS
10
174.53
20
-65.4033
11
174.651
21
-65.6967
0
LINE
8
BLACK
6
CONTINUOUS
10
174.651
20
-65.6967
11
174.713
21
-66.0082
0
LINE
8
BLACK
6
CONTINUOUS
10
174.713
20
-66.0082
11
174.713
21
-66.3258
0
LINE
8
BLACK
6
CONTINUOUS
10
174.713
20
-66.3258
11
174.651
21
-66.6373
0
LINE
8
BLACK
6
CONTINUOUS
10
174.651
20
-66.6373
11
174.53
21
-66.9307
0
LINE
8
BLACK
6
CONTINUOUS
10
174.53
20
-66.9307
11
174.353
21
-67.1947
0
LINE
8
BLACK
6
CONTINUOUS
10
174.353
20
-67.1947
11
174.129
21
-67.4193
0
LINE
8
BLACK
6
CONTINUOUS
10
174.129
20
-67.4193
11
173.865
21
-67.5957
0
LINE
8
BLACK
6
CONTINUOUS
10
173.865
20
-67.5957
11
173.571
21
-67.7172
0
LINE
8
BLACK
6
CONTINUOUS
10
173.571
20
-67.7172
11
173.26
21
-67.7792
0
LINE
8
BLACK
6
CONTINUOUS
10
173.26
20
-67.7792
11
172.942
21
-67.7792
0
LINE
8
BLACK
6
CONTINUOUS
10
172.942
20
-67.7792
11
172.631
21
-67.7172
0
LINE
8
BLACK
6
CONTINUOUS
10
172.631
20
-67.7172
11
172.337
21
-67.5957
0
LINE
8
BLACK
6
CONTINUOUS
10
172.337
20
-67.5957
11
172.073
21
-67.4193
0
LINE
8
BLACK
6
CONTINUOUS
10
172.073
20
-67.4193
11
171.849
21
-67.1947
0
LINE
8
BLACK
6
CONTINUOUS
10
171.849
20
-67.1947
11
171.672
21
-66.9307
0
LINE
8
BLACK
6
CONTINUOUS
10
171.672
20
-66.9307
11
171.551
21
-66.6373
0
LINE
8
BLACK
6
CONTINUOUS
10
171.551
20
-66.6373
11
171.489
21
-66.3258
0
LINE
8
BLACK
6
CONTINUOUS
10
171.489
20
-66.3258
11
171.489
21
-66.0082
0
LINE
8
BLACK
6
CONTINUOUS
10
171.489
20
-66.0082
11
171.551
21
-65.6967
0
LINE
8
BLACK
6
CONTINUOUS
10
171.666
20
-66.6024
11
171.778
21
-66.8741
0
LINE
8
BLACK
6
CONTINUOUS
10
171.778
20
-66.8741
11
171.941
21
-67.1186
0
LINE
8
BLACK
6
CONTINUOUS
10
171.941
20
-67.1186
11
172.149
21
-67.3265
0
LINE
8
BLACK
6
CONTINUOUS
10
172.149
20
-67.3265
11
172.394
21
-67.4899
0
LINE
8
BLACK
6
CONTINUOUS
10
172.394
20
-67.4899
11
172.666
21
-67.6024
0
LINE
8
BLACK
6
CONTINUOUS
10
172.666
20
-67.6024
11
172.954
21
-67.6598
0
LINE
8
BLACK
6
CONTINUOUS
10
172.954
20
-67.6598
11
173.248
21
-67.6598
0
LINE
8
BLACK
6
CONTINUOUS
10
173.248
20
-67.6598
11
173.536
21
-67.6024
0
LINE
8
BLACK
6
CONTINUOUS
10
173.536
20
-67.6024
11
173.808
21
-67.4899
0
LINE
8
BLACK
6
CONTINUOUS
10
173.808
20
-67.4899
11
174.053
21
-67.3265
0
LINE
8
BLACK
6
CONTINUOUS
10
174.053
20
-67.3265
11
174.261
21
-67.1186
0
LINE
8
BLACK
6
CONTINUOUS
10
174.261
20
-67.1186
11
174.424
21
-66.8741
0
LINE
8
BLACK
6
CONTINUOUS
10
174.424
20
-66.8741
11
174.536
21
-66.6024
0
LINE
8
BLACK
6
CONTINUOUS
10
174.536
20
-66.6024
11
174.594
21
-66.314
0
LINE
8
BLACK
6
CONTINUOUS
10
174.594
20
-66.314
11
174.594
21
-66.02
0
LINE
8
BLACK
6
CONTINUOUS
10
174.594
20
-66.02
11
174.536
21
-65.7316
0
LINE
8
BLACK
6
CONTINUOUS
10
174.536
20
-65.7316
11
174.424
21
-65.4599
0
LINE
8
BLACK
6
CONTINUOUS
10
174.424
20
-65.4599
11
174.261
21
-65.2154
0
LINE
8
BLACK
6
CONTINUOUS
10
174.261
20
-65.2154
11
174.053
21
-65.0075
0
LINE
8
BLACK
6
CONTINUOUS
10
174.053
20
-65.0075
11
173.808
21
-64.8441
0
LINE
8
BLACK
6
CONTINUOUS
10
173.808
20
-64.8441
11
173.536
21
-64.7316
0
LINE
8
BLACK
6
CONTINUOUS
10
173.536
20
-64.7316
11
173.248
21
-64.6742
0
LINE
8
BLACK
6
CONTINUOUS
10
173.248
20
-64.6742
11
172.954
21
-64.6742
0
LINE
8
BLACK
6
CONTINUOUS
10
172.954
20
-64.6742
11
172.666
21
-64.7316
0
LINE
8
BLACK
6
CONTINUOUS
10
172.666
20
-64.7316
11
172.394
21
-64.8441
0
LINE
8
BLACK
6
CONTINUOUS
10
172.394
20
-64.8441
11
172.149
21
-65.0075
0
LINE
8
BLACK
6
CONTINUOUS
10
172.149
20
-65.0075
11
171.941
21
-65.2154
0
LINE
8
BLACK
6
CONTINUOUS
10
171.941
20
-65.2154
11
171.778
21
-65.4599
0
LINE
8
BLACK
6
CONTINUOUS
10
171.778
20
-65.4599
11
171.666
21
-65.7316
0
LINE
8
BLACK
6
CONTINUOUS
10
171.666
20
-65.7316
11
171.608
21
-66.02
0
LINE
8
BLACK
6
CONTINUOUS
10
171.608
20
-66.02
11
171.608
21
-66.314
0
LINE
8
BLACK
6
CONTINUOUS
10
171.608
20
-66.314
11
171.666
21
-66.6024
0
LINE
8
BLACK
6
CONTINUOUS
10
27.4058
20
-65.3157
11
27.5273
21
-65.0223
0
LINE
8
BLACK
6
CONTINUOUS
10
27.5273
20
-65.0223
11
27.7037
21
-64.7583
0
LINE
8
BLACK
6
CONTINUOUS
10
27.7037
20
-64.7583
11
27.9283
21
-64.5337
0
LINE
8
BLACK
6
CONTINUOUS
10
27.9283
20
-64.5337
11
28.1923
21
-64.3573
0
LINE
8
BLACK
6
CONTINUOUS
10
28.1923
20
-64.3573
11
28.4857
21
-64.2358
0
LINE
8
BLACK
6
CONTINUOUS
10
28.4857
20
-64.2358
11
28.7972
21
-64.1738
0
LINE
8
BLACK
6
CONTINUOUS
10
28.7972
20
-64.1738
11
29.1148
21
-64.1738
0
LINE
8
BLACK
6
CONTINUOUS
10
29.1148
20
-64.1738
11
29.4263
21
-64.2358
0
LINE
8
BLACK
6
CONTINUOUS
10
29.4263
20
-64.2358
11
29.7197
21
-64.3573
0
LINE
8
BLACK
6
CONTINUOUS
10
29.7197
20
-64.3573
11
29.9837
21
-64.5337
0
LINE
8
BLACK
6
CONTINUOUS
10
29.9837
20
-64.5337
11
30.2083
21
-64.7583
0
LINE
8
BLACK
6
CONTINUOUS
10
30.2083
20
-64.7583
11
30.3847
21
-65.0223
0
LINE
8
BLACK
6
CONTINUOUS
10
30.3847
20
-65.0223
11
30.5062
21
-65.3157
0
LINE
8
BLACK
6
CONTINUOUS
10
30.5062
20
-65.3157
11
30.5682
21
-65.6272
0
LINE
8
BLACK
6
CONTINUOUS
10
30.5682
20
-65.6272
11
30.5682
21
-65.9448
0
LINE
8
BLACK
6
CONTINUOUS
10
30.5682
20
-65.9448
11
30.5062
21
-66.2563
0
LINE
8
BLACK
6
CONTINUOUS
10
30.5062
20
-66.2563
11
30.3847
21
-66.5497
0
LINE
8
BLACK
6
CONTINUOUS
10
30.3847
20
-66.5497
11
30.2083
21
-66.8137
0
LINE
8
BLACK
6
CONTINUOUS
10
30.2083
20
-66.8137
11
29.9837
21
-67.0383
0
LINE
8
BLACK
6
CONTINUOUS
10
29.9837
20
-67.0383
11
29.7197
21
-67.2147
0
LINE
8
BLACK
6
CONTINUOUS
10
29.7197
20
-67.2147
11
29.4263
21
-67.3362
0
LINE
8
BLACK
6
CONTINUOUS
10
29.4263
20
-67.3362
11
29.1148
21
-67.3982
0
LINE
8
BLACK
6
CONTINUOUS
10
29.1148
20
-67.3982
11
28.7972
21
-67.3982
0
LINE
8
BLACK
6
CONTINUOUS
10
28.7972
20
-67.3982
11
28.4857
21
-67.3362
0
LINE
8
BLACK
6
CONTINUOUS
10
28.4857
20
-67.3362
11
28.1923
21
-67.2147
0
LINE
8
BLACK
6
CONTINUOUS
10
28.1923
20
-67.2147
11
27.9283
21
-67.0383
0
LINE
8
BLACK
6
CONTINUOUS
10
27.9283
20
-67.0383
11
27.7037
21
-66.8137
0
LINE
8
BLACK
6
CONTINUOUS
10
27.7037
20
-66.8137
11
27.5273
21
-66.5497
0
LINE
8
BLACK
6
CONTINUOUS
10
27.5273
20
-66.5497
11
27.4058
21
-66.2563
0
LINE
8
BLACK
6
CONTINUOUS
10
27.4058
20
-66.2563
11
27.3438
21
-65.9448
0
LINE
8
BLACK
6
CONTINUOUS
10
27.3438
20
-65.9448
11
27.3438
21
-65.6272
0
LINE
8
BLACK
6
CONTINUOUS
10
27.3438
20
-65.6272
11
27.4058
21
-65.3157
0
LINE
8
BLACK
6
CONTINUOUS
10
27.5206
20
-66.2214
11
27.6331
21
-66.4931
0
LINE
8
BLACK
6
CONTINUOUS
10
27.6331
20
-66.4931
11
27.7965
21
-66.7376
0
LINE
8
BLACK
6
CONTINUOUS
10
27.7965
20
-66.7376
11
28.0044
21
-66.9455
0
LINE
8
BLACK
6
CONTINUOUS
10
28.0044
20
-66.9455
11
28.2489
21
-67.1089
0
LINE
8
BLACK
6
CONTINUOUS
10
28.2489
20
-67.1089
11
28.5206
21
-67.2214
0
LINE
8
BLACK
6
CONTINUOUS
10
28.5206
20
-67.2214
11
28.809
21
-67.2788
0
LINE
8
BLACK
6
CONTINUOUS
10
28.809
20
-67.2788
11
29.103
21
-67.2788
0
LINE
8
BLACK
6
CONTINUOUS
10
29.103
20
-67.2788
11
29.3914
21
-67.2214
0
LINE
8
BLACK
6
CONTINUOUS
10
29.3914
20
-67.2214
11
29.6631
21
-67.1089
0
LINE
8
BLACK
6
CONTINUOUS
10
29.6631
20
-67.1089
11
29.9076
21
-66.9455
0
LINE
8
BLACK
6
CONTINUOUS
10
29.9076
20
-66.9455
11
30.1155
21
-66.7376
0
LINE
8
BLACK
6
CONTINUOUS
10
30.1155
20
-66.7376
11
30.2789
21
-66.4931
0
LINE
8
BLACK
6
CONTINUOUS
10
30.2789
20
-66.4931
11
30.3914
21
-66.2214
0
LINE
8
BLACK
6
CONTINUOUS
10
30.3914
20
-66.2214
11
30.4488
21
-65.933
0
LINE
8
BLACK
6
CONTINUOUS
10
30.4488
20
-65.933
11
30.4488
21
-65.639
0
LINE
8
BLACK
6
CONTINUOUS
10
30.4488
20
-65.639
11
30.3914
21
-65.3506
0
LINE
8
BLACK
6
CONTINUOUS
10
30.3914
20
-65.3506
11
30.2789
21
-65.0789
0
LINE
8
BLACK
6
CONTINUOUS
10
30.2789
20
-65.0789
11
30.1155
21
-64.8344
0
LINE
8
BLACK
6
CONTINUOUS
10
30.1155
20
-64.8344
11
29.9076
21
-64.6265
0
LINE
8
BLACK
6
CONTINUOUS
10
29.9076
20
-64.6265
11
29.6631
21
-64.4631
0
LINE
8
BLACK
6
CONTINUOUS
10
29.6631
20
-64.4631
11
29.3914
21
-64.3506
0
LINE
8
BLACK
6
CONTINUOUS
10
29.3914
20
-64.3506
11
29.103
21
-64.2932
0
LINE
8
BLACK
6
CONTINUOUS
10
29.103
20
-64.2932
11
28.809
21
-64.2932
0
LINE
8
BLACK
6
CONTINUOUS
10
28.809
20
-64.2932
11
28.5206
21
-64.3506
0
LINE
8
BLACK
6
CONTINUOUS
10
28.5206
20
-64.3506
11
28.2489
21
-64.4631
0
LINE
8
BLACK
6
CONTINUOUS
10
28.2489
20
-64.4631
11
28.0044
21
-64.6265
0
LINE
8
BLACK
6
CONTINUOUS
10
28.0044
20
-64.6265
11
27.7965
21
-64.8344
0
LINE
8
BLACK
6
CONTINUOUS
10
27.7965
20
-64.8344
11
27.6331
21
-65.0789
0
LINE
8
BLACK
6
CONTINUOUS
10
27.6331
20
-65.0789
11
27.5206
21
-65.3506
0
LINE
8
BLACK
6
CONTINUOUS
10
27.5206
20
-65.3506
11
27.4632
21
-65.639
0
LINE
8
BLACK
6
CONTINUOUS
10
27.4632
20
-65.639
11
27.4632
21
-65.933
0
LINE
8
BLACK
6
CONTINUOUS
10
27.4632
20
-65.933
11
27.5206
21
-66.2214
0
LINE
8
BLACK
6
CONTINUOUS
10
358.114
20
-28.1047
11
358.235
21
-27.8113
0
LINE
8
BLACK
6
CONTINUOUS
10
358.235
20
-27.8113
11
358.412
21
-27.5473
0
LINE
8
BLACK
6
CONTINUOUS
10
358.412
20
-27.5473
11
358.636
21
-27.3227
0
LINE
8
BLACK
6
CONTINUOUS
10
358.636
20
-27.3227
11
358.9
21
-27.1463
0
LINE
8
BLACK
6
CONTINUOUS
10
358.9
20
-27.1463
11
359.194
21
-27.0248
0
LINE
8
BLACK
6
CONTINUOUS
10
359.194
20
-27.0248
11
359.505
21
-26.9628
0
LINE
8
BLACK
6
CONTINUOUS
10
359.505
20
-26.9628
11
359.823
21
-26.9628
0
LINE
8
BLACK
6
CONTINUOUS
10
359.823
20
-26.9628
11
360.134
21
-27.0248
0
LINE
8
BLACK
6
CONTINUOUS
10
360.134
20
-27.0248
11
360.428
21
-27.1463
0
LINE
8
BLACK
6
CONTINUOUS
10
360.428
20
-27.1463
11
360.692
21
-27.3227
0
LINE
8
BLACK
6
CONTINUOUS
10
360.692
20
-27.3227
11
360.916
21
-27.5473
0
LINE
8
BLACK
6
CONTINUOUS
10
360.916
20
-27.5473
11
361.093
21
-27.8113
0
LINE
8
BLACK
6
CONTINUOUS
10
361.093
20
-27.8113
11
361.214
21
-28.1047
0
LINE
8
BLACK
6
CONTINUOUS
10
361.214
20
-28.1047
11
361.276
21
-28.4162
0
LINE
8
BLACK
6
CONTINUOUS
10
361.276
20
-28.4162
11
361.276
21
-28.7338
0
LINE
8
BLACK
6
CONTINUOUS
10
361.276
20
-28.7338
11
361.214
21
-29.0453
0
LINE
8
BLACK
6
CONTINUOUS
10
361.214
20
-29.0453
11
361.093
21
-29.3387
0
LINE
8
BLACK
6
CONTINUOUS
10
361.093
20
-29.3387
11
360.916
21
-29.6027
0
LINE
8
BLACK
6
CONTINUOUS
10
360.916
20
-29.6027
11
360.692
21
-29.8273
0
LINE
8
BLACK
6
CONTINUOUS
10
360.692
20
-29.8273
11
360.428
21
-30.0037
0
LINE
8
BLACK
6
CONTINUOUS
10
360.428
20
-30.0037
11
360.134
21
-30.1252
0
LINE
8
BLACK
6
CONTINUOUS
10
360.134
20
-30.1252
11
359.823
21
-30.1872
0
LINE
8
BLACK
6
CONTINUOUS
10
359.823
20
-30.1872
11
359.505
21
-30.1872
0
LINE
8
BLACK
6
CONTINUOUS
10
359.505
20
-30.1872
11
359.194
21
-30.1252
0
LINE
8
BLACK
6
CONTINUOUS
10
359.194
20
-30.1252
11
358.9
21
-30.0037
0
LINE
8
BLACK
6
CONTINUOUS
10
358.9
20
-30.0037
11
358.636
21
-29.8273
0
LINE
8
BLACK
6
CONTINUOUS
10
358.636
20
-29.8273
11
358.412
21
-29.6027
0
LINE
8
BLACK
6
CONTINUOUS
10
358.412
20
-29.6027
11
358.235
21
-29.3387
0
LINE
8
BLACK
6
CONTINUOUS
10
358.235
20
-29.3387
11
358.114
21
-29.0453
0
LINE
8
BLACK
6
CONTINUOUS
10
358.114
20
-29.0453
11
358.052
21
-28.7338
0
LINE
8
BLACK
6
CONTINUOUS
10
358.052
20
-28.7338
11
358.052
21
-28.4162
0
LINE
8
BLACK
6
CONTINUOUS
10
358.052
20
-28.4162
11
358.114
21
-28.1047
0
LINE
8
BLACK
6
CONTINUOUS
10
358.229
20
-29.0104
11
358.341
21
-29.2821
0
LINE
8
BLACK
6
CONTINUOUS
10
358.341
20
-29.2821
11
358.504
21
-29.5266
0
LINE
8
BLACK
6
CONTINUOUS
10
358.504
20
-29.5266
11
358.712
21
-29.7345
0
LINE
8
BLACK
6
CONTINUOUS
10
358.712
20
-29.7345
11
358.957
21
-29.8979
0
LINE
8
BLACK
6
CONTINUOUS
10
358.957
20
-29.8979
11
359.229
21
-30.0104
0
LINE
8
BLACK
6
CONTINUOUS
10
359.229
20
-30.0104
11
359.517
21
-30.0678
0
LINE
8
BLACK
6
CONTINUOUS
10
359.517
20
-30.0678
11
359.811
21
-30.0678
0
LINE
8
BLACK
6
CONTINUOUS
10
359.811
20
-30.0678
11
360.099
21
-30.0104
0
LINE
8
BLACK
6
CONTINUOUS
10
360.099
20
-30.0104
11
360.371
21
-29.8979
0
LINE
8
BLACK
6
CONTINUOUS
10
360.371
20
-29.8979
11
360.616
21
-29.7345
0
LINE
8
BLACK
6
CONTINUOUS
10
360.616
20
-29.7345
11
360.824
21
-29.5266
0
LINE
8
BLACK
6
CONTINUOUS
10
360.824
20
-29.5266
11
360.987
21
-29.2821
0
LINE
8
BLACK
6
CONTINUOUS
10
360.987
20
-29.2821
11
361.099
21
-29.0104
0
LINE
8
BLACK
6
CONTINUOUS
10
361.099
20
-29.0104
11
361.157
21
-28.722
0
LINE
8
BLACK
6
CONTINUOUS
10
361.157
20
-28.722
11
361.157
21
-28.428
0
LINE
8
BLACK
6
CONTINUOUS
10
361.157
20
-28.428
11
361.099
21
-28.1396
0
LINE
8
BLACK
6
CONTINUOUS
10
361.099
20
-28.1396
11
360.987
21
-27.8679
0
LINE
8
BLACK
6
CONTINUOUS
10
360.987
20
-27.8679
11
360.824
21
-27.6234
0
LINE
8
BLACK
6
CONTINUOUS
10
360.824
20
-27.6234
11
360.616
21
-27.4155
0
LINE
8
BLACK
6
CONTINUOUS
10
360.616
20
-27.4155
11
360.371
21
-27.2521
0
LINE
8
BLACK
6
CONTINUOUS
10
360.371
20
-27.2521
11
360.099
21
-27.1396
0
LINE
8
BLACK
6
CONTINUOUS
10
360.099
20
-27.1396
11
359.811
21
-27.0822
0
LINE
8
BLACK
6
CONTINUOUS
10
359.811
20
-27.0822
11
359.517
21
-27.0822
0
LINE
8
BLACK
6
CONTINUOUS
10
359.517
20
-27.0822
11
359.229
21
-27.1396
0
LINE
8
BLACK
6
CONTINUOUS
10
359.229
20
-27.1396
11
358.957
21
-27.2521
0
LINE
8
BLACK
6
CONTINUOUS
10
358.957
20
-27.2521
11
358.712
21
-27.4155
0
LINE
8
BLACK
6
CONTINUOUS
10
358.712
20
-27.4155
11
358.504
21
-27.6234
0
LINE
8
BLACK
6
CONTINUOUS
10
358.504
20
-27.6234
11
358.341
21
-27.8679
0
LINE
8
BLACK
6
CONTINUOUS
10
358.341
20
-27.8679
11
358.229
21
-28.1396
0
LINE
8
BLACK
6
CONTINUOUS
10
358.229
20
-28.1396
11
358.171
21
-28.428
0
LINE
8
BLACK
6
CONTINUOUS
10
358.171
20
-28.428
11
358.171
21
-28.722
0
LINE
8
BLACK
6
CONTINUOUS
10
358.171
20
-28.722
11
358.229
21
-29.0104
0
LINE
8
BLACK
6
CONTINUOUS
10
86.3338
20
-27.9777
11
86.4553
21
-27.6843
0
LINE
8
BLACK
6
CONTINUOUS
10
86.4553
20
-27.6843
11
86.6317
21
-27.4203
0
LINE
8
BLACK
6
CONTINUOUS
10
86.6317
20
-27.4203
11
86.8563
21
-27.1957
0
LINE
8
BLACK
6
CONTINUOUS
10
86.8563
20
-27.1957
11
87.1203
21
-27.0193
0
LINE
8
BLACK
6
CONTINUOUS
10
87.1203
20
-27.0193
11
87.4137
21
-26.8978
0
LINE
8
BLACK
6
CONTINUOUS
10
87.4137
20
-26.8978
11
87.7252
21
-26.8358
0
LINE
8
BLACK
6
CONTINUOUS
10
87.7252
20
-26.8358
11
88.0428
21
-26.8358
0
LINE
8
BLACK
6
CONTINUOUS
10
88.0428
20
-26.8358
11
88.3543
21
-26.8978
0
LINE
8
BLACK
6
CONTINUOUS
10
88.3543
20
-26.8978
11
88.6477
21
-27.0193
0
LINE
8
BLACK
6
CONTINUOUS
10
88.6477
20
-27.0193
11
88.9117
21
-27.1957
0
LINE
8
BLACK
6
CONTINUOUS
10
88.9117
20
-27.1957
11
89.1363
21
-27.4203
0
LINE
8
BLACK
6
CONTINUOUS
10
89.1363
20
-27.4203
11
89.3127
21
-27.6843
0
LINE
8
BLACK
6
CONTINUOUS
10
89.3127
20
-27.6843
11
89.4342
21
-27.9777
0
LINE
8
BLACK
6
CONTINUOUS
10
89.4342
20
-27.9777
11
89.4962
21
-28.2892
0
LINE
8
BLACK
6
CONTINUOUS
10
89.4962
20
-28.2892
11
89.4962
21
-28.6068
0
LINE
8
BLACK
6
CONTINUOUS
10
89.4962
20
-28.6068
11
89.4342
21
-28.9183
0
LINE
8
BLACK
6
CONTINUOUS
10
89.4342
20
-28.9183
11
89.3127
21
-29.2117
0
LINE
8
BLACK
6
CONTINUOUS
10
89.3127
20
-29.2117
11
89.1363
21
-29.4757
0
LINE
8
BLACK
6
CONTINUOUS
10
89.1363
20
-29.4757
11
88.9117
21
-29.7003
0
LINE
8
BLACK
6
CONTINUOUS
10
88.9117
20
-29.7003
11
88.6477
21
-29.8767
0
LINE
8
BLACK
6
CONTINUOUS
10
88.6477
20
-29.8767
11
88.3543
21
-29.9982
0
LINE
8
BLACK
6
CONTINUOUS
10
88.3543
20
-29.9982
11
88.0428
21
-30.0602
0
LINE
8
BLACK
6
CONTINUOUS
10
88.0428
20
-30.0602
11
87.7252
21
-30.0602
0
LINE
8
BLACK
6
CONTINUOUS
10
87.7252
20
-30.0602
11
87.4137
21
-29.9982
0
LINE
8
BLACK
6
CONTINUOUS
10
87.4137
20
-29.9982
11
87.1203
21
-29.8767
0
LINE
8
BLACK
6
CONTINUOUS
10
87.1203
20
-29.8767
11
86.8563
21
-29.7003
0
LINE
8
BLACK
6
CONTINUOUS
10
86.8563
20
-29.7003
11
86.6317
21
-29.4757
0
LINE
8
BLACK
6
CONTINUOUS
10
86.6317
20
-29.4757
11
86.4553
21
-29.2117
0
LINE
8
BLACK
6
CONTINUOUS
10
86.4553
20
-29.2117
11
86.3338
21
-28.9183
0
LINE
8
BLACK
6
CONTINUOUS
10
86.3338
20
-28.9183
11
86.2718
21
-28.6068
0
LINE
8
BLACK
6
CONTINUOUS
10
86.2718
20
-28.6068
11
86.2718
21
-28.2892
0
LINE
8
BLACK
6
CONTINUOUS
10
86.2718
20
-28.2892
11
86.3338
21
-27.9777
0
LINE
8
BLACK
6
CONTINUOUS
10
86.4486
20
-28.8834
11
86.5611
21
-29.1551
0
LINE
8
BLACK
6
CONTINUOUS
10
86.5611
20
-29.1551
11
86.7245
21
-29.3996
0
LINE
8
BLACK
6
CONTINUOUS
10
86.7245
20
-29.3996
11
86.9324
21
-29.6075
0
LINE
8
BLACK
6
CONTINUOUS
10
86.9324
20
-29.6075
11
87.1769
21
-29.7709
0
LINE
8
BLACK
6
CONTINUOUS
10
87.1769
20
-29.7709
11
87.4486
21
-29.8834
0
LINE
8
BLACK
6
CONTINUOUS
10
87.4486
20
-29.8834
11
87.737
21
-29.9408
0
LINE
8
BLACK
6
CONTINUOUS
10
87.737
20
-29.9408
11
88.031
21
-29.9408
0
LINE
8
BLACK
6
CONTINUOUS
10
88.031
20
-29.9408
11
88.3194
21
-29.8834
0
LINE
8
BLACK
6
CONTINUOUS
10
88.3194
20
-29.8834
11
88.5911
21
-29.7709
0
LINE
8
BLACK
6
CONTINUOUS
10
88.5911
20
-29.7709
11
88.8356
21
-29.6075
0
LINE
8
BLACK
6
CONTINUOUS
10
88.8356
20
-29.6075
11
89.0435
21
-29.3996
0
LINE
8
BLACK
6
CONTINUOUS
10
89.0435
20
-29.3996
11
89.2069
21
-29.1551
0
LINE
8
BLACK
6
CONTINUOUS
10
89.2069
20
-29.1551
11
89.3194
21
-28.8834
0
LINE
8
BLACK
6
CONTINUOUS
10
89.3194
20
-28.8834
11
89.3768
21
-28.595
0
LINE
8
BLACK
6
CONTINUOUS
10
89.3768
20
-28.595
11
89.3768
21
-28.301
0
LINE
8
BLACK
6
CONTINUOUS
10
89.3768
20
-28.301
11
89.3194
21
-28.0126
0
LINE
8
BLACK
6
CONTINUOUS
10
89.3194
20
-28.0126
11
89.2069
21
-27.7409
0
LINE
8
BLACK
6
CONTINUOUS
10
89.2069
20
-27.7409
11
89.0435
21
-27.4964
0
LINE
8
BLACK
6
CONTINUOUS
10
89.0435
20
-27.4964
11
88.8356
21
-27.2885
0
LINE
8
BLACK
6
CONTINUOUS
10
88.8356
20
-27.2885
11
88.5911
21
-27.1251
0
LINE
8
BLACK
6
CONTINUOUS
10
88.5911
20
-27.1251
11
88.3194
21
-27.0126
0
LINE
8
BLACK
6
CONTINUOUS
10
88.3194
20
-27.0126
11
88.031
21
-26.9552
0
LINE
8
BLACK
6
CONTINUOUS
10
88.031
20
-26.9552
11
87.737
21
-26.9552
0
LINE
8
BLACK
6
CONTINUOUS
10
87.737
20
-26.9552
11
87.4486
21
-27.0126
0
LINE
8
BLACK
6
CONTINUOUS
10
87.4486
20
-27.0126
11
87.1769
21
-27.1251
0
LINE
8
BLACK
6
CONTINUOUS
10
87.1769
20
-27.1251
11
86.9324
21
-27.2885
0
LINE
8
BLACK
6
CONTINUOUS
10
86.9324
20
-27.2885
11
86.7245
21
-27.4964
0
LINE
8
BLACK
6
CONTINUOUS
10
86.7245
20
-27.4964
11
86.5611
21
-27.7409
0
LINE
8
BLACK
6
CONTINUOUS
10
86.5611
20
-27.7409
11
86.4486
21
-28.0126
0
LINE
8
BLACK
6
CONTINUOUS
10
86.4486
20
-28.0126
11
86.3912
21
-28.301
0
LINE
8
BLACK
6
CONTINUOUS
10
86.3912
20
-28.301
11
86.3912
21
-28.595
0
LINE
8
BLACK
6
CONTINUOUS
10
86.3912
20
-28.595
11
86.4486
21
-28.8834
0
LINE
8
BLACK
6
CONTINUOUS
10
239.115
20
-27.7237
11
239.236
21
-27.4303
0
LINE
8
BLACK
6
CONTINUOUS
10
239.236
20
-27.4303
11
239.413
21
-27.1663
0
LINE
8
BLACK
6
CONTINUOUS
10
239.413
20
-27.1663
11
239.637
21
-26.9417
0
LINE
8
BLACK
6
CONTINUOUS
10
239.637
20
-26.9417
11
239.901
21
-26.7653
0
LINE
8
BLACK
6
CONTINUOUS
10
239.901
20
-26.7653
11
240.195
21
-26.6438
0
LINE
8
BLACK
6
CONTINUOUS
10
240.195
20
-26.6438
11
240.506
21
-26.5818
0
LINE
8
BLACK
6
CONTINUOUS
10
240.506
20
-26.5818
11
240.824
21
-26.5818
0
LINE
8
BLACK
6
CONTINUOUS
10
240.824
20
-26.5818
11
241.135
21
-26.6438
0
LINE
8
BLACK
6
CONTINUOUS
10
241.135
20
-26.6438
11
241.429
21
-26.7653
0
LINE
8
BLACK
6
CONTINUOUS
10
241.429
20
-26.7653
11
241.693
21
-26.9417
0
LINE
8
BLACK
6
CONTINUOUS
10
241.693
20
-26.9417
11
241.917
21
-27.1663
0
LINE
8
BLACK
6
CONTINUOUS
10
241.917
20
-27.1663
11
242.094
21
-27.4303
0
LINE
8
BLACK
6
CONTINUOUS
10
242.094
20
-27.4303
11
242.215
21
-27.7237
0
LINE
8
BLACK
6
CONTINUOUS
10
242.215
20
-27.7237
11
242.277
21
-28.0352
0
LINE
8
BLACK
6
CONTINUOUS
10
242.277
20
-28.0352
11
242.277
21
-28.3528
0
LINE
8
BLACK
6
CONTINUOUS
10
242.277
20
-28.3528
11
242.215
21
-28.6643
0
LINE
8
BLACK
6
CONTINUOUS
10
242.215
20
-28.6643
11
242.094
21
-28.9577
0
LINE
8
BLACK
6
CONTINUOUS
10
242.094
20
-28.9577
11
241.917
21
-29.2217
0
LINE
8
BLACK
6
CONTINUOUS
10
241.917
20
-29.2217
11
241.693
21
-29.4463
0
LINE
8
BLACK
6
CONTINUOUS
10
241.693
20
-29.4463
11
241.429
21
-29.6227
0
LINE
8
BLACK
6
CONTINUOUS
10
241.429
20
-29.6227
11
241.135
21
-29.7442
0
LINE
8
BLACK
6
CONTINUOUS
10
241.135
20
-29.7442
11
240.824
21
-29.8062
0
LINE
8
BLACK
6
CONTINUOUS
10
240.824
20
-29.8062
11
240.506
21
-29.8062
0
LINE
8
BLACK
6
CONTINUOUS
10
240.506
20
-29.8062
11
240.195
21
-29.7442
0
LINE
8
BLACK
6
CONTINUOUS
10
240.195
20
-29.7442
11
239.901
21
-29.6227
0
LINE
8
BLACK
6
CONTINUOUS
10
239.901
20
-29.6227
11
239.637
21
-29.4463
0
LINE
8
BLACK
6
CONTINUOUS
10
239.637
20
-29.4463
11
239.413
21
-29.2217
0
LINE
8
BLACK
6
CONTINUOUS
10
239.413
20
-29.2217
11
239.236
21
-28.9577
0
LINE
8
BLACK
6
CONTINUOUS
10
239.236
20
-28.9577
11
239.115
21
-28.6643
0
LINE
8
BLACK
6
CONTINUOUS
10
239.115
20
-28.6643
11
239.053
21
-28.3528
0
LINE
8
BLACK
6
CONTINUOUS
10
239.053
20
-28.3528
11
239.053
21
-28.0352
0
LINE
8
BLACK
6
CONTINUOUS
10
239.053
20
-28.0352
11
239.115
21
-27.7237
0
LINE
8
BLACK
6
CONTINUOUS
10
239.23
20
-28.6294
11
239.342
21
-28.9011
0
LINE
8
BLACK
6
CONTINUOUS
10
239.342
20
-28.9011
11
239.505
21
-29.1456
0
LINE
8
BLACK
6
CONTINUOUS
10
239.505
20
-29.1456
11
239.713
21
-29.3535
0
LINE
8
BLACK
6
CONTINUOUS
10
239.713
20
-29.3535
11
239.958
21
-29.5169
0
LINE
8
BLACK
6
CONTINUOUS
10
239.958
20
-29.5169
11
240.23
21
-29.6294
0
LINE
8
BLACK
6
CONTINUOUS
10
240.23
20
-29.6294
11
240.518
21
-29.6868
0
LINE
8
BLACK
6
CONTINUOUS
10
240.518
20
-29.6868
11
240.812
21
-29.6868
0
LINE
8
BLACK
6
CONTINUOUS
10
240.812
20
-29.6868
11
241.1
21
-29.6294
0
LINE
8
BLACK
6
CONTINUOUS
10
241.1
20
-29.6294
11
241.372
21
-29.5169
0
LINE
8
BLACK
6
CONTINUOUS
10
241.372
20
-29.5169
11
241.617
21
-29.3535
0
LINE
8
BLACK
6
CONTINUOUS
10
241.617
20
-29.3535
11
241.825
21
-29.1456
0
LINE
8
BLACK
6
CONTINUOUS
10
241.825
20
-29.1456
11
241.988
21
-28.9011
0
LINE
8
BLACK
6
CONTINUOUS
10
241.988
20
-28.9011
11
242.1
21
-28.6294
0
LINE
8
BLACK
6
CONTINUOUS
10
242.1
20
-28.6294
11
242.158
21
-28.341
0
LINE
8
BLACK
6
CONTINUOUS
10
242.158
20
-28.341
11
242.158
21
-28.047
0
LINE
8
BLACK
6
CONTINUOUS
10
242.158
20
-28.047
11
242.1
21
-27.7586
0
LINE
8
BLACK
6
CONTINUOUS
10
242.1
20
-27.7586
11
241.988
21
-27.4869
0
LINE
8
BLACK
6
CONTINUOUS
10
241.988
20
-27.4869
11
241.825
21
-27.2424
0
LINE
8
BLACK
6
CONTINUOUS
10
241.825
20
-27.2424
11
241.617
21
-27.0345
0
LINE
8
BLACK
6
CONTINUOUS
10
241.617
20
-27.0345
11
241.372
21
-26.8711
0
LINE
8
BLACK
6
CONTINUOUS
10
241.372
20
-26.8711
11
241.1
21
-26.7586
0
LINE
8
BLACK
6
CONTINUOUS
10
241.1
20
-26.7586
11
240.812
21
-26.7012
0
LINE
8
BLACK
6
CONTINUOUS
10
240.812
20
-26.7012
11
240.518
21
-26.7012
0
LINE
8
BLACK
6
CONTINUOUS
10
240.518
20
-26.7012
11
240.23
21
-26.7586
0
LINE
8
BLACK
6
CONTINUOUS
10
240.23
20
-26.7586
11
239.958
21
-26.8711
0
LINE
8
BLACK
6
CONTINUOUS
10
239.958
20
-26.8711
11
239.713
21
-27.0345
0
LINE
8
BLACK
6
CONTINUOUS
10
239.713
20
-27.0345
11
239.505
21
-27.2424
0
LINE
8
BLACK
6
CONTINUOUS
10
239.505
20
-27.2424
11
239.342
21
-27.4869
0
LINE
8
BLACK
6
CONTINUOUS
10
239.342
20
-27.4869
11
239.23
21
-27.7586
0
LINE
8
BLACK
6
CONTINUOUS
10
239.23
20
-27.7586
11
239.172
21
-28.047
0
LINE
8
BLACK
6
CONTINUOUS
10
239.172
20
-28.047
11
239.172
21
-28.341
0
LINE
8
BLACK
6
CONTINUOUS
10
239.172
20
-28.341
11
239.23
21
-28.6294
0
LINE
8
BLACK
6
CONTINUOUS
10
124.561
20
-27.5967
11
124.682
21
-27.3033
0
LINE
8
BLACK
6
CONTINUOUS
10
124.682
20
-27.3033
11
124.859
21
-27.0393
0
LINE
8
BLACK
6
CONTINUOUS
10
124.859
20
-27.0393
11
125.083
21
-26.8147
0
LINE
8
BLACK
6
CONTINUOUS
10
125.083
20
-26.8147
11
125.347
21
-26.6383
0
LINE
8
BLACK
6
CONTINUOUS
10
125.347
20
-26.6383
11
125.641
21
-26.5168
0
LINE
8
BLACK
6
CONTINUOUS
10
125.641
20
-26.5168
11
125.952
21
-26.4548
0
LINE
8
BLACK
6
CONTINUOUS
10
125.952
20
-26.4548
11
126.27
21
-26.4548
0
LINE
8
BLACK
6
CONTINUOUS
10
126.27
20
-26.4548
11
126.581
21
-26.5168
0
LINE
8
BLACK
6
CONTINUOUS
10
126.581
20
-26.5168
11
126.875
21
-26.6383
0
LINE
8
BLACK
6
CONTINUOUS
10
126.875
20
-26.6383
11
127.139
21
-26.8147
0
LINE
8
BLACK
6
CONTINUOUS
10
127.139
20
-26.8147
11
127.363
21
-27.0393
0
LINE
8
BLACK
6
CONTINUOUS
10
127.363
20
-27.0393
11
127.54
21
-27.3033
0
LINE
8
BLACK
6
CONTINUOUS
10
127.54
20
-27.3033
11
127.661
21
-27.5967
0
LINE
8
BLACK
6
CONTINUOUS
10
127.661
20
-27.5967
11
127.723
21
-27.9082
0
LINE
8
BLACK
6
CONTINUOUS
10
127.723
20
-27.9082
11
127.723
21
-28.2258
0
LINE
8
BLACK
6
CONTINUOUS
10
127.723
20
-28.2258
11
127.661
21
-28.5373
0
LINE
8
BLACK
6
CONTINUOUS
10
127.661
20
-28.5373
11
127.54
21
-28.8307
0
LINE
8
BLACK
6
CONTINUOUS
10
127.54
20
-28.8307
11
127.363
21
-29.0947
0
LINE
8
BLACK
6
CONTINUOUS
10
127.363
20
-29.0947
11
127.139
21
-29.3193
0
LINE
8
BLACK
6
CONTINUOUS
10
127.139
20
-29.3193
11
126.875
21
-29.4957
0
LINE
8
BLACK
6
CONTINUOUS
10
126.875
20
-29.4957
11
126.581
21
-29.6172
0
LINE
8
BLACK
6
CONTINUOUS
10
126.581
20
-29.6172
11
126.27
21
-29.6792
0
LINE
8
BLACK
6
CONTINUOUS
10
126.27
20
-29.6792
11
125.952
21
-29.6792
0
LINE
8
BLACK
6
CONTINUOUS
10
125.952
20
-29.6792
11
125.641
21
-29.6172
0
LINE
8
BLACK
6
CONTINUOUS
10
125.641
20
-29.6172
11
125.347
21
-29.4957
0
LINE
8
BLACK
6
CONTINUOUS
10
125.347
20
-29.4957
11
125.083
21
-29.3193
0
LINE
8
BLACK
6
CONTINUOUS
10
125.083
20
-29.3193
11
124.859
21
-29.0947
0
LINE
8
BLACK
6
CONTINUOUS
10
124.859
20
-29.0947
11
124.682
21
-28.8307
0
LINE
8
BLACK
6
CONTINUOUS
10
124.682
20
-28.8307
11
124.561
21
-28.5373
0
LINE
8
BLACK
6
CONTINUOUS
10
124.561
20
-28.5373
11
124.499
21
-28.2258
0
LINE
8
BLACK
6
CONTINUOUS
10
124.499
20
-28.2258
11
124.499
21
-27.9082
0
LINE
8
BLACK
6
CONTINUOUS
10
124.499
20
-27.9082
11
124.561
21
-27.5967
0
LINE
8
BLACK
6
CONTINUOUS
10
124.676
20
-28.5024
11
124.788
21
-28.7741
0
LINE
8
BLACK
6
CONTINUOUS
10
124.788
20
-28.7741
11
124.951
21
-29.0186
0
LINE
8
BLACK
6
CONTINUOUS
10
124.951
20
-29.0186
11
125.159
21
-29.2265
0
LINE
8
BLACK
6
CONTINUOUS
10
125.159
20
-29.2265
11
125.404
21
-29.3899
0
LINE
8
BLACK
6
CONTINUOUS
10
125.404
20
-29.3899
11
125.676
21
-29.5024
0
LINE
8
BLACK
6
CONTINUOUS
10
125.676
20
-29.5024
11
125.964
21
-29.5598
0
LINE
8
BLACK
6
CONTINUOUS
10
125.964
20
-29.5598
11
126.258
21
-29.5598
0
LINE
8
BLACK
6
CONTINUOUS
10
126.258
20
-29.5598
11
126.546
21
-29.5024
0
LINE
8
BLACK
6
CONTINUOUS
10
126.546
20
-29.5024
11
126.818
21
-29.3899
0
LINE
8
BLACK
6
CONTINUOUS
10
126.818
20
-29.3899
11
127.063
21
-29.2265
0
LINE
8
BLACK
6
CONTINUOUS
10
127.063
20
-29.2265
11
127.271
21
-29.0186
0
LINE
8
BLACK
6
CONTINUOUS
10
127.271
20
-29.0186
11
127.434
21
-28.7741
0
LINE
8
BLACK
6
CONTINUOUS
10
127.434
20
-28.7741
11
127.546
21
-28.5024
0
LINE
8
BLACK
6
CONTINUOUS
10
127.546
20
-28.5024
11
127.604
21
-28.214
0
LINE
8
BLACK
6
CONTINUOUS
10
127.604
20
-28.214
11
127.604
21
-27.92
0
LINE
8
BLACK
6
CONTINUOUS
10
127.604
20
-27.92
11
127.546
21
-27.6316
0
LINE
8
BLACK
6
CONTINUOUS
10
127.546
20
-27.6316
11
127.434
21
-27.3599
0
LINE
8
BLACK
6
CONTINUOUS
10
127.434
20
-27.3599
11
127.271
21
-27.1154
0
LINE
8
BLACK
6
CONTINUOUS
10
127.271
20
-27.1154
11
127.063
21
-26.9075
0
LINE
8
BLACK
6
CONTINUOUS
10
127.063
20
-26.9075
11
126.818
21
-26.7441
0
LINE
8
BLACK
6
CONTINUOUS
10
126.818
20
-26.7441
11
126.546
21
-26.6316
0
LINE
8
BLACK
6
CONTINUOUS
10
126.546
20
-26.6316
11
126.258
21
-26.5742
0
LINE
8
BLACK
6
CONTINUOUS
10
126.258
20
-26.5742
11
125.964
21
-26.5742
0
LINE
8
BLACK
6
CONTINUOUS
10
125.964
20
-26.5742
11
125.676
21
-26.6316
0
LINE
8
BLACK
6
CONTINUOUS
10
125.676
20
-26.6316
11
125.404
21
-26.7441
0
LINE
8
BLACK
6
CONTINUOUS
10
125.404
20
-26.7441
11
125.159
21
-26.9075
0
LINE
8
BLACK
6
CONTINUOUS
10
125.159
20
-26.9075
11
124.951
21
-27.1154
0
LINE
8
BLACK
6
CONTINUOUS
10
124.951
20
-27.1154
11
124.788
21
-27.3599
0
LINE
8
BLACK
6
CONTINUOUS
10
124.788
20
-27.3599
11
124.676
21
-27.6316
0
LINE
8
BLACK
6
CONTINUOUS
10
124.676
20
-27.6316
11
124.618
21
-27.92
0
LINE
8
BLACK
6
CONTINUOUS
10
124.618
20
-27.92
11
124.618
21
-28.214
0
LINE
8
BLACK
6
CONTINUOUS
10
124.618
20
-28.214
11
124.676
21
-28.5024
0
LINE
8
BLACK
6
CONTINUOUS
10
200.634
20
-27.5967
11
200.755
21
-27.3033
0
LINE
8
BLACK
6
CONTINUOUS
10
200.755
20
-27.3033
11
200.932
21
-27.0393
0
LINE
8
BLACK
6
CONTINUOUS
10
200.932
20
-27.0393
11
201.156
21
-26.8147
0
LINE
8
BLACK
6
CONTINUOUS
10
201.156
20
-26.8147
11
201.42
21
-26.6383
0
LINE
8
BLACK
6
CONTINUOUS
10
201.42
20
-26.6383
11
201.714
21
-26.5168
0
LINE
8
BLACK
6
CONTINUOUS
10
201.714
20
-26.5168
11
202.025
21
-26.4548
0
LINE
8
BLACK
6
CONTINUOUS
10
202.025
20
-26.4548
11
202.343
21
-26.4548
0
LINE
8
BLACK
6
CONTINUOUS
10
202.343
20
-26.4548
11
202.654
21
-26.5168
0
LINE
8
BLACK
6
CONTINUOUS
10
202.654
20
-26.5168
11
202.948
21
-26.6383
0
LINE
8
BLACK
6
CONTINUOUS
10
202.948
20
-26.6383
11
203.212
21
-26.8147
0
LINE
8
BLACK
6
CONTINUOUS
10
203.212
20
-26.8147
11
203.436
21
-27.0393
0
LINE
8
BLACK
6
CONTINUOUS
10
203.436
20
-27.0393
11
203.613
21
-27.3033
0
LINE
8
BLACK
6
CONTINUOUS
10
203.613
20
-27.3033
11
203.734
21
-27.5967
0
LINE
8
BLACK
6
CONTINUOUS
10
203.734
20
-27.5967
11
203.796
21
-27.9082
0
LINE
8
BLACK
6
CONTINUOUS
10
203.796
20
-27.9082
11
203.796
21
-28.2258
0
LINE
8
BLACK
6
CONTINUOUS
10
203.796
20
-28.2258
11
203.734
21
-28.5373
0
LINE
8
BLACK
6
CONTINUOUS
10
203.734
20
-28.5373
11
203.613
21
-28.8307
0
LINE
8
BLACK
6
CONTINUOUS
10
203.613
20
-28.8307
11
203.436
21
-29.0947
0
LINE
8
BLACK
6
CONTINUOUS
10
203.436
20
-29.0947
11
203.212
21
-29.3193
0
LINE
8
BLACK
6
CONTINUOUS
10
203.212
20
-29.3193
11
202.948
21
-29.4957
0
LINE
8
BLACK
6
CONTINUOUS
10
202.948
20
-29.4957
11
202.654
21
-29.6172
0
LINE
8
BLACK
6
CONTINUOUS
10
202.654
20
-29.6172
11
202.343
21
-29.6792
0
LINE
8
BLACK
6
CONTINUOUS
10
202.343
20
-29.6792
11
202.025
21
-29.6792
0
LINE
8
BLACK
6
CONTINUOUS
10
202.025
20
-29.6792
11
201.714
21
-29.6172
0
LINE
8
BLACK
6
CONTINUOUS
10
201.714
20
-29.6172
11
201.42
21
-29.4957
0
LINE
8
BLACK
6
CONTINUOUS
10
201.42
20
-29.4957
11
201.156
21
-29.3193
0
LINE
8
BLACK
6
CONTINUOUS
10
201.156
20
-29.3193
11
200.932
21
-29.0947
0
LINE
8
BLACK
6
CONTINUOUS
10
200.932
20
-29.0947
11
200.755
21
-28.8307
0
LINE
8
BLACK
6
CONTINUOUS
10
200.755
20
-28.8307
11
200.634
21
-28.5373
0
LINE
8
BLACK
6
CONTINUOUS
10
200.634
20
-28.5373
11
200.572
21
-28.2258
0
LINE
8
BLACK
6
CONTINUOUS
10
200.572
20
-28.2258
11
200.572
21
-27.9082
0
LINE
8
BLACK
6
CONTINUOUS
10
200.572
20
-27.9082
11
200.634
21
-27.5967
0
LINE
8
BLACK
6
CONTINUOUS
10
200.749
20
-28.5024
11
200.861
21
-28.7741
0
LINE
8
BLACK
6
CONTINUOUS
10
200.861
20
-28.7741
11
201.024
21
-29.0186
0
LINE
8
BLACK
6
CONTINUOUS
10
201.024
20
-29.0186
11
201.232
21
-29.2265
0
LINE
8
BLACK
6
CONTINUOUS
10
201.232
20
-29.2265
11
201.477
21
-29.3899
0
LINE
8
BLACK
6
CONTINUOUS
10
201.477
20
-29.3899
11
201.749
21
-29.5024
0
LINE
8
BLACK
6
CONTINUOUS
10
201.749
20
-29.5024
11
202.037
21
-29.5598
0
LINE
8
BLACK
6
CONTINUOUS
10
202.037
20
-29.5598
11
202.331
21
-29.5598
0
LINE
8
BLACK
6
CONTINUOUS
10
202.331
20
-29.5598
11
202.619
21
-29.5024
0
LINE
8
BLACK
6
CONTINUOUS
10
202.619
20
-29.5024
11
202.891
21
-29.3899
0
LINE
8
BLACK
6
CONTINUOUS
10
202.891
20
-29.3899
11
203.136
21
-29.2265
0
LINE
8
BLACK
6
CONTINUOUS
10
203.136
20
-29.2265
11
203.344
21
-29.0186
0
LINE
8
BLACK
6
CONTINUOUS
10
203.344
20
-29.0186
11
203.507
21
-28.7741
0
LINE
8
BLACK
6
CONTINUOUS
10
203.507
20
-28.7741
11
203.619
21
-28.5024
0
LINE
8
BLACK
6
CONTINUOUS
10
203.619
20
-28.5024
11
203.677
21
-28.214
0
LINE
8
BLACK
6
CONTINUOUS
10
203.677
20
-28.214
11
203.677
21
-27.92
0
LINE
8
BLACK
6
CONTINUOUS
10
203.677
20
-27.92
11
203.619
21
-27.6316
0
LINE
8
BLACK
6
CONTINUOUS
10
203.619
20
-27.6316
11
203.507
21
-27.3599
0
LINE
8
BLACK
6
CONTINUOUS
10
203.507
20
-27.3599
11
203.344
21
-27.1154
0
LINE
8
BLACK
6
CONTINUOUS
10
203.344
20
-27.1154
11
203.136
21
-26.9075
0
LINE
8
BLACK
6
CONTINUOUS
10
203.136
20
-26.9075
11
202.891
21
-26.7441
0
LINE
8
BLACK
6
CONTINUOUS
10
202.891
20
-26.7441
11
202.619
21
-26.6316
0
LINE
8
BLACK
6
CONTINUOUS
10
202.619
20
-26.6316
11
202.331
21
-26.5742
0
LINE
8
BLACK
6
CONTINUOUS
10
202.331
20
-26.5742
11
202.037
21
-26.5742
0
LINE
8
BLACK
6
CONTINUOUS
10
202.037
20
-26.5742
11
201.749
21
-26.6316
0
LINE
8
BLACK
6
CONTINUOUS
10
201.749
20
-26.6316
11
201.477
21
-26.7441
0
LINE
8
BLACK
6
CONTINUOUS
10
201.477
20
-26.7441
11
201.232
21
-26.9075
0
LINE
8
BLACK
6
CONTINUOUS
10
201.232
20
-26.9075
11
201.024
21
-27.1154
0
LINE
8
BLACK
6
CONTINUOUS
10
201.024
20
-27.1154
11
200.861
21
-27.3599
0
LINE
8
BLACK
6
CONTINUOUS
10
200.861
20
-27.3599
11
200.749
21
-27.6316
0
LINE
8
BLACK
6
CONTINUOUS
10
200.749
20
-27.6316
11
200.691
21
-27.92
0
LINE
8
BLACK
6
CONTINUOUS
10
200.691
20
-27.92
11
200.691
21
-28.214
0
LINE
8
BLACK
6
CONTINUOUS
10
200.691
20
-28.214
11
200.749
21
-28.5024
0
LINE
8
BLACK
6
CONTINUOUS
10
135.737
20
-6.51474
11
135.858
21
-6.22134
0
LINE
8
BLACK
6
CONTINUOUS
10
135.858
20
-6.22134
11
136.035
21
-5.95728
0
LINE
8
BLACK
6
CONTINUOUS
10
136.035
20
-5.95728
11
136.259
21
-5.73272
0
LINE
8
BLACK
6
CONTINUOUS
10
136.259
20
-5.73272
11
136.523
21
-5.55629
0
LINE
8
BLACK
6
CONTINUOUS
10
136.523
20
-5.55629
11
136.817
21
-5.43476
0
LINE
8
BLACK
6
CONTINUOUS
10
136.817
20
-5.43476
11
137.128
21
-5.3728
0
LINE
8
BLACK
6
CONTINUOUS
10
137.128
20
-5.3728
11
137.446
21
-5.3728
0
LINE
8
BLACK
6
CONTINUOUS
10
137.446
20
-5.3728
11
137.757
21
-5.43476
0
LINE
8
BLACK
6
CONTINUOUS
10
137.757
20
-5.43476
11
138.051
21
-5.55629
0
LINE
8
BLACK
6
CONTINUOUS
10
138.051
20
-5.55629
11
138.315
21
-5.73272
0
LINE
8
BLACK
6
CONTINUOUS
10
138.315
20
-5.73272
11
138.539
21
-5.95728
0
LINE
8
BLACK
6
CONTINUOUS
10
138.539
20
-5.95728
11
138.716
21
-6.22134
0
LINE
8
BLACK
6
CONTINUOUS
10
138.716
20
-6.22134
11
138.837
21
-6.51474
0
LINE
8
BLACK
6
CONTINUOUS
10
138.837
20
-6.51474
11
138.899
21
-6.82621
0
LINE
8
BLACK
6
CONTINUOUS
10
138.899
20
-6.82621
11
138.899
21
-7.14379
0
LINE
8
BLACK
6
CONTINUOUS
10
138.899
20
-7.14379
11
138.837
21
-7.45526
0
LINE
8
BLACK
6
CONTINUOUS
10
138.837
20
-7.45526
11
138.716
21
-7.74866
0
LINE
8
BLACK
6
CONTINUOUS
10
138.716
20
-7.74866
11
138.539
21
-8.01272
0
LINE
8
BLACK
6
CONTINUOUS
10
138.539
20
-8.01272
11
138.315
21
-8.23728
0
LINE
8
BLACK
6
CONTINUOUS
10
138.315
20
-8.23728
11
138.051
21
-8.41371
0
LINE
8
BLACK
6
CONTINUOUS
10
138.051
20
-8.41371
11
137.757
21
-8.53524
0
LINE
8
BLACK
6
CONTINUOUS
10
137.757
20
-8.53524
11
137.446
21
-8.5972
0
LINE
8
BLACK
6
CONTINUOUS
10
137.446
20
-8.5972
11
137.128
21
-8.5972
0
LINE
8
BLACK
6
CONTINUOUS
10
137.128
20
-8.5972
11
136.817
21
-8.53524
0
LINE
8
BLACK
6
CONTINUOUS
10
136.817
20
-8.53524
11
136.523
21
-8.41371
0
LINE
8
BLACK
6
CONTINUOUS
10
136.523
20
-8.41371
11
136.259
21
-8.23728
0
LINE
8
BLACK
6
CONTINUOUS
10
136.259
20
-8.23728
11
136.035
21
-8.01272
0
LINE
8
BLACK
6
CONTINUOUS
10
136.035
20
-8.01272
11
135.858
21
-7.74866
0
LINE
8
BLACK
6
CONTINUOUS
10
135.858
20
-7.74866
11
135.737
21
-7.45526
0
LINE
8
BLACK
6
CONTINUOUS
10
135.737
20
-7.45526
11
135.675
21
-7.14379
0
LINE
8
BLACK
6
CONTINUOUS
10
135.675
20
-7.14379
11
135.675
21
-6.82621
0
LINE
8
BLACK
6
CONTINUOUS
10
135.675
20
-6.82621
11
135.737
21
-6.51474
0
LINE
8
BLACK
6
CONTINUOUS
10
135.852
20
-7.42043
11
135.964
21
-7.69209
0
LINE
8
BLACK
6
CONTINUOUS
10
135.964
20
-7.69209
11
136.127
21
-7.93659
0
LINE
8
BLACK
6
CONTINUOUS
10
136.127
20
-7.93659
11
136.335
21
-8.14452
0
LINE
8
BLACK
6
CONTINUOUS
10
136.335
20
-8.14452
11
136.58
21
-8.30788
0
LINE
8
BLACK
6
CONTINUOUS
10
136.58
20
-8.30788
11
136.852
21
-8.42041
0
LINE
8
BLACK
6
CONTINUOUS
10
136.852
20
-8.42041
11
137.14
21
-8.47778
0
LINE
8
BLACK
6
CONTINUOUS
10
137.14
20
-8.47778
11
137.434
21
-8.47778
0
LINE
8
BLACK
6
CONTINUOUS
10
137.434
20
-8.47778
11
137.722
21
-8.42041
0
LINE
8
BLACK
6
CONTINUOUS
10
137.722
20
-8.42041
11
137.994
21
-8.30788
0
LINE
8
BLACK
6
CONTINUOUS
10
137.994
20
-8.30788
11
138.239
21
-8.14452
0
LINE
8
BLACK
6
CONTINUOUS
10
138.239
20
-8.14452
11
138.447
21
-7.93659
0
LINE
8
BLACK
6
CONTINUOUS
10
138.447
20
-7.93659
11
138.61
21
-7.69209
0
LINE
8
BLACK
6
CONTINUOUS
10
138.61
20
-7.69209
11
138.722
21
-7.42043
0
LINE
8
BLACK
6
CONTINUOUS
10
138.722
20
-7.42043
11
138.78
21
-7.13203
0
LINE
8
BLACK
6
CONTINUOUS
10
138.78
20
-7.13203
11
138.78
21
-6.83797
0
LINE
8
BLACK
6
CONTINUOUS
10
138.78
20
-6.83797
11
138.722
21
-6.54957
0
LINE
8
BLACK
6
CONTINUOUS
10
138.722
20
-6.54957
11
138.61
21
-6.2779
0
LINE
8
BLACK
6
CONTINUOUS
10
138.61
20
-6.2779
11
138.447
21
-6.03341
0
LINE
8
BLACK
6
CONTINUOUS
10
138.447
20
-6.03341
11
138.239
21
-5.82548
0
LINE
8
BLACK
6
CONTINUOUS
10
138.239
20
-5.82548
11
137.994
21
-5.66212
0
LINE
8
BLACK
6
CONTINUOUS
10
137.994
20
-5.66212
11
137.722
21
-5.54959
0
LINE
8
BLACK
6
CONTINUOUS
10
137.722
20
-5.54959
11
137.434
21
-5.49222
0
LINE
8
BLACK
6
CONTINUOUS
10
137.434
20
-5.49222
11
137.14
21
-5.49222
0
LINE
8
BLACK
6
CONTINUOUS
10
137.14
20
-5.49222
11
136.852
21
-5.54959
0
LINE
8
BLACK
6
CONTINUOUS
10
136.852
20
-5.54959
11
136.58
21
-5.66212
0
LINE
8
BLACK
6
CONTINUOUS
10
136.58
20
-5.66212
11
136.335
21
-5.82548
0
LINE
8
BLACK
6
CONTINUOUS
10
136.335
20
-5.82548
11
136.127
21
-6.03341
0
LINE
8
BLACK
6
CONTINUOUS
10
136.127
20
-6.03341
11
135.964
21
-6.2779
0
LINE
8
BLACK
6
CONTINUOUS
10
135.964
20
-6.2779
11
135.852
21
-6.54957
0
LINE
8
BLACK
6
CONTINUOUS
10
135.852
20
-6.54957
11
135.794
21
-6.83797
0
LINE
8
BLACK
6
CONTINUOUS
10
135.794
20
-6.83797
11
135.794
21
-7.13203
0
LINE
8
BLACK
6
CONTINUOUS
10
135.794
20
-7.13203
11
135.852
21
-7.42043
0
LINE
8
BLACK
6
CONTINUOUS
10
246.354
20
-6.38774
11
246.475
21
-6.09434
0
LINE
8
BLACK
6
CONTINUOUS
10
246.475
20
-6.09434
11
246.652
21
-5.83028
0
LINE
8
BLACK
6
CONTINUOUS
10
246.652
20
-5.83028
11
246.876
21
-5.60572
0
LINE
8
BLACK
6
CONTINUOUS
10
246.876
20
-5.60572
11
247.14
21
-5.42929
0
LINE
8
BLACK
6
CONTINUOUS
10
247.14
20
-5.42929
11
247.434
21
-5.30776
0
LINE
8
BLACK
6
CONTINUOUS
10
247.434
20
-5.30776
11
247.745
21
-5.2458
0
LINE
8
BLACK
6
CONTINUOUS
10
247.745
20
-5.2458
11
248.063
21
-5.2458
0
LINE
8
BLACK
6
CONTINUOUS
10
248.063
20
-5.2458
11
248.374
21
-5.30776
0
LINE
8
BLACK
6
CONTINUOUS
10
248.374
20
-5.30776
11
248.668
21
-5.42929
0
LINE
8
BLACK
6
CONTINUOUS
10
248.668
20
-5.42929
11
248.932
21
-5.60572
0
LINE
8
BLACK
6
CONTINUOUS
10
248.932
20
-5.60572
11
249.156
21
-5.83028
0
LINE
8
BLACK
6
CONTINUOUS
10
249.156
20
-5.83028
11
249.333
21
-6.09434
0
LINE
8
BLACK
6
CONTINUOUS
10
249.333
20
-6.09434
11
249.454
21
-6.38774
0
LINE
8
BLACK
6
CONTINUOUS
10
249.454
20
-6.38774
11
249.516
21
-6.69921
0
LINE
8
BLACK
6
CONTINUOUS
10
249.516
20
-6.69921
11
249.516
21
-7.01679
0
LINE
8
BLACK
6
CONTINUOUS
10
249.516
20
-7.01679
11
249.454
21
-7.32826
0
LINE
8
BLACK
6
CONTINUOUS
10
249.454
20
-7.32826
11
249.333
21
-7.62166
0
LINE
8
BLACK
6
CONTINUOUS
10
249.333
20
-7.62166
11
249.156
21
-7.88572
0
LINE
8
BLACK
6
CONTINUOUS
10
249.156
20
-7.88572
11
248.932
21
-8.11028
0
LINE
8
BLACK
6
CONTINUOUS
10
248.932
20
-8.11028
11
248.668
21
-8.28671
0
LINE
8
BLACK
6
CONTINUOUS
10
248.668
20
-8.28671
11
248.374
21
-8.40824
0
LINE
8
BLACK
6
CONTINUOUS
10
248.374
20
-8.40824
11
248.063
21
-8.4702
0
LINE
8
BLACK
6
CONTINUOUS
10
248.063
20
-8.4702
11
247.745
21
-8.4702
0
LINE
8
BLACK
6
CONTINUOUS
10
247.745
20
-8.4702
11
247.434
21
-8.40824
0
LINE
8
BLACK
6
CONTINUOUS
10
247.434
20
-8.40824
11
247.14
21
-8.28671
0
LINE
8
BLACK
6
CONTINUOUS
10
247.14
20
-8.28671
11
246.876
21
-8.11028
0
LINE
8
BLACK
6
CONTINUOUS
10
246.876
20
-8.11028
11
246.652
21
-7.88572
0
LINE
8
BLACK
6
CONTINUOUS
10
246.652
20
-7.88572
11
246.475
21
-7.62166
0
LINE
8
BLACK
6
CONTINUOUS
10
246.475
20
-7.62166
11
246.354
21
-7.32826
0
LINE
8
BLACK
6
CONTINUOUS
10
246.354
20
-7.32826
11
246.292
21
-7.01679
0
LINE
8
BLACK
6
CONTINUOUS
10
246.292
20
-7.01679
11
246.292
21
-6.69921
0
LINE
8
BLACK
6
CONTINUOUS
10
246.292
20
-6.69921
11
246.354
21
-6.38774
0
LINE
8
BLACK
6
CONTINUOUS
10
246.469
20
-7.29343
11
246.581
21
-7.56509
0
LINE
8
BLACK
6
CONTINUOUS
10
246.581
20
-7.56509
11
246.744
21
-7.80959
0
LINE
8
BLACK
6
CONTINUOUS
10
246.744
20
-7.80959
11
246.952
21
-8.01752
0
LINE
8
BLACK
6
CONTINUOUS
10
246.952
20
-8.01752
11
247.197
21
-8.18088
0
LINE
8
BLACK
6
CONTINUOUS
10
247.197
20
-8.18088
11
247.469
21
-8.29341
0
LINE
8
BLACK
6
CONTINUOUS
10
247.469
20
-8.29341
11
247.757
21
-8.35078
0
LINE
8
BLACK
6
CONTINUOUS
10
247.757
20
-8.35078
11
248.051
21
-8.35078
0
LINE
8
BLACK
6
CONTINUOUS
10
248.051
20
-8.35078
11
248.339
21
-8.29341
0
LINE
8
BLACK
6
CONTINUOUS
10
248.339
20
-8.29341
11
248.611
21
-8.18088
0
LINE
8
BLACK
6
CONTINUOUS
10
248.611
20
-8.18088
11
248.856
21
-8.01752
0
LINE
8
BLACK
6
CONTINUOUS
10
248.856
20
-8.01752
11
249.064
21
-7.80959
0
LINE
8
BLACK
6
CONTINUOUS
10
249.064
20
-7.80959
11
249.227
21
-7.56509
0
LINE
8
BLACK
6
CONTINUOUS
10
249.227
20
-7.56509
11
249.339
21
-7.29343
0
LINE
8
BLACK
6
CONTINUOUS
10
249.339
20
-7.29343
11
249.397
21
-7.00503
0
LINE
8
BLACK
6
CONTINUOUS
10
249.397
20
-7.00503
11
249.397
21
-6.71097
0
LINE
8
BLACK
6
CONTINUOUS
10
249.397
20
-6.71097
11
249.339
21
-6.42257
0
LINE
8
BLACK
6
CONTINUOUS
10
249.339
20
-6.42257
11
249.227
21
-6.1509
0
LINE
8
BLACK
6
CONTINUOUS
10
249.227
20
-6.1509
11
249.064
21
-5.90641
0
LINE
8
BLACK
6
CONTINUOUS
10
249.064
20
-5.90641
11
248.856
21
-5.69848
0
LINE
8
BLACK
6
CONTINUOUS
10
248.856
20
-5.69848
11
248.611
21
-5.53512
0
LINE
8
BLACK
6
CONTINUOUS
10
248.611
20
-5.53512
11
248.339
21
-5.42259
0
LINE
8
BLACK
6
CONTINUOUS
10
248.339
20
-5.42259
11
248.051
21
-5.36522
0
LINE
8
BLACK
6
CONTINUOUS
10
248.051
20
-5.36522
11
247.757
21
-5.36522
0
LINE
8
BLACK
6
CONTINUOUS
10
247.757
20
-5.36522
11
247.469
21
-5.42259
0
LINE
8
BLACK
6
CONTINUOUS
10
247.469
20
-5.42259
11
247.197
21
-5.53512
0
LINE
8
BLACK
6
CONTINUOUS
10
247.197
20
-5.53512
11
246.952
21
-5.69848
0
LINE
8
BLACK
6
CONTINUOUS
10
246.952
20
-5.69848
11
246.744
21
-5.90641
0
LINE
8
BLACK
6
CONTINUOUS
10
246.744
20
-5.90641
11
246.581
21
-6.1509
0
LINE
8
BLACK
6
CONTINUOUS
10
246.581
20
-6.1509
11
246.469
21
-6.42257
0
LINE
8
BLACK
6
CONTINUOUS
10
246.469
20
-6.42257
11
246.411
21
-6.71097
0
LINE
8
BLACK
6
CONTINUOUS
10
246.411
20
-6.71097
11
246.411
21
-7.00503
0
LINE
8
BLACK
6
CONTINUOUS
10
246.411
20
-7.00503
11
246.469
21
-7.29343
0
LINE
8
BLACK
6
CONTINUOUS
10
375.487
20
-6.26074
11
375.608
21
-5.96734
0
LINE
8
BLACK
6
CONTINUOUS
10
375.608
20
-5.96734
11
375.785
21
-5.70328
0
LINE
8
BLACK
6
CONTINUOUS
10
375.785
20
-5.70328
11
376.009
21
-5.47872
0
LINE
8
BLACK
6
CONTINUOUS
10
376.009
20
-5.47872
11
376.273
21
-5.30229
0
LINE
8
BLACK
6
CONTINUOUS
10
376.273
20
-5.30229
11
376.567
21
-5.18076
0
LINE
8
BLACK
6
CONTINUOUS
10
376.567
20
-5.18076
11
376.878
21
-5.1188
0
LINE
8
BLACK
6
CONTINUOUS
10
376.878
20
-5.1188
11
377.196
21
-5.1188
0
LINE
8
BLACK
6
CONTINUOUS
10
377.196
20
-5.1188
11
377.507
21
-5.18076
0
LINE
8
BLACK
6
CONTINUOUS
10
377.507
20
-5.18076
11
377.801
21
-5.30229
0
LINE
8
BLACK
6
CONTINUOUS
10
377.801
20
-5.30229
11
378.065
21
-5.47872
0
LINE
8
BLACK
6
CONTINUOUS
10
378.065
20
-5.47872
11
378.289
21
-5.70328
0
LINE
8
BLACK
6
CONTINUOUS
10
378.289
20
-5.70328
11
378.466
21
-5.96734
0
LINE
8
BLACK
6
CONTINUOUS
10
378.466
20
-5.96734
11
378.587
21
-6.26074
0
LINE
8
BLACK
6
CONTINUOUS
10
378.587
20
-6.26074
11
378.649
21
-6.57221
0
LINE
8
BLACK
6
CONTINUOUS
10
378.649
20
-6.57221
11
378.649
21
-6.88979
0
LINE
8
BLACK
6
CONTINUOUS
10
378.649
20
-6.88979
11
378.587
21
-7.20126
0
LINE
8
BLACK
6
CONTINUOUS
10
378.587
20
-7.20126
11
378.466
21
-7.49466
0
LINE
8
BLACK
6
CONTINUOUS
10
378.466
20
-7.49466
11
378.289
21
-7.75872
0
LINE
8
BLACK
6
CONTINUOUS
10
378.289
20
-7.75872
11
378.065
21
-7.98328
0
LINE
8
BLACK
6
CONTINUOUS
10
378.065
20
-7.98328
11
377.801
21
-8.15971
0
LINE
8
BLACK
6
CONTINUOUS
10
377.801
20
-8.15971
11
377.507
21
-8.28124
0
LINE
8
BLACK
6
CONTINUOUS
10
377.507
20
-8.28124
11
377.196
21
-8.3432
0
LINE
8
BLACK
6
CONTINUOUS
10
377.196
20
-8.3432
11
376.878
21
-8.3432
0
LINE
8
BLACK
6
CONTINUOUS
10
376.878
20
-8.3432
11
376.567
21
-8.28124
0
LINE
8
BLACK
6
CONTINUOUS
10
376.567
20
-8.28124
11
376.273
21
-8.15971
0
LINE
8
BLACK
6
CONTINUOUS
10
376.273
20
-8.15971
11
376.009
21
-7.98328
0
LINE
8
BLACK
6
CONTINUOUS
10
376.009
20
-7.98328
11
375.785
21
-7.75872
0
LINE
8
BLACK
6
CONTINUOUS
10
375.785
20
-7.75872
11
375.608
21
-7.49466
0
LINE
8
BLACK
6
CONTINUOUS
10
375.608
20
-7.49466
11
375.487
21
-7.20126
0
LINE
8
BLACK
6
CONTINUOUS
10
375.487
20
-7.20126
11
375.425
21
-6.88979
0
LINE
8
BLACK
6
CONTINUOUS
10
375.425
20
-6.88979
11
375.425
21
-6.57221
0
LINE
8
BLACK
6
CONTINUOUS
10
375.425
20
-6.57221
11
375.487
21
-6.26074
0
LINE
8
BLACK
6
CONTINUOUS
10
375.602
20
-7.16643
11
375.714
21
-7.43809
0
LINE
8
BLACK
6
CONTINUOUS
10
375.714
20
-7.43809
11
375.877
21
-7.68259
0
LINE
8
BLACK
6
CONTINUOUS
10
375.877
20
-7.68259
11
376.085
21
-7.89052
0
LINE
8
BLACK
6
CONTINUOUS
10
376.085
20
-7.89052
11
376.33
21
-8.05388
0
LINE
8
BLACK
6
CONTINUOUS
10
376.33
20
-8.05388
11
376.602
21
-8.16641
0
LINE
8
BLACK
6
CONTINUOUS
10
376.602
20
-8.16641
11
376.89
21
-8.22378
0
LINE
8
BLACK
6
CONTINUOUS
10
376.89
20
-8.22378
11
377.184
21
-8.22378
0
LINE
8
BLACK
6
CONTINUOUS
10
377.184
20
-8.22378
11
377.472
21
-8.16641
0
LINE
8
BLACK
6
CONTINUOUS
10
377.472
20
-8.16641
11
377.744
21
-8.05388
0
LINE
8
BLACK
6
CONTINUOUS
10
377.744
20
-8.05388
11
377.989
21
-7.89052
0
LINE
8
BLACK
6
CONTINUOUS
10
377.989
20
-7.89052
11
378.197
21
-7.68259
0
LINE
8
BLACK
6
CONTINUOUS
10
378.197
20
-7.68259
11
378.36
21
-7.43809
0
LINE
8
BLACK
6
CONTINUOUS
10
378.36
20
-7.43809
11
378.472
21
-7.16643
0
LINE
8
BLACK
6
CONTINUOUS
10
378.472
20
-7.16643
11
378.53
21
-6.87803
0
LINE
8
BLACK
6
CONTINUOUS
10
378.53
20
-6.87803
11
378.53
21
-6.58397
0
LINE
8
BLACK
6
CONTINUOUS
10
378.53
20
-6.58397
11
378.472
21
-6.29557
0
LINE
8
BLACK
6
CONTINUOUS
10
378.472
20
-6.29557
11
378.36
21
-6.02391
0
LINE
8
BLACK
6
CONTINUOUS
10
378.36
20
-6.02391
11
378.197
21
-5.77941
0
LINE
8
BLACK
6
CONTINUOUS
10
378.197
20
-5.77941
11
377.989
21
-5.57148
0
LINE
8
BLACK
6
CONTINUOUS
10
377.989
20
-5.57148
11
377.744
21
-5.40812
0
LINE
8
BLACK
6
CONTINUOUS
10
377.744
20
-5.40812
11
377.472
21
-5.29559
0
LINE
8
BLACK
6
CONTINUOUS
10
377.472
20
-5.29559
11
377.184
21
-5.23822
0
LINE
8
BLACK
6
CONTINUOUS
10
377.184
20
-5.23822
11
376.89
21
-5.23822
0
LINE
8
BLACK
6
CONTINUOUS
10
376.89
20
-5.23822
11
376.602
21
-5.29559
0
LINE
8
BLACK
6
CONTINUOUS
10
376.602
20
-5.29559
11
376.33
21
-5.40812
0
LINE
8
BLACK
6
CONTINUOUS
10
376.33
20
-5.40812
11
376.085
21
-5.57148
0
LINE
8
BLACK
6
CONTINUOUS
10
376.085
20
-5.57148
11
375.877
21
-5.77941
0
LINE
8
BLACK
6
CONTINUOUS
10
375.877
20
-5.77941
11
375.714
21
-6.02391
0
LINE
8
BLACK
6
CONTINUOUS
10
375.714
20
-6.02391
11
375.602
21
-6.29557
0
LINE
8
BLACK
6
CONTINUOUS
10
375.602
20
-6.29557
11
375.544
21
-6.58397
0
LINE
8
BLACK
6
CONTINUOUS
10
375.544
20
-6.58397
11
375.544
21
-6.87803
0
LINE
8
BLACK
6
CONTINUOUS
10
375.544
20
-6.87803
11
375.602
21
-7.16643
0
LINE
8
BLACK
6
CONTINUOUS
10
27.7868
20
-6.00674
11
27.9083
21
-5.71334
0
LINE
8
BLACK
6
CONTINUOUS
10
27.9083
20
-5.71334
11
28.0847
21
-5.44928
0
LINE
8
BLACK
6
CONTINUOUS
10
28.0847
20
-5.44928
11
28.3093
21
-5.22472
0
LINE
8
BLACK
6
CONTINUOUS
10
28.3093
20
-5.22472
11
28.5733
21
-5.04829
0
LINE
8
BLACK
6
CONTINUOUS
10
28.5733
20
-5.04829
11
28.8667
21
-4.92676
0
LINE
8
BLACK
6
CONTINUOUS
10
28.8667
20
-4.92676
11
29.1782
21
-4.8648
0
LINE
8
BLACK
6
CONTINUOUS
10
29.1782
20
-4.8648
11
29.4958
21
-4.8648
0
LINE
8
BLACK
6
CONTINUOUS
10
29.4958
20
-4.8648
11
29.8073
21
-4.92676
0
LINE
8
BLACK
6
CONTINUOUS
10
29.8073
20
-4.92676
11
30.1007
21
-5.04829
0
LINE
8
BLACK
6
CONTINUOUS
10
30.1007
20
-5.04829
11
30.3647
21
-5.22472
0
LINE
8
BLACK
6
CONTINUOUS
10
30.3647
20
-5.22472
11
30.5893
21
-5.44928
0
LINE
8
BLACK
6
CONTINUOUS
10
30.5893
20
-5.44928
11
30.7657
21
-5.71334
0
LINE
8
BLACK
6
CONTINUOUS
10
30.7657
20
-5.71334
11
30.8872
21
-6.00674
0
LINE
8
BLACK
6
CONTINUOUS
10
30.8872
20
-6.00674
11
30.9492
21
-6.31821
0
LINE
8
BLACK
6
CONTINUOUS
10
30.9492
20
-6.31821
11
30.9492
21
-6.63579
0
LINE
8
BLACK
6
CONTINUOUS
10
30.9492
20
-6.63579
11
30.8872
21
-6.94726
0
LINE
8
BLACK
6
CONTINUOUS
10
30.8872
20
-6.94726
11
30.7657
21
-7.24066
0
LINE
8
BLACK
6
CONTINUOUS
10
30.7657
20
-7.24066
11
30.5893
21
-7.50472
0
LINE
8
BLACK
6
CONTINUOUS
10
30.5893
20
-7.50472
11
30.3647
21
-7.72928
0
LINE
8
BLACK
6
CONTINUOUS
10
30.3647
20
-7.72928
11
30.1007
21
-7.90571
0
LINE
8
BLACK
6
CONTINUOUS
10
30.1007
20
-7.90571
11
29.8073
21
-8.02724
0
LINE
8
BLACK
6
CONTINUOUS
10
29.8073
20
-8.02724
11
29.4958
21
-8.0892
0
LINE
8
BLACK
6
CONTINUOUS
10
29.4958
20
-8.0892
11
29.1782
21
-8.0892
0
LINE
8
BLACK
6
CONTINUOUS
10
29.1782
20
-8.0892
11
28.8667
21
-8.02724
0
LINE
8
BLACK
6
CONTINUOUS
10
28.8667
20
-8.02724
11
28.5733
21
-7.90571
0
LINE
8
BLACK
6
CONTINUOUS
10
28.5733
20
-7.90571
11
28.3093
21
-7.72928
0
LINE
8
BLACK
6
CONTINUOUS
10
28.3093
20
-7.72928
11
28.0847
21
-7.50472
0
LINE
8
BLACK
6
CONTINUOUS
10
28.0847
20
-7.50472
11
27.9083
21
-7.24066
0
LINE
8
BLACK
6
CONTINUOUS
10
27.9083
20
-7.24066
11
27.7868
21
-6.94726
0
LINE
8
BLACK
6
CONTINUOUS
10
27.7868
20
-6.94726
11
27.7248
21
-6.63579
0
LINE
8
BLACK
6
CONTINUOUS
10
27.7248
20
-6.63579
11
27.7248
21
-6.31821
0
LINE
8
BLACK
6
CONTINUOUS
10
27.7248
20
-6.31821
11
27.7868
21
-6.00674
0
LINE
8
BLACK
6
CONTINUOUS
10
27.9016
20
-6.91243
11
28.0141
21
-7.18409
0
LINE
8
BLACK
6
CONTINUOUS
10
28.0141
20
-7.18409
11
28.1775
21
-7.42859
0
LINE
8
BLACK
6
CONTINUOUS
10
28.1775
20
-7.42859
11
28.3854
21
-7.63652
0
LINE
8
BLACK
6
CONTINUOUS
10
28.3854
20
-7.63652
11
28.6299
21
-7.79988
0
LINE
8
BLACK
6
CONTINUOUS
10
28.6299
20
-7.79988
11
28.9016
21
-7.91241
0
LINE
8
BLACK
6
CONTINUOUS
10
28.9016
20
-7.91241
11
29.19
21
-7.96978
0
LINE
8
BLACK
6
CONTINUOUS
10
29.19
20
-7.96978
11
29.484
21
-7.96978
0
LINE
8
BLACK
6
CONTINUOUS
10
29.484
20
-7.96978
11
29.7724
21
-7.91241
0
LINE
8
BLACK
6
CONTINUOUS
10
29.7724
20
-7.91241
11
30.0441
21
-7.79988
0
LINE
8
BLACK
6
CONTINUOUS
10
30.0441
20
-7.79988
11
30.2886
21
-7.63652
0
LINE
8
BLACK
6
CONTINUOUS
10
30.2886
20
-7.63652
11
30.4965
21
-7.42859
0
LINE
8
BLACK
6
CONTINUOUS
10
30.4965
20
-7.42859
11
30.6599
21
-7.18409
0
LINE
8
BLACK
6
CONTINUOUS
10
30.6599
20
-7.18409
11
30.7724
21
-6.91243
0
LINE
8
BLACK
6
CONTINUOUS
10
30.7724
20
-6.91243
11
30.8298
21
-6.62403
0
LINE
8
BLACK
6
CONTINUOUS
10
30.8298
20
-6.62403
11
30.8298
21
-6.32997
0
LINE
8
BLACK
6
CONTINUOUS
10
30.8298
20
-6.32997
11
30.7724
21
-6.04157
0
LINE
8
BLACK
6
CONTINUOUS
10
30.7724
20
-6.04157
11
30.6599
21
-5.7699
0
LINE
8
BLACK
6
CONTINUOUS
10
30.6599
20
-5.7699
11
30.4965
21
-5.52541
0
LINE
8
BLACK
6
CONTINUOUS
10
30.4965
20
-5.52541
11
30.2886
21
-5.31748
0
LINE
8
BLACK
6
CONTINUOUS
10
30.2886
20
-5.31748
11
30.0441
21
-5.15412
0
LINE
8
BLACK
6
CONTINUOUS
10
30.0441
20
-5.15412
11
29.7724
21
-5.04159
0
LINE
8
BLACK
6
CONTINUOUS
10
29.7724
20
-5.04159
11
29.484
21
-4.98422
0
LINE
8
BLACK
6
CONTINUOUS
10
29.484
20
-4.98422
11
29.19
21
-4.98422
0
LINE
8
BLACK
6
CONTINUOUS
10
29.19
20
-4.98422
11
28.9016
21
-5.04159
0
LINE
8
BLACK
6
CONTINUOUS
10
28.9016
20
-5.04159
11
28.6299
21
-5.15412
0
LINE
8
BLACK
6
CONTINUOUS
10
28.6299
20
-5.15412
11
28.3854
21
-5.31748
0
LINE
8
BLACK
6
CONTINUOUS
10
28.3854
20
-5.31748
11
28.1775
21
-5.52541
0
LINE
8
BLACK
6
CONTINUOUS
10
28.1775
20
-5.52541
11
28.0141
21
-5.7699
0
LINE
8
BLACK
6
CONTINUOUS
10
28.0141
20
-5.7699
11
27.9016
21
-6.04157
0
LINE
8
BLACK
6
CONTINUOUS
10
27.9016
20
-6.04157
11
27.8442
21
-6.32997
0
LINE
8
BLACK
6
CONTINUOUS
10
27.8442
20
-6.32997
11
27.8442
21
-6.62403
0
LINE
8
BLACK
6
CONTINUOUS
10
27.8442
20
-6.62403
11
27.9016
21
-6.91243
  0
ENDSEC
  0
EOF
