  0
SECTION
  2
HEADER
  9
$ANGBASE
  50
0.0
  9
$ANGDIR
  70
1
  9
$MEASUREMENT
  70
1
  0
ENDSEC
  0
SECTION
  2
TABLES
  0
TABLE
  2
LTYPE
  70
4
  0
LTYPE
  5
40F
  2
CONTINUOUS
  70
0
  3
Solid line
  72
65
  73
0
  40
0.0
  0
LTYPE
  5
410
  2
DASHDOT
 70
0
  3
Dash Dot ____ _ ____ _
 72
65
 73
4
 40
2.0
 49
1.25
 49
-0.25
 49
0.25
 49
-0.25
  0
LTYPE
  5
411
  2
DASHED
 70
0
  3
Dashed __ __ __ __ __
 72
65
 73
2
 40
0.75
 49
0.5
 49
-0.25
  0
LTYPE
  5
43B
  2
DOTTED
 70
0
  3
Dotted .  .  .  .
 72
65
 73
2
 40
0.2
 49
0.0
 49
-0.2
  0
ENDTAB
  0
TABLE
  2
STYLE
  70
4
  0
STYLE
  2
KICAD
  70
0
  40
0
  41
1
  42
1
  50
0
  71
0
  3
isocp.shx
  0
STYLE
  2
KICADB
  70
0
  40
0
  41
1
  42
1
  50
0
  71
0
  3
isocp.shx
  0
STYLE
  2
KICADI
  70
0
  40
0
  41
1
  42
1
  50
15
  71
0
  3
isocp.shx
  0
STYLE
  2
KICADBI
  70
0
  40
0
  41
1
  42
1
  50
15
  71
0
  3
isocp.shx
  0
ENDTAB
  0
TABLE
  2
LAYER
  70
1
  0
LAYER
  2
BLACK
  70
0
  62
7
  6
CONTINUOUS
  0
ENDTAB
  0
ENDSEC
  0
SECTION
  2
ENTITIES
0
LINE
8
BLACK
6
CONTINUOUS
10
202.41
20
-36.0667
11
202.419
21
-36.0672
0
LINE
8
BLACK
6
CONTINUOUS
10
202.419
20
-36.0672
11
247.027
21
-47.5766
0
LINE
8
BLACK
6
CONTINUOUS
10
247.027
20
-47.5766
11
247.036
21
-47.5806
0
LINE
8
BLACK
6
CONTINUOUS
10
247.036
20
-47.5806
11
247.044
21
-47.5845
0
LINE
8
BLACK
6
CONTINUOUS
10
247.044
20
-47.5845
11
247.045
21
-47.5848
0
LINE
8
BLACK
6
CONTINUOUS
10
247.045
20
-47.5848
11
247.045
21
-47.5851
0
LINE
8
BLACK
6
CONTINUOUS
10
247.045
20
-47.5851
11
247.051
21
-47.592
0
LINE
8
BLACK
6
CONTINUOUS
10
247.051
20
-47.592
11
247.058
21
-47.5988
0
LINE
8
BLACK
6
CONTINUOUS
10
247.058
20
-47.5988
11
247.058
21
-47.5992
0
LINE
8
BLACK
6
CONTINUOUS
10
247.058
20
-47.5992
11
247.058
21
-47.5996
0
LINE
8
BLACK
6
CONTINUOUS
10
247.058
20
-47.5996
11
247.061
21
-47.6084
0
LINE
8
BLACK
6
CONTINUOUS
10
247.061
20
-47.6084
11
247.064
21
-47.6171
0
LINE
8
BLACK
6
CONTINUOUS
10
247.064
20
-47.6171
11
247.064
21
-47.6176
0
LINE
8
BLACK
6
CONTINUOUS
10
247.064
20
-47.6176
11
247.065
21
-47.618
0
LINE
8
BLACK
6
CONTINUOUS
10
247.065
20
-47.618
11
247.064
21
-47.6273
0
LINE
8
BLACK
6
CONTINUOUS
10
247.064
20
-47.6273
11
247.064
21
-47.6366
0
LINE
8
BLACK
6
CONTINUOUS
10
247.064
20
-47.6366
11
232.459
21
-109.073
0
LINE
8
BLACK
6
CONTINUOUS
10
232.459
20
-109.073
11
232.455
21
-109.081
0
LINE
8
BLACK
6
CONTINUOUS
10
232.455
20
-109.081
11
232.452
21
-109.089
0
LINE
8
BLACK
6
CONTINUOUS
10
232.452
20
-109.089
11
232.451
21
-109.09
0
LINE
8
BLACK
6
CONTINUOUS
10
232.451
20
-109.09
11
232.451
21
-109.091
0
LINE
8
BLACK
6
CONTINUOUS
10
232.451
20
-109.091
11
232.444
21
-109.096
0
LINE
8
BLACK
6
CONTINUOUS
10
232.444
20
-109.096
11
232.438
21
-109.103
0
LINE
8
BLACK
6
CONTINUOUS
10
232.438
20
-109.103
11
232.437
21
-109.103
0
LINE
8
BLACK
6
CONTINUOUS
10
232.437
20
-109.103
11
232.436
21
-109.104
0
LINE
8
BLACK
6
CONTINUOUS
10
232.436
20
-109.104
11
232.428
21
-109.107
0
LINE
8
BLACK
6
CONTINUOUS
10
232.428
20
-109.107
11
232.42
21
-109.11
0
LINE
8
BLACK
6
CONTINUOUS
10
232.42
20
-109.11
11
232.419
21
-109.11
0
LINE
8
BLACK
6
CONTINUOUS
10
232.419
20
-109.11
11
232.418
21
-109.111
0
LINE
8
BLACK
6
CONTINUOUS
10
232.418
20
-109.111
11
232.409
21
-109.11
0
LINE
8
BLACK
6
CONTINUOUS
10
232.409
20
-109.11
11
232.401
21
-109.11
0
LINE
8
BLACK
6
CONTINUOUS
10
232.401
20
-109.11
11
147.946
21
-92.9179
0
LINE
8
BLACK
6
CONTINUOUS
10
147.946
20
-92.9179
11
147.943
21
-92.9169
0
LINE
8
BLACK
6
CONTINUOUS
10
147.943
20
-92.9169
11
147.941
21
-92.9167
0
LINE
8
BLACK
6
CONTINUOUS
10
147.941
20
-92.9167
11
147.934
21
-92.9133
0
LINE
8
BLACK
6
CONTINUOUS
10
147.934
20
-92.9133
11
147.928
21
-92.9105
0
LINE
8
BLACK
6
CONTINUOUS
10
147.928
20
-92.9105
11
147.926
21
-92.9088
0
LINE
8
BLACK
6
CONTINUOUS
10
147.926
20
-92.9088
11
147.924
21
-92.9077
0
LINE
8
BLACK
6
CONTINUOUS
10
147.924
20
-92.9077
11
147.919
21
-92.902
0
LINE
8
BLACK
6
CONTINUOUS
10
147.919
20
-92.902
11
147.914
21
-92.8968
0
LINE
8
BLACK
6
CONTINUOUS
10
147.914
20
-92.8968
11
147.913
21
-92.8946
0
LINE
8
BLACK
6
CONTINUOUS
10
147.913
20
-92.8946
11
147.911
21
-92.8927
0
LINE
8
BLACK
6
CONTINUOUS
10
147.911
20
-92.8927
11
147.909
21
-92.8857
0
LINE
8
BLACK
6
CONTINUOUS
10
147.909
20
-92.8857
11
147.906
21
-92.8788
0
LINE
8
BLACK
6
CONTINUOUS
10
147.906
20
-92.8788
11
147.906
21
-92.8764
0
LINE
8
BLACK
6
CONTINUOUS
10
147.906
20
-92.8764
11
147.905
21
-92.8741
0
LINE
8
BLACK
6
CONTINUOUS
10
147.905
20
-92.8741
11
147.906
21
-92.8667
0
LINE
8
BLACK
6
CONTINUOUS
10
147.906
20
-92.8667
11
147.906
21
-92.8593
0
LINE
8
BLACK
6
CONTINUOUS
10
147.906
20
-92.8593
11
147.907
21
-92.8571
0
LINE
8
BLACK
6
CONTINUOUS
10
147.907
20
-92.8571
11
147.907
21
-92.8547
0
LINE
8
BLACK
6
CONTINUOUS
10
147.907
20
-92.8547
11
147.91
21
-92.8481
0
LINE
8
BLACK
6
CONTINUOUS
10
147.91
20
-92.8481
11
147.913
21
-92.8413
0
LINE
8
BLACK
6
CONTINUOUS
10
147.913
20
-92.8413
11
147.915
21
-92.8395
0
LINE
8
BLACK
6
CONTINUOUS
10
147.915
20
-92.8395
11
147.916
21
-92.8374
0
LINE
8
BLACK
6
CONTINUOUS
10
147.916
20
-92.8374
11
165.061
21
-71.5649
0
LINE
8
BLACK
6
CONTINUOUS
10
165.061
20
-71.5649
11
165.061
21
-71.5646
0
LINE
8
BLACK
6
CONTINUOUS
10
165.061
20
-71.5646
11
165.062
21
-71.5642
0
LINE
8
BLACK
6
CONTINUOUS
10
165.062
20
-71.5642
11
165.069
21
-71.5584
0
LINE
8
BLACK
6
CONTINUOUS
10
165.069
20
-71.5584
11
165.076
21
-71.5524
0
LINE
8
BLACK
6
CONTINUOUS
10
165.076
20
-71.5524
11
165.076
21
-71.5522
0
LINE
8
BLACK
6
CONTINUOUS
10
165.076
20
-71.5522
11
165.077
21
-71.552
0
LINE
8
BLACK
6
CONTINUOUS
10
165.077
20
-71.552
11
165.086
21
-71.5493
0
LINE
8
BLACK
6
CONTINUOUS
10
165.086
20
-71.5493
11
165.095
21
-71.5465
0
LINE
8
BLACK
6
CONTINUOUS
10
165.095
20
-71.5465
11
165.095
21
-71.5466
0
LINE
8
BLACK
6
CONTINUOUS
10
165.095
20
-71.5466
11
165.095
21
-71.5465
0
LINE
8
BLACK
6
CONTINUOUS
10
165.095
20
-71.5465
11
207.005
21
-67.7365
0
LINE
8
BLACK
6
CONTINUOUS
10
207.005
20
-67.7365
11
207.008
21
-67.7367
0
LINE
8
BLACK
6
CONTINUOUS
10
207.008
20
-67.7367
11
207.01
21
-67.7362
0
LINE
8
BLACK
6
CONTINUOUS
10
207.01
20
-67.7362
11
207.017
21
-67.7377
0
LINE
8
BLACK
6
CONTINUOUS
10
207.017
20
-67.7377
11
207.025
21
-67.7385
0
LINE
8
BLACK
6
CONTINUOUS
10
207.025
20
-67.7385
11
207.027
21
-67.7396
0
LINE
8
BLACK
6
CONTINUOUS
10
207.027
20
-67.7396
11
207.029
21
-67.74
0
LINE
8
BLACK
6
CONTINUOUS
10
207.029
20
-67.74
11
207.035
21
-67.7442
0
LINE
8
BLACK
6
CONTINUOUS
10
207.035
20
-67.7442
11
207.042
21
-67.7478
0
LINE
8
BLACK
6
CONTINUOUS
10
207.042
20
-67.7478
11
207.043
21
-67.7496
0
LINE
8
BLACK
6
CONTINUOUS
10
207.043
20
-67.7496
11
207.045
21
-67.7508
0
LINE
8
BLACK
6
CONTINUOUS
10
207.045
20
-67.7508
11
207.05
21
-67.7571
0
LINE
8
BLACK
6
CONTINUOUS
10
207.05
20
-67.7571
11
207.054
21
-67.763
0
LINE
8
BLACK
6
CONTINUOUS
10
207.054
20
-67.763
11
207.055
21
-67.7652
0
LINE
8
BLACK
6
CONTINUOUS
10
207.055
20
-67.7652
11
207.056
21
-67.767
0
LINE
8
BLACK
6
CONTINUOUS
10
207.056
20
-67.767
11
207.058
21
-67.7745
0
LINE
8
BLACK
6
CONTINUOUS
10
207.058
20
-67.7745
11
207.06
21
-67.7817
0
LINE
8
BLACK
6
CONTINUOUS
10
207.06
20
-67.7817
11
207.06
21
-67.7839
0
LINE
8
BLACK
6
CONTINUOUS
10
207.06
20
-67.7839
11
207.06
21
-67.7861
0
LINE
8
BLACK
6
CONTINUOUS
10
207.06
20
-67.7861
11
207.059
21
-67.7936
0
LINE
8
BLACK
6
CONTINUOUS
10
207.059
20
-67.7936
11
207.058
21
-67.8011
0
LINE
8
BLACK
6
CONTINUOUS
10
207.058
20
-67.8011
11
207.057
21
-67.8031
0
LINE
8
BLACK
6
CONTINUOUS
10
207.057
20
-67.8031
11
207.056
21
-67.8053
0
LINE
8
BLACK
6
CONTINUOUS
10
207.056
20
-67.8053
11
202.611
21
-78.6003
0
LINE
8
BLACK
6
CONTINUOUS
10
202.611
20
-78.6003
11
202.609
21
-78.6037
0
LINE
8
BLACK
6
CONTINUOUS
10
202.609
20
-78.6037
11
202.608
21
-78.6074
0
LINE
8
BLACK
6
CONTINUOUS
10
202.608
20
-78.6074
11
202.604
21
-78.6117
0
LINE
8
BLACK
6
CONTINUOUS
10
202.604
20
-78.6117
11
202.6
21
-78.6165
0
LINE
8
BLACK
6
CONTINUOUS
10
202.6
20
-78.6165
11
202.597
21
-78.6188
0
LINE
8
BLACK
6
CONTINUOUS
10
202.597
20
-78.6188
11
202.594
21
-78.6217
0
LINE
8
BLACK
6
CONTINUOUS
10
202.594
20
-78.6217
11
202.589
21
-78.6242
0
LINE
8
BLACK
6
CONTINUOUS
10
202.589
20
-78.6242
11
202.584
21
-78.6274
0
LINE
8
BLACK
6
CONTINUOUS
10
202.584
20
-78.6274
11
202.58
21
-78.6282
0
LINE
8
BLACK
6
CONTINUOUS
10
202.58
20
-78.6282
11
202.577
21
-78.6299
0
LINE
8
BLACK
6
CONTINUOUS
10
202.577
20
-78.6299
11
161.561
21
-88.4105
0
LINE
8
BLACK
6
CONTINUOUS
10
161.561
20
-88.4105
11
212.077
21
-95.3565
0
LINE
8
BLACK
6
CONTINUOUS
10
212.077
20
-95.3565
11
227.273
21
-84.2763
0
LINE
8
BLACK
6
CONTINUOUS
10
227.273
20
-84.2763
11
217.767
21
-50.0579
0
LINE
8
BLACK
6
CONTINUOUS
10
217.767
20
-50.0579
11
190.026
21
-51.2468
0
LINE
8
BLACK
6
CONTINUOUS
10
190.026
20
-51.2468
11
190.018
21
-51.2455
0
LINE
8
BLACK
6
CONTINUOUS
10
190.018
20
-51.2455
11
190.009
21
-51.2447
0
LINE
8
BLACK
6
CONTINUOUS
10
190.009
20
-51.2447
11
190.008
21
-51.2441
0
LINE
8
BLACK
6
CONTINUOUS
10
190.008
20
-51.2441
11
190.007
21
-51.2438
0
LINE
8
BLACK
6
CONTINUOUS
10
190.007
20
-51.2438
11
189.999
21
-51.2395
0
LINE
8
BLACK
6
CONTINUOUS
10
189.999
20
-51.2395
11
189.992
21
-51.2355
0
LINE
8
BLACK
6
CONTINUOUS
10
189.992
20
-51.2355
11
189.991
21
-51.2344
0
LINE
8
BLACK
6
CONTINUOUS
10
189.991
20
-51.2344
11
189.99
21
-51.2337
0
LINE
8
BLACK
6
CONTINUOUS
10
189.99
20
-51.2337
11
189.985
21
-51.2269
0
LINE
8
BLACK
6
CONTINUOUS
10
189.985
20
-51.2269
11
189.98
21
-51.2204
0
LINE
8
BLACK
6
CONTINUOUS
10
189.98
20
-51.2204
11
189.979
21
-51.2191
0
LINE
8
BLACK
6
CONTINUOUS
10
189.979
20
-51.2191
11
189.978
21
-51.218
0
LINE
8
BLACK
6
CONTINUOUS
10
189.978
20
-51.218
11
189.976
21
-51.2098
0
LINE
8
BLACK
6
CONTINUOUS
10
189.976
20
-51.2098
11
189.974
21
-51.2018
0
LINE
8
BLACK
6
CONTINUOUS
10
189.974
20
-51.2018
11
189.974
21
-51.2004
0
LINE
8
BLACK
6
CONTINUOUS
10
189.974
20
-51.2004
11
189.974
21
-51.199
0
LINE
8
BLACK
6
CONTINUOUS
10
189.974
20
-51.199
11
189.975
21
-51.1907
0
LINE
8
BLACK
6
CONTINUOUS
10
189.975
20
-51.1907
11
189.976
21
-51.1823
0
LINE
8
BLACK
6
CONTINUOUS
10
189.976
20
-51.1823
11
189.977
21
-51.1811
0
LINE
8
BLACK
6
CONTINUOUS
10
189.977
20
-51.1811
11
189.977
21
-51.1797
0
LINE
8
BLACK
6
CONTINUOUS
10
189.977
20
-51.1797
11
189.981
21
-51.1726
0
LINE
8
BLACK
6
CONTINUOUS
10
189.981
20
-51.1726
11
189.985
21
-51.1651
0
LINE
8
BLACK
6
CONTINUOUS
10
189.985
20
-51.1651
11
202.368
21
-36.0839
0
LINE
8
BLACK
6
CONTINUOUS
10
202.368
20
-36.0839
11
202.374
21
-36.0784
0
LINE
8
BLACK
6
CONTINUOUS
10
202.374
20
-36.0784
11
202.381
21
-36.0726
0
LINE
8
BLACK
6
CONTINUOUS
10
202.381
20
-36.0726
11
202.382
21
-36.0722
0
LINE
8
BLACK
6
CONTINUOUS
10
202.382
20
-36.0722
11
202.383
21
-36.0715
0
LINE
8
BLACK
6
CONTINUOUS
10
202.383
20
-36.0715
11
202.391
21
-36.069
0
LINE
8
BLACK
6
CONTINUOUS
10
202.391
20
-36.069
11
202.399
21
-36.0661
0
LINE
8
BLACK
6
CONTINUOUS
10
202.399
20
-36.0661
11
202.4
21
-36.0662
0
LINE
8
BLACK
6
CONTINUOUS
10
202.4
20
-36.0662
11
202.401
21
-36.0659
0
LINE
8
BLACK
6
CONTINUOUS
10
202.401
20
-36.0659
11
202.41
21
-36.0667
0
LINE
8
BLACK
6
CONTINUOUS
10
304.785
20
-29.8109
11
304.789
21
-29.8105
0
LINE
8
BLACK
6
CONTINUOUS
10
304.789
20
-29.8105
11
304.795
21
-29.812
0
LINE
8
BLACK
6
CONTINUOUS
10
304.795
20
-29.812
11
304.8
21
-29.8127
0
LINE
8
BLACK
6
CONTINUOUS
10
304.8
20
-29.8127
11
328.295
21
-37.4327
0
LINE
8
BLACK
6
CONTINUOUS
10
328.295
20
-37.4327
11
328.297
21
-37.4337
0
LINE
8
BLACK
6
CONTINUOUS
10
328.297
20
-37.4337
11
328.299
21
-37.434
0
LINE
8
BLACK
6
CONTINUOUS
10
328.299
20
-37.434
11
328.305
21
-37.4384
0
LINE
8
BLACK
6
CONTINUOUS
10
328.305
20
-37.4384
11
328.312
21
-37.4422
0
LINE
8
BLACK
6
CONTINUOUS
10
328.312
20
-37.4422
11
328.313
21
-37.4438
0
LINE
8
BLACK
6
CONTINUOUS
10
328.313
20
-37.4438
11
328.315
21
-37.4449
0
LINE
8
BLACK
6
CONTINUOUS
10
328.315
20
-37.4449
11
328.95
21
-38.0799
0
LINE
8
BLACK
6
CONTINUOUS
10
328.95
20
-38.0799
11
328.954
21
-38.0859
0
LINE
8
BLACK
6
CONTINUOUS
10
328.954
20
-38.0859
11
328.959
21
-38.0915
0
LINE
8
BLACK
6
CONTINUOUS
10
328.959
20
-38.0915
11
360.074
21
-95.8765
0
LINE
8
BLACK
6
CONTINUOUS
10
360.074
20
-95.8765
11
360.075
21
-95.8806
0
LINE
8
BLACK
6
CONTINUOUS
10
360.075
20
-95.8806
11
360.077
21
-95.8843
0
LINE
8
BLACK
6
CONTINUOUS
10
360.077
20
-95.8843
11
360.078
21
-95.8898
0
LINE
8
BLACK
6
CONTINUOUS
10
360.078
20
-95.8898
11
360.08
21
-95.8952
0
LINE
8
BLACK
6
CONTINUOUS
10
360.08
20
-95.8952
11
360.079
21
-95.8994
0
LINE
8
BLACK
6
CONTINUOUS
10
360.079
20
-95.8994
11
360.08
21
-95.9036
0
LINE
8
BLACK
6
CONTINUOUS
10
360.08
20
-95.9036
11
360.078
21
-95.909
0
LINE
8
BLACK
6
CONTINUOUS
10
360.078
20
-95.909
11
360.078
21
-95.9146
0
LINE
8
BLACK
6
CONTINUOUS
10
360.078
20
-95.9146
11
360.076
21
-95.9184
0
LINE
8
BLACK
6
CONTINUOUS
10
360.076
20
-95.9184
11
360.075
21
-95.9224
0
LINE
8
BLACK
6
CONTINUOUS
10
360.075
20
-95.9224
11
360.071
21
-95.9269
0
LINE
8
BLACK
6
CONTINUOUS
10
360.071
20
-95.9269
11
360.069
21
-95.9318
0
LINE
8
BLACK
6
CONTINUOUS
10
360.069
20
-95.9318
11
360.065
21
-95.9345
0
LINE
8
BLACK
6
CONTINUOUS
10
360.065
20
-95.9345
11
360.063
21
-95.9379
0
LINE
8
BLACK
6
CONTINUOUS
10
360.063
20
-95.9379
11
360.058
21
-95.9407
0
LINE
8
BLACK
6
CONTINUOUS
10
360.058
20
-95.9407
11
360.053
21
-95.9443
0
LINE
8
BLACK
6
CONTINUOUS
10
360.053
20
-95.9443
11
360.049
21
-95.9455
0
LINE
8
BLACK
6
CONTINUOUS
10
360.049
20
-95.9455
11
360.046
21
-95.9476
0
LINE
8
BLACK
6
CONTINUOUS
10
360.046
20
-95.9476
11
305.436
21
-114.363
0
LINE
8
BLACK
6
CONTINUOUS
10
305.436
20
-114.363
11
305.429
21
-114.363
0
LINE
8
BLACK
6
CONTINUOUS
10
305.429
20
-114.363
11
305.423
21
-114.365
0
LINE
8
BLACK
6
CONTINUOUS
10
305.423
20
-114.365
11
305.42
21
-114.365
0
LINE
8
BLACK
6
CONTINUOUS
10
305.42
20
-114.365
11
305.416
21
-114.365
0
LINE
8
BLACK
6
CONTINUOUS
10
305.416
20
-114.365
11
305.41
21
-114.363
0
LINE
8
BLACK
6
CONTINUOUS
10
305.41
20
-114.363
11
305.404
21
-114.363
0
LINE
8
BLACK
6
CONTINUOUS
10
305.404
20
-114.363
11
238.729
21
-92.1377
0
LINE
8
BLACK
6
CONTINUOUS
10
238.729
20
-92.1377
11
238.721
21
-92.1332
0
LINE
8
BLACK
6
CONTINUOUS
10
238.721
20
-92.1332
11
238.713
21
-92.1289
0
LINE
8
BLACK
6
CONTINUOUS
10
238.713
20
-92.1289
11
238.713
21
-92.1284
0
LINE
8
BLACK
6
CONTINUOUS
10
238.713
20
-92.1284
11
238.712
21
-92.128
0
LINE
8
BLACK
6
CONTINUOUS
10
238.712
20
-92.128
11
238.706
21
-92.1209
0
LINE
8
BLACK
6
CONTINUOUS
10
238.706
20
-92.1209
11
238.701
21
-92.1139
0
LINE
8
BLACK
6
CONTINUOUS
10
238.701
20
-92.1139
11
238.7
21
-92.1132
0
LINE
8
BLACK
6
CONTINUOUS
10
238.7
20
-92.1132
11
238.7
21
-92.1126
0
LINE
8
BLACK
6
CONTINUOUS
10
238.7
20
-92.1126
11
238.698
21
-92.1039
0
LINE
8
BLACK
6
CONTINUOUS
10
238.698
20
-92.1039
11
238.695
21
-92.0952
0
LINE
8
BLACK
6
CONTINUOUS
10
238.695
20
-92.0952
11
238.695
21
-92.0945
0
LINE
8
BLACK
6
CONTINUOUS
10
238.695
20
-92.0945
11
238.695
21
-92.0938
0
LINE
8
BLACK
6
CONTINUOUS
10
238.695
20
-92.0938
11
238.696
21
-92.0848
0
LINE
8
BLACK
6
CONTINUOUS
10
238.696
20
-92.0848
11
238.697
21
-92.0758
0
LINE
8
BLACK
6
CONTINUOUS
10
238.697
20
-92.0758
11
238.697
21
-92.0752
0
LINE
8
BLACK
6
CONTINUOUS
10
238.697
20
-92.0752
11
238.697
21
-92.0744
0
LINE
8
BLACK
6
CONTINUOUS
10
238.697
20
-92.0744
11
238.702
21
-92.0666
0
LINE
8
BLACK
6
CONTINUOUS
10
238.702
20
-92.0666
11
238.706
21
-92.0586
0
LINE
8
BLACK
6
CONTINUOUS
10
238.706
20
-92.0586
11
250.136
21
-78.0886
0
LINE
8
BLACK
6
CONTINUOUS
10
250.136
20
-78.0886
11
250.141
21
-78.0842
0
LINE
8
BLACK
6
CONTINUOUS
10
250.141
20
-78.0842
11
250.146
21
-78.0792
0
LINE
8
BLACK
6
CONTINUOUS
10
250.146
20
-78.0792
11
250.149
21
-78.078
0
LINE
8
BLACK
6
CONTINUOUS
10
250.149
20
-78.078
11
250.151
21
-78.0762
0
LINE
8
BLACK
6
CONTINUOUS
10
250.151
20
-78.0762
11
250.158
21
-78.0742
0
LINE
8
BLACK
6
CONTINUOUS
10
250.158
20
-78.0742
11
250.164
21
-78.0714
0
LINE
8
BLACK
6
CONTINUOUS
10
250.164
20
-78.0714
11
250.167
21
-78.0713
0
LINE
8
BLACK
6
CONTINUOUS
10
250.167
20
-78.0713
11
250.17
21
-78.0705
0
LINE
8
BLACK
6
CONTINUOUS
10
250.17
20
-78.0705
11
250.177
21
-78.0712
0
LINE
8
BLACK
6
CONTINUOUS
10
250.177
20
-78.0712
11
250.184
21
-78.071
0
LINE
8
BLACK
6
CONTINUOUS
10
250.184
20
-78.071
11
323.763
21
-91.3914
0
LINE
8
BLACK
6
CONTINUOUS
10
323.763
20
-91.3914
11
304.737
21
-29.875
0
LINE
8
BLACK
6
CONTINUOUS
10
304.737
20
-29.875
11
304.736
21
-29.8695
0
LINE
8
BLACK
6
CONTINUOUS
10
304.736
20
-29.8695
11
304.735
21
-29.8642
0
LINE
8
BLACK
6
CONTINUOUS
10
304.735
20
-29.8642
11
304.735
21
-29.8599
0
LINE
8
BLACK
6
CONTINUOUS
10
304.735
20
-29.8599
11
304.735
21
-29.8556
0
LINE
8
BLACK
6
CONTINUOUS
10
304.735
20
-29.8556
11
304.737
21
-29.8503
0
LINE
8
BLACK
6
CONTINUOUS
10
304.737
20
-29.8503
11
304.737
21
-29.8448
0
LINE
8
BLACK
6
CONTINUOUS
10
304.737
20
-29.8448
11
304.739
21
-29.841
0
LINE
8
BLACK
6
CONTINUOUS
10
304.739
20
-29.841
11
304.741
21
-29.8369
0
LINE
8
BLACK
6
CONTINUOUS
10
304.741
20
-29.8369
11
304.744
21
-29.8326
0
LINE
8
BLACK
6
CONTINUOUS
10
304.744
20
-29.8326
11
304.747
21
-29.8278
0
LINE
8
BLACK
6
CONTINUOUS
10
304.747
20
-29.8278
11
304.75
21
-29.8251
0
LINE
8
BLACK
6
CONTINUOUS
10
304.75
20
-29.8251
11
304.753
21
-29.8218
0
LINE
8
BLACK
6
CONTINUOUS
10
304.753
20
-29.8218
11
304.758
21
-29.8191
0
LINE
8
BLACK
6
CONTINUOUS
10
304.758
20
-29.8191
11
304.762
21
-29.8157
0
LINE
8
BLACK
6
CONTINUOUS
10
304.762
20
-29.8157
11
304.766
21
-29.8145
0
LINE
8
BLACK
6
CONTINUOUS
10
304.766
20
-29.8145
11
304.77
21
-29.8125
0
LINE
8
BLACK
6
CONTINUOUS
10
304.77
20
-29.8125
11
304.775
21
-29.8119
0
LINE
8
BLACK
6
CONTINUOUS
10
304.775
20
-29.8119
11
304.781
21
-29.8104
0
LINE
8
BLACK
6
CONTINUOUS
10
304.781
20
-29.8104
11
304.785
21
-29.8109
0
LINE
8
BLACK
6
CONTINUOUS
10
32.0355
20
-39.2778
11
32.0355
21
-37.373
0
LINE
8
BLACK
6
CONTINUOUS
10
32.0355
20
-37.373
11
28.0355
21
-37.373
0
LINE
8
BLACK
6
CONTINUOUS
10
28.0355
20
-41.373
11
28.0355
21
-42.135
0
LINE
8
BLACK
6
CONTINUOUS
10
28.0355
20
-42.135
11
28.226
21
-42.5159
0
LINE
8
BLACK
6
CONTINUOUS
10
28.226
20
-42.5159
11
28.607
21
-42.8969
0
LINE
8
BLACK
6
CONTINUOUS
10
28.607
20
-42.8969
11
29.3689
21
-43.0873
0
LINE
8
BLACK
6
CONTINUOUS
10
29.3689
20
-43.0873
11
30.7022
21
-43.0873
0
LINE
8
BLACK
6
CONTINUOUS
10
30.7022
20
-43.0873
11
31.4641
21
-42.8969
0
LINE
8
BLACK
6
CONTINUOUS
10
31.4641
20
-42.8969
11
31.845
21
-42.5159
0
LINE
8
BLACK
6
CONTINUOUS
10
31.845
20
-42.5159
11
32.0355
21
-42.135
0
LINE
8
BLACK
6
CONTINUOUS
10
32.0355
20
-42.135
11
32.0355
21
-41.373
0
LINE
8
BLACK
6
CONTINUOUS
10
32.0355
20
-41.373
11
31.845
21
-40.9921
0
LINE
8
BLACK
6
CONTINUOUS
10
31.845
20
-40.9921
11
31.4641
21
-40.6111
0
LINE
8
BLACK
6
CONTINUOUS
10
31.4641
20
-40.6111
11
30.7022
21
-40.4207
0
LINE
8
BLACK
6
CONTINUOUS
10
30.7022
20
-40.4207
11
29.3689
21
-40.4207
0
LINE
8
BLACK
6
CONTINUOUS
10
29.3689
20
-40.4207
11
28.607
21
-40.6111
0
LINE
8
BLACK
6
CONTINUOUS
10
28.607
20
-40.6111
11
28.226
21
-40.9921
0
LINE
8
BLACK
6
CONTINUOUS
10
28.226
20
-40.9921
11
28.0355
21
-41.373
0
LINE
8
BLACK
6
CONTINUOUS
10
28.226
20
-46.8969
11
28.0355
21
-46.5159
0
LINE
8
BLACK
6
CONTINUOUS
10
28.0355
20
-46.5159
11
28.0355
21
-45.9445
0
LINE
8
BLACK
6
CONTINUOUS
10
28.0355
20
-45.9445
11
28.226
21
-45.373
0
LINE
8
BLACK
6
CONTINUOUS
10
28.226
20
-45.373
11
28.607
21
-44.9921
0
LINE
8
BLACK
6
CONTINUOUS
10
28.607
20
-44.9921
11
28.9879
21
-44.8016
0
LINE
8
BLACK
6
CONTINUOUS
10
28.9879
20
-44.8016
11
29.7498
21
-44.6111
0
LINE
8
BLACK
6
CONTINUOUS
10
29.7498
20
-44.6111
11
30.3212
21
-44.6111
0
LINE
8
BLACK
6
CONTINUOUS
10
30.3212
20
-44.6111
11
31.0831
21
-44.8016
0
LINE
8
BLACK
6
CONTINUOUS
10
31.0831
20
-44.8016
11
31.4641
21
-44.9921
0
LINE
8
BLACK
6
CONTINUOUS
10
31.4641
20
-44.9921
11
31.845
21
-45.373
0
LINE
8
BLACK
6
CONTINUOUS
10
31.845
20
-45.373
11
32.0355
21
-45.9445
0
LINE
8
BLACK
6
CONTINUOUS
10
32.0355
20
-45.9445
11
32.0355
21
-46.3254
0
LINE
8
BLACK
6
CONTINUOUS
10
32.0355
20
-46.3254
11
31.845
21
-46.8969
0
LINE
8
BLACK
6
CONTINUOUS
10
31.845
20
-46.8969
11
31.6546
21
-47.0873
0
LINE
8
BLACK
6
CONTINUOUS
10
31.6546
20
-47.0873
11
30.3212
21
-47.0873
0
LINE
8
BLACK
6
CONTINUOUS
10
30.3212
20
-47.0873
11
30.3212
21
-46.3254
0
LINE
8
BLACK
6
CONTINUOUS
10
28.0355
20
-49.5635
11
28.0355
21
-49.9445
0
LINE
8
BLACK
6
CONTINUOUS
10
28.0355
20
-49.9445
11
28.226
21
-50.3254
0
LINE
8
BLACK
6
CONTINUOUS
10
28.226
20
-50.3254
11
28.4165
21
-50.5159
0
LINE
8
BLACK
6
CONTINUOUS
10
28.4165
20
-50.5159
11
28.7974
21
-50.7064
0
LINE
8
BLACK
6
CONTINUOUS
10
28.7974
20
-50.7064
11
29.5593
21
-50.8969
0
LINE
8
BLACK
6
CONTINUOUS
10
29.5593
20
-50.8969
11
30.5117
21
-50.8969
0
LINE
8
BLACK
6
CONTINUOUS
10
30.5117
20
-50.8969
11
31.2736
21
-50.7064
0
LINE
8
BLACK
6
CONTINUOUS
10
31.2736
20
-50.7064
11
31.6546
21
-50.5159
0
LINE
8
BLACK
6
CONTINUOUS
10
31.6546
20
-50.5159
11
31.845
21
-50.3254
0
LINE
8
BLACK
6
CONTINUOUS
10
31.845
20
-50.3254
11
32.0355
21
-49.9445
0
LINE
8
BLACK
6
CONTINUOUS
10
32.0355
20
-49.9445
11
32.0355
21
-49.5635
0
LINE
8
BLACK
6
CONTINUOUS
10
32.0355
20
-49.5635
11
31.845
21
-49.1826
0
LINE
8
BLACK
6
CONTINUOUS
10
31.845
20
-49.1826
11
31.6546
21
-48.9921
0
LINE
8
BLACK
6
CONTINUOUS
10
31.6546
20
-48.9921
11
31.2736
21
-48.8016
0
LINE
8
BLACK
6
CONTINUOUS
10
31.2736
20
-48.8016
11
30.5117
21
-48.6111
0
LINE
8
BLACK
6
CONTINUOUS
10
30.5117
20
-48.6111
11
29.5593
21
-48.6111
0
LINE
8
BLACK
6
CONTINUOUS
10
29.5593
20
-48.6111
11
28.7974
21
-48.8016
0
LINE
8
BLACK
6
CONTINUOUS
10
28.7974
20
-48.8016
11
28.4165
21
-48.9921
0
LINE
8
BLACK
6
CONTINUOUS
10
28.4165
20
-48.9921
11
28.226
21
-49.1826
0
LINE
8
BLACK
6
CONTINUOUS
10
28.226
20
-49.1826
11
28.0355
21
-49.5635
0
LINE
8
BLACK
6
CONTINUOUS
10
31.6546
20
-52.6111
11
31.845
21
-52.8016
0
LINE
8
BLACK
6
CONTINUOUS
10
31.845
20
-52.8016
11
32.0355
21
-52.6111
0
LINE
8
BLACK
6
CONTINUOUS
10
32.0355
20
-52.6111
11
31.845
21
-52.4207
0
LINE
8
BLACK
6
CONTINUOUS
10
31.845
20
-52.4207
11
31.6546
21
-52.6111
0
LINE
8
BLACK
6
CONTINUOUS
10
31.6546
20
-52.6111
11
32.0355
21
-52.6111
0
LINE
8
BLACK
6
CONTINUOUS
10
32.0355
20
-54.5159
11
28.0355
21
-54.5159
0
LINE
8
BLACK
6
CONTINUOUS
10
32.0355
20
-56.8016
11
29.7498
21
-55.0873
0
LINE
8
BLACK
6
CONTINUOUS
10
28.0355
20
-56.8016
11
30.3212
21
-54.5159
0
LINE
8
BLACK
6
CONTINUOUS
10
31.845
20
-60.0397
11
32.0355
21
-59.6588
0
LINE
8
BLACK
6
CONTINUOUS
10
32.0355
20
-59.6588
11
32.0355
21
-58.8969
0
LINE
8
BLACK
6
CONTINUOUS
10
32.0355
20
-58.8969
11
31.845
21
-58.5159
0
LINE
8
BLACK
6
CONTINUOUS
10
31.845
20
-58.5159
11
31.4641
21
-58.3254
0
LINE
8
BLACK
6
CONTINUOUS
10
31.4641
20
-58.3254
11
29.9403
21
-58.3254
0
LINE
8
BLACK
6
CONTINUOUS
10
29.9403
20
-58.3254
11
29.5593
21
-58.5159
0
LINE
8
BLACK
6
CONTINUOUS
10
29.5593
20
-58.5159
11
29.3689
21
-58.8969
0
LINE
8
BLACK
6
CONTINUOUS
10
29.3689
20
-58.8969
11
29.3689
21
-59.6588
0
LINE
8
BLACK
6
CONTINUOUS
10
29.3689
20
-59.6588
11
29.5593
21
-60.0397
0
LINE
8
BLACK
6
CONTINUOUS
10
29.5593
20
-60.0397
11
29.9403
21
-60.2302
0
LINE
8
BLACK
6
CONTINUOUS
10
29.9403
20
-60.2302
11
30.3212
21
-60.2302
0
LINE
8
BLACK
6
CONTINUOUS
10
30.3212
20
-60.2302
11
30.7022
21
-58.3254
0
LINE
8
BLACK
6
CONTINUOUS
10
29.3689
20
-61.5635
11
32.0355
21
-62.5159
0
LINE
8
BLACK
6
CONTINUOUS
10
29.3689
20
-63.4683
11
32.0355
21
-62.5159
0
LINE
8
BLACK
6
CONTINUOUS
10
32.0355
20
-62.5159
11
32.9879
21
-62.135
0
LINE
8
BLACK
6
CONTINUOUS
10
32.9879
20
-62.135
11
33.1784
21
-61.9445
0
LINE
8
BLACK
6
CONTINUOUS
10
33.1784
20
-61.9445
11
33.3689
21
-61.5635
0
LINE
8
BLACK
6
CONTINUOUS
10
31.6546
20
-64.9921
11
31.845
21
-65.1826
0
LINE
8
BLACK
6
CONTINUOUS
10
31.845
20
-65.1826
11
32.0355
21
-64.9921
0
LINE
8
BLACK
6
CONTINUOUS
10
32.0355
20
-64.9921
11
31.845
21
-64.8016
0
LINE
8
BLACK
6
CONTINUOUS
10
31.845
20
-64.8016
11
31.6546
21
-64.9921
0
LINE
8
BLACK
6
CONTINUOUS
10
31.6546
20
-64.9921
11
32.0355
21
-64.9921
0
LINE
8
BLACK
6
CONTINUOUS
10
30.1308
20
-67.6588
11
32.0355
21
-67.6588
0
LINE
8
BLACK
6
CONTINUOUS
10
28.0355
20
-66.3254
11
30.1308
21
-67.6588
0
LINE
8
BLACK
6
CONTINUOUS
10
30.1308
20
-67.6588
11
28.0355
21
-68.9921
0
LINE
8
BLACK
6
CONTINUOUS
10
31.845
20
-71.8492
11
32.0355
21
-71.4683
0
LINE
8
BLACK
6
CONTINUOUS
10
32.0355
20
-71.4683
11
32.0355
21
-70.7064
0
LINE
8
BLACK
6
CONTINUOUS
10
32.0355
20
-70.7064
11
31.845
21
-70.3254
0
LINE
8
BLACK
6
CONTINUOUS
10
31.845
20
-70.3254
11
31.4641
21
-70.135
0
LINE
8
BLACK
6
CONTINUOUS
10
31.4641
20
-70.135
11
29.9403
21
-70.135
0
LINE
8
BLACK
6
CONTINUOUS
10
29.9403
20
-70.135
11
29.5593
21
-70.3254
0
LINE
8
BLACK
6
CONTINUOUS
10
29.5593
20
-70.3254
11
29.3689
21
-70.7064
0
LINE
8
BLACK
6
CONTINUOUS
10
29.3689
20
-70.7064
11
29.3689
21
-71.4683
0
LINE
8
BLACK
6
CONTINUOUS
10
29.3689
20
-71.4683
11
29.5593
21
-71.8492
0
LINE
8
BLACK
6
CONTINUOUS
10
29.5593
20
-71.8492
11
29.9403
21
-72.0397
0
LINE
8
BLACK
6
CONTINUOUS
10
29.9403
20
-72.0397
11
30.3212
21
-72.0397
0
LINE
8
BLACK
6
CONTINUOUS
10
30.3212
20
-72.0397
11
30.7022
21
-70.135
0
LINE
8
BLACK
6
CONTINUOUS
10
31.845
20
-75.2778
11
32.0355
21
-74.8969
0
LINE
8
BLACK
6
CONTINUOUS
10
32.0355
20
-74.8969
11
32.0355
21
-74.135
0
LINE
8
BLACK
6
CONTINUOUS
10
32.0355
20
-74.135
11
31.845
21
-73.754
0
LINE
8
BLACK
6
CONTINUOUS
10
31.845
20
-73.754
11
31.4641
21
-73.5635
0
LINE
8
BLACK
6
CONTINUOUS
10
31.4641
20
-73.5635
11
29.9403
21
-73.5635
0
LINE
8
BLACK
6
CONTINUOUS
10
29.9403
20
-73.5635
11
29.5593
21
-73.754
0
LINE
8
BLACK
6
CONTINUOUS
10
29.5593
20
-73.754
11
29.3689
21
-74.135
0
LINE
8
BLACK
6
CONTINUOUS
10
29.3689
20
-74.135
11
29.3689
21
-74.8969
0
LINE
8
BLACK
6
CONTINUOUS
10
29.3689
20
-74.8969
11
29.5593
21
-75.2778
0
LINE
8
BLACK
6
CONTINUOUS
10
29.5593
20
-75.2778
11
29.9403
21
-75.4683
0
LINE
8
BLACK
6
CONTINUOUS
10
29.9403
20
-75.4683
11
30.3212
21
-75.4683
0
LINE
8
BLACK
6
CONTINUOUS
10
30.3212
20
-75.4683
11
30.7022
21
-73.5635
0
LINE
8
BLACK
6
CONTINUOUS
10
29.3689
20
-76.6111
11
29.3689
21
-78.135
0
LINE
8
BLACK
6
CONTINUOUS
10
28.0355
20
-77.1826
11
31.4641
21
-77.1826
0
LINE
8
BLACK
6
CONTINUOUS
10
31.4641
20
-77.1826
11
31.845
21
-77.373
0
LINE
8
BLACK
6
CONTINUOUS
10
31.845
20
-77.373
11
32.0355
21
-77.754
0
LINE
8
BLACK
6
CONTINUOUS
10
32.0355
20
-77.754
11
32.0355
21
-78.135
0
LINE
8
BLACK
6
CONTINUOUS
10
28.0355
20
-82.135
11
28.0355
21
-84.6111
0
LINE
8
BLACK
6
CONTINUOUS
10
28.0355
20
-84.6111
11
29.5593
21
-83.2778
0
LINE
8
BLACK
6
CONTINUOUS
10
29.5593
20
-83.2778
11
29.5593
21
-83.8492
0
LINE
8
BLACK
6
CONTINUOUS
10
29.5593
20
-83.8492
11
29.7498
21
-84.2302
0
LINE
8
BLACK
6
CONTINUOUS
10
29.7498
20
-84.2302
11
29.9403
21
-84.4207
0
LINE
8
BLACK
6
CONTINUOUS
10
29.9403
20
-84.4207
11
30.3212
21
-84.6111
0
LINE
8
BLACK
6
CONTINUOUS
10
30.3212
20
-84.6111
11
31.2736
21
-84.6111
0
LINE
8
BLACK
6
CONTINUOUS
10
31.2736
20
-84.6111
11
31.6546
21
-84.4207
0
LINE
8
BLACK
6
CONTINUOUS
10
31.6546
20
-84.4207
11
31.845
21
-84.2302
0
LINE
8
BLACK
6
CONTINUOUS
10
31.845
20
-84.2302
11
32.0355
21
-83.8492
0
LINE
8
BLACK
6
CONTINUOUS
10
32.0355
20
-83.8492
11
32.0355
21
-82.7064
0
LINE
8
BLACK
6
CONTINUOUS
10
32.0355
20
-82.7064
11
31.845
21
-82.3254
0
LINE
8
BLACK
6
CONTINUOUS
10
31.845
20
-82.3254
11
31.6546
21
-82.135
0
LINE
8
BLACK
6
CONTINUOUS
10
31.6546
20
-86.3254
11
31.845
21
-86.5159
0
LINE
8
BLACK
6
CONTINUOUS
10
31.845
20
-86.5159
11
32.0355
21
-86.3254
0
LINE
8
BLACK
6
CONTINUOUS
10
32.0355
20
-86.3254
11
31.845
21
-86.135
0
LINE
8
BLACK
6
CONTINUOUS
10
31.845
20
-86.135
11
31.6546
21
-86.3254
0
LINE
8
BLACK
6
CONTINUOUS
10
31.6546
20
-86.3254
11
32.0355
21
-86.3254
0
LINE
8
BLACK
6
CONTINUOUS
10
32.0355
20
-90.3254
11
32.0355
21
-88.0397
0
LINE
8
BLACK
6
CONTINUOUS
10
32.0355
20
-89.1826
11
28.0355
21
-89.1826
0
LINE
8
BLACK
6
CONTINUOUS
10
28.0355
20
-89.1826
11
28.607
21
-88.8016
0
LINE
8
BLACK
6
CONTINUOUS
10
28.607
20
-88.8016
11
28.9879
21
-88.4207
0
LINE
8
BLACK
6
CONTINUOUS
10
28.9879
20
-88.4207
11
29.1784
21
-88.0397
  0
ENDSEC
  0
EOF
