%TF.GenerationSoftware,KiCad,Pcbnew,(5.1.10)-1*%
%TF.CreationDate,2021-09-10T11:23:46-07:00*%
%TF.ProjectId,chgray-keyboard,63686772-6179-42d6-9b65-79626f617264,Yeet2*%
%TF.SameCoordinates,Original*%
%TF.FileFunction,Other,ECO2*%
%FSLAX46Y46*%
G04 Gerber Fmt 4.6, Leading zero omitted, Abs format (unit mm)*
G04 Created by KiCad (PCBNEW (5.1.10)-1) date 2021-09-10 11:23:46*
%MOMM*%
%LPD*%
G01*
G04 APERTURE LIST*
%ADD10C,0.152400*%
%ADD11C,0.150000*%
G04 APERTURE END LIST*
D10*
%TO.C,SW58*%
X226187000Y-107061000D02*
X240157000Y-107061000D01*
X240157000Y-107061000D02*
X240157000Y-109169200D01*
X240157000Y-119862600D02*
X240157000Y-121031000D01*
X240157000Y-121031000D02*
X226187000Y-121031000D01*
X226187000Y-121031000D02*
X226187000Y-119862600D01*
X226187000Y-109169200D02*
X226187000Y-107061000D01*
D11*
X226282000Y-120936000D02*
X226282000Y-107136000D01*
X240082000Y-107136000D02*
X240082000Y-120936000D01*
X240082000Y-107136000D02*
X226282000Y-107136000D01*
X226282000Y-120936000D02*
X240082000Y-120936000D01*
X230572000Y-121285000D02*
X235772000Y-121285000D01*
X230572000Y-118085000D02*
X230572000Y-121285000D01*
X235772000Y-118046000D02*
X235772000Y-121246000D01*
X235772000Y-118046000D02*
X230572000Y-118046000D01*
D10*
%TO.C,SW57*%
X155194000Y-111760000D02*
X155194000Y-107061000D01*
X115468400Y-111760000D02*
X155194000Y-111760000D01*
X115468400Y-108356400D02*
X115468400Y-111760000D01*
X108813600Y-108356400D02*
X115468400Y-108356400D01*
X108813600Y-111760000D02*
X108813600Y-108356400D01*
X107950000Y-111760000D02*
X108813600Y-111760000D01*
X107950000Y-114554000D02*
X107950000Y-111760000D01*
X108813600Y-114554000D02*
X107950000Y-114554000D01*
X108813600Y-120650000D02*
X108813600Y-114554000D01*
X109855000Y-120650000D02*
X108813600Y-120650000D01*
X109855000Y-121818400D02*
X109855000Y-120650000D01*
X114427000Y-121818400D02*
X109855000Y-121818400D01*
X114427000Y-120650000D02*
X114427000Y-121818400D01*
X115468400Y-120650000D02*
X114427000Y-120650000D01*
X115468400Y-116332000D02*
X115468400Y-120650000D01*
X155194000Y-116332000D02*
X115468400Y-116332000D01*
X155194000Y-121031000D02*
X155194000Y-116332000D01*
X169164000Y-121031000D02*
X155194000Y-121031000D01*
X169164000Y-116332000D02*
X169164000Y-121031000D01*
X208889600Y-116332000D02*
X169164000Y-116332000D01*
X208889600Y-120650000D02*
X208889600Y-116332000D01*
X209931000Y-120650000D02*
X208889600Y-120650000D01*
X209931000Y-121818400D02*
X209931000Y-120650000D01*
X214503000Y-121818400D02*
X209931000Y-121818400D01*
X214503000Y-120650000D02*
X214503000Y-121818400D01*
X215544400Y-120650000D02*
X214503000Y-120650000D01*
X215544400Y-114554000D02*
X215544400Y-120650000D01*
X216408000Y-114554000D02*
X215544400Y-114554000D01*
X216408000Y-111760000D02*
X216408000Y-114554000D01*
X215544400Y-111760000D02*
X216408000Y-111760000D01*
X215544400Y-108356400D02*
X215544400Y-111760000D01*
X208889600Y-108356400D02*
X215544400Y-108356400D01*
X208889600Y-111760000D02*
X208889600Y-108356400D01*
X169164000Y-111760000D02*
X208889600Y-111760000D01*
X169164000Y-107061000D02*
X169164000Y-111760000D01*
X155194000Y-107061000D02*
X169164000Y-107061000D01*
%TO.C,RIGHT-SPACE1*%
X250063000Y-107061000D02*
X264033000Y-107061000D01*
X264033000Y-107061000D02*
X264033000Y-109169200D01*
X264033000Y-119862600D02*
X264033000Y-121031000D01*
X264033000Y-121031000D02*
X250063000Y-121031000D01*
X250063000Y-121031000D02*
X250063000Y-119862600D01*
X250063000Y-109169200D02*
X250063000Y-107061000D01*
D11*
X250158000Y-120936000D02*
X250158000Y-107136000D01*
X263958000Y-107136000D02*
X263958000Y-120936000D01*
X263958000Y-107136000D02*
X250158000Y-107136000D01*
X250158000Y-120936000D02*
X263958000Y-120936000D01*
X254448000Y-121285000D02*
X259648000Y-121285000D01*
X254448000Y-118085000D02*
X254448000Y-121285000D01*
X259648000Y-118046000D02*
X259648000Y-121246000D01*
X259648000Y-118046000D02*
X254448000Y-118046000D01*
%TO.C,LEFT_ALT1*%
X128736000Y-25569000D02*
X142536000Y-25569000D01*
X142536000Y-11769000D02*
X128736000Y-11769000D01*
X142536000Y-11769000D02*
X142536000Y-25569000D01*
X128736000Y-25569000D02*
X128736000Y-11769000D01*
X138236000Y-22669000D02*
X138236000Y-25869000D01*
X133036000Y-22708000D02*
X133036000Y-25908000D01*
X133036000Y-25908000D02*
X138236000Y-25908000D01*
X138236000Y-22669000D02*
X133036000Y-22669000D01*
%TO.C,RIGHT-SHIFT2*%
X204936000Y-25569000D02*
X218736000Y-25569000D01*
X218736000Y-11769000D02*
X204936000Y-11769000D01*
X218736000Y-11769000D02*
X218736000Y-25569000D01*
X204936000Y-25569000D02*
X204936000Y-11769000D01*
X214436000Y-22669000D02*
X214436000Y-25869000D01*
X209236000Y-22708000D02*
X209236000Y-25908000D01*
X209236000Y-25908000D02*
X214436000Y-25908000D01*
X214436000Y-22669000D02*
X209236000Y-22669000D01*
%TO.C,LEFT-SPACE1*%
X147786000Y-25569000D02*
X161586000Y-25569000D01*
X161586000Y-11769000D02*
X147786000Y-11769000D01*
X161586000Y-11769000D02*
X161586000Y-25569000D01*
X147786000Y-25569000D02*
X147786000Y-11769000D01*
X157286000Y-22669000D02*
X157286000Y-25869000D01*
X152086000Y-22708000D02*
X152086000Y-25908000D01*
X152086000Y-25908000D02*
X157286000Y-25908000D01*
X157286000Y-22669000D02*
X152086000Y-22669000D01*
%TO.C,SW50*%
X324265000Y-25569000D02*
X338065000Y-25569000D01*
X338065000Y-11769000D02*
X324265000Y-11769000D01*
X338065000Y-11769000D02*
X338065000Y-25569000D01*
X324265000Y-25569000D02*
X324265000Y-11769000D01*
X333765000Y-22669000D02*
X333765000Y-25869000D01*
X328565000Y-22708000D02*
X328565000Y-25908000D01*
X328565000Y-25908000D02*
X333765000Y-25908000D01*
X333765000Y-22669000D02*
X328565000Y-22669000D01*
%TO.C,SW45*%
X262086000Y-25569000D02*
X275886000Y-25569000D01*
X275886000Y-11769000D02*
X262086000Y-11769000D01*
X275886000Y-11769000D02*
X275886000Y-25569000D01*
X262086000Y-25569000D02*
X262086000Y-11769000D01*
X271586000Y-22669000D02*
X271586000Y-25869000D01*
X266386000Y-22708000D02*
X266386000Y-25908000D01*
X266386000Y-25908000D02*
X271586000Y-25908000D01*
X271586000Y-22669000D02*
X266386000Y-22669000D01*
%TO.C,SW37*%
X362238000Y-25569000D02*
X376038000Y-25569000D01*
X376038000Y-11769000D02*
X362238000Y-11769000D01*
X376038000Y-11769000D02*
X376038000Y-25569000D01*
X362238000Y-25569000D02*
X362238000Y-11769000D01*
X371738000Y-22669000D02*
X371738000Y-25869000D01*
X366538000Y-22708000D02*
X366538000Y-25908000D01*
X366538000Y-25908000D02*
X371738000Y-25908000D01*
X371738000Y-22669000D02*
X366538000Y-22669000D01*
%TO.C,SW25*%
X281136000Y-25569000D02*
X294936000Y-25569000D01*
X294936000Y-11769000D02*
X281136000Y-11769000D01*
X294936000Y-11769000D02*
X294936000Y-25569000D01*
X281136000Y-25569000D02*
X281136000Y-11769000D01*
X290636000Y-22669000D02*
X290636000Y-25869000D01*
X285436000Y-22708000D02*
X285436000Y-25908000D01*
X285436000Y-25908000D02*
X290636000Y-25908000D01*
X290636000Y-22669000D02*
X285436000Y-22669000D01*
%TO.C,SW21*%
X300334000Y-25569000D02*
X314134000Y-25569000D01*
X314134000Y-11769000D02*
X300334000Y-11769000D01*
X314134000Y-11769000D02*
X314134000Y-25569000D01*
X300334000Y-25569000D02*
X300334000Y-11769000D01*
X309834000Y-22669000D02*
X309834000Y-25869000D01*
X304634000Y-22708000D02*
X304634000Y-25908000D01*
X304634000Y-25908000D02*
X309834000Y-25908000D01*
X309834000Y-22669000D02*
X304634000Y-22669000D01*
%TO.C,SW13*%
X243036000Y-25569000D02*
X256836000Y-25569000D01*
X256836000Y-11769000D02*
X243036000Y-11769000D01*
X256836000Y-11769000D02*
X256836000Y-25569000D01*
X243036000Y-25569000D02*
X243036000Y-11769000D01*
X252536000Y-22669000D02*
X252536000Y-25869000D01*
X247336000Y-22708000D02*
X247336000Y-25908000D01*
X247336000Y-25908000D02*
X252536000Y-25908000D01*
X252536000Y-22669000D02*
X247336000Y-22669000D01*
%TO.C,SW9*%
X343315000Y-25569000D02*
X357115000Y-25569000D01*
X357115000Y-11769000D02*
X343315000Y-11769000D01*
X357115000Y-11769000D02*
X357115000Y-25569000D01*
X343315000Y-25569000D02*
X343315000Y-11769000D01*
X352815000Y-22669000D02*
X352815000Y-25869000D01*
X347615000Y-22708000D02*
X347615000Y-25908000D01*
X347615000Y-25908000D02*
X352815000Y-25908000D01*
X352815000Y-22669000D02*
X347615000Y-22669000D01*
%TO.C,SW3*%
X223986000Y-25569000D02*
X237786000Y-25569000D01*
X237786000Y-11769000D02*
X223986000Y-11769000D01*
X237786000Y-11769000D02*
X237786000Y-25569000D01*
X223986000Y-25569000D02*
X223986000Y-11769000D01*
X233486000Y-22669000D02*
X233486000Y-25869000D01*
X228286000Y-22708000D02*
X228286000Y-25908000D01*
X228286000Y-25908000D02*
X233486000Y-25908000D01*
X233486000Y-22669000D02*
X228286000Y-22669000D01*
D10*
%TO.C,RightMeta1*%
X297745000Y-107061000D02*
X311715000Y-107061000D01*
X311715000Y-107061000D02*
X311715000Y-109169200D01*
X311715000Y-119862600D02*
X311715000Y-121031000D01*
X311715000Y-121031000D02*
X297745000Y-121031000D01*
X297745000Y-121031000D02*
X297745000Y-119862600D01*
X297745000Y-109169200D02*
X297745000Y-107061000D01*
D11*
X297840000Y-120936000D02*
X297840000Y-107136000D01*
X311640000Y-107136000D02*
X311640000Y-120936000D01*
X311640000Y-107136000D02*
X297840000Y-107136000D01*
X297840000Y-120936000D02*
X311640000Y-120936000D01*
X302130000Y-121285000D02*
X307330000Y-121285000D01*
X302130000Y-118085000D02*
X302130000Y-121285000D01*
X307330000Y-118046000D02*
X307330000Y-121246000D01*
X307330000Y-118046000D02*
X302130000Y-118046000D01*
D10*
%TO.C,RIGHT-SHIFT1*%
X306451000Y-92710000D02*
X306451000Y-95504000D01*
X298932600Y-90119200D02*
X298932600Y-89306400D01*
X283337000Y-88011000D02*
X297307000Y-88011000D01*
X305587400Y-101600000D02*
X304546000Y-101600000D01*
X298932600Y-89306400D02*
X305587400Y-89306400D01*
X297307000Y-90119200D02*
X298932600Y-90119200D01*
X305587400Y-92710000D02*
X306451000Y-92710000D01*
X304546000Y-102768400D02*
X299974000Y-102768400D01*
X305587400Y-95504000D02*
X305587400Y-101600000D01*
X297307000Y-88011000D02*
X297307000Y-90119200D01*
X306451000Y-95504000D02*
X305587400Y-95504000D01*
X304546000Y-101600000D02*
X304546000Y-102768400D01*
X305587400Y-89306400D02*
X305587400Y-92710000D01*
X299974000Y-101600000D02*
X298932600Y-101600000D01*
X283337000Y-100812600D02*
X281711400Y-100812600D01*
X276098000Y-102768400D02*
X276098000Y-101600000D01*
X274193000Y-95504000D02*
X274193000Y-92710000D01*
X275056600Y-89306400D02*
X281711400Y-89306400D01*
X281711400Y-90119200D02*
X283337000Y-90119200D01*
X298932600Y-101600000D02*
X298932600Y-100812600D01*
X298932600Y-100812600D02*
X297307000Y-100812600D01*
X297307000Y-100812600D02*
X297307000Y-101981000D01*
X297307000Y-101981000D02*
X283337000Y-101981000D01*
X280670000Y-101600000D02*
X280670000Y-102768400D01*
X283337000Y-101981000D02*
X283337000Y-100812600D01*
X275056600Y-95504000D02*
X274193000Y-95504000D01*
X281711400Y-100812600D02*
X281711400Y-101600000D01*
X281711400Y-101600000D02*
X280670000Y-101600000D01*
X274193000Y-92710000D02*
X275056600Y-92710000D01*
X283337000Y-90119200D02*
X283337000Y-88011000D01*
X275056600Y-101600000D02*
X275056600Y-95504000D01*
X281711400Y-89306400D02*
X281711400Y-90119200D01*
X280670000Y-102768400D02*
X276098000Y-102768400D01*
X276098000Y-101600000D02*
X275056600Y-101600000D01*
X275056600Y-92710000D02*
X275056600Y-89306400D01*
X299974000Y-102768400D02*
X299974000Y-101600000D01*
D11*
X283432000Y-101886000D02*
X283432000Y-88086000D01*
X297232000Y-88086000D02*
X297232000Y-101886000D01*
X297232000Y-88086000D02*
X283432000Y-88086000D01*
X283432000Y-101886000D02*
X297232000Y-101886000D01*
X287722000Y-102235000D02*
X292922000Y-102235000D01*
X287722000Y-99035000D02*
X287722000Y-102235000D01*
X292922000Y-98996000D02*
X292922000Y-102196000D01*
X292922000Y-98996000D02*
X287722000Y-98996000D01*
D10*
%TO.C,ENTER1*%
X311339000Y-73533000D02*
X311339000Y-76327000D01*
X303820600Y-70942200D02*
X303820600Y-70129400D01*
X288225000Y-68834000D02*
X302195000Y-68834000D01*
X310475400Y-82423000D02*
X309434000Y-82423000D01*
X303820600Y-70129400D02*
X310475400Y-70129400D01*
X302195000Y-70942200D02*
X303820600Y-70942200D01*
X310475400Y-73533000D02*
X311339000Y-73533000D01*
X309434000Y-83591400D02*
X304862000Y-83591400D01*
X310475400Y-76327000D02*
X310475400Y-82423000D01*
X302195000Y-68834000D02*
X302195000Y-70942200D01*
X311339000Y-76327000D02*
X310475400Y-76327000D01*
X309434000Y-82423000D02*
X309434000Y-83591400D01*
X310475400Y-70129400D02*
X310475400Y-73533000D01*
X304862000Y-82423000D02*
X303820600Y-82423000D01*
X288225000Y-81635600D02*
X286599400Y-81635600D01*
X280986000Y-83591400D02*
X280986000Y-82423000D01*
X279081000Y-76327000D02*
X279081000Y-73533000D01*
X279944600Y-70129400D02*
X286599400Y-70129400D01*
X286599400Y-70942200D02*
X288225000Y-70942200D01*
X303820600Y-82423000D02*
X303820600Y-81635600D01*
X303820600Y-81635600D02*
X302195000Y-81635600D01*
X302195000Y-81635600D02*
X302195000Y-82804000D01*
X302195000Y-82804000D02*
X288225000Y-82804000D01*
X285558000Y-82423000D02*
X285558000Y-83591400D01*
X288225000Y-82804000D02*
X288225000Y-81635600D01*
X279944600Y-76327000D02*
X279081000Y-76327000D01*
X286599400Y-81635600D02*
X286599400Y-82423000D01*
X286599400Y-82423000D02*
X285558000Y-82423000D01*
X279081000Y-73533000D02*
X279944600Y-73533000D01*
X288225000Y-70942200D02*
X288225000Y-68834000D01*
X279944600Y-82423000D02*
X279944600Y-76327000D01*
X286599400Y-70129400D02*
X286599400Y-70942200D01*
X285558000Y-83591400D02*
X280986000Y-83591400D01*
X280986000Y-82423000D02*
X279944600Y-82423000D01*
X279944600Y-73533000D02*
X279944600Y-70129400D01*
X304862000Y-83591400D02*
X304862000Y-82423000D01*
D11*
X288320000Y-82709000D02*
X288320000Y-68909000D01*
X302120000Y-68909000D02*
X302120000Y-82709000D01*
X302120000Y-68909000D02*
X288320000Y-68909000D01*
X288320000Y-82709000D02*
X302120000Y-82709000D01*
X292610000Y-83058000D02*
X297810000Y-83058000D01*
X292610000Y-79858000D02*
X292610000Y-83058000D01*
X297810000Y-79819000D02*
X297810000Y-83019000D01*
X297810000Y-79819000D02*
X292610000Y-79819000D01*
%TO.C,SW4*%
X33486000Y-44573900D02*
X47286000Y-44573900D01*
X47286000Y-30773900D02*
X33486000Y-30773900D01*
X47286000Y-30773900D02*
X47286000Y-44573900D01*
X33486000Y-44573900D02*
X33486000Y-30773900D01*
X42986000Y-41673900D02*
X42986000Y-44873900D01*
X37786000Y-41712900D02*
X37786000Y-44912900D01*
X37786000Y-44912900D02*
X42986000Y-44912900D01*
X42986000Y-41673900D02*
X37786000Y-41673900D01*
D10*
%TO.C,WinKey1*%
X83693000Y-107061000D02*
X97663000Y-107061000D01*
X97663000Y-107061000D02*
X97663000Y-109169200D01*
X97663000Y-119862600D02*
X97663000Y-121031000D01*
X97663000Y-121031000D02*
X83693000Y-121031000D01*
X83693000Y-121031000D02*
X83693000Y-119862600D01*
X83693000Y-109169200D02*
X83693000Y-107061000D01*
D11*
X83788000Y-120936000D02*
X83788000Y-107136000D01*
X97588000Y-107136000D02*
X97588000Y-120936000D01*
X97588000Y-107136000D02*
X83788000Y-107136000D01*
X83788000Y-120936000D02*
X97588000Y-120936000D01*
X88078000Y-121285000D02*
X93278000Y-121285000D01*
X88078000Y-118085000D02*
X88078000Y-121285000D01*
X93278000Y-118046000D02*
X93278000Y-121246000D01*
X93278000Y-118046000D02*
X88078000Y-118046000D01*
D10*
%TO.C,LEFT_FN1*%
X59817000Y-107061000D02*
X73787000Y-107061000D01*
X73787000Y-107061000D02*
X73787000Y-109169200D01*
X73787000Y-119862600D02*
X73787000Y-121031000D01*
X73787000Y-121031000D02*
X59817000Y-121031000D01*
X59817000Y-121031000D02*
X59817000Y-119862600D01*
X59817000Y-109169200D02*
X59817000Y-107061000D01*
D11*
X59912000Y-120936000D02*
X59912000Y-107136000D01*
X73712000Y-107136000D02*
X73712000Y-120936000D01*
X73712000Y-107136000D02*
X59912000Y-107136000D01*
X59912000Y-120936000D02*
X73712000Y-120936000D01*
X64202000Y-121285000D02*
X69402000Y-121285000D01*
X64202000Y-118085000D02*
X64202000Y-121285000D01*
X69402000Y-118046000D02*
X69402000Y-121246000D01*
X69402000Y-118046000D02*
X64202000Y-118046000D01*
D10*
%TO.C,LEFT_CTRL1*%
X35899700Y-107061000D02*
X49869700Y-107061000D01*
X49869700Y-107061000D02*
X49869700Y-109169200D01*
X49869700Y-119862600D02*
X49869700Y-121031000D01*
X49869700Y-121031000D02*
X35899700Y-121031000D01*
X35899700Y-121031000D02*
X35899700Y-119862600D01*
X35899700Y-109169200D02*
X35899700Y-107061000D01*
D11*
X35994700Y-120936000D02*
X35994700Y-107136000D01*
X49794700Y-107136000D02*
X49794700Y-120936000D01*
X49794700Y-107136000D02*
X35994700Y-107136000D01*
X35994700Y-120936000D02*
X49794700Y-120936000D01*
X40284700Y-121285000D02*
X45484700Y-121285000D01*
X40284700Y-118085000D02*
X40284700Y-121285000D01*
X45484700Y-118046000D02*
X45484700Y-121246000D01*
X45484700Y-118046000D02*
X40284700Y-118046000D01*
%TO.C,Slash1*%
X304955000Y-60642000D02*
X299755000Y-60642000D01*
X304955000Y-60642000D02*
X304955000Y-63842000D01*
X299755000Y-60681000D02*
X299755000Y-63881000D01*
X299755000Y-63881000D02*
X304955000Y-63881000D01*
D10*
X295370000Y-49657000D02*
X309340000Y-49657000D01*
X309340000Y-49657000D02*
X309340000Y-51765200D01*
X309340000Y-62458600D02*
X309340000Y-63627000D01*
X309340000Y-63627000D02*
X295370000Y-63627000D01*
X295370000Y-63627000D02*
X295370000Y-62458600D01*
X295370000Y-51765200D02*
X295370000Y-49657000D01*
D11*
X295465000Y-63532000D02*
X295465000Y-49732000D01*
X309265000Y-49732000D02*
X309265000Y-63532000D01*
X309265000Y-49732000D02*
X295465000Y-49732000D01*
X295465000Y-63532000D02*
X309265000Y-63532000D01*
D10*
%TO.C,LEFT-SHIFT1*%
X68538700Y-92583000D02*
X68538700Y-95377000D01*
X61020300Y-89992200D02*
X61020300Y-89179400D01*
X45424700Y-87884000D02*
X59394700Y-87884000D01*
X67675100Y-101473000D02*
X66633700Y-101473000D01*
X61020300Y-89179400D02*
X67675100Y-89179400D01*
X59394700Y-89992200D02*
X61020300Y-89992200D01*
X67675100Y-92583000D02*
X68538700Y-92583000D01*
X66633700Y-102641400D02*
X62061700Y-102641400D01*
X67675100Y-95377000D02*
X67675100Y-101473000D01*
X59394700Y-87884000D02*
X59394700Y-89992200D01*
X68538700Y-95377000D02*
X67675100Y-95377000D01*
X66633700Y-101473000D02*
X66633700Y-102641400D01*
X67675100Y-89179400D02*
X67675100Y-92583000D01*
X62061700Y-101473000D02*
X61020300Y-101473000D01*
X45424700Y-100685600D02*
X43799100Y-100685600D01*
X38185700Y-102641400D02*
X38185700Y-101473000D01*
X36280700Y-95377000D02*
X36280700Y-92583000D01*
X37144300Y-89179400D02*
X43799100Y-89179400D01*
X43799100Y-89992200D02*
X45424700Y-89992200D01*
X61020300Y-101473000D02*
X61020300Y-100685600D01*
X61020300Y-100685600D02*
X59394700Y-100685600D01*
X59394700Y-100685600D02*
X59394700Y-101854000D01*
X59394700Y-101854000D02*
X45424700Y-101854000D01*
X42757700Y-101473000D02*
X42757700Y-102641400D01*
X45424700Y-101854000D02*
X45424700Y-100685600D01*
X37144300Y-95377000D02*
X36280700Y-95377000D01*
X43799100Y-100685600D02*
X43799100Y-101473000D01*
X43799100Y-101473000D02*
X42757700Y-101473000D01*
X36280700Y-92583000D02*
X37144300Y-92583000D01*
X45424700Y-89992200D02*
X45424700Y-87884000D01*
X37144300Y-101473000D02*
X37144300Y-95377000D01*
X43799100Y-89179400D02*
X43799100Y-89992200D01*
X42757700Y-102641400D02*
X38185700Y-102641400D01*
X38185700Y-101473000D02*
X37144300Y-101473000D01*
X37144300Y-92583000D02*
X37144300Y-89179400D01*
X62061700Y-102641400D02*
X62061700Y-101473000D01*
D11*
X45519700Y-101759000D02*
X45519700Y-87959000D01*
X59319700Y-87959000D02*
X59319700Y-101759000D01*
X59319700Y-87959000D02*
X45519700Y-87959000D01*
X45519700Y-101759000D02*
X59319700Y-101759000D01*
X49809700Y-102108000D02*
X55009700Y-102108000D01*
X49809700Y-98908000D02*
X49809700Y-102108000D01*
X55009700Y-98869000D02*
X55009700Y-102069000D01*
X55009700Y-98869000D02*
X49809700Y-98869000D01*
%TO.C,Backspace1*%
X290703000Y-44736000D02*
X304503000Y-44736000D01*
X304503000Y-30936000D02*
X290703000Y-30936000D01*
X304503000Y-30936000D02*
X304503000Y-44736000D01*
X290703000Y-44736000D02*
X290703000Y-30936000D01*
D10*
X307245000Y-45618400D02*
X307245000Y-44450000D01*
X282327600Y-35560000D02*
X282327600Y-32156400D01*
X283369000Y-44450000D02*
X282327600Y-44450000D01*
X287941000Y-45618400D02*
X283369000Y-45618400D01*
X288982400Y-32156400D02*
X288982400Y-32969200D01*
X282327600Y-44450000D02*
X282327600Y-38354000D01*
X290608000Y-32969200D02*
X290608000Y-30861000D01*
X281464000Y-35560000D02*
X282327600Y-35560000D01*
X288982400Y-44450000D02*
X287941000Y-44450000D01*
X288982400Y-43662600D02*
X288982400Y-44450000D01*
X282327600Y-38354000D02*
X281464000Y-38354000D01*
X290608000Y-44831000D02*
X290608000Y-43662600D01*
X287941000Y-44450000D02*
X287941000Y-45618400D01*
X304578000Y-44831000D02*
X290608000Y-44831000D01*
X304578000Y-43662600D02*
X304578000Y-44831000D01*
X306203600Y-43662600D02*
X304578000Y-43662600D01*
X306203600Y-44450000D02*
X306203600Y-43662600D01*
X288982400Y-32969200D02*
X290608000Y-32969200D01*
X282327600Y-32156400D02*
X288982400Y-32156400D01*
X281464000Y-38354000D02*
X281464000Y-35560000D01*
X283369000Y-45618400D02*
X283369000Y-44450000D01*
X290608000Y-43662600D02*
X288982400Y-43662600D01*
X307245000Y-44450000D02*
X306203600Y-44450000D01*
X312858400Y-32156400D02*
X312858400Y-35560000D01*
X311817000Y-44450000D02*
X311817000Y-45618400D01*
X313722000Y-38354000D02*
X312858400Y-38354000D01*
X304578000Y-30861000D02*
X304578000Y-32969200D01*
X312858400Y-38354000D02*
X312858400Y-44450000D01*
X311817000Y-45618400D02*
X307245000Y-45618400D01*
X312858400Y-35560000D02*
X313722000Y-35560000D01*
X304578000Y-32969200D02*
X306203600Y-32969200D01*
X306203600Y-32156400D02*
X312858400Y-32156400D01*
X312858400Y-44450000D02*
X311817000Y-44450000D01*
X290608000Y-30861000D02*
X304578000Y-30861000D01*
X306203600Y-32969200D02*
X306203600Y-32156400D01*
X313722000Y-35560000D02*
X313722000Y-38354000D01*
D11*
X294993000Y-45085000D02*
X300193000Y-45085000D01*
X294993000Y-41885000D02*
X294993000Y-45085000D01*
X300193000Y-41846000D02*
X300193000Y-45046000D01*
X300193000Y-41846000D02*
X294993000Y-41846000D01*
%TO.C,TAB1*%
X47864700Y-60785200D02*
X42664700Y-60785200D01*
X47864700Y-60785200D02*
X47864700Y-63985200D01*
X42664700Y-60824200D02*
X42664700Y-64024200D01*
X42664700Y-64024200D02*
X47864700Y-64024200D01*
D10*
X38279700Y-49800200D02*
X52249700Y-49800200D01*
X52249700Y-49800200D02*
X52249700Y-51908400D01*
X52249700Y-62601800D02*
X52249700Y-63770200D01*
X52249700Y-63770200D02*
X38279700Y-63770200D01*
X38279700Y-63770200D02*
X38279700Y-62601800D01*
X38279700Y-51908400D02*
X38279700Y-49800200D01*
D11*
X38374700Y-63675200D02*
X38374700Y-49875200D01*
X52174700Y-49875200D02*
X52174700Y-63675200D01*
X52174700Y-49875200D02*
X38374700Y-49875200D01*
X38374700Y-63675200D02*
X52174700Y-63675200D01*
D10*
%TO.C,CAPS1*%
X40662200Y-68834000D02*
X54632200Y-68834000D01*
X54632200Y-68834000D02*
X54632200Y-70942200D01*
X54632200Y-81635600D02*
X54632200Y-82804000D01*
X54632200Y-82804000D02*
X40662200Y-82804000D01*
X40662200Y-82804000D02*
X40662200Y-81635600D01*
X40662200Y-70942200D02*
X40662200Y-68834000D01*
D11*
X40757200Y-82709000D02*
X40757200Y-68909000D01*
X54557200Y-68909000D02*
X54557200Y-82709000D01*
X54557200Y-68909000D02*
X40757200Y-68909000D01*
X40757200Y-82709000D02*
X54557200Y-82709000D01*
X45047200Y-83058000D02*
X50247200Y-83058000D01*
X45047200Y-79858000D02*
X45047200Y-83058000D01*
X50247200Y-79819000D02*
X50247200Y-83019000D01*
X50247200Y-79819000D02*
X45047200Y-79819000D01*
%TO.C,SW63*%
X238083000Y-82719000D02*
X251883000Y-82719000D01*
X251883000Y-68919000D02*
X238083000Y-68919000D01*
X251883000Y-68919000D02*
X251883000Y-82719000D01*
X238083000Y-82719000D02*
X238083000Y-68919000D01*
X247583000Y-79819000D02*
X247583000Y-83019000D01*
X242383000Y-79858000D02*
X242383000Y-83058000D01*
X242383000Y-83058000D02*
X247583000Y-83058000D01*
X247583000Y-79819000D02*
X242383000Y-79819000D01*
%TO.C,SW1*%
X109686000Y-25569000D02*
X123486000Y-25569000D01*
X123486000Y-11769000D02*
X109686000Y-11769000D01*
X123486000Y-11769000D02*
X123486000Y-25569000D01*
X109686000Y-25569000D02*
X109686000Y-11769000D01*
X119186000Y-22669000D02*
X119186000Y-25869000D01*
X113986000Y-22708000D02*
X113986000Y-25908000D01*
X113986000Y-25908000D02*
X119186000Y-25908000D01*
X119186000Y-22669000D02*
X113986000Y-22669000D01*
%TO.C,SW2*%
X228177000Y-101769000D02*
X241977000Y-101769000D01*
X241977000Y-87969000D02*
X228177000Y-87969000D01*
X241977000Y-87969000D02*
X241977000Y-101769000D01*
X228177000Y-101769000D02*
X228177000Y-87969000D01*
X237677000Y-98869000D02*
X237677000Y-102069000D01*
X232477000Y-98908000D02*
X232477000Y-102108000D01*
X232477000Y-102108000D02*
X237677000Y-102108000D01*
X237677000Y-98869000D02*
X232477000Y-98869000D01*
%TO.C,SW5*%
X52536000Y-44573900D02*
X66336000Y-44573900D01*
X66336000Y-30773900D02*
X52536000Y-30773900D01*
X66336000Y-30773900D02*
X66336000Y-44573900D01*
X52536000Y-44573900D02*
X52536000Y-30773900D01*
X62036000Y-41673900D02*
X62036000Y-44873900D01*
X56836000Y-41712900D02*
X56836000Y-44912900D01*
X56836000Y-44912900D02*
X62036000Y-44912900D01*
X62036000Y-41673900D02*
X56836000Y-41673900D01*
%TO.C,SW6*%
X62188000Y-63542000D02*
X75988000Y-63542000D01*
X75988000Y-49742000D02*
X62188000Y-49742000D01*
X75988000Y-49742000D02*
X75988000Y-63542000D01*
X62188000Y-63542000D02*
X62188000Y-49742000D01*
X71688000Y-60642000D02*
X71688000Y-63842000D01*
X66488000Y-60681000D02*
X66488000Y-63881000D01*
X66488000Y-63881000D02*
X71688000Y-63881000D01*
X71688000Y-60642000D02*
X66488000Y-60642000D01*
%TO.C,SW7*%
X66887000Y-82719000D02*
X80687000Y-82719000D01*
X80687000Y-68919000D02*
X66887000Y-68919000D01*
X80687000Y-68919000D02*
X80687000Y-82719000D01*
X66887000Y-82719000D02*
X66887000Y-68919000D01*
X76387000Y-79819000D02*
X76387000Y-83019000D01*
X71187000Y-79858000D02*
X71187000Y-83058000D01*
X71187000Y-83058000D02*
X76387000Y-83058000D01*
X76387000Y-79819000D02*
X71187000Y-79819000D01*
%TO.C,SW8*%
X324265000Y-101769000D02*
X338065000Y-101769000D01*
X338065000Y-87969000D02*
X324265000Y-87969000D01*
X338065000Y-87969000D02*
X338065000Y-101769000D01*
X324265000Y-101769000D02*
X324265000Y-87969000D01*
X333765000Y-98869000D02*
X333765000Y-102069000D01*
X328565000Y-98908000D02*
X328565000Y-102108000D01*
X328565000Y-102108000D02*
X333765000Y-102108000D01*
X333765000Y-98869000D02*
X328565000Y-98869000D01*
%TO.C,SW10*%
X85937000Y-82719000D02*
X99737000Y-82719000D01*
X99737000Y-68919000D02*
X85937000Y-68919000D01*
X99737000Y-68919000D02*
X99737000Y-82719000D01*
X85937000Y-82719000D02*
X85937000Y-68919000D01*
X95437000Y-79819000D02*
X95437000Y-83019000D01*
X90237000Y-79858000D02*
X90237000Y-83058000D01*
X90237000Y-83058000D02*
X95437000Y-83058000D01*
X95437000Y-79819000D02*
X90237000Y-79819000D01*
%TO.C,SW11*%
X76412000Y-101769000D02*
X90212000Y-101769000D01*
X90212000Y-87969000D02*
X76412000Y-87969000D01*
X90212000Y-87969000D02*
X90212000Y-101769000D01*
X76412000Y-101769000D02*
X76412000Y-87969000D01*
X85912000Y-98869000D02*
X85912000Y-102069000D01*
X80712000Y-98908000D02*
X80712000Y-102108000D01*
X80712000Y-102108000D02*
X85912000Y-102108000D01*
X85912000Y-98869000D02*
X80712000Y-98869000D01*
%TO.C,SW12*%
X90636000Y-25569000D02*
X104436000Y-25569000D01*
X104436000Y-11769000D02*
X90636000Y-11769000D01*
X104436000Y-11769000D02*
X104436000Y-25569000D01*
X90636000Y-25569000D02*
X90636000Y-11769000D01*
X100136000Y-22669000D02*
X100136000Y-25869000D01*
X94936000Y-22708000D02*
X94936000Y-25908000D01*
X94936000Y-25908000D02*
X100136000Y-25908000D01*
X100136000Y-22669000D02*
X94936000Y-22669000D01*
%TO.C,SW14*%
X71586000Y-44573900D02*
X85386000Y-44573900D01*
X85386000Y-30773900D02*
X71586000Y-30773900D01*
X85386000Y-30773900D02*
X85386000Y-44573900D01*
X71586000Y-44573900D02*
X71586000Y-30773900D01*
X81086000Y-41673900D02*
X81086000Y-44873900D01*
X75886000Y-41712900D02*
X75886000Y-44912900D01*
X75886000Y-44912900D02*
X81086000Y-44912900D01*
X81086000Y-41673900D02*
X75886000Y-41673900D01*
%TO.C,SW15*%
X81111000Y-63542000D02*
X94911000Y-63542000D01*
X94911000Y-49742000D02*
X81111000Y-49742000D01*
X94911000Y-49742000D02*
X94911000Y-63542000D01*
X81111000Y-63542000D02*
X81111000Y-49742000D01*
X90611000Y-60642000D02*
X90611000Y-63842000D01*
X85411000Y-60681000D02*
X85411000Y-63881000D01*
X85411000Y-63881000D02*
X90611000Y-63881000D01*
X90611000Y-60642000D02*
X85411000Y-60642000D01*
%TO.C,SW16*%
X90636000Y-44573900D02*
X104436000Y-44573900D01*
X104436000Y-30773900D02*
X90636000Y-30773900D01*
X104436000Y-30773900D02*
X104436000Y-44573900D01*
X90636000Y-44573900D02*
X90636000Y-30773900D01*
X100136000Y-41673900D02*
X100136000Y-44873900D01*
X94936000Y-41712900D02*
X94936000Y-44912900D01*
X94936000Y-44912900D02*
X100136000Y-44912900D01*
X100136000Y-41673900D02*
X94936000Y-41673900D01*
%TO.C,SW17*%
X100034000Y-63542000D02*
X113834000Y-63542000D01*
X113834000Y-49742000D02*
X100034000Y-49742000D01*
X113834000Y-49742000D02*
X113834000Y-63542000D01*
X100034000Y-63542000D02*
X100034000Y-49742000D01*
X109534000Y-60642000D02*
X109534000Y-63842000D01*
X104334000Y-60681000D02*
X104334000Y-63881000D01*
X104334000Y-63881000D02*
X109534000Y-63881000D01*
X109534000Y-60642000D02*
X104334000Y-60642000D01*
%TO.C,SW18*%
X104987000Y-82719000D02*
X118787000Y-82719000D01*
X118787000Y-68919000D02*
X104987000Y-68919000D01*
X118787000Y-68919000D02*
X118787000Y-82719000D01*
X104987000Y-82719000D02*
X104987000Y-68919000D01*
X114487000Y-79819000D02*
X114487000Y-83019000D01*
X109287000Y-79858000D02*
X109287000Y-83058000D01*
X109287000Y-83058000D02*
X114487000Y-83058000D01*
X114487000Y-79819000D02*
X109287000Y-79819000D01*
%TO.C,SW19*%
X95208000Y-101769000D02*
X109008000Y-101769000D01*
X109008000Y-87969000D02*
X95208000Y-87969000D01*
X109008000Y-87969000D02*
X109008000Y-101769000D01*
X95208000Y-101769000D02*
X95208000Y-87969000D01*
X104708000Y-98869000D02*
X104708000Y-102069000D01*
X99508000Y-98908000D02*
X99508000Y-102108000D01*
X99508000Y-102108000D02*
X104708000Y-102108000D01*
X104708000Y-98869000D02*
X99508000Y-98869000D01*
%TO.C,SW20*%
X232495000Y-63542000D02*
X246295000Y-63542000D01*
X246295000Y-49742000D02*
X232495000Y-49742000D01*
X246295000Y-49742000D02*
X246295000Y-63542000D01*
X232495000Y-63542000D02*
X232495000Y-49742000D01*
X241995000Y-60642000D02*
X241995000Y-63842000D01*
X236795000Y-60681000D02*
X236795000Y-63881000D01*
X236795000Y-63881000D02*
X241995000Y-63881000D01*
X241995000Y-60642000D02*
X236795000Y-60642000D01*
%TO.C,SW22*%
X124037000Y-82719000D02*
X137837000Y-82719000D01*
X137837000Y-68919000D02*
X124037000Y-68919000D01*
X137837000Y-68919000D02*
X137837000Y-82719000D01*
X124037000Y-82719000D02*
X124037000Y-68919000D01*
X133537000Y-79819000D02*
X133537000Y-83019000D01*
X128337000Y-79858000D02*
X128337000Y-83058000D01*
X128337000Y-83058000D02*
X133537000Y-83058000D01*
X133537000Y-79819000D02*
X128337000Y-79819000D01*
%TO.C,SW23*%
X114131000Y-101769000D02*
X127931000Y-101769000D01*
X127931000Y-87969000D02*
X114131000Y-87969000D01*
X127931000Y-87969000D02*
X127931000Y-101769000D01*
X114131000Y-101769000D02*
X114131000Y-87969000D01*
X123631000Y-98869000D02*
X123631000Y-102069000D01*
X118431000Y-98908000D02*
X118431000Y-102108000D01*
X118431000Y-102108000D02*
X123631000Y-102108000D01*
X123631000Y-98869000D02*
X118431000Y-98869000D01*
%TO.C,SW24*%
X251545000Y-63542000D02*
X265345000Y-63542000D01*
X265345000Y-49742000D02*
X251545000Y-49742000D01*
X265345000Y-49742000D02*
X265345000Y-63542000D01*
X251545000Y-63542000D02*
X251545000Y-49742000D01*
X261045000Y-60642000D02*
X261045000Y-63842000D01*
X255845000Y-60681000D02*
X255845000Y-63881000D01*
X255845000Y-63881000D02*
X261045000Y-63881000D01*
X261045000Y-60642000D02*
X255845000Y-60642000D01*
%TO.C,SW26*%
X109686000Y-44573900D02*
X123486000Y-44573900D01*
X123486000Y-30773900D02*
X109686000Y-30773900D01*
X123486000Y-30773900D02*
X123486000Y-44573900D01*
X109686000Y-44573900D02*
X109686000Y-30773900D01*
X119186000Y-41673900D02*
X119186000Y-44873900D01*
X113986000Y-41712900D02*
X113986000Y-44912900D01*
X113986000Y-44912900D02*
X119186000Y-44912900D01*
X119186000Y-41673900D02*
X113986000Y-41673900D01*
%TO.C,SW27*%
X118957000Y-63542000D02*
X132757000Y-63542000D01*
X132757000Y-49742000D02*
X118957000Y-49742000D01*
X132757000Y-49742000D02*
X132757000Y-63542000D01*
X118957000Y-63542000D02*
X118957000Y-49742000D01*
X128457000Y-60642000D02*
X128457000Y-63842000D01*
X123257000Y-60681000D02*
X123257000Y-63881000D01*
X123257000Y-63881000D02*
X128457000Y-63881000D01*
X128457000Y-60642000D02*
X123257000Y-60642000D01*
%TO.C,SW28*%
X128736000Y-44573900D02*
X142536000Y-44573900D01*
X142536000Y-30773900D02*
X128736000Y-30773900D01*
X142536000Y-30773900D02*
X142536000Y-44573900D01*
X128736000Y-44573900D02*
X128736000Y-30773900D01*
X138236000Y-41673900D02*
X138236000Y-44873900D01*
X133036000Y-41712900D02*
X133036000Y-44912900D01*
X133036000Y-44912900D02*
X138236000Y-44912900D01*
X138236000Y-41673900D02*
X133036000Y-41673900D01*
%TO.C,SW29*%
X137880000Y-63542000D02*
X151680000Y-63542000D01*
X151680000Y-49742000D02*
X137880000Y-49742000D01*
X151680000Y-49742000D02*
X151680000Y-63542000D01*
X137880000Y-63542000D02*
X137880000Y-49742000D01*
X147380000Y-60642000D02*
X147380000Y-63842000D01*
X142180000Y-60681000D02*
X142180000Y-63881000D01*
X142180000Y-63881000D02*
X147380000Y-63881000D01*
X147380000Y-60642000D02*
X142180000Y-60642000D01*
%TO.C,SW30*%
X142833000Y-82719000D02*
X156633000Y-82719000D01*
X156633000Y-68919000D02*
X142833000Y-68919000D01*
X156633000Y-68919000D02*
X156633000Y-82719000D01*
X142833000Y-82719000D02*
X142833000Y-68919000D01*
X152333000Y-79819000D02*
X152333000Y-83019000D01*
X147133000Y-79858000D02*
X147133000Y-83058000D01*
X147133000Y-83058000D02*
X152333000Y-83058000D01*
X152333000Y-79819000D02*
X147133000Y-79819000D01*
%TO.C,SW31*%
X133054000Y-101769000D02*
X146854000Y-101769000D01*
X146854000Y-87969000D02*
X133054000Y-87969000D01*
X146854000Y-87969000D02*
X146854000Y-101769000D01*
X133054000Y-101769000D02*
X133054000Y-87969000D01*
X142554000Y-98869000D02*
X142554000Y-102069000D01*
X137354000Y-98908000D02*
X137354000Y-102108000D01*
X137354000Y-102108000D02*
X142554000Y-102108000D01*
X142554000Y-98869000D02*
X137354000Y-98869000D01*
%TO.C,SW32*%
X166836000Y-25569000D02*
X180636000Y-25569000D01*
X180636000Y-11769000D02*
X166836000Y-11769000D01*
X180636000Y-11769000D02*
X180636000Y-25569000D01*
X166836000Y-25569000D02*
X166836000Y-11769000D01*
X176336000Y-22669000D02*
X176336000Y-25869000D01*
X171136000Y-22708000D02*
X171136000Y-25908000D01*
X171136000Y-25908000D02*
X176336000Y-25908000D01*
X176336000Y-22669000D02*
X171136000Y-22669000D01*
%TO.C,SW33*%
X161883000Y-82719000D02*
X175683000Y-82719000D01*
X175683000Y-68919000D02*
X161883000Y-68919000D01*
X175683000Y-68919000D02*
X175683000Y-82719000D01*
X161883000Y-82719000D02*
X161883000Y-68919000D01*
X171383000Y-79819000D02*
X171383000Y-83019000D01*
X166183000Y-79858000D02*
X166183000Y-83058000D01*
X166183000Y-83058000D02*
X171383000Y-83058000D01*
X171383000Y-79819000D02*
X166183000Y-79819000D01*
%TO.C,SW34*%
X151977000Y-101769000D02*
X165777000Y-101769000D01*
X165777000Y-87969000D02*
X151977000Y-87969000D01*
X165777000Y-87969000D02*
X165777000Y-101769000D01*
X151977000Y-101769000D02*
X151977000Y-87969000D01*
X161477000Y-98869000D02*
X161477000Y-102069000D01*
X156277000Y-98908000D02*
X156277000Y-102108000D01*
X156277000Y-102108000D02*
X161477000Y-102108000D01*
X161477000Y-98869000D02*
X156277000Y-98869000D01*
%TO.C,SW35*%
X185886000Y-25569000D02*
X199686000Y-25569000D01*
X199686000Y-11769000D02*
X185886000Y-11769000D01*
X199686000Y-11769000D02*
X199686000Y-25569000D01*
X185886000Y-25569000D02*
X185886000Y-11769000D01*
X195386000Y-22669000D02*
X195386000Y-25869000D01*
X190186000Y-22708000D02*
X190186000Y-25908000D01*
X190186000Y-25908000D02*
X195386000Y-25908000D01*
X195386000Y-22669000D02*
X190186000Y-22669000D01*
%TO.C,SW36*%
X247354000Y-101769000D02*
X261154000Y-101769000D01*
X261154000Y-87969000D02*
X247354000Y-87969000D01*
X261154000Y-87969000D02*
X261154000Y-101769000D01*
X247354000Y-101769000D02*
X247354000Y-87969000D01*
X256854000Y-98869000D02*
X256854000Y-102069000D01*
X251654000Y-98908000D02*
X251654000Y-102108000D01*
X251654000Y-102108000D02*
X256854000Y-102108000D01*
X256854000Y-98869000D02*
X251654000Y-98869000D01*
%TO.C,SW38*%
X147786000Y-44573900D02*
X161586000Y-44573900D01*
X161586000Y-30773900D02*
X147786000Y-30773900D01*
X161586000Y-30773900D02*
X161586000Y-44573900D01*
X147786000Y-44573900D02*
X147786000Y-30773900D01*
X157286000Y-41673900D02*
X157286000Y-44873900D01*
X152086000Y-41712900D02*
X152086000Y-44912900D01*
X152086000Y-44912900D02*
X157286000Y-44912900D01*
X157286000Y-41673900D02*
X152086000Y-41673900D01*
%TO.C,SW39*%
X156803000Y-63542000D02*
X170603000Y-63542000D01*
X170603000Y-49742000D02*
X156803000Y-49742000D01*
X170603000Y-49742000D02*
X170603000Y-63542000D01*
X156803000Y-63542000D02*
X156803000Y-49742000D01*
X166303000Y-60642000D02*
X166303000Y-63842000D01*
X161103000Y-60681000D02*
X161103000Y-63881000D01*
X161103000Y-63881000D02*
X166303000Y-63881000D01*
X166303000Y-60642000D02*
X161103000Y-60642000D01*
%TO.C,SW40*%
X166836000Y-44573900D02*
X180636000Y-44573900D01*
X180636000Y-30773900D02*
X166836000Y-30773900D01*
X180636000Y-30773900D02*
X180636000Y-44573900D01*
X166836000Y-44573900D02*
X166836000Y-30773900D01*
X176336000Y-41673900D02*
X176336000Y-44873900D01*
X171136000Y-41712900D02*
X171136000Y-44912900D01*
X171136000Y-44912900D02*
X176336000Y-44912900D01*
X176336000Y-41673900D02*
X171136000Y-41673900D01*
%TO.C,SW41*%
X175726000Y-63542000D02*
X189526000Y-63542000D01*
X189526000Y-49742000D02*
X175726000Y-49742000D01*
X189526000Y-49742000D02*
X189526000Y-63542000D01*
X175726000Y-63542000D02*
X175726000Y-49742000D01*
X185226000Y-60642000D02*
X185226000Y-63842000D01*
X180026000Y-60681000D02*
X180026000Y-63881000D01*
X180026000Y-63881000D02*
X185226000Y-63881000D01*
X185226000Y-60642000D02*
X180026000Y-60642000D01*
%TO.C,SW42*%
X180933000Y-82719000D02*
X194733000Y-82719000D01*
X194733000Y-68919000D02*
X180933000Y-68919000D01*
X194733000Y-68919000D02*
X194733000Y-82719000D01*
X180933000Y-82719000D02*
X180933000Y-68919000D01*
X190433000Y-79819000D02*
X190433000Y-83019000D01*
X185233000Y-79858000D02*
X185233000Y-83058000D01*
X185233000Y-83058000D02*
X190433000Y-83058000D01*
X190433000Y-79819000D02*
X185233000Y-79819000D01*
%TO.C,SW43*%
X170900000Y-101769000D02*
X184700000Y-101769000D01*
X184700000Y-87969000D02*
X170900000Y-87969000D01*
X184700000Y-87969000D02*
X184700000Y-101769000D01*
X170900000Y-101769000D02*
X170900000Y-87969000D01*
X180400000Y-98869000D02*
X180400000Y-102069000D01*
X175200000Y-98908000D02*
X175200000Y-102108000D01*
X175200000Y-102108000D02*
X180400000Y-102108000D01*
X180400000Y-98869000D02*
X175200000Y-98869000D01*
%TO.C,SW44*%
X243036000Y-44573900D02*
X256836000Y-44573900D01*
X256836000Y-30773900D02*
X243036000Y-30773900D01*
X256836000Y-30773900D02*
X256836000Y-44573900D01*
X243036000Y-44573900D02*
X243036000Y-30773900D01*
X252536000Y-41673900D02*
X252536000Y-44873900D01*
X247336000Y-41712900D02*
X247336000Y-44912900D01*
X247336000Y-44912900D02*
X252536000Y-44912900D01*
X252536000Y-41673900D02*
X247336000Y-41673900D01*
%TO.C,SW46*%
X199983000Y-82719000D02*
X213783000Y-82719000D01*
X213783000Y-68919000D02*
X199983000Y-68919000D01*
X213783000Y-68919000D02*
X213783000Y-82719000D01*
X199983000Y-82719000D02*
X199983000Y-68919000D01*
X209483000Y-79819000D02*
X209483000Y-83019000D01*
X204283000Y-79858000D02*
X204283000Y-83058000D01*
X204283000Y-83058000D02*
X209483000Y-83058000D01*
X209483000Y-79819000D02*
X204283000Y-79819000D01*
%TO.C,SW47*%
X189950000Y-101769000D02*
X203750000Y-101769000D01*
X203750000Y-87969000D02*
X189950000Y-87969000D01*
X203750000Y-87969000D02*
X203750000Y-101769000D01*
X189950000Y-101769000D02*
X189950000Y-87969000D01*
X199450000Y-98869000D02*
X199450000Y-102069000D01*
X194250000Y-98908000D02*
X194250000Y-102108000D01*
X194250000Y-102108000D02*
X199450000Y-102108000D01*
X199450000Y-98869000D02*
X194250000Y-98869000D01*
%TO.C,SW49*%
X262086000Y-44573900D02*
X275886000Y-44573900D01*
X275886000Y-30773900D02*
X262086000Y-30773900D01*
X275886000Y-30773900D02*
X275886000Y-44573900D01*
X262086000Y-44573900D02*
X262086000Y-30773900D01*
X271586000Y-41673900D02*
X271586000Y-44873900D01*
X266386000Y-41712900D02*
X266386000Y-44912900D01*
X266386000Y-44912900D02*
X271586000Y-44912900D01*
X271586000Y-41673900D02*
X266386000Y-41673900D01*
%TO.C,SW51*%
X185886000Y-44573900D02*
X199686000Y-44573900D01*
X199686000Y-30773900D02*
X185886000Y-30773900D01*
X199686000Y-30773900D02*
X199686000Y-44573900D01*
X185886000Y-44573900D02*
X185886000Y-30773900D01*
X195386000Y-41673900D02*
X195386000Y-44873900D01*
X190186000Y-41712900D02*
X190186000Y-44912900D01*
X190186000Y-44912900D02*
X195386000Y-44912900D01*
X195386000Y-41673900D02*
X190186000Y-41673900D01*
%TO.C,SW52*%
X194649000Y-63542000D02*
X208449000Y-63542000D01*
X208449000Y-49742000D02*
X194649000Y-49742000D01*
X208449000Y-49742000D02*
X208449000Y-63542000D01*
X194649000Y-63542000D02*
X194649000Y-49742000D01*
X204149000Y-60642000D02*
X204149000Y-63842000D01*
X198949000Y-60681000D02*
X198949000Y-63881000D01*
X198949000Y-63881000D02*
X204149000Y-63881000D01*
X204149000Y-60642000D02*
X198949000Y-60642000D01*
%TO.C,SW53*%
X204936000Y-44573900D02*
X218736000Y-44573900D01*
X218736000Y-30773900D02*
X204936000Y-30773900D01*
X218736000Y-30773900D02*
X218736000Y-44573900D01*
X204936000Y-44573900D02*
X204936000Y-30773900D01*
X214436000Y-41673900D02*
X214436000Y-44873900D01*
X209236000Y-41712900D02*
X209236000Y-44912900D01*
X209236000Y-44912900D02*
X214436000Y-44912900D01*
X214436000Y-41673900D02*
X209236000Y-41673900D01*
%TO.C,SW54*%
X213572000Y-63542000D02*
X227372000Y-63542000D01*
X227372000Y-49742000D02*
X213572000Y-49742000D01*
X227372000Y-49742000D02*
X227372000Y-63542000D01*
X213572000Y-63542000D02*
X213572000Y-49742000D01*
X223072000Y-60642000D02*
X223072000Y-63842000D01*
X217872000Y-60681000D02*
X217872000Y-63881000D01*
X217872000Y-63881000D02*
X223072000Y-63881000D01*
X223072000Y-60642000D02*
X217872000Y-60642000D01*
%TO.C,SW55*%
X219033000Y-82719000D02*
X232833000Y-82719000D01*
X232833000Y-68919000D02*
X219033000Y-68919000D01*
X232833000Y-68919000D02*
X232833000Y-82719000D01*
X219033000Y-82719000D02*
X219033000Y-68919000D01*
X228533000Y-79819000D02*
X228533000Y-83019000D01*
X223333000Y-79858000D02*
X223333000Y-83058000D01*
X223333000Y-83058000D02*
X228533000Y-83058000D01*
X228533000Y-79819000D02*
X223333000Y-79819000D01*
%TO.C,SW56*%
X209127000Y-101769000D02*
X222927000Y-101769000D01*
X222927000Y-87969000D02*
X209127000Y-87969000D01*
X222927000Y-87969000D02*
X222927000Y-101769000D01*
X209127000Y-101769000D02*
X209127000Y-87969000D01*
X218627000Y-98869000D02*
X218627000Y-102069000D01*
X213427000Y-98908000D02*
X213427000Y-102108000D01*
X213427000Y-102108000D02*
X218627000Y-102108000D01*
X218627000Y-98869000D02*
X213427000Y-98869000D01*
%TO.C,SW59*%
X223986000Y-44573900D02*
X237786000Y-44573900D01*
X237786000Y-30773900D02*
X223986000Y-30773900D01*
X237786000Y-30773900D02*
X237786000Y-44573900D01*
X223986000Y-44573900D02*
X223986000Y-30773900D01*
X233486000Y-41673900D02*
X233486000Y-44873900D01*
X228286000Y-41712900D02*
X228286000Y-44912900D01*
X228286000Y-44912900D02*
X233486000Y-44912900D01*
X233486000Y-41673900D02*
X228286000Y-41673900D01*
%TO.C,SW60*%
X343315000Y-82719000D02*
X357115000Y-82719000D01*
X357115000Y-68919000D02*
X343315000Y-68919000D01*
X357115000Y-68919000D02*
X357115000Y-82719000D01*
X343315000Y-82719000D02*
X343315000Y-68919000D01*
X352815000Y-79819000D02*
X352815000Y-83019000D01*
X347615000Y-79858000D02*
X347615000Y-83058000D01*
X347615000Y-83058000D02*
X352815000Y-83058000D01*
X352815000Y-79819000D02*
X347615000Y-79819000D01*
%TO.C,SW61*%
X270722000Y-63542000D02*
X284522000Y-63542000D01*
X284522000Y-49742000D02*
X270722000Y-49742000D01*
X284522000Y-49742000D02*
X284522000Y-63542000D01*
X270722000Y-63542000D02*
X270722000Y-49742000D01*
X280222000Y-60642000D02*
X280222000Y-63842000D01*
X275022000Y-60681000D02*
X275022000Y-63881000D01*
X275022000Y-63881000D02*
X280222000Y-63881000D01*
X280222000Y-60642000D02*
X275022000Y-60642000D01*
%TO.C,SW62*%
X362238000Y-82719000D02*
X376038000Y-82719000D01*
X376038000Y-68919000D02*
X362238000Y-68919000D01*
X376038000Y-68919000D02*
X376038000Y-82719000D01*
X362238000Y-82719000D02*
X362238000Y-68919000D01*
X371738000Y-79819000D02*
X371738000Y-83019000D01*
X366538000Y-79858000D02*
X366538000Y-83058000D01*
X366538000Y-83058000D02*
X371738000Y-83058000D01*
X371738000Y-79819000D02*
X366538000Y-79819000D01*
%TO.C,SW64*%
X257133000Y-82719000D02*
X270933000Y-82719000D01*
X270933000Y-68919000D02*
X257133000Y-68919000D01*
X270933000Y-68919000D02*
X270933000Y-82719000D01*
X257133000Y-82719000D02*
X257133000Y-68919000D01*
X266633000Y-79819000D02*
X266633000Y-83019000D01*
X261433000Y-79858000D02*
X261433000Y-83058000D01*
X261433000Y-83058000D02*
X266633000Y-83058000D01*
X266633000Y-79819000D02*
X261433000Y-79819000D01*
%TO.C,SW66*%
X343315000Y-63669000D02*
X357115000Y-63669000D01*
X357115000Y-49869000D02*
X343315000Y-49869000D01*
X357115000Y-49869000D02*
X357115000Y-63669000D01*
X343315000Y-63669000D02*
X343315000Y-49869000D01*
X352815000Y-60769000D02*
X352815000Y-63969000D01*
X347615000Y-60808000D02*
X347615000Y-64008000D01*
X347615000Y-64008000D02*
X352815000Y-64008000D01*
X352815000Y-60769000D02*
X347615000Y-60769000D01*
%TO.C,SW67*%
X324265000Y-63669000D02*
X338065000Y-63669000D01*
X338065000Y-49869000D02*
X324265000Y-49869000D01*
X338065000Y-49869000D02*
X338065000Y-63669000D01*
X324265000Y-63669000D02*
X324265000Y-49869000D01*
X333765000Y-60769000D02*
X333765000Y-63969000D01*
X328565000Y-60808000D02*
X328565000Y-64008000D01*
X328565000Y-64008000D02*
X333765000Y-64008000D01*
X333765000Y-60769000D02*
X328565000Y-60769000D01*
%TO.C,SW65*%
X324265000Y-82719000D02*
X338065000Y-82719000D01*
X338065000Y-68919000D02*
X324265000Y-68919000D01*
X338065000Y-68919000D02*
X338065000Y-82719000D01*
X324265000Y-82719000D02*
X324265000Y-68919000D01*
X333765000Y-79819000D02*
X333765000Y-83019000D01*
X328565000Y-79858000D02*
X328565000Y-83058000D01*
X328565000Y-83058000D02*
X333765000Y-83058000D01*
X333765000Y-79819000D02*
X328565000Y-79819000D01*
%TO.C,SW68*%
X343315000Y-101769000D02*
X357115000Y-101769000D01*
X357115000Y-87969000D02*
X343315000Y-87969000D01*
X357115000Y-87969000D02*
X357115000Y-101769000D01*
X343315000Y-101769000D02*
X343315000Y-87969000D01*
X352815000Y-98869000D02*
X352815000Y-102069000D01*
X347615000Y-98908000D02*
X347615000Y-102108000D01*
X347615000Y-102108000D02*
X352815000Y-102108000D01*
X352815000Y-98869000D02*
X347615000Y-98869000D01*
%TO.C,SW69*%
X324265000Y-44746000D02*
X338065000Y-44746000D01*
X338065000Y-30946000D02*
X324265000Y-30946000D01*
X338065000Y-30946000D02*
X338065000Y-44746000D01*
X324265000Y-44746000D02*
X324265000Y-30946000D01*
X333765000Y-41846000D02*
X333765000Y-45046000D01*
X328565000Y-41885000D02*
X328565000Y-45085000D01*
X328565000Y-45085000D02*
X333765000Y-45085000D01*
X333765000Y-41846000D02*
X328565000Y-41846000D01*
%TO.C,SW70*%
X52536000Y-25569000D02*
X66336000Y-25569000D01*
X66336000Y-11769000D02*
X52536000Y-11769000D01*
X66336000Y-11769000D02*
X66336000Y-25569000D01*
X52536000Y-25569000D02*
X52536000Y-11769000D01*
X62036000Y-22669000D02*
X62036000Y-25869000D01*
X56836000Y-22708000D02*
X56836000Y-25908000D01*
X56836000Y-25908000D02*
X62036000Y-25908000D01*
X62036000Y-22669000D02*
X56836000Y-22669000D01*
%TO.C,SW71*%
X362238000Y-63669000D02*
X376038000Y-63669000D01*
X376038000Y-49869000D02*
X362238000Y-49869000D01*
X376038000Y-49869000D02*
X376038000Y-63669000D01*
X362238000Y-63669000D02*
X362238000Y-49869000D01*
X371738000Y-60769000D02*
X371738000Y-63969000D01*
X366538000Y-60808000D02*
X366538000Y-64008000D01*
X366538000Y-64008000D02*
X371738000Y-64008000D01*
X371738000Y-60769000D02*
X366538000Y-60769000D01*
%TO.C,SW72*%
X362238000Y-101769000D02*
X376038000Y-101769000D01*
X376038000Y-87969000D02*
X362238000Y-87969000D01*
X376038000Y-87969000D02*
X376038000Y-101769000D01*
X362238000Y-101769000D02*
X362238000Y-87969000D01*
X371738000Y-98869000D02*
X371738000Y-102069000D01*
X366538000Y-98908000D02*
X366538000Y-102108000D01*
X366538000Y-102108000D02*
X371738000Y-102108000D01*
X371738000Y-98869000D02*
X366538000Y-98869000D01*
%TO.C,SW73*%
X33486000Y-25569000D02*
X47286000Y-25569000D01*
X47286000Y-11769000D02*
X33486000Y-11769000D01*
X47286000Y-11769000D02*
X47286000Y-25569000D01*
X33486000Y-25569000D02*
X33486000Y-11769000D01*
X42986000Y-22669000D02*
X42986000Y-25869000D01*
X37786000Y-22708000D02*
X37786000Y-25908000D01*
X37786000Y-25908000D02*
X42986000Y-25908000D01*
X42986000Y-22669000D02*
X37786000Y-22669000D01*
%TO.C,SW74*%
X362238000Y-44746000D02*
X376038000Y-44746000D01*
X376038000Y-30946000D02*
X362238000Y-30946000D01*
X376038000Y-30946000D02*
X376038000Y-44746000D01*
X362238000Y-44746000D02*
X362238000Y-30946000D01*
X371738000Y-41846000D02*
X371738000Y-45046000D01*
X366538000Y-41885000D02*
X366538000Y-45085000D01*
X366538000Y-45085000D02*
X371738000Y-45085000D01*
X371738000Y-41846000D02*
X366538000Y-41846000D01*
%TO.C,SW75*%
X362238000Y-120946000D02*
X376038000Y-120946000D01*
X376038000Y-107146000D02*
X362238000Y-107146000D01*
X376038000Y-107146000D02*
X376038000Y-120946000D01*
X362238000Y-120946000D02*
X362238000Y-107146000D01*
X371738000Y-118046000D02*
X371738000Y-121246000D01*
X366538000Y-118085000D02*
X366538000Y-121285000D01*
X366538000Y-121285000D02*
X371738000Y-121285000D01*
X371738000Y-118046000D02*
X366538000Y-118046000D01*
%TO.C,SW76*%
X343315000Y-120946000D02*
X357115000Y-120946000D01*
X357115000Y-107146000D02*
X343315000Y-107146000D01*
X357115000Y-107146000D02*
X357115000Y-120946000D01*
X343315000Y-120946000D02*
X343315000Y-107146000D01*
X352815000Y-118046000D02*
X352815000Y-121246000D01*
X347615000Y-118085000D02*
X347615000Y-121285000D01*
X347615000Y-121285000D02*
X352815000Y-121285000D01*
X352815000Y-118046000D02*
X347615000Y-118046000D01*
%TO.C,SW77*%
X324265000Y-120946000D02*
X338065000Y-120946000D01*
X338065000Y-107146000D02*
X324265000Y-107146000D01*
X338065000Y-107146000D02*
X338065000Y-120946000D01*
X324265000Y-120946000D02*
X324265000Y-107146000D01*
X333765000Y-118046000D02*
X333765000Y-121246000D01*
X328565000Y-118085000D02*
X328565000Y-121285000D01*
X328565000Y-121285000D02*
X333765000Y-121285000D01*
X333765000Y-118046000D02*
X328565000Y-118046000D01*
%TO.C,S2*%
X71586000Y-25569000D02*
X85386000Y-25569000D01*
X85386000Y-11769000D02*
X71586000Y-11769000D01*
X85386000Y-11769000D02*
X85386000Y-25569000D01*
X71586000Y-25569000D02*
X71586000Y-11769000D01*
X81086000Y-22669000D02*
X81086000Y-25869000D01*
X75886000Y-22708000D02*
X75886000Y-25908000D01*
X75886000Y-25908000D02*
X81086000Y-25908000D01*
X81086000Y-22669000D02*
X75886000Y-22669000D01*
%TO.C,S1*%
X343315000Y-44746000D02*
X357115000Y-44746000D01*
X357115000Y-30946000D02*
X343315000Y-30946000D01*
X357115000Y-30946000D02*
X357115000Y-44746000D01*
X343315000Y-44746000D02*
X343315000Y-30946000D01*
X352815000Y-41846000D02*
X352815000Y-45046000D01*
X347615000Y-41885000D02*
X347615000Y-45085000D01*
X347615000Y-45085000D02*
X352815000Y-45085000D01*
X352815000Y-41846000D02*
X347615000Y-41846000D01*
D10*
%TO.C,SW48*%
X273939000Y-107061000D02*
X287909000Y-107061000D01*
X287909000Y-107061000D02*
X287909000Y-109169200D01*
X287909000Y-119862600D02*
X287909000Y-121031000D01*
X287909000Y-121031000D02*
X273939000Y-121031000D01*
X273939000Y-121031000D02*
X273939000Y-119862600D01*
X273939000Y-109169200D02*
X273939000Y-107061000D01*
D11*
X274034000Y-120936000D02*
X274034000Y-107136000D01*
X287834000Y-107136000D02*
X287834000Y-120936000D01*
X287834000Y-107136000D02*
X274034000Y-107136000D01*
X274034000Y-120936000D02*
X287834000Y-120936000D01*
X278324000Y-121285000D02*
X283524000Y-121285000D01*
X278324000Y-118085000D02*
X278324000Y-121285000D01*
X283524000Y-118046000D02*
X283524000Y-121246000D01*
X283524000Y-118046000D02*
X278324000Y-118046000D01*
%TD*%
M02*
