%TF.GenerationSoftware,KiCad,Pcbnew,(5.1.10)-1*%
%TF.CreationDate,2021-09-06T19:19:32-07:00*%
%TF.ProjectId,chgray-keyboard,63686772-6179-42d6-9b65-79626f617264,Yeet2*%
%TF.SameCoordinates,Original*%
%TF.FileFunction,Other,User*%
%FSLAX46Y46*%
G04 Gerber Fmt 4.6, Leading zero omitted, Abs format (unit mm)*
G04 Created by KiCad (PCBNEW (5.1.10)-1) date 2021-09-06 19:19:32*
%MOMM*%
%LPD*%
G01*
G04 APERTURE LIST*
%ADD10C,0.120000*%
%ADD11C,0.050000*%
G04 APERTURE END LIST*
D10*
%TO.C,D179*%
X160588000Y-118333000D02*
X160588000Y-120833000D01*
X160588000Y-120833000D02*
X163618000Y-120833000D01*
X163618000Y-120833000D02*
X163618000Y-118333000D01*
X163613000Y-118333000D02*
X160588000Y-118333000D01*
D11*
%TO.C,C85*%
X316131000Y-38802900D02*
X316131000Y-40622900D01*
X315211000Y-38802900D02*
X316131000Y-38802900D01*
X315211000Y-40622900D02*
X315211000Y-38802900D01*
X316131000Y-40622900D02*
X315211000Y-40622900D01*
D10*
%TO.C,D174*%
X177758000Y-117969000D02*
X177758000Y-120469000D01*
X177758000Y-120469000D02*
X180788000Y-120469000D01*
X180788000Y-120469000D02*
X180788000Y-117969000D01*
X180783000Y-117969000D02*
X177758000Y-117969000D01*
%TO.C,D169*%
X139201000Y-118130000D02*
X139201000Y-120630000D01*
X139201000Y-120630000D02*
X142231000Y-120630000D01*
X142231000Y-120630000D02*
X142231000Y-118130000D01*
X142226000Y-118130000D02*
X139201000Y-118130000D01*
%TO.C,D164*%
X195030000Y-117774000D02*
X195030000Y-120274000D01*
X195030000Y-120274000D02*
X198060000Y-120274000D01*
X198060000Y-120274000D02*
X198060000Y-117774000D01*
X198055000Y-117774000D02*
X195030000Y-117774000D01*
%TO.C,D159*%
X118627000Y-118130000D02*
X118627000Y-120630000D01*
X118627000Y-120630000D02*
X121657000Y-120630000D01*
X121657000Y-120630000D02*
X121657000Y-118130000D01*
X121652000Y-118130000D02*
X118627000Y-118130000D01*
D11*
%TO.C,C80*%
X316131000Y-34580200D02*
X316131000Y-36400200D01*
X315211000Y-34580200D02*
X316131000Y-34580200D01*
X315211000Y-36400200D02*
X315211000Y-34580200D01*
X316131000Y-36400200D02*
X315211000Y-36400200D01*
%TO.C,C75*%
X316131000Y-45137000D02*
X316131000Y-46957000D01*
X315211000Y-45137000D02*
X316131000Y-45137000D01*
X315211000Y-46957000D02*
X315211000Y-45137000D01*
X316131000Y-46957000D02*
X315211000Y-46957000D01*
%TO.C,C70*%
X316131000Y-19800500D02*
X316131000Y-21620500D01*
X315211000Y-19800500D02*
X316131000Y-19800500D01*
X315211000Y-21620500D02*
X315211000Y-19800500D01*
X316131000Y-21620500D02*
X315211000Y-21620500D01*
%TO.C,C65*%
X316131000Y-43025700D02*
X316131000Y-44845700D01*
X315211000Y-43025700D02*
X316131000Y-43025700D01*
X315211000Y-44845700D02*
X315211000Y-43025700D01*
X316131000Y-44845700D02*
X315211000Y-44845700D01*
D10*
%TO.C,D154*%
X367649000Y-23032400D02*
X367649000Y-25532400D01*
X367649000Y-25532400D02*
X370679000Y-25532400D01*
X370679000Y-25532400D02*
X370679000Y-23032400D01*
X370674000Y-23032400D02*
X367649000Y-23032400D01*
D11*
%TO.C,C60*%
X316131000Y-21911900D02*
X316131000Y-23731900D01*
X315211000Y-21911900D02*
X316131000Y-21911900D01*
X315211000Y-23731900D02*
X315211000Y-21911900D01*
X316131000Y-23731900D02*
X315211000Y-23731900D01*
D10*
%TO.C,D149*%
X348752000Y-22990400D02*
X348752000Y-25490400D01*
X348752000Y-25490400D02*
X351782000Y-25490400D01*
X351782000Y-25490400D02*
X351782000Y-22990400D01*
X351777000Y-22990400D02*
X348752000Y-22990400D01*
%TO.C,D144*%
X267472000Y-22990400D02*
X267472000Y-25490400D01*
X267472000Y-25490400D02*
X270502000Y-25490400D01*
X270502000Y-25490400D02*
X270502000Y-22990400D01*
X270497000Y-22990400D02*
X267472000Y-22990400D01*
%TO.C,D139*%
X329651000Y-22990400D02*
X329651000Y-25490400D01*
X329651000Y-25490400D02*
X332681000Y-25490400D01*
X332681000Y-25490400D02*
X332681000Y-22990400D01*
X332676000Y-22990400D02*
X329651000Y-22990400D01*
%TO.C,D134*%
X286522000Y-22990400D02*
X286522000Y-25490400D01*
X286522000Y-25490400D02*
X289552000Y-25490400D01*
X289552000Y-25490400D02*
X289552000Y-22990400D01*
X289547000Y-22990400D02*
X286522000Y-22990400D01*
%TO.C,D129*%
X210322000Y-23041200D02*
X210322000Y-25541200D01*
X210322000Y-25541200D02*
X213352000Y-25541200D01*
X213352000Y-25541200D02*
X213352000Y-23041200D01*
X213347000Y-23041200D02*
X210322000Y-23041200D01*
%TO.C,D124*%
X305724000Y-22939600D02*
X305724000Y-25439600D01*
X305724000Y-25439600D02*
X308754000Y-25439600D01*
X308754000Y-25439600D02*
X308754000Y-22939600D01*
X308749000Y-22939600D02*
X305724000Y-22939600D01*
%TO.C,D119*%
X229372000Y-22939600D02*
X229372000Y-25439600D01*
X229372000Y-25439600D02*
X232402000Y-25439600D01*
X232402000Y-25439600D02*
X232402000Y-22939600D01*
X232397000Y-22939600D02*
X229372000Y-22939600D01*
%TO.C,D114*%
X248472000Y-22972800D02*
X248472000Y-25472800D01*
X248472000Y-25472800D02*
X251502000Y-25472800D01*
X251502000Y-25472800D02*
X251502000Y-22972800D01*
X251497000Y-22972800D02*
X248472000Y-22972800D01*
D11*
%TO.C,C55*%
X316131000Y-30357400D02*
X316131000Y-32177400D01*
X315211000Y-30357400D02*
X316131000Y-30357400D01*
X315211000Y-32177400D02*
X315211000Y-30357400D01*
X316131000Y-32177400D02*
X315211000Y-32177400D01*
%TO.C,C50*%
X316131000Y-15577800D02*
X316131000Y-17397800D01*
X315211000Y-15577800D02*
X316131000Y-15577800D01*
X315211000Y-17397800D02*
X315211000Y-15577800D01*
X316131000Y-17397800D02*
X315211000Y-17397800D01*
%TO.C,C45*%
X316131000Y-17689200D02*
X316131000Y-19509200D01*
X315211000Y-17689200D02*
X316131000Y-17689200D01*
X315211000Y-19509200D02*
X315211000Y-17689200D01*
X316131000Y-19509200D02*
X315211000Y-19509200D01*
%TO.C,C40*%
X316131000Y-24023300D02*
X316131000Y-25843300D01*
X315211000Y-24023300D02*
X316131000Y-24023300D01*
X315211000Y-25843300D02*
X315211000Y-24023300D01*
X316131000Y-25843300D02*
X315211000Y-25843300D01*
%TO.C,C35*%
X316131000Y-13466400D02*
X316131000Y-15286400D01*
X315211000Y-13466400D02*
X316131000Y-13466400D01*
X315211000Y-15286400D02*
X315211000Y-13466400D01*
X316131000Y-15286400D02*
X315211000Y-15286400D01*
%TO.C,C30*%
X315979000Y-47248400D02*
X315979000Y-49068400D01*
X315059000Y-47248400D02*
X315979000Y-47248400D01*
X315059000Y-49068400D02*
X315059000Y-47248400D01*
X315979000Y-49068400D02*
X315059000Y-49068400D01*
%TO.C,C25*%
X316131000Y-32468800D02*
X316131000Y-34288800D01*
X315211000Y-32468800D02*
X316131000Y-32468800D01*
X315211000Y-34288800D02*
X315211000Y-32468800D01*
X316131000Y-34288800D02*
X315211000Y-34288800D01*
%TO.C,C20*%
X316131000Y-40914300D02*
X316131000Y-42734300D01*
X315211000Y-40914300D02*
X316131000Y-40914300D01*
X315211000Y-42734300D02*
X315211000Y-40914300D01*
X316131000Y-42734300D02*
X315211000Y-42734300D01*
%TO.C,D70*%
X185985000Y-46005600D02*
X185985000Y-48305600D01*
X190685000Y-48305600D02*
X185985000Y-48305600D01*
X190685000Y-46005600D02*
X190685000Y-48305600D01*
X185985000Y-46005600D02*
X190685000Y-46005600D01*
%TO.C,D94*%
X115172000Y-46005600D02*
X115172000Y-48305600D01*
X119872000Y-48305600D02*
X115172000Y-48305600D01*
X119872000Y-46005600D02*
X119872000Y-48305600D01*
X115172000Y-46005600D02*
X119872000Y-46005600D01*
%TO.C,D93*%
X262244000Y-46005600D02*
X262244000Y-48305600D01*
X266944000Y-48305600D02*
X262244000Y-48305600D01*
X266944000Y-46005600D02*
X266944000Y-48305600D01*
X262244000Y-46005600D02*
X266944000Y-46005600D01*
%TO.C,D92*%
X251350000Y-46005600D02*
X251350000Y-48305600D01*
X256050000Y-48305600D02*
X251350000Y-48305600D01*
X256050000Y-46005600D02*
X256050000Y-48305600D01*
X251350000Y-46005600D02*
X256050000Y-46005600D01*
%TO.C,D91*%
X240456000Y-46005600D02*
X240456000Y-48305600D01*
X245156000Y-48305600D02*
X240456000Y-48305600D01*
X245156000Y-46005600D02*
X245156000Y-48305600D01*
X240456000Y-46005600D02*
X245156000Y-46005600D01*
%TO.C,D90*%
X224114000Y-46005600D02*
X224114000Y-48305600D01*
X228814000Y-48305600D02*
X224114000Y-48305600D01*
X228814000Y-46005600D02*
X228814000Y-48305600D01*
X224114000Y-46005600D02*
X228814000Y-46005600D01*
%TO.C,D89*%
X213220000Y-46005600D02*
X213220000Y-48305600D01*
X217920000Y-48305600D02*
X213220000Y-48305600D01*
X217920000Y-46005600D02*
X217920000Y-48305600D01*
X213220000Y-46005600D02*
X217920000Y-46005600D01*
%TO.C,D88*%
X196879000Y-46005600D02*
X196879000Y-48305600D01*
X201579000Y-48305600D02*
X196879000Y-48305600D01*
X201579000Y-46005600D02*
X201579000Y-48305600D01*
X196879000Y-46005600D02*
X201579000Y-46005600D01*
%TO.C,D87*%
X120619000Y-46005600D02*
X120619000Y-48305600D01*
X125319000Y-48305600D02*
X120619000Y-48305600D01*
X125319000Y-46005600D02*
X125319000Y-48305600D01*
X120619000Y-46005600D02*
X125319000Y-46005600D01*
%TO.C,D86*%
X164196000Y-46005600D02*
X164196000Y-48305600D01*
X168896000Y-48305600D02*
X164196000Y-48305600D01*
X168896000Y-46005600D02*
X168896000Y-48305600D01*
X164196000Y-46005600D02*
X168896000Y-46005600D01*
%TO.C,D85*%
X93383600Y-46005600D02*
X93383600Y-48305600D01*
X98083600Y-48305600D02*
X93383600Y-48305600D01*
X98083600Y-46005600D02*
X98083600Y-48305600D01*
X93383600Y-46005600D02*
X98083600Y-46005600D01*
%TO.C,D84*%
X126066000Y-46005600D02*
X126066000Y-48305600D01*
X130766000Y-48305600D02*
X126066000Y-48305600D01*
X130766000Y-46005600D02*
X130766000Y-48305600D01*
X126066000Y-46005600D02*
X130766000Y-46005600D01*
%TO.C,D83*%
X104278000Y-46005600D02*
X104278000Y-48305600D01*
X108978000Y-48305600D02*
X104278000Y-48305600D01*
X108978000Y-46005600D02*
X108978000Y-48305600D01*
X104278000Y-46005600D02*
X108978000Y-46005600D01*
%TO.C,D82*%
X136961000Y-46005600D02*
X136961000Y-48305600D01*
X141661000Y-48305600D02*
X136961000Y-48305600D01*
X141661000Y-46005600D02*
X141661000Y-48305600D01*
X136961000Y-46005600D02*
X141661000Y-46005600D01*
%TO.C,D81*%
X273138000Y-46005600D02*
X273138000Y-48305600D01*
X277838000Y-48305600D02*
X273138000Y-48305600D01*
X277838000Y-46005600D02*
X277838000Y-48305600D01*
X273138000Y-46005600D02*
X277838000Y-46005600D01*
%TO.C,D80*%
X176410000Y-84207200D02*
X176410000Y-86507200D01*
X181110000Y-86507200D02*
X176410000Y-86507200D01*
X181110000Y-84207200D02*
X181110000Y-86507200D01*
X176410000Y-84207200D02*
X181110000Y-84207200D01*
%TO.C,D79*%
X229561000Y-46005600D02*
X229561000Y-48305600D01*
X234261000Y-48305600D02*
X229561000Y-48305600D01*
X234261000Y-46005600D02*
X234261000Y-48305600D01*
X229561000Y-46005600D02*
X234261000Y-46005600D01*
%TO.C,D78*%
X147855000Y-46005600D02*
X147855000Y-48305600D01*
X152555000Y-48305600D02*
X147855000Y-48305600D01*
X152555000Y-46005600D02*
X152555000Y-48305600D01*
X147855000Y-46005600D02*
X152555000Y-46005600D01*
%TO.C,D77*%
X134006000Y-84207200D02*
X134006000Y-86507200D01*
X138706000Y-86507200D02*
X134006000Y-86507200D01*
X138706000Y-84207200D02*
X138706000Y-86507200D01*
X134006000Y-84207200D02*
X138706000Y-84207200D01*
%TO.C,D76*%
X256797000Y-46005600D02*
X256797000Y-48305600D01*
X261497000Y-48305600D02*
X256797000Y-48305600D01*
X261497000Y-46005600D02*
X261497000Y-48305600D01*
X256797000Y-46005600D02*
X261497000Y-46005600D01*
%TO.C,D75*%
X81000400Y-84207200D02*
X81000400Y-86507200D01*
X85700400Y-86507200D02*
X81000400Y-86507200D01*
X85700400Y-84207200D02*
X85700400Y-86507200D01*
X81000400Y-84207200D02*
X85700400Y-84207200D01*
%TO.C,D74*%
X202326000Y-46005600D02*
X202326000Y-48305600D01*
X207026000Y-48305600D02*
X202326000Y-48305600D01*
X207026000Y-46005600D02*
X207026000Y-48305600D01*
X202326000Y-46005600D02*
X207026000Y-46005600D01*
%TO.C,D73*%
X155208000Y-84207200D02*
X155208000Y-86507200D01*
X159908000Y-86507200D02*
X155208000Y-86507200D01*
X159908000Y-84207200D02*
X159908000Y-86507200D01*
X155208000Y-84207200D02*
X159908000Y-84207200D01*
%TO.C,D72*%
X245903000Y-46005600D02*
X245903000Y-48305600D01*
X250603000Y-48305600D02*
X245903000Y-48305600D01*
X250603000Y-46005600D02*
X250603000Y-48305600D01*
X245903000Y-46005600D02*
X250603000Y-46005600D01*
%TO.C,D71*%
X229415000Y-84207200D02*
X229415000Y-86507200D01*
X234115000Y-86507200D02*
X229415000Y-86507200D01*
X234115000Y-84207200D02*
X234115000Y-86507200D01*
X229415000Y-84207200D02*
X234115000Y-84207200D01*
%TO.C,D69*%
X235009000Y-46005600D02*
X235009000Y-48305600D01*
X239709000Y-48305600D02*
X235009000Y-48305600D01*
X239709000Y-46005600D02*
X239709000Y-48305600D01*
X235009000Y-46005600D02*
X239709000Y-46005600D01*
%TO.C,D68*%
X218667000Y-46005600D02*
X218667000Y-48305600D01*
X223367000Y-48305600D02*
X218667000Y-48305600D01*
X223367000Y-46005600D02*
X223367000Y-48305600D01*
X218667000Y-46005600D02*
X223367000Y-46005600D01*
%TO.C,D67*%
X70399400Y-84207200D02*
X70399400Y-86507200D01*
X75099400Y-86507200D02*
X70399400Y-86507200D01*
X75099400Y-84207200D02*
X75099400Y-86507200D01*
X70399400Y-84207200D02*
X75099400Y-84207200D01*
%TO.C,D66*%
X362922000Y-103511000D02*
X362922000Y-105811000D01*
X367622000Y-105811000D02*
X362922000Y-105811000D01*
X367622000Y-103511000D02*
X367622000Y-105811000D01*
X362922000Y-103511000D02*
X367622000Y-103511000D01*
%TO.C,D65*%
X144607000Y-84207200D02*
X144607000Y-86507200D01*
X149307000Y-86507200D02*
X144607000Y-86507200D01*
X149307000Y-84207200D02*
X149307000Y-86507200D01*
X144607000Y-84207200D02*
X149307000Y-84207200D01*
%TO.C,D64*%
X171109000Y-84207200D02*
X171109000Y-86507200D01*
X175809000Y-86507200D02*
X171109000Y-86507200D01*
X175809000Y-84207200D02*
X175809000Y-86507200D01*
X171109000Y-84207200D02*
X175809000Y-84207200D01*
%TO.C,D63*%
X202912000Y-84207200D02*
X202912000Y-86507200D01*
X207612000Y-86507200D02*
X202912000Y-86507200D01*
X207612000Y-84207200D02*
X207612000Y-86507200D01*
X202912000Y-84207200D02*
X207612000Y-84207200D01*
%TO.C,D62*%
X123405000Y-84207200D02*
X123405000Y-86507200D01*
X128105000Y-86507200D02*
X123405000Y-86507200D01*
X128105000Y-84207200D02*
X128105000Y-86507200D01*
X123405000Y-84207200D02*
X128105000Y-84207200D01*
%TO.C,D60*%
X341720000Y-103511000D02*
X341720000Y-105811000D01*
X346420000Y-105811000D02*
X341720000Y-105811000D01*
X346420000Y-103511000D02*
X346420000Y-105811000D01*
X341720000Y-103511000D02*
X346420000Y-103511000D01*
%TO.C,D59*%
X218814000Y-84207200D02*
X218814000Y-86507200D01*
X223514000Y-86507200D02*
X218814000Y-86507200D01*
X223514000Y-84207200D02*
X223514000Y-86507200D01*
X218814000Y-84207200D02*
X223514000Y-84207200D01*
%TO.C,D58*%
X352321000Y-103511000D02*
X352321000Y-105811000D01*
X357021000Y-105811000D02*
X352321000Y-105811000D01*
X357021000Y-103511000D02*
X357021000Y-105811000D01*
X352321000Y-103511000D02*
X357021000Y-103511000D01*
%TO.C,D57*%
X66148100Y-46005600D02*
X66148100Y-48305600D01*
X70848100Y-48305600D02*
X66148100Y-48305600D01*
X70848100Y-46005600D02*
X70848100Y-48305600D01*
X66148100Y-46005600D02*
X70848100Y-46005600D01*
%TO.C,D55*%
X197612000Y-84207200D02*
X197612000Y-86507200D01*
X202312000Y-86507200D02*
X197612000Y-86507200D01*
X202312000Y-84207200D02*
X202312000Y-86507200D01*
X197612000Y-84207200D02*
X202312000Y-84207200D01*
%TO.C,D54*%
X208213000Y-84207200D02*
X208213000Y-86507200D01*
X212913000Y-86507200D02*
X208213000Y-86507200D01*
X212913000Y-84207200D02*
X212913000Y-86507200D01*
X208213000Y-84207200D02*
X212913000Y-84207200D01*
%TO.C,D53*%
X261218000Y-84207200D02*
X261218000Y-86507200D01*
X265918000Y-86507200D02*
X261218000Y-86507200D01*
X265918000Y-84207200D02*
X265918000Y-86507200D01*
X261218000Y-84207200D02*
X265918000Y-84207200D01*
%TO.C,D52*%
X44165900Y-46056400D02*
X44165900Y-48356400D01*
X48865900Y-48356400D02*
X44165900Y-48356400D01*
X48865900Y-46056400D02*
X48865900Y-48356400D01*
X44165900Y-46056400D02*
X48865900Y-46056400D01*
%TO.C,D51*%
X331119000Y-103511000D02*
X331119000Y-105811000D01*
X335819000Y-105811000D02*
X331119000Y-105811000D01*
X335819000Y-103511000D02*
X335819000Y-105811000D01*
X331119000Y-103511000D02*
X335819000Y-103511000D01*
%TO.C,D50*%
X261834000Y-65093200D02*
X261834000Y-67393200D01*
X266534000Y-67393200D02*
X261834000Y-67393200D01*
X266534000Y-65093200D02*
X266534000Y-67393200D01*
X261834000Y-65093200D02*
X266534000Y-65093200D01*
%TO.C,D49*%
X86300900Y-84207200D02*
X86300900Y-86507200D01*
X91000900Y-86507200D02*
X86300900Y-86507200D01*
X91000900Y-84207200D02*
X91000900Y-86507200D01*
X86300900Y-84207200D02*
X91000900Y-84207200D01*
%TO.C,D48*%
X91601500Y-84207200D02*
X91601500Y-86507200D01*
X96301500Y-86507200D02*
X91601500Y-86507200D01*
X96301500Y-84207200D02*
X96301500Y-86507200D01*
X91601500Y-84207200D02*
X96301500Y-84207200D01*
%TO.C,D46*%
X82489400Y-46005600D02*
X82489400Y-48305600D01*
X87189400Y-48305600D02*
X82489400Y-48305600D01*
X87189400Y-46005600D02*
X87189400Y-48305600D01*
X82489400Y-46005600D02*
X87189400Y-46005600D01*
%TO.C,D45*%
X165809000Y-84207200D02*
X165809000Y-86507200D01*
X170509000Y-86507200D02*
X165809000Y-86507200D01*
X170509000Y-84207200D02*
X170509000Y-86507200D01*
X165809000Y-84207200D02*
X170509000Y-84207200D01*
%TO.C,D44*%
X102202000Y-84207200D02*
X102202000Y-86507200D01*
X106902000Y-86507200D02*
X102202000Y-86507200D01*
X106902000Y-84207200D02*
X106902000Y-86507200D01*
X102202000Y-84207200D02*
X106902000Y-84207200D01*
%TO.C,D43*%
X128705000Y-84207200D02*
X128705000Y-86507200D01*
X133405000Y-86507200D02*
X128705000Y-86507200D01*
X133405000Y-84207200D02*
X133405000Y-86507200D01*
X128705000Y-84207200D02*
X133405000Y-84207200D01*
%TO.C,D41*%
X266518000Y-84207200D02*
X266518000Y-86507200D01*
X271218000Y-86507200D02*
X266518000Y-86507200D01*
X271218000Y-84207200D02*
X271218000Y-86507200D01*
X266518000Y-84207200D02*
X271218000Y-84207200D01*
%TO.C,D40*%
X112804000Y-84207200D02*
X112804000Y-86507200D01*
X117504000Y-86507200D02*
X112804000Y-86507200D01*
X117504000Y-84207200D02*
X117504000Y-86507200D01*
X112804000Y-84207200D02*
X117504000Y-84207200D01*
%TO.C,D39*%
X71595200Y-46005600D02*
X71595200Y-48305600D01*
X76295200Y-48305600D02*
X71595200Y-48305600D01*
X76295200Y-46005600D02*
X76295200Y-48305600D01*
X71595200Y-46005600D02*
X76295200Y-46005600D01*
%TO.C,D38*%
X325818000Y-103511000D02*
X325818000Y-105811000D01*
X330518000Y-105811000D02*
X325818000Y-105811000D01*
X330518000Y-103511000D02*
X330518000Y-105811000D01*
X325818000Y-103511000D02*
X330518000Y-103511000D01*
%TO.C,D37*%
X336419000Y-103511000D02*
X336419000Y-105811000D01*
X341119000Y-105811000D02*
X336419000Y-105811000D01*
X341119000Y-103511000D02*
X341119000Y-105811000D01*
X336419000Y-103511000D02*
X341119000Y-103511000D01*
%TO.C,D36*%
X149907000Y-84207200D02*
X149907000Y-86507200D01*
X154607000Y-86507200D02*
X149907000Y-86507200D01*
X154607000Y-84207200D02*
X154607000Y-86507200D01*
X149907000Y-84207200D02*
X154607000Y-84207200D01*
%TO.C,D35*%
X250617000Y-84207200D02*
X250617000Y-86507200D01*
X255317000Y-86507200D02*
X250617000Y-86507200D01*
X255317000Y-84207200D02*
X255317000Y-86507200D01*
X250617000Y-84207200D02*
X255317000Y-84207200D01*
%TO.C,D34*%
X49806700Y-46005600D02*
X49806700Y-48305600D01*
X54506700Y-48305600D02*
X49806700Y-48305600D01*
X54506700Y-46005600D02*
X54506700Y-48305600D01*
X49806700Y-46005600D02*
X54506700Y-46005600D01*
%TO.C,D32*%
X347020000Y-103511000D02*
X347020000Y-105811000D01*
X351720000Y-105811000D02*
X347020000Y-105811000D01*
X351720000Y-103511000D02*
X351720000Y-105811000D01*
X347020000Y-103511000D02*
X351720000Y-103511000D01*
%TO.C,D31*%
X255917000Y-84207200D02*
X255917000Y-86507200D01*
X260617000Y-86507200D02*
X255917000Y-86507200D01*
X260617000Y-84207200D02*
X260617000Y-86507200D01*
X255917000Y-84207200D02*
X260617000Y-84207200D01*
%TO.C,D30*%
X187011000Y-84207200D02*
X187011000Y-86507200D01*
X191711000Y-86507200D02*
X187011000Y-86507200D01*
X191711000Y-84207200D02*
X191711000Y-86507200D01*
X187011000Y-84207200D02*
X191711000Y-84207200D01*
%TO.C,D29*%
X368222000Y-103511000D02*
X368222000Y-105811000D01*
X372922000Y-105811000D02*
X368222000Y-105811000D01*
X372922000Y-103511000D02*
X372922000Y-105811000D01*
X368222000Y-103511000D02*
X372922000Y-103511000D01*
%TO.C,D27*%
X224114000Y-84207200D02*
X224114000Y-86507200D01*
X228814000Y-86507200D02*
X224114000Y-86507200D01*
X228814000Y-84207200D02*
X228814000Y-86507200D01*
X224114000Y-84207200D02*
X228814000Y-84207200D01*
%TO.C,D26*%
X77042300Y-46005600D02*
X77042300Y-48305600D01*
X81742300Y-48305600D02*
X77042300Y-48305600D01*
X81742300Y-46005600D02*
X81742300Y-48305600D01*
X77042300Y-46005600D02*
X81742300Y-46005600D01*
%TO.C,D25*%
X240016000Y-84207200D02*
X240016000Y-86507200D01*
X244716000Y-86507200D02*
X240016000Y-86507200D01*
X244716000Y-84207200D02*
X244716000Y-86507200D01*
X240016000Y-84207200D02*
X244716000Y-84207200D01*
%TO.C,D24*%
X234715000Y-84207200D02*
X234715000Y-86507200D01*
X239415000Y-86507200D02*
X234715000Y-86507200D01*
X239415000Y-84207200D02*
X239415000Y-86507200D01*
X234715000Y-84207200D02*
X239415000Y-84207200D01*
%TO.C,D23*%
X213513000Y-84207200D02*
X213513000Y-86507200D01*
X218213000Y-86507200D02*
X213513000Y-86507200D01*
X218213000Y-84207200D02*
X218213000Y-86507200D01*
X213513000Y-84207200D02*
X218213000Y-84207200D01*
%TO.C,D22*%
X160508000Y-84207200D02*
X160508000Y-86507200D01*
X165208000Y-86507200D02*
X160508000Y-86507200D01*
X165208000Y-84207200D02*
X165208000Y-86507200D01*
X160508000Y-84207200D02*
X165208000Y-84207200D01*
%TO.C,D21*%
X87936500Y-46005600D02*
X87936500Y-48305600D01*
X92636500Y-48305600D02*
X87936500Y-48305600D01*
X92636500Y-46005600D02*
X92636500Y-48305600D01*
X87936500Y-46005600D02*
X92636500Y-46005600D01*
%TO.C,D20*%
X357621000Y-103511000D02*
X357621000Y-105811000D01*
X362321000Y-105811000D02*
X357621000Y-105811000D01*
X362321000Y-103511000D02*
X362321000Y-105811000D01*
X357621000Y-103511000D02*
X362321000Y-103511000D01*
%TO.C,D18*%
X180537000Y-46005600D02*
X180537000Y-48305600D01*
X185237000Y-48305600D02*
X180537000Y-48305600D01*
X185237000Y-46005600D02*
X185237000Y-48305600D01*
X180537000Y-46005600D02*
X185237000Y-46005600D01*
%TO.C,D17*%
X139306000Y-84207200D02*
X139306000Y-86507200D01*
X144006000Y-86507200D02*
X139306000Y-86507200D01*
X144006000Y-84207200D02*
X144006000Y-86507200D01*
X139306000Y-84207200D02*
X144006000Y-84207200D01*
%TO.C,D16*%
X33564800Y-46056400D02*
X33564800Y-48356400D01*
X38264800Y-48356400D02*
X33564800Y-48356400D01*
X38264800Y-46056400D02*
X38264800Y-48356400D01*
X33564800Y-46056400D02*
X38264800Y-46056400D01*
%TO.C,D15*%
X181710000Y-84207200D02*
X181710000Y-86507200D01*
X186410000Y-86507200D02*
X181710000Y-86507200D01*
X186410000Y-84207200D02*
X186410000Y-86507200D01*
X181710000Y-84207200D02*
X186410000Y-84207200D01*
%TO.C,D13*%
X169643000Y-46005600D02*
X169643000Y-48305600D01*
X174343000Y-48305600D02*
X169643000Y-48305600D01*
X174343000Y-46005600D02*
X174343000Y-48305600D01*
X169643000Y-46005600D02*
X174343000Y-46005600D01*
%TO.C,D12*%
X118104000Y-84207200D02*
X118104000Y-86507200D01*
X122804000Y-86507200D02*
X118104000Y-86507200D01*
X122804000Y-84207200D02*
X122804000Y-86507200D01*
X118104000Y-84207200D02*
X122804000Y-84207200D01*
%TO.C,D11*%
X38865400Y-46056400D02*
X38865400Y-48356400D01*
X43565400Y-48356400D02*
X38865400Y-48356400D01*
X43565400Y-46056400D02*
X43565400Y-48356400D01*
X38865400Y-46056400D02*
X43565400Y-46056400D01*
%TO.C,D10*%
X192311000Y-84207200D02*
X192311000Y-86507200D01*
X197011000Y-86507200D02*
X192311000Y-86507200D01*
X197011000Y-84207200D02*
X197011000Y-86507200D01*
X192311000Y-84207200D02*
X197011000Y-84207200D01*
%TO.C,D9*%
X107503000Y-84207200D02*
X107503000Y-86507200D01*
X112203000Y-86507200D02*
X107503000Y-86507200D01*
X112203000Y-84207200D02*
X112203000Y-86507200D01*
X107503000Y-84207200D02*
X112203000Y-84207200D01*
%TO.C,D8*%
X245316000Y-84207200D02*
X245316000Y-86507200D01*
X250016000Y-86507200D02*
X245316000Y-86507200D01*
X250016000Y-84207200D02*
X250016000Y-86507200D01*
X245316000Y-84207200D02*
X250016000Y-84207200D01*
%TO.C,D7*%
X60701000Y-46005600D02*
X60701000Y-48305600D01*
X65401000Y-48305600D02*
X60701000Y-48305600D01*
X65401000Y-46005600D02*
X65401000Y-48305600D01*
X60701000Y-46005600D02*
X65401000Y-46005600D01*
%TO.C,D6*%
X75699900Y-84207200D02*
X75699900Y-86507200D01*
X80399900Y-86507200D02*
X75699900Y-86507200D01*
X80399900Y-84207200D02*
X80399900Y-86507200D01*
X75699900Y-84207200D02*
X80399900Y-84207200D01*
%TO.C,D4*%
X55253800Y-46005600D02*
X55253800Y-48305600D01*
X59953800Y-48305600D02*
X55253800Y-48305600D01*
X59953800Y-46005600D02*
X59953800Y-48305600D01*
X55253800Y-46005600D02*
X59953800Y-46005600D01*
%TO.C,D3*%
X96902000Y-84207200D02*
X96902000Y-86507200D01*
X101602000Y-86507200D02*
X96902000Y-86507200D01*
X101602000Y-84207200D02*
X101602000Y-86507200D01*
X96902000Y-84207200D02*
X101602000Y-84207200D01*
%TO.C,D2*%
X267691000Y-46005600D02*
X267691000Y-48305600D01*
X272391000Y-48305600D02*
X267691000Y-48305600D01*
X272391000Y-46005600D02*
X272391000Y-48305600D01*
X267691000Y-46005600D02*
X272391000Y-46005600D01*
%TO.C,D1*%
X267652000Y-65093200D02*
X267652000Y-67393200D01*
X272352000Y-67393200D02*
X267652000Y-67393200D01*
X272352000Y-65093200D02*
X272352000Y-67393200D01*
X267652000Y-65093200D02*
X272352000Y-65093200D01*
%TO.C,D61*%
X207773000Y-46005600D02*
X207773000Y-48305600D01*
X212473000Y-48305600D02*
X207773000Y-48305600D01*
X212473000Y-46005600D02*
X212473000Y-48305600D01*
X207773000Y-46005600D02*
X212473000Y-46005600D01*
%TO.C,D56*%
X191432000Y-46005600D02*
X191432000Y-48305600D01*
X196132000Y-48305600D02*
X191432000Y-48305600D01*
X196132000Y-46005600D02*
X196132000Y-48305600D01*
X191432000Y-46005600D02*
X196132000Y-46005600D01*
%TO.C,D47*%
X175090000Y-46005600D02*
X175090000Y-48305600D01*
X179790000Y-48305600D02*
X175090000Y-48305600D01*
X179790000Y-46005600D02*
X179790000Y-48305600D01*
X175090000Y-46005600D02*
X179790000Y-46005600D01*
%TO.C,D42*%
X158749000Y-46005600D02*
X158749000Y-48305600D01*
X163449000Y-48305600D02*
X158749000Y-48305600D01*
X163449000Y-46005600D02*
X163449000Y-48305600D01*
X158749000Y-46005600D02*
X163449000Y-46005600D01*
%TO.C,D33*%
X142408000Y-46005600D02*
X142408000Y-48305600D01*
X147108000Y-48305600D02*
X142408000Y-48305600D01*
X147108000Y-46005600D02*
X147108000Y-48305600D01*
X142408000Y-46005600D02*
X147108000Y-46005600D01*
%TO.C,D28*%
X98831000Y-46005600D02*
X98831000Y-48305600D01*
X103531000Y-48305600D02*
X98831000Y-48305600D01*
X103531000Y-46005600D02*
X103531000Y-48305600D01*
X98831000Y-46005600D02*
X103531000Y-46005600D01*
%TO.C,D19*%
X153302000Y-46005600D02*
X153302000Y-48305600D01*
X158002000Y-48305600D02*
X153302000Y-48305600D01*
X158002000Y-46005600D02*
X158002000Y-48305600D01*
X153302000Y-46005600D02*
X158002000Y-46005600D01*
%TO.C,D14*%
X131513000Y-46005600D02*
X131513000Y-48305600D01*
X136213000Y-48305600D02*
X131513000Y-48305600D01*
X136213000Y-46005600D02*
X136213000Y-48305600D01*
X131513000Y-46005600D02*
X136213000Y-46005600D01*
%TO.C,D5*%
X109725000Y-46005600D02*
X109725000Y-48305600D01*
X114425000Y-48305600D02*
X109725000Y-48305600D01*
X114425000Y-46005600D02*
X114425000Y-48305600D01*
X109725000Y-46005600D02*
X114425000Y-46005600D01*
%TO.C,SW_RESET1*%
X324445000Y-124281000D02*
X314345000Y-124281000D01*
X324445000Y-120301000D02*
X314345000Y-120301000D01*
X324455000Y-124274713D02*
X324455000Y-120301000D01*
X314355000Y-120291000D02*
X314345000Y-124281000D01*
%TO.C,Y1-16hz1*%
X316932000Y-103842000D02*
X316932000Y-117442000D01*
X322132000Y-103842000D02*
X316932000Y-103842000D01*
X322132000Y-117442000D02*
X322132000Y-103842000D01*
X316932000Y-117442000D02*
X322132000Y-117442000D01*
%TO.C,J2*%
X324762000Y-4087600D02*
X324772000Y-7587600D01*
X323222000Y-9587600D02*
X324772000Y-9587600D01*
X324772000Y-7587600D02*
X323222000Y-7587600D01*
X323222000Y-4087600D02*
X324762000Y-4087600D01*
X312972000Y-7587600D02*
X312972000Y-4087600D01*
X312972000Y-9587600D02*
X314522000Y-9587600D01*
X314522000Y-7587600D02*
X312972000Y-7587600D01*
X312972000Y-4087600D02*
X314522000Y-4087600D01*
X314522000Y-9587600D02*
X314522000Y-7587600D01*
X323222000Y-7587600D02*
X323222000Y-9587600D01*
X314522000Y-4087600D02*
X314522000Y-2337600D01*
X323222000Y-2337600D02*
X323222000Y-4087600D01*
X314522000Y-2337600D02*
X323222000Y-2337600D01*
X312972000Y-13087600D02*
X312972000Y-9587600D01*
X324772000Y-13087600D02*
X312972000Y-13087600D01*
X324772000Y-9587600D02*
X324772000Y-13087600D01*
D10*
%TO.C,D195*%
X329600000Y-61090400D02*
X329600000Y-63590400D01*
X329600000Y-63590400D02*
X332630000Y-63590400D01*
X332630000Y-63590400D02*
X332630000Y-61090400D01*
X332625000Y-61090400D02*
X329600000Y-61090400D01*
%TO.C,D193*%
X348701000Y-118342000D02*
X348701000Y-120842000D01*
X348701000Y-120842000D02*
X351731000Y-120842000D01*
X351731000Y-120842000D02*
X351731000Y-118342000D01*
X351726000Y-118342000D02*
X348701000Y-118342000D01*
%TO.C,D192*%
X195334000Y-99190000D02*
X195334000Y-101690000D01*
X195334000Y-101690000D02*
X198364000Y-101690000D01*
X198364000Y-101690000D02*
X198364000Y-99190000D01*
X198359000Y-99190000D02*
X195334000Y-99190000D01*
%TO.C,D191*%
X148307000Y-80157000D02*
X148307000Y-82657000D01*
X148307000Y-82657000D02*
X151337000Y-82657000D01*
X151337000Y-82657000D02*
X151337000Y-80157000D01*
X151332000Y-80157000D02*
X148307000Y-80157000D01*
%TO.C,D190*%
X348752000Y-61090400D02*
X348752000Y-63590400D01*
X348752000Y-63590400D02*
X351782000Y-63590400D01*
X351782000Y-63590400D02*
X351782000Y-61090400D01*
X351777000Y-61090400D02*
X348752000Y-61090400D01*
%TO.C,D188*%
X329651000Y-118444000D02*
X329651000Y-120944000D01*
X329651000Y-120944000D02*
X332681000Y-120944000D01*
X332681000Y-120944000D02*
X332681000Y-118444000D01*
X332676000Y-118444000D02*
X329651000Y-118444000D01*
%TO.C,D187*%
X214486000Y-99190000D02*
X214486000Y-101690000D01*
X214486000Y-101690000D02*
X217516000Y-101690000D01*
X217516000Y-101690000D02*
X217516000Y-99190000D01*
X217511000Y-99190000D02*
X214486000Y-99190000D01*
%TO.C,D186*%
X129485000Y-80157000D02*
X129485000Y-82657000D01*
X129485000Y-82657000D02*
X132515000Y-82657000D01*
X132515000Y-82657000D02*
X132515000Y-80157000D01*
X132510000Y-80157000D02*
X129485000Y-80157000D01*
%TO.C,D185*%
X367649000Y-61141200D02*
X367649000Y-63641200D01*
X367649000Y-63641200D02*
X370679000Y-63641200D01*
X370679000Y-63641200D02*
X370679000Y-61141200D01*
X370674000Y-61141200D02*
X367649000Y-61141200D01*
%TO.C,D183*%
X303234000Y-118342000D02*
X303234000Y-120842000D01*
X303234000Y-120842000D02*
X306264000Y-120842000D01*
X306264000Y-120842000D02*
X306264000Y-118342000D01*
X306259000Y-118342000D02*
X303234000Y-118342000D01*
%TO.C,D182*%
X233537000Y-99182000D02*
X233537000Y-101682000D01*
X233537000Y-101682000D02*
X236567000Y-101682000D01*
X236567000Y-101682000D02*
X236567000Y-99182000D01*
X236562000Y-99182000D02*
X233537000Y-99182000D01*
%TO.C,D181*%
X110411000Y-80132000D02*
X110411000Y-82632000D01*
X110411000Y-82632000D02*
X113441000Y-82632000D01*
X113441000Y-82632000D02*
X113441000Y-80132000D01*
X113436000Y-80132000D02*
X110411000Y-80132000D01*
%TO.C,D180*%
X57972400Y-23041200D02*
X57972400Y-25541200D01*
X57972400Y-25541200D02*
X61002400Y-25541200D01*
X61002400Y-25541200D02*
X61002400Y-23041200D01*
X60997400Y-23041200D02*
X57972400Y-23041200D01*
%TO.C,D178*%
X279410000Y-118342000D02*
X279410000Y-120842000D01*
X279410000Y-120842000D02*
X282440000Y-120842000D01*
X282440000Y-120842000D02*
X282440000Y-118342000D01*
X282435000Y-118342000D02*
X279410000Y-118342000D01*
%TO.C,D177*%
X252738000Y-99241000D02*
X252738000Y-101741000D01*
X252738000Y-101741000D02*
X255768000Y-101741000D01*
X255768000Y-101741000D02*
X255768000Y-99241000D01*
X255763000Y-99241000D02*
X252738000Y-99241000D01*
%TO.C,D176*%
X91385500Y-80157000D02*
X91385500Y-82657000D01*
X91385500Y-82657000D02*
X94415500Y-82657000D01*
X94415500Y-82657000D02*
X94415500Y-80157000D01*
X94410500Y-80157000D02*
X91385500Y-80157000D01*
%TO.C,D175*%
X38871000Y-22981600D02*
X38871000Y-25481600D01*
X38871000Y-25481600D02*
X41901000Y-25481600D01*
X41901000Y-25481600D02*
X41901000Y-22981600D01*
X41896000Y-22981600D02*
X38871000Y-22981600D01*
%TO.C,D173*%
X255584000Y-118393000D02*
X255584000Y-120893000D01*
X255584000Y-120893000D02*
X258614000Y-120893000D01*
X258614000Y-120893000D02*
X258614000Y-118393000D01*
X258609000Y-118393000D02*
X255584000Y-118393000D01*
%TO.C,D172*%
X288808000Y-99325000D02*
X288808000Y-101825000D01*
X288808000Y-101825000D02*
X291838000Y-101825000D01*
X291838000Y-101825000D02*
X291838000Y-99325000D01*
X291833000Y-99325000D02*
X288808000Y-99325000D01*
%TO.C,D171*%
X72335500Y-80157000D02*
X72335500Y-82657000D01*
X72335500Y-82657000D02*
X75365500Y-82657000D01*
X75365500Y-82657000D02*
X75365500Y-80157000D01*
X75360500Y-80157000D02*
X72335500Y-80157000D01*
%TO.C,D170*%
X367598000Y-42226000D02*
X367598000Y-44726000D01*
X367598000Y-44726000D02*
X370628000Y-44726000D01*
X370628000Y-44726000D02*
X370628000Y-42226000D01*
X370623000Y-42226000D02*
X367598000Y-42226000D01*
%TO.C,D168*%
X231606000Y-118393000D02*
X231606000Y-120893000D01*
X231606000Y-120893000D02*
X234636000Y-120893000D01*
X234636000Y-120893000D02*
X234636000Y-118393000D01*
X234631000Y-118393000D02*
X231606000Y-118393000D01*
%TO.C,D167*%
X330996000Y-98784000D02*
X330996000Y-101284000D01*
X330996000Y-101284000D02*
X334026000Y-101284000D01*
X334026000Y-101284000D02*
X334026000Y-98784000D01*
X334021000Y-98784000D02*
X330996000Y-98784000D01*
%TO.C,D166*%
X46134800Y-80157000D02*
X46134800Y-82657000D01*
X46134800Y-82657000D02*
X49164800Y-82657000D01*
X49164800Y-82657000D02*
X49164800Y-80157000D01*
X49159800Y-80157000D02*
X46134800Y-80157000D01*
%TO.C,D165*%
X348700000Y-42184000D02*
X348700000Y-44684000D01*
X348700000Y-44684000D02*
X351730000Y-44684000D01*
X351730000Y-44684000D02*
X351730000Y-42184000D01*
X351725000Y-42184000D02*
X348700000Y-42184000D01*
%TO.C,D163*%
X191322000Y-22981600D02*
X191322000Y-25481600D01*
X191322000Y-25481600D02*
X194352000Y-25481600D01*
X194352000Y-25481600D02*
X194352000Y-22981600D01*
X194347000Y-22981600D02*
X191322000Y-22981600D01*
%TO.C,D162*%
X348700000Y-99224000D02*
X348700000Y-101724000D01*
X348700000Y-101724000D02*
X351730000Y-101724000D01*
X351730000Y-101724000D02*
X351730000Y-99224000D01*
X351725000Y-99224000D02*
X348700000Y-99224000D01*
%TO.C,D161*%
X43748400Y-61107000D02*
X43748400Y-63607000D01*
X43748400Y-63607000D02*
X46778400Y-63607000D01*
X46778400Y-63607000D02*
X46778400Y-61107000D01*
X46773400Y-61107000D02*
X43748400Y-61107000D01*
%TO.C,D160*%
X329650000Y-42175200D02*
X329650000Y-44675200D01*
X329650000Y-44675200D02*
X332680000Y-44675200D01*
X332680000Y-44675200D02*
X332680000Y-42175200D01*
X332675000Y-42175200D02*
X329650000Y-42175200D01*
%TO.C,D158*%
X172222000Y-23041200D02*
X172222000Y-25541200D01*
X172222000Y-25541200D02*
X175252000Y-25541200D01*
X175252000Y-25541200D02*
X175252000Y-23041200D01*
X175247000Y-23041200D02*
X172222000Y-23041200D01*
%TO.C,D157*%
X367598000Y-99224000D02*
X367598000Y-101724000D01*
X367598000Y-101724000D02*
X370628000Y-101724000D01*
X370628000Y-101724000D02*
X370628000Y-99224000D01*
X370623000Y-99224000D02*
X367598000Y-99224000D01*
%TO.C,D156*%
X67573000Y-60988800D02*
X67573000Y-63488800D01*
X67573000Y-63488800D02*
X70603000Y-63488800D01*
X70603000Y-63488800D02*
X70603000Y-60988800D01*
X70598000Y-60988800D02*
X67573000Y-60988800D01*
%TO.C,D155*%
X267471000Y-41993500D02*
X267471000Y-44493500D01*
X267471000Y-44493500D02*
X270501000Y-44493500D01*
X270501000Y-44493500D02*
X270501000Y-41993500D01*
X270496000Y-41993500D02*
X267471000Y-41993500D01*
%TO.C,D153*%
X153172000Y-22939600D02*
X153172000Y-25439600D01*
X153172000Y-25439600D02*
X156202000Y-25439600D01*
X156202000Y-25439600D02*
X156202000Y-22939600D01*
X156197000Y-22939600D02*
X153172000Y-22939600D01*
%TO.C,D152*%
X96021600Y-23041200D02*
X96021600Y-25541200D01*
X96021600Y-25541200D02*
X99051600Y-25541200D01*
X99051600Y-25541200D02*
X99051600Y-23041200D01*
X99046600Y-23041200D02*
X96021600Y-23041200D01*
%TO.C,D151*%
X86522000Y-60938000D02*
X86522000Y-63438000D01*
X86522000Y-63438000D02*
X89552000Y-63438000D01*
X89552000Y-63438000D02*
X89552000Y-60938000D01*
X89547000Y-60938000D02*
X86522000Y-60938000D01*
%TO.C,D150*%
X248459000Y-42015000D02*
X248459000Y-44515000D01*
X248459000Y-44515000D02*
X251489000Y-44515000D01*
X251489000Y-44515000D02*
X251489000Y-42015000D01*
X251484000Y-42015000D02*
X248459000Y-42015000D01*
%TO.C,D148*%
X134172000Y-23023600D02*
X134172000Y-25523600D01*
X134172000Y-25523600D02*
X137202000Y-25523600D01*
X137202000Y-25523600D02*
X137202000Y-23023600D01*
X137197000Y-23023600D02*
X134172000Y-23023600D01*
%TO.C,D147*%
X77073200Y-22939600D02*
X77073200Y-25439600D01*
X77073200Y-25439600D02*
X80103200Y-25439600D01*
X80103200Y-25439600D02*
X80103200Y-22939600D01*
X80098200Y-22939600D02*
X77073200Y-22939600D01*
%TO.C,D146*%
X105420000Y-60988800D02*
X105420000Y-63488800D01*
X105420000Y-63488800D02*
X108450000Y-63488800D01*
X108450000Y-63488800D02*
X108450000Y-60988800D01*
X108445000Y-60988800D02*
X105420000Y-60988800D01*
%TO.C,D145*%
X229333000Y-42015000D02*
X229333000Y-44515000D01*
X229333000Y-44515000D02*
X232363000Y-44515000D01*
X232363000Y-44515000D02*
X232363000Y-42015000D01*
X232358000Y-42015000D02*
X229333000Y-42015000D01*
%TO.C,D143*%
X89189000Y-118426000D02*
X89189000Y-120926000D01*
X89189000Y-120926000D02*
X92219000Y-120926000D01*
X92219000Y-120926000D02*
X92219000Y-118426000D01*
X92214000Y-118426000D02*
X89189000Y-118426000D01*
%TO.C,D142*%
X367598000Y-80140400D02*
X367598000Y-82640400D01*
X367598000Y-82640400D02*
X370628000Y-82640400D01*
X370628000Y-82640400D02*
X370628000Y-80140400D01*
X370623000Y-80140400D02*
X367598000Y-80140400D01*
%TO.C,D141*%
X124317000Y-60938000D02*
X124317000Y-63438000D01*
X124317000Y-63438000D02*
X127347000Y-63438000D01*
X127347000Y-63438000D02*
X127347000Y-60938000D01*
X127342000Y-60938000D02*
X124317000Y-60938000D01*
%TO.C,D140*%
X210359000Y-42015000D02*
X210359000Y-44515000D01*
X210359000Y-44515000D02*
X213389000Y-44515000D01*
X213389000Y-44515000D02*
X213389000Y-42015000D01*
X213384000Y-42015000D02*
X210359000Y-42015000D01*
%TO.C,D138*%
X65338400Y-118393000D02*
X65338400Y-120893000D01*
X65338400Y-120893000D02*
X68368400Y-120893000D01*
X68368400Y-120893000D02*
X68368400Y-118393000D01*
X68363400Y-118393000D02*
X65338400Y-118393000D01*
%TO.C,D137*%
X348701000Y-80140400D02*
X348701000Y-82640400D01*
X348701000Y-82640400D02*
X351731000Y-82640400D01*
X351731000Y-82640400D02*
X351731000Y-80140400D01*
X351726000Y-80140400D02*
X348701000Y-80140400D01*
%TO.C,D136*%
X143215000Y-60988800D02*
X143215000Y-63488800D01*
X143215000Y-63488800D02*
X146245000Y-63488800D01*
X146245000Y-63488800D02*
X146245000Y-60988800D01*
X146240000Y-60988800D02*
X143215000Y-60988800D01*
%TO.C,D135*%
X191245000Y-41972000D02*
X191245000Y-44472000D01*
X191245000Y-44472000D02*
X194275000Y-44472000D01*
X194275000Y-44472000D02*
X194275000Y-41972000D01*
X194270000Y-41972000D02*
X191245000Y-41972000D01*
%TO.C,D133*%
X41411600Y-118421000D02*
X41411600Y-120921000D01*
X41411600Y-120921000D02*
X44441600Y-120921000D01*
X44441600Y-120921000D02*
X44441600Y-118421000D01*
X44436600Y-118421000D02*
X41411600Y-118421000D01*
%TO.C,D132*%
X329651000Y-80140400D02*
X329651000Y-82640400D01*
X329651000Y-82640400D02*
X332681000Y-82640400D01*
X332681000Y-82640400D02*
X332681000Y-80140400D01*
X332676000Y-80140400D02*
X329651000Y-80140400D01*
%TO.C,D131*%
X162163000Y-60938000D02*
X162163000Y-63438000D01*
X162163000Y-63438000D02*
X165193000Y-63438000D01*
X165193000Y-63438000D02*
X165193000Y-60938000D01*
X165188000Y-60938000D02*
X162163000Y-60938000D01*
%TO.C,D130*%
X172221000Y-41993500D02*
X172221000Y-44493500D01*
X172221000Y-44493500D02*
X175251000Y-44493500D01*
X175251000Y-44493500D02*
X175251000Y-41993500D01*
X175246000Y-41993500D02*
X172221000Y-41993500D01*
%TO.C,D128*%
X50910000Y-99190000D02*
X50910000Y-101690000D01*
X50910000Y-101690000D02*
X53940000Y-101690000D01*
X53940000Y-101690000D02*
X53940000Y-99190000D01*
X53935000Y-99190000D02*
X50910000Y-99190000D01*
%TO.C,D127*%
X293607000Y-80115000D02*
X293607000Y-82615000D01*
X293607000Y-82615000D02*
X296637000Y-82615000D01*
X296637000Y-82615000D02*
X296637000Y-80115000D01*
X296632000Y-80115000D02*
X293607000Y-80115000D01*
%TO.C,D126*%
X181112000Y-60988800D02*
X181112000Y-63488800D01*
X181112000Y-63488800D02*
X184142000Y-63488800D01*
X184142000Y-63488800D02*
X184142000Y-60988800D01*
X184137000Y-60988800D02*
X181112000Y-60988800D01*
%TO.C,D125*%
X153145000Y-42015000D02*
X153145000Y-44515000D01*
X153145000Y-44515000D02*
X156175000Y-44515000D01*
X156175000Y-44515000D02*
X156175000Y-42015000D01*
X156170000Y-42015000D02*
X153145000Y-42015000D01*
%TO.C,D123*%
X81745600Y-99190000D02*
X81745600Y-101690000D01*
X81745600Y-101690000D02*
X84775600Y-101690000D01*
X84775600Y-101690000D02*
X84775600Y-99190000D01*
X84770600Y-99190000D02*
X81745600Y-99190000D01*
%TO.C,D122*%
X262581000Y-80143000D02*
X262581000Y-82643000D01*
X262581000Y-82643000D02*
X265611000Y-82643000D01*
X265611000Y-82643000D02*
X265611000Y-80143000D01*
X265606000Y-80143000D02*
X262581000Y-80143000D01*
%TO.C,D121*%
X200060000Y-60988800D02*
X200060000Y-63488800D01*
X200060000Y-63488800D02*
X203090000Y-63488800D01*
X203090000Y-63488800D02*
X203090000Y-60988800D01*
X203085000Y-60988800D02*
X200060000Y-60988800D01*
%TO.C,D120*%
X134147000Y-42015000D02*
X134147000Y-44515000D01*
X134147000Y-44515000D02*
X137177000Y-44515000D01*
X137177000Y-44515000D02*
X137177000Y-42015000D01*
X137172000Y-42015000D02*
X134147000Y-42015000D01*
%TO.C,D118*%
X100592000Y-99190000D02*
X100592000Y-101690000D01*
X100592000Y-101690000D02*
X103622000Y-101690000D01*
X103622000Y-101690000D02*
X103622000Y-99190000D01*
X103617000Y-99190000D02*
X100592000Y-99190000D01*
%TO.C,D117*%
X243531000Y-80157000D02*
X243531000Y-82657000D01*
X243531000Y-82657000D02*
X246561000Y-82657000D01*
X246561000Y-82657000D02*
X246561000Y-80157000D01*
X246556000Y-80157000D02*
X243531000Y-80157000D01*
%TO.C,D116*%
X218958000Y-60938000D02*
X218958000Y-63438000D01*
X218958000Y-63438000D02*
X221988000Y-63438000D01*
X221988000Y-63438000D02*
X221988000Y-60938000D01*
X221983000Y-60938000D02*
X218958000Y-60938000D01*
%TO.C,D115*%
X115097000Y-42015000D02*
X115097000Y-44515000D01*
X115097000Y-44515000D02*
X118127000Y-44515000D01*
X118127000Y-44515000D02*
X118127000Y-42015000D01*
X118122000Y-42015000D02*
X115097000Y-42015000D01*
%TO.C,D113*%
X119490000Y-99190000D02*
X119490000Y-101690000D01*
X119490000Y-101690000D02*
X122520000Y-101690000D01*
X122520000Y-101690000D02*
X122520000Y-99190000D01*
X122515000Y-99190000D02*
X119490000Y-99190000D01*
%TO.C,D112*%
X224507000Y-80132000D02*
X224507000Y-82632000D01*
X224507000Y-82632000D02*
X227537000Y-82632000D01*
X227537000Y-82632000D02*
X227537000Y-80132000D01*
X227532000Y-80132000D02*
X224507000Y-80132000D01*
%TO.C,D111*%
X237906000Y-60988800D02*
X237906000Y-63488800D01*
X237906000Y-63488800D02*
X240936000Y-63488800D01*
X240936000Y-63488800D02*
X240936000Y-60988800D01*
X240931000Y-60988800D02*
X237906000Y-60988800D01*
%TO.C,D110*%
X96047000Y-42015000D02*
X96047000Y-44515000D01*
X96047000Y-44515000D02*
X99077000Y-44515000D01*
X99077000Y-44515000D02*
X99077000Y-42015000D01*
X99072000Y-42015000D02*
X96047000Y-42015000D01*
%TO.C,D109*%
X296072000Y-42184000D02*
X296072000Y-44684000D01*
X296072000Y-44684000D02*
X299102000Y-44684000D01*
X299102000Y-44684000D02*
X299102000Y-42184000D01*
X299097000Y-42184000D02*
X296072000Y-42184000D01*
%TO.C,D108*%
X138438000Y-99190000D02*
X138438000Y-101690000D01*
X138438000Y-101690000D02*
X141468000Y-101690000D01*
X141468000Y-101690000D02*
X141468000Y-99190000D01*
X141463000Y-99190000D02*
X138438000Y-99190000D01*
%TO.C,D107*%
X205407000Y-80182000D02*
X205407000Y-82682000D01*
X205407000Y-82682000D02*
X208437000Y-82682000D01*
X208437000Y-82682000D02*
X208437000Y-80182000D01*
X208432000Y-80182000D02*
X205407000Y-80182000D01*
%TO.C,D106*%
X256854000Y-60938000D02*
X256854000Y-63438000D01*
X256854000Y-63438000D02*
X259884000Y-63438000D01*
X259884000Y-63438000D02*
X259884000Y-60938000D01*
X259879000Y-60938000D02*
X256854000Y-60938000D01*
%TO.C,D105*%
X76997000Y-42015000D02*
X76997000Y-44515000D01*
X76997000Y-44515000D02*
X80027000Y-44515000D01*
X80027000Y-44515000D02*
X80027000Y-42015000D01*
X80022000Y-42015000D02*
X76997000Y-42015000D01*
%TO.C,D104*%
X115122000Y-22939600D02*
X115122000Y-25439600D01*
X115122000Y-25439600D02*
X118152000Y-25439600D01*
X118152000Y-25439600D02*
X118152000Y-22939600D01*
X118147000Y-22939600D02*
X115122000Y-22939600D01*
%TO.C,D103*%
X157387000Y-99190000D02*
X157387000Y-101690000D01*
X157387000Y-101690000D02*
X160417000Y-101690000D01*
X160417000Y-101690000D02*
X160417000Y-99190000D01*
X160412000Y-99190000D02*
X157387000Y-99190000D01*
%TO.C,D102*%
X186381000Y-80168000D02*
X186381000Y-82668000D01*
X186381000Y-82668000D02*
X189411000Y-82668000D01*
X189411000Y-82668000D02*
X189411000Y-80168000D01*
X189406000Y-80168000D02*
X186381000Y-80168000D01*
%TO.C,D101*%
X276057000Y-60938000D02*
X276057000Y-63438000D01*
X276057000Y-63438000D02*
X279087000Y-63438000D01*
X279087000Y-63438000D02*
X279087000Y-60938000D01*
X279082000Y-60938000D02*
X276057000Y-60938000D01*
%TO.C,D100*%
X57984500Y-41993500D02*
X57984500Y-44493500D01*
X57984500Y-44493500D02*
X61014500Y-44493500D01*
X61014500Y-44493500D02*
X61014500Y-41993500D01*
X61009500Y-41993500D02*
X57984500Y-41993500D01*
%TO.C,D99*%
X367648000Y-118444000D02*
X367648000Y-120944000D01*
X367648000Y-120944000D02*
X370678000Y-120944000D01*
X370678000Y-120944000D02*
X370678000Y-118444000D01*
X370673000Y-118444000D02*
X367648000Y-118444000D01*
%TO.C,D98*%
X176284000Y-99190000D02*
X176284000Y-101690000D01*
X176284000Y-101690000D02*
X179314000Y-101690000D01*
X179314000Y-101690000D02*
X179314000Y-99190000D01*
X179309000Y-99190000D02*
X176284000Y-99190000D01*
%TO.C,D97*%
X167357000Y-80182000D02*
X167357000Y-82682000D01*
X167357000Y-82682000D02*
X170387000Y-82682000D01*
X170387000Y-82682000D02*
X170387000Y-80182000D01*
X170382000Y-80182000D02*
X167357000Y-80182000D01*
%TO.C,D96*%
X300796000Y-60938000D02*
X300796000Y-63438000D01*
X300796000Y-63438000D02*
X303826000Y-63438000D01*
X303826000Y-63438000D02*
X303826000Y-60938000D01*
X303821000Y-60938000D02*
X300796000Y-60938000D01*
%TO.C,D95*%
X38770000Y-42015000D02*
X38770000Y-44515000D01*
X38770000Y-44515000D02*
X41800000Y-44515000D01*
X41800000Y-44515000D02*
X41800000Y-42015000D01*
X41795000Y-42015000D02*
X38770000Y-42015000D01*
D11*
%TO.C,C107*%
X248607000Y-65353800D02*
X252007000Y-65353800D01*
X248607000Y-67313800D02*
X248607000Y-65353800D01*
X252007000Y-67313800D02*
X248607000Y-67313800D01*
X252007000Y-65353800D02*
X252007000Y-67313800D01*
%TO.C,R3*%
X230692000Y-67253800D02*
X227332000Y-67253800D01*
X230692000Y-65353800D02*
X230692000Y-67253800D01*
X227332000Y-65353800D02*
X230692000Y-65353800D01*
X227332000Y-67253800D02*
X227332000Y-65353800D01*
%TO.C,R2*%
X227179000Y-67253800D02*
X223819000Y-67253800D01*
X227179000Y-65353800D02*
X227179000Y-67253800D01*
X223819000Y-65353800D02*
X227179000Y-65353800D01*
X223819000Y-67253800D02*
X223819000Y-65353800D01*
%TO.C,C109*%
X237797000Y-67313800D02*
X234397000Y-67313800D01*
X237797000Y-65353800D02*
X237797000Y-67313800D01*
X234397000Y-65353800D02*
X237797000Y-65353800D01*
X234397000Y-67313800D02*
X234397000Y-65353800D01*
%TO.C,C108*%
X248454000Y-67313800D02*
X245054000Y-67313800D01*
X248454000Y-65353800D02*
X248454000Y-67313800D01*
X245054000Y-65353800D02*
X248454000Y-65353800D01*
X245054000Y-67313800D02*
X245054000Y-65353800D01*
%TO.C,C106*%
X241349000Y-67313800D02*
X237949000Y-67313800D01*
X241349000Y-65353800D02*
X241349000Y-67313800D01*
X237949000Y-65353800D02*
X241349000Y-65353800D01*
X237949000Y-67313800D02*
X237949000Y-65353800D01*
%TO.C,C105*%
X244902000Y-67313800D02*
X241502000Y-67313800D01*
X244902000Y-65353800D02*
X244902000Y-67313800D01*
X241502000Y-65353800D02*
X244902000Y-65353800D01*
X241502000Y-67313800D02*
X241502000Y-65353800D01*
%TO.C,C104*%
X234244000Y-67313800D02*
X230844000Y-67313800D01*
X234244000Y-65353800D02*
X234244000Y-67313800D01*
X230844000Y-65353800D02*
X234244000Y-65353800D01*
X230844000Y-67313800D02*
X230844000Y-65353800D01*
%TO.C,C103*%
X259112000Y-67313800D02*
X255712000Y-67313800D01*
X259112000Y-65353800D02*
X259112000Y-67313800D01*
X255712000Y-65353800D02*
X259112000Y-65353800D01*
X255712000Y-67313800D02*
X255712000Y-65353800D01*
%TO.C,C102*%
X255560000Y-67313800D02*
X252160000Y-67313800D01*
X255560000Y-65353800D02*
X255560000Y-67313800D01*
X252160000Y-65353800D02*
X255560000Y-65353800D01*
X252160000Y-67313800D02*
X252160000Y-65353800D01*
%TO.C,R4*%
X314399000Y-53943600D02*
X314399000Y-49383600D01*
X316639000Y-53943600D02*
X314399000Y-53943600D01*
X316639000Y-49383600D02*
X316639000Y-53943600D01*
X314399000Y-49383600D02*
X316639000Y-49383600D01*
%TO.C,R1*%
X314450000Y-58983500D02*
X314450000Y-54423500D01*
X316690000Y-58983500D02*
X314450000Y-58983500D01*
X316690000Y-54423500D02*
X316690000Y-58983500D01*
X314450000Y-54423500D02*
X316690000Y-54423500D01*
%TO.C,U1*%
X307600000Y-102000800D02*
X321000000Y-102000800D01*
X307600000Y-88600800D02*
X321000000Y-88600800D01*
X321000000Y-88600800D02*
X321000000Y-102000800D01*
X307600000Y-88600800D02*
X307600000Y-102000800D01*
%TO.C,J1*%
X312161000Y-116110000D02*
X316611000Y-116110000D01*
X312161000Y-106160000D02*
X312161000Y-116110000D01*
X316611000Y-106160000D02*
X312161000Y-106160000D01*
X316611000Y-116110000D02*
X316611000Y-106160000D01*
%TO.C,C3*%
X315910000Y-62472800D02*
X317730000Y-62472800D01*
X315910000Y-63392800D02*
X315910000Y-62472800D01*
X317730000Y-63392800D02*
X315910000Y-63392800D01*
X317730000Y-62472800D02*
X317730000Y-63392800D01*
%TO.C,C5*%
X319385000Y-75468900D02*
X321205000Y-75468900D01*
X319385000Y-76388900D02*
X319385000Y-75468900D01*
X321205000Y-76388900D02*
X319385000Y-76388900D01*
X321205000Y-75468900D02*
X321205000Y-76388900D01*
%TO.C,C6*%
X319385000Y-60473700D02*
X321205000Y-60473700D01*
X319385000Y-61393700D02*
X319385000Y-60473700D01*
X321205000Y-61393700D02*
X319385000Y-61393700D01*
X321205000Y-60473700D02*
X321205000Y-61393700D01*
%TO.C,C8*%
X319385000Y-73326700D02*
X321205000Y-73326700D01*
X319385000Y-74246700D02*
X319385000Y-73326700D01*
X321205000Y-74246700D02*
X319385000Y-74246700D01*
X321205000Y-73326700D02*
X321205000Y-74246700D01*
%TO.C,C9*%
X319385000Y-54047200D02*
X321205000Y-54047200D01*
X319385000Y-54967200D02*
X319385000Y-54047200D01*
X321205000Y-54967200D02*
X319385000Y-54967200D01*
X321205000Y-54047200D02*
X321205000Y-54967200D01*
%TO.C,C11*%
X319385000Y-50833900D02*
X321205000Y-50833900D01*
X319385000Y-51753900D02*
X319385000Y-50833900D01*
X321205000Y-51753900D02*
X319385000Y-51753900D01*
X321205000Y-50833900D02*
X321205000Y-51753900D01*
%TO.C,C13*%
X319385000Y-47620700D02*
X321205000Y-47620700D01*
X319385000Y-48540700D02*
X319385000Y-47620700D01*
X321205000Y-48540700D02*
X319385000Y-48540700D01*
X321205000Y-47620700D02*
X321205000Y-48540700D01*
%TO.C,C16*%
X319385000Y-37980900D02*
X321205000Y-37980900D01*
X319385000Y-38900900D02*
X319385000Y-37980900D01*
X321205000Y-38900900D02*
X319385000Y-38900900D01*
X321205000Y-37980900D02*
X321205000Y-38900900D01*
%TO.C,C17*%
X319385000Y-69042400D02*
X321205000Y-69042400D01*
X319385000Y-69962400D02*
X319385000Y-69042400D01*
X321205000Y-69962400D02*
X319385000Y-69962400D01*
X321205000Y-69042400D02*
X321205000Y-69962400D01*
%TO.C,C18*%
X319385000Y-41194200D02*
X321205000Y-41194200D01*
X319385000Y-42114200D02*
X319385000Y-41194200D01*
X321205000Y-42114200D02*
X319385000Y-42114200D01*
X321205000Y-41194200D02*
X321205000Y-42114200D01*
%TO.C,C22*%
X319385000Y-31554200D02*
X321205000Y-31554200D01*
X319385000Y-32474200D02*
X319385000Y-31554200D01*
X321205000Y-32474200D02*
X319385000Y-32474200D01*
X321205000Y-31554200D02*
X321205000Y-32474200D01*
%TO.C,C24*%
X319389000Y-83081200D02*
X321209000Y-83081200D01*
X319389000Y-84001200D02*
X319389000Y-83081200D01*
X321209000Y-84001200D02*
X319389000Y-84001200D01*
X321209000Y-83081200D02*
X321209000Y-84001200D01*
%TO.C,C27*%
X319385000Y-34767700D02*
X321205000Y-34767700D01*
X319385000Y-35687700D02*
X319385000Y-34767700D01*
X321205000Y-35687700D02*
X319385000Y-35687700D01*
X321205000Y-34767700D02*
X321205000Y-35687700D01*
%TO.C,C29*%
X319385000Y-18701200D02*
X321205000Y-18701200D01*
X319385000Y-19621200D02*
X319385000Y-18701200D01*
X321205000Y-19621200D02*
X319385000Y-19621200D01*
X321205000Y-18701200D02*
X321205000Y-19621200D01*
%TO.C,C31*%
X319385000Y-57260400D02*
X321205000Y-57260400D01*
X319385000Y-58180400D02*
X319385000Y-57260400D01*
X321205000Y-58180400D02*
X319385000Y-58180400D01*
X321205000Y-57260400D02*
X321205000Y-58180400D01*
%TO.C,C32*%
X317022000Y-21998200D02*
X318842000Y-21998200D01*
X317022000Y-22918200D02*
X317022000Y-21998200D01*
X318842000Y-22918200D02*
X317022000Y-22918200D01*
X318842000Y-21998200D02*
X318842000Y-22918200D01*
%TO.C,C33*%
X319385000Y-28341200D02*
X321205000Y-28341200D01*
X319385000Y-29261200D02*
X319385000Y-28341200D01*
X321205000Y-29261200D02*
X319385000Y-29261200D01*
X321205000Y-28341200D02*
X321205000Y-29261200D01*
%TO.C,C36*%
X319385000Y-71184500D02*
X321205000Y-71184500D01*
X319385000Y-72104500D02*
X319385000Y-71184500D01*
X321205000Y-72104500D02*
X319385000Y-72104500D01*
X321205000Y-71184500D02*
X321205000Y-72104500D01*
%TO.C,C37*%
X319385000Y-63686900D02*
X321205000Y-63686900D01*
X319385000Y-64606900D02*
X319385000Y-63686900D01*
X321205000Y-64606900D02*
X319385000Y-64606900D01*
X321205000Y-63686900D02*
X321205000Y-64606900D01*
%TO.C,C39*%
X319404000Y-84091200D02*
X321224000Y-84091200D01*
X319404000Y-85011200D02*
X319404000Y-84091200D01*
X321224000Y-85011200D02*
X319404000Y-85011200D01*
X321224000Y-84091200D02*
X321224000Y-85011200D01*
%TO.C,C41*%
X317022000Y-15571700D02*
X318842000Y-15571700D01*
X317022000Y-16491700D02*
X317022000Y-15571700D01*
X318842000Y-16491700D02*
X317022000Y-16491700D01*
X318842000Y-15571700D02*
X318842000Y-16491700D01*
%TO.C,C42*%
X319385000Y-21914200D02*
X321205000Y-21914200D01*
X319385000Y-22834200D02*
X319385000Y-21914200D01*
X321205000Y-22834200D02*
X319385000Y-22834200D01*
X321205000Y-21914200D02*
X321205000Y-22834200D01*
%TO.C,C46*%
X319385000Y-44407400D02*
X321205000Y-44407400D01*
X319385000Y-45327400D02*
X319385000Y-44407400D01*
X321205000Y-45327400D02*
X319385000Y-45327400D01*
X321205000Y-44407400D02*
X321205000Y-45327400D01*
%TO.C,C47*%
X319385000Y-25128200D02*
X321205000Y-25128200D01*
X319385000Y-26048200D02*
X319385000Y-25128200D01*
X321205000Y-26048200D02*
X319385000Y-26048200D01*
X321205000Y-25128200D02*
X321205000Y-26048200D01*
%TO.C,C48*%
X319385000Y-16559200D02*
X321205000Y-16559200D01*
X319385000Y-17479200D02*
X319385000Y-16559200D01*
X321205000Y-17479200D02*
X319385000Y-17479200D01*
X321205000Y-16559200D02*
X321205000Y-17479200D01*
%TO.C,C49*%
X315905000Y-59236800D02*
X317725000Y-59236800D01*
X315905000Y-60156800D02*
X315905000Y-59236800D01*
X317725000Y-60156800D02*
X315905000Y-60156800D01*
X317725000Y-59236800D02*
X317725000Y-60156800D01*
%TO.C,C51*%
X319385000Y-61544800D02*
X321205000Y-61544800D01*
X319385000Y-62464800D02*
X319385000Y-61544800D01*
X321205000Y-62464800D02*
X319385000Y-62464800D01*
X321205000Y-61544800D02*
X321205000Y-62464800D01*
%TO.C,C54*%
X319394000Y-78726200D02*
X321214000Y-78726200D01*
X319394000Y-79646200D02*
X319394000Y-78726200D01*
X321214000Y-79646200D02*
X319394000Y-79646200D01*
X321214000Y-78726200D02*
X321214000Y-79646200D01*
%TO.C,C56*%
X319385000Y-67971300D02*
X321205000Y-67971300D01*
X319385000Y-68891300D02*
X319385000Y-67971300D01*
X321205000Y-68891300D02*
X319385000Y-68891300D01*
X321205000Y-67971300D02*
X321205000Y-68891300D01*
%TO.C,C57*%
X315905000Y-60308800D02*
X317725000Y-60308800D01*
X315905000Y-61228800D02*
X315905000Y-60308800D01*
X317725000Y-61228800D02*
X315905000Y-61228800D01*
X317725000Y-60308800D02*
X317725000Y-61228800D01*
%TO.C,C58*%
X317022000Y-18785000D02*
X318842000Y-18785000D01*
X317022000Y-19705000D02*
X317022000Y-18785000D01*
X318842000Y-19705000D02*
X317022000Y-19705000D01*
X318842000Y-18785000D02*
X318842000Y-19705000D01*
%TO.C,C61*%
X319385000Y-48691800D02*
X321205000Y-48691800D01*
X319385000Y-49611800D02*
X319385000Y-48691800D01*
X321205000Y-49611800D02*
X319385000Y-49611800D01*
X321205000Y-48691800D02*
X321205000Y-49611800D01*
%TO.C,C62*%
X319385000Y-49762800D02*
X321205000Y-49762800D01*
X319385000Y-50682800D02*
X319385000Y-49762800D01*
X321205000Y-50682800D02*
X319385000Y-50682800D01*
X321205000Y-49762800D02*
X321205000Y-50682800D01*
%TO.C,C63*%
X317022000Y-19856000D02*
X318842000Y-19856000D01*
X317022000Y-20776000D02*
X317022000Y-19856000D01*
X318842000Y-20776000D02*
X317022000Y-20776000D01*
X318842000Y-19856000D02*
X318842000Y-20776000D01*
%TO.C,C64*%
X319385000Y-56189400D02*
X321205000Y-56189400D01*
X319385000Y-57109400D02*
X319385000Y-56189400D01*
X321205000Y-57109400D02*
X319385000Y-57109400D01*
X321205000Y-56189400D02*
X321205000Y-57109400D01*
%TO.C,C66*%
X319385000Y-66900200D02*
X321205000Y-66900200D01*
X319385000Y-67820200D02*
X319385000Y-66900200D01*
X321205000Y-67820200D02*
X319385000Y-67820200D01*
X321205000Y-66900200D02*
X321205000Y-67820200D01*
%TO.C,C67*%
X319385000Y-35838800D02*
X321205000Y-35838800D01*
X319385000Y-36758800D02*
X319385000Y-35838800D01*
X321205000Y-36758800D02*
X319385000Y-36758800D01*
X321205000Y-35838800D02*
X321205000Y-36758800D01*
%TO.C,C71*%
X319385000Y-43336300D02*
X321205000Y-43336300D01*
X319385000Y-44256300D02*
X319385000Y-43336300D01*
X321205000Y-44256300D02*
X319385000Y-44256300D01*
X321205000Y-43336300D02*
X321205000Y-44256300D01*
%TO.C,C73*%
X317022000Y-16642800D02*
X318842000Y-16642800D01*
X317022000Y-17562800D02*
X317022000Y-16642800D01*
X318842000Y-17562800D02*
X317022000Y-17562800D01*
X318842000Y-16642800D02*
X318842000Y-17562800D01*
%TO.C,C74*%
X319385000Y-55118300D02*
X321205000Y-55118300D01*
X319385000Y-56038300D02*
X319385000Y-55118300D01*
X321205000Y-56038300D02*
X319385000Y-56038300D01*
X321205000Y-55118300D02*
X321205000Y-56038300D01*
%TO.C,C79*%
X319385000Y-30483200D02*
X321205000Y-30483200D01*
X319385000Y-31403200D02*
X319385000Y-30483200D01*
X321205000Y-31403200D02*
X319385000Y-31403200D01*
X321205000Y-30483200D02*
X321205000Y-31403200D01*
%TO.C,C81*%
X319385000Y-15488200D02*
X321205000Y-15488200D01*
X319385000Y-16408200D02*
X319385000Y-15488200D01*
X321205000Y-16408200D02*
X319385000Y-16408200D01*
X321205000Y-15488200D02*
X321205000Y-16408200D01*
%TO.C,C82*%
X315905000Y-61379800D02*
X317725000Y-61379800D01*
X315905000Y-62299800D02*
X315905000Y-61379800D01*
X317725000Y-62299800D02*
X315905000Y-62299800D01*
X317725000Y-61379800D02*
X317725000Y-62299800D01*
%TO.C,C83*%
X319385000Y-62615900D02*
X321205000Y-62615900D01*
X319385000Y-63535900D02*
X319385000Y-62615900D01*
X321205000Y-63535900D02*
X319385000Y-63535900D01*
X321205000Y-62615900D02*
X321205000Y-63535900D01*
%TO.C,C84*%
X319385000Y-42265300D02*
X321205000Y-42265300D01*
X319385000Y-43185300D02*
X319385000Y-42265300D01*
X321205000Y-43185300D02*
X319385000Y-43185300D01*
X321205000Y-42265300D02*
X321205000Y-43185300D01*
%TO.C,C88*%
X317022000Y-23069300D02*
X318842000Y-23069300D01*
X317022000Y-23989300D02*
X317022000Y-23069300D01*
X318842000Y-23989300D02*
X317022000Y-23989300D01*
X318842000Y-23069300D02*
X318842000Y-23989300D01*
%TO.C,C89*%
X319385000Y-22986200D02*
X321205000Y-22986200D01*
X319385000Y-23906200D02*
X319385000Y-22986200D01*
X321205000Y-23906200D02*
X319385000Y-23906200D01*
X321205000Y-22986200D02*
X321205000Y-23906200D01*
%TO.C,C91*%
X317029000Y-26210000D02*
X318849000Y-26210000D01*
X317029000Y-27130000D02*
X317029000Y-26210000D01*
X318849000Y-27130000D02*
X317029000Y-27130000D01*
X318849000Y-26210000D02*
X318849000Y-27130000D01*
%TO.C,C93*%
X319385000Y-29412200D02*
X321205000Y-29412200D01*
X319385000Y-30332200D02*
X319385000Y-29412200D01*
X321205000Y-30332200D02*
X319385000Y-30332200D01*
X321205000Y-29412200D02*
X321205000Y-30332200D01*
%TO.C,C96*%
X317022000Y-25211500D02*
X318842000Y-25211500D01*
X317022000Y-26131500D02*
X317022000Y-25211500D01*
X318842000Y-26131500D02*
X317022000Y-26131500D01*
X318842000Y-25211500D02*
X318842000Y-26131500D01*
%TO.C,C97*%
X319385000Y-36909800D02*
X321205000Y-36909800D01*
X319385000Y-37829800D02*
X319385000Y-36909800D01*
X321205000Y-37829800D02*
X319385000Y-37829800D01*
X321205000Y-36909800D02*
X321205000Y-37829800D01*
%TO.C,C98*%
X319385000Y-17630200D02*
X321205000Y-17630200D01*
X319385000Y-18550200D02*
X319385000Y-17630200D01*
X321205000Y-18550200D02*
X319385000Y-18550200D01*
X321205000Y-17630200D02*
X321205000Y-18550200D01*
%TO.C,C101*%
X319385000Y-24057200D02*
X321205000Y-24057200D01*
X319385000Y-24977200D02*
X319385000Y-24057200D01*
X321205000Y-24977200D02*
X319385000Y-24977200D01*
X321205000Y-24057200D02*
X321205000Y-24977200D01*
%TO.C,C23*%
X319385000Y-72255600D02*
X321205000Y-72255600D01*
X319385000Y-73175600D02*
X319385000Y-72255600D01*
X321205000Y-73175600D02*
X319385000Y-73175600D01*
X321205000Y-72255600D02*
X321205000Y-73175600D01*
%TO.C,C26*%
X319385000Y-59402600D02*
X321205000Y-59402600D01*
X319385000Y-60322600D02*
X319385000Y-59402600D01*
X321205000Y-60322600D02*
X319385000Y-60322600D01*
X321205000Y-59402600D02*
X321205000Y-60322600D01*
%TO.C,C28*%
X319394000Y-80868200D02*
X321214000Y-80868200D01*
X319394000Y-81788200D02*
X319394000Y-80868200D01*
X321214000Y-81788200D02*
X319394000Y-81788200D01*
X321214000Y-80868200D02*
X321214000Y-81788200D01*
%TO.C,C15*%
X319385000Y-70113400D02*
X321205000Y-70113400D01*
X319385000Y-71033400D02*
X319385000Y-70113400D01*
X321205000Y-71033400D02*
X319385000Y-71033400D01*
X321205000Y-70113400D02*
X321205000Y-71033400D01*
%TO.C,C21*%
X319385000Y-65829100D02*
X321205000Y-65829100D01*
X319385000Y-66749100D02*
X319385000Y-65829100D01*
X321205000Y-66749100D02*
X319385000Y-66749100D01*
X321205000Y-65829100D02*
X321205000Y-66749100D01*
%TO.C,C19*%
X319385000Y-27270200D02*
X321205000Y-27270200D01*
X319385000Y-28190200D02*
X319385000Y-27270200D01*
X321205000Y-28190200D02*
X319385000Y-28190200D01*
X321205000Y-27270200D02*
X321205000Y-28190200D01*
%TO.C,C44*%
X317022000Y-17713900D02*
X318842000Y-17713900D01*
X317022000Y-18633900D02*
X317022000Y-17713900D01*
X318842000Y-18633900D02*
X317022000Y-18633900D01*
X318842000Y-17713900D02*
X318842000Y-18633900D01*
%TO.C,C38*%
X319389000Y-82010200D02*
X321209000Y-82010200D01*
X319389000Y-82930200D02*
X319389000Y-82010200D01*
X321209000Y-82930200D02*
X319389000Y-82930200D01*
X321209000Y-82010200D02*
X321209000Y-82930200D01*
%TO.C,C52*%
X315910000Y-64543800D02*
X317730000Y-64543800D01*
X315910000Y-65463800D02*
X315910000Y-64543800D01*
X317730000Y-65463800D02*
X315910000Y-65463800D01*
X317730000Y-64543800D02*
X317730000Y-65463800D01*
%TO.C,C34*%
X319385000Y-52976100D02*
X321205000Y-52976100D01*
X319385000Y-53896100D02*
X319385000Y-52976100D01*
X321205000Y-53896100D02*
X319385000Y-53896100D01*
X321205000Y-52976100D02*
X321205000Y-53896100D01*
%TO.C,C43*%
X319385000Y-20843200D02*
X321205000Y-20843200D01*
X319385000Y-21763200D02*
X319385000Y-20843200D01*
X321205000Y-21763200D02*
X319385000Y-21763200D01*
X321205000Y-20843200D02*
X321205000Y-21763200D01*
%TO.C,C53*%
X319385000Y-64758000D02*
X321205000Y-64758000D01*
X319385000Y-65678000D02*
X319385000Y-64758000D01*
X321205000Y-65678000D02*
X319385000Y-65678000D01*
X321205000Y-64758000D02*
X321205000Y-65678000D01*
%TO.C,C59*%
X319385000Y-51905000D02*
X321205000Y-51905000D01*
X319385000Y-52825000D02*
X319385000Y-51905000D01*
X321205000Y-52825000D02*
X319385000Y-52825000D01*
X321205000Y-51905000D02*
X321205000Y-52825000D01*
%TO.C,C78*%
X319385000Y-58331500D02*
X321205000Y-58331500D01*
X319385000Y-59251500D02*
X319385000Y-58331500D01*
X321205000Y-59251500D02*
X319385000Y-59251500D01*
X321205000Y-58331500D02*
X321205000Y-59251500D01*
%TO.C,C86*%
X319370000Y-14427200D02*
X321190000Y-14427200D01*
X319370000Y-15347200D02*
X319370000Y-14427200D01*
X321190000Y-15347200D02*
X319370000Y-15347200D01*
X321190000Y-14427200D02*
X321190000Y-15347200D01*
%TO.C,C92*%
X319385000Y-32625500D02*
X321205000Y-32625500D01*
X319385000Y-33545500D02*
X319385000Y-32625500D01*
X321205000Y-33545500D02*
X319385000Y-33545500D01*
X321205000Y-32625500D02*
X321205000Y-33545500D01*
%TO.C,C99*%
X319385000Y-26199200D02*
X321205000Y-26199200D01*
X319385000Y-27119200D02*
X319385000Y-26199200D01*
X321205000Y-27119200D02*
X319385000Y-27119200D01*
X321205000Y-26199200D02*
X321205000Y-27119200D01*
%TO.C,C87*%
X319385000Y-45478500D02*
X321205000Y-45478500D01*
X319385000Y-46398500D02*
X319385000Y-45478500D01*
X321205000Y-46398500D02*
X319385000Y-46398500D01*
X321205000Y-45478500D02*
X321205000Y-46398500D01*
%TO.C,C76*%
X317022000Y-20927100D02*
X318842000Y-20927100D01*
X317022000Y-21847100D02*
X317022000Y-20927100D01*
X318842000Y-21847100D02*
X317022000Y-21847100D01*
X318842000Y-20927100D02*
X318842000Y-21847100D01*
%TO.C,C94*%
X317022000Y-24140400D02*
X318842000Y-24140400D01*
X317022000Y-25060400D02*
X317022000Y-24140400D01*
X318842000Y-25060400D02*
X317022000Y-25060400D01*
X318842000Y-24140400D02*
X318842000Y-25060400D01*
%TO.C,C77*%
X319394000Y-79797200D02*
X321214000Y-79797200D01*
X319394000Y-80717200D02*
X319394000Y-79797200D01*
X321214000Y-80717200D02*
X319394000Y-80717200D01*
X321214000Y-79797200D02*
X321214000Y-80717200D01*
%TO.C,C69*%
X319385000Y-19772200D02*
X321205000Y-19772200D01*
X319385000Y-20692200D02*
X319385000Y-19772200D01*
X321205000Y-20692200D02*
X319385000Y-20692200D01*
X321205000Y-19772200D02*
X321205000Y-20692200D01*
%TO.C,C68*%
X319385000Y-39052000D02*
X321205000Y-39052000D01*
X319385000Y-39972000D02*
X319385000Y-39052000D01*
X321205000Y-39972000D02*
X319385000Y-39972000D01*
X321205000Y-39052000D02*
X321205000Y-39972000D01*
%TO.C,C72*%
X317022000Y-14500600D02*
X318842000Y-14500600D01*
X317022000Y-15420600D02*
X317022000Y-14500600D01*
X318842000Y-15420600D02*
X317022000Y-15420600D01*
X318842000Y-14500600D02*
X318842000Y-15420600D01*
%TO.C,C4*%
X319385000Y-76539900D02*
X321205000Y-76539900D01*
X319385000Y-77459900D02*
X319385000Y-76539900D01*
X321205000Y-77459900D02*
X319385000Y-77459900D01*
X321205000Y-76539900D02*
X321205000Y-77459900D01*
%TO.C,C7*%
X319385000Y-74397800D02*
X321205000Y-74397800D01*
X319385000Y-75317800D02*
X319385000Y-74397800D01*
X321205000Y-75317800D02*
X319385000Y-75317800D01*
X321205000Y-74397800D02*
X321205000Y-75317800D01*
%TO.C,C10*%
X319385000Y-46549600D02*
X321205000Y-46549600D01*
X319385000Y-47469600D02*
X319385000Y-46549600D01*
X321205000Y-47469600D02*
X319385000Y-47469600D01*
X321205000Y-46549600D02*
X321205000Y-47469600D01*
%TO.C,C14*%
X319385000Y-40123100D02*
X321205000Y-40123100D01*
X319385000Y-41043100D02*
X319385000Y-40123100D01*
X321205000Y-41043100D02*
X319385000Y-41043100D01*
X321205000Y-40123100D02*
X321205000Y-41043100D01*
%TO.C,C2*%
X315910000Y-63543800D02*
X317730000Y-63543800D01*
X315910000Y-64463800D02*
X315910000Y-63543800D01*
X317730000Y-64463800D02*
X315910000Y-64463800D01*
X317730000Y-63543800D02*
X317730000Y-64463800D01*
%TO.C,C12*%
X319392000Y-77558600D02*
X321212000Y-77558600D01*
X319392000Y-78478600D02*
X319392000Y-77558600D01*
X321212000Y-78478600D02*
X319392000Y-78478600D01*
X321212000Y-77558600D02*
X321212000Y-78478600D01*
%TO.C,C1*%
X319385000Y-33696600D02*
X321205000Y-33696600D01*
X319385000Y-34616600D02*
X319385000Y-33696600D01*
X321205000Y-34616600D02*
X319385000Y-34616600D01*
X321205000Y-33696600D02*
X321205000Y-34616600D01*
%TD*%
M02*
