%TF.GenerationSoftware,KiCad,Pcbnew,5.1.6+dfsg1-1*%
%TF.CreationDate,2021-06-10T17:02:18-07:00*%
%TF.ProjectId,chgray-keyboard,63686772-6179-42d6-9b65-79626f617264,Yeet2*%
%TF.SameCoordinates,Original*%
%TF.FileFunction,Soldermask,Bot*%
%TF.FilePolarity,Negative*%
%FSLAX46Y46*%
G04 Gerber Fmt 4.6, Leading zero omitted, Abs format (unit mm)*
G04 Created by KiCad (PCBNEW 5.1.6+dfsg1-1) date 2021-06-10 17:02:18*
%MOMM*%
%LPD*%
G01*
G04 APERTURE LIST*
%ADD10C,0.900000*%
%ADD11C,3.000000*%
%ADD12C,1.701800*%
%ADD13C,3.987800*%
%ADD14R,2.550000X2.500000*%
%ADD15O,1.000000X1.000000*%
%ADD16R,1.000000X1.000000*%
G04 APERTURE END LIST*
D10*
%TO.C,J2*%
X320913000Y-28514000D03*
X325313000Y-28514000D03*
%TD*%
D11*
%TO.C,RightMeta1*%
X301508000Y-111496000D03*
D12*
X300238000Y-114036000D03*
D13*
X305318000Y-114036000D03*
D12*
X310398000Y-114036000D03*
D14*
X297758000Y-111496000D03*
X311608000Y-108956000D03*
D11*
X307858000Y-108956000D03*
%TD*%
%TO.C,RIGHT-SHIFT1*%
X286776000Y-92319000D03*
D12*
X285506000Y-94859000D03*
D13*
X290586000Y-94859000D03*
D12*
X295666000Y-94859000D03*
D14*
X283026000Y-92319000D03*
X296876000Y-89779000D03*
D11*
X293126000Y-89779000D03*
%TD*%
%TO.C,ENTER1*%
X291348000Y-73269000D03*
D12*
X290078000Y-75809000D03*
D13*
X295158000Y-75809000D03*
D12*
X300238000Y-75809000D03*
D14*
X287598000Y-73269000D03*
X301448000Y-70729000D03*
D11*
X297698000Y-70729000D03*
%TD*%
D14*
%TO.C,SW4*%
X32746300Y-35133900D03*
D12*
X35226300Y-37673900D03*
X45386300Y-37673900D03*
D13*
X40306300Y-37673900D03*
D11*
X36496300Y-35133900D03*
X42846300Y-32593900D03*
D14*
X46596300Y-32593900D03*
%TD*%
D11*
%TO.C,WinKey1*%
X86878000Y-111496000D03*
D12*
X85608000Y-114036000D03*
D13*
X90688000Y-114036000D03*
D12*
X95768000Y-114036000D03*
D14*
X83128000Y-111496000D03*
X96978000Y-108956000D03*
D11*
X93228000Y-108956000D03*
%TD*%
%TO.C,LEFT_FN1*%
X63002000Y-111496000D03*
D12*
X61732000Y-114036000D03*
D13*
X66812000Y-114036000D03*
D12*
X71892000Y-114036000D03*
D14*
X59252000Y-111496000D03*
X73102000Y-108956000D03*
D11*
X69352000Y-108956000D03*
%TD*%
%TO.C,LEFT_CTRL1*%
X39126000Y-111496000D03*
D12*
X37856000Y-114036000D03*
D13*
X42936000Y-114036000D03*
D12*
X48016000Y-114036000D03*
D14*
X35376000Y-111496000D03*
X49226000Y-108956000D03*
D11*
X45476000Y-108956000D03*
%TD*%
%TO.C,LEFT_ALT1*%
X110754000Y-111496000D03*
D12*
X109484000Y-114036000D03*
D13*
X114564000Y-114036000D03*
D12*
X119644000Y-114036000D03*
D14*
X107004000Y-111496000D03*
X120854000Y-108956000D03*
D11*
X117104000Y-108956000D03*
%TD*%
%TO.C,Slash1*%
X298587000Y-54235200D03*
D12*
X297317000Y-56775200D03*
D13*
X302397000Y-56775200D03*
D12*
X307477000Y-56775200D03*
D14*
X294837000Y-54235200D03*
X308687000Y-51695200D03*
D11*
X304937000Y-51695200D03*
%TD*%
%TO.C,LEFT-SHIFT1*%
X48587500Y-92319000D03*
D12*
X47317500Y-94859000D03*
D13*
X52397500Y-94859000D03*
D12*
X57477500Y-94859000D03*
D14*
X44837500Y-92319000D03*
X58687500Y-89779000D03*
D11*
X54937500Y-89779000D03*
%TD*%
%TO.C,Backspace1*%
X293761000Y-35140100D03*
D12*
X292491000Y-37680100D03*
D13*
X297571000Y-37680100D03*
D12*
X302651000Y-37680100D03*
D14*
X290011000Y-35140100D03*
X303861000Y-32600100D03*
D11*
X300111000Y-32600100D03*
%TD*%
%TO.C,TAB1*%
X41412000Y-54235200D03*
D12*
X40142000Y-56775200D03*
D13*
X45222000Y-56775200D03*
D12*
X50302000Y-56775200D03*
D14*
X37662000Y-54235200D03*
X51512000Y-51695200D03*
D11*
X47762000Y-51695200D03*
%TD*%
%TO.C,CAPS1*%
X50144500Y-70729000D03*
D14*
X53894500Y-70729000D03*
X40044500Y-73269000D03*
D12*
X52684500Y-75809000D03*
D13*
X47604500Y-75809000D03*
D12*
X42524500Y-75809000D03*
D11*
X43794500Y-73269000D03*
%TD*%
D14*
%TO.C,SW57*%
X237423000Y-73279000D03*
D12*
X239903000Y-75819000D03*
X250063000Y-75819000D03*
D13*
X244983000Y-75819000D03*
D11*
X241173000Y-73279000D03*
X247523000Y-70739000D03*
D14*
X251273000Y-70739000D03*
%TD*%
%TO.C,SW1*%
X389569000Y-53975000D03*
D12*
X392049000Y-56515000D03*
X402209000Y-56515000D03*
D13*
X397129000Y-56515000D03*
D11*
X393319000Y-53975000D03*
X399669000Y-51435000D03*
D14*
X403419000Y-51435000D03*
%TD*%
%TO.C,SW3*%
X228152000Y-92329000D03*
D12*
X230632000Y-94869000D03*
X240792000Y-94869000D03*
D13*
X235712000Y-94869000D03*
D11*
X231902000Y-92329000D03*
X238252000Y-89789000D03*
D14*
X242002000Y-89789000D03*
%TD*%
%TO.C,SW5*%
X51876000Y-35133900D03*
D12*
X54356000Y-37673900D03*
X64516000Y-37673900D03*
D13*
X59436000Y-37673900D03*
D11*
X55626000Y-35133900D03*
X61976000Y-32593900D03*
D14*
X65726000Y-32593900D03*
%TD*%
%TO.C,SW6*%
X61528000Y-54229000D03*
D12*
X64008000Y-56769000D03*
X74168000Y-56769000D03*
D13*
X69088000Y-56769000D03*
D11*
X65278000Y-54229000D03*
X71628000Y-51689000D03*
D14*
X75378000Y-51689000D03*
%TD*%
%TO.C,SW7*%
X66227000Y-73279000D03*
D12*
X68707000Y-75819000D03*
X78867000Y-75819000D03*
D13*
X73787000Y-75819000D03*
D11*
X69977000Y-73279000D03*
X76327000Y-70739000D03*
D14*
X80077000Y-70739000D03*
%TD*%
%TO.C,SW9*%
X332419000Y-92075000D03*
D12*
X334899000Y-94615000D03*
X345059000Y-94615000D03*
D13*
X339979000Y-94615000D03*
D11*
X336169000Y-92075000D03*
X342519000Y-89535000D03*
D14*
X346269000Y-89535000D03*
%TD*%
%TO.C,SW10*%
X85277000Y-73279000D03*
D12*
X87757000Y-75819000D03*
X97917000Y-75819000D03*
D13*
X92837000Y-75819000D03*
D11*
X89027000Y-73279000D03*
X95377000Y-70739000D03*
D14*
X99127000Y-70739000D03*
%TD*%
%TO.C,SW11*%
X75752000Y-92329000D03*
D12*
X78232000Y-94869000D03*
X88392000Y-94869000D03*
D13*
X83312000Y-94869000D03*
D11*
X79502000Y-92329000D03*
X85852000Y-89789000D03*
D14*
X89602000Y-89789000D03*
%TD*%
%TO.C,SW12*%
X389569000Y-73025000D03*
D12*
X392049000Y-75565000D03*
X402209000Y-75565000D03*
D13*
X397129000Y-75565000D03*
D11*
X393319000Y-73025000D03*
X399669000Y-70485000D03*
D14*
X403419000Y-70485000D03*
%TD*%
%TO.C,SW13*%
X70926000Y-35133900D03*
D12*
X73406000Y-37673900D03*
X83566000Y-37673900D03*
D13*
X78486000Y-37673900D03*
D11*
X74676000Y-35133900D03*
X81026000Y-32593900D03*
D14*
X84776000Y-32593900D03*
%TD*%
%TO.C,SW14*%
X80578000Y-54229000D03*
D12*
X83058000Y-56769000D03*
X93218000Y-56769000D03*
D13*
X88138000Y-56769000D03*
D11*
X84328000Y-54229000D03*
X90678000Y-51689000D03*
D14*
X94428000Y-51689000D03*
%TD*%
%TO.C,SW15*%
X89976000Y-35133900D03*
D12*
X92456000Y-37673900D03*
X102616000Y-37673900D03*
D13*
X97536000Y-37673900D03*
D11*
X93726000Y-35133900D03*
X100076000Y-32593900D03*
D14*
X103826000Y-32593900D03*
%TD*%
%TO.C,SW16*%
X99628000Y-54229000D03*
D12*
X102108000Y-56769000D03*
X112268000Y-56769000D03*
D13*
X107188000Y-56769000D03*
D11*
X103378000Y-54229000D03*
X109728000Y-51689000D03*
D14*
X113478000Y-51689000D03*
%TD*%
%TO.C,SW17*%
X104327000Y-73279000D03*
D12*
X106807000Y-75819000D03*
X116967000Y-75819000D03*
D13*
X111887000Y-75819000D03*
D11*
X108077000Y-73279000D03*
X114427000Y-70739000D03*
D14*
X118177000Y-70739000D03*
%TD*%
%TO.C,SW18*%
X94802000Y-92329000D03*
D12*
X97282000Y-94869000D03*
X107442000Y-94869000D03*
D13*
X102362000Y-94869000D03*
D11*
X98552000Y-92329000D03*
X104902000Y-89789000D03*
D14*
X108652000Y-89789000D03*
%TD*%
%TO.C,SW20*%
X232978000Y-54229000D03*
D12*
X235458000Y-56769000D03*
X245618000Y-56769000D03*
D13*
X240538000Y-56769000D03*
D11*
X236728000Y-54229000D03*
X243078000Y-51689000D03*
D14*
X246828000Y-51689000D03*
%TD*%
%TO.C,SW21*%
X123377000Y-73279000D03*
D12*
X125857000Y-75819000D03*
X136017000Y-75819000D03*
D13*
X130937000Y-75819000D03*
D11*
X127127000Y-73279000D03*
X133477000Y-70739000D03*
D14*
X137227000Y-70739000D03*
%TD*%
%TO.C,SW22*%
X113852000Y-92329000D03*
D12*
X116332000Y-94869000D03*
X126492000Y-94869000D03*
D13*
X121412000Y-94869000D03*
D11*
X117602000Y-92329000D03*
X123952000Y-89789000D03*
D14*
X127702000Y-89789000D03*
%TD*%
%TO.C,SW23*%
X252028000Y-54229000D03*
D12*
X254508000Y-56769000D03*
X264668000Y-56769000D03*
D13*
X259588000Y-56769000D03*
D11*
X255778000Y-54229000D03*
X262128000Y-51689000D03*
D14*
X265878000Y-51689000D03*
%TD*%
%TO.C,SW24*%
X109026000Y-35133900D03*
D12*
X111506000Y-37673900D03*
X121666000Y-37673900D03*
D13*
X116586000Y-37673900D03*
D11*
X112776000Y-35133900D03*
X119126000Y-32593900D03*
D14*
X122876000Y-32593900D03*
%TD*%
%TO.C,SW25*%
X118678000Y-54229000D03*
D12*
X121158000Y-56769000D03*
X131318000Y-56769000D03*
D13*
X126238000Y-56769000D03*
D11*
X122428000Y-54229000D03*
X128778000Y-51689000D03*
D14*
X132528000Y-51689000D03*
%TD*%
%TO.C,SW26*%
X128076000Y-35133900D03*
D12*
X130556000Y-37673900D03*
X140716000Y-37673900D03*
D13*
X135636000Y-37673900D03*
D11*
X131826000Y-35133900D03*
X138176000Y-32593900D03*
D14*
X141926000Y-32593900D03*
%TD*%
%TO.C,SW27*%
X137728000Y-54229000D03*
D12*
X140208000Y-56769000D03*
X150368000Y-56769000D03*
D13*
X145288000Y-56769000D03*
D11*
X141478000Y-54229000D03*
X147828000Y-51689000D03*
D14*
X151578000Y-51689000D03*
%TD*%
%TO.C,SW28*%
X142173000Y-73279000D03*
D12*
X144653000Y-75819000D03*
X154813000Y-75819000D03*
D13*
X149733000Y-75819000D03*
D11*
X145923000Y-73279000D03*
X152273000Y-70739000D03*
D14*
X156023000Y-70739000D03*
%TD*%
%TO.C,SW29*%
X132902000Y-92329000D03*
D12*
X135382000Y-94869000D03*
X145542000Y-94869000D03*
D13*
X140462000Y-94869000D03*
D11*
X136652000Y-92329000D03*
X143002000Y-89789000D03*
D14*
X146752000Y-89789000D03*
%TD*%
%TO.C,SW30*%
X171383000Y-111506000D03*
D12*
X173863000Y-114046000D03*
X184023000Y-114046000D03*
D13*
X178943000Y-114046000D03*
D11*
X175133000Y-111506000D03*
X181483000Y-108966000D03*
D14*
X185233000Y-108966000D03*
%TD*%
%TO.C,SW31*%
X161223000Y-73279000D03*
D12*
X163703000Y-75819000D03*
X173863000Y-75819000D03*
D13*
X168783000Y-75819000D03*
D11*
X164973000Y-73279000D03*
X171323000Y-70739000D03*
D14*
X175073000Y-70739000D03*
%TD*%
%TO.C,SW32*%
X151952000Y-92329000D03*
D12*
X154432000Y-94869000D03*
X164592000Y-94869000D03*
D13*
X159512000Y-94869000D03*
D11*
X155702000Y-92329000D03*
X162052000Y-89789000D03*
D14*
X165802000Y-89789000D03*
%TD*%
%TO.C,SW33*%
X190433000Y-111506000D03*
D12*
X192913000Y-114046000D03*
X203073000Y-114046000D03*
D13*
X197993000Y-114046000D03*
D11*
X194183000Y-111506000D03*
X200533000Y-108966000D03*
D14*
X204283000Y-108966000D03*
%TD*%
%TO.C,SW34*%
X247202000Y-92329000D03*
D12*
X249682000Y-94869000D03*
X259842000Y-94869000D03*
D13*
X254762000Y-94869000D03*
D11*
X250952000Y-92329000D03*
X257302000Y-89789000D03*
D14*
X261052000Y-89789000D03*
%TD*%
%TO.C,SW35*%
X147126000Y-35133900D03*
D12*
X149606000Y-37673900D03*
X159766000Y-37673900D03*
D13*
X154686000Y-37673900D03*
D11*
X150876000Y-35133900D03*
X157226000Y-32593900D03*
D14*
X160976000Y-32593900D03*
%TD*%
%TO.C,SW36*%
X156778000Y-54229000D03*
D12*
X159258000Y-56769000D03*
X169418000Y-56769000D03*
D13*
X164338000Y-56769000D03*
D11*
X160528000Y-54229000D03*
X166878000Y-51689000D03*
D14*
X170628000Y-51689000D03*
%TD*%
%TO.C,SW37*%
X166176000Y-35133900D03*
D12*
X168656000Y-37673900D03*
X178816000Y-37673900D03*
D13*
X173736000Y-37673900D03*
D11*
X169926000Y-35133900D03*
X176276000Y-32593900D03*
D14*
X180026000Y-32593900D03*
%TD*%
%TO.C,SW38*%
X175828000Y-54229000D03*
D12*
X178308000Y-56769000D03*
X188468000Y-56769000D03*
D13*
X183388000Y-56769000D03*
D11*
X179578000Y-54229000D03*
X185928000Y-51689000D03*
D14*
X189678000Y-51689000D03*
%TD*%
%TO.C,SW39*%
X180273000Y-73279000D03*
D12*
X182753000Y-75819000D03*
X192913000Y-75819000D03*
D13*
X187833000Y-75819000D03*
D11*
X184023000Y-73279000D03*
X190373000Y-70739000D03*
D14*
X194123000Y-70739000D03*
%TD*%
%TO.C,SW40*%
X171002000Y-92329000D03*
D12*
X173482000Y-94869000D03*
X183642000Y-94869000D03*
D13*
X178562000Y-94869000D03*
D11*
X174752000Y-92329000D03*
X181102000Y-89789000D03*
D14*
X184852000Y-89789000D03*
%TD*%
%TO.C,SW41*%
X242376000Y-35133900D03*
D12*
X244856000Y-37673900D03*
X255016000Y-37673900D03*
D13*
X249936000Y-37673900D03*
D11*
X246126000Y-35133900D03*
X252476000Y-32593900D03*
D14*
X256226000Y-32593900D03*
%TD*%
%TO.C,SW42*%
X199323000Y-73279000D03*
D12*
X201803000Y-75819000D03*
X211963000Y-75819000D03*
D13*
X206883000Y-75819000D03*
D11*
X203073000Y-73279000D03*
X209423000Y-70739000D03*
D14*
X213173000Y-70739000D03*
%TD*%
%TO.C,SW43*%
X190052000Y-92329000D03*
D12*
X192532000Y-94869000D03*
X202692000Y-94869000D03*
D13*
X197612000Y-94869000D03*
D11*
X193802000Y-92329000D03*
X200152000Y-89789000D03*
D14*
X203902000Y-89789000D03*
%TD*%
%TO.C,SW45*%
X261426000Y-35133900D03*
D12*
X263906000Y-37673900D03*
X274066000Y-37673900D03*
D13*
X268986000Y-37673900D03*
D11*
X265176000Y-35133900D03*
X271526000Y-32593900D03*
D14*
X275276000Y-32593900D03*
%TD*%
%TO.C,SW46*%
X185226000Y-35133900D03*
D12*
X187706000Y-37673900D03*
X197866000Y-37673900D03*
D13*
X192786000Y-37673900D03*
D11*
X188976000Y-35133900D03*
X195326000Y-32593900D03*
D14*
X199076000Y-32593900D03*
%TD*%
%TO.C,SW47*%
X194878000Y-54229000D03*
D12*
X197358000Y-56769000D03*
X207518000Y-56769000D03*
D13*
X202438000Y-56769000D03*
D11*
X198628000Y-54229000D03*
X204978000Y-51689000D03*
D14*
X208728000Y-51689000D03*
%TD*%
%TO.C,SW48*%
X204276000Y-35133900D03*
D12*
X206756000Y-37673900D03*
X216916000Y-37673900D03*
D13*
X211836000Y-37673900D03*
D11*
X208026000Y-35133900D03*
X214376000Y-32593900D03*
D14*
X218126000Y-32593900D03*
%TD*%
%TO.C,SW49*%
X213928000Y-54229000D03*
D12*
X216408000Y-56769000D03*
X226568000Y-56769000D03*
D13*
X221488000Y-56769000D03*
D11*
X217678000Y-54229000D03*
X224028000Y-51689000D03*
D14*
X227778000Y-51689000D03*
%TD*%
%TO.C,SW50*%
X218373000Y-73279000D03*
D12*
X220853000Y-75819000D03*
X231013000Y-75819000D03*
D13*
X225933000Y-75819000D03*
D11*
X222123000Y-73279000D03*
X228473000Y-70739000D03*
D14*
X232223000Y-70739000D03*
%TD*%
%TO.C,SW51*%
X209102000Y-92329000D03*
D12*
X211582000Y-94869000D03*
X221742000Y-94869000D03*
D13*
X216662000Y-94869000D03*
D11*
X212852000Y-92329000D03*
X219202000Y-89789000D03*
D14*
X222952000Y-89789000D03*
%TD*%
%TO.C,SW53*%
X223326000Y-35133900D03*
D12*
X225806000Y-37673900D03*
X235966000Y-37673900D03*
D13*
X230886000Y-37673900D03*
D11*
X227076000Y-35133900D03*
X233426000Y-32593900D03*
D14*
X237176000Y-32593900D03*
%TD*%
%TO.C,SW54*%
X351469000Y-73025000D03*
D12*
X353949000Y-75565000D03*
X364109000Y-75565000D03*
D13*
X359029000Y-75565000D03*
D11*
X355219000Y-73025000D03*
X361569000Y-70485000D03*
D14*
X365319000Y-70485000D03*
%TD*%
%TO.C,SW55*%
X271078000Y-54229000D03*
D12*
X273558000Y-56769000D03*
X283718000Y-56769000D03*
D13*
X278638000Y-56769000D03*
D11*
X274828000Y-54229000D03*
X281178000Y-51689000D03*
D14*
X284928000Y-51689000D03*
%TD*%
%TO.C,SW56*%
X370519000Y-73025000D03*
D12*
X372999000Y-75565000D03*
X383159000Y-75565000D03*
D13*
X378079000Y-75565000D03*
D11*
X374269000Y-73025000D03*
X380619000Y-70485000D03*
D14*
X384369000Y-70485000D03*
%TD*%
%TO.C,SW58*%
X256473000Y-73279000D03*
D12*
X258953000Y-75819000D03*
X269113000Y-75819000D03*
D13*
X264033000Y-75819000D03*
D11*
X260223000Y-73279000D03*
X266573000Y-70739000D03*
D14*
X270323000Y-70739000D03*
%TD*%
%TO.C,SW62*%
X351469000Y-53975000D03*
D12*
X353949000Y-56515000D03*
X364109000Y-56515000D03*
D13*
X359029000Y-56515000D03*
D11*
X355219000Y-53975000D03*
X361569000Y-51435000D03*
D14*
X365319000Y-51435000D03*
%TD*%
%TO.C,SW63*%
X332419000Y-53975000D03*
D12*
X334899000Y-56515000D03*
X345059000Y-56515000D03*
D13*
X339979000Y-56515000D03*
D11*
X336169000Y-53975000D03*
X342519000Y-51435000D03*
D14*
X346269000Y-51435000D03*
%TD*%
%TO.C,SW60*%
X332419000Y-73025000D03*
D12*
X334899000Y-75565000D03*
X345059000Y-75565000D03*
D13*
X339979000Y-75565000D03*
D11*
X336169000Y-73025000D03*
X342519000Y-70485000D03*
D14*
X346269000Y-70485000D03*
%TD*%
D11*
%TO.C,LEFT-SPACE1*%
X144155000Y-111496000D03*
D12*
X142885000Y-114036000D03*
D13*
X147965000Y-114036000D03*
D12*
X153045000Y-114036000D03*
D14*
X140405000Y-111496000D03*
X154255000Y-108956000D03*
D11*
X150505000Y-108956000D03*
%TD*%
%TO.C,RIGHT-SPACE1*%
X225181000Y-111496000D03*
D12*
X223911000Y-114036000D03*
D13*
X228991000Y-114036000D03*
D12*
X234071000Y-114036000D03*
D14*
X221431000Y-111496000D03*
X235281000Y-108956000D03*
D11*
X231531000Y-108956000D03*
%TD*%
D14*
%TO.C,SW64*%
X351469000Y-92075000D03*
D12*
X353949000Y-94615000D03*
X364109000Y-94615000D03*
D13*
X359029000Y-94615000D03*
D11*
X355219000Y-92075000D03*
X361569000Y-89535000D03*
D14*
X365319000Y-89535000D03*
%TD*%
%TO.C,SW65*%
X332419000Y-34925000D03*
D12*
X334899000Y-37465000D03*
X345059000Y-37465000D03*
D13*
X339979000Y-37465000D03*
D11*
X336169000Y-34925000D03*
X342519000Y-32385000D03*
D14*
X346269000Y-32385000D03*
%TD*%
%TO.C,SW66*%
X389569000Y-111125000D03*
D12*
X392049000Y-113665000D03*
X402209000Y-113665000D03*
D13*
X397129000Y-113665000D03*
D11*
X393319000Y-111125000D03*
X399669000Y-108585000D03*
D14*
X403419000Y-108585000D03*
%TD*%
%TO.C,SW67*%
X370519000Y-53975000D03*
D12*
X372999000Y-56515000D03*
X383159000Y-56515000D03*
D13*
X378079000Y-56515000D03*
D11*
X374269000Y-53975000D03*
X380619000Y-51435000D03*
D14*
X384369000Y-51435000D03*
%TD*%
%TO.C,SW68*%
X370519000Y-92075000D03*
D12*
X372999000Y-94615000D03*
X383159000Y-94615000D03*
D13*
X378079000Y-94615000D03*
D11*
X374269000Y-92075000D03*
X380619000Y-89535000D03*
D14*
X384369000Y-89535000D03*
%TD*%
%TO.C,SW69*%
X389569000Y-34925000D03*
D12*
X392049000Y-37465000D03*
X402209000Y-37465000D03*
D13*
X397129000Y-37465000D03*
D11*
X393319000Y-34925000D03*
X399669000Y-32385000D03*
D14*
X403419000Y-32385000D03*
%TD*%
%TO.C,SW70*%
X370519000Y-34925000D03*
D12*
X372999000Y-37465000D03*
X383159000Y-37465000D03*
D13*
X378079000Y-37465000D03*
D11*
X374269000Y-34925000D03*
X380619000Y-32385000D03*
D14*
X384369000Y-32385000D03*
%TD*%
%TO.C,SW71*%
X370519000Y-111125000D03*
D12*
X372999000Y-113665000D03*
X383159000Y-113665000D03*
D13*
X378079000Y-113665000D03*
D11*
X374269000Y-111125000D03*
X380619000Y-108585000D03*
D14*
X384369000Y-108585000D03*
%TD*%
%TO.C,SW72*%
X351469000Y-111125000D03*
D12*
X353949000Y-113665000D03*
X364109000Y-113665000D03*
D13*
X359029000Y-113665000D03*
D11*
X355219000Y-111125000D03*
X361569000Y-108585000D03*
D14*
X365319000Y-108585000D03*
%TD*%
%TO.C,SW73*%
X332419000Y-111125000D03*
D12*
X334899000Y-113665000D03*
X345059000Y-113665000D03*
D13*
X339979000Y-113665000D03*
D11*
X336169000Y-111125000D03*
X342519000Y-108585000D03*
D14*
X346269000Y-108585000D03*
%TD*%
%TO.C,S2*%
X389569000Y-92075000D03*
D12*
X392049000Y-94615000D03*
X402209000Y-94615000D03*
D13*
X397129000Y-94615000D03*
D11*
X393319000Y-92075000D03*
X399669000Y-89535000D03*
D14*
X403419000Y-89535000D03*
%TD*%
%TO.C,S1*%
X351469000Y-34925000D03*
D12*
X353949000Y-37465000D03*
X364109000Y-37465000D03*
D13*
X359029000Y-37465000D03*
D11*
X355219000Y-34925000D03*
X361569000Y-32385000D03*
D14*
X365319000Y-32385000D03*
%TD*%
D11*
%TO.C,SW44*%
X258455000Y-111496000D03*
D12*
X257185000Y-114036000D03*
D13*
X262265000Y-114036000D03*
D12*
X267345000Y-114036000D03*
D14*
X254705000Y-111496000D03*
X268555000Y-108956000D03*
D11*
X264805000Y-108956000D03*
%TD*%
D14*
%TO.C,SW52*%
X276285000Y-111506000D03*
D12*
X278765000Y-114046000D03*
X288925000Y-114046000D03*
D13*
X283845000Y-114046000D03*
D11*
X280035000Y-111506000D03*
X286385000Y-108966000D03*
D14*
X290135000Y-108966000D03*
%TD*%
D15*
%TO.C,J1*%
X320385000Y-97129600D03*
X319115000Y-97129600D03*
X320385000Y-95859600D03*
X319115000Y-95859600D03*
X320385000Y-94589600D03*
X319115000Y-94589600D03*
X320385000Y-93319600D03*
X319115000Y-93319600D03*
X320385000Y-92049600D03*
X319115000Y-92049600D03*
X320385000Y-90779600D03*
X319115000Y-90779600D03*
X320385000Y-89509600D03*
D16*
X319115000Y-89509600D03*
%TD*%
M02*
