%TF.GenerationSoftware,KiCad,Pcbnew,(5.1.10)-1*%
%TF.CreationDate,2021-10-06T10:11:26-07:00*%
%TF.ProjectId,chgray-keyboard,63686772-6179-42d6-9b65-79626f617264,Yeet2*%
%TF.SameCoordinates,Original*%
%TF.FileFunction,Other,ECO1*%
%FSLAX46Y46*%
G04 Gerber Fmt 4.6, Leading zero omitted, Abs format (unit mm)*
G04 Created by KiCad (PCBNEW (5.1.10)-1) date 2021-10-06 10:11:26*
%MOMM*%
%LPD*%
G01*
G04 APERTURE LIST*
%ADD10C,0.150000*%
%ADD11C,0.120000*%
G04 APERTURE END LIST*
D10*
X312293000Y-13335000D02*
X314833000Y-13335000D01*
X312293000Y1905000D02*
X312293000Y-13335000D01*
X325247000Y1905000D02*
X312293000Y1905000D01*
X325247000Y-13335000D02*
X325247000Y1905000D01*
X321564000Y-13335000D02*
X325247000Y-13335000D01*
X318897000Y-87630000D02*
X321564000Y-87630000D01*
X321564000Y-103124000D02*
X321564000Y-13335000D01*
X324739000Y-103124000D02*
X321564000Y-103124000D01*
X324739000Y-119380000D02*
X324739000Y-103124000D01*
X324739000Y-124333000D02*
X324739000Y-119380000D01*
X312420000Y-124333000D02*
X324739000Y-124333000D01*
X312420000Y-105918000D02*
X312420000Y-124333000D01*
X307340000Y-103124000D02*
X312420000Y-105918000D01*
X307340000Y-87630000D02*
X307340000Y-103124000D01*
X318897000Y-87630000D02*
X307340000Y-87630000D01*
X318897000Y-67691000D02*
X318897000Y-87630000D01*
X316103000Y-67691000D02*
X318897000Y-67691000D01*
X313563000Y-59690000D02*
X316103000Y-67691000D01*
X313563000Y-48895000D02*
X313563000Y-59690000D01*
X314833000Y-48895000D02*
X313563000Y-48895000D01*
X314833000Y-13335000D02*
X314833000Y-48895000D01*
X325628000Y-103378000D02*
X373126000Y-103378000D01*
X325628000Y-105918000D02*
X325628000Y-103378000D01*
X373126000Y-105918000D02*
X325628000Y-105918000D01*
X373126000Y-103378000D02*
X373126000Y-105918000D01*
X271526000Y-83947000D02*
X69977000Y-83947000D01*
X271526000Y-86741000D02*
X271526000Y-83947000D01*
X69977000Y-86741000D02*
X271526000Y-86741000D01*
X69977000Y-83947000D02*
X69977000Y-86741000D01*
X278257000Y-45593000D02*
X33147000Y-45593000D01*
X278257000Y-48641000D02*
X278257000Y-45593000D01*
X33147000Y-48641000D02*
X278257000Y-48641000D01*
X33147000Y-45593000D02*
X33147000Y-48641000D01*
%TO.C,SW58*%
X225922000Y-121296000D02*
X225922000Y-106796000D01*
X240422000Y-106796000D02*
X240422000Y-121296000D01*
X225922000Y-106796000D02*
X240422000Y-106796000D01*
X240422000Y-121296000D02*
X225922000Y-121296000D01*
%TO.C,SW57*%
X155279000Y-120946000D02*
X155279000Y-107146000D01*
X155279000Y-107146000D02*
X169079000Y-107146000D01*
X169079000Y-107146000D02*
X169079000Y-120946000D01*
X169079000Y-120946000D02*
X155279000Y-120946000D01*
X169079000Y-107146000D02*
X169079000Y-120946000D01*
X155279000Y-120946000D02*
X155279000Y-107146000D01*
X155279000Y-107146000D02*
X169079000Y-107146000D01*
X169079000Y-120946000D02*
X155279000Y-120946000D01*
D11*
X116459000Y-116586000D02*
X206629000Y-116586000D01*
X206629000Y-116586000D02*
X206629000Y-125476000D01*
X206629000Y-125476000D02*
X218059000Y-125476000D01*
X218059000Y-125476000D02*
X218059000Y-102616000D01*
X206629000Y-102616000D02*
X206629000Y-111506000D01*
X206629000Y-111506000D02*
X116459000Y-111506000D01*
X116459000Y-111506000D02*
X116459000Y-102616000D01*
X116459000Y-102616000D02*
X106299000Y-102616000D01*
X106299000Y-102616000D02*
X106299000Y-125476000D01*
X106299000Y-125476000D02*
X116459000Y-125476000D01*
X116459000Y-125476000D02*
X116459000Y-116586000D01*
X206629000Y-102616000D02*
X218059000Y-102616000D01*
D10*
%TO.C,RIGHT-SPACE1*%
X249798000Y-121296000D02*
X249798000Y-106796000D01*
X264298000Y-106796000D02*
X264298000Y-121296000D01*
X249798000Y-106796000D02*
X264298000Y-106796000D01*
X264298000Y-121296000D02*
X249798000Y-121296000D01*
%TO.C,LEFT_ALT1*%
X128736000Y-25569000D02*
X128736000Y-11769000D01*
X142536000Y-25569000D02*
X128736000Y-25569000D01*
X142536000Y-11769000D02*
X142536000Y-25569000D01*
X128736000Y-11769000D02*
X142536000Y-11769000D01*
%TO.C,RIGHT-SHIFT2*%
X204936000Y-25569000D02*
X204936000Y-11769000D01*
X218736000Y-25569000D02*
X204936000Y-25569000D01*
X218736000Y-11769000D02*
X218736000Y-25569000D01*
X204936000Y-11769000D02*
X218736000Y-11769000D01*
%TO.C,LEFT-SPACE1*%
X147786000Y-25569000D02*
X147786000Y-11769000D01*
X161586000Y-25569000D02*
X147786000Y-25569000D01*
X161586000Y-11769000D02*
X161586000Y-25569000D01*
X147786000Y-11769000D02*
X161586000Y-11769000D01*
%TO.C,SW50*%
X324265000Y-25569000D02*
X324265000Y-11769000D01*
X338065000Y-25569000D02*
X324265000Y-25569000D01*
X338065000Y-11769000D02*
X338065000Y-25569000D01*
X324265000Y-11769000D02*
X338065000Y-11769000D01*
%TO.C,SW45*%
X262086000Y-25569000D02*
X262086000Y-11769000D01*
X275886000Y-25569000D02*
X262086000Y-25569000D01*
X275886000Y-11769000D02*
X275886000Y-25569000D01*
X262086000Y-11769000D02*
X275886000Y-11769000D01*
%TO.C,SW37*%
X362238000Y-25569000D02*
X362238000Y-11769000D01*
X376038000Y-25569000D02*
X362238000Y-25569000D01*
X376038000Y-11769000D02*
X376038000Y-25569000D01*
X362238000Y-11769000D02*
X376038000Y-11769000D01*
%TO.C,SW25*%
X281136000Y-25569000D02*
X281136000Y-11769000D01*
X294936000Y-25569000D02*
X281136000Y-25569000D01*
X294936000Y-11769000D02*
X294936000Y-25569000D01*
X281136000Y-11769000D02*
X294936000Y-11769000D01*
%TO.C,SW21*%
X300334000Y-25569000D02*
X300334000Y-11769000D01*
X314134000Y-25569000D02*
X300334000Y-25569000D01*
X314134000Y-11769000D02*
X314134000Y-25569000D01*
X300334000Y-11769000D02*
X314134000Y-11769000D01*
%TO.C,SW13*%
X243036000Y-25569000D02*
X243036000Y-11769000D01*
X256836000Y-25569000D02*
X243036000Y-25569000D01*
X256836000Y-11769000D02*
X256836000Y-25569000D01*
X243036000Y-11769000D02*
X256836000Y-11769000D01*
%TO.C,SW9*%
X343315000Y-25569000D02*
X343315000Y-11769000D01*
X357115000Y-25569000D02*
X343315000Y-25569000D01*
X357115000Y-11769000D02*
X357115000Y-25569000D01*
X343315000Y-11769000D02*
X357115000Y-11769000D01*
%TO.C,SW3*%
X223986000Y-25569000D02*
X223986000Y-11769000D01*
X237786000Y-25569000D02*
X223986000Y-25569000D01*
X237786000Y-11769000D02*
X237786000Y-25569000D01*
X223986000Y-11769000D02*
X237786000Y-11769000D01*
%TO.C,RightMeta1*%
X297480000Y-121296000D02*
X297480000Y-106796000D01*
X311980000Y-106796000D02*
X311980000Y-121296000D01*
X297480000Y-106796000D02*
X311980000Y-106796000D01*
X311980000Y-121296000D02*
X297480000Y-121296000D01*
D11*
%TO.C,RIGHT-SHIFT1*%
X306802000Y-86386000D02*
X306802000Y-105496000D01*
X298542000Y-86386000D02*
X298542000Y-105496000D01*
X298542000Y-105496000D02*
X306802000Y-105496000D01*
X298542000Y-86386000D02*
X306802000Y-86386000D01*
X282152000Y-86386000D02*
X282152000Y-105496000D01*
X273892000Y-86386000D02*
X273892000Y-105496000D01*
X273892000Y-105496000D02*
X282152000Y-105496000D01*
X273892000Y-86386000D02*
X282152000Y-86386000D01*
D10*
X283072000Y-102246000D02*
X283072000Y-87746000D01*
X297572000Y-87746000D02*
X297572000Y-102246000D01*
X283072000Y-87746000D02*
X297572000Y-87746000D01*
X297572000Y-102246000D02*
X283072000Y-102246000D01*
%TO.C,ENTER1*%
X287960000Y-83069000D02*
X287960000Y-68569000D01*
X302460000Y-68569000D02*
X302460000Y-83069000D01*
X287960000Y-68569000D02*
X302460000Y-68569000D01*
X302460000Y-83069000D02*
X287960000Y-83069000D01*
D11*
X278830000Y-66759000D02*
X287090000Y-66759000D01*
X278830000Y-86239000D02*
X287090000Y-86239000D01*
X278830000Y-66759000D02*
X278830000Y-86239000D01*
X287090000Y-66759000D02*
X287090000Y-86239000D01*
X303370000Y-66759000D02*
X311630000Y-66759000D01*
X303370000Y-86329000D02*
X311630000Y-86329000D01*
X303370000Y-66759000D02*
X303370000Y-86329000D01*
X311630000Y-66759000D02*
X311630000Y-86329000D01*
D10*
%TO.C,SW4*%
X33486000Y-44573900D02*
X33486000Y-30773900D01*
X47286000Y-44573900D02*
X33486000Y-44573900D01*
X47286000Y-30773900D02*
X47286000Y-44573900D01*
X33486000Y-30773900D02*
X47286000Y-30773900D01*
%TO.C,WinKey1*%
X83428000Y-121296000D02*
X83428000Y-106796000D01*
X97928000Y-106796000D02*
X97928000Y-121296000D01*
X83428000Y-106796000D02*
X97928000Y-106796000D01*
X97928000Y-121296000D02*
X83428000Y-121296000D01*
%TO.C,LEFT_FN1*%
X59552000Y-121296000D02*
X59552000Y-106796000D01*
X74052000Y-106796000D02*
X74052000Y-121296000D01*
X59552000Y-106796000D02*
X74052000Y-106796000D01*
X74052000Y-121296000D02*
X59552000Y-121296000D01*
%TO.C,LEFT_CTRL1*%
X35634700Y-121296000D02*
X35634700Y-106796000D01*
X50134700Y-106796000D02*
X50134700Y-121296000D01*
X35634700Y-106796000D02*
X50134700Y-106796000D01*
X50134700Y-121296000D02*
X35634700Y-121296000D01*
%TO.C,Slash1*%
X295255000Y-63742000D02*
X295255000Y-49542000D01*
X309455000Y-49542000D02*
X309455000Y-63742000D01*
X295255000Y-49542000D02*
X309455000Y-49542000D01*
X309455000Y-63742000D02*
X295255000Y-63742000D01*
%TO.C,LEFT-SHIFT1*%
X45159700Y-102119000D02*
X45159700Y-87619000D01*
X59659700Y-87619000D02*
X59659700Y-102119000D01*
X45159700Y-87619000D02*
X59659700Y-87619000D01*
X59659700Y-102119000D02*
X45159700Y-102119000D01*
D11*
X36029700Y-85809000D02*
X44289700Y-85809000D01*
X36029700Y-105289000D02*
X44289700Y-105289000D01*
X36029700Y-85809000D02*
X36029700Y-105289000D01*
X44289700Y-85809000D02*
X44289700Y-105289000D01*
X60569700Y-85809000D02*
X68829700Y-85809000D01*
X60569700Y-105379000D02*
X68829700Y-105379000D01*
X60569700Y-85809000D02*
X60569700Y-105379000D01*
X68829700Y-85809000D02*
X68829700Y-105379000D01*
%TO.C,Backspace1*%
X289353000Y-28646000D02*
X289353000Y-48266000D01*
D10*
X304843000Y-45096000D02*
X290343000Y-45096000D01*
X290343000Y-30596000D02*
X304843000Y-30596000D01*
X304843000Y-30596000D02*
X304843000Y-45096000D01*
X290343000Y-45096000D02*
X290343000Y-30596000D01*
D11*
X281093000Y-28646000D02*
X289353000Y-28646000D01*
X281093000Y-28646000D02*
X281093000Y-48266000D01*
X281093000Y-48266000D02*
X289353000Y-48266000D01*
X305773000Y-28646000D02*
X314033000Y-28646000D01*
X305773000Y-48236000D02*
X314033000Y-48236000D01*
X305773000Y-28646000D02*
X305773000Y-48236000D01*
X314033000Y-28646000D02*
X314033000Y-48236000D01*
D10*
%TO.C,TAB1*%
X38164700Y-63885200D02*
X38164700Y-49685200D01*
X52364700Y-49685200D02*
X52364700Y-63885200D01*
X38164700Y-49685200D02*
X52364700Y-49685200D01*
X52364700Y-63885200D02*
X38164700Y-63885200D01*
%TO.C,CAPS1*%
X40397200Y-83069000D02*
X40397200Y-68569000D01*
X54897200Y-68569000D02*
X54897200Y-83069000D01*
X40397200Y-68569000D02*
X54897200Y-68569000D01*
X54897200Y-83069000D02*
X40397200Y-83069000D01*
%TO.C,SW63*%
X238083000Y-82719000D02*
X238083000Y-68919000D01*
X251883000Y-82719000D02*
X238083000Y-82719000D01*
X251883000Y-68919000D02*
X251883000Y-82719000D01*
X238083000Y-68919000D02*
X251883000Y-68919000D01*
%TO.C,SW1*%
X109686000Y-25569000D02*
X109686000Y-11769000D01*
X123486000Y-25569000D02*
X109686000Y-25569000D01*
X123486000Y-11769000D02*
X123486000Y-25569000D01*
X109686000Y-11769000D02*
X123486000Y-11769000D01*
%TO.C,SW2*%
X228177000Y-101769000D02*
X228177000Y-87969000D01*
X241977000Y-101769000D02*
X228177000Y-101769000D01*
X241977000Y-87969000D02*
X241977000Y-101769000D01*
X228177000Y-87969000D02*
X241977000Y-87969000D01*
%TO.C,SW5*%
X52536000Y-44573900D02*
X52536000Y-30773900D01*
X66336000Y-44573900D02*
X52536000Y-44573900D01*
X66336000Y-30773900D02*
X66336000Y-44573900D01*
X52536000Y-30773900D02*
X66336000Y-30773900D01*
%TO.C,SW6*%
X62188000Y-63542000D02*
X62188000Y-49742000D01*
X75988000Y-63542000D02*
X62188000Y-63542000D01*
X75988000Y-49742000D02*
X75988000Y-63542000D01*
X62188000Y-49742000D02*
X75988000Y-49742000D01*
%TO.C,SW7*%
X66887000Y-82719000D02*
X66887000Y-68919000D01*
X80687000Y-82719000D02*
X66887000Y-82719000D01*
X80687000Y-68919000D02*
X80687000Y-82719000D01*
X66887000Y-68919000D02*
X80687000Y-68919000D01*
%TO.C,SW8*%
X324265000Y-101769000D02*
X324265000Y-87969000D01*
X338065000Y-101769000D02*
X324265000Y-101769000D01*
X338065000Y-87969000D02*
X338065000Y-101769000D01*
X324265000Y-87969000D02*
X338065000Y-87969000D01*
%TO.C,SW10*%
X85937000Y-82719000D02*
X85937000Y-68919000D01*
X99737000Y-82719000D02*
X85937000Y-82719000D01*
X99737000Y-68919000D02*
X99737000Y-82719000D01*
X85937000Y-68919000D02*
X99737000Y-68919000D01*
%TO.C,SW11*%
X76412000Y-101769000D02*
X76412000Y-87969000D01*
X90212000Y-101769000D02*
X76412000Y-101769000D01*
X90212000Y-87969000D02*
X90212000Y-101769000D01*
X76412000Y-87969000D02*
X90212000Y-87969000D01*
%TO.C,SW12*%
X90636000Y-25569000D02*
X90636000Y-11769000D01*
X104436000Y-25569000D02*
X90636000Y-25569000D01*
X104436000Y-11769000D02*
X104436000Y-25569000D01*
X90636000Y-11769000D02*
X104436000Y-11769000D01*
%TO.C,SW14*%
X71586000Y-44573900D02*
X71586000Y-30773900D01*
X85386000Y-44573900D02*
X71586000Y-44573900D01*
X85386000Y-30773900D02*
X85386000Y-44573900D01*
X71586000Y-30773900D02*
X85386000Y-30773900D01*
%TO.C,SW15*%
X81111000Y-63542000D02*
X81111000Y-49742000D01*
X94911000Y-63542000D02*
X81111000Y-63542000D01*
X94911000Y-49742000D02*
X94911000Y-63542000D01*
X81111000Y-49742000D02*
X94911000Y-49742000D01*
%TO.C,SW16*%
X90636000Y-44573900D02*
X90636000Y-30773900D01*
X104436000Y-44573900D02*
X90636000Y-44573900D01*
X104436000Y-30773900D02*
X104436000Y-44573900D01*
X90636000Y-30773900D02*
X104436000Y-30773900D01*
%TO.C,SW17*%
X100034000Y-63542000D02*
X100034000Y-49742000D01*
X113834000Y-63542000D02*
X100034000Y-63542000D01*
X113834000Y-49742000D02*
X113834000Y-63542000D01*
X100034000Y-49742000D02*
X113834000Y-49742000D01*
%TO.C,SW18*%
X104987000Y-82719000D02*
X104987000Y-68919000D01*
X118787000Y-82719000D02*
X104987000Y-82719000D01*
X118787000Y-68919000D02*
X118787000Y-82719000D01*
X104987000Y-68919000D02*
X118787000Y-68919000D01*
%TO.C,SW19*%
X95208000Y-101769000D02*
X95208000Y-87969000D01*
X109008000Y-101769000D02*
X95208000Y-101769000D01*
X109008000Y-87969000D02*
X109008000Y-101769000D01*
X95208000Y-87969000D02*
X109008000Y-87969000D01*
%TO.C,SW20*%
X232495000Y-63542000D02*
X232495000Y-49742000D01*
X246295000Y-63542000D02*
X232495000Y-63542000D01*
X246295000Y-49742000D02*
X246295000Y-63542000D01*
X232495000Y-49742000D02*
X246295000Y-49742000D01*
%TO.C,SW22*%
X124037000Y-82719000D02*
X124037000Y-68919000D01*
X137837000Y-82719000D02*
X124037000Y-82719000D01*
X137837000Y-68919000D02*
X137837000Y-82719000D01*
X124037000Y-68919000D02*
X137837000Y-68919000D01*
%TO.C,SW23*%
X114131000Y-101769000D02*
X114131000Y-87969000D01*
X127931000Y-101769000D02*
X114131000Y-101769000D01*
X127931000Y-87969000D02*
X127931000Y-101769000D01*
X114131000Y-87969000D02*
X127931000Y-87969000D01*
%TO.C,SW24*%
X251545000Y-63542000D02*
X251545000Y-49742000D01*
X265345000Y-63542000D02*
X251545000Y-63542000D01*
X265345000Y-49742000D02*
X265345000Y-63542000D01*
X251545000Y-49742000D02*
X265345000Y-49742000D01*
%TO.C,SW26*%
X109686000Y-44573900D02*
X109686000Y-30773900D01*
X123486000Y-44573900D02*
X109686000Y-44573900D01*
X123486000Y-30773900D02*
X123486000Y-44573900D01*
X109686000Y-30773900D02*
X123486000Y-30773900D01*
%TO.C,SW27*%
X118957000Y-63542000D02*
X118957000Y-49742000D01*
X132757000Y-63542000D02*
X118957000Y-63542000D01*
X132757000Y-49742000D02*
X132757000Y-63542000D01*
X118957000Y-49742000D02*
X132757000Y-49742000D01*
%TO.C,SW28*%
X128736000Y-44573900D02*
X128736000Y-30773900D01*
X142536000Y-44573900D02*
X128736000Y-44573900D01*
X142536000Y-30773900D02*
X142536000Y-44573900D01*
X128736000Y-30773900D02*
X142536000Y-30773900D01*
%TO.C,SW29*%
X137880000Y-63542000D02*
X137880000Y-49742000D01*
X151680000Y-63542000D02*
X137880000Y-63542000D01*
X151680000Y-49742000D02*
X151680000Y-63542000D01*
X137880000Y-49742000D02*
X151680000Y-49742000D01*
%TO.C,SW30*%
X142833000Y-82719000D02*
X142833000Y-68919000D01*
X156633000Y-82719000D02*
X142833000Y-82719000D01*
X156633000Y-68919000D02*
X156633000Y-82719000D01*
X142833000Y-68919000D02*
X156633000Y-68919000D01*
%TO.C,SW31*%
X133054000Y-101769000D02*
X133054000Y-87969000D01*
X146854000Y-101769000D02*
X133054000Y-101769000D01*
X146854000Y-87969000D02*
X146854000Y-101769000D01*
X133054000Y-87969000D02*
X146854000Y-87969000D01*
%TO.C,SW32*%
X166836000Y-25569000D02*
X166836000Y-11769000D01*
X180636000Y-25569000D02*
X166836000Y-25569000D01*
X180636000Y-11769000D02*
X180636000Y-25569000D01*
X166836000Y-11769000D02*
X180636000Y-11769000D01*
%TO.C,SW33*%
X161883000Y-82719000D02*
X161883000Y-68919000D01*
X175683000Y-82719000D02*
X161883000Y-82719000D01*
X175683000Y-68919000D02*
X175683000Y-82719000D01*
X161883000Y-68919000D02*
X175683000Y-68919000D01*
%TO.C,SW34*%
X151977000Y-101769000D02*
X151977000Y-87969000D01*
X165777000Y-101769000D02*
X151977000Y-101769000D01*
X165777000Y-87969000D02*
X165777000Y-101769000D01*
X151977000Y-87969000D02*
X165777000Y-87969000D01*
%TO.C,SW35*%
X185886000Y-25569000D02*
X185886000Y-11769000D01*
X199686000Y-25569000D02*
X185886000Y-25569000D01*
X199686000Y-11769000D02*
X199686000Y-25569000D01*
X185886000Y-11769000D02*
X199686000Y-11769000D01*
%TO.C,SW36*%
X247354000Y-101769000D02*
X247354000Y-87969000D01*
X261154000Y-101769000D02*
X247354000Y-101769000D01*
X261154000Y-87969000D02*
X261154000Y-101769000D01*
X247354000Y-87969000D02*
X261154000Y-87969000D01*
%TO.C,SW38*%
X147786000Y-44573900D02*
X147786000Y-30773900D01*
X161586000Y-44573900D02*
X147786000Y-44573900D01*
X161586000Y-30773900D02*
X161586000Y-44573900D01*
X147786000Y-30773900D02*
X161586000Y-30773900D01*
%TO.C,SW39*%
X156803000Y-63542000D02*
X156803000Y-49742000D01*
X170603000Y-63542000D02*
X156803000Y-63542000D01*
X170603000Y-49742000D02*
X170603000Y-63542000D01*
X156803000Y-49742000D02*
X170603000Y-49742000D01*
%TO.C,SW40*%
X166836000Y-44573900D02*
X166836000Y-30773900D01*
X180636000Y-44573900D02*
X166836000Y-44573900D01*
X180636000Y-30773900D02*
X180636000Y-44573900D01*
X166836000Y-30773900D02*
X180636000Y-30773900D01*
%TO.C,SW41*%
X175726000Y-63542000D02*
X175726000Y-49742000D01*
X189526000Y-63542000D02*
X175726000Y-63542000D01*
X189526000Y-49742000D02*
X189526000Y-63542000D01*
X175726000Y-49742000D02*
X189526000Y-49742000D01*
%TO.C,SW42*%
X180933000Y-82719000D02*
X180933000Y-68919000D01*
X194733000Y-82719000D02*
X180933000Y-82719000D01*
X194733000Y-68919000D02*
X194733000Y-82719000D01*
X180933000Y-68919000D02*
X194733000Y-68919000D01*
%TO.C,SW43*%
X170900000Y-101769000D02*
X170900000Y-87969000D01*
X184700000Y-101769000D02*
X170900000Y-101769000D01*
X184700000Y-87969000D02*
X184700000Y-101769000D01*
X170900000Y-87969000D02*
X184700000Y-87969000D01*
%TO.C,SW44*%
X243036000Y-44573900D02*
X243036000Y-30773900D01*
X256836000Y-44573900D02*
X243036000Y-44573900D01*
X256836000Y-30773900D02*
X256836000Y-44573900D01*
X243036000Y-30773900D02*
X256836000Y-30773900D01*
%TO.C,SW46*%
X199983000Y-82719000D02*
X199983000Y-68919000D01*
X213783000Y-82719000D02*
X199983000Y-82719000D01*
X213783000Y-68919000D02*
X213783000Y-82719000D01*
X199983000Y-68919000D02*
X213783000Y-68919000D01*
%TO.C,SW47*%
X189950000Y-101769000D02*
X189950000Y-87969000D01*
X203750000Y-101769000D02*
X189950000Y-101769000D01*
X203750000Y-87969000D02*
X203750000Y-101769000D01*
X189950000Y-87969000D02*
X203750000Y-87969000D01*
%TO.C,SW49*%
X262086000Y-44573900D02*
X262086000Y-30773900D01*
X275886000Y-44573900D02*
X262086000Y-44573900D01*
X275886000Y-30773900D02*
X275886000Y-44573900D01*
X262086000Y-30773900D02*
X275886000Y-30773900D01*
%TO.C,SW51*%
X185886000Y-44573900D02*
X185886000Y-30773900D01*
X199686000Y-44573900D02*
X185886000Y-44573900D01*
X199686000Y-30773900D02*
X199686000Y-44573900D01*
X185886000Y-30773900D02*
X199686000Y-30773900D01*
%TO.C,SW52*%
X194649000Y-63542000D02*
X194649000Y-49742000D01*
X208449000Y-63542000D02*
X194649000Y-63542000D01*
X208449000Y-49742000D02*
X208449000Y-63542000D01*
X194649000Y-49742000D02*
X208449000Y-49742000D01*
%TO.C,SW53*%
X204936000Y-44573900D02*
X204936000Y-30773900D01*
X218736000Y-44573900D02*
X204936000Y-44573900D01*
X218736000Y-30773900D02*
X218736000Y-44573900D01*
X204936000Y-30773900D02*
X218736000Y-30773900D01*
%TO.C,SW54*%
X213572000Y-63542000D02*
X213572000Y-49742000D01*
X227372000Y-63542000D02*
X213572000Y-63542000D01*
X227372000Y-49742000D02*
X227372000Y-63542000D01*
X213572000Y-49742000D02*
X227372000Y-49742000D01*
%TO.C,SW55*%
X219033000Y-82719000D02*
X219033000Y-68919000D01*
X232833000Y-82719000D02*
X219033000Y-82719000D01*
X232833000Y-68919000D02*
X232833000Y-82719000D01*
X219033000Y-68919000D02*
X232833000Y-68919000D01*
%TO.C,SW56*%
X209127000Y-101769000D02*
X209127000Y-87969000D01*
X222927000Y-101769000D02*
X209127000Y-101769000D01*
X222927000Y-87969000D02*
X222927000Y-101769000D01*
X209127000Y-87969000D02*
X222927000Y-87969000D01*
%TO.C,SW59*%
X223986000Y-44573900D02*
X223986000Y-30773900D01*
X237786000Y-44573900D02*
X223986000Y-44573900D01*
X237786000Y-30773900D02*
X237786000Y-44573900D01*
X223986000Y-30773900D02*
X237786000Y-30773900D01*
%TO.C,SW60*%
X343315000Y-82719000D02*
X343315000Y-68919000D01*
X357115000Y-82719000D02*
X343315000Y-82719000D01*
X357115000Y-68919000D02*
X357115000Y-82719000D01*
X343315000Y-68919000D02*
X357115000Y-68919000D01*
%TO.C,SW61*%
X270722000Y-63542000D02*
X270722000Y-49742000D01*
X284522000Y-63542000D02*
X270722000Y-63542000D01*
X284522000Y-49742000D02*
X284522000Y-63542000D01*
X270722000Y-49742000D02*
X284522000Y-49742000D01*
%TO.C,SW62*%
X362238000Y-82719000D02*
X362238000Y-68919000D01*
X376038000Y-82719000D02*
X362238000Y-82719000D01*
X376038000Y-68919000D02*
X376038000Y-82719000D01*
X362238000Y-68919000D02*
X376038000Y-68919000D01*
%TO.C,SW64*%
X257133000Y-82719000D02*
X257133000Y-68919000D01*
X270933000Y-82719000D02*
X257133000Y-82719000D01*
X270933000Y-68919000D02*
X270933000Y-82719000D01*
X257133000Y-68919000D02*
X270933000Y-68919000D01*
%TO.C,SW66*%
X343315000Y-63669000D02*
X343315000Y-49869000D01*
X357115000Y-63669000D02*
X343315000Y-63669000D01*
X357115000Y-49869000D02*
X357115000Y-63669000D01*
X343315000Y-49869000D02*
X357115000Y-49869000D01*
%TO.C,SW67*%
X324265000Y-63669000D02*
X324265000Y-49869000D01*
X338065000Y-63669000D02*
X324265000Y-63669000D01*
X338065000Y-49869000D02*
X338065000Y-63669000D01*
X324265000Y-49869000D02*
X338065000Y-49869000D01*
%TO.C,SW65*%
X324265000Y-82719000D02*
X324265000Y-68919000D01*
X338065000Y-82719000D02*
X324265000Y-82719000D01*
X338065000Y-68919000D02*
X338065000Y-82719000D01*
X324265000Y-68919000D02*
X338065000Y-68919000D01*
%TO.C,SW68*%
X343315000Y-101769000D02*
X343315000Y-87969000D01*
X357115000Y-101769000D02*
X343315000Y-101769000D01*
X357115000Y-87969000D02*
X357115000Y-101769000D01*
X343315000Y-87969000D02*
X357115000Y-87969000D01*
%TO.C,SW69*%
X324265000Y-44746000D02*
X324265000Y-30946000D01*
X338065000Y-44746000D02*
X324265000Y-44746000D01*
X338065000Y-30946000D02*
X338065000Y-44746000D01*
X324265000Y-30946000D02*
X338065000Y-30946000D01*
%TO.C,SW70*%
X52536000Y-25569000D02*
X52536000Y-11769000D01*
X66336000Y-25569000D02*
X52536000Y-25569000D01*
X66336000Y-11769000D02*
X66336000Y-25569000D01*
X52536000Y-11769000D02*
X66336000Y-11769000D01*
%TO.C,SW71*%
X362238000Y-63669000D02*
X362238000Y-49869000D01*
X376038000Y-63669000D02*
X362238000Y-63669000D01*
X376038000Y-49869000D02*
X376038000Y-63669000D01*
X362238000Y-49869000D02*
X376038000Y-49869000D01*
%TO.C,SW72*%
X362238000Y-101769000D02*
X362238000Y-87969000D01*
X376038000Y-101769000D02*
X362238000Y-101769000D01*
X376038000Y-87969000D02*
X376038000Y-101769000D01*
X362238000Y-87969000D02*
X376038000Y-87969000D01*
%TO.C,SW73*%
X33486000Y-25569000D02*
X33486000Y-11769000D01*
X47286000Y-25569000D02*
X33486000Y-25569000D01*
X47286000Y-11769000D02*
X47286000Y-25569000D01*
X33486000Y-11769000D02*
X47286000Y-11769000D01*
%TO.C,SW74*%
X362238000Y-44746000D02*
X362238000Y-30946000D01*
X376038000Y-44746000D02*
X362238000Y-44746000D01*
X376038000Y-30946000D02*
X376038000Y-44746000D01*
X362238000Y-30946000D02*
X376038000Y-30946000D01*
%TO.C,SW75*%
X362238000Y-120946000D02*
X362238000Y-107146000D01*
X376038000Y-120946000D02*
X362238000Y-120946000D01*
X376038000Y-107146000D02*
X376038000Y-120946000D01*
X362238000Y-107146000D02*
X376038000Y-107146000D01*
%TO.C,SW76*%
X343315000Y-120946000D02*
X343315000Y-107146000D01*
X357115000Y-120946000D02*
X343315000Y-120946000D01*
X357115000Y-107146000D02*
X357115000Y-120946000D01*
X343315000Y-107146000D02*
X357115000Y-107146000D01*
%TO.C,SW77*%
X324265000Y-120946000D02*
X324265000Y-107146000D01*
X338065000Y-120946000D02*
X324265000Y-120946000D01*
X338065000Y-107146000D02*
X338065000Y-120946000D01*
X324265000Y-107146000D02*
X338065000Y-107146000D01*
%TO.C,S2*%
X71586000Y-25569000D02*
X71586000Y-11769000D01*
X85386000Y-25569000D02*
X71586000Y-25569000D01*
X85386000Y-11769000D02*
X85386000Y-25569000D01*
X71586000Y-11769000D02*
X85386000Y-11769000D01*
%TO.C,S1*%
X343315000Y-44746000D02*
X343315000Y-30946000D01*
X357115000Y-44746000D02*
X343315000Y-44746000D01*
X357115000Y-30946000D02*
X357115000Y-44746000D01*
X343315000Y-30946000D02*
X357115000Y-30946000D01*
%TO.C,SW48*%
X273674000Y-121296000D02*
X273674000Y-106796000D01*
X288174000Y-106796000D02*
X288174000Y-121296000D01*
X273674000Y-106796000D02*
X288174000Y-106796000D01*
X288174000Y-121296000D02*
X273674000Y-121296000D01*
%TD*%
M02*
