%TF.GenerationSoftware,KiCad,Pcbnew,(5.1.10)-1*%
%TF.CreationDate,2021-11-17T09:30:15-08:00*%
%TF.ProjectId,chgray-keyboard,63686772-6179-42d6-9b65-79626f617264,Yeet2*%
%TF.SameCoordinates,Original*%
%TF.FileFunction,Paste,Top*%
%TF.FilePolarity,Positive*%
%FSLAX46Y46*%
G04 Gerber Fmt 4.6, Leading zero omitted, Abs format (unit mm)*
G04 Created by KiCad (PCBNEW (5.1.10)-1) date 2021-11-17 09:30:15*
%MOMM*%
%LPD*%
G01*
G04 APERTURE LIST*
%ADD10R,0.500000X2.500000*%
%ADD11R,2.000000X2.500000*%
%ADD12R,1.000000X1.200000*%
%ADD13R,1.300000X5.500000*%
%ADD14R,1.300000X1.550000*%
%ADD15R,0.700000X0.700000*%
G04 APERTURE END LIST*
D10*
%TO.C,J2*%
X317992000Y-10231000D03*
X318792000Y-10231000D03*
X319592000Y-10231000D03*
X320392000Y-10231000D03*
X321192000Y-10231000D03*
D11*
X315192000Y-10231000D03*
X323992000Y-10231000D03*
X315192000Y-4731000D03*
X323992000Y-4731000D03*
%TD*%
D12*
%TO.C,D94*%
X119072000Y-47155600D03*
X115972000Y-47155600D03*
%TD*%
%TO.C,D93*%
X266144000Y-47155600D03*
X263044000Y-47155600D03*
%TD*%
%TO.C,D92*%
X255250000Y-47155600D03*
X252150000Y-47155600D03*
%TD*%
%TO.C,D91*%
X244356000Y-47155600D03*
X241256000Y-47155600D03*
%TD*%
%TO.C,D90*%
X228014000Y-47155600D03*
X224914000Y-47155600D03*
%TD*%
%TO.C,D89*%
X217120000Y-47155600D03*
X214020000Y-47155600D03*
%TD*%
%TO.C,D88*%
X200779000Y-47155600D03*
X197679000Y-47155600D03*
%TD*%
%TO.C,D87*%
X124519000Y-47155600D03*
X121419000Y-47155600D03*
%TD*%
%TO.C,D86*%
X168096000Y-47155600D03*
X164996000Y-47155600D03*
%TD*%
%TO.C,D85*%
X97283600Y-47155600D03*
X94183600Y-47155600D03*
%TD*%
%TO.C,D84*%
X129966000Y-47155600D03*
X126866000Y-47155600D03*
%TD*%
%TO.C,D83*%
X108178000Y-47155600D03*
X105078000Y-47155600D03*
%TD*%
%TO.C,D82*%
X140861000Y-47155600D03*
X137761000Y-47155600D03*
%TD*%
%TO.C,D81*%
X277038000Y-47155600D03*
X273938000Y-47155600D03*
%TD*%
%TO.C,D80*%
X180310000Y-85357200D03*
X177210000Y-85357200D03*
%TD*%
%TO.C,D79*%
X233461000Y-47155600D03*
X230361000Y-47155600D03*
%TD*%
%TO.C,D78*%
X151755000Y-47155600D03*
X148655000Y-47155600D03*
%TD*%
%TO.C,D77*%
X137906000Y-85357200D03*
X134806000Y-85357200D03*
%TD*%
%TO.C,D76*%
X260697000Y-47155600D03*
X257597000Y-47155600D03*
%TD*%
%TO.C,D75*%
X84900400Y-85357200D03*
X81800400Y-85357200D03*
%TD*%
%TO.C,D74*%
X206226000Y-47155600D03*
X203126000Y-47155600D03*
%TD*%
%TO.C,D73*%
X159108000Y-85357200D03*
X156008000Y-85357200D03*
%TD*%
%TO.C,D72*%
X249803000Y-47155600D03*
X246703000Y-47155600D03*
%TD*%
%TO.C,D71*%
X233315000Y-85357200D03*
X230215000Y-85357200D03*
%TD*%
%TO.C,D70*%
X189885000Y-47155600D03*
X186785000Y-47155600D03*
%TD*%
%TO.C,D69*%
X238909000Y-47155600D03*
X235809000Y-47155600D03*
%TD*%
%TO.C,D68*%
X222567000Y-47155600D03*
X219467000Y-47155600D03*
%TD*%
%TO.C,D67*%
X74299400Y-85357200D03*
X71199400Y-85357200D03*
%TD*%
%TO.C,D66*%
X366822000Y-104661000D03*
X363722000Y-104661000D03*
%TD*%
%TO.C,D65*%
X148507000Y-85357200D03*
X145407000Y-85357200D03*
%TD*%
%TO.C,D64*%
X175009000Y-85357200D03*
X171909000Y-85357200D03*
%TD*%
%TO.C,D63*%
X206812000Y-85357200D03*
X203712000Y-85357200D03*
%TD*%
%TO.C,D62*%
X127305000Y-85357200D03*
X124205000Y-85357200D03*
%TD*%
%TO.C,D61*%
X211673000Y-47155600D03*
X208573000Y-47155600D03*
%TD*%
%TO.C,D60*%
X345620000Y-104661000D03*
X342520000Y-104661000D03*
%TD*%
%TO.C,D59*%
X222714000Y-85357200D03*
X219614000Y-85357200D03*
%TD*%
%TO.C,D58*%
X356221000Y-104661000D03*
X353121000Y-104661000D03*
%TD*%
%TO.C,D57*%
X70048100Y-47155600D03*
X66948100Y-47155600D03*
%TD*%
%TO.C,D56*%
X195332000Y-47155600D03*
X192232000Y-47155600D03*
%TD*%
%TO.C,D55*%
X201512000Y-85357200D03*
X198412000Y-85357200D03*
%TD*%
%TO.C,D54*%
X212113000Y-85357200D03*
X209013000Y-85357200D03*
%TD*%
%TO.C,D53*%
X265118000Y-85357200D03*
X262018000Y-85357200D03*
%TD*%
%TO.C,D52*%
X48065900Y-47206400D03*
X44965900Y-47206400D03*
%TD*%
%TO.C,D51*%
X335019000Y-104661000D03*
X331919000Y-104661000D03*
%TD*%
%TO.C,D50*%
X265734000Y-66243200D03*
X262634000Y-66243200D03*
%TD*%
%TO.C,D49*%
X90200900Y-85357200D03*
X87100900Y-85357200D03*
%TD*%
%TO.C,D48*%
X95501500Y-85357200D03*
X92401500Y-85357200D03*
%TD*%
%TO.C,D47*%
X178990000Y-47155600D03*
X175890000Y-47155600D03*
%TD*%
%TO.C,D46*%
X86389400Y-47155600D03*
X83289400Y-47155600D03*
%TD*%
%TO.C,D45*%
X169709000Y-85357200D03*
X166609000Y-85357200D03*
%TD*%
%TO.C,D44*%
X106102000Y-85357200D03*
X103002000Y-85357200D03*
%TD*%
%TO.C,D43*%
X132605000Y-85357200D03*
X129505000Y-85357200D03*
%TD*%
%TO.C,D42*%
X162649000Y-47155600D03*
X159549000Y-47155600D03*
%TD*%
%TO.C,D41*%
X270418000Y-85357200D03*
X267318000Y-85357200D03*
%TD*%
%TO.C,D40*%
X116704000Y-85357200D03*
X113604000Y-85357200D03*
%TD*%
%TO.C,D39*%
X75495200Y-47155600D03*
X72395200Y-47155600D03*
%TD*%
%TO.C,D38*%
X329718000Y-104661000D03*
X326618000Y-104661000D03*
%TD*%
%TO.C,D37*%
X340319000Y-104661000D03*
X337219000Y-104661000D03*
%TD*%
%TO.C,D36*%
X153807000Y-85357200D03*
X150707000Y-85357200D03*
%TD*%
%TO.C,D35*%
X254517000Y-85357200D03*
X251417000Y-85357200D03*
%TD*%
%TO.C,D34*%
X53706700Y-47155600D03*
X50606700Y-47155600D03*
%TD*%
%TO.C,D33*%
X146308000Y-47155600D03*
X143208000Y-47155600D03*
%TD*%
%TO.C,D32*%
X350920000Y-104661000D03*
X347820000Y-104661000D03*
%TD*%
%TO.C,D31*%
X259817000Y-85357200D03*
X256717000Y-85357200D03*
%TD*%
%TO.C,D30*%
X190911000Y-85357200D03*
X187811000Y-85357200D03*
%TD*%
%TO.C,D29*%
X372122000Y-104661000D03*
X369022000Y-104661000D03*
%TD*%
%TO.C,D28*%
X102731000Y-47155600D03*
X99631000Y-47155600D03*
%TD*%
%TO.C,D27*%
X228014000Y-85357200D03*
X224914000Y-85357200D03*
%TD*%
%TO.C,D26*%
X80942300Y-47155600D03*
X77842300Y-47155600D03*
%TD*%
%TO.C,D25*%
X243916000Y-85357200D03*
X240816000Y-85357200D03*
%TD*%
%TO.C,D24*%
X238615000Y-85357200D03*
X235515000Y-85357200D03*
%TD*%
%TO.C,D23*%
X217413000Y-85357200D03*
X214313000Y-85357200D03*
%TD*%
%TO.C,D22*%
X164408000Y-85357200D03*
X161308000Y-85357200D03*
%TD*%
%TO.C,D21*%
X91836500Y-47155600D03*
X88736500Y-47155600D03*
%TD*%
%TO.C,D20*%
X361521000Y-104661000D03*
X358421000Y-104661000D03*
%TD*%
%TO.C,D19*%
X157202000Y-47155600D03*
X154102000Y-47155600D03*
%TD*%
%TO.C,D18*%
X184437000Y-47155600D03*
X181337000Y-47155600D03*
%TD*%
%TO.C,D17*%
X143206000Y-85357200D03*
X140106000Y-85357200D03*
%TD*%
%TO.C,D16*%
X37464800Y-47206400D03*
X34364800Y-47206400D03*
%TD*%
%TO.C,D15*%
X185610000Y-85357200D03*
X182510000Y-85357200D03*
%TD*%
%TO.C,D14*%
X135413000Y-47155600D03*
X132313000Y-47155600D03*
%TD*%
%TO.C,D13*%
X173543000Y-47155600D03*
X170443000Y-47155600D03*
%TD*%
%TO.C,D12*%
X122004000Y-85357200D03*
X118904000Y-85357200D03*
%TD*%
%TO.C,D11*%
X42765400Y-47206400D03*
X39665400Y-47206400D03*
%TD*%
%TO.C,D10*%
X196211000Y-85357200D03*
X193111000Y-85357200D03*
%TD*%
%TO.C,D9*%
X111403000Y-85357200D03*
X108303000Y-85357200D03*
%TD*%
%TO.C,D8*%
X249216000Y-85357200D03*
X246116000Y-85357200D03*
%TD*%
%TO.C,D7*%
X64601000Y-47155600D03*
X61501000Y-47155600D03*
%TD*%
%TO.C,D6*%
X79599900Y-85357200D03*
X76499900Y-85357200D03*
%TD*%
%TO.C,D5*%
X113625000Y-47155600D03*
X110525000Y-47155600D03*
%TD*%
%TO.C,D4*%
X59153800Y-47155600D03*
X56053800Y-47155600D03*
%TD*%
%TO.C,D3*%
X100802000Y-85357200D03*
X97702000Y-85357200D03*
%TD*%
%TO.C,D2*%
X271591000Y-47155600D03*
X268491000Y-47155600D03*
%TD*%
%TO.C,D1*%
X271552000Y-66243200D03*
X268452000Y-66243200D03*
%TD*%
D13*
%TO.C,Y1-16hz1*%
X319278000Y-30933000D03*
X319278000Y-39933000D03*
%TD*%
D14*
%TO.C,SW_RESET1*%
X319308000Y-75825000D03*
X319278000Y-67935000D03*
%TD*%
%TO.C,R4*%
G36*
G01*
X315966001Y-54853000D02*
X314715999Y-54853000D01*
G75*
G02*
X314466000Y-54603001I0J249999D01*
G01*
X314466000Y-53977999D01*
G75*
G02*
X314715999Y-53728000I249999J0D01*
G01*
X315966001Y-53728000D01*
G75*
G02*
X316216000Y-53977999I0J-249999D01*
G01*
X316216000Y-54603001D01*
G75*
G02*
X315966001Y-54853000I-249999J0D01*
G01*
G37*
G36*
G01*
X315966001Y-57778000D02*
X314715999Y-57778000D01*
G75*
G02*
X314466000Y-57528001I0J249999D01*
G01*
X314466000Y-56902999D01*
G75*
G02*
X314715999Y-56653000I249999J0D01*
G01*
X315966001Y-56653000D01*
G75*
G02*
X316216000Y-56902999I0J-249999D01*
G01*
X316216000Y-57528001D01*
G75*
G02*
X315966001Y-57778000I-249999J0D01*
G01*
G37*
%TD*%
%TO.C,R3*%
G36*
G01*
X315918001Y-69680500D02*
X315017999Y-69680500D01*
G75*
G02*
X314768000Y-69430501I0J249999D01*
G01*
X314768000Y-68905499D01*
G75*
G02*
X315017999Y-68655500I249999J0D01*
G01*
X315918001Y-68655500D01*
G75*
G02*
X316168000Y-68905499I0J-249999D01*
G01*
X316168000Y-69430501D01*
G75*
G02*
X315918001Y-69680500I-249999J0D01*
G01*
G37*
G36*
G01*
X315918001Y-71505500D02*
X315017999Y-71505500D01*
G75*
G02*
X314768000Y-71255501I0J249999D01*
G01*
X314768000Y-70730499D01*
G75*
G02*
X315017999Y-70480500I249999J0D01*
G01*
X315918001Y-70480500D01*
G75*
G02*
X316168000Y-70730499I0J-249999D01*
G01*
X316168000Y-71255501D01*
G75*
G02*
X315918001Y-71505500I-249999J0D01*
G01*
G37*
%TD*%
%TO.C,R2*%
G36*
G01*
X315918001Y-59393500D02*
X315017999Y-59393500D01*
G75*
G02*
X314768000Y-59143501I0J249999D01*
G01*
X314768000Y-58618499D01*
G75*
G02*
X315017999Y-58368500I249999J0D01*
G01*
X315918001Y-58368500D01*
G75*
G02*
X316168000Y-58618499I0J-249999D01*
G01*
X316168000Y-59143501D01*
G75*
G02*
X315918001Y-59393500I-249999J0D01*
G01*
G37*
G36*
G01*
X315918001Y-61218500D02*
X315017999Y-61218500D01*
G75*
G02*
X314768000Y-60968501I0J249999D01*
G01*
X314768000Y-60443499D01*
G75*
G02*
X315017999Y-60193500I249999J0D01*
G01*
X315918001Y-60193500D01*
G75*
G02*
X316168000Y-60443499I0J-249999D01*
G01*
X316168000Y-60968501D01*
G75*
G02*
X315918001Y-61218500I-249999J0D01*
G01*
G37*
%TD*%
%TO.C,R1*%
G36*
G01*
X315966001Y-50281000D02*
X314715999Y-50281000D01*
G75*
G02*
X314466000Y-50031001I0J249999D01*
G01*
X314466000Y-49405999D01*
G75*
G02*
X314715999Y-49156000I249999J0D01*
G01*
X315966001Y-49156000D01*
G75*
G02*
X316216000Y-49405999I0J-249999D01*
G01*
X316216000Y-50031001D01*
G75*
G02*
X315966001Y-50281000I-249999J0D01*
G01*
G37*
G36*
G01*
X315966001Y-53206000D02*
X314715999Y-53206000D01*
G75*
G02*
X314466000Y-52956001I0J249999D01*
G01*
X314466000Y-52330999D01*
G75*
G02*
X314715999Y-52081000I249999J0D01*
G01*
X315966001Y-52081000D01*
G75*
G02*
X316216000Y-52330999I0J-249999D01*
G01*
X316216000Y-52956001D01*
G75*
G02*
X315966001Y-53206000I-249999J0D01*
G01*
G37*
%TD*%
%TO.C,C109*%
G36*
G01*
X318966000Y-15842000D02*
X318966000Y-14892000D01*
G75*
G02*
X319216000Y-14642000I250000J0D01*
G01*
X319716000Y-14642000D01*
G75*
G02*
X319966000Y-14892000I0J-250000D01*
G01*
X319966000Y-15842000D01*
G75*
G02*
X319716000Y-16092000I-250000J0D01*
G01*
X319216000Y-16092000D01*
G75*
G02*
X318966000Y-15842000I0J250000D01*
G01*
G37*
G36*
G01*
X317066000Y-15842000D02*
X317066000Y-14892000D01*
G75*
G02*
X317316000Y-14642000I250000J0D01*
G01*
X317816000Y-14642000D01*
G75*
G02*
X318066000Y-14892000I0J-250000D01*
G01*
X318066000Y-15842000D01*
G75*
G02*
X317816000Y-16092000I-250000J0D01*
G01*
X317316000Y-16092000D01*
G75*
G02*
X317066000Y-15842000I0J250000D01*
G01*
G37*
%TD*%
%TO.C,C108*%
G36*
G01*
X322486000Y-35690000D02*
X323436000Y-35690000D01*
G75*
G02*
X323686000Y-35940000I0J-250000D01*
G01*
X323686000Y-36440000D01*
G75*
G02*
X323436000Y-36690000I-250000J0D01*
G01*
X322486000Y-36690000D01*
G75*
G02*
X322236000Y-36440000I0J250000D01*
G01*
X322236000Y-35940000D01*
G75*
G02*
X322486000Y-35690000I250000J0D01*
G01*
G37*
G36*
G01*
X322486000Y-33790000D02*
X323436000Y-33790000D01*
G75*
G02*
X323686000Y-34040000I0J-250000D01*
G01*
X323686000Y-34540000D01*
G75*
G02*
X323436000Y-34790000I-250000J0D01*
G01*
X322486000Y-34790000D01*
G75*
G02*
X322236000Y-34540000I0J250000D01*
G01*
X322236000Y-34040000D01*
G75*
G02*
X322486000Y-33790000I250000J0D01*
G01*
G37*
%TD*%
%TO.C,C107*%
G36*
G01*
X315816000Y-34668000D02*
X314866000Y-34668000D01*
G75*
G02*
X314616000Y-34418000I0J250000D01*
G01*
X314616000Y-33918000D01*
G75*
G02*
X314866000Y-33668000I250000J0D01*
G01*
X315816000Y-33668000D01*
G75*
G02*
X316066000Y-33918000I0J-250000D01*
G01*
X316066000Y-34418000D01*
G75*
G02*
X315816000Y-34668000I-250000J0D01*
G01*
G37*
G36*
G01*
X315816000Y-36568000D02*
X314866000Y-36568000D01*
G75*
G02*
X314616000Y-36318000I0J250000D01*
G01*
X314616000Y-35818000D01*
G75*
G02*
X314866000Y-35568000I250000J0D01*
G01*
X315816000Y-35568000D01*
G75*
G02*
X316066000Y-35818000I0J-250000D01*
G01*
X316066000Y-36318000D01*
G75*
G02*
X315816000Y-36568000I-250000J0D01*
G01*
G37*
%TD*%
%TO.C,C106*%
G36*
G01*
X318773000Y-19779000D02*
X318773000Y-18829000D01*
G75*
G02*
X319023000Y-18579000I250000J0D01*
G01*
X319523000Y-18579000D01*
G75*
G02*
X319773000Y-18829000I0J-250000D01*
G01*
X319773000Y-19779000D01*
G75*
G02*
X319523000Y-20029000I-250000J0D01*
G01*
X319023000Y-20029000D01*
G75*
G02*
X318773000Y-19779000I0J250000D01*
G01*
G37*
G36*
G01*
X316873000Y-19779000D02*
X316873000Y-18829000D01*
G75*
G02*
X317123000Y-18579000I250000J0D01*
G01*
X317623000Y-18579000D01*
G75*
G02*
X317873000Y-18829000I0J-250000D01*
G01*
X317873000Y-19779000D01*
G75*
G02*
X317623000Y-20029000I-250000J0D01*
G01*
X317123000Y-20029000D01*
G75*
G02*
X316873000Y-19779000I0J250000D01*
G01*
G37*
%TD*%
%TO.C,C105*%
G36*
G01*
X318549000Y-22868000D02*
X319499000Y-22868000D01*
G75*
G02*
X319749000Y-23118000I0J-250000D01*
G01*
X319749000Y-23618000D01*
G75*
G02*
X319499000Y-23868000I-250000J0D01*
G01*
X318549000Y-23868000D01*
G75*
G02*
X318299000Y-23618000I0J250000D01*
G01*
X318299000Y-23118000D01*
G75*
G02*
X318549000Y-22868000I250000J0D01*
G01*
G37*
G36*
G01*
X318549000Y-20968000D02*
X319499000Y-20968000D01*
G75*
G02*
X319749000Y-21218000I0J-250000D01*
G01*
X319749000Y-21718000D01*
G75*
G02*
X319499000Y-21968000I-250000J0D01*
G01*
X318549000Y-21968000D01*
G75*
G02*
X318299000Y-21718000I0J250000D01*
G01*
X318299000Y-21218000D01*
G75*
G02*
X318549000Y-20968000I250000J0D01*
G01*
G37*
%TD*%
%TO.C,C104*%
G36*
G01*
X319656000Y-26449000D02*
X319656000Y-27399000D01*
G75*
G02*
X319406000Y-27649000I-250000J0D01*
G01*
X318906000Y-27649000D01*
G75*
G02*
X318656000Y-27399000I0J250000D01*
G01*
X318656000Y-26449000D01*
G75*
G02*
X318906000Y-26199000I250000J0D01*
G01*
X319406000Y-26199000D01*
G75*
G02*
X319656000Y-26449000I0J-250000D01*
G01*
G37*
G36*
G01*
X321556000Y-26449000D02*
X321556000Y-27399000D01*
G75*
G02*
X321306000Y-27649000I-250000J0D01*
G01*
X320806000Y-27649000D01*
G75*
G02*
X320556000Y-27399000I0J250000D01*
G01*
X320556000Y-26449000D01*
G75*
G02*
X320806000Y-26199000I250000J0D01*
G01*
X321306000Y-26199000D01*
G75*
G02*
X321556000Y-26449000I0J-250000D01*
G01*
G37*
%TD*%
%TO.C,C103*%
G36*
G01*
X316136000Y-23244000D02*
X317086000Y-23244000D01*
G75*
G02*
X317336000Y-23494000I0J-250000D01*
G01*
X317336000Y-23994000D01*
G75*
G02*
X317086000Y-24244000I-250000J0D01*
G01*
X316136000Y-24244000D01*
G75*
G02*
X315886000Y-23994000I0J250000D01*
G01*
X315886000Y-23494000D01*
G75*
G02*
X316136000Y-23244000I250000J0D01*
G01*
G37*
G36*
G01*
X316136000Y-21344000D02*
X317086000Y-21344000D01*
G75*
G02*
X317336000Y-21594000I0J-250000D01*
G01*
X317336000Y-22094000D01*
G75*
G02*
X317086000Y-22344000I-250000J0D01*
G01*
X316136000Y-22344000D01*
G75*
G02*
X315886000Y-22094000I0J250000D01*
G01*
X315886000Y-21594000D01*
G75*
G02*
X316136000Y-21344000I250000J0D01*
G01*
G37*
%TD*%
%TO.C,C102*%
G36*
G01*
X317086000Y-25900000D02*
X316136000Y-25900000D01*
G75*
G02*
X315886000Y-25650000I0J250000D01*
G01*
X315886000Y-25150000D01*
G75*
G02*
X316136000Y-24900000I250000J0D01*
G01*
X317086000Y-24900000D01*
G75*
G02*
X317336000Y-25150000I0J-250000D01*
G01*
X317336000Y-25650000D01*
G75*
G02*
X317086000Y-25900000I-250000J0D01*
G01*
G37*
G36*
G01*
X317086000Y-27800000D02*
X316136000Y-27800000D01*
G75*
G02*
X315886000Y-27550000I0J250000D01*
G01*
X315886000Y-27050000D01*
G75*
G02*
X316136000Y-26800000I250000J0D01*
G01*
X317086000Y-26800000D01*
G75*
G02*
X317336000Y-27050000I0J-250000D01*
G01*
X317336000Y-27550000D01*
G75*
G02*
X317086000Y-27800000I-250000J0D01*
G01*
G37*
%TD*%
D15*
%TO.C,D179*%
X163018000Y-119033000D03*
X163018000Y-120133000D03*
X161188000Y-120133000D03*
X161188000Y-119033000D03*
%TD*%
%TO.C,C85*%
G36*
G01*
X320222000Y-59177900D02*
X320222000Y-59517900D01*
G75*
G02*
X320082000Y-59657900I-140000J0D01*
G01*
X319802000Y-59657900D01*
G75*
G02*
X319662000Y-59517900I0J140000D01*
G01*
X319662000Y-59177900D01*
G75*
G02*
X319802000Y-59037900I140000J0D01*
G01*
X320082000Y-59037900D01*
G75*
G02*
X320222000Y-59177900I0J-140000D01*
G01*
G37*
G36*
G01*
X321182000Y-59177900D02*
X321182000Y-59517900D01*
G75*
G02*
X321042000Y-59657900I-140000J0D01*
G01*
X320762000Y-59657900D01*
G75*
G02*
X320622000Y-59517900I0J140000D01*
G01*
X320622000Y-59177900D01*
G75*
G02*
X320762000Y-59037900I140000J0D01*
G01*
X321042000Y-59037900D01*
G75*
G02*
X321182000Y-59177900I0J-140000D01*
G01*
G37*
%TD*%
%TO.C,D174*%
X180188000Y-118669000D03*
X180188000Y-119769000D03*
X178358000Y-119769000D03*
X178358000Y-118669000D03*
%TD*%
%TO.C,D169*%
X141631000Y-118830000D03*
X141631000Y-119930000D03*
X139801000Y-119930000D03*
X139801000Y-118830000D03*
%TD*%
%TO.C,D164*%
X197460000Y-118474000D03*
X197460000Y-119574000D03*
X195630000Y-119574000D03*
X195630000Y-118474000D03*
%TD*%
%TO.C,D159*%
X121057000Y-118830000D03*
X121057000Y-119930000D03*
X119227000Y-119930000D03*
X119227000Y-118830000D03*
%TD*%
%TO.C,C80*%
G36*
G01*
X317682000Y-43826800D02*
X317682000Y-44166800D01*
G75*
G02*
X317542000Y-44306800I-140000J0D01*
G01*
X317262000Y-44306800D01*
G75*
G02*
X317122000Y-44166800I0J140000D01*
G01*
X317122000Y-43826800D01*
G75*
G02*
X317262000Y-43686800I140000J0D01*
G01*
X317542000Y-43686800D01*
G75*
G02*
X317682000Y-43826800I0J-140000D01*
G01*
G37*
G36*
G01*
X318642000Y-43826800D02*
X318642000Y-44166800D01*
G75*
G02*
X318502000Y-44306800I-140000J0D01*
G01*
X318222000Y-44306800D01*
G75*
G02*
X318082000Y-44166800I0J140000D01*
G01*
X318082000Y-43826800D01*
G75*
G02*
X318222000Y-43686800I140000J0D01*
G01*
X318502000Y-43686800D01*
G75*
G02*
X318642000Y-43826800I0J-140000D01*
G01*
G37*
%TD*%
%TO.C,C75*%
G36*
G01*
X317682000Y-78565400D02*
X317682000Y-78905400D01*
G75*
G02*
X317542000Y-79045400I-140000J0D01*
G01*
X317262000Y-79045400D01*
G75*
G02*
X317122000Y-78905400I0J140000D01*
G01*
X317122000Y-78565400D01*
G75*
G02*
X317262000Y-78425400I140000J0D01*
G01*
X317542000Y-78425400D01*
G75*
G02*
X317682000Y-78565400I0J-140000D01*
G01*
G37*
G36*
G01*
X318642000Y-78565400D02*
X318642000Y-78905400D01*
G75*
G02*
X318502000Y-79045400I-140000J0D01*
G01*
X318222000Y-79045400D01*
G75*
G02*
X318082000Y-78905400I0J140000D01*
G01*
X318082000Y-78565400D01*
G75*
G02*
X318222000Y-78425400I140000J0D01*
G01*
X318502000Y-78425400D01*
G75*
G02*
X318642000Y-78565400I0J-140000D01*
G01*
G37*
%TD*%
%TO.C,C70*%
G36*
G01*
X317682000Y-65286700D02*
X317682000Y-65626700D01*
G75*
G02*
X317542000Y-65766700I-140000J0D01*
G01*
X317262000Y-65766700D01*
G75*
G02*
X317122000Y-65626700I0J140000D01*
G01*
X317122000Y-65286700D01*
G75*
G02*
X317262000Y-65146700I140000J0D01*
G01*
X317542000Y-65146700D01*
G75*
G02*
X317682000Y-65286700I0J-140000D01*
G01*
G37*
G36*
G01*
X318642000Y-65286700D02*
X318642000Y-65626700D01*
G75*
G02*
X318502000Y-65766700I-140000J0D01*
G01*
X318222000Y-65766700D01*
G75*
G02*
X318082000Y-65626700I0J140000D01*
G01*
X318082000Y-65286700D01*
G75*
G02*
X318222000Y-65146700I140000J0D01*
G01*
X318502000Y-65146700D01*
G75*
G02*
X318642000Y-65286700I0J-140000D01*
G01*
G37*
%TD*%
%TO.C,C65*%
G36*
G01*
X317682000Y-97845300D02*
X317682000Y-98185300D01*
G75*
G02*
X317542000Y-98325300I-140000J0D01*
G01*
X317262000Y-98325300D01*
G75*
G02*
X317122000Y-98185300I0J140000D01*
G01*
X317122000Y-97845300D01*
G75*
G02*
X317262000Y-97705300I140000J0D01*
G01*
X317542000Y-97705300D01*
G75*
G02*
X317682000Y-97845300I0J-140000D01*
G01*
G37*
G36*
G01*
X318642000Y-97845300D02*
X318642000Y-98185300D01*
G75*
G02*
X318502000Y-98325300I-140000J0D01*
G01*
X318222000Y-98325300D01*
G75*
G02*
X318082000Y-98185300I0J140000D01*
G01*
X318082000Y-97845300D01*
G75*
G02*
X318222000Y-97705300I140000J0D01*
G01*
X318502000Y-97705300D01*
G75*
G02*
X318642000Y-97845300I0J-140000D01*
G01*
G37*
%TD*%
%TO.C,D154*%
X370079000Y-23732400D03*
X370079000Y-24832400D03*
X368249000Y-24832400D03*
X368249000Y-23732400D03*
%TD*%
%TO.C,C60*%
G36*
G01*
X317682000Y-91414900D02*
X317682000Y-91754900D01*
G75*
G02*
X317542000Y-91894900I-140000J0D01*
G01*
X317262000Y-91894900D01*
G75*
G02*
X317122000Y-91754900I0J140000D01*
G01*
X317122000Y-91414900D01*
G75*
G02*
X317262000Y-91274900I140000J0D01*
G01*
X317542000Y-91274900D01*
G75*
G02*
X317682000Y-91414900I0J-140000D01*
G01*
G37*
G36*
G01*
X318642000Y-91414900D02*
X318642000Y-91754900D01*
G75*
G02*
X318502000Y-91894900I-140000J0D01*
G01*
X318222000Y-91894900D01*
G75*
G02*
X318082000Y-91754900I0J140000D01*
G01*
X318082000Y-91414900D01*
G75*
G02*
X318222000Y-91274900I140000J0D01*
G01*
X318502000Y-91274900D01*
G75*
G02*
X318642000Y-91414900I0J-140000D01*
G01*
G37*
%TD*%
%TO.C,D149*%
X351182000Y-23690400D03*
X351182000Y-24790400D03*
X349352000Y-24790400D03*
X349352000Y-23690400D03*
%TD*%
%TO.C,D144*%
X269902000Y-23690400D03*
X269902000Y-24790400D03*
X268072000Y-24790400D03*
X268072000Y-23690400D03*
%TD*%
%TO.C,D139*%
X332081000Y-23690400D03*
X332081000Y-24790400D03*
X330251000Y-24790400D03*
X330251000Y-23690400D03*
%TD*%
%TO.C,D134*%
X288952000Y-23690400D03*
X288952000Y-24790400D03*
X287122000Y-24790400D03*
X287122000Y-23690400D03*
%TD*%
%TO.C,D129*%
X212752000Y-23741200D03*
X212752000Y-24841200D03*
X210922000Y-24841200D03*
X210922000Y-23741200D03*
%TD*%
%TO.C,D124*%
X308154000Y-23639600D03*
X308154000Y-24739600D03*
X306324000Y-24739600D03*
X306324000Y-23639600D03*
%TD*%
%TO.C,D119*%
X231802000Y-23639600D03*
X231802000Y-24739600D03*
X229972000Y-24739600D03*
X229972000Y-23639600D03*
%TD*%
%TO.C,D114*%
X250902000Y-23672800D03*
X250902000Y-24772800D03*
X249072000Y-24772800D03*
X249072000Y-23672800D03*
%TD*%
%TO.C,C55*%
G36*
G01*
X317682000Y-85008600D02*
X317682000Y-85348600D01*
G75*
G02*
X317542000Y-85488600I-140000J0D01*
G01*
X317262000Y-85488600D01*
G75*
G02*
X317122000Y-85348600I0J140000D01*
G01*
X317122000Y-85008600D01*
G75*
G02*
X317262000Y-84868600I140000J0D01*
G01*
X317542000Y-84868600D01*
G75*
G02*
X317682000Y-85008600I0J-140000D01*
G01*
G37*
G36*
G01*
X318642000Y-85008600D02*
X318642000Y-85348600D01*
G75*
G02*
X318502000Y-85488600I-140000J0D01*
G01*
X318222000Y-85488600D01*
G75*
G02*
X318082000Y-85348600I0J140000D01*
G01*
X318082000Y-85008600D01*
G75*
G02*
X318222000Y-84868600I140000J0D01*
G01*
X318502000Y-84868600D01*
G75*
G02*
X318642000Y-85008600I0J-140000D01*
G01*
G37*
%TD*%
%TO.C,C50*%
G36*
G01*
X320222000Y-55956300D02*
X320222000Y-56296300D01*
G75*
G02*
X320082000Y-56436300I-140000J0D01*
G01*
X319802000Y-56436300D01*
G75*
G02*
X319662000Y-56296300I0J140000D01*
G01*
X319662000Y-55956300D01*
G75*
G02*
X319802000Y-55816300I140000J0D01*
G01*
X320082000Y-55816300D01*
G75*
G02*
X320222000Y-55956300I0J-140000D01*
G01*
G37*
G36*
G01*
X321182000Y-55956300D02*
X321182000Y-56296300D01*
G75*
G02*
X321042000Y-56436300I-140000J0D01*
G01*
X320762000Y-56436300D01*
G75*
G02*
X320622000Y-56296300I0J140000D01*
G01*
X320622000Y-55956300D01*
G75*
G02*
X320762000Y-55816300I140000J0D01*
G01*
X321042000Y-55816300D01*
G75*
G02*
X321182000Y-55956300I0J-140000D01*
G01*
G37*
%TD*%
%TO.C,C45*%
G36*
G01*
X320222000Y-62399500D02*
X320222000Y-62739500D01*
G75*
G02*
X320082000Y-62879500I-140000J0D01*
G01*
X319802000Y-62879500D01*
G75*
G02*
X319662000Y-62739500I0J140000D01*
G01*
X319662000Y-62399500D01*
G75*
G02*
X319802000Y-62259500I140000J0D01*
G01*
X320082000Y-62259500D01*
G75*
G02*
X320222000Y-62399500I0J-140000D01*
G01*
G37*
G36*
G01*
X321182000Y-62399500D02*
X321182000Y-62739500D01*
G75*
G02*
X321042000Y-62879500I-140000J0D01*
G01*
X320762000Y-62879500D01*
G75*
G02*
X320622000Y-62739500I0J140000D01*
G01*
X320622000Y-62399500D01*
G75*
G02*
X320762000Y-62259500I140000J0D01*
G01*
X321042000Y-62259500D01*
G75*
G02*
X321182000Y-62399500I0J-140000D01*
G01*
G37*
%TD*%
%TO.C,C40*%
G36*
G01*
X317682000Y-81787000D02*
X317682000Y-82127000D01*
G75*
G02*
X317542000Y-82267000I-140000J0D01*
G01*
X317262000Y-82267000D01*
G75*
G02*
X317122000Y-82127000I0J140000D01*
G01*
X317122000Y-81787000D01*
G75*
G02*
X317262000Y-81647000I140000J0D01*
G01*
X317542000Y-81647000D01*
G75*
G02*
X317682000Y-81787000I0J-140000D01*
G01*
G37*
G36*
G01*
X318642000Y-81787000D02*
X318642000Y-82127000D01*
G75*
G02*
X318502000Y-82267000I-140000J0D01*
G01*
X318222000Y-82267000D01*
G75*
G02*
X318082000Y-82127000I0J140000D01*
G01*
X318082000Y-81787000D01*
G75*
G02*
X318222000Y-81647000I140000J0D01*
G01*
X318502000Y-81647000D01*
G75*
G02*
X318642000Y-81787000I0J-140000D01*
G01*
G37*
%TD*%
%TO.C,C35*%
G36*
G01*
X317682000Y-51321300D02*
X317682000Y-51661300D01*
G75*
G02*
X317542000Y-51801300I-140000J0D01*
G01*
X317262000Y-51801300D01*
G75*
G02*
X317122000Y-51661300I0J140000D01*
G01*
X317122000Y-51321300D01*
G75*
G02*
X317262000Y-51181300I140000J0D01*
G01*
X317542000Y-51181300D01*
G75*
G02*
X317682000Y-51321300I0J-140000D01*
G01*
G37*
G36*
G01*
X318642000Y-51321300D02*
X318642000Y-51661300D01*
G75*
G02*
X318502000Y-51801300I-140000J0D01*
G01*
X318222000Y-51801300D01*
G75*
G02*
X318082000Y-51661300I0J140000D01*
G01*
X318082000Y-51321300D01*
G75*
G02*
X318222000Y-51181300I140000J0D01*
G01*
X318502000Y-51181300D01*
G75*
G02*
X318642000Y-51321300I0J-140000D01*
G01*
G37*
%TD*%
%TO.C,C30*%
G36*
G01*
X317682000Y-53469000D02*
X317682000Y-53809000D01*
G75*
G02*
X317542000Y-53949000I-140000J0D01*
G01*
X317262000Y-53949000D01*
G75*
G02*
X317122000Y-53809000I0J140000D01*
G01*
X317122000Y-53469000D01*
G75*
G02*
X317262000Y-53329000I140000J0D01*
G01*
X317542000Y-53329000D01*
G75*
G02*
X317682000Y-53469000I0J-140000D01*
G01*
G37*
G36*
G01*
X318642000Y-53469000D02*
X318642000Y-53809000D01*
G75*
G02*
X318502000Y-53949000I-140000J0D01*
G01*
X318222000Y-53949000D01*
G75*
G02*
X318082000Y-53809000I0J140000D01*
G01*
X318082000Y-53469000D01*
G75*
G02*
X318222000Y-53329000I140000J0D01*
G01*
X318502000Y-53329000D01*
G75*
G02*
X318642000Y-53469000I0J-140000D01*
G01*
G37*
%TD*%
%TO.C,C25*%
G36*
G01*
X317682000Y-88230200D02*
X317682000Y-88570200D01*
G75*
G02*
X317542000Y-88710200I-140000J0D01*
G01*
X317262000Y-88710200D01*
G75*
G02*
X317122000Y-88570200I0J140000D01*
G01*
X317122000Y-88230200D01*
G75*
G02*
X317262000Y-88090200I140000J0D01*
G01*
X317542000Y-88090200D01*
G75*
G02*
X317682000Y-88230200I0J-140000D01*
G01*
G37*
G36*
G01*
X318642000Y-88230200D02*
X318642000Y-88570200D01*
G75*
G02*
X318502000Y-88710200I-140000J0D01*
G01*
X318222000Y-88710200D01*
G75*
G02*
X318082000Y-88570200I0J140000D01*
G01*
X318082000Y-88230200D01*
G75*
G02*
X318222000Y-88090200I140000J0D01*
G01*
X318502000Y-88090200D01*
G75*
G02*
X318642000Y-88230200I0J-140000D01*
G01*
G37*
%TD*%
%TO.C,C20*%
G36*
G01*
X320222000Y-65621100D02*
X320222000Y-65961100D01*
G75*
G02*
X320082000Y-66101100I-140000J0D01*
G01*
X319802000Y-66101100D01*
G75*
G02*
X319662000Y-65961100I0J140000D01*
G01*
X319662000Y-65621100D01*
G75*
G02*
X319802000Y-65481100I140000J0D01*
G01*
X320082000Y-65481100D01*
G75*
G02*
X320222000Y-65621100I0J-140000D01*
G01*
G37*
G36*
G01*
X321182000Y-65621100D02*
X321182000Y-65961100D01*
G75*
G02*
X321042000Y-66101100I-140000J0D01*
G01*
X320762000Y-66101100D01*
G75*
G02*
X320622000Y-65961100I0J140000D01*
G01*
X320622000Y-65621100D01*
G75*
G02*
X320762000Y-65481100I140000J0D01*
G01*
X321042000Y-65481100D01*
G75*
G02*
X321182000Y-65621100I0J-140000D01*
G01*
G37*
%TD*%
%TO.C,D195*%
X332030000Y-61790400D03*
X332030000Y-62890400D03*
X330200000Y-62890400D03*
X330200000Y-61790400D03*
%TD*%
%TO.C,D193*%
X351131000Y-119042000D03*
X351131000Y-120142000D03*
X349301000Y-120142000D03*
X349301000Y-119042000D03*
%TD*%
%TO.C,D192*%
X197764000Y-99890000D03*
X197764000Y-100990000D03*
X195934000Y-100990000D03*
X195934000Y-99890000D03*
%TD*%
%TO.C,D191*%
X150737000Y-80857000D03*
X150737000Y-81957000D03*
X148907000Y-81957000D03*
X148907000Y-80857000D03*
%TD*%
%TO.C,D190*%
X351182000Y-61790400D03*
X351182000Y-62890400D03*
X349352000Y-62890400D03*
X349352000Y-61790400D03*
%TD*%
%TO.C,D188*%
X332081000Y-119144000D03*
X332081000Y-120244000D03*
X330251000Y-120244000D03*
X330251000Y-119144000D03*
%TD*%
%TO.C,D187*%
X216916000Y-99890000D03*
X216916000Y-100990000D03*
X215086000Y-100990000D03*
X215086000Y-99890000D03*
%TD*%
%TO.C,D186*%
X131915000Y-80857000D03*
X131915000Y-81957000D03*
X130085000Y-81957000D03*
X130085000Y-80857000D03*
%TD*%
%TO.C,D185*%
X370079000Y-61841200D03*
X370079000Y-62941200D03*
X368249000Y-62941200D03*
X368249000Y-61841200D03*
%TD*%
%TO.C,D183*%
X305664000Y-119042000D03*
X305664000Y-120142000D03*
X303834000Y-120142000D03*
X303834000Y-119042000D03*
%TD*%
%TO.C,D182*%
X235967000Y-99882000D03*
X235967000Y-100982000D03*
X234137000Y-100982000D03*
X234137000Y-99882000D03*
%TD*%
%TO.C,D181*%
X112841000Y-80832000D03*
X112841000Y-81932000D03*
X111011000Y-81932000D03*
X111011000Y-80832000D03*
%TD*%
%TO.C,D180*%
X60402400Y-23741200D03*
X60402400Y-24841200D03*
X58572400Y-24841200D03*
X58572400Y-23741200D03*
%TD*%
%TO.C,D178*%
X281840000Y-119042000D03*
X281840000Y-120142000D03*
X280010000Y-120142000D03*
X280010000Y-119042000D03*
%TD*%
%TO.C,D177*%
X255168000Y-99941000D03*
X255168000Y-101041000D03*
X253338000Y-101041000D03*
X253338000Y-99941000D03*
%TD*%
%TO.C,D176*%
X93815500Y-80857000D03*
X93815500Y-81957000D03*
X91985500Y-81957000D03*
X91985500Y-80857000D03*
%TD*%
%TO.C,D175*%
X41301000Y-23681600D03*
X41301000Y-24781600D03*
X39471000Y-24781600D03*
X39471000Y-23681600D03*
%TD*%
%TO.C,D173*%
X258014000Y-119093000D03*
X258014000Y-120193000D03*
X256184000Y-120193000D03*
X256184000Y-119093000D03*
%TD*%
%TO.C,D172*%
X291238000Y-100025000D03*
X291238000Y-101125000D03*
X289408000Y-101125000D03*
X289408000Y-100025000D03*
%TD*%
%TO.C,D171*%
X74765500Y-80857000D03*
X74765500Y-81957000D03*
X72935500Y-81957000D03*
X72935500Y-80857000D03*
%TD*%
%TO.C,D170*%
X370028000Y-42926000D03*
X370028000Y-44026000D03*
X368198000Y-44026000D03*
X368198000Y-42926000D03*
%TD*%
%TO.C,D168*%
X234036000Y-119093000D03*
X234036000Y-120193000D03*
X232206000Y-120193000D03*
X232206000Y-119093000D03*
%TD*%
%TO.C,D167*%
X332157000Y-99949000D03*
X332157000Y-101049000D03*
X330327000Y-101049000D03*
X330327000Y-99949000D03*
%TD*%
%TO.C,D166*%
X48564800Y-80857000D03*
X48564800Y-81957000D03*
X46734800Y-81957000D03*
X46734800Y-80857000D03*
%TD*%
%TO.C,D165*%
X351130000Y-42884000D03*
X351130000Y-43984000D03*
X349300000Y-43984000D03*
X349300000Y-42884000D03*
%TD*%
%TO.C,D163*%
X193752000Y-23681600D03*
X193752000Y-24781600D03*
X191922000Y-24781600D03*
X191922000Y-23681600D03*
%TD*%
%TO.C,D162*%
X351130000Y-99924000D03*
X351130000Y-101024000D03*
X349300000Y-101024000D03*
X349300000Y-99924000D03*
%TD*%
%TO.C,D161*%
X46178400Y-61807000D03*
X46178400Y-62907000D03*
X44348400Y-62907000D03*
X44348400Y-61807000D03*
%TD*%
%TO.C,D160*%
X332080000Y-42875200D03*
X332080000Y-43975200D03*
X330250000Y-43975200D03*
X330250000Y-42875200D03*
%TD*%
%TO.C,D158*%
X174652000Y-23741200D03*
X174652000Y-24841200D03*
X172822000Y-24841200D03*
X172822000Y-23741200D03*
%TD*%
%TO.C,D157*%
X370028000Y-99924000D03*
X370028000Y-101024000D03*
X368198000Y-101024000D03*
X368198000Y-99924000D03*
%TD*%
%TO.C,D156*%
X70003000Y-61688800D03*
X70003000Y-62788800D03*
X68173000Y-62788800D03*
X68173000Y-61688800D03*
%TD*%
%TO.C,D155*%
X269901000Y-42693500D03*
X269901000Y-43793500D03*
X268071000Y-43793500D03*
X268071000Y-42693500D03*
%TD*%
%TO.C,D153*%
X155602000Y-23639600D03*
X155602000Y-24739600D03*
X153772000Y-24739600D03*
X153772000Y-23639600D03*
%TD*%
%TO.C,D152*%
X98451600Y-23741200D03*
X98451600Y-24841200D03*
X96621600Y-24841200D03*
X96621600Y-23741200D03*
%TD*%
%TO.C,D151*%
X88952000Y-61638000D03*
X88952000Y-62738000D03*
X87122000Y-62738000D03*
X87122000Y-61638000D03*
%TD*%
%TO.C,D150*%
X250889000Y-42715000D03*
X250889000Y-43815000D03*
X249059000Y-43815000D03*
X249059000Y-42715000D03*
%TD*%
%TO.C,D148*%
X136602000Y-23723600D03*
X136602000Y-24823600D03*
X134772000Y-24823600D03*
X134772000Y-23723600D03*
%TD*%
%TO.C,D147*%
X79503200Y-23639600D03*
X79503200Y-24739600D03*
X77673200Y-24739600D03*
X77673200Y-23639600D03*
%TD*%
%TO.C,D146*%
X107850000Y-61688800D03*
X107850000Y-62788800D03*
X106020000Y-62788800D03*
X106020000Y-61688800D03*
%TD*%
%TO.C,D145*%
X231763000Y-42715000D03*
X231763000Y-43815000D03*
X229933000Y-43815000D03*
X229933000Y-42715000D03*
%TD*%
%TO.C,D143*%
X91619000Y-119126000D03*
X91619000Y-120226000D03*
X89789000Y-120226000D03*
X89789000Y-119126000D03*
%TD*%
%TO.C,D142*%
X370028000Y-80840400D03*
X370028000Y-81940400D03*
X368198000Y-81940400D03*
X368198000Y-80840400D03*
%TD*%
%TO.C,D141*%
X126747000Y-61638000D03*
X126747000Y-62738000D03*
X124917000Y-62738000D03*
X124917000Y-61638000D03*
%TD*%
%TO.C,D140*%
X212789000Y-42715000D03*
X212789000Y-43815000D03*
X210959000Y-43815000D03*
X210959000Y-42715000D03*
%TD*%
%TO.C,D138*%
X67768400Y-119093000D03*
X67768400Y-120193000D03*
X65938400Y-120193000D03*
X65938400Y-119093000D03*
%TD*%
%TO.C,D137*%
X351131000Y-80840400D03*
X351131000Y-81940400D03*
X349301000Y-81940400D03*
X349301000Y-80840400D03*
%TD*%
%TO.C,D136*%
X145645000Y-61688800D03*
X145645000Y-62788800D03*
X143815000Y-62788800D03*
X143815000Y-61688800D03*
%TD*%
%TO.C,D135*%
X193675000Y-42672000D03*
X193675000Y-43772000D03*
X191845000Y-43772000D03*
X191845000Y-42672000D03*
%TD*%
%TO.C,D133*%
X43841600Y-119121000D03*
X43841600Y-120221000D03*
X42011600Y-120221000D03*
X42011600Y-119121000D03*
%TD*%
%TO.C,D132*%
X332081000Y-80840400D03*
X332081000Y-81940400D03*
X330251000Y-81940400D03*
X330251000Y-80840400D03*
%TD*%
%TO.C,D131*%
X164593000Y-61638000D03*
X164593000Y-62738000D03*
X162763000Y-62738000D03*
X162763000Y-61638000D03*
%TD*%
%TO.C,D130*%
X174651000Y-42693500D03*
X174651000Y-43793500D03*
X172821000Y-43793500D03*
X172821000Y-42693500D03*
%TD*%
%TO.C,D128*%
X53340000Y-99890000D03*
X53340000Y-100990000D03*
X51510000Y-100990000D03*
X51510000Y-99890000D03*
%TD*%
%TO.C,D127*%
X296037000Y-80815000D03*
X296037000Y-81915000D03*
X294207000Y-81915000D03*
X294207000Y-80815000D03*
%TD*%
%TO.C,D126*%
X183542000Y-61688800D03*
X183542000Y-62788800D03*
X181712000Y-62788800D03*
X181712000Y-61688800D03*
%TD*%
%TO.C,D125*%
X155575000Y-42715000D03*
X155575000Y-43815000D03*
X153745000Y-43815000D03*
X153745000Y-42715000D03*
%TD*%
%TO.C,D123*%
X84175600Y-99890000D03*
X84175600Y-100990000D03*
X82345600Y-100990000D03*
X82345600Y-99890000D03*
%TD*%
%TO.C,D122*%
X265011000Y-80843000D03*
X265011000Y-81943000D03*
X263181000Y-81943000D03*
X263181000Y-80843000D03*
%TD*%
%TO.C,D121*%
X202490000Y-61688800D03*
X202490000Y-62788800D03*
X200660000Y-62788800D03*
X200660000Y-61688800D03*
%TD*%
%TO.C,D120*%
X136577000Y-42715000D03*
X136577000Y-43815000D03*
X134747000Y-43815000D03*
X134747000Y-42715000D03*
%TD*%
%TO.C,D118*%
X103022000Y-99890000D03*
X103022000Y-100990000D03*
X101192000Y-100990000D03*
X101192000Y-99890000D03*
%TD*%
%TO.C,D117*%
X245961000Y-80857000D03*
X245961000Y-81957000D03*
X244131000Y-81957000D03*
X244131000Y-80857000D03*
%TD*%
%TO.C,D116*%
X221388000Y-61638000D03*
X221388000Y-62738000D03*
X219558000Y-62738000D03*
X219558000Y-61638000D03*
%TD*%
%TO.C,D115*%
X117527000Y-42715000D03*
X117527000Y-43815000D03*
X115697000Y-43815000D03*
X115697000Y-42715000D03*
%TD*%
%TO.C,D113*%
X121920000Y-99890000D03*
X121920000Y-100990000D03*
X120090000Y-100990000D03*
X120090000Y-99890000D03*
%TD*%
%TO.C,D112*%
X226937000Y-80832000D03*
X226937000Y-81932000D03*
X225107000Y-81932000D03*
X225107000Y-80832000D03*
%TD*%
%TO.C,D111*%
X240336000Y-61688800D03*
X240336000Y-62788800D03*
X238506000Y-62788800D03*
X238506000Y-61688800D03*
%TD*%
%TO.C,D110*%
X98477000Y-42715000D03*
X98477000Y-43815000D03*
X96647000Y-43815000D03*
X96647000Y-42715000D03*
%TD*%
%TO.C,D109*%
X298502000Y-42884000D03*
X298502000Y-43984000D03*
X296672000Y-43984000D03*
X296672000Y-42884000D03*
%TD*%
%TO.C,D108*%
X140868000Y-99890000D03*
X140868000Y-100990000D03*
X139038000Y-100990000D03*
X139038000Y-99890000D03*
%TD*%
%TO.C,D107*%
X207837000Y-80882000D03*
X207837000Y-81982000D03*
X206007000Y-81982000D03*
X206007000Y-80882000D03*
%TD*%
%TO.C,D106*%
X259284000Y-61638000D03*
X259284000Y-62738000D03*
X257454000Y-62738000D03*
X257454000Y-61638000D03*
%TD*%
%TO.C,D105*%
X79427000Y-42715000D03*
X79427000Y-43815000D03*
X77597000Y-43815000D03*
X77597000Y-42715000D03*
%TD*%
%TO.C,D104*%
X117552000Y-23639600D03*
X117552000Y-24739600D03*
X115722000Y-24739600D03*
X115722000Y-23639600D03*
%TD*%
%TO.C,D103*%
X159817000Y-99890000D03*
X159817000Y-100990000D03*
X157987000Y-100990000D03*
X157987000Y-99890000D03*
%TD*%
%TO.C,D102*%
X188811000Y-80868000D03*
X188811000Y-81968000D03*
X186981000Y-81968000D03*
X186981000Y-80868000D03*
%TD*%
%TO.C,D101*%
X278487000Y-61638000D03*
X278487000Y-62738000D03*
X276657000Y-62738000D03*
X276657000Y-61638000D03*
%TD*%
%TO.C,D100*%
X60414500Y-42693500D03*
X60414500Y-43793500D03*
X58584500Y-43793500D03*
X58584500Y-42693500D03*
%TD*%
%TO.C,D99*%
X370078000Y-119144000D03*
X370078000Y-120244000D03*
X368248000Y-120244000D03*
X368248000Y-119144000D03*
%TD*%
%TO.C,D98*%
X178714000Y-99890000D03*
X178714000Y-100990000D03*
X176884000Y-100990000D03*
X176884000Y-99890000D03*
%TD*%
%TO.C,D97*%
X169787000Y-80882000D03*
X169787000Y-81982000D03*
X167957000Y-81982000D03*
X167957000Y-80882000D03*
%TD*%
%TO.C,D96*%
X303226000Y-61638000D03*
X303226000Y-62738000D03*
X301396000Y-62738000D03*
X301396000Y-61638000D03*
%TD*%
%TO.C,D95*%
X41200000Y-42715000D03*
X41200000Y-43815000D03*
X39370000Y-43815000D03*
X39370000Y-42715000D03*
%TD*%
%TO.C,C3*%
G36*
G01*
X317682000Y-49196100D02*
X317682000Y-49536100D01*
G75*
G02*
X317542000Y-49676100I-140000J0D01*
G01*
X317262000Y-49676100D01*
G75*
G02*
X317122000Y-49536100I0J140000D01*
G01*
X317122000Y-49196100D01*
G75*
G02*
X317262000Y-49056100I140000J0D01*
G01*
X317542000Y-49056100D01*
G75*
G02*
X317682000Y-49196100I0J-140000D01*
G01*
G37*
G36*
G01*
X318642000Y-49196100D02*
X318642000Y-49536100D01*
G75*
G02*
X318502000Y-49676100I-140000J0D01*
G01*
X318222000Y-49676100D01*
G75*
G02*
X318082000Y-49536100I0J140000D01*
G01*
X318082000Y-49196100D01*
G75*
G02*
X318222000Y-49056100I140000J0D01*
G01*
X318502000Y-49056100D01*
G75*
G02*
X318642000Y-49196100I0J-140000D01*
G01*
G37*
%TD*%
%TO.C,C5*%
G36*
G01*
X321746000Y-119574000D02*
X321746000Y-119914000D01*
G75*
G02*
X321606000Y-120054000I-140000J0D01*
G01*
X321326000Y-120054000D01*
G75*
G02*
X321186000Y-119914000I0J140000D01*
G01*
X321186000Y-119574000D01*
G75*
G02*
X321326000Y-119434000I140000J0D01*
G01*
X321606000Y-119434000D01*
G75*
G02*
X321746000Y-119574000I0J-140000D01*
G01*
G37*
G36*
G01*
X322706000Y-119574000D02*
X322706000Y-119914000D01*
G75*
G02*
X322566000Y-120054000I-140000J0D01*
G01*
X322286000Y-120054000D01*
G75*
G02*
X322146000Y-119914000I0J140000D01*
G01*
X322146000Y-119574000D01*
G75*
G02*
X322286000Y-119434000I140000J0D01*
G01*
X322566000Y-119434000D01*
G75*
G02*
X322706000Y-119574000I0J-140000D01*
G01*
G37*
%TD*%
%TO.C,C6*%
G36*
G01*
X317682000Y-57764500D02*
X317682000Y-58104500D01*
G75*
G02*
X317542000Y-58244500I-140000J0D01*
G01*
X317262000Y-58244500D01*
G75*
G02*
X317122000Y-58104500I0J140000D01*
G01*
X317122000Y-57764500D01*
G75*
G02*
X317262000Y-57624500I140000J0D01*
G01*
X317542000Y-57624500D01*
G75*
G02*
X317682000Y-57764500I0J-140000D01*
G01*
G37*
G36*
G01*
X318642000Y-57764500D02*
X318642000Y-58104500D01*
G75*
G02*
X318502000Y-58244500I-140000J0D01*
G01*
X318222000Y-58244500D01*
G75*
G02*
X318082000Y-58104500I0J140000D01*
G01*
X318082000Y-57764500D01*
G75*
G02*
X318222000Y-57624500I140000J0D01*
G01*
X318502000Y-57624500D01*
G75*
G02*
X318642000Y-57764500I0J-140000D01*
G01*
G37*
%TD*%
%TO.C,C8*%
G36*
G01*
X321746000Y-117432000D02*
X321746000Y-117772000D01*
G75*
G02*
X321606000Y-117912000I-140000J0D01*
G01*
X321326000Y-117912000D01*
G75*
G02*
X321186000Y-117772000I0J140000D01*
G01*
X321186000Y-117432000D01*
G75*
G02*
X321326000Y-117292000I140000J0D01*
G01*
X321606000Y-117292000D01*
G75*
G02*
X321746000Y-117432000I0J-140000D01*
G01*
G37*
G36*
G01*
X322706000Y-117432000D02*
X322706000Y-117772000D01*
G75*
G02*
X322566000Y-117912000I-140000J0D01*
G01*
X322286000Y-117912000D01*
G75*
G02*
X322146000Y-117772000I0J140000D01*
G01*
X322146000Y-117432000D01*
G75*
G02*
X322286000Y-117292000I140000J0D01*
G01*
X322566000Y-117292000D01*
G75*
G02*
X322706000Y-117432000I0J-140000D01*
G01*
G37*
%TD*%
%TO.C,C9*%
G36*
G01*
X317682000Y-86082500D02*
X317682000Y-86422500D01*
G75*
G02*
X317542000Y-86562500I-140000J0D01*
G01*
X317262000Y-86562500D01*
G75*
G02*
X317122000Y-86422500I0J140000D01*
G01*
X317122000Y-86082500D01*
G75*
G02*
X317262000Y-85942500I140000J0D01*
G01*
X317542000Y-85942500D01*
G75*
G02*
X317682000Y-86082500I0J-140000D01*
G01*
G37*
G36*
G01*
X318642000Y-86082500D02*
X318642000Y-86422500D01*
G75*
G02*
X318502000Y-86562500I-140000J0D01*
G01*
X318222000Y-86562500D01*
G75*
G02*
X318082000Y-86422500I0J140000D01*
G01*
X318082000Y-86082500D01*
G75*
G02*
X318222000Y-85942500I140000J0D01*
G01*
X318502000Y-85942500D01*
G75*
G02*
X318642000Y-86082500I0J-140000D01*
G01*
G37*
%TD*%
%TO.C,C11*%
G36*
G01*
X317682000Y-93562700D02*
X317682000Y-93902700D01*
G75*
G02*
X317542000Y-94042700I-140000J0D01*
G01*
X317262000Y-94042700D01*
G75*
G02*
X317122000Y-93902700I0J140000D01*
G01*
X317122000Y-93562700D01*
G75*
G02*
X317262000Y-93422700I140000J0D01*
G01*
X317542000Y-93422700D01*
G75*
G02*
X317682000Y-93562700I0J-140000D01*
G01*
G37*
G36*
G01*
X318642000Y-93562700D02*
X318642000Y-93902700D01*
G75*
G02*
X318502000Y-94042700I-140000J0D01*
G01*
X318222000Y-94042700D01*
G75*
G02*
X318082000Y-93902700I0J140000D01*
G01*
X318082000Y-93562700D01*
G75*
G02*
X318222000Y-93422700I140000J0D01*
G01*
X318502000Y-93422700D01*
G75*
G02*
X318642000Y-93562700I0J-140000D01*
G01*
G37*
%TD*%
%TO.C,C13*%
G36*
G01*
X317682000Y-64212900D02*
X317682000Y-64552900D01*
G75*
G02*
X317542000Y-64692900I-140000J0D01*
G01*
X317262000Y-64692900D01*
G75*
G02*
X317122000Y-64552900I0J140000D01*
G01*
X317122000Y-64212900D01*
G75*
G02*
X317262000Y-64072900I140000J0D01*
G01*
X317542000Y-64072900D01*
G75*
G02*
X317682000Y-64212900I0J-140000D01*
G01*
G37*
G36*
G01*
X318642000Y-64212900D02*
X318642000Y-64552900D01*
G75*
G02*
X318502000Y-64692900I-140000J0D01*
G01*
X318222000Y-64692900D01*
G75*
G02*
X318082000Y-64552900I0J140000D01*
G01*
X318082000Y-64212900D01*
G75*
G02*
X318222000Y-64072900I140000J0D01*
G01*
X318502000Y-64072900D01*
G75*
G02*
X318642000Y-64212900I0J-140000D01*
G01*
G37*
%TD*%
%TO.C,C16*%
G36*
G01*
X317682000Y-48122200D02*
X317682000Y-48462200D01*
G75*
G02*
X317542000Y-48602200I-140000J0D01*
G01*
X317262000Y-48602200D01*
G75*
G02*
X317122000Y-48462200I0J140000D01*
G01*
X317122000Y-48122200D01*
G75*
G02*
X317262000Y-47982200I140000J0D01*
G01*
X317542000Y-47982200D01*
G75*
G02*
X317682000Y-48122200I0J-140000D01*
G01*
G37*
G36*
G01*
X318642000Y-48122200D02*
X318642000Y-48462200D01*
G75*
G02*
X318502000Y-48602200I-140000J0D01*
G01*
X318222000Y-48602200D01*
G75*
G02*
X318082000Y-48462200I0J140000D01*
G01*
X318082000Y-48122200D01*
G75*
G02*
X318222000Y-47982200I140000J0D01*
G01*
X318502000Y-47982200D01*
G75*
G02*
X318642000Y-48122200I0J-140000D01*
G01*
G37*
%TD*%
%TO.C,C17*%
G36*
G01*
X321746000Y-113147000D02*
X321746000Y-113487000D01*
G75*
G02*
X321606000Y-113627000I-140000J0D01*
G01*
X321326000Y-113627000D01*
G75*
G02*
X321186000Y-113487000I0J140000D01*
G01*
X321186000Y-113147000D01*
G75*
G02*
X321326000Y-113007000I140000J0D01*
G01*
X321606000Y-113007000D01*
G75*
G02*
X321746000Y-113147000I0J-140000D01*
G01*
G37*
G36*
G01*
X322706000Y-113147000D02*
X322706000Y-113487000D01*
G75*
G02*
X322566000Y-113627000I-140000J0D01*
G01*
X322286000Y-113627000D01*
G75*
G02*
X322146000Y-113487000I0J140000D01*
G01*
X322146000Y-113147000D01*
G75*
G02*
X322286000Y-113007000I140000J0D01*
G01*
X322566000Y-113007000D01*
G75*
G02*
X322706000Y-113147000I0J-140000D01*
G01*
G37*
%TD*%
%TO.C,C18*%
G36*
G01*
X317682000Y-50247400D02*
X317682000Y-50587400D01*
G75*
G02*
X317542000Y-50727400I-140000J0D01*
G01*
X317262000Y-50727400D01*
G75*
G02*
X317122000Y-50587400I0J140000D01*
G01*
X317122000Y-50247400D01*
G75*
G02*
X317262000Y-50107400I140000J0D01*
G01*
X317542000Y-50107400D01*
G75*
G02*
X317682000Y-50247400I0J-140000D01*
G01*
G37*
G36*
G01*
X318642000Y-50247400D02*
X318642000Y-50587400D01*
G75*
G02*
X318502000Y-50727400I-140000J0D01*
G01*
X318222000Y-50727400D01*
G75*
G02*
X318082000Y-50587400I0J140000D01*
G01*
X318082000Y-50247400D01*
G75*
G02*
X318222000Y-50107400I140000J0D01*
G01*
X318502000Y-50107400D01*
G75*
G02*
X318642000Y-50247400I0J-140000D01*
G01*
G37*
%TD*%
%TO.C,C22*%
G36*
G01*
X317682000Y-80713100D02*
X317682000Y-81053100D01*
G75*
G02*
X317542000Y-81193100I-140000J0D01*
G01*
X317262000Y-81193100D01*
G75*
G02*
X317122000Y-81053100I0J140000D01*
G01*
X317122000Y-80713100D01*
G75*
G02*
X317262000Y-80573100I140000J0D01*
G01*
X317542000Y-80573100D01*
G75*
G02*
X317682000Y-80713100I0J-140000D01*
G01*
G37*
G36*
G01*
X318642000Y-80713100D02*
X318642000Y-81053100D01*
G75*
G02*
X318502000Y-81193100I-140000J0D01*
G01*
X318222000Y-81193100D01*
G75*
G02*
X318082000Y-81053100I0J140000D01*
G01*
X318082000Y-80713100D01*
G75*
G02*
X318222000Y-80573100I140000J0D01*
G01*
X318502000Y-80573100D01*
G75*
G02*
X318642000Y-80713100I0J-140000D01*
G01*
G37*
%TD*%
%TO.C,C24*%
G36*
G01*
X320222000Y-43069900D02*
X320222000Y-43409900D01*
G75*
G02*
X320082000Y-43549900I-140000J0D01*
G01*
X319802000Y-43549900D01*
G75*
G02*
X319662000Y-43409900I0J140000D01*
G01*
X319662000Y-43069900D01*
G75*
G02*
X319802000Y-42929900I140000J0D01*
G01*
X320082000Y-42929900D01*
G75*
G02*
X320222000Y-43069900I0J-140000D01*
G01*
G37*
G36*
G01*
X321182000Y-43069900D02*
X321182000Y-43409900D01*
G75*
G02*
X321042000Y-43549900I-140000J0D01*
G01*
X320762000Y-43549900D01*
G75*
G02*
X320622000Y-43409900I0J140000D01*
G01*
X320622000Y-43069900D01*
G75*
G02*
X320762000Y-42929900I140000J0D01*
G01*
X321042000Y-42929900D01*
G75*
G02*
X321182000Y-43069900I0J-140000D01*
G01*
G37*
%TD*%
%TO.C,C27*%
G36*
G01*
X317682000Y-98890000D02*
X317682000Y-99230000D01*
G75*
G02*
X317542000Y-99370000I-140000J0D01*
G01*
X317262000Y-99370000D01*
G75*
G02*
X317122000Y-99230000I0J140000D01*
G01*
X317122000Y-98890000D01*
G75*
G02*
X317262000Y-98750000I140000J0D01*
G01*
X317542000Y-98750000D01*
G75*
G02*
X317682000Y-98890000I0J-140000D01*
G01*
G37*
G36*
G01*
X318642000Y-98890000D02*
X318642000Y-99230000D01*
G75*
G02*
X318502000Y-99370000I-140000J0D01*
G01*
X318222000Y-99370000D01*
G75*
G02*
X318082000Y-99230000I0J140000D01*
G01*
X318082000Y-98890000D01*
G75*
G02*
X318222000Y-98750000I140000J0D01*
G01*
X318502000Y-98750000D01*
G75*
G02*
X318642000Y-98890000I0J-140000D01*
G01*
G37*
%TD*%
%TO.C,C29*%
G36*
G01*
X320222000Y-48439300D02*
X320222000Y-48779300D01*
G75*
G02*
X320082000Y-48919300I-140000J0D01*
G01*
X319802000Y-48919300D01*
G75*
G02*
X319662000Y-48779300I0J140000D01*
G01*
X319662000Y-48439300D01*
G75*
G02*
X319802000Y-48299300I140000J0D01*
G01*
X320082000Y-48299300D01*
G75*
G02*
X320222000Y-48439300I0J-140000D01*
G01*
G37*
G36*
G01*
X321182000Y-48439300D02*
X321182000Y-48779300D01*
G75*
G02*
X321042000Y-48919300I-140000J0D01*
G01*
X320762000Y-48919300D01*
G75*
G02*
X320622000Y-48779300I0J140000D01*
G01*
X320622000Y-48439300D01*
G75*
G02*
X320762000Y-48299300I140000J0D01*
G01*
X321042000Y-48299300D01*
G75*
G02*
X321182000Y-48439300I0J-140000D01*
G01*
G37*
%TD*%
%TO.C,C31*%
G36*
G01*
X317682000Y-54542900D02*
X317682000Y-54882900D01*
G75*
G02*
X317542000Y-55022900I-140000J0D01*
G01*
X317262000Y-55022900D01*
G75*
G02*
X317122000Y-54882900I0J140000D01*
G01*
X317122000Y-54542900D01*
G75*
G02*
X317262000Y-54402900I140000J0D01*
G01*
X317542000Y-54402900D01*
G75*
G02*
X317682000Y-54542900I0J-140000D01*
G01*
G37*
G36*
G01*
X318642000Y-54542900D02*
X318642000Y-54882900D01*
G75*
G02*
X318502000Y-55022900I-140000J0D01*
G01*
X318222000Y-55022900D01*
G75*
G02*
X318082000Y-54882900I0J140000D01*
G01*
X318082000Y-54542900D01*
G75*
G02*
X318222000Y-54402900I140000J0D01*
G01*
X318502000Y-54402900D01*
G75*
G02*
X318642000Y-54542900I0J-140000D01*
G01*
G37*
%TD*%
%TO.C,C32*%
G36*
G01*
X320222000Y-78882400D02*
X320222000Y-79222400D01*
G75*
G02*
X320082000Y-79362400I-140000J0D01*
G01*
X319802000Y-79362400D01*
G75*
G02*
X319662000Y-79222400I0J140000D01*
G01*
X319662000Y-78882400D01*
G75*
G02*
X319802000Y-78742400I140000J0D01*
G01*
X320082000Y-78742400D01*
G75*
G02*
X320222000Y-78882400I0J-140000D01*
G01*
G37*
G36*
G01*
X321182000Y-78882400D02*
X321182000Y-79222400D01*
G75*
G02*
X321042000Y-79362400I-140000J0D01*
G01*
X320762000Y-79362400D01*
G75*
G02*
X320622000Y-79222400I0J140000D01*
G01*
X320622000Y-78882400D01*
G75*
G02*
X320762000Y-78742400I140000J0D01*
G01*
X321042000Y-78742400D01*
G75*
G02*
X321182000Y-78882400I0J-140000D01*
G01*
G37*
%TD*%
%TO.C,C33*%
G36*
G01*
X317682000Y-95588000D02*
X317682000Y-95928000D01*
G75*
G02*
X317542000Y-96068000I-140000J0D01*
G01*
X317262000Y-96068000D01*
G75*
G02*
X317122000Y-95928000I0J140000D01*
G01*
X317122000Y-95588000D01*
G75*
G02*
X317262000Y-95448000I140000J0D01*
G01*
X317542000Y-95448000D01*
G75*
G02*
X317682000Y-95588000I0J-140000D01*
G01*
G37*
G36*
G01*
X318642000Y-95588000D02*
X318642000Y-95928000D01*
G75*
G02*
X318502000Y-96068000I-140000J0D01*
G01*
X318222000Y-96068000D01*
G75*
G02*
X318082000Y-95928000I0J140000D01*
G01*
X318082000Y-95588000D01*
G75*
G02*
X318222000Y-95448000I140000J0D01*
G01*
X318502000Y-95448000D01*
G75*
G02*
X318642000Y-95588000I0J-140000D01*
G01*
G37*
%TD*%
%TO.C,C36*%
G36*
G01*
X321746000Y-115290000D02*
X321746000Y-115630000D01*
G75*
G02*
X321606000Y-115770000I-140000J0D01*
G01*
X321326000Y-115770000D01*
G75*
G02*
X321186000Y-115630000I0J140000D01*
G01*
X321186000Y-115290000D01*
G75*
G02*
X321326000Y-115150000I140000J0D01*
G01*
X321606000Y-115150000D01*
G75*
G02*
X321746000Y-115290000I0J-140000D01*
G01*
G37*
G36*
G01*
X322706000Y-115290000D02*
X322706000Y-115630000D01*
G75*
G02*
X322566000Y-115770000I-140000J0D01*
G01*
X322286000Y-115770000D01*
G75*
G02*
X322146000Y-115630000I0J140000D01*
G01*
X322146000Y-115290000D01*
G75*
G02*
X322286000Y-115150000I140000J0D01*
G01*
X322566000Y-115150000D01*
G75*
G02*
X322706000Y-115290000I0J-140000D01*
G01*
G37*
%TD*%
%TO.C,C37*%
G36*
G01*
X317682000Y-60986100D02*
X317682000Y-61326100D01*
G75*
G02*
X317542000Y-61466100I-140000J0D01*
G01*
X317262000Y-61466100D01*
G75*
G02*
X317122000Y-61326100I0J140000D01*
G01*
X317122000Y-60986100D01*
G75*
G02*
X317262000Y-60846100I140000J0D01*
G01*
X317542000Y-60846100D01*
G75*
G02*
X317682000Y-60986100I0J-140000D01*
G01*
G37*
G36*
G01*
X318642000Y-60986100D02*
X318642000Y-61326100D01*
G75*
G02*
X318502000Y-61466100I-140000J0D01*
G01*
X318222000Y-61466100D01*
G75*
G02*
X318082000Y-61326100I0J140000D01*
G01*
X318082000Y-60986100D01*
G75*
G02*
X318222000Y-60846100I140000J0D01*
G01*
X318502000Y-60846100D01*
G75*
G02*
X318642000Y-60986100I0J-140000D01*
G01*
G37*
%TD*%
%TO.C,C39*%
G36*
G01*
X320222000Y-45217700D02*
X320222000Y-45557700D01*
G75*
G02*
X320082000Y-45697700I-140000J0D01*
G01*
X319802000Y-45697700D01*
G75*
G02*
X319662000Y-45557700I0J140000D01*
G01*
X319662000Y-45217700D01*
G75*
G02*
X319802000Y-45077700I140000J0D01*
G01*
X320082000Y-45077700D01*
G75*
G02*
X320222000Y-45217700I0J-140000D01*
G01*
G37*
G36*
G01*
X321182000Y-45217700D02*
X321182000Y-45557700D01*
G75*
G02*
X321042000Y-45697700I-140000J0D01*
G01*
X320762000Y-45697700D01*
G75*
G02*
X320622000Y-45557700I0J140000D01*
G01*
X320622000Y-45217700D01*
G75*
G02*
X320762000Y-45077700I140000J0D01*
G01*
X321042000Y-45077700D01*
G75*
G02*
X321182000Y-45217700I0J-140000D01*
G01*
G37*
%TD*%
%TO.C,C41*%
G36*
G01*
X320222000Y-99236200D02*
X320222000Y-99576200D01*
G75*
G02*
X320082000Y-99716200I-140000J0D01*
G01*
X319802000Y-99716200D01*
G75*
G02*
X319662000Y-99576200I0J140000D01*
G01*
X319662000Y-99236200D01*
G75*
G02*
X319802000Y-99096200I140000J0D01*
G01*
X320082000Y-99096200D01*
G75*
G02*
X320222000Y-99236200I0J-140000D01*
G01*
G37*
G36*
G01*
X321182000Y-99236200D02*
X321182000Y-99576200D01*
G75*
G02*
X321042000Y-99716200I-140000J0D01*
G01*
X320762000Y-99716200D01*
G75*
G02*
X320622000Y-99576200I0J140000D01*
G01*
X320622000Y-99236200D01*
G75*
G02*
X320762000Y-99096200I140000J0D01*
G01*
X321042000Y-99096200D01*
G75*
G02*
X321182000Y-99236200I0J-140000D01*
G01*
G37*
%TD*%
%TO.C,C42*%
G36*
G01*
X320222000Y-53808600D02*
X320222000Y-54148600D01*
G75*
G02*
X320082000Y-54288600I-140000J0D01*
G01*
X319802000Y-54288600D01*
G75*
G02*
X319662000Y-54148600I0J140000D01*
G01*
X319662000Y-53808600D01*
G75*
G02*
X319802000Y-53668600I140000J0D01*
G01*
X320082000Y-53668600D01*
G75*
G02*
X320222000Y-53808600I0J-140000D01*
G01*
G37*
G36*
G01*
X321182000Y-53808600D02*
X321182000Y-54148600D01*
G75*
G02*
X321042000Y-54288600I-140000J0D01*
G01*
X320762000Y-54288600D01*
G75*
G02*
X320622000Y-54148600I0J140000D01*
G01*
X320622000Y-53808600D01*
G75*
G02*
X320762000Y-53668600I140000J0D01*
G01*
X321042000Y-53668600D01*
G75*
G02*
X321182000Y-53808600I0J-140000D01*
G01*
G37*
%TD*%
%TO.C,C46*%
G36*
G01*
X320222000Y-58104100D02*
X320222000Y-58444100D01*
G75*
G02*
X320082000Y-58584100I-140000J0D01*
G01*
X319802000Y-58584100D01*
G75*
G02*
X319662000Y-58444100I0J140000D01*
G01*
X319662000Y-58104100D01*
G75*
G02*
X319802000Y-57964100I140000J0D01*
G01*
X320082000Y-57964100D01*
G75*
G02*
X320222000Y-58104100I0J-140000D01*
G01*
G37*
G36*
G01*
X321182000Y-58104100D02*
X321182000Y-58444100D01*
G75*
G02*
X321042000Y-58584100I-140000J0D01*
G01*
X320762000Y-58584100D01*
G75*
G02*
X320622000Y-58444100I0J140000D01*
G01*
X320622000Y-58104100D01*
G75*
G02*
X320762000Y-57964100I140000J0D01*
G01*
X321042000Y-57964100D01*
G75*
G02*
X321182000Y-58104100I0J-140000D01*
G01*
G37*
%TD*%
%TO.C,C47*%
G36*
G01*
X320222000Y-63473400D02*
X320222000Y-63813400D01*
G75*
G02*
X320082000Y-63953400I-140000J0D01*
G01*
X319802000Y-63953400D01*
G75*
G02*
X319662000Y-63813400I0J140000D01*
G01*
X319662000Y-63473400D01*
G75*
G02*
X319802000Y-63333400I140000J0D01*
G01*
X320082000Y-63333400D01*
G75*
G02*
X320222000Y-63473400I0J-140000D01*
G01*
G37*
G36*
G01*
X321182000Y-63473400D02*
X321182000Y-63813400D01*
G75*
G02*
X321042000Y-63953400I-140000J0D01*
G01*
X320762000Y-63953400D01*
G75*
G02*
X320622000Y-63813400I0J140000D01*
G01*
X320622000Y-63473400D01*
G75*
G02*
X320762000Y-63333400I140000J0D01*
G01*
X321042000Y-63333400D01*
G75*
G02*
X321182000Y-63473400I0J-140000D01*
G01*
G37*
%TD*%
%TO.C,C48*%
G36*
G01*
X320222000Y-44143800D02*
X320222000Y-44483800D01*
G75*
G02*
X320082000Y-44623800I-140000J0D01*
G01*
X319802000Y-44623800D01*
G75*
G02*
X319662000Y-44483800I0J140000D01*
G01*
X319662000Y-44143800D01*
G75*
G02*
X319802000Y-44003800I140000J0D01*
G01*
X320082000Y-44003800D01*
G75*
G02*
X320222000Y-44143800I0J-140000D01*
G01*
G37*
G36*
G01*
X321182000Y-44143800D02*
X321182000Y-44483800D01*
G75*
G02*
X321042000Y-44623800I-140000J0D01*
G01*
X320762000Y-44623800D01*
G75*
G02*
X320622000Y-44483800I0J140000D01*
G01*
X320622000Y-44143800D01*
G75*
G02*
X320762000Y-44003800I140000J0D01*
G01*
X321042000Y-44003800D01*
G75*
G02*
X321182000Y-44143800I0J-140000D01*
G01*
G37*
%TD*%
%TO.C,C49*%
G36*
G01*
X320222000Y-47365400D02*
X320222000Y-47705400D01*
G75*
G02*
X320082000Y-47845400I-140000J0D01*
G01*
X319802000Y-47845400D01*
G75*
G02*
X319662000Y-47705400I0J140000D01*
G01*
X319662000Y-47365400D01*
G75*
G02*
X319802000Y-47225400I140000J0D01*
G01*
X320082000Y-47225400D01*
G75*
G02*
X320222000Y-47365400I0J-140000D01*
G01*
G37*
G36*
G01*
X321182000Y-47365400D02*
X321182000Y-47705400D01*
G75*
G02*
X321042000Y-47845400I-140000J0D01*
G01*
X320762000Y-47845400D01*
G75*
G02*
X320622000Y-47705400I0J140000D01*
G01*
X320622000Y-47365400D01*
G75*
G02*
X320762000Y-47225400I140000J0D01*
G01*
X321042000Y-47225400D01*
G75*
G02*
X321182000Y-47365400I0J-140000D01*
G01*
G37*
%TD*%
%TO.C,C51*%
G36*
G01*
X317682000Y-58838400D02*
X317682000Y-59178400D01*
G75*
G02*
X317542000Y-59318400I-140000J0D01*
G01*
X317262000Y-59318400D01*
G75*
G02*
X317122000Y-59178400I0J140000D01*
G01*
X317122000Y-58838400D01*
G75*
G02*
X317262000Y-58698400I140000J0D01*
G01*
X317542000Y-58698400D01*
G75*
G02*
X317682000Y-58838400I0J-140000D01*
G01*
G37*
G36*
G01*
X318642000Y-58838400D02*
X318642000Y-59178400D01*
G75*
G02*
X318502000Y-59318400I-140000J0D01*
G01*
X318222000Y-59318400D01*
G75*
G02*
X318082000Y-59178400I0J140000D01*
G01*
X318082000Y-58838400D01*
G75*
G02*
X318222000Y-58698400I140000J0D01*
G01*
X318502000Y-58698400D01*
G75*
G02*
X318642000Y-58838400I0J-140000D01*
G01*
G37*
%TD*%
%TO.C,C54*%
G36*
G01*
X320222000Y-84251800D02*
X320222000Y-84591800D01*
G75*
G02*
X320082000Y-84731800I-140000J0D01*
G01*
X319802000Y-84731800D01*
G75*
G02*
X319662000Y-84591800I0J140000D01*
G01*
X319662000Y-84251800D01*
G75*
G02*
X319802000Y-84111800I140000J0D01*
G01*
X320082000Y-84111800D01*
G75*
G02*
X320222000Y-84251800I0J-140000D01*
G01*
G37*
G36*
G01*
X321182000Y-84251800D02*
X321182000Y-84591800D01*
G75*
G02*
X321042000Y-84731800I-140000J0D01*
G01*
X320762000Y-84731800D01*
G75*
G02*
X320622000Y-84591800I0J140000D01*
G01*
X320622000Y-84251800D01*
G75*
G02*
X320762000Y-84111800I140000J0D01*
G01*
X321042000Y-84111800D01*
G75*
G02*
X321182000Y-84251800I0J-140000D01*
G01*
G37*
%TD*%
%TO.C,C56*%
G36*
G01*
X321746000Y-112076000D02*
X321746000Y-112416000D01*
G75*
G02*
X321606000Y-112556000I-140000J0D01*
G01*
X321326000Y-112556000D01*
G75*
G02*
X321186000Y-112416000I0J140000D01*
G01*
X321186000Y-112076000D01*
G75*
G02*
X321326000Y-111936000I140000J0D01*
G01*
X321606000Y-111936000D01*
G75*
G02*
X321746000Y-112076000I0J-140000D01*
G01*
G37*
G36*
G01*
X322706000Y-112076000D02*
X322706000Y-112416000D01*
G75*
G02*
X322566000Y-112556000I-140000J0D01*
G01*
X322286000Y-112556000D01*
G75*
G02*
X322146000Y-112416000I0J140000D01*
G01*
X322146000Y-112076000D01*
G75*
G02*
X322286000Y-111936000I140000J0D01*
G01*
X322566000Y-111936000D01*
G75*
G02*
X322706000Y-112076000I0J-140000D01*
G01*
G37*
%TD*%
%TO.C,C57*%
G36*
G01*
X320222000Y-49513100D02*
X320222000Y-49853100D01*
G75*
G02*
X320082000Y-49993100I-140000J0D01*
G01*
X319802000Y-49993100D01*
G75*
G02*
X319662000Y-49853100I0J140000D01*
G01*
X319662000Y-49513100D01*
G75*
G02*
X319802000Y-49373100I140000J0D01*
G01*
X320082000Y-49373100D01*
G75*
G02*
X320222000Y-49513100I0J-140000D01*
G01*
G37*
G36*
G01*
X321182000Y-49513100D02*
X321182000Y-49853100D01*
G75*
G02*
X321042000Y-49993100I-140000J0D01*
G01*
X320762000Y-49993100D01*
G75*
G02*
X320622000Y-49853100I0J140000D01*
G01*
X320622000Y-49513100D01*
G75*
G02*
X320762000Y-49373100I140000J0D01*
G01*
X321042000Y-49373100D01*
G75*
G02*
X321182000Y-49513100I0J-140000D01*
G01*
G37*
%TD*%
%TO.C,C58*%
G36*
G01*
X320222000Y-92805800D02*
X320222000Y-93145800D01*
G75*
G02*
X320082000Y-93285800I-140000J0D01*
G01*
X319802000Y-93285800D01*
G75*
G02*
X319662000Y-93145800I0J140000D01*
G01*
X319662000Y-92805800D01*
G75*
G02*
X319802000Y-92665800I140000J0D01*
G01*
X320082000Y-92665800D01*
G75*
G02*
X320222000Y-92805800I0J-140000D01*
G01*
G37*
G36*
G01*
X321182000Y-92805800D02*
X321182000Y-93145800D01*
G75*
G02*
X321042000Y-93285800I-140000J0D01*
G01*
X320762000Y-93285800D01*
G75*
G02*
X320622000Y-93145800I0J140000D01*
G01*
X320622000Y-92805800D01*
G75*
G02*
X320762000Y-92665800I140000J0D01*
G01*
X321042000Y-92665800D01*
G75*
G02*
X321182000Y-92805800I0J-140000D01*
G01*
G37*
%TD*%
%TO.C,C61*%
G36*
G01*
X317682000Y-96771500D02*
X317682000Y-97111500D01*
G75*
G02*
X317542000Y-97251500I-140000J0D01*
G01*
X317262000Y-97251500D01*
G75*
G02*
X317122000Y-97111500I0J140000D01*
G01*
X317122000Y-96771500D01*
G75*
G02*
X317262000Y-96631500I140000J0D01*
G01*
X317542000Y-96631500D01*
G75*
G02*
X317682000Y-96771500I0J-140000D01*
G01*
G37*
G36*
G01*
X318642000Y-96771500D02*
X318642000Y-97111500D01*
G75*
G02*
X318502000Y-97251500I-140000J0D01*
G01*
X318222000Y-97251500D01*
G75*
G02*
X318082000Y-97111500I0J140000D01*
G01*
X318082000Y-96771500D01*
G75*
G02*
X318222000Y-96631500I140000J0D01*
G01*
X318502000Y-96631500D01*
G75*
G02*
X318642000Y-96771500I0J-140000D01*
G01*
G37*
%TD*%
%TO.C,C62*%
G36*
G01*
X317682000Y-90341100D02*
X317682000Y-90681100D01*
G75*
G02*
X317542000Y-90821100I-140000J0D01*
G01*
X317262000Y-90821100D01*
G75*
G02*
X317122000Y-90681100I0J140000D01*
G01*
X317122000Y-90341100D01*
G75*
G02*
X317262000Y-90201100I140000J0D01*
G01*
X317542000Y-90201100D01*
G75*
G02*
X317682000Y-90341100I0J-140000D01*
G01*
G37*
G36*
G01*
X318642000Y-90341100D02*
X318642000Y-90681100D01*
G75*
G02*
X318502000Y-90821100I-140000J0D01*
G01*
X318222000Y-90821100D01*
G75*
G02*
X318082000Y-90681100I0J140000D01*
G01*
X318082000Y-90341100D01*
G75*
G02*
X318222000Y-90201100I140000J0D01*
G01*
X318502000Y-90201100D01*
G75*
G02*
X318642000Y-90341100I0J-140000D01*
G01*
G37*
%TD*%
%TO.C,C63*%
G36*
G01*
X320222000Y-93879700D02*
X320222000Y-94219700D01*
G75*
G02*
X320082000Y-94359700I-140000J0D01*
G01*
X319802000Y-94359700D01*
G75*
G02*
X319662000Y-94219700I0J140000D01*
G01*
X319662000Y-93879700D01*
G75*
G02*
X319802000Y-93739700I140000J0D01*
G01*
X320082000Y-93739700D01*
G75*
G02*
X320222000Y-93879700I0J-140000D01*
G01*
G37*
G36*
G01*
X321182000Y-93879700D02*
X321182000Y-94219700D01*
G75*
G02*
X321042000Y-94359700I-140000J0D01*
G01*
X320762000Y-94359700D01*
G75*
G02*
X320622000Y-94219700I0J140000D01*
G01*
X320622000Y-93879700D01*
G75*
G02*
X320762000Y-93739700I140000J0D01*
G01*
X321042000Y-93739700D01*
G75*
G02*
X321182000Y-93879700I0J-140000D01*
G01*
G37*
%TD*%
%TO.C,C64*%
G36*
G01*
X317682000Y-44900600D02*
X317682000Y-45240600D01*
G75*
G02*
X317542000Y-45380600I-140000J0D01*
G01*
X317262000Y-45380600D01*
G75*
G02*
X317122000Y-45240600I0J140000D01*
G01*
X317122000Y-44900600D01*
G75*
G02*
X317262000Y-44760600I140000J0D01*
G01*
X317542000Y-44760600D01*
G75*
G02*
X317682000Y-44900600I0J-140000D01*
G01*
G37*
G36*
G01*
X318642000Y-44900600D02*
X318642000Y-45240600D01*
G75*
G02*
X318502000Y-45380600I-140000J0D01*
G01*
X318222000Y-45380600D01*
G75*
G02*
X318082000Y-45240600I0J140000D01*
G01*
X318082000Y-44900600D01*
G75*
G02*
X318222000Y-44760600I140000J0D01*
G01*
X318502000Y-44760600D01*
G75*
G02*
X318642000Y-44900600I0J-140000D01*
G01*
G37*
%TD*%
%TO.C,C66*%
G36*
G01*
X321746000Y-111005000D02*
X321746000Y-111345000D01*
G75*
G02*
X321606000Y-111485000I-140000J0D01*
G01*
X321326000Y-111485000D01*
G75*
G02*
X321186000Y-111345000I0J140000D01*
G01*
X321186000Y-111005000D01*
G75*
G02*
X321326000Y-110865000I140000J0D01*
G01*
X321606000Y-110865000D01*
G75*
G02*
X321746000Y-111005000I0J-140000D01*
G01*
G37*
G36*
G01*
X322706000Y-111005000D02*
X322706000Y-111345000D01*
G75*
G02*
X322566000Y-111485000I-140000J0D01*
G01*
X322286000Y-111485000D01*
G75*
G02*
X322146000Y-111345000I0J140000D01*
G01*
X322146000Y-111005000D01*
G75*
G02*
X322286000Y-110865000I140000J0D01*
G01*
X322566000Y-110865000D01*
G75*
G02*
X322706000Y-111005000I0J-140000D01*
G01*
G37*
%TD*%
%TO.C,C67*%
G36*
G01*
X317682000Y-45974500D02*
X317682000Y-46314500D01*
G75*
G02*
X317542000Y-46454500I-140000J0D01*
G01*
X317262000Y-46454500D01*
G75*
G02*
X317122000Y-46314500I0J140000D01*
G01*
X317122000Y-45974500D01*
G75*
G02*
X317262000Y-45834500I140000J0D01*
G01*
X317542000Y-45834500D01*
G75*
G02*
X317682000Y-45974500I0J-140000D01*
G01*
G37*
G36*
G01*
X318642000Y-45974500D02*
X318642000Y-46314500D01*
G75*
G02*
X318502000Y-46454500I-140000J0D01*
G01*
X318222000Y-46454500D01*
G75*
G02*
X318082000Y-46314500I0J140000D01*
G01*
X318082000Y-45974500D01*
G75*
G02*
X318222000Y-45834500I140000J0D01*
G01*
X318502000Y-45834500D01*
G75*
G02*
X318642000Y-45974500I0J-140000D01*
G01*
G37*
%TD*%
%TO.C,C71*%
G36*
G01*
X320222000Y-54882500D02*
X320222000Y-55222500D01*
G75*
G02*
X320082000Y-55362500I-140000J0D01*
G01*
X319802000Y-55362500D01*
G75*
G02*
X319662000Y-55222500I0J140000D01*
G01*
X319662000Y-54882500D01*
G75*
G02*
X319802000Y-54742500I140000J0D01*
G01*
X320082000Y-54742500D01*
G75*
G02*
X320222000Y-54882500I0J-140000D01*
G01*
G37*
G36*
G01*
X321182000Y-54882500D02*
X321182000Y-55222500D01*
G75*
G02*
X321042000Y-55362500I-140000J0D01*
G01*
X320762000Y-55362500D01*
G75*
G02*
X320622000Y-55222500I0J140000D01*
G01*
X320622000Y-54882500D01*
G75*
G02*
X320762000Y-54742500I140000J0D01*
G01*
X321042000Y-54742500D01*
G75*
G02*
X321182000Y-54882500I0J-140000D01*
G01*
G37*
%TD*%
%TO.C,C73*%
G36*
G01*
X320222000Y-90658100D02*
X320222000Y-90998100D01*
G75*
G02*
X320082000Y-91138100I-140000J0D01*
G01*
X319802000Y-91138100D01*
G75*
G02*
X319662000Y-90998100I0J140000D01*
G01*
X319662000Y-90658100D01*
G75*
G02*
X319802000Y-90518100I140000J0D01*
G01*
X320082000Y-90518100D01*
G75*
G02*
X320222000Y-90658100I0J-140000D01*
G01*
G37*
G36*
G01*
X321182000Y-90658100D02*
X321182000Y-90998100D01*
G75*
G02*
X321042000Y-91138100I-140000J0D01*
G01*
X320762000Y-91138100D01*
G75*
G02*
X320622000Y-90998100I0J140000D01*
G01*
X320622000Y-90658100D01*
G75*
G02*
X320762000Y-90518100I140000J0D01*
G01*
X321042000Y-90518100D01*
G75*
G02*
X321182000Y-90658100I0J-140000D01*
G01*
G37*
%TD*%
%TO.C,C74*%
G36*
G01*
X317682000Y-89304100D02*
X317682000Y-89644100D01*
G75*
G02*
X317542000Y-89784100I-140000J0D01*
G01*
X317262000Y-89784100D01*
G75*
G02*
X317122000Y-89644100I0J140000D01*
G01*
X317122000Y-89304100D01*
G75*
G02*
X317262000Y-89164100I140000J0D01*
G01*
X317542000Y-89164100D01*
G75*
G02*
X317682000Y-89304100I0J-140000D01*
G01*
G37*
G36*
G01*
X318642000Y-89304100D02*
X318642000Y-89644100D01*
G75*
G02*
X318502000Y-89784100I-140000J0D01*
G01*
X318222000Y-89784100D01*
G75*
G02*
X318082000Y-89644100I0J140000D01*
G01*
X318082000Y-89304100D01*
G75*
G02*
X318222000Y-89164100I140000J0D01*
G01*
X318502000Y-89164100D01*
G75*
G02*
X318642000Y-89304100I0J-140000D01*
G01*
G37*
%TD*%
%TO.C,C79*%
G36*
G01*
X317682000Y-77491500D02*
X317682000Y-77831500D01*
G75*
G02*
X317542000Y-77971500I-140000J0D01*
G01*
X317262000Y-77971500D01*
G75*
G02*
X317122000Y-77831500I0J140000D01*
G01*
X317122000Y-77491500D01*
G75*
G02*
X317262000Y-77351500I140000J0D01*
G01*
X317542000Y-77351500D01*
G75*
G02*
X317682000Y-77491500I0J-140000D01*
G01*
G37*
G36*
G01*
X318642000Y-77491500D02*
X318642000Y-77831500D01*
G75*
G02*
X318502000Y-77971500I-140000J0D01*
G01*
X318222000Y-77971500D01*
G75*
G02*
X318082000Y-77831500I0J140000D01*
G01*
X318082000Y-77491500D01*
G75*
G02*
X318222000Y-77351500I140000J0D01*
G01*
X318502000Y-77351500D01*
G75*
G02*
X318642000Y-77491500I0J-140000D01*
G01*
G37*
%TD*%
%TO.C,C81*%
G36*
G01*
X320222000Y-89621100D02*
X320222000Y-89961100D01*
G75*
G02*
X320082000Y-90101100I-140000J0D01*
G01*
X319802000Y-90101100D01*
G75*
G02*
X319662000Y-89961100I0J140000D01*
G01*
X319662000Y-89621100D01*
G75*
G02*
X319802000Y-89481100I140000J0D01*
G01*
X320082000Y-89481100D01*
G75*
G02*
X320222000Y-89621100I0J-140000D01*
G01*
G37*
G36*
G01*
X321182000Y-89621100D02*
X321182000Y-89961100D01*
G75*
G02*
X321042000Y-90101100I-140000J0D01*
G01*
X320762000Y-90101100D01*
G75*
G02*
X320622000Y-89961100I0J140000D01*
G01*
X320622000Y-89621100D01*
G75*
G02*
X320762000Y-89481100I140000J0D01*
G01*
X321042000Y-89481100D01*
G75*
G02*
X321182000Y-89621100I0J-140000D01*
G01*
G37*
%TD*%
%TO.C,C82*%
G36*
G01*
X320222000Y-51660900D02*
X320222000Y-52000900D01*
G75*
G02*
X320082000Y-52140900I-140000J0D01*
G01*
X319802000Y-52140900D01*
G75*
G02*
X319662000Y-52000900I0J140000D01*
G01*
X319662000Y-51660900D01*
G75*
G02*
X319802000Y-51520900I140000J0D01*
G01*
X320082000Y-51520900D01*
G75*
G02*
X320222000Y-51660900I0J-140000D01*
G01*
G37*
G36*
G01*
X321182000Y-51660900D02*
X321182000Y-52000900D01*
G75*
G02*
X321042000Y-52140900I-140000J0D01*
G01*
X320762000Y-52140900D01*
G75*
G02*
X320622000Y-52000900I0J140000D01*
G01*
X320622000Y-51660900D01*
G75*
G02*
X320762000Y-51520900I140000J0D01*
G01*
X321042000Y-51520900D01*
G75*
G02*
X321182000Y-51660900I0J-140000D01*
G01*
G37*
%TD*%
%TO.C,C83*%
G36*
G01*
X317682000Y-59912200D02*
X317682000Y-60252200D01*
G75*
G02*
X317542000Y-60392200I-140000J0D01*
G01*
X317262000Y-60392200D01*
G75*
G02*
X317122000Y-60252200I0J140000D01*
G01*
X317122000Y-59912200D01*
G75*
G02*
X317262000Y-59772200I140000J0D01*
G01*
X317542000Y-59772200D01*
G75*
G02*
X317682000Y-59912200I0J-140000D01*
G01*
G37*
G36*
G01*
X318642000Y-59912200D02*
X318642000Y-60252200D01*
G75*
G02*
X318502000Y-60392200I-140000J0D01*
G01*
X318222000Y-60392200D01*
G75*
G02*
X318082000Y-60252200I0J140000D01*
G01*
X318082000Y-59912200D01*
G75*
G02*
X318222000Y-59772200I140000J0D01*
G01*
X318502000Y-59772200D01*
G75*
G02*
X318642000Y-59912200I0J-140000D01*
G01*
G37*
%TD*%
%TO.C,C84*%
G36*
G01*
X317682000Y-52395200D02*
X317682000Y-52735200D01*
G75*
G02*
X317542000Y-52875200I-140000J0D01*
G01*
X317262000Y-52875200D01*
G75*
G02*
X317122000Y-52735200I0J140000D01*
G01*
X317122000Y-52395200D01*
G75*
G02*
X317262000Y-52255200I140000J0D01*
G01*
X317542000Y-52255200D01*
G75*
G02*
X317682000Y-52395200I0J-140000D01*
G01*
G37*
G36*
G01*
X318642000Y-52395200D02*
X318642000Y-52735200D01*
G75*
G02*
X318502000Y-52875200I-140000J0D01*
G01*
X318222000Y-52875200D01*
G75*
G02*
X318082000Y-52735200I0J140000D01*
G01*
X318082000Y-52395200D01*
G75*
G02*
X318222000Y-52255200I140000J0D01*
G01*
X318502000Y-52255200D01*
G75*
G02*
X318642000Y-52395200I0J-140000D01*
G01*
G37*
%TD*%
%TO.C,C88*%
G36*
G01*
X320222000Y-79956300D02*
X320222000Y-80296300D01*
G75*
G02*
X320082000Y-80436300I-140000J0D01*
G01*
X319802000Y-80436300D01*
G75*
G02*
X319662000Y-80296300I0J140000D01*
G01*
X319662000Y-79956300D01*
G75*
G02*
X319802000Y-79816300I140000J0D01*
G01*
X320082000Y-79816300D01*
G75*
G02*
X320222000Y-79956300I0J-140000D01*
G01*
G37*
G36*
G01*
X321182000Y-79956300D02*
X321182000Y-80296300D01*
G75*
G02*
X321042000Y-80436300I-140000J0D01*
G01*
X320762000Y-80436300D01*
G75*
G02*
X320622000Y-80296300I0J140000D01*
G01*
X320622000Y-79956300D01*
G75*
G02*
X320762000Y-79816300I140000J0D01*
G01*
X321042000Y-79816300D01*
G75*
G02*
X321182000Y-79956300I0J-140000D01*
G01*
G37*
%TD*%
%TO.C,C89*%
G36*
G01*
X320222000Y-57030200D02*
X320222000Y-57370200D01*
G75*
G02*
X320082000Y-57510200I-140000J0D01*
G01*
X319802000Y-57510200D01*
G75*
G02*
X319662000Y-57370200I0J140000D01*
G01*
X319662000Y-57030200D01*
G75*
G02*
X319802000Y-56890200I140000J0D01*
G01*
X320082000Y-56890200D01*
G75*
G02*
X320222000Y-57030200I0J-140000D01*
G01*
G37*
G36*
G01*
X321182000Y-57030200D02*
X321182000Y-57370200D01*
G75*
G02*
X321042000Y-57510200I-140000J0D01*
G01*
X320762000Y-57510200D01*
G75*
G02*
X320622000Y-57370200I0J140000D01*
G01*
X320622000Y-57030200D01*
G75*
G02*
X320762000Y-56890200I140000J0D01*
G01*
X321042000Y-56890200D01*
G75*
G02*
X321182000Y-57030200I0J-140000D01*
G01*
G37*
%TD*%
%TO.C,C91*%
G36*
G01*
X320222000Y-83177900D02*
X320222000Y-83517900D01*
G75*
G02*
X320082000Y-83657900I-140000J0D01*
G01*
X319802000Y-83657900D01*
G75*
G02*
X319662000Y-83517900I0J140000D01*
G01*
X319662000Y-83177900D01*
G75*
G02*
X319802000Y-83037900I140000J0D01*
G01*
X320082000Y-83037900D01*
G75*
G02*
X320222000Y-83177900I0J-140000D01*
G01*
G37*
G36*
G01*
X321182000Y-83177900D02*
X321182000Y-83517900D01*
G75*
G02*
X321042000Y-83657900I-140000J0D01*
G01*
X320762000Y-83657900D01*
G75*
G02*
X320622000Y-83517900I0J140000D01*
G01*
X320622000Y-83177900D01*
G75*
G02*
X320762000Y-83037900I140000J0D01*
G01*
X321042000Y-83037900D01*
G75*
G02*
X321182000Y-83177900I0J-140000D01*
G01*
G37*
%TD*%
%TO.C,C93*%
G36*
G01*
X317682000Y-92488800D02*
X317682000Y-92828800D01*
G75*
G02*
X317542000Y-92968800I-140000J0D01*
G01*
X317262000Y-92968800D01*
G75*
G02*
X317122000Y-92828800I0J140000D01*
G01*
X317122000Y-92488800D01*
G75*
G02*
X317262000Y-92348800I140000J0D01*
G01*
X317542000Y-92348800D01*
G75*
G02*
X317682000Y-92488800I0J-140000D01*
G01*
G37*
G36*
G01*
X318642000Y-92488800D02*
X318642000Y-92828800D01*
G75*
G02*
X318502000Y-92968800I-140000J0D01*
G01*
X318222000Y-92968800D01*
G75*
G02*
X318082000Y-92828800I0J140000D01*
G01*
X318082000Y-92488800D01*
G75*
G02*
X318222000Y-92348800I140000J0D01*
G01*
X318502000Y-92348800D01*
G75*
G02*
X318642000Y-92488800I0J-140000D01*
G01*
G37*
%TD*%
%TO.C,C96*%
G36*
G01*
X320222000Y-82104000D02*
X320222000Y-82444000D01*
G75*
G02*
X320082000Y-82584000I-140000J0D01*
G01*
X319802000Y-82584000D01*
G75*
G02*
X319662000Y-82444000I0J140000D01*
G01*
X319662000Y-82104000D01*
G75*
G02*
X319802000Y-81964000I140000J0D01*
G01*
X320082000Y-81964000D01*
G75*
G02*
X320222000Y-82104000I0J-140000D01*
G01*
G37*
G36*
G01*
X321182000Y-82104000D02*
X321182000Y-82444000D01*
G75*
G02*
X321042000Y-82584000I-140000J0D01*
G01*
X320762000Y-82584000D01*
G75*
G02*
X320622000Y-82444000I0J140000D01*
G01*
X320622000Y-82104000D01*
G75*
G02*
X320762000Y-81964000I140000J0D01*
G01*
X321042000Y-81964000D01*
G75*
G02*
X321182000Y-82104000I0J-140000D01*
G01*
G37*
%TD*%
%TO.C,C97*%
G36*
G01*
X317682000Y-47048400D02*
X317682000Y-47388400D01*
G75*
G02*
X317542000Y-47528400I-140000J0D01*
G01*
X317262000Y-47528400D01*
G75*
G02*
X317122000Y-47388400I0J140000D01*
G01*
X317122000Y-47048400D01*
G75*
G02*
X317262000Y-46908400I140000J0D01*
G01*
X317542000Y-46908400D01*
G75*
G02*
X317682000Y-47048400I0J-140000D01*
G01*
G37*
G36*
G01*
X318642000Y-47048400D02*
X318642000Y-47388400D01*
G75*
G02*
X318502000Y-47528400I-140000J0D01*
G01*
X318222000Y-47528400D01*
G75*
G02*
X318082000Y-47388400I0J140000D01*
G01*
X318082000Y-47048400D01*
G75*
G02*
X318222000Y-46908400I140000J0D01*
G01*
X318502000Y-46908400D01*
G75*
G02*
X318642000Y-47048400I0J-140000D01*
G01*
G37*
%TD*%
%TO.C,C98*%
G36*
G01*
X320222000Y-46291500D02*
X320222000Y-46631500D01*
G75*
G02*
X320082000Y-46771500I-140000J0D01*
G01*
X319802000Y-46771500D01*
G75*
G02*
X319662000Y-46631500I0J140000D01*
G01*
X319662000Y-46291500D01*
G75*
G02*
X319802000Y-46151500I140000J0D01*
G01*
X320082000Y-46151500D01*
G75*
G02*
X320222000Y-46291500I0J-140000D01*
G01*
G37*
G36*
G01*
X321182000Y-46291500D02*
X321182000Y-46631500D01*
G75*
G02*
X321042000Y-46771500I-140000J0D01*
G01*
X320762000Y-46771500D01*
G75*
G02*
X320622000Y-46631500I0J140000D01*
G01*
X320622000Y-46291500D01*
G75*
G02*
X320762000Y-46151500I140000J0D01*
G01*
X321042000Y-46151500D01*
G75*
G02*
X321182000Y-46291500I0J-140000D01*
G01*
G37*
%TD*%
%TO.C,C101*%
G36*
G01*
X320222000Y-60251800D02*
X320222000Y-60591800D01*
G75*
G02*
X320082000Y-60731800I-140000J0D01*
G01*
X319802000Y-60731800D01*
G75*
G02*
X319662000Y-60591800I0J140000D01*
G01*
X319662000Y-60251800D01*
G75*
G02*
X319802000Y-60111800I140000J0D01*
G01*
X320082000Y-60111800D01*
G75*
G02*
X320222000Y-60251800I0J-140000D01*
G01*
G37*
G36*
G01*
X321182000Y-60251800D02*
X321182000Y-60591800D01*
G75*
G02*
X321042000Y-60731800I-140000J0D01*
G01*
X320762000Y-60731800D01*
G75*
G02*
X320622000Y-60591800I0J140000D01*
G01*
X320622000Y-60251800D01*
G75*
G02*
X320762000Y-60111800I140000J0D01*
G01*
X321042000Y-60111800D01*
G75*
G02*
X321182000Y-60251800I0J-140000D01*
G01*
G37*
%TD*%
%TO.C,C23*%
G36*
G01*
X321746000Y-116361000D02*
X321746000Y-116701000D01*
G75*
G02*
X321606000Y-116841000I-140000J0D01*
G01*
X321326000Y-116841000D01*
G75*
G02*
X321186000Y-116701000I0J140000D01*
G01*
X321186000Y-116361000D01*
G75*
G02*
X321326000Y-116221000I140000J0D01*
G01*
X321606000Y-116221000D01*
G75*
G02*
X321746000Y-116361000I0J-140000D01*
G01*
G37*
G36*
G01*
X322706000Y-116361000D02*
X322706000Y-116701000D01*
G75*
G02*
X322566000Y-116841000I-140000J0D01*
G01*
X322286000Y-116841000D01*
G75*
G02*
X322146000Y-116701000I0J140000D01*
G01*
X322146000Y-116361000D01*
G75*
G02*
X322286000Y-116221000I140000J0D01*
G01*
X322566000Y-116221000D01*
G75*
G02*
X322706000Y-116361000I0J-140000D01*
G01*
G37*
%TD*%
%TO.C,C26*%
G36*
G01*
X317682000Y-56690600D02*
X317682000Y-57030600D01*
G75*
G02*
X317542000Y-57170600I-140000J0D01*
G01*
X317262000Y-57170600D01*
G75*
G02*
X317122000Y-57030600I0J140000D01*
G01*
X317122000Y-56690600D01*
G75*
G02*
X317262000Y-56550600I140000J0D01*
G01*
X317542000Y-56550600D01*
G75*
G02*
X317682000Y-56690600I0J-140000D01*
G01*
G37*
G36*
G01*
X318642000Y-56690600D02*
X318642000Y-57030600D01*
G75*
G02*
X318502000Y-57170600I-140000J0D01*
G01*
X318222000Y-57170600D01*
G75*
G02*
X318082000Y-57030600I0J140000D01*
G01*
X318082000Y-56690600D01*
G75*
G02*
X318222000Y-56550600I140000J0D01*
G01*
X318502000Y-56550600D01*
G75*
G02*
X318642000Y-56690600I0J-140000D01*
G01*
G37*
%TD*%
%TO.C,C28*%
G36*
G01*
X320222000Y-86399500D02*
X320222000Y-86739500D01*
G75*
G02*
X320082000Y-86879500I-140000J0D01*
G01*
X319802000Y-86879500D01*
G75*
G02*
X319662000Y-86739500I0J140000D01*
G01*
X319662000Y-86399500D01*
G75*
G02*
X319802000Y-86259500I140000J0D01*
G01*
X320082000Y-86259500D01*
G75*
G02*
X320222000Y-86399500I0J-140000D01*
G01*
G37*
G36*
G01*
X321182000Y-86399500D02*
X321182000Y-86739500D01*
G75*
G02*
X321042000Y-86879500I-140000J0D01*
G01*
X320762000Y-86879500D01*
G75*
G02*
X320622000Y-86739500I0J140000D01*
G01*
X320622000Y-86399500D01*
G75*
G02*
X320762000Y-86259500I140000J0D01*
G01*
X321042000Y-86259500D01*
G75*
G02*
X321182000Y-86399500I0J-140000D01*
G01*
G37*
%TD*%
%TO.C,C15*%
G36*
G01*
X321746000Y-114218000D02*
X321746000Y-114558000D01*
G75*
G02*
X321606000Y-114698000I-140000J0D01*
G01*
X321326000Y-114698000D01*
G75*
G02*
X321186000Y-114558000I0J140000D01*
G01*
X321186000Y-114218000D01*
G75*
G02*
X321326000Y-114078000I140000J0D01*
G01*
X321606000Y-114078000D01*
G75*
G02*
X321746000Y-114218000I0J-140000D01*
G01*
G37*
G36*
G01*
X322706000Y-114218000D02*
X322706000Y-114558000D01*
G75*
G02*
X322566000Y-114698000I-140000J0D01*
G01*
X322286000Y-114698000D01*
G75*
G02*
X322146000Y-114558000I0J140000D01*
G01*
X322146000Y-114218000D01*
G75*
G02*
X322286000Y-114078000I140000J0D01*
G01*
X322566000Y-114078000D01*
G75*
G02*
X322706000Y-114218000I0J-140000D01*
G01*
G37*
%TD*%
%TO.C,C21*%
G36*
G01*
X321746000Y-109934000D02*
X321746000Y-110274000D01*
G75*
G02*
X321606000Y-110414000I-140000J0D01*
G01*
X321326000Y-110414000D01*
G75*
G02*
X321186000Y-110274000I0J140000D01*
G01*
X321186000Y-109934000D01*
G75*
G02*
X321326000Y-109794000I140000J0D01*
G01*
X321606000Y-109794000D01*
G75*
G02*
X321746000Y-109934000I0J-140000D01*
G01*
G37*
G36*
G01*
X322706000Y-109934000D02*
X322706000Y-110274000D01*
G75*
G02*
X322566000Y-110414000I-140000J0D01*
G01*
X322286000Y-110414000D01*
G75*
G02*
X322146000Y-110274000I0J140000D01*
G01*
X322146000Y-109934000D01*
G75*
G02*
X322286000Y-109794000I140000J0D01*
G01*
X322566000Y-109794000D01*
G75*
G02*
X322706000Y-109934000I0J-140000D01*
G01*
G37*
%TD*%
%TO.C,C19*%
G36*
G01*
X317682000Y-94572000D02*
X317682000Y-94912000D01*
G75*
G02*
X317542000Y-95052000I-140000J0D01*
G01*
X317262000Y-95052000D01*
G75*
G02*
X317122000Y-94912000I0J140000D01*
G01*
X317122000Y-94572000D01*
G75*
G02*
X317262000Y-94432000I140000J0D01*
G01*
X317542000Y-94432000D01*
G75*
G02*
X317682000Y-94572000I0J-140000D01*
G01*
G37*
G36*
G01*
X318642000Y-94572000D02*
X318642000Y-94912000D01*
G75*
G02*
X318502000Y-95052000I-140000J0D01*
G01*
X318222000Y-95052000D01*
G75*
G02*
X318082000Y-94912000I0J140000D01*
G01*
X318082000Y-94572000D01*
G75*
G02*
X318222000Y-94432000I140000J0D01*
G01*
X318502000Y-94432000D01*
G75*
G02*
X318642000Y-94572000I0J-140000D01*
G01*
G37*
%TD*%
%TO.C,C44*%
G36*
G01*
X320222000Y-91732000D02*
X320222000Y-92072000D01*
G75*
G02*
X320082000Y-92212000I-140000J0D01*
G01*
X319802000Y-92212000D01*
G75*
G02*
X319662000Y-92072000I0J140000D01*
G01*
X319662000Y-91732000D01*
G75*
G02*
X319802000Y-91592000I140000J0D01*
G01*
X320082000Y-91592000D01*
G75*
G02*
X320222000Y-91732000I0J-140000D01*
G01*
G37*
G36*
G01*
X321182000Y-91732000D02*
X321182000Y-92072000D01*
G75*
G02*
X321042000Y-92212000I-140000J0D01*
G01*
X320762000Y-92212000D01*
G75*
G02*
X320622000Y-92072000I0J140000D01*
G01*
X320622000Y-91732000D01*
G75*
G02*
X320762000Y-91592000I140000J0D01*
G01*
X321042000Y-91592000D01*
G75*
G02*
X321182000Y-91732000I0J-140000D01*
G01*
G37*
%TD*%
%TO.C,C38*%
G36*
G01*
X320222000Y-88547200D02*
X320222000Y-88887200D01*
G75*
G02*
X320082000Y-89027200I-140000J0D01*
G01*
X319802000Y-89027200D01*
G75*
G02*
X319662000Y-88887200I0J140000D01*
G01*
X319662000Y-88547200D01*
G75*
G02*
X319802000Y-88407200I140000J0D01*
G01*
X320082000Y-88407200D01*
G75*
G02*
X320222000Y-88547200I0J-140000D01*
G01*
G37*
G36*
G01*
X321182000Y-88547200D02*
X321182000Y-88887200D01*
G75*
G02*
X321042000Y-89027200I-140000J0D01*
G01*
X320762000Y-89027200D01*
G75*
G02*
X320622000Y-88887200I0J140000D01*
G01*
X320622000Y-88547200D01*
G75*
G02*
X320762000Y-88407200I140000J0D01*
G01*
X321042000Y-88407200D01*
G75*
G02*
X321182000Y-88547200I0J-140000D01*
G01*
G37*
%TD*%
%TO.C,C52*%
G36*
G01*
X320222000Y-98195600D02*
X320222000Y-98535600D01*
G75*
G02*
X320082000Y-98675600I-140000J0D01*
G01*
X319802000Y-98675600D01*
G75*
G02*
X319662000Y-98535600I0J140000D01*
G01*
X319662000Y-98195600D01*
G75*
G02*
X319802000Y-98055600I140000J0D01*
G01*
X320082000Y-98055600D01*
G75*
G02*
X320222000Y-98195600I0J-140000D01*
G01*
G37*
G36*
G01*
X321182000Y-98195600D02*
X321182000Y-98535600D01*
G75*
G02*
X321042000Y-98675600I-140000J0D01*
G01*
X320762000Y-98675600D01*
G75*
G02*
X320622000Y-98535600I0J140000D01*
G01*
X320622000Y-98195600D01*
G75*
G02*
X320762000Y-98055600I140000J0D01*
G01*
X321042000Y-98055600D01*
G75*
G02*
X321182000Y-98195600I0J-140000D01*
G01*
G37*
%TD*%
%TO.C,C34*%
G36*
G01*
X317682000Y-82860900D02*
X317682000Y-83200900D01*
G75*
G02*
X317542000Y-83340900I-140000J0D01*
G01*
X317262000Y-83340900D01*
G75*
G02*
X317122000Y-83200900I0J140000D01*
G01*
X317122000Y-82860900D01*
G75*
G02*
X317262000Y-82720900I140000J0D01*
G01*
X317542000Y-82720900D01*
G75*
G02*
X317682000Y-82860900I0J-140000D01*
G01*
G37*
G36*
G01*
X318642000Y-82860900D02*
X318642000Y-83200900D01*
G75*
G02*
X318502000Y-83340900I-140000J0D01*
G01*
X318222000Y-83340900D01*
G75*
G02*
X318082000Y-83200900I0J140000D01*
G01*
X318082000Y-82860900D01*
G75*
G02*
X318222000Y-82720900I140000J0D01*
G01*
X318502000Y-82720900D01*
G75*
G02*
X318642000Y-82860900I0J-140000D01*
G01*
G37*
%TD*%
%TO.C,C43*%
G36*
G01*
X320222000Y-52734700D02*
X320222000Y-53074700D01*
G75*
G02*
X320082000Y-53214700I-140000J0D01*
G01*
X319802000Y-53214700D01*
G75*
G02*
X319662000Y-53074700I0J140000D01*
G01*
X319662000Y-52734700D01*
G75*
G02*
X319802000Y-52594700I140000J0D01*
G01*
X320082000Y-52594700D01*
G75*
G02*
X320222000Y-52734700I0J-140000D01*
G01*
G37*
G36*
G01*
X321182000Y-52734700D02*
X321182000Y-53074700D01*
G75*
G02*
X321042000Y-53214700I-140000J0D01*
G01*
X320762000Y-53214700D01*
G75*
G02*
X320622000Y-53074700I0J140000D01*
G01*
X320622000Y-52734700D01*
G75*
G02*
X320762000Y-52594700I140000J0D01*
G01*
X321042000Y-52594700D01*
G75*
G02*
X321182000Y-52734700I0J-140000D01*
G01*
G37*
%TD*%
%TO.C,C53*%
G36*
G01*
X321746000Y-108863000D02*
X321746000Y-109203000D01*
G75*
G02*
X321606000Y-109343000I-140000J0D01*
G01*
X321326000Y-109343000D01*
G75*
G02*
X321186000Y-109203000I0J140000D01*
G01*
X321186000Y-108863000D01*
G75*
G02*
X321326000Y-108723000I140000J0D01*
G01*
X321606000Y-108723000D01*
G75*
G02*
X321746000Y-108863000I0J-140000D01*
G01*
G37*
G36*
G01*
X322706000Y-108863000D02*
X322706000Y-109203000D01*
G75*
G02*
X322566000Y-109343000I-140000J0D01*
G01*
X322286000Y-109343000D01*
G75*
G02*
X322146000Y-109203000I0J140000D01*
G01*
X322146000Y-108863000D01*
G75*
G02*
X322286000Y-108723000I140000J0D01*
G01*
X322566000Y-108723000D01*
G75*
G02*
X322706000Y-108863000I0J-140000D01*
G01*
G37*
%TD*%
%TO.C,C59*%
G36*
G01*
X317682000Y-79639300D02*
X317682000Y-79979300D01*
G75*
G02*
X317542000Y-80119300I-140000J0D01*
G01*
X317262000Y-80119300D01*
G75*
G02*
X317122000Y-79979300I0J140000D01*
G01*
X317122000Y-79639300D01*
G75*
G02*
X317262000Y-79499300I140000J0D01*
G01*
X317542000Y-79499300D01*
G75*
G02*
X317682000Y-79639300I0J-140000D01*
G01*
G37*
G36*
G01*
X318642000Y-79639300D02*
X318642000Y-79979300D01*
G75*
G02*
X318502000Y-80119300I-140000J0D01*
G01*
X318222000Y-80119300D01*
G75*
G02*
X318082000Y-79979300I0J140000D01*
G01*
X318082000Y-79639300D01*
G75*
G02*
X318222000Y-79499300I140000J0D01*
G01*
X318502000Y-79499300D01*
G75*
G02*
X318642000Y-79639300I0J-140000D01*
G01*
G37*
%TD*%
%TO.C,C78*%
G36*
G01*
X317682000Y-55616800D02*
X317682000Y-55956800D01*
G75*
G02*
X317542000Y-56096800I-140000J0D01*
G01*
X317262000Y-56096800D01*
G75*
G02*
X317122000Y-55956800I0J140000D01*
G01*
X317122000Y-55616800D01*
G75*
G02*
X317262000Y-55476800I140000J0D01*
G01*
X317542000Y-55476800D01*
G75*
G02*
X317682000Y-55616800I0J-140000D01*
G01*
G37*
G36*
G01*
X318642000Y-55616800D02*
X318642000Y-55956800D01*
G75*
G02*
X318502000Y-56096800I-140000J0D01*
G01*
X318222000Y-56096800D01*
G75*
G02*
X318082000Y-55956800I0J140000D01*
G01*
X318082000Y-55616800D01*
G75*
G02*
X318222000Y-55476800I140000J0D01*
G01*
X318502000Y-55476800D01*
G75*
G02*
X318642000Y-55616800I0J-140000D01*
G01*
G37*
%TD*%
%TO.C,C86*%
G36*
G01*
X320222000Y-87473300D02*
X320222000Y-87813300D01*
G75*
G02*
X320082000Y-87953300I-140000J0D01*
G01*
X319802000Y-87953300D01*
G75*
G02*
X319662000Y-87813300I0J140000D01*
G01*
X319662000Y-87473300D01*
G75*
G02*
X319802000Y-87333300I140000J0D01*
G01*
X320082000Y-87333300D01*
G75*
G02*
X320222000Y-87473300I0J-140000D01*
G01*
G37*
G36*
G01*
X321182000Y-87473300D02*
X321182000Y-87813300D01*
G75*
G02*
X321042000Y-87953300I-140000J0D01*
G01*
X320762000Y-87953300D01*
G75*
G02*
X320622000Y-87813300I0J140000D01*
G01*
X320622000Y-87473300D01*
G75*
G02*
X320762000Y-87333300I140000J0D01*
G01*
X321042000Y-87333300D01*
G75*
G02*
X321182000Y-87473300I0J-140000D01*
G01*
G37*
%TD*%
%TO.C,C92*%
G36*
G01*
X317682000Y-83934700D02*
X317682000Y-84274700D01*
G75*
G02*
X317542000Y-84414700I-140000J0D01*
G01*
X317262000Y-84414700D01*
G75*
G02*
X317122000Y-84274700I0J140000D01*
G01*
X317122000Y-83934700D01*
G75*
G02*
X317262000Y-83794700I140000J0D01*
G01*
X317542000Y-83794700D01*
G75*
G02*
X317682000Y-83934700I0J-140000D01*
G01*
G37*
G36*
G01*
X318642000Y-83934700D02*
X318642000Y-84274700D01*
G75*
G02*
X318502000Y-84414700I-140000J0D01*
G01*
X318222000Y-84414700D01*
G75*
G02*
X318082000Y-84274700I0J140000D01*
G01*
X318082000Y-83934700D01*
G75*
G02*
X318222000Y-83794700I140000J0D01*
G01*
X318502000Y-83794700D01*
G75*
G02*
X318642000Y-83934700I0J-140000D01*
G01*
G37*
%TD*%
%TO.C,C99*%
G36*
G01*
X317682000Y-63139000D02*
X317682000Y-63479000D01*
G75*
G02*
X317542000Y-63619000I-140000J0D01*
G01*
X317262000Y-63619000D01*
G75*
G02*
X317122000Y-63479000I0J140000D01*
G01*
X317122000Y-63139000D01*
G75*
G02*
X317262000Y-62999000I140000J0D01*
G01*
X317542000Y-62999000D01*
G75*
G02*
X317682000Y-63139000I0J-140000D01*
G01*
G37*
G36*
G01*
X318642000Y-63139000D02*
X318642000Y-63479000D01*
G75*
G02*
X318502000Y-63619000I-140000J0D01*
G01*
X318222000Y-63619000D01*
G75*
G02*
X318082000Y-63479000I0J140000D01*
G01*
X318082000Y-63139000D01*
G75*
G02*
X318222000Y-62999000I140000J0D01*
G01*
X318502000Y-62999000D01*
G75*
G02*
X318642000Y-63139000I0J-140000D01*
G01*
G37*
%TD*%
%TO.C,C87*%
G36*
G01*
X320222000Y-61325700D02*
X320222000Y-61665700D01*
G75*
G02*
X320082000Y-61805700I-140000J0D01*
G01*
X319802000Y-61805700D01*
G75*
G02*
X319662000Y-61665700I0J140000D01*
G01*
X319662000Y-61325700D01*
G75*
G02*
X319802000Y-61185700I140000J0D01*
G01*
X320082000Y-61185700D01*
G75*
G02*
X320222000Y-61325700I0J-140000D01*
G01*
G37*
G36*
G01*
X321182000Y-61325700D02*
X321182000Y-61665700D01*
G75*
G02*
X321042000Y-61805700I-140000J0D01*
G01*
X320762000Y-61805700D01*
G75*
G02*
X320622000Y-61665700I0J140000D01*
G01*
X320622000Y-61325700D01*
G75*
G02*
X320762000Y-61185700I140000J0D01*
G01*
X321042000Y-61185700D01*
G75*
G02*
X321182000Y-61325700I0J-140000D01*
G01*
G37*
%TD*%
%TO.C,C76*%
G36*
G01*
X320222000Y-77808600D02*
X320222000Y-78148600D01*
G75*
G02*
X320082000Y-78288600I-140000J0D01*
G01*
X319802000Y-78288600D01*
G75*
G02*
X319662000Y-78148600I0J140000D01*
G01*
X319662000Y-77808600D01*
G75*
G02*
X319802000Y-77668600I140000J0D01*
G01*
X320082000Y-77668600D01*
G75*
G02*
X320222000Y-77808600I0J-140000D01*
G01*
G37*
G36*
G01*
X321182000Y-77808600D02*
X321182000Y-78148600D01*
G75*
G02*
X321042000Y-78288600I-140000J0D01*
G01*
X320762000Y-78288600D01*
G75*
G02*
X320622000Y-78148600I0J140000D01*
G01*
X320622000Y-77808600D01*
G75*
G02*
X320762000Y-77668600I140000J0D01*
G01*
X321042000Y-77668600D01*
G75*
G02*
X321182000Y-77808600I0J-140000D01*
G01*
G37*
%TD*%
%TO.C,C94*%
G36*
G01*
X320222000Y-81030200D02*
X320222000Y-81370200D01*
G75*
G02*
X320082000Y-81510200I-140000J0D01*
G01*
X319802000Y-81510200D01*
G75*
G02*
X319662000Y-81370200I0J140000D01*
G01*
X319662000Y-81030200D01*
G75*
G02*
X319802000Y-80890200I140000J0D01*
G01*
X320082000Y-80890200D01*
G75*
G02*
X320222000Y-81030200I0J-140000D01*
G01*
G37*
G36*
G01*
X321182000Y-81030200D02*
X321182000Y-81370200D01*
G75*
G02*
X321042000Y-81510200I-140000J0D01*
G01*
X320762000Y-81510200D01*
G75*
G02*
X320622000Y-81370200I0J140000D01*
G01*
X320622000Y-81030200D01*
G75*
G02*
X320762000Y-80890200I140000J0D01*
G01*
X321042000Y-80890200D01*
G75*
G02*
X321182000Y-81030200I0J-140000D01*
G01*
G37*
%TD*%
%TO.C,C77*%
G36*
G01*
X320222000Y-85325600D02*
X320222000Y-85665600D01*
G75*
G02*
X320082000Y-85805600I-140000J0D01*
G01*
X319802000Y-85805600D01*
G75*
G02*
X319662000Y-85665600I0J140000D01*
G01*
X319662000Y-85325600D01*
G75*
G02*
X319802000Y-85185600I140000J0D01*
G01*
X320082000Y-85185600D01*
G75*
G02*
X320222000Y-85325600I0J-140000D01*
G01*
G37*
G36*
G01*
X321182000Y-85325600D02*
X321182000Y-85665600D01*
G75*
G02*
X321042000Y-85805600I-140000J0D01*
G01*
X320762000Y-85805600D01*
G75*
G02*
X320622000Y-85665600I0J140000D01*
G01*
X320622000Y-85325600D01*
G75*
G02*
X320762000Y-85185600I140000J0D01*
G01*
X321042000Y-85185600D01*
G75*
G02*
X321182000Y-85325600I0J-140000D01*
G01*
G37*
%TD*%
%TO.C,C69*%
G36*
G01*
X320222000Y-50587000D02*
X320222000Y-50927000D01*
G75*
G02*
X320082000Y-51067000I-140000J0D01*
G01*
X319802000Y-51067000D01*
G75*
G02*
X319662000Y-50927000I0J140000D01*
G01*
X319662000Y-50587000D01*
G75*
G02*
X319802000Y-50447000I140000J0D01*
G01*
X320082000Y-50447000D01*
G75*
G02*
X320222000Y-50587000I0J-140000D01*
G01*
G37*
G36*
G01*
X321182000Y-50587000D02*
X321182000Y-50927000D01*
G75*
G02*
X321042000Y-51067000I-140000J0D01*
G01*
X320762000Y-51067000D01*
G75*
G02*
X320622000Y-50927000I0J140000D01*
G01*
X320622000Y-50587000D01*
G75*
G02*
X320762000Y-50447000I140000J0D01*
G01*
X321042000Y-50447000D01*
G75*
G02*
X321182000Y-50587000I0J-140000D01*
G01*
G37*
%TD*%
%TO.C,C68*%
G36*
G01*
X320222000Y-94974000D02*
X320222000Y-95314000D01*
G75*
G02*
X320082000Y-95454000I-140000J0D01*
G01*
X319802000Y-95454000D01*
G75*
G02*
X319662000Y-95314000I0J140000D01*
G01*
X319662000Y-94974000D01*
G75*
G02*
X319802000Y-94834000I140000J0D01*
G01*
X320082000Y-94834000D01*
G75*
G02*
X320222000Y-94974000I0J-140000D01*
G01*
G37*
G36*
G01*
X321182000Y-94974000D02*
X321182000Y-95314000D01*
G75*
G02*
X321042000Y-95454000I-140000J0D01*
G01*
X320762000Y-95454000D01*
G75*
G02*
X320622000Y-95314000I0J140000D01*
G01*
X320622000Y-94974000D01*
G75*
G02*
X320762000Y-94834000I140000J0D01*
G01*
X321042000Y-94834000D01*
G75*
G02*
X321182000Y-94974000I0J-140000D01*
G01*
G37*
%TD*%
%TO.C,C72*%
G36*
G01*
X317682000Y-62060000D02*
X317682000Y-62400000D01*
G75*
G02*
X317542000Y-62540000I-140000J0D01*
G01*
X317262000Y-62540000D01*
G75*
G02*
X317122000Y-62400000I0J140000D01*
G01*
X317122000Y-62060000D01*
G75*
G02*
X317262000Y-61920000I140000J0D01*
G01*
X317542000Y-61920000D01*
G75*
G02*
X317682000Y-62060000I0J-140000D01*
G01*
G37*
G36*
G01*
X318642000Y-62060000D02*
X318642000Y-62400000D01*
G75*
G02*
X318502000Y-62540000I-140000J0D01*
G01*
X318222000Y-62540000D01*
G75*
G02*
X318082000Y-62400000I0J140000D01*
G01*
X318082000Y-62060000D01*
G75*
G02*
X318222000Y-61920000I140000J0D01*
G01*
X318502000Y-61920000D01*
G75*
G02*
X318642000Y-62060000I0J-140000D01*
G01*
G37*
%TD*%
%TO.C,C4*%
G36*
G01*
X321746000Y-120645000D02*
X321746000Y-120985000D01*
G75*
G02*
X321606000Y-121125000I-140000J0D01*
G01*
X321326000Y-121125000D01*
G75*
G02*
X321186000Y-120985000I0J140000D01*
G01*
X321186000Y-120645000D01*
G75*
G02*
X321326000Y-120505000I140000J0D01*
G01*
X321606000Y-120505000D01*
G75*
G02*
X321746000Y-120645000I0J-140000D01*
G01*
G37*
G36*
G01*
X322706000Y-120645000D02*
X322706000Y-120985000D01*
G75*
G02*
X322566000Y-121125000I-140000J0D01*
G01*
X322286000Y-121125000D01*
G75*
G02*
X322146000Y-120985000I0J140000D01*
G01*
X322146000Y-120645000D01*
G75*
G02*
X322286000Y-120505000I140000J0D01*
G01*
X322566000Y-120505000D01*
G75*
G02*
X322706000Y-120645000I0J-140000D01*
G01*
G37*
%TD*%
%TO.C,C7*%
G36*
G01*
X321746000Y-118503000D02*
X321746000Y-118843000D01*
G75*
G02*
X321606000Y-118983000I-140000J0D01*
G01*
X321326000Y-118983000D01*
G75*
G02*
X321186000Y-118843000I0J140000D01*
G01*
X321186000Y-118503000D01*
G75*
G02*
X321326000Y-118363000I140000J0D01*
G01*
X321606000Y-118363000D01*
G75*
G02*
X321746000Y-118503000I0J-140000D01*
G01*
G37*
G36*
G01*
X322706000Y-118503000D02*
X322706000Y-118843000D01*
G75*
G02*
X322566000Y-118983000I-140000J0D01*
G01*
X322286000Y-118983000D01*
G75*
G02*
X322146000Y-118843000I0J140000D01*
G01*
X322146000Y-118503000D01*
G75*
G02*
X322286000Y-118363000I140000J0D01*
G01*
X322566000Y-118363000D01*
G75*
G02*
X322706000Y-118503000I0J-140000D01*
G01*
G37*
%TD*%
%TO.C,C10*%
G36*
G01*
X320222000Y-64547300D02*
X320222000Y-64887300D01*
G75*
G02*
X320082000Y-65027300I-140000J0D01*
G01*
X319802000Y-65027300D01*
G75*
G02*
X319662000Y-64887300I0J140000D01*
G01*
X319662000Y-64547300D01*
G75*
G02*
X319802000Y-64407300I140000J0D01*
G01*
X320082000Y-64407300D01*
G75*
G02*
X320222000Y-64547300I0J-140000D01*
G01*
G37*
G36*
G01*
X321182000Y-64547300D02*
X321182000Y-64887300D01*
G75*
G02*
X321042000Y-65027300I-140000J0D01*
G01*
X320762000Y-65027300D01*
G75*
G02*
X320622000Y-64887300I0J140000D01*
G01*
X320622000Y-64547300D01*
G75*
G02*
X320762000Y-64407300I140000J0D01*
G01*
X321042000Y-64407300D01*
G75*
G02*
X321182000Y-64547300I0J-140000D01*
G01*
G37*
%TD*%
%TO.C,C14*%
G36*
G01*
X320222000Y-97121700D02*
X320222000Y-97461700D01*
G75*
G02*
X320082000Y-97601700I-140000J0D01*
G01*
X319802000Y-97601700D01*
G75*
G02*
X319662000Y-97461700I0J140000D01*
G01*
X319662000Y-97121700D01*
G75*
G02*
X319802000Y-96981700I140000J0D01*
G01*
X320082000Y-96981700D01*
G75*
G02*
X320222000Y-97121700I0J-140000D01*
G01*
G37*
G36*
G01*
X321182000Y-97121700D02*
X321182000Y-97461700D01*
G75*
G02*
X321042000Y-97601700I-140000J0D01*
G01*
X320762000Y-97601700D01*
G75*
G02*
X320622000Y-97461700I0J140000D01*
G01*
X320622000Y-97121700D01*
G75*
G02*
X320762000Y-96981700I140000J0D01*
G01*
X321042000Y-96981700D01*
G75*
G02*
X321182000Y-97121700I0J-140000D01*
G01*
G37*
%TD*%
%TO.C,C2*%
G36*
G01*
X320222000Y-96047800D02*
X320222000Y-96387800D01*
G75*
G02*
X320082000Y-96527800I-140000J0D01*
G01*
X319802000Y-96527800D01*
G75*
G02*
X319662000Y-96387800I0J140000D01*
G01*
X319662000Y-96047800D01*
G75*
G02*
X319802000Y-95907800I140000J0D01*
G01*
X320082000Y-95907800D01*
G75*
G02*
X320222000Y-96047800I0J-140000D01*
G01*
G37*
G36*
G01*
X321182000Y-96047800D02*
X321182000Y-96387800D01*
G75*
G02*
X321042000Y-96527800I-140000J0D01*
G01*
X320762000Y-96527800D01*
G75*
G02*
X320622000Y-96387800I0J140000D01*
G01*
X320622000Y-96047800D01*
G75*
G02*
X320762000Y-95907800I140000J0D01*
G01*
X321042000Y-95907800D01*
G75*
G02*
X321182000Y-96047800I0J-140000D01*
G01*
G37*
%TD*%
%TO.C,C12*%
G36*
G01*
X321753000Y-121664000D02*
X321753000Y-122004000D01*
G75*
G02*
X321613000Y-122144000I-140000J0D01*
G01*
X321333000Y-122144000D01*
G75*
G02*
X321193000Y-122004000I0J140000D01*
G01*
X321193000Y-121664000D01*
G75*
G02*
X321333000Y-121524000I140000J0D01*
G01*
X321613000Y-121524000D01*
G75*
G02*
X321753000Y-121664000I0J-140000D01*
G01*
G37*
G36*
G01*
X322713000Y-121664000D02*
X322713000Y-122004000D01*
G75*
G02*
X322573000Y-122144000I-140000J0D01*
G01*
X322293000Y-122144000D01*
G75*
G02*
X322153000Y-122004000I0J140000D01*
G01*
X322153000Y-121664000D01*
G75*
G02*
X322293000Y-121524000I140000J0D01*
G01*
X322573000Y-121524000D01*
G75*
G02*
X322713000Y-121664000I0J-140000D01*
G01*
G37*
%TD*%
%TO.C,C1*%
G36*
G01*
X317682000Y-87156300D02*
X317682000Y-87496300D01*
G75*
G02*
X317542000Y-87636300I-140000J0D01*
G01*
X317262000Y-87636300D01*
G75*
G02*
X317122000Y-87496300I0J140000D01*
G01*
X317122000Y-87156300D01*
G75*
G02*
X317262000Y-87016300I140000J0D01*
G01*
X317542000Y-87016300D01*
G75*
G02*
X317682000Y-87156300I0J-140000D01*
G01*
G37*
G36*
G01*
X318642000Y-87156300D02*
X318642000Y-87496300D01*
G75*
G02*
X318502000Y-87636300I-140000J0D01*
G01*
X318222000Y-87636300D01*
G75*
G02*
X318082000Y-87496300I0J140000D01*
G01*
X318082000Y-87156300D01*
G75*
G02*
X318222000Y-87016300I140000J0D01*
G01*
X318502000Y-87016300D01*
G75*
G02*
X318642000Y-87156300I0J-140000D01*
G01*
G37*
%TD*%
M02*
