%TF.GenerationSoftware,KiCad,Pcbnew,(5.1.10)-1*%
%TF.CreationDate,2021-09-06T19:19:32-07:00*%
%TF.ProjectId,chgray-keyboard,63686772-6179-42d6-9b65-79626f617264,Yeet2*%
%TF.SameCoordinates,Original*%
%TF.FileFunction,Legend,Bot*%
%TF.FilePolarity,Positive*%
%FSLAX46Y46*%
G04 Gerber Fmt 4.6, Leading zero omitted, Abs format (unit mm)*
G04 Created by KiCad (PCBNEW (5.1.10)-1) date 2021-09-06 19:19:32*
%MOMM*%
%LPD*%
G01*
G04 APERTURE LIST*
%ADD10C,0.100000*%
%ADD11C,0.950000*%
G04 APERTURE END LIST*
D10*
G36*
X247015000Y-47625000D02*
G01*
X232410000Y-109061250D01*
X147955000Y-92868750D01*
X165100000Y-71596250D01*
X207010000Y-67786250D01*
X202565000Y-78581250D01*
X161290000Y-88423750D01*
X212090000Y-95408750D01*
X227330000Y-84296250D01*
X217805000Y-50006250D01*
X190023750Y-51196875D01*
X202406250Y-36115625D01*
X247015000Y-47625000D01*
G37*
X247015000Y-47625000D02*
X232410000Y-109061250D01*
X147955000Y-92868750D01*
X165100000Y-71596250D01*
X207010000Y-67786250D01*
X202565000Y-78581250D01*
X161290000Y-88423750D01*
X212090000Y-95408750D01*
X227330000Y-84296250D01*
X217805000Y-50006250D01*
X190023750Y-51196875D01*
X202406250Y-36115625D01*
X247015000Y-47625000D01*
G36*
X328279760Y-37480240D02*
G01*
X328914760Y-38115240D01*
X360029760Y-95900240D01*
X305419760Y-114315240D01*
X238744760Y-92090240D01*
X250174760Y-78120240D01*
X323834760Y-91455240D01*
X304784760Y-29860240D01*
X328279760Y-37480240D01*
G37*
X328279760Y-37480240D02*
X328914760Y-38115240D01*
X360029760Y-95900240D01*
X305419760Y-114315240D01*
X238744760Y-92090240D01*
X250174760Y-78120240D01*
X323834760Y-91455240D01*
X304784760Y-29860240D01*
X328279760Y-37480240D01*
D11*
X41764666Y-22825666D02*
X41764666Y-19492333D01*
X34764666Y-19492333D01*
X34764666Y-26492333D02*
X34764666Y-27825666D01*
X35098000Y-28492333D01*
X35764666Y-29159000D01*
X37098000Y-29492333D01*
X39431333Y-29492333D01*
X40764666Y-29159000D01*
X41431333Y-28492333D01*
X41764666Y-27825666D01*
X41764666Y-26492333D01*
X41431333Y-25825666D01*
X40764666Y-25159000D01*
X39431333Y-24825666D01*
X37098000Y-24825666D01*
X35764666Y-25159000D01*
X35098000Y-25825666D01*
X34764666Y-26492333D01*
X35098000Y-36159000D02*
X34764666Y-35492333D01*
X34764666Y-34492333D01*
X35098000Y-33492333D01*
X35764666Y-32825666D01*
X36431333Y-32492333D01*
X37764666Y-32159000D01*
X38764666Y-32159000D01*
X40098000Y-32492333D01*
X40764666Y-32825666D01*
X41431333Y-33492333D01*
X41764666Y-34492333D01*
X41764666Y-35159000D01*
X41431333Y-36159000D01*
X41098000Y-36492333D01*
X38764666Y-36492333D01*
X38764666Y-35159000D01*
X34764666Y-40825666D02*
X34764666Y-41492333D01*
X35098000Y-42159000D01*
X35431333Y-42492333D01*
X36098000Y-42825666D01*
X37431333Y-43159000D01*
X39098000Y-43159000D01*
X40431333Y-42825666D01*
X41098000Y-42492333D01*
X41431333Y-42159000D01*
X41764666Y-41492333D01*
X41764666Y-40825666D01*
X41431333Y-40159000D01*
X41098000Y-39825666D01*
X40431333Y-39492333D01*
X39098000Y-39159000D01*
X37431333Y-39159000D01*
X36098000Y-39492333D01*
X35431333Y-39825666D01*
X35098000Y-40159000D01*
X34764666Y-40825666D01*
X41098000Y-46159000D02*
X41431333Y-46492333D01*
X41764666Y-46159000D01*
X41431333Y-45825666D01*
X41098000Y-46159000D01*
X41764666Y-46159000D01*
X41764666Y-49492333D02*
X34764666Y-49492333D01*
X41764666Y-53492333D02*
X37764666Y-50492333D01*
X34764666Y-53492333D02*
X38764666Y-49492333D01*
X41431333Y-59159000D02*
X41764666Y-58492333D01*
X41764666Y-57159000D01*
X41431333Y-56492333D01*
X40764666Y-56159000D01*
X38098000Y-56159000D01*
X37431333Y-56492333D01*
X37098000Y-57159000D01*
X37098000Y-58492333D01*
X37431333Y-59159000D01*
X38098000Y-59492333D01*
X38764666Y-59492333D01*
X39431333Y-56159000D01*
X37098000Y-61825666D02*
X41764666Y-63492333D01*
X37098000Y-65159000D02*
X41764666Y-63492333D01*
X43431333Y-62825666D01*
X43764666Y-62492333D01*
X44098000Y-61825666D01*
X41098000Y-67825666D02*
X41431333Y-68159000D01*
X41764666Y-67825666D01*
X41431333Y-67492333D01*
X41098000Y-67825666D01*
X41764666Y-67825666D01*
X38431333Y-72492333D02*
X41764666Y-72492333D01*
X34764666Y-70159000D02*
X38431333Y-72492333D01*
X34764666Y-74825666D01*
X41431333Y-79825666D02*
X41764666Y-79159000D01*
X41764666Y-77825666D01*
X41431333Y-77159000D01*
X40764666Y-76825666D01*
X38098000Y-76825666D01*
X37431333Y-77159000D01*
X37098000Y-77825666D01*
X37098000Y-79159000D01*
X37431333Y-79825666D01*
X38098000Y-80159000D01*
X38764666Y-80159000D01*
X39431333Y-76825666D01*
X41431333Y-85825666D02*
X41764666Y-85159000D01*
X41764666Y-83825666D01*
X41431333Y-83159000D01*
X40764666Y-82825666D01*
X38098000Y-82825666D01*
X37431333Y-83159000D01*
X37098000Y-83825666D01*
X37098000Y-85159000D01*
X37431333Y-85825666D01*
X38098000Y-86159000D01*
X38764666Y-86159000D01*
X39431333Y-82825666D01*
X37098000Y-88159000D02*
X37098000Y-90825666D01*
X34764666Y-89159000D02*
X40764666Y-89159000D01*
X41431333Y-89492333D01*
X41764666Y-90159000D01*
X41764666Y-90825666D01*
X34764666Y-97825666D02*
X34764666Y-102159000D01*
X37431333Y-99825666D01*
X37431333Y-100825666D01*
X37764666Y-101492333D01*
X38098000Y-101825666D01*
X38764666Y-102159000D01*
X40431333Y-102159000D01*
X41098000Y-101825666D01*
X41431333Y-101492333D01*
X41764666Y-100825666D01*
X41764666Y-98825666D01*
X41431333Y-98159000D01*
X41098000Y-97825666D01*
X41098000Y-105159000D02*
X41431333Y-105492333D01*
X41764666Y-105159000D01*
X41431333Y-104825666D01*
X41098000Y-105159000D01*
X41764666Y-105159000D01*
X34764666Y-109825666D02*
X34764666Y-110492333D01*
X35098000Y-111159000D01*
X35431333Y-111492333D01*
X36098000Y-111825666D01*
X37431333Y-112159000D01*
X39098000Y-112159000D01*
X40431333Y-111825666D01*
X41098000Y-111492333D01*
X41431333Y-111159000D01*
X41764666Y-110492333D01*
X41764666Y-109825666D01*
X41431333Y-109159000D01*
X41098000Y-108825666D01*
X40431333Y-108492333D01*
X39098000Y-108159000D01*
X37431333Y-108159000D01*
X36098000Y-108492333D01*
X35431333Y-108825666D01*
X35098000Y-109159000D01*
X34764666Y-109825666D01*
M02*
