M48
; DRILL file {KiCad 5.1.6+dfsg1-1} date Thu Jun 10 17:02:17 2021
; FORMAT={-:-/ absolute / inch / decimal}
; #@! TF.CreationDate,2021-06-10T17:02:17-07:00
; #@! TF.GenerationSoftware,Kicad,Pcbnew,5.1.6+dfsg1-1
; #@! TF.FileFunction,NonPlated,1,2,NPTH
FMAT,2
INCH
T1C0.0354
T2C0.0670
T3C0.1181
T4C0.1200
T5C0.1570
%
G90
G05
T1
X12.6344Y-1.1226
X12.8076Y-1.1226
T2
X1.5804Y-2.2352
X1.9804Y-2.2352
X11.7054Y-2.2352
X12.1054Y-2.2352
X3.08Y-3.735
X3.48Y-3.735
X9.08Y-3.735
X9.48Y-3.735
X5.6254Y-4.4896
X6.0254Y-4.4896
X15.435Y-4.475
X15.835Y-4.475
X4.205Y-2.985
X4.605Y-2.985
X7.39Y-1.4832
X7.79Y-1.4832
X13.935Y-3.725
X14.335Y-3.725
X14.685Y-2.225
X15.085Y-2.225
X14.685Y-1.475
X15.085Y-1.475
X11.4204Y-2.9846
X11.8204Y-2.9846
X11.2404Y-3.7346
X11.6404Y-3.7346
X14.685Y-4.475
X15.085Y-4.475
X1.6742Y-2.9846
X2.0742Y-2.9846
X8.695Y-2.985
X9.095Y-2.985
X15.435Y-1.475
X15.835Y-1.475
X9.64Y-1.4832
X10.04Y-1.4832
X7.595Y-4.49
X7.995Y-4.49
X7.58Y-3.735
X7.98Y-3.735
X8.14Y-1.4832
X8.54Y-1.4832
X5.52Y-2.235
X5.92Y-2.235
X8.89Y-1.4832
X9.29Y-1.4832
X13.185Y-3.725
X13.585Y-3.725
X13.185Y-2.225
X13.585Y-2.225
X4.39Y-1.4832
X4.79Y-1.4832
X13.935Y-1.475
X14.335Y-1.475
X11.8204Y-4.4896
X12.2204Y-4.4896
X1.4904Y-4.4896
X1.8904Y-4.4896
X3.3704Y-4.4896
X3.7704Y-4.4896
X8.52Y-2.235
X8.92Y-2.235
X3.64Y-1.4832
X4.04Y-1.4832
X13.935Y-2.975
X14.335Y-2.975
X4.3104Y-4.4896
X4.7104Y-4.4896
X4.02Y-2.235
X4.42Y-2.235
X5.695Y-2.985
X6.095Y-2.985
X4.58Y-3.735
X4.98Y-3.735
X6.27Y-2.235
X6.67Y-2.235
X6.08Y-3.735
X6.48Y-3.735
X6.845Y-4.49
X7.245Y-4.49
X11.5154Y-1.4835
X11.9154Y-1.4835
X10.77Y-2.235
X11.17Y-2.235
X4.955Y-2.985
X5.355Y-2.985
X13.185Y-2.975
X13.585Y-2.975
X5.33Y-3.735
X5.73Y-3.735
X13.935Y-2.225
X14.335Y-2.225
X7.77Y-2.235
X8.17Y-2.235
X7.945Y-2.985
X8.345Y-2.985
X4.77Y-2.235
X5.17Y-2.235
X7.195Y-2.985
X7.595Y-2.985
X13.185Y-4.475
X13.585Y-4.475
X5.14Y-1.4832
X5.54Y-1.4832
X15.435Y-3.725
X15.835Y-3.725
X6.445Y-2.985
X6.845Y-2.985
X7.02Y-2.235
X7.42Y-2.235
X9.27Y-2.235
X9.67Y-2.235
X5.89Y-1.4832
X6.29Y-1.4832
X2.52Y-2.235
X2.92Y-2.235
X13.935Y-4.475
X14.335Y-4.475
X2.14Y-1.4832
X2.54Y-1.4832
X15.435Y-2.225
X15.835Y-2.225
X14.685Y-3.725
X15.085Y-3.725
X10.975Y-4.49
X11.375Y-4.49
X1.3869Y-1.4832
X1.7869Y-1.4832
X8.8154Y-4.4896
X9.2154Y-4.4896
X1.8629Y-3.7346
X2.2629Y-3.7346
X13.185Y-1.475
X13.585Y-1.475
X10.1254Y-4.4896
X10.5254Y-4.4896
X10.39Y-1.4832
X10.79Y-1.4832
X10.195Y-2.985
X10.595Y-2.985
X3.455Y-2.985
X3.855Y-2.985
X14.685Y-2.975
X15.085Y-2.975
X3.83Y-3.735
X4.23Y-3.735
X3.27Y-2.235
X3.67Y-2.235
X6.83Y-3.735
X7.23Y-3.735
X6.64Y-1.4832
X7.04Y-1.4832
X10.02Y-2.235
X10.42Y-2.235
X2.89Y-1.4832
X3.29Y-1.4832
X9.83Y-3.735
X10.23Y-3.735
X8.33Y-3.735
X8.73Y-3.735
X2.705Y-2.985
X3.105Y-2.985
X15.435Y-2.975
X15.835Y-2.975
X2.4304Y-4.4896
X2.8304Y-4.4896
X9.445Y-2.985
X9.845Y-2.985
T3
X4.44Y-1.3832
X4.69Y-1.2832
X13.985Y-1.375
X14.235Y-1.275
X11.8704Y-4.3896
X12.1204Y-4.2896
X1.5404Y-4.3896
X1.7904Y-4.2896
X3.4204Y-4.3896
X3.6704Y-4.2896
X8.57Y-2.135
X8.82Y-2.035
X3.69Y-1.3832
X3.94Y-1.2832
X13.985Y-2.875
X14.235Y-2.775
X4.3604Y-4.3896
X4.6104Y-4.2896
X4.07Y-2.135
X4.32Y-2.035
X5.745Y-2.885
X5.995Y-2.785
X4.63Y-3.635
X4.88Y-3.535
X6.32Y-2.135
X6.57Y-2.035
X6.13Y-3.635
X6.38Y-3.535
X6.895Y-4.39
X7.145Y-4.29
X11.5654Y-1.3835
X11.8154Y-1.2835
X10.82Y-2.135
X11.07Y-2.035
X5.005Y-2.885
X5.255Y-2.785
X13.235Y-2.875
X13.485Y-2.775
X5.38Y-3.635
X5.63Y-3.535
X13.985Y-2.125
X14.235Y-2.025
X7.82Y-2.135
X8.07Y-2.035
X7.995Y-2.885
X8.245Y-2.785
X4.82Y-2.135
X5.07Y-2.035
X7.245Y-2.885
X7.495Y-2.785
X13.235Y-4.375
X13.485Y-4.275
X5.19Y-1.3832
X5.44Y-1.2832
X15.485Y-3.625
X15.735Y-3.525
X6.495Y-2.885
X6.745Y-2.785
X7.07Y-2.135
X7.32Y-2.035
X9.32Y-2.135
X9.57Y-2.035
X5.94Y-1.3832
X6.19Y-1.2832
X2.57Y-2.135
X2.82Y-2.035
X13.985Y-4.375
X14.235Y-4.275
X2.19Y-1.3832
X2.44Y-1.2832
X15.485Y-2.125
X15.735Y-2.025
X14.735Y-3.625
X14.985Y-3.525
X11.025Y-4.39
X11.275Y-4.29
X1.4369Y-1.3832
X1.6869Y-1.2832
X8.8654Y-4.3896
X9.1154Y-4.2896
X1.9129Y-3.6346
X2.1629Y-3.5346
X13.235Y-1.375
X13.485Y-1.275
X10.1754Y-4.3896
X10.4254Y-4.2896
X10.44Y-1.3832
X10.69Y-1.2832
X10.245Y-2.885
X10.495Y-2.785
X3.505Y-2.885
X3.755Y-2.785
X14.735Y-2.875
X14.985Y-2.775
X3.88Y-3.635
X4.13Y-3.535
X3.32Y-2.135
X3.57Y-2.035
X6.88Y-3.635
X7.13Y-3.535
X6.69Y-1.3832
X6.94Y-1.2832
X10.07Y-2.135
X10.32Y-2.035
X2.94Y-1.3832
X3.19Y-1.2832
X9.88Y-3.635
X10.13Y-3.535
X8.38Y-3.635
X8.63Y-3.535
X2.755Y-2.885
X3.005Y-2.785
X15.485Y-2.875
X15.735Y-2.775
X2.4804Y-4.3896
X2.7304Y-4.2896
X9.495Y-2.885
X9.745Y-2.785
X1.6304Y-2.1352
X1.8804Y-2.0352
X11.7554Y-2.1352
X12.0054Y-2.0352
X3.13Y-3.635
X3.38Y-3.535
X9.13Y-3.635
X9.38Y-3.535
X5.6754Y-4.3896
X5.9254Y-4.2896
X15.485Y-4.375
X15.735Y-4.275
X4.255Y-2.885
X4.505Y-2.785
X7.44Y-1.3832
X7.69Y-1.2832
X13.985Y-3.625
X14.235Y-3.525
X14.735Y-2.125
X14.985Y-2.025
X14.735Y-1.375
X14.985Y-1.275
X11.4704Y-2.8846
X11.7204Y-2.7846
X11.2904Y-3.6346
X11.5404Y-3.5346
X14.735Y-4.375
X14.985Y-4.275
X1.7242Y-2.8846
X1.9742Y-2.7846
X8.745Y-2.885
X8.995Y-2.785
X15.485Y-1.375
X15.735Y-1.275
X9.69Y-1.3832
X9.94Y-1.2832
X7.645Y-4.39
X7.895Y-4.29
X7.63Y-3.635
X7.88Y-3.535
X8.19Y-1.3832
X8.44Y-1.2832
X5.57Y-2.135
X5.82Y-2.035
X8.94Y-1.3832
X9.19Y-1.2832
X13.235Y-3.625
X13.485Y-3.525
X13.235Y-2.125
X13.485Y-2.025
T4
X12.09Y-2.71
X11.245Y-1.2089
X8.545Y-4.215
X9.485Y-4.215
X1.5925Y-3.46
X2.5325Y-3.46
X5.355Y-4.215
X6.295Y-4.215
X11.15Y-2.71
X10.97Y-3.46
X11.91Y-3.46
X12.185Y-1.2089
T5
X9.645Y-2.985
X1.7804Y-2.2352
X11.9054Y-2.2352
X3.28Y-3.735
X9.28Y-3.735
X5.355Y-4.815
X5.8254Y-4.4896
X6.295Y-4.815
X15.635Y-4.475
X4.405Y-2.985
X7.59Y-1.4832
X14.135Y-3.725
X14.885Y-2.225
X14.885Y-1.475
X11.15Y-3.31
X11.6204Y-2.9846
X12.09Y-3.31
X10.97Y-4.06
X11.4404Y-3.7346
X11.91Y-4.06
X14.885Y-4.475
X1.8742Y-2.9846
X8.895Y-2.985
X15.635Y-1.475
X9.84Y-1.4832
X7.795Y-4.49
X7.78Y-3.735
X8.34Y-1.4832
X5.72Y-2.235
X9.09Y-1.4832
X13.385Y-3.725
X13.385Y-2.225
X4.59Y-1.4832
X14.135Y-1.475
X12.0204Y-4.4896
X1.6904Y-4.4896
X3.5704Y-4.4896
X8.72Y-2.235
X3.84Y-1.4832
X14.135Y-2.975
X4.5104Y-4.4896
X4.22Y-2.235
X5.895Y-2.985
X4.78Y-3.735
X6.47Y-2.235
X6.28Y-3.735
X7.045Y-4.49
X11.245Y-1.8089
X11.7154Y-1.4835
X12.185Y-1.8089
X10.97Y-2.235
X5.155Y-2.985
X13.385Y-2.975
X5.53Y-3.735
X14.135Y-2.225
X7.97Y-2.235
X8.145Y-2.985
X4.97Y-2.235
X7.395Y-2.985
X13.385Y-4.475
X5.34Y-1.4832
X15.635Y-3.725
X6.645Y-2.985
X7.22Y-2.235
X9.47Y-2.235
X6.09Y-1.4832
X2.72Y-2.235
X14.135Y-4.475
X2.34Y-1.4832
X15.635Y-2.225
X14.885Y-3.725
X11.175Y-4.49
X1.5869Y-1.4832
X8.545Y-4.815
X9.0154Y-4.4896
X9.485Y-4.815
X1.5925Y-4.06
X2.0629Y-3.7346
X2.5325Y-4.06
X13.385Y-1.475
X10.3254Y-4.4896
X10.59Y-1.4832
X10.395Y-2.985
X3.655Y-2.985
X14.885Y-2.975
X4.03Y-3.735
X3.47Y-2.235
X7.03Y-3.735
X6.84Y-1.4832
X10.22Y-2.235
X3.09Y-1.4832
X10.03Y-3.735
X8.53Y-3.735
X2.905Y-2.985
X15.635Y-2.975
X2.6304Y-4.4896
T0
M30
