%TF.GenerationSoftware,KiCad,Pcbnew,(5.1.10)-1*%
%TF.CreationDate,2022-01-02T11:55:34-08:00*%
%TF.ProjectId,chgray-keyboard,63686772-6179-42d6-9b65-79626f617264,Yeet2*%
%TF.SameCoordinates,Original*%
%TF.FileFunction,Profile,NP*%
%FSLAX46Y46*%
G04 Gerber Fmt 4.6, Leading zero omitted, Abs format (unit mm)*
G04 Created by KiCad (PCBNEW (5.1.10)-1) date 2022-01-02 11:55:34*
%MOMM*%
%LPD*%
G01*
G04 APERTURE LIST*
%TA.AperFunction,Profile*%
%ADD10C,0.200000*%
%TD*%
%TA.AperFunction,Profile*%
%ADD11C,0.100000*%
%TD*%
G04 APERTURE END LIST*
D10*
X315137800Y-2794000D02*
X315137800Y-12115800D01*
X324002400Y-12115800D02*
X315137800Y-12115800D01*
X324002400Y-2794000D02*
X324002400Y-12115800D01*
X25205600Y-2802800D02*
X315137800Y-2794000D01*
X383472600Y-2802800D02*
X324002400Y-2794000D01*
X321810410Y-116717800D02*
G75*
G03*
X321810410Y-116717800I-2726810J0D01*
G01*
X265388600Y-104529800D02*
G75*
G03*
X265388600Y-104529800I-1550000J0D01*
G01*
X382482600Y-65794800D02*
G75*
G03*
X382482600Y-65794800I-1550000J0D01*
G01*
X138769600Y-4866800D02*
G75*
G03*
X138769600Y-4866800I-1550000J0D01*
G01*
X227034600Y-104275800D02*
G75*
G03*
X227034600Y-104275800I-1550000J0D01*
G01*
X249386600Y-4866800D02*
G75*
G03*
X249386600Y-4866800I-1550000J0D01*
G01*
X382482600Y-4866800D02*
G75*
G03*
X382482600Y-4866800I-1550000J0D01*
G01*
X272272600Y-85479800D02*
G75*
G03*
X272272600Y-85479800I-1550000J0D01*
G01*
X29422600Y-122309800D02*
G75*
G03*
X29422600Y-122309800I-1550000J0D01*
G01*
X361146600Y-85352800D02*
G75*
G03*
X361146600Y-85352800I-1550000J0D01*
G01*
X213504600Y-63550800D02*
X213504600Y-49750800D01*
X25205600Y-126246800D02*
X383472600Y-126246800D01*
X25205600Y-126246800D02*
X25205600Y-2802800D01*
X382482600Y-122309800D02*
G75*
G03*
X382482600Y-122309800I-1550000J0D01*
G01*
X29422600Y-66048800D02*
G75*
G03*
X29422600Y-66048800I-1550000J0D01*
G01*
X203666600Y-28075800D02*
G75*
G03*
X203666600Y-28075800I-1550000J0D01*
G01*
X29422600Y-4866800D02*
G75*
G03*
X29422600Y-4866800I-1550000J0D01*
G01*
X89366600Y-28456800D02*
G75*
G03*
X89366600Y-28456800I-1550000J0D01*
G01*
X342223600Y-66302800D02*
G75*
G03*
X342223600Y-66302800I-1550000J0D01*
G01*
X94065600Y-104275800D02*
G75*
G03*
X94065600Y-104275800I-1550000J0D01*
G01*
X361146600Y-28583800D02*
G75*
G03*
X361146600Y-28583800I-1550000J0D01*
G01*
X242147600Y-28202800D02*
G75*
G03*
X242147600Y-28202800I-1550000J0D01*
G01*
X383472600Y-2802800D02*
X383472600Y-126246800D01*
X127593600Y-28075800D02*
G75*
G03*
X127593600Y-28075800I-1550000J0D01*
G01*
X281025600Y-28654800D02*
X281025600Y-48274800D01*
X290625600Y-30954800D02*
X304425600Y-30954800D01*
X60502300Y-103127800D02*
X68762300Y-103127800D01*
X305705600Y-48244800D02*
X313965600Y-48244800D01*
X305705600Y-28654800D02*
X305705600Y-48244800D01*
X109618600Y-25577800D02*
X109618600Y-11777800D01*
X52097300Y-63694000D02*
X38297300Y-63694000D01*
X123418600Y-11777800D02*
X123418600Y-25577800D01*
X45442300Y-87977800D02*
X59242300Y-87977800D01*
X238015600Y-68927800D02*
X251815600Y-68927800D01*
X251815600Y-68927800D02*
X251815600Y-82727800D01*
X40679800Y-68927800D02*
X54479800Y-68927800D01*
X281025600Y-28654800D02*
X289285600Y-28654800D01*
X38297300Y-49894000D02*
X52097300Y-49894000D01*
X54479800Y-82727800D02*
X40679800Y-82727800D01*
X305705600Y-28654800D02*
X313965600Y-28654800D01*
X241909600Y-87977800D02*
X241909600Y-101777800D01*
X228109600Y-87977800D02*
X241909600Y-87977800D01*
X241909600Y-101777800D02*
X228109600Y-101777800D01*
X49717300Y-107154800D02*
X49717300Y-120954800D01*
X38297300Y-63694000D02*
X38297300Y-49894000D01*
X313965600Y-28654800D02*
X313965600Y-48244800D01*
X68762300Y-88127800D02*
X68762300Y-103127800D01*
X35962300Y-88127800D02*
X44222300Y-88127800D01*
X59242300Y-87977800D02*
X59242300Y-101777800D01*
X45442300Y-101777800D02*
X45442300Y-87977800D01*
X40679800Y-82727800D02*
X40679800Y-68927800D01*
X109618600Y-11777800D02*
X123418600Y-11777800D01*
X35962300Y-88127800D02*
X35962300Y-103127800D01*
X52097300Y-49894000D02*
X52097300Y-63694000D01*
X304425600Y-44754800D02*
X290625600Y-44754800D01*
X251815600Y-82727800D02*
X238015600Y-82727800D01*
X281025600Y-48274800D02*
X289285600Y-48274800D01*
X59242300Y-101777800D02*
X45442300Y-101777800D01*
X304425600Y-30954800D02*
X304425600Y-44754800D01*
X35962300Y-103127800D02*
X44222300Y-103127800D01*
X290625600Y-44754800D02*
X290625600Y-30954800D01*
X60502300Y-88127800D02*
X60502300Y-103127800D01*
X52468600Y-44582700D02*
X52468600Y-30782700D01*
X54479800Y-68927800D02*
X54479800Y-82727800D01*
X289285600Y-28654800D02*
X289285600Y-48274800D01*
X228109600Y-101777800D02*
X228109600Y-87977800D01*
X44222300Y-88127800D02*
X44222300Y-103127800D01*
X60502300Y-88127800D02*
X68762300Y-88127800D01*
X123418600Y-25577800D02*
X109618600Y-25577800D01*
X238015600Y-82727800D02*
X238015600Y-68927800D01*
X273956600Y-120954800D02*
X273956600Y-107154800D01*
X343247600Y-30954800D02*
X357047600Y-30954800D01*
X273956600Y-107154800D02*
X287756600Y-107154800D01*
X357047600Y-30954800D02*
X357047600Y-44754800D01*
X287756600Y-120954800D02*
X273956600Y-120954800D01*
X343247600Y-44754800D02*
X343247600Y-30954800D01*
X287756600Y-107154800D02*
X287756600Y-120954800D01*
X357047600Y-44754800D02*
X343247600Y-44754800D01*
X71518600Y-11777800D02*
X85318600Y-11777800D01*
X132986600Y-87977800D02*
X146786600Y-87977800D01*
X265277600Y-63550800D02*
X251477600Y-63550800D01*
X142765600Y-82727800D02*
X142765600Y-68927800D01*
X166768600Y-25577800D02*
X166768600Y-11777800D01*
X146786600Y-87977800D02*
X146786600Y-101777800D01*
X137769600Y-82727800D02*
X123969600Y-82727800D01*
X132986600Y-101777800D02*
X132986600Y-87977800D01*
X123418600Y-30782700D02*
X123418600Y-44582700D01*
X146786600Y-101777800D02*
X132986600Y-101777800D01*
X151612600Y-49750800D02*
X151612600Y-63550800D01*
X142765600Y-68927800D02*
X156565600Y-68927800D01*
X156565600Y-68927800D02*
X156565600Y-82727800D01*
X156565600Y-82727800D02*
X142765600Y-82727800D01*
X151612600Y-63550800D02*
X137812600Y-63550800D01*
X137812600Y-63550800D02*
X137812600Y-49750800D01*
X128668599Y-30782700D02*
X142468600Y-30782700D01*
X95140600Y-87977800D02*
X108940600Y-87977800D01*
X142468600Y-30782700D02*
X142468600Y-44582700D01*
X128668599Y-44582700D02*
X128668599Y-30782700D01*
X123418600Y-44582700D02*
X109618600Y-44582700D01*
X109618600Y-44582700D02*
X109618600Y-30782700D01*
X232427600Y-49750800D02*
X246227600Y-49750800D01*
X265277600Y-49750800D02*
X265277600Y-63550800D01*
X123969600Y-82727800D02*
X123969600Y-68927800D01*
X246227600Y-49750800D02*
X246227600Y-63550800D01*
X118889600Y-49750800D02*
X132689600Y-49750800D01*
X137769600Y-68927800D02*
X137769600Y-82727800D01*
X142468600Y-44582700D02*
X128668599Y-44582700D01*
X123969600Y-68927800D02*
X137769600Y-68927800D01*
X109618600Y-30782700D02*
X123418600Y-30782700D01*
X251477600Y-63550800D02*
X251477600Y-49750800D01*
X114063600Y-87977800D02*
X127863600Y-87977800D01*
X246227600Y-63550800D02*
X232427600Y-63550800D01*
X180568600Y-25577800D02*
X166768600Y-25577800D01*
X137812600Y-49750800D02*
X151612600Y-49750800D01*
X118889600Y-63550800D02*
X118889600Y-49750800D01*
X161815600Y-82727800D02*
X161815600Y-68927800D01*
X114063600Y-101777800D02*
X114063600Y-87977800D01*
X180568600Y-11777800D02*
X180568600Y-25577800D01*
X132689600Y-63550800D02*
X118889600Y-63550800D01*
X251477600Y-49750800D02*
X265277600Y-49750800D01*
X127863600Y-101777800D02*
X114063600Y-101777800D01*
X232427600Y-63550800D02*
X232427600Y-49750800D01*
X127863600Y-87977800D02*
X127863600Y-101777800D01*
X132689600Y-49750800D02*
X132689600Y-63550800D01*
X166768600Y-11777800D02*
X180568600Y-11777800D01*
X62120600Y-49750800D02*
X75920600Y-49750800D01*
X108940600Y-101777800D02*
X95140600Y-101777800D01*
X85318600Y-30782700D02*
X85318600Y-44582700D01*
X104919600Y-68927800D02*
X118719600Y-68927800D01*
X90568600Y-30782700D02*
X104368600Y-30782700D01*
X90568600Y-11777800D02*
X104368600Y-11777800D01*
X104368600Y-44582700D02*
X90568600Y-44582700D01*
X85318600Y-44582700D02*
X71518600Y-44582700D01*
X90568600Y-25577800D02*
X90568600Y-11777800D01*
X66268600Y-30782700D02*
X66268600Y-44582700D01*
X66268600Y-44582700D02*
X52468600Y-44582700D01*
X99966600Y-49750800D02*
X113766600Y-49750800D01*
X337997600Y-87977800D02*
X337997600Y-101777800D01*
X81043600Y-49750800D02*
X94843600Y-49750800D01*
X118719600Y-68927800D02*
X118719600Y-82727800D01*
X94843600Y-49750800D02*
X94843600Y-63550800D01*
X104919600Y-82727800D02*
X104919600Y-68927800D01*
X99966600Y-63550800D02*
X99966600Y-49750800D01*
X75920600Y-63550800D02*
X62120600Y-63550800D01*
X94843600Y-63550800D02*
X81043600Y-63550800D01*
X71518600Y-30782700D02*
X85318600Y-30782700D01*
X71518600Y-44582700D02*
X71518600Y-30782700D01*
X104368600Y-25577800D02*
X90568600Y-25577800D01*
X104368600Y-11777800D02*
X104368600Y-25577800D01*
X81043600Y-63550800D02*
X81043600Y-49750800D01*
X76344600Y-101777800D02*
X76344600Y-87977800D01*
X52468600Y-30782700D02*
X66268600Y-30782700D01*
X324197600Y-101777800D02*
X324197600Y-87977800D01*
X118719600Y-82727800D02*
X104919600Y-82727800D01*
X113766600Y-49750800D02*
X113766600Y-63550800D01*
X113766600Y-63550800D02*
X99966600Y-63550800D01*
X104368600Y-30782700D02*
X104368600Y-44582700D01*
X90568600Y-44582700D02*
X90568600Y-30782700D01*
X66819600Y-82727800D02*
X66819600Y-68927800D01*
X90144600Y-101777800D02*
X76344600Y-101777800D01*
X337997600Y-101777800D02*
X324197600Y-101777800D01*
X75920600Y-49750800D02*
X75920600Y-63550800D01*
X66819600Y-68927800D02*
X80619600Y-68927800D01*
X80619600Y-68927800D02*
X80619600Y-82727800D01*
X324197600Y-87977800D02*
X337997600Y-87977800D01*
X80619600Y-82727800D02*
X66819600Y-82727800D01*
X108940600Y-87977800D02*
X108940600Y-101777800D01*
X95140600Y-101777800D02*
X95140600Y-87977800D01*
X76344600Y-87977800D02*
X90144600Y-87977800D01*
X62120600Y-63550800D02*
X62120600Y-49750800D01*
X90144600Y-87977800D02*
X90144600Y-101777800D01*
X240004600Y-120954800D02*
X226204600Y-120954800D01*
X185818600Y-30782700D02*
X199618600Y-30782700D01*
X185818600Y-44582700D02*
X185818600Y-30782700D01*
X306353600Y-86331300D02*
X306353600Y-105440800D01*
X208381600Y-49750800D02*
X208381600Y-63550800D01*
X142468600Y-25577800D02*
X128668599Y-25577800D01*
X226204600Y-120954800D02*
X226204600Y-107154800D01*
X128668599Y-25577800D02*
X128668599Y-11777800D01*
X263880599Y-107154800D02*
X263880599Y-120954800D01*
X226204600Y-107154800D02*
X240004600Y-107154800D01*
X308140600Y-49941300D02*
X308140600Y-63741300D01*
X294340600Y-49941300D02*
X308140600Y-49941300D01*
X250080600Y-107154800D02*
X263880599Y-107154800D01*
X308140600Y-63741300D02*
X294340600Y-63741300D01*
X263880599Y-120954800D02*
X250080600Y-120954800D01*
X199618600Y-44582700D02*
X185818600Y-44582700D01*
X294340600Y-63741300D02*
X294340600Y-49941300D01*
X208381600Y-63550800D02*
X194581600Y-63550800D01*
X194581600Y-63550800D02*
X194581600Y-49750800D01*
X194581600Y-49750800D02*
X208381600Y-49750800D01*
X250080600Y-120954800D02*
X250080600Y-107154800D01*
X240004600Y-107154800D02*
X240004600Y-120954800D01*
X199618600Y-30782700D02*
X199618600Y-44582700D01*
X47218600Y-25577800D02*
X33418599Y-25577800D01*
X362170600Y-120954800D02*
X362170600Y-107154800D01*
X362170600Y-30954800D02*
X375970600Y-30954800D01*
X33418599Y-11777800D02*
X47218600Y-11777800D01*
X85318600Y-11777800D02*
X85318600Y-25577800D01*
X85318600Y-25577800D02*
X71518600Y-25577800D01*
X71518600Y-25577800D02*
X71518600Y-11777800D01*
X375970600Y-30954800D02*
X375970600Y-44754800D01*
X47218600Y-11777800D02*
X47218600Y-25577800D01*
X324197600Y-107154800D02*
X337997600Y-107154800D01*
X362170600Y-101777800D02*
X362170600Y-87977800D01*
X337997600Y-107154800D02*
X337997600Y-120954800D01*
X337997600Y-120954800D02*
X324197600Y-120954800D01*
X324197600Y-120954800D02*
X324197600Y-107154800D01*
X343247600Y-107154800D02*
X357047600Y-107154800D01*
X357047600Y-107154800D02*
X357047600Y-120954800D01*
X362170600Y-44754800D02*
X362170600Y-30954800D01*
X375970600Y-101777800D02*
X362170600Y-101777800D01*
X362170600Y-107154800D02*
X375970600Y-107154800D01*
X33418599Y-25577800D02*
X33418599Y-11777800D01*
X375970600Y-87977800D02*
X375970600Y-101777800D01*
X362170600Y-49877800D02*
X375970600Y-49877800D01*
X343247600Y-120954800D02*
X343247600Y-107154800D01*
X375970600Y-107154800D02*
X375970600Y-120954800D01*
X375970600Y-44754800D02*
X362170600Y-44754800D01*
X362170600Y-87977800D02*
X375970600Y-87977800D01*
X375970600Y-120954800D02*
X362170600Y-120954800D01*
X357047600Y-120954800D02*
X343247600Y-120954800D01*
X257065599Y-82727800D02*
X257065599Y-68927800D01*
X343247600Y-87977800D02*
X357047600Y-87977800D01*
X357047600Y-68927800D02*
X357047600Y-82727800D01*
X343247600Y-101777800D02*
X343247600Y-87977800D01*
X357047600Y-82727800D02*
X343247600Y-82727800D01*
X223918600Y-30782700D02*
X237718600Y-30782700D01*
X270654600Y-49750800D02*
X284454600Y-49750800D01*
X284454600Y-49750800D02*
X284454600Y-63550800D01*
X343247600Y-68927800D02*
X357047600Y-68927800D01*
X189882600Y-87977800D02*
X203682600Y-87977800D01*
X218668600Y-44582700D02*
X204868600Y-44582700D01*
X222859600Y-87977800D02*
X222859600Y-101777800D01*
X209059600Y-101777800D02*
X209059600Y-87977800D01*
X275818600Y-30782700D02*
X275818600Y-44582700D01*
X237718600Y-44582700D02*
X223918600Y-44582700D01*
X375970600Y-63677800D02*
X362170600Y-63677800D01*
X357047600Y-87977800D02*
X357047600Y-101777800D01*
X343247600Y-49877800D02*
X357047600Y-49877800D01*
X337997600Y-82727800D02*
X324197600Y-82727800D01*
X237718600Y-30782700D02*
X237718600Y-44582700D01*
X52468600Y-25577800D02*
X52468600Y-11777800D01*
X324197600Y-30954800D02*
X337997600Y-30954800D01*
X262018600Y-44582700D02*
X262018600Y-30782700D01*
X324197600Y-44754800D02*
X324197600Y-30954800D01*
X375970600Y-68927800D02*
X375970600Y-82727800D01*
X275818600Y-44582700D02*
X262018600Y-44582700D01*
X270654600Y-63550800D02*
X270654600Y-49750800D01*
X343247600Y-82727800D02*
X343247600Y-68927800D01*
X232765600Y-82727800D02*
X218965600Y-82727800D01*
X357047600Y-101777800D02*
X343247600Y-101777800D01*
X324197600Y-68927800D02*
X337997600Y-68927800D01*
X218965600Y-82727800D02*
X218965600Y-68927800D01*
X337997600Y-68927800D02*
X337997600Y-82727800D01*
X337997600Y-63677800D02*
X324197600Y-63677800D01*
X357047600Y-63677800D02*
X343247600Y-63677800D01*
X362170600Y-82727800D02*
X362170600Y-68927800D01*
X284454600Y-63550800D02*
X270654600Y-63550800D01*
X204868600Y-30782700D02*
X218668600Y-30782700D01*
X375970600Y-49877800D02*
X375970600Y-63677800D01*
X337997600Y-44754800D02*
X324197600Y-44754800D01*
X337997600Y-30954800D02*
X337997600Y-44754800D01*
X52468600Y-11777800D02*
X66268600Y-11777800D01*
X66268600Y-25577800D02*
X52468600Y-25577800D01*
X337997600Y-49877800D02*
X337997600Y-63677800D01*
X324197600Y-63677800D02*
X324197600Y-49877800D01*
X218668600Y-30782700D02*
X218668600Y-44582700D01*
X270865600Y-82727800D02*
X257065599Y-82727800D01*
X218965600Y-68927800D02*
X232765600Y-68927800D01*
X357047600Y-49877800D02*
X357047600Y-63677800D01*
X362170600Y-68927800D02*
X375970600Y-68927800D01*
X232765600Y-68927800D02*
X232765600Y-82727800D01*
X343247600Y-63677800D02*
X343247600Y-49877800D01*
X257065599Y-68927800D02*
X270865600Y-68927800D01*
X209059600Y-87977800D02*
X222859600Y-87977800D01*
X222859600Y-101777800D02*
X209059600Y-101777800D01*
X270865600Y-68927800D02*
X270865600Y-82727800D01*
X204868600Y-44582700D02*
X204868600Y-30782700D01*
X362170600Y-63677800D02*
X362170600Y-49877800D01*
X66268600Y-11777800D02*
X66268600Y-25577800D01*
X324197600Y-49877800D02*
X337997600Y-49877800D01*
X375970600Y-82727800D02*
X362170600Y-82727800D01*
X223918600Y-44582700D02*
X223918600Y-30782700D01*
X262018600Y-30782700D02*
X275818600Y-30782700D01*
X324197600Y-82727800D02*
X324197600Y-68927800D01*
X33418599Y-30782700D02*
X47218600Y-30782700D01*
X35917300Y-107154800D02*
X49717300Y-107154800D01*
X286833600Y-69014300D02*
X286833600Y-84014300D01*
X59834600Y-120954800D02*
X59834600Y-107154800D01*
X49717300Y-120954800D02*
X35917300Y-120954800D01*
X73634600Y-107154800D02*
X73634600Y-120954800D01*
X59834600Y-107154800D02*
X73634600Y-107154800D01*
X73634600Y-120954800D02*
X59834600Y-120954800D01*
X97510600Y-107154800D02*
X97510600Y-120954800D01*
X83710600Y-107154800D02*
X97510600Y-107154800D01*
X278573600Y-84014300D02*
X286833600Y-84014300D01*
X83710600Y-120954800D02*
X83710600Y-107154800D01*
X278573600Y-69014300D02*
X278573600Y-84014300D01*
X303113600Y-69014300D02*
X311373600Y-69014300D01*
X303113600Y-84014300D02*
X311373600Y-84014300D01*
X47218600Y-44582700D02*
X33418599Y-44582700D01*
X47218600Y-30782700D02*
X47218600Y-44582700D01*
X97510600Y-120954800D02*
X83710600Y-120954800D01*
X303113600Y-69014300D02*
X303113600Y-84014300D01*
X33418599Y-44582700D02*
X33418599Y-30782700D01*
X311373600Y-69014300D02*
X311373600Y-84014300D01*
X278573600Y-69014300D02*
X286833600Y-69014300D01*
X35917300Y-120954800D02*
X35917300Y-107154800D01*
X262018600Y-25577800D02*
X262018600Y-11777800D01*
X142468600Y-11777800D02*
X142468600Y-25577800D01*
X324197600Y-11777800D02*
X337997600Y-11777800D01*
X262018600Y-11777800D02*
X275818600Y-11777800D01*
X275818600Y-25577800D02*
X262018600Y-25577800D01*
X337997600Y-25577800D02*
X324197600Y-25577800D01*
X204868600Y-25577800D02*
X204868600Y-11777800D01*
X337997600Y-11777800D02*
X337997600Y-25577800D01*
X275818600Y-11777800D02*
X275818600Y-25577800D01*
X218668600Y-25577800D02*
X204868600Y-25577800D01*
X362170600Y-25577800D02*
X362170600Y-11777800D01*
X128668599Y-11777800D02*
X142468600Y-11777800D01*
X281068600Y-25577800D02*
X281068600Y-11777800D01*
X204868600Y-11777800D02*
X218668600Y-11777800D01*
X362170600Y-11777800D02*
X375970600Y-11777800D01*
X161518600Y-11777800D02*
X161518600Y-25577800D01*
X218668600Y-11777800D02*
X218668600Y-25577800D01*
X375970600Y-11777800D02*
X375970600Y-25577800D01*
X324197600Y-25577800D02*
X324197600Y-11777800D01*
X147718600Y-11777800D02*
X161518600Y-11777800D01*
X161518600Y-25577800D02*
X147718600Y-25577800D01*
X375970600Y-25577800D02*
X362170600Y-25577800D01*
X147718600Y-25577800D02*
X147718600Y-11777800D01*
X184632600Y-101777800D02*
X170832600Y-101777800D01*
X151909600Y-87977800D02*
X165709600Y-87977800D01*
X180568600Y-30782700D02*
X180568600Y-44582700D01*
X175615600Y-68927800D02*
X175615600Y-82727800D01*
X189882600Y-101777800D02*
X189882600Y-87977800D01*
X170832600Y-101777800D02*
X170832600Y-87977800D01*
X194665600Y-68927800D02*
X194665600Y-82727800D01*
X247032600Y-101777800D02*
X247032600Y-87977800D01*
X213715600Y-68927800D02*
X213715600Y-82727800D01*
X166768600Y-44582700D02*
X166768600Y-30782700D01*
X194665600Y-82727800D02*
X180865600Y-82727800D01*
X175615600Y-82727800D02*
X161815600Y-82727800D01*
X151909600Y-101777800D02*
X151909600Y-87977800D01*
X199915600Y-82727800D02*
X199915600Y-68927800D01*
X256768600Y-30782700D02*
X256768600Y-44582700D01*
X256768600Y-44582700D02*
X242968600Y-44582700D01*
X184632600Y-87977800D02*
X184632600Y-101777800D01*
X180865600Y-68927800D02*
X194665600Y-68927800D01*
X180865600Y-82727800D02*
X180865600Y-68927800D01*
X170535600Y-63550800D02*
X156735600Y-63550800D01*
X199618600Y-11777800D02*
X199618600Y-25577800D01*
X166768600Y-30782700D02*
X180568600Y-30782700D01*
X185818600Y-25577800D02*
X185818600Y-11777800D01*
X156735600Y-49750800D02*
X170535600Y-49750800D01*
X185818600Y-11777800D02*
X199618600Y-11777800D01*
X161518600Y-30782700D02*
X161518600Y-44582700D01*
X161518600Y-44582700D02*
X147718600Y-44582700D01*
X170535600Y-49750800D02*
X170535600Y-63550800D01*
X147718600Y-30782700D02*
X161518600Y-30782700D01*
X156735600Y-63550800D02*
X156735600Y-49750800D01*
X260832599Y-101777800D02*
X247032600Y-101777800D01*
X165709600Y-101777800D02*
X151909600Y-101777800D01*
X165709600Y-87977800D02*
X165709600Y-101777800D01*
X170832600Y-87977800D02*
X184632600Y-87977800D01*
X180568600Y-44582700D02*
X166768600Y-44582700D01*
X260832599Y-87977800D02*
X260832599Y-101777800D01*
X213715600Y-82727800D02*
X199915600Y-82727800D01*
X242968600Y-30782700D02*
X256768600Y-30782700D01*
X203682600Y-87977800D02*
X203682600Y-101777800D01*
X161815600Y-68927800D02*
X175615600Y-68927800D01*
X199618600Y-25577800D02*
X185818600Y-25577800D01*
X242968600Y-44582700D02*
X242968600Y-30782700D01*
X247032600Y-87977800D02*
X260832599Y-87977800D01*
X203682600Y-101777800D02*
X189882600Y-101777800D01*
X147718600Y-44582700D02*
X147718600Y-30782700D01*
X199915600Y-68927800D02*
X213715600Y-68927800D01*
X297762600Y-107154800D02*
X311562600Y-107154800D01*
X301853600Y-68864300D02*
X301853600Y-82664300D01*
X288053600Y-82664300D02*
X288053600Y-68864300D01*
X357047600Y-25577800D02*
X343247600Y-25577800D01*
X242968600Y-11777800D02*
X256768600Y-11777800D01*
X311562600Y-107154800D02*
X311562600Y-120954800D01*
X311562600Y-120954800D02*
X297762600Y-120954800D01*
X237718600Y-25577800D02*
X223918600Y-25577800D01*
X256768600Y-25577800D02*
X242968600Y-25577800D01*
X242968600Y-25577800D02*
X242968600Y-11777800D01*
X237718600Y-11777800D02*
X237718600Y-25577800D01*
X357047600Y-11777800D02*
X357047600Y-25577800D01*
X294868600Y-25577800D02*
X281068600Y-25577800D01*
X281068600Y-11777800D02*
X294868600Y-11777800D01*
X294868600Y-11777800D02*
X294868600Y-25577800D01*
X223918600Y-11777800D02*
X237718600Y-11777800D01*
X223918600Y-25577800D02*
X223918600Y-11777800D01*
X343247600Y-11777800D02*
X357047600Y-11777800D01*
X343247600Y-25577800D02*
X343247600Y-11777800D01*
X297762600Y-120954800D02*
X297762600Y-107154800D01*
X256768600Y-11777800D02*
X256768600Y-25577800D01*
X301853600Y-82664300D02*
X288053600Y-82664300D01*
X288053600Y-68864300D02*
X301853600Y-68864300D01*
X216711600Y-122354800D02*
X216711600Y-104354800D01*
X296773600Y-101840800D02*
X282973600Y-101840800D01*
X208211600Y-104354800D02*
X208211600Y-110479800D01*
X298093600Y-86331300D02*
X298093600Y-105440800D01*
X273443600Y-86331300D02*
X273443600Y-105440800D01*
X298093600Y-105440800D02*
X306353600Y-105440800D01*
X116391600Y-104054800D02*
X107311600Y-104054800D01*
X281703600Y-86331300D02*
X281703600Y-105440800D01*
X300266600Y-25577800D02*
X300266600Y-11777800D01*
X208261600Y-122354800D02*
X216711600Y-122354800D01*
X282973600Y-88041300D02*
X296773600Y-88041300D01*
X314066600Y-11777800D02*
X314066600Y-25577800D01*
X282973600Y-101840800D02*
X282973600Y-88041300D01*
X116391600Y-109990800D02*
X116391600Y-104054800D01*
X296773600Y-88041300D02*
X296773600Y-101840800D01*
X155186600Y-107154800D02*
X169011600Y-107154800D01*
X155211600Y-120954800D02*
X155211600Y-118629800D01*
X300266600Y-11777800D02*
X314066600Y-11777800D01*
X314066600Y-25577800D02*
X300266600Y-25577800D01*
X298093600Y-86331300D02*
X306353600Y-86331300D01*
X273443600Y-105440800D02*
X281703600Y-105440800D01*
X169011600Y-120954800D02*
X155211600Y-120954800D01*
X273443600Y-86331300D02*
X281703600Y-86331300D01*
X189458600Y-49750800D02*
X189458600Y-63550800D01*
X175658600Y-63550800D02*
X175658600Y-49750800D01*
X85869600Y-82727800D02*
X85869600Y-68927800D01*
X208211600Y-104354800D02*
X216711600Y-104354800D01*
X227304600Y-49750800D02*
X227304600Y-63550800D01*
X99669600Y-68927800D02*
X99669600Y-82727800D01*
X213504600Y-49750800D02*
X227304600Y-49750800D01*
X99669600Y-82727800D02*
X85869600Y-82727800D01*
X169021600Y-110484800D02*
X208211600Y-110479800D01*
X189458600Y-63550800D02*
X175658600Y-63550800D01*
X116391600Y-118626800D02*
X155211600Y-118626800D01*
X208251600Y-117594800D02*
X208261600Y-122354800D01*
X208251600Y-117594800D02*
X169001600Y-117594800D01*
X116391600Y-109990800D02*
X155186600Y-109990800D01*
X107311600Y-104054800D02*
X107311600Y-122454800D01*
X107311600Y-122454800D02*
X116391600Y-122454800D01*
X169011600Y-117604800D02*
X169011600Y-120954800D01*
X169021600Y-107154800D02*
X169021600Y-110484800D01*
X155186600Y-107154800D02*
X155186600Y-109990800D01*
X116391600Y-118626800D02*
X116391600Y-122454800D01*
X85869600Y-68927800D02*
X99669600Y-68927800D01*
X175658600Y-49750800D02*
X189458600Y-49750800D01*
X227304600Y-63550800D02*
X213504600Y-63550800D01*
D11*
X314732000Y-66167000D02*
G75*
G03*
X314732000Y-66167000I-1550000J0D01*
G01*
M02*
