M48
; DRILL file {KiCad 5.1.6+dfsg1-1} date Thu Jun 10 17:02:17 2021
; FORMAT={-:-/ absolute / inch / decimal}
; #@! TF.CreationDate,2021-06-10T17:02:17-07:00
; #@! TF.GenerationSoftware,Kicad,Pcbnew,5.1.6+dfsg1-1
; #@! TF.FileFunction,Plated,1,2,PTH
FMAT,2
INCH
T1C0.0157
T2C0.0256
%
G90
G05
T1
X1.3716Y-3.3417
X1.5034Y-2.3783
X1.7375Y-1.9132
X1.744Y-2.5156
X1.7652Y-4.7028
X1.9445Y-3.1928
X2.025Y-4.0162
X2.1453Y-2.6762
X2.1626Y-1.9333
X2.2133Y-1.8546
X2.2823Y-1.9234
X2.3073Y-1.3577
X2.3303Y-1.9336
X2.4116Y-3.6356
X2.4591Y-1.8679
X2.7537Y-1.8559
X2.785Y-1.7805
X2.9605Y-3.8769
X2.9625Y-1.725
X3.0439Y-2.6762
X3.0973Y-4.0627
X3.1119Y-3.1682
X3.1341Y-2.5439
X3.1545Y-1.6182
X3.1634Y-3.3417
X3.168Y-2.5032
X3.1962Y-1.8941
X3.1985Y-4.11
X3.2681Y-1.7294
X3.2839Y-1.8206
X3.2939Y-2.5729
X3.2959Y-2.6821
X3.4789Y-1.8961
X3.494Y-3.4369
X3.5333Y-3.8769
X3.559Y-1.8387
X3.6559Y-2.7351
X3.7068Y-1.8211
X3.7664Y-3.4921
X3.7929Y-2.0401
X3.8481Y-1.999
X3.8882Y-4.1062
X3.9338Y-1.6817
X3.9827Y-4.0485
X4.0534Y-2.0401
X4.0897Y-2.7119
X4.1086Y-1.8466
X4.114Y-4.0626
X4.2318Y-3.8593
X4.2713Y-1.9094
X4.3085Y-3.6656
X4.3173Y-1.9523
X4.3754Y-2.8807
X4.3844Y-1.5715
X4.4373Y-4.7301
X4.4443Y-1.8709
X4.4659Y-3.4917
X4.468Y-1.6618
X4.5231Y-1.9237
X4.5665Y-2.1207
X4.6652Y-1.6817
X4.6672Y-1.7528
X4.7058Y-4.0977
X4.7196Y-1.9056
X4.721Y-2.5985
X4.8155Y-4.1464
X4.8727Y-4.129
X4.9033Y-1.8088
X5.0539Y-1.7991
X5.0615Y-4.3177
X5.0643Y-2.7119
X5.0831Y-3.2267
X5.0978Y-4.1282
X5.1446Y-1.6212
X5.1586Y-3.9069
X5.1892Y-4.2533
X5.2032Y-3.7083
X5.2145Y-4.35
X5.2557Y-1.6984
X5.2625Y-1.3375
X5.2649Y-4.0965
X5.2766Y-4.4524
X5.3214Y-1.8057
X5.3679Y-1.9356
X5.4232Y-1.9356
X5.4268Y-2.0105
X5.4392Y-4.4011
X5.5578Y-3.6253
X5.6214Y-4.0444
X5.6414Y-1.9361
X5.682Y-4.105
X5.7404Y-1.9833
X5.7514Y-1.8973
X5.8251Y-3.2163
X5.8354Y-4.1464
X5.8998Y-4.6929
X5.9076Y-3.6546
X5.9738Y-3.1745
X6.0735Y-1.8507
X6.1077Y-4.1006
X6.2262Y-4.1648
X6.3062Y-1.8565
X6.381Y-4.1058
X6.406Y-3.6567
X6.4325Y-2.6821
X6.4601Y-4.0668
X6.4997Y-3.4587
X6.5058Y-4.3281
X6.5741Y-3.4548
X6.6139Y-3.4615
X6.6477Y-4.3018
X6.6808Y-3.4085
X6.7228Y-3.1919
X6.724Y-4.2255
X6.7273Y-1.8888
X6.7763Y-1.8957
X6.7831Y-1.7908
X6.856Y-1.8575
X6.8858Y-2.6804
X6.9168Y-4.2129
X6.9258Y-1.7189
X6.9723Y-4.7291
X7.0249Y-1.7745
X7.0346Y-1.8501
X7.0659Y-2.6519
X7.0696Y-2.5439
X7.0976Y-1.9478
X7.128Y-3.0814
X7.1731Y-1.939
X7.2026Y-4.0443
X7.2385Y-1.9381
X7.2775Y-3.4615
X7.2919Y-4.11
X7.3201Y-3.8593
X7.3613Y-2.3283
X7.4099Y-1.8418
X7.4122Y-2.7131
X7.5148Y-1.7233
X7.6053Y-1.7838
X7.6124Y-1.9682
X7.6608Y-4.0338
X7.6725Y-2.9005
X7.7166Y-2.7457
X7.7406Y-4.1055
X7.7515Y-1.9094
X7.8277Y-1.8647
X7.8419Y-4.1146
X7.8649Y-3.9998
X7.9132Y-2.8164
X7.9883Y-1.8647
X8.0899Y-4.1718
X8.1083Y-2.5414
X8.1355Y-3.3582
X8.1381Y-4.2867
X8.3081Y-4.1629
X8.3404Y-1.9051
X8.3991Y-1.9166
X8.4098Y-4.6879
X8.415Y-1.6753
X8.429Y-1.9951
X8.4543Y-1.6183
X8.5418Y-1.931
X8.6122Y-1.7193
X8.6493Y-1.6834
X8.6657Y-1.9373
X8.7258Y-4.112
X8.8096Y-1.9114
X8.8197Y-4.091
X8.828Y-3.8753
X8.918Y-2.632
X8.9465Y-4.0565
X8.9923Y-3.1147
X9.0447Y-3.9969
X9.0679Y-2.322
X9.0826Y-3.2053
X9.0922Y-4.0851
X9.0939Y-1.7836
X9.1243Y-2.6465
X9.1549Y-2.3916
X9.1789Y-2.6291
X9.1911Y-3.4265
X9.2036Y-1.8528
X9.2184Y-3.3976
X9.2336Y-2.3018
X9.2398Y-4.1101
X9.2469Y-2.0904
X9.309Y-3.8434
X9.3804Y-4.0008
X9.382Y-4.1991
X9.3943Y-3.1767
X9.3958Y-2.5048
X9.4729Y-4.0147
X9.4814Y-1.8334
X9.4922Y-4.121
X9.5016Y-4.4122
X9.5178Y-3.2993
X9.5633Y-3.462
X9.567Y-2.1617
X9.5877Y-2.3627
X9.6652Y-4.1036
X9.7005Y-1.7295
X9.7521Y-1.8705
X9.7683Y-4.1165
X9.7707Y-2.1617
X9.7992Y-1.9815
X9.8128Y-3.1582
X9.8491Y-2.3451
X9.85Y-2.5749
X9.8801Y-2.5037
X9.9054Y-1.8575
X9.9144Y-1.9794
X9.9451Y-1.9503
X9.964Y-3.0418
X9.9724Y-2.6002
X9.9997Y-1.9394
X10.015Y-3.4769
X10.0641Y-1.9206
X10.1236Y-2.722
X10.1689Y-1.5749
X10.1718Y-1.8334
X10.2995Y-1.868
X10.3773Y-1.963
X10.4879Y-1.8939
X10.5009Y-2.5402
X10.6748Y-3.085
X11.0504Y-2.6746
X11.0695Y-1.8137
X11.1222Y-2.1184
X11.4472Y-4.1523
X11.6281Y-1.9009
X11.72Y-4.2359
X11.7596Y-3.8753
X11.7925Y-2.6291
X11.818Y-3.8434
X11.8612Y-1.6255
X11.8634Y-4.7214
X11.9514Y-4.6368
X12.1786Y-1.3035
X12.2274Y-2.0751
X12.2767Y-2.0929
X12.2871Y-1.4208
X12.2943Y-2.022
X12.2944Y-1.7571
X12.3121Y-1.7965
X12.3497Y-1.6763
X12.3841Y-1.5844
X12.3841Y-1.6254
X12.3917Y-4.1089
X12.4259Y-1.9305
X12.4398Y-2.1877
X12.4398Y-2.2346
X12.4398Y-2.8483
X12.4402Y-1.6517
X12.4513Y-1.5129
X12.4516Y-2.4226
X12.4869Y-3.1231
X12.4869Y-3.574
X12.4869Y-3.9471
X12.5064Y-2.5759
X12.5242Y-1.9489
X12.5547Y-1.3735
X12.561Y-1.7443
X12.5787Y-1.702
X12.5848Y-3.8899
X12.5861Y-1.6084
X12.61Y-1.5713
X12.6163Y-2.7561
X12.6263Y-2.7112
X12.6291Y-1.531
X12.6408Y-1.6659
X12.644Y-2.7841
X12.644Y-2.9076
X12.646Y-3.2182
X12.6535Y-1.7611
X12.6617Y-2.947
X12.6652Y-3.6853
X12.6742Y-1.8683
X12.6844Y-2.2037
X12.6846Y-4.7181
X12.6865Y-4.2359
X12.695Y-3.3562
X12.6966Y-3.2185
X12.6969Y-4.0848
X12.6972Y-3.0559
X12.6973Y-3.2657
X12.6975Y-3.5344
X12.6979Y-3.9235
X12.6997Y-1.639
X12.7136Y-1.8727
X12.721Y-1.3238
X12.7264Y-4.688
X12.7525Y-1.2991
X12.7701Y-4.3114
X12.7896Y-3.1638
X12.7919Y-2.8855
X12.804Y-2.6606
X12.8076Y-3.0264
X12.8088Y-2.7017
X12.809Y-2.8169
X12.8096Y-2.0148
X12.8097Y-2.4983
X12.8106Y-1.7903
X12.8315Y-1.5311
X12.837Y-1.719
X12.8754Y-1.298
X12.8772Y-2.0714
X12.8891Y-1.7965
X12.9181Y-3.4319
X12.9182Y-3.8938
X12.9184Y-2.4901
X12.9187Y-3.1275
X12.9189Y-3.9541
X12.9309Y-1.4729
X12.9572Y-2.46
X12.9586Y-2.6207
X12.9891Y-1.5164
X12.9995Y-1.8124
X13.0332Y-1.8538
X13.0369Y-1.639
X13.079Y-1.8661
X13.1054Y-2.5554
X13.1184Y-1.8676
X13.131Y-4.5371
X13.2343Y-1.9329
X13.3608Y-4.1025
X13.3862Y-4.0248
X13.4585Y-4.6802
X13.4675Y-1.8301
X13.4683Y-4.0551
X13.486Y-3.9675
X13.5587Y-1.2086
X13.612Y-1.7387
X13.6153Y-4.1823
X13.6639Y-1.7488
X13.6663Y-3.996
X13.6783Y-1.6861
X13.6817Y-1.8467
X13.6871Y-3.4319
X13.73Y-2.5537
X13.7443Y-2.6847
X13.7729Y-4.2142
X13.8491Y-1.8841
X13.8708Y-3.9478
X13.8722Y-1.8475
X13.9261Y-4.0791
X13.9634Y-1.9531
X14.0263Y-4.2423
X14.0274Y-4.2004
X14.0456Y-1.561
X14.0489Y-1.6224
X14.0609Y-4.6973
X14.0621Y-1.7112
X14.1989Y-1.5895
X14.2106Y-3.21
X14.2254Y-1.8475
X14.2377Y-2.4866
X14.2532Y-4.7245
X14.2617Y-4.0615
X14.2694Y-3.2614
X14.2817Y-4.1068
X14.4131Y-1.9437
X14.4453Y-1.8359
X14.4865Y-2.0265
X14.5541Y-1.6567
X14.5897Y-1.8475
X14.6678Y-4.1
X14.6818Y-1.8957
X14.7087Y-4.1772
X14.7447Y-4.055
X14.779Y-1.8839
X14.8052Y-1.5477
X14.8106Y-4.7016
X14.8547Y-4.139
X14.9347Y-2.6207
X14.9606Y-1.6667
X15.01Y-1.1523
X15.0872Y-3.4319
X15.1625Y-1.8475
X15.1782Y-2.3874
X15.2053Y-1.6251
X15.2196Y-2.8021
X15.2363Y-4.5756
X15.2525Y-1.7583
X15.3115Y-1.8949
X15.3163Y-3.0801
X15.3347Y-2.4866
X15.3515Y-3.1742
X15.4912Y-1.7118
X15.672Y-2.3782
X15.6747Y-3.879
X15.7044Y-3.1404
X15.801Y-1.9219
X15.8641Y-1.8586
X15.9761Y-4.1025
T2
X12.5636Y-3.524
X12.5636Y-3.574
X12.5636Y-3.624
X12.5636Y-3.674
X12.5636Y-3.724
X12.5636Y-3.774
X12.5636Y-3.824
X12.6136Y-3.524
X12.6136Y-3.574
X12.6136Y-3.624
X12.6136Y-3.674
X12.6136Y-3.724
X12.6136Y-3.774
X12.6136Y-3.824
T0
M30
