%TF.GenerationSoftware,KiCad,Pcbnew,(5.1.10)-1*%
%TF.CreationDate,2021-09-10T11:23:46-07:00*%
%TF.ProjectId,chgray-keyboard,63686772-6179-42d6-9b65-79626f617264,Yeet2*%
%TF.SameCoordinates,Original*%
%TF.FileFunction,Paste,Bot*%
%TF.FilePolarity,Positive*%
%FSLAX46Y46*%
G04 Gerber Fmt 4.6, Leading zero omitted, Abs format (unit mm)*
G04 Created by KiCad (PCBNEW (5.1.10)-1) date 2021-09-10 11:23:46*
%MOMM*%
%LPD*%
G01*
G04 APERTURE LIST*
%ADD10R,2.550000X2.500000*%
G04 APERTURE END LIST*
D10*
%TO.C,SW58*%
X225622000Y-111496000D03*
X239472000Y-108956000D03*
%TD*%
%TO.C,RIGHT-SPACE1*%
X249498000Y-111496000D03*
X263348000Y-108956000D03*
%TD*%
%TO.C,LEFT_ALT1*%
X128076000Y-16129000D03*
X141926000Y-13589000D03*
%TD*%
%TO.C,RIGHT-SHIFT2*%
X204276000Y-16129000D03*
X218126000Y-13589000D03*
%TD*%
%TO.C,LEFT-SPACE1*%
X147126000Y-16129000D03*
X160976000Y-13589000D03*
%TD*%
%TO.C,SW50*%
X323605000Y-16129000D03*
X337455000Y-13589000D03*
%TD*%
%TO.C,SW45*%
X261426000Y-16129000D03*
X275276000Y-13589000D03*
%TD*%
%TO.C,SW37*%
X361578000Y-16129000D03*
X375428000Y-13589000D03*
%TD*%
%TO.C,SW25*%
X280476000Y-16129000D03*
X294326000Y-13589000D03*
%TD*%
%TO.C,SW21*%
X299674000Y-16129000D03*
X313524000Y-13589000D03*
%TD*%
%TO.C,SW13*%
X242376000Y-16129000D03*
X256226000Y-13589000D03*
%TD*%
%TO.C,SW9*%
X342655000Y-16129000D03*
X356505000Y-13589000D03*
%TD*%
%TO.C,SW3*%
X223326000Y-16129000D03*
X237176000Y-13589000D03*
%TD*%
%TO.C,RightMeta1*%
X297180000Y-111496000D03*
X311030000Y-108956000D03*
%TD*%
%TO.C,RIGHT-SHIFT1*%
X282772000Y-92446000D03*
X296622000Y-89906000D03*
%TD*%
%TO.C,ENTER1*%
X287660000Y-73269000D03*
X301510000Y-70729000D03*
%TD*%
%TO.C,SW4*%
X32826000Y-35133900D03*
X46676000Y-32593900D03*
%TD*%
%TO.C,WinKey1*%
X83128000Y-111496000D03*
X96978000Y-108956000D03*
%TD*%
%TO.C,LEFT_FN1*%
X59252000Y-111496000D03*
X73102000Y-108956000D03*
%TD*%
%TO.C,LEFT_CTRL1*%
X35334700Y-111496000D03*
X49184700Y-108956000D03*
%TD*%
%TO.C,Slash1*%
X294805000Y-54092000D03*
X308655000Y-51552000D03*
%TD*%
%TO.C,LEFT-SHIFT1*%
X44859700Y-92319000D03*
X58709700Y-89779000D03*
%TD*%
%TO.C,Backspace1*%
X290043000Y-35296000D03*
X303893000Y-32756000D03*
%TD*%
%TO.C,TAB1*%
X37714700Y-54235200D03*
X51564700Y-51695200D03*
%TD*%
%TO.C,CAPS1*%
X53947200Y-70729000D03*
X40097200Y-73269000D03*
%TD*%
%TO.C,SW63*%
X237423000Y-73279000D03*
X251273000Y-70739000D03*
%TD*%
%TO.C,SW1*%
X109026000Y-16129000D03*
X122876000Y-13589000D03*
%TD*%
%TO.C,SW2*%
X227517000Y-92329000D03*
X241367000Y-89789000D03*
%TD*%
%TO.C,SW5*%
X51876000Y-35133900D03*
X65726000Y-32593900D03*
%TD*%
%TO.C,SW6*%
X61528000Y-54102000D03*
X75378000Y-51562000D03*
%TD*%
%TO.C,SW7*%
X66227000Y-73279000D03*
X80077000Y-70739000D03*
%TD*%
%TO.C,SW8*%
X323605000Y-92329000D03*
X337455000Y-89789000D03*
%TD*%
%TO.C,SW10*%
X85277000Y-73279000D03*
X99127000Y-70739000D03*
%TD*%
%TO.C,SW11*%
X75752000Y-92329000D03*
X89602000Y-89789000D03*
%TD*%
%TO.C,SW12*%
X89976000Y-16129000D03*
X103826000Y-13589000D03*
%TD*%
%TO.C,SW14*%
X70926000Y-35133900D03*
X84776000Y-32593900D03*
%TD*%
%TO.C,SW15*%
X80451000Y-54102000D03*
X94301000Y-51562000D03*
%TD*%
%TO.C,SW16*%
X89976000Y-35133900D03*
X103826000Y-32593900D03*
%TD*%
%TO.C,SW17*%
X99374000Y-54102000D03*
X113224000Y-51562000D03*
%TD*%
%TO.C,SW18*%
X104327000Y-73279000D03*
X118177000Y-70739000D03*
%TD*%
%TO.C,SW19*%
X94548000Y-92329000D03*
X108398000Y-89789000D03*
%TD*%
%TO.C,SW20*%
X231835000Y-54102000D03*
X245685000Y-51562000D03*
%TD*%
%TO.C,SW22*%
X123377000Y-73279000D03*
X137227000Y-70739000D03*
%TD*%
%TO.C,SW23*%
X113471000Y-92329000D03*
X127321000Y-89789000D03*
%TD*%
%TO.C,SW24*%
X250885000Y-54102000D03*
X264735000Y-51562000D03*
%TD*%
%TO.C,SW26*%
X109026000Y-35133900D03*
X122876000Y-32593900D03*
%TD*%
%TO.C,SW27*%
X118297000Y-54102000D03*
X132147000Y-51562000D03*
%TD*%
%TO.C,SW28*%
X128076000Y-35133900D03*
X141926000Y-32593900D03*
%TD*%
%TO.C,SW29*%
X137220000Y-54102000D03*
X151070000Y-51562000D03*
%TD*%
%TO.C,SW30*%
X142173000Y-73279000D03*
X156023000Y-70739000D03*
%TD*%
%TO.C,SW31*%
X132394000Y-92329000D03*
X146244000Y-89789000D03*
%TD*%
%TO.C,SW32*%
X166176000Y-16129000D03*
X180026000Y-13589000D03*
%TD*%
%TO.C,SW33*%
X161223000Y-73279000D03*
X175073000Y-70739000D03*
%TD*%
%TO.C,SW34*%
X151317000Y-92329000D03*
X165167000Y-89789000D03*
%TD*%
%TO.C,SW35*%
X185226000Y-16129000D03*
X199076000Y-13589000D03*
%TD*%
%TO.C,SW36*%
X246694000Y-92329000D03*
X260544000Y-89789000D03*
%TD*%
%TO.C,SW38*%
X147126000Y-35133900D03*
X160976000Y-32593900D03*
%TD*%
%TO.C,SW39*%
X156143000Y-54102000D03*
X169993000Y-51562000D03*
%TD*%
%TO.C,SW40*%
X166176000Y-35133900D03*
X180026000Y-32593900D03*
%TD*%
%TO.C,SW41*%
X175066000Y-54102000D03*
X188916000Y-51562000D03*
%TD*%
%TO.C,SW42*%
X180273000Y-73279000D03*
X194123000Y-70739000D03*
%TD*%
%TO.C,SW43*%
X170240000Y-92329000D03*
X184090000Y-89789000D03*
%TD*%
%TO.C,SW44*%
X242376000Y-35133900D03*
X256226000Y-32593900D03*
%TD*%
%TO.C,SW46*%
X199323000Y-73279000D03*
X213173000Y-70739000D03*
%TD*%
%TO.C,SW47*%
X189290000Y-92329000D03*
X203140000Y-89789000D03*
%TD*%
%TO.C,SW49*%
X261426000Y-35133900D03*
X275276000Y-32593900D03*
%TD*%
%TO.C,SW51*%
X185226000Y-35133900D03*
X199076000Y-32593900D03*
%TD*%
%TO.C,SW52*%
X193989000Y-54102000D03*
X207839000Y-51562000D03*
%TD*%
%TO.C,SW53*%
X204276000Y-35133900D03*
X218126000Y-32593900D03*
%TD*%
%TO.C,SW54*%
X212912000Y-54102000D03*
X226762000Y-51562000D03*
%TD*%
%TO.C,SW55*%
X218373000Y-73279000D03*
X232223000Y-70739000D03*
%TD*%
%TO.C,SW56*%
X208467000Y-92329000D03*
X222317000Y-89789000D03*
%TD*%
%TO.C,SW59*%
X223326000Y-35133900D03*
X237176000Y-32593900D03*
%TD*%
%TO.C,SW60*%
X342655000Y-73279000D03*
X356505000Y-70739000D03*
%TD*%
%TO.C,SW61*%
X270062000Y-54102000D03*
X283912000Y-51562000D03*
%TD*%
%TO.C,SW62*%
X361578000Y-73279000D03*
X375428000Y-70739000D03*
%TD*%
%TO.C,SW64*%
X256473000Y-73279000D03*
X270323000Y-70739000D03*
%TD*%
%TO.C,SW66*%
X342655000Y-54229000D03*
X356505000Y-51689000D03*
%TD*%
%TO.C,SW67*%
X323605000Y-54229000D03*
X337455000Y-51689000D03*
%TD*%
%TO.C,SW65*%
X323605000Y-73279000D03*
X337455000Y-70739000D03*
%TD*%
%TO.C,SW68*%
X342655000Y-92329000D03*
X356505000Y-89789000D03*
%TD*%
%TO.C,SW69*%
X323605000Y-35306000D03*
X337455000Y-32766000D03*
%TD*%
%TO.C,SW70*%
X51876000Y-16129000D03*
X65726000Y-13589000D03*
%TD*%
%TO.C,SW71*%
X361578000Y-54229000D03*
X375428000Y-51689000D03*
%TD*%
%TO.C,SW72*%
X361578000Y-92329000D03*
X375428000Y-89789000D03*
%TD*%
%TO.C,SW73*%
X32826000Y-16129000D03*
X46676000Y-13589000D03*
%TD*%
%TO.C,SW74*%
X361578000Y-35306000D03*
X375428000Y-32766000D03*
%TD*%
%TO.C,SW75*%
X361578000Y-111506000D03*
X375428000Y-108966000D03*
%TD*%
%TO.C,SW76*%
X342655000Y-111506000D03*
X356505000Y-108966000D03*
%TD*%
%TO.C,SW77*%
X323605000Y-111506000D03*
X337455000Y-108966000D03*
%TD*%
%TO.C,S2*%
X70926000Y-16129000D03*
X84776000Y-13589000D03*
%TD*%
%TO.C,S1*%
X342655000Y-35306000D03*
X356505000Y-32766000D03*
%TD*%
%TO.C,SW48*%
X273374000Y-111496000D03*
X287224000Y-108956000D03*
%TD*%
M02*
