%TF.GenerationSoftware,KiCad,Pcbnew,(5.1.10)-1*%
%TF.CreationDate,2021-10-06T10:11:25-07:00*%
%TF.ProjectId,chgray-keyboard,63686772-6179-42d6-9b65-79626f617264,Yeet2*%
%TF.SameCoordinates,Original*%
%TF.FileFunction,Paste,Top*%
%TF.FilePolarity,Positive*%
%FSLAX46Y46*%
G04 Gerber Fmt 4.6, Leading zero omitted, Abs format (unit mm)*
G04 Created by KiCad (PCBNEW (5.1.10)-1) date 2021-10-06 10:11:25*
%MOMM*%
%LPD*%
G01*
G04 APERTURE LIST*
%ADD10R,0.700000X0.700000*%
%ADD11R,0.900000X1.200000*%
%ADD12R,1.550000X1.300000*%
%ADD13R,2.000000X4.500000*%
%ADD14R,0.500000X2.500000*%
%ADD15R,2.000000X2.500000*%
G04 APERTURE END LIST*
%TO.C,U1*%
G36*
G01*
X316512000Y-97983001D02*
X316512000Y-97432999D01*
G75*
G02*
X316761999Y-97183000I249999J0D01*
G01*
X317312001Y-97183000D01*
G75*
G02*
X317562000Y-97432999I0J-249999D01*
G01*
X317562000Y-97983001D01*
G75*
G02*
X317312001Y-98233000I-249999J0D01*
G01*
X316761999Y-98233000D01*
G75*
G02*
X316512000Y-97983001I0J249999D01*
G01*
G37*
G36*
G01*
X316512000Y-96683001D02*
X316512000Y-96132999D01*
G75*
G02*
X316761999Y-95883000I249999J0D01*
G01*
X317312001Y-95883000D01*
G75*
G02*
X317562000Y-96132999I0J-249999D01*
G01*
X317562000Y-96683001D01*
G75*
G02*
X317312001Y-96933000I-249999J0D01*
G01*
X316761999Y-96933000D01*
G75*
G02*
X316512000Y-96683001I0J249999D01*
G01*
G37*
G36*
G01*
X316512000Y-95383001D02*
X316512000Y-94832999D01*
G75*
G02*
X316761999Y-94583000I249999J0D01*
G01*
X317312001Y-94583000D01*
G75*
G02*
X317562000Y-94832999I0J-249999D01*
G01*
X317562000Y-95383001D01*
G75*
G02*
X317312001Y-95633000I-249999J0D01*
G01*
X316761999Y-95633000D01*
G75*
G02*
X316512000Y-95383001I0J249999D01*
G01*
G37*
G36*
G01*
X316512000Y-94083001D02*
X316512000Y-93532999D01*
G75*
G02*
X316761999Y-93283000I249999J0D01*
G01*
X317312001Y-93283000D01*
G75*
G02*
X317562000Y-93532999I0J-249999D01*
G01*
X317562000Y-94083001D01*
G75*
G02*
X317312001Y-94333000I-249999J0D01*
G01*
X316761999Y-94333000D01*
G75*
G02*
X316512000Y-94083001I0J249999D01*
G01*
G37*
G36*
G01*
X315212000Y-97983001D02*
X315212000Y-97432999D01*
G75*
G02*
X315461999Y-97183000I249999J0D01*
G01*
X316012001Y-97183000D01*
G75*
G02*
X316262000Y-97432999I0J-249999D01*
G01*
X316262000Y-97983001D01*
G75*
G02*
X316012001Y-98233000I-249999J0D01*
G01*
X315461999Y-98233000D01*
G75*
G02*
X315212000Y-97983001I0J249999D01*
G01*
G37*
G36*
G01*
X315212000Y-96683001D02*
X315212000Y-96132999D01*
G75*
G02*
X315461999Y-95883000I249999J0D01*
G01*
X316012001Y-95883000D01*
G75*
G02*
X316262000Y-96132999I0J-249999D01*
G01*
X316262000Y-96683001D01*
G75*
G02*
X316012001Y-96933000I-249999J0D01*
G01*
X315461999Y-96933000D01*
G75*
G02*
X315212000Y-96683001I0J249999D01*
G01*
G37*
G36*
G01*
X315212000Y-95383001D02*
X315212000Y-94832999D01*
G75*
G02*
X315461999Y-94583000I249999J0D01*
G01*
X316012001Y-94583000D01*
G75*
G02*
X316262000Y-94832999I0J-249999D01*
G01*
X316262000Y-95383001D01*
G75*
G02*
X316012001Y-95633000I-249999J0D01*
G01*
X315461999Y-95633000D01*
G75*
G02*
X315212000Y-95383001I0J249999D01*
G01*
G37*
G36*
G01*
X315212000Y-94083001D02*
X315212000Y-93532999D01*
G75*
G02*
X315461999Y-93283000I249999J0D01*
G01*
X316012001Y-93283000D01*
G75*
G02*
X316262000Y-93532999I0J-249999D01*
G01*
X316262000Y-94083001D01*
G75*
G02*
X316012001Y-94333000I-249999J0D01*
G01*
X315461999Y-94333000D01*
G75*
G02*
X315212000Y-94083001I0J249999D01*
G01*
G37*
G36*
G01*
X313912000Y-97983001D02*
X313912000Y-97432999D01*
G75*
G02*
X314161999Y-97183000I249999J0D01*
G01*
X314712001Y-97183000D01*
G75*
G02*
X314962000Y-97432999I0J-249999D01*
G01*
X314962000Y-97983001D01*
G75*
G02*
X314712001Y-98233000I-249999J0D01*
G01*
X314161999Y-98233000D01*
G75*
G02*
X313912000Y-97983001I0J249999D01*
G01*
G37*
G36*
G01*
X313912000Y-96683001D02*
X313912000Y-96132999D01*
G75*
G02*
X314161999Y-95883000I249999J0D01*
G01*
X314712001Y-95883000D01*
G75*
G02*
X314962000Y-96132999I0J-249999D01*
G01*
X314962000Y-96683001D01*
G75*
G02*
X314712001Y-96933000I-249999J0D01*
G01*
X314161999Y-96933000D01*
G75*
G02*
X313912000Y-96683001I0J249999D01*
G01*
G37*
G36*
G01*
X313912000Y-95383001D02*
X313912000Y-94832999D01*
G75*
G02*
X314161999Y-94583000I249999J0D01*
G01*
X314712001Y-94583000D01*
G75*
G02*
X314962000Y-94832999I0J-249999D01*
G01*
X314962000Y-95383001D01*
G75*
G02*
X314712001Y-95633000I-249999J0D01*
G01*
X314161999Y-95633000D01*
G75*
G02*
X313912000Y-95383001I0J249999D01*
G01*
G37*
G36*
G01*
X313912000Y-94083001D02*
X313912000Y-93532999D01*
G75*
G02*
X314161999Y-93283000I249999J0D01*
G01*
X314712001Y-93283000D01*
G75*
G02*
X314962000Y-93532999I0J-249999D01*
G01*
X314962000Y-94083001D01*
G75*
G02*
X314712001Y-94333000I-249999J0D01*
G01*
X314161999Y-94333000D01*
G75*
G02*
X313912000Y-94083001I0J249999D01*
G01*
G37*
G36*
G01*
X312612000Y-97983001D02*
X312612000Y-97432999D01*
G75*
G02*
X312861999Y-97183000I249999J0D01*
G01*
X313412001Y-97183000D01*
G75*
G02*
X313662000Y-97432999I0J-249999D01*
G01*
X313662000Y-97983001D01*
G75*
G02*
X313412001Y-98233000I-249999J0D01*
G01*
X312861999Y-98233000D01*
G75*
G02*
X312612000Y-97983001I0J249999D01*
G01*
G37*
G36*
G01*
X312612000Y-96683001D02*
X312612000Y-96132999D01*
G75*
G02*
X312861999Y-95883000I249999J0D01*
G01*
X313412001Y-95883000D01*
G75*
G02*
X313662000Y-96132999I0J-249999D01*
G01*
X313662000Y-96683001D01*
G75*
G02*
X313412001Y-96933000I-249999J0D01*
G01*
X312861999Y-96933000D01*
G75*
G02*
X312612000Y-96683001I0J249999D01*
G01*
G37*
G36*
G01*
X312612000Y-95383001D02*
X312612000Y-94832999D01*
G75*
G02*
X312861999Y-94583000I249999J0D01*
G01*
X313412001Y-94583000D01*
G75*
G02*
X313662000Y-94832999I0J-249999D01*
G01*
X313662000Y-95383001D01*
G75*
G02*
X313412001Y-95633000I-249999J0D01*
G01*
X312861999Y-95633000D01*
G75*
G02*
X312612000Y-95383001I0J249999D01*
G01*
G37*
G36*
G01*
X312612000Y-94083001D02*
X312612000Y-93532999D01*
G75*
G02*
X312861999Y-93283000I249999J0D01*
G01*
X313412001Y-93283000D01*
G75*
G02*
X313662000Y-93532999I0J-249999D01*
G01*
X313662000Y-94083001D01*
G75*
G02*
X313412001Y-94333000I-249999J0D01*
G01*
X312861999Y-94333000D01*
G75*
G02*
X312612000Y-94083001I0J249999D01*
G01*
G37*
G36*
G01*
X312462000Y-92895500D02*
X312462000Y-91945500D01*
G75*
G02*
X312524500Y-91883000I62500J0D01*
G01*
X312649500Y-91883000D01*
G75*
G02*
X312712000Y-91945500I0J-62500D01*
G01*
X312712000Y-92895500D01*
G75*
G02*
X312649500Y-92958000I-62500J0D01*
G01*
X312524500Y-92958000D01*
G75*
G02*
X312462000Y-92895500I0J62500D01*
G01*
G37*
G36*
G01*
X312962000Y-92895500D02*
X312962000Y-91945500D01*
G75*
G02*
X313024500Y-91883000I62500J0D01*
G01*
X313149500Y-91883000D01*
G75*
G02*
X313212000Y-91945500I0J-62500D01*
G01*
X313212000Y-92895500D01*
G75*
G02*
X313149500Y-92958000I-62500J0D01*
G01*
X313024500Y-92958000D01*
G75*
G02*
X312962000Y-92895500I0J62500D01*
G01*
G37*
G36*
G01*
X313462000Y-92895500D02*
X313462000Y-91945500D01*
G75*
G02*
X313524500Y-91883000I62500J0D01*
G01*
X313649500Y-91883000D01*
G75*
G02*
X313712000Y-91945500I0J-62500D01*
G01*
X313712000Y-92895500D01*
G75*
G02*
X313649500Y-92958000I-62500J0D01*
G01*
X313524500Y-92958000D01*
G75*
G02*
X313462000Y-92895500I0J62500D01*
G01*
G37*
G36*
G01*
X313962000Y-92895500D02*
X313962000Y-91945500D01*
G75*
G02*
X314024500Y-91883000I62500J0D01*
G01*
X314149500Y-91883000D01*
G75*
G02*
X314212000Y-91945500I0J-62500D01*
G01*
X314212000Y-92895500D01*
G75*
G02*
X314149500Y-92958000I-62500J0D01*
G01*
X314024500Y-92958000D01*
G75*
G02*
X313962000Y-92895500I0J62500D01*
G01*
G37*
G36*
G01*
X314462000Y-92895500D02*
X314462000Y-91945500D01*
G75*
G02*
X314524500Y-91883000I62500J0D01*
G01*
X314649500Y-91883000D01*
G75*
G02*
X314712000Y-91945500I0J-62500D01*
G01*
X314712000Y-92895500D01*
G75*
G02*
X314649500Y-92958000I-62500J0D01*
G01*
X314524500Y-92958000D01*
G75*
G02*
X314462000Y-92895500I0J62500D01*
G01*
G37*
G36*
G01*
X314962000Y-92895500D02*
X314962000Y-91945500D01*
G75*
G02*
X315024500Y-91883000I62500J0D01*
G01*
X315149500Y-91883000D01*
G75*
G02*
X315212000Y-91945500I0J-62500D01*
G01*
X315212000Y-92895500D01*
G75*
G02*
X315149500Y-92958000I-62500J0D01*
G01*
X315024500Y-92958000D01*
G75*
G02*
X314962000Y-92895500I0J62500D01*
G01*
G37*
G36*
G01*
X315462000Y-92895500D02*
X315462000Y-91945500D01*
G75*
G02*
X315524500Y-91883000I62500J0D01*
G01*
X315649500Y-91883000D01*
G75*
G02*
X315712000Y-91945500I0J-62500D01*
G01*
X315712000Y-92895500D01*
G75*
G02*
X315649500Y-92958000I-62500J0D01*
G01*
X315524500Y-92958000D01*
G75*
G02*
X315462000Y-92895500I0J62500D01*
G01*
G37*
G36*
G01*
X315962000Y-92895500D02*
X315962000Y-91945500D01*
G75*
G02*
X316024500Y-91883000I62500J0D01*
G01*
X316149500Y-91883000D01*
G75*
G02*
X316212000Y-91945500I0J-62500D01*
G01*
X316212000Y-92895500D01*
G75*
G02*
X316149500Y-92958000I-62500J0D01*
G01*
X316024500Y-92958000D01*
G75*
G02*
X315962000Y-92895500I0J62500D01*
G01*
G37*
G36*
G01*
X316462000Y-92895500D02*
X316462000Y-91945500D01*
G75*
G02*
X316524500Y-91883000I62500J0D01*
G01*
X316649500Y-91883000D01*
G75*
G02*
X316712000Y-91945500I0J-62500D01*
G01*
X316712000Y-92895500D01*
G75*
G02*
X316649500Y-92958000I-62500J0D01*
G01*
X316524500Y-92958000D01*
G75*
G02*
X316462000Y-92895500I0J62500D01*
G01*
G37*
G36*
G01*
X316962000Y-92895500D02*
X316962000Y-91945500D01*
G75*
G02*
X317024500Y-91883000I62500J0D01*
G01*
X317149500Y-91883000D01*
G75*
G02*
X317212000Y-91945500I0J-62500D01*
G01*
X317212000Y-92895500D01*
G75*
G02*
X317149500Y-92958000I-62500J0D01*
G01*
X317024500Y-92958000D01*
G75*
G02*
X316962000Y-92895500I0J62500D01*
G01*
G37*
G36*
G01*
X317462000Y-92895500D02*
X317462000Y-91945500D01*
G75*
G02*
X317524500Y-91883000I62500J0D01*
G01*
X317649500Y-91883000D01*
G75*
G02*
X317712000Y-91945500I0J-62500D01*
G01*
X317712000Y-92895500D01*
G75*
G02*
X317649500Y-92958000I-62500J0D01*
G01*
X317524500Y-92958000D01*
G75*
G02*
X317462000Y-92895500I0J62500D01*
G01*
G37*
G36*
G01*
X317887000Y-93320500D02*
X317887000Y-93195500D01*
G75*
G02*
X317949500Y-93133000I62500J0D01*
G01*
X318899500Y-93133000D01*
G75*
G02*
X318962000Y-93195500I0J-62500D01*
G01*
X318962000Y-93320500D01*
G75*
G02*
X318899500Y-93383000I-62500J0D01*
G01*
X317949500Y-93383000D01*
G75*
G02*
X317887000Y-93320500I0J62500D01*
G01*
G37*
G36*
G01*
X317887000Y-93820500D02*
X317887000Y-93695500D01*
G75*
G02*
X317949500Y-93633000I62500J0D01*
G01*
X318899500Y-93633000D01*
G75*
G02*
X318962000Y-93695500I0J-62500D01*
G01*
X318962000Y-93820500D01*
G75*
G02*
X318899500Y-93883000I-62500J0D01*
G01*
X317949500Y-93883000D01*
G75*
G02*
X317887000Y-93820500I0J62500D01*
G01*
G37*
G36*
G01*
X317887000Y-94320500D02*
X317887000Y-94195500D01*
G75*
G02*
X317949500Y-94133000I62500J0D01*
G01*
X318899500Y-94133000D01*
G75*
G02*
X318962000Y-94195500I0J-62500D01*
G01*
X318962000Y-94320500D01*
G75*
G02*
X318899500Y-94383000I-62500J0D01*
G01*
X317949500Y-94383000D01*
G75*
G02*
X317887000Y-94320500I0J62500D01*
G01*
G37*
G36*
G01*
X317887000Y-94820500D02*
X317887000Y-94695500D01*
G75*
G02*
X317949500Y-94633000I62500J0D01*
G01*
X318899500Y-94633000D01*
G75*
G02*
X318962000Y-94695500I0J-62500D01*
G01*
X318962000Y-94820500D01*
G75*
G02*
X318899500Y-94883000I-62500J0D01*
G01*
X317949500Y-94883000D01*
G75*
G02*
X317887000Y-94820500I0J62500D01*
G01*
G37*
G36*
G01*
X317887000Y-95320500D02*
X317887000Y-95195500D01*
G75*
G02*
X317949500Y-95133000I62500J0D01*
G01*
X318899500Y-95133000D01*
G75*
G02*
X318962000Y-95195500I0J-62500D01*
G01*
X318962000Y-95320500D01*
G75*
G02*
X318899500Y-95383000I-62500J0D01*
G01*
X317949500Y-95383000D01*
G75*
G02*
X317887000Y-95320500I0J62500D01*
G01*
G37*
G36*
G01*
X317887000Y-95820500D02*
X317887000Y-95695500D01*
G75*
G02*
X317949500Y-95633000I62500J0D01*
G01*
X318899500Y-95633000D01*
G75*
G02*
X318962000Y-95695500I0J-62500D01*
G01*
X318962000Y-95820500D01*
G75*
G02*
X318899500Y-95883000I-62500J0D01*
G01*
X317949500Y-95883000D01*
G75*
G02*
X317887000Y-95820500I0J62500D01*
G01*
G37*
G36*
G01*
X317887000Y-96320500D02*
X317887000Y-96195500D01*
G75*
G02*
X317949500Y-96133000I62500J0D01*
G01*
X318899500Y-96133000D01*
G75*
G02*
X318962000Y-96195500I0J-62500D01*
G01*
X318962000Y-96320500D01*
G75*
G02*
X318899500Y-96383000I-62500J0D01*
G01*
X317949500Y-96383000D01*
G75*
G02*
X317887000Y-96320500I0J62500D01*
G01*
G37*
G36*
G01*
X317887000Y-96820500D02*
X317887000Y-96695500D01*
G75*
G02*
X317949500Y-96633000I62500J0D01*
G01*
X318899500Y-96633000D01*
G75*
G02*
X318962000Y-96695500I0J-62500D01*
G01*
X318962000Y-96820500D01*
G75*
G02*
X318899500Y-96883000I-62500J0D01*
G01*
X317949500Y-96883000D01*
G75*
G02*
X317887000Y-96820500I0J62500D01*
G01*
G37*
G36*
G01*
X317887000Y-97320500D02*
X317887000Y-97195500D01*
G75*
G02*
X317949500Y-97133000I62500J0D01*
G01*
X318899500Y-97133000D01*
G75*
G02*
X318962000Y-97195500I0J-62500D01*
G01*
X318962000Y-97320500D01*
G75*
G02*
X318899500Y-97383000I-62500J0D01*
G01*
X317949500Y-97383000D01*
G75*
G02*
X317887000Y-97320500I0J62500D01*
G01*
G37*
G36*
G01*
X317887000Y-97820500D02*
X317887000Y-97695500D01*
G75*
G02*
X317949500Y-97633000I62500J0D01*
G01*
X318899500Y-97633000D01*
G75*
G02*
X318962000Y-97695500I0J-62500D01*
G01*
X318962000Y-97820500D01*
G75*
G02*
X318899500Y-97883000I-62500J0D01*
G01*
X317949500Y-97883000D01*
G75*
G02*
X317887000Y-97820500I0J62500D01*
G01*
G37*
G36*
G01*
X317887000Y-98320500D02*
X317887000Y-98195500D01*
G75*
G02*
X317949500Y-98133000I62500J0D01*
G01*
X318899500Y-98133000D01*
G75*
G02*
X318962000Y-98195500I0J-62500D01*
G01*
X318962000Y-98320500D01*
G75*
G02*
X318899500Y-98383000I-62500J0D01*
G01*
X317949500Y-98383000D01*
G75*
G02*
X317887000Y-98320500I0J62500D01*
G01*
G37*
G36*
G01*
X317462000Y-99570500D02*
X317462000Y-98620500D01*
G75*
G02*
X317524500Y-98558000I62500J0D01*
G01*
X317649500Y-98558000D01*
G75*
G02*
X317712000Y-98620500I0J-62500D01*
G01*
X317712000Y-99570500D01*
G75*
G02*
X317649500Y-99633000I-62500J0D01*
G01*
X317524500Y-99633000D01*
G75*
G02*
X317462000Y-99570500I0J62500D01*
G01*
G37*
G36*
G01*
X316962000Y-99570500D02*
X316962000Y-98620500D01*
G75*
G02*
X317024500Y-98558000I62500J0D01*
G01*
X317149500Y-98558000D01*
G75*
G02*
X317212000Y-98620500I0J-62500D01*
G01*
X317212000Y-99570500D01*
G75*
G02*
X317149500Y-99633000I-62500J0D01*
G01*
X317024500Y-99633000D01*
G75*
G02*
X316962000Y-99570500I0J62500D01*
G01*
G37*
G36*
G01*
X316462000Y-99570500D02*
X316462000Y-98620500D01*
G75*
G02*
X316524500Y-98558000I62500J0D01*
G01*
X316649500Y-98558000D01*
G75*
G02*
X316712000Y-98620500I0J-62500D01*
G01*
X316712000Y-99570500D01*
G75*
G02*
X316649500Y-99633000I-62500J0D01*
G01*
X316524500Y-99633000D01*
G75*
G02*
X316462000Y-99570500I0J62500D01*
G01*
G37*
G36*
G01*
X315962000Y-99570500D02*
X315962000Y-98620500D01*
G75*
G02*
X316024500Y-98558000I62500J0D01*
G01*
X316149500Y-98558000D01*
G75*
G02*
X316212000Y-98620500I0J-62500D01*
G01*
X316212000Y-99570500D01*
G75*
G02*
X316149500Y-99633000I-62500J0D01*
G01*
X316024500Y-99633000D01*
G75*
G02*
X315962000Y-99570500I0J62500D01*
G01*
G37*
G36*
G01*
X315462000Y-99570500D02*
X315462000Y-98620500D01*
G75*
G02*
X315524500Y-98558000I62500J0D01*
G01*
X315649500Y-98558000D01*
G75*
G02*
X315712000Y-98620500I0J-62500D01*
G01*
X315712000Y-99570500D01*
G75*
G02*
X315649500Y-99633000I-62500J0D01*
G01*
X315524500Y-99633000D01*
G75*
G02*
X315462000Y-99570500I0J62500D01*
G01*
G37*
G36*
G01*
X314962000Y-99570500D02*
X314962000Y-98620500D01*
G75*
G02*
X315024500Y-98558000I62500J0D01*
G01*
X315149500Y-98558000D01*
G75*
G02*
X315212000Y-98620500I0J-62500D01*
G01*
X315212000Y-99570500D01*
G75*
G02*
X315149500Y-99633000I-62500J0D01*
G01*
X315024500Y-99633000D01*
G75*
G02*
X314962000Y-99570500I0J62500D01*
G01*
G37*
G36*
G01*
X314462000Y-99570500D02*
X314462000Y-98620500D01*
G75*
G02*
X314524500Y-98558000I62500J0D01*
G01*
X314649500Y-98558000D01*
G75*
G02*
X314712000Y-98620500I0J-62500D01*
G01*
X314712000Y-99570500D01*
G75*
G02*
X314649500Y-99633000I-62500J0D01*
G01*
X314524500Y-99633000D01*
G75*
G02*
X314462000Y-99570500I0J62500D01*
G01*
G37*
G36*
G01*
X313962000Y-99570500D02*
X313962000Y-98620500D01*
G75*
G02*
X314024500Y-98558000I62500J0D01*
G01*
X314149500Y-98558000D01*
G75*
G02*
X314212000Y-98620500I0J-62500D01*
G01*
X314212000Y-99570500D01*
G75*
G02*
X314149500Y-99633000I-62500J0D01*
G01*
X314024500Y-99633000D01*
G75*
G02*
X313962000Y-99570500I0J62500D01*
G01*
G37*
G36*
G01*
X313462000Y-99570500D02*
X313462000Y-98620500D01*
G75*
G02*
X313524500Y-98558000I62500J0D01*
G01*
X313649500Y-98558000D01*
G75*
G02*
X313712000Y-98620500I0J-62500D01*
G01*
X313712000Y-99570500D01*
G75*
G02*
X313649500Y-99633000I-62500J0D01*
G01*
X313524500Y-99633000D01*
G75*
G02*
X313462000Y-99570500I0J62500D01*
G01*
G37*
G36*
G01*
X312962000Y-99570500D02*
X312962000Y-98620500D01*
G75*
G02*
X313024500Y-98558000I62500J0D01*
G01*
X313149500Y-98558000D01*
G75*
G02*
X313212000Y-98620500I0J-62500D01*
G01*
X313212000Y-99570500D01*
G75*
G02*
X313149500Y-99633000I-62500J0D01*
G01*
X313024500Y-99633000D01*
G75*
G02*
X312962000Y-99570500I0J62500D01*
G01*
G37*
G36*
G01*
X312462000Y-99570500D02*
X312462000Y-98620500D01*
G75*
G02*
X312524500Y-98558000I62500J0D01*
G01*
X312649500Y-98558000D01*
G75*
G02*
X312712000Y-98620500I0J-62500D01*
G01*
X312712000Y-99570500D01*
G75*
G02*
X312649500Y-99633000I-62500J0D01*
G01*
X312524500Y-99633000D01*
G75*
G02*
X312462000Y-99570500I0J62500D01*
G01*
G37*
G36*
G01*
X311212000Y-98320500D02*
X311212000Y-98195500D01*
G75*
G02*
X311274500Y-98133000I62500J0D01*
G01*
X312224500Y-98133000D01*
G75*
G02*
X312287000Y-98195500I0J-62500D01*
G01*
X312287000Y-98320500D01*
G75*
G02*
X312224500Y-98383000I-62500J0D01*
G01*
X311274500Y-98383000D01*
G75*
G02*
X311212000Y-98320500I0J62500D01*
G01*
G37*
G36*
G01*
X311212000Y-97820500D02*
X311212000Y-97695500D01*
G75*
G02*
X311274500Y-97633000I62500J0D01*
G01*
X312224500Y-97633000D01*
G75*
G02*
X312287000Y-97695500I0J-62500D01*
G01*
X312287000Y-97820500D01*
G75*
G02*
X312224500Y-97883000I-62500J0D01*
G01*
X311274500Y-97883000D01*
G75*
G02*
X311212000Y-97820500I0J62500D01*
G01*
G37*
G36*
G01*
X311212000Y-97320500D02*
X311212000Y-97195500D01*
G75*
G02*
X311274500Y-97133000I62500J0D01*
G01*
X312224500Y-97133000D01*
G75*
G02*
X312287000Y-97195500I0J-62500D01*
G01*
X312287000Y-97320500D01*
G75*
G02*
X312224500Y-97383000I-62500J0D01*
G01*
X311274500Y-97383000D01*
G75*
G02*
X311212000Y-97320500I0J62500D01*
G01*
G37*
G36*
G01*
X311212000Y-96820500D02*
X311212000Y-96695500D01*
G75*
G02*
X311274500Y-96633000I62500J0D01*
G01*
X312224500Y-96633000D01*
G75*
G02*
X312287000Y-96695500I0J-62500D01*
G01*
X312287000Y-96820500D01*
G75*
G02*
X312224500Y-96883000I-62500J0D01*
G01*
X311274500Y-96883000D01*
G75*
G02*
X311212000Y-96820500I0J62500D01*
G01*
G37*
G36*
G01*
X311212000Y-96320500D02*
X311212000Y-96195500D01*
G75*
G02*
X311274500Y-96133000I62500J0D01*
G01*
X312224500Y-96133000D01*
G75*
G02*
X312287000Y-96195500I0J-62500D01*
G01*
X312287000Y-96320500D01*
G75*
G02*
X312224500Y-96383000I-62500J0D01*
G01*
X311274500Y-96383000D01*
G75*
G02*
X311212000Y-96320500I0J62500D01*
G01*
G37*
G36*
G01*
X311212000Y-95820500D02*
X311212000Y-95695500D01*
G75*
G02*
X311274500Y-95633000I62500J0D01*
G01*
X312224500Y-95633000D01*
G75*
G02*
X312287000Y-95695500I0J-62500D01*
G01*
X312287000Y-95820500D01*
G75*
G02*
X312224500Y-95883000I-62500J0D01*
G01*
X311274500Y-95883000D01*
G75*
G02*
X311212000Y-95820500I0J62500D01*
G01*
G37*
G36*
G01*
X311212000Y-95320500D02*
X311212000Y-95195500D01*
G75*
G02*
X311274500Y-95133000I62500J0D01*
G01*
X312224500Y-95133000D01*
G75*
G02*
X312287000Y-95195500I0J-62500D01*
G01*
X312287000Y-95320500D01*
G75*
G02*
X312224500Y-95383000I-62500J0D01*
G01*
X311274500Y-95383000D01*
G75*
G02*
X311212000Y-95320500I0J62500D01*
G01*
G37*
G36*
G01*
X311212000Y-94820500D02*
X311212000Y-94695500D01*
G75*
G02*
X311274500Y-94633000I62500J0D01*
G01*
X312224500Y-94633000D01*
G75*
G02*
X312287000Y-94695500I0J-62500D01*
G01*
X312287000Y-94820500D01*
G75*
G02*
X312224500Y-94883000I-62500J0D01*
G01*
X311274500Y-94883000D01*
G75*
G02*
X311212000Y-94820500I0J62500D01*
G01*
G37*
G36*
G01*
X311212000Y-94320500D02*
X311212000Y-94195500D01*
G75*
G02*
X311274500Y-94133000I62500J0D01*
G01*
X312224500Y-94133000D01*
G75*
G02*
X312287000Y-94195500I0J-62500D01*
G01*
X312287000Y-94320500D01*
G75*
G02*
X312224500Y-94383000I-62500J0D01*
G01*
X311274500Y-94383000D01*
G75*
G02*
X311212000Y-94320500I0J62500D01*
G01*
G37*
G36*
G01*
X311212000Y-93820500D02*
X311212000Y-93695500D01*
G75*
G02*
X311274500Y-93633000I62500J0D01*
G01*
X312224500Y-93633000D01*
G75*
G02*
X312287000Y-93695500I0J-62500D01*
G01*
X312287000Y-93820500D01*
G75*
G02*
X312224500Y-93883000I-62500J0D01*
G01*
X311274500Y-93883000D01*
G75*
G02*
X311212000Y-93820500I0J62500D01*
G01*
G37*
G36*
G01*
X311212000Y-93320500D02*
X311212000Y-93195500D01*
G75*
G02*
X311274500Y-93133000I62500J0D01*
G01*
X312224500Y-93133000D01*
G75*
G02*
X312287000Y-93195500I0J-62500D01*
G01*
X312287000Y-93320500D01*
G75*
G02*
X312224500Y-93383000I-62500J0D01*
G01*
X311274500Y-93383000D01*
G75*
G02*
X311212000Y-93320500I0J62500D01*
G01*
G37*
%TD*%
D10*
%TO.C,D179*%
X163018000Y-119033000D03*
X163018000Y-120133000D03*
X161188000Y-120133000D03*
X161188000Y-119033000D03*
%TD*%
%TO.C,C85*%
G36*
G01*
X315841000Y-39512900D02*
X315501000Y-39512900D01*
G75*
G02*
X315361000Y-39372900I0J140000D01*
G01*
X315361000Y-39092900D01*
G75*
G02*
X315501000Y-38952900I140000J0D01*
G01*
X315841000Y-38952900D01*
G75*
G02*
X315981000Y-39092900I0J-140000D01*
G01*
X315981000Y-39372900D01*
G75*
G02*
X315841000Y-39512900I-140000J0D01*
G01*
G37*
G36*
G01*
X315841000Y-40472900D02*
X315501000Y-40472900D01*
G75*
G02*
X315361000Y-40332900I0J140000D01*
G01*
X315361000Y-40052900D01*
G75*
G02*
X315501000Y-39912900I140000J0D01*
G01*
X315841000Y-39912900D01*
G75*
G02*
X315981000Y-40052900I0J-140000D01*
G01*
X315981000Y-40332900D01*
G75*
G02*
X315841000Y-40472900I-140000J0D01*
G01*
G37*
%TD*%
%TO.C,D174*%
X180188000Y-118669000D03*
X180188000Y-119769000D03*
X178358000Y-119769000D03*
X178358000Y-118669000D03*
%TD*%
%TO.C,D169*%
X141631000Y-118830000D03*
X141631000Y-119930000D03*
X139801000Y-119930000D03*
X139801000Y-118830000D03*
%TD*%
%TO.C,D164*%
X197460000Y-118474000D03*
X197460000Y-119574000D03*
X195630000Y-119574000D03*
X195630000Y-118474000D03*
%TD*%
%TO.C,D159*%
X121057000Y-118830000D03*
X121057000Y-119930000D03*
X119227000Y-119930000D03*
X119227000Y-118830000D03*
%TD*%
%TO.C,C80*%
G36*
G01*
X315841000Y-35290200D02*
X315501000Y-35290200D01*
G75*
G02*
X315361000Y-35150200I0J140000D01*
G01*
X315361000Y-34870200D01*
G75*
G02*
X315501000Y-34730200I140000J0D01*
G01*
X315841000Y-34730200D01*
G75*
G02*
X315981000Y-34870200I0J-140000D01*
G01*
X315981000Y-35150200D01*
G75*
G02*
X315841000Y-35290200I-140000J0D01*
G01*
G37*
G36*
G01*
X315841000Y-36250200D02*
X315501000Y-36250200D01*
G75*
G02*
X315361000Y-36110200I0J140000D01*
G01*
X315361000Y-35830200D01*
G75*
G02*
X315501000Y-35690200I140000J0D01*
G01*
X315841000Y-35690200D01*
G75*
G02*
X315981000Y-35830200I0J-140000D01*
G01*
X315981000Y-36110200D01*
G75*
G02*
X315841000Y-36250200I-140000J0D01*
G01*
G37*
%TD*%
%TO.C,C75*%
G36*
G01*
X315841000Y-45847000D02*
X315501000Y-45847000D01*
G75*
G02*
X315361000Y-45707000I0J140000D01*
G01*
X315361000Y-45427000D01*
G75*
G02*
X315501000Y-45287000I140000J0D01*
G01*
X315841000Y-45287000D01*
G75*
G02*
X315981000Y-45427000I0J-140000D01*
G01*
X315981000Y-45707000D01*
G75*
G02*
X315841000Y-45847000I-140000J0D01*
G01*
G37*
G36*
G01*
X315841000Y-46807000D02*
X315501000Y-46807000D01*
G75*
G02*
X315361000Y-46667000I0J140000D01*
G01*
X315361000Y-46387000D01*
G75*
G02*
X315501000Y-46247000I140000J0D01*
G01*
X315841000Y-46247000D01*
G75*
G02*
X315981000Y-46387000I0J-140000D01*
G01*
X315981000Y-46667000D01*
G75*
G02*
X315841000Y-46807000I-140000J0D01*
G01*
G37*
%TD*%
%TO.C,C70*%
G36*
G01*
X315841000Y-20510500D02*
X315501000Y-20510500D01*
G75*
G02*
X315361000Y-20370500I0J140000D01*
G01*
X315361000Y-20090500D01*
G75*
G02*
X315501000Y-19950500I140000J0D01*
G01*
X315841000Y-19950500D01*
G75*
G02*
X315981000Y-20090500I0J-140000D01*
G01*
X315981000Y-20370500D01*
G75*
G02*
X315841000Y-20510500I-140000J0D01*
G01*
G37*
G36*
G01*
X315841000Y-21470500D02*
X315501000Y-21470500D01*
G75*
G02*
X315361000Y-21330500I0J140000D01*
G01*
X315361000Y-21050500D01*
G75*
G02*
X315501000Y-20910500I140000J0D01*
G01*
X315841000Y-20910500D01*
G75*
G02*
X315981000Y-21050500I0J-140000D01*
G01*
X315981000Y-21330500D01*
G75*
G02*
X315841000Y-21470500I-140000J0D01*
G01*
G37*
%TD*%
%TO.C,C65*%
G36*
G01*
X315841000Y-43735700D02*
X315501000Y-43735700D01*
G75*
G02*
X315361000Y-43595700I0J140000D01*
G01*
X315361000Y-43315700D01*
G75*
G02*
X315501000Y-43175700I140000J0D01*
G01*
X315841000Y-43175700D01*
G75*
G02*
X315981000Y-43315700I0J-140000D01*
G01*
X315981000Y-43595700D01*
G75*
G02*
X315841000Y-43735700I-140000J0D01*
G01*
G37*
G36*
G01*
X315841000Y-44695700D02*
X315501000Y-44695700D01*
G75*
G02*
X315361000Y-44555700I0J140000D01*
G01*
X315361000Y-44275700D01*
G75*
G02*
X315501000Y-44135700I140000J0D01*
G01*
X315841000Y-44135700D01*
G75*
G02*
X315981000Y-44275700I0J-140000D01*
G01*
X315981000Y-44555700D01*
G75*
G02*
X315841000Y-44695700I-140000J0D01*
G01*
G37*
%TD*%
%TO.C,D154*%
X370079000Y-23732400D03*
X370079000Y-24832400D03*
X368249000Y-24832400D03*
X368249000Y-23732400D03*
%TD*%
%TO.C,C60*%
G36*
G01*
X315841000Y-22621900D02*
X315501000Y-22621900D01*
G75*
G02*
X315361000Y-22481900I0J140000D01*
G01*
X315361000Y-22201900D01*
G75*
G02*
X315501000Y-22061900I140000J0D01*
G01*
X315841000Y-22061900D01*
G75*
G02*
X315981000Y-22201900I0J-140000D01*
G01*
X315981000Y-22481900D01*
G75*
G02*
X315841000Y-22621900I-140000J0D01*
G01*
G37*
G36*
G01*
X315841000Y-23581900D02*
X315501000Y-23581900D01*
G75*
G02*
X315361000Y-23441900I0J140000D01*
G01*
X315361000Y-23161900D01*
G75*
G02*
X315501000Y-23021900I140000J0D01*
G01*
X315841000Y-23021900D01*
G75*
G02*
X315981000Y-23161900I0J-140000D01*
G01*
X315981000Y-23441900D01*
G75*
G02*
X315841000Y-23581900I-140000J0D01*
G01*
G37*
%TD*%
%TO.C,D149*%
X351182000Y-23690400D03*
X351182000Y-24790400D03*
X349352000Y-24790400D03*
X349352000Y-23690400D03*
%TD*%
%TO.C,D144*%
X269902000Y-23690400D03*
X269902000Y-24790400D03*
X268072000Y-24790400D03*
X268072000Y-23690400D03*
%TD*%
%TO.C,D139*%
X332081000Y-23690400D03*
X332081000Y-24790400D03*
X330251000Y-24790400D03*
X330251000Y-23690400D03*
%TD*%
%TO.C,D134*%
X288952000Y-23690400D03*
X288952000Y-24790400D03*
X287122000Y-24790400D03*
X287122000Y-23690400D03*
%TD*%
%TO.C,D129*%
X212752000Y-23741200D03*
X212752000Y-24841200D03*
X210922000Y-24841200D03*
X210922000Y-23741200D03*
%TD*%
%TO.C,D124*%
X308154000Y-23639600D03*
X308154000Y-24739600D03*
X306324000Y-24739600D03*
X306324000Y-23639600D03*
%TD*%
%TO.C,D119*%
X231802000Y-23639600D03*
X231802000Y-24739600D03*
X229972000Y-24739600D03*
X229972000Y-23639600D03*
%TD*%
%TO.C,D114*%
X250902000Y-23672800D03*
X250902000Y-24772800D03*
X249072000Y-24772800D03*
X249072000Y-23672800D03*
%TD*%
%TO.C,C55*%
G36*
G01*
X315841000Y-31067400D02*
X315501000Y-31067400D01*
G75*
G02*
X315361000Y-30927400I0J140000D01*
G01*
X315361000Y-30647400D01*
G75*
G02*
X315501000Y-30507400I140000J0D01*
G01*
X315841000Y-30507400D01*
G75*
G02*
X315981000Y-30647400I0J-140000D01*
G01*
X315981000Y-30927400D01*
G75*
G02*
X315841000Y-31067400I-140000J0D01*
G01*
G37*
G36*
G01*
X315841000Y-32027400D02*
X315501000Y-32027400D01*
G75*
G02*
X315361000Y-31887400I0J140000D01*
G01*
X315361000Y-31607400D01*
G75*
G02*
X315501000Y-31467400I140000J0D01*
G01*
X315841000Y-31467400D01*
G75*
G02*
X315981000Y-31607400I0J-140000D01*
G01*
X315981000Y-31887400D01*
G75*
G02*
X315841000Y-32027400I-140000J0D01*
G01*
G37*
%TD*%
%TO.C,C50*%
G36*
G01*
X315841000Y-16287800D02*
X315501000Y-16287800D01*
G75*
G02*
X315361000Y-16147800I0J140000D01*
G01*
X315361000Y-15867800D01*
G75*
G02*
X315501000Y-15727800I140000J0D01*
G01*
X315841000Y-15727800D01*
G75*
G02*
X315981000Y-15867800I0J-140000D01*
G01*
X315981000Y-16147800D01*
G75*
G02*
X315841000Y-16287800I-140000J0D01*
G01*
G37*
G36*
G01*
X315841000Y-17247800D02*
X315501000Y-17247800D01*
G75*
G02*
X315361000Y-17107800I0J140000D01*
G01*
X315361000Y-16827800D01*
G75*
G02*
X315501000Y-16687800I140000J0D01*
G01*
X315841000Y-16687800D01*
G75*
G02*
X315981000Y-16827800I0J-140000D01*
G01*
X315981000Y-17107800D01*
G75*
G02*
X315841000Y-17247800I-140000J0D01*
G01*
G37*
%TD*%
%TO.C,C45*%
G36*
G01*
X315841000Y-18399200D02*
X315501000Y-18399200D01*
G75*
G02*
X315361000Y-18259200I0J140000D01*
G01*
X315361000Y-17979200D01*
G75*
G02*
X315501000Y-17839200I140000J0D01*
G01*
X315841000Y-17839200D01*
G75*
G02*
X315981000Y-17979200I0J-140000D01*
G01*
X315981000Y-18259200D01*
G75*
G02*
X315841000Y-18399200I-140000J0D01*
G01*
G37*
G36*
G01*
X315841000Y-19359200D02*
X315501000Y-19359200D01*
G75*
G02*
X315361000Y-19219200I0J140000D01*
G01*
X315361000Y-18939200D01*
G75*
G02*
X315501000Y-18799200I140000J0D01*
G01*
X315841000Y-18799200D01*
G75*
G02*
X315981000Y-18939200I0J-140000D01*
G01*
X315981000Y-19219200D01*
G75*
G02*
X315841000Y-19359200I-140000J0D01*
G01*
G37*
%TD*%
%TO.C,C40*%
G36*
G01*
X315841000Y-24733300D02*
X315501000Y-24733300D01*
G75*
G02*
X315361000Y-24593300I0J140000D01*
G01*
X315361000Y-24313300D01*
G75*
G02*
X315501000Y-24173300I140000J0D01*
G01*
X315841000Y-24173300D01*
G75*
G02*
X315981000Y-24313300I0J-140000D01*
G01*
X315981000Y-24593300D01*
G75*
G02*
X315841000Y-24733300I-140000J0D01*
G01*
G37*
G36*
G01*
X315841000Y-25693300D02*
X315501000Y-25693300D01*
G75*
G02*
X315361000Y-25553300I0J140000D01*
G01*
X315361000Y-25273300D01*
G75*
G02*
X315501000Y-25133300I140000J0D01*
G01*
X315841000Y-25133300D01*
G75*
G02*
X315981000Y-25273300I0J-140000D01*
G01*
X315981000Y-25553300D01*
G75*
G02*
X315841000Y-25693300I-140000J0D01*
G01*
G37*
%TD*%
%TO.C,C35*%
G36*
G01*
X315841000Y-14176400D02*
X315501000Y-14176400D01*
G75*
G02*
X315361000Y-14036400I0J140000D01*
G01*
X315361000Y-13756400D01*
G75*
G02*
X315501000Y-13616400I140000J0D01*
G01*
X315841000Y-13616400D01*
G75*
G02*
X315981000Y-13756400I0J-140000D01*
G01*
X315981000Y-14036400D01*
G75*
G02*
X315841000Y-14176400I-140000J0D01*
G01*
G37*
G36*
G01*
X315841000Y-15136400D02*
X315501000Y-15136400D01*
G75*
G02*
X315361000Y-14996400I0J140000D01*
G01*
X315361000Y-14716400D01*
G75*
G02*
X315501000Y-14576400I140000J0D01*
G01*
X315841000Y-14576400D01*
G75*
G02*
X315981000Y-14716400I0J-140000D01*
G01*
X315981000Y-14996400D01*
G75*
G02*
X315841000Y-15136400I-140000J0D01*
G01*
G37*
%TD*%
%TO.C,C30*%
G36*
G01*
X315689000Y-47958400D02*
X315349000Y-47958400D01*
G75*
G02*
X315209000Y-47818400I0J140000D01*
G01*
X315209000Y-47538400D01*
G75*
G02*
X315349000Y-47398400I140000J0D01*
G01*
X315689000Y-47398400D01*
G75*
G02*
X315829000Y-47538400I0J-140000D01*
G01*
X315829000Y-47818400D01*
G75*
G02*
X315689000Y-47958400I-140000J0D01*
G01*
G37*
G36*
G01*
X315689000Y-48918400D02*
X315349000Y-48918400D01*
G75*
G02*
X315209000Y-48778400I0J140000D01*
G01*
X315209000Y-48498400D01*
G75*
G02*
X315349000Y-48358400I140000J0D01*
G01*
X315689000Y-48358400D01*
G75*
G02*
X315829000Y-48498400I0J-140000D01*
G01*
X315829000Y-48778400D01*
G75*
G02*
X315689000Y-48918400I-140000J0D01*
G01*
G37*
%TD*%
%TO.C,C25*%
G36*
G01*
X315841000Y-33178800D02*
X315501000Y-33178800D01*
G75*
G02*
X315361000Y-33038800I0J140000D01*
G01*
X315361000Y-32758800D01*
G75*
G02*
X315501000Y-32618800I140000J0D01*
G01*
X315841000Y-32618800D01*
G75*
G02*
X315981000Y-32758800I0J-140000D01*
G01*
X315981000Y-33038800D01*
G75*
G02*
X315841000Y-33178800I-140000J0D01*
G01*
G37*
G36*
G01*
X315841000Y-34138800D02*
X315501000Y-34138800D01*
G75*
G02*
X315361000Y-33998800I0J140000D01*
G01*
X315361000Y-33718800D01*
G75*
G02*
X315501000Y-33578800I140000J0D01*
G01*
X315841000Y-33578800D01*
G75*
G02*
X315981000Y-33718800I0J-140000D01*
G01*
X315981000Y-33998800D01*
G75*
G02*
X315841000Y-34138800I-140000J0D01*
G01*
G37*
%TD*%
%TO.C,C20*%
G36*
G01*
X315841000Y-41624300D02*
X315501000Y-41624300D01*
G75*
G02*
X315361000Y-41484300I0J140000D01*
G01*
X315361000Y-41204300D01*
G75*
G02*
X315501000Y-41064300I140000J0D01*
G01*
X315841000Y-41064300D01*
G75*
G02*
X315981000Y-41204300I0J-140000D01*
G01*
X315981000Y-41484300D01*
G75*
G02*
X315841000Y-41624300I-140000J0D01*
G01*
G37*
G36*
G01*
X315841000Y-42584300D02*
X315501000Y-42584300D01*
G75*
G02*
X315361000Y-42444300I0J140000D01*
G01*
X315361000Y-42164300D01*
G75*
G02*
X315501000Y-42024300I140000J0D01*
G01*
X315841000Y-42024300D01*
G75*
G02*
X315981000Y-42164300I0J-140000D01*
G01*
X315981000Y-42444300D01*
G75*
G02*
X315841000Y-42584300I-140000J0D01*
G01*
G37*
%TD*%
D11*
%TO.C,D70*%
X189985000Y-47155600D03*
X186685000Y-47155600D03*
%TD*%
%TO.C,D94*%
X119172000Y-47155600D03*
X115872000Y-47155600D03*
%TD*%
%TO.C,D93*%
X266244000Y-47155600D03*
X262944000Y-47155600D03*
%TD*%
%TO.C,D92*%
X255350000Y-47155600D03*
X252050000Y-47155600D03*
%TD*%
%TO.C,D91*%
X244456000Y-47155600D03*
X241156000Y-47155600D03*
%TD*%
%TO.C,D90*%
X228114000Y-47155600D03*
X224814000Y-47155600D03*
%TD*%
%TO.C,D89*%
X217220000Y-47155600D03*
X213920000Y-47155600D03*
%TD*%
%TO.C,D88*%
X200879000Y-47155600D03*
X197579000Y-47155600D03*
%TD*%
%TO.C,D87*%
X124619000Y-47155600D03*
X121319000Y-47155600D03*
%TD*%
%TO.C,D86*%
X168196000Y-47155600D03*
X164896000Y-47155600D03*
%TD*%
%TO.C,D85*%
X97383600Y-47155600D03*
X94083600Y-47155600D03*
%TD*%
%TO.C,D84*%
X130066000Y-47155600D03*
X126766000Y-47155600D03*
%TD*%
%TO.C,D83*%
X108278000Y-47155600D03*
X104978000Y-47155600D03*
%TD*%
%TO.C,D82*%
X140961000Y-47155600D03*
X137661000Y-47155600D03*
%TD*%
%TO.C,D81*%
X277138000Y-47155600D03*
X273838000Y-47155600D03*
%TD*%
%TO.C,D80*%
X180410000Y-85357200D03*
X177110000Y-85357200D03*
%TD*%
%TO.C,D79*%
X233561000Y-47155600D03*
X230261000Y-47155600D03*
%TD*%
%TO.C,D78*%
X151855000Y-47155600D03*
X148555000Y-47155600D03*
%TD*%
%TO.C,D77*%
X138006000Y-85357200D03*
X134706000Y-85357200D03*
%TD*%
%TO.C,D76*%
X260797000Y-47155600D03*
X257497000Y-47155600D03*
%TD*%
%TO.C,D75*%
X85000400Y-85357200D03*
X81700400Y-85357200D03*
%TD*%
%TO.C,D74*%
X206326000Y-47155600D03*
X203026000Y-47155600D03*
%TD*%
%TO.C,D73*%
X159208000Y-85357200D03*
X155908000Y-85357200D03*
%TD*%
%TO.C,D72*%
X249903000Y-47155600D03*
X246603000Y-47155600D03*
%TD*%
%TO.C,D71*%
X233415000Y-85357200D03*
X230115000Y-85357200D03*
%TD*%
%TO.C,D69*%
X239009000Y-47155600D03*
X235709000Y-47155600D03*
%TD*%
%TO.C,D68*%
X222667000Y-47155600D03*
X219367000Y-47155600D03*
%TD*%
%TO.C,D67*%
X74399400Y-85357200D03*
X71099400Y-85357200D03*
%TD*%
%TO.C,D66*%
X366922000Y-104661000D03*
X363622000Y-104661000D03*
%TD*%
%TO.C,D65*%
X148607000Y-85357200D03*
X145307000Y-85357200D03*
%TD*%
%TO.C,D64*%
X175109000Y-85357200D03*
X171809000Y-85357200D03*
%TD*%
%TO.C,D63*%
X206912000Y-85357200D03*
X203612000Y-85357200D03*
%TD*%
%TO.C,D62*%
X127405000Y-85357200D03*
X124105000Y-85357200D03*
%TD*%
%TO.C,D60*%
X345720000Y-104661000D03*
X342420000Y-104661000D03*
%TD*%
%TO.C,D59*%
X222814000Y-85357200D03*
X219514000Y-85357200D03*
%TD*%
%TO.C,D58*%
X356321000Y-104661000D03*
X353021000Y-104661000D03*
%TD*%
%TO.C,D57*%
X70148100Y-47155600D03*
X66848100Y-47155600D03*
%TD*%
%TO.C,D55*%
X201612000Y-85357200D03*
X198312000Y-85357200D03*
%TD*%
%TO.C,D54*%
X212213000Y-85357200D03*
X208913000Y-85357200D03*
%TD*%
%TO.C,D53*%
X265218000Y-85357200D03*
X261918000Y-85357200D03*
%TD*%
%TO.C,D52*%
X48165900Y-47206400D03*
X44865900Y-47206400D03*
%TD*%
%TO.C,D51*%
X335119000Y-104661000D03*
X331819000Y-104661000D03*
%TD*%
%TO.C,D50*%
X265834000Y-66243200D03*
X262534000Y-66243200D03*
%TD*%
%TO.C,D49*%
X90300900Y-85357200D03*
X87000900Y-85357200D03*
%TD*%
%TO.C,D48*%
X95601500Y-85357200D03*
X92301500Y-85357200D03*
%TD*%
%TO.C,D46*%
X86489400Y-47155600D03*
X83189400Y-47155600D03*
%TD*%
%TO.C,D45*%
X169809000Y-85357200D03*
X166509000Y-85357200D03*
%TD*%
%TO.C,D44*%
X106202000Y-85357200D03*
X102902000Y-85357200D03*
%TD*%
%TO.C,D43*%
X132705000Y-85357200D03*
X129405000Y-85357200D03*
%TD*%
%TO.C,D41*%
X270518000Y-85357200D03*
X267218000Y-85357200D03*
%TD*%
%TO.C,D40*%
X116804000Y-85357200D03*
X113504000Y-85357200D03*
%TD*%
%TO.C,D39*%
X75595200Y-47155600D03*
X72295200Y-47155600D03*
%TD*%
%TO.C,D38*%
X329818000Y-104661000D03*
X326518000Y-104661000D03*
%TD*%
%TO.C,D37*%
X340419000Y-104661000D03*
X337119000Y-104661000D03*
%TD*%
%TO.C,D36*%
X153907000Y-85357200D03*
X150607000Y-85357200D03*
%TD*%
%TO.C,D35*%
X254617000Y-85357200D03*
X251317000Y-85357200D03*
%TD*%
%TO.C,D34*%
X53806700Y-47155600D03*
X50506700Y-47155600D03*
%TD*%
%TO.C,D32*%
X351020000Y-104661000D03*
X347720000Y-104661000D03*
%TD*%
%TO.C,D31*%
X259917000Y-85357200D03*
X256617000Y-85357200D03*
%TD*%
%TO.C,D30*%
X191011000Y-85357200D03*
X187711000Y-85357200D03*
%TD*%
%TO.C,D29*%
X372222000Y-104661000D03*
X368922000Y-104661000D03*
%TD*%
%TO.C,D27*%
X228114000Y-85357200D03*
X224814000Y-85357200D03*
%TD*%
%TO.C,D26*%
X81042300Y-47155600D03*
X77742300Y-47155600D03*
%TD*%
%TO.C,D25*%
X244016000Y-85357200D03*
X240716000Y-85357200D03*
%TD*%
%TO.C,D24*%
X238715000Y-85357200D03*
X235415000Y-85357200D03*
%TD*%
%TO.C,D23*%
X217513000Y-85357200D03*
X214213000Y-85357200D03*
%TD*%
%TO.C,D22*%
X164508000Y-85357200D03*
X161208000Y-85357200D03*
%TD*%
%TO.C,D21*%
X91936500Y-47155600D03*
X88636500Y-47155600D03*
%TD*%
%TO.C,D20*%
X361621000Y-104661000D03*
X358321000Y-104661000D03*
%TD*%
%TO.C,D18*%
X184537000Y-47155600D03*
X181237000Y-47155600D03*
%TD*%
%TO.C,D17*%
X143306000Y-85357200D03*
X140006000Y-85357200D03*
%TD*%
%TO.C,D16*%
X37564800Y-47206400D03*
X34264800Y-47206400D03*
%TD*%
%TO.C,D15*%
X185710000Y-85357200D03*
X182410000Y-85357200D03*
%TD*%
%TO.C,D13*%
X173643000Y-47155600D03*
X170343000Y-47155600D03*
%TD*%
%TO.C,D12*%
X122104000Y-85357200D03*
X118804000Y-85357200D03*
%TD*%
%TO.C,D11*%
X42865400Y-47206400D03*
X39565400Y-47206400D03*
%TD*%
%TO.C,D10*%
X196311000Y-85357200D03*
X193011000Y-85357200D03*
%TD*%
%TO.C,D9*%
X111503000Y-85357200D03*
X108203000Y-85357200D03*
%TD*%
%TO.C,D8*%
X249316000Y-85357200D03*
X246016000Y-85357200D03*
%TD*%
%TO.C,D7*%
X64701000Y-47155600D03*
X61401000Y-47155600D03*
%TD*%
%TO.C,D6*%
X79699900Y-85357200D03*
X76399900Y-85357200D03*
%TD*%
%TO.C,D4*%
X59253800Y-47155600D03*
X55953800Y-47155600D03*
%TD*%
%TO.C,D3*%
X100902000Y-85357200D03*
X97602000Y-85357200D03*
%TD*%
%TO.C,D2*%
X271691000Y-47155600D03*
X268391000Y-47155600D03*
%TD*%
%TO.C,D1*%
X271652000Y-66243200D03*
X268352000Y-66243200D03*
%TD*%
%TO.C,D61*%
X211773000Y-47155600D03*
X208473000Y-47155600D03*
%TD*%
%TO.C,D56*%
X195432000Y-47155600D03*
X192132000Y-47155600D03*
%TD*%
%TO.C,D47*%
X179090000Y-47155600D03*
X175790000Y-47155600D03*
%TD*%
%TO.C,D42*%
X162749000Y-47155600D03*
X159449000Y-47155600D03*
%TD*%
%TO.C,D33*%
X146408000Y-47155600D03*
X143108000Y-47155600D03*
%TD*%
%TO.C,D28*%
X102831000Y-47155600D03*
X99531000Y-47155600D03*
%TD*%
%TO.C,D19*%
X157302000Y-47155600D03*
X154002000Y-47155600D03*
%TD*%
%TO.C,D14*%
X135513000Y-47155600D03*
X132213000Y-47155600D03*
%TD*%
%TO.C,D5*%
X113725000Y-47155600D03*
X110425000Y-47155600D03*
%TD*%
D12*
%TO.C,SW_RESET1*%
X323475000Y-122271000D03*
X315585000Y-122301000D03*
%TD*%
D13*
%TO.C,Y1-16hz1*%
X319532000Y-106392000D03*
X319532000Y-114892000D03*
%TD*%
D14*
%TO.C,J2*%
X317272000Y-11337600D03*
X318072000Y-11337600D03*
X318872000Y-11337600D03*
X319672000Y-11337600D03*
X320472000Y-11337600D03*
D15*
X314472000Y-11337600D03*
X323272000Y-11337600D03*
X314472000Y-5837600D03*
X323272000Y-5837600D03*
%TD*%
D10*
%TO.C,D195*%
X332030000Y-61790400D03*
X332030000Y-62890400D03*
X330200000Y-62890400D03*
X330200000Y-61790400D03*
%TD*%
%TO.C,D193*%
X351131000Y-119042000D03*
X351131000Y-120142000D03*
X349301000Y-120142000D03*
X349301000Y-119042000D03*
%TD*%
%TO.C,D192*%
X197764000Y-99890000D03*
X197764000Y-100990000D03*
X195934000Y-100990000D03*
X195934000Y-99890000D03*
%TD*%
%TO.C,D191*%
X150737000Y-80857000D03*
X150737000Y-81957000D03*
X148907000Y-81957000D03*
X148907000Y-80857000D03*
%TD*%
%TO.C,D190*%
X351182000Y-61790400D03*
X351182000Y-62890400D03*
X349352000Y-62890400D03*
X349352000Y-61790400D03*
%TD*%
%TO.C,D188*%
X332081000Y-119144000D03*
X332081000Y-120244000D03*
X330251000Y-120244000D03*
X330251000Y-119144000D03*
%TD*%
%TO.C,D187*%
X216916000Y-99890000D03*
X216916000Y-100990000D03*
X215086000Y-100990000D03*
X215086000Y-99890000D03*
%TD*%
%TO.C,D186*%
X131915000Y-80857000D03*
X131915000Y-81957000D03*
X130085000Y-81957000D03*
X130085000Y-80857000D03*
%TD*%
%TO.C,D185*%
X370079000Y-61841200D03*
X370079000Y-62941200D03*
X368249000Y-62941200D03*
X368249000Y-61841200D03*
%TD*%
%TO.C,D183*%
X305664000Y-119042000D03*
X305664000Y-120142000D03*
X303834000Y-120142000D03*
X303834000Y-119042000D03*
%TD*%
%TO.C,D182*%
X235967000Y-99882000D03*
X235967000Y-100982000D03*
X234137000Y-100982000D03*
X234137000Y-99882000D03*
%TD*%
%TO.C,D181*%
X112841000Y-80832000D03*
X112841000Y-81932000D03*
X111011000Y-81932000D03*
X111011000Y-80832000D03*
%TD*%
%TO.C,D180*%
X60402400Y-23741200D03*
X60402400Y-24841200D03*
X58572400Y-24841200D03*
X58572400Y-23741200D03*
%TD*%
%TO.C,D178*%
X281840000Y-119042000D03*
X281840000Y-120142000D03*
X280010000Y-120142000D03*
X280010000Y-119042000D03*
%TD*%
%TO.C,D177*%
X255168000Y-99941000D03*
X255168000Y-101041000D03*
X253338000Y-101041000D03*
X253338000Y-99941000D03*
%TD*%
%TO.C,D176*%
X93815500Y-80857000D03*
X93815500Y-81957000D03*
X91985500Y-81957000D03*
X91985500Y-80857000D03*
%TD*%
%TO.C,D175*%
X41301000Y-23681600D03*
X41301000Y-24781600D03*
X39471000Y-24781600D03*
X39471000Y-23681600D03*
%TD*%
%TO.C,D173*%
X258014000Y-119093000D03*
X258014000Y-120193000D03*
X256184000Y-120193000D03*
X256184000Y-119093000D03*
%TD*%
%TO.C,D172*%
X291238000Y-100025000D03*
X291238000Y-101125000D03*
X289408000Y-101125000D03*
X289408000Y-100025000D03*
%TD*%
%TO.C,D171*%
X74765500Y-80857000D03*
X74765500Y-81957000D03*
X72935500Y-81957000D03*
X72935500Y-80857000D03*
%TD*%
%TO.C,D170*%
X370028000Y-42926000D03*
X370028000Y-44026000D03*
X368198000Y-44026000D03*
X368198000Y-42926000D03*
%TD*%
%TO.C,D168*%
X234036000Y-119093000D03*
X234036000Y-120193000D03*
X232206000Y-120193000D03*
X232206000Y-119093000D03*
%TD*%
%TO.C,D167*%
X333426000Y-99484000D03*
X333426000Y-100584000D03*
X331596000Y-100584000D03*
X331596000Y-99484000D03*
%TD*%
%TO.C,D166*%
X48564800Y-80857000D03*
X48564800Y-81957000D03*
X46734800Y-81957000D03*
X46734800Y-80857000D03*
%TD*%
%TO.C,D165*%
X351130000Y-42884000D03*
X351130000Y-43984000D03*
X349300000Y-43984000D03*
X349300000Y-42884000D03*
%TD*%
%TO.C,D163*%
X193752000Y-23681600D03*
X193752000Y-24781600D03*
X191922000Y-24781600D03*
X191922000Y-23681600D03*
%TD*%
%TO.C,D162*%
X351130000Y-99924000D03*
X351130000Y-101024000D03*
X349300000Y-101024000D03*
X349300000Y-99924000D03*
%TD*%
%TO.C,D161*%
X46178400Y-61807000D03*
X46178400Y-62907000D03*
X44348400Y-62907000D03*
X44348400Y-61807000D03*
%TD*%
%TO.C,D160*%
X332080000Y-42875200D03*
X332080000Y-43975200D03*
X330250000Y-43975200D03*
X330250000Y-42875200D03*
%TD*%
%TO.C,D158*%
X174652000Y-23741200D03*
X174652000Y-24841200D03*
X172822000Y-24841200D03*
X172822000Y-23741200D03*
%TD*%
%TO.C,D157*%
X370028000Y-99924000D03*
X370028000Y-101024000D03*
X368198000Y-101024000D03*
X368198000Y-99924000D03*
%TD*%
%TO.C,D156*%
X70003000Y-61688800D03*
X70003000Y-62788800D03*
X68173000Y-62788800D03*
X68173000Y-61688800D03*
%TD*%
%TO.C,D155*%
X269901000Y-42693500D03*
X269901000Y-43793500D03*
X268071000Y-43793500D03*
X268071000Y-42693500D03*
%TD*%
%TO.C,D153*%
X155602000Y-23639600D03*
X155602000Y-24739600D03*
X153772000Y-24739600D03*
X153772000Y-23639600D03*
%TD*%
%TO.C,D152*%
X98451600Y-23741200D03*
X98451600Y-24841200D03*
X96621600Y-24841200D03*
X96621600Y-23741200D03*
%TD*%
%TO.C,D151*%
X88952000Y-61638000D03*
X88952000Y-62738000D03*
X87122000Y-62738000D03*
X87122000Y-61638000D03*
%TD*%
%TO.C,D150*%
X250889000Y-42715000D03*
X250889000Y-43815000D03*
X249059000Y-43815000D03*
X249059000Y-42715000D03*
%TD*%
%TO.C,D148*%
X136602000Y-23723600D03*
X136602000Y-24823600D03*
X134772000Y-24823600D03*
X134772000Y-23723600D03*
%TD*%
%TO.C,D147*%
X79503200Y-23639600D03*
X79503200Y-24739600D03*
X77673200Y-24739600D03*
X77673200Y-23639600D03*
%TD*%
%TO.C,D146*%
X107850000Y-61688800D03*
X107850000Y-62788800D03*
X106020000Y-62788800D03*
X106020000Y-61688800D03*
%TD*%
%TO.C,D145*%
X231763000Y-42715000D03*
X231763000Y-43815000D03*
X229933000Y-43815000D03*
X229933000Y-42715000D03*
%TD*%
%TO.C,D143*%
X91619000Y-119126000D03*
X91619000Y-120226000D03*
X89789000Y-120226000D03*
X89789000Y-119126000D03*
%TD*%
%TO.C,D142*%
X370028000Y-80840400D03*
X370028000Y-81940400D03*
X368198000Y-81940400D03*
X368198000Y-80840400D03*
%TD*%
%TO.C,D141*%
X126747000Y-61638000D03*
X126747000Y-62738000D03*
X124917000Y-62738000D03*
X124917000Y-61638000D03*
%TD*%
%TO.C,D140*%
X212789000Y-42715000D03*
X212789000Y-43815000D03*
X210959000Y-43815000D03*
X210959000Y-42715000D03*
%TD*%
%TO.C,D138*%
X67768400Y-119093000D03*
X67768400Y-120193000D03*
X65938400Y-120193000D03*
X65938400Y-119093000D03*
%TD*%
%TO.C,D137*%
X351131000Y-80840400D03*
X351131000Y-81940400D03*
X349301000Y-81940400D03*
X349301000Y-80840400D03*
%TD*%
%TO.C,D136*%
X145645000Y-61688800D03*
X145645000Y-62788800D03*
X143815000Y-62788800D03*
X143815000Y-61688800D03*
%TD*%
%TO.C,D135*%
X193675000Y-42672000D03*
X193675000Y-43772000D03*
X191845000Y-43772000D03*
X191845000Y-42672000D03*
%TD*%
%TO.C,D133*%
X43841600Y-119121000D03*
X43841600Y-120221000D03*
X42011600Y-120221000D03*
X42011600Y-119121000D03*
%TD*%
%TO.C,D132*%
X332081000Y-80840400D03*
X332081000Y-81940400D03*
X330251000Y-81940400D03*
X330251000Y-80840400D03*
%TD*%
%TO.C,D131*%
X164593000Y-61638000D03*
X164593000Y-62738000D03*
X162763000Y-62738000D03*
X162763000Y-61638000D03*
%TD*%
%TO.C,D130*%
X174651000Y-42693500D03*
X174651000Y-43793500D03*
X172821000Y-43793500D03*
X172821000Y-42693500D03*
%TD*%
%TO.C,D128*%
X53340000Y-99890000D03*
X53340000Y-100990000D03*
X51510000Y-100990000D03*
X51510000Y-99890000D03*
%TD*%
%TO.C,D127*%
X296037000Y-80815000D03*
X296037000Y-81915000D03*
X294207000Y-81915000D03*
X294207000Y-80815000D03*
%TD*%
%TO.C,D126*%
X183542000Y-61688800D03*
X183542000Y-62788800D03*
X181712000Y-62788800D03*
X181712000Y-61688800D03*
%TD*%
%TO.C,D125*%
X155575000Y-42715000D03*
X155575000Y-43815000D03*
X153745000Y-43815000D03*
X153745000Y-42715000D03*
%TD*%
%TO.C,D123*%
X84175600Y-99890000D03*
X84175600Y-100990000D03*
X82345600Y-100990000D03*
X82345600Y-99890000D03*
%TD*%
%TO.C,D122*%
X265011000Y-80843000D03*
X265011000Y-81943000D03*
X263181000Y-81943000D03*
X263181000Y-80843000D03*
%TD*%
%TO.C,D121*%
X202490000Y-61688800D03*
X202490000Y-62788800D03*
X200660000Y-62788800D03*
X200660000Y-61688800D03*
%TD*%
%TO.C,D120*%
X136577000Y-42715000D03*
X136577000Y-43815000D03*
X134747000Y-43815000D03*
X134747000Y-42715000D03*
%TD*%
%TO.C,D118*%
X103022000Y-99890000D03*
X103022000Y-100990000D03*
X101192000Y-100990000D03*
X101192000Y-99890000D03*
%TD*%
%TO.C,D117*%
X245961000Y-80857000D03*
X245961000Y-81957000D03*
X244131000Y-81957000D03*
X244131000Y-80857000D03*
%TD*%
%TO.C,D116*%
X221388000Y-61638000D03*
X221388000Y-62738000D03*
X219558000Y-62738000D03*
X219558000Y-61638000D03*
%TD*%
%TO.C,D115*%
X117527000Y-42715000D03*
X117527000Y-43815000D03*
X115697000Y-43815000D03*
X115697000Y-42715000D03*
%TD*%
%TO.C,D113*%
X121920000Y-99890000D03*
X121920000Y-100990000D03*
X120090000Y-100990000D03*
X120090000Y-99890000D03*
%TD*%
%TO.C,D112*%
X226937000Y-80832000D03*
X226937000Y-81932000D03*
X225107000Y-81932000D03*
X225107000Y-80832000D03*
%TD*%
%TO.C,D111*%
X240336000Y-61688800D03*
X240336000Y-62788800D03*
X238506000Y-62788800D03*
X238506000Y-61688800D03*
%TD*%
%TO.C,D110*%
X98477000Y-42715000D03*
X98477000Y-43815000D03*
X96647000Y-43815000D03*
X96647000Y-42715000D03*
%TD*%
%TO.C,D109*%
X298502000Y-42884000D03*
X298502000Y-43984000D03*
X296672000Y-43984000D03*
X296672000Y-42884000D03*
%TD*%
%TO.C,D108*%
X140868000Y-99890000D03*
X140868000Y-100990000D03*
X139038000Y-100990000D03*
X139038000Y-99890000D03*
%TD*%
%TO.C,D107*%
X207837000Y-80882000D03*
X207837000Y-81982000D03*
X206007000Y-81982000D03*
X206007000Y-80882000D03*
%TD*%
%TO.C,D106*%
X259284000Y-61638000D03*
X259284000Y-62738000D03*
X257454000Y-62738000D03*
X257454000Y-61638000D03*
%TD*%
%TO.C,D105*%
X79427000Y-42715000D03*
X79427000Y-43815000D03*
X77597000Y-43815000D03*
X77597000Y-42715000D03*
%TD*%
%TO.C,D104*%
X117552000Y-23639600D03*
X117552000Y-24739600D03*
X115722000Y-24739600D03*
X115722000Y-23639600D03*
%TD*%
%TO.C,D103*%
X159817000Y-99890000D03*
X159817000Y-100990000D03*
X157987000Y-100990000D03*
X157987000Y-99890000D03*
%TD*%
%TO.C,D102*%
X188811000Y-80868000D03*
X188811000Y-81968000D03*
X186981000Y-81968000D03*
X186981000Y-80868000D03*
%TD*%
%TO.C,D101*%
X278487000Y-61638000D03*
X278487000Y-62738000D03*
X276657000Y-62738000D03*
X276657000Y-61638000D03*
%TD*%
%TO.C,D100*%
X60414500Y-42693500D03*
X60414500Y-43793500D03*
X58584500Y-43793500D03*
X58584500Y-42693500D03*
%TD*%
%TO.C,D99*%
X370078000Y-119144000D03*
X370078000Y-120244000D03*
X368248000Y-120244000D03*
X368248000Y-119144000D03*
%TD*%
%TO.C,D98*%
X178714000Y-99890000D03*
X178714000Y-100990000D03*
X176884000Y-100990000D03*
X176884000Y-99890000D03*
%TD*%
%TO.C,D97*%
X169787000Y-80882000D03*
X169787000Y-81982000D03*
X167957000Y-81982000D03*
X167957000Y-80882000D03*
%TD*%
%TO.C,D96*%
X303226000Y-61638000D03*
X303226000Y-62738000D03*
X301396000Y-62738000D03*
X301396000Y-61638000D03*
%TD*%
%TO.C,D95*%
X41200000Y-42715000D03*
X41200000Y-43815000D03*
X39370000Y-43815000D03*
X39370000Y-42715000D03*
%TD*%
%TO.C,C107*%
G36*
G01*
X249857000Y-65858800D02*
X249857000Y-66808800D01*
G75*
G02*
X249607000Y-67058800I-250000J0D01*
G01*
X249107000Y-67058800D01*
G75*
G02*
X248857000Y-66808800I0J250000D01*
G01*
X248857000Y-65858800D01*
G75*
G02*
X249107000Y-65608800I250000J0D01*
G01*
X249607000Y-65608800D01*
G75*
G02*
X249857000Y-65858800I0J-250000D01*
G01*
G37*
G36*
G01*
X251757000Y-65858800D02*
X251757000Y-66808800D01*
G75*
G02*
X251507000Y-67058800I-250000J0D01*
G01*
X251007000Y-67058800D01*
G75*
G02*
X250757000Y-66808800I0J250000D01*
G01*
X250757000Y-65858800D01*
G75*
G02*
X251007000Y-65608800I250000J0D01*
G01*
X251507000Y-65608800D01*
G75*
G02*
X251757000Y-65858800I0J-250000D01*
G01*
G37*
%TD*%
%TO.C,R3*%
G36*
G01*
X229412000Y-66753801D02*
X229412000Y-65853799D01*
G75*
G02*
X229661999Y-65603800I249999J0D01*
G01*
X230187001Y-65603800D01*
G75*
G02*
X230437000Y-65853799I0J-249999D01*
G01*
X230437000Y-66753801D01*
G75*
G02*
X230187001Y-67003800I-249999J0D01*
G01*
X229661999Y-67003800D01*
G75*
G02*
X229412000Y-66753801I0J249999D01*
G01*
G37*
G36*
G01*
X227587000Y-66753801D02*
X227587000Y-65853799D01*
G75*
G02*
X227836999Y-65603800I249999J0D01*
G01*
X228362001Y-65603800D01*
G75*
G02*
X228612000Y-65853799I0J-249999D01*
G01*
X228612000Y-66753801D01*
G75*
G02*
X228362001Y-67003800I-249999J0D01*
G01*
X227836999Y-67003800D01*
G75*
G02*
X227587000Y-66753801I0J249999D01*
G01*
G37*
%TD*%
%TO.C,R2*%
G36*
G01*
X225899000Y-66753801D02*
X225899000Y-65853799D01*
G75*
G02*
X226148999Y-65603800I249999J0D01*
G01*
X226674001Y-65603800D01*
G75*
G02*
X226924000Y-65853799I0J-249999D01*
G01*
X226924000Y-66753801D01*
G75*
G02*
X226674001Y-67003800I-249999J0D01*
G01*
X226148999Y-67003800D01*
G75*
G02*
X225899000Y-66753801I0J249999D01*
G01*
G37*
G36*
G01*
X224074000Y-66753801D02*
X224074000Y-65853799D01*
G75*
G02*
X224323999Y-65603800I249999J0D01*
G01*
X224849001Y-65603800D01*
G75*
G02*
X225099000Y-65853799I0J-249999D01*
G01*
X225099000Y-66753801D01*
G75*
G02*
X224849001Y-67003800I-249999J0D01*
G01*
X224323999Y-67003800D01*
G75*
G02*
X224074000Y-66753801I0J249999D01*
G01*
G37*
%TD*%
%TO.C,C109*%
G36*
G01*
X236547000Y-66808800D02*
X236547000Y-65858800D01*
G75*
G02*
X236797000Y-65608800I250000J0D01*
G01*
X237297000Y-65608800D01*
G75*
G02*
X237547000Y-65858800I0J-250000D01*
G01*
X237547000Y-66808800D01*
G75*
G02*
X237297000Y-67058800I-250000J0D01*
G01*
X236797000Y-67058800D01*
G75*
G02*
X236547000Y-66808800I0J250000D01*
G01*
G37*
G36*
G01*
X234647000Y-66808800D02*
X234647000Y-65858800D01*
G75*
G02*
X234897000Y-65608800I250000J0D01*
G01*
X235397000Y-65608800D01*
G75*
G02*
X235647000Y-65858800I0J-250000D01*
G01*
X235647000Y-66808800D01*
G75*
G02*
X235397000Y-67058800I-250000J0D01*
G01*
X234897000Y-67058800D01*
G75*
G02*
X234647000Y-66808800I0J250000D01*
G01*
G37*
%TD*%
%TO.C,C108*%
G36*
G01*
X247204000Y-66808800D02*
X247204000Y-65858800D01*
G75*
G02*
X247454000Y-65608800I250000J0D01*
G01*
X247954000Y-65608800D01*
G75*
G02*
X248204000Y-65858800I0J-250000D01*
G01*
X248204000Y-66808800D01*
G75*
G02*
X247954000Y-67058800I-250000J0D01*
G01*
X247454000Y-67058800D01*
G75*
G02*
X247204000Y-66808800I0J250000D01*
G01*
G37*
G36*
G01*
X245304000Y-66808800D02*
X245304000Y-65858800D01*
G75*
G02*
X245554000Y-65608800I250000J0D01*
G01*
X246054000Y-65608800D01*
G75*
G02*
X246304000Y-65858800I0J-250000D01*
G01*
X246304000Y-66808800D01*
G75*
G02*
X246054000Y-67058800I-250000J0D01*
G01*
X245554000Y-67058800D01*
G75*
G02*
X245304000Y-66808800I0J250000D01*
G01*
G37*
%TD*%
%TO.C,C106*%
G36*
G01*
X240099000Y-66808800D02*
X240099000Y-65858800D01*
G75*
G02*
X240349000Y-65608800I250000J0D01*
G01*
X240849000Y-65608800D01*
G75*
G02*
X241099000Y-65858800I0J-250000D01*
G01*
X241099000Y-66808800D01*
G75*
G02*
X240849000Y-67058800I-250000J0D01*
G01*
X240349000Y-67058800D01*
G75*
G02*
X240099000Y-66808800I0J250000D01*
G01*
G37*
G36*
G01*
X238199000Y-66808800D02*
X238199000Y-65858800D01*
G75*
G02*
X238449000Y-65608800I250000J0D01*
G01*
X238949000Y-65608800D01*
G75*
G02*
X239199000Y-65858800I0J-250000D01*
G01*
X239199000Y-66808800D01*
G75*
G02*
X238949000Y-67058800I-250000J0D01*
G01*
X238449000Y-67058800D01*
G75*
G02*
X238199000Y-66808800I0J250000D01*
G01*
G37*
%TD*%
%TO.C,C105*%
G36*
G01*
X243652000Y-66808800D02*
X243652000Y-65858800D01*
G75*
G02*
X243902000Y-65608800I250000J0D01*
G01*
X244402000Y-65608800D01*
G75*
G02*
X244652000Y-65858800I0J-250000D01*
G01*
X244652000Y-66808800D01*
G75*
G02*
X244402000Y-67058800I-250000J0D01*
G01*
X243902000Y-67058800D01*
G75*
G02*
X243652000Y-66808800I0J250000D01*
G01*
G37*
G36*
G01*
X241752000Y-66808800D02*
X241752000Y-65858800D01*
G75*
G02*
X242002000Y-65608800I250000J0D01*
G01*
X242502000Y-65608800D01*
G75*
G02*
X242752000Y-65858800I0J-250000D01*
G01*
X242752000Y-66808800D01*
G75*
G02*
X242502000Y-67058800I-250000J0D01*
G01*
X242002000Y-67058800D01*
G75*
G02*
X241752000Y-66808800I0J250000D01*
G01*
G37*
%TD*%
%TO.C,C104*%
G36*
G01*
X232994000Y-66808800D02*
X232994000Y-65858800D01*
G75*
G02*
X233244000Y-65608800I250000J0D01*
G01*
X233744000Y-65608800D01*
G75*
G02*
X233994000Y-65858800I0J-250000D01*
G01*
X233994000Y-66808800D01*
G75*
G02*
X233744000Y-67058800I-250000J0D01*
G01*
X233244000Y-67058800D01*
G75*
G02*
X232994000Y-66808800I0J250000D01*
G01*
G37*
G36*
G01*
X231094000Y-66808800D02*
X231094000Y-65858800D01*
G75*
G02*
X231344000Y-65608800I250000J0D01*
G01*
X231844000Y-65608800D01*
G75*
G02*
X232094000Y-65858800I0J-250000D01*
G01*
X232094000Y-66808800D01*
G75*
G02*
X231844000Y-67058800I-250000J0D01*
G01*
X231344000Y-67058800D01*
G75*
G02*
X231094000Y-66808800I0J250000D01*
G01*
G37*
%TD*%
%TO.C,C103*%
G36*
G01*
X257862000Y-66808800D02*
X257862000Y-65858800D01*
G75*
G02*
X258112000Y-65608800I250000J0D01*
G01*
X258612000Y-65608800D01*
G75*
G02*
X258862000Y-65858800I0J-250000D01*
G01*
X258862000Y-66808800D01*
G75*
G02*
X258612000Y-67058800I-250000J0D01*
G01*
X258112000Y-67058800D01*
G75*
G02*
X257862000Y-66808800I0J250000D01*
G01*
G37*
G36*
G01*
X255962000Y-66808800D02*
X255962000Y-65858800D01*
G75*
G02*
X256212000Y-65608800I250000J0D01*
G01*
X256712000Y-65608800D01*
G75*
G02*
X256962000Y-65858800I0J-250000D01*
G01*
X256962000Y-66808800D01*
G75*
G02*
X256712000Y-67058800I-250000J0D01*
G01*
X256212000Y-67058800D01*
G75*
G02*
X255962000Y-66808800I0J250000D01*
G01*
G37*
%TD*%
%TO.C,C102*%
G36*
G01*
X254310000Y-66808800D02*
X254310000Y-65858800D01*
G75*
G02*
X254560000Y-65608800I250000J0D01*
G01*
X255060000Y-65608800D01*
G75*
G02*
X255310000Y-65858800I0J-250000D01*
G01*
X255310000Y-66808800D01*
G75*
G02*
X255060000Y-67058800I-250000J0D01*
G01*
X254560000Y-67058800D01*
G75*
G02*
X254310000Y-66808800I0J250000D01*
G01*
G37*
G36*
G01*
X252410000Y-66808800D02*
X252410000Y-65858800D01*
G75*
G02*
X252660000Y-65608800I250000J0D01*
G01*
X253160000Y-65608800D01*
G75*
G02*
X253410000Y-65858800I0J-250000D01*
G01*
X253410000Y-66808800D01*
G75*
G02*
X253160000Y-67058800I-250000J0D01*
G01*
X252660000Y-67058800D01*
G75*
G02*
X252410000Y-66808800I0J250000D01*
G01*
G37*
%TD*%
%TO.C,R4*%
G36*
G01*
X314893999Y-52563600D02*
X316144001Y-52563600D01*
G75*
G02*
X316394000Y-52813599I0J-249999D01*
G01*
X316394000Y-53438601D01*
G75*
G02*
X316144001Y-53688600I-249999J0D01*
G01*
X314893999Y-53688600D01*
G75*
G02*
X314644000Y-53438601I0J249999D01*
G01*
X314644000Y-52813599D01*
G75*
G02*
X314893999Y-52563600I249999J0D01*
G01*
G37*
G36*
G01*
X314893999Y-49638600D02*
X316144001Y-49638600D01*
G75*
G02*
X316394000Y-49888599I0J-249999D01*
G01*
X316394000Y-50513601D01*
G75*
G02*
X316144001Y-50763600I-249999J0D01*
G01*
X314893999Y-50763600D01*
G75*
G02*
X314644000Y-50513601I0J249999D01*
G01*
X314644000Y-49888599D01*
G75*
G02*
X314893999Y-49638600I249999J0D01*
G01*
G37*
%TD*%
%TO.C,R1*%
G36*
G01*
X314944999Y-57603500D02*
X316195001Y-57603500D01*
G75*
G02*
X316445000Y-57853499I0J-249999D01*
G01*
X316445000Y-58478501D01*
G75*
G02*
X316195001Y-58728500I-249999J0D01*
G01*
X314944999Y-58728500D01*
G75*
G02*
X314695000Y-58478501I0J249999D01*
G01*
X314695000Y-57853499D01*
G75*
G02*
X314944999Y-57603500I249999J0D01*
G01*
G37*
G36*
G01*
X314944999Y-54678500D02*
X316195001Y-54678500D01*
G75*
G02*
X316445000Y-54928499I0J-249999D01*
G01*
X316445000Y-55553501D01*
G75*
G02*
X316195001Y-55803500I-249999J0D01*
G01*
X314944999Y-55803500D01*
G75*
G02*
X314695000Y-55553501I0J249999D01*
G01*
X314695000Y-54928499D01*
G75*
G02*
X314944999Y-54678500I249999J0D01*
G01*
G37*
%TD*%
%TO.C,C3*%
G36*
G01*
X316620000Y-62762800D02*
X316620000Y-63102800D01*
G75*
G02*
X316480000Y-63242800I-140000J0D01*
G01*
X316200000Y-63242800D01*
G75*
G02*
X316060000Y-63102800I0J140000D01*
G01*
X316060000Y-62762800D01*
G75*
G02*
X316200000Y-62622800I140000J0D01*
G01*
X316480000Y-62622800D01*
G75*
G02*
X316620000Y-62762800I0J-140000D01*
G01*
G37*
G36*
G01*
X317580000Y-62762800D02*
X317580000Y-63102800D01*
G75*
G02*
X317440000Y-63242800I-140000J0D01*
G01*
X317160000Y-63242800D01*
G75*
G02*
X317020000Y-63102800I0J140000D01*
G01*
X317020000Y-62762800D01*
G75*
G02*
X317160000Y-62622800I140000J0D01*
G01*
X317440000Y-62622800D01*
G75*
G02*
X317580000Y-62762800I0J-140000D01*
G01*
G37*
%TD*%
%TO.C,C5*%
G36*
G01*
X320095000Y-75758900D02*
X320095000Y-76098900D01*
G75*
G02*
X319955000Y-76238900I-140000J0D01*
G01*
X319675000Y-76238900D01*
G75*
G02*
X319535000Y-76098900I0J140000D01*
G01*
X319535000Y-75758900D01*
G75*
G02*
X319675000Y-75618900I140000J0D01*
G01*
X319955000Y-75618900D01*
G75*
G02*
X320095000Y-75758900I0J-140000D01*
G01*
G37*
G36*
G01*
X321055000Y-75758900D02*
X321055000Y-76098900D01*
G75*
G02*
X320915000Y-76238900I-140000J0D01*
G01*
X320635000Y-76238900D01*
G75*
G02*
X320495000Y-76098900I0J140000D01*
G01*
X320495000Y-75758900D01*
G75*
G02*
X320635000Y-75618900I140000J0D01*
G01*
X320915000Y-75618900D01*
G75*
G02*
X321055000Y-75758900I0J-140000D01*
G01*
G37*
%TD*%
%TO.C,C6*%
G36*
G01*
X320095000Y-60763700D02*
X320095000Y-61103700D01*
G75*
G02*
X319955000Y-61243700I-140000J0D01*
G01*
X319675000Y-61243700D01*
G75*
G02*
X319535000Y-61103700I0J140000D01*
G01*
X319535000Y-60763700D01*
G75*
G02*
X319675000Y-60623700I140000J0D01*
G01*
X319955000Y-60623700D01*
G75*
G02*
X320095000Y-60763700I0J-140000D01*
G01*
G37*
G36*
G01*
X321055000Y-60763700D02*
X321055000Y-61103700D01*
G75*
G02*
X320915000Y-61243700I-140000J0D01*
G01*
X320635000Y-61243700D01*
G75*
G02*
X320495000Y-61103700I0J140000D01*
G01*
X320495000Y-60763700D01*
G75*
G02*
X320635000Y-60623700I140000J0D01*
G01*
X320915000Y-60623700D01*
G75*
G02*
X321055000Y-60763700I0J-140000D01*
G01*
G37*
%TD*%
%TO.C,C8*%
G36*
G01*
X320095000Y-73616700D02*
X320095000Y-73956700D01*
G75*
G02*
X319955000Y-74096700I-140000J0D01*
G01*
X319675000Y-74096700D01*
G75*
G02*
X319535000Y-73956700I0J140000D01*
G01*
X319535000Y-73616700D01*
G75*
G02*
X319675000Y-73476700I140000J0D01*
G01*
X319955000Y-73476700D01*
G75*
G02*
X320095000Y-73616700I0J-140000D01*
G01*
G37*
G36*
G01*
X321055000Y-73616700D02*
X321055000Y-73956700D01*
G75*
G02*
X320915000Y-74096700I-140000J0D01*
G01*
X320635000Y-74096700D01*
G75*
G02*
X320495000Y-73956700I0J140000D01*
G01*
X320495000Y-73616700D01*
G75*
G02*
X320635000Y-73476700I140000J0D01*
G01*
X320915000Y-73476700D01*
G75*
G02*
X321055000Y-73616700I0J-140000D01*
G01*
G37*
%TD*%
%TO.C,C9*%
G36*
G01*
X320095000Y-54337200D02*
X320095000Y-54677200D01*
G75*
G02*
X319955000Y-54817200I-140000J0D01*
G01*
X319675000Y-54817200D01*
G75*
G02*
X319535000Y-54677200I0J140000D01*
G01*
X319535000Y-54337200D01*
G75*
G02*
X319675000Y-54197200I140000J0D01*
G01*
X319955000Y-54197200D01*
G75*
G02*
X320095000Y-54337200I0J-140000D01*
G01*
G37*
G36*
G01*
X321055000Y-54337200D02*
X321055000Y-54677200D01*
G75*
G02*
X320915000Y-54817200I-140000J0D01*
G01*
X320635000Y-54817200D01*
G75*
G02*
X320495000Y-54677200I0J140000D01*
G01*
X320495000Y-54337200D01*
G75*
G02*
X320635000Y-54197200I140000J0D01*
G01*
X320915000Y-54197200D01*
G75*
G02*
X321055000Y-54337200I0J-140000D01*
G01*
G37*
%TD*%
%TO.C,C11*%
G36*
G01*
X320095000Y-51123900D02*
X320095000Y-51463900D01*
G75*
G02*
X319955000Y-51603900I-140000J0D01*
G01*
X319675000Y-51603900D01*
G75*
G02*
X319535000Y-51463900I0J140000D01*
G01*
X319535000Y-51123900D01*
G75*
G02*
X319675000Y-50983900I140000J0D01*
G01*
X319955000Y-50983900D01*
G75*
G02*
X320095000Y-51123900I0J-140000D01*
G01*
G37*
G36*
G01*
X321055000Y-51123900D02*
X321055000Y-51463900D01*
G75*
G02*
X320915000Y-51603900I-140000J0D01*
G01*
X320635000Y-51603900D01*
G75*
G02*
X320495000Y-51463900I0J140000D01*
G01*
X320495000Y-51123900D01*
G75*
G02*
X320635000Y-50983900I140000J0D01*
G01*
X320915000Y-50983900D01*
G75*
G02*
X321055000Y-51123900I0J-140000D01*
G01*
G37*
%TD*%
%TO.C,C13*%
G36*
G01*
X320095000Y-47910700D02*
X320095000Y-48250700D01*
G75*
G02*
X319955000Y-48390700I-140000J0D01*
G01*
X319675000Y-48390700D01*
G75*
G02*
X319535000Y-48250700I0J140000D01*
G01*
X319535000Y-47910700D01*
G75*
G02*
X319675000Y-47770700I140000J0D01*
G01*
X319955000Y-47770700D01*
G75*
G02*
X320095000Y-47910700I0J-140000D01*
G01*
G37*
G36*
G01*
X321055000Y-47910700D02*
X321055000Y-48250700D01*
G75*
G02*
X320915000Y-48390700I-140000J0D01*
G01*
X320635000Y-48390700D01*
G75*
G02*
X320495000Y-48250700I0J140000D01*
G01*
X320495000Y-47910700D01*
G75*
G02*
X320635000Y-47770700I140000J0D01*
G01*
X320915000Y-47770700D01*
G75*
G02*
X321055000Y-47910700I0J-140000D01*
G01*
G37*
%TD*%
%TO.C,C16*%
G36*
G01*
X320095000Y-38270900D02*
X320095000Y-38610900D01*
G75*
G02*
X319955000Y-38750900I-140000J0D01*
G01*
X319675000Y-38750900D01*
G75*
G02*
X319535000Y-38610900I0J140000D01*
G01*
X319535000Y-38270900D01*
G75*
G02*
X319675000Y-38130900I140000J0D01*
G01*
X319955000Y-38130900D01*
G75*
G02*
X320095000Y-38270900I0J-140000D01*
G01*
G37*
G36*
G01*
X321055000Y-38270900D02*
X321055000Y-38610900D01*
G75*
G02*
X320915000Y-38750900I-140000J0D01*
G01*
X320635000Y-38750900D01*
G75*
G02*
X320495000Y-38610900I0J140000D01*
G01*
X320495000Y-38270900D01*
G75*
G02*
X320635000Y-38130900I140000J0D01*
G01*
X320915000Y-38130900D01*
G75*
G02*
X321055000Y-38270900I0J-140000D01*
G01*
G37*
%TD*%
%TO.C,C17*%
G36*
G01*
X320095000Y-69332400D02*
X320095000Y-69672400D01*
G75*
G02*
X319955000Y-69812400I-140000J0D01*
G01*
X319675000Y-69812400D01*
G75*
G02*
X319535000Y-69672400I0J140000D01*
G01*
X319535000Y-69332400D01*
G75*
G02*
X319675000Y-69192400I140000J0D01*
G01*
X319955000Y-69192400D01*
G75*
G02*
X320095000Y-69332400I0J-140000D01*
G01*
G37*
G36*
G01*
X321055000Y-69332400D02*
X321055000Y-69672400D01*
G75*
G02*
X320915000Y-69812400I-140000J0D01*
G01*
X320635000Y-69812400D01*
G75*
G02*
X320495000Y-69672400I0J140000D01*
G01*
X320495000Y-69332400D01*
G75*
G02*
X320635000Y-69192400I140000J0D01*
G01*
X320915000Y-69192400D01*
G75*
G02*
X321055000Y-69332400I0J-140000D01*
G01*
G37*
%TD*%
%TO.C,C18*%
G36*
G01*
X320095000Y-41484200D02*
X320095000Y-41824200D01*
G75*
G02*
X319955000Y-41964200I-140000J0D01*
G01*
X319675000Y-41964200D01*
G75*
G02*
X319535000Y-41824200I0J140000D01*
G01*
X319535000Y-41484200D01*
G75*
G02*
X319675000Y-41344200I140000J0D01*
G01*
X319955000Y-41344200D01*
G75*
G02*
X320095000Y-41484200I0J-140000D01*
G01*
G37*
G36*
G01*
X321055000Y-41484200D02*
X321055000Y-41824200D01*
G75*
G02*
X320915000Y-41964200I-140000J0D01*
G01*
X320635000Y-41964200D01*
G75*
G02*
X320495000Y-41824200I0J140000D01*
G01*
X320495000Y-41484200D01*
G75*
G02*
X320635000Y-41344200I140000J0D01*
G01*
X320915000Y-41344200D01*
G75*
G02*
X321055000Y-41484200I0J-140000D01*
G01*
G37*
%TD*%
%TO.C,C22*%
G36*
G01*
X320095000Y-31844200D02*
X320095000Y-32184200D01*
G75*
G02*
X319955000Y-32324200I-140000J0D01*
G01*
X319675000Y-32324200D01*
G75*
G02*
X319535000Y-32184200I0J140000D01*
G01*
X319535000Y-31844200D01*
G75*
G02*
X319675000Y-31704200I140000J0D01*
G01*
X319955000Y-31704200D01*
G75*
G02*
X320095000Y-31844200I0J-140000D01*
G01*
G37*
G36*
G01*
X321055000Y-31844200D02*
X321055000Y-32184200D01*
G75*
G02*
X320915000Y-32324200I-140000J0D01*
G01*
X320635000Y-32324200D01*
G75*
G02*
X320495000Y-32184200I0J140000D01*
G01*
X320495000Y-31844200D01*
G75*
G02*
X320635000Y-31704200I140000J0D01*
G01*
X320915000Y-31704200D01*
G75*
G02*
X321055000Y-31844200I0J-140000D01*
G01*
G37*
%TD*%
%TO.C,C24*%
G36*
G01*
X320099000Y-83371200D02*
X320099000Y-83711200D01*
G75*
G02*
X319959000Y-83851200I-140000J0D01*
G01*
X319679000Y-83851200D01*
G75*
G02*
X319539000Y-83711200I0J140000D01*
G01*
X319539000Y-83371200D01*
G75*
G02*
X319679000Y-83231200I140000J0D01*
G01*
X319959000Y-83231200D01*
G75*
G02*
X320099000Y-83371200I0J-140000D01*
G01*
G37*
G36*
G01*
X321059000Y-83371200D02*
X321059000Y-83711200D01*
G75*
G02*
X320919000Y-83851200I-140000J0D01*
G01*
X320639000Y-83851200D01*
G75*
G02*
X320499000Y-83711200I0J140000D01*
G01*
X320499000Y-83371200D01*
G75*
G02*
X320639000Y-83231200I140000J0D01*
G01*
X320919000Y-83231200D01*
G75*
G02*
X321059000Y-83371200I0J-140000D01*
G01*
G37*
%TD*%
%TO.C,C27*%
G36*
G01*
X320095000Y-35057700D02*
X320095000Y-35397700D01*
G75*
G02*
X319955000Y-35537700I-140000J0D01*
G01*
X319675000Y-35537700D01*
G75*
G02*
X319535000Y-35397700I0J140000D01*
G01*
X319535000Y-35057700D01*
G75*
G02*
X319675000Y-34917700I140000J0D01*
G01*
X319955000Y-34917700D01*
G75*
G02*
X320095000Y-35057700I0J-140000D01*
G01*
G37*
G36*
G01*
X321055000Y-35057700D02*
X321055000Y-35397700D01*
G75*
G02*
X320915000Y-35537700I-140000J0D01*
G01*
X320635000Y-35537700D01*
G75*
G02*
X320495000Y-35397700I0J140000D01*
G01*
X320495000Y-35057700D01*
G75*
G02*
X320635000Y-34917700I140000J0D01*
G01*
X320915000Y-34917700D01*
G75*
G02*
X321055000Y-35057700I0J-140000D01*
G01*
G37*
%TD*%
%TO.C,C29*%
G36*
G01*
X320095000Y-18991200D02*
X320095000Y-19331200D01*
G75*
G02*
X319955000Y-19471200I-140000J0D01*
G01*
X319675000Y-19471200D01*
G75*
G02*
X319535000Y-19331200I0J140000D01*
G01*
X319535000Y-18991200D01*
G75*
G02*
X319675000Y-18851200I140000J0D01*
G01*
X319955000Y-18851200D01*
G75*
G02*
X320095000Y-18991200I0J-140000D01*
G01*
G37*
G36*
G01*
X321055000Y-18991200D02*
X321055000Y-19331200D01*
G75*
G02*
X320915000Y-19471200I-140000J0D01*
G01*
X320635000Y-19471200D01*
G75*
G02*
X320495000Y-19331200I0J140000D01*
G01*
X320495000Y-18991200D01*
G75*
G02*
X320635000Y-18851200I140000J0D01*
G01*
X320915000Y-18851200D01*
G75*
G02*
X321055000Y-18991200I0J-140000D01*
G01*
G37*
%TD*%
%TO.C,C31*%
G36*
G01*
X320095000Y-57550400D02*
X320095000Y-57890400D01*
G75*
G02*
X319955000Y-58030400I-140000J0D01*
G01*
X319675000Y-58030400D01*
G75*
G02*
X319535000Y-57890400I0J140000D01*
G01*
X319535000Y-57550400D01*
G75*
G02*
X319675000Y-57410400I140000J0D01*
G01*
X319955000Y-57410400D01*
G75*
G02*
X320095000Y-57550400I0J-140000D01*
G01*
G37*
G36*
G01*
X321055000Y-57550400D02*
X321055000Y-57890400D01*
G75*
G02*
X320915000Y-58030400I-140000J0D01*
G01*
X320635000Y-58030400D01*
G75*
G02*
X320495000Y-57890400I0J140000D01*
G01*
X320495000Y-57550400D01*
G75*
G02*
X320635000Y-57410400I140000J0D01*
G01*
X320915000Y-57410400D01*
G75*
G02*
X321055000Y-57550400I0J-140000D01*
G01*
G37*
%TD*%
%TO.C,C32*%
G36*
G01*
X317732000Y-22288200D02*
X317732000Y-22628200D01*
G75*
G02*
X317592000Y-22768200I-140000J0D01*
G01*
X317312000Y-22768200D01*
G75*
G02*
X317172000Y-22628200I0J140000D01*
G01*
X317172000Y-22288200D01*
G75*
G02*
X317312000Y-22148200I140000J0D01*
G01*
X317592000Y-22148200D01*
G75*
G02*
X317732000Y-22288200I0J-140000D01*
G01*
G37*
G36*
G01*
X318692000Y-22288200D02*
X318692000Y-22628200D01*
G75*
G02*
X318552000Y-22768200I-140000J0D01*
G01*
X318272000Y-22768200D01*
G75*
G02*
X318132000Y-22628200I0J140000D01*
G01*
X318132000Y-22288200D01*
G75*
G02*
X318272000Y-22148200I140000J0D01*
G01*
X318552000Y-22148200D01*
G75*
G02*
X318692000Y-22288200I0J-140000D01*
G01*
G37*
%TD*%
%TO.C,C33*%
G36*
G01*
X320095000Y-28631200D02*
X320095000Y-28971200D01*
G75*
G02*
X319955000Y-29111200I-140000J0D01*
G01*
X319675000Y-29111200D01*
G75*
G02*
X319535000Y-28971200I0J140000D01*
G01*
X319535000Y-28631200D01*
G75*
G02*
X319675000Y-28491200I140000J0D01*
G01*
X319955000Y-28491200D01*
G75*
G02*
X320095000Y-28631200I0J-140000D01*
G01*
G37*
G36*
G01*
X321055000Y-28631200D02*
X321055000Y-28971200D01*
G75*
G02*
X320915000Y-29111200I-140000J0D01*
G01*
X320635000Y-29111200D01*
G75*
G02*
X320495000Y-28971200I0J140000D01*
G01*
X320495000Y-28631200D01*
G75*
G02*
X320635000Y-28491200I140000J0D01*
G01*
X320915000Y-28491200D01*
G75*
G02*
X321055000Y-28631200I0J-140000D01*
G01*
G37*
%TD*%
%TO.C,C36*%
G36*
G01*
X320095000Y-71474500D02*
X320095000Y-71814500D01*
G75*
G02*
X319955000Y-71954500I-140000J0D01*
G01*
X319675000Y-71954500D01*
G75*
G02*
X319535000Y-71814500I0J140000D01*
G01*
X319535000Y-71474500D01*
G75*
G02*
X319675000Y-71334500I140000J0D01*
G01*
X319955000Y-71334500D01*
G75*
G02*
X320095000Y-71474500I0J-140000D01*
G01*
G37*
G36*
G01*
X321055000Y-71474500D02*
X321055000Y-71814500D01*
G75*
G02*
X320915000Y-71954500I-140000J0D01*
G01*
X320635000Y-71954500D01*
G75*
G02*
X320495000Y-71814500I0J140000D01*
G01*
X320495000Y-71474500D01*
G75*
G02*
X320635000Y-71334500I140000J0D01*
G01*
X320915000Y-71334500D01*
G75*
G02*
X321055000Y-71474500I0J-140000D01*
G01*
G37*
%TD*%
%TO.C,C37*%
G36*
G01*
X320095000Y-63976900D02*
X320095000Y-64316900D01*
G75*
G02*
X319955000Y-64456900I-140000J0D01*
G01*
X319675000Y-64456900D01*
G75*
G02*
X319535000Y-64316900I0J140000D01*
G01*
X319535000Y-63976900D01*
G75*
G02*
X319675000Y-63836900I140000J0D01*
G01*
X319955000Y-63836900D01*
G75*
G02*
X320095000Y-63976900I0J-140000D01*
G01*
G37*
G36*
G01*
X321055000Y-63976900D02*
X321055000Y-64316900D01*
G75*
G02*
X320915000Y-64456900I-140000J0D01*
G01*
X320635000Y-64456900D01*
G75*
G02*
X320495000Y-64316900I0J140000D01*
G01*
X320495000Y-63976900D01*
G75*
G02*
X320635000Y-63836900I140000J0D01*
G01*
X320915000Y-63836900D01*
G75*
G02*
X321055000Y-63976900I0J-140000D01*
G01*
G37*
%TD*%
%TO.C,C39*%
G36*
G01*
X320114000Y-84381200D02*
X320114000Y-84721200D01*
G75*
G02*
X319974000Y-84861200I-140000J0D01*
G01*
X319694000Y-84861200D01*
G75*
G02*
X319554000Y-84721200I0J140000D01*
G01*
X319554000Y-84381200D01*
G75*
G02*
X319694000Y-84241200I140000J0D01*
G01*
X319974000Y-84241200D01*
G75*
G02*
X320114000Y-84381200I0J-140000D01*
G01*
G37*
G36*
G01*
X321074000Y-84381200D02*
X321074000Y-84721200D01*
G75*
G02*
X320934000Y-84861200I-140000J0D01*
G01*
X320654000Y-84861200D01*
G75*
G02*
X320514000Y-84721200I0J140000D01*
G01*
X320514000Y-84381200D01*
G75*
G02*
X320654000Y-84241200I140000J0D01*
G01*
X320934000Y-84241200D01*
G75*
G02*
X321074000Y-84381200I0J-140000D01*
G01*
G37*
%TD*%
%TO.C,C41*%
G36*
G01*
X317732000Y-15861700D02*
X317732000Y-16201700D01*
G75*
G02*
X317592000Y-16341700I-140000J0D01*
G01*
X317312000Y-16341700D01*
G75*
G02*
X317172000Y-16201700I0J140000D01*
G01*
X317172000Y-15861700D01*
G75*
G02*
X317312000Y-15721700I140000J0D01*
G01*
X317592000Y-15721700D01*
G75*
G02*
X317732000Y-15861700I0J-140000D01*
G01*
G37*
G36*
G01*
X318692000Y-15861700D02*
X318692000Y-16201700D01*
G75*
G02*
X318552000Y-16341700I-140000J0D01*
G01*
X318272000Y-16341700D01*
G75*
G02*
X318132000Y-16201700I0J140000D01*
G01*
X318132000Y-15861700D01*
G75*
G02*
X318272000Y-15721700I140000J0D01*
G01*
X318552000Y-15721700D01*
G75*
G02*
X318692000Y-15861700I0J-140000D01*
G01*
G37*
%TD*%
%TO.C,C42*%
G36*
G01*
X320095000Y-22204200D02*
X320095000Y-22544200D01*
G75*
G02*
X319955000Y-22684200I-140000J0D01*
G01*
X319675000Y-22684200D01*
G75*
G02*
X319535000Y-22544200I0J140000D01*
G01*
X319535000Y-22204200D01*
G75*
G02*
X319675000Y-22064200I140000J0D01*
G01*
X319955000Y-22064200D01*
G75*
G02*
X320095000Y-22204200I0J-140000D01*
G01*
G37*
G36*
G01*
X321055000Y-22204200D02*
X321055000Y-22544200D01*
G75*
G02*
X320915000Y-22684200I-140000J0D01*
G01*
X320635000Y-22684200D01*
G75*
G02*
X320495000Y-22544200I0J140000D01*
G01*
X320495000Y-22204200D01*
G75*
G02*
X320635000Y-22064200I140000J0D01*
G01*
X320915000Y-22064200D01*
G75*
G02*
X321055000Y-22204200I0J-140000D01*
G01*
G37*
%TD*%
%TO.C,C46*%
G36*
G01*
X320095000Y-44697400D02*
X320095000Y-45037400D01*
G75*
G02*
X319955000Y-45177400I-140000J0D01*
G01*
X319675000Y-45177400D01*
G75*
G02*
X319535000Y-45037400I0J140000D01*
G01*
X319535000Y-44697400D01*
G75*
G02*
X319675000Y-44557400I140000J0D01*
G01*
X319955000Y-44557400D01*
G75*
G02*
X320095000Y-44697400I0J-140000D01*
G01*
G37*
G36*
G01*
X321055000Y-44697400D02*
X321055000Y-45037400D01*
G75*
G02*
X320915000Y-45177400I-140000J0D01*
G01*
X320635000Y-45177400D01*
G75*
G02*
X320495000Y-45037400I0J140000D01*
G01*
X320495000Y-44697400D01*
G75*
G02*
X320635000Y-44557400I140000J0D01*
G01*
X320915000Y-44557400D01*
G75*
G02*
X321055000Y-44697400I0J-140000D01*
G01*
G37*
%TD*%
%TO.C,C47*%
G36*
G01*
X320095000Y-25418200D02*
X320095000Y-25758200D01*
G75*
G02*
X319955000Y-25898200I-140000J0D01*
G01*
X319675000Y-25898200D01*
G75*
G02*
X319535000Y-25758200I0J140000D01*
G01*
X319535000Y-25418200D01*
G75*
G02*
X319675000Y-25278200I140000J0D01*
G01*
X319955000Y-25278200D01*
G75*
G02*
X320095000Y-25418200I0J-140000D01*
G01*
G37*
G36*
G01*
X321055000Y-25418200D02*
X321055000Y-25758200D01*
G75*
G02*
X320915000Y-25898200I-140000J0D01*
G01*
X320635000Y-25898200D01*
G75*
G02*
X320495000Y-25758200I0J140000D01*
G01*
X320495000Y-25418200D01*
G75*
G02*
X320635000Y-25278200I140000J0D01*
G01*
X320915000Y-25278200D01*
G75*
G02*
X321055000Y-25418200I0J-140000D01*
G01*
G37*
%TD*%
%TO.C,C48*%
G36*
G01*
X320095000Y-16849200D02*
X320095000Y-17189200D01*
G75*
G02*
X319955000Y-17329200I-140000J0D01*
G01*
X319675000Y-17329200D01*
G75*
G02*
X319535000Y-17189200I0J140000D01*
G01*
X319535000Y-16849200D01*
G75*
G02*
X319675000Y-16709200I140000J0D01*
G01*
X319955000Y-16709200D01*
G75*
G02*
X320095000Y-16849200I0J-140000D01*
G01*
G37*
G36*
G01*
X321055000Y-16849200D02*
X321055000Y-17189200D01*
G75*
G02*
X320915000Y-17329200I-140000J0D01*
G01*
X320635000Y-17329200D01*
G75*
G02*
X320495000Y-17189200I0J140000D01*
G01*
X320495000Y-16849200D01*
G75*
G02*
X320635000Y-16709200I140000J0D01*
G01*
X320915000Y-16709200D01*
G75*
G02*
X321055000Y-16849200I0J-140000D01*
G01*
G37*
%TD*%
%TO.C,C49*%
G36*
G01*
X316615000Y-59526800D02*
X316615000Y-59866800D01*
G75*
G02*
X316475000Y-60006800I-140000J0D01*
G01*
X316195000Y-60006800D01*
G75*
G02*
X316055000Y-59866800I0J140000D01*
G01*
X316055000Y-59526800D01*
G75*
G02*
X316195000Y-59386800I140000J0D01*
G01*
X316475000Y-59386800D01*
G75*
G02*
X316615000Y-59526800I0J-140000D01*
G01*
G37*
G36*
G01*
X317575000Y-59526800D02*
X317575000Y-59866800D01*
G75*
G02*
X317435000Y-60006800I-140000J0D01*
G01*
X317155000Y-60006800D01*
G75*
G02*
X317015000Y-59866800I0J140000D01*
G01*
X317015000Y-59526800D01*
G75*
G02*
X317155000Y-59386800I140000J0D01*
G01*
X317435000Y-59386800D01*
G75*
G02*
X317575000Y-59526800I0J-140000D01*
G01*
G37*
%TD*%
%TO.C,C51*%
G36*
G01*
X320095000Y-61834800D02*
X320095000Y-62174800D01*
G75*
G02*
X319955000Y-62314800I-140000J0D01*
G01*
X319675000Y-62314800D01*
G75*
G02*
X319535000Y-62174800I0J140000D01*
G01*
X319535000Y-61834800D01*
G75*
G02*
X319675000Y-61694800I140000J0D01*
G01*
X319955000Y-61694800D01*
G75*
G02*
X320095000Y-61834800I0J-140000D01*
G01*
G37*
G36*
G01*
X321055000Y-61834800D02*
X321055000Y-62174800D01*
G75*
G02*
X320915000Y-62314800I-140000J0D01*
G01*
X320635000Y-62314800D01*
G75*
G02*
X320495000Y-62174800I0J140000D01*
G01*
X320495000Y-61834800D01*
G75*
G02*
X320635000Y-61694800I140000J0D01*
G01*
X320915000Y-61694800D01*
G75*
G02*
X321055000Y-61834800I0J-140000D01*
G01*
G37*
%TD*%
%TO.C,C54*%
G36*
G01*
X320104000Y-79016200D02*
X320104000Y-79356200D01*
G75*
G02*
X319964000Y-79496200I-140000J0D01*
G01*
X319684000Y-79496200D01*
G75*
G02*
X319544000Y-79356200I0J140000D01*
G01*
X319544000Y-79016200D01*
G75*
G02*
X319684000Y-78876200I140000J0D01*
G01*
X319964000Y-78876200D01*
G75*
G02*
X320104000Y-79016200I0J-140000D01*
G01*
G37*
G36*
G01*
X321064000Y-79016200D02*
X321064000Y-79356200D01*
G75*
G02*
X320924000Y-79496200I-140000J0D01*
G01*
X320644000Y-79496200D01*
G75*
G02*
X320504000Y-79356200I0J140000D01*
G01*
X320504000Y-79016200D01*
G75*
G02*
X320644000Y-78876200I140000J0D01*
G01*
X320924000Y-78876200D01*
G75*
G02*
X321064000Y-79016200I0J-140000D01*
G01*
G37*
%TD*%
%TO.C,C56*%
G36*
G01*
X320095000Y-68261300D02*
X320095000Y-68601300D01*
G75*
G02*
X319955000Y-68741300I-140000J0D01*
G01*
X319675000Y-68741300D01*
G75*
G02*
X319535000Y-68601300I0J140000D01*
G01*
X319535000Y-68261300D01*
G75*
G02*
X319675000Y-68121300I140000J0D01*
G01*
X319955000Y-68121300D01*
G75*
G02*
X320095000Y-68261300I0J-140000D01*
G01*
G37*
G36*
G01*
X321055000Y-68261300D02*
X321055000Y-68601300D01*
G75*
G02*
X320915000Y-68741300I-140000J0D01*
G01*
X320635000Y-68741300D01*
G75*
G02*
X320495000Y-68601300I0J140000D01*
G01*
X320495000Y-68261300D01*
G75*
G02*
X320635000Y-68121300I140000J0D01*
G01*
X320915000Y-68121300D01*
G75*
G02*
X321055000Y-68261300I0J-140000D01*
G01*
G37*
%TD*%
%TO.C,C57*%
G36*
G01*
X316615000Y-60598800D02*
X316615000Y-60938800D01*
G75*
G02*
X316475000Y-61078800I-140000J0D01*
G01*
X316195000Y-61078800D01*
G75*
G02*
X316055000Y-60938800I0J140000D01*
G01*
X316055000Y-60598800D01*
G75*
G02*
X316195000Y-60458800I140000J0D01*
G01*
X316475000Y-60458800D01*
G75*
G02*
X316615000Y-60598800I0J-140000D01*
G01*
G37*
G36*
G01*
X317575000Y-60598800D02*
X317575000Y-60938800D01*
G75*
G02*
X317435000Y-61078800I-140000J0D01*
G01*
X317155000Y-61078800D01*
G75*
G02*
X317015000Y-60938800I0J140000D01*
G01*
X317015000Y-60598800D01*
G75*
G02*
X317155000Y-60458800I140000J0D01*
G01*
X317435000Y-60458800D01*
G75*
G02*
X317575000Y-60598800I0J-140000D01*
G01*
G37*
%TD*%
%TO.C,C58*%
G36*
G01*
X317732000Y-19075000D02*
X317732000Y-19415000D01*
G75*
G02*
X317592000Y-19555000I-140000J0D01*
G01*
X317312000Y-19555000D01*
G75*
G02*
X317172000Y-19415000I0J140000D01*
G01*
X317172000Y-19075000D01*
G75*
G02*
X317312000Y-18935000I140000J0D01*
G01*
X317592000Y-18935000D01*
G75*
G02*
X317732000Y-19075000I0J-140000D01*
G01*
G37*
G36*
G01*
X318692000Y-19075000D02*
X318692000Y-19415000D01*
G75*
G02*
X318552000Y-19555000I-140000J0D01*
G01*
X318272000Y-19555000D01*
G75*
G02*
X318132000Y-19415000I0J140000D01*
G01*
X318132000Y-19075000D01*
G75*
G02*
X318272000Y-18935000I140000J0D01*
G01*
X318552000Y-18935000D01*
G75*
G02*
X318692000Y-19075000I0J-140000D01*
G01*
G37*
%TD*%
%TO.C,C61*%
G36*
G01*
X320095000Y-48981800D02*
X320095000Y-49321800D01*
G75*
G02*
X319955000Y-49461800I-140000J0D01*
G01*
X319675000Y-49461800D01*
G75*
G02*
X319535000Y-49321800I0J140000D01*
G01*
X319535000Y-48981800D01*
G75*
G02*
X319675000Y-48841800I140000J0D01*
G01*
X319955000Y-48841800D01*
G75*
G02*
X320095000Y-48981800I0J-140000D01*
G01*
G37*
G36*
G01*
X321055000Y-48981800D02*
X321055000Y-49321800D01*
G75*
G02*
X320915000Y-49461800I-140000J0D01*
G01*
X320635000Y-49461800D01*
G75*
G02*
X320495000Y-49321800I0J140000D01*
G01*
X320495000Y-48981800D01*
G75*
G02*
X320635000Y-48841800I140000J0D01*
G01*
X320915000Y-48841800D01*
G75*
G02*
X321055000Y-48981800I0J-140000D01*
G01*
G37*
%TD*%
%TO.C,C62*%
G36*
G01*
X320095000Y-50052800D02*
X320095000Y-50392800D01*
G75*
G02*
X319955000Y-50532800I-140000J0D01*
G01*
X319675000Y-50532800D01*
G75*
G02*
X319535000Y-50392800I0J140000D01*
G01*
X319535000Y-50052800D01*
G75*
G02*
X319675000Y-49912800I140000J0D01*
G01*
X319955000Y-49912800D01*
G75*
G02*
X320095000Y-50052800I0J-140000D01*
G01*
G37*
G36*
G01*
X321055000Y-50052800D02*
X321055000Y-50392800D01*
G75*
G02*
X320915000Y-50532800I-140000J0D01*
G01*
X320635000Y-50532800D01*
G75*
G02*
X320495000Y-50392800I0J140000D01*
G01*
X320495000Y-50052800D01*
G75*
G02*
X320635000Y-49912800I140000J0D01*
G01*
X320915000Y-49912800D01*
G75*
G02*
X321055000Y-50052800I0J-140000D01*
G01*
G37*
%TD*%
%TO.C,C63*%
G36*
G01*
X317732000Y-20146000D02*
X317732000Y-20486000D01*
G75*
G02*
X317592000Y-20626000I-140000J0D01*
G01*
X317312000Y-20626000D01*
G75*
G02*
X317172000Y-20486000I0J140000D01*
G01*
X317172000Y-20146000D01*
G75*
G02*
X317312000Y-20006000I140000J0D01*
G01*
X317592000Y-20006000D01*
G75*
G02*
X317732000Y-20146000I0J-140000D01*
G01*
G37*
G36*
G01*
X318692000Y-20146000D02*
X318692000Y-20486000D01*
G75*
G02*
X318552000Y-20626000I-140000J0D01*
G01*
X318272000Y-20626000D01*
G75*
G02*
X318132000Y-20486000I0J140000D01*
G01*
X318132000Y-20146000D01*
G75*
G02*
X318272000Y-20006000I140000J0D01*
G01*
X318552000Y-20006000D01*
G75*
G02*
X318692000Y-20146000I0J-140000D01*
G01*
G37*
%TD*%
%TO.C,C64*%
G36*
G01*
X320095000Y-56479400D02*
X320095000Y-56819400D01*
G75*
G02*
X319955000Y-56959400I-140000J0D01*
G01*
X319675000Y-56959400D01*
G75*
G02*
X319535000Y-56819400I0J140000D01*
G01*
X319535000Y-56479400D01*
G75*
G02*
X319675000Y-56339400I140000J0D01*
G01*
X319955000Y-56339400D01*
G75*
G02*
X320095000Y-56479400I0J-140000D01*
G01*
G37*
G36*
G01*
X321055000Y-56479400D02*
X321055000Y-56819400D01*
G75*
G02*
X320915000Y-56959400I-140000J0D01*
G01*
X320635000Y-56959400D01*
G75*
G02*
X320495000Y-56819400I0J140000D01*
G01*
X320495000Y-56479400D01*
G75*
G02*
X320635000Y-56339400I140000J0D01*
G01*
X320915000Y-56339400D01*
G75*
G02*
X321055000Y-56479400I0J-140000D01*
G01*
G37*
%TD*%
%TO.C,C66*%
G36*
G01*
X320095000Y-67190200D02*
X320095000Y-67530200D01*
G75*
G02*
X319955000Y-67670200I-140000J0D01*
G01*
X319675000Y-67670200D01*
G75*
G02*
X319535000Y-67530200I0J140000D01*
G01*
X319535000Y-67190200D01*
G75*
G02*
X319675000Y-67050200I140000J0D01*
G01*
X319955000Y-67050200D01*
G75*
G02*
X320095000Y-67190200I0J-140000D01*
G01*
G37*
G36*
G01*
X321055000Y-67190200D02*
X321055000Y-67530200D01*
G75*
G02*
X320915000Y-67670200I-140000J0D01*
G01*
X320635000Y-67670200D01*
G75*
G02*
X320495000Y-67530200I0J140000D01*
G01*
X320495000Y-67190200D01*
G75*
G02*
X320635000Y-67050200I140000J0D01*
G01*
X320915000Y-67050200D01*
G75*
G02*
X321055000Y-67190200I0J-140000D01*
G01*
G37*
%TD*%
%TO.C,C67*%
G36*
G01*
X320095000Y-36128800D02*
X320095000Y-36468800D01*
G75*
G02*
X319955000Y-36608800I-140000J0D01*
G01*
X319675000Y-36608800D01*
G75*
G02*
X319535000Y-36468800I0J140000D01*
G01*
X319535000Y-36128800D01*
G75*
G02*
X319675000Y-35988800I140000J0D01*
G01*
X319955000Y-35988800D01*
G75*
G02*
X320095000Y-36128800I0J-140000D01*
G01*
G37*
G36*
G01*
X321055000Y-36128800D02*
X321055000Y-36468800D01*
G75*
G02*
X320915000Y-36608800I-140000J0D01*
G01*
X320635000Y-36608800D01*
G75*
G02*
X320495000Y-36468800I0J140000D01*
G01*
X320495000Y-36128800D01*
G75*
G02*
X320635000Y-35988800I140000J0D01*
G01*
X320915000Y-35988800D01*
G75*
G02*
X321055000Y-36128800I0J-140000D01*
G01*
G37*
%TD*%
%TO.C,C71*%
G36*
G01*
X320095000Y-43626300D02*
X320095000Y-43966300D01*
G75*
G02*
X319955000Y-44106300I-140000J0D01*
G01*
X319675000Y-44106300D01*
G75*
G02*
X319535000Y-43966300I0J140000D01*
G01*
X319535000Y-43626300D01*
G75*
G02*
X319675000Y-43486300I140000J0D01*
G01*
X319955000Y-43486300D01*
G75*
G02*
X320095000Y-43626300I0J-140000D01*
G01*
G37*
G36*
G01*
X321055000Y-43626300D02*
X321055000Y-43966300D01*
G75*
G02*
X320915000Y-44106300I-140000J0D01*
G01*
X320635000Y-44106300D01*
G75*
G02*
X320495000Y-43966300I0J140000D01*
G01*
X320495000Y-43626300D01*
G75*
G02*
X320635000Y-43486300I140000J0D01*
G01*
X320915000Y-43486300D01*
G75*
G02*
X321055000Y-43626300I0J-140000D01*
G01*
G37*
%TD*%
%TO.C,C73*%
G36*
G01*
X317732000Y-16932800D02*
X317732000Y-17272800D01*
G75*
G02*
X317592000Y-17412800I-140000J0D01*
G01*
X317312000Y-17412800D01*
G75*
G02*
X317172000Y-17272800I0J140000D01*
G01*
X317172000Y-16932800D01*
G75*
G02*
X317312000Y-16792800I140000J0D01*
G01*
X317592000Y-16792800D01*
G75*
G02*
X317732000Y-16932800I0J-140000D01*
G01*
G37*
G36*
G01*
X318692000Y-16932800D02*
X318692000Y-17272800D01*
G75*
G02*
X318552000Y-17412800I-140000J0D01*
G01*
X318272000Y-17412800D01*
G75*
G02*
X318132000Y-17272800I0J140000D01*
G01*
X318132000Y-16932800D01*
G75*
G02*
X318272000Y-16792800I140000J0D01*
G01*
X318552000Y-16792800D01*
G75*
G02*
X318692000Y-16932800I0J-140000D01*
G01*
G37*
%TD*%
%TO.C,C74*%
G36*
G01*
X320095000Y-55408300D02*
X320095000Y-55748300D01*
G75*
G02*
X319955000Y-55888300I-140000J0D01*
G01*
X319675000Y-55888300D01*
G75*
G02*
X319535000Y-55748300I0J140000D01*
G01*
X319535000Y-55408300D01*
G75*
G02*
X319675000Y-55268300I140000J0D01*
G01*
X319955000Y-55268300D01*
G75*
G02*
X320095000Y-55408300I0J-140000D01*
G01*
G37*
G36*
G01*
X321055000Y-55408300D02*
X321055000Y-55748300D01*
G75*
G02*
X320915000Y-55888300I-140000J0D01*
G01*
X320635000Y-55888300D01*
G75*
G02*
X320495000Y-55748300I0J140000D01*
G01*
X320495000Y-55408300D01*
G75*
G02*
X320635000Y-55268300I140000J0D01*
G01*
X320915000Y-55268300D01*
G75*
G02*
X321055000Y-55408300I0J-140000D01*
G01*
G37*
%TD*%
%TO.C,C79*%
G36*
G01*
X320095000Y-30773200D02*
X320095000Y-31113200D01*
G75*
G02*
X319955000Y-31253200I-140000J0D01*
G01*
X319675000Y-31253200D01*
G75*
G02*
X319535000Y-31113200I0J140000D01*
G01*
X319535000Y-30773200D01*
G75*
G02*
X319675000Y-30633200I140000J0D01*
G01*
X319955000Y-30633200D01*
G75*
G02*
X320095000Y-30773200I0J-140000D01*
G01*
G37*
G36*
G01*
X321055000Y-30773200D02*
X321055000Y-31113200D01*
G75*
G02*
X320915000Y-31253200I-140000J0D01*
G01*
X320635000Y-31253200D01*
G75*
G02*
X320495000Y-31113200I0J140000D01*
G01*
X320495000Y-30773200D01*
G75*
G02*
X320635000Y-30633200I140000J0D01*
G01*
X320915000Y-30633200D01*
G75*
G02*
X321055000Y-30773200I0J-140000D01*
G01*
G37*
%TD*%
%TO.C,C81*%
G36*
G01*
X320095000Y-15778200D02*
X320095000Y-16118200D01*
G75*
G02*
X319955000Y-16258200I-140000J0D01*
G01*
X319675000Y-16258200D01*
G75*
G02*
X319535000Y-16118200I0J140000D01*
G01*
X319535000Y-15778200D01*
G75*
G02*
X319675000Y-15638200I140000J0D01*
G01*
X319955000Y-15638200D01*
G75*
G02*
X320095000Y-15778200I0J-140000D01*
G01*
G37*
G36*
G01*
X321055000Y-15778200D02*
X321055000Y-16118200D01*
G75*
G02*
X320915000Y-16258200I-140000J0D01*
G01*
X320635000Y-16258200D01*
G75*
G02*
X320495000Y-16118200I0J140000D01*
G01*
X320495000Y-15778200D01*
G75*
G02*
X320635000Y-15638200I140000J0D01*
G01*
X320915000Y-15638200D01*
G75*
G02*
X321055000Y-15778200I0J-140000D01*
G01*
G37*
%TD*%
%TO.C,C82*%
G36*
G01*
X316615000Y-61669800D02*
X316615000Y-62009800D01*
G75*
G02*
X316475000Y-62149800I-140000J0D01*
G01*
X316195000Y-62149800D01*
G75*
G02*
X316055000Y-62009800I0J140000D01*
G01*
X316055000Y-61669800D01*
G75*
G02*
X316195000Y-61529800I140000J0D01*
G01*
X316475000Y-61529800D01*
G75*
G02*
X316615000Y-61669800I0J-140000D01*
G01*
G37*
G36*
G01*
X317575000Y-61669800D02*
X317575000Y-62009800D01*
G75*
G02*
X317435000Y-62149800I-140000J0D01*
G01*
X317155000Y-62149800D01*
G75*
G02*
X317015000Y-62009800I0J140000D01*
G01*
X317015000Y-61669800D01*
G75*
G02*
X317155000Y-61529800I140000J0D01*
G01*
X317435000Y-61529800D01*
G75*
G02*
X317575000Y-61669800I0J-140000D01*
G01*
G37*
%TD*%
%TO.C,C83*%
G36*
G01*
X320095000Y-62905900D02*
X320095000Y-63245900D01*
G75*
G02*
X319955000Y-63385900I-140000J0D01*
G01*
X319675000Y-63385900D01*
G75*
G02*
X319535000Y-63245900I0J140000D01*
G01*
X319535000Y-62905900D01*
G75*
G02*
X319675000Y-62765900I140000J0D01*
G01*
X319955000Y-62765900D01*
G75*
G02*
X320095000Y-62905900I0J-140000D01*
G01*
G37*
G36*
G01*
X321055000Y-62905900D02*
X321055000Y-63245900D01*
G75*
G02*
X320915000Y-63385900I-140000J0D01*
G01*
X320635000Y-63385900D01*
G75*
G02*
X320495000Y-63245900I0J140000D01*
G01*
X320495000Y-62905900D01*
G75*
G02*
X320635000Y-62765900I140000J0D01*
G01*
X320915000Y-62765900D01*
G75*
G02*
X321055000Y-62905900I0J-140000D01*
G01*
G37*
%TD*%
%TO.C,C84*%
G36*
G01*
X320095000Y-42555300D02*
X320095000Y-42895300D01*
G75*
G02*
X319955000Y-43035300I-140000J0D01*
G01*
X319675000Y-43035300D01*
G75*
G02*
X319535000Y-42895300I0J140000D01*
G01*
X319535000Y-42555300D01*
G75*
G02*
X319675000Y-42415300I140000J0D01*
G01*
X319955000Y-42415300D01*
G75*
G02*
X320095000Y-42555300I0J-140000D01*
G01*
G37*
G36*
G01*
X321055000Y-42555300D02*
X321055000Y-42895300D01*
G75*
G02*
X320915000Y-43035300I-140000J0D01*
G01*
X320635000Y-43035300D01*
G75*
G02*
X320495000Y-42895300I0J140000D01*
G01*
X320495000Y-42555300D01*
G75*
G02*
X320635000Y-42415300I140000J0D01*
G01*
X320915000Y-42415300D01*
G75*
G02*
X321055000Y-42555300I0J-140000D01*
G01*
G37*
%TD*%
%TO.C,C88*%
G36*
G01*
X317732000Y-23359300D02*
X317732000Y-23699300D01*
G75*
G02*
X317592000Y-23839300I-140000J0D01*
G01*
X317312000Y-23839300D01*
G75*
G02*
X317172000Y-23699300I0J140000D01*
G01*
X317172000Y-23359300D01*
G75*
G02*
X317312000Y-23219300I140000J0D01*
G01*
X317592000Y-23219300D01*
G75*
G02*
X317732000Y-23359300I0J-140000D01*
G01*
G37*
G36*
G01*
X318692000Y-23359300D02*
X318692000Y-23699300D01*
G75*
G02*
X318552000Y-23839300I-140000J0D01*
G01*
X318272000Y-23839300D01*
G75*
G02*
X318132000Y-23699300I0J140000D01*
G01*
X318132000Y-23359300D01*
G75*
G02*
X318272000Y-23219300I140000J0D01*
G01*
X318552000Y-23219300D01*
G75*
G02*
X318692000Y-23359300I0J-140000D01*
G01*
G37*
%TD*%
%TO.C,C89*%
G36*
G01*
X320095000Y-23276200D02*
X320095000Y-23616200D01*
G75*
G02*
X319955000Y-23756200I-140000J0D01*
G01*
X319675000Y-23756200D01*
G75*
G02*
X319535000Y-23616200I0J140000D01*
G01*
X319535000Y-23276200D01*
G75*
G02*
X319675000Y-23136200I140000J0D01*
G01*
X319955000Y-23136200D01*
G75*
G02*
X320095000Y-23276200I0J-140000D01*
G01*
G37*
G36*
G01*
X321055000Y-23276200D02*
X321055000Y-23616200D01*
G75*
G02*
X320915000Y-23756200I-140000J0D01*
G01*
X320635000Y-23756200D01*
G75*
G02*
X320495000Y-23616200I0J140000D01*
G01*
X320495000Y-23276200D01*
G75*
G02*
X320635000Y-23136200I140000J0D01*
G01*
X320915000Y-23136200D01*
G75*
G02*
X321055000Y-23276200I0J-140000D01*
G01*
G37*
%TD*%
%TO.C,C91*%
G36*
G01*
X317739000Y-26500000D02*
X317739000Y-26840000D01*
G75*
G02*
X317599000Y-26980000I-140000J0D01*
G01*
X317319000Y-26980000D01*
G75*
G02*
X317179000Y-26840000I0J140000D01*
G01*
X317179000Y-26500000D01*
G75*
G02*
X317319000Y-26360000I140000J0D01*
G01*
X317599000Y-26360000D01*
G75*
G02*
X317739000Y-26500000I0J-140000D01*
G01*
G37*
G36*
G01*
X318699000Y-26500000D02*
X318699000Y-26840000D01*
G75*
G02*
X318559000Y-26980000I-140000J0D01*
G01*
X318279000Y-26980000D01*
G75*
G02*
X318139000Y-26840000I0J140000D01*
G01*
X318139000Y-26500000D01*
G75*
G02*
X318279000Y-26360000I140000J0D01*
G01*
X318559000Y-26360000D01*
G75*
G02*
X318699000Y-26500000I0J-140000D01*
G01*
G37*
%TD*%
%TO.C,C93*%
G36*
G01*
X320095000Y-29702200D02*
X320095000Y-30042200D01*
G75*
G02*
X319955000Y-30182200I-140000J0D01*
G01*
X319675000Y-30182200D01*
G75*
G02*
X319535000Y-30042200I0J140000D01*
G01*
X319535000Y-29702200D01*
G75*
G02*
X319675000Y-29562200I140000J0D01*
G01*
X319955000Y-29562200D01*
G75*
G02*
X320095000Y-29702200I0J-140000D01*
G01*
G37*
G36*
G01*
X321055000Y-29702200D02*
X321055000Y-30042200D01*
G75*
G02*
X320915000Y-30182200I-140000J0D01*
G01*
X320635000Y-30182200D01*
G75*
G02*
X320495000Y-30042200I0J140000D01*
G01*
X320495000Y-29702200D01*
G75*
G02*
X320635000Y-29562200I140000J0D01*
G01*
X320915000Y-29562200D01*
G75*
G02*
X321055000Y-29702200I0J-140000D01*
G01*
G37*
%TD*%
%TO.C,C96*%
G36*
G01*
X317732000Y-25501500D02*
X317732000Y-25841500D01*
G75*
G02*
X317592000Y-25981500I-140000J0D01*
G01*
X317312000Y-25981500D01*
G75*
G02*
X317172000Y-25841500I0J140000D01*
G01*
X317172000Y-25501500D01*
G75*
G02*
X317312000Y-25361500I140000J0D01*
G01*
X317592000Y-25361500D01*
G75*
G02*
X317732000Y-25501500I0J-140000D01*
G01*
G37*
G36*
G01*
X318692000Y-25501500D02*
X318692000Y-25841500D01*
G75*
G02*
X318552000Y-25981500I-140000J0D01*
G01*
X318272000Y-25981500D01*
G75*
G02*
X318132000Y-25841500I0J140000D01*
G01*
X318132000Y-25501500D01*
G75*
G02*
X318272000Y-25361500I140000J0D01*
G01*
X318552000Y-25361500D01*
G75*
G02*
X318692000Y-25501500I0J-140000D01*
G01*
G37*
%TD*%
%TO.C,C97*%
G36*
G01*
X320095000Y-37199800D02*
X320095000Y-37539800D01*
G75*
G02*
X319955000Y-37679800I-140000J0D01*
G01*
X319675000Y-37679800D01*
G75*
G02*
X319535000Y-37539800I0J140000D01*
G01*
X319535000Y-37199800D01*
G75*
G02*
X319675000Y-37059800I140000J0D01*
G01*
X319955000Y-37059800D01*
G75*
G02*
X320095000Y-37199800I0J-140000D01*
G01*
G37*
G36*
G01*
X321055000Y-37199800D02*
X321055000Y-37539800D01*
G75*
G02*
X320915000Y-37679800I-140000J0D01*
G01*
X320635000Y-37679800D01*
G75*
G02*
X320495000Y-37539800I0J140000D01*
G01*
X320495000Y-37199800D01*
G75*
G02*
X320635000Y-37059800I140000J0D01*
G01*
X320915000Y-37059800D01*
G75*
G02*
X321055000Y-37199800I0J-140000D01*
G01*
G37*
%TD*%
%TO.C,C98*%
G36*
G01*
X320095000Y-17920200D02*
X320095000Y-18260200D01*
G75*
G02*
X319955000Y-18400200I-140000J0D01*
G01*
X319675000Y-18400200D01*
G75*
G02*
X319535000Y-18260200I0J140000D01*
G01*
X319535000Y-17920200D01*
G75*
G02*
X319675000Y-17780200I140000J0D01*
G01*
X319955000Y-17780200D01*
G75*
G02*
X320095000Y-17920200I0J-140000D01*
G01*
G37*
G36*
G01*
X321055000Y-17920200D02*
X321055000Y-18260200D01*
G75*
G02*
X320915000Y-18400200I-140000J0D01*
G01*
X320635000Y-18400200D01*
G75*
G02*
X320495000Y-18260200I0J140000D01*
G01*
X320495000Y-17920200D01*
G75*
G02*
X320635000Y-17780200I140000J0D01*
G01*
X320915000Y-17780200D01*
G75*
G02*
X321055000Y-17920200I0J-140000D01*
G01*
G37*
%TD*%
%TO.C,C101*%
G36*
G01*
X320095000Y-24347200D02*
X320095000Y-24687200D01*
G75*
G02*
X319955000Y-24827200I-140000J0D01*
G01*
X319675000Y-24827200D01*
G75*
G02*
X319535000Y-24687200I0J140000D01*
G01*
X319535000Y-24347200D01*
G75*
G02*
X319675000Y-24207200I140000J0D01*
G01*
X319955000Y-24207200D01*
G75*
G02*
X320095000Y-24347200I0J-140000D01*
G01*
G37*
G36*
G01*
X321055000Y-24347200D02*
X321055000Y-24687200D01*
G75*
G02*
X320915000Y-24827200I-140000J0D01*
G01*
X320635000Y-24827200D01*
G75*
G02*
X320495000Y-24687200I0J140000D01*
G01*
X320495000Y-24347200D01*
G75*
G02*
X320635000Y-24207200I140000J0D01*
G01*
X320915000Y-24207200D01*
G75*
G02*
X321055000Y-24347200I0J-140000D01*
G01*
G37*
%TD*%
%TO.C,C23*%
G36*
G01*
X320095000Y-72545600D02*
X320095000Y-72885600D01*
G75*
G02*
X319955000Y-73025600I-140000J0D01*
G01*
X319675000Y-73025600D01*
G75*
G02*
X319535000Y-72885600I0J140000D01*
G01*
X319535000Y-72545600D01*
G75*
G02*
X319675000Y-72405600I140000J0D01*
G01*
X319955000Y-72405600D01*
G75*
G02*
X320095000Y-72545600I0J-140000D01*
G01*
G37*
G36*
G01*
X321055000Y-72545600D02*
X321055000Y-72885600D01*
G75*
G02*
X320915000Y-73025600I-140000J0D01*
G01*
X320635000Y-73025600D01*
G75*
G02*
X320495000Y-72885600I0J140000D01*
G01*
X320495000Y-72545600D01*
G75*
G02*
X320635000Y-72405600I140000J0D01*
G01*
X320915000Y-72405600D01*
G75*
G02*
X321055000Y-72545600I0J-140000D01*
G01*
G37*
%TD*%
%TO.C,C26*%
G36*
G01*
X320095000Y-59692600D02*
X320095000Y-60032600D01*
G75*
G02*
X319955000Y-60172600I-140000J0D01*
G01*
X319675000Y-60172600D01*
G75*
G02*
X319535000Y-60032600I0J140000D01*
G01*
X319535000Y-59692600D01*
G75*
G02*
X319675000Y-59552600I140000J0D01*
G01*
X319955000Y-59552600D01*
G75*
G02*
X320095000Y-59692600I0J-140000D01*
G01*
G37*
G36*
G01*
X321055000Y-59692600D02*
X321055000Y-60032600D01*
G75*
G02*
X320915000Y-60172600I-140000J0D01*
G01*
X320635000Y-60172600D01*
G75*
G02*
X320495000Y-60032600I0J140000D01*
G01*
X320495000Y-59692600D01*
G75*
G02*
X320635000Y-59552600I140000J0D01*
G01*
X320915000Y-59552600D01*
G75*
G02*
X321055000Y-59692600I0J-140000D01*
G01*
G37*
%TD*%
%TO.C,C28*%
G36*
G01*
X320104000Y-81158200D02*
X320104000Y-81498200D01*
G75*
G02*
X319964000Y-81638200I-140000J0D01*
G01*
X319684000Y-81638200D01*
G75*
G02*
X319544000Y-81498200I0J140000D01*
G01*
X319544000Y-81158200D01*
G75*
G02*
X319684000Y-81018200I140000J0D01*
G01*
X319964000Y-81018200D01*
G75*
G02*
X320104000Y-81158200I0J-140000D01*
G01*
G37*
G36*
G01*
X321064000Y-81158200D02*
X321064000Y-81498200D01*
G75*
G02*
X320924000Y-81638200I-140000J0D01*
G01*
X320644000Y-81638200D01*
G75*
G02*
X320504000Y-81498200I0J140000D01*
G01*
X320504000Y-81158200D01*
G75*
G02*
X320644000Y-81018200I140000J0D01*
G01*
X320924000Y-81018200D01*
G75*
G02*
X321064000Y-81158200I0J-140000D01*
G01*
G37*
%TD*%
%TO.C,C15*%
G36*
G01*
X320095000Y-70403400D02*
X320095000Y-70743400D01*
G75*
G02*
X319955000Y-70883400I-140000J0D01*
G01*
X319675000Y-70883400D01*
G75*
G02*
X319535000Y-70743400I0J140000D01*
G01*
X319535000Y-70403400D01*
G75*
G02*
X319675000Y-70263400I140000J0D01*
G01*
X319955000Y-70263400D01*
G75*
G02*
X320095000Y-70403400I0J-140000D01*
G01*
G37*
G36*
G01*
X321055000Y-70403400D02*
X321055000Y-70743400D01*
G75*
G02*
X320915000Y-70883400I-140000J0D01*
G01*
X320635000Y-70883400D01*
G75*
G02*
X320495000Y-70743400I0J140000D01*
G01*
X320495000Y-70403400D01*
G75*
G02*
X320635000Y-70263400I140000J0D01*
G01*
X320915000Y-70263400D01*
G75*
G02*
X321055000Y-70403400I0J-140000D01*
G01*
G37*
%TD*%
%TO.C,C21*%
G36*
G01*
X320095000Y-66119100D02*
X320095000Y-66459100D01*
G75*
G02*
X319955000Y-66599100I-140000J0D01*
G01*
X319675000Y-66599100D01*
G75*
G02*
X319535000Y-66459100I0J140000D01*
G01*
X319535000Y-66119100D01*
G75*
G02*
X319675000Y-65979100I140000J0D01*
G01*
X319955000Y-65979100D01*
G75*
G02*
X320095000Y-66119100I0J-140000D01*
G01*
G37*
G36*
G01*
X321055000Y-66119100D02*
X321055000Y-66459100D01*
G75*
G02*
X320915000Y-66599100I-140000J0D01*
G01*
X320635000Y-66599100D01*
G75*
G02*
X320495000Y-66459100I0J140000D01*
G01*
X320495000Y-66119100D01*
G75*
G02*
X320635000Y-65979100I140000J0D01*
G01*
X320915000Y-65979100D01*
G75*
G02*
X321055000Y-66119100I0J-140000D01*
G01*
G37*
%TD*%
%TO.C,C19*%
G36*
G01*
X320095000Y-27560200D02*
X320095000Y-27900200D01*
G75*
G02*
X319955000Y-28040200I-140000J0D01*
G01*
X319675000Y-28040200D01*
G75*
G02*
X319535000Y-27900200I0J140000D01*
G01*
X319535000Y-27560200D01*
G75*
G02*
X319675000Y-27420200I140000J0D01*
G01*
X319955000Y-27420200D01*
G75*
G02*
X320095000Y-27560200I0J-140000D01*
G01*
G37*
G36*
G01*
X321055000Y-27560200D02*
X321055000Y-27900200D01*
G75*
G02*
X320915000Y-28040200I-140000J0D01*
G01*
X320635000Y-28040200D01*
G75*
G02*
X320495000Y-27900200I0J140000D01*
G01*
X320495000Y-27560200D01*
G75*
G02*
X320635000Y-27420200I140000J0D01*
G01*
X320915000Y-27420200D01*
G75*
G02*
X321055000Y-27560200I0J-140000D01*
G01*
G37*
%TD*%
%TO.C,C44*%
G36*
G01*
X317732000Y-18003900D02*
X317732000Y-18343900D01*
G75*
G02*
X317592000Y-18483900I-140000J0D01*
G01*
X317312000Y-18483900D01*
G75*
G02*
X317172000Y-18343900I0J140000D01*
G01*
X317172000Y-18003900D01*
G75*
G02*
X317312000Y-17863900I140000J0D01*
G01*
X317592000Y-17863900D01*
G75*
G02*
X317732000Y-18003900I0J-140000D01*
G01*
G37*
G36*
G01*
X318692000Y-18003900D02*
X318692000Y-18343900D01*
G75*
G02*
X318552000Y-18483900I-140000J0D01*
G01*
X318272000Y-18483900D01*
G75*
G02*
X318132000Y-18343900I0J140000D01*
G01*
X318132000Y-18003900D01*
G75*
G02*
X318272000Y-17863900I140000J0D01*
G01*
X318552000Y-17863900D01*
G75*
G02*
X318692000Y-18003900I0J-140000D01*
G01*
G37*
%TD*%
%TO.C,C38*%
G36*
G01*
X320099000Y-82300200D02*
X320099000Y-82640200D01*
G75*
G02*
X319959000Y-82780200I-140000J0D01*
G01*
X319679000Y-82780200D01*
G75*
G02*
X319539000Y-82640200I0J140000D01*
G01*
X319539000Y-82300200D01*
G75*
G02*
X319679000Y-82160200I140000J0D01*
G01*
X319959000Y-82160200D01*
G75*
G02*
X320099000Y-82300200I0J-140000D01*
G01*
G37*
G36*
G01*
X321059000Y-82300200D02*
X321059000Y-82640200D01*
G75*
G02*
X320919000Y-82780200I-140000J0D01*
G01*
X320639000Y-82780200D01*
G75*
G02*
X320499000Y-82640200I0J140000D01*
G01*
X320499000Y-82300200D01*
G75*
G02*
X320639000Y-82160200I140000J0D01*
G01*
X320919000Y-82160200D01*
G75*
G02*
X321059000Y-82300200I0J-140000D01*
G01*
G37*
%TD*%
%TO.C,C52*%
G36*
G01*
X316620000Y-64833800D02*
X316620000Y-65173800D01*
G75*
G02*
X316480000Y-65313800I-140000J0D01*
G01*
X316200000Y-65313800D01*
G75*
G02*
X316060000Y-65173800I0J140000D01*
G01*
X316060000Y-64833800D01*
G75*
G02*
X316200000Y-64693800I140000J0D01*
G01*
X316480000Y-64693800D01*
G75*
G02*
X316620000Y-64833800I0J-140000D01*
G01*
G37*
G36*
G01*
X317580000Y-64833800D02*
X317580000Y-65173800D01*
G75*
G02*
X317440000Y-65313800I-140000J0D01*
G01*
X317160000Y-65313800D01*
G75*
G02*
X317020000Y-65173800I0J140000D01*
G01*
X317020000Y-64833800D01*
G75*
G02*
X317160000Y-64693800I140000J0D01*
G01*
X317440000Y-64693800D01*
G75*
G02*
X317580000Y-64833800I0J-140000D01*
G01*
G37*
%TD*%
%TO.C,C34*%
G36*
G01*
X320095000Y-53266100D02*
X320095000Y-53606100D01*
G75*
G02*
X319955000Y-53746100I-140000J0D01*
G01*
X319675000Y-53746100D01*
G75*
G02*
X319535000Y-53606100I0J140000D01*
G01*
X319535000Y-53266100D01*
G75*
G02*
X319675000Y-53126100I140000J0D01*
G01*
X319955000Y-53126100D01*
G75*
G02*
X320095000Y-53266100I0J-140000D01*
G01*
G37*
G36*
G01*
X321055000Y-53266100D02*
X321055000Y-53606100D01*
G75*
G02*
X320915000Y-53746100I-140000J0D01*
G01*
X320635000Y-53746100D01*
G75*
G02*
X320495000Y-53606100I0J140000D01*
G01*
X320495000Y-53266100D01*
G75*
G02*
X320635000Y-53126100I140000J0D01*
G01*
X320915000Y-53126100D01*
G75*
G02*
X321055000Y-53266100I0J-140000D01*
G01*
G37*
%TD*%
%TO.C,C43*%
G36*
G01*
X320095000Y-21133200D02*
X320095000Y-21473200D01*
G75*
G02*
X319955000Y-21613200I-140000J0D01*
G01*
X319675000Y-21613200D01*
G75*
G02*
X319535000Y-21473200I0J140000D01*
G01*
X319535000Y-21133200D01*
G75*
G02*
X319675000Y-20993200I140000J0D01*
G01*
X319955000Y-20993200D01*
G75*
G02*
X320095000Y-21133200I0J-140000D01*
G01*
G37*
G36*
G01*
X321055000Y-21133200D02*
X321055000Y-21473200D01*
G75*
G02*
X320915000Y-21613200I-140000J0D01*
G01*
X320635000Y-21613200D01*
G75*
G02*
X320495000Y-21473200I0J140000D01*
G01*
X320495000Y-21133200D01*
G75*
G02*
X320635000Y-20993200I140000J0D01*
G01*
X320915000Y-20993200D01*
G75*
G02*
X321055000Y-21133200I0J-140000D01*
G01*
G37*
%TD*%
%TO.C,C53*%
G36*
G01*
X320095000Y-65048000D02*
X320095000Y-65388000D01*
G75*
G02*
X319955000Y-65528000I-140000J0D01*
G01*
X319675000Y-65528000D01*
G75*
G02*
X319535000Y-65388000I0J140000D01*
G01*
X319535000Y-65048000D01*
G75*
G02*
X319675000Y-64908000I140000J0D01*
G01*
X319955000Y-64908000D01*
G75*
G02*
X320095000Y-65048000I0J-140000D01*
G01*
G37*
G36*
G01*
X321055000Y-65048000D02*
X321055000Y-65388000D01*
G75*
G02*
X320915000Y-65528000I-140000J0D01*
G01*
X320635000Y-65528000D01*
G75*
G02*
X320495000Y-65388000I0J140000D01*
G01*
X320495000Y-65048000D01*
G75*
G02*
X320635000Y-64908000I140000J0D01*
G01*
X320915000Y-64908000D01*
G75*
G02*
X321055000Y-65048000I0J-140000D01*
G01*
G37*
%TD*%
%TO.C,C59*%
G36*
G01*
X320095000Y-52195000D02*
X320095000Y-52535000D01*
G75*
G02*
X319955000Y-52675000I-140000J0D01*
G01*
X319675000Y-52675000D01*
G75*
G02*
X319535000Y-52535000I0J140000D01*
G01*
X319535000Y-52195000D01*
G75*
G02*
X319675000Y-52055000I140000J0D01*
G01*
X319955000Y-52055000D01*
G75*
G02*
X320095000Y-52195000I0J-140000D01*
G01*
G37*
G36*
G01*
X321055000Y-52195000D02*
X321055000Y-52535000D01*
G75*
G02*
X320915000Y-52675000I-140000J0D01*
G01*
X320635000Y-52675000D01*
G75*
G02*
X320495000Y-52535000I0J140000D01*
G01*
X320495000Y-52195000D01*
G75*
G02*
X320635000Y-52055000I140000J0D01*
G01*
X320915000Y-52055000D01*
G75*
G02*
X321055000Y-52195000I0J-140000D01*
G01*
G37*
%TD*%
%TO.C,C78*%
G36*
G01*
X320095000Y-58621500D02*
X320095000Y-58961500D01*
G75*
G02*
X319955000Y-59101500I-140000J0D01*
G01*
X319675000Y-59101500D01*
G75*
G02*
X319535000Y-58961500I0J140000D01*
G01*
X319535000Y-58621500D01*
G75*
G02*
X319675000Y-58481500I140000J0D01*
G01*
X319955000Y-58481500D01*
G75*
G02*
X320095000Y-58621500I0J-140000D01*
G01*
G37*
G36*
G01*
X321055000Y-58621500D02*
X321055000Y-58961500D01*
G75*
G02*
X320915000Y-59101500I-140000J0D01*
G01*
X320635000Y-59101500D01*
G75*
G02*
X320495000Y-58961500I0J140000D01*
G01*
X320495000Y-58621500D01*
G75*
G02*
X320635000Y-58481500I140000J0D01*
G01*
X320915000Y-58481500D01*
G75*
G02*
X321055000Y-58621500I0J-140000D01*
G01*
G37*
%TD*%
%TO.C,C86*%
G36*
G01*
X320080000Y-14717200D02*
X320080000Y-15057200D01*
G75*
G02*
X319940000Y-15197200I-140000J0D01*
G01*
X319660000Y-15197200D01*
G75*
G02*
X319520000Y-15057200I0J140000D01*
G01*
X319520000Y-14717200D01*
G75*
G02*
X319660000Y-14577200I140000J0D01*
G01*
X319940000Y-14577200D01*
G75*
G02*
X320080000Y-14717200I0J-140000D01*
G01*
G37*
G36*
G01*
X321040000Y-14717200D02*
X321040000Y-15057200D01*
G75*
G02*
X320900000Y-15197200I-140000J0D01*
G01*
X320620000Y-15197200D01*
G75*
G02*
X320480000Y-15057200I0J140000D01*
G01*
X320480000Y-14717200D01*
G75*
G02*
X320620000Y-14577200I140000J0D01*
G01*
X320900000Y-14577200D01*
G75*
G02*
X321040000Y-14717200I0J-140000D01*
G01*
G37*
%TD*%
%TO.C,C92*%
G36*
G01*
X320095000Y-32915500D02*
X320095000Y-33255500D01*
G75*
G02*
X319955000Y-33395500I-140000J0D01*
G01*
X319675000Y-33395500D01*
G75*
G02*
X319535000Y-33255500I0J140000D01*
G01*
X319535000Y-32915500D01*
G75*
G02*
X319675000Y-32775500I140000J0D01*
G01*
X319955000Y-32775500D01*
G75*
G02*
X320095000Y-32915500I0J-140000D01*
G01*
G37*
G36*
G01*
X321055000Y-32915500D02*
X321055000Y-33255500D01*
G75*
G02*
X320915000Y-33395500I-140000J0D01*
G01*
X320635000Y-33395500D01*
G75*
G02*
X320495000Y-33255500I0J140000D01*
G01*
X320495000Y-32915500D01*
G75*
G02*
X320635000Y-32775500I140000J0D01*
G01*
X320915000Y-32775500D01*
G75*
G02*
X321055000Y-32915500I0J-140000D01*
G01*
G37*
%TD*%
%TO.C,C99*%
G36*
G01*
X320095000Y-26489200D02*
X320095000Y-26829200D01*
G75*
G02*
X319955000Y-26969200I-140000J0D01*
G01*
X319675000Y-26969200D01*
G75*
G02*
X319535000Y-26829200I0J140000D01*
G01*
X319535000Y-26489200D01*
G75*
G02*
X319675000Y-26349200I140000J0D01*
G01*
X319955000Y-26349200D01*
G75*
G02*
X320095000Y-26489200I0J-140000D01*
G01*
G37*
G36*
G01*
X321055000Y-26489200D02*
X321055000Y-26829200D01*
G75*
G02*
X320915000Y-26969200I-140000J0D01*
G01*
X320635000Y-26969200D01*
G75*
G02*
X320495000Y-26829200I0J140000D01*
G01*
X320495000Y-26489200D01*
G75*
G02*
X320635000Y-26349200I140000J0D01*
G01*
X320915000Y-26349200D01*
G75*
G02*
X321055000Y-26489200I0J-140000D01*
G01*
G37*
%TD*%
%TO.C,C87*%
G36*
G01*
X320095000Y-45768500D02*
X320095000Y-46108500D01*
G75*
G02*
X319955000Y-46248500I-140000J0D01*
G01*
X319675000Y-46248500D01*
G75*
G02*
X319535000Y-46108500I0J140000D01*
G01*
X319535000Y-45768500D01*
G75*
G02*
X319675000Y-45628500I140000J0D01*
G01*
X319955000Y-45628500D01*
G75*
G02*
X320095000Y-45768500I0J-140000D01*
G01*
G37*
G36*
G01*
X321055000Y-45768500D02*
X321055000Y-46108500D01*
G75*
G02*
X320915000Y-46248500I-140000J0D01*
G01*
X320635000Y-46248500D01*
G75*
G02*
X320495000Y-46108500I0J140000D01*
G01*
X320495000Y-45768500D01*
G75*
G02*
X320635000Y-45628500I140000J0D01*
G01*
X320915000Y-45628500D01*
G75*
G02*
X321055000Y-45768500I0J-140000D01*
G01*
G37*
%TD*%
%TO.C,C76*%
G36*
G01*
X317732000Y-21217100D02*
X317732000Y-21557100D01*
G75*
G02*
X317592000Y-21697100I-140000J0D01*
G01*
X317312000Y-21697100D01*
G75*
G02*
X317172000Y-21557100I0J140000D01*
G01*
X317172000Y-21217100D01*
G75*
G02*
X317312000Y-21077100I140000J0D01*
G01*
X317592000Y-21077100D01*
G75*
G02*
X317732000Y-21217100I0J-140000D01*
G01*
G37*
G36*
G01*
X318692000Y-21217100D02*
X318692000Y-21557100D01*
G75*
G02*
X318552000Y-21697100I-140000J0D01*
G01*
X318272000Y-21697100D01*
G75*
G02*
X318132000Y-21557100I0J140000D01*
G01*
X318132000Y-21217100D01*
G75*
G02*
X318272000Y-21077100I140000J0D01*
G01*
X318552000Y-21077100D01*
G75*
G02*
X318692000Y-21217100I0J-140000D01*
G01*
G37*
%TD*%
%TO.C,C94*%
G36*
G01*
X317732000Y-24430400D02*
X317732000Y-24770400D01*
G75*
G02*
X317592000Y-24910400I-140000J0D01*
G01*
X317312000Y-24910400D01*
G75*
G02*
X317172000Y-24770400I0J140000D01*
G01*
X317172000Y-24430400D01*
G75*
G02*
X317312000Y-24290400I140000J0D01*
G01*
X317592000Y-24290400D01*
G75*
G02*
X317732000Y-24430400I0J-140000D01*
G01*
G37*
G36*
G01*
X318692000Y-24430400D02*
X318692000Y-24770400D01*
G75*
G02*
X318552000Y-24910400I-140000J0D01*
G01*
X318272000Y-24910400D01*
G75*
G02*
X318132000Y-24770400I0J140000D01*
G01*
X318132000Y-24430400D01*
G75*
G02*
X318272000Y-24290400I140000J0D01*
G01*
X318552000Y-24290400D01*
G75*
G02*
X318692000Y-24430400I0J-140000D01*
G01*
G37*
%TD*%
%TO.C,C77*%
G36*
G01*
X320104000Y-80087200D02*
X320104000Y-80427200D01*
G75*
G02*
X319964000Y-80567200I-140000J0D01*
G01*
X319684000Y-80567200D01*
G75*
G02*
X319544000Y-80427200I0J140000D01*
G01*
X319544000Y-80087200D01*
G75*
G02*
X319684000Y-79947200I140000J0D01*
G01*
X319964000Y-79947200D01*
G75*
G02*
X320104000Y-80087200I0J-140000D01*
G01*
G37*
G36*
G01*
X321064000Y-80087200D02*
X321064000Y-80427200D01*
G75*
G02*
X320924000Y-80567200I-140000J0D01*
G01*
X320644000Y-80567200D01*
G75*
G02*
X320504000Y-80427200I0J140000D01*
G01*
X320504000Y-80087200D01*
G75*
G02*
X320644000Y-79947200I140000J0D01*
G01*
X320924000Y-79947200D01*
G75*
G02*
X321064000Y-80087200I0J-140000D01*
G01*
G37*
%TD*%
%TO.C,C69*%
G36*
G01*
X320095000Y-20062200D02*
X320095000Y-20402200D01*
G75*
G02*
X319955000Y-20542200I-140000J0D01*
G01*
X319675000Y-20542200D01*
G75*
G02*
X319535000Y-20402200I0J140000D01*
G01*
X319535000Y-20062200D01*
G75*
G02*
X319675000Y-19922200I140000J0D01*
G01*
X319955000Y-19922200D01*
G75*
G02*
X320095000Y-20062200I0J-140000D01*
G01*
G37*
G36*
G01*
X321055000Y-20062200D02*
X321055000Y-20402200D01*
G75*
G02*
X320915000Y-20542200I-140000J0D01*
G01*
X320635000Y-20542200D01*
G75*
G02*
X320495000Y-20402200I0J140000D01*
G01*
X320495000Y-20062200D01*
G75*
G02*
X320635000Y-19922200I140000J0D01*
G01*
X320915000Y-19922200D01*
G75*
G02*
X321055000Y-20062200I0J-140000D01*
G01*
G37*
%TD*%
%TO.C,C68*%
G36*
G01*
X320095000Y-39342000D02*
X320095000Y-39682000D01*
G75*
G02*
X319955000Y-39822000I-140000J0D01*
G01*
X319675000Y-39822000D01*
G75*
G02*
X319535000Y-39682000I0J140000D01*
G01*
X319535000Y-39342000D01*
G75*
G02*
X319675000Y-39202000I140000J0D01*
G01*
X319955000Y-39202000D01*
G75*
G02*
X320095000Y-39342000I0J-140000D01*
G01*
G37*
G36*
G01*
X321055000Y-39342000D02*
X321055000Y-39682000D01*
G75*
G02*
X320915000Y-39822000I-140000J0D01*
G01*
X320635000Y-39822000D01*
G75*
G02*
X320495000Y-39682000I0J140000D01*
G01*
X320495000Y-39342000D01*
G75*
G02*
X320635000Y-39202000I140000J0D01*
G01*
X320915000Y-39202000D01*
G75*
G02*
X321055000Y-39342000I0J-140000D01*
G01*
G37*
%TD*%
%TO.C,C72*%
G36*
G01*
X317732000Y-14790600D02*
X317732000Y-15130600D01*
G75*
G02*
X317592000Y-15270600I-140000J0D01*
G01*
X317312000Y-15270600D01*
G75*
G02*
X317172000Y-15130600I0J140000D01*
G01*
X317172000Y-14790600D01*
G75*
G02*
X317312000Y-14650600I140000J0D01*
G01*
X317592000Y-14650600D01*
G75*
G02*
X317732000Y-14790600I0J-140000D01*
G01*
G37*
G36*
G01*
X318692000Y-14790600D02*
X318692000Y-15130600D01*
G75*
G02*
X318552000Y-15270600I-140000J0D01*
G01*
X318272000Y-15270600D01*
G75*
G02*
X318132000Y-15130600I0J140000D01*
G01*
X318132000Y-14790600D01*
G75*
G02*
X318272000Y-14650600I140000J0D01*
G01*
X318552000Y-14650600D01*
G75*
G02*
X318692000Y-14790600I0J-140000D01*
G01*
G37*
%TD*%
%TO.C,C4*%
G36*
G01*
X320095000Y-76829900D02*
X320095000Y-77169900D01*
G75*
G02*
X319955000Y-77309900I-140000J0D01*
G01*
X319675000Y-77309900D01*
G75*
G02*
X319535000Y-77169900I0J140000D01*
G01*
X319535000Y-76829900D01*
G75*
G02*
X319675000Y-76689900I140000J0D01*
G01*
X319955000Y-76689900D01*
G75*
G02*
X320095000Y-76829900I0J-140000D01*
G01*
G37*
G36*
G01*
X321055000Y-76829900D02*
X321055000Y-77169900D01*
G75*
G02*
X320915000Y-77309900I-140000J0D01*
G01*
X320635000Y-77309900D01*
G75*
G02*
X320495000Y-77169900I0J140000D01*
G01*
X320495000Y-76829900D01*
G75*
G02*
X320635000Y-76689900I140000J0D01*
G01*
X320915000Y-76689900D01*
G75*
G02*
X321055000Y-76829900I0J-140000D01*
G01*
G37*
%TD*%
%TO.C,C7*%
G36*
G01*
X320095000Y-74687800D02*
X320095000Y-75027800D01*
G75*
G02*
X319955000Y-75167800I-140000J0D01*
G01*
X319675000Y-75167800D01*
G75*
G02*
X319535000Y-75027800I0J140000D01*
G01*
X319535000Y-74687800D01*
G75*
G02*
X319675000Y-74547800I140000J0D01*
G01*
X319955000Y-74547800D01*
G75*
G02*
X320095000Y-74687800I0J-140000D01*
G01*
G37*
G36*
G01*
X321055000Y-74687800D02*
X321055000Y-75027800D01*
G75*
G02*
X320915000Y-75167800I-140000J0D01*
G01*
X320635000Y-75167800D01*
G75*
G02*
X320495000Y-75027800I0J140000D01*
G01*
X320495000Y-74687800D01*
G75*
G02*
X320635000Y-74547800I140000J0D01*
G01*
X320915000Y-74547800D01*
G75*
G02*
X321055000Y-74687800I0J-140000D01*
G01*
G37*
%TD*%
%TO.C,C10*%
G36*
G01*
X320095000Y-46839600D02*
X320095000Y-47179600D01*
G75*
G02*
X319955000Y-47319600I-140000J0D01*
G01*
X319675000Y-47319600D01*
G75*
G02*
X319535000Y-47179600I0J140000D01*
G01*
X319535000Y-46839600D01*
G75*
G02*
X319675000Y-46699600I140000J0D01*
G01*
X319955000Y-46699600D01*
G75*
G02*
X320095000Y-46839600I0J-140000D01*
G01*
G37*
G36*
G01*
X321055000Y-46839600D02*
X321055000Y-47179600D01*
G75*
G02*
X320915000Y-47319600I-140000J0D01*
G01*
X320635000Y-47319600D01*
G75*
G02*
X320495000Y-47179600I0J140000D01*
G01*
X320495000Y-46839600D01*
G75*
G02*
X320635000Y-46699600I140000J0D01*
G01*
X320915000Y-46699600D01*
G75*
G02*
X321055000Y-46839600I0J-140000D01*
G01*
G37*
%TD*%
%TO.C,C14*%
G36*
G01*
X320095000Y-40413100D02*
X320095000Y-40753100D01*
G75*
G02*
X319955000Y-40893100I-140000J0D01*
G01*
X319675000Y-40893100D01*
G75*
G02*
X319535000Y-40753100I0J140000D01*
G01*
X319535000Y-40413100D01*
G75*
G02*
X319675000Y-40273100I140000J0D01*
G01*
X319955000Y-40273100D01*
G75*
G02*
X320095000Y-40413100I0J-140000D01*
G01*
G37*
G36*
G01*
X321055000Y-40413100D02*
X321055000Y-40753100D01*
G75*
G02*
X320915000Y-40893100I-140000J0D01*
G01*
X320635000Y-40893100D01*
G75*
G02*
X320495000Y-40753100I0J140000D01*
G01*
X320495000Y-40413100D01*
G75*
G02*
X320635000Y-40273100I140000J0D01*
G01*
X320915000Y-40273100D01*
G75*
G02*
X321055000Y-40413100I0J-140000D01*
G01*
G37*
%TD*%
%TO.C,C2*%
G36*
G01*
X316620000Y-63833800D02*
X316620000Y-64173800D01*
G75*
G02*
X316480000Y-64313800I-140000J0D01*
G01*
X316200000Y-64313800D01*
G75*
G02*
X316060000Y-64173800I0J140000D01*
G01*
X316060000Y-63833800D01*
G75*
G02*
X316200000Y-63693800I140000J0D01*
G01*
X316480000Y-63693800D01*
G75*
G02*
X316620000Y-63833800I0J-140000D01*
G01*
G37*
G36*
G01*
X317580000Y-63833800D02*
X317580000Y-64173800D01*
G75*
G02*
X317440000Y-64313800I-140000J0D01*
G01*
X317160000Y-64313800D01*
G75*
G02*
X317020000Y-64173800I0J140000D01*
G01*
X317020000Y-63833800D01*
G75*
G02*
X317160000Y-63693800I140000J0D01*
G01*
X317440000Y-63693800D01*
G75*
G02*
X317580000Y-63833800I0J-140000D01*
G01*
G37*
%TD*%
%TO.C,C12*%
G36*
G01*
X320102000Y-77848600D02*
X320102000Y-78188600D01*
G75*
G02*
X319962000Y-78328600I-140000J0D01*
G01*
X319682000Y-78328600D01*
G75*
G02*
X319542000Y-78188600I0J140000D01*
G01*
X319542000Y-77848600D01*
G75*
G02*
X319682000Y-77708600I140000J0D01*
G01*
X319962000Y-77708600D01*
G75*
G02*
X320102000Y-77848600I0J-140000D01*
G01*
G37*
G36*
G01*
X321062000Y-77848600D02*
X321062000Y-78188600D01*
G75*
G02*
X320922000Y-78328600I-140000J0D01*
G01*
X320642000Y-78328600D01*
G75*
G02*
X320502000Y-78188600I0J140000D01*
G01*
X320502000Y-77848600D01*
G75*
G02*
X320642000Y-77708600I140000J0D01*
G01*
X320922000Y-77708600D01*
G75*
G02*
X321062000Y-77848600I0J-140000D01*
G01*
G37*
%TD*%
%TO.C,C1*%
G36*
G01*
X320095000Y-33986600D02*
X320095000Y-34326600D01*
G75*
G02*
X319955000Y-34466600I-140000J0D01*
G01*
X319675000Y-34466600D01*
G75*
G02*
X319535000Y-34326600I0J140000D01*
G01*
X319535000Y-33986600D01*
G75*
G02*
X319675000Y-33846600I140000J0D01*
G01*
X319955000Y-33846600D01*
G75*
G02*
X320095000Y-33986600I0J-140000D01*
G01*
G37*
G36*
G01*
X321055000Y-33986600D02*
X321055000Y-34326600D01*
G75*
G02*
X320915000Y-34466600I-140000J0D01*
G01*
X320635000Y-34466600D01*
G75*
G02*
X320495000Y-34326600I0J140000D01*
G01*
X320495000Y-33986600D01*
G75*
G02*
X320635000Y-33846600I140000J0D01*
G01*
X320915000Y-33846600D01*
G75*
G02*
X321055000Y-33986600I0J-140000D01*
G01*
G37*
%TD*%
M02*
