%TF.GenerationSoftware,KiCad,Pcbnew,5.1.6+dfsg1-1*%
%TF.CreationDate,2021-06-10T17:02:18-07:00*%
%TF.ProjectId,chgray-keyboard,63686772-6179-42d6-9b65-79626f617264,Yeet2*%
%TF.SameCoordinates,Original*%
%TF.FileFunction,Paste,Top*%
%TF.FilePolarity,Positive*%
%FSLAX46Y46*%
G04 Gerber Fmt 4.6, Leading zero omitted, Abs format (unit mm)*
G04 Created by KiCad (PCBNEW 5.1.6+dfsg1-1) date 2021-06-10 17:02:18*
%MOMM*%
%LPD*%
G01*
G04 APERTURE LIST*
%ADD10R,0.900000X1.200000*%
%ADD11R,1.550000X1.300000*%
%ADD12R,2.000000X4.500000*%
%ADD13R,0.500000X2.500000*%
%ADD14R,2.000000X2.500000*%
%ADD15R,0.700000X0.700000*%
%ADD16R,0.550000X1.500000*%
%ADD17R,1.500000X0.550000*%
G04 APERTURE END LIST*
D10*
%TO.C,D84*%
X343724000Y-46926500D03*
X340424000Y-46926500D03*
%TD*%
%TO.C,D83*%
X388927000Y-104204000D03*
X385627000Y-104204000D03*
%TD*%
%TO.C,D82*%
X384078000Y-104204000D03*
X380778000Y-104204000D03*
%TD*%
%TO.C,D81*%
X379230000Y-104204000D03*
X375930000Y-104204000D03*
%TD*%
%TO.C,D80*%
X374381000Y-104204000D03*
X371081000Y-104204000D03*
%TD*%
%TO.C,D79*%
X369532000Y-104204000D03*
X366232000Y-104204000D03*
%TD*%
%TO.C,D78*%
X364684000Y-104204000D03*
X361384000Y-104204000D03*
%TD*%
%TO.C,D77*%
X359835000Y-104204000D03*
X356535000Y-104204000D03*
%TD*%
%TO.C,D76*%
X354986000Y-104204000D03*
X351686000Y-104204000D03*
%TD*%
%TO.C,D75*%
X350138000Y-104204000D03*
X346838000Y-104204000D03*
%TD*%
%TO.C,D74*%
X345289000Y-104204000D03*
X341989000Y-104204000D03*
%TD*%
%TO.C,D73*%
X340440000Y-104204000D03*
X337140000Y-104204000D03*
%TD*%
%TO.C,D72*%
X348573000Y-46926500D03*
X345273000Y-46926500D03*
%TD*%
%TO.C,D71*%
X397060000Y-46926500D03*
X393760000Y-46926500D03*
%TD*%
%TO.C,D70*%
X184147000Y-104394000D03*
X180847000Y-104394000D03*
%TD*%
%TO.C,D69*%
X393776000Y-104204000D03*
X390476000Y-104204000D03*
%TD*%
%TO.C,D68*%
X353422000Y-46926500D03*
X350122000Y-46926500D03*
%TD*%
%TO.C,D67*%
X156197000Y-104394000D03*
X152897000Y-104394000D03*
%TD*%
%TO.C,D66*%
X387362000Y-46926500D03*
X384062000Y-46926500D03*
%TD*%
%TO.C,D65*%
X121259000Y-104394000D03*
X117959000Y-104394000D03*
%TD*%
%TO.C,D64*%
X367968000Y-46926500D03*
X364668000Y-46926500D03*
%TD*%
%TO.C,D63*%
X170172000Y-104394000D03*
X166872000Y-104394000D03*
%TD*%
%TO.C,D62*%
X382514000Y-46926500D03*
X379214000Y-46926500D03*
%TD*%
%TO.C,D61*%
X219085000Y-104394000D03*
X215785000Y-104394000D03*
%TD*%
%TO.C,D60*%
X377665000Y-46926500D03*
X374365000Y-46926500D03*
%TD*%
%TO.C,D59*%
X372816000Y-46926500D03*
X369516000Y-46926500D03*
%TD*%
%TO.C,D58*%
X114271000Y-104394000D03*
X110971000Y-104394000D03*
%TD*%
%TO.C,D57*%
X107283000Y-104394000D03*
X103983000Y-104394000D03*
%TD*%
%TO.C,D56*%
X163184000Y-104394000D03*
X159884000Y-104394000D03*
%TD*%
%TO.C,D55*%
X173086000Y-47180500D03*
X169786000Y-47180500D03*
%TD*%
%TO.C,D54*%
X194028000Y-47180500D03*
X190728000Y-47180500D03*
%TD*%
%TO.C,D53*%
X149209000Y-104394000D03*
X145909000Y-104394000D03*
%TD*%
%TO.C,D52*%
X93308300Y-104394000D03*
X90008300Y-104394000D03*
%TD*%
%TO.C,D51*%
X212098000Y-104394000D03*
X208798000Y-104394000D03*
%TD*%
%TO.C,D50*%
X100295900Y-104394000D03*
X96995900Y-104394000D03*
%TD*%
%TO.C,D49*%
X228932000Y-47180500D03*
X225632000Y-47180500D03*
%TD*%
%TO.C,D48*%
X198122000Y-104394000D03*
X194822000Y-104394000D03*
%TD*%
%TO.C,D47*%
X205110000Y-104394000D03*
X201810000Y-104394000D03*
%TD*%
%TO.C,D46*%
X256854000Y-47180500D03*
X253554000Y-47180500D03*
%TD*%
%TO.C,D45*%
X79333100Y-104394000D03*
X76033100Y-104394000D03*
%TD*%
%TO.C,D44*%
X86320700Y-104394000D03*
X83020700Y-104394000D03*
%TD*%
%TO.C,D43*%
X54414200Y-47180500D03*
X51114200Y-47180500D03*
%TD*%
%TO.C,D42*%
X117240000Y-47180500D03*
X113940000Y-47180500D03*
%TD*%
%TO.C,D41*%
X128246000Y-104394000D03*
X124946000Y-104394000D03*
%TD*%
%TO.C,D40*%
X242893000Y-47180500D03*
X239593000Y-47180500D03*
%TD*%
%TO.C,D39*%
X177160000Y-104394000D03*
X173860000Y-104394000D03*
%TD*%
%TO.C,D38*%
X135234000Y-104394000D03*
X131934000Y-104394000D03*
%TD*%
%TO.C,D37*%
X145163000Y-47180500D03*
X141863000Y-47180500D03*
%TD*%
%TO.C,D36*%
X233060000Y-104394000D03*
X229760000Y-104394000D03*
%TD*%
%TO.C,D35*%
X142222000Y-104394000D03*
X138922000Y-104394000D03*
%TD*%
%TO.C,D34*%
X235912000Y-47180500D03*
X232612000Y-47180500D03*
%TD*%
%TO.C,D33*%
X75356300Y-47180500D03*
X72056300Y-47180500D03*
%TD*%
%TO.C,D32*%
X82337000Y-47180500D03*
X79037000Y-47180500D03*
%TD*%
%TO.C,D31*%
X159125000Y-47180500D03*
X155825000Y-47180500D03*
%TD*%
%TO.C,D30*%
X261011000Y-104394000D03*
X257711000Y-104394000D03*
%TD*%
%TO.C,D29*%
X270816000Y-47180500D03*
X267516000Y-47180500D03*
%TD*%
%TO.C,D28*%
X89317700Y-47180500D03*
X86017700Y-47180500D03*
%TD*%
%TO.C,D27*%
X221951000Y-47180500D03*
X218651000Y-47180500D03*
%TD*%
%TO.C,D26*%
X191135000Y-104394000D03*
X187835000Y-104394000D03*
%TD*%
%TO.C,D25*%
X103279000Y-47180500D03*
X99979000Y-47180500D03*
%TD*%
%TO.C,D24*%
X207989000Y-47180500D03*
X204689000Y-47180500D03*
%TD*%
%TO.C,D23*%
X247036000Y-104394000D03*
X243736000Y-104394000D03*
%TD*%
%TO.C,D22*%
X249874000Y-47180500D03*
X246574000Y-47180500D03*
%TD*%
%TO.C,D21*%
X214970000Y-47180500D03*
X211670000Y-47180500D03*
%TD*%
%TO.C,D20*%
X201009000Y-47180500D03*
X197709000Y-47180500D03*
%TD*%
%TO.C,D19*%
X166105000Y-47180500D03*
X162805000Y-47180500D03*
%TD*%
%TO.C,D18*%
X254023000Y-104394000D03*
X250723000Y-104394000D03*
%TD*%
%TO.C,D17*%
X96298400Y-47180500D03*
X92998400Y-47180500D03*
%TD*%
%TO.C,D16*%
X363119000Y-46926500D03*
X359819000Y-46926500D03*
%TD*%
%TO.C,D15*%
X152144000Y-47180500D03*
X148844000Y-47180500D03*
%TD*%
%TO.C,D14*%
X61394900Y-47180500D03*
X58094900Y-47180500D03*
%TD*%
%TO.C,D13*%
X180067000Y-47180500D03*
X176767000Y-47180500D03*
%TD*%
%TO.C,D12*%
X358270000Y-46926500D03*
X354970000Y-46926500D03*
%TD*%
%TO.C,D11*%
X138183000Y-47180500D03*
X134883000Y-47180500D03*
%TD*%
%TO.C,D10*%
X68375600Y-47180500D03*
X65075600Y-47180500D03*
%TD*%
%TO.C,D9*%
X187047000Y-47180500D03*
X183747000Y-47180500D03*
%TD*%
%TO.C,D8*%
X131202000Y-47180500D03*
X127902000Y-47180500D03*
%TD*%
%TO.C,D7*%
X226073000Y-104394000D03*
X222773000Y-104394000D03*
%TD*%
%TO.C,D6*%
X263835000Y-47180500D03*
X260535000Y-47180500D03*
%TD*%
%TO.C,D5*%
X110260000Y-47180500D03*
X106960000Y-47180500D03*
%TD*%
%TO.C,D4*%
X240048000Y-104394000D03*
X236748000Y-104394000D03*
%TD*%
%TO.C,D3*%
X124221000Y-47180500D03*
X120921000Y-47180500D03*
%TD*%
%TO.C,D2*%
X392211000Y-46926500D03*
X388911000Y-46926500D03*
%TD*%
%TO.C,D1*%
X47433500Y-47180500D03*
X44133500Y-47180500D03*
%TD*%
D11*
%TO.C,SW_RESET1*%
X319694000Y-120771000D03*
X327584000Y-120741000D03*
%TD*%
D12*
%TO.C,Y1-16hz1*%
X319268000Y-65428400D03*
X319268000Y-56928400D03*
%TD*%
D13*
%TO.C,J2*%
X321513000Y-31114000D03*
X322313000Y-31114000D03*
X323113000Y-31114000D03*
X323913000Y-31114000D03*
X324713000Y-31114000D03*
D14*
X318713000Y-31114000D03*
X327513000Y-31114000D03*
X318713000Y-25614000D03*
X327513000Y-25614000D03*
%TD*%
D15*
%TO.C,D168*%
X340920000Y-61384000D03*
X340920000Y-62484000D03*
X339090000Y-62484000D03*
X339090000Y-61384000D03*
%TD*%
%TO.C,D167*%
X359944000Y-118534000D03*
X359944000Y-119634000D03*
X358114000Y-119634000D03*
X358114000Y-118534000D03*
%TD*%
%TO.C,D166*%
X198591000Y-99946000D03*
X198591000Y-101046000D03*
X196761000Y-101046000D03*
X196761000Y-99946000D03*
%TD*%
%TO.C,D165*%
X150737000Y-80857000D03*
X150737000Y-81957000D03*
X148907000Y-81957000D03*
X148907000Y-80857000D03*
%TD*%
%TO.C,D164*%
X359969000Y-61384000D03*
X359969000Y-62484000D03*
X358139000Y-62484000D03*
X358139000Y-61384000D03*
%TD*%
%TO.C,D163*%
X340894000Y-118534000D03*
X340894000Y-119634000D03*
X339064000Y-119634000D03*
X339064000Y-118534000D03*
%TD*%
%TO.C,D162*%
X217615000Y-99970000D03*
X217615000Y-101070000D03*
X215785000Y-101070000D03*
X215785000Y-99970000D03*
%TD*%
%TO.C,D161*%
X131915000Y-80857000D03*
X131915000Y-81957000D03*
X130085000Y-81957000D03*
X130085000Y-80857000D03*
%TD*%
%TO.C,D160*%
X379020000Y-61384000D03*
X379020000Y-62484000D03*
X377190000Y-62484000D03*
X377190000Y-61384000D03*
%TD*%
%TO.C,D159*%
X306249000Y-118915000D03*
X306249000Y-120015000D03*
X304419000Y-120015000D03*
X304419000Y-118915000D03*
%TD*%
%TO.C,D158*%
X236691000Y-99970000D03*
X236691000Y-101070000D03*
X234861000Y-101070000D03*
X234861000Y-99970000D03*
%TD*%
%TO.C,D157*%
X112841000Y-80832000D03*
X112841000Y-81932000D03*
X111011000Y-81932000D03*
X111011000Y-80832000D03*
%TD*%
%TO.C,D156*%
X398070000Y-61384000D03*
X398070000Y-62484000D03*
X396240000Y-62484000D03*
X396240000Y-61384000D03*
%TD*%
%TO.C,D155*%
X284760000Y-119042000D03*
X284760000Y-120142000D03*
X282930000Y-120142000D03*
X282930000Y-119042000D03*
%TD*%
%TO.C,D154*%
X255741000Y-99946000D03*
X255741000Y-101046000D03*
X253911000Y-101046000D03*
X253911000Y-99946000D03*
%TD*%
%TO.C,D153*%
X93815500Y-80857000D03*
X93815500Y-81957000D03*
X91985500Y-81957000D03*
X91985500Y-80857000D03*
%TD*%
%TO.C,D152*%
X398069000Y-42334000D03*
X398069000Y-43434000D03*
X396239000Y-43434000D03*
X396239000Y-42334000D03*
%TD*%
%TO.C,D151*%
X263170000Y-118915000D03*
X263170000Y-120015000D03*
X261340000Y-120015000D03*
X261340000Y-118915000D03*
%TD*%
%TO.C,D150*%
X291465000Y-99865000D03*
X291465000Y-100965000D03*
X289635000Y-100965000D03*
X289635000Y-99865000D03*
%TD*%
%TO.C,D149*%
X74765500Y-80857000D03*
X74765500Y-81957000D03*
X72935500Y-81957000D03*
X72935500Y-80857000D03*
%TD*%
%TO.C,D148*%
X379020000Y-42334000D03*
X379020000Y-43434000D03*
X377190000Y-43434000D03*
X377190000Y-42334000D03*
%TD*%
%TO.C,D147*%
X229870000Y-118999000D03*
X229870000Y-120099000D03*
X228040000Y-120099000D03*
X228040000Y-118999000D03*
%TD*%
%TO.C,D146*%
X340843000Y-99484000D03*
X340843000Y-100584000D03*
X339013000Y-100584000D03*
X339013000Y-99484000D03*
%TD*%
%TO.C,D145*%
X48413000Y-80857000D03*
X48413000Y-81957000D03*
X46583000Y-81957000D03*
X46583000Y-80857000D03*
%TD*%
%TO.C,D144*%
X359970000Y-42334000D03*
X359970000Y-43434000D03*
X358140000Y-43434000D03*
X358140000Y-42334000D03*
%TD*%
%TO.C,D143*%
X198908000Y-119045000D03*
X198908000Y-120145000D03*
X197078000Y-120145000D03*
X197078000Y-119045000D03*
%TD*%
%TO.C,D142*%
X359944000Y-99484000D03*
X359944000Y-100584000D03*
X358114000Y-100584000D03*
X358114000Y-99484000D03*
%TD*%
%TO.C,D141*%
X46127000Y-61807000D03*
X46127000Y-62907000D03*
X44297000Y-62907000D03*
X44297000Y-61807000D03*
%TD*%
%TO.C,D140*%
X340869000Y-42334000D03*
X340869000Y-43434000D03*
X339039000Y-43434000D03*
X339039000Y-42334000D03*
%TD*%
%TO.C,D139*%
X179883000Y-119084000D03*
X179883000Y-120184000D03*
X178053000Y-120184000D03*
X178053000Y-119084000D03*
%TD*%
%TO.C,D138*%
X379020000Y-99484000D03*
X379020000Y-100584000D03*
X377190000Y-100584000D03*
X377190000Y-99484000D03*
%TD*%
%TO.C,D137*%
X69977600Y-61807000D03*
X69977600Y-62907000D03*
X68147600Y-62907000D03*
X68147600Y-61807000D03*
%TD*%
%TO.C,D136*%
X269901000Y-42693500D03*
X269901000Y-43793500D03*
X268071000Y-43793500D03*
X268071000Y-42693500D03*
%TD*%
%TO.C,D135*%
X148895000Y-119126000D03*
X148895000Y-120226000D03*
X147065000Y-120226000D03*
X147065000Y-119126000D03*
%TD*%
%TO.C,D134*%
X398197000Y-99484000D03*
X398197000Y-100584000D03*
X396367000Y-100584000D03*
X396367000Y-99484000D03*
%TD*%
%TO.C,D133*%
X89053000Y-61782000D03*
X89053000Y-62882000D03*
X87223000Y-62882000D03*
X87223000Y-61782000D03*
%TD*%
%TO.C,D132*%
X250889000Y-42715000D03*
X250889000Y-43815000D03*
X249059000Y-43815000D03*
X249059000Y-42715000D03*
%TD*%
%TO.C,D131*%
X115495000Y-119126000D03*
X115495000Y-120226000D03*
X113665000Y-120226000D03*
X113665000Y-119126000D03*
%TD*%
%TO.C,D130*%
X397993000Y-80561000D03*
X397993000Y-81661000D03*
X396163000Y-81661000D03*
X396163000Y-80561000D03*
%TD*%
%TO.C,D129*%
X108103000Y-61731000D03*
X108103000Y-62831000D03*
X106273000Y-62831000D03*
X106273000Y-61731000D03*
%TD*%
%TO.C,D128*%
X231763000Y-42715000D03*
X231763000Y-43815000D03*
X229933000Y-43815000D03*
X229933000Y-42715000D03*
%TD*%
%TO.C,D127*%
X91619000Y-119126000D03*
X91619000Y-120226000D03*
X89789000Y-120226000D03*
X89789000Y-119126000D03*
%TD*%
%TO.C,D126*%
X379020000Y-80561000D03*
X379020000Y-81661000D03*
X377190000Y-81661000D03*
X377190000Y-80561000D03*
%TD*%
%TO.C,D125*%
X127128000Y-61742000D03*
X127128000Y-62842000D03*
X125298000Y-62842000D03*
X125298000Y-61742000D03*
%TD*%
%TO.C,D124*%
X212789000Y-42715000D03*
X212789000Y-43815000D03*
X210959000Y-43815000D03*
X210959000Y-42715000D03*
%TD*%
%TO.C,D123*%
X67743000Y-119042000D03*
X67743000Y-120142000D03*
X65913000Y-120142000D03*
X65913000Y-119042000D03*
%TD*%
%TO.C,D122*%
X359969000Y-80434000D03*
X359969000Y-81534000D03*
X358139000Y-81534000D03*
X358139000Y-80434000D03*
%TD*%
%TO.C,D121*%
X146203000Y-61768000D03*
X146203000Y-62868000D03*
X144373000Y-62868000D03*
X144373000Y-61768000D03*
%TD*%
%TO.C,D120*%
X193675000Y-42672000D03*
X193675000Y-43772000D03*
X191845000Y-43772000D03*
X191845000Y-42672000D03*
%TD*%
%TO.C,D119*%
X43867000Y-119121000D03*
X43867000Y-120221000D03*
X42037000Y-120221000D03*
X42037000Y-119121000D03*
%TD*%
%TO.C,D118*%
X340920000Y-80434000D03*
X340920000Y-81534000D03*
X339090000Y-81534000D03*
X339090000Y-80434000D03*
%TD*%
%TO.C,D117*%
X165253000Y-61756000D03*
X165253000Y-62856000D03*
X163423000Y-62856000D03*
X163423000Y-61756000D03*
%TD*%
%TO.C,D116*%
X174651000Y-42693500D03*
X174651000Y-43793500D03*
X172821000Y-43793500D03*
X172821000Y-42693500D03*
%TD*%
%TO.C,D115*%
X53265000Y-99949000D03*
X53265000Y-101049000D03*
X51435000Y-101049000D03*
X51435000Y-99949000D03*
%TD*%
%TO.C,D114*%
X296037000Y-80815000D03*
X296037000Y-81915000D03*
X294207000Y-81915000D03*
X294207000Y-80815000D03*
%TD*%
%TO.C,D113*%
X184328000Y-61768000D03*
X184328000Y-62868000D03*
X182498000Y-62868000D03*
X182498000Y-61768000D03*
%TD*%
%TO.C,D112*%
X155575000Y-42715000D03*
X155575000Y-43815000D03*
X153745000Y-43815000D03*
X153745000Y-42715000D03*
%TD*%
%TO.C,D111*%
X84290500Y-99946000D03*
X84290500Y-101046000D03*
X82460500Y-101046000D03*
X82460500Y-99946000D03*
%TD*%
%TO.C,D110*%
X265011000Y-80843000D03*
X265011000Y-81943000D03*
X263181000Y-81943000D03*
X263181000Y-80843000D03*
%TD*%
%TO.C,D109*%
X203378000Y-61717000D03*
X203378000Y-62817000D03*
X201548000Y-62817000D03*
X201548000Y-61717000D03*
%TD*%
%TO.C,D108*%
X136577000Y-42715000D03*
X136577000Y-43815000D03*
X134747000Y-43815000D03*
X134747000Y-42715000D03*
%TD*%
%TO.C,D107*%
X103341000Y-99946000D03*
X103341000Y-101046000D03*
X101511000Y-101046000D03*
X101511000Y-99946000D03*
%TD*%
%TO.C,D106*%
X245961000Y-80857000D03*
X245961000Y-81957000D03*
X244131000Y-81957000D03*
X244131000Y-80857000D03*
%TD*%
%TO.C,D105*%
X222403000Y-61742000D03*
X222403000Y-62842000D03*
X220573000Y-62842000D03*
X220573000Y-61742000D03*
%TD*%
%TO.C,D104*%
X117527000Y-42715000D03*
X117527000Y-43815000D03*
X115697000Y-43815000D03*
X115697000Y-42715000D03*
%TD*%
%TO.C,D103*%
X122391000Y-99970000D03*
X122391000Y-101070000D03*
X120561000Y-101070000D03*
X120561000Y-99970000D03*
%TD*%
%TO.C,D102*%
X226937000Y-80832000D03*
X226937000Y-81932000D03*
X225107000Y-81932000D03*
X225107000Y-80832000D03*
%TD*%
%TO.C,D101*%
X241453000Y-61793000D03*
X241453000Y-62893000D03*
X239623000Y-62893000D03*
X239623000Y-61793000D03*
%TD*%
%TO.C,D100*%
X98477000Y-42715000D03*
X98477000Y-43815000D03*
X96647000Y-43815000D03*
X96647000Y-42715000D03*
%TD*%
%TO.C,D99*%
X298476000Y-42757000D03*
X298476000Y-43857000D03*
X296646000Y-43857000D03*
X296646000Y-42757000D03*
%TD*%
%TO.C,D98*%
X141441000Y-99970000D03*
X141441000Y-101070000D03*
X139611000Y-101070000D03*
X139611000Y-99970000D03*
%TD*%
%TO.C,D97*%
X207837000Y-80882000D03*
X207837000Y-81982000D03*
X206007000Y-81982000D03*
X206007000Y-80882000D03*
%TD*%
%TO.C,D96*%
X260503000Y-61768000D03*
X260503000Y-62868000D03*
X258673000Y-62868000D03*
X258673000Y-61768000D03*
%TD*%
%TO.C,D95*%
X79427000Y-42715000D03*
X79427000Y-43815000D03*
X77597000Y-43815000D03*
X77597000Y-42715000D03*
%TD*%
%TO.C,D94*%
X398070000Y-118534000D03*
X398070000Y-119634000D03*
X396240000Y-119634000D03*
X396240000Y-118534000D03*
%TD*%
%TO.C,D93*%
X160465000Y-99970000D03*
X160465000Y-101070000D03*
X158635000Y-101070000D03*
X158635000Y-99970000D03*
%TD*%
%TO.C,D92*%
X188811000Y-80868000D03*
X188811000Y-81968000D03*
X186981000Y-81968000D03*
X186981000Y-80868000D03*
%TD*%
%TO.C,D91*%
X279553000Y-61793000D03*
X279553000Y-62893000D03*
X277723000Y-62893000D03*
X277723000Y-61793000D03*
%TD*%
%TO.C,D90*%
X60414500Y-42693500D03*
X60414500Y-43793500D03*
X58584500Y-43793500D03*
X58584500Y-42693500D03*
%TD*%
%TO.C,D89*%
X379020000Y-118534000D03*
X379020000Y-119634000D03*
X377190000Y-119634000D03*
X377190000Y-118534000D03*
%TD*%
%TO.C,D88*%
X179541000Y-99970000D03*
X179541000Y-101070000D03*
X177711000Y-101070000D03*
X177711000Y-99970000D03*
%TD*%
%TO.C,D87*%
X169787000Y-80882000D03*
X169787000Y-81982000D03*
X167957000Y-81982000D03*
X167957000Y-80882000D03*
%TD*%
%TO.C,D86*%
X303276000Y-61849000D03*
X303276000Y-62949000D03*
X301446000Y-62949000D03*
X301446000Y-61849000D03*
%TD*%
%TO.C,D85*%
X41200000Y-42715000D03*
X41200000Y-43815000D03*
X39370000Y-43815000D03*
X39370000Y-42715000D03*
%TD*%
%TO.C,C90*%
G36*
G01*
X324317250Y-97659900D02*
X323404750Y-97659900D01*
G75*
G02*
X323161000Y-97416150I0J243750D01*
G01*
X323161000Y-96928650D01*
G75*
G02*
X323404750Y-96684900I243750J0D01*
G01*
X324317250Y-96684900D01*
G75*
G02*
X324561000Y-96928650I0J-243750D01*
G01*
X324561000Y-97416150D01*
G75*
G02*
X324317250Y-97659900I-243750J0D01*
G01*
G37*
G36*
G01*
X324317250Y-99534900D02*
X323404750Y-99534900D01*
G75*
G02*
X323161000Y-99291150I0J243750D01*
G01*
X323161000Y-98803650D01*
G75*
G02*
X323404750Y-98559900I243750J0D01*
G01*
X324317250Y-98559900D01*
G75*
G02*
X324561000Y-98803650I0J-243750D01*
G01*
X324561000Y-99291150D01*
G75*
G02*
X324317250Y-99534900I-243750J0D01*
G01*
G37*
%TD*%
%TO.C,R3*%
G36*
G01*
X323434750Y-77264700D02*
X324347250Y-77264700D01*
G75*
G02*
X324591000Y-77508450I0J-243750D01*
G01*
X324591000Y-77995950D01*
G75*
G02*
X324347250Y-78239700I-243750J0D01*
G01*
X323434750Y-78239700D01*
G75*
G02*
X323191000Y-77995950I0J243750D01*
G01*
X323191000Y-77508450D01*
G75*
G02*
X323434750Y-77264700I243750J0D01*
G01*
G37*
G36*
G01*
X323434750Y-75389700D02*
X324347250Y-75389700D01*
G75*
G02*
X324591000Y-75633450I0J-243750D01*
G01*
X324591000Y-76120950D01*
G75*
G02*
X324347250Y-76364700I-243750J0D01*
G01*
X323434750Y-76364700D01*
G75*
G02*
X323191000Y-76120950I0J243750D01*
G01*
X323191000Y-75633450D01*
G75*
G02*
X323434750Y-75389700I243750J0D01*
G01*
G37*
%TD*%
%TO.C,R2*%
G36*
G01*
X323434750Y-73752100D02*
X324347250Y-73752100D01*
G75*
G02*
X324591000Y-73995850I0J-243750D01*
G01*
X324591000Y-74483350D01*
G75*
G02*
X324347250Y-74727100I-243750J0D01*
G01*
X323434750Y-74727100D01*
G75*
G02*
X323191000Y-74483350I0J243750D01*
G01*
X323191000Y-73995850D01*
G75*
G02*
X323434750Y-73752100I243750J0D01*
G01*
G37*
G36*
G01*
X323434750Y-71877100D02*
X324347250Y-71877100D01*
G75*
G02*
X324591000Y-72120850I0J-243750D01*
G01*
X324591000Y-72608350D01*
G75*
G02*
X324347250Y-72852100I-243750J0D01*
G01*
X323434750Y-72852100D01*
G75*
G02*
X323191000Y-72608350I0J243750D01*
G01*
X323191000Y-72120850D01*
G75*
G02*
X323434750Y-71877100I243750J0D01*
G01*
G37*
%TD*%
%TO.C,C92*%
G36*
G01*
X323404750Y-84349800D02*
X324317250Y-84349800D01*
G75*
G02*
X324561000Y-84593550I0J-243750D01*
G01*
X324561000Y-85081050D01*
G75*
G02*
X324317250Y-85324800I-243750J0D01*
G01*
X323404750Y-85324800D01*
G75*
G02*
X323161000Y-85081050I0J243750D01*
G01*
X323161000Y-84593550D01*
G75*
G02*
X323404750Y-84349800I243750J0D01*
G01*
G37*
G36*
G01*
X323404750Y-82474800D02*
X324317250Y-82474800D01*
G75*
G02*
X324561000Y-82718550I0J-243750D01*
G01*
X324561000Y-83206050D01*
G75*
G02*
X324317250Y-83449800I-243750J0D01*
G01*
X323404750Y-83449800D01*
G75*
G02*
X323161000Y-83206050I0J243750D01*
G01*
X323161000Y-82718550D01*
G75*
G02*
X323404750Y-82474800I243750J0D01*
G01*
G37*
%TD*%
%TO.C,C91*%
G36*
G01*
X323404750Y-95007400D02*
X324317250Y-95007400D01*
G75*
G02*
X324561000Y-95251150I0J-243750D01*
G01*
X324561000Y-95738650D01*
G75*
G02*
X324317250Y-95982400I-243750J0D01*
G01*
X323404750Y-95982400D01*
G75*
G02*
X323161000Y-95738650I0J243750D01*
G01*
X323161000Y-95251150D01*
G75*
G02*
X323404750Y-95007400I243750J0D01*
G01*
G37*
G36*
G01*
X323404750Y-93132400D02*
X324317250Y-93132400D01*
G75*
G02*
X324561000Y-93376150I0J-243750D01*
G01*
X324561000Y-93863650D01*
G75*
G02*
X324317250Y-94107400I-243750J0D01*
G01*
X323404750Y-94107400D01*
G75*
G02*
X323161000Y-93863650I0J243750D01*
G01*
X323161000Y-93376150D01*
G75*
G02*
X323404750Y-93132400I243750J0D01*
G01*
G37*
%TD*%
%TO.C,C89*%
G36*
G01*
X323404750Y-87902300D02*
X324317250Y-87902300D01*
G75*
G02*
X324561000Y-88146050I0J-243750D01*
G01*
X324561000Y-88633550D01*
G75*
G02*
X324317250Y-88877300I-243750J0D01*
G01*
X323404750Y-88877300D01*
G75*
G02*
X323161000Y-88633550I0J243750D01*
G01*
X323161000Y-88146050D01*
G75*
G02*
X323404750Y-87902300I243750J0D01*
G01*
G37*
G36*
G01*
X323404750Y-86027300D02*
X324317250Y-86027300D01*
G75*
G02*
X324561000Y-86271050I0J-243750D01*
G01*
X324561000Y-86758550D01*
G75*
G02*
X324317250Y-87002300I-243750J0D01*
G01*
X323404750Y-87002300D01*
G75*
G02*
X323161000Y-86758550I0J243750D01*
G01*
X323161000Y-86271050D01*
G75*
G02*
X323404750Y-86027300I243750J0D01*
G01*
G37*
%TD*%
%TO.C,C88*%
G36*
G01*
X323404750Y-91454900D02*
X324317250Y-91454900D01*
G75*
G02*
X324561000Y-91698650I0J-243750D01*
G01*
X324561000Y-92186150D01*
G75*
G02*
X324317250Y-92429900I-243750J0D01*
G01*
X323404750Y-92429900D01*
G75*
G02*
X323161000Y-92186150I0J243750D01*
G01*
X323161000Y-91698650D01*
G75*
G02*
X323404750Y-91454900I243750J0D01*
G01*
G37*
G36*
G01*
X323404750Y-89579900D02*
X324317250Y-89579900D01*
G75*
G02*
X324561000Y-89823650I0J-243750D01*
G01*
X324561000Y-90311150D01*
G75*
G02*
X324317250Y-90554900I-243750J0D01*
G01*
X323404750Y-90554900D01*
G75*
G02*
X323161000Y-90311150I0J243750D01*
G01*
X323161000Y-89823650D01*
G75*
G02*
X323404750Y-89579900I243750J0D01*
G01*
G37*
%TD*%
%TO.C,C87*%
G36*
G01*
X323404750Y-80797200D02*
X324317250Y-80797200D01*
G75*
G02*
X324561000Y-81040950I0J-243750D01*
G01*
X324561000Y-81528450D01*
G75*
G02*
X324317250Y-81772200I-243750J0D01*
G01*
X323404750Y-81772200D01*
G75*
G02*
X323161000Y-81528450I0J243750D01*
G01*
X323161000Y-81040950D01*
G75*
G02*
X323404750Y-80797200I243750J0D01*
G01*
G37*
G36*
G01*
X323404750Y-78922200D02*
X324317250Y-78922200D01*
G75*
G02*
X324561000Y-79165950I0J-243750D01*
G01*
X324561000Y-79653450D01*
G75*
G02*
X324317250Y-79897200I-243750J0D01*
G01*
X323404750Y-79897200D01*
G75*
G02*
X323161000Y-79653450I0J243750D01*
G01*
X323161000Y-79165950D01*
G75*
G02*
X323404750Y-78922200I243750J0D01*
G01*
G37*
%TD*%
%TO.C,C86*%
G36*
G01*
X323404750Y-105665000D02*
X324317250Y-105665000D01*
G75*
G02*
X324561000Y-105908750I0J-243750D01*
G01*
X324561000Y-106396250D01*
G75*
G02*
X324317250Y-106640000I-243750J0D01*
G01*
X323404750Y-106640000D01*
G75*
G02*
X323161000Y-106396250I0J243750D01*
G01*
X323161000Y-105908750D01*
G75*
G02*
X323404750Y-105665000I243750J0D01*
G01*
G37*
G36*
G01*
X323404750Y-103790000D02*
X324317250Y-103790000D01*
G75*
G02*
X324561000Y-104033750I0J-243750D01*
G01*
X324561000Y-104521250D01*
G75*
G02*
X324317250Y-104765000I-243750J0D01*
G01*
X323404750Y-104765000D01*
G75*
G02*
X323161000Y-104521250I0J243750D01*
G01*
X323161000Y-104033750D01*
G75*
G02*
X323404750Y-103790000I243750J0D01*
G01*
G37*
%TD*%
%TO.C,C85*%
G36*
G01*
X323404750Y-102113000D02*
X324317250Y-102113000D01*
G75*
G02*
X324561000Y-102356750I0J-243750D01*
G01*
X324561000Y-102844250D01*
G75*
G02*
X324317250Y-103088000I-243750J0D01*
G01*
X323404750Y-103088000D01*
G75*
G02*
X323161000Y-102844250I0J243750D01*
G01*
X323161000Y-102356750D01*
G75*
G02*
X323404750Y-102113000I243750J0D01*
G01*
G37*
G36*
G01*
X323404750Y-100238000D02*
X324317250Y-100238000D01*
G75*
G02*
X324561000Y-100481750I0J-243750D01*
G01*
X324561000Y-100969250D01*
G75*
G02*
X324317250Y-101213000I-243750J0D01*
G01*
X323404750Y-101213000D01*
G75*
G02*
X323161000Y-100969250I0J243750D01*
G01*
X323161000Y-100481750D01*
G75*
G02*
X323404750Y-100238000I243750J0D01*
G01*
G37*
%TD*%
%TO.C,R4*%
G36*
G01*
X324346000Y-68414600D02*
X323096000Y-68414600D01*
G75*
G02*
X322846000Y-68164600I0J250000D01*
G01*
X322846000Y-67414600D01*
G75*
G02*
X323096000Y-67164600I250000J0D01*
G01*
X324346000Y-67164600D01*
G75*
G02*
X324596000Y-67414600I0J-250000D01*
G01*
X324596000Y-68164600D01*
G75*
G02*
X324346000Y-68414600I-250000J0D01*
G01*
G37*
G36*
G01*
X324346000Y-71214600D02*
X323096000Y-71214600D01*
G75*
G02*
X322846000Y-70964600I0J250000D01*
G01*
X322846000Y-70214600D01*
G75*
G02*
X323096000Y-69964600I250000J0D01*
G01*
X324346000Y-69964600D01*
G75*
G02*
X324596000Y-70214600I0J-250000D01*
G01*
X324596000Y-70964600D01*
G75*
G02*
X324346000Y-71214600I-250000J0D01*
G01*
G37*
%TD*%
%TO.C,R1*%
G36*
G01*
X324346000Y-108573000D02*
X323096000Y-108573000D01*
G75*
G02*
X322846000Y-108323000I0J250000D01*
G01*
X322846000Y-107573000D01*
G75*
G02*
X323096000Y-107323000I250000J0D01*
G01*
X324346000Y-107323000D01*
G75*
G02*
X324596000Y-107573000I0J-250000D01*
G01*
X324596000Y-108323000D01*
G75*
G02*
X324346000Y-108573000I-250000J0D01*
G01*
G37*
G36*
G01*
X324346000Y-111373000D02*
X323096000Y-111373000D01*
G75*
G02*
X322846000Y-111123000I0J250000D01*
G01*
X322846000Y-110373000D01*
G75*
G02*
X323096000Y-110123000I250000J0D01*
G01*
X324346000Y-110123000D01*
G75*
G02*
X324596000Y-110373000I0J-250000D01*
G01*
X324596000Y-111123000D01*
G75*
G02*
X324346000Y-111373000I-250000J0D01*
G01*
G37*
%TD*%
D16*
%TO.C,U1*%
X319035000Y-37531000D03*
X319835000Y-37531000D03*
X320635000Y-37531000D03*
X321435000Y-37531000D03*
X322235000Y-37531000D03*
X323035000Y-37531000D03*
X323835000Y-37531000D03*
X324635000Y-37531000D03*
X325435000Y-37531000D03*
X326235000Y-37531000D03*
X327035000Y-37531000D03*
D17*
X328735000Y-39231000D03*
X328735000Y-40031000D03*
X328735000Y-40831000D03*
X328735000Y-41631000D03*
X328735000Y-42431000D03*
X328735000Y-43231000D03*
X328735000Y-44031000D03*
X328735000Y-44831000D03*
X328735000Y-45631000D03*
X328735000Y-46431000D03*
X328735000Y-47231000D03*
D16*
X327035000Y-48931000D03*
X326235000Y-48931000D03*
X325435000Y-48931000D03*
X324635000Y-48931000D03*
X323835000Y-48931000D03*
X323035000Y-48931000D03*
X322235000Y-48931000D03*
X321435000Y-48931000D03*
X320635000Y-48931000D03*
X319835000Y-48931000D03*
X319035000Y-48931000D03*
D17*
X317335000Y-47231000D03*
X317335000Y-46431000D03*
X317335000Y-45631000D03*
X317335000Y-44831000D03*
X317335000Y-44031000D03*
X317335000Y-43231000D03*
X317335000Y-42431000D03*
X317335000Y-41631000D03*
X317335000Y-40831000D03*
X317335000Y-40031000D03*
X317335000Y-39231000D03*
%TD*%
%TO.C,C3*%
G36*
G01*
X323298000Y-114582500D02*
X323298000Y-114237500D01*
G75*
G02*
X323445500Y-114090000I147500J0D01*
G01*
X323740500Y-114090000D01*
G75*
G02*
X323888000Y-114237500I0J-147500D01*
G01*
X323888000Y-114582500D01*
G75*
G02*
X323740500Y-114730000I-147500J0D01*
G01*
X323445500Y-114730000D01*
G75*
G02*
X323298000Y-114582500I0J147500D01*
G01*
G37*
G36*
G01*
X322328000Y-114582500D02*
X322328000Y-114237500D01*
G75*
G02*
X322475500Y-114090000I147500J0D01*
G01*
X322770500Y-114090000D01*
G75*
G02*
X322918000Y-114237500I0J-147500D01*
G01*
X322918000Y-114582500D01*
G75*
G02*
X322770500Y-114730000I-147500J0D01*
G01*
X322475500Y-114730000D01*
G75*
G02*
X322328000Y-114582500I0J147500D01*
G01*
G37*
%TD*%
%TO.C,C5*%
G36*
G01*
X326935000Y-56272800D02*
X326935000Y-55927800D01*
G75*
G02*
X327082500Y-55780300I147500J0D01*
G01*
X327377500Y-55780300D01*
G75*
G02*
X327525000Y-55927800I0J-147500D01*
G01*
X327525000Y-56272800D01*
G75*
G02*
X327377500Y-56420300I-147500J0D01*
G01*
X327082500Y-56420300D01*
G75*
G02*
X326935000Y-56272800I0J147500D01*
G01*
G37*
G36*
G01*
X325965000Y-56272800D02*
X325965000Y-55927800D01*
G75*
G02*
X326112500Y-55780300I147500J0D01*
G01*
X326407500Y-55780300D01*
G75*
G02*
X326555000Y-55927800I0J-147500D01*
G01*
X326555000Y-56272800D01*
G75*
G02*
X326407500Y-56420300I-147500J0D01*
G01*
X326112500Y-56420300D01*
G75*
G02*
X325965000Y-56272800I0J147500D01*
G01*
G37*
%TD*%
%TO.C,C6*%
G36*
G01*
X326935000Y-71268000D02*
X326935000Y-70923000D01*
G75*
G02*
X327082500Y-70775500I147500J0D01*
G01*
X327377500Y-70775500D01*
G75*
G02*
X327525000Y-70923000I0J-147500D01*
G01*
X327525000Y-71268000D01*
G75*
G02*
X327377500Y-71415500I-147500J0D01*
G01*
X327082500Y-71415500D01*
G75*
G02*
X326935000Y-71268000I0J147500D01*
G01*
G37*
G36*
G01*
X325965000Y-71268000D02*
X325965000Y-70923000D01*
G75*
G02*
X326112500Y-70775500I147500J0D01*
G01*
X326407500Y-70775500D01*
G75*
G02*
X326555000Y-70923000I0J-147500D01*
G01*
X326555000Y-71268000D01*
G75*
G02*
X326407500Y-71415500I-147500J0D01*
G01*
X326112500Y-71415500D01*
G75*
G02*
X325965000Y-71268000I0J147500D01*
G01*
G37*
%TD*%
%TO.C,C8*%
G36*
G01*
X326935000Y-58415000D02*
X326935000Y-58070000D01*
G75*
G02*
X327082500Y-57922500I147500J0D01*
G01*
X327377500Y-57922500D01*
G75*
G02*
X327525000Y-58070000I0J-147500D01*
G01*
X327525000Y-58415000D01*
G75*
G02*
X327377500Y-58562500I-147500J0D01*
G01*
X327082500Y-58562500D01*
G75*
G02*
X326935000Y-58415000I0J147500D01*
G01*
G37*
G36*
G01*
X325965000Y-58415000D02*
X325965000Y-58070000D01*
G75*
G02*
X326112500Y-57922500I147500J0D01*
G01*
X326407500Y-57922500D01*
G75*
G02*
X326555000Y-58070000I0J-147500D01*
G01*
X326555000Y-58415000D01*
G75*
G02*
X326407500Y-58562500I-147500J0D01*
G01*
X326112500Y-58562500D01*
G75*
G02*
X325965000Y-58415000I0J147500D01*
G01*
G37*
%TD*%
%TO.C,C9*%
G36*
G01*
X326935000Y-77694500D02*
X326935000Y-77349500D01*
G75*
G02*
X327082500Y-77202000I147500J0D01*
G01*
X327377500Y-77202000D01*
G75*
G02*
X327525000Y-77349500I0J-147500D01*
G01*
X327525000Y-77694500D01*
G75*
G02*
X327377500Y-77842000I-147500J0D01*
G01*
X327082500Y-77842000D01*
G75*
G02*
X326935000Y-77694500I0J147500D01*
G01*
G37*
G36*
G01*
X325965000Y-77694500D02*
X325965000Y-77349500D01*
G75*
G02*
X326112500Y-77202000I147500J0D01*
G01*
X326407500Y-77202000D01*
G75*
G02*
X326555000Y-77349500I0J-147500D01*
G01*
X326555000Y-77694500D01*
G75*
G02*
X326407500Y-77842000I-147500J0D01*
G01*
X326112500Y-77842000D01*
G75*
G02*
X325965000Y-77694500I0J147500D01*
G01*
G37*
%TD*%
%TO.C,C11*%
G36*
G01*
X326935000Y-80907800D02*
X326935000Y-80562800D01*
G75*
G02*
X327082500Y-80415300I147500J0D01*
G01*
X327377500Y-80415300D01*
G75*
G02*
X327525000Y-80562800I0J-147500D01*
G01*
X327525000Y-80907800D01*
G75*
G02*
X327377500Y-81055300I-147500J0D01*
G01*
X327082500Y-81055300D01*
G75*
G02*
X326935000Y-80907800I0J147500D01*
G01*
G37*
G36*
G01*
X325965000Y-80907800D02*
X325965000Y-80562800D01*
G75*
G02*
X326112500Y-80415300I147500J0D01*
G01*
X326407500Y-80415300D01*
G75*
G02*
X326555000Y-80562800I0J-147500D01*
G01*
X326555000Y-80907800D01*
G75*
G02*
X326407500Y-81055300I-147500J0D01*
G01*
X326112500Y-81055300D01*
G75*
G02*
X325965000Y-80907800I0J147500D01*
G01*
G37*
%TD*%
%TO.C,C13*%
G36*
G01*
X326935000Y-84121000D02*
X326935000Y-83776000D01*
G75*
G02*
X327082500Y-83628500I147500J0D01*
G01*
X327377500Y-83628500D01*
G75*
G02*
X327525000Y-83776000I0J-147500D01*
G01*
X327525000Y-84121000D01*
G75*
G02*
X327377500Y-84268500I-147500J0D01*
G01*
X327082500Y-84268500D01*
G75*
G02*
X326935000Y-84121000I0J147500D01*
G01*
G37*
G36*
G01*
X325965000Y-84121000D02*
X325965000Y-83776000D01*
G75*
G02*
X326112500Y-83628500I147500J0D01*
G01*
X326407500Y-83628500D01*
G75*
G02*
X326555000Y-83776000I0J-147500D01*
G01*
X326555000Y-84121000D01*
G75*
G02*
X326407500Y-84268500I-147500J0D01*
G01*
X326112500Y-84268500D01*
G75*
G02*
X325965000Y-84121000I0J147500D01*
G01*
G37*
%TD*%
%TO.C,C16*%
G36*
G01*
X326935000Y-93760800D02*
X326935000Y-93415800D01*
G75*
G02*
X327082500Y-93268300I147500J0D01*
G01*
X327377500Y-93268300D01*
G75*
G02*
X327525000Y-93415800I0J-147500D01*
G01*
X327525000Y-93760800D01*
G75*
G02*
X327377500Y-93908300I-147500J0D01*
G01*
X327082500Y-93908300D01*
G75*
G02*
X326935000Y-93760800I0J147500D01*
G01*
G37*
G36*
G01*
X325965000Y-93760800D02*
X325965000Y-93415800D01*
G75*
G02*
X326112500Y-93268300I147500J0D01*
G01*
X326407500Y-93268300D01*
G75*
G02*
X326555000Y-93415800I0J-147500D01*
G01*
X326555000Y-93760800D01*
G75*
G02*
X326407500Y-93908300I-147500J0D01*
G01*
X326112500Y-93908300D01*
G75*
G02*
X325965000Y-93760800I0J147500D01*
G01*
G37*
%TD*%
%TO.C,C17*%
G36*
G01*
X326935000Y-62699300D02*
X326935000Y-62354300D01*
G75*
G02*
X327082500Y-62206800I147500J0D01*
G01*
X327377500Y-62206800D01*
G75*
G02*
X327525000Y-62354300I0J-147500D01*
G01*
X327525000Y-62699300D01*
G75*
G02*
X327377500Y-62846800I-147500J0D01*
G01*
X327082500Y-62846800D01*
G75*
G02*
X326935000Y-62699300I0J147500D01*
G01*
G37*
G36*
G01*
X325965000Y-62699300D02*
X325965000Y-62354300D01*
G75*
G02*
X326112500Y-62206800I147500J0D01*
G01*
X326407500Y-62206800D01*
G75*
G02*
X326555000Y-62354300I0J-147500D01*
G01*
X326555000Y-62699300D01*
G75*
G02*
X326407500Y-62846800I-147500J0D01*
G01*
X326112500Y-62846800D01*
G75*
G02*
X325965000Y-62699300I0J147500D01*
G01*
G37*
%TD*%
%TO.C,C18*%
G36*
G01*
X326935000Y-90547500D02*
X326935000Y-90202500D01*
G75*
G02*
X327082500Y-90055000I147500J0D01*
G01*
X327377500Y-90055000D01*
G75*
G02*
X327525000Y-90202500I0J-147500D01*
G01*
X327525000Y-90547500D01*
G75*
G02*
X327377500Y-90695000I-147500J0D01*
G01*
X327082500Y-90695000D01*
G75*
G02*
X326935000Y-90547500I0J147500D01*
G01*
G37*
G36*
G01*
X325965000Y-90547500D02*
X325965000Y-90202500D01*
G75*
G02*
X326112500Y-90055000I147500J0D01*
G01*
X326407500Y-90055000D01*
G75*
G02*
X326555000Y-90202500I0J-147500D01*
G01*
X326555000Y-90547500D01*
G75*
G02*
X326407500Y-90695000I-147500J0D01*
G01*
X326112500Y-90695000D01*
G75*
G02*
X325965000Y-90547500I0J147500D01*
G01*
G37*
%TD*%
%TO.C,C21*%
G36*
G01*
X326935000Y-100187500D02*
X326935000Y-99842500D01*
G75*
G02*
X327082500Y-99695000I147500J0D01*
G01*
X327377500Y-99695000D01*
G75*
G02*
X327525000Y-99842500I0J-147500D01*
G01*
X327525000Y-100187500D01*
G75*
G02*
X327377500Y-100335000I-147500J0D01*
G01*
X327082500Y-100335000D01*
G75*
G02*
X326935000Y-100187500I0J147500D01*
G01*
G37*
G36*
G01*
X325965000Y-100187500D02*
X325965000Y-99842500D01*
G75*
G02*
X326112500Y-99695000I147500J0D01*
G01*
X326407500Y-99695000D01*
G75*
G02*
X326555000Y-99842500I0J-147500D01*
G01*
X326555000Y-100187500D01*
G75*
G02*
X326407500Y-100335000I-147500J0D01*
G01*
X326112500Y-100335000D01*
G75*
G02*
X325965000Y-100187500I0J147500D01*
G01*
G37*
%TD*%
%TO.C,C23*%
G36*
G01*
X320123000Y-113430500D02*
X320123000Y-113085500D01*
G75*
G02*
X320270500Y-112938000I147500J0D01*
G01*
X320565500Y-112938000D01*
G75*
G02*
X320713000Y-113085500I0J-147500D01*
G01*
X320713000Y-113430500D01*
G75*
G02*
X320565500Y-113578000I-147500J0D01*
G01*
X320270500Y-113578000D01*
G75*
G02*
X320123000Y-113430500I0J147500D01*
G01*
G37*
G36*
G01*
X319153000Y-113430500D02*
X319153000Y-113085500D01*
G75*
G02*
X319300500Y-112938000I147500J0D01*
G01*
X319595500Y-112938000D01*
G75*
G02*
X319743000Y-113085500I0J-147500D01*
G01*
X319743000Y-113430500D01*
G75*
G02*
X319595500Y-113578000I-147500J0D01*
G01*
X319300500Y-113578000D01*
G75*
G02*
X319153000Y-113430500I0J147500D01*
G01*
G37*
%TD*%
%TO.C,C25*%
G36*
G01*
X326935000Y-96974000D02*
X326935000Y-96629000D01*
G75*
G02*
X327082500Y-96481500I147500J0D01*
G01*
X327377500Y-96481500D01*
G75*
G02*
X327525000Y-96629000I0J-147500D01*
G01*
X327525000Y-96974000D01*
G75*
G02*
X327377500Y-97121500I-147500J0D01*
G01*
X327082500Y-97121500D01*
G75*
G02*
X326935000Y-96974000I0J147500D01*
G01*
G37*
G36*
G01*
X325965000Y-96974000D02*
X325965000Y-96629000D01*
G75*
G02*
X326112500Y-96481500I147500J0D01*
G01*
X326407500Y-96481500D01*
G75*
G02*
X326555000Y-96629000I0J-147500D01*
G01*
X326555000Y-96974000D01*
G75*
G02*
X326407500Y-97121500I-147500J0D01*
G01*
X326112500Y-97121500D01*
G75*
G02*
X325965000Y-96974000I0J147500D01*
G01*
G37*
%TD*%
%TO.C,C27*%
G36*
G01*
X326935000Y-113040500D02*
X326935000Y-112695500D01*
G75*
G02*
X327082500Y-112548000I147500J0D01*
G01*
X327377500Y-112548000D01*
G75*
G02*
X327525000Y-112695500I0J-147500D01*
G01*
X327525000Y-113040500D01*
G75*
G02*
X327377500Y-113188000I-147500J0D01*
G01*
X327082500Y-113188000D01*
G75*
G02*
X326935000Y-113040500I0J147500D01*
G01*
G37*
G36*
G01*
X325965000Y-113040500D02*
X325965000Y-112695500D01*
G75*
G02*
X326112500Y-112548000I147500J0D01*
G01*
X326407500Y-112548000D01*
G75*
G02*
X326555000Y-112695500I0J-147500D01*
G01*
X326555000Y-113040500D01*
G75*
G02*
X326407500Y-113188000I-147500J0D01*
G01*
X326112500Y-113188000D01*
G75*
G02*
X325965000Y-113040500I0J147500D01*
G01*
G37*
%TD*%
%TO.C,C28*%
G36*
G01*
X326935000Y-74481300D02*
X326935000Y-74136300D01*
G75*
G02*
X327082500Y-73988800I147500J0D01*
G01*
X327377500Y-73988800D01*
G75*
G02*
X327525000Y-74136300I0J-147500D01*
G01*
X327525000Y-74481300D01*
G75*
G02*
X327377500Y-74628800I-147500J0D01*
G01*
X327082500Y-74628800D01*
G75*
G02*
X326935000Y-74481300I0J147500D01*
G01*
G37*
G36*
G01*
X325965000Y-74481300D02*
X325965000Y-74136300D01*
G75*
G02*
X326112500Y-73988800I147500J0D01*
G01*
X326407500Y-73988800D01*
G75*
G02*
X326555000Y-74136300I0J-147500D01*
G01*
X326555000Y-74481300D01*
G75*
G02*
X326407500Y-74628800I-147500J0D01*
G01*
X326112500Y-74628800D01*
G75*
G02*
X325965000Y-74481300I0J147500D01*
G01*
G37*
%TD*%
%TO.C,C29*%
G36*
G01*
X323760000Y-58333900D02*
X323760000Y-57988900D01*
G75*
G02*
X323907500Y-57841400I147500J0D01*
G01*
X324202500Y-57841400D01*
G75*
G02*
X324350000Y-57988900I0J-147500D01*
G01*
X324350000Y-58333900D01*
G75*
G02*
X324202500Y-58481400I-147500J0D01*
G01*
X323907500Y-58481400D01*
G75*
G02*
X323760000Y-58333900I0J147500D01*
G01*
G37*
G36*
G01*
X322790000Y-58333900D02*
X322790000Y-57988900D01*
G75*
G02*
X322937500Y-57841400I147500J0D01*
G01*
X323232500Y-57841400D01*
G75*
G02*
X323380000Y-57988900I0J-147500D01*
G01*
X323380000Y-58333900D01*
G75*
G02*
X323232500Y-58481400I-147500J0D01*
G01*
X322937500Y-58481400D01*
G75*
G02*
X322790000Y-58333900I0J147500D01*
G01*
G37*
%TD*%
%TO.C,C30*%
G36*
G01*
X326935000Y-103400500D02*
X326935000Y-103055500D01*
G75*
G02*
X327082500Y-102908000I147500J0D01*
G01*
X327377500Y-102908000D01*
G75*
G02*
X327525000Y-103055500I0J-147500D01*
G01*
X327525000Y-103400500D01*
G75*
G02*
X327377500Y-103548000I-147500J0D01*
G01*
X327082500Y-103548000D01*
G75*
G02*
X326935000Y-103400500I0J147500D01*
G01*
G37*
G36*
G01*
X325965000Y-103400500D02*
X325965000Y-103055500D01*
G75*
G02*
X326112500Y-102908000I147500J0D01*
G01*
X326407500Y-102908000D01*
G75*
G02*
X326555000Y-103055500I0J-147500D01*
G01*
X326555000Y-103400500D01*
G75*
G02*
X326407500Y-103548000I-147500J0D01*
G01*
X326112500Y-103548000D01*
G75*
G02*
X325965000Y-103400500I0J147500D01*
G01*
G37*
%TD*%
%TO.C,C32*%
G36*
G01*
X326935000Y-60557200D02*
X326935000Y-60212200D01*
G75*
G02*
X327082500Y-60064700I147500J0D01*
G01*
X327377500Y-60064700D01*
G75*
G02*
X327525000Y-60212200I0J-147500D01*
G01*
X327525000Y-60557200D01*
G75*
G02*
X327377500Y-60704700I-147500J0D01*
G01*
X327082500Y-60704700D01*
G75*
G02*
X326935000Y-60557200I0J147500D01*
G01*
G37*
G36*
G01*
X325965000Y-60557200D02*
X325965000Y-60212200D01*
G75*
G02*
X326112500Y-60064700I147500J0D01*
G01*
X326407500Y-60064700D01*
G75*
G02*
X326555000Y-60212200I0J-147500D01*
G01*
X326555000Y-60557200D01*
G75*
G02*
X326407500Y-60704700I-147500J0D01*
G01*
X326112500Y-60704700D01*
G75*
G02*
X325965000Y-60557200I0J147500D01*
G01*
G37*
%TD*%
%TO.C,C33*%
G36*
G01*
X326935000Y-68054800D02*
X326935000Y-67709800D01*
G75*
G02*
X327082500Y-67562300I147500J0D01*
G01*
X327377500Y-67562300D01*
G75*
G02*
X327525000Y-67709800I0J-147500D01*
G01*
X327525000Y-68054800D01*
G75*
G02*
X327377500Y-68202300I-147500J0D01*
G01*
X327082500Y-68202300D01*
G75*
G02*
X326935000Y-68054800I0J147500D01*
G01*
G37*
G36*
G01*
X325965000Y-68054800D02*
X325965000Y-67709800D01*
G75*
G02*
X326112500Y-67562300I147500J0D01*
G01*
X326407500Y-67562300D01*
G75*
G02*
X326555000Y-67709800I0J-147500D01*
G01*
X326555000Y-68054800D01*
G75*
G02*
X326407500Y-68202300I-147500J0D01*
G01*
X326112500Y-68202300D01*
G75*
G02*
X325965000Y-68054800I0J147500D01*
G01*
G37*
%TD*%
%TO.C,C35*%
G36*
G01*
X320108000Y-112420500D02*
X320108000Y-112075500D01*
G75*
G02*
X320255500Y-111928000I147500J0D01*
G01*
X320550500Y-111928000D01*
G75*
G02*
X320698000Y-112075500I0J-147500D01*
G01*
X320698000Y-112420500D01*
G75*
G02*
X320550500Y-112568000I-147500J0D01*
G01*
X320255500Y-112568000D01*
G75*
G02*
X320108000Y-112420500I0J147500D01*
G01*
G37*
G36*
G01*
X319138000Y-112420500D02*
X319138000Y-112075500D01*
G75*
G02*
X319285500Y-111928000I147500J0D01*
G01*
X319580500Y-111928000D01*
G75*
G02*
X319728000Y-112075500I0J-147500D01*
G01*
X319728000Y-112420500D01*
G75*
G02*
X319580500Y-112568000I-147500J0D01*
G01*
X319285500Y-112568000D01*
G75*
G02*
X319138000Y-112420500I0J147500D01*
G01*
G37*
%TD*%
%TO.C,C36*%
G36*
G01*
X323760000Y-64760400D02*
X323760000Y-64415400D01*
G75*
G02*
X323907500Y-64267900I147500J0D01*
G01*
X324202500Y-64267900D01*
G75*
G02*
X324350000Y-64415400I0J-147500D01*
G01*
X324350000Y-64760400D01*
G75*
G02*
X324202500Y-64907900I-147500J0D01*
G01*
X323907500Y-64907900D01*
G75*
G02*
X323760000Y-64760400I0J147500D01*
G01*
G37*
G36*
G01*
X322790000Y-64760400D02*
X322790000Y-64415400D01*
G75*
G02*
X322937500Y-64267900I147500J0D01*
G01*
X323232500Y-64267900D01*
G75*
G02*
X323380000Y-64415400I0J-147500D01*
G01*
X323380000Y-64760400D01*
G75*
G02*
X323232500Y-64907900I-147500J0D01*
G01*
X322937500Y-64907900D01*
G75*
G02*
X322790000Y-64760400I0J147500D01*
G01*
G37*
%TD*%
%TO.C,C37*%
G36*
G01*
X326935000Y-109827500D02*
X326935000Y-109482500D01*
G75*
G02*
X327082500Y-109335000I147500J0D01*
G01*
X327377500Y-109335000D01*
G75*
G02*
X327525000Y-109482500I0J-147500D01*
G01*
X327525000Y-109827500D01*
G75*
G02*
X327377500Y-109975000I-147500J0D01*
G01*
X327082500Y-109975000D01*
G75*
G02*
X326935000Y-109827500I0J147500D01*
G01*
G37*
G36*
G01*
X325965000Y-109827500D02*
X325965000Y-109482500D01*
G75*
G02*
X326112500Y-109335000I147500J0D01*
G01*
X326407500Y-109335000D01*
G75*
G02*
X326555000Y-109482500I0J-147500D01*
G01*
X326555000Y-109827500D01*
G75*
G02*
X326407500Y-109975000I-147500J0D01*
G01*
X326112500Y-109975000D01*
G75*
G02*
X325965000Y-109827500I0J147500D01*
G01*
G37*
%TD*%
%TO.C,C40*%
G36*
G01*
X326935000Y-87334300D02*
X326935000Y-86989300D01*
G75*
G02*
X327082500Y-86841800I147500J0D01*
G01*
X327377500Y-86841800D01*
G75*
G02*
X327525000Y-86989300I0J-147500D01*
G01*
X327525000Y-87334300D01*
G75*
G02*
X327377500Y-87481800I-147500J0D01*
G01*
X327082500Y-87481800D01*
G75*
G02*
X326935000Y-87334300I0J147500D01*
G01*
G37*
G36*
G01*
X325965000Y-87334300D02*
X325965000Y-86989300D01*
G75*
G02*
X326112500Y-86841800I147500J0D01*
G01*
X326407500Y-86841800D01*
G75*
G02*
X326555000Y-86989300I0J-147500D01*
G01*
X326555000Y-87334300D01*
G75*
G02*
X326407500Y-87481800I-147500J0D01*
G01*
X326112500Y-87481800D01*
G75*
G02*
X325965000Y-87334300I0J147500D01*
G01*
G37*
%TD*%
%TO.C,C41*%
G36*
G01*
X326935000Y-106613500D02*
X326935000Y-106268500D01*
G75*
G02*
X327082500Y-106121000I147500J0D01*
G01*
X327377500Y-106121000D01*
G75*
G02*
X327525000Y-106268500I0J-147500D01*
G01*
X327525000Y-106613500D01*
G75*
G02*
X327377500Y-106761000I-147500J0D01*
G01*
X327082500Y-106761000D01*
G75*
G02*
X326935000Y-106613500I0J147500D01*
G01*
G37*
G36*
G01*
X325965000Y-106613500D02*
X325965000Y-106268500D01*
G75*
G02*
X326112500Y-106121000I147500J0D01*
G01*
X326407500Y-106121000D01*
G75*
G02*
X326555000Y-106268500I0J-147500D01*
G01*
X326555000Y-106613500D01*
G75*
G02*
X326407500Y-106761000I-147500J0D01*
G01*
X326112500Y-106761000D01*
G75*
G02*
X325965000Y-106613500I0J147500D01*
G01*
G37*
%TD*%
%TO.C,C42*%
G36*
G01*
X326935000Y-115182500D02*
X326935000Y-114837500D01*
G75*
G02*
X327082500Y-114690000I147500J0D01*
G01*
X327377500Y-114690000D01*
G75*
G02*
X327525000Y-114837500I0J-147500D01*
G01*
X327525000Y-115182500D01*
G75*
G02*
X327377500Y-115330000I-147500J0D01*
G01*
X327082500Y-115330000D01*
G75*
G02*
X326935000Y-115182500I0J147500D01*
G01*
G37*
G36*
G01*
X325965000Y-115182500D02*
X325965000Y-114837500D01*
G75*
G02*
X326112500Y-114690000I147500J0D01*
G01*
X326407500Y-114690000D01*
G75*
G02*
X326555000Y-114837500I0J-147500D01*
G01*
X326555000Y-115182500D01*
G75*
G02*
X326407500Y-115330000I-147500J0D01*
G01*
X326112500Y-115330000D01*
G75*
G02*
X325965000Y-115182500I0J147500D01*
G01*
G37*
%TD*%
%TO.C,C43*%
G36*
G01*
X323303000Y-117818500D02*
X323303000Y-117473500D01*
G75*
G02*
X323450500Y-117326000I147500J0D01*
G01*
X323745500Y-117326000D01*
G75*
G02*
X323893000Y-117473500I0J-147500D01*
G01*
X323893000Y-117818500D01*
G75*
G02*
X323745500Y-117966000I-147500J0D01*
G01*
X323450500Y-117966000D01*
G75*
G02*
X323303000Y-117818500I0J147500D01*
G01*
G37*
G36*
G01*
X322333000Y-117818500D02*
X322333000Y-117473500D01*
G75*
G02*
X322480500Y-117326000I147500J0D01*
G01*
X322775500Y-117326000D01*
G75*
G02*
X322923000Y-117473500I0J-147500D01*
G01*
X322923000Y-117818500D01*
G75*
G02*
X322775500Y-117966000I-147500J0D01*
G01*
X322480500Y-117966000D01*
G75*
G02*
X322333000Y-117818500I0J147500D01*
G01*
G37*
%TD*%
%TO.C,C44*%
G36*
G01*
X326935000Y-70196900D02*
X326935000Y-69851900D01*
G75*
G02*
X327082500Y-69704400I147500J0D01*
G01*
X327377500Y-69704400D01*
G75*
G02*
X327525000Y-69851900I0J-147500D01*
G01*
X327525000Y-70196900D01*
G75*
G02*
X327377500Y-70344400I-147500J0D01*
G01*
X327082500Y-70344400D01*
G75*
G02*
X326935000Y-70196900I0J147500D01*
G01*
G37*
G36*
G01*
X325965000Y-70196900D02*
X325965000Y-69851900D01*
G75*
G02*
X326112500Y-69704400I147500J0D01*
G01*
X326407500Y-69704400D01*
G75*
G02*
X326555000Y-69851900I0J-147500D01*
G01*
X326555000Y-70196900D01*
G75*
G02*
X326407500Y-70344400I-147500J0D01*
G01*
X326112500Y-70344400D01*
G75*
G02*
X325965000Y-70196900I0J147500D01*
G01*
G37*
%TD*%
%TO.C,C47*%
G36*
G01*
X320118000Y-117785500D02*
X320118000Y-117440500D01*
G75*
G02*
X320265500Y-117293000I147500J0D01*
G01*
X320560500Y-117293000D01*
G75*
G02*
X320708000Y-117440500I0J-147500D01*
G01*
X320708000Y-117785500D01*
G75*
G02*
X320560500Y-117933000I-147500J0D01*
G01*
X320265500Y-117933000D01*
G75*
G02*
X320118000Y-117785500I0J147500D01*
G01*
G37*
G36*
G01*
X319148000Y-117785500D02*
X319148000Y-117440500D01*
G75*
G02*
X319295500Y-117293000I147500J0D01*
G01*
X319590500Y-117293000D01*
G75*
G02*
X319738000Y-117440500I0J-147500D01*
G01*
X319738000Y-117785500D01*
G75*
G02*
X319590500Y-117933000I-147500J0D01*
G01*
X319295500Y-117933000D01*
G75*
G02*
X319148000Y-117785500I0J147500D01*
G01*
G37*
%TD*%
%TO.C,C48*%
G36*
G01*
X326935000Y-63770400D02*
X326935000Y-63425400D01*
G75*
G02*
X327082500Y-63277900I147500J0D01*
G01*
X327377500Y-63277900D01*
G75*
G02*
X327525000Y-63425400I0J-147500D01*
G01*
X327525000Y-63770400D01*
G75*
G02*
X327377500Y-63917900I-147500J0D01*
G01*
X327082500Y-63917900D01*
G75*
G02*
X326935000Y-63770400I0J147500D01*
G01*
G37*
G36*
G01*
X325965000Y-63770400D02*
X325965000Y-63425400D01*
G75*
G02*
X326112500Y-63277900I147500J0D01*
G01*
X326407500Y-63277900D01*
G75*
G02*
X326555000Y-63425400I0J-147500D01*
G01*
X326555000Y-63770400D01*
G75*
G02*
X326407500Y-63917900I-147500J0D01*
G01*
X326112500Y-63917900D01*
G75*
G02*
X325965000Y-63770400I0J147500D01*
G01*
G37*
%TD*%
%TO.C,C49*%
G36*
G01*
X323303000Y-116746500D02*
X323303000Y-116401500D01*
G75*
G02*
X323450500Y-116254000I147500J0D01*
G01*
X323745500Y-116254000D01*
G75*
G02*
X323893000Y-116401500I0J-147500D01*
G01*
X323893000Y-116746500D01*
G75*
G02*
X323745500Y-116894000I-147500J0D01*
G01*
X323450500Y-116894000D01*
G75*
G02*
X323303000Y-116746500I0J147500D01*
G01*
G37*
G36*
G01*
X322333000Y-116746500D02*
X322333000Y-116401500D01*
G75*
G02*
X322480500Y-116254000I147500J0D01*
G01*
X322775500Y-116254000D01*
G75*
G02*
X322923000Y-116401500I0J-147500D01*
G01*
X322923000Y-116746500D01*
G75*
G02*
X322775500Y-116894000I-147500J0D01*
G01*
X322480500Y-116894000D01*
G75*
G02*
X322333000Y-116746500I0J147500D01*
G01*
G37*
%TD*%
%TO.C,C50*%
G36*
G01*
X323760000Y-61547100D02*
X323760000Y-61202100D01*
G75*
G02*
X323907500Y-61054600I147500J0D01*
G01*
X324202500Y-61054600D01*
G75*
G02*
X324350000Y-61202100I0J-147500D01*
G01*
X324350000Y-61547100D01*
G75*
G02*
X324202500Y-61694600I-147500J0D01*
G01*
X323907500Y-61694600D01*
G75*
G02*
X323760000Y-61547100I0J147500D01*
G01*
G37*
G36*
G01*
X322790000Y-61547100D02*
X322790000Y-61202100D01*
G75*
G02*
X322937500Y-61054600I147500J0D01*
G01*
X323232500Y-61054600D01*
G75*
G02*
X323380000Y-61202100I0J-147500D01*
G01*
X323380000Y-61547100D01*
G75*
G02*
X323232500Y-61694600I-147500J0D01*
G01*
X322937500Y-61694600D01*
G75*
G02*
X322790000Y-61547100I0J147500D01*
G01*
G37*
%TD*%
%TO.C,C52*%
G36*
G01*
X326935000Y-83049900D02*
X326935000Y-82704900D01*
G75*
G02*
X327082500Y-82557400I147500J0D01*
G01*
X327377500Y-82557400D01*
G75*
G02*
X327525000Y-82704900I0J-147500D01*
G01*
X327525000Y-83049900D01*
G75*
G02*
X327377500Y-83197400I-147500J0D01*
G01*
X327082500Y-83197400D01*
G75*
G02*
X326935000Y-83049900I0J147500D01*
G01*
G37*
G36*
G01*
X325965000Y-83049900D02*
X325965000Y-82704900D01*
G75*
G02*
X326112500Y-82557400I147500J0D01*
G01*
X326407500Y-82557400D01*
G75*
G02*
X326555000Y-82704900I0J-147500D01*
G01*
X326555000Y-83049900D01*
G75*
G02*
X326407500Y-83197400I-147500J0D01*
G01*
X326112500Y-83197400D01*
G75*
G02*
X325965000Y-83049900I0J147500D01*
G01*
G37*
%TD*%
%TO.C,C53*%
G36*
G01*
X326935000Y-81978900D02*
X326935000Y-81633900D01*
G75*
G02*
X327082500Y-81486400I147500J0D01*
G01*
X327377500Y-81486400D01*
G75*
G02*
X327525000Y-81633900I0J-147500D01*
G01*
X327525000Y-81978900D01*
G75*
G02*
X327377500Y-82126400I-147500J0D01*
G01*
X327082500Y-82126400D01*
G75*
G02*
X326935000Y-81978900I0J147500D01*
G01*
G37*
G36*
G01*
X325965000Y-81978900D02*
X325965000Y-81633900D01*
G75*
G02*
X326112500Y-81486400I147500J0D01*
G01*
X326407500Y-81486400D01*
G75*
G02*
X326555000Y-81633900I0J-147500D01*
G01*
X326555000Y-81978900D01*
G75*
G02*
X326407500Y-82126400I-147500J0D01*
G01*
X326112500Y-82126400D01*
G75*
G02*
X325965000Y-81978900I0J147500D01*
G01*
G37*
%TD*%
%TO.C,C54*%
G36*
G01*
X323760000Y-60476100D02*
X323760000Y-60131100D01*
G75*
G02*
X323907500Y-59983600I147500J0D01*
G01*
X324202500Y-59983600D01*
G75*
G02*
X324350000Y-60131100I0J-147500D01*
G01*
X324350000Y-60476100D01*
G75*
G02*
X324202500Y-60623600I-147500J0D01*
G01*
X323907500Y-60623600D01*
G75*
G02*
X323760000Y-60476100I0J147500D01*
G01*
G37*
G36*
G01*
X322790000Y-60476100D02*
X322790000Y-60131100D01*
G75*
G02*
X322937500Y-59983600I147500J0D01*
G01*
X323232500Y-59983600D01*
G75*
G02*
X323380000Y-60131100I0J-147500D01*
G01*
X323380000Y-60476100D01*
G75*
G02*
X323232500Y-60623600I-147500J0D01*
G01*
X322937500Y-60623600D01*
G75*
G02*
X322790000Y-60476100I0J147500D01*
G01*
G37*
%TD*%
%TO.C,C55*%
G36*
G01*
X326935000Y-75552300D02*
X326935000Y-75207300D01*
G75*
G02*
X327082500Y-75059800I147500J0D01*
G01*
X327377500Y-75059800D01*
G75*
G02*
X327525000Y-75207300I0J-147500D01*
G01*
X327525000Y-75552300D01*
G75*
G02*
X327377500Y-75699800I-147500J0D01*
G01*
X327082500Y-75699800D01*
G75*
G02*
X326935000Y-75552300I0J147500D01*
G01*
G37*
G36*
G01*
X325965000Y-75552300D02*
X325965000Y-75207300D01*
G75*
G02*
X326112500Y-75059800I147500J0D01*
G01*
X326407500Y-75059800D01*
G75*
G02*
X326555000Y-75207300I0J-147500D01*
G01*
X326555000Y-75552300D01*
G75*
G02*
X326407500Y-75699800I-147500J0D01*
G01*
X326112500Y-75699800D01*
G75*
G02*
X325965000Y-75552300I0J147500D01*
G01*
G37*
%TD*%
%TO.C,C56*%
G36*
G01*
X326935000Y-64841500D02*
X326935000Y-64496500D01*
G75*
G02*
X327082500Y-64349000I147500J0D01*
G01*
X327377500Y-64349000D01*
G75*
G02*
X327525000Y-64496500I0J-147500D01*
G01*
X327525000Y-64841500D01*
G75*
G02*
X327377500Y-64989000I-147500J0D01*
G01*
X327082500Y-64989000D01*
G75*
G02*
X326935000Y-64841500I0J147500D01*
G01*
G37*
G36*
G01*
X325965000Y-64841500D02*
X325965000Y-64496500D01*
G75*
G02*
X326112500Y-64349000I147500J0D01*
G01*
X326407500Y-64349000D01*
G75*
G02*
X326555000Y-64496500I0J-147500D01*
G01*
X326555000Y-64841500D01*
G75*
G02*
X326407500Y-64989000I-147500J0D01*
G01*
X326112500Y-64989000D01*
G75*
G02*
X325965000Y-64841500I0J147500D01*
G01*
G37*
%TD*%
%TO.C,C57*%
G36*
G01*
X326935000Y-95902900D02*
X326935000Y-95557900D01*
G75*
G02*
X327082500Y-95410400I147500J0D01*
G01*
X327377500Y-95410400D01*
G75*
G02*
X327525000Y-95557900I0J-147500D01*
G01*
X327525000Y-95902900D01*
G75*
G02*
X327377500Y-96050400I-147500J0D01*
G01*
X327082500Y-96050400D01*
G75*
G02*
X326935000Y-95902900I0J147500D01*
G01*
G37*
G36*
G01*
X325965000Y-95902900D02*
X325965000Y-95557900D01*
G75*
G02*
X326112500Y-95410400I147500J0D01*
G01*
X326407500Y-95410400D01*
G75*
G02*
X326555000Y-95557900I0J-147500D01*
G01*
X326555000Y-95902900D01*
G75*
G02*
X326407500Y-96050400I-147500J0D01*
G01*
X326112500Y-96050400D01*
G75*
G02*
X325965000Y-95902900I0J147500D01*
G01*
G37*
%TD*%
%TO.C,C60*%
G36*
G01*
X326935000Y-88405400D02*
X326935000Y-88060400D01*
G75*
G02*
X327082500Y-87912900I147500J0D01*
G01*
X327377500Y-87912900D01*
G75*
G02*
X327525000Y-88060400I0J-147500D01*
G01*
X327525000Y-88405400D01*
G75*
G02*
X327377500Y-88552900I-147500J0D01*
G01*
X327082500Y-88552900D01*
G75*
G02*
X326935000Y-88405400I0J147500D01*
G01*
G37*
G36*
G01*
X325965000Y-88405400D02*
X325965000Y-88060400D01*
G75*
G02*
X326112500Y-87912900I147500J0D01*
G01*
X326407500Y-87912900D01*
G75*
G02*
X326555000Y-88060400I0J-147500D01*
G01*
X326555000Y-88405400D01*
G75*
G02*
X326407500Y-88552900I-147500J0D01*
G01*
X326112500Y-88552900D01*
G75*
G02*
X325965000Y-88405400I0J147500D01*
G01*
G37*
%TD*%
%TO.C,C62*%
G36*
G01*
X323760000Y-63689300D02*
X323760000Y-63344300D01*
G75*
G02*
X323907500Y-63196800I147500J0D01*
G01*
X324202500Y-63196800D01*
G75*
G02*
X324350000Y-63344300I0J-147500D01*
G01*
X324350000Y-63689300D01*
G75*
G02*
X324202500Y-63836800I-147500J0D01*
G01*
X323907500Y-63836800D01*
G75*
G02*
X323760000Y-63689300I0J147500D01*
G01*
G37*
G36*
G01*
X322790000Y-63689300D02*
X322790000Y-63344300D01*
G75*
G02*
X322937500Y-63196800I147500J0D01*
G01*
X323232500Y-63196800D01*
G75*
G02*
X323380000Y-63344300I0J-147500D01*
G01*
X323380000Y-63689300D01*
G75*
G02*
X323232500Y-63836800I-147500J0D01*
G01*
X322937500Y-63836800D01*
G75*
G02*
X322790000Y-63689300I0J147500D01*
G01*
G37*
%TD*%
%TO.C,C63*%
G36*
G01*
X326935000Y-76623400D02*
X326935000Y-76278400D01*
G75*
G02*
X327082500Y-76130900I147500J0D01*
G01*
X327377500Y-76130900D01*
G75*
G02*
X327525000Y-76278400I0J-147500D01*
G01*
X327525000Y-76623400D01*
G75*
G02*
X327377500Y-76770900I-147500J0D01*
G01*
X327082500Y-76770900D01*
G75*
G02*
X326935000Y-76623400I0J147500D01*
G01*
G37*
G36*
G01*
X325965000Y-76623400D02*
X325965000Y-76278400D01*
G75*
G02*
X326112500Y-76130900I147500J0D01*
G01*
X326407500Y-76130900D01*
G75*
G02*
X326555000Y-76278400I0J-147500D01*
G01*
X326555000Y-76623400D01*
G75*
G02*
X326407500Y-76770900I-147500J0D01*
G01*
X326112500Y-76770900D01*
G75*
G02*
X325965000Y-76623400I0J147500D01*
G01*
G37*
%TD*%
%TO.C,C67*%
G36*
G01*
X326935000Y-101258500D02*
X326935000Y-100913500D01*
G75*
G02*
X327082500Y-100766000I147500J0D01*
G01*
X327377500Y-100766000D01*
G75*
G02*
X327525000Y-100913500I0J-147500D01*
G01*
X327525000Y-101258500D01*
G75*
G02*
X327377500Y-101406000I-147500J0D01*
G01*
X327082500Y-101406000D01*
G75*
G02*
X326935000Y-101258500I0J147500D01*
G01*
G37*
G36*
G01*
X325965000Y-101258500D02*
X325965000Y-100913500D01*
G75*
G02*
X326112500Y-100766000I147500J0D01*
G01*
X326407500Y-100766000D01*
G75*
G02*
X326555000Y-100913500I0J-147500D01*
G01*
X326555000Y-101258500D01*
G75*
G02*
X326407500Y-101406000I-147500J0D01*
G01*
X326112500Y-101406000D01*
G75*
G02*
X325965000Y-101258500I0J147500D01*
G01*
G37*
%TD*%
%TO.C,C68*%
G36*
G01*
X326935000Y-116253500D02*
X326935000Y-115908500D01*
G75*
G02*
X327082500Y-115761000I147500J0D01*
G01*
X327377500Y-115761000D01*
G75*
G02*
X327525000Y-115908500I0J-147500D01*
G01*
X327525000Y-116253500D01*
G75*
G02*
X327377500Y-116401000I-147500J0D01*
G01*
X327082500Y-116401000D01*
G75*
G02*
X326935000Y-116253500I0J147500D01*
G01*
G37*
G36*
G01*
X325965000Y-116253500D02*
X325965000Y-115908500D01*
G75*
G02*
X326112500Y-115761000I147500J0D01*
G01*
X326407500Y-115761000D01*
G75*
G02*
X326555000Y-115908500I0J-147500D01*
G01*
X326555000Y-116253500D01*
G75*
G02*
X326407500Y-116401000I-147500J0D01*
G01*
X326112500Y-116401000D01*
G75*
G02*
X325965000Y-116253500I0J147500D01*
G01*
G37*
%TD*%
%TO.C,C69*%
G36*
G01*
X323303000Y-115675500D02*
X323303000Y-115330500D01*
G75*
G02*
X323450500Y-115183000I147500J0D01*
G01*
X323745500Y-115183000D01*
G75*
G02*
X323893000Y-115330500I0J-147500D01*
G01*
X323893000Y-115675500D01*
G75*
G02*
X323745500Y-115823000I-147500J0D01*
G01*
X323450500Y-115823000D01*
G75*
G02*
X323303000Y-115675500I0J147500D01*
G01*
G37*
G36*
G01*
X322333000Y-115675500D02*
X322333000Y-115330500D01*
G75*
G02*
X322480500Y-115183000I147500J0D01*
G01*
X322775500Y-115183000D01*
G75*
G02*
X322923000Y-115330500I0J-147500D01*
G01*
X322923000Y-115675500D01*
G75*
G02*
X322775500Y-115823000I-147500J0D01*
G01*
X322480500Y-115823000D01*
G75*
G02*
X322333000Y-115675500I0J147500D01*
G01*
G37*
%TD*%
%TO.C,C70*%
G36*
G01*
X326935000Y-69125800D02*
X326935000Y-68780800D01*
G75*
G02*
X327082500Y-68633300I147500J0D01*
G01*
X327377500Y-68633300D01*
G75*
G02*
X327525000Y-68780800I0J-147500D01*
G01*
X327525000Y-69125800D01*
G75*
G02*
X327377500Y-69273300I-147500J0D01*
G01*
X327082500Y-69273300D01*
G75*
G02*
X326935000Y-69125800I0J147500D01*
G01*
G37*
G36*
G01*
X325965000Y-69125800D02*
X325965000Y-68780800D01*
G75*
G02*
X326112500Y-68633300I147500J0D01*
G01*
X326407500Y-68633300D01*
G75*
G02*
X326555000Y-68780800I0J-147500D01*
G01*
X326555000Y-69125800D01*
G75*
G02*
X326407500Y-69273300I-147500J0D01*
G01*
X326112500Y-69273300D01*
G75*
G02*
X325965000Y-69125800I0J147500D01*
G01*
G37*
%TD*%
%TO.C,C71*%
G36*
G01*
X326935000Y-89476400D02*
X326935000Y-89131400D01*
G75*
G02*
X327082500Y-88983900I147500J0D01*
G01*
X327377500Y-88983900D01*
G75*
G02*
X327525000Y-89131400I0J-147500D01*
G01*
X327525000Y-89476400D01*
G75*
G02*
X327377500Y-89623900I-147500J0D01*
G01*
X327082500Y-89623900D01*
G75*
G02*
X326935000Y-89476400I0J147500D01*
G01*
G37*
G36*
G01*
X325965000Y-89476400D02*
X325965000Y-89131400D01*
G75*
G02*
X326112500Y-88983900I147500J0D01*
G01*
X326407500Y-88983900D01*
G75*
G02*
X326555000Y-89131400I0J-147500D01*
G01*
X326555000Y-89476400D01*
G75*
G02*
X326407500Y-89623900I-147500J0D01*
G01*
X326112500Y-89623900D01*
G75*
G02*
X325965000Y-89476400I0J147500D01*
G01*
G37*
%TD*%
%TO.C,C74*%
G36*
G01*
X323760000Y-57262800D02*
X323760000Y-56917800D01*
G75*
G02*
X323907500Y-56770300I147500J0D01*
G01*
X324202500Y-56770300D01*
G75*
G02*
X324350000Y-56917800I0J-147500D01*
G01*
X324350000Y-57262800D01*
G75*
G02*
X324202500Y-57410300I-147500J0D01*
G01*
X323907500Y-57410300D01*
G75*
G02*
X323760000Y-57262800I0J147500D01*
G01*
G37*
G36*
G01*
X322790000Y-57262800D02*
X322790000Y-56917800D01*
G75*
G02*
X322937500Y-56770300I147500J0D01*
G01*
X323232500Y-56770300D01*
G75*
G02*
X323380000Y-56917800I0J-147500D01*
G01*
X323380000Y-57262800D01*
G75*
G02*
X323232500Y-57410300I-147500J0D01*
G01*
X322937500Y-57410300D01*
G75*
G02*
X322790000Y-57262800I0J147500D01*
G01*
G37*
%TD*%
%TO.C,C75*%
G36*
G01*
X326935000Y-108755500D02*
X326935000Y-108410500D01*
G75*
G02*
X327082500Y-108263000I147500J0D01*
G01*
X327377500Y-108263000D01*
G75*
G02*
X327525000Y-108410500I0J-147500D01*
G01*
X327525000Y-108755500D01*
G75*
G02*
X327377500Y-108903000I-147500J0D01*
G01*
X327082500Y-108903000D01*
G75*
G02*
X326935000Y-108755500I0J147500D01*
G01*
G37*
G36*
G01*
X325965000Y-108755500D02*
X325965000Y-108410500D01*
G75*
G02*
X326112500Y-108263000I147500J0D01*
G01*
X326407500Y-108263000D01*
G75*
G02*
X326555000Y-108410500I0J-147500D01*
G01*
X326555000Y-108755500D01*
G75*
G02*
X326407500Y-108903000I-147500J0D01*
G01*
X326112500Y-108903000D01*
G75*
G02*
X325965000Y-108755500I0J147500D01*
G01*
G37*
%TD*%
%TO.C,C76*%
G36*
G01*
X323753000Y-54122100D02*
X323753000Y-53777100D01*
G75*
G02*
X323900500Y-53629600I147500J0D01*
G01*
X324195500Y-53629600D01*
G75*
G02*
X324343000Y-53777100I0J-147500D01*
G01*
X324343000Y-54122100D01*
G75*
G02*
X324195500Y-54269600I-147500J0D01*
G01*
X323900500Y-54269600D01*
G75*
G02*
X323753000Y-54122100I0J147500D01*
G01*
G37*
G36*
G01*
X322783000Y-54122100D02*
X322783000Y-53777100D01*
G75*
G02*
X322930500Y-53629600I147500J0D01*
G01*
X323225500Y-53629600D01*
G75*
G02*
X323373000Y-53777100I0J-147500D01*
G01*
X323373000Y-54122100D01*
G75*
G02*
X323225500Y-54269600I-147500J0D01*
G01*
X322930500Y-54269600D01*
G75*
G02*
X322783000Y-54122100I0J147500D01*
G01*
G37*
%TD*%
%TO.C,C78*%
G36*
G01*
X326935000Y-102329500D02*
X326935000Y-101984500D01*
G75*
G02*
X327082500Y-101837000I147500J0D01*
G01*
X327377500Y-101837000D01*
G75*
G02*
X327525000Y-101984500I0J-147500D01*
G01*
X327525000Y-102329500D01*
G75*
G02*
X327377500Y-102477000I-147500J0D01*
G01*
X327082500Y-102477000D01*
G75*
G02*
X326935000Y-102329500I0J147500D01*
G01*
G37*
G36*
G01*
X325965000Y-102329500D02*
X325965000Y-101984500D01*
G75*
G02*
X326112500Y-101837000I147500J0D01*
G01*
X326407500Y-101837000D01*
G75*
G02*
X326555000Y-101984500I0J-147500D01*
G01*
X326555000Y-102329500D01*
G75*
G02*
X326407500Y-102477000I-147500J0D01*
G01*
X326112500Y-102477000D01*
G75*
G02*
X325965000Y-102329500I0J147500D01*
G01*
G37*
%TD*%
%TO.C,C80*%
G36*
G01*
X323760000Y-55120600D02*
X323760000Y-54775600D01*
G75*
G02*
X323907500Y-54628100I147500J0D01*
G01*
X324202500Y-54628100D01*
G75*
G02*
X324350000Y-54775600I0J-147500D01*
G01*
X324350000Y-55120600D01*
G75*
G02*
X324202500Y-55268100I-147500J0D01*
G01*
X323907500Y-55268100D01*
G75*
G02*
X323760000Y-55120600I0J147500D01*
G01*
G37*
G36*
G01*
X322790000Y-55120600D02*
X322790000Y-54775600D01*
G75*
G02*
X322937500Y-54628100I147500J0D01*
G01*
X323232500Y-54628100D01*
G75*
G02*
X323380000Y-54775600I0J-147500D01*
G01*
X323380000Y-55120600D01*
G75*
G02*
X323232500Y-55268100I-147500J0D01*
G01*
X322937500Y-55268100D01*
G75*
G02*
X322790000Y-55120600I0J147500D01*
G01*
G37*
%TD*%
%TO.C,C81*%
G36*
G01*
X326935000Y-94831900D02*
X326935000Y-94486900D01*
G75*
G02*
X327082500Y-94339400I147500J0D01*
G01*
X327377500Y-94339400D01*
G75*
G02*
X327525000Y-94486900I0J-147500D01*
G01*
X327525000Y-94831900D01*
G75*
G02*
X327377500Y-94979400I-147500J0D01*
G01*
X327082500Y-94979400D01*
G75*
G02*
X326935000Y-94831900I0J147500D01*
G01*
G37*
G36*
G01*
X325965000Y-94831900D02*
X325965000Y-94486900D01*
G75*
G02*
X326112500Y-94339400I147500J0D01*
G01*
X326407500Y-94339400D01*
G75*
G02*
X326555000Y-94486900I0J-147500D01*
G01*
X326555000Y-94831900D01*
G75*
G02*
X326407500Y-94979400I-147500J0D01*
G01*
X326112500Y-94979400D01*
G75*
G02*
X325965000Y-94831900I0J147500D01*
G01*
G37*
%TD*%
%TO.C,C82*%
G36*
G01*
X326935000Y-114111500D02*
X326935000Y-113766500D01*
G75*
G02*
X327082500Y-113619000I147500J0D01*
G01*
X327377500Y-113619000D01*
G75*
G02*
X327525000Y-113766500I0J-147500D01*
G01*
X327525000Y-114111500D01*
G75*
G02*
X327377500Y-114259000I-147500J0D01*
G01*
X327082500Y-114259000D01*
G75*
G02*
X326935000Y-114111500I0J147500D01*
G01*
G37*
G36*
G01*
X325965000Y-114111500D02*
X325965000Y-113766500D01*
G75*
G02*
X326112500Y-113619000I147500J0D01*
G01*
X326407500Y-113619000D01*
G75*
G02*
X326555000Y-113766500I0J-147500D01*
G01*
X326555000Y-114111500D01*
G75*
G02*
X326407500Y-114259000I-147500J0D01*
G01*
X326112500Y-114259000D01*
G75*
G02*
X325965000Y-114111500I0J147500D01*
G01*
G37*
%TD*%
%TO.C,C84*%
G36*
G01*
X326935000Y-107684500D02*
X326935000Y-107339500D01*
G75*
G02*
X327082500Y-107192000I147500J0D01*
G01*
X327377500Y-107192000D01*
G75*
G02*
X327525000Y-107339500I0J-147500D01*
G01*
X327525000Y-107684500D01*
G75*
G02*
X327377500Y-107832000I-147500J0D01*
G01*
X327082500Y-107832000D01*
G75*
G02*
X326935000Y-107684500I0J147500D01*
G01*
G37*
G36*
G01*
X325965000Y-107684500D02*
X325965000Y-107339500D01*
G75*
G02*
X326112500Y-107192000I147500J0D01*
G01*
X326407500Y-107192000D01*
G75*
G02*
X326555000Y-107339500I0J-147500D01*
G01*
X326555000Y-107684500D01*
G75*
G02*
X326407500Y-107832000I-147500J0D01*
G01*
X326112500Y-107832000D01*
G75*
G02*
X325965000Y-107684500I0J147500D01*
G01*
G37*
%TD*%
%TO.C,C22*%
G36*
G01*
X326935000Y-59486100D02*
X326935000Y-59141100D01*
G75*
G02*
X327082500Y-58993600I147500J0D01*
G01*
X327377500Y-58993600D01*
G75*
G02*
X327525000Y-59141100I0J-147500D01*
G01*
X327525000Y-59486100D01*
G75*
G02*
X327377500Y-59633600I-147500J0D01*
G01*
X327082500Y-59633600D01*
G75*
G02*
X326935000Y-59486100I0J147500D01*
G01*
G37*
G36*
G01*
X325965000Y-59486100D02*
X325965000Y-59141100D01*
G75*
G02*
X326112500Y-58993600I147500J0D01*
G01*
X326407500Y-58993600D01*
G75*
G02*
X326555000Y-59141100I0J-147500D01*
G01*
X326555000Y-59486100D01*
G75*
G02*
X326407500Y-59633600I-147500J0D01*
G01*
X326112500Y-59633600D01*
G75*
G02*
X325965000Y-59486100I0J147500D01*
G01*
G37*
%TD*%
%TO.C,C24*%
G36*
G01*
X326935000Y-72339100D02*
X326935000Y-71994100D01*
G75*
G02*
X327082500Y-71846600I147500J0D01*
G01*
X327377500Y-71846600D01*
G75*
G02*
X327525000Y-71994100I0J-147500D01*
G01*
X327525000Y-72339100D01*
G75*
G02*
X327377500Y-72486600I-147500J0D01*
G01*
X327082500Y-72486600D01*
G75*
G02*
X326935000Y-72339100I0J147500D01*
G01*
G37*
G36*
G01*
X325965000Y-72339100D02*
X325965000Y-71994100D01*
G75*
G02*
X326112500Y-71846600I147500J0D01*
G01*
X326407500Y-71846600D01*
G75*
G02*
X326555000Y-71994100I0J-147500D01*
G01*
X326555000Y-72339100D01*
G75*
G02*
X326407500Y-72486600I-147500J0D01*
G01*
X326112500Y-72486600D01*
G75*
G02*
X325965000Y-72339100I0J147500D01*
G01*
G37*
%TD*%
%TO.C,C26*%
G36*
G01*
X320118000Y-115643500D02*
X320118000Y-115298500D01*
G75*
G02*
X320265500Y-115151000I147500J0D01*
G01*
X320560500Y-115151000D01*
G75*
G02*
X320708000Y-115298500I0J-147500D01*
G01*
X320708000Y-115643500D01*
G75*
G02*
X320560500Y-115791000I-147500J0D01*
G01*
X320265500Y-115791000D01*
G75*
G02*
X320118000Y-115643500I0J147500D01*
G01*
G37*
G36*
G01*
X319148000Y-115643500D02*
X319148000Y-115298500D01*
G75*
G02*
X319295500Y-115151000I147500J0D01*
G01*
X319590500Y-115151000D01*
G75*
G02*
X319738000Y-115298500I0J-147500D01*
G01*
X319738000Y-115643500D01*
G75*
G02*
X319590500Y-115791000I-147500J0D01*
G01*
X319295500Y-115791000D01*
G75*
G02*
X319148000Y-115643500I0J147500D01*
G01*
G37*
%TD*%
%TO.C,C15*%
G36*
G01*
X326935000Y-61628300D02*
X326935000Y-61283300D01*
G75*
G02*
X327082500Y-61135800I147500J0D01*
G01*
X327377500Y-61135800D01*
G75*
G02*
X327525000Y-61283300I0J-147500D01*
G01*
X327525000Y-61628300D01*
G75*
G02*
X327377500Y-61775800I-147500J0D01*
G01*
X327082500Y-61775800D01*
G75*
G02*
X326935000Y-61628300I0J147500D01*
G01*
G37*
G36*
G01*
X325965000Y-61628300D02*
X325965000Y-61283300D01*
G75*
G02*
X326112500Y-61135800I147500J0D01*
G01*
X326407500Y-61135800D01*
G75*
G02*
X326555000Y-61283300I0J-147500D01*
G01*
X326555000Y-61628300D01*
G75*
G02*
X326407500Y-61775800I-147500J0D01*
G01*
X326112500Y-61775800D01*
G75*
G02*
X325965000Y-61628300I0J147500D01*
G01*
G37*
%TD*%
%TO.C,C20*%
G36*
G01*
X326935000Y-65912600D02*
X326935000Y-65567600D01*
G75*
G02*
X327082500Y-65420100I147500J0D01*
G01*
X327377500Y-65420100D01*
G75*
G02*
X327525000Y-65567600I0J-147500D01*
G01*
X327525000Y-65912600D01*
G75*
G02*
X327377500Y-66060100I-147500J0D01*
G01*
X327082500Y-66060100D01*
G75*
G02*
X326935000Y-65912600I0J147500D01*
G01*
G37*
G36*
G01*
X325965000Y-65912600D02*
X325965000Y-65567600D01*
G75*
G02*
X326112500Y-65420100I147500J0D01*
G01*
X326407500Y-65420100D01*
G75*
G02*
X326555000Y-65567600I0J-147500D01*
G01*
X326555000Y-65912600D01*
G75*
G02*
X326407500Y-66060100I-147500J0D01*
G01*
X326112500Y-66060100D01*
G75*
G02*
X325965000Y-65912600I0J147500D01*
G01*
G37*
%TD*%
%TO.C,C19*%
G36*
G01*
X326935000Y-104471500D02*
X326935000Y-104126500D01*
G75*
G02*
X327082500Y-103979000I147500J0D01*
G01*
X327377500Y-103979000D01*
G75*
G02*
X327525000Y-104126500I0J-147500D01*
G01*
X327525000Y-104471500D01*
G75*
G02*
X327377500Y-104619000I-147500J0D01*
G01*
X327082500Y-104619000D01*
G75*
G02*
X326935000Y-104471500I0J147500D01*
G01*
G37*
G36*
G01*
X325965000Y-104471500D02*
X325965000Y-104126500D01*
G75*
G02*
X326112500Y-103979000I147500J0D01*
G01*
X326407500Y-103979000D01*
G75*
G02*
X326555000Y-104126500I0J-147500D01*
G01*
X326555000Y-104471500D01*
G75*
G02*
X326407500Y-104619000I-147500J0D01*
G01*
X326112500Y-104619000D01*
G75*
G02*
X325965000Y-104471500I0J147500D01*
G01*
G37*
%TD*%
%TO.C,C39*%
G36*
G01*
X323760000Y-62618200D02*
X323760000Y-62273200D01*
G75*
G02*
X323907500Y-62125700I147500J0D01*
G01*
X324202500Y-62125700D01*
G75*
G02*
X324350000Y-62273200I0J-147500D01*
G01*
X324350000Y-62618200D01*
G75*
G02*
X324202500Y-62765700I-147500J0D01*
G01*
X323907500Y-62765700D01*
G75*
G02*
X323760000Y-62618200I0J147500D01*
G01*
G37*
G36*
G01*
X322790000Y-62618200D02*
X322790000Y-62273200D01*
G75*
G02*
X322937500Y-62125700I147500J0D01*
G01*
X323232500Y-62125700D01*
G75*
G02*
X323380000Y-62273200I0J-147500D01*
G01*
X323380000Y-62618200D01*
G75*
G02*
X323232500Y-62765700I-147500J0D01*
G01*
X322937500Y-62765700D01*
G75*
G02*
X322790000Y-62618200I0J147500D01*
G01*
G37*
%TD*%
%TO.C,C34*%
G36*
G01*
X320123000Y-114501500D02*
X320123000Y-114156500D01*
G75*
G02*
X320270500Y-114009000I147500J0D01*
G01*
X320565500Y-114009000D01*
G75*
G02*
X320713000Y-114156500I0J-147500D01*
G01*
X320713000Y-114501500D01*
G75*
G02*
X320565500Y-114649000I-147500J0D01*
G01*
X320270500Y-114649000D01*
G75*
G02*
X320123000Y-114501500I0J147500D01*
G01*
G37*
G36*
G01*
X319153000Y-114501500D02*
X319153000Y-114156500D01*
G75*
G02*
X319300500Y-114009000I147500J0D01*
G01*
X319595500Y-114009000D01*
G75*
G02*
X319743000Y-114156500I0J-147500D01*
G01*
X319743000Y-114501500D01*
G75*
G02*
X319595500Y-114649000I-147500J0D01*
G01*
X319300500Y-114649000D01*
G75*
G02*
X319153000Y-114501500I0J147500D01*
G01*
G37*
%TD*%
%TO.C,C45*%
G36*
G01*
X323298000Y-112511500D02*
X323298000Y-112166500D01*
G75*
G02*
X323445500Y-112019000I147500J0D01*
G01*
X323740500Y-112019000D01*
G75*
G02*
X323888000Y-112166500I0J-147500D01*
G01*
X323888000Y-112511500D01*
G75*
G02*
X323740500Y-112659000I-147500J0D01*
G01*
X323445500Y-112659000D01*
G75*
G02*
X323298000Y-112511500I0J147500D01*
G01*
G37*
G36*
G01*
X322328000Y-112511500D02*
X322328000Y-112166500D01*
G75*
G02*
X322475500Y-112019000I147500J0D01*
G01*
X322770500Y-112019000D01*
G75*
G02*
X322918000Y-112166500I0J-147500D01*
G01*
X322918000Y-112511500D01*
G75*
G02*
X322770500Y-112659000I-147500J0D01*
G01*
X322475500Y-112659000D01*
G75*
G02*
X322328000Y-112511500I0J147500D01*
G01*
G37*
%TD*%
%TO.C,C31*%
G36*
G01*
X326935000Y-78765600D02*
X326935000Y-78420600D01*
G75*
G02*
X327082500Y-78273100I147500J0D01*
G01*
X327377500Y-78273100D01*
G75*
G02*
X327525000Y-78420600I0J-147500D01*
G01*
X327525000Y-78765600D01*
G75*
G02*
X327377500Y-78913100I-147500J0D01*
G01*
X327082500Y-78913100D01*
G75*
G02*
X326935000Y-78765600I0J147500D01*
G01*
G37*
G36*
G01*
X325965000Y-78765600D02*
X325965000Y-78420600D01*
G75*
G02*
X326112500Y-78273100I147500J0D01*
G01*
X326407500Y-78273100D01*
G75*
G02*
X326555000Y-78420600I0J-147500D01*
G01*
X326555000Y-78765600D01*
G75*
G02*
X326407500Y-78913100I-147500J0D01*
G01*
X326112500Y-78913100D01*
G75*
G02*
X325965000Y-78765600I0J147500D01*
G01*
G37*
%TD*%
%TO.C,C38*%
G36*
G01*
X326935000Y-110898500D02*
X326935000Y-110553500D01*
G75*
G02*
X327082500Y-110406000I147500J0D01*
G01*
X327377500Y-110406000D01*
G75*
G02*
X327525000Y-110553500I0J-147500D01*
G01*
X327525000Y-110898500D01*
G75*
G02*
X327377500Y-111046000I-147500J0D01*
G01*
X327082500Y-111046000D01*
G75*
G02*
X326935000Y-110898500I0J147500D01*
G01*
G37*
G36*
G01*
X325965000Y-110898500D02*
X325965000Y-110553500D01*
G75*
G02*
X326112500Y-110406000I147500J0D01*
G01*
X326407500Y-110406000D01*
G75*
G02*
X326555000Y-110553500I0J-147500D01*
G01*
X326555000Y-110898500D01*
G75*
G02*
X326407500Y-111046000I-147500J0D01*
G01*
X326112500Y-111046000D01*
G75*
G02*
X325965000Y-110898500I0J147500D01*
G01*
G37*
%TD*%
%TO.C,C46*%
G36*
G01*
X326935000Y-66983700D02*
X326935000Y-66638700D01*
G75*
G02*
X327082500Y-66491200I147500J0D01*
G01*
X327377500Y-66491200D01*
G75*
G02*
X327525000Y-66638700I0J-147500D01*
G01*
X327525000Y-66983700D01*
G75*
G02*
X327377500Y-67131200I-147500J0D01*
G01*
X327082500Y-67131200D01*
G75*
G02*
X326935000Y-66983700I0J147500D01*
G01*
G37*
G36*
G01*
X325965000Y-66983700D02*
X325965000Y-66638700D01*
G75*
G02*
X326112500Y-66491200I147500J0D01*
G01*
X326407500Y-66491200D01*
G75*
G02*
X326555000Y-66638700I0J-147500D01*
G01*
X326555000Y-66983700D01*
G75*
G02*
X326407500Y-67131200I-147500J0D01*
G01*
X326112500Y-67131200D01*
G75*
G02*
X325965000Y-66983700I0J147500D01*
G01*
G37*
%TD*%
%TO.C,C51*%
G36*
G01*
X326935000Y-79836700D02*
X326935000Y-79491700D01*
G75*
G02*
X327082500Y-79344200I147500J0D01*
G01*
X327377500Y-79344200D01*
G75*
G02*
X327525000Y-79491700I0J-147500D01*
G01*
X327525000Y-79836700D01*
G75*
G02*
X327377500Y-79984200I-147500J0D01*
G01*
X327082500Y-79984200D01*
G75*
G02*
X326935000Y-79836700I0J147500D01*
G01*
G37*
G36*
G01*
X325965000Y-79836700D02*
X325965000Y-79491700D01*
G75*
G02*
X326112500Y-79344200I147500J0D01*
G01*
X326407500Y-79344200D01*
G75*
G02*
X326555000Y-79491700I0J-147500D01*
G01*
X326555000Y-79836700D01*
G75*
G02*
X326407500Y-79984200I-147500J0D01*
G01*
X326112500Y-79984200D01*
G75*
G02*
X325965000Y-79836700I0J147500D01*
G01*
G37*
%TD*%
%TO.C,C66*%
G36*
G01*
X326935000Y-73410200D02*
X326935000Y-73065200D01*
G75*
G02*
X327082500Y-72917700I147500J0D01*
G01*
X327377500Y-72917700D01*
G75*
G02*
X327525000Y-73065200I0J-147500D01*
G01*
X327525000Y-73410200D01*
G75*
G02*
X327377500Y-73557700I-147500J0D01*
G01*
X327082500Y-73557700D01*
G75*
G02*
X326935000Y-73410200I0J147500D01*
G01*
G37*
G36*
G01*
X325965000Y-73410200D02*
X325965000Y-73065200D01*
G75*
G02*
X326112500Y-72917700I147500J0D01*
G01*
X326407500Y-72917700D01*
G75*
G02*
X326555000Y-73065200I0J-147500D01*
G01*
X326555000Y-73410200D01*
G75*
G02*
X326407500Y-73557700I-147500J0D01*
G01*
X326112500Y-73557700D01*
G75*
G02*
X325965000Y-73410200I0J147500D01*
G01*
G37*
%TD*%
%TO.C,C72*%
G36*
G01*
X326950000Y-117314500D02*
X326950000Y-116969500D01*
G75*
G02*
X327097500Y-116822000I147500J0D01*
G01*
X327392500Y-116822000D01*
G75*
G02*
X327540000Y-116969500I0J-147500D01*
G01*
X327540000Y-117314500D01*
G75*
G02*
X327392500Y-117462000I-147500J0D01*
G01*
X327097500Y-117462000D01*
G75*
G02*
X326950000Y-117314500I0J147500D01*
G01*
G37*
G36*
G01*
X325980000Y-117314500D02*
X325980000Y-116969500D01*
G75*
G02*
X326127500Y-116822000I147500J0D01*
G01*
X326422500Y-116822000D01*
G75*
G02*
X326570000Y-116969500I0J-147500D01*
G01*
X326570000Y-117314500D01*
G75*
G02*
X326422500Y-117462000I-147500J0D01*
G01*
X326127500Y-117462000D01*
G75*
G02*
X325980000Y-117314500I0J147500D01*
G01*
G37*
%TD*%
%TO.C,C77*%
G36*
G01*
X326935000Y-99116200D02*
X326935000Y-98771200D01*
G75*
G02*
X327082500Y-98623700I147500J0D01*
G01*
X327377500Y-98623700D01*
G75*
G02*
X327525000Y-98771200I0J-147500D01*
G01*
X327525000Y-99116200D01*
G75*
G02*
X327377500Y-99263700I-147500J0D01*
G01*
X327082500Y-99263700D01*
G75*
G02*
X326935000Y-99116200I0J147500D01*
G01*
G37*
G36*
G01*
X325965000Y-99116200D02*
X325965000Y-98771200D01*
G75*
G02*
X326112500Y-98623700I147500J0D01*
G01*
X326407500Y-98623700D01*
G75*
G02*
X326555000Y-98771200I0J-147500D01*
G01*
X326555000Y-99116200D01*
G75*
G02*
X326407500Y-99263700I-147500J0D01*
G01*
X326112500Y-99263700D01*
G75*
G02*
X325965000Y-99116200I0J147500D01*
G01*
G37*
%TD*%
%TO.C,C83*%
G36*
G01*
X326935000Y-105542500D02*
X326935000Y-105197500D01*
G75*
G02*
X327082500Y-105050000I147500J0D01*
G01*
X327377500Y-105050000D01*
G75*
G02*
X327525000Y-105197500I0J-147500D01*
G01*
X327525000Y-105542500D01*
G75*
G02*
X327377500Y-105690000I-147500J0D01*
G01*
X327082500Y-105690000D01*
G75*
G02*
X326935000Y-105542500I0J147500D01*
G01*
G37*
G36*
G01*
X325965000Y-105542500D02*
X325965000Y-105197500D01*
G75*
G02*
X326112500Y-105050000I147500J0D01*
G01*
X326407500Y-105050000D01*
G75*
G02*
X326555000Y-105197500I0J-147500D01*
G01*
X326555000Y-105542500D01*
G75*
G02*
X326407500Y-105690000I-147500J0D01*
G01*
X326112500Y-105690000D01*
G75*
G02*
X325965000Y-105542500I0J147500D01*
G01*
G37*
%TD*%
%TO.C,C73*%
G36*
G01*
X326935000Y-86263200D02*
X326935000Y-85918200D01*
G75*
G02*
X327082500Y-85770700I147500J0D01*
G01*
X327377500Y-85770700D01*
G75*
G02*
X327525000Y-85918200I0J-147500D01*
G01*
X327525000Y-86263200D01*
G75*
G02*
X327377500Y-86410700I-147500J0D01*
G01*
X327082500Y-86410700D01*
G75*
G02*
X326935000Y-86263200I0J147500D01*
G01*
G37*
G36*
G01*
X325965000Y-86263200D02*
X325965000Y-85918200D01*
G75*
G02*
X326112500Y-85770700I147500J0D01*
G01*
X326407500Y-85770700D01*
G75*
G02*
X326555000Y-85918200I0J-147500D01*
G01*
X326555000Y-86263200D01*
G75*
G02*
X326407500Y-86410700I-147500J0D01*
G01*
X326112500Y-86410700D01*
G75*
G02*
X325965000Y-86263200I0J147500D01*
G01*
G37*
%TD*%
%TO.C,C64*%
G36*
G01*
X323760000Y-59405000D02*
X323760000Y-59060000D01*
G75*
G02*
X323907500Y-58912500I147500J0D01*
G01*
X324202500Y-58912500D01*
G75*
G02*
X324350000Y-59060000I0J-147500D01*
G01*
X324350000Y-59405000D01*
G75*
G02*
X324202500Y-59552500I-147500J0D01*
G01*
X323907500Y-59552500D01*
G75*
G02*
X323760000Y-59405000I0J147500D01*
G01*
G37*
G36*
G01*
X322790000Y-59405000D02*
X322790000Y-59060000D01*
G75*
G02*
X322937500Y-58912500I147500J0D01*
G01*
X323232500Y-58912500D01*
G75*
G02*
X323380000Y-59060000I0J-147500D01*
G01*
X323380000Y-59405000D01*
G75*
G02*
X323232500Y-59552500I-147500J0D01*
G01*
X322937500Y-59552500D01*
G75*
G02*
X322790000Y-59405000I0J147500D01*
G01*
G37*
%TD*%
%TO.C,C79*%
G36*
G01*
X323760000Y-56191700D02*
X323760000Y-55846700D01*
G75*
G02*
X323907500Y-55699200I147500J0D01*
G01*
X324202500Y-55699200D01*
G75*
G02*
X324350000Y-55846700I0J-147500D01*
G01*
X324350000Y-56191700D01*
G75*
G02*
X324202500Y-56339200I-147500J0D01*
G01*
X323907500Y-56339200D01*
G75*
G02*
X323760000Y-56191700I0J147500D01*
G01*
G37*
G36*
G01*
X322790000Y-56191700D02*
X322790000Y-55846700D01*
G75*
G02*
X322937500Y-55699200I147500J0D01*
G01*
X323232500Y-55699200D01*
G75*
G02*
X323380000Y-55846700I0J-147500D01*
G01*
X323380000Y-56191700D01*
G75*
G02*
X323232500Y-56339200I-147500J0D01*
G01*
X322937500Y-56339200D01*
G75*
G02*
X322790000Y-56191700I0J147500D01*
G01*
G37*
%TD*%
%TO.C,C65*%
G36*
G01*
X320118000Y-116714500D02*
X320118000Y-116369500D01*
G75*
G02*
X320265500Y-116222000I147500J0D01*
G01*
X320560500Y-116222000D01*
G75*
G02*
X320708000Y-116369500I0J-147500D01*
G01*
X320708000Y-116714500D01*
G75*
G02*
X320560500Y-116862000I-147500J0D01*
G01*
X320265500Y-116862000D01*
G75*
G02*
X320118000Y-116714500I0J147500D01*
G01*
G37*
G36*
G01*
X319148000Y-116714500D02*
X319148000Y-116369500D01*
G75*
G02*
X319295500Y-116222000I147500J0D01*
G01*
X319590500Y-116222000D01*
G75*
G02*
X319738000Y-116369500I0J-147500D01*
G01*
X319738000Y-116714500D01*
G75*
G02*
X319590500Y-116862000I-147500J0D01*
G01*
X319295500Y-116862000D01*
G75*
G02*
X319148000Y-116714500I0J147500D01*
G01*
G37*
%TD*%
%TO.C,C59*%
G36*
G01*
X326935000Y-111969500D02*
X326935000Y-111624500D01*
G75*
G02*
X327082500Y-111477000I147500J0D01*
G01*
X327377500Y-111477000D01*
G75*
G02*
X327525000Y-111624500I0J-147500D01*
G01*
X327525000Y-111969500D01*
G75*
G02*
X327377500Y-112117000I-147500J0D01*
G01*
X327082500Y-112117000D01*
G75*
G02*
X326935000Y-111969500I0J147500D01*
G01*
G37*
G36*
G01*
X325965000Y-111969500D02*
X325965000Y-111624500D01*
G75*
G02*
X326112500Y-111477000I147500J0D01*
G01*
X326407500Y-111477000D01*
G75*
G02*
X326555000Y-111624500I0J-147500D01*
G01*
X326555000Y-111969500D01*
G75*
G02*
X326407500Y-112117000I-147500J0D01*
G01*
X326112500Y-112117000D01*
G75*
G02*
X325965000Y-111969500I0J147500D01*
G01*
G37*
%TD*%
%TO.C,C58*%
G36*
G01*
X326935000Y-92689700D02*
X326935000Y-92344700D01*
G75*
G02*
X327082500Y-92197200I147500J0D01*
G01*
X327377500Y-92197200D01*
G75*
G02*
X327525000Y-92344700I0J-147500D01*
G01*
X327525000Y-92689700D01*
G75*
G02*
X327377500Y-92837200I-147500J0D01*
G01*
X327082500Y-92837200D01*
G75*
G02*
X326935000Y-92689700I0J147500D01*
G01*
G37*
G36*
G01*
X325965000Y-92689700D02*
X325965000Y-92344700D01*
G75*
G02*
X326112500Y-92197200I147500J0D01*
G01*
X326407500Y-92197200D01*
G75*
G02*
X326555000Y-92344700I0J-147500D01*
G01*
X326555000Y-92689700D01*
G75*
G02*
X326407500Y-92837200I-147500J0D01*
G01*
X326112500Y-92837200D01*
G75*
G02*
X325965000Y-92689700I0J147500D01*
G01*
G37*
%TD*%
%TO.C,C61*%
G36*
G01*
X323760000Y-65831500D02*
X323760000Y-65486500D01*
G75*
G02*
X323907500Y-65339000I147500J0D01*
G01*
X324202500Y-65339000D01*
G75*
G02*
X324350000Y-65486500I0J-147500D01*
G01*
X324350000Y-65831500D01*
G75*
G02*
X324202500Y-65979000I-147500J0D01*
G01*
X323907500Y-65979000D01*
G75*
G02*
X323760000Y-65831500I0J147500D01*
G01*
G37*
G36*
G01*
X322790000Y-65831500D02*
X322790000Y-65486500D01*
G75*
G02*
X322937500Y-65339000I147500J0D01*
G01*
X323232500Y-65339000D01*
G75*
G02*
X323380000Y-65486500I0J-147500D01*
G01*
X323380000Y-65831500D01*
G75*
G02*
X323232500Y-65979000I-147500J0D01*
G01*
X322937500Y-65979000D01*
G75*
G02*
X322790000Y-65831500I0J147500D01*
G01*
G37*
%TD*%
%TO.C,C4*%
G36*
G01*
X326935000Y-55201800D02*
X326935000Y-54856800D01*
G75*
G02*
X327082500Y-54709300I147500J0D01*
G01*
X327377500Y-54709300D01*
G75*
G02*
X327525000Y-54856800I0J-147500D01*
G01*
X327525000Y-55201800D01*
G75*
G02*
X327377500Y-55349300I-147500J0D01*
G01*
X327082500Y-55349300D01*
G75*
G02*
X326935000Y-55201800I0J147500D01*
G01*
G37*
G36*
G01*
X325965000Y-55201800D02*
X325965000Y-54856800D01*
G75*
G02*
X326112500Y-54709300I147500J0D01*
G01*
X326407500Y-54709300D01*
G75*
G02*
X326555000Y-54856800I0J-147500D01*
G01*
X326555000Y-55201800D01*
G75*
G02*
X326407500Y-55349300I-147500J0D01*
G01*
X326112500Y-55349300D01*
G75*
G02*
X325965000Y-55201800I0J147500D01*
G01*
G37*
%TD*%
%TO.C,C7*%
G36*
G01*
X326935000Y-57343900D02*
X326935000Y-56998900D01*
G75*
G02*
X327082500Y-56851400I147500J0D01*
G01*
X327377500Y-56851400D01*
G75*
G02*
X327525000Y-56998900I0J-147500D01*
G01*
X327525000Y-57343900D01*
G75*
G02*
X327377500Y-57491400I-147500J0D01*
G01*
X327082500Y-57491400D01*
G75*
G02*
X326935000Y-57343900I0J147500D01*
G01*
G37*
G36*
G01*
X325965000Y-57343900D02*
X325965000Y-56998900D01*
G75*
G02*
X326112500Y-56851400I147500J0D01*
G01*
X326407500Y-56851400D01*
G75*
G02*
X326555000Y-56998900I0J-147500D01*
G01*
X326555000Y-57343900D01*
G75*
G02*
X326407500Y-57491400I-147500J0D01*
G01*
X326112500Y-57491400D01*
G75*
G02*
X325965000Y-57343900I0J147500D01*
G01*
G37*
%TD*%
%TO.C,C10*%
G36*
G01*
X326935000Y-85192100D02*
X326935000Y-84847100D01*
G75*
G02*
X327082500Y-84699600I147500J0D01*
G01*
X327377500Y-84699600D01*
G75*
G02*
X327525000Y-84847100I0J-147500D01*
G01*
X327525000Y-85192100D01*
G75*
G02*
X327377500Y-85339600I-147500J0D01*
G01*
X327082500Y-85339600D01*
G75*
G02*
X326935000Y-85192100I0J147500D01*
G01*
G37*
G36*
G01*
X325965000Y-85192100D02*
X325965000Y-84847100D01*
G75*
G02*
X326112500Y-84699600I147500J0D01*
G01*
X326407500Y-84699600D01*
G75*
G02*
X326555000Y-84847100I0J-147500D01*
G01*
X326555000Y-85192100D01*
G75*
G02*
X326407500Y-85339600I-147500J0D01*
G01*
X326112500Y-85339600D01*
G75*
G02*
X325965000Y-85192100I0J147500D01*
G01*
G37*
%TD*%
%TO.C,C14*%
G36*
G01*
X326935000Y-91618600D02*
X326935000Y-91273600D01*
G75*
G02*
X327082500Y-91126100I147500J0D01*
G01*
X327377500Y-91126100D01*
G75*
G02*
X327525000Y-91273600I0J-147500D01*
G01*
X327525000Y-91618600D01*
G75*
G02*
X327377500Y-91766100I-147500J0D01*
G01*
X327082500Y-91766100D01*
G75*
G02*
X326935000Y-91618600I0J147500D01*
G01*
G37*
G36*
G01*
X325965000Y-91618600D02*
X325965000Y-91273600D01*
G75*
G02*
X326112500Y-91126100I147500J0D01*
G01*
X326407500Y-91126100D01*
G75*
G02*
X326555000Y-91273600I0J-147500D01*
G01*
X326555000Y-91618600D01*
G75*
G02*
X326407500Y-91766100I-147500J0D01*
G01*
X326112500Y-91766100D01*
G75*
G02*
X325965000Y-91618600I0J147500D01*
G01*
G37*
%TD*%
%TO.C,C2*%
G36*
G01*
X323298000Y-113511500D02*
X323298000Y-113166500D01*
G75*
G02*
X323445500Y-113019000I147500J0D01*
G01*
X323740500Y-113019000D01*
G75*
G02*
X323888000Y-113166500I0J-147500D01*
G01*
X323888000Y-113511500D01*
G75*
G02*
X323740500Y-113659000I-147500J0D01*
G01*
X323445500Y-113659000D01*
G75*
G02*
X323298000Y-113511500I0J147500D01*
G01*
G37*
G36*
G01*
X322328000Y-113511500D02*
X322328000Y-113166500D01*
G75*
G02*
X322475500Y-113019000I147500J0D01*
G01*
X322770500Y-113019000D01*
G75*
G02*
X322918000Y-113166500I0J-147500D01*
G01*
X322918000Y-113511500D01*
G75*
G02*
X322770500Y-113659000I-147500J0D01*
G01*
X322475500Y-113659000D01*
G75*
G02*
X322328000Y-113511500I0J147500D01*
G01*
G37*
%TD*%
%TO.C,C12*%
G36*
G01*
X326928000Y-54183100D02*
X326928000Y-53838100D01*
G75*
G02*
X327075500Y-53690600I147500J0D01*
G01*
X327370500Y-53690600D01*
G75*
G02*
X327518000Y-53838100I0J-147500D01*
G01*
X327518000Y-54183100D01*
G75*
G02*
X327370500Y-54330600I-147500J0D01*
G01*
X327075500Y-54330600D01*
G75*
G02*
X326928000Y-54183100I0J147500D01*
G01*
G37*
G36*
G01*
X325958000Y-54183100D02*
X325958000Y-53838100D01*
G75*
G02*
X326105500Y-53690600I147500J0D01*
G01*
X326400500Y-53690600D01*
G75*
G02*
X326548000Y-53838100I0J-147500D01*
G01*
X326548000Y-54183100D01*
G75*
G02*
X326400500Y-54330600I-147500J0D01*
G01*
X326105500Y-54330600D01*
G75*
G02*
X325958000Y-54183100I0J147500D01*
G01*
G37*
%TD*%
%TO.C,C1*%
G36*
G01*
X326935000Y-98045100D02*
X326935000Y-97700100D01*
G75*
G02*
X327082500Y-97552600I147500J0D01*
G01*
X327377500Y-97552600D01*
G75*
G02*
X327525000Y-97700100I0J-147500D01*
G01*
X327525000Y-98045100D01*
G75*
G02*
X327377500Y-98192600I-147500J0D01*
G01*
X327082500Y-98192600D01*
G75*
G02*
X326935000Y-98045100I0J147500D01*
G01*
G37*
G36*
G01*
X325965000Y-98045100D02*
X325965000Y-97700100D01*
G75*
G02*
X326112500Y-97552600I147500J0D01*
G01*
X326407500Y-97552600D01*
G75*
G02*
X326555000Y-97700100I0J-147500D01*
G01*
X326555000Y-98045100D01*
G75*
G02*
X326407500Y-98192600I-147500J0D01*
G01*
X326112500Y-98192600D01*
G75*
G02*
X325965000Y-98045100I0J147500D01*
G01*
G37*
%TD*%
M02*
