M48
; DRILL file {KiCad (5.1.10)-1} date 10/06/21 10:11:20
; FORMAT={-:-/ absolute / metric / decimal}
; #@! TF.CreationDate,2021-10-06T10:11:20-07:00
; #@! TF.GenerationSoftware,Kicad,Pcbnew,(5.1.10)-1
; #@! TF.FileFunction,Plated,1,2,PTH
FMAT,2
METRIC
T1C0.400
T2C0.650
%
G90
G05
T1
X33.968Y-48.42
X37.918Y-40.78
X38.263Y-70.957
X39.159Y-75.145
X40.631Y-75.587
X42.272Y-23.669
X42.51Y-90.789
X45.49Y-42.715
X52.964Y-41.537
X55.738Y-52.262
X55.954Y-48.357
X56.478Y-41.545
X58.184Y-84.481
X59.329Y-68.88
X60.019Y-45.945
X61.325Y-94.243
X63.969Y-30.031
X70.543Y-79.43
X73.304Y-48.067
X74.061Y-24.841
X74.184Y-44.931
X75.912Y-53.437
X76.876Y-88.861
X78.353Y-86.667
X78.704Y-45.917
X80.348Y-68.88
X81.313Y-21.131
X82.312Y-84.035
X82.602Y-114.494
X82.889Y-85.683
X82.897Y-86.74
X85.055Y-49.018
X85.729Y-50.432
X86.444Y-49.68
X86.685Y-51.186
X88.053Y-85.357
X88.345Y-51.807
X88.604Y-49.051
X89.671Y-84.137
X90.885Y-47.222
X92.098Y-84.116
X93.343Y-59.602
X94.794Y-26.776
X96.095Y-26.022
X96.305Y-47.156
X97.538Y-45.585
X99.647Y-24.841
X99.676Y-66.041
X100.264Y-65.213
X102.047Y-45.807
X103.955Y-44.834
X105.914Y-50.454
X106.042Y-18.445
X106.308Y-45.269
X107.62Y-78.928
X107.993Y-84.147
X108.046Y-68.562
X112.206Y-47.166
X112.715Y-46.257
X113.297Y-89.082
X114.767Y-23.64
X114.858Y-26.802
X114.891Y-85.801
X119.68Y-72.618
X119.842Y-90.388
X119.937Y-60.417
X121.046Y-31.017
X121.165Y-58.094
X121.252Y-23.819
X121.306Y-78.02
X123.058Y-20.008
X123.153Y-119.811
X123.365Y-83.723
X123.487Y-46.257
X124.589Y-50.48
X125.591Y-85.033
X125.704Y-82.21
X126.236Y-45.719
X126.398Y-53.952
X128.642Y-22.167
X129.128Y-82.462
X129.218Y-62.411
X129.417Y-64.4
X130.309Y-83.099
X130.859Y-20.991
X131.432Y-27.808
X131.596Y-84.274
X131.916Y-78.432
X133.159Y-24.727
X134.094Y-84.119
X134.395Y-60.417
X134.977Y-87.558
X135.64Y-49.977
X135.716Y-83.604
X135.941Y-26.466
X137.636Y-86.968
X138.084Y-100.129
X138.455Y-29.017
X139.032Y-68.934
X139.973Y-64.05
X141.16Y-29.803
X141.348Y-77.862
X142.619Y-84.136
X142.854Y-61.793
X143.058Y-99.442
X143.194Y-76.305
X144.06Y-83.526
X144.426Y-47.156
X145.547Y-60.426
X146.416Y-92.209
X146.691Y-83.55
X147.428Y-92.102
X148.444Y-83.394
X148.569Y-68.555
X149.248Y-88.122
X149.371Y-92.674
X149.723Y-46.691
X150.615Y-48.52
X152.349Y-53.431
X154.154Y-66.592
X154.695Y-34.375
X155.068Y-47.76
X156.839Y-73.043
X157.043Y-67.768
X157.124Y-102.917
X157.691Y-39.463
X157.912Y-85.389
X158.28Y-46.205
X158.927Y-77.52
X158.965Y-70.298
X158.986Y-103.661
X159.679Y-69.492
X160.205Y-34.46
X161.17Y-47.083
X161.222Y-45.632
X161.306Y-121.377
X162.384Y-64.05
X162.438Y-85.157
X162.773Y-49.964
X164.54Y-45.931
X164.953Y-40.781
X166.303Y-60.561
X166.992Y-83.689
X167.834Y-45.629
X168.491Y-54.288
X169.2Y-83.87
X169.239Y-69.57
X169.269Y-66.046
X170.41Y-31.46
X170.573Y-78.975
X171.792Y-45.961
X171.809Y-84.11
X172.629Y-83.206
X172.889Y-51.2
X173.453Y-34.352
X173.869Y-83.261
X174.13Y-81.705
X174.716Y-47.121
X176.784Y-119.161
X177.53Y-48.848
X177.618Y-67.575
X178.376Y-84.884
X180.687Y-92.918
X180.893Y-49.634
X181.147Y-82.037
X182.103Y-118.474
X182.598Y-82.487
X182.71Y-49.626
X182.725Y-92.193
X183.508Y-87.381
X183.83Y-83.178
X185.623Y-38.442
X187.447Y-39.298
X187.799Y-87.828
X187.853Y-25.686
X188.307Y-89.995
X188.381Y-47.326
X188.505Y-69.19
X189.133Y-79.516
X190.113Y-49.037
X190.486Y-89.775
X192.004Y-49.551
X192.177Y-89.119
X192.541Y-83.216
X192.721Y-51.425
X192.8Y-67.633
X193.525Y-101.103
X194.066Y-46.566
X194.382Y-83.448
X194.514Y-59.514
X195.788Y-88.279
X195.812Y-49.428
X196.501Y-84.096
X197.432Y-83.232
X197.87Y-28.258
X198.134Y-45.84
X198.657Y-66.89
X198.715Y-100.99
X198.921Y-82.769
X199.03Y-57.87
X199.718Y-86.478
X199.826Y-58.623
X200.081Y-49.408
X201.267Y-44.141
X202.377Y-17.245
X202.7Y-101.158
X202.736Y-43.976
X203.109Y-45.929
X204.336Y-98.09
X204.464Y-84.022
X205.268Y-47.156
X205.645Y-72.753
X205.668Y-100.149
X206.265Y-68.013
X206.565Y-26.856
X206.74Y-24.734
X207.319Y-90.456
X207.533Y-48.745
X209.272Y-41.767
X209.31Y-45.049
X209.886Y-83.522
X209.951Y-23.793
X210.491Y-47.844
X210.731Y-86.511
X211.433Y-56.807
X211.522Y-79.734
X213.062Y-59.513
X213.282Y-49.807
X214.111Y-100.102
X214.213Y-84.154
X216.543Y-68.262
X217.172Y-41.492
X217.554Y-84.154
X218.601Y-61.775
X220.029Y-53.387
X221.315Y-87.467
X221.444Y-34.921
X221.532Y-46.368
X222.117Y-39.517
X222.521Y-86.599
X222.982Y-40.36
X223.292Y-82.524
X224.648Y-86.661
X224.829Y-83.905
X224.837Y-60.142
X224.867Y-73.163
X226.42Y-79.823
X228.052Y-67.661
X228.58Y-97.843
X228.654Y-51.769
X228.829Y-64.626
X231.076Y-60.867
X231.21Y-104.098
X231.228Y-119.173
X231.594Y-64.791
X231.84Y-87.646
X231.972Y-73.438
X232.329Y-47.493
X232.465Y-35.348
X232.602Y-68.139
X233.288Y-81.818
X233.294Y-72.65
X233.854Y-60.142
X233.995Y-35.806
X234.166Y-63.129
X234.181Y-83.613
X234.96Y-104.824
X235.085Y-25.371
X235.168Y-91.803
X236.075Y-34.59
X236.093Y-82.172
X236.114Y-64.818
X236.299Y-117.866
X236.322Y-61.57
X236.776Y-47.156
X236.924Y-100.982
X237.479Y-93.255
X237.686Y-37.973
X238.03Y-83.94
X238.128Y-97.575
X238.323Y-64.987
X239.485Y-39.477
X239.851Y-16.863
X240.076Y-47.439
X241.201Y-93.153
X241.508Y-41.12
X241.842Y-96.138
X241.856Y-37.151
X241.967Y-94.945
X242.056Y-91.665
X242.215Y-85.269
X242.217Y-47.156
X243.236Y-57.914
X244.055Y-88.909
X244.2Y-106.51
X244.377Y-29.476
X244.399Y-45.243
X244.691Y-107.435
X246.225Y-11.282
X246.433Y-49.68
X247.321Y-29.074
X247.86Y-11.32
X248.099Y-23.882
X248.169Y-85.449
X248.352Y-29.074
X248.386Y-31.472
X248.46Y-64.831
X248.543Y-45.645
X248.677Y-34.951
X248.727Y-47.919
X249.628Y-30.747
X250.151Y-83.018
X250.252Y-67.373
X250.649Y-30.76
X250.651Y-41.678
X250.853Y-59.683
X251.071Y-84.15
X251.231Y-61.242
X251.532Y-87.134
X251.626Y-62.812
X253.422Y-83.844
X253.465Y-37.87
X253.471Y-63.537
X254.099Y-86.951
X254.112Y-65.047
X254.517Y-30.922
X255.195Y-41.678
X255.281Y-64.1
X255.449Y-77.553
X255.513Y-80.25
X255.617Y-87.964
X256.335Y-58.401
X258.267Y-84.92
X258.477Y-92.797
X258.552Y-47.156
X258.659Y-50.834
X259.033Y-23.874
X259.293Y-32.49
X259.854Y-20.991
X260.043Y-37.457
X261.773Y-92.071
X262.603Y-45.041
X262.87Y-65.035
X263.03Y-24.882
X263.438Y-84.707
X264.002Y-46.319
X264.03Y-24.457
X264.533Y-47.274
X265.13Y-67.658
X265.306Y-30.564
X265.481Y-24.623
X265.481Y-54.314
X265.59Y-45.593
X266.345Y-40.762
X266.826Y-108.371
X267.108Y-23.981
X267.208Y-65.498
X267.38Y-16.206
X267.857Y-26.072
X269.447Y-85.616
X269.726Y-73.63
X270.184Y-87.225
X270.576Y-47.895
X270.792Y-101.464
X271.101Y-59.091
X271.639Y-24.825
X273.058Y-49.245
X273.64Y-62.799
X273.965Y-88.56
X274.755Y-62.895
X279.562Y-73.238
X281.988Y-47.988
X282.688Y-25.273
X282.887Y-34.878
X287.709Y-25.847
X289.094Y-66.024
X289.197Y-77.12
X290.618Y-39.623
X291.435Y-24.99
X293.59Y-22.188
X293.714Y-39.051
X293.732Y-96.618
X294.236Y-43.983
X294.583Y-51.16
X297.193Y-60.285
X298.853Y-91.939
X299.436Y-79.754
X299.555Y-105.644
X299.653Y-102.375
X299.659Y-42.331
X299.814Y-83.679
X300.181Y-94.85
X300.614Y-105.288
X300.839Y-58.821
X301.156Y-93.017
X302.058Y-45.356
X302.62Y-98.167
X302.843Y-110.419
X304.894Y-94.068
X305.192Y-100.44
X305.509Y-89.169
X305.81Y-98.539
X305.98Y-80.542
X306.323Y-100.793
X306.455Y-96.188
X306.493Y-34.541
X306.517Y-92.325
X306.998Y-71.218
X307.159Y-78.526
X307.323Y-101.037
X307.34Y-105.95
X308.14Y-96.889
X308.294Y-39.378
X308.393Y-41.126
X308.661Y-98.877
X308.793Y-89.714
X309.041Y-97.415
X309.147Y-101.884
X309.458Y-106.486
X309.721Y-93.239
X310.223Y-79.138
X310.409Y-24.683
X310.475Y-87.942
X310.486Y-99.85
X310.549Y-97.851
X310.555Y-52.503
X310.796Y-106.486
X311.02Y-90.329
X311.559Y-52.481
X311.596Y-54.932
X311.934Y-22.645
X312.348Y-88.315
X312.354Y-56.291
X312.816Y-77.006
X313.028Y-40.041
X313.333Y-28.648
X313.396Y-52.062
X314.216Y-42.064
X314.295Y-72.097
X314.961Y-74.773
X314.981Y-59.852
X315.745Y-72.68
X316.48Y-118.817
X316.589Y-14.44
X316.996Y-56.361
X317.29Y-90.141
X317.434Y-114.26
X317.744Y-51.099
X318.045Y-85.988
X318.084Y-100.107
X318.473Y-57.277
X318.552Y-83.282
X318.6Y-111.5
X318.798Y-91.32
X318.894Y-13.546
X318.953Y-41.119
X319.618Y-92.055
X319.672Y-118.233
X320.215Y-93.553
X320.249Y-91.102
X321.111Y-13.095
X321.646Y-101.644
X321.648Y-14.74
X321.669Y-104.887
X321.669Y-49.427
X322.689Y-22.914
X323.169Y-104.661
X323.689Y-106.317
X325.237Y-24.046
X325.264Y-22.974
X329.034Y-43.703
X330.7Y-103.356
X332.987Y-63.172
X334.325Y-24.012
X334.861Y-103.151
X337.455Y-72.594
X338.197Y-104.466
X343.678Y-106.001
X344.653Y-105.086
X344.657Y-102.171
X356.85Y-102.076
X357.856Y-95.148
X360.787Y-77.34
X361.206Y-97.065
X362.577Y-75.55
X362.84Y-105.778
X363.712Y-65.477
X365.912Y-100.419
X365.915Y-96.158
X365.938Y-61.865
X369.099Y-82.616
X369.223Y-102.952
X375.06Y-68.669
T2
X313.741Y-107.34
X313.741Y-108.61
X313.741Y-109.88
X313.741Y-111.15
X313.741Y-112.42
X313.741Y-113.69
X313.741Y-114.96
X315.011Y-107.34
X315.011Y-108.61
X315.011Y-109.88
X315.011Y-111.15
X315.011Y-112.42
X315.011Y-113.69
X315.011Y-114.96
T0
M30
