%TF.GenerationSoftware,KiCad,Pcbnew,(5.1.10)-1*%
%TF.CreationDate,2021-10-06T10:11:25-07:00*%
%TF.ProjectId,chgray-keyboard,63686772-6179-42d6-9b65-79626f617264,Yeet2*%
%TF.SameCoordinates,Original*%
%TF.FileFunction,Legend,Bot*%
%TF.FilePolarity,Positive*%
%FSLAX46Y46*%
G04 Gerber Fmt 4.6, Leading zero omitted, Abs format (unit mm)*
G04 Created by KiCad (PCBNEW (5.1.10)-1) date 2021-10-06 10:11:25*
%MOMM*%
%LPD*%
G01*
G04 APERTURE LIST*
%ADD10C,0.100000*%
%ADD11C,0.950000*%
G04 APERTURE END LIST*
D10*
G36*
X247015000Y-47625000D02*
G01*
X232410000Y-109061250D01*
X147955000Y-92868750D01*
X165100000Y-71596250D01*
X207010000Y-67786250D01*
X202565000Y-78581250D01*
X161290000Y-88423750D01*
X212090000Y-95408750D01*
X227330000Y-84296250D01*
X217805000Y-50006250D01*
X190023750Y-51196875D01*
X202406250Y-36115625D01*
X247015000Y-47625000D01*
G37*
X247015000Y-47625000D02*
X232410000Y-109061250D01*
X147955000Y-92868750D01*
X165100000Y-71596250D01*
X207010000Y-67786250D01*
X202565000Y-78581250D01*
X161290000Y-88423750D01*
X212090000Y-95408750D01*
X227330000Y-84296250D01*
X217805000Y-50006250D01*
X190023750Y-51196875D01*
X202406250Y-36115625D01*
X247015000Y-47625000D01*
G36*
X328279760Y-37480240D02*
G01*
X328914760Y-38115240D01*
X360029760Y-95900240D01*
X305419760Y-114315240D01*
X238744760Y-92090240D01*
X250174760Y-78120240D01*
X323834760Y-91455240D01*
X304784760Y-29860240D01*
X328279760Y-37480240D01*
G37*
X328279760Y-37480240D02*
X328914760Y-38115240D01*
X360029760Y-95900240D01*
X305419760Y-114315240D01*
X238744760Y-92090240D01*
X250174760Y-78120240D01*
X323834760Y-91455240D01*
X304784760Y-29860240D01*
X328279760Y-37480240D01*
D11*
X32035523Y-39277809D02*
X32035523Y-37373047D01*
X28035523Y-37373047D01*
X28035523Y-41373047D02*
X28035523Y-42134952D01*
X28226000Y-42515904D01*
X28606952Y-42896857D01*
X29368857Y-43087333D01*
X30702190Y-43087333D01*
X31464095Y-42896857D01*
X31845047Y-42515904D01*
X32035523Y-42134952D01*
X32035523Y-41373047D01*
X31845047Y-40992095D01*
X31464095Y-40611142D01*
X30702190Y-40420666D01*
X29368857Y-40420666D01*
X28606952Y-40611142D01*
X28226000Y-40992095D01*
X28035523Y-41373047D01*
X28226000Y-46896857D02*
X28035523Y-46515904D01*
X28035523Y-45944476D01*
X28226000Y-45373047D01*
X28606952Y-44992095D01*
X28987904Y-44801619D01*
X29749809Y-44611142D01*
X30321238Y-44611142D01*
X31083142Y-44801619D01*
X31464095Y-44992095D01*
X31845047Y-45373047D01*
X32035523Y-45944476D01*
X32035523Y-46325428D01*
X31845047Y-46896857D01*
X31654571Y-47087333D01*
X30321238Y-47087333D01*
X30321238Y-46325428D01*
X28035523Y-49563523D02*
X28035523Y-49944476D01*
X28226000Y-50325428D01*
X28416476Y-50515904D01*
X28797428Y-50706380D01*
X29559333Y-50896857D01*
X30511714Y-50896857D01*
X31273619Y-50706380D01*
X31654571Y-50515904D01*
X31845047Y-50325428D01*
X32035523Y-49944476D01*
X32035523Y-49563523D01*
X31845047Y-49182571D01*
X31654571Y-48992095D01*
X31273619Y-48801619D01*
X30511714Y-48611142D01*
X29559333Y-48611142D01*
X28797428Y-48801619D01*
X28416476Y-48992095D01*
X28226000Y-49182571D01*
X28035523Y-49563523D01*
X31654571Y-52611142D02*
X31845047Y-52801619D01*
X32035523Y-52611142D01*
X31845047Y-52420666D01*
X31654571Y-52611142D01*
X32035523Y-52611142D01*
X32035523Y-54515904D02*
X28035523Y-54515904D01*
X32035523Y-56801619D02*
X29749809Y-55087333D01*
X28035523Y-56801619D02*
X30321238Y-54515904D01*
X31845047Y-60039714D02*
X32035523Y-59658761D01*
X32035523Y-58896857D01*
X31845047Y-58515904D01*
X31464095Y-58325428D01*
X29940285Y-58325428D01*
X29559333Y-58515904D01*
X29368857Y-58896857D01*
X29368857Y-59658761D01*
X29559333Y-60039714D01*
X29940285Y-60230190D01*
X30321238Y-60230190D01*
X30702190Y-58325428D01*
X29368857Y-61563523D02*
X32035523Y-62515904D01*
X29368857Y-63468285D02*
X32035523Y-62515904D01*
X32987904Y-62134952D01*
X33178380Y-61944476D01*
X33368857Y-61563523D01*
X31654571Y-64992095D02*
X31845047Y-65182571D01*
X32035523Y-64992095D01*
X31845047Y-64801619D01*
X31654571Y-64992095D01*
X32035523Y-64992095D01*
X30130761Y-67658761D02*
X32035523Y-67658761D01*
X28035523Y-66325428D02*
X30130761Y-67658761D01*
X28035523Y-68992095D01*
X31845047Y-71849238D02*
X32035523Y-71468285D01*
X32035523Y-70706380D01*
X31845047Y-70325428D01*
X31464095Y-70134952D01*
X29940285Y-70134952D01*
X29559333Y-70325428D01*
X29368857Y-70706380D01*
X29368857Y-71468285D01*
X29559333Y-71849238D01*
X29940285Y-72039714D01*
X30321238Y-72039714D01*
X30702190Y-70134952D01*
X31845047Y-75277809D02*
X32035523Y-74896857D01*
X32035523Y-74134952D01*
X31845047Y-73754000D01*
X31464095Y-73563523D01*
X29940285Y-73563523D01*
X29559333Y-73754000D01*
X29368857Y-74134952D01*
X29368857Y-74896857D01*
X29559333Y-75277809D01*
X29940285Y-75468285D01*
X30321238Y-75468285D01*
X30702190Y-73563523D01*
X29368857Y-76611142D02*
X29368857Y-78134952D01*
X28035523Y-77182571D02*
X31464095Y-77182571D01*
X31845047Y-77373047D01*
X32035523Y-77754000D01*
X32035523Y-78134952D01*
X28035523Y-82134952D02*
X28035523Y-84611142D01*
X29559333Y-83277809D01*
X29559333Y-83849238D01*
X29749809Y-84230190D01*
X29940285Y-84420666D01*
X30321238Y-84611142D01*
X31273619Y-84611142D01*
X31654571Y-84420666D01*
X31845047Y-84230190D01*
X32035523Y-83849238D01*
X32035523Y-82706380D01*
X31845047Y-82325428D01*
X31654571Y-82134952D01*
X31654571Y-86325428D02*
X31845047Y-86515904D01*
X32035523Y-86325428D01*
X31845047Y-86134952D01*
X31654571Y-86325428D01*
X32035523Y-86325428D01*
X32035523Y-90325428D02*
X32035523Y-88039714D01*
X32035523Y-89182571D02*
X28035523Y-89182571D01*
X28606952Y-88801619D01*
X28987904Y-88420666D01*
X29178380Y-88039714D01*
M02*
