%TF.GenerationSoftware,KiCad,Pcbnew,(5.1.10)-1*%
%TF.CreationDate,2021-11-17T09:30:16-08:00*%
%TF.ProjectId,chgray-keyboard,63686772-6179-42d6-9b65-79626f617264,Yeet2*%
%TF.SameCoordinates,Original*%
%TF.FileFunction,Other,User*%
%FSLAX46Y46*%
G04 Gerber Fmt 4.6, Leading zero omitted, Abs format (unit mm)*
G04 Created by KiCad (PCBNEW (5.1.10)-1) date 2021-11-17 09:30:16*
%MOMM*%
%LPD*%
G01*
G04 APERTURE LIST*
%ADD10C,0.050000*%
%ADD11C,0.120000*%
G04 APERTURE END LIST*
D10*
%TO.C,J2*%
X325482000Y-2981000D02*
X325492000Y-6481000D01*
X323942000Y-8481000D02*
X325492000Y-8481000D01*
X325492000Y-6481000D02*
X323942000Y-6481000D01*
X323942000Y-2981000D02*
X325482000Y-2981000D01*
X313692000Y-6481000D02*
X313692000Y-2981000D01*
X313692000Y-8481000D02*
X315242000Y-8481000D01*
X315242000Y-6481000D02*
X313692000Y-6481000D01*
X313692000Y-2981000D02*
X315242000Y-2981000D01*
X315242000Y-8481000D02*
X315242000Y-6481000D01*
X323942000Y-6481000D02*
X323942000Y-8481000D01*
X315242000Y-2981000D02*
X315242000Y-1231000D01*
X323942000Y-1231000D02*
X323942000Y-2981000D01*
X315242000Y-1231000D02*
X323942000Y-1231000D01*
X313692000Y-11981000D02*
X313692000Y-8481000D01*
X325492000Y-11981000D02*
X313692000Y-11981000D01*
X325492000Y-8481000D02*
X325492000Y-11981000D01*
%TO.C,D94*%
X115322000Y-46005600D02*
X119722000Y-46005600D01*
X119722000Y-46005600D02*
X119722000Y-48305600D01*
X119722000Y-48305600D02*
X115322000Y-48305600D01*
X115322000Y-46005600D02*
X115322000Y-48305600D01*
%TO.C,D93*%
X262394000Y-46005600D02*
X266794000Y-46005600D01*
X266794000Y-46005600D02*
X266794000Y-48305600D01*
X266794000Y-48305600D02*
X262394000Y-48305600D01*
X262394000Y-46005600D02*
X262394000Y-48305600D01*
%TO.C,D92*%
X251500000Y-46005600D02*
X255900000Y-46005600D01*
X255900000Y-46005600D02*
X255900000Y-48305600D01*
X255900000Y-48305600D02*
X251500000Y-48305600D01*
X251500000Y-46005600D02*
X251500000Y-48305600D01*
%TO.C,D91*%
X240606000Y-46005600D02*
X245006000Y-46005600D01*
X245006000Y-46005600D02*
X245006000Y-48305600D01*
X245006000Y-48305600D02*
X240606000Y-48305600D01*
X240606000Y-46005600D02*
X240606000Y-48305600D01*
%TO.C,D90*%
X224264000Y-46005600D02*
X228664000Y-46005600D01*
X228664000Y-46005600D02*
X228664000Y-48305600D01*
X228664000Y-48305600D02*
X224264000Y-48305600D01*
X224264000Y-46005600D02*
X224264000Y-48305600D01*
%TO.C,D89*%
X213370000Y-46005600D02*
X217770000Y-46005600D01*
X217770000Y-46005600D02*
X217770000Y-48305600D01*
X217770000Y-48305600D02*
X213370000Y-48305600D01*
X213370000Y-46005600D02*
X213370000Y-48305600D01*
%TO.C,D88*%
X197029000Y-46005600D02*
X201429000Y-46005600D01*
X201429000Y-46005600D02*
X201429000Y-48305600D01*
X201429000Y-48305600D02*
X197029000Y-48305600D01*
X197029000Y-46005600D02*
X197029000Y-48305600D01*
%TO.C,D87*%
X120769000Y-46005600D02*
X125169000Y-46005600D01*
X125169000Y-46005600D02*
X125169000Y-48305600D01*
X125169000Y-48305600D02*
X120769000Y-48305600D01*
X120769000Y-46005600D02*
X120769000Y-48305600D01*
%TO.C,D86*%
X164346000Y-46005600D02*
X168746000Y-46005600D01*
X168746000Y-46005600D02*
X168746000Y-48305600D01*
X168746000Y-48305600D02*
X164346000Y-48305600D01*
X164346000Y-46005600D02*
X164346000Y-48305600D01*
%TO.C,D85*%
X93533600Y-46005600D02*
X97933600Y-46005600D01*
X97933600Y-46005600D02*
X97933600Y-48305600D01*
X97933600Y-48305600D02*
X93533600Y-48305600D01*
X93533600Y-46005600D02*
X93533600Y-48305600D01*
%TO.C,D84*%
X126216000Y-46005600D02*
X130616000Y-46005600D01*
X130616000Y-46005600D02*
X130616000Y-48305600D01*
X130616000Y-48305600D02*
X126216000Y-48305600D01*
X126216000Y-46005600D02*
X126216000Y-48305600D01*
%TO.C,D83*%
X104428000Y-46005600D02*
X108828000Y-46005600D01*
X108828000Y-46005600D02*
X108828000Y-48305600D01*
X108828000Y-48305600D02*
X104428000Y-48305600D01*
X104428000Y-46005600D02*
X104428000Y-48305600D01*
%TO.C,D82*%
X137111000Y-46005600D02*
X141511000Y-46005600D01*
X141511000Y-46005600D02*
X141511000Y-48305600D01*
X141511000Y-48305600D02*
X137111000Y-48305600D01*
X137111000Y-46005600D02*
X137111000Y-48305600D01*
%TO.C,D81*%
X273288000Y-46005600D02*
X277688000Y-46005600D01*
X277688000Y-46005600D02*
X277688000Y-48305600D01*
X277688000Y-48305600D02*
X273288000Y-48305600D01*
X273288000Y-46005600D02*
X273288000Y-48305600D01*
%TO.C,D80*%
X176560000Y-84207200D02*
X180960000Y-84207200D01*
X180960000Y-84207200D02*
X180960000Y-86507200D01*
X180960000Y-86507200D02*
X176560000Y-86507200D01*
X176560000Y-84207200D02*
X176560000Y-86507200D01*
%TO.C,D79*%
X229711000Y-46005600D02*
X234111000Y-46005600D01*
X234111000Y-46005600D02*
X234111000Y-48305600D01*
X234111000Y-48305600D02*
X229711000Y-48305600D01*
X229711000Y-46005600D02*
X229711000Y-48305600D01*
%TO.C,D78*%
X148005000Y-46005600D02*
X152405000Y-46005600D01*
X152405000Y-46005600D02*
X152405000Y-48305600D01*
X152405000Y-48305600D02*
X148005000Y-48305600D01*
X148005000Y-46005600D02*
X148005000Y-48305600D01*
%TO.C,D77*%
X134156000Y-84207200D02*
X138556000Y-84207200D01*
X138556000Y-84207200D02*
X138556000Y-86507200D01*
X138556000Y-86507200D02*
X134156000Y-86507200D01*
X134156000Y-84207200D02*
X134156000Y-86507200D01*
%TO.C,D76*%
X256947000Y-46005600D02*
X261347000Y-46005600D01*
X261347000Y-46005600D02*
X261347000Y-48305600D01*
X261347000Y-48305600D02*
X256947000Y-48305600D01*
X256947000Y-46005600D02*
X256947000Y-48305600D01*
%TO.C,D75*%
X81150400Y-84207200D02*
X85550400Y-84207200D01*
X85550400Y-84207200D02*
X85550400Y-86507200D01*
X85550400Y-86507200D02*
X81150400Y-86507200D01*
X81150400Y-84207200D02*
X81150400Y-86507200D01*
%TO.C,D74*%
X202476000Y-46005600D02*
X206876000Y-46005600D01*
X206876000Y-46005600D02*
X206876000Y-48305600D01*
X206876000Y-48305600D02*
X202476000Y-48305600D01*
X202476000Y-46005600D02*
X202476000Y-48305600D01*
%TO.C,D73*%
X155358000Y-84207200D02*
X159758000Y-84207200D01*
X159758000Y-84207200D02*
X159758000Y-86507200D01*
X159758000Y-86507200D02*
X155358000Y-86507200D01*
X155358000Y-84207200D02*
X155358000Y-86507200D01*
%TO.C,D72*%
X246053000Y-46005600D02*
X250453000Y-46005600D01*
X250453000Y-46005600D02*
X250453000Y-48305600D01*
X250453000Y-48305600D02*
X246053000Y-48305600D01*
X246053000Y-46005600D02*
X246053000Y-48305600D01*
%TO.C,D71*%
X229565000Y-84207200D02*
X233965000Y-84207200D01*
X233965000Y-84207200D02*
X233965000Y-86507200D01*
X233965000Y-86507200D02*
X229565000Y-86507200D01*
X229565000Y-84207200D02*
X229565000Y-86507200D01*
%TO.C,D70*%
X186135000Y-46005600D02*
X190535000Y-46005600D01*
X190535000Y-46005600D02*
X190535000Y-48305600D01*
X190535000Y-48305600D02*
X186135000Y-48305600D01*
X186135000Y-46005600D02*
X186135000Y-48305600D01*
%TO.C,D69*%
X235159000Y-46005600D02*
X239559000Y-46005600D01*
X239559000Y-46005600D02*
X239559000Y-48305600D01*
X239559000Y-48305600D02*
X235159000Y-48305600D01*
X235159000Y-46005600D02*
X235159000Y-48305600D01*
%TO.C,D68*%
X218817000Y-46005600D02*
X223217000Y-46005600D01*
X223217000Y-46005600D02*
X223217000Y-48305600D01*
X223217000Y-48305600D02*
X218817000Y-48305600D01*
X218817000Y-46005600D02*
X218817000Y-48305600D01*
%TO.C,D67*%
X70549400Y-84207200D02*
X74949400Y-84207200D01*
X74949400Y-84207200D02*
X74949400Y-86507200D01*
X74949400Y-86507200D02*
X70549400Y-86507200D01*
X70549400Y-84207200D02*
X70549400Y-86507200D01*
%TO.C,D66*%
X363072000Y-103511000D02*
X367472000Y-103511000D01*
X367472000Y-103511000D02*
X367472000Y-105811000D01*
X367472000Y-105811000D02*
X363072000Y-105811000D01*
X363072000Y-103511000D02*
X363072000Y-105811000D01*
%TO.C,D65*%
X144757000Y-84207200D02*
X149157000Y-84207200D01*
X149157000Y-84207200D02*
X149157000Y-86507200D01*
X149157000Y-86507200D02*
X144757000Y-86507200D01*
X144757000Y-84207200D02*
X144757000Y-86507200D01*
%TO.C,D64*%
X171259000Y-84207200D02*
X175659000Y-84207200D01*
X175659000Y-84207200D02*
X175659000Y-86507200D01*
X175659000Y-86507200D02*
X171259000Y-86507200D01*
X171259000Y-84207200D02*
X171259000Y-86507200D01*
%TO.C,D63*%
X203062000Y-84207200D02*
X207462000Y-84207200D01*
X207462000Y-84207200D02*
X207462000Y-86507200D01*
X207462000Y-86507200D02*
X203062000Y-86507200D01*
X203062000Y-84207200D02*
X203062000Y-86507200D01*
%TO.C,D62*%
X123555000Y-84207200D02*
X127955000Y-84207200D01*
X127955000Y-84207200D02*
X127955000Y-86507200D01*
X127955000Y-86507200D02*
X123555000Y-86507200D01*
X123555000Y-84207200D02*
X123555000Y-86507200D01*
%TO.C,D61*%
X207923000Y-46005600D02*
X212323000Y-46005600D01*
X212323000Y-46005600D02*
X212323000Y-48305600D01*
X212323000Y-48305600D02*
X207923000Y-48305600D01*
X207923000Y-46005600D02*
X207923000Y-48305600D01*
%TO.C,D60*%
X341870000Y-103511000D02*
X346270000Y-103511000D01*
X346270000Y-103511000D02*
X346270000Y-105811000D01*
X346270000Y-105811000D02*
X341870000Y-105811000D01*
X341870000Y-103511000D02*
X341870000Y-105811000D01*
%TO.C,D59*%
X218964000Y-84207200D02*
X223364000Y-84207200D01*
X223364000Y-84207200D02*
X223364000Y-86507200D01*
X223364000Y-86507200D02*
X218964000Y-86507200D01*
X218964000Y-84207200D02*
X218964000Y-86507200D01*
%TO.C,D58*%
X352471000Y-103511000D02*
X356871000Y-103511000D01*
X356871000Y-103511000D02*
X356871000Y-105811000D01*
X356871000Y-105811000D02*
X352471000Y-105811000D01*
X352471000Y-103511000D02*
X352471000Y-105811000D01*
%TO.C,D57*%
X66298100Y-46005600D02*
X70698100Y-46005600D01*
X70698100Y-46005600D02*
X70698100Y-48305600D01*
X70698100Y-48305600D02*
X66298100Y-48305600D01*
X66298100Y-46005600D02*
X66298100Y-48305600D01*
%TO.C,D56*%
X191582000Y-46005600D02*
X195982000Y-46005600D01*
X195982000Y-46005600D02*
X195982000Y-48305600D01*
X195982000Y-48305600D02*
X191582000Y-48305600D01*
X191582000Y-46005600D02*
X191582000Y-48305600D01*
%TO.C,D55*%
X197762000Y-84207200D02*
X202162000Y-84207200D01*
X202162000Y-84207200D02*
X202162000Y-86507200D01*
X202162000Y-86507200D02*
X197762000Y-86507200D01*
X197762000Y-84207200D02*
X197762000Y-86507200D01*
%TO.C,D54*%
X208363000Y-84207200D02*
X212763000Y-84207200D01*
X212763000Y-84207200D02*
X212763000Y-86507200D01*
X212763000Y-86507200D02*
X208363000Y-86507200D01*
X208363000Y-84207200D02*
X208363000Y-86507200D01*
%TO.C,D53*%
X261368000Y-84207200D02*
X265768000Y-84207200D01*
X265768000Y-84207200D02*
X265768000Y-86507200D01*
X265768000Y-86507200D02*
X261368000Y-86507200D01*
X261368000Y-84207200D02*
X261368000Y-86507200D01*
%TO.C,D52*%
X44315900Y-46056400D02*
X48715900Y-46056400D01*
X48715900Y-46056400D02*
X48715900Y-48356400D01*
X48715900Y-48356400D02*
X44315900Y-48356400D01*
X44315900Y-46056400D02*
X44315900Y-48356400D01*
%TO.C,D51*%
X331269000Y-103511000D02*
X335669000Y-103511000D01*
X335669000Y-103511000D02*
X335669000Y-105811000D01*
X335669000Y-105811000D02*
X331269000Y-105811000D01*
X331269000Y-103511000D02*
X331269000Y-105811000D01*
%TO.C,D50*%
X261984000Y-65093200D02*
X266384000Y-65093200D01*
X266384000Y-65093200D02*
X266384000Y-67393200D01*
X266384000Y-67393200D02*
X261984000Y-67393200D01*
X261984000Y-65093200D02*
X261984000Y-67393200D01*
%TO.C,D49*%
X86450900Y-84207200D02*
X90850900Y-84207200D01*
X90850900Y-84207200D02*
X90850900Y-86507200D01*
X90850900Y-86507200D02*
X86450900Y-86507200D01*
X86450900Y-84207200D02*
X86450900Y-86507200D01*
%TO.C,D48*%
X91751500Y-84207200D02*
X96151500Y-84207200D01*
X96151500Y-84207200D02*
X96151500Y-86507200D01*
X96151500Y-86507200D02*
X91751500Y-86507200D01*
X91751500Y-84207200D02*
X91751500Y-86507200D01*
%TO.C,D47*%
X175240000Y-46005600D02*
X179640000Y-46005600D01*
X179640000Y-46005600D02*
X179640000Y-48305600D01*
X179640000Y-48305600D02*
X175240000Y-48305600D01*
X175240000Y-46005600D02*
X175240000Y-48305600D01*
%TO.C,D46*%
X82639400Y-46005600D02*
X87039400Y-46005600D01*
X87039400Y-46005600D02*
X87039400Y-48305600D01*
X87039400Y-48305600D02*
X82639400Y-48305600D01*
X82639400Y-46005600D02*
X82639400Y-48305600D01*
%TO.C,D45*%
X165959000Y-84207200D02*
X170359000Y-84207200D01*
X170359000Y-84207200D02*
X170359000Y-86507200D01*
X170359000Y-86507200D02*
X165959000Y-86507200D01*
X165959000Y-84207200D02*
X165959000Y-86507200D01*
%TO.C,D44*%
X102352000Y-84207200D02*
X106752000Y-84207200D01*
X106752000Y-84207200D02*
X106752000Y-86507200D01*
X106752000Y-86507200D02*
X102352000Y-86507200D01*
X102352000Y-84207200D02*
X102352000Y-86507200D01*
%TO.C,D43*%
X128855000Y-84207200D02*
X133255000Y-84207200D01*
X133255000Y-84207200D02*
X133255000Y-86507200D01*
X133255000Y-86507200D02*
X128855000Y-86507200D01*
X128855000Y-84207200D02*
X128855000Y-86507200D01*
%TO.C,D42*%
X158899000Y-46005600D02*
X163299000Y-46005600D01*
X163299000Y-46005600D02*
X163299000Y-48305600D01*
X163299000Y-48305600D02*
X158899000Y-48305600D01*
X158899000Y-46005600D02*
X158899000Y-48305600D01*
%TO.C,D41*%
X266668000Y-84207200D02*
X271068000Y-84207200D01*
X271068000Y-84207200D02*
X271068000Y-86507200D01*
X271068000Y-86507200D02*
X266668000Y-86507200D01*
X266668000Y-84207200D02*
X266668000Y-86507200D01*
%TO.C,D40*%
X112954000Y-84207200D02*
X117354000Y-84207200D01*
X117354000Y-84207200D02*
X117354000Y-86507200D01*
X117354000Y-86507200D02*
X112954000Y-86507200D01*
X112954000Y-84207200D02*
X112954000Y-86507200D01*
%TO.C,D39*%
X71745200Y-46005600D02*
X76145200Y-46005600D01*
X76145200Y-46005600D02*
X76145200Y-48305600D01*
X76145200Y-48305600D02*
X71745200Y-48305600D01*
X71745200Y-46005600D02*
X71745200Y-48305600D01*
%TO.C,D38*%
X325968000Y-103511000D02*
X330368000Y-103511000D01*
X330368000Y-103511000D02*
X330368000Y-105811000D01*
X330368000Y-105811000D02*
X325968000Y-105811000D01*
X325968000Y-103511000D02*
X325968000Y-105811000D01*
%TO.C,D37*%
X336569000Y-103511000D02*
X340969000Y-103511000D01*
X340969000Y-103511000D02*
X340969000Y-105811000D01*
X340969000Y-105811000D02*
X336569000Y-105811000D01*
X336569000Y-103511000D02*
X336569000Y-105811000D01*
%TO.C,D36*%
X150057000Y-84207200D02*
X154457000Y-84207200D01*
X154457000Y-84207200D02*
X154457000Y-86507200D01*
X154457000Y-86507200D02*
X150057000Y-86507200D01*
X150057000Y-84207200D02*
X150057000Y-86507200D01*
%TO.C,D35*%
X250767000Y-84207200D02*
X255167000Y-84207200D01*
X255167000Y-84207200D02*
X255167000Y-86507200D01*
X255167000Y-86507200D02*
X250767000Y-86507200D01*
X250767000Y-84207200D02*
X250767000Y-86507200D01*
%TO.C,D34*%
X49956700Y-46005600D02*
X54356700Y-46005600D01*
X54356700Y-46005600D02*
X54356700Y-48305600D01*
X54356700Y-48305600D02*
X49956700Y-48305600D01*
X49956700Y-46005600D02*
X49956700Y-48305600D01*
%TO.C,D33*%
X142558000Y-46005600D02*
X146958000Y-46005600D01*
X146958000Y-46005600D02*
X146958000Y-48305600D01*
X146958000Y-48305600D02*
X142558000Y-48305600D01*
X142558000Y-46005600D02*
X142558000Y-48305600D01*
%TO.C,D32*%
X347170000Y-103511000D02*
X351570000Y-103511000D01*
X351570000Y-103511000D02*
X351570000Y-105811000D01*
X351570000Y-105811000D02*
X347170000Y-105811000D01*
X347170000Y-103511000D02*
X347170000Y-105811000D01*
%TO.C,D31*%
X256067000Y-84207200D02*
X260467000Y-84207200D01*
X260467000Y-84207200D02*
X260467000Y-86507200D01*
X260467000Y-86507200D02*
X256067000Y-86507200D01*
X256067000Y-84207200D02*
X256067000Y-86507200D01*
%TO.C,D30*%
X187161000Y-84207200D02*
X191561000Y-84207200D01*
X191561000Y-84207200D02*
X191561000Y-86507200D01*
X191561000Y-86507200D02*
X187161000Y-86507200D01*
X187161000Y-84207200D02*
X187161000Y-86507200D01*
%TO.C,D29*%
X368372000Y-103511000D02*
X372772000Y-103511000D01*
X372772000Y-103511000D02*
X372772000Y-105811000D01*
X372772000Y-105811000D02*
X368372000Y-105811000D01*
X368372000Y-103511000D02*
X368372000Y-105811000D01*
%TO.C,D28*%
X98981000Y-46005600D02*
X103381000Y-46005600D01*
X103381000Y-46005600D02*
X103381000Y-48305600D01*
X103381000Y-48305600D02*
X98981000Y-48305600D01*
X98981000Y-46005600D02*
X98981000Y-48305600D01*
%TO.C,D27*%
X224264000Y-84207200D02*
X228664000Y-84207200D01*
X228664000Y-84207200D02*
X228664000Y-86507200D01*
X228664000Y-86507200D02*
X224264000Y-86507200D01*
X224264000Y-84207200D02*
X224264000Y-86507200D01*
%TO.C,D26*%
X77192300Y-46005600D02*
X81592300Y-46005600D01*
X81592300Y-46005600D02*
X81592300Y-48305600D01*
X81592300Y-48305600D02*
X77192300Y-48305600D01*
X77192300Y-46005600D02*
X77192300Y-48305600D01*
%TO.C,D25*%
X240166000Y-84207200D02*
X244566000Y-84207200D01*
X244566000Y-84207200D02*
X244566000Y-86507200D01*
X244566000Y-86507200D02*
X240166000Y-86507200D01*
X240166000Y-84207200D02*
X240166000Y-86507200D01*
%TO.C,D24*%
X234865000Y-84207200D02*
X239265000Y-84207200D01*
X239265000Y-84207200D02*
X239265000Y-86507200D01*
X239265000Y-86507200D02*
X234865000Y-86507200D01*
X234865000Y-84207200D02*
X234865000Y-86507200D01*
%TO.C,D23*%
X213663000Y-84207200D02*
X218063000Y-84207200D01*
X218063000Y-84207200D02*
X218063000Y-86507200D01*
X218063000Y-86507200D02*
X213663000Y-86507200D01*
X213663000Y-84207200D02*
X213663000Y-86507200D01*
%TO.C,D22*%
X160658000Y-84207200D02*
X165058000Y-84207200D01*
X165058000Y-84207200D02*
X165058000Y-86507200D01*
X165058000Y-86507200D02*
X160658000Y-86507200D01*
X160658000Y-84207200D02*
X160658000Y-86507200D01*
%TO.C,D21*%
X88086500Y-46005600D02*
X92486500Y-46005600D01*
X92486500Y-46005600D02*
X92486500Y-48305600D01*
X92486500Y-48305600D02*
X88086500Y-48305600D01*
X88086500Y-46005600D02*
X88086500Y-48305600D01*
%TO.C,D20*%
X357771000Y-103511000D02*
X362171000Y-103511000D01*
X362171000Y-103511000D02*
X362171000Y-105811000D01*
X362171000Y-105811000D02*
X357771000Y-105811000D01*
X357771000Y-103511000D02*
X357771000Y-105811000D01*
%TO.C,D19*%
X153452000Y-46005600D02*
X157852000Y-46005600D01*
X157852000Y-46005600D02*
X157852000Y-48305600D01*
X157852000Y-48305600D02*
X153452000Y-48305600D01*
X153452000Y-46005600D02*
X153452000Y-48305600D01*
%TO.C,D18*%
X180687000Y-46005600D02*
X185087000Y-46005600D01*
X185087000Y-46005600D02*
X185087000Y-48305600D01*
X185087000Y-48305600D02*
X180687000Y-48305600D01*
X180687000Y-46005600D02*
X180687000Y-48305600D01*
%TO.C,D17*%
X139456000Y-84207200D02*
X143856000Y-84207200D01*
X143856000Y-84207200D02*
X143856000Y-86507200D01*
X143856000Y-86507200D02*
X139456000Y-86507200D01*
X139456000Y-84207200D02*
X139456000Y-86507200D01*
%TO.C,D16*%
X33714800Y-46056400D02*
X38114800Y-46056400D01*
X38114800Y-46056400D02*
X38114800Y-48356400D01*
X38114800Y-48356400D02*
X33714800Y-48356400D01*
X33714800Y-46056400D02*
X33714800Y-48356400D01*
%TO.C,D15*%
X181860000Y-84207200D02*
X186260000Y-84207200D01*
X186260000Y-84207200D02*
X186260000Y-86507200D01*
X186260000Y-86507200D02*
X181860000Y-86507200D01*
X181860000Y-84207200D02*
X181860000Y-86507200D01*
%TO.C,D14*%
X131663000Y-46005600D02*
X136063000Y-46005600D01*
X136063000Y-46005600D02*
X136063000Y-48305600D01*
X136063000Y-48305600D02*
X131663000Y-48305600D01*
X131663000Y-46005600D02*
X131663000Y-48305600D01*
%TO.C,D13*%
X169793000Y-46005600D02*
X174193000Y-46005600D01*
X174193000Y-46005600D02*
X174193000Y-48305600D01*
X174193000Y-48305600D02*
X169793000Y-48305600D01*
X169793000Y-46005600D02*
X169793000Y-48305600D01*
%TO.C,D12*%
X118254000Y-84207200D02*
X122654000Y-84207200D01*
X122654000Y-84207200D02*
X122654000Y-86507200D01*
X122654000Y-86507200D02*
X118254000Y-86507200D01*
X118254000Y-84207200D02*
X118254000Y-86507200D01*
%TO.C,D11*%
X39015400Y-46056400D02*
X43415400Y-46056400D01*
X43415400Y-46056400D02*
X43415400Y-48356400D01*
X43415400Y-48356400D02*
X39015400Y-48356400D01*
X39015400Y-46056400D02*
X39015400Y-48356400D01*
%TO.C,D10*%
X192461000Y-84207200D02*
X196861000Y-84207200D01*
X196861000Y-84207200D02*
X196861000Y-86507200D01*
X196861000Y-86507200D02*
X192461000Y-86507200D01*
X192461000Y-84207200D02*
X192461000Y-86507200D01*
%TO.C,D9*%
X107653000Y-84207200D02*
X112053000Y-84207200D01*
X112053000Y-84207200D02*
X112053000Y-86507200D01*
X112053000Y-86507200D02*
X107653000Y-86507200D01*
X107653000Y-84207200D02*
X107653000Y-86507200D01*
%TO.C,D8*%
X245466000Y-84207200D02*
X249866000Y-84207200D01*
X249866000Y-84207200D02*
X249866000Y-86507200D01*
X249866000Y-86507200D02*
X245466000Y-86507200D01*
X245466000Y-84207200D02*
X245466000Y-86507200D01*
%TO.C,D7*%
X60851000Y-46005600D02*
X65251000Y-46005600D01*
X65251000Y-46005600D02*
X65251000Y-48305600D01*
X65251000Y-48305600D02*
X60851000Y-48305600D01*
X60851000Y-46005600D02*
X60851000Y-48305600D01*
%TO.C,D6*%
X75849900Y-84207200D02*
X80249900Y-84207200D01*
X80249900Y-84207200D02*
X80249900Y-86507200D01*
X80249900Y-86507200D02*
X75849900Y-86507200D01*
X75849900Y-84207200D02*
X75849900Y-86507200D01*
%TO.C,D5*%
X109875000Y-46005600D02*
X114275000Y-46005600D01*
X114275000Y-46005600D02*
X114275000Y-48305600D01*
X114275000Y-48305600D02*
X109875000Y-48305600D01*
X109875000Y-46005600D02*
X109875000Y-48305600D01*
%TO.C,D4*%
X55403800Y-46005600D02*
X59803800Y-46005600D01*
X59803800Y-46005600D02*
X59803800Y-48305600D01*
X59803800Y-48305600D02*
X55403800Y-48305600D01*
X55403800Y-46005600D02*
X55403800Y-48305600D01*
%TO.C,D3*%
X97052000Y-84207200D02*
X101452000Y-84207200D01*
X101452000Y-84207200D02*
X101452000Y-86507200D01*
X101452000Y-86507200D02*
X97052000Y-86507200D01*
X97052000Y-84207200D02*
X97052000Y-86507200D01*
%TO.C,D2*%
X267841000Y-46005600D02*
X272241000Y-46005600D01*
X272241000Y-46005600D02*
X272241000Y-48305600D01*
X272241000Y-48305600D02*
X267841000Y-48305600D01*
X267841000Y-46005600D02*
X267841000Y-48305600D01*
%TO.C,D1*%
X267802000Y-65093200D02*
X272202000Y-65093200D01*
X272202000Y-65093200D02*
X272202000Y-67393200D01*
X272202000Y-67393200D02*
X267802000Y-67393200D01*
X267802000Y-65093200D02*
X267802000Y-67393200D01*
%TO.C,Y1-16hz1*%
X316678000Y-28633000D02*
X316678000Y-42233000D01*
X321878000Y-28633000D02*
X316678000Y-28633000D01*
X321878000Y-42233000D02*
X321878000Y-28633000D01*
X316678000Y-42233000D02*
X321878000Y-42233000D01*
%TO.C,SW_RESET1*%
X321288000Y-66705000D02*
X317298000Y-66695000D01*
X317304287Y-76805000D02*
X321278000Y-76805000D01*
X321278000Y-76795000D02*
X321278000Y-66695000D01*
X317298000Y-76795000D02*
X317298000Y-66695000D01*
%TO.C,R4*%
X316461000Y-58033000D02*
X314221000Y-58033000D01*
X314221000Y-58033000D02*
X314221000Y-53473000D01*
X314221000Y-53473000D02*
X316461000Y-53473000D01*
X316461000Y-53473000D02*
X316461000Y-58033000D01*
%TO.C,R3*%
X316418000Y-71760500D02*
X314518000Y-71760500D01*
X314518000Y-71760500D02*
X314518000Y-68400500D01*
X314518000Y-68400500D02*
X316418000Y-68400500D01*
X316418000Y-68400500D02*
X316418000Y-71760500D01*
%TO.C,R2*%
X316418000Y-61473500D02*
X314518000Y-61473500D01*
X314518000Y-61473500D02*
X314518000Y-58113500D01*
X314518000Y-58113500D02*
X316418000Y-58113500D01*
X316418000Y-58113500D02*
X316418000Y-61473500D01*
%TO.C,R1*%
X316461000Y-53461000D02*
X314221000Y-53461000D01*
X314221000Y-53461000D02*
X314221000Y-48901000D01*
X314221000Y-48901000D02*
X316461000Y-48901000D01*
X316461000Y-48901000D02*
X316461000Y-53461000D01*
%TO.C,C109*%
X316816000Y-16347000D02*
X316816000Y-14387000D01*
X316816000Y-14387000D02*
X320216000Y-14387000D01*
X320216000Y-14387000D02*
X320216000Y-16347000D01*
X320216000Y-16347000D02*
X316816000Y-16347000D01*
%TO.C,C108*%
X321981000Y-33540000D02*
X323941000Y-33540000D01*
X323941000Y-33540000D02*
X323941000Y-36940000D01*
X323941000Y-36940000D02*
X321981000Y-36940000D01*
X321981000Y-36940000D02*
X321981000Y-33540000D01*
%TO.C,C107*%
X316321000Y-36818000D02*
X314361000Y-36818000D01*
X314361000Y-36818000D02*
X314361000Y-33418000D01*
X314361000Y-33418000D02*
X316321000Y-33418000D01*
X316321000Y-33418000D02*
X316321000Y-36818000D01*
%TO.C,C106*%
X316623000Y-20284000D02*
X316623000Y-18324000D01*
X316623000Y-18324000D02*
X320023000Y-18324000D01*
X320023000Y-18324000D02*
X320023000Y-20284000D01*
X320023000Y-20284000D02*
X316623000Y-20284000D01*
%TO.C,C105*%
X318044000Y-20718000D02*
X320004000Y-20718000D01*
X320004000Y-20718000D02*
X320004000Y-24118000D01*
X320004000Y-24118000D02*
X318044000Y-24118000D01*
X318044000Y-24118000D02*
X318044000Y-20718000D01*
%TO.C,C104*%
X321806000Y-25944000D02*
X321806000Y-27904000D01*
X321806000Y-27904000D02*
X318406000Y-27904000D01*
X318406000Y-27904000D02*
X318406000Y-25944000D01*
X318406000Y-25944000D02*
X321806000Y-25944000D01*
%TO.C,C103*%
X315631000Y-21094000D02*
X317591000Y-21094000D01*
X317591000Y-21094000D02*
X317591000Y-24494000D01*
X317591000Y-24494000D02*
X315631000Y-24494000D01*
X315631000Y-24494000D02*
X315631000Y-21094000D01*
%TO.C,C102*%
X317591000Y-28050000D02*
X315631000Y-28050000D01*
X315631000Y-28050000D02*
X315631000Y-24650000D01*
X315631000Y-24650000D02*
X317591000Y-24650000D01*
X317591000Y-24650000D02*
X317591000Y-28050000D01*
D11*
%TO.C,D179*%
X163613000Y-118333000D02*
X160588000Y-118333000D01*
X163618000Y-120833000D02*
X163618000Y-118333000D01*
X160588000Y-120833000D02*
X163618000Y-120833000D01*
X160588000Y-118333000D02*
X160588000Y-120833000D01*
D10*
%TO.C,C85*%
X321332000Y-58887900D02*
X321332000Y-59807900D01*
X321332000Y-59807900D02*
X319512000Y-59807900D01*
X319512000Y-59807900D02*
X319512000Y-58887900D01*
X319512000Y-58887900D02*
X321332000Y-58887900D01*
D11*
%TO.C,D174*%
X180783000Y-117969000D02*
X177758000Y-117969000D01*
X180788000Y-120469000D02*
X180788000Y-117969000D01*
X177758000Y-120469000D02*
X180788000Y-120469000D01*
X177758000Y-117969000D02*
X177758000Y-120469000D01*
%TO.C,D169*%
X142226000Y-118130000D02*
X139201000Y-118130000D01*
X142231000Y-120630000D02*
X142231000Y-118130000D01*
X139201000Y-120630000D02*
X142231000Y-120630000D01*
X139201000Y-118130000D02*
X139201000Y-120630000D01*
%TO.C,D164*%
X198055000Y-117774000D02*
X195030000Y-117774000D01*
X198060000Y-120274000D02*
X198060000Y-117774000D01*
X195030000Y-120274000D02*
X198060000Y-120274000D01*
X195030000Y-117774000D02*
X195030000Y-120274000D01*
%TO.C,D159*%
X121652000Y-118130000D02*
X118627000Y-118130000D01*
X121657000Y-120630000D02*
X121657000Y-118130000D01*
X118627000Y-120630000D02*
X121657000Y-120630000D01*
X118627000Y-118130000D02*
X118627000Y-120630000D01*
D10*
%TO.C,C80*%
X318792000Y-43536800D02*
X318792000Y-44456800D01*
X318792000Y-44456800D02*
X316972000Y-44456800D01*
X316972000Y-44456800D02*
X316972000Y-43536800D01*
X316972000Y-43536800D02*
X318792000Y-43536800D01*
%TO.C,C75*%
X318792000Y-78275400D02*
X318792000Y-79195400D01*
X318792000Y-79195400D02*
X316972000Y-79195400D01*
X316972000Y-79195400D02*
X316972000Y-78275400D01*
X316972000Y-78275400D02*
X318792000Y-78275400D01*
%TO.C,C70*%
X318792000Y-64996700D02*
X318792000Y-65916700D01*
X318792000Y-65916700D02*
X316972000Y-65916700D01*
X316972000Y-65916700D02*
X316972000Y-64996700D01*
X316972000Y-64996700D02*
X318792000Y-64996700D01*
%TO.C,C65*%
X318792000Y-97555300D02*
X318792000Y-98475300D01*
X318792000Y-98475300D02*
X316972000Y-98475300D01*
X316972000Y-98475300D02*
X316972000Y-97555300D01*
X316972000Y-97555300D02*
X318792000Y-97555300D01*
D11*
%TO.C,D154*%
X370674000Y-23032400D02*
X367649000Y-23032400D01*
X370679000Y-25532400D02*
X370679000Y-23032400D01*
X367649000Y-25532400D02*
X370679000Y-25532400D01*
X367649000Y-23032400D02*
X367649000Y-25532400D01*
D10*
%TO.C,C60*%
X318792000Y-91124900D02*
X318792000Y-92044900D01*
X318792000Y-92044900D02*
X316972000Y-92044900D01*
X316972000Y-92044900D02*
X316972000Y-91124900D01*
X316972000Y-91124900D02*
X318792000Y-91124900D01*
D11*
%TO.C,D149*%
X351777000Y-22990400D02*
X348752000Y-22990400D01*
X351782000Y-25490400D02*
X351782000Y-22990400D01*
X348752000Y-25490400D02*
X351782000Y-25490400D01*
X348752000Y-22990400D02*
X348752000Y-25490400D01*
%TO.C,D144*%
X270497000Y-22990400D02*
X267472000Y-22990400D01*
X270502000Y-25490400D02*
X270502000Y-22990400D01*
X267472000Y-25490400D02*
X270502000Y-25490400D01*
X267472000Y-22990400D02*
X267472000Y-25490400D01*
%TO.C,D139*%
X332676000Y-22990400D02*
X329651000Y-22990400D01*
X332681000Y-25490400D02*
X332681000Y-22990400D01*
X329651000Y-25490400D02*
X332681000Y-25490400D01*
X329651000Y-22990400D02*
X329651000Y-25490400D01*
%TO.C,D134*%
X289547000Y-22990400D02*
X286522000Y-22990400D01*
X289552000Y-25490400D02*
X289552000Y-22990400D01*
X286522000Y-25490400D02*
X289552000Y-25490400D01*
X286522000Y-22990400D02*
X286522000Y-25490400D01*
%TO.C,D129*%
X213347000Y-23041200D02*
X210322000Y-23041200D01*
X213352000Y-25541200D02*
X213352000Y-23041200D01*
X210322000Y-25541200D02*
X213352000Y-25541200D01*
X210322000Y-23041200D02*
X210322000Y-25541200D01*
%TO.C,D124*%
X308749000Y-22939600D02*
X305724000Y-22939600D01*
X308754000Y-25439600D02*
X308754000Y-22939600D01*
X305724000Y-25439600D02*
X308754000Y-25439600D01*
X305724000Y-22939600D02*
X305724000Y-25439600D01*
%TO.C,D119*%
X232397000Y-22939600D02*
X229372000Y-22939600D01*
X232402000Y-25439600D02*
X232402000Y-22939600D01*
X229372000Y-25439600D02*
X232402000Y-25439600D01*
X229372000Y-22939600D02*
X229372000Y-25439600D01*
%TO.C,D114*%
X251497000Y-22972800D02*
X248472000Y-22972800D01*
X251502000Y-25472800D02*
X251502000Y-22972800D01*
X248472000Y-25472800D02*
X251502000Y-25472800D01*
X248472000Y-22972800D02*
X248472000Y-25472800D01*
D10*
%TO.C,C55*%
X318792000Y-84718600D02*
X318792000Y-85638600D01*
X318792000Y-85638600D02*
X316972000Y-85638600D01*
X316972000Y-85638600D02*
X316972000Y-84718600D01*
X316972000Y-84718600D02*
X318792000Y-84718600D01*
%TO.C,C50*%
X321332000Y-55666300D02*
X321332000Y-56586300D01*
X321332000Y-56586300D02*
X319512000Y-56586300D01*
X319512000Y-56586300D02*
X319512000Y-55666300D01*
X319512000Y-55666300D02*
X321332000Y-55666300D01*
%TO.C,C45*%
X321332000Y-62109500D02*
X321332000Y-63029500D01*
X321332000Y-63029500D02*
X319512000Y-63029500D01*
X319512000Y-63029500D02*
X319512000Y-62109500D01*
X319512000Y-62109500D02*
X321332000Y-62109500D01*
%TO.C,C40*%
X318792000Y-81497000D02*
X318792000Y-82417000D01*
X318792000Y-82417000D02*
X316972000Y-82417000D01*
X316972000Y-82417000D02*
X316972000Y-81497000D01*
X316972000Y-81497000D02*
X318792000Y-81497000D01*
%TO.C,C35*%
X318792000Y-51031300D02*
X318792000Y-51951300D01*
X318792000Y-51951300D02*
X316972000Y-51951300D01*
X316972000Y-51951300D02*
X316972000Y-51031300D01*
X316972000Y-51031300D02*
X318792000Y-51031300D01*
%TO.C,C30*%
X318792000Y-53179000D02*
X318792000Y-54099000D01*
X318792000Y-54099000D02*
X316972000Y-54099000D01*
X316972000Y-54099000D02*
X316972000Y-53179000D01*
X316972000Y-53179000D02*
X318792000Y-53179000D01*
%TO.C,C25*%
X318792000Y-87940200D02*
X318792000Y-88860200D01*
X318792000Y-88860200D02*
X316972000Y-88860200D01*
X316972000Y-88860200D02*
X316972000Y-87940200D01*
X316972000Y-87940200D02*
X318792000Y-87940200D01*
%TO.C,C20*%
X321332000Y-65331100D02*
X321332000Y-66251100D01*
X321332000Y-66251100D02*
X319512000Y-66251100D01*
X319512000Y-66251100D02*
X319512000Y-65331100D01*
X319512000Y-65331100D02*
X321332000Y-65331100D01*
D11*
%TO.C,D195*%
X332625000Y-61090400D02*
X329600000Y-61090400D01*
X332630000Y-63590400D02*
X332630000Y-61090400D01*
X329600000Y-63590400D02*
X332630000Y-63590400D01*
X329600000Y-61090400D02*
X329600000Y-63590400D01*
%TO.C,D193*%
X351726000Y-118342000D02*
X348701000Y-118342000D01*
X351731000Y-120842000D02*
X351731000Y-118342000D01*
X348701000Y-120842000D02*
X351731000Y-120842000D01*
X348701000Y-118342000D02*
X348701000Y-120842000D01*
%TO.C,D192*%
X198359000Y-99190000D02*
X195334000Y-99190000D01*
X198364000Y-101690000D02*
X198364000Y-99190000D01*
X195334000Y-101690000D02*
X198364000Y-101690000D01*
X195334000Y-99190000D02*
X195334000Y-101690000D01*
%TO.C,D191*%
X151332000Y-80157000D02*
X148307000Y-80157000D01*
X151337000Y-82657000D02*
X151337000Y-80157000D01*
X148307000Y-82657000D02*
X151337000Y-82657000D01*
X148307000Y-80157000D02*
X148307000Y-82657000D01*
%TO.C,D190*%
X351777000Y-61090400D02*
X348752000Y-61090400D01*
X351782000Y-63590400D02*
X351782000Y-61090400D01*
X348752000Y-63590400D02*
X351782000Y-63590400D01*
X348752000Y-61090400D02*
X348752000Y-63590400D01*
%TO.C,D188*%
X332676000Y-118444000D02*
X329651000Y-118444000D01*
X332681000Y-120944000D02*
X332681000Y-118444000D01*
X329651000Y-120944000D02*
X332681000Y-120944000D01*
X329651000Y-118444000D02*
X329651000Y-120944000D01*
%TO.C,D187*%
X217511000Y-99190000D02*
X214486000Y-99190000D01*
X217516000Y-101690000D02*
X217516000Y-99190000D01*
X214486000Y-101690000D02*
X217516000Y-101690000D01*
X214486000Y-99190000D02*
X214486000Y-101690000D01*
%TO.C,D186*%
X132510000Y-80157000D02*
X129485000Y-80157000D01*
X132515000Y-82657000D02*
X132515000Y-80157000D01*
X129485000Y-82657000D02*
X132515000Y-82657000D01*
X129485000Y-80157000D02*
X129485000Y-82657000D01*
%TO.C,D185*%
X370674000Y-61141200D02*
X367649000Y-61141200D01*
X370679000Y-63641200D02*
X370679000Y-61141200D01*
X367649000Y-63641200D02*
X370679000Y-63641200D01*
X367649000Y-61141200D02*
X367649000Y-63641200D01*
%TO.C,D183*%
X306259000Y-118342000D02*
X303234000Y-118342000D01*
X306264000Y-120842000D02*
X306264000Y-118342000D01*
X303234000Y-120842000D02*
X306264000Y-120842000D01*
X303234000Y-118342000D02*
X303234000Y-120842000D01*
%TO.C,D182*%
X236562000Y-99182000D02*
X233537000Y-99182000D01*
X236567000Y-101682000D02*
X236567000Y-99182000D01*
X233537000Y-101682000D02*
X236567000Y-101682000D01*
X233537000Y-99182000D02*
X233537000Y-101682000D01*
%TO.C,D181*%
X113436000Y-80132000D02*
X110411000Y-80132000D01*
X113441000Y-82632000D02*
X113441000Y-80132000D01*
X110411000Y-82632000D02*
X113441000Y-82632000D01*
X110411000Y-80132000D02*
X110411000Y-82632000D01*
%TO.C,D180*%
X60997400Y-23041200D02*
X57972400Y-23041200D01*
X61002400Y-25541200D02*
X61002400Y-23041200D01*
X57972400Y-25541200D02*
X61002400Y-25541200D01*
X57972400Y-23041200D02*
X57972400Y-25541200D01*
%TO.C,D178*%
X282435000Y-118342000D02*
X279410000Y-118342000D01*
X282440000Y-120842000D02*
X282440000Y-118342000D01*
X279410000Y-120842000D02*
X282440000Y-120842000D01*
X279410000Y-118342000D02*
X279410000Y-120842000D01*
%TO.C,D177*%
X255763000Y-99241000D02*
X252738000Y-99241000D01*
X255768000Y-101741000D02*
X255768000Y-99241000D01*
X252738000Y-101741000D02*
X255768000Y-101741000D01*
X252738000Y-99241000D02*
X252738000Y-101741000D01*
%TO.C,D176*%
X94410500Y-80157000D02*
X91385500Y-80157000D01*
X94415500Y-82657000D02*
X94415500Y-80157000D01*
X91385500Y-82657000D02*
X94415500Y-82657000D01*
X91385500Y-80157000D02*
X91385500Y-82657000D01*
%TO.C,D175*%
X41896000Y-22981600D02*
X38871000Y-22981600D01*
X41901000Y-25481600D02*
X41901000Y-22981600D01*
X38871000Y-25481600D02*
X41901000Y-25481600D01*
X38871000Y-22981600D02*
X38871000Y-25481600D01*
%TO.C,D173*%
X258609000Y-118393000D02*
X255584000Y-118393000D01*
X258614000Y-120893000D02*
X258614000Y-118393000D01*
X255584000Y-120893000D02*
X258614000Y-120893000D01*
X255584000Y-118393000D02*
X255584000Y-120893000D01*
%TO.C,D172*%
X291833000Y-99325000D02*
X288808000Y-99325000D01*
X291838000Y-101825000D02*
X291838000Y-99325000D01*
X288808000Y-101825000D02*
X291838000Y-101825000D01*
X288808000Y-99325000D02*
X288808000Y-101825000D01*
%TO.C,D171*%
X75360500Y-80157000D02*
X72335500Y-80157000D01*
X75365500Y-82657000D02*
X75365500Y-80157000D01*
X72335500Y-82657000D02*
X75365500Y-82657000D01*
X72335500Y-80157000D02*
X72335500Y-82657000D01*
%TO.C,D170*%
X370623000Y-42226000D02*
X367598000Y-42226000D01*
X370628000Y-44726000D02*
X370628000Y-42226000D01*
X367598000Y-44726000D02*
X370628000Y-44726000D01*
X367598000Y-42226000D02*
X367598000Y-44726000D01*
%TO.C,D168*%
X234631000Y-118393000D02*
X231606000Y-118393000D01*
X234636000Y-120893000D02*
X234636000Y-118393000D01*
X231606000Y-120893000D02*
X234636000Y-120893000D01*
X231606000Y-118393000D02*
X231606000Y-120893000D01*
%TO.C,D167*%
X332752000Y-99249000D02*
X329727000Y-99249000D01*
X332757000Y-101749000D02*
X332757000Y-99249000D01*
X329727000Y-101749000D02*
X332757000Y-101749000D01*
X329727000Y-99249000D02*
X329727000Y-101749000D01*
%TO.C,D166*%
X49159800Y-80157000D02*
X46134800Y-80157000D01*
X49164800Y-82657000D02*
X49164800Y-80157000D01*
X46134800Y-82657000D02*
X49164800Y-82657000D01*
X46134800Y-80157000D02*
X46134800Y-82657000D01*
%TO.C,D165*%
X351725000Y-42184000D02*
X348700000Y-42184000D01*
X351730000Y-44684000D02*
X351730000Y-42184000D01*
X348700000Y-44684000D02*
X351730000Y-44684000D01*
X348700000Y-42184000D02*
X348700000Y-44684000D01*
%TO.C,D163*%
X194347000Y-22981600D02*
X191322000Y-22981600D01*
X194352000Y-25481600D02*
X194352000Y-22981600D01*
X191322000Y-25481600D02*
X194352000Y-25481600D01*
X191322000Y-22981600D02*
X191322000Y-25481600D01*
%TO.C,D162*%
X351725000Y-99224000D02*
X348700000Y-99224000D01*
X351730000Y-101724000D02*
X351730000Y-99224000D01*
X348700000Y-101724000D02*
X351730000Y-101724000D01*
X348700000Y-99224000D02*
X348700000Y-101724000D01*
%TO.C,D161*%
X46773400Y-61107000D02*
X43748400Y-61107000D01*
X46778400Y-63607000D02*
X46778400Y-61107000D01*
X43748400Y-63607000D02*
X46778400Y-63607000D01*
X43748400Y-61107000D02*
X43748400Y-63607000D01*
%TO.C,D160*%
X332675000Y-42175200D02*
X329650000Y-42175200D01*
X332680000Y-44675200D02*
X332680000Y-42175200D01*
X329650000Y-44675200D02*
X332680000Y-44675200D01*
X329650000Y-42175200D02*
X329650000Y-44675200D01*
%TO.C,D158*%
X175247000Y-23041200D02*
X172222000Y-23041200D01*
X175252000Y-25541200D02*
X175252000Y-23041200D01*
X172222000Y-25541200D02*
X175252000Y-25541200D01*
X172222000Y-23041200D02*
X172222000Y-25541200D01*
%TO.C,D157*%
X370623000Y-99224000D02*
X367598000Y-99224000D01*
X370628000Y-101724000D02*
X370628000Y-99224000D01*
X367598000Y-101724000D02*
X370628000Y-101724000D01*
X367598000Y-99224000D02*
X367598000Y-101724000D01*
%TO.C,D156*%
X70598000Y-60988800D02*
X67573000Y-60988800D01*
X70603000Y-63488800D02*
X70603000Y-60988800D01*
X67573000Y-63488800D02*
X70603000Y-63488800D01*
X67573000Y-60988800D02*
X67573000Y-63488800D01*
%TO.C,D155*%
X270496000Y-41993500D02*
X267471000Y-41993500D01*
X270501000Y-44493500D02*
X270501000Y-41993500D01*
X267471000Y-44493500D02*
X270501000Y-44493500D01*
X267471000Y-41993500D02*
X267471000Y-44493500D01*
%TO.C,D153*%
X156197000Y-22939600D02*
X153172000Y-22939600D01*
X156202000Y-25439600D02*
X156202000Y-22939600D01*
X153172000Y-25439600D02*
X156202000Y-25439600D01*
X153172000Y-22939600D02*
X153172000Y-25439600D01*
%TO.C,D152*%
X99046600Y-23041200D02*
X96021600Y-23041200D01*
X99051600Y-25541200D02*
X99051600Y-23041200D01*
X96021600Y-25541200D02*
X99051600Y-25541200D01*
X96021600Y-23041200D02*
X96021600Y-25541200D01*
%TO.C,D151*%
X89547000Y-60938000D02*
X86522000Y-60938000D01*
X89552000Y-63438000D02*
X89552000Y-60938000D01*
X86522000Y-63438000D02*
X89552000Y-63438000D01*
X86522000Y-60938000D02*
X86522000Y-63438000D01*
%TO.C,D150*%
X251484000Y-42015000D02*
X248459000Y-42015000D01*
X251489000Y-44515000D02*
X251489000Y-42015000D01*
X248459000Y-44515000D02*
X251489000Y-44515000D01*
X248459000Y-42015000D02*
X248459000Y-44515000D01*
%TO.C,D148*%
X137197000Y-23023600D02*
X134172000Y-23023600D01*
X137202000Y-25523600D02*
X137202000Y-23023600D01*
X134172000Y-25523600D02*
X137202000Y-25523600D01*
X134172000Y-23023600D02*
X134172000Y-25523600D01*
%TO.C,D147*%
X80098200Y-22939600D02*
X77073200Y-22939600D01*
X80103200Y-25439600D02*
X80103200Y-22939600D01*
X77073200Y-25439600D02*
X80103200Y-25439600D01*
X77073200Y-22939600D02*
X77073200Y-25439600D01*
%TO.C,D146*%
X108445000Y-60988800D02*
X105420000Y-60988800D01*
X108450000Y-63488800D02*
X108450000Y-60988800D01*
X105420000Y-63488800D02*
X108450000Y-63488800D01*
X105420000Y-60988800D02*
X105420000Y-63488800D01*
%TO.C,D145*%
X232358000Y-42015000D02*
X229333000Y-42015000D01*
X232363000Y-44515000D02*
X232363000Y-42015000D01*
X229333000Y-44515000D02*
X232363000Y-44515000D01*
X229333000Y-42015000D02*
X229333000Y-44515000D01*
%TO.C,D143*%
X92214000Y-118426000D02*
X89189000Y-118426000D01*
X92219000Y-120926000D02*
X92219000Y-118426000D01*
X89189000Y-120926000D02*
X92219000Y-120926000D01*
X89189000Y-118426000D02*
X89189000Y-120926000D01*
%TO.C,D142*%
X370623000Y-80140400D02*
X367598000Y-80140400D01*
X370628000Y-82640400D02*
X370628000Y-80140400D01*
X367598000Y-82640400D02*
X370628000Y-82640400D01*
X367598000Y-80140400D02*
X367598000Y-82640400D01*
%TO.C,D141*%
X127342000Y-60938000D02*
X124317000Y-60938000D01*
X127347000Y-63438000D02*
X127347000Y-60938000D01*
X124317000Y-63438000D02*
X127347000Y-63438000D01*
X124317000Y-60938000D02*
X124317000Y-63438000D01*
%TO.C,D140*%
X213384000Y-42015000D02*
X210359000Y-42015000D01*
X213389000Y-44515000D02*
X213389000Y-42015000D01*
X210359000Y-44515000D02*
X213389000Y-44515000D01*
X210359000Y-42015000D02*
X210359000Y-44515000D01*
%TO.C,D138*%
X68363400Y-118393000D02*
X65338400Y-118393000D01*
X68368400Y-120893000D02*
X68368400Y-118393000D01*
X65338400Y-120893000D02*
X68368400Y-120893000D01*
X65338400Y-118393000D02*
X65338400Y-120893000D01*
%TO.C,D137*%
X351726000Y-80140400D02*
X348701000Y-80140400D01*
X351731000Y-82640400D02*
X351731000Y-80140400D01*
X348701000Y-82640400D02*
X351731000Y-82640400D01*
X348701000Y-80140400D02*
X348701000Y-82640400D01*
%TO.C,D136*%
X146240000Y-60988800D02*
X143215000Y-60988800D01*
X146245000Y-63488800D02*
X146245000Y-60988800D01*
X143215000Y-63488800D02*
X146245000Y-63488800D01*
X143215000Y-60988800D02*
X143215000Y-63488800D01*
%TO.C,D135*%
X194270000Y-41972000D02*
X191245000Y-41972000D01*
X194275000Y-44472000D02*
X194275000Y-41972000D01*
X191245000Y-44472000D02*
X194275000Y-44472000D01*
X191245000Y-41972000D02*
X191245000Y-44472000D01*
%TO.C,D133*%
X44436600Y-118421000D02*
X41411600Y-118421000D01*
X44441600Y-120921000D02*
X44441600Y-118421000D01*
X41411600Y-120921000D02*
X44441600Y-120921000D01*
X41411600Y-118421000D02*
X41411600Y-120921000D01*
%TO.C,D132*%
X332676000Y-80140400D02*
X329651000Y-80140400D01*
X332681000Y-82640400D02*
X332681000Y-80140400D01*
X329651000Y-82640400D02*
X332681000Y-82640400D01*
X329651000Y-80140400D02*
X329651000Y-82640400D01*
%TO.C,D131*%
X165188000Y-60938000D02*
X162163000Y-60938000D01*
X165193000Y-63438000D02*
X165193000Y-60938000D01*
X162163000Y-63438000D02*
X165193000Y-63438000D01*
X162163000Y-60938000D02*
X162163000Y-63438000D01*
%TO.C,D130*%
X175246000Y-41993500D02*
X172221000Y-41993500D01*
X175251000Y-44493500D02*
X175251000Y-41993500D01*
X172221000Y-44493500D02*
X175251000Y-44493500D01*
X172221000Y-41993500D02*
X172221000Y-44493500D01*
%TO.C,D128*%
X53935000Y-99190000D02*
X50910000Y-99190000D01*
X53940000Y-101690000D02*
X53940000Y-99190000D01*
X50910000Y-101690000D02*
X53940000Y-101690000D01*
X50910000Y-99190000D02*
X50910000Y-101690000D01*
%TO.C,D127*%
X296632000Y-80115000D02*
X293607000Y-80115000D01*
X296637000Y-82615000D02*
X296637000Y-80115000D01*
X293607000Y-82615000D02*
X296637000Y-82615000D01*
X293607000Y-80115000D02*
X293607000Y-82615000D01*
%TO.C,D126*%
X184137000Y-60988800D02*
X181112000Y-60988800D01*
X184142000Y-63488800D02*
X184142000Y-60988800D01*
X181112000Y-63488800D02*
X184142000Y-63488800D01*
X181112000Y-60988800D02*
X181112000Y-63488800D01*
%TO.C,D125*%
X156170000Y-42015000D02*
X153145000Y-42015000D01*
X156175000Y-44515000D02*
X156175000Y-42015000D01*
X153145000Y-44515000D02*
X156175000Y-44515000D01*
X153145000Y-42015000D02*
X153145000Y-44515000D01*
%TO.C,D123*%
X84770600Y-99190000D02*
X81745600Y-99190000D01*
X84775600Y-101690000D02*
X84775600Y-99190000D01*
X81745600Y-101690000D02*
X84775600Y-101690000D01*
X81745600Y-99190000D02*
X81745600Y-101690000D01*
%TO.C,D122*%
X265606000Y-80143000D02*
X262581000Y-80143000D01*
X265611000Y-82643000D02*
X265611000Y-80143000D01*
X262581000Y-82643000D02*
X265611000Y-82643000D01*
X262581000Y-80143000D02*
X262581000Y-82643000D01*
%TO.C,D121*%
X203085000Y-60988800D02*
X200060000Y-60988800D01*
X203090000Y-63488800D02*
X203090000Y-60988800D01*
X200060000Y-63488800D02*
X203090000Y-63488800D01*
X200060000Y-60988800D02*
X200060000Y-63488800D01*
%TO.C,D120*%
X137172000Y-42015000D02*
X134147000Y-42015000D01*
X137177000Y-44515000D02*
X137177000Y-42015000D01*
X134147000Y-44515000D02*
X137177000Y-44515000D01*
X134147000Y-42015000D02*
X134147000Y-44515000D01*
%TO.C,D118*%
X103617000Y-99190000D02*
X100592000Y-99190000D01*
X103622000Y-101690000D02*
X103622000Y-99190000D01*
X100592000Y-101690000D02*
X103622000Y-101690000D01*
X100592000Y-99190000D02*
X100592000Y-101690000D01*
%TO.C,D117*%
X246556000Y-80157000D02*
X243531000Y-80157000D01*
X246561000Y-82657000D02*
X246561000Y-80157000D01*
X243531000Y-82657000D02*
X246561000Y-82657000D01*
X243531000Y-80157000D02*
X243531000Y-82657000D01*
%TO.C,D116*%
X221983000Y-60938000D02*
X218958000Y-60938000D01*
X221988000Y-63438000D02*
X221988000Y-60938000D01*
X218958000Y-63438000D02*
X221988000Y-63438000D01*
X218958000Y-60938000D02*
X218958000Y-63438000D01*
%TO.C,D115*%
X118122000Y-42015000D02*
X115097000Y-42015000D01*
X118127000Y-44515000D02*
X118127000Y-42015000D01*
X115097000Y-44515000D02*
X118127000Y-44515000D01*
X115097000Y-42015000D02*
X115097000Y-44515000D01*
%TO.C,D113*%
X122515000Y-99190000D02*
X119490000Y-99190000D01*
X122520000Y-101690000D02*
X122520000Y-99190000D01*
X119490000Y-101690000D02*
X122520000Y-101690000D01*
X119490000Y-99190000D02*
X119490000Y-101690000D01*
%TO.C,D112*%
X227532000Y-80132000D02*
X224507000Y-80132000D01*
X227537000Y-82632000D02*
X227537000Y-80132000D01*
X224507000Y-82632000D02*
X227537000Y-82632000D01*
X224507000Y-80132000D02*
X224507000Y-82632000D01*
%TO.C,D111*%
X240931000Y-60988800D02*
X237906000Y-60988800D01*
X240936000Y-63488800D02*
X240936000Y-60988800D01*
X237906000Y-63488800D02*
X240936000Y-63488800D01*
X237906000Y-60988800D02*
X237906000Y-63488800D01*
%TO.C,D110*%
X99072000Y-42015000D02*
X96047000Y-42015000D01*
X99077000Y-44515000D02*
X99077000Y-42015000D01*
X96047000Y-44515000D02*
X99077000Y-44515000D01*
X96047000Y-42015000D02*
X96047000Y-44515000D01*
%TO.C,D109*%
X299097000Y-42184000D02*
X296072000Y-42184000D01*
X299102000Y-44684000D02*
X299102000Y-42184000D01*
X296072000Y-44684000D02*
X299102000Y-44684000D01*
X296072000Y-42184000D02*
X296072000Y-44684000D01*
%TO.C,D108*%
X141463000Y-99190000D02*
X138438000Y-99190000D01*
X141468000Y-101690000D02*
X141468000Y-99190000D01*
X138438000Y-101690000D02*
X141468000Y-101690000D01*
X138438000Y-99190000D02*
X138438000Y-101690000D01*
%TO.C,D107*%
X208432000Y-80182000D02*
X205407000Y-80182000D01*
X208437000Y-82682000D02*
X208437000Y-80182000D01*
X205407000Y-82682000D02*
X208437000Y-82682000D01*
X205407000Y-80182000D02*
X205407000Y-82682000D01*
%TO.C,D106*%
X259879000Y-60938000D02*
X256854000Y-60938000D01*
X259884000Y-63438000D02*
X259884000Y-60938000D01*
X256854000Y-63438000D02*
X259884000Y-63438000D01*
X256854000Y-60938000D02*
X256854000Y-63438000D01*
%TO.C,D105*%
X80022000Y-42015000D02*
X76997000Y-42015000D01*
X80027000Y-44515000D02*
X80027000Y-42015000D01*
X76997000Y-44515000D02*
X80027000Y-44515000D01*
X76997000Y-42015000D02*
X76997000Y-44515000D01*
%TO.C,D104*%
X118147000Y-22939600D02*
X115122000Y-22939600D01*
X118152000Y-25439600D02*
X118152000Y-22939600D01*
X115122000Y-25439600D02*
X118152000Y-25439600D01*
X115122000Y-22939600D02*
X115122000Y-25439600D01*
%TO.C,D103*%
X160412000Y-99190000D02*
X157387000Y-99190000D01*
X160417000Y-101690000D02*
X160417000Y-99190000D01*
X157387000Y-101690000D02*
X160417000Y-101690000D01*
X157387000Y-99190000D02*
X157387000Y-101690000D01*
%TO.C,D102*%
X189406000Y-80168000D02*
X186381000Y-80168000D01*
X189411000Y-82668000D02*
X189411000Y-80168000D01*
X186381000Y-82668000D02*
X189411000Y-82668000D01*
X186381000Y-80168000D02*
X186381000Y-82668000D01*
%TO.C,D101*%
X279082000Y-60938000D02*
X276057000Y-60938000D01*
X279087000Y-63438000D02*
X279087000Y-60938000D01*
X276057000Y-63438000D02*
X279087000Y-63438000D01*
X276057000Y-60938000D02*
X276057000Y-63438000D01*
%TO.C,D100*%
X61009500Y-41993500D02*
X57984500Y-41993500D01*
X61014500Y-44493500D02*
X61014500Y-41993500D01*
X57984500Y-44493500D02*
X61014500Y-44493500D01*
X57984500Y-41993500D02*
X57984500Y-44493500D01*
%TO.C,D99*%
X370673000Y-118444000D02*
X367648000Y-118444000D01*
X370678000Y-120944000D02*
X370678000Y-118444000D01*
X367648000Y-120944000D02*
X370678000Y-120944000D01*
X367648000Y-118444000D02*
X367648000Y-120944000D01*
%TO.C,D98*%
X179309000Y-99190000D02*
X176284000Y-99190000D01*
X179314000Y-101690000D02*
X179314000Y-99190000D01*
X176284000Y-101690000D02*
X179314000Y-101690000D01*
X176284000Y-99190000D02*
X176284000Y-101690000D01*
%TO.C,D97*%
X170382000Y-80182000D02*
X167357000Y-80182000D01*
X170387000Y-82682000D02*
X170387000Y-80182000D01*
X167357000Y-82682000D02*
X170387000Y-82682000D01*
X167357000Y-80182000D02*
X167357000Y-82682000D01*
%TO.C,D96*%
X303821000Y-60938000D02*
X300796000Y-60938000D01*
X303826000Y-63438000D02*
X303826000Y-60938000D01*
X300796000Y-63438000D02*
X303826000Y-63438000D01*
X300796000Y-60938000D02*
X300796000Y-63438000D01*
%TO.C,D95*%
X41795000Y-42015000D02*
X38770000Y-42015000D01*
X41800000Y-44515000D02*
X41800000Y-42015000D01*
X38770000Y-44515000D02*
X41800000Y-44515000D01*
X38770000Y-42015000D02*
X38770000Y-44515000D01*
D10*
%TO.C,J1*%
X316687000Y-122816000D02*
X316687000Y-112866000D01*
X316687000Y-112866000D02*
X312237000Y-112866000D01*
X312237000Y-112866000D02*
X312237000Y-122816000D01*
X312237000Y-122816000D02*
X316687000Y-122816000D01*
%TO.C,C3*%
X318792000Y-48906100D02*
X318792000Y-49826100D01*
X318792000Y-49826100D02*
X316972000Y-49826100D01*
X316972000Y-49826100D02*
X316972000Y-48906100D01*
X316972000Y-48906100D02*
X318792000Y-48906100D01*
%TO.C,C5*%
X322856000Y-119284000D02*
X322856000Y-120204000D01*
X322856000Y-120204000D02*
X321036000Y-120204000D01*
X321036000Y-120204000D02*
X321036000Y-119284000D01*
X321036000Y-119284000D02*
X322856000Y-119284000D01*
%TO.C,C6*%
X318792000Y-57474500D02*
X318792000Y-58394500D01*
X318792000Y-58394500D02*
X316972000Y-58394500D01*
X316972000Y-58394500D02*
X316972000Y-57474500D01*
X316972000Y-57474500D02*
X318792000Y-57474500D01*
%TO.C,C8*%
X322856000Y-117142000D02*
X322856000Y-118062000D01*
X322856000Y-118062000D02*
X321036000Y-118062000D01*
X321036000Y-118062000D02*
X321036000Y-117142000D01*
X321036000Y-117142000D02*
X322856000Y-117142000D01*
%TO.C,C9*%
X318792000Y-85792500D02*
X318792000Y-86712500D01*
X318792000Y-86712500D02*
X316972000Y-86712500D01*
X316972000Y-86712500D02*
X316972000Y-85792500D01*
X316972000Y-85792500D02*
X318792000Y-85792500D01*
%TO.C,C11*%
X318792000Y-93272700D02*
X318792000Y-94192700D01*
X318792000Y-94192700D02*
X316972000Y-94192700D01*
X316972000Y-94192700D02*
X316972000Y-93272700D01*
X316972000Y-93272700D02*
X318792000Y-93272700D01*
%TO.C,C13*%
X318792000Y-63922900D02*
X318792000Y-64842900D01*
X318792000Y-64842900D02*
X316972000Y-64842900D01*
X316972000Y-64842900D02*
X316972000Y-63922900D01*
X316972000Y-63922900D02*
X318792000Y-63922900D01*
%TO.C,C16*%
X318792000Y-47832200D02*
X318792000Y-48752200D01*
X318792000Y-48752200D02*
X316972000Y-48752200D01*
X316972000Y-48752200D02*
X316972000Y-47832200D01*
X316972000Y-47832200D02*
X318792000Y-47832200D01*
%TO.C,C17*%
X322856000Y-112857000D02*
X322856000Y-113777000D01*
X322856000Y-113777000D02*
X321036000Y-113777000D01*
X321036000Y-113777000D02*
X321036000Y-112857000D01*
X321036000Y-112857000D02*
X322856000Y-112857000D01*
%TO.C,C18*%
X318792000Y-49957400D02*
X318792000Y-50877400D01*
X318792000Y-50877400D02*
X316972000Y-50877400D01*
X316972000Y-50877400D02*
X316972000Y-49957400D01*
X316972000Y-49957400D02*
X318792000Y-49957400D01*
%TO.C,C22*%
X318792000Y-80423100D02*
X318792000Y-81343100D01*
X318792000Y-81343100D02*
X316972000Y-81343100D01*
X316972000Y-81343100D02*
X316972000Y-80423100D01*
X316972000Y-80423100D02*
X318792000Y-80423100D01*
%TO.C,C24*%
X321332000Y-42779900D02*
X321332000Y-43699900D01*
X321332000Y-43699900D02*
X319512000Y-43699900D01*
X319512000Y-43699900D02*
X319512000Y-42779900D01*
X319512000Y-42779900D02*
X321332000Y-42779900D01*
%TO.C,C27*%
X318792000Y-98600000D02*
X318792000Y-99520000D01*
X318792000Y-99520000D02*
X316972000Y-99520000D01*
X316972000Y-99520000D02*
X316972000Y-98600000D01*
X316972000Y-98600000D02*
X318792000Y-98600000D01*
%TO.C,C29*%
X321332000Y-48149300D02*
X321332000Y-49069300D01*
X321332000Y-49069300D02*
X319512000Y-49069300D01*
X319512000Y-49069300D02*
X319512000Y-48149300D01*
X319512000Y-48149300D02*
X321332000Y-48149300D01*
%TO.C,C31*%
X318792000Y-54252900D02*
X318792000Y-55172900D01*
X318792000Y-55172900D02*
X316972000Y-55172900D01*
X316972000Y-55172900D02*
X316972000Y-54252900D01*
X316972000Y-54252900D02*
X318792000Y-54252900D01*
%TO.C,C32*%
X321332000Y-78592400D02*
X321332000Y-79512400D01*
X321332000Y-79512400D02*
X319512000Y-79512400D01*
X319512000Y-79512400D02*
X319512000Y-78592400D01*
X319512000Y-78592400D02*
X321332000Y-78592400D01*
%TO.C,C33*%
X318792000Y-95298000D02*
X318792000Y-96218000D01*
X318792000Y-96218000D02*
X316972000Y-96218000D01*
X316972000Y-96218000D02*
X316972000Y-95298000D01*
X316972000Y-95298000D02*
X318792000Y-95298000D01*
%TO.C,C36*%
X322856000Y-115000000D02*
X322856000Y-115920000D01*
X322856000Y-115920000D02*
X321036000Y-115920000D01*
X321036000Y-115920000D02*
X321036000Y-115000000D01*
X321036000Y-115000000D02*
X322856000Y-115000000D01*
%TO.C,C37*%
X318792000Y-60696100D02*
X318792000Y-61616100D01*
X318792000Y-61616100D02*
X316972000Y-61616100D01*
X316972000Y-61616100D02*
X316972000Y-60696100D01*
X316972000Y-60696100D02*
X318792000Y-60696100D01*
%TO.C,C39*%
X321332000Y-44927700D02*
X321332000Y-45847700D01*
X321332000Y-45847700D02*
X319512000Y-45847700D01*
X319512000Y-45847700D02*
X319512000Y-44927700D01*
X319512000Y-44927700D02*
X321332000Y-44927700D01*
%TO.C,C41*%
X321332000Y-98946200D02*
X321332000Y-99866200D01*
X321332000Y-99866200D02*
X319512000Y-99866200D01*
X319512000Y-99866200D02*
X319512000Y-98946200D01*
X319512000Y-98946200D02*
X321332000Y-98946200D01*
%TO.C,C42*%
X321332000Y-53518600D02*
X321332000Y-54438600D01*
X321332000Y-54438600D02*
X319512000Y-54438600D01*
X319512000Y-54438600D02*
X319512000Y-53518600D01*
X319512000Y-53518600D02*
X321332000Y-53518600D01*
%TO.C,C46*%
X321332000Y-57814100D02*
X321332000Y-58734100D01*
X321332000Y-58734100D02*
X319512000Y-58734100D01*
X319512000Y-58734100D02*
X319512000Y-57814100D01*
X319512000Y-57814100D02*
X321332000Y-57814100D01*
%TO.C,C47*%
X321332000Y-63183400D02*
X321332000Y-64103400D01*
X321332000Y-64103400D02*
X319512000Y-64103400D01*
X319512000Y-64103400D02*
X319512000Y-63183400D01*
X319512000Y-63183400D02*
X321332000Y-63183400D01*
%TO.C,C48*%
X321332000Y-43853800D02*
X321332000Y-44773800D01*
X321332000Y-44773800D02*
X319512000Y-44773800D01*
X319512000Y-44773800D02*
X319512000Y-43853800D01*
X319512000Y-43853800D02*
X321332000Y-43853800D01*
%TO.C,C49*%
X321332000Y-47075400D02*
X321332000Y-47995400D01*
X321332000Y-47995400D02*
X319512000Y-47995400D01*
X319512000Y-47995400D02*
X319512000Y-47075400D01*
X319512000Y-47075400D02*
X321332000Y-47075400D01*
%TO.C,C51*%
X318792000Y-58548400D02*
X318792000Y-59468400D01*
X318792000Y-59468400D02*
X316972000Y-59468400D01*
X316972000Y-59468400D02*
X316972000Y-58548400D01*
X316972000Y-58548400D02*
X318792000Y-58548400D01*
%TO.C,C54*%
X321332000Y-83961800D02*
X321332000Y-84881800D01*
X321332000Y-84881800D02*
X319512000Y-84881800D01*
X319512000Y-84881800D02*
X319512000Y-83961800D01*
X319512000Y-83961800D02*
X321332000Y-83961800D01*
%TO.C,C56*%
X322856000Y-111786000D02*
X322856000Y-112706000D01*
X322856000Y-112706000D02*
X321036000Y-112706000D01*
X321036000Y-112706000D02*
X321036000Y-111786000D01*
X321036000Y-111786000D02*
X322856000Y-111786000D01*
%TO.C,C57*%
X321332000Y-49223100D02*
X321332000Y-50143100D01*
X321332000Y-50143100D02*
X319512000Y-50143100D01*
X319512000Y-50143100D02*
X319512000Y-49223100D01*
X319512000Y-49223100D02*
X321332000Y-49223100D01*
%TO.C,C58*%
X321332000Y-92515800D02*
X321332000Y-93435800D01*
X321332000Y-93435800D02*
X319512000Y-93435800D01*
X319512000Y-93435800D02*
X319512000Y-92515800D01*
X319512000Y-92515800D02*
X321332000Y-92515800D01*
%TO.C,C61*%
X318792000Y-96481500D02*
X318792000Y-97401500D01*
X318792000Y-97401500D02*
X316972000Y-97401500D01*
X316972000Y-97401500D02*
X316972000Y-96481500D01*
X316972000Y-96481500D02*
X318792000Y-96481500D01*
%TO.C,C62*%
X318792000Y-90051100D02*
X318792000Y-90971100D01*
X318792000Y-90971100D02*
X316972000Y-90971100D01*
X316972000Y-90971100D02*
X316972000Y-90051100D01*
X316972000Y-90051100D02*
X318792000Y-90051100D01*
%TO.C,C63*%
X321332000Y-93589700D02*
X321332000Y-94509700D01*
X321332000Y-94509700D02*
X319512000Y-94509700D01*
X319512000Y-94509700D02*
X319512000Y-93589700D01*
X319512000Y-93589700D02*
X321332000Y-93589700D01*
%TO.C,C64*%
X318792000Y-44610600D02*
X318792000Y-45530600D01*
X318792000Y-45530600D02*
X316972000Y-45530600D01*
X316972000Y-45530600D02*
X316972000Y-44610600D01*
X316972000Y-44610600D02*
X318792000Y-44610600D01*
%TO.C,C66*%
X322856000Y-110715000D02*
X322856000Y-111635000D01*
X322856000Y-111635000D02*
X321036000Y-111635000D01*
X321036000Y-111635000D02*
X321036000Y-110715000D01*
X321036000Y-110715000D02*
X322856000Y-110715000D01*
%TO.C,C67*%
X318792000Y-45684500D02*
X318792000Y-46604500D01*
X318792000Y-46604500D02*
X316972000Y-46604500D01*
X316972000Y-46604500D02*
X316972000Y-45684500D01*
X316972000Y-45684500D02*
X318792000Y-45684500D01*
%TO.C,C71*%
X321332000Y-54592500D02*
X321332000Y-55512500D01*
X321332000Y-55512500D02*
X319512000Y-55512500D01*
X319512000Y-55512500D02*
X319512000Y-54592500D01*
X319512000Y-54592500D02*
X321332000Y-54592500D01*
%TO.C,C73*%
X321332000Y-90368100D02*
X321332000Y-91288100D01*
X321332000Y-91288100D02*
X319512000Y-91288100D01*
X319512000Y-91288100D02*
X319512000Y-90368100D01*
X319512000Y-90368100D02*
X321332000Y-90368100D01*
%TO.C,C74*%
X318792000Y-89014100D02*
X318792000Y-89934100D01*
X318792000Y-89934100D02*
X316972000Y-89934100D01*
X316972000Y-89934100D02*
X316972000Y-89014100D01*
X316972000Y-89014100D02*
X318792000Y-89014100D01*
%TO.C,C79*%
X318792000Y-77201500D02*
X318792000Y-78121500D01*
X318792000Y-78121500D02*
X316972000Y-78121500D01*
X316972000Y-78121500D02*
X316972000Y-77201500D01*
X316972000Y-77201500D02*
X318792000Y-77201500D01*
%TO.C,C81*%
X321332000Y-89331100D02*
X321332000Y-90251100D01*
X321332000Y-90251100D02*
X319512000Y-90251100D01*
X319512000Y-90251100D02*
X319512000Y-89331100D01*
X319512000Y-89331100D02*
X321332000Y-89331100D01*
%TO.C,C82*%
X321332000Y-51370900D02*
X321332000Y-52290900D01*
X321332000Y-52290900D02*
X319512000Y-52290900D01*
X319512000Y-52290900D02*
X319512000Y-51370900D01*
X319512000Y-51370900D02*
X321332000Y-51370900D01*
%TO.C,C83*%
X318792000Y-59622200D02*
X318792000Y-60542200D01*
X318792000Y-60542200D02*
X316972000Y-60542200D01*
X316972000Y-60542200D02*
X316972000Y-59622200D01*
X316972000Y-59622200D02*
X318792000Y-59622200D01*
%TO.C,C84*%
X318792000Y-52105200D02*
X318792000Y-53025200D01*
X318792000Y-53025200D02*
X316972000Y-53025200D01*
X316972000Y-53025200D02*
X316972000Y-52105200D01*
X316972000Y-52105200D02*
X318792000Y-52105200D01*
%TO.C,C88*%
X321332000Y-79666300D02*
X321332000Y-80586300D01*
X321332000Y-80586300D02*
X319512000Y-80586300D01*
X319512000Y-80586300D02*
X319512000Y-79666300D01*
X319512000Y-79666300D02*
X321332000Y-79666300D01*
%TO.C,C89*%
X321332000Y-56740200D02*
X321332000Y-57660200D01*
X321332000Y-57660200D02*
X319512000Y-57660200D01*
X319512000Y-57660200D02*
X319512000Y-56740200D01*
X319512000Y-56740200D02*
X321332000Y-56740200D01*
%TO.C,C91*%
X321332000Y-82887900D02*
X321332000Y-83807900D01*
X321332000Y-83807900D02*
X319512000Y-83807900D01*
X319512000Y-83807900D02*
X319512000Y-82887900D01*
X319512000Y-82887900D02*
X321332000Y-82887900D01*
%TO.C,C93*%
X318792000Y-92198800D02*
X318792000Y-93118800D01*
X318792000Y-93118800D02*
X316972000Y-93118800D01*
X316972000Y-93118800D02*
X316972000Y-92198800D01*
X316972000Y-92198800D02*
X318792000Y-92198800D01*
%TO.C,C96*%
X321332000Y-81814000D02*
X321332000Y-82734000D01*
X321332000Y-82734000D02*
X319512000Y-82734000D01*
X319512000Y-82734000D02*
X319512000Y-81814000D01*
X319512000Y-81814000D02*
X321332000Y-81814000D01*
%TO.C,C97*%
X318792000Y-46758400D02*
X318792000Y-47678400D01*
X318792000Y-47678400D02*
X316972000Y-47678400D01*
X316972000Y-47678400D02*
X316972000Y-46758400D01*
X316972000Y-46758400D02*
X318792000Y-46758400D01*
%TO.C,C98*%
X321332000Y-46001500D02*
X321332000Y-46921500D01*
X321332000Y-46921500D02*
X319512000Y-46921500D01*
X319512000Y-46921500D02*
X319512000Y-46001500D01*
X319512000Y-46001500D02*
X321332000Y-46001500D01*
%TO.C,C101*%
X321332000Y-59961800D02*
X321332000Y-60881800D01*
X321332000Y-60881800D02*
X319512000Y-60881800D01*
X319512000Y-60881800D02*
X319512000Y-59961800D01*
X319512000Y-59961800D02*
X321332000Y-59961800D01*
%TO.C,C23*%
X322856000Y-116071000D02*
X322856000Y-116991000D01*
X322856000Y-116991000D02*
X321036000Y-116991000D01*
X321036000Y-116991000D02*
X321036000Y-116071000D01*
X321036000Y-116071000D02*
X322856000Y-116071000D01*
%TO.C,C26*%
X318792000Y-56400600D02*
X318792000Y-57320600D01*
X318792000Y-57320600D02*
X316972000Y-57320600D01*
X316972000Y-57320600D02*
X316972000Y-56400600D01*
X316972000Y-56400600D02*
X318792000Y-56400600D01*
%TO.C,C28*%
X321332000Y-86109500D02*
X321332000Y-87029500D01*
X321332000Y-87029500D02*
X319512000Y-87029500D01*
X319512000Y-87029500D02*
X319512000Y-86109500D01*
X319512000Y-86109500D02*
X321332000Y-86109500D01*
%TO.C,C15*%
X322856000Y-113928000D02*
X322856000Y-114848000D01*
X322856000Y-114848000D02*
X321036000Y-114848000D01*
X321036000Y-114848000D02*
X321036000Y-113928000D01*
X321036000Y-113928000D02*
X322856000Y-113928000D01*
%TO.C,C21*%
X322856000Y-109644000D02*
X322856000Y-110564000D01*
X322856000Y-110564000D02*
X321036000Y-110564000D01*
X321036000Y-110564000D02*
X321036000Y-109644000D01*
X321036000Y-109644000D02*
X322856000Y-109644000D01*
%TO.C,C19*%
X318792000Y-94282000D02*
X318792000Y-95202000D01*
X318792000Y-95202000D02*
X316972000Y-95202000D01*
X316972000Y-95202000D02*
X316972000Y-94282000D01*
X316972000Y-94282000D02*
X318792000Y-94282000D01*
%TO.C,C44*%
X321332000Y-91442000D02*
X321332000Y-92362000D01*
X321332000Y-92362000D02*
X319512000Y-92362000D01*
X319512000Y-92362000D02*
X319512000Y-91442000D01*
X319512000Y-91442000D02*
X321332000Y-91442000D01*
%TO.C,C38*%
X321332000Y-88257200D02*
X321332000Y-89177200D01*
X321332000Y-89177200D02*
X319512000Y-89177200D01*
X319512000Y-89177200D02*
X319512000Y-88257200D01*
X319512000Y-88257200D02*
X321332000Y-88257200D01*
%TO.C,C52*%
X321332000Y-97905600D02*
X321332000Y-98825600D01*
X321332000Y-98825600D02*
X319512000Y-98825600D01*
X319512000Y-98825600D02*
X319512000Y-97905600D01*
X319512000Y-97905600D02*
X321332000Y-97905600D01*
%TO.C,C34*%
X318792000Y-82570900D02*
X318792000Y-83490900D01*
X318792000Y-83490900D02*
X316972000Y-83490900D01*
X316972000Y-83490900D02*
X316972000Y-82570900D01*
X316972000Y-82570900D02*
X318792000Y-82570900D01*
%TO.C,C43*%
X321332000Y-52444700D02*
X321332000Y-53364700D01*
X321332000Y-53364700D02*
X319512000Y-53364700D01*
X319512000Y-53364700D02*
X319512000Y-52444700D01*
X319512000Y-52444700D02*
X321332000Y-52444700D01*
%TO.C,C53*%
X322856000Y-108573000D02*
X322856000Y-109493000D01*
X322856000Y-109493000D02*
X321036000Y-109493000D01*
X321036000Y-109493000D02*
X321036000Y-108573000D01*
X321036000Y-108573000D02*
X322856000Y-108573000D01*
%TO.C,C59*%
X318792000Y-79349300D02*
X318792000Y-80269300D01*
X318792000Y-80269300D02*
X316972000Y-80269300D01*
X316972000Y-80269300D02*
X316972000Y-79349300D01*
X316972000Y-79349300D02*
X318792000Y-79349300D01*
%TO.C,C78*%
X318792000Y-55326800D02*
X318792000Y-56246800D01*
X318792000Y-56246800D02*
X316972000Y-56246800D01*
X316972000Y-56246800D02*
X316972000Y-55326800D01*
X316972000Y-55326800D02*
X318792000Y-55326800D01*
%TO.C,C86*%
X321332000Y-87183300D02*
X321332000Y-88103300D01*
X321332000Y-88103300D02*
X319512000Y-88103300D01*
X319512000Y-88103300D02*
X319512000Y-87183300D01*
X319512000Y-87183300D02*
X321332000Y-87183300D01*
%TO.C,C92*%
X318792000Y-83644700D02*
X318792000Y-84564700D01*
X318792000Y-84564700D02*
X316972000Y-84564700D01*
X316972000Y-84564700D02*
X316972000Y-83644700D01*
X316972000Y-83644700D02*
X318792000Y-83644700D01*
%TO.C,C99*%
X318792000Y-62849000D02*
X318792000Y-63769000D01*
X318792000Y-63769000D02*
X316972000Y-63769000D01*
X316972000Y-63769000D02*
X316972000Y-62849000D01*
X316972000Y-62849000D02*
X318792000Y-62849000D01*
%TO.C,C87*%
X321332000Y-61035700D02*
X321332000Y-61955700D01*
X321332000Y-61955700D02*
X319512000Y-61955700D01*
X319512000Y-61955700D02*
X319512000Y-61035700D01*
X319512000Y-61035700D02*
X321332000Y-61035700D01*
%TO.C,C76*%
X321332000Y-77518600D02*
X321332000Y-78438600D01*
X321332000Y-78438600D02*
X319512000Y-78438600D01*
X319512000Y-78438600D02*
X319512000Y-77518600D01*
X319512000Y-77518600D02*
X321332000Y-77518600D01*
%TO.C,C94*%
X321332000Y-80740200D02*
X321332000Y-81660200D01*
X321332000Y-81660200D02*
X319512000Y-81660200D01*
X319512000Y-81660200D02*
X319512000Y-80740200D01*
X319512000Y-80740200D02*
X321332000Y-80740200D01*
%TO.C,C77*%
X321332000Y-85035600D02*
X321332000Y-85955600D01*
X321332000Y-85955600D02*
X319512000Y-85955600D01*
X319512000Y-85955600D02*
X319512000Y-85035600D01*
X319512000Y-85035600D02*
X321332000Y-85035600D01*
%TO.C,C69*%
X321332000Y-50297000D02*
X321332000Y-51217000D01*
X321332000Y-51217000D02*
X319512000Y-51217000D01*
X319512000Y-51217000D02*
X319512000Y-50297000D01*
X319512000Y-50297000D02*
X321332000Y-50297000D01*
%TO.C,C68*%
X321332000Y-94684000D02*
X321332000Y-95604000D01*
X321332000Y-95604000D02*
X319512000Y-95604000D01*
X319512000Y-95604000D02*
X319512000Y-94684000D01*
X319512000Y-94684000D02*
X321332000Y-94684000D01*
%TO.C,C72*%
X318792000Y-61770000D02*
X318792000Y-62690000D01*
X318792000Y-62690000D02*
X316972000Y-62690000D01*
X316972000Y-62690000D02*
X316972000Y-61770000D01*
X316972000Y-61770000D02*
X318792000Y-61770000D01*
%TO.C,C4*%
X322856000Y-120355000D02*
X322856000Y-121275000D01*
X322856000Y-121275000D02*
X321036000Y-121275000D01*
X321036000Y-121275000D02*
X321036000Y-120355000D01*
X321036000Y-120355000D02*
X322856000Y-120355000D01*
%TO.C,C7*%
X322856000Y-118213000D02*
X322856000Y-119133000D01*
X322856000Y-119133000D02*
X321036000Y-119133000D01*
X321036000Y-119133000D02*
X321036000Y-118213000D01*
X321036000Y-118213000D02*
X322856000Y-118213000D01*
%TO.C,C10*%
X321332000Y-64257300D02*
X321332000Y-65177300D01*
X321332000Y-65177300D02*
X319512000Y-65177300D01*
X319512000Y-65177300D02*
X319512000Y-64257300D01*
X319512000Y-64257300D02*
X321332000Y-64257300D01*
%TO.C,C14*%
X321332000Y-96831700D02*
X321332000Y-97751700D01*
X321332000Y-97751700D02*
X319512000Y-97751700D01*
X319512000Y-97751700D02*
X319512000Y-96831700D01*
X319512000Y-96831700D02*
X321332000Y-96831700D01*
%TO.C,C2*%
X321332000Y-95757800D02*
X321332000Y-96677800D01*
X321332000Y-96677800D02*
X319512000Y-96677800D01*
X319512000Y-96677800D02*
X319512000Y-95757800D01*
X319512000Y-95757800D02*
X321332000Y-95757800D01*
%TO.C,C12*%
X322863000Y-121374000D02*
X322863000Y-122294000D01*
X322863000Y-122294000D02*
X321043000Y-122294000D01*
X321043000Y-122294000D02*
X321043000Y-121374000D01*
X321043000Y-121374000D02*
X322863000Y-121374000D01*
%TO.C,C1*%
X318792000Y-86866300D02*
X318792000Y-87786300D01*
X318792000Y-87786300D02*
X316972000Y-87786300D01*
X316972000Y-87786300D02*
X316972000Y-86866300D01*
X316972000Y-86866300D02*
X318792000Y-86866300D01*
%TD*%
M02*
