%TF.GenerationSoftware,KiCad,Pcbnew,(5.1.10)-1*%
%TF.CreationDate,2022-01-02T12:28:33-08:00*%
%TF.ProjectId,chgray-keyboard,63686772-6179-42d6-9b65-79626f617264,Yeet2*%
%TF.SameCoordinates,Original*%
%TF.FileFunction,Copper,L2,Bot*%
%TF.FilePolarity,Positive*%
%FSLAX46Y46*%
G04 Gerber Fmt 4.6, Leading zero omitted, Abs format (unit mm)*
G04 Created by KiCad (PCBNEW (5.1.10)-1) date 2022-01-02 12:28:33*
%MOMM*%
%LPD*%
G01*
G04 APERTURE LIST*
%TA.AperFunction,ViaPad*%
%ADD10C,0.800000*%
%TD*%
%TA.AperFunction,Conductor*%
%ADD11C,0.250000*%
%TD*%
G04 APERTURE END LIST*
D10*
%TO.N,*%
X209169000Y-113080800D03*
X209118200Y-114681000D03*
X202361800Y-112826800D03*
X202387200Y-114604800D03*
%TD*%
D11*
%TO.N,*%
X209905600Y-112242600D02*
X209931000Y-112268000D01*
X208610200Y-112242600D02*
X209905600Y-112242600D01*
X208127600Y-112725200D02*
X208610200Y-112242600D01*
X208127600Y-113360200D02*
X208127600Y-112725200D01*
X208508600Y-113919000D02*
X208508600Y-113741200D01*
X208026000Y-114401600D02*
X208508600Y-113919000D01*
X208508600Y-113741200D02*
X208127600Y-113360200D01*
X208026000Y-114960400D02*
X208026000Y-114401600D01*
X208635600Y-115570000D02*
X208026000Y-114960400D01*
X209854800Y-115570000D02*
X208635600Y-115570000D01*
X209931000Y-115493800D02*
X209854800Y-115570000D01*
X209931000Y-112268000D02*
X209931000Y-115493800D01*
X207137000Y-112242600D02*
X207137000Y-112953800D01*
X207137000Y-112953800D02*
X206273400Y-113817400D01*
X204520800Y-113055400D02*
X204520800Y-112115600D01*
X204520800Y-112115600D02*
X204546200Y-112090200D01*
X204546200Y-112090200D02*
X205079600Y-112090200D01*
X205079600Y-112090200D02*
X205663800Y-112674400D01*
X205663800Y-112674400D02*
X205943200Y-112674400D01*
X205943200Y-112674400D02*
X206527400Y-112090200D01*
X206984600Y-112090200D02*
X207137000Y-112242600D01*
X206527400Y-112090200D02*
X206984600Y-112090200D01*
X192760600Y-112826800D02*
X193192400Y-112826800D01*
X193192400Y-112826800D02*
X193675000Y-112344200D01*
X193675000Y-112344200D02*
X194716400Y-112344200D01*
X194716400Y-112344200D02*
X195453000Y-113080800D01*
X195453000Y-113080800D02*
X195453000Y-114173000D01*
X195453000Y-114173000D02*
X194767200Y-114858800D01*
X194767200Y-114858800D02*
X193319400Y-114858800D01*
X193319400Y-114858800D02*
X192659000Y-114198400D01*
X192659000Y-114198400D02*
X193548000Y-114198400D01*
X193548000Y-114198400D02*
X193548000Y-113715800D01*
X193548000Y-113715800D02*
X193497200Y-113665000D01*
X193497200Y-113665000D02*
X191998600Y-113665000D01*
X191998600Y-113665000D02*
X191820800Y-113842800D01*
X191820800Y-113842800D02*
X191820800Y-114630200D01*
X191820800Y-114630200D02*
X192938400Y-115747800D01*
X192938400Y-115747800D02*
X195148200Y-115747800D01*
X195148200Y-115747800D02*
X196570600Y-114325400D01*
X196570600Y-114325400D02*
X196570600Y-112979200D01*
X196570600Y-112979200D02*
X195199000Y-111607600D01*
X195199000Y-111607600D02*
X192887600Y-111607600D01*
X192887600Y-111607600D02*
X192760600Y-111734600D01*
X192760600Y-111734600D02*
X192760600Y-112826800D01*
X199694800Y-111455200D02*
X199110600Y-111455200D01*
X199821800Y-115646200D02*
X199821800Y-111582200D01*
X199821800Y-111582200D02*
X199694800Y-111455200D01*
X199618600Y-115849400D02*
X197586600Y-115849400D01*
X197561200Y-114681000D02*
X198831200Y-114681000D01*
X197586600Y-115849400D02*
X197256400Y-115519200D01*
X199821800Y-115646200D02*
X199618600Y-115849400D01*
X197256400Y-115519200D02*
X197256400Y-114985800D01*
X197256400Y-114985800D02*
X197561200Y-114681000D01*
X198831200Y-111734600D02*
X199110600Y-111455200D01*
X198831200Y-114681000D02*
X198831200Y-111734600D01*
X204520800Y-113055400D02*
X204571600Y-113055400D01*
X204571600Y-113055400D02*
X205409800Y-113893600D01*
X205409800Y-113893600D02*
X205409800Y-115443000D01*
X205409800Y-115443000D02*
X205562200Y-115595400D01*
X205562200Y-115595400D02*
X205790800Y-115595400D01*
X206273400Y-115112800D02*
X206273400Y-113817400D01*
X205790800Y-115595400D02*
X206273400Y-115112800D01*
%TD*%
M02*
