M48
; DRILL file {KiCad (5.1.10)-1} date 09/10/21 11:23:50
; FORMAT={-:-/ absolute / inch / decimal}
; #@! TF.CreationDate,2021-09-10T11:23:50-07:00
; #@! TF.GenerationSoftware,Kicad,Pcbnew,(5.1.10)-1
; #@! TF.FileFunction,NonPlated,1,2,NPTH
FMAT,2
INCH
T1C0.0354
T2C0.0670
T3C0.1181
T4C0.1200
T5C0.1570
%
G90
G05
T1
X12.4674Y-0.344
X12.6406Y-0.344
T2
X1.39Y-0.735
X1.39Y-1.4832
X1.4888Y-4.4896
X1.5825Y-2.2352
X1.6763Y-2.9846
X1.79Y-0.735
X1.79Y-1.4832
X1.8638Y-3.7346
X1.8888Y-4.4896
X1.9825Y-2.2352
X2.0763Y-2.9846
X2.14Y-0.735
X2.14Y-1.4832
X2.2638Y-3.7346
X2.4304Y-4.4896
X2.52Y-2.23
X2.54Y-0.735
X2.54Y-1.4832
X2.705Y-2.985
X2.8304Y-4.4896
X2.89Y-0.735
X2.89Y-1.4832
X2.92Y-2.23
X3.08Y-3.735
X3.105Y-2.985
X3.265Y-2.23
X3.29Y-0.735
X3.29Y-1.4832
X3.3704Y-4.4896
X3.455Y-2.985
X3.48Y-3.735
X3.64Y-0.735
X3.64Y-1.4832
X3.665Y-2.23
X3.7704Y-4.4896
X3.82Y-3.735
X3.855Y-2.985
X4.01Y-2.23
X4.04Y-0.735
X4.04Y-1.4832
X4.205Y-2.985
X4.22Y-3.735
X4.39Y-0.735
X4.39Y-1.4832
X4.41Y-2.23
X4.565Y-3.735
X4.605Y-2.985
X4.755Y-2.23
X4.79Y-0.735
X4.79Y-1.4832
X4.955Y-2.985
X4.965Y-3.735
X5.14Y-0.735
X5.14Y-1.4832
X5.155Y-2.23
X5.31Y-3.735
X5.355Y-2.985
X5.5Y-2.23
X5.54Y-0.735
X5.54Y-1.4832
X5.695Y-2.985
X5.71Y-3.735
X5.89Y-0.735
X5.89Y-1.4832
X5.9Y-2.23
X6.055Y-3.735
X6.095Y-2.985
X6.185Y-4.49
X6.245Y-2.23
X6.29Y-0.735
X6.29Y-1.4832
X6.445Y-2.985
X6.455Y-3.735
X6.585Y-4.49
X6.64Y-0.735
X6.64Y-1.4832
X6.645Y-2.23
X6.8Y-3.735
X6.845Y-2.985
X6.99Y-2.23
X7.04Y-0.735
X7.04Y-1.4832
X7.195Y-2.985
X7.2Y-3.735
X7.39Y-0.735
X7.39Y-1.4832
X7.39Y-2.23
X7.55Y-3.735
X7.595Y-2.985
X7.735Y-2.23
X7.79Y-0.735
X7.79Y-1.4832
X7.945Y-2.985
X7.95Y-3.735
X8.135Y-2.23
X8.14Y-0.735
X8.14Y-1.4832
X8.305Y-3.735
X8.345Y-2.985
X8.48Y-2.23
X8.54Y-0.735
X8.54Y-1.4832
X8.695Y-2.985
X8.705Y-3.735
X8.88Y-2.23
X8.89Y-0.735
X8.89Y-1.4832
X8.9804Y-4.4896
X9.055Y-3.735
X9.095Y-2.985
X9.225Y-2.23
X9.29Y-0.735
X9.29Y-1.4832
X9.3804Y-4.4896
X9.445Y-2.985
X9.455Y-3.735
X9.625Y-2.23
X9.64Y-0.735
X9.64Y-1.4832
X9.81Y-3.735
X9.845Y-2.985
X9.9204Y-4.4896
X9.975Y-2.23
X10.04Y-0.735
X10.04Y-1.4832
X10.195Y-2.985
X10.21Y-3.735
X10.3204Y-4.4896
X10.375Y-2.23
X10.39Y-0.735
X10.39Y-1.4832
X10.595Y-2.985
X10.73Y-2.23
X10.79Y-0.735
X10.79Y-1.4832
X10.8604Y-4.4896
X11.13Y-2.23
X11.14Y-0.735
X11.2304Y-3.7396
X11.2604Y-4.4896
X11.4228Y-2.9846
X11.5167Y-1.4896
X11.54Y-0.735
X11.6304Y-3.7396
X11.7041Y-2.2296
X11.7976Y-4.4896
X11.8228Y-2.9846
X11.8958Y-0.735
X11.9167Y-1.4896
X12.1041Y-2.2296
X12.1976Y-4.4896
X12.2958Y-0.735
X12.838Y-0.735
X12.838Y-1.49
X12.838Y-2.235
X12.838Y-2.985
X12.838Y-3.735
X12.838Y-4.49
X13.238Y-0.735
X13.238Y-1.49
X13.238Y-2.235
X13.238Y-2.985
X13.238Y-3.735
X13.238Y-4.49
X13.588Y-0.735
X13.588Y-1.49
X13.588Y-2.235
X13.588Y-2.985
X13.588Y-3.735
X13.588Y-4.49
X13.988Y-0.735
X13.988Y-1.49
X13.988Y-2.235
X13.988Y-2.985
X13.988Y-3.735
X13.988Y-4.49
X14.333Y-0.735
X14.333Y-1.49
X14.333Y-2.235
X14.333Y-2.985
X14.333Y-3.735
X14.333Y-4.49
X14.733Y-0.735
X14.733Y-1.49
X14.733Y-2.235
X14.733Y-2.985
X14.733Y-3.735
X14.733Y-4.49
T3
X1.44Y-0.635
X1.44Y-1.3832
X1.5388Y-4.3896
X1.6325Y-2.1352
X1.69Y-0.535
X1.69Y-1.2832
X1.7263Y-2.8846
X1.7888Y-4.2896
X1.8825Y-2.0352
X1.9138Y-3.6346
X1.9763Y-2.7846
X2.1638Y-3.5346
X2.19Y-0.635
X2.19Y-1.3832
X2.44Y-0.535
X2.44Y-1.2832
X2.4804Y-4.3896
X2.57Y-2.13
X2.7304Y-4.2896
X2.755Y-2.885
X2.82Y-2.03
X2.94Y-0.635
X2.94Y-1.3832
X3.005Y-2.785
X3.13Y-3.635
X3.19Y-0.535
X3.19Y-1.2832
X3.315Y-2.13
X3.38Y-3.535
X3.4204Y-4.3896
X3.505Y-2.885
X3.565Y-2.03
X3.6704Y-4.2896
X3.69Y-0.635
X3.69Y-1.3832
X3.755Y-2.785
X3.87Y-3.635
X3.94Y-0.535
X3.94Y-1.2832
X4.06Y-2.13
X4.12Y-3.535
X4.255Y-2.885
X4.31Y-2.03
X4.44Y-0.635
X4.44Y-1.3832
X4.505Y-2.785
X4.615Y-3.635
X4.69Y-0.535
X4.69Y-1.2832
X4.805Y-2.13
X4.865Y-3.535
X5.005Y-2.885
X5.055Y-2.03
X5.19Y-0.635
X5.19Y-1.3832
X5.255Y-2.785
X5.36Y-3.635
X5.44Y-0.535
X5.44Y-1.2832
X5.55Y-2.13
X5.61Y-3.535
X5.745Y-2.885
X5.8Y-2.03
X5.94Y-0.635
X5.94Y-1.3832
X5.995Y-2.785
X6.105Y-3.635
X6.19Y-0.535
X6.19Y-1.2832
X6.295Y-2.13
X6.355Y-3.535
X6.495Y-2.885
X6.545Y-2.03
X6.69Y-0.635
X6.69Y-1.3832
X6.745Y-2.785
X6.85Y-3.635
X6.94Y-0.535
X6.94Y-1.2832
X7.04Y-2.13
X7.1Y-3.535
X7.245Y-2.885
X7.29Y-2.03
X7.44Y-0.635
X7.44Y-1.3832
X7.495Y-2.785
X7.6Y-3.635
X7.69Y-0.535
X7.69Y-1.2832
X7.785Y-2.13
X7.85Y-3.535
X7.995Y-2.885
X8.035Y-2.03
X8.19Y-0.635
X8.19Y-1.3832
X8.245Y-2.785
X8.355Y-3.635
X8.44Y-0.535
X8.44Y-1.2832
X8.53Y-2.13
X8.605Y-3.535
X8.745Y-2.885
X8.78Y-2.03
X8.94Y-0.635
X8.94Y-1.3832
X8.995Y-2.785
X9.0304Y-4.3896
X9.105Y-3.635
X9.19Y-0.535
X9.19Y-1.2832
X9.275Y-2.13
X9.2804Y-4.2896
X9.355Y-3.535
X9.495Y-2.885
X9.525Y-2.03
X9.69Y-0.635
X9.69Y-1.3832
X9.745Y-2.785
X9.86Y-3.635
X9.94Y-0.535
X9.94Y-1.2832
X9.9704Y-4.3896
X10.025Y-2.13
X10.11Y-3.535
X10.2204Y-4.2896
X10.245Y-2.885
X10.275Y-2.03
X10.44Y-0.635
X10.44Y-1.3832
X10.495Y-2.785
X10.69Y-0.535
X10.69Y-1.2832
X10.78Y-2.13
X10.9104Y-4.3896
X11.03Y-2.03
X11.1604Y-4.2896
X11.19Y-0.635
X11.2804Y-3.6396
X11.44Y-0.535
X11.4728Y-2.8846
X11.5304Y-3.5396
X11.5667Y-1.3896
X11.7228Y-2.7846
X11.7541Y-2.1296
X11.8167Y-1.2896
X11.8476Y-4.3896
X11.9458Y-0.635
X12.0041Y-2.0296
X12.0976Y-4.2896
X12.1958Y-0.535
X12.888Y-0.635
X12.888Y-1.39
X12.888Y-2.135
X12.888Y-2.885
X12.888Y-3.635
X12.888Y-4.39
X13.138Y-0.535
X13.138Y-1.29
X13.138Y-2.035
X13.138Y-2.785
X13.138Y-3.535
X13.138Y-4.29
X13.638Y-0.635
X13.638Y-1.39
X13.638Y-2.135
X13.638Y-2.885
X13.638Y-3.635
X13.638Y-4.39
X13.888Y-0.535
X13.888Y-1.29
X13.888Y-2.035
X13.888Y-2.785
X13.888Y-3.535
X13.888Y-4.29
X14.383Y-0.635
X14.383Y-1.39
X14.383Y-2.135
X14.383Y-2.885
X14.383Y-3.635
X14.383Y-4.39
X14.633Y-0.535
X14.633Y-1.29
X14.633Y-2.035
X14.633Y-2.785
X14.633Y-3.535
X14.633Y-4.29
T4
X1.5934Y-3.46
X2.5334Y-3.46
X4.415Y-4.765
X8.355Y-4.765
X10.96Y-3.465
X11.1524Y-2.71
X11.2463Y-1.215
X11.9Y-3.465
X12.0924Y-2.71
X12.1863Y-1.215
T5
X1.59Y-0.735
X1.59Y-1.4832
X1.5934Y-4.06
X1.6888Y-4.4896
X1.7825Y-2.2352
X1.8763Y-2.9846
X2.0638Y-3.7346
X2.34Y-0.735
X2.34Y-1.4832
X2.5334Y-4.06
X2.6304Y-4.4896
X2.72Y-2.23
X2.905Y-2.985
X3.09Y-0.735
X3.09Y-1.4832
X3.28Y-3.735
X3.465Y-2.23
X3.5704Y-4.4896
X3.655Y-2.985
X3.84Y-0.735
X3.84Y-1.4832
X4.02Y-3.735
X4.21Y-2.23
X4.405Y-2.985
X4.415Y-4.165
X4.59Y-0.735
X4.59Y-1.4832
X4.765Y-3.735
X4.955Y-2.23
X5.155Y-2.985
X5.34Y-0.735
X5.34Y-1.4832
X5.51Y-3.735
X5.7Y-2.23
X5.895Y-2.985
X6.09Y-0.735
X6.09Y-1.4832
X6.255Y-3.735
X6.385Y-4.49
X6.445Y-2.23
X6.645Y-2.985
X6.84Y-0.735
X6.84Y-1.4832
X7.0Y-3.735
X7.19Y-2.23
X7.395Y-2.985
X7.59Y-0.735
X7.59Y-1.4832
X7.75Y-3.735
X7.935Y-2.23
X8.145Y-2.985
X8.34Y-0.735
X8.34Y-1.4832
X8.355Y-4.165
X8.505Y-3.735
X8.68Y-2.23
X8.895Y-2.985
X9.09Y-0.735
X9.09Y-1.4832
X9.1804Y-4.4896
X9.255Y-3.735
X9.425Y-2.23
X9.645Y-2.985
X9.84Y-0.735
X9.84Y-1.4832
X10.01Y-3.735
X10.1204Y-4.4896
X10.175Y-2.23
X10.395Y-2.985
X10.59Y-0.735
X10.59Y-1.4832
X10.93Y-2.23
X10.96Y-4.065
X11.0604Y-4.4896
X11.1524Y-3.31
X11.2463Y-1.815
X11.34Y-0.735
X11.4304Y-3.7396
X11.6228Y-2.9846
X11.7167Y-1.4896
X11.9Y-4.065
X11.9041Y-2.2296
X11.9976Y-4.4896
X12.0924Y-3.31
X12.0958Y-0.735
X12.1863Y-1.815
X13.038Y-0.735
X13.038Y-1.49
X13.038Y-2.235
X13.038Y-2.985
X13.038Y-3.735
X13.038Y-4.49
X13.788Y-0.735
X13.788Y-1.49
X13.788Y-2.235
X13.788Y-2.985
X13.788Y-3.735
X13.788Y-4.49
X14.533Y-0.735
X14.533Y-1.49
X14.533Y-2.235
X14.533Y-2.985
X14.533Y-3.735
X14.533Y-4.49
T0
M30
