  0
SECTION
  2
HEADER
  9
$ANGBASE
  50
0.0
  9
$ANGDIR
  70
1
  9
$MEASUREMENT
  70
1
  0
ENDSEC
  0
SECTION
  2
TABLES
  0
TABLE
  2
LTYPE
  70
4
  0
LTYPE
  5
40F
  2
CONTINUOUS
  70
0
  3
Solid line
  72
65
  73
0
  40
0.0
  0
LTYPE
  5
410
  2
DASHDOT
 70
0
  3
Dash Dot ____ _ ____ _
 72
65
 73
4
 40
2.0
 49
1.25
 49
-0.25
 49
0.25
 49
-0.25
  0
LTYPE
  5
411
  2
DASHED
 70
0
  3
Dashed __ __ __ __ __
 72
65
 73
2
 40
0.75
 49
0.5
 49
-0.25
  0
LTYPE
  5
43B
  2
DOTTED
 70
0
  3
Dotted .  .  .  .
 72
65
 73
2
 40
0.2
 49
0.0
 49
-0.2
  0
ENDTAB
  0
TABLE
  2
STYLE
  70
4
  0
STYLE
  2
KICAD
  70
0
  40
0
  41
1
  42
1
  50
0
  71
0
  3
isocp.shx
  0
STYLE
  2
KICADB
  70
0
  40
0
  41
1
  42
1
  50
0
  71
0
  3
isocp.shx
  0
STYLE
  2
KICADI
  70
0
  40
0
  41
1
  42
1
  50
15
  71
0
  3
isocp.shx
  0
STYLE
  2
KICADBI
  70
0
  40
0
  41
1
  42
1
  50
15
  71
0
  3
isocp.shx
  0
ENDTAB
  0
TABLE
  2
LAYER
  70
1
  0
LAYER
  2
BLACK
  70
0
  62
7
  6
CONTINUOUS
  0
ENDTAB
  0
ENDSEC
  0
SECTION
  2
ENTITIES
0
LINE
8
BLACK
6
CONTINUOUS
10
244.958
20
-123.444
11
221.397
21
-123.444
0
LINE
8
BLACK
6
CONTINUOUS
10
244.958
20
-104.648
11
244.958
21
-123.444
0
LINE
8
BLACK
6
CONTINUOUS
10
221.397
20
-123.444
11
221.397
21
-104.648
0
LINE
8
BLACK
6
CONTINUOUS
10
221.391
20
-104.648
11
244.953
21
-104.648
0
LINE
8
BLACK
6
CONTINUOUS
10
152.881
20
-104.748
11
171.477
21
-104.748
0
LINE
8
BLACK
6
CONTINUOUS
10
152.881
20
-123.344
11
152.881
21
-104.748
0
LINE
8
BLACK
6
CONTINUOUS
10
171.477
20
-123.344
11
152.881
21
-123.344
0
LINE
8
BLACK
6
CONTINUOUS
10
171.477
20
-104.748
11
171.477
21
-123.344
0
LINE
8
BLACK
6
CONTINUOUS
10
102.773
20
-104.648
11
221.585
21
-104.648
0
LINE
8
BLACK
6
CONTINUOUS
10
221.585
20
-104.648
11
221.585
21
-123.444
0
LINE
8
BLACK
6
CONTINUOUS
10
221.585
20
-123.444
11
102.773
21
-123.444
0
LINE
8
BLACK
6
CONTINUOUS
10
102.773
20
-123.444
11
102.773
21
-104.648
0
LINE
8
BLACK
6
CONTINUOUS
10
268.834
20
-123.444
11
245.273
21
-123.444
0
LINE
8
BLACK
6
CONTINUOUS
10
268.834
20
-104.648
11
268.834
21
-123.444
0
LINE
8
BLACK
6
CONTINUOUS
10
245.273
20
-123.444
11
245.273
21
-104.648
0
LINE
8
BLACK
6
CONTINUOUS
10
245.267
20
-104.648
11
268.829
21
-104.648
0
LINE
8
BLACK
6
CONTINUOUS
10
126.338
20
-9.371
11
144.934
21
-9.371
0
LINE
8
BLACK
6
CONTINUOUS
10
144.934
20
-9.371
11
144.934
21
-27.967
0
LINE
8
BLACK
6
CONTINUOUS
10
144.934
20
-27.967
11
126.338
21
-27.967
0
LINE
8
BLACK
6
CONTINUOUS
10
126.338
20
-27.967
11
126.338
21
-9.371
0
LINE
8
BLACK
6
CONTINUOUS
10
202.538
20
-9.371
11
221.134
21
-9.371
0
LINE
8
BLACK
6
CONTINUOUS
10
221.134
20
-9.371
11
221.134
21
-27.967
0
LINE
8
BLACK
6
CONTINUOUS
10
221.134
20
-27.967
11
202.538
21
-27.967
0
LINE
8
BLACK
6
CONTINUOUS
10
202.538
20
-27.967
11
202.538
21
-9.371
0
LINE
8
BLACK
6
CONTINUOUS
10
145.388
20
-9.371
11
163.984
21
-9.371
0
LINE
8
BLACK
6
CONTINUOUS
10
163.984
20
-9.371
11
163.984
21
-27.967
0
LINE
8
BLACK
6
CONTINUOUS
10
163.984
20
-27.967
11
145.388
21
-27.967
0
LINE
8
BLACK
6
CONTINUOUS
10
145.388
20
-27.967
11
145.388
21
-9.371
0
LINE
8
BLACK
6
CONTINUOUS
10
321.867
20
-9.371
11
340.463
21
-9.371
0
LINE
8
BLACK
6
CONTINUOUS
10
340.463
20
-9.371
11
340.463
21
-27.967
0
LINE
8
BLACK
6
CONTINUOUS
10
340.463
20
-27.967
11
321.867
21
-27.967
0
LINE
8
BLACK
6
CONTINUOUS
10
321.867
20
-27.967
11
321.867
21
-9.371
0
LINE
8
BLACK
6
CONTINUOUS
10
259.688
20
-9.371
11
278.284
21
-9.371
0
LINE
8
BLACK
6
CONTINUOUS
10
278.284
20
-9.371
11
278.284
21
-27.967
0
LINE
8
BLACK
6
CONTINUOUS
10
278.284
20
-27.967
11
259.688
21
-27.967
0
LINE
8
BLACK
6
CONTINUOUS
10
259.688
20
-27.967
11
259.688
21
-9.371
0
LINE
8
BLACK
6
CONTINUOUS
10
359.84
20
-9.371
11
378.436
21
-9.371
0
LINE
8
BLACK
6
CONTINUOUS
10
378.436
20
-9.371
11
378.436
21
-27.967
0
LINE
8
BLACK
6
CONTINUOUS
10
378.436
20
-27.967
11
359.84
21
-27.967
0
LINE
8
BLACK
6
CONTINUOUS
10
359.84
20
-27.967
11
359.84
21
-9.371
0
LINE
8
BLACK
6
CONTINUOUS
10
278.738
20
-9.371
11
297.334
21
-9.371
0
LINE
8
BLACK
6
CONTINUOUS
10
297.334
20
-9.371
11
297.334
21
-27.967
0
LINE
8
BLACK
6
CONTINUOUS
10
297.334
20
-27.967
11
278.738
21
-27.967
0
LINE
8
BLACK
6
CONTINUOUS
10
278.738
20
-27.967
11
278.738
21
-9.371
0
LINE
8
BLACK
6
CONTINUOUS
10
297.936
20
-9.371
11
316.532
21
-9.371
0
LINE
8
BLACK
6
CONTINUOUS
10
316.532
20
-9.371
11
316.532
21
-27.967
0
LINE
8
BLACK
6
CONTINUOUS
10
316.532
20
-27.967
11
297.936
21
-27.967
0
LINE
8
BLACK
6
CONTINUOUS
10
297.936
20
-27.967
11
297.936
21
-9.371
0
LINE
8
BLACK
6
CONTINUOUS
10
240.638
20
-9.371
11
259.234
21
-9.371
0
LINE
8
BLACK
6
CONTINUOUS
10
259.234
20
-9.371
11
259.234
21
-27.967
0
LINE
8
BLACK
6
CONTINUOUS
10
259.234
20
-27.967
11
240.638
21
-27.967
0
LINE
8
BLACK
6
CONTINUOUS
10
240.638
20
-27.967
11
240.638
21
-9.371
0
LINE
8
BLACK
6
CONTINUOUS
10
340.917
20
-9.371
11
359.513
21
-9.371
0
LINE
8
BLACK
6
CONTINUOUS
10
359.513
20
-9.371
11
359.513
21
-27.967
0
LINE
8
BLACK
6
CONTINUOUS
10
359.513
20
-27.967
11
340.917
21
-27.967
0
LINE
8
BLACK
6
CONTINUOUS
10
340.917
20
-27.967
11
340.917
21
-9.371
0
LINE
8
BLACK
6
CONTINUOUS
10
221.588
20
-9.371
11
240.184
21
-9.371
0
LINE
8
BLACK
6
CONTINUOUS
10
240.184
20
-9.371
11
240.184
21
-27.967
0
LINE
8
BLACK
6
CONTINUOUS
10
240.184
20
-27.967
11
221.588
21
-27.967
0
LINE
8
BLACK
6
CONTINUOUS
10
221.588
20
-27.967
11
221.588
21
-9.371
0
LINE
8
BLACK
6
CONTINUOUS
10
316.516
20
-123.444
11
292.955
21
-123.444
0
LINE
8
BLACK
6
CONTINUOUS
10
316.516
20
-104.648
11
316.516
21
-123.444
0
LINE
8
BLACK
6
CONTINUOUS
10
292.955
20
-123.444
11
292.955
21
-104.648
0
LINE
8
BLACK
6
CONTINUOUS
10
292.949
20
-104.648
11
316.511
21
-104.648
0
LINE
8
BLACK
6
CONTINUOUS
10
264.128
20
-85.598
11
316.516
21
-85.598
0
LINE
8
BLACK
6
CONTINUOUS
10
316.516
20
-104.394
11
264.128
21
-104.394
0
LINE
8
BLACK
6
CONTINUOUS
10
264.128
20
-104.394
11
264.128
21
-85.598
0
LINE
8
BLACK
6
CONTINUOUS
10
316.516
20
-85.598
11
316.516
21
-104.394
0
LINE
8
BLACK
6
CONTINUOUS
10
280.934
20
-104.384
11
280.934
21
-85.588
0
LINE
8
BLACK
6
CONTINUOUS
10
299.73
20
-85.588
11
299.73
21
-104.384
0
LINE
8
BLACK
6
CONTINUOUS
10
299.73
20
-104.384
11
280.934
21
-104.384
0
LINE
8
BLACK
6
CONTINUOUS
10
280.934
20
-85.588
11
299.73
21
-85.588
0
LINE
8
BLACK
6
CONTINUOUS
10
273.904
20
-85.217
11
273.904
21
-66.421
0
LINE
8
BLACK
6
CONTINUOUS
10
316.516
20
-66.421
11
316.516
21
-85.217
0
LINE
8
BLACK
6
CONTINUOUS
10
316.516
20
-85.217
11
273.904
21
-85.217
0
LINE
8
BLACK
6
CONTINUOUS
10
273.904
20
-66.421
11
316.516
21
-66.421
0
LINE
8
BLACK
6
CONTINUOUS
10
285.822
20
-85.207
11
285.822
21
-66.411
0
LINE
8
BLACK
6
CONTINUOUS
10
304.618
20
-66.411
11
304.618
21
-85.207
0
LINE
8
BLACK
6
CONTINUOUS
10
304.618
20
-85.207
11
285.822
21
-85.207
0
LINE
8
BLACK
6
CONTINUOUS
10
285.822
20
-66.411
11
304.618
21
-66.411
0
LINE
8
BLACK
6
CONTINUOUS
10
31.088
20
-28.3759
11
49.684
21
-28.3759
0
LINE
8
BLACK
6
CONTINUOUS
10
49.684
20
-28.3759
11
49.684
21
-46.9719
0
LINE
8
BLACK
6
CONTINUOUS
10
49.684
20
-46.9719
11
31.088
21
-46.9719
0
LINE
8
BLACK
6
CONTINUOUS
10
31.088
20
-46.9719
11
31.088
21
-28.3759
0
LINE
8
BLACK
6
CONTINUOUS
10
102.464
20
-123.444
11
78.9026
21
-123.444
0
LINE
8
BLACK
6
CONTINUOUS
10
102.464
20
-104.648
11
102.464
21
-123.444
0
LINE
8
BLACK
6
CONTINUOUS
10
78.9026
20
-123.444
11
78.9026
21
-104.648
0
LINE
8
BLACK
6
CONTINUOUS
10
78.8975
20
-104.648
11
102.459
21
-104.648
0
LINE
8
BLACK
6
CONTINUOUS
10
78.5876
20
-123.444
11
55.0266
21
-123.444
0
LINE
8
BLACK
6
CONTINUOUS
10
78.5876
20
-104.648
11
78.5876
21
-123.444
0
LINE
8
BLACK
6
CONTINUOUS
10
55.0266
20
-123.444
11
55.0266
21
-104.648
0
LINE
8
BLACK
6
CONTINUOUS
10
55.0215
20
-104.648
11
78.5825
21
-104.648
0
LINE
8
BLACK
6
CONTINUOUS
10
54.6703
20
-123.444
11
31.1093
21
-123.444
0
LINE
8
BLACK
6
CONTINUOUS
10
54.6703
20
-104.648
11
54.6703
21
-123.444
0
LINE
8
BLACK
6
CONTINUOUS
10
31.1093
20
-123.444
11
31.1093
21
-104.648
0
LINE
8
BLACK
6
CONTINUOUS
10
31.1042
20
-104.648
11
54.6652
21
-104.648
0
LINE
8
BLACK
6
CONTINUOUS
10
288.195
20
-47.244
11
316.515
21
-47.244
0
LINE
8
BLACK
6
CONTINUOUS
10
316.515
20
-66.04
11
316.515
21
-47.244
0
LINE
8
BLACK
6
CONTINUOUS
10
316.515
20
-66.04
11
288.195
21
-66.04
0
LINE
8
BLACK
6
CONTINUOUS
10
288.195
20
-47.244
11
288.195
21
-66.04
0
LINE
8
BLACK
6
CONTINUOUS
10
31.1042
20
-104.267
11
31.1042
21
-85.471
0
LINE
8
BLACK
6
CONTINUOUS
10
73.7152
20
-85.471
11
73.7152
21
-104.267
0
LINE
8
BLACK
6
CONTINUOUS
10
73.7152
20
-104.267
11
31.1042
21
-104.267
0
LINE
8
BLACK
6
CONTINUOUS
10
31.1042
20
-85.471
11
73.7152
21
-85.471
0
LINE
8
BLACK
6
CONTINUOUS
10
43.0217
20
-104.257
11
43.0217
21
-85.461
0
LINE
8
BLACK
6
CONTINUOUS
10
61.8177
20
-85.461
11
61.8177
21
-104.257
0
LINE
8
BLACK
6
CONTINUOUS
10
61.8177
20
-104.257
11
43.0217
21
-104.257
0
LINE
8
BLACK
6
CONTINUOUS
10
43.0217
20
-85.461
11
61.8177
21
-85.461
0
LINE
8
BLACK
6
CONTINUOUS
10
288.205
20
-28.438
11
307.001
21
-28.438
0
LINE
8
BLACK
6
CONTINUOUS
10
307.001
20
-47.234
11
288.205
21
-47.234
0
LINE
8
BLACK
6
CONTINUOUS
10
307.001
20
-28.438
11
307.001
21
-47.234
0
LINE
8
BLACK
6
CONTINUOUS
10
288.205
20
-47.234
11
288.205
21
-28.438
0
LINE
8
BLACK
6
CONTINUOUS
10
278.67
20
-28.448
11
316.516
21
-28.448
0
LINE
8
BLACK
6
CONTINUOUS
10
316.516
20
-47.244
11
278.67
21
-47.244
0
LINE
8
BLACK
6
CONTINUOUS
10
316.516
20
-28.448
11
316.516
21
-47.244
0
LINE
8
BLACK
6
CONTINUOUS
10
278.67
20
-47.244
11
278.67
21
-28.448
0
LINE
8
BLACK
6
CONTINUOUS
10
31.1042
20
-47.3872
11
59.4252
21
-47.3872
0
LINE
8
BLACK
6
CONTINUOUS
10
59.4252
20
-66.1832
11
59.4252
21
-47.3872
0
LINE
8
BLACK
6
CONTINUOUS
10
59.4252
20
-66.1832
11
31.1042
21
-66.1832
0
LINE
8
BLACK
6
CONTINUOUS
10
31.1042
20
-47.3872
11
31.1042
21
-66.1832
0
LINE
8
BLACK
6
CONTINUOUS
10
64.1902
20
-85.217
11
64.1902
21
-66.421
0
LINE
8
BLACK
6
CONTINUOUS
10
31.1042
20
-66.421
11
31.1042
21
-85.217
0
LINE
8
BLACK
6
CONTINUOUS
10
31.1042
20
-85.217
11
64.1902
21
-85.217
0
LINE
8
BLACK
6
CONTINUOUS
10
31.1042
20
-66.421
11
64.1902
21
-66.421
0
LINE
8
BLACK
6
CONTINUOUS
10
38.2592
20
-85.207
11
38.2592
21
-66.411
0
LINE
8
BLACK
6
CONTINUOUS
10
57.0552
20
-66.411
11
57.0552
21
-85.207
0
LINE
8
BLACK
6
CONTINUOUS
10
57.0552
20
-85.207
11
38.2592
21
-85.207
0
LINE
8
BLACK
6
CONTINUOUS
10
38.2592
20
-66.411
11
57.0552
21
-66.411
0
LINE
8
BLACK
6
CONTINUOUS
10
235.685
20
-66.521
11
254.281
21
-66.521
0
LINE
8
BLACK
6
CONTINUOUS
10
254.281
20
-66.521
11
254.281
21
-85.117
0
LINE
8
BLACK
6
CONTINUOUS
10
254.281
20
-85.117
11
235.685
21
-85.117
0
LINE
8
BLACK
6
CONTINUOUS
10
235.685
20
-85.117
11
235.685
21
-66.521
0
LINE
8
BLACK
6
CONTINUOUS
10
107.288
20
-9.371
11
125.884
21
-9.371
0
LINE
8
BLACK
6
CONTINUOUS
10
125.884
20
-9.371
11
125.884
21
-27.967
0
LINE
8
BLACK
6
CONTINUOUS
10
125.884
20
-27.967
11
107.288
21
-27.967
0
LINE
8
BLACK
6
CONTINUOUS
10
107.288
20
-27.967
11
107.288
21
-9.371
0
LINE
8
BLACK
6
CONTINUOUS
10
225.779
20
-85.571
11
244.375
21
-85.571
0
LINE
8
BLACK
6
CONTINUOUS
10
244.375
20
-85.571
11
244.375
21
-104.167
0
LINE
8
BLACK
6
CONTINUOUS
10
244.375
20
-104.167
11
225.779
21
-104.167
0
LINE
8
BLACK
6
CONTINUOUS
10
225.779
20
-104.167
11
225.779
21
-85.571
0
LINE
8
BLACK
6
CONTINUOUS
10
50.138
20
-28.3759
11
68.734
21
-28.3759
0
LINE
8
BLACK
6
CONTINUOUS
10
68.734
20
-28.3759
11
68.734
21
-46.9719
0
LINE
8
BLACK
6
CONTINUOUS
10
68.734
20
-46.9719
11
50.138
21
-46.9719
0
LINE
8
BLACK
6
CONTINUOUS
10
50.138
20
-46.9719
11
50.138
21
-28.3759
0
LINE
8
BLACK
6
CONTINUOUS
10
59.79
20
-47.344
11
78.386
21
-47.344
0
LINE
8
BLACK
6
CONTINUOUS
10
78.386
20
-47.344
11
78.386
21
-65.94
0
LINE
8
BLACK
6
CONTINUOUS
10
78.386
20
-65.94
11
59.79
21
-65.94
0
LINE
8
BLACK
6
CONTINUOUS
10
59.79
20
-65.94
11
59.79
21
-47.344
0
LINE
8
BLACK
6
CONTINUOUS
10
64.489
20
-66.521
11
83.085
21
-66.521
0
LINE
8
BLACK
6
CONTINUOUS
10
83.085
20
-66.521
11
83.085
21
-85.117
0
LINE
8
BLACK
6
CONTINUOUS
10
83.085
20
-85.117
11
64.489
21
-85.117
0
LINE
8
BLACK
6
CONTINUOUS
10
64.489
20
-85.117
11
64.489
21
-66.521
0
LINE
8
BLACK
6
CONTINUOUS
10
321.867
20
-85.571
11
340.463
21
-85.571
0
LINE
8
BLACK
6
CONTINUOUS
10
340.463
20
-85.571
11
340.463
21
-104.167
0
LINE
8
BLACK
6
CONTINUOUS
10
340.463
20
-104.167
11
321.867
21
-104.167
0
LINE
8
BLACK
6
CONTINUOUS
10
321.867
20
-104.167
11
321.867
21
-85.571
0
LINE
8
BLACK
6
CONTINUOUS
10
83.539
20
-66.521
11
102.135
21
-66.521
0
LINE
8
BLACK
6
CONTINUOUS
10
102.135
20
-66.521
11
102.135
21
-85.117
0
LINE
8
BLACK
6
CONTINUOUS
10
102.135
20
-85.117
11
83.539
21
-85.117
0
LINE
8
BLACK
6
CONTINUOUS
10
83.539
20
-85.117
11
83.539
21
-66.521
0
LINE
8
BLACK
6
CONTINUOUS
10
74.014
20
-85.571
11
92.61
21
-85.571
0
LINE
8
BLACK
6
CONTINUOUS
10
92.61
20
-85.571
11
92.61
21
-104.167
0
LINE
8
BLACK
6
CONTINUOUS
10
92.61
20
-104.167
11
74.014
21
-104.167
0
LINE
8
BLACK
6
CONTINUOUS
10
74.014
20
-104.167
11
74.014
21
-85.571
0
LINE
8
BLACK
6
CONTINUOUS
10
88.238
20
-9.371
11
106.834
21
-9.371
0
LINE
8
BLACK
6
CONTINUOUS
10
106.834
20
-9.371
11
106.834
21
-27.967
0
LINE
8
BLACK
6
CONTINUOUS
10
106.834
20
-27.967
11
88.238
21
-27.967
0
LINE
8
BLACK
6
CONTINUOUS
10
88.238
20
-27.967
11
88.238
21
-9.371
0
LINE
8
BLACK
6
CONTINUOUS
10
69.188
20
-28.3759
11
87.784
21
-28.3759
0
LINE
8
BLACK
6
CONTINUOUS
10
87.784
20
-28.3759
11
87.784
21
-46.9719
0
LINE
8
BLACK
6
CONTINUOUS
10
87.784
20
-46.9719
11
69.188
21
-46.9719
0
LINE
8
BLACK
6
CONTINUOUS
10
69.188
20
-46.9719
11
69.188
21
-28.3759
0
LINE
8
BLACK
6
CONTINUOUS
10
78.713
20
-47.344
11
97.309
21
-47.344
0
LINE
8
BLACK
6
CONTINUOUS
10
97.309
20
-47.344
11
97.309
21
-65.94
0
LINE
8
BLACK
6
CONTINUOUS
10
97.309
20
-65.94
11
78.713
21
-65.94
0
LINE
8
BLACK
6
CONTINUOUS
10
78.713
20
-65.94
11
78.713
21
-47.344
0
LINE
8
BLACK
6
CONTINUOUS
10
88.238
20
-28.3759
11
106.834
21
-28.3759
0
LINE
8
BLACK
6
CONTINUOUS
10
106.834
20
-28.3759
11
106.834
21
-46.9719
0
LINE
8
BLACK
6
CONTINUOUS
10
106.834
20
-46.9719
11
88.238
21
-46.9719
0
LINE
8
BLACK
6
CONTINUOUS
10
88.238
20
-46.9719
11
88.238
21
-28.3759
0
LINE
8
BLACK
6
CONTINUOUS
10
97.636
20
-47.344
11
116.232
21
-47.344
0
LINE
8
BLACK
6
CONTINUOUS
10
116.232
20
-47.344
11
116.232
21
-65.94
0
LINE
8
BLACK
6
CONTINUOUS
10
116.232
20
-65.94
11
97.636
21
-65.94
0
LINE
8
BLACK
6
CONTINUOUS
10
97.636
20
-65.94
11
97.636
21
-47.344
0
LINE
8
BLACK
6
CONTINUOUS
10
102.589
20
-66.521
11
121.185
21
-66.521
0
LINE
8
BLACK
6
CONTINUOUS
10
121.185
20
-66.521
11
121.185
21
-85.117
0
LINE
8
BLACK
6
CONTINUOUS
10
121.185
20
-85.117
11
102.589
21
-85.117
0
LINE
8
BLACK
6
CONTINUOUS
10
102.589
20
-85.117
11
102.589
21
-66.521
0
LINE
8
BLACK
6
CONTINUOUS
10
92.81
20
-85.571
11
111.406
21
-85.571
0
LINE
8
BLACK
6
CONTINUOUS
10
111.406
20
-85.571
11
111.406
21
-104.167
0
LINE
8
BLACK
6
CONTINUOUS
10
111.406
20
-104.167
11
92.81
21
-104.167
0
LINE
8
BLACK
6
CONTINUOUS
10
92.81
20
-104.167
11
92.81
21
-85.571
0
LINE
8
BLACK
6
CONTINUOUS
10
230.097
20
-47.344
11
248.693
21
-47.344
0
LINE
8
BLACK
6
CONTINUOUS
10
248.693
20
-47.344
11
248.693
21
-65.94
0
LINE
8
BLACK
6
CONTINUOUS
10
248.693
20
-65.94
11
230.097
21
-65.94
0
LINE
8
BLACK
6
CONTINUOUS
10
230.097
20
-65.94
11
230.097
21
-47.344
0
LINE
8
BLACK
6
CONTINUOUS
10
121.639
20
-66.521
11
140.235
21
-66.521
0
LINE
8
BLACK
6
CONTINUOUS
10
140.235
20
-66.521
11
140.235
21
-85.117
0
LINE
8
BLACK
6
CONTINUOUS
10
140.235
20
-85.117
11
121.639
21
-85.117
0
LINE
8
BLACK
6
CONTINUOUS
10
121.639
20
-85.117
11
121.639
21
-66.521
0
LINE
8
BLACK
6
CONTINUOUS
10
111.733
20
-85.571
11
130.329
21
-85.571
0
LINE
8
BLACK
6
CONTINUOUS
10
130.329
20
-85.571
11
130.329
21
-104.167
0
LINE
8
BLACK
6
CONTINUOUS
10
130.329
20
-104.167
11
111.733
21
-104.167
0
LINE
8
BLACK
6
CONTINUOUS
10
111.733
20
-104.167
11
111.733
21
-85.571
0
LINE
8
BLACK
6
CONTINUOUS
10
249.147
20
-47.344
11
267.743
21
-47.344
0
LINE
8
BLACK
6
CONTINUOUS
10
267.743
20
-47.344
11
267.743
21
-65.94
0
LINE
8
BLACK
6
CONTINUOUS
10
267.743
20
-65.94
11
249.147
21
-65.94
0
LINE
8
BLACK
6
CONTINUOUS
10
249.147
20
-65.94
11
249.147
21
-47.344
0
LINE
8
BLACK
6
CONTINUOUS
10
107.288
20
-28.3759
11
125.884
21
-28.3759
0
LINE
8
BLACK
6
CONTINUOUS
10
125.884
20
-28.3759
11
125.884
21
-46.9719
0
LINE
8
BLACK
6
CONTINUOUS
10
125.884
20
-46.9719
11
107.288
21
-46.9719
0
LINE
8
BLACK
6
CONTINUOUS
10
107.288
20
-46.9719
11
107.288
21
-28.3759
0
LINE
8
BLACK
6
CONTINUOUS
10
116.559
20
-47.344
11
135.155
21
-47.344
0
LINE
8
BLACK
6
CONTINUOUS
10
135.155
20
-47.344
11
135.155
21
-65.94
0
LINE
8
BLACK
6
CONTINUOUS
10
135.155
20
-65.94
11
116.559
21
-65.94
0
LINE
8
BLACK
6
CONTINUOUS
10
116.559
20
-65.94
11
116.559
21
-47.344
0
LINE
8
BLACK
6
CONTINUOUS
10
126.338
20
-28.3759
11
144.934
21
-28.3759
0
LINE
8
BLACK
6
CONTINUOUS
10
144.934
20
-28.3759
11
144.934
21
-46.9719
0
LINE
8
BLACK
6
CONTINUOUS
10
144.934
20
-46.9719
11
126.338
21
-46.9719
0
LINE
8
BLACK
6
CONTINUOUS
10
126.338
20
-46.9719
11
126.338
21
-28.3759
0
LINE
8
BLACK
6
CONTINUOUS
10
135.482
20
-47.344
11
154.078
21
-47.344
0
LINE
8
BLACK
6
CONTINUOUS
10
154.078
20
-47.344
11
154.078
21
-65.94
0
LINE
8
BLACK
6
CONTINUOUS
10
154.078
20
-65.94
11
135.482
21
-65.94
0
LINE
8
BLACK
6
CONTINUOUS
10
135.482
20
-65.94
11
135.482
21
-47.344
0
LINE
8
BLACK
6
CONTINUOUS
10
140.435
20
-66.521
11
159.031
21
-66.521
0
LINE
8
BLACK
6
CONTINUOUS
10
159.031
20
-66.521
11
159.031
21
-85.117
0
LINE
8
BLACK
6
CONTINUOUS
10
159.031
20
-85.117
11
140.435
21
-85.117
0
LINE
8
BLACK
6
CONTINUOUS
10
140.435
20
-85.117
11
140.435
21
-66.521
0
LINE
8
BLACK
6
CONTINUOUS
10
130.656
20
-85.571
11
149.252
21
-85.571
0
LINE
8
BLACK
6
CONTINUOUS
10
149.252
20
-85.571
11
149.252
21
-104.167
0
LINE
8
BLACK
6
CONTINUOUS
10
149.252
20
-104.167
11
130.656
21
-104.167
0
LINE
8
BLACK
6
CONTINUOUS
10
130.656
20
-104.167
11
130.656
21
-85.571
0
LINE
8
BLACK
6
CONTINUOUS
10
164.438
20
-9.371
11
183.034
21
-9.371
0
LINE
8
BLACK
6
CONTINUOUS
10
183.034
20
-9.371
11
183.034
21
-27.967
0
LINE
8
BLACK
6
CONTINUOUS
10
183.034
20
-27.967
11
164.438
21
-27.967
0
LINE
8
BLACK
6
CONTINUOUS
10
164.438
20
-27.967
11
164.438
21
-9.371
0
LINE
8
BLACK
6
CONTINUOUS
10
159.485
20
-66.521
11
178.081
21
-66.521
0
LINE
8
BLACK
6
CONTINUOUS
10
178.081
20
-66.521
11
178.081
21
-85.117
0
LINE
8
BLACK
6
CONTINUOUS
10
178.081
20
-85.117
11
159.485
21
-85.117
0
LINE
8
BLACK
6
CONTINUOUS
10
159.485
20
-85.117
11
159.485
21
-66.521
0
LINE
8
BLACK
6
CONTINUOUS
10
149.579
20
-85.571
11
168.175
21
-85.571
0
LINE
8
BLACK
6
CONTINUOUS
10
168.175
20
-85.571
11
168.175
21
-104.167
0
LINE
8
BLACK
6
CONTINUOUS
10
168.175
20
-104.167
11
149.579
21
-104.167
0
LINE
8
BLACK
6
CONTINUOUS
10
149.579
20
-104.167
11
149.579
21
-85.571
0
LINE
8
BLACK
6
CONTINUOUS
10
183.488
20
-9.371
11
202.084
21
-9.371
0
LINE
8
BLACK
6
CONTINUOUS
10
202.084
20
-9.371
11
202.084
21
-27.967
0
LINE
8
BLACK
6
CONTINUOUS
10
202.084
20
-27.967
11
183.488
21
-27.967
0
LINE
8
BLACK
6
CONTINUOUS
10
183.488
20
-27.967
11
183.488
21
-9.371
0
LINE
8
BLACK
6
CONTINUOUS
10
244.956
20
-85.571
11
263.552
21
-85.571
0
LINE
8
BLACK
6
CONTINUOUS
10
263.552
20
-85.571
11
263.552
21
-104.167
0
LINE
8
BLACK
6
CONTINUOUS
10
263.552
20
-104.167
11
244.956
21
-104.167
0
LINE
8
BLACK
6
CONTINUOUS
10
244.956
20
-104.167
11
244.956
21
-85.571
0
LINE
8
BLACK
6
CONTINUOUS
10
145.388
20
-28.3759
11
163.984
21
-28.3759
0
LINE
8
BLACK
6
CONTINUOUS
10
163.984
20
-28.3759
11
163.984
21
-46.9719
0
LINE
8
BLACK
6
CONTINUOUS
10
163.984
20
-46.9719
11
145.388
21
-46.9719
0
LINE
8
BLACK
6
CONTINUOUS
10
145.388
20
-46.9719
11
145.388
21
-28.3759
0
LINE
8
BLACK
6
CONTINUOUS
10
154.405
20
-47.344
11
173.001
21
-47.344
0
LINE
8
BLACK
6
CONTINUOUS
10
173.001
20
-47.344
11
173.001
21
-65.94
0
LINE
8
BLACK
6
CONTINUOUS
10
173.001
20
-65.94
11
154.405
21
-65.94
0
LINE
8
BLACK
6
CONTINUOUS
10
154.405
20
-65.94
11
154.405
21
-47.344
0
LINE
8
BLACK
6
CONTINUOUS
10
164.438
20
-28.3759
11
183.034
21
-28.3759
0
LINE
8
BLACK
6
CONTINUOUS
10
183.034
20
-28.3759
11
183.034
21
-46.9719
0
LINE
8
BLACK
6
CONTINUOUS
10
183.034
20
-46.9719
11
164.438
21
-46.9719
0
LINE
8
BLACK
6
CONTINUOUS
10
164.438
20
-46.9719
11
164.438
21
-28.3759
0
LINE
8
BLACK
6
CONTINUOUS
10
173.328
20
-47.344
11
191.924
21
-47.344
0
LINE
8
BLACK
6
CONTINUOUS
10
191.924
20
-47.344
11
191.924
21
-65.94
0
LINE
8
BLACK
6
CONTINUOUS
10
191.924
20
-65.94
11
173.328
21
-65.94
0
LINE
8
BLACK
6
CONTINUOUS
10
173.328
20
-65.94
11
173.328
21
-47.344
0
LINE
8
BLACK
6
CONTINUOUS
10
178.535
20
-66.521
11
197.131
21
-66.521
0
LINE
8
BLACK
6
CONTINUOUS
10
197.131
20
-66.521
11
197.131
21
-85.117
0
LINE
8
BLACK
6
CONTINUOUS
10
197.131
20
-85.117
11
178.535
21
-85.117
0
LINE
8
BLACK
6
CONTINUOUS
10
178.535
20
-85.117
11
178.535
21
-66.521
0
LINE
8
BLACK
6
CONTINUOUS
10
168.502
20
-85.571
11
187.098
21
-85.571
0
LINE
8
BLACK
6
CONTINUOUS
10
187.098
20
-85.571
11
187.098
21
-104.167
0
LINE
8
BLACK
6
CONTINUOUS
10
187.098
20
-104.167
11
168.502
21
-104.167
0
LINE
8
BLACK
6
CONTINUOUS
10
168.502
20
-104.167
11
168.502
21
-85.571
0
LINE
8
BLACK
6
CONTINUOUS
10
240.638
20
-28.3759
11
259.234
21
-28.3759
0
LINE
8
BLACK
6
CONTINUOUS
10
259.234
20
-28.3759
11
259.234
21
-46.9719
0
LINE
8
BLACK
6
CONTINUOUS
10
259.234
20
-46.9719
11
240.638
21
-46.9719
0
LINE
8
BLACK
6
CONTINUOUS
10
240.638
20
-46.9719
11
240.638
21
-28.3759
0
LINE
8
BLACK
6
CONTINUOUS
10
197.585
20
-66.521
11
216.181
21
-66.521
0
LINE
8
BLACK
6
CONTINUOUS
10
216.181
20
-66.521
11
216.181
21
-85.117
0
LINE
8
BLACK
6
CONTINUOUS
10
216.181
20
-85.117
11
197.585
21
-85.117
0
LINE
8
BLACK
6
CONTINUOUS
10
197.585
20
-85.117
11
197.585
21
-66.521
0
LINE
8
BLACK
6
CONTINUOUS
10
187.552
20
-85.571
11
206.148
21
-85.571
0
LINE
8
BLACK
6
CONTINUOUS
10
206.148
20
-85.571
11
206.148
21
-104.167
0
LINE
8
BLACK
6
CONTINUOUS
10
206.148
20
-104.167
11
187.552
21
-104.167
0
LINE
8
BLACK
6
CONTINUOUS
10
187.552
20
-104.167
11
187.552
21
-85.571
0
LINE
8
BLACK
6
CONTINUOUS
10
259.688
20
-28.3759
11
278.284
21
-28.3759
0
LINE
8
BLACK
6
CONTINUOUS
10
278.284
20
-28.3759
11
278.284
21
-46.9719
0
LINE
8
BLACK
6
CONTINUOUS
10
278.284
20
-46.9719
11
259.688
21
-46.9719
0
LINE
8
BLACK
6
CONTINUOUS
10
259.688
20
-46.9719
11
259.688
21
-28.3759
0
LINE
8
BLACK
6
CONTINUOUS
10
183.488
20
-28.3759
11
202.084
21
-28.3759
0
LINE
8
BLACK
6
CONTINUOUS
10
202.084
20
-28.3759
11
202.084
21
-46.9719
0
LINE
8
BLACK
6
CONTINUOUS
10
202.084
20
-46.9719
11
183.488
21
-46.9719
0
LINE
8
BLACK
6
CONTINUOUS
10
183.488
20
-46.9719
11
183.488
21
-28.3759
0
LINE
8
BLACK
6
CONTINUOUS
10
192.251
20
-47.344
11
210.847
21
-47.344
0
LINE
8
BLACK
6
CONTINUOUS
10
210.847
20
-47.344
11
210.847
21
-65.94
0
LINE
8
BLACK
6
CONTINUOUS
10
210.847
20
-65.94
11
192.251
21
-65.94
0
LINE
8
BLACK
6
CONTINUOUS
10
192.251
20
-65.94
11
192.251
21
-47.344
0
LINE
8
BLACK
6
CONTINUOUS
10
202.538
20
-28.3759
11
221.134
21
-28.3759
0
LINE
8
BLACK
6
CONTINUOUS
10
221.134
20
-28.3759
11
221.134
21
-46.9719
0
LINE
8
BLACK
6
CONTINUOUS
10
221.134
20
-46.9719
11
202.538
21
-46.9719
0
LINE
8
BLACK
6
CONTINUOUS
10
202.538
20
-46.9719
11
202.538
21
-28.3759
0
LINE
8
BLACK
6
CONTINUOUS
10
211.174
20
-47.344
11
229.77
21
-47.344
0
LINE
8
BLACK
6
CONTINUOUS
10
229.77
20
-47.344
11
229.77
21
-65.94
0
LINE
8
BLACK
6
CONTINUOUS
10
229.77
20
-65.94
11
211.174
21
-65.94
0
LINE
8
BLACK
6
CONTINUOUS
10
211.174
20
-65.94
11
211.174
21
-47.344
0
LINE
8
BLACK
6
CONTINUOUS
10
216.635
20
-66.521
11
235.231
21
-66.521
0
LINE
8
BLACK
6
CONTINUOUS
10
235.231
20
-66.521
11
235.231
21
-85.117
0
LINE
8
BLACK
6
CONTINUOUS
10
235.231
20
-85.117
11
216.635
21
-85.117
0
LINE
8
BLACK
6
CONTINUOUS
10
216.635
20
-85.117
11
216.635
21
-66.521
0
LINE
8
BLACK
6
CONTINUOUS
10
206.729
20
-85.571
11
225.325
21
-85.571
0
LINE
8
BLACK
6
CONTINUOUS
10
225.325
20
-85.571
11
225.325
21
-104.167
0
LINE
8
BLACK
6
CONTINUOUS
10
225.325
20
-104.167
11
206.729
21
-104.167
0
LINE
8
BLACK
6
CONTINUOUS
10
206.729
20
-104.167
11
206.729
21
-85.571
0
LINE
8
BLACK
6
CONTINUOUS
10
221.588
20
-28.3759
11
240.184
21
-28.3759
0
LINE
8
BLACK
6
CONTINUOUS
10
240.184
20
-28.3759
11
240.184
21
-46.9719
0
LINE
8
BLACK
6
CONTINUOUS
10
240.184
20
-46.9719
11
221.588
21
-46.9719
0
LINE
8
BLACK
6
CONTINUOUS
10
221.588
20
-46.9719
11
221.588
21
-28.3759
0
LINE
8
BLACK
6
CONTINUOUS
10
340.917
20
-66.521
11
359.513
21
-66.521
0
LINE
8
BLACK
6
CONTINUOUS
10
359.513
20
-66.521
11
359.513
21
-85.117
0
LINE
8
BLACK
6
CONTINUOUS
10
359.513
20
-85.117
11
340.917
21
-85.117
0
LINE
8
BLACK
6
CONTINUOUS
10
340.917
20
-85.117
11
340.917
21
-66.521
0
LINE
8
BLACK
6
CONTINUOUS
10
268.324
20
-47.344
11
286.92
21
-47.344
0
LINE
8
BLACK
6
CONTINUOUS
10
286.92
20
-47.344
11
286.92
21
-65.94
0
LINE
8
BLACK
6
CONTINUOUS
10
286.92
20
-65.94
11
268.324
21
-65.94
0
LINE
8
BLACK
6
CONTINUOUS
10
268.324
20
-65.94
11
268.324
21
-47.344
0
LINE
8
BLACK
6
CONTINUOUS
10
359.84
20
-66.521
11
378.436
21
-66.521
0
LINE
8
BLACK
6
CONTINUOUS
10
378.436
20
-66.521
11
378.436
21
-85.117
0
LINE
8
BLACK
6
CONTINUOUS
10
378.436
20
-85.117
11
359.84
21
-85.117
0
LINE
8
BLACK
6
CONTINUOUS
10
359.84
20
-85.117
11
359.84
21
-66.521
0
LINE
8
BLACK
6
CONTINUOUS
10
254.735
20
-66.521
11
273.331
21
-66.521
0
LINE
8
BLACK
6
CONTINUOUS
10
273.331
20
-66.521
11
273.331
21
-85.117
0
LINE
8
BLACK
6
CONTINUOUS
10
273.331
20
-85.117
11
254.735
21
-85.117
0
LINE
8
BLACK
6
CONTINUOUS
10
254.735
20
-85.117
11
254.735
21
-66.521
0
LINE
8
BLACK
6
CONTINUOUS
10
340.917
20
-47.471
11
359.513
21
-47.471
0
LINE
8
BLACK
6
CONTINUOUS
10
359.513
20
-47.471
11
359.513
21
-66.067
0
LINE
8
BLACK
6
CONTINUOUS
10
359.513
20
-66.067
11
340.917
21
-66.067
0
LINE
8
BLACK
6
CONTINUOUS
10
340.917
20
-66.067
11
340.917
21
-47.471
0
LINE
8
BLACK
6
CONTINUOUS
10
321.867
20
-47.471
11
340.463
21
-47.471
0
LINE
8
BLACK
6
CONTINUOUS
10
340.463
20
-47.471
11
340.463
21
-66.067
0
LINE
8
BLACK
6
CONTINUOUS
10
340.463
20
-66.067
11
321.867
21
-66.067
0
LINE
8
BLACK
6
CONTINUOUS
10
321.867
20
-66.067
11
321.867
21
-47.471
0
LINE
8
BLACK
6
CONTINUOUS
10
321.867
20
-66.521
11
340.463
21
-66.521
0
LINE
8
BLACK
6
CONTINUOUS
10
340.463
20
-66.521
11
340.463
21
-85.117
0
LINE
8
BLACK
6
CONTINUOUS
10
340.463
20
-85.117
11
321.867
21
-85.117
0
LINE
8
BLACK
6
CONTINUOUS
10
321.867
20
-85.117
11
321.867
21
-66.521
0
LINE
8
BLACK
6
CONTINUOUS
10
340.917
20
-85.571
11
359.513
21
-85.571
0
LINE
8
BLACK
6
CONTINUOUS
10
359.513
20
-85.571
11
359.513
21
-104.167
0
LINE
8
BLACK
6
CONTINUOUS
10
359.513
20
-104.167
11
340.917
21
-104.167
0
LINE
8
BLACK
6
CONTINUOUS
10
340.917
20
-104.167
11
340.917
21
-85.571
0
LINE
8
BLACK
6
CONTINUOUS
10
321.867
20
-28.548
11
340.463
21
-28.548
0
LINE
8
BLACK
6
CONTINUOUS
10
340.463
20
-28.548
11
340.463
21
-47.144
0
LINE
8
BLACK
6
CONTINUOUS
10
340.463
20
-47.144
11
321.867
21
-47.144
0
LINE
8
BLACK
6
CONTINUOUS
10
321.867
20
-47.144
11
321.867
21
-28.548
0
LINE
8
BLACK
6
CONTINUOUS
10
50.138
20
-9.371
11
68.734
21
-9.371
0
LINE
8
BLACK
6
CONTINUOUS
10
68.734
20
-9.371
11
68.734
21
-27.967
0
LINE
8
BLACK
6
CONTINUOUS
10
68.734
20
-27.967
11
50.138
21
-27.967
0
LINE
8
BLACK
6
CONTINUOUS
10
50.138
20
-27.967
11
50.138
21
-9.371
0
LINE
8
BLACK
6
CONTINUOUS
10
359.84
20
-47.471
11
378.436
21
-47.471
0
LINE
8
BLACK
6
CONTINUOUS
10
378.436
20
-47.471
11
378.436
21
-66.067
0
LINE
8
BLACK
6
CONTINUOUS
10
378.436
20
-66.067
11
359.84
21
-66.067
0
LINE
8
BLACK
6
CONTINUOUS
10
359.84
20
-66.067
11
359.84
21
-47.471
0
LINE
8
BLACK
6
CONTINUOUS
10
359.84
20
-85.571
11
378.436
21
-85.571
0
LINE
8
BLACK
6
CONTINUOUS
10
378.436
20
-85.571
11
378.436
21
-104.167
0
LINE
8
BLACK
6
CONTINUOUS
10
378.436
20
-104.167
11
359.84
21
-104.167
0
LINE
8
BLACK
6
CONTINUOUS
10
359.84
20
-104.167
11
359.84
21
-85.571
0
LINE
8
BLACK
6
CONTINUOUS
10
31.088
20
-9.371
11
49.684
21
-9.371
0
LINE
8
BLACK
6
CONTINUOUS
10
49.684
20
-9.371
11
49.684
21
-27.967
0
LINE
8
BLACK
6
CONTINUOUS
10
49.684
20
-27.967
11
31.088
21
-27.967
0
LINE
8
BLACK
6
CONTINUOUS
10
31.088
20
-27.967
11
31.088
21
-9.371
0
LINE
8
BLACK
6
CONTINUOUS
10
359.84
20
-28.548
11
378.436
21
-28.548
0
LINE
8
BLACK
6
CONTINUOUS
10
378.436
20
-28.548
11
378.436
21
-47.144
0
LINE
8
BLACK
6
CONTINUOUS
10
378.436
20
-47.144
11
359.84
21
-47.144
0
LINE
8
BLACK
6
CONTINUOUS
10
359.84
20
-47.144
11
359.84
21
-28.548
0
LINE
8
BLACK
6
CONTINUOUS
10
359.84
20
-104.748
11
378.436
21
-104.748
0
LINE
8
BLACK
6
CONTINUOUS
10
378.436
20
-104.748
11
378.436
21
-123.344
0
LINE
8
BLACK
6
CONTINUOUS
10
378.436
20
-123.344
11
359.84
21
-123.344
0
LINE
8
BLACK
6
CONTINUOUS
10
359.84
20
-123.344
11
359.84
21
-104.748
0
LINE
8
BLACK
6
CONTINUOUS
10
340.917
20
-104.748
11
359.513
21
-104.748
0
LINE
8
BLACK
6
CONTINUOUS
10
359.513
20
-104.748
11
359.513
21
-123.344
0
LINE
8
BLACK
6
CONTINUOUS
10
359.513
20
-123.344
11
340.917
21
-123.344
0
LINE
8
BLACK
6
CONTINUOUS
10
340.917
20
-123.344
11
340.917
21
-104.748
0
LINE
8
BLACK
6
CONTINUOUS
10
321.867
20
-104.748
11
340.463
21
-104.748
0
LINE
8
BLACK
6
CONTINUOUS
10
340.463
20
-104.748
11
340.463
21
-123.344
0
LINE
8
BLACK
6
CONTINUOUS
10
340.463
20
-123.344
11
321.867
21
-123.344
0
LINE
8
BLACK
6
CONTINUOUS
10
321.867
20
-123.344
11
321.867
21
-104.748
0
LINE
8
BLACK
6
CONTINUOUS
10
69.188
20
-9.371
11
87.784
21
-9.371
0
LINE
8
BLACK
6
CONTINUOUS
10
87.784
20
-9.371
11
87.784
21
-27.967
0
LINE
8
BLACK
6
CONTINUOUS
10
87.784
20
-27.967
11
69.188
21
-27.967
0
LINE
8
BLACK
6
CONTINUOUS
10
69.188
20
-27.967
11
69.188
21
-9.371
0
LINE
8
BLACK
6
CONTINUOUS
10
340.917
20
-28.548
11
359.513
21
-28.548
0
LINE
8
BLACK
6
CONTINUOUS
10
359.513
20
-28.548
11
359.513
21
-47.144
0
LINE
8
BLACK
6
CONTINUOUS
10
359.513
20
-47.144
11
340.917
21
-47.144
0
LINE
8
BLACK
6
CONTINUOUS
10
340.917
20
-47.144
11
340.917
21
-28.548
0
LINE
8
BLACK
6
CONTINUOUS
10
292.71
20
-123.444
11
269.149
21
-123.444
0
LINE
8
BLACK
6
CONTINUOUS
10
292.71
20
-104.648
11
292.71
21
-123.444
0
LINE
8
BLACK
6
CONTINUOUS
10
269.149
20
-123.444
11
269.149
21
-104.648
0
LINE
8
BLACK
6
CONTINUOUS
10
269.143
20
-104.648
11
292.705
21
-104.648
0
LINE
8
BLACK
6
CONTINUOUS
10
223.336
20
-122.914
11
222.466
21
-122.914
0
LINE
8
BLACK
6
CONTINUOUS
10
222.901
20
-122.914
11
222.901
21
-121.39
0
LINE
8
BLACK
6
CONTINUOUS
10
222.901
20
-121.39
11
222.756
21
-121.608
0
LINE
8
BLACK
6
CONTINUOUS
10
222.756
20
-121.608
11
222.611
21
-121.753
0
LINE
8
BLACK
6
CONTINUOUS
10
222.611
20
-121.753
11
222.466
21
-121.826
0
LINE
8
BLACK
6
CONTINUOUS
10
223.99
20
-122.769
11
224.062
21
-122.842
0
LINE
8
BLACK
6
CONTINUOUS
10
224.062
20
-122.842
11
223.99
21
-122.914
0
LINE
8
BLACK
6
CONTINUOUS
10
223.99
20
-122.914
11
223.917
21
-122.842
0
LINE
8
BLACK
6
CONTINUOUS
10
223.917
20
-122.842
11
223.99
21
-122.769
0
LINE
8
BLACK
6
CONTINUOUS
10
223.99
20
-122.769
11
223.99
21
-122.914
0
LINE
8
BLACK
6
CONTINUOUS
10
224.643
20
-121.535
11
224.715
21
-121.463
0
LINE
8
BLACK
6
CONTINUOUS
10
224.715
20
-121.463
11
224.86
21
-121.39
0
LINE
8
BLACK
6
CONTINUOUS
10
224.86
20
-121.39
11
225.223
21
-121.39
0
LINE
8
BLACK
6
CONTINUOUS
10
225.223
20
-121.39
11
225.368
21
-121.463
0
LINE
8
BLACK
6
CONTINUOUS
10
225.368
20
-121.463
11
225.441
21
-121.535
0
LINE
8
BLACK
6
CONTINUOUS
10
225.441
20
-121.535
11
225.514
21
-121.681
0
LINE
8
BLACK
6
CONTINUOUS
10
225.514
20
-121.681
11
225.514
21
-121.826
0
LINE
8
BLACK
6
CONTINUOUS
10
225.514
20
-121.826
11
225.441
21
-122.043
0
LINE
8
BLACK
6
CONTINUOUS
10
225.441
20
-122.043
11
224.57
21
-122.914
0
LINE
8
BLACK
6
CONTINUOUS
10
224.57
20
-122.914
11
225.514
21
-122.914
0
LINE
8
BLACK
6
CONTINUOUS
10
226.892
20
-121.39
11
226.167
21
-121.39
0
LINE
8
BLACK
6
CONTINUOUS
10
226.167
20
-121.39
11
226.094
21
-122.116
0
LINE
8
BLACK
6
CONTINUOUS
10
226.094
20
-122.116
11
226.167
21
-122.043
0
LINE
8
BLACK
6
CONTINUOUS
10
226.167
20
-122.043
11
226.312
21
-121.971
0
LINE
8
BLACK
6
CONTINUOUS
10
226.312
20
-121.971
11
226.675
21
-121.971
0
LINE
8
BLACK
6
CONTINUOUS
10
226.675
20
-121.971
11
226.82
21
-122.043
0
LINE
8
BLACK
6
CONTINUOUS
10
226.82
20
-122.043
11
226.892
21
-122.116
0
LINE
8
BLACK
6
CONTINUOUS
10
226.892
20
-122.116
11
226.965
21
-122.261
0
LINE
8
BLACK
6
CONTINUOUS
10
226.965
20
-122.261
11
226.965
21
-122.624
0
LINE
8
BLACK
6
CONTINUOUS
10
226.965
20
-122.624
11
226.892
21
-122.769
0
LINE
8
BLACK
6
CONTINUOUS
10
226.892
20
-122.769
11
226.82
21
-122.842
0
LINE
8
BLACK
6
CONTINUOUS
10
226.82
20
-122.842
11
226.675
21
-122.914
0
LINE
8
BLACK
6
CONTINUOUS
10
226.675
20
-122.914
11
226.312
21
-122.914
0
LINE
8
BLACK
6
CONTINUOUS
10
226.312
20
-122.914
11
226.167
21
-122.842
0
LINE
8
BLACK
6
CONTINUOUS
10
226.167
20
-122.842
11
226.094
21
-122.769
0
LINE
8
BLACK
6
CONTINUOUS
10
228.271
20
-121.898
11
228.271
21
-122.914
0
LINE
8
BLACK
6
CONTINUOUS
10
227.618
20
-121.898
11
227.618
21
-122.697
0
LINE
8
BLACK
6
CONTINUOUS
10
227.618
20
-122.697
11
227.691
21
-122.842
0
LINE
8
BLACK
6
CONTINUOUS
10
227.691
20
-122.842
11
227.836
21
-122.914
0
LINE
8
BLACK
6
CONTINUOUS
10
227.836
20
-122.914
11
228.054
21
-122.914
0
LINE
8
BLACK
6
CONTINUOUS
10
228.054
20
-122.914
11
228.199
21
-122.842
0
LINE
8
BLACK
6
CONTINUOUS
10
228.199
20
-122.842
11
228.271
21
-122.769
0
LINE
8
BLACK
6
CONTINUOUS
10
104.243
20
-121.466
11
103.953
21
-121.466
0
LINE
8
BLACK
6
CONTINUOUS
10
103.953
20
-121.466
11
103.808
21
-121.539
0
LINE
8
BLACK
6
CONTINUOUS
10
103.808
20
-121.539
11
103.735
21
-121.612
0
LINE
8
BLACK
6
CONTINUOUS
10
103.735
20
-121.612
11
103.59
21
-121.829
0
LINE
8
BLACK
6
CONTINUOUS
10
103.59
20
-121.829
11
103.517
21
-122.12
0
LINE
8
BLACK
6
CONTINUOUS
10
103.517
20
-122.12
11
103.517
21
-122.7
0
LINE
8
BLACK
6
CONTINUOUS
10
103.517
20
-122.7
11
103.59
21
-122.845
0
LINE
8
BLACK
6
CONTINUOUS
10
103.59
20
-122.845
11
103.662
21
-122.918
0
LINE
8
BLACK
6
CONTINUOUS
10
103.662
20
-122.918
11
103.808
21
-122.99
0
LINE
8
BLACK
6
CONTINUOUS
10
103.808
20
-122.99
11
104.098
21
-122.99
0
LINE
8
BLACK
6
CONTINUOUS
10
104.098
20
-122.99
11
104.243
21
-122.918
0
LINE
8
BLACK
6
CONTINUOUS
10
104.243
20
-122.918
11
104.316
21
-122.845
0
LINE
8
BLACK
6
CONTINUOUS
10
104.316
20
-122.845
11
104.388
21
-122.7
0
LINE
8
BLACK
6
CONTINUOUS
10
104.388
20
-122.7
11
104.388
21
-122.337
0
LINE
8
BLACK
6
CONTINUOUS
10
104.388
20
-122.337
11
104.316
21
-122.192
0
LINE
8
BLACK
6
CONTINUOUS
10
104.316
20
-122.192
11
104.243
21
-122.12
0
LINE
8
BLACK
6
CONTINUOUS
10
104.243
20
-122.12
11
104.098
21
-122.047
0
LINE
8
BLACK
6
CONTINUOUS
10
104.098
20
-122.047
11
103.808
21
-122.047
0
LINE
8
BLACK
6
CONTINUOUS
10
103.808
20
-122.047
11
103.662
21
-122.12
0
LINE
8
BLACK
6
CONTINUOUS
10
103.662
20
-122.12
11
103.59
21
-122.192
0
LINE
8
BLACK
6
CONTINUOUS
10
103.59
20
-122.192
11
103.517
21
-122.337
0
LINE
8
BLACK
6
CONTINUOUS
10
105.041
20
-122.845
11
105.114
21
-122.918
0
LINE
8
BLACK
6
CONTINUOUS
10
105.114
20
-122.918
11
105.041
21
-122.99
0
LINE
8
BLACK
6
CONTINUOUS
10
105.041
20
-122.99
11
104.969
21
-122.918
0
LINE
8
BLACK
6
CONTINUOUS
10
104.969
20
-122.918
11
105.041
21
-122.845
0
LINE
8
BLACK
6
CONTINUOUS
10
105.041
20
-122.845
11
105.041
21
-122.99
0
LINE
8
BLACK
6
CONTINUOUS
10
105.694
20
-121.612
11
105.767
21
-121.539
0
LINE
8
BLACK
6
CONTINUOUS
10
105.767
20
-121.539
11
105.912
21
-121.466
0
LINE
8
BLACK
6
CONTINUOUS
10
105.912
20
-121.466
11
106.275
21
-121.466
0
LINE
8
BLACK
6
CONTINUOUS
10
106.275
20
-121.466
11
106.42
21
-121.539
0
LINE
8
BLACK
6
CONTINUOUS
10
106.42
20
-121.539
11
106.493
21
-121.612
0
LINE
8
BLACK
6
CONTINUOUS
10
106.493
20
-121.612
11
106.565
21
-121.757
0
LINE
8
BLACK
6
CONTINUOUS
10
106.565
20
-121.757
11
106.565
21
-121.902
0
LINE
8
BLACK
6
CONTINUOUS
10
106.565
20
-121.902
11
106.493
21
-122.12
0
LINE
8
BLACK
6
CONTINUOUS
10
106.493
20
-122.12
11
105.622
21
-122.99
0
LINE
8
BLACK
6
CONTINUOUS
10
105.622
20
-122.99
11
106.565
21
-122.99
0
LINE
8
BLACK
6
CONTINUOUS
10
107.944
20
-121.466
11
107.218
21
-121.466
0
LINE
8
BLACK
6
CONTINUOUS
10
107.218
20
-121.466
11
107.146
21
-122.192
0
LINE
8
BLACK
6
CONTINUOUS
10
107.146
20
-122.192
11
107.218
21
-122.12
0
LINE
8
BLACK
6
CONTINUOUS
10
107.218
20
-122.12
11
107.364
21
-122.047
0
LINE
8
BLACK
6
CONTINUOUS
10
107.364
20
-122.047
11
107.726
21
-122.047
0
LINE
8
BLACK
6
CONTINUOUS
10
107.726
20
-122.047
11
107.872
21
-122.12
0
LINE
8
BLACK
6
CONTINUOUS
10
107.872
20
-122.12
11
107.944
21
-122.192
0
LINE
8
BLACK
6
CONTINUOUS
10
107.944
20
-122.192
11
108.017
21
-122.337
0
LINE
8
BLACK
6
CONTINUOUS
10
108.017
20
-122.337
11
108.017
21
-122.7
0
LINE
8
BLACK
6
CONTINUOUS
10
108.017
20
-122.7
11
107.944
21
-122.845
0
LINE
8
BLACK
6
CONTINUOUS
10
107.944
20
-122.845
11
107.872
21
-122.918
0
LINE
8
BLACK
6
CONTINUOUS
10
107.872
20
-122.918
11
107.726
21
-122.99
0
LINE
8
BLACK
6
CONTINUOUS
10
107.726
20
-122.99
11
107.364
21
-122.99
0
LINE
8
BLACK
6
CONTINUOUS
10
107.364
20
-122.99
11
107.218
21
-122.918
0
LINE
8
BLACK
6
CONTINUOUS
10
107.218
20
-122.918
11
107.146
21
-122.845
0
LINE
8
BLACK
6
CONTINUOUS
10
109.323
20
-121.974
11
109.323
21
-122.99
0
LINE
8
BLACK
6
CONTINUOUS
10
108.67
20
-121.974
11
108.67
21
-122.773
0
LINE
8
BLACK
6
CONTINUOUS
10
108.67
20
-122.773
11
108.742
21
-122.918
0
LINE
8
BLACK
6
CONTINUOUS
10
108.742
20
-122.918
11
108.888
21
-122.99
0
LINE
8
BLACK
6
CONTINUOUS
10
108.888
20
-122.99
11
109.105
21
-122.99
0
LINE
8
BLACK
6
CONTINUOUS
10
109.105
20
-122.99
11
109.25
21
-122.918
0
LINE
8
BLACK
6
CONTINUOUS
10
109.25
20
-122.918
11
109.323
21
-122.845
0
LINE
8
BLACK
6
CONTINUOUS
10
247.212
20
-122.914
11
246.342
21
-122.914
0
LINE
8
BLACK
6
CONTINUOUS
10
246.777
20
-122.914
11
246.777
21
-121.39
0
LINE
8
BLACK
6
CONTINUOUS
10
246.777
20
-121.39
11
246.632
21
-121.608
0
LINE
8
BLACK
6
CONTINUOUS
10
246.632
20
-121.608
11
246.487
21
-121.753
0
LINE
8
BLACK
6
CONTINUOUS
10
246.487
20
-121.753
11
246.342
21
-121.826
0
LINE
8
BLACK
6
CONTINUOUS
10
247.866
20
-122.769
11
247.938
21
-122.842
0
LINE
8
BLACK
6
CONTINUOUS
10
247.938
20
-122.842
11
247.866
21
-122.914
0
LINE
8
BLACK
6
CONTINUOUS
10
247.866
20
-122.914
11
247.793
21
-122.842
0
LINE
8
BLACK
6
CONTINUOUS
10
247.793
20
-122.842
11
247.866
21
-122.769
0
LINE
8
BLACK
6
CONTINUOUS
10
247.866
20
-122.769
11
247.866
21
-122.914
0
LINE
8
BLACK
6
CONTINUOUS
10
248.519
20
-121.535
11
248.591
21
-121.463
0
LINE
8
BLACK
6
CONTINUOUS
10
248.591
20
-121.463
11
248.736
21
-121.39
0
LINE
8
BLACK
6
CONTINUOUS
10
248.736
20
-121.39
11
249.099
21
-121.39
0
LINE
8
BLACK
6
CONTINUOUS
10
249.099
20
-121.39
11
249.244
21
-121.463
0
LINE
8
BLACK
6
CONTINUOUS
10
249.244
20
-121.463
11
249.317
21
-121.535
0
LINE
8
BLACK
6
CONTINUOUS
10
249.317
20
-121.535
11
249.39
21
-121.681
0
LINE
8
BLACK
6
CONTINUOUS
10
249.39
20
-121.681
11
249.39
21
-121.826
0
LINE
8
BLACK
6
CONTINUOUS
10
249.39
20
-121.826
11
249.317
21
-122.043
0
LINE
8
BLACK
6
CONTINUOUS
10
249.317
20
-122.043
11
248.446
21
-122.914
0
LINE
8
BLACK
6
CONTINUOUS
10
248.446
20
-122.914
11
249.39
21
-122.914
0
LINE
8
BLACK
6
CONTINUOUS
10
250.768
20
-121.39
11
250.043
21
-121.39
0
LINE
8
BLACK
6
CONTINUOUS
10
250.043
20
-121.39
11
249.97
21
-122.116
0
LINE
8
BLACK
6
CONTINUOUS
10
249.97
20
-122.116
11
250.043
21
-122.043
0
LINE
8
BLACK
6
CONTINUOUS
10
250.043
20
-122.043
11
250.188
21
-121.971
0
LINE
8
BLACK
6
CONTINUOUS
10
250.188
20
-121.971
11
250.551
21
-121.971
0
LINE
8
BLACK
6
CONTINUOUS
10
250.551
20
-121.971
11
250.696
21
-122.043
0
LINE
8
BLACK
6
CONTINUOUS
10
250.696
20
-122.043
11
250.768
21
-122.116
0
LINE
8
BLACK
6
CONTINUOUS
10
250.768
20
-122.116
11
250.841
21
-122.261
0
LINE
8
BLACK
6
CONTINUOUS
10
250.841
20
-122.261
11
250.841
21
-122.624
0
LINE
8
BLACK
6
CONTINUOUS
10
250.841
20
-122.624
11
250.768
21
-122.769
0
LINE
8
BLACK
6
CONTINUOUS
10
250.768
20
-122.769
11
250.696
21
-122.842
0
LINE
8
BLACK
6
CONTINUOUS
10
250.696
20
-122.842
11
250.551
21
-122.914
0
LINE
8
BLACK
6
CONTINUOUS
10
250.551
20
-122.914
11
250.188
21
-122.914
0
LINE
8
BLACK
6
CONTINUOUS
10
250.188
20
-122.914
11
250.043
21
-122.842
0
LINE
8
BLACK
6
CONTINUOUS
10
250.043
20
-122.842
11
249.97
21
-122.769
0
LINE
8
BLACK
6
CONTINUOUS
10
252.147
20
-121.898
11
252.147
21
-122.914
0
LINE
8
BLACK
6
CONTINUOUS
10
251.494
20
-121.898
11
251.494
21
-122.697
0
LINE
8
BLACK
6
CONTINUOUS
10
251.494
20
-122.697
11
251.567
21
-122.842
0
LINE
8
BLACK
6
CONTINUOUS
10
251.567
20
-122.842
11
251.712
21
-122.914
0
LINE
8
BLACK
6
CONTINUOUS
10
251.712
20
-122.914
11
251.93
21
-122.914
0
LINE
8
BLACK
6
CONTINUOUS
10
251.93
20
-122.914
11
252.075
21
-122.842
0
LINE
8
BLACK
6
CONTINUOUS
10
252.075
20
-122.842
11
252.147
21
-122.769
0
LINE
8
BLACK
6
CONTINUOUS
10
294.894
20
-122.914
11
294.024
21
-122.914
0
LINE
8
BLACK
6
CONTINUOUS
10
294.459
20
-122.914
11
294.459
21
-121.39
0
LINE
8
BLACK
6
CONTINUOUS
10
294.459
20
-121.39
11
294.314
21
-121.608
0
LINE
8
BLACK
6
CONTINUOUS
10
294.314
20
-121.608
11
294.169
21
-121.753
0
LINE
8
BLACK
6
CONTINUOUS
10
294.169
20
-121.753
11
294.024
21
-121.826
0
LINE
8
BLACK
6
CONTINUOUS
10
295.548
20
-122.769
11
295.62
21
-122.842
0
LINE
8
BLACK
6
CONTINUOUS
10
295.62
20
-122.842
11
295.548
21
-122.914
0
LINE
8
BLACK
6
CONTINUOUS
10
295.548
20
-122.914
11
295.475
21
-122.842
0
LINE
8
BLACK
6
CONTINUOUS
10
295.475
20
-122.842
11
295.548
21
-122.769
0
LINE
8
BLACK
6
CONTINUOUS
10
295.548
20
-122.769
11
295.548
21
-122.914
0
LINE
8
BLACK
6
CONTINUOUS
10
296.201
20
-121.535
11
296.273
21
-121.463
0
LINE
8
BLACK
6
CONTINUOUS
10
296.273
20
-121.463
11
296.418
21
-121.39
0
LINE
8
BLACK
6
CONTINUOUS
10
296.418
20
-121.39
11
296.781
21
-121.39
0
LINE
8
BLACK
6
CONTINUOUS
10
296.781
20
-121.39
11
296.926
21
-121.463
0
LINE
8
BLACK
6
CONTINUOUS
10
296.926
20
-121.463
11
296.999
21
-121.535
0
LINE
8
BLACK
6
CONTINUOUS
10
296.999
20
-121.535
11
297.072
21
-121.681
0
LINE
8
BLACK
6
CONTINUOUS
10
297.072
20
-121.681
11
297.072
21
-121.826
0
LINE
8
BLACK
6
CONTINUOUS
10
297.072
20
-121.826
11
296.999
21
-122.043
0
LINE
8
BLACK
6
CONTINUOUS
10
296.999
20
-122.043
11
296.128
21
-122.914
0
LINE
8
BLACK
6
CONTINUOUS
10
296.128
20
-122.914
11
297.072
21
-122.914
0
LINE
8
BLACK
6
CONTINUOUS
10
298.45
20
-121.39
11
297.725
21
-121.39
0
LINE
8
BLACK
6
CONTINUOUS
10
297.725
20
-121.39
11
297.652
21
-122.116
0
LINE
8
BLACK
6
CONTINUOUS
10
297.652
20
-122.116
11
297.725
21
-122.043
0
LINE
8
BLACK
6
CONTINUOUS
10
297.725
20
-122.043
11
297.87
21
-121.971
0
LINE
8
BLACK
6
CONTINUOUS
10
297.87
20
-121.971
11
298.233
21
-121.971
0
LINE
8
BLACK
6
CONTINUOUS
10
298.233
20
-121.971
11
298.378
21
-122.043
0
LINE
8
BLACK
6
CONTINUOUS
10
298.378
20
-122.043
11
298.45
21
-122.116
0
LINE
8
BLACK
6
CONTINUOUS
10
298.45
20
-122.116
11
298.523
21
-122.261
0
LINE
8
BLACK
6
CONTINUOUS
10
298.523
20
-122.261
11
298.523
21
-122.624
0
LINE
8
BLACK
6
CONTINUOUS
10
298.523
20
-122.624
11
298.45
21
-122.769
0
LINE
8
BLACK
6
CONTINUOUS
10
298.45
20
-122.769
11
298.378
21
-122.842
0
LINE
8
BLACK
6
CONTINUOUS
10
298.378
20
-122.842
11
298.233
21
-122.914
0
LINE
8
BLACK
6
CONTINUOUS
10
298.233
20
-122.914
11
297.87
21
-122.914
0
LINE
8
BLACK
6
CONTINUOUS
10
297.87
20
-122.914
11
297.725
21
-122.842
0
LINE
8
BLACK
6
CONTINUOUS
10
297.725
20
-122.842
11
297.652
21
-122.769
0
LINE
8
BLACK
6
CONTINUOUS
10
299.829
20
-121.898
11
299.829
21
-122.914
0
LINE
8
BLACK
6
CONTINUOUS
10
299.176
20
-121.898
11
299.176
21
-122.697
0
LINE
8
BLACK
6
CONTINUOUS
10
299.176
20
-122.697
11
299.249
21
-122.842
0
LINE
8
BLACK
6
CONTINUOUS
10
299.249
20
-122.842
11
299.394
21
-122.914
0
LINE
8
BLACK
6
CONTINUOUS
10
299.394
20
-122.914
11
299.612
21
-122.914
0
LINE
8
BLACK
6
CONTINUOUS
10
299.612
20
-122.914
11
299.757
21
-122.842
0
LINE
8
BLACK
6
CONTINUOUS
10
299.757
20
-122.842
11
299.829
21
-122.769
0
LINE
8
BLACK
6
CONTINUOUS
10
270.343
20
-98.3666
11
270.415
21
-98.294
0
LINE
8
BLACK
6
CONTINUOUS
10
270.415
20
-98.294
11
270.561
21
-98.2214
0
LINE
8
BLACK
6
CONTINUOUS
10
270.561
20
-98.2214
11
270.923
21
-98.2214
0
LINE
8
BLACK
6
CONTINUOUS
10
270.923
20
-98.2214
11
271.069
21
-98.294
0
LINE
8
BLACK
6
CONTINUOUS
10
271.069
20
-98.294
11
271.141
21
-98.3666
0
LINE
8
BLACK
6
CONTINUOUS
10
271.141
20
-98.3666
11
271.214
21
-98.5117
0
LINE
8
BLACK
6
CONTINUOUS
10
271.214
20
-98.5117
11
271.214
21
-98.6569
0
LINE
8
BLACK
6
CONTINUOUS
10
271.214
20
-98.6569
11
271.141
21
-98.8746
0
LINE
8
BLACK
6
CONTINUOUS
10
271.141
20
-98.8746
11
270.27
21
-99.7454
0
LINE
8
BLACK
6
CONTINUOUS
10
270.27
20
-99.7454
11
271.214
21
-99.7454
0
LINE
8
BLACK
6
CONTINUOUS
10
271.867
20
-99.6003
11
271.939
21
-99.6729
0
LINE
8
BLACK
6
CONTINUOUS
10
271.939
20
-99.6729
11
271.867
21
-99.7454
0
LINE
8
BLACK
6
CONTINUOUS
10
271.867
20
-99.7454
11
271.794
21
-99.6729
0
LINE
8
BLACK
6
CONTINUOUS
10
271.794
20
-99.6729
11
271.867
21
-99.6003
0
LINE
8
BLACK
6
CONTINUOUS
10
271.867
20
-99.6003
11
271.867
21
-99.7454
0
LINE
8
BLACK
6
CONTINUOUS
10
272.447
20
-98.2214
11
273.463
21
-98.2214
0
LINE
8
BLACK
6
CONTINUOUS
10
273.463
20
-98.2214
11
272.81
21
-99.7454
0
LINE
8
BLACK
6
CONTINUOUS
10
274.77
20
-98.2214
11
274.044
21
-98.2214
0
LINE
8
BLACK
6
CONTINUOUS
10
274.044
20
-98.2214
11
273.971
21
-98.9471
0
LINE
8
BLACK
6
CONTINUOUS
10
273.971
20
-98.9471
11
274.044
21
-98.8746
0
LINE
8
BLACK
6
CONTINUOUS
10
274.044
20
-98.8746
11
274.189
21
-98.802
0
LINE
8
BLACK
6
CONTINUOUS
10
274.189
20
-98.802
11
274.552
21
-98.802
0
LINE
8
BLACK
6
CONTINUOUS
10
274.552
20
-98.802
11
274.697
21
-98.8746
0
LINE
8
BLACK
6
CONTINUOUS
10
274.697
20
-98.8746
11
274.77
21
-98.9471
0
LINE
8
BLACK
6
CONTINUOUS
10
274.77
20
-98.9471
11
274.842
21
-99.0923
0
LINE
8
BLACK
6
CONTINUOUS
10
274.842
20
-99.0923
11
274.842
21
-99.4551
0
LINE
8
BLACK
6
CONTINUOUS
10
274.842
20
-99.4551
11
274.77
21
-99.6003
0
LINE
8
BLACK
6
CONTINUOUS
10
274.77
20
-99.6003
11
274.697
21
-99.6729
0
LINE
8
BLACK
6
CONTINUOUS
10
274.697
20
-99.6729
11
274.552
21
-99.7454
0
LINE
8
BLACK
6
CONTINUOUS
10
274.552
20
-99.7454
11
274.189
21
-99.7454
0
LINE
8
BLACK
6
CONTINUOUS
10
274.189
20
-99.7454
11
274.044
21
-99.6729
0
LINE
8
BLACK
6
CONTINUOUS
10
274.044
20
-99.6729
11
273.971
21
-99.6003
0
LINE
8
BLACK
6
CONTINUOUS
10
276.149
20
-98.7294
11
276.149
21
-99.7454
0
LINE
8
BLACK
6
CONTINUOUS
10
275.495
20
-98.7294
11
275.495
21
-99.5277
0
LINE
8
BLACK
6
CONTINUOUS
10
275.495
20
-99.5277
11
275.568
21
-99.6729
0
LINE
8
BLACK
6
CONTINUOUS
10
275.568
20
-99.6729
11
275.713
21
-99.7454
0
LINE
8
BLACK
6
CONTINUOUS
10
275.713
20
-99.7454
11
275.931
21
-99.7454
0
LINE
8
BLACK
6
CONTINUOUS
10
275.931
20
-99.7454
11
276.076
21
-99.6729
0
LINE
8
BLACK
6
CONTINUOUS
10
276.076
20
-99.6729
11
276.149
21
-99.6003
0
LINE
8
BLACK
6
CONTINUOUS
10
276.015
20
-82.2416
11
276.087
21
-82.169
0
LINE
8
BLACK
6
CONTINUOUS
10
276.087
20
-82.169
11
276.233
21
-82.0964
0
LINE
8
BLACK
6
CONTINUOUS
10
276.233
20
-82.0964
11
276.595
21
-82.0964
0
LINE
8
BLACK
6
CONTINUOUS
10
276.595
20
-82.0964
11
276.741
21
-82.169
0
LINE
8
BLACK
6
CONTINUOUS
10
276.741
20
-82.169
11
276.813
21
-82.2416
0
LINE
8
BLACK
6
CONTINUOUS
10
276.813
20
-82.2416
11
276.886
21
-82.3867
0
LINE
8
BLACK
6
CONTINUOUS
10
276.886
20
-82.3867
11
276.886
21
-82.5319
0
LINE
8
BLACK
6
CONTINUOUS
10
276.886
20
-82.5319
11
276.813
21
-82.7496
0
LINE
8
BLACK
6
CONTINUOUS
10
276.813
20
-82.7496
11
275.942
21
-83.6204
0
LINE
8
BLACK
6
CONTINUOUS
10
275.942
20
-83.6204
11
276.886
21
-83.6204
0
LINE
8
BLACK
6
CONTINUOUS
10
277.539
20
-83.4753
11
277.611
21
-83.5479
0
LINE
8
BLACK
6
CONTINUOUS
10
277.611
20
-83.5479
11
277.539
21
-83.6204
0
LINE
8
BLACK
6
CONTINUOUS
10
277.539
20
-83.6204
11
277.466
21
-83.5479
0
LINE
8
BLACK
6
CONTINUOUS
10
277.466
20
-83.5479
11
277.539
21
-83.4753
0
LINE
8
BLACK
6
CONTINUOUS
10
277.539
20
-83.4753
11
277.539
21
-83.6204
0
LINE
8
BLACK
6
CONTINUOUS
10
278.192
20
-82.2416
11
278.265
21
-82.169
0
LINE
8
BLACK
6
CONTINUOUS
10
278.265
20
-82.169
11
278.41
21
-82.0964
0
LINE
8
BLACK
6
CONTINUOUS
10
278.41
20
-82.0964
11
278.773
21
-82.0964
0
LINE
8
BLACK
6
CONTINUOUS
10
278.773
20
-82.0964
11
278.918
21
-82.169
0
LINE
8
BLACK
6
CONTINUOUS
10
278.918
20
-82.169
11
278.99
21
-82.2416
0
LINE
8
BLACK
6
CONTINUOUS
10
278.99
20
-82.2416
11
279.063
21
-82.3867
0
LINE
8
BLACK
6
CONTINUOUS
10
279.063
20
-82.3867
11
279.063
21
-82.5319
0
LINE
8
BLACK
6
CONTINUOUS
10
279.063
20
-82.5319
11
278.99
21
-82.7496
0
LINE
8
BLACK
6
CONTINUOUS
10
278.99
20
-82.7496
11
278.119
21
-83.6204
0
LINE
8
BLACK
6
CONTINUOUS
10
278.119
20
-83.6204
11
279.063
21
-83.6204
0
LINE
8
BLACK
6
CONTINUOUS
10
280.442
20
-82.0964
11
279.716
21
-82.0964
0
LINE
8
BLACK
6
CONTINUOUS
10
279.716
20
-82.0964
11
279.643
21
-82.8221
0
LINE
8
BLACK
6
CONTINUOUS
10
279.643
20
-82.8221
11
279.716
21
-82.7496
0
LINE
8
BLACK
6
CONTINUOUS
10
279.716
20
-82.7496
11
279.861
21
-82.677
0
LINE
8
BLACK
6
CONTINUOUS
10
279.861
20
-82.677
11
280.224
21
-82.677
0
LINE
8
BLACK
6
CONTINUOUS
10
280.224
20
-82.677
11
280.369
21
-82.7496
0
LINE
8
BLACK
6
CONTINUOUS
10
280.369
20
-82.7496
11
280.442
21
-82.8221
0
LINE
8
BLACK
6
CONTINUOUS
10
280.442
20
-82.8221
11
280.514
21
-82.9673
0
LINE
8
BLACK
6
CONTINUOUS
10
280.514
20
-82.9673
11
280.514
21
-83.3301
0
LINE
8
BLACK
6
CONTINUOUS
10
280.514
20
-83.3301
11
280.442
21
-83.4753
0
LINE
8
BLACK
6
CONTINUOUS
10
280.442
20
-83.4753
11
280.369
21
-83.5479
0
LINE
8
BLACK
6
CONTINUOUS
10
280.369
20
-83.5479
11
280.224
21
-83.6204
0
LINE
8
BLACK
6
CONTINUOUS
10
280.224
20
-83.6204
11
279.861
21
-83.6204
0
LINE
8
BLACK
6
CONTINUOUS
10
279.861
20
-83.6204
11
279.716
21
-83.5479
0
LINE
8
BLACK
6
CONTINUOUS
10
279.716
20
-83.5479
11
279.643
21
-83.4753
0
LINE
8
BLACK
6
CONTINUOUS
10
281.821
20
-82.6044
11
281.821
21
-83.6204
0
LINE
8
BLACK
6
CONTINUOUS
10
281.167
20
-82.6044
11
281.167
21
-83.4027
0
LINE
8
BLACK
6
CONTINUOUS
10
281.167
20
-83.4027
11
281.24
21
-83.5479
0
LINE
8
BLACK
6
CONTINUOUS
10
281.24
20
-83.5479
11
281.385
21
-83.6204
0
LINE
8
BLACK
6
CONTINUOUS
10
281.385
20
-83.6204
11
281.603
21
-83.6204
0
LINE
8
BLACK
6
CONTINUOUS
10
281.603
20
-83.6204
11
281.748
21
-83.5479
0
LINE
8
BLACK
6
CONTINUOUS
10
281.748
20
-83.5479
11
281.821
21
-83.4753
0
LINE
8
BLACK
6
CONTINUOUS
10
80.8424
20
-122.914
11
79.9715
21
-122.914
0
LINE
8
BLACK
6
CONTINUOUS
10
80.407
20
-122.914
11
80.407
21
-121.39
0
LINE
8
BLACK
6
CONTINUOUS
10
80.407
20
-121.39
11
80.2618
21
-121.608
0
LINE
8
BLACK
6
CONTINUOUS
10
80.2618
20
-121.608
11
80.1167
21
-121.753
0
LINE
8
BLACK
6
CONTINUOUS
10
80.1167
20
-121.753
11
79.9715
21
-121.826
0
LINE
8
BLACK
6
CONTINUOUS
10
81.4955
20
-122.769
11
81.5681
21
-122.842
0
LINE
8
BLACK
6
CONTINUOUS
10
81.5681
20
-122.842
11
81.4955
21
-122.914
0
LINE
8
BLACK
6
CONTINUOUS
10
81.4955
20
-122.914
11
81.423
21
-122.842
0
LINE
8
BLACK
6
CONTINUOUS
10
81.423
20
-122.842
11
81.4955
21
-122.769
0
LINE
8
BLACK
6
CONTINUOUS
10
81.4955
20
-122.769
11
81.4955
21
-122.914
0
LINE
8
BLACK
6
CONTINUOUS
10
82.1487
20
-121.535
11
82.2213
21
-121.463
0
LINE
8
BLACK
6
CONTINUOUS
10
82.2213
20
-121.463
11
82.3664
21
-121.39
0
LINE
8
BLACK
6
CONTINUOUS
10
82.3664
20
-121.39
11
82.7293
21
-121.39
0
LINE
8
BLACK
6
CONTINUOUS
10
82.7293
20
-121.39
11
82.8744
21
-121.463
0
LINE
8
BLACK
6
CONTINUOUS
10
82.8744
20
-121.463
11
82.947
21
-121.535
0
LINE
8
BLACK
6
CONTINUOUS
10
82.947
20
-121.535
11
83.0195
21
-121.681
0
LINE
8
BLACK
6
CONTINUOUS
10
83.0195
20
-121.681
11
83.0195
21
-121.826
0
LINE
8
BLACK
6
CONTINUOUS
10
83.0195
20
-121.826
11
82.947
21
-122.043
0
LINE
8
BLACK
6
CONTINUOUS
10
82.947
20
-122.043
11
82.0761
21
-122.914
0
LINE
8
BLACK
6
CONTINUOUS
10
82.0761
20
-122.914
11
83.0195
21
-122.914
0
LINE
8
BLACK
6
CONTINUOUS
10
84.3984
20
-121.39
11
83.6727
21
-121.39
0
LINE
8
BLACK
6
CONTINUOUS
10
83.6727
20
-121.39
11
83.6001
21
-122.116
0
LINE
8
BLACK
6
CONTINUOUS
10
83.6001
20
-122.116
11
83.6727
21
-122.043
0
LINE
8
BLACK
6
CONTINUOUS
10
83.6727
20
-122.043
11
83.8178
21
-121.971
0
LINE
8
BLACK
6
CONTINUOUS
10
83.8178
20
-121.971
11
84.1807
21
-121.971
0
LINE
8
BLACK
6
CONTINUOUS
10
84.1807
20
-121.971
11
84.3258
21
-122.043
0
LINE
8
BLACK
6
CONTINUOUS
10
84.3258
20
-122.043
11
84.3984
21
-122.116
0
LINE
8
BLACK
6
CONTINUOUS
10
84.3984
20
-122.116
11
84.471
21
-122.261
0
LINE
8
BLACK
6
CONTINUOUS
10
84.471
20
-122.261
11
84.471
21
-122.624
0
LINE
8
BLACK
6
CONTINUOUS
10
84.471
20
-122.624
11
84.3984
21
-122.769
0
LINE
8
BLACK
6
CONTINUOUS
10
84.3984
20
-122.769
11
84.3258
21
-122.842
0
LINE
8
BLACK
6
CONTINUOUS
10
84.3258
20
-122.842
11
84.1807
21
-122.914
0
LINE
8
BLACK
6
CONTINUOUS
10
84.1807
20
-122.914
11
83.8178
21
-122.914
0
LINE
8
BLACK
6
CONTINUOUS
10
83.8178
20
-122.914
11
83.6727
21
-122.842
0
LINE
8
BLACK
6
CONTINUOUS
10
83.6727
20
-122.842
11
83.6001
21
-122.769
0
LINE
8
BLACK
6
CONTINUOUS
10
85.7773
20
-121.898
11
85.7773
21
-122.914
0
LINE
8
BLACK
6
CONTINUOUS
10
85.1241
20
-121.898
11
85.1241
21
-122.697
0
LINE
8
BLACK
6
CONTINUOUS
10
85.1241
20
-122.697
11
85.1967
21
-122.842
0
LINE
8
BLACK
6
CONTINUOUS
10
85.1967
20
-122.842
11
85.3418
21
-122.914
0
LINE
8
BLACK
6
CONTINUOUS
10
85.3418
20
-122.914
11
85.5595
21
-122.914
0
LINE
8
BLACK
6
CONTINUOUS
10
85.5595
20
-122.914
11
85.7047
21
-122.842
0
LINE
8
BLACK
6
CONTINUOUS
10
85.7047
20
-122.842
11
85.7773
21
-122.769
0
LINE
8
BLACK
6
CONTINUOUS
10
56.9664
20
-122.914
11
56.0955
21
-122.914
0
LINE
8
BLACK
6
CONTINUOUS
10
56.531
20
-122.914
11
56.531
21
-121.39
0
LINE
8
BLACK
6
CONTINUOUS
10
56.531
20
-121.39
11
56.3858
21
-121.608
0
LINE
8
BLACK
6
CONTINUOUS
10
56.3858
20
-121.608
11
56.2407
21
-121.753
0
LINE
8
BLACK
6
CONTINUOUS
10
56.2407
20
-121.753
11
56.0955
21
-121.826
0
LINE
8
BLACK
6
CONTINUOUS
10
57.6195
20
-122.769
11
57.6921
21
-122.842
0
LINE
8
BLACK
6
CONTINUOUS
10
57.6921
20
-122.842
11
57.6195
21
-122.914
0
LINE
8
BLACK
6
CONTINUOUS
10
57.6195
20
-122.914
11
57.547
21
-122.842
0
LINE
8
BLACK
6
CONTINUOUS
10
57.547
20
-122.842
11
57.6195
21
-122.769
0
LINE
8
BLACK
6
CONTINUOUS
10
57.6195
20
-122.769
11
57.6195
21
-122.914
0
LINE
8
BLACK
6
CONTINUOUS
10
58.2727
20
-121.535
11
58.3453
21
-121.463
0
LINE
8
BLACK
6
CONTINUOUS
10
58.3453
20
-121.463
11
58.4904
21
-121.39
0
LINE
8
BLACK
6
CONTINUOUS
10
58.4904
20
-121.39
11
58.8533
21
-121.39
0
LINE
8
BLACK
6
CONTINUOUS
10
58.8533
20
-121.39
11
58.9984
21
-121.463
0
LINE
8
BLACK
6
CONTINUOUS
10
58.9984
20
-121.463
11
59.071
21
-121.535
0
LINE
8
BLACK
6
CONTINUOUS
10
59.071
20
-121.535
11
59.1435
21
-121.681
0
LINE
8
BLACK
6
CONTINUOUS
10
59.1435
20
-121.681
11
59.1435
21
-121.826
0
LINE
8
BLACK
6
CONTINUOUS
10
59.1435
20
-121.826
11
59.071
21
-122.043
0
LINE
8
BLACK
6
CONTINUOUS
10
59.071
20
-122.043
11
58.2001
21
-122.914
0
LINE
8
BLACK
6
CONTINUOUS
10
58.2001
20
-122.914
11
59.1435
21
-122.914
0
LINE
8
BLACK
6
CONTINUOUS
10
60.5224
20
-121.39
11
59.7967
21
-121.39
0
LINE
8
BLACK
6
CONTINUOUS
10
59.7967
20
-121.39
11
59.7241
21
-122.116
0
LINE
8
BLACK
6
CONTINUOUS
10
59.7241
20
-122.116
11
59.7967
21
-122.043
0
LINE
8
BLACK
6
CONTINUOUS
10
59.7967
20
-122.043
11
59.9418
21
-121.971
0
LINE
8
BLACK
6
CONTINUOUS
10
59.9418
20
-121.971
11
60.3047
21
-121.971
0
LINE
8
BLACK
6
CONTINUOUS
10
60.3047
20
-121.971
11
60.4498
21
-122.043
0
LINE
8
BLACK
6
CONTINUOUS
10
60.4498
20
-122.043
11
60.5224
21
-122.116
0
LINE
8
BLACK
6
CONTINUOUS
10
60.5224
20
-122.116
11
60.595
21
-122.261
0
LINE
8
BLACK
6
CONTINUOUS
10
60.595
20
-122.261
11
60.595
21
-122.624
0
LINE
8
BLACK
6
CONTINUOUS
10
60.595
20
-122.624
11
60.5224
21
-122.769
0
LINE
8
BLACK
6
CONTINUOUS
10
60.5224
20
-122.769
11
60.4498
21
-122.842
0
LINE
8
BLACK
6
CONTINUOUS
10
60.4498
20
-122.842
11
60.3047
21
-122.914
0
LINE
8
BLACK
6
CONTINUOUS
10
60.3047
20
-122.914
11
59.9418
21
-122.914
0
LINE
8
BLACK
6
CONTINUOUS
10
59.9418
20
-122.914
11
59.7967
21
-122.842
0
LINE
8
BLACK
6
CONTINUOUS
10
59.7967
20
-122.842
11
59.7241
21
-122.769
0
LINE
8
BLACK
6
CONTINUOUS
10
61.9013
20
-121.898
11
61.9013
21
-122.914
0
LINE
8
BLACK
6
CONTINUOUS
10
61.2481
20
-121.898
11
61.2481
21
-122.697
0
LINE
8
BLACK
6
CONTINUOUS
10
61.2481
20
-122.697
11
61.3207
21
-122.842
0
LINE
8
BLACK
6
CONTINUOUS
10
61.3207
20
-122.842
11
61.4658
21
-122.914
0
LINE
8
BLACK
6
CONTINUOUS
10
61.4658
20
-122.914
11
61.6835
21
-122.914
0
LINE
8
BLACK
6
CONTINUOUS
10
61.6835
20
-122.914
11
61.8287
21
-122.842
0
LINE
8
BLACK
6
CONTINUOUS
10
61.8287
20
-122.842
11
61.9013
21
-122.769
0
LINE
8
BLACK
6
CONTINUOUS
10
33.0491
20
-122.914
11
32.1782
21
-122.914
0
LINE
8
BLACK
6
CONTINUOUS
10
32.6137
20
-122.914
11
32.6137
21
-121.39
0
LINE
8
BLACK
6
CONTINUOUS
10
32.6137
20
-121.39
11
32.4685
21
-121.608
0
LINE
8
BLACK
6
CONTINUOUS
10
32.4685
20
-121.608
11
32.3234
21
-121.753
0
LINE
8
BLACK
6
CONTINUOUS
10
32.3234
20
-121.753
11
32.1782
21
-121.826
0
LINE
8
BLACK
6
CONTINUOUS
10
33.7022
20
-122.769
11
33.7748
21
-122.842
0
LINE
8
BLACK
6
CONTINUOUS
10
33.7748
20
-122.842
11
33.7022
21
-122.914
0
LINE
8
BLACK
6
CONTINUOUS
10
33.7022
20
-122.914
11
33.6297
21
-122.842
0
LINE
8
BLACK
6
CONTINUOUS
10
33.6297
20
-122.842
11
33.7022
21
-122.769
0
LINE
8
BLACK
6
CONTINUOUS
10
33.7022
20
-122.769
11
33.7022
21
-122.914
0
LINE
8
BLACK
6
CONTINUOUS
10
34.3554
20
-121.535
11
34.428
21
-121.463
0
LINE
8
BLACK
6
CONTINUOUS
10
34.428
20
-121.463
11
34.5731
21
-121.39
0
LINE
8
BLACK
6
CONTINUOUS
10
34.5731
20
-121.39
11
34.936
21
-121.39
0
LINE
8
BLACK
6
CONTINUOUS
10
34.936
20
-121.39
11
35.0811
21
-121.463
0
LINE
8
BLACK
6
CONTINUOUS
10
35.0811
20
-121.463
11
35.1537
21
-121.535
0
LINE
8
BLACK
6
CONTINUOUS
10
35.1537
20
-121.535
11
35.2262
21
-121.681
0
LINE
8
BLACK
6
CONTINUOUS
10
35.2262
20
-121.681
11
35.2262
21
-121.826
0
LINE
8
BLACK
6
CONTINUOUS
10
35.2262
20
-121.826
11
35.1537
21
-122.043
0
LINE
8
BLACK
6
CONTINUOUS
10
35.1537
20
-122.043
11
34.2828
21
-122.914
0
LINE
8
BLACK
6
CONTINUOUS
10
34.2828
20
-122.914
11
35.2262
21
-122.914
0
LINE
8
BLACK
6
CONTINUOUS
10
36.6051
20
-121.39
11
35.8794
21
-121.39
0
LINE
8
BLACK
6
CONTINUOUS
10
35.8794
20
-121.39
11
35.8068
21
-122.116
0
LINE
8
BLACK
6
CONTINUOUS
10
35.8068
20
-122.116
11
35.8794
21
-122.043
0
LINE
8
BLACK
6
CONTINUOUS
10
35.8794
20
-122.043
11
36.0245
21
-121.971
0
LINE
8
BLACK
6
CONTINUOUS
10
36.0245
20
-121.971
11
36.3874
21
-121.971
0
LINE
8
BLACK
6
CONTINUOUS
10
36.3874
20
-121.971
11
36.5325
21
-122.043
0
LINE
8
BLACK
6
CONTINUOUS
10
36.5325
20
-122.043
11
36.6051
21
-122.116
0
LINE
8
BLACK
6
CONTINUOUS
10
36.6051
20
-122.116
11
36.6777
21
-122.261
0
LINE
8
BLACK
6
CONTINUOUS
10
36.6777
20
-122.261
11
36.6777
21
-122.624
0
LINE
8
BLACK
6
CONTINUOUS
10
36.6777
20
-122.624
11
36.6051
21
-122.769
0
LINE
8
BLACK
6
CONTINUOUS
10
36.6051
20
-122.769
11
36.5325
21
-122.842
0
LINE
8
BLACK
6
CONTINUOUS
10
36.5325
20
-122.842
11
36.3874
21
-122.914
0
LINE
8
BLACK
6
CONTINUOUS
10
36.3874
20
-122.914
11
36.0245
21
-122.914
0
LINE
8
BLACK
6
CONTINUOUS
10
36.0245
20
-122.914
11
35.8794
21
-122.842
0
LINE
8
BLACK
6
CONTINUOUS
10
35.8794
20
-122.842
11
35.8068
21
-122.769
0
LINE
8
BLACK
6
CONTINUOUS
10
37.984
20
-121.898
11
37.984
21
-122.914
0
LINE
8
BLACK
6
CONTINUOUS
10
37.3308
20
-121.898
11
37.3308
21
-122.697
0
LINE
8
BLACK
6
CONTINUOUS
10
37.3308
20
-122.697
11
37.4034
21
-122.842
0
LINE
8
BLACK
6
CONTINUOUS
10
37.4034
20
-122.842
11
37.5485
21
-122.914
0
LINE
8
BLACK
6
CONTINUOUS
10
37.5485
20
-122.914
11
37.7662
21
-122.914
0
LINE
8
BLACK
6
CONTINUOUS
10
37.7662
20
-122.914
11
37.9114
21
-122.842
0
LINE
8
BLACK
6
CONTINUOUS
10
37.9114
20
-122.842
11
37.984
21
-122.769
0
LINE
8
BLACK
6
CONTINUOUS
10
291.079
20
-64.3164
11
290.208
21
-64.3164
0
LINE
8
BLACK
6
CONTINUOUS
10
290.644
20
-64.3164
11
290.644
21
-62.7924
0
LINE
8
BLACK
6
CONTINUOUS
10
290.644
20
-62.7924
11
290.499
21
-63.0101
0
LINE
8
BLACK
6
CONTINUOUS
10
290.499
20
-63.0101
11
290.353
21
-63.1553
0
LINE
8
BLACK
6
CONTINUOUS
10
290.353
20
-63.1553
11
290.208
21
-63.2279
0
LINE
8
BLACK
6
CONTINUOUS
10
291.732
20
-64.1713
11
291.805
21
-64.2439
0
LINE
8
BLACK
6
CONTINUOUS
10
291.805
20
-64.2439
11
291.732
21
-64.3164
0
LINE
8
BLACK
6
CONTINUOUS
10
291.732
20
-64.3164
11
291.66
21
-64.2439
0
LINE
8
BLACK
6
CONTINUOUS
10
291.66
20
-64.2439
11
291.732
21
-64.1713
0
LINE
8
BLACK
6
CONTINUOUS
10
291.732
20
-64.1713
11
291.732
21
-64.3164
0
LINE
8
BLACK
6
CONTINUOUS
10
293.184
20
-62.7924
11
292.458
21
-62.7924
0
LINE
8
BLACK
6
CONTINUOUS
10
292.458
20
-62.7924
11
292.385
21
-63.5181
0
LINE
8
BLACK
6
CONTINUOUS
10
292.385
20
-63.5181
11
292.458
21
-63.4456
0
LINE
8
BLACK
6
CONTINUOUS
10
292.458
20
-63.4456
11
292.603
21
-63.373
0
LINE
8
BLACK
6
CONTINUOUS
10
292.603
20
-63.373
11
292.966
21
-63.373
0
LINE
8
BLACK
6
CONTINUOUS
10
292.966
20
-63.373
11
293.111
21
-63.4456
0
LINE
8
BLACK
6
CONTINUOUS
10
293.111
20
-63.4456
11
293.184
21
-63.5181
0
LINE
8
BLACK
6
CONTINUOUS
10
293.184
20
-63.5181
11
293.256
21
-63.6633
0
LINE
8
BLACK
6
CONTINUOUS
10
293.256
20
-63.6633
11
293.256
21
-64.0261
0
LINE
8
BLACK
6
CONTINUOUS
10
293.256
20
-64.0261
11
293.184
21
-64.1713
0
LINE
8
BLACK
6
CONTINUOUS
10
293.184
20
-64.1713
11
293.111
21
-64.2439
0
LINE
8
BLACK
6
CONTINUOUS
10
293.111
20
-64.2439
11
292.966
21
-64.3164
0
LINE
8
BLACK
6
CONTINUOUS
10
292.966
20
-64.3164
11
292.603
21
-64.3164
0
LINE
8
BLACK
6
CONTINUOUS
10
292.603
20
-64.3164
11
292.458
21
-64.2439
0
LINE
8
BLACK
6
CONTINUOUS
10
292.458
20
-64.2439
11
292.385
21
-64.1713
0
LINE
8
BLACK
6
CONTINUOUS
10
294.2
20
-62.7924
11
294.345
21
-62.7924
0
LINE
8
BLACK
6
CONTINUOUS
10
294.345
20
-62.7924
11
294.49
21
-62.865
0
LINE
8
BLACK
6
CONTINUOUS
10
294.49
20
-62.865
11
294.563
21
-62.9376
0
LINE
8
BLACK
6
CONTINUOUS
10
294.563
20
-62.9376
11
294.635
21
-63.0827
0
LINE
8
BLACK
6
CONTINUOUS
10
294.635
20
-63.0827
11
294.708
21
-63.373
0
LINE
8
BLACK
6
CONTINUOUS
10
294.708
20
-63.373
11
294.708
21
-63.7359
0
LINE
8
BLACK
6
CONTINUOUS
10
294.708
20
-63.7359
11
294.635
21
-64.0261
0
LINE
8
BLACK
6
CONTINUOUS
10
294.635
20
-64.0261
11
294.563
21
-64.1713
0
LINE
8
BLACK
6
CONTINUOUS
10
294.563
20
-64.1713
11
294.49
21
-64.2439
0
LINE
8
BLACK
6
CONTINUOUS
10
294.49
20
-64.2439
11
294.345
21
-64.3164
0
LINE
8
BLACK
6
CONTINUOUS
10
294.345
20
-64.3164
11
294.2
21
-64.3164
0
LINE
8
BLACK
6
CONTINUOUS
10
294.2
20
-64.3164
11
294.055
21
-64.2439
0
LINE
8
BLACK
6
CONTINUOUS
10
294.055
20
-64.2439
11
293.982
21
-64.1713
0
LINE
8
BLACK
6
CONTINUOUS
10
293.982
20
-64.1713
11
293.909
21
-64.0261
0
LINE
8
BLACK
6
CONTINUOUS
10
293.909
20
-64.0261
11
293.837
21
-63.7359
0
LINE
8
BLACK
6
CONTINUOUS
10
293.837
20
-63.7359
11
293.837
21
-63.373
0
LINE
8
BLACK
6
CONTINUOUS
10
293.837
20
-63.373
11
293.909
21
-63.0827
0
LINE
8
BLACK
6
CONTINUOUS
10
293.909
20
-63.0827
11
293.982
21
-62.9376
0
LINE
8
BLACK
6
CONTINUOUS
10
293.982
20
-62.9376
11
294.055
21
-62.865
0
LINE
8
BLACK
6
CONTINUOUS
10
294.055
20
-62.865
11
294.2
21
-62.7924
0
LINE
8
BLACK
6
CONTINUOUS
10
296.014
20
-63.3004
11
296.014
21
-64.3164
0
LINE
8
BLACK
6
CONTINUOUS
10
295.361
20
-63.3004
11
295.361
21
-64.0987
0
LINE
8
BLACK
6
CONTINUOUS
10
295.361
20
-64.0987
11
295.433
21
-64.2439
0
LINE
8
BLACK
6
CONTINUOUS
10
295.433
20
-64.2439
11
295.579
21
-64.3164
0
LINE
8
BLACK
6
CONTINUOUS
10
295.579
20
-64.3164
11
295.796
21
-64.3164
0
LINE
8
BLACK
6
CONTINUOUS
10
295.796
20
-64.3164
11
295.941
21
-64.2439
0
LINE
8
BLACK
6
CONTINUOUS
10
295.941
20
-64.2439
11
296.014
21
-64.1713
0
LINE
8
BLACK
6
CONTINUOUS
10
33.2146
20
-101.292
11
33.2871
21
-101.219
0
LINE
8
BLACK
6
CONTINUOUS
10
33.2871
20
-101.219
11
33.4323
21
-101.146
0
LINE
8
BLACK
6
CONTINUOUS
10
33.4323
20
-101.146
11
33.7951
21
-101.146
0
LINE
8
BLACK
6
CONTINUOUS
10
33.7951
20
-101.146
11
33.9403
21
-101.219
0
LINE
8
BLACK
6
CONTINUOUS
10
33.9403
20
-101.219
11
34.0128
21
-101.292
0
LINE
8
BLACK
6
CONTINUOUS
10
34.0128
20
-101.292
11
34.0854
21
-101.437
0
LINE
8
BLACK
6
CONTINUOUS
10
34.0854
20
-101.437
11
34.0854
21
-101.582
0
LINE
8
BLACK
6
CONTINUOUS
10
34.0854
20
-101.582
11
34.0128
21
-101.8
0
LINE
8
BLACK
6
CONTINUOUS
10
34.0128
20
-101.8
11
33.142
21
-102.67
0
LINE
8
BLACK
6
CONTINUOUS
10
33.142
20
-102.67
11
34.0854
21
-102.67
0
LINE
8
BLACK
6
CONTINUOUS
10
34.7386
20
-102.525
11
34.8111
21
-102.598
0
LINE
8
BLACK
6
CONTINUOUS
10
34.8111
20
-102.598
11
34.7386
21
-102.67
0
LINE
8
BLACK
6
CONTINUOUS
10
34.7386
20
-102.67
11
34.666
21
-102.598
0
LINE
8
BLACK
6
CONTINUOUS
10
34.666
20
-102.598
11
34.7386
21
-102.525
0
LINE
8
BLACK
6
CONTINUOUS
10
34.7386
20
-102.525
11
34.7386
21
-102.67
0
LINE
8
BLACK
6
CONTINUOUS
10
35.3917
20
-101.292
11
35.4643
21
-101.219
0
LINE
8
BLACK
6
CONTINUOUS
10
35.4643
20
-101.219
11
35.6094
21
-101.146
0
LINE
8
BLACK
6
CONTINUOUS
10
35.6094
20
-101.146
11
35.9723
21
-101.146
0
LINE
8
BLACK
6
CONTINUOUS
10
35.9723
20
-101.146
11
36.1174
21
-101.219
0
LINE
8
BLACK
6
CONTINUOUS
10
36.1174
20
-101.219
11
36.19
21
-101.292
0
LINE
8
BLACK
6
CONTINUOUS
10
36.19
20
-101.292
11
36.2626
21
-101.437
0
LINE
8
BLACK
6
CONTINUOUS
10
36.2626
20
-101.437
11
36.2626
21
-101.582
0
LINE
8
BLACK
6
CONTINUOUS
10
36.2626
20
-101.582
11
36.19
21
-101.8
0
LINE
8
BLACK
6
CONTINUOUS
10
36.19
20
-101.8
11
35.3191
21
-102.67
0
LINE
8
BLACK
6
CONTINUOUS
10
35.3191
20
-102.67
11
36.2626
21
-102.67
0
LINE
8
BLACK
6
CONTINUOUS
10
37.6414
20
-101.146
11
36.9157
21
-101.146
0
LINE
8
BLACK
6
CONTINUOUS
10
36.9157
20
-101.146
11
36.8431
21
-101.872
0
LINE
8
BLACK
6
CONTINUOUS
10
36.8431
20
-101.872
11
36.9157
21
-101.8
0
LINE
8
BLACK
6
CONTINUOUS
10
36.9157
20
-101.8
11
37.0608
21
-101.727
0
LINE
8
BLACK
6
CONTINUOUS
10
37.0608
20
-101.727
11
37.4237
21
-101.727
0
LINE
8
BLACK
6
CONTINUOUS
10
37.4237
20
-101.727
11
37.5688
21
-101.8
0
LINE
8
BLACK
6
CONTINUOUS
10
37.5688
20
-101.8
11
37.6414
21
-101.872
0
LINE
8
BLACK
6
CONTINUOUS
10
37.6414
20
-101.872
11
37.714
21
-102.017
0
LINE
8
BLACK
6
CONTINUOUS
10
37.714
20
-102.017
11
37.714
21
-102.38
0
LINE
8
BLACK
6
CONTINUOUS
10
37.714
20
-102.38
11
37.6414
21
-102.525
0
LINE
8
BLACK
6
CONTINUOUS
10
37.6414
20
-102.525
11
37.5688
21
-102.598
0
LINE
8
BLACK
6
CONTINUOUS
10
37.5688
20
-102.598
11
37.4237
21
-102.67
0
LINE
8
BLACK
6
CONTINUOUS
10
37.4237
20
-102.67
11
37.0608
21
-102.67
0
LINE
8
BLACK
6
CONTINUOUS
10
37.0608
20
-102.67
11
36.9157
21
-102.598
0
LINE
8
BLACK
6
CONTINUOUS
10
36.9157
20
-102.598
11
36.8431
21
-102.525
0
LINE
8
BLACK
6
CONTINUOUS
10
39.0203
20
-101.654
11
39.0203
21
-102.67
0
LINE
8
BLACK
6
CONTINUOUS
10
38.3671
20
-101.654
11
38.3671
21
-102.453
0
LINE
8
BLACK
6
CONTINUOUS
10
38.3671
20
-102.453
11
38.4397
21
-102.598
0
LINE
8
BLACK
6
CONTINUOUS
10
38.4397
20
-102.598
11
38.5848
21
-102.67
0
LINE
8
BLACK
6
CONTINUOUS
10
38.5848
20
-102.67
11
38.8026
21
-102.67
0
LINE
8
BLACK
6
CONTINUOUS
10
38.8026
20
-102.67
11
38.9477
21
-102.598
0
LINE
8
BLACK
6
CONTINUOUS
10
38.9477
20
-102.598
11
39.0203
21
-102.525
0
LINE
8
BLACK
6
CONTINUOUS
10
279.414
20
-45.4116
11
279.486
21
-45.339
0
LINE
8
BLACK
6
CONTINUOUS
10
279.486
20
-45.339
11
279.632
21
-45.2664
0
LINE
8
BLACK
6
CONTINUOUS
10
279.632
20
-45.2664
11
279.994
21
-45.2664
0
LINE
8
BLACK
6
CONTINUOUS
10
279.994
20
-45.2664
11
280.14
21
-45.339
0
LINE
8
BLACK
6
CONTINUOUS
10
280.14
20
-45.339
11
280.212
21
-45.4116
0
LINE
8
BLACK
6
CONTINUOUS
10
280.212
20
-45.4116
11
280.285
21
-45.5567
0
LINE
8
BLACK
6
CONTINUOUS
10
280.285
20
-45.5567
11
280.285
21
-45.7019
0
LINE
8
BLACK
6
CONTINUOUS
10
280.285
20
-45.7019
11
280.212
21
-45.9196
0
LINE
8
BLACK
6
CONTINUOUS
10
280.212
20
-45.9196
11
279.341
21
-46.7904
0
LINE
8
BLACK
6
CONTINUOUS
10
279.341
20
-46.7904
11
280.285
21
-46.7904
0
LINE
8
BLACK
6
CONTINUOUS
10
280.938
20
-46.6453
11
281.01
21
-46.7179
0
LINE
8
BLACK
6
CONTINUOUS
10
281.01
20
-46.7179
11
280.938
21
-46.7904
0
LINE
8
BLACK
6
CONTINUOUS
10
280.938
20
-46.7904
11
280.865
21
-46.7179
0
LINE
8
BLACK
6
CONTINUOUS
10
280.865
20
-46.7179
11
280.938
21
-46.6453
0
LINE
8
BLACK
6
CONTINUOUS
10
280.938
20
-46.6453
11
280.938
21
-46.7904
0
LINE
8
BLACK
6
CONTINUOUS
10
281.954
20
-45.2664
11
282.099
21
-45.2664
0
LINE
8
BLACK
6
CONTINUOUS
10
282.099
20
-45.2664
11
282.244
21
-45.339
0
LINE
8
BLACK
6
CONTINUOUS
10
282.244
20
-45.339
11
282.317
21
-45.4116
0
LINE
8
BLACK
6
CONTINUOUS
10
282.317
20
-45.4116
11
282.389
21
-45.5567
0
LINE
8
BLACK
6
CONTINUOUS
10
282.389
20
-45.5567
11
282.462
21
-45.847
0
LINE
8
BLACK
6
CONTINUOUS
10
282.462
20
-45.847
11
282.462
21
-46.2099
0
LINE
8
BLACK
6
CONTINUOUS
10
282.462
20
-46.2099
11
282.389
21
-46.5001
0
LINE
8
BLACK
6
CONTINUOUS
10
282.389
20
-46.5001
11
282.317
21
-46.6453
0
LINE
8
BLACK
6
CONTINUOUS
10
282.317
20
-46.6453
11
282.244
21
-46.7179
0
LINE
8
BLACK
6
CONTINUOUS
10
282.244
20
-46.7179
11
282.099
21
-46.7904
0
LINE
8
BLACK
6
CONTINUOUS
10
282.099
20
-46.7904
11
281.954
21
-46.7904
0
LINE
8
BLACK
6
CONTINUOUS
10
281.954
20
-46.7904
11
281.809
21
-46.7179
0
LINE
8
BLACK
6
CONTINUOUS
10
281.809
20
-46.7179
11
281.736
21
-46.6453
0
LINE
8
BLACK
6
CONTINUOUS
10
281.736
20
-46.6453
11
281.664
21
-46.5001
0
LINE
8
BLACK
6
CONTINUOUS
10
281.664
20
-46.5001
11
281.591
21
-46.2099
0
LINE
8
BLACK
6
CONTINUOUS
10
281.591
20
-46.2099
11
281.591
21
-45.847
0
LINE
8
BLACK
6
CONTINUOUS
10
281.591
20
-45.847
11
281.664
21
-45.5567
0
LINE
8
BLACK
6
CONTINUOUS
10
281.664
20
-45.5567
11
281.736
21
-45.4116
0
LINE
8
BLACK
6
CONTINUOUS
10
281.736
20
-45.4116
11
281.809
21
-45.339
0
LINE
8
BLACK
6
CONTINUOUS
10
281.809
20
-45.339
11
281.954
21
-45.2664
0
LINE
8
BLACK
6
CONTINUOUS
10
283.405
20
-45.2664
11
283.55
21
-45.2664
0
LINE
8
BLACK
6
CONTINUOUS
10
283.55
20
-45.2664
11
283.696
21
-45.339
0
LINE
8
BLACK
6
CONTINUOUS
10
283.696
20
-45.339
11
283.768
21
-45.4116
0
LINE
8
BLACK
6
CONTINUOUS
10
283.768
20
-45.4116
11
283.841
21
-45.5567
0
LINE
8
BLACK
6
CONTINUOUS
10
283.841
20
-45.5567
11
283.913
21
-45.847
0
LINE
8
BLACK
6
CONTINUOUS
10
283.913
20
-45.847
11
283.913
21
-46.2099
0
LINE
8
BLACK
6
CONTINUOUS
10
283.913
20
-46.2099
11
283.841
21
-46.5001
0
LINE
8
BLACK
6
CONTINUOUS
10
283.841
20
-46.5001
11
283.768
21
-46.6453
0
LINE
8
BLACK
6
CONTINUOUS
10
283.768
20
-46.6453
11
283.696
21
-46.7179
0
LINE
8
BLACK
6
CONTINUOUS
10
283.696
20
-46.7179
11
283.55
21
-46.7904
0
LINE
8
BLACK
6
CONTINUOUS
10
283.55
20
-46.7904
11
283.405
21
-46.7904
0
LINE
8
BLACK
6
CONTINUOUS
10
283.405
20
-46.7904
11
283.26
21
-46.7179
0
LINE
8
BLACK
6
CONTINUOUS
10
283.26
20
-46.7179
11
283.188
21
-46.6453
0
LINE
8
BLACK
6
CONTINUOUS
10
283.188
20
-46.6453
11
283.115
21
-46.5001
0
LINE
8
BLACK
6
CONTINUOUS
10
283.115
20
-46.5001
11
283.042
21
-46.2099
0
LINE
8
BLACK
6
CONTINUOUS
10
283.042
20
-46.2099
11
283.042
21
-45.847
0
LINE
8
BLACK
6
CONTINUOUS
10
283.042
20
-45.847
11
283.115
21
-45.5567
0
LINE
8
BLACK
6
CONTINUOUS
10
283.115
20
-45.5567
11
283.188
21
-45.4116
0
LINE
8
BLACK
6
CONTINUOUS
10
283.188
20
-45.4116
11
283.26
21
-45.339
0
LINE
8
BLACK
6
CONTINUOUS
10
283.26
20
-45.339
11
283.405
21
-45.2664
0
LINE
8
BLACK
6
CONTINUOUS
10
285.22
20
-45.7744
11
285.22
21
-46.7904
0
LINE
8
BLACK
6
CONTINUOUS
10
284.566
20
-45.7744
11
284.566
21
-46.5727
0
LINE
8
BLACK
6
CONTINUOUS
10
284.566
20
-46.5727
11
284.639
21
-46.7179
0
LINE
8
BLACK
6
CONTINUOUS
10
284.639
20
-46.7179
11
284.784
21
-46.7904
0
LINE
8
BLACK
6
CONTINUOUS
10
284.784
20
-46.7904
11
285.002
21
-46.7904
0
LINE
8
BLACK
6
CONTINUOUS
10
285.002
20
-46.7904
11
285.147
21
-46.7179
0
LINE
8
BLACK
6
CONTINUOUS
10
285.147
20
-46.7179
11
285.22
21
-46.6453
0
LINE
8
BLACK
6
CONTINUOUS
10
33.9889
20
-64.4596
11
33.1181
21
-64.4596
0
LINE
8
BLACK
6
CONTINUOUS
10
33.5535
20
-64.4596
11
33.5535
21
-62.9356
0
LINE
8
BLACK
6
CONTINUOUS
10
33.5535
20
-62.9356
11
33.4083
21
-63.1533
0
LINE
8
BLACK
6
CONTINUOUS
10
33.4083
20
-63.1533
11
33.2632
21
-63.2985
0
LINE
8
BLACK
6
CONTINUOUS
10
33.2632
20
-63.2985
11
33.1181
21
-63.3711
0
LINE
8
BLACK
6
CONTINUOUS
10
34.6421
20
-64.3145
11
34.7146
21
-64.3871
0
LINE
8
BLACK
6
CONTINUOUS
10
34.7146
20
-64.3871
11
34.6421
21
-64.4596
0
LINE
8
BLACK
6
CONTINUOUS
10
34.6421
20
-64.4596
11
34.5695
21
-64.3871
0
LINE
8
BLACK
6
CONTINUOUS
10
34.5695
20
-64.3871
11
34.6421
21
-64.3145
0
LINE
8
BLACK
6
CONTINUOUS
10
34.6421
20
-64.3145
11
34.6421
21
-64.4596
0
LINE
8
BLACK
6
CONTINUOUS
10
36.0935
20
-62.9356
11
35.3678
21
-62.9356
0
LINE
8
BLACK
6
CONTINUOUS
10
35.3678
20
-62.9356
11
35.2952
21
-63.6613
0
LINE
8
BLACK
6
CONTINUOUS
10
35.2952
20
-63.6613
11
35.3678
21
-63.5888
0
LINE
8
BLACK
6
CONTINUOUS
10
35.3678
20
-63.5888
11
35.5129
21
-63.5162
0
LINE
8
BLACK
6
CONTINUOUS
10
35.5129
20
-63.5162
11
35.8758
21
-63.5162
0
LINE
8
BLACK
6
CONTINUOUS
10
35.8758
20
-63.5162
11
36.0209
21
-63.5888
0
LINE
8
BLACK
6
CONTINUOUS
10
36.0209
20
-63.5888
11
36.0935
21
-63.6613
0
LINE
8
BLACK
6
CONTINUOUS
10
36.0935
20
-63.6613
11
36.1661
21
-63.8065
0
LINE
8
BLACK
6
CONTINUOUS
10
36.1661
20
-63.8065
11
36.1661
21
-64.1693
0
LINE
8
BLACK
6
CONTINUOUS
10
36.1661
20
-64.1693
11
36.0935
21
-64.3145
0
LINE
8
BLACK
6
CONTINUOUS
10
36.0935
20
-64.3145
11
36.0209
21
-64.3871
0
LINE
8
BLACK
6
CONTINUOUS
10
36.0209
20
-64.3871
11
35.8758
21
-64.4596
0
LINE
8
BLACK
6
CONTINUOUS
10
35.8758
20
-64.4596
11
35.5129
21
-64.4596
0
LINE
8
BLACK
6
CONTINUOUS
10
35.5129
20
-64.4596
11
35.3678
21
-64.3871
0
LINE
8
BLACK
6
CONTINUOUS
10
35.3678
20
-64.3871
11
35.2952
21
-64.3145
0
LINE
8
BLACK
6
CONTINUOUS
10
37.1095
20
-62.9356
11
37.2546
21
-62.9356
0
LINE
8
BLACK
6
CONTINUOUS
10
37.2546
20
-62.9356
11
37.3998
21
-63.0082
0
LINE
8
BLACK
6
CONTINUOUS
10
37.3998
20
-63.0082
11
37.4723
21
-63.0808
0
LINE
8
BLACK
6
CONTINUOUS
10
37.4723
20
-63.0808
11
37.5449
21
-63.2259
0
LINE
8
BLACK
6
CONTINUOUS
10
37.5449
20
-63.2259
11
37.6175
21
-63.5162
0
LINE
8
BLACK
6
CONTINUOUS
10
37.6175
20
-63.5162
11
37.6175
21
-63.8791
0
LINE
8
BLACK
6
CONTINUOUS
10
37.6175
20
-63.8791
11
37.5449
21
-64.1693
0
LINE
8
BLACK
6
CONTINUOUS
10
37.5449
20
-64.1693
11
37.4723
21
-64.3145
0
LINE
8
BLACK
6
CONTINUOUS
10
37.4723
20
-64.3145
11
37.3998
21
-64.3871
0
LINE
8
BLACK
6
CONTINUOUS
10
37.3998
20
-64.3871
11
37.2546
21
-64.4596
0
LINE
8
BLACK
6
CONTINUOUS
10
37.2546
20
-64.4596
11
37.1095
21
-64.4596
0
LINE
8
BLACK
6
CONTINUOUS
10
37.1095
20
-64.4596
11
36.9643
21
-64.3871
0
LINE
8
BLACK
6
CONTINUOUS
10
36.9643
20
-64.3871
11
36.8918
21
-64.3145
0
LINE
8
BLACK
6
CONTINUOUS
10
36.8918
20
-64.3145
11
36.8192
21
-64.1693
0
LINE
8
BLACK
6
CONTINUOUS
10
36.8192
20
-64.1693
11
36.7466
21
-63.8791
0
LINE
8
BLACK
6
CONTINUOUS
10
36.7466
20
-63.8791
11
36.7466
21
-63.5162
0
LINE
8
BLACK
6
CONTINUOUS
10
36.7466
20
-63.5162
11
36.8192
21
-63.2259
0
LINE
8
BLACK
6
CONTINUOUS
10
36.8192
20
-63.2259
11
36.8918
21
-63.0808
0
LINE
8
BLACK
6
CONTINUOUS
10
36.8918
20
-63.0808
11
36.9643
21
-63.0082
0
LINE
8
BLACK
6
CONTINUOUS
10
36.9643
20
-63.0082
11
37.1095
21
-62.9356
0
LINE
8
BLACK
6
CONTINUOUS
10
38.9238
20
-63.4436
11
38.9238
21
-64.4596
0
LINE
8
BLACK
6
CONTINUOUS
10
38.2706
20
-63.4436
11
38.2706
21
-64.2419
0
LINE
8
BLACK
6
CONTINUOUS
10
38.2706
20
-64.2419
11
38.3432
21
-64.3871
0
LINE
8
BLACK
6
CONTINUOUS
10
38.3432
20
-64.3871
11
38.4883
21
-64.4596
0
LINE
8
BLACK
6
CONTINUOUS
10
38.4883
20
-64.4596
11
38.7061
21
-64.4596
0
LINE
8
BLACK
6
CONTINUOUS
10
38.7061
20
-64.4596
11
38.8512
21
-64.3871
0
LINE
8
BLACK
6
CONTINUOUS
10
38.8512
20
-64.3871
11
38.9238
21
-64.3145
0
LINE
8
BLACK
6
CONTINUOUS
10
32.8789
20
-84.1284
11
32.0081
21
-84.1284
0
LINE
8
BLACK
6
CONTINUOUS
10
32.4435
20
-84.1284
11
32.4435
21
-82.6044
0
LINE
8
BLACK
6
CONTINUOUS
10
32.4435
20
-82.6044
11
32.2983
21
-82.8221
0
LINE
8
BLACK
6
CONTINUOUS
10
32.2983
20
-82.8221
11
32.1532
21
-82.9673
0
LINE
8
BLACK
6
CONTINUOUS
10
32.1532
20
-82.9673
11
32.0081
21
-83.0399
0
LINE
8
BLACK
6
CONTINUOUS
10
33.5321
20
-83.9833
11
33.6046
21
-84.0559
0
LINE
8
BLACK
6
CONTINUOUS
10
33.6046
20
-84.0559
11
33.5321
21
-84.1284
0
LINE
8
BLACK
6
CONTINUOUS
10
33.5321
20
-84.1284
11
33.4595
21
-84.0559
0
LINE
8
BLACK
6
CONTINUOUS
10
33.4595
20
-84.0559
11
33.5321
21
-83.9833
0
LINE
8
BLACK
6
CONTINUOUS
10
33.5321
20
-83.9833
11
33.5321
21
-84.1284
0
LINE
8
BLACK
6
CONTINUOUS
10
34.1126
20
-82.6044
11
35.1286
21
-82.6044
0
LINE
8
BLACK
6
CONTINUOUS
10
35.1286
20
-82.6044
11
34.4755
21
-84.1284
0
LINE
8
BLACK
6
CONTINUOUS
10
36.4349
20
-82.6044
11
35.7092
21
-82.6044
0
LINE
8
BLACK
6
CONTINUOUS
10
35.7092
20
-82.6044
11
35.6366
21
-83.3301
0
LINE
8
BLACK
6
CONTINUOUS
10
35.6366
20
-83.3301
11
35.7092
21
-83.2576
0
LINE
8
BLACK
6
CONTINUOUS
10
35.7092
20
-83.2576
11
35.8543
21
-83.185
0
LINE
8
BLACK
6
CONTINUOUS
10
35.8543
20
-83.185
11
36.2172
21
-83.185
0
LINE
8
BLACK
6
CONTINUOUS
10
36.2172
20
-83.185
11
36.3623
21
-83.2576
0
LINE
8
BLACK
6
CONTINUOUS
10
36.3623
20
-83.2576
11
36.4349
21
-83.3301
0
LINE
8
BLACK
6
CONTINUOUS
10
36.4349
20
-83.3301
11
36.5075
21
-83.4753
0
LINE
8
BLACK
6
CONTINUOUS
10
36.5075
20
-83.4753
11
36.5075
21
-83.8381
0
LINE
8
BLACK
6
CONTINUOUS
10
36.5075
20
-83.8381
11
36.4349
21
-83.9833
0
LINE
8
BLACK
6
CONTINUOUS
10
36.4349
20
-83.9833
11
36.3623
21
-84.0559
0
LINE
8
BLACK
6
CONTINUOUS
10
36.3623
20
-84.0559
11
36.2172
21
-84.1284
0
LINE
8
BLACK
6
CONTINUOUS
10
36.2172
20
-84.1284
11
35.8543
21
-84.1284
0
LINE
8
BLACK
6
CONTINUOUS
10
35.8543
20
-84.1284
11
35.7092
21
-84.0559
0
LINE
8
BLACK
6
CONTINUOUS
10
35.7092
20
-84.0559
11
35.6366
21
-83.9833
0
LINE
8
BLACK
6
CONTINUOUS
10
37.8138
20
-83.1124
11
37.8138
21
-84.1284
0
LINE
8
BLACK
6
CONTINUOUS
10
37.1606
20
-83.1124
11
37.1606
21
-83.9107
0
LINE
8
BLACK
6
CONTINUOUS
10
37.1606
20
-83.9107
11
37.2332
21
-84.0559
0
LINE
8
BLACK
6
CONTINUOUS
10
37.2332
20
-84.0559
11
37.3783
21
-84.1284
0
LINE
8
BLACK
6
CONTINUOUS
10
37.3783
20
-84.1284
11
37.5961
21
-84.1284
0
LINE
8
BLACK
6
CONTINUOUS
10
37.5961
20
-84.1284
11
37.7412
21
-84.0559
0
LINE
8
BLACK
6
CONTINUOUS
10
37.7412
20
-84.0559
11
37.8138
21
-83.9833
0
LINE
8
BLACK
6
CONTINUOUS
10
271.088
20
-122.914
11
270.218
21
-122.914
0
LINE
8
BLACK
6
CONTINUOUS
10
270.653
20
-122.914
11
270.653
21
-121.39
0
LINE
8
BLACK
6
CONTINUOUS
10
270.653
20
-121.39
11
270.508
21
-121.608
0
LINE
8
BLACK
6
CONTINUOUS
10
270.508
20
-121.608
11
270.363
21
-121.753
0
LINE
8
BLACK
6
CONTINUOUS
10
270.363
20
-121.753
11
270.218
21
-121.826
0
LINE
8
BLACK
6
CONTINUOUS
10
271.742
20
-122.769
11
271.814
21
-122.842
0
LINE
8
BLACK
6
CONTINUOUS
10
271.814
20
-122.842
11
271.742
21
-122.914
0
LINE
8
BLACK
6
CONTINUOUS
10
271.742
20
-122.914
11
271.669
21
-122.842
0
LINE
8
BLACK
6
CONTINUOUS
10
271.669
20
-122.842
11
271.742
21
-122.769
0
LINE
8
BLACK
6
CONTINUOUS
10
271.742
20
-122.769
11
271.742
21
-122.914
0
LINE
8
BLACK
6
CONTINUOUS
10
272.395
20
-121.535
11
272.467
21
-121.463
0
LINE
8
BLACK
6
CONTINUOUS
10
272.467
20
-121.463
11
272.612
21
-121.39
0
LINE
8
BLACK
6
CONTINUOUS
10
272.612
20
-121.39
11
272.975
21
-121.39
0
LINE
8
BLACK
6
CONTINUOUS
10
272.975
20
-121.39
11
273.12
21
-121.463
0
LINE
8
BLACK
6
CONTINUOUS
10
273.12
20
-121.463
11
273.193
21
-121.535
0
LINE
8
BLACK
6
CONTINUOUS
10
273.193
20
-121.535
11
273.266
21
-121.681
0
LINE
8
BLACK
6
CONTINUOUS
10
273.266
20
-121.681
11
273.266
21
-121.826
0
LINE
8
BLACK
6
CONTINUOUS
10
273.266
20
-121.826
11
273.193
21
-122.043
0
LINE
8
BLACK
6
CONTINUOUS
10
273.193
20
-122.043
11
272.322
21
-122.914
0
LINE
8
BLACK
6
CONTINUOUS
10
272.322
20
-122.914
11
273.266
21
-122.914
0
LINE
8
BLACK
6
CONTINUOUS
10
274.644
20
-121.39
11
273.919
21
-121.39
0
LINE
8
BLACK
6
CONTINUOUS
10
273.919
20
-121.39
11
273.846
21
-122.116
0
LINE
8
BLACK
6
CONTINUOUS
10
273.846
20
-122.116
11
273.919
21
-122.043
0
LINE
8
BLACK
6
CONTINUOUS
10
273.919
20
-122.043
11
274.064
21
-121.971
0
LINE
8
BLACK
6
CONTINUOUS
10
274.064
20
-121.971
11
274.427
21
-121.971
0
LINE
8
BLACK
6
CONTINUOUS
10
274.427
20
-121.971
11
274.572
21
-122.043
0
LINE
8
BLACK
6
CONTINUOUS
10
274.572
20
-122.043
11
274.644
21
-122.116
0
LINE
8
BLACK
6
CONTINUOUS
10
274.644
20
-122.116
11
274.717
21
-122.261
0
LINE
8
BLACK
6
CONTINUOUS
10
274.717
20
-122.261
11
274.717
21
-122.624
0
LINE
8
BLACK
6
CONTINUOUS
10
274.717
20
-122.624
11
274.644
21
-122.769
0
LINE
8
BLACK
6
CONTINUOUS
10
274.644
20
-122.769
11
274.572
21
-122.842
0
LINE
8
BLACK
6
CONTINUOUS
10
274.572
20
-122.842
11
274.427
21
-122.914
0
LINE
8
BLACK
6
CONTINUOUS
10
274.427
20
-122.914
11
274.064
21
-122.914
0
LINE
8
BLACK
6
CONTINUOUS
10
274.064
20
-122.914
11
273.919
21
-122.842
0
LINE
8
BLACK
6
CONTINUOUS
10
273.919
20
-122.842
11
273.846
21
-122.769
0
LINE
8
BLACK
6
CONTINUOUS
10
276.023
20
-121.898
11
276.023
21
-122.914
0
LINE
8
BLACK
6
CONTINUOUS
10
275.37
20
-121.898
11
275.37
21
-122.697
0
LINE
8
BLACK
6
CONTINUOUS
10
275.37
20
-122.697
11
275.443
21
-122.842
0
LINE
8
BLACK
6
CONTINUOUS
10
275.443
20
-122.842
11
275.588
21
-122.914
0
LINE
8
BLACK
6
CONTINUOUS
10
275.588
20
-122.914
11
275.806
21
-122.914
0
LINE
8
BLACK
6
CONTINUOUS
10
275.806
20
-122.914
11
275.951
21
-122.842
0
LINE
8
BLACK
6
CONTINUOUS
10
275.951
20
-122.842
11
276.023
21
-122.769
  0
ENDSEC
  0
EOF
