M48
; DRILL file {KiCad (5.1.10)-1} date 11/17/21 09:30:08
; FORMAT={-:-/ absolute / metric / decimal}
; #@! TF.CreationDate,2021-11-17T09:30:08-08:00
; #@! TF.GenerationSoftware,Kicad,Pcbnew,(5.1.10)-1
; #@! TF.FileFunction,Plated,1,2,PTH
FMAT,2
METRIC
T1C0.400
T2C0.650
%
G90
G05
T1
X35.498Y-47.186
X42.365Y-22.191
X44.028Y-87.705
X45.412Y-49.576
X46.158Y-48.198
X57.425Y-68.534
X58.449Y-68.919
X60.504Y-50.746
X60.642Y-58.757
X61.191Y-65.23
X63.535Y-48.555
X67.192Y-61.651
X69.389Y-78.167
X69.597Y-49.28
X71.222Y-47.27
X74.099Y-45.468
X75.938Y-24.788
X76.055Y-84.154
X76.114Y-23.586
X78.974Y-47.156
X79.021Y-12.489
X79.101Y-67.493
X79.357Y-84.15
X79.783Y-59.464
X80.896Y-50.159
X82.857Y-44.854
X83.976Y-50.61
X84.051Y-15.781
X85.755Y-79.551
X86.005Y-27.334
X86.416Y-50.61
X87.348Y-51.73
X87.549Y-34.058
X88.21Y-85.357
X89.233Y-23.284
X89.917Y-62.738
X90.34Y-46.711
X90.557Y-82.173
X91.479Y-54.424
X91.858Y-83.474
X93.279Y-79.881
X93.5Y-30.031
X94.0Y-49.686
X94.525Y-41.459
X94.852Y-58.766
X94.854Y-87.407
X95.313Y-47.957
X95.472Y-83.92
X97.346Y-45.742
X97.791Y-64.479
X98.865Y-78.414
X99.968Y-75.026
X100.242Y-99.912
X100.951Y-68.046
X101.331Y-27.818
X101.373Y-29.296
X101.952Y-69.611
X102.841Y-105.861
X104.734Y-71.296
X104.888Y-100.617
X105.043Y-61.99
X106.825Y-86.876
X107.09Y-84.37
X109.421Y-85.263
X109.729Y-67.303
X109.798Y-19.01
X111.525Y-89.535
X112.298Y-69.159
X112.519Y-47.59
X113.604Y-86.592
X113.688Y-23.215
X114.328Y-61.225
X114.71Y-85.34
X114.743Y-23.583
X115.11Y-51.329
X115.971Y-86.652
X116.646Y-87.404
X117.683Y-88.342
X117.787Y-77.127
X117.93Y-66.776
X117.958Y-47.156
X118.756Y-24.74
X121.522Y-83.196
X121.782Y-77.901
X122.103Y-79.648
X122.52Y-47.156
X122.882Y-100.778
X126.134Y-85.477
X127.716Y-79.441
X127.988Y-36.987
X128.052Y-47.39
X129.2Y-90.25
X129.939Y-83.92
X129.971Y-45.391
X131.193Y-27.494
X131.302Y-84.031
X132.948Y-44.104
X133.577Y-23.504
X134.367Y-46.018
X134.602Y-49.583
X134.697Y-82.643
X136.135Y-83.58
X139.456Y-49.929
X140.163Y-69.724
X140.54Y-36.098
X141.428Y-83.57
X141.648Y-49.979
X142.451Y-83.195
X142.843Y-61.808
X142.909Y-63.956
X143.004Y-119.93
X143.532Y-68.258
X143.793Y-83.58
X144.116Y-48.977
X144.627Y-68.478
X145.608Y-45.187
X145.634Y-68.497
X146.542Y-67.99
X147.139Y-48.276
X147.675Y-40.868
X148.994Y-83.587
X149.259Y-67.388
X150.256Y-64.132
X150.51Y-47.482
X151.113Y-60.234
X152.25Y-54.111
X153.045Y-15.838
X153.18Y-78.867
X153.807Y-84.005
X154.819Y-51.982
X155.469Y-83.892
X155.967Y-47.373
X156.226Y-46.177
X156.556Y-28.395
X156.759Y-42.158
X156.816Y-65.942
X157.438Y-84.038
X157.808Y-30.04
X157.915Y-42.603
X158.004Y-84.971
X158.082Y-40.702
X158.733Y-26.556
X159.866Y-78.956
X160.097Y-39.969
X160.513Y-48.293
X161.317Y-59.106
X162.774Y-45.931
X163.132Y-67.428
X163.508Y-86.596
X164.29Y-21.089
X165.545Y-32.709
X165.894Y-61.105
X166.085Y-31.806
X166.13Y-45.907
X166.54Y-83.929
X166.782Y-62.424
X166.985Y-48.111
X167.658Y-83.22
X167.875Y-31.806
X168.318Y-70.071
X168.428Y-54.148
X169.689Y-60.269
X170.532Y-48.709
X171.215Y-45.483
X171.743Y-84.136
X172.576Y-48.151
X173.697Y-52.236
X174.087Y-50.785
X174.34Y-66.149
X174.718Y-64.232
X175.395Y-118.955
X175.918Y-100.011
X176.534Y-21.089
X177.091Y-77.91
X177.465Y-35.404
X177.855Y-44.738
X178.752Y-64.232
X179.102Y-86.783
X180.743Y-61.982
X181.108Y-26.734
X182.23Y-32.287
X182.577Y-46.766
X183.331Y-35.404
X184.676Y-77.289
X185.141Y-82.419
X185.481Y-61.315
X185.977Y-90.172
X186.182Y-78.366
X186.808Y-31.063
X186.923Y-50.335
X188.006Y-48.629
X189.734Y-83.99
X191.806Y-83.99
X194.151Y-46.829
X194.72Y-56.027
X194.843Y-84.895
X194.983Y-100.166
X195.482Y-91.23
X197.41Y-116.75
X198.694Y-50.492
X198.751Y-100.989
X199.526Y-27.925
X199.648Y-18.207
X199.933Y-65.468
X200.076Y-24.851
X201.001Y-51.222
X201.1Y-21.373
X201.468Y-23.397
X202.337Y-16.462
X202.439Y-22.259
X202.799Y-83.997
X204.072Y-37.786
X204.845Y-83.852
X205.112Y-86.702
X206.657Y-11.387
X207.435Y-86.811
X207.453Y-39.102
X209.273Y-9.667
X209.95Y-76.995
X209.969Y-24.019
X210.463Y-85.621
X210.727Y-51.945
X211.141Y-57.603
X211.671Y-84.05
X212.401Y-88.828
X214.927Y-91.768
X215.155Y-47.295
X215.225Y-90.011
X215.414Y-85.357
X216.089Y-77.741
X217.879Y-100.99
X220.79Y-47.237
X220.87Y-106.251
X221.13Y-107.262
X222.137Y-87.505
X222.641Y-102.908
X222.792Y-103.928
X223.582Y-109.284
X223.695Y-46.423
X224.495Y-83.083
X224.557Y-71.498
X224.962Y-70.038
X225.396Y-39.838
X226.864Y-85.357
X227.106Y-55.327
X228.055Y-97.593
X228.496Y-44.133
X229.003Y-23.934
X229.114Y-84.957
X229.131Y-86.929
X229.766Y-56.395
X230.15Y-32.669
X230.972Y-60.605
X231.226Y-119.173
X232.191Y-86.708
X233.135Y-68.299
X233.181Y-100.131
X234.635Y-47.261
X234.831Y-41.81
X235.286Y-111.687
X235.318Y-102.092
X236.312Y-21.17
X236.863Y-70.049
X237.079Y-23.812
X237.212Y-47.183
X237.981Y-20.132
X238.141Y-45.18
X238.634Y-78.486
X238.776Y-30.006
X239.844Y-44.734
X239.949Y-46.219
X242.13Y-18.012
X242.362Y-47.156
X242.882Y-66.805
X243.072Y-32.808
X243.128Y-22.179
X243.288Y-48.136
X243.368Y-87.129
X243.572Y-113.707
X243.762Y-83.972
X244.168Y-107.926
X244.661Y-102.817
X244.962Y-83.808
X245.448Y-86.559
X245.565Y-111.714
X246.771Y-106.976
X246.824Y-60.025
X248.101Y-24.0
X248.764Y-60.061
X251.667Y-84.047
X252.554Y-86.282
X253.27Y-39.381
X253.286Y-47.408
X253.307Y-42.842
X253.841Y-45.515
X254.556Y-30.159
X254.69Y-109.009
X254.795Y-36.171
X254.842Y-67.53
X255.842Y-84.221
X256.093Y-41.096
X256.951Y-34.899
X256.994Y-39.736
X257.955Y-43.608
X258.709Y-47.258
X260.753Y-41.666
X261.402Y-80.168
X262.557Y-60.843
X262.657Y-83.134
X264.302Y-42.065
X264.468Y-47.468
X264.896Y-83.859
X265.374Y-45.863
X265.389Y-29.933
X265.736Y-64.947
X267.109Y-23.761
X269.52Y-55.953
X271.272Y-48.359
X271.698Y-63.596
X272.837Y-92.742
X275.144Y-63.377
X275.438Y-61.745
X275.776Y-64.728
X275.935Y-47.156
X278.366Y-92.234
X279.438Y-62.738
X279.973Y-43.735
X280.164Y-68.903
X280.419Y-72.105
X281.091Y-73.599
X281.178Y-29.057
X282.58Y-24.757
X286.123Y-24.822
X287.629Y-41.915
X288.283Y-99.836
X288.449Y-101.064
X289.873Y-78.859
X290.042Y-70.025
X290.704Y-106.956
X290.742Y-98.973
X291.691Y-24.695
X292.101Y-60.166
X292.781Y-29.865
X295.911Y-66.071
X296.918Y-88.035
X297.802Y-41.781
X300.43Y-61.638
X300.929Y-40.996
X301.547Y-45.238
X302.411Y-36.088
X302.707Y-42.037
X302.878Y-119.915
X303.694Y-45.891
X304.438Y-65.265
X304.822Y-29.175
X305.123Y-38.003
X305.856Y-93.627
X306.119Y-53.413
X306.863Y-93.584
X307.053Y-21.747
X308.655Y-59.997
X309.434Y-26.637
X309.469Y-104.456
X310.49Y-61.87
X310.608Y-34.244
X310.613Y-69.475
X310.717Y-105.948
X311.012Y-60.175
X311.371Y-20.161
X311.608Y-41.672
X312.859Y-102.496
X312.865Y-76.976
X313.036Y-25.087
X313.07Y-9.499
X313.386Y-39.207
X313.428Y-17.525
X313.582Y-59.188
X313.768Y-41.609
X313.801Y-79.022
X313.808Y-51.823
X313.821Y-55.143
X313.832Y-57.185
X313.858Y-23.331
X314.05Y-43.129
X314.111Y-26.537
X314.309Y-63.509
X314.408Y-27.878
X314.448Y-103.906
X314.534Y-25.051
X314.615Y-22.452
X314.759Y-43.835
X314.793Y-77.658
X314.813Y-78.717
X314.936Y-42.6
X315.061Y-67.935
X315.183Y-61.87
X315.247Y-103.181
X315.287Y-38.874
X315.318Y-51.242
X315.47Y-64.249
X315.472Y-17.743
X315.809Y-13.992
X315.88Y-12.895
X315.906Y-15.313
X315.908Y-43.735
X316.043Y-73.739
X316.384Y-51.117
X316.486Y-80.21
X316.498Y-55.583
X316.52Y-90.682
X316.571Y-61.696
X316.577Y-38.52
X316.604Y-42.997
X317.419Y-20.678
X317.787Y-30.615
X318.013Y-39.406
X318.025Y-37.918
X318.264Y-113.907
X318.615Y-25.107
X318.754Y-36.337
X319.113Y-101.737
X319.876Y-71.832
X320.602Y-22.017
X320.933Y-71.834
X321.254Y-69.168
X321.553Y-25.527
X321.7Y-15.025
X321.786Y-45.466
X321.795Y-99.813
X321.799Y-50.631
X321.823Y-70.053
X322.035Y-49.432
X322.181Y-11.427
X322.476Y-97.806
X322.54Y-80.789
X322.681Y-26.668
X323.438Y-43.217
X323.475Y-30.838
X323.491Y-20.58
X323.58Y-39.406
X323.907Y-29.807
X324.068Y-33.449
X324.096Y-21.434
X324.207Y-41.649
X324.467Y-31.925
X325.236Y-25.566
X325.422Y-8.262
X325.726Y-27.851
X326.897Y-32.651
X327.18Y-19.842
X327.628Y-29.477
X329.228Y-20.58
X329.789Y-31.436
X333.003Y-63.11
X333.039Y-24.534
X333.22Y-101.008
X333.771Y-17.995
X334.383Y-35.422
X335.068Y-24.301
X335.405Y-40.544
X335.6Y-103.035
X336.969Y-53.824
X337.055Y-59.514
X337.825Y-35.925
X338.352Y-39.891
X338.769Y-104.661
X338.989Y-111.539
X339.113Y-58.102
X339.278Y-35.921
X340.605Y-35.948
X342.673Y-23.059
X344.109Y-45.466
X344.395Y-25.235
X345.958Y-12.482
X348.34Y-100.013
X348.939Y-105.314
X349.248Y-50.177
X350.482Y-51.296
X350.955Y-98.714
X356.925Y-103.43
X357.128Y-111.163
X358.403Y-52.819
X360.383Y-104.646
X360.544Y-41.464
X362.621Y-104.191
X365.659Y-63.299
X366.952Y-103.434
X367.26Y-61.87
X367.346Y-34.338
X368.262Y-41.499
X369.842Y-103.307
X370.814Y-60.565
X371.046Y-62.902
X371.144Y-119.064
X374.663Y-107.057
X376.789Y-49.018
X376.791Y-72.839
T2
X313.817Y-114.046
X313.817Y-115.316
X313.817Y-116.586
X313.817Y-117.856
X313.817Y-119.126
X313.817Y-120.396
X313.817Y-121.666
X315.087Y-114.046
X315.087Y-115.316
X315.087Y-116.586
X315.087Y-117.856
X315.087Y-119.126
X315.087Y-120.396
X315.087Y-121.666
T0
M30
