%TF.GenerationSoftware,KiCad,Pcbnew,(5.1.10)-1*%
%TF.CreationDate,2021-11-11T14:39:24-08:00*%
%TF.ProjectId,chgray-keyboard,63686772-6179-42d6-9b65-79626f617264,Yeet2*%
%TF.SameCoordinates,Original*%
%TF.FileFunction,Paste,Top*%
%TF.FilePolarity,Positive*%
%FSLAX46Y46*%
G04 Gerber Fmt 4.6, Leading zero omitted, Abs format (unit mm)*
G04 Created by KiCad (PCBNEW (5.1.10)-1) date 2021-11-11 14:39:24*
%MOMM*%
%LPD*%
G01*
G04 APERTURE LIST*
%ADD10R,1.300000X5.500000*%
%ADD11R,1.300000X1.550000*%
%ADD12R,0.500000X2.500000*%
%ADD13R,2.000000X2.500000*%
%ADD14R,0.700000X0.700000*%
%ADD15R,0.900000X1.200000*%
G04 APERTURE END LIST*
D10*
%TO.C,Y1-16hz1*%
X319913000Y-44200000D03*
X319913000Y-53200000D03*
%TD*%
%TO.C,U1*%
G36*
G01*
X317052999Y-25936000D02*
X317603001Y-25936000D01*
G75*
G02*
X317853000Y-26185999I0J-249999D01*
G01*
X317853000Y-26736001D01*
G75*
G02*
X317603001Y-26986000I-249999J0D01*
G01*
X317052999Y-26986000D01*
G75*
G02*
X316803000Y-26736001I0J249999D01*
G01*
X316803000Y-26185999D01*
G75*
G02*
X317052999Y-25936000I249999J0D01*
G01*
G37*
G36*
G01*
X318352999Y-25936000D02*
X318903001Y-25936000D01*
G75*
G02*
X319153000Y-26185999I0J-249999D01*
G01*
X319153000Y-26736001D01*
G75*
G02*
X318903001Y-26986000I-249999J0D01*
G01*
X318352999Y-26986000D01*
G75*
G02*
X318103000Y-26736001I0J249999D01*
G01*
X318103000Y-26185999D01*
G75*
G02*
X318352999Y-25936000I249999J0D01*
G01*
G37*
G36*
G01*
X319652999Y-25936000D02*
X320203001Y-25936000D01*
G75*
G02*
X320453000Y-26185999I0J-249999D01*
G01*
X320453000Y-26736001D01*
G75*
G02*
X320203001Y-26986000I-249999J0D01*
G01*
X319652999Y-26986000D01*
G75*
G02*
X319403000Y-26736001I0J249999D01*
G01*
X319403000Y-26185999D01*
G75*
G02*
X319652999Y-25936000I249999J0D01*
G01*
G37*
G36*
G01*
X320952999Y-25936000D02*
X321503001Y-25936000D01*
G75*
G02*
X321753000Y-26185999I0J-249999D01*
G01*
X321753000Y-26736001D01*
G75*
G02*
X321503001Y-26986000I-249999J0D01*
G01*
X320952999Y-26986000D01*
G75*
G02*
X320703000Y-26736001I0J249999D01*
G01*
X320703000Y-26185999D01*
G75*
G02*
X320952999Y-25936000I249999J0D01*
G01*
G37*
G36*
G01*
X317052999Y-24636000D02*
X317603001Y-24636000D01*
G75*
G02*
X317853000Y-24885999I0J-249999D01*
G01*
X317853000Y-25436001D01*
G75*
G02*
X317603001Y-25686000I-249999J0D01*
G01*
X317052999Y-25686000D01*
G75*
G02*
X316803000Y-25436001I0J249999D01*
G01*
X316803000Y-24885999D01*
G75*
G02*
X317052999Y-24636000I249999J0D01*
G01*
G37*
G36*
G01*
X318352999Y-24636000D02*
X318903001Y-24636000D01*
G75*
G02*
X319153000Y-24885999I0J-249999D01*
G01*
X319153000Y-25436001D01*
G75*
G02*
X318903001Y-25686000I-249999J0D01*
G01*
X318352999Y-25686000D01*
G75*
G02*
X318103000Y-25436001I0J249999D01*
G01*
X318103000Y-24885999D01*
G75*
G02*
X318352999Y-24636000I249999J0D01*
G01*
G37*
G36*
G01*
X319652999Y-24636000D02*
X320203001Y-24636000D01*
G75*
G02*
X320453000Y-24885999I0J-249999D01*
G01*
X320453000Y-25436001D01*
G75*
G02*
X320203001Y-25686000I-249999J0D01*
G01*
X319652999Y-25686000D01*
G75*
G02*
X319403000Y-25436001I0J249999D01*
G01*
X319403000Y-24885999D01*
G75*
G02*
X319652999Y-24636000I249999J0D01*
G01*
G37*
G36*
G01*
X320952999Y-24636000D02*
X321503001Y-24636000D01*
G75*
G02*
X321753000Y-24885999I0J-249999D01*
G01*
X321753000Y-25436001D01*
G75*
G02*
X321503001Y-25686000I-249999J0D01*
G01*
X320952999Y-25686000D01*
G75*
G02*
X320703000Y-25436001I0J249999D01*
G01*
X320703000Y-24885999D01*
G75*
G02*
X320952999Y-24636000I249999J0D01*
G01*
G37*
G36*
G01*
X317052999Y-23336000D02*
X317603001Y-23336000D01*
G75*
G02*
X317853000Y-23585999I0J-249999D01*
G01*
X317853000Y-24136001D01*
G75*
G02*
X317603001Y-24386000I-249999J0D01*
G01*
X317052999Y-24386000D01*
G75*
G02*
X316803000Y-24136001I0J249999D01*
G01*
X316803000Y-23585999D01*
G75*
G02*
X317052999Y-23336000I249999J0D01*
G01*
G37*
G36*
G01*
X318352999Y-23336000D02*
X318903001Y-23336000D01*
G75*
G02*
X319153000Y-23585999I0J-249999D01*
G01*
X319153000Y-24136001D01*
G75*
G02*
X318903001Y-24386000I-249999J0D01*
G01*
X318352999Y-24386000D01*
G75*
G02*
X318103000Y-24136001I0J249999D01*
G01*
X318103000Y-23585999D01*
G75*
G02*
X318352999Y-23336000I249999J0D01*
G01*
G37*
G36*
G01*
X319652999Y-23336000D02*
X320203001Y-23336000D01*
G75*
G02*
X320453000Y-23585999I0J-249999D01*
G01*
X320453000Y-24136001D01*
G75*
G02*
X320203001Y-24386000I-249999J0D01*
G01*
X319652999Y-24386000D01*
G75*
G02*
X319403000Y-24136001I0J249999D01*
G01*
X319403000Y-23585999D01*
G75*
G02*
X319652999Y-23336000I249999J0D01*
G01*
G37*
G36*
G01*
X320952999Y-23336000D02*
X321503001Y-23336000D01*
G75*
G02*
X321753000Y-23585999I0J-249999D01*
G01*
X321753000Y-24136001D01*
G75*
G02*
X321503001Y-24386000I-249999J0D01*
G01*
X320952999Y-24386000D01*
G75*
G02*
X320703000Y-24136001I0J249999D01*
G01*
X320703000Y-23585999D01*
G75*
G02*
X320952999Y-23336000I249999J0D01*
G01*
G37*
G36*
G01*
X317052999Y-22036000D02*
X317603001Y-22036000D01*
G75*
G02*
X317853000Y-22285999I0J-249999D01*
G01*
X317853000Y-22836001D01*
G75*
G02*
X317603001Y-23086000I-249999J0D01*
G01*
X317052999Y-23086000D01*
G75*
G02*
X316803000Y-22836001I0J249999D01*
G01*
X316803000Y-22285999D01*
G75*
G02*
X317052999Y-22036000I249999J0D01*
G01*
G37*
G36*
G01*
X318352999Y-22036000D02*
X318903001Y-22036000D01*
G75*
G02*
X319153000Y-22285999I0J-249999D01*
G01*
X319153000Y-22836001D01*
G75*
G02*
X318903001Y-23086000I-249999J0D01*
G01*
X318352999Y-23086000D01*
G75*
G02*
X318103000Y-22836001I0J249999D01*
G01*
X318103000Y-22285999D01*
G75*
G02*
X318352999Y-22036000I249999J0D01*
G01*
G37*
G36*
G01*
X319652999Y-22036000D02*
X320203001Y-22036000D01*
G75*
G02*
X320453000Y-22285999I0J-249999D01*
G01*
X320453000Y-22836001D01*
G75*
G02*
X320203001Y-23086000I-249999J0D01*
G01*
X319652999Y-23086000D01*
G75*
G02*
X319403000Y-22836001I0J249999D01*
G01*
X319403000Y-22285999D01*
G75*
G02*
X319652999Y-22036000I249999J0D01*
G01*
G37*
G36*
G01*
X320952999Y-22036000D02*
X321503001Y-22036000D01*
G75*
G02*
X321753000Y-22285999I0J-249999D01*
G01*
X321753000Y-22836001D01*
G75*
G02*
X321503001Y-23086000I-249999J0D01*
G01*
X320952999Y-23086000D01*
G75*
G02*
X320703000Y-22836001I0J249999D01*
G01*
X320703000Y-22285999D01*
G75*
G02*
X320952999Y-22036000I249999J0D01*
G01*
G37*
G36*
G01*
X322140500Y-21886000D02*
X323090500Y-21886000D01*
G75*
G02*
X323153000Y-21948500I0J-62500D01*
G01*
X323153000Y-22073500D01*
G75*
G02*
X323090500Y-22136000I-62500J0D01*
G01*
X322140500Y-22136000D01*
G75*
G02*
X322078000Y-22073500I0J62500D01*
G01*
X322078000Y-21948500D01*
G75*
G02*
X322140500Y-21886000I62500J0D01*
G01*
G37*
G36*
G01*
X322140500Y-22386000D02*
X323090500Y-22386000D01*
G75*
G02*
X323153000Y-22448500I0J-62500D01*
G01*
X323153000Y-22573500D01*
G75*
G02*
X323090500Y-22636000I-62500J0D01*
G01*
X322140500Y-22636000D01*
G75*
G02*
X322078000Y-22573500I0J62500D01*
G01*
X322078000Y-22448500D01*
G75*
G02*
X322140500Y-22386000I62500J0D01*
G01*
G37*
G36*
G01*
X322140500Y-22886000D02*
X323090500Y-22886000D01*
G75*
G02*
X323153000Y-22948500I0J-62500D01*
G01*
X323153000Y-23073500D01*
G75*
G02*
X323090500Y-23136000I-62500J0D01*
G01*
X322140500Y-23136000D01*
G75*
G02*
X322078000Y-23073500I0J62500D01*
G01*
X322078000Y-22948500D01*
G75*
G02*
X322140500Y-22886000I62500J0D01*
G01*
G37*
G36*
G01*
X322140500Y-23386000D02*
X323090500Y-23386000D01*
G75*
G02*
X323153000Y-23448500I0J-62500D01*
G01*
X323153000Y-23573500D01*
G75*
G02*
X323090500Y-23636000I-62500J0D01*
G01*
X322140500Y-23636000D01*
G75*
G02*
X322078000Y-23573500I0J62500D01*
G01*
X322078000Y-23448500D01*
G75*
G02*
X322140500Y-23386000I62500J0D01*
G01*
G37*
G36*
G01*
X322140500Y-23886000D02*
X323090500Y-23886000D01*
G75*
G02*
X323153000Y-23948500I0J-62500D01*
G01*
X323153000Y-24073500D01*
G75*
G02*
X323090500Y-24136000I-62500J0D01*
G01*
X322140500Y-24136000D01*
G75*
G02*
X322078000Y-24073500I0J62500D01*
G01*
X322078000Y-23948500D01*
G75*
G02*
X322140500Y-23886000I62500J0D01*
G01*
G37*
G36*
G01*
X322140500Y-24386000D02*
X323090500Y-24386000D01*
G75*
G02*
X323153000Y-24448500I0J-62500D01*
G01*
X323153000Y-24573500D01*
G75*
G02*
X323090500Y-24636000I-62500J0D01*
G01*
X322140500Y-24636000D01*
G75*
G02*
X322078000Y-24573500I0J62500D01*
G01*
X322078000Y-24448500D01*
G75*
G02*
X322140500Y-24386000I62500J0D01*
G01*
G37*
G36*
G01*
X322140500Y-24886000D02*
X323090500Y-24886000D01*
G75*
G02*
X323153000Y-24948500I0J-62500D01*
G01*
X323153000Y-25073500D01*
G75*
G02*
X323090500Y-25136000I-62500J0D01*
G01*
X322140500Y-25136000D01*
G75*
G02*
X322078000Y-25073500I0J62500D01*
G01*
X322078000Y-24948500D01*
G75*
G02*
X322140500Y-24886000I62500J0D01*
G01*
G37*
G36*
G01*
X322140500Y-25386000D02*
X323090500Y-25386000D01*
G75*
G02*
X323153000Y-25448500I0J-62500D01*
G01*
X323153000Y-25573500D01*
G75*
G02*
X323090500Y-25636000I-62500J0D01*
G01*
X322140500Y-25636000D01*
G75*
G02*
X322078000Y-25573500I0J62500D01*
G01*
X322078000Y-25448500D01*
G75*
G02*
X322140500Y-25386000I62500J0D01*
G01*
G37*
G36*
G01*
X322140500Y-25886000D02*
X323090500Y-25886000D01*
G75*
G02*
X323153000Y-25948500I0J-62500D01*
G01*
X323153000Y-26073500D01*
G75*
G02*
X323090500Y-26136000I-62500J0D01*
G01*
X322140500Y-26136000D01*
G75*
G02*
X322078000Y-26073500I0J62500D01*
G01*
X322078000Y-25948500D01*
G75*
G02*
X322140500Y-25886000I62500J0D01*
G01*
G37*
G36*
G01*
X322140500Y-26386000D02*
X323090500Y-26386000D01*
G75*
G02*
X323153000Y-26448500I0J-62500D01*
G01*
X323153000Y-26573500D01*
G75*
G02*
X323090500Y-26636000I-62500J0D01*
G01*
X322140500Y-26636000D01*
G75*
G02*
X322078000Y-26573500I0J62500D01*
G01*
X322078000Y-26448500D01*
G75*
G02*
X322140500Y-26386000I62500J0D01*
G01*
G37*
G36*
G01*
X322140500Y-26886000D02*
X323090500Y-26886000D01*
G75*
G02*
X323153000Y-26948500I0J-62500D01*
G01*
X323153000Y-27073500D01*
G75*
G02*
X323090500Y-27136000I-62500J0D01*
G01*
X322140500Y-27136000D01*
G75*
G02*
X322078000Y-27073500I0J62500D01*
G01*
X322078000Y-26948500D01*
G75*
G02*
X322140500Y-26886000I62500J0D01*
G01*
G37*
G36*
G01*
X321715500Y-27311000D02*
X321840500Y-27311000D01*
G75*
G02*
X321903000Y-27373500I0J-62500D01*
G01*
X321903000Y-28323500D01*
G75*
G02*
X321840500Y-28386000I-62500J0D01*
G01*
X321715500Y-28386000D01*
G75*
G02*
X321653000Y-28323500I0J62500D01*
G01*
X321653000Y-27373500D01*
G75*
G02*
X321715500Y-27311000I62500J0D01*
G01*
G37*
G36*
G01*
X321215500Y-27311000D02*
X321340500Y-27311000D01*
G75*
G02*
X321403000Y-27373500I0J-62500D01*
G01*
X321403000Y-28323500D01*
G75*
G02*
X321340500Y-28386000I-62500J0D01*
G01*
X321215500Y-28386000D01*
G75*
G02*
X321153000Y-28323500I0J62500D01*
G01*
X321153000Y-27373500D01*
G75*
G02*
X321215500Y-27311000I62500J0D01*
G01*
G37*
G36*
G01*
X320715500Y-27311000D02*
X320840500Y-27311000D01*
G75*
G02*
X320903000Y-27373500I0J-62500D01*
G01*
X320903000Y-28323500D01*
G75*
G02*
X320840500Y-28386000I-62500J0D01*
G01*
X320715500Y-28386000D01*
G75*
G02*
X320653000Y-28323500I0J62500D01*
G01*
X320653000Y-27373500D01*
G75*
G02*
X320715500Y-27311000I62500J0D01*
G01*
G37*
G36*
G01*
X320215500Y-27311000D02*
X320340500Y-27311000D01*
G75*
G02*
X320403000Y-27373500I0J-62500D01*
G01*
X320403000Y-28323500D01*
G75*
G02*
X320340500Y-28386000I-62500J0D01*
G01*
X320215500Y-28386000D01*
G75*
G02*
X320153000Y-28323500I0J62500D01*
G01*
X320153000Y-27373500D01*
G75*
G02*
X320215500Y-27311000I62500J0D01*
G01*
G37*
G36*
G01*
X319715500Y-27311000D02*
X319840500Y-27311000D01*
G75*
G02*
X319903000Y-27373500I0J-62500D01*
G01*
X319903000Y-28323500D01*
G75*
G02*
X319840500Y-28386000I-62500J0D01*
G01*
X319715500Y-28386000D01*
G75*
G02*
X319653000Y-28323500I0J62500D01*
G01*
X319653000Y-27373500D01*
G75*
G02*
X319715500Y-27311000I62500J0D01*
G01*
G37*
G36*
G01*
X319215500Y-27311000D02*
X319340500Y-27311000D01*
G75*
G02*
X319403000Y-27373500I0J-62500D01*
G01*
X319403000Y-28323500D01*
G75*
G02*
X319340500Y-28386000I-62500J0D01*
G01*
X319215500Y-28386000D01*
G75*
G02*
X319153000Y-28323500I0J62500D01*
G01*
X319153000Y-27373500D01*
G75*
G02*
X319215500Y-27311000I62500J0D01*
G01*
G37*
G36*
G01*
X318715500Y-27311000D02*
X318840500Y-27311000D01*
G75*
G02*
X318903000Y-27373500I0J-62500D01*
G01*
X318903000Y-28323500D01*
G75*
G02*
X318840500Y-28386000I-62500J0D01*
G01*
X318715500Y-28386000D01*
G75*
G02*
X318653000Y-28323500I0J62500D01*
G01*
X318653000Y-27373500D01*
G75*
G02*
X318715500Y-27311000I62500J0D01*
G01*
G37*
G36*
G01*
X318215500Y-27311000D02*
X318340500Y-27311000D01*
G75*
G02*
X318403000Y-27373500I0J-62500D01*
G01*
X318403000Y-28323500D01*
G75*
G02*
X318340500Y-28386000I-62500J0D01*
G01*
X318215500Y-28386000D01*
G75*
G02*
X318153000Y-28323500I0J62500D01*
G01*
X318153000Y-27373500D01*
G75*
G02*
X318215500Y-27311000I62500J0D01*
G01*
G37*
G36*
G01*
X317715500Y-27311000D02*
X317840500Y-27311000D01*
G75*
G02*
X317903000Y-27373500I0J-62500D01*
G01*
X317903000Y-28323500D01*
G75*
G02*
X317840500Y-28386000I-62500J0D01*
G01*
X317715500Y-28386000D01*
G75*
G02*
X317653000Y-28323500I0J62500D01*
G01*
X317653000Y-27373500D01*
G75*
G02*
X317715500Y-27311000I62500J0D01*
G01*
G37*
G36*
G01*
X317215500Y-27311000D02*
X317340500Y-27311000D01*
G75*
G02*
X317403000Y-27373500I0J-62500D01*
G01*
X317403000Y-28323500D01*
G75*
G02*
X317340500Y-28386000I-62500J0D01*
G01*
X317215500Y-28386000D01*
G75*
G02*
X317153000Y-28323500I0J62500D01*
G01*
X317153000Y-27373500D01*
G75*
G02*
X317215500Y-27311000I62500J0D01*
G01*
G37*
G36*
G01*
X316715500Y-27311000D02*
X316840500Y-27311000D01*
G75*
G02*
X316903000Y-27373500I0J-62500D01*
G01*
X316903000Y-28323500D01*
G75*
G02*
X316840500Y-28386000I-62500J0D01*
G01*
X316715500Y-28386000D01*
G75*
G02*
X316653000Y-28323500I0J62500D01*
G01*
X316653000Y-27373500D01*
G75*
G02*
X316715500Y-27311000I62500J0D01*
G01*
G37*
G36*
G01*
X315465500Y-26886000D02*
X316415500Y-26886000D01*
G75*
G02*
X316478000Y-26948500I0J-62500D01*
G01*
X316478000Y-27073500D01*
G75*
G02*
X316415500Y-27136000I-62500J0D01*
G01*
X315465500Y-27136000D01*
G75*
G02*
X315403000Y-27073500I0J62500D01*
G01*
X315403000Y-26948500D01*
G75*
G02*
X315465500Y-26886000I62500J0D01*
G01*
G37*
G36*
G01*
X315465500Y-26386000D02*
X316415500Y-26386000D01*
G75*
G02*
X316478000Y-26448500I0J-62500D01*
G01*
X316478000Y-26573500D01*
G75*
G02*
X316415500Y-26636000I-62500J0D01*
G01*
X315465500Y-26636000D01*
G75*
G02*
X315403000Y-26573500I0J62500D01*
G01*
X315403000Y-26448500D01*
G75*
G02*
X315465500Y-26386000I62500J0D01*
G01*
G37*
G36*
G01*
X315465500Y-25886000D02*
X316415500Y-25886000D01*
G75*
G02*
X316478000Y-25948500I0J-62500D01*
G01*
X316478000Y-26073500D01*
G75*
G02*
X316415500Y-26136000I-62500J0D01*
G01*
X315465500Y-26136000D01*
G75*
G02*
X315403000Y-26073500I0J62500D01*
G01*
X315403000Y-25948500D01*
G75*
G02*
X315465500Y-25886000I62500J0D01*
G01*
G37*
G36*
G01*
X315465500Y-25386000D02*
X316415500Y-25386000D01*
G75*
G02*
X316478000Y-25448500I0J-62500D01*
G01*
X316478000Y-25573500D01*
G75*
G02*
X316415500Y-25636000I-62500J0D01*
G01*
X315465500Y-25636000D01*
G75*
G02*
X315403000Y-25573500I0J62500D01*
G01*
X315403000Y-25448500D01*
G75*
G02*
X315465500Y-25386000I62500J0D01*
G01*
G37*
G36*
G01*
X315465500Y-24886000D02*
X316415500Y-24886000D01*
G75*
G02*
X316478000Y-24948500I0J-62500D01*
G01*
X316478000Y-25073500D01*
G75*
G02*
X316415500Y-25136000I-62500J0D01*
G01*
X315465500Y-25136000D01*
G75*
G02*
X315403000Y-25073500I0J62500D01*
G01*
X315403000Y-24948500D01*
G75*
G02*
X315465500Y-24886000I62500J0D01*
G01*
G37*
G36*
G01*
X315465500Y-24386000D02*
X316415500Y-24386000D01*
G75*
G02*
X316478000Y-24448500I0J-62500D01*
G01*
X316478000Y-24573500D01*
G75*
G02*
X316415500Y-24636000I-62500J0D01*
G01*
X315465500Y-24636000D01*
G75*
G02*
X315403000Y-24573500I0J62500D01*
G01*
X315403000Y-24448500D01*
G75*
G02*
X315465500Y-24386000I62500J0D01*
G01*
G37*
G36*
G01*
X315465500Y-23886000D02*
X316415500Y-23886000D01*
G75*
G02*
X316478000Y-23948500I0J-62500D01*
G01*
X316478000Y-24073500D01*
G75*
G02*
X316415500Y-24136000I-62500J0D01*
G01*
X315465500Y-24136000D01*
G75*
G02*
X315403000Y-24073500I0J62500D01*
G01*
X315403000Y-23948500D01*
G75*
G02*
X315465500Y-23886000I62500J0D01*
G01*
G37*
G36*
G01*
X315465500Y-23386000D02*
X316415500Y-23386000D01*
G75*
G02*
X316478000Y-23448500I0J-62500D01*
G01*
X316478000Y-23573500D01*
G75*
G02*
X316415500Y-23636000I-62500J0D01*
G01*
X315465500Y-23636000D01*
G75*
G02*
X315403000Y-23573500I0J62500D01*
G01*
X315403000Y-23448500D01*
G75*
G02*
X315465500Y-23386000I62500J0D01*
G01*
G37*
G36*
G01*
X315465500Y-22886000D02*
X316415500Y-22886000D01*
G75*
G02*
X316478000Y-22948500I0J-62500D01*
G01*
X316478000Y-23073500D01*
G75*
G02*
X316415500Y-23136000I-62500J0D01*
G01*
X315465500Y-23136000D01*
G75*
G02*
X315403000Y-23073500I0J62500D01*
G01*
X315403000Y-22948500D01*
G75*
G02*
X315465500Y-22886000I62500J0D01*
G01*
G37*
G36*
G01*
X315465500Y-22386000D02*
X316415500Y-22386000D01*
G75*
G02*
X316478000Y-22448500I0J-62500D01*
G01*
X316478000Y-22573500D01*
G75*
G02*
X316415500Y-22636000I-62500J0D01*
G01*
X315465500Y-22636000D01*
G75*
G02*
X315403000Y-22573500I0J62500D01*
G01*
X315403000Y-22448500D01*
G75*
G02*
X315465500Y-22386000I62500J0D01*
G01*
G37*
G36*
G01*
X315465500Y-21886000D02*
X316415500Y-21886000D01*
G75*
G02*
X316478000Y-21948500I0J-62500D01*
G01*
X316478000Y-22073500D01*
G75*
G02*
X316415500Y-22136000I-62500J0D01*
G01*
X315465500Y-22136000D01*
G75*
G02*
X315403000Y-22073500I0J62500D01*
G01*
X315403000Y-21948500D01*
G75*
G02*
X315465500Y-21886000I62500J0D01*
G01*
G37*
G36*
G01*
X316715500Y-20636000D02*
X316840500Y-20636000D01*
G75*
G02*
X316903000Y-20698500I0J-62500D01*
G01*
X316903000Y-21648500D01*
G75*
G02*
X316840500Y-21711000I-62500J0D01*
G01*
X316715500Y-21711000D01*
G75*
G02*
X316653000Y-21648500I0J62500D01*
G01*
X316653000Y-20698500D01*
G75*
G02*
X316715500Y-20636000I62500J0D01*
G01*
G37*
G36*
G01*
X317215500Y-20636000D02*
X317340500Y-20636000D01*
G75*
G02*
X317403000Y-20698500I0J-62500D01*
G01*
X317403000Y-21648500D01*
G75*
G02*
X317340500Y-21711000I-62500J0D01*
G01*
X317215500Y-21711000D01*
G75*
G02*
X317153000Y-21648500I0J62500D01*
G01*
X317153000Y-20698500D01*
G75*
G02*
X317215500Y-20636000I62500J0D01*
G01*
G37*
G36*
G01*
X317715500Y-20636000D02*
X317840500Y-20636000D01*
G75*
G02*
X317903000Y-20698500I0J-62500D01*
G01*
X317903000Y-21648500D01*
G75*
G02*
X317840500Y-21711000I-62500J0D01*
G01*
X317715500Y-21711000D01*
G75*
G02*
X317653000Y-21648500I0J62500D01*
G01*
X317653000Y-20698500D01*
G75*
G02*
X317715500Y-20636000I62500J0D01*
G01*
G37*
G36*
G01*
X318215500Y-20636000D02*
X318340500Y-20636000D01*
G75*
G02*
X318403000Y-20698500I0J-62500D01*
G01*
X318403000Y-21648500D01*
G75*
G02*
X318340500Y-21711000I-62500J0D01*
G01*
X318215500Y-21711000D01*
G75*
G02*
X318153000Y-21648500I0J62500D01*
G01*
X318153000Y-20698500D01*
G75*
G02*
X318215500Y-20636000I62500J0D01*
G01*
G37*
G36*
G01*
X318715500Y-20636000D02*
X318840500Y-20636000D01*
G75*
G02*
X318903000Y-20698500I0J-62500D01*
G01*
X318903000Y-21648500D01*
G75*
G02*
X318840500Y-21711000I-62500J0D01*
G01*
X318715500Y-21711000D01*
G75*
G02*
X318653000Y-21648500I0J62500D01*
G01*
X318653000Y-20698500D01*
G75*
G02*
X318715500Y-20636000I62500J0D01*
G01*
G37*
G36*
G01*
X319215500Y-20636000D02*
X319340500Y-20636000D01*
G75*
G02*
X319403000Y-20698500I0J-62500D01*
G01*
X319403000Y-21648500D01*
G75*
G02*
X319340500Y-21711000I-62500J0D01*
G01*
X319215500Y-21711000D01*
G75*
G02*
X319153000Y-21648500I0J62500D01*
G01*
X319153000Y-20698500D01*
G75*
G02*
X319215500Y-20636000I62500J0D01*
G01*
G37*
G36*
G01*
X319715500Y-20636000D02*
X319840500Y-20636000D01*
G75*
G02*
X319903000Y-20698500I0J-62500D01*
G01*
X319903000Y-21648500D01*
G75*
G02*
X319840500Y-21711000I-62500J0D01*
G01*
X319715500Y-21711000D01*
G75*
G02*
X319653000Y-21648500I0J62500D01*
G01*
X319653000Y-20698500D01*
G75*
G02*
X319715500Y-20636000I62500J0D01*
G01*
G37*
G36*
G01*
X320215500Y-20636000D02*
X320340500Y-20636000D01*
G75*
G02*
X320403000Y-20698500I0J-62500D01*
G01*
X320403000Y-21648500D01*
G75*
G02*
X320340500Y-21711000I-62500J0D01*
G01*
X320215500Y-21711000D01*
G75*
G02*
X320153000Y-21648500I0J62500D01*
G01*
X320153000Y-20698500D01*
G75*
G02*
X320215500Y-20636000I62500J0D01*
G01*
G37*
G36*
G01*
X320715500Y-20636000D02*
X320840500Y-20636000D01*
G75*
G02*
X320903000Y-20698500I0J-62500D01*
G01*
X320903000Y-21648500D01*
G75*
G02*
X320840500Y-21711000I-62500J0D01*
G01*
X320715500Y-21711000D01*
G75*
G02*
X320653000Y-21648500I0J62500D01*
G01*
X320653000Y-20698500D01*
G75*
G02*
X320715500Y-20636000I62500J0D01*
G01*
G37*
G36*
G01*
X321215500Y-20636000D02*
X321340500Y-20636000D01*
G75*
G02*
X321403000Y-20698500I0J-62500D01*
G01*
X321403000Y-21648500D01*
G75*
G02*
X321340500Y-21711000I-62500J0D01*
G01*
X321215500Y-21711000D01*
G75*
G02*
X321153000Y-21648500I0J62500D01*
G01*
X321153000Y-20698500D01*
G75*
G02*
X321215500Y-20636000I62500J0D01*
G01*
G37*
G36*
G01*
X321715500Y-20636000D02*
X321840500Y-20636000D01*
G75*
G02*
X321903000Y-20698500I0J-62500D01*
G01*
X321903000Y-21648500D01*
G75*
G02*
X321840500Y-21711000I-62500J0D01*
G01*
X321715500Y-21711000D01*
G75*
G02*
X321653000Y-21648500I0J62500D01*
G01*
X321653000Y-20698500D01*
G75*
G02*
X321715500Y-20636000I62500J0D01*
G01*
G37*
%TD*%
D11*
%TO.C,SW_RESET1*%
X315976000Y-99187000D03*
X315946000Y-91297000D03*
%TD*%
%TO.C,R4*%
G36*
G01*
X317617001Y-71047500D02*
X316366999Y-71047500D01*
G75*
G02*
X316117000Y-70797501I0J249999D01*
G01*
X316117000Y-70172499D01*
G75*
G02*
X316366999Y-69922500I249999J0D01*
G01*
X317617001Y-69922500D01*
G75*
G02*
X317867000Y-70172499I0J-249999D01*
G01*
X317867000Y-70797501D01*
G75*
G02*
X317617001Y-71047500I-249999J0D01*
G01*
G37*
G36*
G01*
X317617001Y-73972500D02*
X316366999Y-73972500D01*
G75*
G02*
X316117000Y-73722501I0J249999D01*
G01*
X316117000Y-73097499D01*
G75*
G02*
X316366999Y-72847500I249999J0D01*
G01*
X317617001Y-72847500D01*
G75*
G02*
X317867000Y-73097499I0J-249999D01*
G01*
X317867000Y-73722501D01*
G75*
G02*
X317617001Y-73972500I-249999J0D01*
G01*
G37*
%TD*%
%TO.C,R3*%
G36*
G01*
X316299001Y-36430000D02*
X315398999Y-36430000D01*
G75*
G02*
X315149000Y-36180001I0J249999D01*
G01*
X315149000Y-35654999D01*
G75*
G02*
X315398999Y-35405000I249999J0D01*
G01*
X316299001Y-35405000D01*
G75*
G02*
X316549000Y-35654999I0J-249999D01*
G01*
X316549000Y-36180001D01*
G75*
G02*
X316299001Y-36430000I-249999J0D01*
G01*
G37*
G36*
G01*
X316299001Y-38255000D02*
X315398999Y-38255000D01*
G75*
G02*
X315149000Y-38005001I0J249999D01*
G01*
X315149000Y-37479999D01*
G75*
G02*
X315398999Y-37230000I249999J0D01*
G01*
X316299001Y-37230000D01*
G75*
G02*
X316549000Y-37479999I0J-249999D01*
G01*
X316549000Y-38005001D01*
G75*
G02*
X316299001Y-38255000I-249999J0D01*
G01*
G37*
%TD*%
%TO.C,R2*%
G36*
G01*
X318839001Y-38866500D02*
X317938999Y-38866500D01*
G75*
G02*
X317689000Y-38616501I0J249999D01*
G01*
X317689000Y-38091499D01*
G75*
G02*
X317938999Y-37841500I249999J0D01*
G01*
X318839001Y-37841500D01*
G75*
G02*
X319089000Y-38091499I0J-249999D01*
G01*
X319089000Y-38616501D01*
G75*
G02*
X318839001Y-38866500I-249999J0D01*
G01*
G37*
G36*
G01*
X318839001Y-40691500D02*
X317938999Y-40691500D01*
G75*
G02*
X317689000Y-40441501I0J249999D01*
G01*
X317689000Y-39916499D01*
G75*
G02*
X317938999Y-39666500I249999J0D01*
G01*
X318839001Y-39666500D01*
G75*
G02*
X319089000Y-39916499I0J-249999D01*
G01*
X319089000Y-40441501D01*
G75*
G02*
X318839001Y-40691500I-249999J0D01*
G01*
G37*
%TD*%
%TO.C,R1*%
G36*
G01*
X316366999Y-67448000D02*
X317617001Y-67448000D01*
G75*
G02*
X317867000Y-67697999I0J-249999D01*
G01*
X317867000Y-68323001D01*
G75*
G02*
X317617001Y-68573000I-249999J0D01*
G01*
X316366999Y-68573000D01*
G75*
G02*
X316117000Y-68323001I0J249999D01*
G01*
X316117000Y-67697999D01*
G75*
G02*
X316366999Y-67448000I249999J0D01*
G01*
G37*
G36*
G01*
X316366999Y-64523000D02*
X317617001Y-64523000D01*
G75*
G02*
X317867000Y-64772999I0J-249999D01*
G01*
X317867000Y-65398001D01*
G75*
G02*
X317617001Y-65648000I-249999J0D01*
G01*
X316366999Y-65648000D01*
G75*
G02*
X316117000Y-65398001I0J249999D01*
G01*
X316117000Y-64772999D01*
G75*
G02*
X316366999Y-64523000I249999J0D01*
G01*
G37*
%TD*%
D12*
%TO.C,J2*%
X318313000Y-10220000D03*
X319113000Y-10220000D03*
X319913000Y-10220000D03*
X320713000Y-10220000D03*
X321513000Y-10220000D03*
D13*
X315513000Y-10220000D03*
X324313000Y-10220000D03*
X315513000Y-4720000D03*
X324313000Y-4720000D03*
%TD*%
%TO.C,C109*%
G36*
G01*
X322486000Y-15883000D02*
X323436000Y-15883000D01*
G75*
G02*
X323686000Y-16133000I0J-250000D01*
G01*
X323686000Y-16633000D01*
G75*
G02*
X323436000Y-16883000I-250000J0D01*
G01*
X322486000Y-16883000D01*
G75*
G02*
X322236000Y-16633000I0J250000D01*
G01*
X322236000Y-16133000D01*
G75*
G02*
X322486000Y-15883000I250000J0D01*
G01*
G37*
G36*
G01*
X322486000Y-13983000D02*
X323436000Y-13983000D01*
G75*
G02*
X323686000Y-14233000I0J-250000D01*
G01*
X323686000Y-14733000D01*
G75*
G02*
X323436000Y-14983000I-250000J0D01*
G01*
X322486000Y-14983000D01*
G75*
G02*
X322236000Y-14733000I0J250000D01*
G01*
X322236000Y-14233000D01*
G75*
G02*
X322486000Y-13983000I250000J0D01*
G01*
G37*
%TD*%
%TO.C,C108*%
G36*
G01*
X315374000Y-43056000D02*
X316324000Y-43056000D01*
G75*
G02*
X316574000Y-43306000I0J-250000D01*
G01*
X316574000Y-43806000D01*
G75*
G02*
X316324000Y-44056000I-250000J0D01*
G01*
X315374000Y-44056000D01*
G75*
G02*
X315124000Y-43806000I0J250000D01*
G01*
X315124000Y-43306000D01*
G75*
G02*
X315374000Y-43056000I250000J0D01*
G01*
G37*
G36*
G01*
X315374000Y-41156000D02*
X316324000Y-41156000D01*
G75*
G02*
X316574000Y-41406000I0J-250000D01*
G01*
X316574000Y-41906000D01*
G75*
G02*
X316324000Y-42156000I-250000J0D01*
G01*
X315374000Y-42156000D01*
G75*
G02*
X315124000Y-41906000I0J250000D01*
G01*
X315124000Y-41406000D01*
G75*
G02*
X315374000Y-41156000I250000J0D01*
G01*
G37*
%TD*%
%TO.C,C107*%
G36*
G01*
X316324000Y-47109000D02*
X315374000Y-47109000D01*
G75*
G02*
X315124000Y-46859000I0J250000D01*
G01*
X315124000Y-46359000D01*
G75*
G02*
X315374000Y-46109000I250000J0D01*
G01*
X316324000Y-46109000D01*
G75*
G02*
X316574000Y-46359000I0J-250000D01*
G01*
X316574000Y-46859000D01*
G75*
G02*
X316324000Y-47109000I-250000J0D01*
G01*
G37*
G36*
G01*
X316324000Y-49009000D02*
X315374000Y-49009000D01*
G75*
G02*
X315124000Y-48759000I0J250000D01*
G01*
X315124000Y-48259000D01*
G75*
G02*
X315374000Y-48009000I250000J0D01*
G01*
X316324000Y-48009000D01*
G75*
G02*
X316574000Y-48259000I0J-250000D01*
G01*
X316574000Y-48759000D01*
G75*
G02*
X316324000Y-49009000I-250000J0D01*
G01*
G37*
%TD*%
%TO.C,C106*%
G36*
G01*
X315501000Y-33219700D02*
X316451000Y-33219700D01*
G75*
G02*
X316701000Y-33469700I0J-250000D01*
G01*
X316701000Y-33969700D01*
G75*
G02*
X316451000Y-34219700I-250000J0D01*
G01*
X315501000Y-34219700D01*
G75*
G02*
X315251000Y-33969700I0J250000D01*
G01*
X315251000Y-33469700D01*
G75*
G02*
X315501000Y-33219700I250000J0D01*
G01*
G37*
G36*
G01*
X315501000Y-31319700D02*
X316451000Y-31319700D01*
G75*
G02*
X316701000Y-31569700I0J-250000D01*
G01*
X316701000Y-32069700D01*
G75*
G02*
X316451000Y-32319700I-250000J0D01*
G01*
X315501000Y-32319700D01*
G75*
G02*
X315251000Y-32069700I0J250000D01*
G01*
X315251000Y-31569700D01*
G75*
G02*
X315501000Y-31319700I250000J0D01*
G01*
G37*
%TD*%
%TO.C,C105*%
G36*
G01*
X322105000Y-33219700D02*
X323055000Y-33219700D01*
G75*
G02*
X323305000Y-33469700I0J-250000D01*
G01*
X323305000Y-33969700D01*
G75*
G02*
X323055000Y-34219700I-250000J0D01*
G01*
X322105000Y-34219700D01*
G75*
G02*
X321855000Y-33969700I0J250000D01*
G01*
X321855000Y-33469700D01*
G75*
G02*
X322105000Y-33219700I250000J0D01*
G01*
G37*
G36*
G01*
X322105000Y-31319700D02*
X323055000Y-31319700D01*
G75*
G02*
X323305000Y-31569700I0J-250000D01*
G01*
X323305000Y-32069700D01*
G75*
G02*
X323055000Y-32319700I-250000J0D01*
G01*
X322105000Y-32319700D01*
G75*
G02*
X321855000Y-32069700I0J250000D01*
G01*
X321855000Y-31569700D01*
G75*
G02*
X322105000Y-31319700I250000J0D01*
G01*
G37*
%TD*%
%TO.C,C104*%
G36*
G01*
X316578000Y-14983000D02*
X315628000Y-14983000D01*
G75*
G02*
X315378000Y-14733000I0J250000D01*
G01*
X315378000Y-14233000D01*
G75*
G02*
X315628000Y-13983000I250000J0D01*
G01*
X316578000Y-13983000D01*
G75*
G02*
X316828000Y-14233000I0J-250000D01*
G01*
X316828000Y-14733000D01*
G75*
G02*
X316578000Y-14983000I-250000J0D01*
G01*
G37*
G36*
G01*
X316578000Y-16883000D02*
X315628000Y-16883000D01*
G75*
G02*
X315378000Y-16633000I0J250000D01*
G01*
X315378000Y-16133000D01*
G75*
G02*
X315628000Y-15883000I250000J0D01*
G01*
X316578000Y-15883000D01*
G75*
G02*
X316828000Y-16133000I0J-250000D01*
G01*
X316828000Y-16633000D01*
G75*
G02*
X316578000Y-16883000I-250000J0D01*
G01*
G37*
%TD*%
%TO.C,C103*%
G36*
G01*
X318803000Y-33219700D02*
X319753000Y-33219700D01*
G75*
G02*
X320003000Y-33469700I0J-250000D01*
G01*
X320003000Y-33969700D01*
G75*
G02*
X319753000Y-34219700I-250000J0D01*
G01*
X318803000Y-34219700D01*
G75*
G02*
X318553000Y-33969700I0J250000D01*
G01*
X318553000Y-33469700D01*
G75*
G02*
X318803000Y-33219700I250000J0D01*
G01*
G37*
G36*
G01*
X318803000Y-31319700D02*
X319753000Y-31319700D01*
G75*
G02*
X320003000Y-31569700I0J-250000D01*
G01*
X320003000Y-32069700D01*
G75*
G02*
X319753000Y-32319700I-250000J0D01*
G01*
X318803000Y-32319700D01*
G75*
G02*
X318553000Y-32069700I0J250000D01*
G01*
X318553000Y-31569700D01*
G75*
G02*
X318803000Y-31319700I250000J0D01*
G01*
G37*
%TD*%
%TO.C,C102*%
G36*
G01*
X325620000Y-27592000D02*
X325620000Y-28542000D01*
G75*
G02*
X325370000Y-28792000I-250000J0D01*
G01*
X324870000Y-28792000D01*
G75*
G02*
X324620000Y-28542000I0J250000D01*
G01*
X324620000Y-27592000D01*
G75*
G02*
X324870000Y-27342000I250000J0D01*
G01*
X325370000Y-27342000D01*
G75*
G02*
X325620000Y-27592000I0J-250000D01*
G01*
G37*
G36*
G01*
X327520000Y-27592000D02*
X327520000Y-28542000D01*
G75*
G02*
X327270000Y-28792000I-250000J0D01*
G01*
X326770000Y-28792000D01*
G75*
G02*
X326520000Y-28542000I0J250000D01*
G01*
X326520000Y-27592000D01*
G75*
G02*
X326770000Y-27342000I250000J0D01*
G01*
X327270000Y-27342000D01*
G75*
G02*
X327520000Y-27592000I0J-250000D01*
G01*
G37*
%TD*%
D14*
%TO.C,D179*%
X163018000Y-119033000D03*
X163018000Y-120133000D03*
X161188000Y-120133000D03*
X161188000Y-119033000D03*
%TD*%
%TO.C,C85*%
G36*
G01*
X319360000Y-88836400D02*
X319360000Y-89176400D01*
G75*
G02*
X319220000Y-89316400I-140000J0D01*
G01*
X318940000Y-89316400D01*
G75*
G02*
X318800000Y-89176400I0J140000D01*
G01*
X318800000Y-88836400D01*
G75*
G02*
X318940000Y-88696400I140000J0D01*
G01*
X319220000Y-88696400D01*
G75*
G02*
X319360000Y-88836400I0J-140000D01*
G01*
G37*
G36*
G01*
X320320000Y-88836400D02*
X320320000Y-89176400D01*
G75*
G02*
X320180000Y-89316400I-140000J0D01*
G01*
X319900000Y-89316400D01*
G75*
G02*
X319760000Y-89176400I0J140000D01*
G01*
X319760000Y-88836400D01*
G75*
G02*
X319900000Y-88696400I140000J0D01*
G01*
X320180000Y-88696400D01*
G75*
G02*
X320320000Y-88836400I0J-140000D01*
G01*
G37*
%TD*%
%TO.C,D174*%
X180188000Y-118669000D03*
X180188000Y-119769000D03*
X178358000Y-119769000D03*
X178358000Y-118669000D03*
%TD*%
%TO.C,D169*%
X141631000Y-118830000D03*
X141631000Y-119930000D03*
X139801000Y-119930000D03*
X139801000Y-118830000D03*
%TD*%
%TO.C,D164*%
X197460000Y-118474000D03*
X197460000Y-119574000D03*
X195630000Y-119574000D03*
X195630000Y-118474000D03*
%TD*%
%TO.C,D159*%
X121057000Y-118830000D03*
X121057000Y-119930000D03*
X119227000Y-119930000D03*
X119227000Y-118830000D03*
%TD*%
%TO.C,C80*%
G36*
G01*
X319360000Y-100033000D02*
X319360000Y-100373000D01*
G75*
G02*
X319220000Y-100513000I-140000J0D01*
G01*
X318940000Y-100513000D01*
G75*
G02*
X318800000Y-100373000I0J140000D01*
G01*
X318800000Y-100033000D01*
G75*
G02*
X318940000Y-99893000I140000J0D01*
G01*
X319220000Y-99893000D01*
G75*
G02*
X319360000Y-100033000I0J-140000D01*
G01*
G37*
G36*
G01*
X320320000Y-100033000D02*
X320320000Y-100373000D01*
G75*
G02*
X320180000Y-100513000I-140000J0D01*
G01*
X319900000Y-100513000D01*
G75*
G02*
X319760000Y-100373000I0J140000D01*
G01*
X319760000Y-100033000D01*
G75*
G02*
X319900000Y-99893000I140000J0D01*
G01*
X320180000Y-99893000D01*
G75*
G02*
X320320000Y-100033000I0J-140000D01*
G01*
G37*
%TD*%
%TO.C,C75*%
G36*
G01*
X319360000Y-95554300D02*
X319360000Y-95894300D01*
G75*
G02*
X319220000Y-96034300I-140000J0D01*
G01*
X318940000Y-96034300D01*
G75*
G02*
X318800000Y-95894300I0J140000D01*
G01*
X318800000Y-95554300D01*
G75*
G02*
X318940000Y-95414300I140000J0D01*
G01*
X319220000Y-95414300D01*
G75*
G02*
X319360000Y-95554300I0J-140000D01*
G01*
G37*
G36*
G01*
X320320000Y-95554300D02*
X320320000Y-95894300D01*
G75*
G02*
X320180000Y-96034300I-140000J0D01*
G01*
X319900000Y-96034300D01*
G75*
G02*
X319760000Y-95894300I0J140000D01*
G01*
X319760000Y-95554300D01*
G75*
G02*
X319900000Y-95414300I140000J0D01*
G01*
X320180000Y-95414300D01*
G75*
G02*
X320320000Y-95554300I0J-140000D01*
G01*
G37*
%TD*%
%TO.C,C70*%
G36*
G01*
X319360000Y-92195400D02*
X319360000Y-92535400D01*
G75*
G02*
X319220000Y-92675400I-140000J0D01*
G01*
X318940000Y-92675400D01*
G75*
G02*
X318800000Y-92535400I0J140000D01*
G01*
X318800000Y-92195400D01*
G75*
G02*
X318940000Y-92055400I140000J0D01*
G01*
X319220000Y-92055400D01*
G75*
G02*
X319360000Y-92195400I0J-140000D01*
G01*
G37*
G36*
G01*
X320320000Y-92195400D02*
X320320000Y-92535400D01*
G75*
G02*
X320180000Y-92675400I-140000J0D01*
G01*
X319900000Y-92675400D01*
G75*
G02*
X319760000Y-92535400I0J140000D01*
G01*
X319760000Y-92195400D01*
G75*
G02*
X319900000Y-92055400I140000J0D01*
G01*
X320180000Y-92055400D01*
G75*
G02*
X320320000Y-92195400I0J-140000D01*
G01*
G37*
%TD*%
%TO.C,C65*%
G36*
G01*
X319360000Y-93315000D02*
X319360000Y-93655000D01*
G75*
G02*
X319220000Y-93795000I-140000J0D01*
G01*
X318940000Y-93795000D01*
G75*
G02*
X318800000Y-93655000I0J140000D01*
G01*
X318800000Y-93315000D01*
G75*
G02*
X318940000Y-93175000I140000J0D01*
G01*
X319220000Y-93175000D01*
G75*
G02*
X319360000Y-93315000I0J-140000D01*
G01*
G37*
G36*
G01*
X320320000Y-93315000D02*
X320320000Y-93655000D01*
G75*
G02*
X320180000Y-93795000I-140000J0D01*
G01*
X319900000Y-93795000D01*
G75*
G02*
X319760000Y-93655000I0J140000D01*
G01*
X319760000Y-93315000D01*
G75*
G02*
X319900000Y-93175000I140000J0D01*
G01*
X320180000Y-93175000D01*
G75*
G02*
X320320000Y-93315000I0J-140000D01*
G01*
G37*
%TD*%
%TO.C,D154*%
X370079000Y-23732400D03*
X370079000Y-24832400D03*
X368249000Y-24832400D03*
X368249000Y-23732400D03*
%TD*%
%TO.C,C60*%
G36*
G01*
X319360000Y-94434700D02*
X319360000Y-94774700D01*
G75*
G02*
X319220000Y-94914700I-140000J0D01*
G01*
X318940000Y-94914700D01*
G75*
G02*
X318800000Y-94774700I0J140000D01*
G01*
X318800000Y-94434700D01*
G75*
G02*
X318940000Y-94294700I140000J0D01*
G01*
X319220000Y-94294700D01*
G75*
G02*
X319360000Y-94434700I0J-140000D01*
G01*
G37*
G36*
G01*
X320320000Y-94434700D02*
X320320000Y-94774700D01*
G75*
G02*
X320180000Y-94914700I-140000J0D01*
G01*
X319900000Y-94914700D01*
G75*
G02*
X319760000Y-94774700I0J140000D01*
G01*
X319760000Y-94434700D01*
G75*
G02*
X319900000Y-94294700I140000J0D01*
G01*
X320180000Y-94294700D01*
G75*
G02*
X320320000Y-94434700I0J-140000D01*
G01*
G37*
%TD*%
%TO.C,D149*%
X351182000Y-23690400D03*
X351182000Y-24790400D03*
X349352000Y-24790400D03*
X349352000Y-23690400D03*
%TD*%
%TO.C,D144*%
X269902000Y-23690400D03*
X269902000Y-24790400D03*
X268072000Y-24790400D03*
X268072000Y-23690400D03*
%TD*%
%TO.C,D139*%
X332081000Y-23690400D03*
X332081000Y-24790400D03*
X330251000Y-24790400D03*
X330251000Y-23690400D03*
%TD*%
%TO.C,D134*%
X288952000Y-23690400D03*
X288952000Y-24790400D03*
X287122000Y-24790400D03*
X287122000Y-23690400D03*
%TD*%
%TO.C,D129*%
X212752000Y-23741200D03*
X212752000Y-24841200D03*
X210922000Y-24841200D03*
X210922000Y-23741200D03*
%TD*%
%TO.C,D124*%
X308154000Y-23639600D03*
X308154000Y-24739600D03*
X306324000Y-24739600D03*
X306324000Y-23639600D03*
%TD*%
%TO.C,D119*%
X231802000Y-23639600D03*
X231802000Y-24739600D03*
X229972000Y-24739600D03*
X229972000Y-23639600D03*
%TD*%
%TO.C,D114*%
X250902000Y-23672800D03*
X250902000Y-24772800D03*
X249072000Y-24772800D03*
X249072000Y-23672800D03*
%TD*%
%TO.C,C55*%
G36*
G01*
X319360000Y-97793700D02*
X319360000Y-98133700D01*
G75*
G02*
X319220000Y-98273700I-140000J0D01*
G01*
X318940000Y-98273700D01*
G75*
G02*
X318800000Y-98133700I0J140000D01*
G01*
X318800000Y-97793700D01*
G75*
G02*
X318940000Y-97653700I140000J0D01*
G01*
X319220000Y-97653700D01*
G75*
G02*
X319360000Y-97793700I0J-140000D01*
G01*
G37*
G36*
G01*
X320320000Y-97793700D02*
X320320000Y-98133700D01*
G75*
G02*
X320180000Y-98273700I-140000J0D01*
G01*
X319900000Y-98273700D01*
G75*
G02*
X319760000Y-98133700I0J140000D01*
G01*
X319760000Y-97793700D01*
G75*
G02*
X319900000Y-97653700I140000J0D01*
G01*
X320180000Y-97653700D01*
G75*
G02*
X320320000Y-97793700I0J-140000D01*
G01*
G37*
%TD*%
%TO.C,C50*%
G36*
G01*
X319360000Y-87716700D02*
X319360000Y-88056700D01*
G75*
G02*
X319220000Y-88196700I-140000J0D01*
G01*
X318940000Y-88196700D01*
G75*
G02*
X318800000Y-88056700I0J140000D01*
G01*
X318800000Y-87716700D01*
G75*
G02*
X318940000Y-87576700I140000J0D01*
G01*
X319220000Y-87576700D01*
G75*
G02*
X319360000Y-87716700I0J-140000D01*
G01*
G37*
G36*
G01*
X320320000Y-87716700D02*
X320320000Y-88056700D01*
G75*
G02*
X320180000Y-88196700I-140000J0D01*
G01*
X319900000Y-88196700D01*
G75*
G02*
X319760000Y-88056700I0J140000D01*
G01*
X319760000Y-87716700D01*
G75*
G02*
X319900000Y-87576700I140000J0D01*
G01*
X320180000Y-87576700D01*
G75*
G02*
X320320000Y-87716700I0J-140000D01*
G01*
G37*
%TD*%
%TO.C,C45*%
G36*
G01*
X319360000Y-89956100D02*
X319360000Y-90296100D01*
G75*
G02*
X319220000Y-90436100I-140000J0D01*
G01*
X318940000Y-90436100D01*
G75*
G02*
X318800000Y-90296100I0J140000D01*
G01*
X318800000Y-89956100D01*
G75*
G02*
X318940000Y-89816100I140000J0D01*
G01*
X319220000Y-89816100D01*
G75*
G02*
X319360000Y-89956100I0J-140000D01*
G01*
G37*
G36*
G01*
X320320000Y-89956100D02*
X320320000Y-90296100D01*
G75*
G02*
X320180000Y-90436100I-140000J0D01*
G01*
X319900000Y-90436100D01*
G75*
G02*
X319760000Y-90296100I0J140000D01*
G01*
X319760000Y-89956100D01*
G75*
G02*
X319900000Y-89816100I140000J0D01*
G01*
X320180000Y-89816100D01*
G75*
G02*
X320320000Y-89956100I0J-140000D01*
G01*
G37*
%TD*%
%TO.C,C40*%
G36*
G01*
X319360000Y-96674000D02*
X319360000Y-97014000D01*
G75*
G02*
X319220000Y-97154000I-140000J0D01*
G01*
X318940000Y-97154000D01*
G75*
G02*
X318800000Y-97014000I0J140000D01*
G01*
X318800000Y-96674000D01*
G75*
G02*
X318940000Y-96534000I140000J0D01*
G01*
X319220000Y-96534000D01*
G75*
G02*
X319360000Y-96674000I0J-140000D01*
G01*
G37*
G36*
G01*
X320320000Y-96674000D02*
X320320000Y-97014000D01*
G75*
G02*
X320180000Y-97154000I-140000J0D01*
G01*
X319900000Y-97154000D01*
G75*
G02*
X319760000Y-97014000I0J140000D01*
G01*
X319760000Y-96674000D01*
G75*
G02*
X319900000Y-96534000I140000J0D01*
G01*
X320180000Y-96534000D01*
G75*
G02*
X320320000Y-96674000I0J-140000D01*
G01*
G37*
%TD*%
%TO.C,C35*%
G36*
G01*
X319360000Y-85477400D02*
X319360000Y-85817400D01*
G75*
G02*
X319220000Y-85957400I-140000J0D01*
G01*
X318940000Y-85957400D01*
G75*
G02*
X318800000Y-85817400I0J140000D01*
G01*
X318800000Y-85477400D01*
G75*
G02*
X318940000Y-85337400I140000J0D01*
G01*
X319220000Y-85337400D01*
G75*
G02*
X319360000Y-85477400I0J-140000D01*
G01*
G37*
G36*
G01*
X320320000Y-85477400D02*
X320320000Y-85817400D01*
G75*
G02*
X320180000Y-85957400I-140000J0D01*
G01*
X319900000Y-85957400D01*
G75*
G02*
X319760000Y-85817400I0J140000D01*
G01*
X319760000Y-85477400D01*
G75*
G02*
X319900000Y-85337400I140000J0D01*
G01*
X320180000Y-85337400D01*
G75*
G02*
X320320000Y-85477400I0J-140000D01*
G01*
G37*
%TD*%
%TO.C,C30*%
G36*
G01*
X319360000Y-86597100D02*
X319360000Y-86937100D01*
G75*
G02*
X319220000Y-87077100I-140000J0D01*
G01*
X318940000Y-87077100D01*
G75*
G02*
X318800000Y-86937100I0J140000D01*
G01*
X318800000Y-86597100D01*
G75*
G02*
X318940000Y-86457100I140000J0D01*
G01*
X319220000Y-86457100D01*
G75*
G02*
X319360000Y-86597100I0J-140000D01*
G01*
G37*
G36*
G01*
X320320000Y-86597100D02*
X320320000Y-86937100D01*
G75*
G02*
X320180000Y-87077100I-140000J0D01*
G01*
X319900000Y-87077100D01*
G75*
G02*
X319760000Y-86937100I0J140000D01*
G01*
X319760000Y-86597100D01*
G75*
G02*
X319900000Y-86457100I140000J0D01*
G01*
X320180000Y-86457100D01*
G75*
G02*
X320320000Y-86597100I0J-140000D01*
G01*
G37*
%TD*%
%TO.C,C25*%
G36*
G01*
X319360000Y-98913300D02*
X319360000Y-99253300D01*
G75*
G02*
X319220000Y-99393300I-140000J0D01*
G01*
X318940000Y-99393300D01*
G75*
G02*
X318800000Y-99253300I0J140000D01*
G01*
X318800000Y-98913300D01*
G75*
G02*
X318940000Y-98773300I140000J0D01*
G01*
X319220000Y-98773300D01*
G75*
G02*
X319360000Y-98913300I0J-140000D01*
G01*
G37*
G36*
G01*
X320320000Y-98913300D02*
X320320000Y-99253300D01*
G75*
G02*
X320180000Y-99393300I-140000J0D01*
G01*
X319900000Y-99393300D01*
G75*
G02*
X319760000Y-99253300I0J140000D01*
G01*
X319760000Y-98913300D01*
G75*
G02*
X319900000Y-98773300I140000J0D01*
G01*
X320180000Y-98773300D01*
G75*
G02*
X320320000Y-98913300I0J-140000D01*
G01*
G37*
%TD*%
%TO.C,C20*%
G36*
G01*
X319360000Y-91075700D02*
X319360000Y-91415700D01*
G75*
G02*
X319220000Y-91555700I-140000J0D01*
G01*
X318940000Y-91555700D01*
G75*
G02*
X318800000Y-91415700I0J140000D01*
G01*
X318800000Y-91075700D01*
G75*
G02*
X318940000Y-90935700I140000J0D01*
G01*
X319220000Y-90935700D01*
G75*
G02*
X319360000Y-91075700I0J-140000D01*
G01*
G37*
G36*
G01*
X320320000Y-91075700D02*
X320320000Y-91415700D01*
G75*
G02*
X320180000Y-91555700I-140000J0D01*
G01*
X319900000Y-91555700D01*
G75*
G02*
X319760000Y-91415700I0J140000D01*
G01*
X319760000Y-91075700D01*
G75*
G02*
X319900000Y-90935700I140000J0D01*
G01*
X320180000Y-90935700D01*
G75*
G02*
X320320000Y-91075700I0J-140000D01*
G01*
G37*
%TD*%
D15*
%TO.C,D70*%
X189985000Y-47155600D03*
X186685000Y-47155600D03*
%TD*%
%TO.C,D94*%
X119172000Y-47155600D03*
X115872000Y-47155600D03*
%TD*%
%TO.C,D93*%
X266244000Y-47155600D03*
X262944000Y-47155600D03*
%TD*%
%TO.C,D92*%
X255350000Y-47155600D03*
X252050000Y-47155600D03*
%TD*%
%TO.C,D91*%
X244456000Y-47155600D03*
X241156000Y-47155600D03*
%TD*%
%TO.C,D90*%
X228114000Y-47155600D03*
X224814000Y-47155600D03*
%TD*%
%TO.C,D89*%
X217220000Y-47155600D03*
X213920000Y-47155600D03*
%TD*%
%TO.C,D88*%
X200879000Y-47155600D03*
X197579000Y-47155600D03*
%TD*%
%TO.C,D87*%
X124619000Y-47155600D03*
X121319000Y-47155600D03*
%TD*%
%TO.C,D86*%
X168196000Y-47155600D03*
X164896000Y-47155600D03*
%TD*%
%TO.C,D85*%
X97383600Y-47155600D03*
X94083600Y-47155600D03*
%TD*%
%TO.C,D84*%
X130066000Y-47155600D03*
X126766000Y-47155600D03*
%TD*%
%TO.C,D83*%
X108278000Y-47155600D03*
X104978000Y-47155600D03*
%TD*%
%TO.C,D82*%
X140961000Y-47155600D03*
X137661000Y-47155600D03*
%TD*%
%TO.C,D81*%
X277138000Y-47155600D03*
X273838000Y-47155600D03*
%TD*%
%TO.C,D80*%
X180410000Y-85357200D03*
X177110000Y-85357200D03*
%TD*%
%TO.C,D79*%
X233561000Y-47155600D03*
X230261000Y-47155600D03*
%TD*%
%TO.C,D78*%
X151855000Y-47155600D03*
X148555000Y-47155600D03*
%TD*%
%TO.C,D77*%
X138006000Y-85357200D03*
X134706000Y-85357200D03*
%TD*%
%TO.C,D76*%
X260797000Y-47155600D03*
X257497000Y-47155600D03*
%TD*%
%TO.C,D75*%
X85000400Y-85357200D03*
X81700400Y-85357200D03*
%TD*%
%TO.C,D74*%
X206326000Y-47155600D03*
X203026000Y-47155600D03*
%TD*%
%TO.C,D73*%
X159208000Y-85357200D03*
X155908000Y-85357200D03*
%TD*%
%TO.C,D72*%
X249903000Y-47155600D03*
X246603000Y-47155600D03*
%TD*%
%TO.C,D71*%
X233415000Y-85357200D03*
X230115000Y-85357200D03*
%TD*%
%TO.C,D69*%
X239009000Y-47155600D03*
X235709000Y-47155600D03*
%TD*%
%TO.C,D68*%
X222667000Y-47155600D03*
X219367000Y-47155600D03*
%TD*%
%TO.C,D67*%
X74399400Y-85357200D03*
X71099400Y-85357200D03*
%TD*%
%TO.C,D66*%
X366922000Y-104661000D03*
X363622000Y-104661000D03*
%TD*%
%TO.C,D65*%
X148607000Y-85357200D03*
X145307000Y-85357200D03*
%TD*%
%TO.C,D64*%
X175109000Y-85357200D03*
X171809000Y-85357200D03*
%TD*%
%TO.C,D63*%
X206912000Y-85357200D03*
X203612000Y-85357200D03*
%TD*%
%TO.C,D62*%
X127405000Y-85357200D03*
X124105000Y-85357200D03*
%TD*%
%TO.C,D60*%
X345720000Y-104661000D03*
X342420000Y-104661000D03*
%TD*%
%TO.C,D59*%
X222814000Y-85357200D03*
X219514000Y-85357200D03*
%TD*%
%TO.C,D58*%
X356321000Y-104661000D03*
X353021000Y-104661000D03*
%TD*%
%TO.C,D57*%
X70148100Y-47155600D03*
X66848100Y-47155600D03*
%TD*%
%TO.C,D55*%
X201612000Y-85357200D03*
X198312000Y-85357200D03*
%TD*%
%TO.C,D54*%
X212213000Y-85357200D03*
X208913000Y-85357200D03*
%TD*%
%TO.C,D53*%
X265218000Y-85357200D03*
X261918000Y-85357200D03*
%TD*%
%TO.C,D52*%
X48165900Y-47206400D03*
X44865900Y-47206400D03*
%TD*%
%TO.C,D51*%
X335119000Y-104661000D03*
X331819000Y-104661000D03*
%TD*%
%TO.C,D50*%
X265834000Y-66243200D03*
X262534000Y-66243200D03*
%TD*%
%TO.C,D49*%
X90300900Y-85357200D03*
X87000900Y-85357200D03*
%TD*%
%TO.C,D48*%
X95601500Y-85357200D03*
X92301500Y-85357200D03*
%TD*%
%TO.C,D46*%
X86489400Y-47155600D03*
X83189400Y-47155600D03*
%TD*%
%TO.C,D45*%
X169809000Y-85357200D03*
X166509000Y-85357200D03*
%TD*%
%TO.C,D44*%
X106202000Y-85357200D03*
X102902000Y-85357200D03*
%TD*%
%TO.C,D43*%
X132705000Y-85357200D03*
X129405000Y-85357200D03*
%TD*%
%TO.C,D41*%
X270518000Y-85357200D03*
X267218000Y-85357200D03*
%TD*%
%TO.C,D40*%
X116804000Y-85357200D03*
X113504000Y-85357200D03*
%TD*%
%TO.C,D39*%
X75595200Y-47155600D03*
X72295200Y-47155600D03*
%TD*%
%TO.C,D38*%
X329818000Y-104661000D03*
X326518000Y-104661000D03*
%TD*%
%TO.C,D37*%
X340419000Y-104661000D03*
X337119000Y-104661000D03*
%TD*%
%TO.C,D36*%
X153907000Y-85357200D03*
X150607000Y-85357200D03*
%TD*%
%TO.C,D35*%
X254617000Y-85357200D03*
X251317000Y-85357200D03*
%TD*%
%TO.C,D34*%
X53806700Y-47155600D03*
X50506700Y-47155600D03*
%TD*%
%TO.C,D32*%
X351020000Y-104661000D03*
X347720000Y-104661000D03*
%TD*%
%TO.C,D31*%
X259917000Y-85357200D03*
X256617000Y-85357200D03*
%TD*%
%TO.C,D30*%
X191011000Y-85357200D03*
X187711000Y-85357200D03*
%TD*%
%TO.C,D29*%
X372222000Y-104661000D03*
X368922000Y-104661000D03*
%TD*%
%TO.C,D27*%
X228114000Y-85357200D03*
X224814000Y-85357200D03*
%TD*%
%TO.C,D26*%
X81042300Y-47155600D03*
X77742300Y-47155600D03*
%TD*%
%TO.C,D25*%
X244016000Y-85357200D03*
X240716000Y-85357200D03*
%TD*%
%TO.C,D24*%
X238715000Y-85357200D03*
X235415000Y-85357200D03*
%TD*%
%TO.C,D23*%
X217513000Y-85357200D03*
X214213000Y-85357200D03*
%TD*%
%TO.C,D22*%
X164508000Y-85357200D03*
X161208000Y-85357200D03*
%TD*%
%TO.C,D21*%
X91936500Y-47155600D03*
X88636500Y-47155600D03*
%TD*%
%TO.C,D20*%
X361621000Y-104661000D03*
X358321000Y-104661000D03*
%TD*%
%TO.C,D18*%
X184537000Y-47155600D03*
X181237000Y-47155600D03*
%TD*%
%TO.C,D17*%
X143306000Y-85357200D03*
X140006000Y-85357200D03*
%TD*%
%TO.C,D16*%
X37564800Y-47206400D03*
X34264800Y-47206400D03*
%TD*%
%TO.C,D15*%
X185710000Y-85357200D03*
X182410000Y-85357200D03*
%TD*%
%TO.C,D13*%
X173643000Y-47155600D03*
X170343000Y-47155600D03*
%TD*%
%TO.C,D12*%
X122104000Y-85357200D03*
X118804000Y-85357200D03*
%TD*%
%TO.C,D11*%
X42865400Y-47206400D03*
X39565400Y-47206400D03*
%TD*%
%TO.C,D10*%
X196311000Y-85357200D03*
X193011000Y-85357200D03*
%TD*%
%TO.C,D9*%
X111503000Y-85357200D03*
X108203000Y-85357200D03*
%TD*%
%TO.C,D8*%
X249316000Y-85357200D03*
X246016000Y-85357200D03*
%TD*%
%TO.C,D7*%
X64701000Y-47155600D03*
X61401000Y-47155600D03*
%TD*%
%TO.C,D6*%
X79699900Y-85357200D03*
X76399900Y-85357200D03*
%TD*%
%TO.C,D4*%
X59253800Y-47155600D03*
X55953800Y-47155600D03*
%TD*%
%TO.C,D3*%
X100902000Y-85357200D03*
X97602000Y-85357200D03*
%TD*%
%TO.C,D2*%
X271691000Y-47155600D03*
X268391000Y-47155600D03*
%TD*%
%TO.C,D1*%
X271652000Y-66243200D03*
X268352000Y-66243200D03*
%TD*%
%TO.C,D61*%
X211773000Y-47155600D03*
X208473000Y-47155600D03*
%TD*%
%TO.C,D56*%
X195432000Y-47155600D03*
X192132000Y-47155600D03*
%TD*%
%TO.C,D47*%
X179090000Y-47155600D03*
X175790000Y-47155600D03*
%TD*%
%TO.C,D42*%
X162749000Y-47155600D03*
X159449000Y-47155600D03*
%TD*%
%TO.C,D33*%
X146408000Y-47155600D03*
X143108000Y-47155600D03*
%TD*%
%TO.C,D28*%
X102831000Y-47155600D03*
X99531000Y-47155600D03*
%TD*%
%TO.C,D19*%
X157302000Y-47155600D03*
X154002000Y-47155600D03*
%TD*%
%TO.C,D14*%
X135513000Y-47155600D03*
X132213000Y-47155600D03*
%TD*%
%TO.C,D5*%
X113725000Y-47155600D03*
X110425000Y-47155600D03*
%TD*%
D14*
%TO.C,D195*%
X332030000Y-61790400D03*
X332030000Y-62890400D03*
X330200000Y-62890400D03*
X330200000Y-61790400D03*
%TD*%
%TO.C,D193*%
X351131000Y-119042000D03*
X351131000Y-120142000D03*
X349301000Y-120142000D03*
X349301000Y-119042000D03*
%TD*%
%TO.C,D192*%
X197764000Y-99890000D03*
X197764000Y-100990000D03*
X195934000Y-100990000D03*
X195934000Y-99890000D03*
%TD*%
%TO.C,D191*%
X150737000Y-80857000D03*
X150737000Y-81957000D03*
X148907000Y-81957000D03*
X148907000Y-80857000D03*
%TD*%
%TO.C,D190*%
X351182000Y-61790400D03*
X351182000Y-62890400D03*
X349352000Y-62890400D03*
X349352000Y-61790400D03*
%TD*%
%TO.C,D188*%
X332081000Y-119144000D03*
X332081000Y-120244000D03*
X330251000Y-120244000D03*
X330251000Y-119144000D03*
%TD*%
%TO.C,D187*%
X216916000Y-99890000D03*
X216916000Y-100990000D03*
X215086000Y-100990000D03*
X215086000Y-99890000D03*
%TD*%
%TO.C,D186*%
X131915000Y-80857000D03*
X131915000Y-81957000D03*
X130085000Y-81957000D03*
X130085000Y-80857000D03*
%TD*%
%TO.C,D185*%
X370079000Y-61841200D03*
X370079000Y-62941200D03*
X368249000Y-62941200D03*
X368249000Y-61841200D03*
%TD*%
%TO.C,D183*%
X305664000Y-119042000D03*
X305664000Y-120142000D03*
X303834000Y-120142000D03*
X303834000Y-119042000D03*
%TD*%
%TO.C,D182*%
X235967000Y-99882000D03*
X235967000Y-100982000D03*
X234137000Y-100982000D03*
X234137000Y-99882000D03*
%TD*%
%TO.C,D181*%
X112841000Y-80832000D03*
X112841000Y-81932000D03*
X111011000Y-81932000D03*
X111011000Y-80832000D03*
%TD*%
%TO.C,D180*%
X60402400Y-23741200D03*
X60402400Y-24841200D03*
X58572400Y-24841200D03*
X58572400Y-23741200D03*
%TD*%
%TO.C,D178*%
X281840000Y-119042000D03*
X281840000Y-120142000D03*
X280010000Y-120142000D03*
X280010000Y-119042000D03*
%TD*%
%TO.C,D177*%
X255168000Y-99941000D03*
X255168000Y-101041000D03*
X253338000Y-101041000D03*
X253338000Y-99941000D03*
%TD*%
%TO.C,D176*%
X93815500Y-80857000D03*
X93815500Y-81957000D03*
X91985500Y-81957000D03*
X91985500Y-80857000D03*
%TD*%
%TO.C,D175*%
X41301000Y-23681600D03*
X41301000Y-24781600D03*
X39471000Y-24781600D03*
X39471000Y-23681600D03*
%TD*%
%TO.C,D173*%
X258014000Y-119093000D03*
X258014000Y-120193000D03*
X256184000Y-120193000D03*
X256184000Y-119093000D03*
%TD*%
%TO.C,D172*%
X291238000Y-100025000D03*
X291238000Y-101125000D03*
X289408000Y-101125000D03*
X289408000Y-100025000D03*
%TD*%
%TO.C,D171*%
X74765500Y-80857000D03*
X74765500Y-81957000D03*
X72935500Y-81957000D03*
X72935500Y-80857000D03*
%TD*%
%TO.C,D170*%
X370028000Y-42926000D03*
X370028000Y-44026000D03*
X368198000Y-44026000D03*
X368198000Y-42926000D03*
%TD*%
%TO.C,D168*%
X234036000Y-119093000D03*
X234036000Y-120193000D03*
X232206000Y-120193000D03*
X232206000Y-119093000D03*
%TD*%
%TO.C,D167*%
X333426000Y-99484000D03*
X333426000Y-100584000D03*
X331596000Y-100584000D03*
X331596000Y-99484000D03*
%TD*%
%TO.C,D166*%
X48564800Y-80857000D03*
X48564800Y-81957000D03*
X46734800Y-81957000D03*
X46734800Y-80857000D03*
%TD*%
%TO.C,D165*%
X351130000Y-42884000D03*
X351130000Y-43984000D03*
X349300000Y-43984000D03*
X349300000Y-42884000D03*
%TD*%
%TO.C,D163*%
X193752000Y-23681600D03*
X193752000Y-24781600D03*
X191922000Y-24781600D03*
X191922000Y-23681600D03*
%TD*%
%TO.C,D162*%
X351130000Y-99924000D03*
X351130000Y-101024000D03*
X349300000Y-101024000D03*
X349300000Y-99924000D03*
%TD*%
%TO.C,D161*%
X46178400Y-61807000D03*
X46178400Y-62907000D03*
X44348400Y-62907000D03*
X44348400Y-61807000D03*
%TD*%
%TO.C,D160*%
X332080000Y-42875200D03*
X332080000Y-43975200D03*
X330250000Y-43975200D03*
X330250000Y-42875200D03*
%TD*%
%TO.C,D158*%
X174652000Y-23741200D03*
X174652000Y-24841200D03*
X172822000Y-24841200D03*
X172822000Y-23741200D03*
%TD*%
%TO.C,D157*%
X370028000Y-99924000D03*
X370028000Y-101024000D03*
X368198000Y-101024000D03*
X368198000Y-99924000D03*
%TD*%
%TO.C,D156*%
X70003000Y-61688800D03*
X70003000Y-62788800D03*
X68173000Y-62788800D03*
X68173000Y-61688800D03*
%TD*%
%TO.C,D155*%
X269901000Y-42693500D03*
X269901000Y-43793500D03*
X268071000Y-43793500D03*
X268071000Y-42693500D03*
%TD*%
%TO.C,D153*%
X155602000Y-23639600D03*
X155602000Y-24739600D03*
X153772000Y-24739600D03*
X153772000Y-23639600D03*
%TD*%
%TO.C,D152*%
X98451600Y-23741200D03*
X98451600Y-24841200D03*
X96621600Y-24841200D03*
X96621600Y-23741200D03*
%TD*%
%TO.C,D151*%
X88952000Y-61638000D03*
X88952000Y-62738000D03*
X87122000Y-62738000D03*
X87122000Y-61638000D03*
%TD*%
%TO.C,D150*%
X250889000Y-42715000D03*
X250889000Y-43815000D03*
X249059000Y-43815000D03*
X249059000Y-42715000D03*
%TD*%
%TO.C,D148*%
X136602000Y-23723600D03*
X136602000Y-24823600D03*
X134772000Y-24823600D03*
X134772000Y-23723600D03*
%TD*%
%TO.C,D147*%
X79503200Y-23639600D03*
X79503200Y-24739600D03*
X77673200Y-24739600D03*
X77673200Y-23639600D03*
%TD*%
%TO.C,D146*%
X107850000Y-61688800D03*
X107850000Y-62788800D03*
X106020000Y-62788800D03*
X106020000Y-61688800D03*
%TD*%
%TO.C,D145*%
X231763000Y-42715000D03*
X231763000Y-43815000D03*
X229933000Y-43815000D03*
X229933000Y-42715000D03*
%TD*%
%TO.C,D143*%
X91619000Y-119126000D03*
X91619000Y-120226000D03*
X89789000Y-120226000D03*
X89789000Y-119126000D03*
%TD*%
%TO.C,D142*%
X370028000Y-80840400D03*
X370028000Y-81940400D03*
X368198000Y-81940400D03*
X368198000Y-80840400D03*
%TD*%
%TO.C,D141*%
X126747000Y-61638000D03*
X126747000Y-62738000D03*
X124917000Y-62738000D03*
X124917000Y-61638000D03*
%TD*%
%TO.C,D140*%
X212789000Y-42715000D03*
X212789000Y-43815000D03*
X210959000Y-43815000D03*
X210959000Y-42715000D03*
%TD*%
%TO.C,D138*%
X67768400Y-119093000D03*
X67768400Y-120193000D03*
X65938400Y-120193000D03*
X65938400Y-119093000D03*
%TD*%
%TO.C,D137*%
X351131000Y-80840400D03*
X351131000Y-81940400D03*
X349301000Y-81940400D03*
X349301000Y-80840400D03*
%TD*%
%TO.C,D136*%
X145645000Y-61688800D03*
X145645000Y-62788800D03*
X143815000Y-62788800D03*
X143815000Y-61688800D03*
%TD*%
%TO.C,D135*%
X193675000Y-42672000D03*
X193675000Y-43772000D03*
X191845000Y-43772000D03*
X191845000Y-42672000D03*
%TD*%
%TO.C,D133*%
X43841600Y-119121000D03*
X43841600Y-120221000D03*
X42011600Y-120221000D03*
X42011600Y-119121000D03*
%TD*%
%TO.C,D132*%
X332081000Y-80840400D03*
X332081000Y-81940400D03*
X330251000Y-81940400D03*
X330251000Y-80840400D03*
%TD*%
%TO.C,D131*%
X164593000Y-61638000D03*
X164593000Y-62738000D03*
X162763000Y-62738000D03*
X162763000Y-61638000D03*
%TD*%
%TO.C,D130*%
X174651000Y-42693500D03*
X174651000Y-43793500D03*
X172821000Y-43793500D03*
X172821000Y-42693500D03*
%TD*%
%TO.C,D128*%
X53340000Y-99890000D03*
X53340000Y-100990000D03*
X51510000Y-100990000D03*
X51510000Y-99890000D03*
%TD*%
%TO.C,D127*%
X296037000Y-80815000D03*
X296037000Y-81915000D03*
X294207000Y-81915000D03*
X294207000Y-80815000D03*
%TD*%
%TO.C,D126*%
X183542000Y-61688800D03*
X183542000Y-62788800D03*
X181712000Y-62788800D03*
X181712000Y-61688800D03*
%TD*%
%TO.C,D125*%
X155575000Y-42715000D03*
X155575000Y-43815000D03*
X153745000Y-43815000D03*
X153745000Y-42715000D03*
%TD*%
%TO.C,D123*%
X84175600Y-99890000D03*
X84175600Y-100990000D03*
X82345600Y-100990000D03*
X82345600Y-99890000D03*
%TD*%
%TO.C,D122*%
X265011000Y-80843000D03*
X265011000Y-81943000D03*
X263181000Y-81943000D03*
X263181000Y-80843000D03*
%TD*%
%TO.C,D121*%
X202490000Y-61688800D03*
X202490000Y-62788800D03*
X200660000Y-62788800D03*
X200660000Y-61688800D03*
%TD*%
%TO.C,D120*%
X136577000Y-42715000D03*
X136577000Y-43815000D03*
X134747000Y-43815000D03*
X134747000Y-42715000D03*
%TD*%
%TO.C,D118*%
X103022000Y-99890000D03*
X103022000Y-100990000D03*
X101192000Y-100990000D03*
X101192000Y-99890000D03*
%TD*%
%TO.C,D117*%
X245961000Y-80857000D03*
X245961000Y-81957000D03*
X244131000Y-81957000D03*
X244131000Y-80857000D03*
%TD*%
%TO.C,D116*%
X221388000Y-61638000D03*
X221388000Y-62738000D03*
X219558000Y-62738000D03*
X219558000Y-61638000D03*
%TD*%
%TO.C,D115*%
X117527000Y-42715000D03*
X117527000Y-43815000D03*
X115697000Y-43815000D03*
X115697000Y-42715000D03*
%TD*%
%TO.C,D113*%
X121920000Y-99890000D03*
X121920000Y-100990000D03*
X120090000Y-100990000D03*
X120090000Y-99890000D03*
%TD*%
%TO.C,D112*%
X226937000Y-80832000D03*
X226937000Y-81932000D03*
X225107000Y-81932000D03*
X225107000Y-80832000D03*
%TD*%
%TO.C,D111*%
X240336000Y-61688800D03*
X240336000Y-62788800D03*
X238506000Y-62788800D03*
X238506000Y-61688800D03*
%TD*%
%TO.C,D110*%
X98477000Y-42715000D03*
X98477000Y-43815000D03*
X96647000Y-43815000D03*
X96647000Y-42715000D03*
%TD*%
%TO.C,D109*%
X298502000Y-42884000D03*
X298502000Y-43984000D03*
X296672000Y-43984000D03*
X296672000Y-42884000D03*
%TD*%
%TO.C,D108*%
X140868000Y-99890000D03*
X140868000Y-100990000D03*
X139038000Y-100990000D03*
X139038000Y-99890000D03*
%TD*%
%TO.C,D107*%
X207837000Y-80882000D03*
X207837000Y-81982000D03*
X206007000Y-81982000D03*
X206007000Y-80882000D03*
%TD*%
%TO.C,D106*%
X259284000Y-61638000D03*
X259284000Y-62738000D03*
X257454000Y-62738000D03*
X257454000Y-61638000D03*
%TD*%
%TO.C,D105*%
X79427000Y-42715000D03*
X79427000Y-43815000D03*
X77597000Y-43815000D03*
X77597000Y-42715000D03*
%TD*%
%TO.C,D104*%
X117552000Y-23639600D03*
X117552000Y-24739600D03*
X115722000Y-24739600D03*
X115722000Y-23639600D03*
%TD*%
%TO.C,D103*%
X159817000Y-99890000D03*
X159817000Y-100990000D03*
X157987000Y-100990000D03*
X157987000Y-99890000D03*
%TD*%
%TO.C,D102*%
X188811000Y-80868000D03*
X188811000Y-81968000D03*
X186981000Y-81968000D03*
X186981000Y-80868000D03*
%TD*%
%TO.C,D101*%
X278487000Y-61638000D03*
X278487000Y-62738000D03*
X276657000Y-62738000D03*
X276657000Y-61638000D03*
%TD*%
%TO.C,D100*%
X60414500Y-42693500D03*
X60414500Y-43793500D03*
X58584500Y-43793500D03*
X58584500Y-42693500D03*
%TD*%
%TO.C,D99*%
X370078000Y-119144000D03*
X370078000Y-120244000D03*
X368248000Y-120244000D03*
X368248000Y-119144000D03*
%TD*%
%TO.C,D98*%
X178714000Y-99890000D03*
X178714000Y-100990000D03*
X176884000Y-100990000D03*
X176884000Y-99890000D03*
%TD*%
%TO.C,D97*%
X169787000Y-80882000D03*
X169787000Y-81982000D03*
X167957000Y-81982000D03*
X167957000Y-80882000D03*
%TD*%
%TO.C,D96*%
X303226000Y-61638000D03*
X303226000Y-62738000D03*
X301396000Y-62738000D03*
X301396000Y-61638000D03*
%TD*%
%TO.C,D95*%
X41200000Y-42715000D03*
X41200000Y-43815000D03*
X39370000Y-43815000D03*
X39370000Y-42715000D03*
%TD*%
%TO.C,C3*%
G36*
G01*
X319360000Y-82118400D02*
X319360000Y-82458400D01*
G75*
G02*
X319220000Y-82598400I-140000J0D01*
G01*
X318940000Y-82598400D01*
G75*
G02*
X318800000Y-82458400I0J140000D01*
G01*
X318800000Y-82118400D01*
G75*
G02*
X318940000Y-81978400I140000J0D01*
G01*
X319220000Y-81978400D01*
G75*
G02*
X319360000Y-82118400I0J-140000D01*
G01*
G37*
G36*
G01*
X320320000Y-82118400D02*
X320320000Y-82458400D01*
G75*
G02*
X320180000Y-82598400I-140000J0D01*
G01*
X319900000Y-82598400D01*
G75*
G02*
X319760000Y-82458400I0J140000D01*
G01*
X319760000Y-82118400D01*
G75*
G02*
X319900000Y-81978400I140000J0D01*
G01*
X320180000Y-81978400D01*
G75*
G02*
X320320000Y-82118400I0J-140000D01*
G01*
G37*
%TD*%
%TO.C,C5*%
G36*
G01*
X321746000Y-119574000D02*
X321746000Y-119914000D01*
G75*
G02*
X321606000Y-120054000I-140000J0D01*
G01*
X321326000Y-120054000D01*
G75*
G02*
X321186000Y-119914000I0J140000D01*
G01*
X321186000Y-119574000D01*
G75*
G02*
X321326000Y-119434000I140000J0D01*
G01*
X321606000Y-119434000D01*
G75*
G02*
X321746000Y-119574000I0J-140000D01*
G01*
G37*
G36*
G01*
X322706000Y-119574000D02*
X322706000Y-119914000D01*
G75*
G02*
X322566000Y-120054000I-140000J0D01*
G01*
X322286000Y-120054000D01*
G75*
G02*
X322146000Y-119914000I0J140000D01*
G01*
X322146000Y-119574000D01*
G75*
G02*
X322286000Y-119434000I140000J0D01*
G01*
X322566000Y-119434000D01*
G75*
G02*
X322706000Y-119574000I0J-140000D01*
G01*
G37*
%TD*%
%TO.C,C6*%
G36*
G01*
X321746000Y-104579000D02*
X321746000Y-104919000D01*
G75*
G02*
X321606000Y-105059000I-140000J0D01*
G01*
X321326000Y-105059000D01*
G75*
G02*
X321186000Y-104919000I0J140000D01*
G01*
X321186000Y-104579000D01*
G75*
G02*
X321326000Y-104439000I140000J0D01*
G01*
X321606000Y-104439000D01*
G75*
G02*
X321746000Y-104579000I0J-140000D01*
G01*
G37*
G36*
G01*
X322706000Y-104579000D02*
X322706000Y-104919000D01*
G75*
G02*
X322566000Y-105059000I-140000J0D01*
G01*
X322286000Y-105059000D01*
G75*
G02*
X322146000Y-104919000I0J140000D01*
G01*
X322146000Y-104579000D01*
G75*
G02*
X322286000Y-104439000I140000J0D01*
G01*
X322566000Y-104439000D01*
G75*
G02*
X322706000Y-104579000I0J-140000D01*
G01*
G37*
%TD*%
%TO.C,C8*%
G36*
G01*
X321746000Y-117432000D02*
X321746000Y-117772000D01*
G75*
G02*
X321606000Y-117912000I-140000J0D01*
G01*
X321326000Y-117912000D01*
G75*
G02*
X321186000Y-117772000I0J140000D01*
G01*
X321186000Y-117432000D01*
G75*
G02*
X321326000Y-117292000I140000J0D01*
G01*
X321606000Y-117292000D01*
G75*
G02*
X321746000Y-117432000I0J-140000D01*
G01*
G37*
G36*
G01*
X322706000Y-117432000D02*
X322706000Y-117772000D01*
G75*
G02*
X322566000Y-117912000I-140000J0D01*
G01*
X322286000Y-117912000D01*
G75*
G02*
X322146000Y-117772000I0J140000D01*
G01*
X322146000Y-117432000D01*
G75*
G02*
X322286000Y-117292000I140000J0D01*
G01*
X322566000Y-117292000D01*
G75*
G02*
X322706000Y-117432000I0J-140000D01*
G01*
G37*
%TD*%
%TO.C,C9*%
G36*
G01*
X321746000Y-98152200D02*
X321746000Y-98492200D01*
G75*
G02*
X321606000Y-98632200I-140000J0D01*
G01*
X321326000Y-98632200D01*
G75*
G02*
X321186000Y-98492200I0J140000D01*
G01*
X321186000Y-98152200D01*
G75*
G02*
X321326000Y-98012200I140000J0D01*
G01*
X321606000Y-98012200D01*
G75*
G02*
X321746000Y-98152200I0J-140000D01*
G01*
G37*
G36*
G01*
X322706000Y-98152200D02*
X322706000Y-98492200D01*
G75*
G02*
X322566000Y-98632200I-140000J0D01*
G01*
X322286000Y-98632200D01*
G75*
G02*
X322146000Y-98492200I0J140000D01*
G01*
X322146000Y-98152200D01*
G75*
G02*
X322286000Y-98012200I140000J0D01*
G01*
X322566000Y-98012200D01*
G75*
G02*
X322706000Y-98152200I0J-140000D01*
G01*
G37*
%TD*%
%TO.C,C11*%
G36*
G01*
X321746000Y-94938900D02*
X321746000Y-95278900D01*
G75*
G02*
X321606000Y-95418900I-140000J0D01*
G01*
X321326000Y-95418900D01*
G75*
G02*
X321186000Y-95278900I0J140000D01*
G01*
X321186000Y-94938900D01*
G75*
G02*
X321326000Y-94798900I140000J0D01*
G01*
X321606000Y-94798900D01*
G75*
G02*
X321746000Y-94938900I0J-140000D01*
G01*
G37*
G36*
G01*
X322706000Y-94938900D02*
X322706000Y-95278900D01*
G75*
G02*
X322566000Y-95418900I-140000J0D01*
G01*
X322286000Y-95418900D01*
G75*
G02*
X322146000Y-95278900I0J140000D01*
G01*
X322146000Y-94938900D01*
G75*
G02*
X322286000Y-94798900I140000J0D01*
G01*
X322566000Y-94798900D01*
G75*
G02*
X322706000Y-94938900I0J-140000D01*
G01*
G37*
%TD*%
%TO.C,C13*%
G36*
G01*
X321746000Y-91725700D02*
X321746000Y-92065700D01*
G75*
G02*
X321606000Y-92205700I-140000J0D01*
G01*
X321326000Y-92205700D01*
G75*
G02*
X321186000Y-92065700I0J140000D01*
G01*
X321186000Y-91725700D01*
G75*
G02*
X321326000Y-91585700I140000J0D01*
G01*
X321606000Y-91585700D01*
G75*
G02*
X321746000Y-91725700I0J-140000D01*
G01*
G37*
G36*
G01*
X322706000Y-91725700D02*
X322706000Y-92065700D01*
G75*
G02*
X322566000Y-92205700I-140000J0D01*
G01*
X322286000Y-92205700D01*
G75*
G02*
X322146000Y-92065700I0J140000D01*
G01*
X322146000Y-91725700D01*
G75*
G02*
X322286000Y-91585700I140000J0D01*
G01*
X322566000Y-91585700D01*
G75*
G02*
X322706000Y-91725700I0J-140000D01*
G01*
G37*
%TD*%
%TO.C,C16*%
G36*
G01*
X321746000Y-82085900D02*
X321746000Y-82425900D01*
G75*
G02*
X321606000Y-82565900I-140000J0D01*
G01*
X321326000Y-82565900D01*
G75*
G02*
X321186000Y-82425900I0J140000D01*
G01*
X321186000Y-82085900D01*
G75*
G02*
X321326000Y-81945900I140000J0D01*
G01*
X321606000Y-81945900D01*
G75*
G02*
X321746000Y-82085900I0J-140000D01*
G01*
G37*
G36*
G01*
X322706000Y-82085900D02*
X322706000Y-82425900D01*
G75*
G02*
X322566000Y-82565900I-140000J0D01*
G01*
X322286000Y-82565900D01*
G75*
G02*
X322146000Y-82425900I0J140000D01*
G01*
X322146000Y-82085900D01*
G75*
G02*
X322286000Y-81945900I140000J0D01*
G01*
X322566000Y-81945900D01*
G75*
G02*
X322706000Y-82085900I0J-140000D01*
G01*
G37*
%TD*%
%TO.C,C17*%
G36*
G01*
X321746000Y-113147000D02*
X321746000Y-113487000D01*
G75*
G02*
X321606000Y-113627000I-140000J0D01*
G01*
X321326000Y-113627000D01*
G75*
G02*
X321186000Y-113487000I0J140000D01*
G01*
X321186000Y-113147000D01*
G75*
G02*
X321326000Y-113007000I140000J0D01*
G01*
X321606000Y-113007000D01*
G75*
G02*
X321746000Y-113147000I0J-140000D01*
G01*
G37*
G36*
G01*
X322706000Y-113147000D02*
X322706000Y-113487000D01*
G75*
G02*
X322566000Y-113627000I-140000J0D01*
G01*
X322286000Y-113627000D01*
G75*
G02*
X322146000Y-113487000I0J140000D01*
G01*
X322146000Y-113147000D01*
G75*
G02*
X322286000Y-113007000I140000J0D01*
G01*
X322566000Y-113007000D01*
G75*
G02*
X322706000Y-113147000I0J-140000D01*
G01*
G37*
%TD*%
%TO.C,C18*%
G36*
G01*
X321746000Y-85299200D02*
X321746000Y-85639200D01*
G75*
G02*
X321606000Y-85779200I-140000J0D01*
G01*
X321326000Y-85779200D01*
G75*
G02*
X321186000Y-85639200I0J140000D01*
G01*
X321186000Y-85299200D01*
G75*
G02*
X321326000Y-85159200I140000J0D01*
G01*
X321606000Y-85159200D01*
G75*
G02*
X321746000Y-85299200I0J-140000D01*
G01*
G37*
G36*
G01*
X322706000Y-85299200D02*
X322706000Y-85639200D01*
G75*
G02*
X322566000Y-85779200I-140000J0D01*
G01*
X322286000Y-85779200D01*
G75*
G02*
X322146000Y-85639200I0J140000D01*
G01*
X322146000Y-85299200D01*
G75*
G02*
X322286000Y-85159200I140000J0D01*
G01*
X322566000Y-85159200D01*
G75*
G02*
X322706000Y-85299200I0J-140000D01*
G01*
G37*
%TD*%
%TO.C,C22*%
G36*
G01*
X321746000Y-75659200D02*
X321746000Y-75999200D01*
G75*
G02*
X321606000Y-76139200I-140000J0D01*
G01*
X321326000Y-76139200D01*
G75*
G02*
X321186000Y-75999200I0J140000D01*
G01*
X321186000Y-75659200D01*
G75*
G02*
X321326000Y-75519200I140000J0D01*
G01*
X321606000Y-75519200D01*
G75*
G02*
X321746000Y-75659200I0J-140000D01*
G01*
G37*
G36*
G01*
X322706000Y-75659200D02*
X322706000Y-75999200D01*
G75*
G02*
X322566000Y-76139200I-140000J0D01*
G01*
X322286000Y-76139200D01*
G75*
G02*
X322146000Y-75999200I0J140000D01*
G01*
X322146000Y-75659200D01*
G75*
G02*
X322286000Y-75519200I140000J0D01*
G01*
X322566000Y-75519200D01*
G75*
G02*
X322706000Y-75659200I0J-140000D01*
G01*
G37*
%TD*%
%TO.C,C24*%
G36*
G01*
X319360000Y-76520100D02*
X319360000Y-76860100D01*
G75*
G02*
X319220000Y-77000100I-140000J0D01*
G01*
X318940000Y-77000100D01*
G75*
G02*
X318800000Y-76860100I0J140000D01*
G01*
X318800000Y-76520100D01*
G75*
G02*
X318940000Y-76380100I140000J0D01*
G01*
X319220000Y-76380100D01*
G75*
G02*
X319360000Y-76520100I0J-140000D01*
G01*
G37*
G36*
G01*
X320320000Y-76520100D02*
X320320000Y-76860100D01*
G75*
G02*
X320180000Y-77000100I-140000J0D01*
G01*
X319900000Y-77000100D01*
G75*
G02*
X319760000Y-76860100I0J140000D01*
G01*
X319760000Y-76520100D01*
G75*
G02*
X319900000Y-76380100I140000J0D01*
G01*
X320180000Y-76380100D01*
G75*
G02*
X320320000Y-76520100I0J-140000D01*
G01*
G37*
%TD*%
%TO.C,C27*%
G36*
G01*
X321746000Y-78872700D02*
X321746000Y-79212700D01*
G75*
G02*
X321606000Y-79352700I-140000J0D01*
G01*
X321326000Y-79352700D01*
G75*
G02*
X321186000Y-79212700I0J140000D01*
G01*
X321186000Y-78872700D01*
G75*
G02*
X321326000Y-78732700I140000J0D01*
G01*
X321606000Y-78732700D01*
G75*
G02*
X321746000Y-78872700I0J-140000D01*
G01*
G37*
G36*
G01*
X322706000Y-78872700D02*
X322706000Y-79212700D01*
G75*
G02*
X322566000Y-79352700I-140000J0D01*
G01*
X322286000Y-79352700D01*
G75*
G02*
X322146000Y-79212700I0J140000D01*
G01*
X322146000Y-78872700D01*
G75*
G02*
X322286000Y-78732700I140000J0D01*
G01*
X322566000Y-78732700D01*
G75*
G02*
X322706000Y-78872700I0J-140000D01*
G01*
G37*
%TD*%
%TO.C,C29*%
G36*
G01*
X321746000Y-62806200D02*
X321746000Y-63146200D01*
G75*
G02*
X321606000Y-63286200I-140000J0D01*
G01*
X321326000Y-63286200D01*
G75*
G02*
X321186000Y-63146200I0J140000D01*
G01*
X321186000Y-62806200D01*
G75*
G02*
X321326000Y-62666200I140000J0D01*
G01*
X321606000Y-62666200D01*
G75*
G02*
X321746000Y-62806200I0J-140000D01*
G01*
G37*
G36*
G01*
X322706000Y-62806200D02*
X322706000Y-63146200D01*
G75*
G02*
X322566000Y-63286200I-140000J0D01*
G01*
X322286000Y-63286200D01*
G75*
G02*
X322146000Y-63146200I0J140000D01*
G01*
X322146000Y-62806200D01*
G75*
G02*
X322286000Y-62666200I140000J0D01*
G01*
X322566000Y-62666200D01*
G75*
G02*
X322706000Y-62806200I0J-140000D01*
G01*
G37*
%TD*%
%TO.C,C31*%
G36*
G01*
X321746000Y-101365000D02*
X321746000Y-101705000D01*
G75*
G02*
X321606000Y-101845000I-140000J0D01*
G01*
X321326000Y-101845000D01*
G75*
G02*
X321186000Y-101705000I0J140000D01*
G01*
X321186000Y-101365000D01*
G75*
G02*
X321326000Y-101225000I140000J0D01*
G01*
X321606000Y-101225000D01*
G75*
G02*
X321746000Y-101365000I0J-140000D01*
G01*
G37*
G36*
G01*
X322706000Y-101365000D02*
X322706000Y-101705000D01*
G75*
G02*
X322566000Y-101845000I-140000J0D01*
G01*
X322286000Y-101845000D01*
G75*
G02*
X322146000Y-101705000I0J140000D01*
G01*
X322146000Y-101365000D01*
G75*
G02*
X322286000Y-101225000I140000J0D01*
G01*
X322566000Y-101225000D01*
G75*
G02*
X322706000Y-101365000I0J-140000D01*
G01*
G37*
%TD*%
%TO.C,C32*%
G36*
G01*
X319360000Y-66443200D02*
X319360000Y-66783200D01*
G75*
G02*
X319220000Y-66923200I-140000J0D01*
G01*
X318940000Y-66923200D01*
G75*
G02*
X318800000Y-66783200I0J140000D01*
G01*
X318800000Y-66443200D01*
G75*
G02*
X318940000Y-66303200I140000J0D01*
G01*
X319220000Y-66303200D01*
G75*
G02*
X319360000Y-66443200I0J-140000D01*
G01*
G37*
G36*
G01*
X320320000Y-66443200D02*
X320320000Y-66783200D01*
G75*
G02*
X320180000Y-66923200I-140000J0D01*
G01*
X319900000Y-66923200D01*
G75*
G02*
X319760000Y-66783200I0J140000D01*
G01*
X319760000Y-66443200D01*
G75*
G02*
X319900000Y-66303200I140000J0D01*
G01*
X320180000Y-66303200D01*
G75*
G02*
X320320000Y-66443200I0J-140000D01*
G01*
G37*
%TD*%
%TO.C,C33*%
G36*
G01*
X321746000Y-72446200D02*
X321746000Y-72786200D01*
G75*
G02*
X321606000Y-72926200I-140000J0D01*
G01*
X321326000Y-72926200D01*
G75*
G02*
X321186000Y-72786200I0J140000D01*
G01*
X321186000Y-72446200D01*
G75*
G02*
X321326000Y-72306200I140000J0D01*
G01*
X321606000Y-72306200D01*
G75*
G02*
X321746000Y-72446200I0J-140000D01*
G01*
G37*
G36*
G01*
X322706000Y-72446200D02*
X322706000Y-72786200D01*
G75*
G02*
X322566000Y-72926200I-140000J0D01*
G01*
X322286000Y-72926200D01*
G75*
G02*
X322146000Y-72786200I0J140000D01*
G01*
X322146000Y-72446200D01*
G75*
G02*
X322286000Y-72306200I140000J0D01*
G01*
X322566000Y-72306200D01*
G75*
G02*
X322706000Y-72446200I0J-140000D01*
G01*
G37*
%TD*%
%TO.C,C36*%
G36*
G01*
X321746000Y-115290000D02*
X321746000Y-115630000D01*
G75*
G02*
X321606000Y-115770000I-140000J0D01*
G01*
X321326000Y-115770000D01*
G75*
G02*
X321186000Y-115630000I0J140000D01*
G01*
X321186000Y-115290000D01*
G75*
G02*
X321326000Y-115150000I140000J0D01*
G01*
X321606000Y-115150000D01*
G75*
G02*
X321746000Y-115290000I0J-140000D01*
G01*
G37*
G36*
G01*
X322706000Y-115290000D02*
X322706000Y-115630000D01*
G75*
G02*
X322566000Y-115770000I-140000J0D01*
G01*
X322286000Y-115770000D01*
G75*
G02*
X322146000Y-115630000I0J140000D01*
G01*
X322146000Y-115290000D01*
G75*
G02*
X322286000Y-115150000I140000J0D01*
G01*
X322566000Y-115150000D01*
G75*
G02*
X322706000Y-115290000I0J-140000D01*
G01*
G37*
%TD*%
%TO.C,C37*%
G36*
G01*
X321746000Y-107792000D02*
X321746000Y-108132000D01*
G75*
G02*
X321606000Y-108272000I-140000J0D01*
G01*
X321326000Y-108272000D01*
G75*
G02*
X321186000Y-108132000I0J140000D01*
G01*
X321186000Y-107792000D01*
G75*
G02*
X321326000Y-107652000I140000J0D01*
G01*
X321606000Y-107652000D01*
G75*
G02*
X321746000Y-107792000I0J-140000D01*
G01*
G37*
G36*
G01*
X322706000Y-107792000D02*
X322706000Y-108132000D01*
G75*
G02*
X322566000Y-108272000I-140000J0D01*
G01*
X322286000Y-108272000D01*
G75*
G02*
X322146000Y-108132000I0J140000D01*
G01*
X322146000Y-107792000D01*
G75*
G02*
X322286000Y-107652000I140000J0D01*
G01*
X322566000Y-107652000D01*
G75*
G02*
X322706000Y-107792000I0J-140000D01*
G01*
G37*
%TD*%
%TO.C,C39*%
G36*
G01*
X319360000Y-77639800D02*
X319360000Y-77979800D01*
G75*
G02*
X319220000Y-78119800I-140000J0D01*
G01*
X318940000Y-78119800D01*
G75*
G02*
X318800000Y-77979800I0J140000D01*
G01*
X318800000Y-77639800D01*
G75*
G02*
X318940000Y-77499800I140000J0D01*
G01*
X319220000Y-77499800D01*
G75*
G02*
X319360000Y-77639800I0J-140000D01*
G01*
G37*
G36*
G01*
X320320000Y-77639800D02*
X320320000Y-77979800D01*
G75*
G02*
X320180000Y-78119800I-140000J0D01*
G01*
X319900000Y-78119800D01*
G75*
G02*
X319760000Y-77979800I0J140000D01*
G01*
X319760000Y-77639800D01*
G75*
G02*
X319900000Y-77499800I140000J0D01*
G01*
X320180000Y-77499800D01*
G75*
G02*
X320320000Y-77639800I0J-140000D01*
G01*
G37*
%TD*%
%TO.C,C41*%
G36*
G01*
X319360000Y-59725300D02*
X319360000Y-60065300D01*
G75*
G02*
X319220000Y-60205300I-140000J0D01*
G01*
X318940000Y-60205300D01*
G75*
G02*
X318800000Y-60065300I0J140000D01*
G01*
X318800000Y-59725300D01*
G75*
G02*
X318940000Y-59585300I140000J0D01*
G01*
X319220000Y-59585300D01*
G75*
G02*
X319360000Y-59725300I0J-140000D01*
G01*
G37*
G36*
G01*
X320320000Y-59725300D02*
X320320000Y-60065300D01*
G75*
G02*
X320180000Y-60205300I-140000J0D01*
G01*
X319900000Y-60205300D01*
G75*
G02*
X319760000Y-60065300I0J140000D01*
G01*
X319760000Y-59725300D01*
G75*
G02*
X319900000Y-59585300I140000J0D01*
G01*
X320180000Y-59585300D01*
G75*
G02*
X320320000Y-59725300I0J-140000D01*
G01*
G37*
%TD*%
%TO.C,C42*%
G36*
G01*
X321746000Y-66019200D02*
X321746000Y-66359200D01*
G75*
G02*
X321606000Y-66499200I-140000J0D01*
G01*
X321326000Y-66499200D01*
G75*
G02*
X321186000Y-66359200I0J140000D01*
G01*
X321186000Y-66019200D01*
G75*
G02*
X321326000Y-65879200I140000J0D01*
G01*
X321606000Y-65879200D01*
G75*
G02*
X321746000Y-66019200I0J-140000D01*
G01*
G37*
G36*
G01*
X322706000Y-66019200D02*
X322706000Y-66359200D01*
G75*
G02*
X322566000Y-66499200I-140000J0D01*
G01*
X322286000Y-66499200D01*
G75*
G02*
X322146000Y-66359200I0J140000D01*
G01*
X322146000Y-66019200D01*
G75*
G02*
X322286000Y-65879200I140000J0D01*
G01*
X322566000Y-65879200D01*
G75*
G02*
X322706000Y-66019200I0J-140000D01*
G01*
G37*
%TD*%
%TO.C,C46*%
G36*
G01*
X321746000Y-88512400D02*
X321746000Y-88852400D01*
G75*
G02*
X321606000Y-88992400I-140000J0D01*
G01*
X321326000Y-88992400D01*
G75*
G02*
X321186000Y-88852400I0J140000D01*
G01*
X321186000Y-88512400D01*
G75*
G02*
X321326000Y-88372400I140000J0D01*
G01*
X321606000Y-88372400D01*
G75*
G02*
X321746000Y-88512400I0J-140000D01*
G01*
G37*
G36*
G01*
X322706000Y-88512400D02*
X322706000Y-88852400D01*
G75*
G02*
X322566000Y-88992400I-140000J0D01*
G01*
X322286000Y-88992400D01*
G75*
G02*
X322146000Y-88852400I0J140000D01*
G01*
X322146000Y-88512400D01*
G75*
G02*
X322286000Y-88372400I140000J0D01*
G01*
X322566000Y-88372400D01*
G75*
G02*
X322706000Y-88512400I0J-140000D01*
G01*
G37*
%TD*%
%TO.C,C47*%
G36*
G01*
X321746000Y-69233200D02*
X321746000Y-69573200D01*
G75*
G02*
X321606000Y-69713200I-140000J0D01*
G01*
X321326000Y-69713200D01*
G75*
G02*
X321186000Y-69573200I0J140000D01*
G01*
X321186000Y-69233200D01*
G75*
G02*
X321326000Y-69093200I140000J0D01*
G01*
X321606000Y-69093200D01*
G75*
G02*
X321746000Y-69233200I0J-140000D01*
G01*
G37*
G36*
G01*
X322706000Y-69233200D02*
X322706000Y-69573200D01*
G75*
G02*
X322566000Y-69713200I-140000J0D01*
G01*
X322286000Y-69713200D01*
G75*
G02*
X322146000Y-69573200I0J140000D01*
G01*
X322146000Y-69233200D01*
G75*
G02*
X322286000Y-69093200I140000J0D01*
G01*
X322566000Y-69093200D01*
G75*
G02*
X322706000Y-69233200I0J-140000D01*
G01*
G37*
%TD*%
%TO.C,C48*%
G36*
G01*
X321746000Y-60664200D02*
X321746000Y-61004200D01*
G75*
G02*
X321606000Y-61144200I-140000J0D01*
G01*
X321326000Y-61144200D01*
G75*
G02*
X321186000Y-61004200I0J140000D01*
G01*
X321186000Y-60664200D01*
G75*
G02*
X321326000Y-60524200I140000J0D01*
G01*
X321606000Y-60524200D01*
G75*
G02*
X321746000Y-60664200I0J-140000D01*
G01*
G37*
G36*
G01*
X322706000Y-60664200D02*
X322706000Y-61004200D01*
G75*
G02*
X322566000Y-61144200I-140000J0D01*
G01*
X322286000Y-61144200D01*
G75*
G02*
X322146000Y-61004200I0J140000D01*
G01*
X322146000Y-60664200D01*
G75*
G02*
X322286000Y-60524200I140000J0D01*
G01*
X322566000Y-60524200D01*
G75*
G02*
X322706000Y-60664200I0J-140000D01*
G01*
G37*
%TD*%
%TO.C,C49*%
G36*
G01*
X319360000Y-78759500D02*
X319360000Y-79099500D01*
G75*
G02*
X319220000Y-79239500I-140000J0D01*
G01*
X318940000Y-79239500D01*
G75*
G02*
X318800000Y-79099500I0J140000D01*
G01*
X318800000Y-78759500D01*
G75*
G02*
X318940000Y-78619500I140000J0D01*
G01*
X319220000Y-78619500D01*
G75*
G02*
X319360000Y-78759500I0J-140000D01*
G01*
G37*
G36*
G01*
X320320000Y-78759500D02*
X320320000Y-79099500D01*
G75*
G02*
X320180000Y-79239500I-140000J0D01*
G01*
X319900000Y-79239500D01*
G75*
G02*
X319760000Y-79099500I0J140000D01*
G01*
X319760000Y-78759500D01*
G75*
G02*
X319900000Y-78619500I140000J0D01*
G01*
X320180000Y-78619500D01*
G75*
G02*
X320320000Y-78759500I0J-140000D01*
G01*
G37*
%TD*%
%TO.C,C51*%
G36*
G01*
X321746000Y-105650000D02*
X321746000Y-105990000D01*
G75*
G02*
X321606000Y-106130000I-140000J0D01*
G01*
X321326000Y-106130000D01*
G75*
G02*
X321186000Y-105990000I0J140000D01*
G01*
X321186000Y-105650000D01*
G75*
G02*
X321326000Y-105510000I140000J0D01*
G01*
X321606000Y-105510000D01*
G75*
G02*
X321746000Y-105650000I0J-140000D01*
G01*
G37*
G36*
G01*
X322706000Y-105650000D02*
X322706000Y-105990000D01*
G75*
G02*
X322566000Y-106130000I-140000J0D01*
G01*
X322286000Y-106130000D01*
G75*
G02*
X322146000Y-105990000I0J140000D01*
G01*
X322146000Y-105650000D01*
G75*
G02*
X322286000Y-105510000I140000J0D01*
G01*
X322566000Y-105510000D01*
G75*
G02*
X322706000Y-105650000I0J-140000D01*
G01*
G37*
%TD*%
%TO.C,C54*%
G36*
G01*
X319360000Y-72041500D02*
X319360000Y-72381500D01*
G75*
G02*
X319220000Y-72521500I-140000J0D01*
G01*
X318940000Y-72521500D01*
G75*
G02*
X318800000Y-72381500I0J140000D01*
G01*
X318800000Y-72041500D01*
G75*
G02*
X318940000Y-71901500I140000J0D01*
G01*
X319220000Y-71901500D01*
G75*
G02*
X319360000Y-72041500I0J-140000D01*
G01*
G37*
G36*
G01*
X320320000Y-72041500D02*
X320320000Y-72381500D01*
G75*
G02*
X320180000Y-72521500I-140000J0D01*
G01*
X319900000Y-72521500D01*
G75*
G02*
X319760000Y-72381500I0J140000D01*
G01*
X319760000Y-72041500D01*
G75*
G02*
X319900000Y-71901500I140000J0D01*
G01*
X320180000Y-71901500D01*
G75*
G02*
X320320000Y-72041500I0J-140000D01*
G01*
G37*
%TD*%
%TO.C,C56*%
G36*
G01*
X321746000Y-112076000D02*
X321746000Y-112416000D01*
G75*
G02*
X321606000Y-112556000I-140000J0D01*
G01*
X321326000Y-112556000D01*
G75*
G02*
X321186000Y-112416000I0J140000D01*
G01*
X321186000Y-112076000D01*
G75*
G02*
X321326000Y-111936000I140000J0D01*
G01*
X321606000Y-111936000D01*
G75*
G02*
X321746000Y-112076000I0J-140000D01*
G01*
G37*
G36*
G01*
X322706000Y-112076000D02*
X322706000Y-112416000D01*
G75*
G02*
X322566000Y-112556000I-140000J0D01*
G01*
X322286000Y-112556000D01*
G75*
G02*
X322146000Y-112416000I0J140000D01*
G01*
X322146000Y-112076000D01*
G75*
G02*
X322286000Y-111936000I140000J0D01*
G01*
X322566000Y-111936000D01*
G75*
G02*
X322706000Y-112076000I0J-140000D01*
G01*
G37*
%TD*%
%TO.C,C57*%
G36*
G01*
X319360000Y-79879100D02*
X319360000Y-80219100D01*
G75*
G02*
X319220000Y-80359100I-140000J0D01*
G01*
X318940000Y-80359100D01*
G75*
G02*
X318800000Y-80219100I0J140000D01*
G01*
X318800000Y-79879100D01*
G75*
G02*
X318940000Y-79739100I140000J0D01*
G01*
X319220000Y-79739100D01*
G75*
G02*
X319360000Y-79879100I0J-140000D01*
G01*
G37*
G36*
G01*
X320320000Y-79879100D02*
X320320000Y-80219100D01*
G75*
G02*
X320180000Y-80359100I-140000J0D01*
G01*
X319900000Y-80359100D01*
G75*
G02*
X319760000Y-80219100I0J140000D01*
G01*
X319760000Y-79879100D01*
G75*
G02*
X319900000Y-79739100I140000J0D01*
G01*
X320180000Y-79739100D01*
G75*
G02*
X320320000Y-79879100I0J-140000D01*
G01*
G37*
%TD*%
%TO.C,C58*%
G36*
G01*
X319360000Y-63084200D02*
X319360000Y-63424200D01*
G75*
G02*
X319220000Y-63564200I-140000J0D01*
G01*
X318940000Y-63564200D01*
G75*
G02*
X318800000Y-63424200I0J140000D01*
G01*
X318800000Y-63084200D01*
G75*
G02*
X318940000Y-62944200I140000J0D01*
G01*
X319220000Y-62944200D01*
G75*
G02*
X319360000Y-63084200I0J-140000D01*
G01*
G37*
G36*
G01*
X320320000Y-63084200D02*
X320320000Y-63424200D01*
G75*
G02*
X320180000Y-63564200I-140000J0D01*
G01*
X319900000Y-63564200D01*
G75*
G02*
X319760000Y-63424200I0J140000D01*
G01*
X319760000Y-63084200D01*
G75*
G02*
X319900000Y-62944200I140000J0D01*
G01*
X320180000Y-62944200D01*
G75*
G02*
X320320000Y-63084200I0J-140000D01*
G01*
G37*
%TD*%
%TO.C,C61*%
G36*
G01*
X321746000Y-92796800D02*
X321746000Y-93136800D01*
G75*
G02*
X321606000Y-93276800I-140000J0D01*
G01*
X321326000Y-93276800D01*
G75*
G02*
X321186000Y-93136800I0J140000D01*
G01*
X321186000Y-92796800D01*
G75*
G02*
X321326000Y-92656800I140000J0D01*
G01*
X321606000Y-92656800D01*
G75*
G02*
X321746000Y-92796800I0J-140000D01*
G01*
G37*
G36*
G01*
X322706000Y-92796800D02*
X322706000Y-93136800D01*
G75*
G02*
X322566000Y-93276800I-140000J0D01*
G01*
X322286000Y-93276800D01*
G75*
G02*
X322146000Y-93136800I0J140000D01*
G01*
X322146000Y-92796800D01*
G75*
G02*
X322286000Y-92656800I140000J0D01*
G01*
X322566000Y-92656800D01*
G75*
G02*
X322706000Y-92796800I0J-140000D01*
G01*
G37*
%TD*%
%TO.C,C62*%
G36*
G01*
X321746000Y-93867800D02*
X321746000Y-94207800D01*
G75*
G02*
X321606000Y-94347800I-140000J0D01*
G01*
X321326000Y-94347800D01*
G75*
G02*
X321186000Y-94207800I0J140000D01*
G01*
X321186000Y-93867800D01*
G75*
G02*
X321326000Y-93727800I140000J0D01*
G01*
X321606000Y-93727800D01*
G75*
G02*
X321746000Y-93867800I0J-140000D01*
G01*
G37*
G36*
G01*
X322706000Y-93867800D02*
X322706000Y-94207800D01*
G75*
G02*
X322566000Y-94347800I-140000J0D01*
G01*
X322286000Y-94347800D01*
G75*
G02*
X322146000Y-94207800I0J140000D01*
G01*
X322146000Y-93867800D01*
G75*
G02*
X322286000Y-93727800I140000J0D01*
G01*
X322566000Y-93727800D01*
G75*
G02*
X322706000Y-93867800I0J-140000D01*
G01*
G37*
%TD*%
%TO.C,C63*%
G36*
G01*
X319360000Y-64203900D02*
X319360000Y-64543900D01*
G75*
G02*
X319220000Y-64683900I-140000J0D01*
G01*
X318940000Y-64683900D01*
G75*
G02*
X318800000Y-64543900I0J140000D01*
G01*
X318800000Y-64203900D01*
G75*
G02*
X318940000Y-64063900I140000J0D01*
G01*
X319220000Y-64063900D01*
G75*
G02*
X319360000Y-64203900I0J-140000D01*
G01*
G37*
G36*
G01*
X320320000Y-64203900D02*
X320320000Y-64543900D01*
G75*
G02*
X320180000Y-64683900I-140000J0D01*
G01*
X319900000Y-64683900D01*
G75*
G02*
X319760000Y-64543900I0J140000D01*
G01*
X319760000Y-64203900D01*
G75*
G02*
X319900000Y-64063900I140000J0D01*
G01*
X320180000Y-64063900D01*
G75*
G02*
X320320000Y-64203900I0J-140000D01*
G01*
G37*
%TD*%
%TO.C,C64*%
G36*
G01*
X321746000Y-100294000D02*
X321746000Y-100634000D01*
G75*
G02*
X321606000Y-100774000I-140000J0D01*
G01*
X321326000Y-100774000D01*
G75*
G02*
X321186000Y-100634000I0J140000D01*
G01*
X321186000Y-100294000D01*
G75*
G02*
X321326000Y-100154000I140000J0D01*
G01*
X321606000Y-100154000D01*
G75*
G02*
X321746000Y-100294000I0J-140000D01*
G01*
G37*
G36*
G01*
X322706000Y-100294000D02*
X322706000Y-100634000D01*
G75*
G02*
X322566000Y-100774000I-140000J0D01*
G01*
X322286000Y-100774000D01*
G75*
G02*
X322146000Y-100634000I0J140000D01*
G01*
X322146000Y-100294000D01*
G75*
G02*
X322286000Y-100154000I140000J0D01*
G01*
X322566000Y-100154000D01*
G75*
G02*
X322706000Y-100294000I0J-140000D01*
G01*
G37*
%TD*%
%TO.C,C66*%
G36*
G01*
X321746000Y-111005000D02*
X321746000Y-111345000D01*
G75*
G02*
X321606000Y-111485000I-140000J0D01*
G01*
X321326000Y-111485000D01*
G75*
G02*
X321186000Y-111345000I0J140000D01*
G01*
X321186000Y-111005000D01*
G75*
G02*
X321326000Y-110865000I140000J0D01*
G01*
X321606000Y-110865000D01*
G75*
G02*
X321746000Y-111005000I0J-140000D01*
G01*
G37*
G36*
G01*
X322706000Y-111005000D02*
X322706000Y-111345000D01*
G75*
G02*
X322566000Y-111485000I-140000J0D01*
G01*
X322286000Y-111485000D01*
G75*
G02*
X322146000Y-111345000I0J140000D01*
G01*
X322146000Y-111005000D01*
G75*
G02*
X322286000Y-110865000I140000J0D01*
G01*
X322566000Y-110865000D01*
G75*
G02*
X322706000Y-111005000I0J-140000D01*
G01*
G37*
%TD*%
%TO.C,C67*%
G36*
G01*
X321746000Y-79943800D02*
X321746000Y-80283800D01*
G75*
G02*
X321606000Y-80423800I-140000J0D01*
G01*
X321326000Y-80423800D01*
G75*
G02*
X321186000Y-80283800I0J140000D01*
G01*
X321186000Y-79943800D01*
G75*
G02*
X321326000Y-79803800I140000J0D01*
G01*
X321606000Y-79803800D01*
G75*
G02*
X321746000Y-79943800I0J-140000D01*
G01*
G37*
G36*
G01*
X322706000Y-79943800D02*
X322706000Y-80283800D01*
G75*
G02*
X322566000Y-80423800I-140000J0D01*
G01*
X322286000Y-80423800D01*
G75*
G02*
X322146000Y-80283800I0J140000D01*
G01*
X322146000Y-79943800D01*
G75*
G02*
X322286000Y-79803800I140000J0D01*
G01*
X322566000Y-79803800D01*
G75*
G02*
X322706000Y-79943800I0J-140000D01*
G01*
G37*
%TD*%
%TO.C,C71*%
G36*
G01*
X321746000Y-87441300D02*
X321746000Y-87781300D01*
G75*
G02*
X321606000Y-87921300I-140000J0D01*
G01*
X321326000Y-87921300D01*
G75*
G02*
X321186000Y-87781300I0J140000D01*
G01*
X321186000Y-87441300D01*
G75*
G02*
X321326000Y-87301300I140000J0D01*
G01*
X321606000Y-87301300D01*
G75*
G02*
X321746000Y-87441300I0J-140000D01*
G01*
G37*
G36*
G01*
X322706000Y-87441300D02*
X322706000Y-87781300D01*
G75*
G02*
X322566000Y-87921300I-140000J0D01*
G01*
X322286000Y-87921300D01*
G75*
G02*
X322146000Y-87781300I0J140000D01*
G01*
X322146000Y-87441300D01*
G75*
G02*
X322286000Y-87301300I140000J0D01*
G01*
X322566000Y-87301300D01*
G75*
G02*
X322706000Y-87441300I0J-140000D01*
G01*
G37*
%TD*%
%TO.C,C73*%
G36*
G01*
X319360000Y-60844900D02*
X319360000Y-61184900D01*
G75*
G02*
X319220000Y-61324900I-140000J0D01*
G01*
X318940000Y-61324900D01*
G75*
G02*
X318800000Y-61184900I0J140000D01*
G01*
X318800000Y-60844900D01*
G75*
G02*
X318940000Y-60704900I140000J0D01*
G01*
X319220000Y-60704900D01*
G75*
G02*
X319360000Y-60844900I0J-140000D01*
G01*
G37*
G36*
G01*
X320320000Y-60844900D02*
X320320000Y-61184900D01*
G75*
G02*
X320180000Y-61324900I-140000J0D01*
G01*
X319900000Y-61324900D01*
G75*
G02*
X319760000Y-61184900I0J140000D01*
G01*
X319760000Y-60844900D01*
G75*
G02*
X319900000Y-60704900I140000J0D01*
G01*
X320180000Y-60704900D01*
G75*
G02*
X320320000Y-60844900I0J-140000D01*
G01*
G37*
%TD*%
%TO.C,C74*%
G36*
G01*
X321746000Y-99223300D02*
X321746000Y-99563300D01*
G75*
G02*
X321606000Y-99703300I-140000J0D01*
G01*
X321326000Y-99703300D01*
G75*
G02*
X321186000Y-99563300I0J140000D01*
G01*
X321186000Y-99223300D01*
G75*
G02*
X321326000Y-99083300I140000J0D01*
G01*
X321606000Y-99083300D01*
G75*
G02*
X321746000Y-99223300I0J-140000D01*
G01*
G37*
G36*
G01*
X322706000Y-99223300D02*
X322706000Y-99563300D01*
G75*
G02*
X322566000Y-99703300I-140000J0D01*
G01*
X322286000Y-99703300D01*
G75*
G02*
X322146000Y-99563300I0J140000D01*
G01*
X322146000Y-99223300D01*
G75*
G02*
X322286000Y-99083300I140000J0D01*
G01*
X322566000Y-99083300D01*
G75*
G02*
X322706000Y-99223300I0J-140000D01*
G01*
G37*
%TD*%
%TO.C,C79*%
G36*
G01*
X321746000Y-74588200D02*
X321746000Y-74928200D01*
G75*
G02*
X321606000Y-75068200I-140000J0D01*
G01*
X321326000Y-75068200D01*
G75*
G02*
X321186000Y-74928200I0J140000D01*
G01*
X321186000Y-74588200D01*
G75*
G02*
X321326000Y-74448200I140000J0D01*
G01*
X321606000Y-74448200D01*
G75*
G02*
X321746000Y-74588200I0J-140000D01*
G01*
G37*
G36*
G01*
X322706000Y-74588200D02*
X322706000Y-74928200D01*
G75*
G02*
X322566000Y-75068200I-140000J0D01*
G01*
X322286000Y-75068200D01*
G75*
G02*
X322146000Y-74928200I0J140000D01*
G01*
X322146000Y-74588200D01*
G75*
G02*
X322286000Y-74448200I140000J0D01*
G01*
X322566000Y-74448200D01*
G75*
G02*
X322706000Y-74588200I0J-140000D01*
G01*
G37*
%TD*%
%TO.C,C81*%
G36*
G01*
X321746000Y-59593200D02*
X321746000Y-59933200D01*
G75*
G02*
X321606000Y-60073200I-140000J0D01*
G01*
X321326000Y-60073200D01*
G75*
G02*
X321186000Y-59933200I0J140000D01*
G01*
X321186000Y-59593200D01*
G75*
G02*
X321326000Y-59453200I140000J0D01*
G01*
X321606000Y-59453200D01*
G75*
G02*
X321746000Y-59593200I0J-140000D01*
G01*
G37*
G36*
G01*
X322706000Y-59593200D02*
X322706000Y-59933200D01*
G75*
G02*
X322566000Y-60073200I-140000J0D01*
G01*
X322286000Y-60073200D01*
G75*
G02*
X322146000Y-59933200I0J140000D01*
G01*
X322146000Y-59593200D01*
G75*
G02*
X322286000Y-59453200I140000J0D01*
G01*
X322566000Y-59453200D01*
G75*
G02*
X322706000Y-59593200I0J-140000D01*
G01*
G37*
%TD*%
%TO.C,C82*%
G36*
G01*
X319360000Y-80998800D02*
X319360000Y-81338800D01*
G75*
G02*
X319220000Y-81478800I-140000J0D01*
G01*
X318940000Y-81478800D01*
G75*
G02*
X318800000Y-81338800I0J140000D01*
G01*
X318800000Y-80998800D01*
G75*
G02*
X318940000Y-80858800I140000J0D01*
G01*
X319220000Y-80858800D01*
G75*
G02*
X319360000Y-80998800I0J-140000D01*
G01*
G37*
G36*
G01*
X320320000Y-80998800D02*
X320320000Y-81338800D01*
G75*
G02*
X320180000Y-81478800I-140000J0D01*
G01*
X319900000Y-81478800D01*
G75*
G02*
X319760000Y-81338800I0J140000D01*
G01*
X319760000Y-80998800D01*
G75*
G02*
X319900000Y-80858800I140000J0D01*
G01*
X320180000Y-80858800D01*
G75*
G02*
X320320000Y-80998800I0J-140000D01*
G01*
G37*
%TD*%
%TO.C,C83*%
G36*
G01*
X321746000Y-106721000D02*
X321746000Y-107061000D01*
G75*
G02*
X321606000Y-107201000I-140000J0D01*
G01*
X321326000Y-107201000D01*
G75*
G02*
X321186000Y-107061000I0J140000D01*
G01*
X321186000Y-106721000D01*
G75*
G02*
X321326000Y-106581000I140000J0D01*
G01*
X321606000Y-106581000D01*
G75*
G02*
X321746000Y-106721000I0J-140000D01*
G01*
G37*
G36*
G01*
X322706000Y-106721000D02*
X322706000Y-107061000D01*
G75*
G02*
X322566000Y-107201000I-140000J0D01*
G01*
X322286000Y-107201000D01*
G75*
G02*
X322146000Y-107061000I0J140000D01*
G01*
X322146000Y-106721000D01*
G75*
G02*
X322286000Y-106581000I140000J0D01*
G01*
X322566000Y-106581000D01*
G75*
G02*
X322706000Y-106721000I0J-140000D01*
G01*
G37*
%TD*%
%TO.C,C84*%
G36*
G01*
X321746000Y-86370300D02*
X321746000Y-86710300D01*
G75*
G02*
X321606000Y-86850300I-140000J0D01*
G01*
X321326000Y-86850300D01*
G75*
G02*
X321186000Y-86710300I0J140000D01*
G01*
X321186000Y-86370300D01*
G75*
G02*
X321326000Y-86230300I140000J0D01*
G01*
X321606000Y-86230300D01*
G75*
G02*
X321746000Y-86370300I0J-140000D01*
G01*
G37*
G36*
G01*
X322706000Y-86370300D02*
X322706000Y-86710300D01*
G75*
G02*
X322566000Y-86850300I-140000J0D01*
G01*
X322286000Y-86850300D01*
G75*
G02*
X322146000Y-86710300I0J140000D01*
G01*
X322146000Y-86370300D01*
G75*
G02*
X322286000Y-86230300I140000J0D01*
G01*
X322566000Y-86230300D01*
G75*
G02*
X322706000Y-86370300I0J-140000D01*
G01*
G37*
%TD*%
%TO.C,C88*%
G36*
G01*
X319360000Y-67562900D02*
X319360000Y-67902900D01*
G75*
G02*
X319220000Y-68042900I-140000J0D01*
G01*
X318940000Y-68042900D01*
G75*
G02*
X318800000Y-67902900I0J140000D01*
G01*
X318800000Y-67562900D01*
G75*
G02*
X318940000Y-67422900I140000J0D01*
G01*
X319220000Y-67422900D01*
G75*
G02*
X319360000Y-67562900I0J-140000D01*
G01*
G37*
G36*
G01*
X320320000Y-67562900D02*
X320320000Y-67902900D01*
G75*
G02*
X320180000Y-68042900I-140000J0D01*
G01*
X319900000Y-68042900D01*
G75*
G02*
X319760000Y-67902900I0J140000D01*
G01*
X319760000Y-67562900D01*
G75*
G02*
X319900000Y-67422900I140000J0D01*
G01*
X320180000Y-67422900D01*
G75*
G02*
X320320000Y-67562900I0J-140000D01*
G01*
G37*
%TD*%
%TO.C,C89*%
G36*
G01*
X321746000Y-67091200D02*
X321746000Y-67431200D01*
G75*
G02*
X321606000Y-67571200I-140000J0D01*
G01*
X321326000Y-67571200D01*
G75*
G02*
X321186000Y-67431200I0J140000D01*
G01*
X321186000Y-67091200D01*
G75*
G02*
X321326000Y-66951200I140000J0D01*
G01*
X321606000Y-66951200D01*
G75*
G02*
X321746000Y-67091200I0J-140000D01*
G01*
G37*
G36*
G01*
X322706000Y-67091200D02*
X322706000Y-67431200D01*
G75*
G02*
X322566000Y-67571200I-140000J0D01*
G01*
X322286000Y-67571200D01*
G75*
G02*
X322146000Y-67431200I0J140000D01*
G01*
X322146000Y-67091200D01*
G75*
G02*
X322286000Y-66951200I140000J0D01*
G01*
X322566000Y-66951200D01*
G75*
G02*
X322706000Y-67091200I0J-140000D01*
G01*
G37*
%TD*%
%TO.C,C91*%
G36*
G01*
X319360000Y-70921800D02*
X319360000Y-71261800D01*
G75*
G02*
X319220000Y-71401800I-140000J0D01*
G01*
X318940000Y-71401800D01*
G75*
G02*
X318800000Y-71261800I0J140000D01*
G01*
X318800000Y-70921800D01*
G75*
G02*
X318940000Y-70781800I140000J0D01*
G01*
X319220000Y-70781800D01*
G75*
G02*
X319360000Y-70921800I0J-140000D01*
G01*
G37*
G36*
G01*
X320320000Y-70921800D02*
X320320000Y-71261800D01*
G75*
G02*
X320180000Y-71401800I-140000J0D01*
G01*
X319900000Y-71401800D01*
G75*
G02*
X319760000Y-71261800I0J140000D01*
G01*
X319760000Y-70921800D01*
G75*
G02*
X319900000Y-70781800I140000J0D01*
G01*
X320180000Y-70781800D01*
G75*
G02*
X320320000Y-70921800I0J-140000D01*
G01*
G37*
%TD*%
%TO.C,C93*%
G36*
G01*
X321746000Y-73517200D02*
X321746000Y-73857200D01*
G75*
G02*
X321606000Y-73997200I-140000J0D01*
G01*
X321326000Y-73997200D01*
G75*
G02*
X321186000Y-73857200I0J140000D01*
G01*
X321186000Y-73517200D01*
G75*
G02*
X321326000Y-73377200I140000J0D01*
G01*
X321606000Y-73377200D01*
G75*
G02*
X321746000Y-73517200I0J-140000D01*
G01*
G37*
G36*
G01*
X322706000Y-73517200D02*
X322706000Y-73857200D01*
G75*
G02*
X322566000Y-73997200I-140000J0D01*
G01*
X322286000Y-73997200D01*
G75*
G02*
X322146000Y-73857200I0J140000D01*
G01*
X322146000Y-73517200D01*
G75*
G02*
X322286000Y-73377200I140000J0D01*
G01*
X322566000Y-73377200D01*
G75*
G02*
X322706000Y-73517200I0J-140000D01*
G01*
G37*
%TD*%
%TO.C,C96*%
G36*
G01*
X319360000Y-69802200D02*
X319360000Y-70142200D01*
G75*
G02*
X319220000Y-70282200I-140000J0D01*
G01*
X318940000Y-70282200D01*
G75*
G02*
X318800000Y-70142200I0J140000D01*
G01*
X318800000Y-69802200D01*
G75*
G02*
X318940000Y-69662200I140000J0D01*
G01*
X319220000Y-69662200D01*
G75*
G02*
X319360000Y-69802200I0J-140000D01*
G01*
G37*
G36*
G01*
X320320000Y-69802200D02*
X320320000Y-70142200D01*
G75*
G02*
X320180000Y-70282200I-140000J0D01*
G01*
X319900000Y-70282200D01*
G75*
G02*
X319760000Y-70142200I0J140000D01*
G01*
X319760000Y-69802200D01*
G75*
G02*
X319900000Y-69662200I140000J0D01*
G01*
X320180000Y-69662200D01*
G75*
G02*
X320320000Y-69802200I0J-140000D01*
G01*
G37*
%TD*%
%TO.C,C97*%
G36*
G01*
X321746000Y-81014800D02*
X321746000Y-81354800D01*
G75*
G02*
X321606000Y-81494800I-140000J0D01*
G01*
X321326000Y-81494800D01*
G75*
G02*
X321186000Y-81354800I0J140000D01*
G01*
X321186000Y-81014800D01*
G75*
G02*
X321326000Y-80874800I140000J0D01*
G01*
X321606000Y-80874800D01*
G75*
G02*
X321746000Y-81014800I0J-140000D01*
G01*
G37*
G36*
G01*
X322706000Y-81014800D02*
X322706000Y-81354800D01*
G75*
G02*
X322566000Y-81494800I-140000J0D01*
G01*
X322286000Y-81494800D01*
G75*
G02*
X322146000Y-81354800I0J140000D01*
G01*
X322146000Y-81014800D01*
G75*
G02*
X322286000Y-80874800I140000J0D01*
G01*
X322566000Y-80874800D01*
G75*
G02*
X322706000Y-81014800I0J-140000D01*
G01*
G37*
%TD*%
%TO.C,C98*%
G36*
G01*
X321746000Y-61735200D02*
X321746000Y-62075200D01*
G75*
G02*
X321606000Y-62215200I-140000J0D01*
G01*
X321326000Y-62215200D01*
G75*
G02*
X321186000Y-62075200I0J140000D01*
G01*
X321186000Y-61735200D01*
G75*
G02*
X321326000Y-61595200I140000J0D01*
G01*
X321606000Y-61595200D01*
G75*
G02*
X321746000Y-61735200I0J-140000D01*
G01*
G37*
G36*
G01*
X322706000Y-61735200D02*
X322706000Y-62075200D01*
G75*
G02*
X322566000Y-62215200I-140000J0D01*
G01*
X322286000Y-62215200D01*
G75*
G02*
X322146000Y-62075200I0J140000D01*
G01*
X322146000Y-61735200D01*
G75*
G02*
X322286000Y-61595200I140000J0D01*
G01*
X322566000Y-61595200D01*
G75*
G02*
X322706000Y-61735200I0J-140000D01*
G01*
G37*
%TD*%
%TO.C,C101*%
G36*
G01*
X321746000Y-68162200D02*
X321746000Y-68502200D01*
G75*
G02*
X321606000Y-68642200I-140000J0D01*
G01*
X321326000Y-68642200D01*
G75*
G02*
X321186000Y-68502200I0J140000D01*
G01*
X321186000Y-68162200D01*
G75*
G02*
X321326000Y-68022200I140000J0D01*
G01*
X321606000Y-68022200D01*
G75*
G02*
X321746000Y-68162200I0J-140000D01*
G01*
G37*
G36*
G01*
X322706000Y-68162200D02*
X322706000Y-68502200D01*
G75*
G02*
X322566000Y-68642200I-140000J0D01*
G01*
X322286000Y-68642200D01*
G75*
G02*
X322146000Y-68502200I0J140000D01*
G01*
X322146000Y-68162200D01*
G75*
G02*
X322286000Y-68022200I140000J0D01*
G01*
X322566000Y-68022200D01*
G75*
G02*
X322706000Y-68162200I0J-140000D01*
G01*
G37*
%TD*%
%TO.C,C23*%
G36*
G01*
X321746000Y-116361000D02*
X321746000Y-116701000D01*
G75*
G02*
X321606000Y-116841000I-140000J0D01*
G01*
X321326000Y-116841000D01*
G75*
G02*
X321186000Y-116701000I0J140000D01*
G01*
X321186000Y-116361000D01*
G75*
G02*
X321326000Y-116221000I140000J0D01*
G01*
X321606000Y-116221000D01*
G75*
G02*
X321746000Y-116361000I0J-140000D01*
G01*
G37*
G36*
G01*
X322706000Y-116361000D02*
X322706000Y-116701000D01*
G75*
G02*
X322566000Y-116841000I-140000J0D01*
G01*
X322286000Y-116841000D01*
G75*
G02*
X322146000Y-116701000I0J140000D01*
G01*
X322146000Y-116361000D01*
G75*
G02*
X322286000Y-116221000I140000J0D01*
G01*
X322566000Y-116221000D01*
G75*
G02*
X322706000Y-116361000I0J-140000D01*
G01*
G37*
%TD*%
%TO.C,C26*%
G36*
G01*
X321746000Y-103508000D02*
X321746000Y-103848000D01*
G75*
G02*
X321606000Y-103988000I-140000J0D01*
G01*
X321326000Y-103988000D01*
G75*
G02*
X321186000Y-103848000I0J140000D01*
G01*
X321186000Y-103508000D01*
G75*
G02*
X321326000Y-103368000I140000J0D01*
G01*
X321606000Y-103368000D01*
G75*
G02*
X321746000Y-103508000I0J-140000D01*
G01*
G37*
G36*
G01*
X322706000Y-103508000D02*
X322706000Y-103848000D01*
G75*
G02*
X322566000Y-103988000I-140000J0D01*
G01*
X322286000Y-103988000D01*
G75*
G02*
X322146000Y-103848000I0J140000D01*
G01*
X322146000Y-103508000D01*
G75*
G02*
X322286000Y-103368000I140000J0D01*
G01*
X322566000Y-103368000D01*
G75*
G02*
X322706000Y-103508000I0J-140000D01*
G01*
G37*
%TD*%
%TO.C,C28*%
G36*
G01*
X319360000Y-74280800D02*
X319360000Y-74620800D01*
G75*
G02*
X319220000Y-74760800I-140000J0D01*
G01*
X318940000Y-74760800D01*
G75*
G02*
X318800000Y-74620800I0J140000D01*
G01*
X318800000Y-74280800D01*
G75*
G02*
X318940000Y-74140800I140000J0D01*
G01*
X319220000Y-74140800D01*
G75*
G02*
X319360000Y-74280800I0J-140000D01*
G01*
G37*
G36*
G01*
X320320000Y-74280800D02*
X320320000Y-74620800D01*
G75*
G02*
X320180000Y-74760800I-140000J0D01*
G01*
X319900000Y-74760800D01*
G75*
G02*
X319760000Y-74620800I0J140000D01*
G01*
X319760000Y-74280800D01*
G75*
G02*
X319900000Y-74140800I140000J0D01*
G01*
X320180000Y-74140800D01*
G75*
G02*
X320320000Y-74280800I0J-140000D01*
G01*
G37*
%TD*%
%TO.C,C15*%
G36*
G01*
X321746000Y-114218000D02*
X321746000Y-114558000D01*
G75*
G02*
X321606000Y-114698000I-140000J0D01*
G01*
X321326000Y-114698000D01*
G75*
G02*
X321186000Y-114558000I0J140000D01*
G01*
X321186000Y-114218000D01*
G75*
G02*
X321326000Y-114078000I140000J0D01*
G01*
X321606000Y-114078000D01*
G75*
G02*
X321746000Y-114218000I0J-140000D01*
G01*
G37*
G36*
G01*
X322706000Y-114218000D02*
X322706000Y-114558000D01*
G75*
G02*
X322566000Y-114698000I-140000J0D01*
G01*
X322286000Y-114698000D01*
G75*
G02*
X322146000Y-114558000I0J140000D01*
G01*
X322146000Y-114218000D01*
G75*
G02*
X322286000Y-114078000I140000J0D01*
G01*
X322566000Y-114078000D01*
G75*
G02*
X322706000Y-114218000I0J-140000D01*
G01*
G37*
%TD*%
%TO.C,C21*%
G36*
G01*
X321746000Y-109934000D02*
X321746000Y-110274000D01*
G75*
G02*
X321606000Y-110414000I-140000J0D01*
G01*
X321326000Y-110414000D01*
G75*
G02*
X321186000Y-110274000I0J140000D01*
G01*
X321186000Y-109934000D01*
G75*
G02*
X321326000Y-109794000I140000J0D01*
G01*
X321606000Y-109794000D01*
G75*
G02*
X321746000Y-109934000I0J-140000D01*
G01*
G37*
G36*
G01*
X322706000Y-109934000D02*
X322706000Y-110274000D01*
G75*
G02*
X322566000Y-110414000I-140000J0D01*
G01*
X322286000Y-110414000D01*
G75*
G02*
X322146000Y-110274000I0J140000D01*
G01*
X322146000Y-109934000D01*
G75*
G02*
X322286000Y-109794000I140000J0D01*
G01*
X322566000Y-109794000D01*
G75*
G02*
X322706000Y-109934000I0J-140000D01*
G01*
G37*
%TD*%
%TO.C,C19*%
G36*
G01*
X321746000Y-71375200D02*
X321746000Y-71715200D01*
G75*
G02*
X321606000Y-71855200I-140000J0D01*
G01*
X321326000Y-71855200D01*
G75*
G02*
X321186000Y-71715200I0J140000D01*
G01*
X321186000Y-71375200D01*
G75*
G02*
X321326000Y-71235200I140000J0D01*
G01*
X321606000Y-71235200D01*
G75*
G02*
X321746000Y-71375200I0J-140000D01*
G01*
G37*
G36*
G01*
X322706000Y-71375200D02*
X322706000Y-71715200D01*
G75*
G02*
X322566000Y-71855200I-140000J0D01*
G01*
X322286000Y-71855200D01*
G75*
G02*
X322146000Y-71715200I0J140000D01*
G01*
X322146000Y-71375200D01*
G75*
G02*
X322286000Y-71235200I140000J0D01*
G01*
X322566000Y-71235200D01*
G75*
G02*
X322706000Y-71375200I0J-140000D01*
G01*
G37*
%TD*%
%TO.C,C44*%
G36*
G01*
X319360000Y-61964600D02*
X319360000Y-62304600D01*
G75*
G02*
X319220000Y-62444600I-140000J0D01*
G01*
X318940000Y-62444600D01*
G75*
G02*
X318800000Y-62304600I0J140000D01*
G01*
X318800000Y-61964600D01*
G75*
G02*
X318940000Y-61824600I140000J0D01*
G01*
X319220000Y-61824600D01*
G75*
G02*
X319360000Y-61964600I0J-140000D01*
G01*
G37*
G36*
G01*
X320320000Y-61964600D02*
X320320000Y-62304600D01*
G75*
G02*
X320180000Y-62444600I-140000J0D01*
G01*
X319900000Y-62444600D01*
G75*
G02*
X319760000Y-62304600I0J140000D01*
G01*
X319760000Y-61964600D01*
G75*
G02*
X319900000Y-61824600I140000J0D01*
G01*
X320180000Y-61824600D01*
G75*
G02*
X320320000Y-61964600I0J-140000D01*
G01*
G37*
%TD*%
%TO.C,C38*%
G36*
G01*
X319360000Y-75400500D02*
X319360000Y-75740500D01*
G75*
G02*
X319220000Y-75880500I-140000J0D01*
G01*
X318940000Y-75880500D01*
G75*
G02*
X318800000Y-75740500I0J140000D01*
G01*
X318800000Y-75400500D01*
G75*
G02*
X318940000Y-75260500I140000J0D01*
G01*
X319220000Y-75260500D01*
G75*
G02*
X319360000Y-75400500I0J-140000D01*
G01*
G37*
G36*
G01*
X320320000Y-75400500D02*
X320320000Y-75740500D01*
G75*
G02*
X320180000Y-75880500I-140000J0D01*
G01*
X319900000Y-75880500D01*
G75*
G02*
X319760000Y-75740500I0J140000D01*
G01*
X319760000Y-75400500D01*
G75*
G02*
X319900000Y-75260500I140000J0D01*
G01*
X320180000Y-75260500D01*
G75*
G02*
X320320000Y-75400500I0J-140000D01*
G01*
G37*
%TD*%
%TO.C,C52*%
G36*
G01*
X319360000Y-84357800D02*
X319360000Y-84697800D01*
G75*
G02*
X319220000Y-84837800I-140000J0D01*
G01*
X318940000Y-84837800D01*
G75*
G02*
X318800000Y-84697800I0J140000D01*
G01*
X318800000Y-84357800D01*
G75*
G02*
X318940000Y-84217800I140000J0D01*
G01*
X319220000Y-84217800D01*
G75*
G02*
X319360000Y-84357800I0J-140000D01*
G01*
G37*
G36*
G01*
X320320000Y-84357800D02*
X320320000Y-84697800D01*
G75*
G02*
X320180000Y-84837800I-140000J0D01*
G01*
X319900000Y-84837800D01*
G75*
G02*
X319760000Y-84697800I0J140000D01*
G01*
X319760000Y-84357800D01*
G75*
G02*
X319900000Y-84217800I140000J0D01*
G01*
X320180000Y-84217800D01*
G75*
G02*
X320320000Y-84357800I0J-140000D01*
G01*
G37*
%TD*%
%TO.C,C34*%
G36*
G01*
X321746000Y-97081100D02*
X321746000Y-97421100D01*
G75*
G02*
X321606000Y-97561100I-140000J0D01*
G01*
X321326000Y-97561100D01*
G75*
G02*
X321186000Y-97421100I0J140000D01*
G01*
X321186000Y-97081100D01*
G75*
G02*
X321326000Y-96941100I140000J0D01*
G01*
X321606000Y-96941100D01*
G75*
G02*
X321746000Y-97081100I0J-140000D01*
G01*
G37*
G36*
G01*
X322706000Y-97081100D02*
X322706000Y-97421100D01*
G75*
G02*
X322566000Y-97561100I-140000J0D01*
G01*
X322286000Y-97561100D01*
G75*
G02*
X322146000Y-97421100I0J140000D01*
G01*
X322146000Y-97081100D01*
G75*
G02*
X322286000Y-96941100I140000J0D01*
G01*
X322566000Y-96941100D01*
G75*
G02*
X322706000Y-97081100I0J-140000D01*
G01*
G37*
%TD*%
%TO.C,C43*%
G36*
G01*
X321746000Y-64948200D02*
X321746000Y-65288200D01*
G75*
G02*
X321606000Y-65428200I-140000J0D01*
G01*
X321326000Y-65428200D01*
G75*
G02*
X321186000Y-65288200I0J140000D01*
G01*
X321186000Y-64948200D01*
G75*
G02*
X321326000Y-64808200I140000J0D01*
G01*
X321606000Y-64808200D01*
G75*
G02*
X321746000Y-64948200I0J-140000D01*
G01*
G37*
G36*
G01*
X322706000Y-64948200D02*
X322706000Y-65288200D01*
G75*
G02*
X322566000Y-65428200I-140000J0D01*
G01*
X322286000Y-65428200D01*
G75*
G02*
X322146000Y-65288200I0J140000D01*
G01*
X322146000Y-64948200D01*
G75*
G02*
X322286000Y-64808200I140000J0D01*
G01*
X322566000Y-64808200D01*
G75*
G02*
X322706000Y-64948200I0J-140000D01*
G01*
G37*
%TD*%
%TO.C,C53*%
G36*
G01*
X321746000Y-108863000D02*
X321746000Y-109203000D01*
G75*
G02*
X321606000Y-109343000I-140000J0D01*
G01*
X321326000Y-109343000D01*
G75*
G02*
X321186000Y-109203000I0J140000D01*
G01*
X321186000Y-108863000D01*
G75*
G02*
X321326000Y-108723000I140000J0D01*
G01*
X321606000Y-108723000D01*
G75*
G02*
X321746000Y-108863000I0J-140000D01*
G01*
G37*
G36*
G01*
X322706000Y-108863000D02*
X322706000Y-109203000D01*
G75*
G02*
X322566000Y-109343000I-140000J0D01*
G01*
X322286000Y-109343000D01*
G75*
G02*
X322146000Y-109203000I0J140000D01*
G01*
X322146000Y-108863000D01*
G75*
G02*
X322286000Y-108723000I140000J0D01*
G01*
X322566000Y-108723000D01*
G75*
G02*
X322706000Y-108863000I0J-140000D01*
G01*
G37*
%TD*%
%TO.C,C59*%
G36*
G01*
X321746000Y-96010000D02*
X321746000Y-96350000D01*
G75*
G02*
X321606000Y-96490000I-140000J0D01*
G01*
X321326000Y-96490000D01*
G75*
G02*
X321186000Y-96350000I0J140000D01*
G01*
X321186000Y-96010000D01*
G75*
G02*
X321326000Y-95870000I140000J0D01*
G01*
X321606000Y-95870000D01*
G75*
G02*
X321746000Y-96010000I0J-140000D01*
G01*
G37*
G36*
G01*
X322706000Y-96010000D02*
X322706000Y-96350000D01*
G75*
G02*
X322566000Y-96490000I-140000J0D01*
G01*
X322286000Y-96490000D01*
G75*
G02*
X322146000Y-96350000I0J140000D01*
G01*
X322146000Y-96010000D01*
G75*
G02*
X322286000Y-95870000I140000J0D01*
G01*
X322566000Y-95870000D01*
G75*
G02*
X322706000Y-96010000I0J-140000D01*
G01*
G37*
%TD*%
%TO.C,C78*%
G36*
G01*
X321746000Y-102436000D02*
X321746000Y-102776000D01*
G75*
G02*
X321606000Y-102916000I-140000J0D01*
G01*
X321326000Y-102916000D01*
G75*
G02*
X321186000Y-102776000I0J140000D01*
G01*
X321186000Y-102436000D01*
G75*
G02*
X321326000Y-102296000I140000J0D01*
G01*
X321606000Y-102296000D01*
G75*
G02*
X321746000Y-102436000I0J-140000D01*
G01*
G37*
G36*
G01*
X322706000Y-102436000D02*
X322706000Y-102776000D01*
G75*
G02*
X322566000Y-102916000I-140000J0D01*
G01*
X322286000Y-102916000D01*
G75*
G02*
X322146000Y-102776000I0J140000D01*
G01*
X322146000Y-102436000D01*
G75*
G02*
X322286000Y-102296000I140000J0D01*
G01*
X322566000Y-102296000D01*
G75*
G02*
X322706000Y-102436000I0J-140000D01*
G01*
G37*
%TD*%
%TO.C,C86*%
G36*
G01*
X321731000Y-58532200D02*
X321731000Y-58872200D01*
G75*
G02*
X321591000Y-59012200I-140000J0D01*
G01*
X321311000Y-59012200D01*
G75*
G02*
X321171000Y-58872200I0J140000D01*
G01*
X321171000Y-58532200D01*
G75*
G02*
X321311000Y-58392200I140000J0D01*
G01*
X321591000Y-58392200D01*
G75*
G02*
X321731000Y-58532200I0J-140000D01*
G01*
G37*
G36*
G01*
X322691000Y-58532200D02*
X322691000Y-58872200D01*
G75*
G02*
X322551000Y-59012200I-140000J0D01*
G01*
X322271000Y-59012200D01*
G75*
G02*
X322131000Y-58872200I0J140000D01*
G01*
X322131000Y-58532200D01*
G75*
G02*
X322271000Y-58392200I140000J0D01*
G01*
X322551000Y-58392200D01*
G75*
G02*
X322691000Y-58532200I0J-140000D01*
G01*
G37*
%TD*%
%TO.C,C92*%
G36*
G01*
X321746000Y-76730500D02*
X321746000Y-77070500D01*
G75*
G02*
X321606000Y-77210500I-140000J0D01*
G01*
X321326000Y-77210500D01*
G75*
G02*
X321186000Y-77070500I0J140000D01*
G01*
X321186000Y-76730500D01*
G75*
G02*
X321326000Y-76590500I140000J0D01*
G01*
X321606000Y-76590500D01*
G75*
G02*
X321746000Y-76730500I0J-140000D01*
G01*
G37*
G36*
G01*
X322706000Y-76730500D02*
X322706000Y-77070500D01*
G75*
G02*
X322566000Y-77210500I-140000J0D01*
G01*
X322286000Y-77210500D01*
G75*
G02*
X322146000Y-77070500I0J140000D01*
G01*
X322146000Y-76730500D01*
G75*
G02*
X322286000Y-76590500I140000J0D01*
G01*
X322566000Y-76590500D01*
G75*
G02*
X322706000Y-76730500I0J-140000D01*
G01*
G37*
%TD*%
%TO.C,C99*%
G36*
G01*
X321746000Y-70304200D02*
X321746000Y-70644200D01*
G75*
G02*
X321606000Y-70784200I-140000J0D01*
G01*
X321326000Y-70784200D01*
G75*
G02*
X321186000Y-70644200I0J140000D01*
G01*
X321186000Y-70304200D01*
G75*
G02*
X321326000Y-70164200I140000J0D01*
G01*
X321606000Y-70164200D01*
G75*
G02*
X321746000Y-70304200I0J-140000D01*
G01*
G37*
G36*
G01*
X322706000Y-70304200D02*
X322706000Y-70644200D01*
G75*
G02*
X322566000Y-70784200I-140000J0D01*
G01*
X322286000Y-70784200D01*
G75*
G02*
X322146000Y-70644200I0J140000D01*
G01*
X322146000Y-70304200D01*
G75*
G02*
X322286000Y-70164200I140000J0D01*
G01*
X322566000Y-70164200D01*
G75*
G02*
X322706000Y-70304200I0J-140000D01*
G01*
G37*
%TD*%
%TO.C,C87*%
G36*
G01*
X321746000Y-89583500D02*
X321746000Y-89923500D01*
G75*
G02*
X321606000Y-90063500I-140000J0D01*
G01*
X321326000Y-90063500D01*
G75*
G02*
X321186000Y-89923500I0J140000D01*
G01*
X321186000Y-89583500D01*
G75*
G02*
X321326000Y-89443500I140000J0D01*
G01*
X321606000Y-89443500D01*
G75*
G02*
X321746000Y-89583500I0J-140000D01*
G01*
G37*
G36*
G01*
X322706000Y-89583500D02*
X322706000Y-89923500D01*
G75*
G02*
X322566000Y-90063500I-140000J0D01*
G01*
X322286000Y-90063500D01*
G75*
G02*
X322146000Y-89923500I0J140000D01*
G01*
X322146000Y-89583500D01*
G75*
G02*
X322286000Y-89443500I140000J0D01*
G01*
X322566000Y-89443500D01*
G75*
G02*
X322706000Y-89583500I0J-140000D01*
G01*
G37*
%TD*%
%TO.C,C76*%
G36*
G01*
X319360000Y-65323600D02*
X319360000Y-65663600D01*
G75*
G02*
X319220000Y-65803600I-140000J0D01*
G01*
X318940000Y-65803600D01*
G75*
G02*
X318800000Y-65663600I0J140000D01*
G01*
X318800000Y-65323600D01*
G75*
G02*
X318940000Y-65183600I140000J0D01*
G01*
X319220000Y-65183600D01*
G75*
G02*
X319360000Y-65323600I0J-140000D01*
G01*
G37*
G36*
G01*
X320320000Y-65323600D02*
X320320000Y-65663600D01*
G75*
G02*
X320180000Y-65803600I-140000J0D01*
G01*
X319900000Y-65803600D01*
G75*
G02*
X319760000Y-65663600I0J140000D01*
G01*
X319760000Y-65323600D01*
G75*
G02*
X319900000Y-65183600I140000J0D01*
G01*
X320180000Y-65183600D01*
G75*
G02*
X320320000Y-65323600I0J-140000D01*
G01*
G37*
%TD*%
%TO.C,C94*%
G36*
G01*
X319360000Y-68682500D02*
X319360000Y-69022500D01*
G75*
G02*
X319220000Y-69162500I-140000J0D01*
G01*
X318940000Y-69162500D01*
G75*
G02*
X318800000Y-69022500I0J140000D01*
G01*
X318800000Y-68682500D01*
G75*
G02*
X318940000Y-68542500I140000J0D01*
G01*
X319220000Y-68542500D01*
G75*
G02*
X319360000Y-68682500I0J-140000D01*
G01*
G37*
G36*
G01*
X320320000Y-68682500D02*
X320320000Y-69022500D01*
G75*
G02*
X320180000Y-69162500I-140000J0D01*
G01*
X319900000Y-69162500D01*
G75*
G02*
X319760000Y-69022500I0J140000D01*
G01*
X319760000Y-68682500D01*
G75*
G02*
X319900000Y-68542500I140000J0D01*
G01*
X320180000Y-68542500D01*
G75*
G02*
X320320000Y-68682500I0J-140000D01*
G01*
G37*
%TD*%
%TO.C,C77*%
G36*
G01*
X319360000Y-73161200D02*
X319360000Y-73501200D01*
G75*
G02*
X319220000Y-73641200I-140000J0D01*
G01*
X318940000Y-73641200D01*
G75*
G02*
X318800000Y-73501200I0J140000D01*
G01*
X318800000Y-73161200D01*
G75*
G02*
X318940000Y-73021200I140000J0D01*
G01*
X319220000Y-73021200D01*
G75*
G02*
X319360000Y-73161200I0J-140000D01*
G01*
G37*
G36*
G01*
X320320000Y-73161200D02*
X320320000Y-73501200D01*
G75*
G02*
X320180000Y-73641200I-140000J0D01*
G01*
X319900000Y-73641200D01*
G75*
G02*
X319760000Y-73501200I0J140000D01*
G01*
X319760000Y-73161200D01*
G75*
G02*
X319900000Y-73021200I140000J0D01*
G01*
X320180000Y-73021200D01*
G75*
G02*
X320320000Y-73161200I0J-140000D01*
G01*
G37*
%TD*%
%TO.C,C69*%
G36*
G01*
X321746000Y-63877200D02*
X321746000Y-64217200D01*
G75*
G02*
X321606000Y-64357200I-140000J0D01*
G01*
X321326000Y-64357200D01*
G75*
G02*
X321186000Y-64217200I0J140000D01*
G01*
X321186000Y-63877200D01*
G75*
G02*
X321326000Y-63737200I140000J0D01*
G01*
X321606000Y-63737200D01*
G75*
G02*
X321746000Y-63877200I0J-140000D01*
G01*
G37*
G36*
G01*
X322706000Y-63877200D02*
X322706000Y-64217200D01*
G75*
G02*
X322566000Y-64357200I-140000J0D01*
G01*
X322286000Y-64357200D01*
G75*
G02*
X322146000Y-64217200I0J140000D01*
G01*
X322146000Y-63877200D01*
G75*
G02*
X322286000Y-63737200I140000J0D01*
G01*
X322566000Y-63737200D01*
G75*
G02*
X322706000Y-63877200I0J-140000D01*
G01*
G37*
%TD*%
%TO.C,C68*%
G36*
G01*
X321746000Y-83157000D02*
X321746000Y-83497000D01*
G75*
G02*
X321606000Y-83637000I-140000J0D01*
G01*
X321326000Y-83637000D01*
G75*
G02*
X321186000Y-83497000I0J140000D01*
G01*
X321186000Y-83157000D01*
G75*
G02*
X321326000Y-83017000I140000J0D01*
G01*
X321606000Y-83017000D01*
G75*
G02*
X321746000Y-83157000I0J-140000D01*
G01*
G37*
G36*
G01*
X322706000Y-83157000D02*
X322706000Y-83497000D01*
G75*
G02*
X322566000Y-83637000I-140000J0D01*
G01*
X322286000Y-83637000D01*
G75*
G02*
X322146000Y-83497000I0J140000D01*
G01*
X322146000Y-83157000D01*
G75*
G02*
X322286000Y-83017000I140000J0D01*
G01*
X322566000Y-83017000D01*
G75*
G02*
X322706000Y-83157000I0J-140000D01*
G01*
G37*
%TD*%
%TO.C,C72*%
G36*
G01*
X319360000Y-58605600D02*
X319360000Y-58945600D01*
G75*
G02*
X319220000Y-59085600I-140000J0D01*
G01*
X318940000Y-59085600D01*
G75*
G02*
X318800000Y-58945600I0J140000D01*
G01*
X318800000Y-58605600D01*
G75*
G02*
X318940000Y-58465600I140000J0D01*
G01*
X319220000Y-58465600D01*
G75*
G02*
X319360000Y-58605600I0J-140000D01*
G01*
G37*
G36*
G01*
X320320000Y-58605600D02*
X320320000Y-58945600D01*
G75*
G02*
X320180000Y-59085600I-140000J0D01*
G01*
X319900000Y-59085600D01*
G75*
G02*
X319760000Y-58945600I0J140000D01*
G01*
X319760000Y-58605600D01*
G75*
G02*
X319900000Y-58465600I140000J0D01*
G01*
X320180000Y-58465600D01*
G75*
G02*
X320320000Y-58605600I0J-140000D01*
G01*
G37*
%TD*%
%TO.C,C4*%
G36*
G01*
X321746000Y-120645000D02*
X321746000Y-120985000D01*
G75*
G02*
X321606000Y-121125000I-140000J0D01*
G01*
X321326000Y-121125000D01*
G75*
G02*
X321186000Y-120985000I0J140000D01*
G01*
X321186000Y-120645000D01*
G75*
G02*
X321326000Y-120505000I140000J0D01*
G01*
X321606000Y-120505000D01*
G75*
G02*
X321746000Y-120645000I0J-140000D01*
G01*
G37*
G36*
G01*
X322706000Y-120645000D02*
X322706000Y-120985000D01*
G75*
G02*
X322566000Y-121125000I-140000J0D01*
G01*
X322286000Y-121125000D01*
G75*
G02*
X322146000Y-120985000I0J140000D01*
G01*
X322146000Y-120645000D01*
G75*
G02*
X322286000Y-120505000I140000J0D01*
G01*
X322566000Y-120505000D01*
G75*
G02*
X322706000Y-120645000I0J-140000D01*
G01*
G37*
%TD*%
%TO.C,C7*%
G36*
G01*
X321746000Y-118503000D02*
X321746000Y-118843000D01*
G75*
G02*
X321606000Y-118983000I-140000J0D01*
G01*
X321326000Y-118983000D01*
G75*
G02*
X321186000Y-118843000I0J140000D01*
G01*
X321186000Y-118503000D01*
G75*
G02*
X321326000Y-118363000I140000J0D01*
G01*
X321606000Y-118363000D01*
G75*
G02*
X321746000Y-118503000I0J-140000D01*
G01*
G37*
G36*
G01*
X322706000Y-118503000D02*
X322706000Y-118843000D01*
G75*
G02*
X322566000Y-118983000I-140000J0D01*
G01*
X322286000Y-118983000D01*
G75*
G02*
X322146000Y-118843000I0J140000D01*
G01*
X322146000Y-118503000D01*
G75*
G02*
X322286000Y-118363000I140000J0D01*
G01*
X322566000Y-118363000D01*
G75*
G02*
X322706000Y-118503000I0J-140000D01*
G01*
G37*
%TD*%
%TO.C,C10*%
G36*
G01*
X321746000Y-90654600D02*
X321746000Y-90994600D01*
G75*
G02*
X321606000Y-91134600I-140000J0D01*
G01*
X321326000Y-91134600D01*
G75*
G02*
X321186000Y-90994600I0J140000D01*
G01*
X321186000Y-90654600D01*
G75*
G02*
X321326000Y-90514600I140000J0D01*
G01*
X321606000Y-90514600D01*
G75*
G02*
X321746000Y-90654600I0J-140000D01*
G01*
G37*
G36*
G01*
X322706000Y-90654600D02*
X322706000Y-90994600D01*
G75*
G02*
X322566000Y-91134600I-140000J0D01*
G01*
X322286000Y-91134600D01*
G75*
G02*
X322146000Y-90994600I0J140000D01*
G01*
X322146000Y-90654600D01*
G75*
G02*
X322286000Y-90514600I140000J0D01*
G01*
X322566000Y-90514600D01*
G75*
G02*
X322706000Y-90654600I0J-140000D01*
G01*
G37*
%TD*%
%TO.C,C14*%
G36*
G01*
X321746000Y-84228100D02*
X321746000Y-84568100D01*
G75*
G02*
X321606000Y-84708100I-140000J0D01*
G01*
X321326000Y-84708100D01*
G75*
G02*
X321186000Y-84568100I0J140000D01*
G01*
X321186000Y-84228100D01*
G75*
G02*
X321326000Y-84088100I140000J0D01*
G01*
X321606000Y-84088100D01*
G75*
G02*
X321746000Y-84228100I0J-140000D01*
G01*
G37*
G36*
G01*
X322706000Y-84228100D02*
X322706000Y-84568100D01*
G75*
G02*
X322566000Y-84708100I-140000J0D01*
G01*
X322286000Y-84708100D01*
G75*
G02*
X322146000Y-84568100I0J140000D01*
G01*
X322146000Y-84228100D01*
G75*
G02*
X322286000Y-84088100I140000J0D01*
G01*
X322566000Y-84088100D01*
G75*
G02*
X322706000Y-84228100I0J-140000D01*
G01*
G37*
%TD*%
%TO.C,C2*%
G36*
G01*
X319360000Y-83238100D02*
X319360000Y-83578100D01*
G75*
G02*
X319220000Y-83718100I-140000J0D01*
G01*
X318940000Y-83718100D01*
G75*
G02*
X318800000Y-83578100I0J140000D01*
G01*
X318800000Y-83238100D01*
G75*
G02*
X318940000Y-83098100I140000J0D01*
G01*
X319220000Y-83098100D01*
G75*
G02*
X319360000Y-83238100I0J-140000D01*
G01*
G37*
G36*
G01*
X320320000Y-83238100D02*
X320320000Y-83578100D01*
G75*
G02*
X320180000Y-83718100I-140000J0D01*
G01*
X319900000Y-83718100D01*
G75*
G02*
X319760000Y-83578100I0J140000D01*
G01*
X319760000Y-83238100D01*
G75*
G02*
X319900000Y-83098100I140000J0D01*
G01*
X320180000Y-83098100D01*
G75*
G02*
X320320000Y-83238100I0J-140000D01*
G01*
G37*
%TD*%
%TO.C,C12*%
G36*
G01*
X321753000Y-121664000D02*
X321753000Y-122004000D01*
G75*
G02*
X321613000Y-122144000I-140000J0D01*
G01*
X321333000Y-122144000D01*
G75*
G02*
X321193000Y-122004000I0J140000D01*
G01*
X321193000Y-121664000D01*
G75*
G02*
X321333000Y-121524000I140000J0D01*
G01*
X321613000Y-121524000D01*
G75*
G02*
X321753000Y-121664000I0J-140000D01*
G01*
G37*
G36*
G01*
X322713000Y-121664000D02*
X322713000Y-122004000D01*
G75*
G02*
X322573000Y-122144000I-140000J0D01*
G01*
X322293000Y-122144000D01*
G75*
G02*
X322153000Y-122004000I0J140000D01*
G01*
X322153000Y-121664000D01*
G75*
G02*
X322293000Y-121524000I140000J0D01*
G01*
X322573000Y-121524000D01*
G75*
G02*
X322713000Y-121664000I0J-140000D01*
G01*
G37*
%TD*%
%TO.C,C1*%
G36*
G01*
X321746000Y-77801600D02*
X321746000Y-78141600D01*
G75*
G02*
X321606000Y-78281600I-140000J0D01*
G01*
X321326000Y-78281600D01*
G75*
G02*
X321186000Y-78141600I0J140000D01*
G01*
X321186000Y-77801600D01*
G75*
G02*
X321326000Y-77661600I140000J0D01*
G01*
X321606000Y-77661600D01*
G75*
G02*
X321746000Y-77801600I0J-140000D01*
G01*
G37*
G36*
G01*
X322706000Y-77801600D02*
X322706000Y-78141600D01*
G75*
G02*
X322566000Y-78281600I-140000J0D01*
G01*
X322286000Y-78281600D01*
G75*
G02*
X322146000Y-78141600I0J140000D01*
G01*
X322146000Y-77801600D01*
G75*
G02*
X322286000Y-77661600I140000J0D01*
G01*
X322566000Y-77661600D01*
G75*
G02*
X322706000Y-77801600I0J-140000D01*
G01*
G37*
%TD*%
M02*
