M48
; DRILL file {KiCad (5.1.10)-1} date 10/06/21 10:11:20
; FORMAT={-:-/ absolute / metric / decimal}
; #@! TF.CreationDate,2021-10-06T10:11:20-07:00
; #@! TF.GenerationSoftware,Kicad,Pcbnew,(5.1.10)-1
; #@! TF.FileFunction,NonPlated,1,2,NPTH
FMAT,2
METRIC
T1C0.900
T2C1.702
T3C3.000
T4C3.048
T5C3.988
%
G90
G05
T1
X316.672Y-8.738
X321.072Y-8.738
T2
X35.306Y-18.669
X35.306Y-37.674
X37.815Y-114.036
X40.195Y-56.775
X42.577Y-75.809
X45.466Y-18.669
X45.466Y-37.674
X47.34Y-94.859
X47.975Y-114.036
X50.355Y-56.775
X52.737Y-75.809
X54.356Y-18.669
X54.356Y-37.674
X57.5Y-94.859
X61.732Y-114.036
X64.008Y-56.642
X64.516Y-18.669
X64.516Y-37.674
X68.707Y-75.819
X71.892Y-114.036
X73.406Y-18.669
X73.406Y-37.674
X74.168Y-56.642
X78.232Y-94.869
X78.867Y-75.819
X82.931Y-56.642
X83.566Y-18.669
X83.566Y-37.674
X85.608Y-114.036
X87.757Y-75.819
X88.392Y-94.869
X92.456Y-18.669
X92.456Y-37.674
X93.091Y-56.642
X95.768Y-114.036
X97.028Y-94.869
X97.917Y-75.819
X101.854Y-56.642
X102.616Y-18.669
X102.616Y-37.674
X106.807Y-75.819
X107.188Y-94.869
X111.506Y-18.669
X111.506Y-37.674
X112.014Y-56.642
X115.951Y-94.869
X116.967Y-75.819
X120.777Y-56.642
X121.666Y-18.669
X121.666Y-37.674
X125.857Y-75.819
X126.111Y-94.869
X130.556Y-18.669
X130.556Y-37.674
X130.937Y-56.642
X134.874Y-94.869
X136.017Y-75.819
X139.7Y-56.642
X140.716Y-18.669
X140.716Y-37.674
X144.653Y-75.819
X145.034Y-94.869
X149.606Y-18.669
X149.606Y-37.674
X149.86Y-56.642
X153.797Y-94.869
X154.813Y-75.819
X157.099Y-114.046
X158.623Y-56.642
X159.766Y-18.669
X159.766Y-37.674
X163.703Y-75.819
X163.957Y-94.869
X167.259Y-114.046
X168.656Y-18.669
X168.656Y-37.674
X168.783Y-56.642
X172.72Y-94.869
X173.863Y-75.819
X177.546Y-56.642
X178.816Y-18.669
X178.816Y-37.674
X182.753Y-75.819
X182.88Y-94.869
X187.706Y-18.669
X187.706Y-37.674
X187.706Y-56.642
X191.77Y-94.869
X192.913Y-75.819
X196.469Y-56.642
X197.866Y-18.669
X197.866Y-37.674
X201.803Y-75.819
X201.93Y-94.869
X206.629Y-56.642
X206.756Y-18.669
X206.756Y-37.674
X210.947Y-94.869
X211.963Y-75.819
X215.392Y-56.642
X216.916Y-18.669
X216.916Y-37.674
X220.853Y-75.819
X221.107Y-94.869
X225.552Y-56.642
X225.806Y-18.669
X225.806Y-37.674
X228.102Y-114.036
X229.997Y-94.869
X231.013Y-75.819
X234.315Y-56.642
X235.966Y-18.669
X235.966Y-37.674
X238.262Y-114.036
X239.903Y-75.819
X240.157Y-94.869
X244.475Y-56.642
X244.856Y-18.669
X244.856Y-37.674
X249.174Y-94.869
X250.063Y-75.819
X251.978Y-114.036
X253.365Y-56.642
X255.016Y-18.669
X255.016Y-37.674
X258.953Y-75.819
X259.334Y-94.869
X262.138Y-114.036
X263.525Y-56.642
X263.906Y-18.669
X263.906Y-37.674
X269.113Y-75.819
X272.542Y-56.642
X274.066Y-18.669
X274.066Y-37.674
X275.854Y-114.036
X282.702Y-56.642
X282.956Y-18.669
X285.252Y-94.986
X286.014Y-114.036
X290.14Y-75.809
X292.523Y-37.836
X293.116Y-18.669
X295.412Y-94.986
X297.285Y-56.632
X299.66Y-114.036
X300.3Y-75.809
X302.154Y-18.669
X302.683Y-37.836
X307.445Y-56.632
X309.82Y-114.036
X312.314Y-18.669
X326.085Y-18.669
X326.085Y-37.846
X326.085Y-56.769
X326.085Y-75.819
X326.085Y-94.869
X326.085Y-114.046
X336.245Y-18.669
X336.245Y-37.846
X336.245Y-56.769
X336.245Y-75.819
X336.245Y-94.869
X336.245Y-114.046
X345.135Y-18.669
X345.135Y-37.846
X345.135Y-56.769
X345.135Y-75.819
X345.135Y-94.869
X345.135Y-114.046
X355.295Y-18.669
X355.295Y-37.846
X355.295Y-56.769
X355.295Y-75.819
X355.295Y-94.869
X355.295Y-114.046
X364.058Y-18.669
X364.058Y-37.846
X364.058Y-56.769
X364.058Y-75.819
X364.058Y-94.869
X364.058Y-114.046
X374.218Y-18.669
X374.218Y-37.846
X374.218Y-56.769
X374.218Y-75.819
X374.218Y-94.869
X374.218Y-114.046
T3
X36.576Y-16.129
X36.576Y-35.134
X39.085Y-111.496
X41.465Y-54.235
X42.926Y-13.589
X42.926Y-32.594
X43.847Y-73.269
X45.435Y-108.956
X47.815Y-51.695
X48.61Y-92.319
X50.197Y-70.729
X54.96Y-89.779
X55.626Y-16.129
X55.626Y-35.134
X61.976Y-13.589
X61.976Y-32.594
X63.002Y-111.496
X65.278Y-54.102
X69.352Y-108.956
X69.977Y-73.279
X71.628Y-51.562
X74.676Y-16.129
X74.676Y-35.134
X76.327Y-70.739
X79.502Y-92.329
X81.026Y-13.589
X81.026Y-32.594
X84.201Y-54.102
X85.852Y-89.789
X86.878Y-111.496
X89.027Y-73.279
X90.551Y-51.562
X93.228Y-108.956
X93.726Y-16.129
X93.726Y-35.134
X95.377Y-70.739
X98.298Y-92.329
X100.076Y-13.589
X100.076Y-32.594
X103.124Y-54.102
X104.648Y-89.789
X108.077Y-73.279
X109.474Y-51.562
X112.776Y-16.129
X112.776Y-35.134
X114.427Y-70.739
X117.221Y-92.329
X119.126Y-13.589
X119.126Y-32.594
X122.047Y-54.102
X123.571Y-89.789
X127.127Y-73.279
X128.397Y-51.562
X131.826Y-16.129
X131.826Y-35.134
X133.477Y-70.739
X136.144Y-92.329
X138.176Y-13.589
X138.176Y-32.594
X140.97Y-54.102
X142.494Y-89.789
X145.923Y-73.279
X147.32Y-51.562
X150.876Y-16.129
X150.876Y-35.134
X152.273Y-70.739
X155.067Y-92.329
X157.226Y-13.589
X157.226Y-32.594
X158.369Y-111.506
X159.893Y-54.102
X161.417Y-89.789
X164.719Y-108.966
X164.973Y-73.279
X166.243Y-51.562
X169.926Y-16.129
X169.926Y-35.134
X171.323Y-70.739
X173.99Y-92.329
X176.276Y-13.589
X176.276Y-32.594
X178.816Y-54.102
X180.34Y-89.789
X184.023Y-73.279
X185.166Y-51.562
X188.976Y-16.129
X188.976Y-35.134
X190.373Y-70.739
X193.04Y-92.329
X195.326Y-13.589
X195.326Y-32.594
X197.739Y-54.102
X199.39Y-89.789
X203.073Y-73.279
X204.089Y-51.562
X208.026Y-16.129
X208.026Y-35.134
X209.423Y-70.739
X212.217Y-92.329
X214.376Y-13.589
X214.376Y-32.594
X216.662Y-54.102
X218.567Y-89.789
X222.123Y-73.279
X223.012Y-51.562
X227.076Y-16.129
X227.076Y-35.134
X228.473Y-70.739
X229.372Y-111.496
X231.267Y-92.329
X233.426Y-13.589
X233.426Y-32.594
X235.585Y-54.102
X235.722Y-108.956
X237.617Y-89.789
X241.173Y-73.279
X241.935Y-51.562
X246.126Y-16.129
X246.126Y-35.134
X247.523Y-70.739
X250.444Y-92.329
X252.476Y-13.589
X252.476Y-32.594
X253.248Y-111.496
X254.635Y-54.102
X256.794Y-89.789
X259.598Y-108.956
X260.223Y-73.279
X260.985Y-51.562
X265.176Y-16.129
X265.176Y-35.134
X266.573Y-70.739
X271.526Y-13.589
X271.526Y-32.594
X273.812Y-54.102
X277.124Y-111.496
X280.162Y-51.562
X283.474Y-108.956
X284.226Y-16.129
X286.522Y-92.446
X290.576Y-13.589
X291.41Y-73.269
X292.872Y-89.906
X293.793Y-35.296
X297.76Y-70.729
X298.555Y-54.092
X300.143Y-32.756
X300.93Y-111.496
X303.424Y-16.129
X304.905Y-51.552
X307.28Y-108.956
X309.774Y-13.589
X327.355Y-16.129
X327.355Y-35.306
X327.355Y-54.229
X327.355Y-73.279
X327.355Y-92.329
X327.355Y-111.506
X333.705Y-13.589
X333.705Y-32.766
X333.705Y-51.689
X333.705Y-70.739
X333.705Y-89.789
X333.705Y-108.966
X346.405Y-16.129
X346.405Y-35.306
X346.405Y-54.229
X346.405Y-73.279
X346.405Y-92.329
X346.405Y-111.506
X352.755Y-13.589
X352.755Y-32.766
X352.755Y-51.689
X352.755Y-70.739
X352.755Y-89.789
X352.755Y-108.966
X365.328Y-16.129
X365.328Y-35.306
X365.328Y-54.229
X365.328Y-73.279
X365.328Y-92.329
X365.328Y-111.506
X371.678Y-13.589
X371.678Y-32.766
X371.678Y-51.689
X371.678Y-70.739
X371.678Y-89.789
X371.678Y-108.966
T4
X40.472Y-87.884
X64.348Y-87.884
X112.141Y-121.031
X212.217Y-121.031
X278.384Y-88.011
X283.272Y-68.834
X285.655Y-30.861
X302.26Y-88.011
X307.148Y-68.834
X309.531Y-30.861
T5
X40.386Y-18.669
X40.386Y-37.674
X40.472Y-103.124
X42.895Y-114.036
X45.275Y-56.775
X47.657Y-75.809
X52.42Y-94.859
X59.436Y-18.669
X59.436Y-37.674
X64.348Y-103.124
X66.812Y-114.036
X69.088Y-56.642
X73.787Y-75.819
X78.486Y-18.669
X78.486Y-37.674
X83.312Y-94.869
X88.011Y-56.642
X90.688Y-114.036
X92.837Y-75.819
X97.536Y-18.669
X97.536Y-37.674
X102.108Y-94.869
X106.934Y-56.642
X111.887Y-75.819
X112.141Y-105.791
X116.586Y-18.669
X116.586Y-37.674
X121.031Y-94.869
X125.857Y-56.642
X130.937Y-75.819
X135.636Y-18.669
X135.636Y-37.674
X139.954Y-94.869
X144.78Y-56.642
X149.733Y-75.819
X154.686Y-18.669
X154.686Y-37.674
X158.877Y-94.869
X162.179Y-114.046
X163.703Y-56.642
X168.783Y-75.819
X173.736Y-18.669
X173.736Y-37.674
X177.8Y-94.869
X182.626Y-56.642
X187.833Y-75.819
X192.786Y-18.669
X192.786Y-37.674
X196.85Y-94.869
X201.549Y-56.642
X206.883Y-75.819
X211.836Y-18.669
X211.836Y-37.674
X212.217Y-105.791
X216.027Y-94.869
X220.472Y-56.642
X225.933Y-75.819
X230.886Y-18.669
X230.886Y-37.674
X233.182Y-114.036
X235.077Y-94.869
X239.395Y-56.642
X244.983Y-75.819
X249.936Y-18.669
X249.936Y-37.674
X254.254Y-94.869
X257.058Y-114.036
X258.445Y-56.642
X264.033Y-75.819
X268.986Y-18.669
X268.986Y-37.674
X277.622Y-56.642
X278.384Y-103.251
X280.934Y-114.036
X283.272Y-84.074
X285.655Y-46.101
X288.036Y-18.669
X290.332Y-94.986
X295.22Y-75.809
X297.603Y-37.836
X302.26Y-103.251
X302.365Y-56.632
X304.74Y-114.036
X307.148Y-84.074
X307.234Y-18.669
X309.531Y-46.101
X331.165Y-18.669
X331.165Y-37.846
X331.165Y-56.769
X331.165Y-75.819
X331.165Y-94.869
X331.165Y-114.046
X350.215Y-18.669
X350.215Y-37.846
X350.215Y-56.769
X350.215Y-75.819
X350.215Y-94.869
X350.215Y-114.046
X369.138Y-18.669
X369.138Y-37.846
X369.138Y-56.769
X369.138Y-75.819
X369.138Y-94.869
X369.138Y-114.046
T0
M30
