%TF.GenerationSoftware,KiCad,Pcbnew,(5.1.9)-1*%
%TF.CreationDate,2021-06-12T14:43:15-07:00*%
%TF.ProjectId,chgray-keyboard,63686772-6179-42d6-9b65-79626f617264,Yeet2*%
%TF.SameCoordinates,Original*%
%TF.FileFunction,Legend,Bot*%
%TF.FilePolarity,Positive*%
%FSLAX46Y46*%
G04 Gerber Fmt 4.6, Leading zero omitted, Abs format (unit mm)*
G04 Created by KiCad (PCBNEW (5.1.9)-1) date 2021-06-12 14:43:15*
%MOMM*%
%LPD*%
G01*
G04 APERTURE LIST*
%ADD10C,0.100000*%
%ADD11C,0.150000*%
G04 APERTURE END LIST*
D10*
G36*
X247015000Y-47625000D02*
G01*
X232410000Y-109061250D01*
X147955000Y-92868750D01*
X165100000Y-71596250D01*
X207010000Y-67786250D01*
X202565000Y-78581250D01*
X161290000Y-88423750D01*
X212090000Y-95408750D01*
X227330000Y-84296250D01*
X217805000Y-50006250D01*
X190023750Y-51196875D01*
X202406250Y-36115625D01*
X247015000Y-47625000D01*
G37*
X247015000Y-47625000D02*
X232410000Y-109061250D01*
X147955000Y-92868750D01*
X165100000Y-71596250D01*
X207010000Y-67786250D01*
X202565000Y-78581250D01*
X161290000Y-88423750D01*
X212090000Y-95408750D01*
X227330000Y-84296250D01*
X217805000Y-50006250D01*
X190023750Y-51196875D01*
X202406250Y-36115625D01*
X247015000Y-47625000D01*
G36*
X335696560Y-37480240D02*
G01*
X336331560Y-38115240D01*
X367446560Y-95900240D01*
X312836560Y-114315240D01*
X246161560Y-92090240D01*
X257591560Y-78120240D01*
X331251560Y-91455240D01*
X312201560Y-29860240D01*
X335696560Y-37480240D01*
G37*
X335696560Y-37480240D02*
X336331560Y-38115240D01*
X367446560Y-95900240D01*
X312836560Y-114315240D01*
X246161560Y-92090240D01*
X257591560Y-78120240D01*
X331251560Y-91455240D01*
X312201560Y-29860240D01*
X335696560Y-37480240D01*
D11*
%TO.C,RightMeta1*%
X302853838Y-113419960D02*
G75*
G02*
X305318000Y-111496000I2464162J-616040D01*
G01*
X298968000Y-109591000D02*
G75*
G02*
X301508000Y-107051000I2540000J0D01*
G01*
X310398000Y-107051000D02*
X310398000Y-107432000D01*
X301508000Y-107051000D02*
X310398000Y-107051000D01*
X299349000Y-113401000D02*
X298968000Y-113401000D01*
X298968000Y-113020000D02*
X298968000Y-113401000D01*
X310398000Y-111496000D02*
X305318000Y-111496000D01*
X298968000Y-109591000D02*
X298968000Y-109972000D01*
X310398000Y-110480000D02*
X310398000Y-111496000D01*
X302853838Y-113401000D02*
X301127000Y-113401000D01*
%TO.C,RIGHT-SHIFT1*%
X288121838Y-94242960D02*
G75*
G02*
X290586000Y-92319000I2464162J-616040D01*
G01*
X284236000Y-90414000D02*
G75*
G02*
X286776000Y-87874000I2540000J0D01*
G01*
X288121838Y-94224000D02*
X286395000Y-94224000D01*
X295666000Y-91303000D02*
X295666000Y-92319000D01*
X284236000Y-90414000D02*
X284236000Y-90795000D01*
X295666000Y-92319000D02*
X290586000Y-92319000D01*
X284236000Y-93843000D02*
X284236000Y-94224000D01*
X284617000Y-94224000D02*
X284236000Y-94224000D01*
X286776000Y-87874000D02*
X295666000Y-87874000D01*
X295666000Y-87874000D02*
X295666000Y-88255000D01*
%TO.C,ENTER1*%
X292693838Y-75192960D02*
G75*
G02*
X295158000Y-73269000I2464162J-616040D01*
G01*
X288808000Y-71364000D02*
G75*
G02*
X291348000Y-68824000I2540000J0D01*
G01*
X300238000Y-68824000D02*
X300238000Y-69205000D01*
X291348000Y-68824000D02*
X300238000Y-68824000D01*
X289189000Y-75174000D02*
X288808000Y-75174000D01*
X288808000Y-74793000D02*
X288808000Y-75174000D01*
X300238000Y-73269000D02*
X295158000Y-73269000D01*
X288808000Y-71364000D02*
X288808000Y-71745000D01*
X300238000Y-72253000D02*
X300238000Y-73269000D01*
X292693838Y-75174000D02*
X290967000Y-75174000D01*
%TO.C,SW4*%
X37842138Y-37057860D02*
G75*
G02*
X40306300Y-35133900I2464162J-616040D01*
G01*
X33956300Y-33228900D02*
G75*
G02*
X36496300Y-30688900I2540000J0D01*
G01*
X45386300Y-30688900D02*
X45386300Y-31069900D01*
X36496300Y-30688900D02*
X45386300Y-30688900D01*
X33956300Y-33228900D02*
X33956300Y-33609900D01*
X34337300Y-37038900D02*
X33956300Y-37038900D01*
X37842138Y-37038900D02*
X36115300Y-37038900D01*
X45386300Y-35133900D02*
X40306300Y-35133900D01*
X45386300Y-34117900D02*
X45386300Y-35133900D01*
X33956300Y-36657900D02*
X33956300Y-37038900D01*
%TO.C,WinKey1*%
X88223838Y-113419960D02*
G75*
G02*
X90688000Y-111496000I2464162J-616040D01*
G01*
X84338000Y-109591000D02*
G75*
G02*
X86878000Y-107051000I2540000J0D01*
G01*
X95768000Y-107051000D02*
X95768000Y-107432000D01*
X86878000Y-107051000D02*
X95768000Y-107051000D01*
X84719000Y-113401000D02*
X84338000Y-113401000D01*
X84338000Y-113020000D02*
X84338000Y-113401000D01*
X95768000Y-111496000D02*
X90688000Y-111496000D01*
X84338000Y-109591000D02*
X84338000Y-109972000D01*
X95768000Y-110480000D02*
X95768000Y-111496000D01*
X88223838Y-113401000D02*
X86497000Y-113401000D01*
%TO.C,LEFT_FN1*%
X64347838Y-113419960D02*
G75*
G02*
X66812000Y-111496000I2464162J-616040D01*
G01*
X60462000Y-109591000D02*
G75*
G02*
X63002000Y-107051000I2540000J0D01*
G01*
X71892000Y-107051000D02*
X71892000Y-107432000D01*
X63002000Y-107051000D02*
X71892000Y-107051000D01*
X60843000Y-113401000D02*
X60462000Y-113401000D01*
X60462000Y-113020000D02*
X60462000Y-113401000D01*
X71892000Y-111496000D02*
X66812000Y-111496000D01*
X60462000Y-109591000D02*
X60462000Y-109972000D01*
X71892000Y-110480000D02*
X71892000Y-111496000D01*
X64347838Y-113401000D02*
X62621000Y-113401000D01*
%TO.C,LEFT_CTRL1*%
X40471838Y-113419960D02*
G75*
G02*
X42936000Y-111496000I2464162J-616040D01*
G01*
X36586000Y-109591000D02*
G75*
G02*
X39126000Y-107051000I2540000J0D01*
G01*
X48016000Y-107051000D02*
X48016000Y-107432000D01*
X39126000Y-107051000D02*
X48016000Y-107051000D01*
X36967000Y-113401000D02*
X36586000Y-113401000D01*
X36586000Y-113020000D02*
X36586000Y-113401000D01*
X48016000Y-111496000D02*
X42936000Y-111496000D01*
X36586000Y-109591000D02*
X36586000Y-109972000D01*
X48016000Y-110480000D02*
X48016000Y-111496000D01*
X40471838Y-113401000D02*
X38745000Y-113401000D01*
%TO.C,LEFT_ALT1*%
X112099838Y-113419960D02*
G75*
G02*
X114564000Y-111496000I2464162J-616040D01*
G01*
X108214000Y-109591000D02*
G75*
G02*
X110754000Y-107051000I2540000J0D01*
G01*
X119644000Y-107051000D02*
X119644000Y-107432000D01*
X110754000Y-107051000D02*
X119644000Y-107051000D01*
X108595000Y-113401000D02*
X108214000Y-113401000D01*
X108214000Y-113020000D02*
X108214000Y-113401000D01*
X119644000Y-111496000D02*
X114564000Y-111496000D01*
X108214000Y-109591000D02*
X108214000Y-109972000D01*
X119644000Y-110480000D02*
X119644000Y-111496000D01*
X112099838Y-113401000D02*
X110373000Y-113401000D01*
%TO.C,Slash1*%
X299932838Y-56159160D02*
G75*
G02*
X302397000Y-54235200I2464162J-616040D01*
G01*
X296047000Y-52330200D02*
G75*
G02*
X298587000Y-49790200I2540000J0D01*
G01*
X299932838Y-56140200D02*
X298206000Y-56140200D01*
X307477000Y-53219200D02*
X307477000Y-54235200D01*
X296047000Y-52330200D02*
X296047000Y-52711200D01*
X307477000Y-54235200D02*
X302397000Y-54235200D01*
X296047000Y-55759200D02*
X296047000Y-56140200D01*
X296428000Y-56140200D02*
X296047000Y-56140200D01*
X298587000Y-49790200D02*
X307477000Y-49790200D01*
X307477000Y-49790200D02*
X307477000Y-50171200D01*
%TO.C,LEFT-SHIFT1*%
X49933338Y-94242960D02*
G75*
G02*
X52397500Y-92319000I2464162J-616040D01*
G01*
X46047500Y-90414000D02*
G75*
G02*
X48587500Y-87874000I2540000J0D01*
G01*
X57477500Y-87874000D02*
X57477500Y-88255000D01*
X48587500Y-87874000D02*
X57477500Y-87874000D01*
X46428500Y-94224000D02*
X46047500Y-94224000D01*
X46047500Y-93843000D02*
X46047500Y-94224000D01*
X57477500Y-92319000D02*
X52397500Y-92319000D01*
X46047500Y-90414000D02*
X46047500Y-90795000D01*
X57477500Y-91303000D02*
X57477500Y-92319000D01*
X49933338Y-94224000D02*
X48206500Y-94224000D01*
%TO.C,Backspace1*%
X295106838Y-37064060D02*
G75*
G02*
X297571000Y-35140100I2464162J-616040D01*
G01*
X291221000Y-33235100D02*
G75*
G02*
X293761000Y-30695100I2540000J0D01*
G01*
X295106838Y-37045100D02*
X293380000Y-37045100D01*
X302651000Y-34124100D02*
X302651000Y-35140100D01*
X291221000Y-33235100D02*
X291221000Y-33616100D01*
X302651000Y-35140100D02*
X297571000Y-35140100D01*
X291221000Y-36664100D02*
X291221000Y-37045100D01*
X291602000Y-37045100D02*
X291221000Y-37045100D01*
X293761000Y-30695100D02*
X302651000Y-30695100D01*
X302651000Y-30695100D02*
X302651000Y-31076100D01*
%TO.C,TAB1*%
X42757838Y-56159160D02*
G75*
G02*
X45222000Y-54235200I2464162J-616040D01*
G01*
X38872000Y-52330200D02*
G75*
G02*
X41412000Y-49790200I2540000J0D01*
G01*
X42757838Y-56140200D02*
X41031000Y-56140200D01*
X50302000Y-53219200D02*
X50302000Y-54235200D01*
X38872000Y-52330200D02*
X38872000Y-52711200D01*
X50302000Y-54235200D02*
X45222000Y-54235200D01*
X38872000Y-55759200D02*
X38872000Y-56140200D01*
X39253000Y-56140200D02*
X38872000Y-56140200D01*
X41412000Y-49790200D02*
X50302000Y-49790200D01*
X50302000Y-49790200D02*
X50302000Y-50171200D01*
%TO.C,CAPS1*%
X41254500Y-71364000D02*
G75*
G02*
X43794500Y-68824000I2540000J0D01*
G01*
X45140338Y-75192960D02*
G75*
G02*
X47604500Y-73269000I2464162J-616040D01*
G01*
X52684500Y-68824000D02*
X52684500Y-69205000D01*
X43794500Y-68824000D02*
X52684500Y-68824000D01*
X41635500Y-75174000D02*
X41254500Y-75174000D01*
X41254500Y-74793000D02*
X41254500Y-75174000D01*
X52684500Y-73269000D02*
X47604500Y-73269000D01*
X41254500Y-71364000D02*
X41254500Y-71745000D01*
X52684500Y-72253000D02*
X52684500Y-73269000D01*
X45140338Y-75174000D02*
X43413500Y-75174000D01*
%TO.C,SW57*%
X242518838Y-75202960D02*
G75*
G02*
X244983000Y-73279000I2464162J-616040D01*
G01*
X238633000Y-71374000D02*
G75*
G02*
X241173000Y-68834000I2540000J0D01*
G01*
X250063000Y-68834000D02*
X250063000Y-69215000D01*
X241173000Y-68834000D02*
X250063000Y-68834000D01*
X238633000Y-71374000D02*
X238633000Y-71755000D01*
X239014000Y-75184000D02*
X238633000Y-75184000D01*
X242518838Y-75184000D02*
X240792000Y-75184000D01*
X250063000Y-73279000D02*
X244983000Y-73279000D01*
X250063000Y-72263000D02*
X250063000Y-73279000D01*
X238633000Y-74803000D02*
X238633000Y-75184000D01*
%TO.C,SW1*%
X394664838Y-55898960D02*
G75*
G02*
X397129000Y-53975000I2464162J-616040D01*
G01*
X390779000Y-52070000D02*
G75*
G02*
X393319000Y-49530000I2540000J0D01*
G01*
X402209000Y-49530000D02*
X402209000Y-49911000D01*
X393319000Y-49530000D02*
X402209000Y-49530000D01*
X390779000Y-52070000D02*
X390779000Y-52451000D01*
X391160000Y-55880000D02*
X390779000Y-55880000D01*
X394664838Y-55880000D02*
X392938000Y-55880000D01*
X402209000Y-53975000D02*
X397129000Y-53975000D01*
X402209000Y-52959000D02*
X402209000Y-53975000D01*
X390779000Y-55499000D02*
X390779000Y-55880000D01*
%TO.C,SW3*%
X233247838Y-94252960D02*
G75*
G02*
X235712000Y-92329000I2464162J-616040D01*
G01*
X229362000Y-90424000D02*
G75*
G02*
X231902000Y-87884000I2540000J0D01*
G01*
X240792000Y-87884000D02*
X240792000Y-88265000D01*
X231902000Y-87884000D02*
X240792000Y-87884000D01*
X229362000Y-90424000D02*
X229362000Y-90805000D01*
X229743000Y-94234000D02*
X229362000Y-94234000D01*
X233247838Y-94234000D02*
X231521000Y-94234000D01*
X240792000Y-92329000D02*
X235712000Y-92329000D01*
X240792000Y-91313000D02*
X240792000Y-92329000D01*
X229362000Y-93853000D02*
X229362000Y-94234000D01*
%TO.C,SW5*%
X56971838Y-37057860D02*
G75*
G02*
X59436000Y-35133900I2464162J-616040D01*
G01*
X53086000Y-33228900D02*
G75*
G02*
X55626000Y-30688900I2540000J0D01*
G01*
X64516000Y-30688900D02*
X64516000Y-31069900D01*
X55626000Y-30688900D02*
X64516000Y-30688900D01*
X53086000Y-33228900D02*
X53086000Y-33609900D01*
X53467000Y-37038900D02*
X53086000Y-37038900D01*
X56971838Y-37038900D02*
X55245000Y-37038900D01*
X64516000Y-35133900D02*
X59436000Y-35133900D01*
X64516000Y-34117900D02*
X64516000Y-35133900D01*
X53086000Y-36657900D02*
X53086000Y-37038900D01*
%TO.C,SW6*%
X66623838Y-56152960D02*
G75*
G02*
X69088000Y-54229000I2464162J-616040D01*
G01*
X62738000Y-52324000D02*
G75*
G02*
X65278000Y-49784000I2540000J0D01*
G01*
X74168000Y-49784000D02*
X74168000Y-50165000D01*
X65278000Y-49784000D02*
X74168000Y-49784000D01*
X62738000Y-52324000D02*
X62738000Y-52705000D01*
X63119000Y-56134000D02*
X62738000Y-56134000D01*
X66623838Y-56134000D02*
X64897000Y-56134000D01*
X74168000Y-54229000D02*
X69088000Y-54229000D01*
X74168000Y-53213000D02*
X74168000Y-54229000D01*
X62738000Y-55753000D02*
X62738000Y-56134000D01*
%TO.C,SW7*%
X71322838Y-75202960D02*
G75*
G02*
X73787000Y-73279000I2464162J-616040D01*
G01*
X67437000Y-71374000D02*
G75*
G02*
X69977000Y-68834000I2540000J0D01*
G01*
X78867000Y-68834000D02*
X78867000Y-69215000D01*
X69977000Y-68834000D02*
X78867000Y-68834000D01*
X67437000Y-71374000D02*
X67437000Y-71755000D01*
X67818000Y-75184000D02*
X67437000Y-75184000D01*
X71322838Y-75184000D02*
X69596000Y-75184000D01*
X78867000Y-73279000D02*
X73787000Y-73279000D01*
X78867000Y-72263000D02*
X78867000Y-73279000D01*
X67437000Y-74803000D02*
X67437000Y-75184000D01*
%TO.C,SW9*%
X337514838Y-93998960D02*
G75*
G02*
X339979000Y-92075000I2464162J-616040D01*
G01*
X333629000Y-90170000D02*
G75*
G02*
X336169000Y-87630000I2540000J0D01*
G01*
X345059000Y-87630000D02*
X345059000Y-88011000D01*
X336169000Y-87630000D02*
X345059000Y-87630000D01*
X333629000Y-90170000D02*
X333629000Y-90551000D01*
X334010000Y-93980000D02*
X333629000Y-93980000D01*
X337514838Y-93980000D02*
X335788000Y-93980000D01*
X345059000Y-92075000D02*
X339979000Y-92075000D01*
X345059000Y-91059000D02*
X345059000Y-92075000D01*
X333629000Y-93599000D02*
X333629000Y-93980000D01*
%TO.C,SW10*%
X90372838Y-75202960D02*
G75*
G02*
X92837000Y-73279000I2464162J-616040D01*
G01*
X86487000Y-71374000D02*
G75*
G02*
X89027000Y-68834000I2540000J0D01*
G01*
X97917000Y-68834000D02*
X97917000Y-69215000D01*
X89027000Y-68834000D02*
X97917000Y-68834000D01*
X86487000Y-71374000D02*
X86487000Y-71755000D01*
X86868000Y-75184000D02*
X86487000Y-75184000D01*
X90372838Y-75184000D02*
X88646000Y-75184000D01*
X97917000Y-73279000D02*
X92837000Y-73279000D01*
X97917000Y-72263000D02*
X97917000Y-73279000D01*
X86487000Y-74803000D02*
X86487000Y-75184000D01*
%TO.C,SW11*%
X80847838Y-94252960D02*
G75*
G02*
X83312000Y-92329000I2464162J-616040D01*
G01*
X76962000Y-90424000D02*
G75*
G02*
X79502000Y-87884000I2540000J0D01*
G01*
X88392000Y-87884000D02*
X88392000Y-88265000D01*
X79502000Y-87884000D02*
X88392000Y-87884000D01*
X76962000Y-90424000D02*
X76962000Y-90805000D01*
X77343000Y-94234000D02*
X76962000Y-94234000D01*
X80847838Y-94234000D02*
X79121000Y-94234000D01*
X88392000Y-92329000D02*
X83312000Y-92329000D01*
X88392000Y-91313000D02*
X88392000Y-92329000D01*
X76962000Y-93853000D02*
X76962000Y-94234000D01*
%TO.C,SW12*%
X394664838Y-74948960D02*
G75*
G02*
X397129000Y-73025000I2464162J-616040D01*
G01*
X390779000Y-71120000D02*
G75*
G02*
X393319000Y-68580000I2540000J0D01*
G01*
X402209000Y-68580000D02*
X402209000Y-68961000D01*
X393319000Y-68580000D02*
X402209000Y-68580000D01*
X390779000Y-71120000D02*
X390779000Y-71501000D01*
X391160000Y-74930000D02*
X390779000Y-74930000D01*
X394664838Y-74930000D02*
X392938000Y-74930000D01*
X402209000Y-73025000D02*
X397129000Y-73025000D01*
X402209000Y-72009000D02*
X402209000Y-73025000D01*
X390779000Y-74549000D02*
X390779000Y-74930000D01*
%TO.C,SW13*%
X76021838Y-37057860D02*
G75*
G02*
X78486000Y-35133900I2464162J-616040D01*
G01*
X72136000Y-33228900D02*
G75*
G02*
X74676000Y-30688900I2540000J0D01*
G01*
X83566000Y-30688900D02*
X83566000Y-31069900D01*
X74676000Y-30688900D02*
X83566000Y-30688900D01*
X72136000Y-33228900D02*
X72136000Y-33609900D01*
X72517000Y-37038900D02*
X72136000Y-37038900D01*
X76021838Y-37038900D02*
X74295000Y-37038900D01*
X83566000Y-35133900D02*
X78486000Y-35133900D01*
X83566000Y-34117900D02*
X83566000Y-35133900D01*
X72136000Y-36657900D02*
X72136000Y-37038900D01*
%TO.C,SW14*%
X85673838Y-56152960D02*
G75*
G02*
X88138000Y-54229000I2464162J-616040D01*
G01*
X81788000Y-52324000D02*
G75*
G02*
X84328000Y-49784000I2540000J0D01*
G01*
X93218000Y-49784000D02*
X93218000Y-50165000D01*
X84328000Y-49784000D02*
X93218000Y-49784000D01*
X81788000Y-52324000D02*
X81788000Y-52705000D01*
X82169000Y-56134000D02*
X81788000Y-56134000D01*
X85673838Y-56134000D02*
X83947000Y-56134000D01*
X93218000Y-54229000D02*
X88138000Y-54229000D01*
X93218000Y-53213000D02*
X93218000Y-54229000D01*
X81788000Y-55753000D02*
X81788000Y-56134000D01*
%TO.C,SW15*%
X95071838Y-37057860D02*
G75*
G02*
X97536000Y-35133900I2464162J-616040D01*
G01*
X91186000Y-33228900D02*
G75*
G02*
X93726000Y-30688900I2540000J0D01*
G01*
X102616000Y-30688900D02*
X102616000Y-31069900D01*
X93726000Y-30688900D02*
X102616000Y-30688900D01*
X91186000Y-33228900D02*
X91186000Y-33609900D01*
X91567000Y-37038900D02*
X91186000Y-37038900D01*
X95071838Y-37038900D02*
X93345000Y-37038900D01*
X102616000Y-35133900D02*
X97536000Y-35133900D01*
X102616000Y-34117900D02*
X102616000Y-35133900D01*
X91186000Y-36657900D02*
X91186000Y-37038900D01*
%TO.C,SW16*%
X104723838Y-56152960D02*
G75*
G02*
X107188000Y-54229000I2464162J-616040D01*
G01*
X100838000Y-52324000D02*
G75*
G02*
X103378000Y-49784000I2540000J0D01*
G01*
X112268000Y-49784000D02*
X112268000Y-50165000D01*
X103378000Y-49784000D02*
X112268000Y-49784000D01*
X100838000Y-52324000D02*
X100838000Y-52705000D01*
X101219000Y-56134000D02*
X100838000Y-56134000D01*
X104723838Y-56134000D02*
X102997000Y-56134000D01*
X112268000Y-54229000D02*
X107188000Y-54229000D01*
X112268000Y-53213000D02*
X112268000Y-54229000D01*
X100838000Y-55753000D02*
X100838000Y-56134000D01*
%TO.C,SW17*%
X109422838Y-75202960D02*
G75*
G02*
X111887000Y-73279000I2464162J-616040D01*
G01*
X105537000Y-71374000D02*
G75*
G02*
X108077000Y-68834000I2540000J0D01*
G01*
X116967000Y-68834000D02*
X116967000Y-69215000D01*
X108077000Y-68834000D02*
X116967000Y-68834000D01*
X105537000Y-71374000D02*
X105537000Y-71755000D01*
X105918000Y-75184000D02*
X105537000Y-75184000D01*
X109422838Y-75184000D02*
X107696000Y-75184000D01*
X116967000Y-73279000D02*
X111887000Y-73279000D01*
X116967000Y-72263000D02*
X116967000Y-73279000D01*
X105537000Y-74803000D02*
X105537000Y-75184000D01*
%TO.C,SW18*%
X99897838Y-94252960D02*
G75*
G02*
X102362000Y-92329000I2464162J-616040D01*
G01*
X96012000Y-90424000D02*
G75*
G02*
X98552000Y-87884000I2540000J0D01*
G01*
X107442000Y-87884000D02*
X107442000Y-88265000D01*
X98552000Y-87884000D02*
X107442000Y-87884000D01*
X96012000Y-90424000D02*
X96012000Y-90805000D01*
X96393000Y-94234000D02*
X96012000Y-94234000D01*
X99897838Y-94234000D02*
X98171000Y-94234000D01*
X107442000Y-92329000D02*
X102362000Y-92329000D01*
X107442000Y-91313000D02*
X107442000Y-92329000D01*
X96012000Y-93853000D02*
X96012000Y-94234000D01*
%TO.C,SW20*%
X238073838Y-56152960D02*
G75*
G02*
X240538000Y-54229000I2464162J-616040D01*
G01*
X234188000Y-52324000D02*
G75*
G02*
X236728000Y-49784000I2540000J0D01*
G01*
X245618000Y-49784000D02*
X245618000Y-50165000D01*
X236728000Y-49784000D02*
X245618000Y-49784000D01*
X234188000Y-52324000D02*
X234188000Y-52705000D01*
X234569000Y-56134000D02*
X234188000Y-56134000D01*
X238073838Y-56134000D02*
X236347000Y-56134000D01*
X245618000Y-54229000D02*
X240538000Y-54229000D01*
X245618000Y-53213000D02*
X245618000Y-54229000D01*
X234188000Y-55753000D02*
X234188000Y-56134000D01*
%TO.C,SW21*%
X128472838Y-75202960D02*
G75*
G02*
X130937000Y-73279000I2464162J-616040D01*
G01*
X124587000Y-71374000D02*
G75*
G02*
X127127000Y-68834000I2540000J0D01*
G01*
X136017000Y-68834000D02*
X136017000Y-69215000D01*
X127127000Y-68834000D02*
X136017000Y-68834000D01*
X124587000Y-71374000D02*
X124587000Y-71755000D01*
X124968000Y-75184000D02*
X124587000Y-75184000D01*
X128472838Y-75184000D02*
X126746000Y-75184000D01*
X136017000Y-73279000D02*
X130937000Y-73279000D01*
X136017000Y-72263000D02*
X136017000Y-73279000D01*
X124587000Y-74803000D02*
X124587000Y-75184000D01*
%TO.C,SW22*%
X118947838Y-94252960D02*
G75*
G02*
X121412000Y-92329000I2464162J-616040D01*
G01*
X115062000Y-90424000D02*
G75*
G02*
X117602000Y-87884000I2540000J0D01*
G01*
X126492000Y-87884000D02*
X126492000Y-88265000D01*
X117602000Y-87884000D02*
X126492000Y-87884000D01*
X115062000Y-90424000D02*
X115062000Y-90805000D01*
X115443000Y-94234000D02*
X115062000Y-94234000D01*
X118947838Y-94234000D02*
X117221000Y-94234000D01*
X126492000Y-92329000D02*
X121412000Y-92329000D01*
X126492000Y-91313000D02*
X126492000Y-92329000D01*
X115062000Y-93853000D02*
X115062000Y-94234000D01*
%TO.C,SW23*%
X257123838Y-56152960D02*
G75*
G02*
X259588000Y-54229000I2464162J-616040D01*
G01*
X253238000Y-52324000D02*
G75*
G02*
X255778000Y-49784000I2540000J0D01*
G01*
X264668000Y-49784000D02*
X264668000Y-50165000D01*
X255778000Y-49784000D02*
X264668000Y-49784000D01*
X253238000Y-52324000D02*
X253238000Y-52705000D01*
X253619000Y-56134000D02*
X253238000Y-56134000D01*
X257123838Y-56134000D02*
X255397000Y-56134000D01*
X264668000Y-54229000D02*
X259588000Y-54229000D01*
X264668000Y-53213000D02*
X264668000Y-54229000D01*
X253238000Y-55753000D02*
X253238000Y-56134000D01*
%TO.C,SW24*%
X114121838Y-37057860D02*
G75*
G02*
X116586000Y-35133900I2464162J-616040D01*
G01*
X110236000Y-33228900D02*
G75*
G02*
X112776000Y-30688900I2540000J0D01*
G01*
X121666000Y-30688900D02*
X121666000Y-31069900D01*
X112776000Y-30688900D02*
X121666000Y-30688900D01*
X110236000Y-33228900D02*
X110236000Y-33609900D01*
X110617000Y-37038900D02*
X110236000Y-37038900D01*
X114121838Y-37038900D02*
X112395000Y-37038900D01*
X121666000Y-35133900D02*
X116586000Y-35133900D01*
X121666000Y-34117900D02*
X121666000Y-35133900D01*
X110236000Y-36657900D02*
X110236000Y-37038900D01*
%TO.C,SW25*%
X123773838Y-56152960D02*
G75*
G02*
X126238000Y-54229000I2464162J-616040D01*
G01*
X119888000Y-52324000D02*
G75*
G02*
X122428000Y-49784000I2540000J0D01*
G01*
X131318000Y-49784000D02*
X131318000Y-50165000D01*
X122428000Y-49784000D02*
X131318000Y-49784000D01*
X119888000Y-52324000D02*
X119888000Y-52705000D01*
X120269000Y-56134000D02*
X119888000Y-56134000D01*
X123773838Y-56134000D02*
X122047000Y-56134000D01*
X131318000Y-54229000D02*
X126238000Y-54229000D01*
X131318000Y-53213000D02*
X131318000Y-54229000D01*
X119888000Y-55753000D02*
X119888000Y-56134000D01*
%TO.C,SW26*%
X133171838Y-37057860D02*
G75*
G02*
X135636000Y-35133900I2464162J-616040D01*
G01*
X129286000Y-33228900D02*
G75*
G02*
X131826000Y-30688900I2540000J0D01*
G01*
X140716000Y-30688900D02*
X140716000Y-31069900D01*
X131826000Y-30688900D02*
X140716000Y-30688900D01*
X129286000Y-33228900D02*
X129286000Y-33609900D01*
X129667000Y-37038900D02*
X129286000Y-37038900D01*
X133171838Y-37038900D02*
X131445000Y-37038900D01*
X140716000Y-35133900D02*
X135636000Y-35133900D01*
X140716000Y-34117900D02*
X140716000Y-35133900D01*
X129286000Y-36657900D02*
X129286000Y-37038900D01*
%TO.C,SW27*%
X142823838Y-56152960D02*
G75*
G02*
X145288000Y-54229000I2464162J-616040D01*
G01*
X138938000Y-52324000D02*
G75*
G02*
X141478000Y-49784000I2540000J0D01*
G01*
X150368000Y-49784000D02*
X150368000Y-50165000D01*
X141478000Y-49784000D02*
X150368000Y-49784000D01*
X138938000Y-52324000D02*
X138938000Y-52705000D01*
X139319000Y-56134000D02*
X138938000Y-56134000D01*
X142823838Y-56134000D02*
X141097000Y-56134000D01*
X150368000Y-54229000D02*
X145288000Y-54229000D01*
X150368000Y-53213000D02*
X150368000Y-54229000D01*
X138938000Y-55753000D02*
X138938000Y-56134000D01*
%TO.C,SW28*%
X147268838Y-75202960D02*
G75*
G02*
X149733000Y-73279000I2464162J-616040D01*
G01*
X143383000Y-71374000D02*
G75*
G02*
X145923000Y-68834000I2540000J0D01*
G01*
X154813000Y-68834000D02*
X154813000Y-69215000D01*
X145923000Y-68834000D02*
X154813000Y-68834000D01*
X143383000Y-71374000D02*
X143383000Y-71755000D01*
X143764000Y-75184000D02*
X143383000Y-75184000D01*
X147268838Y-75184000D02*
X145542000Y-75184000D01*
X154813000Y-73279000D02*
X149733000Y-73279000D01*
X154813000Y-72263000D02*
X154813000Y-73279000D01*
X143383000Y-74803000D02*
X143383000Y-75184000D01*
%TO.C,SW29*%
X137997838Y-94252960D02*
G75*
G02*
X140462000Y-92329000I2464162J-616040D01*
G01*
X134112000Y-90424000D02*
G75*
G02*
X136652000Y-87884000I2540000J0D01*
G01*
X145542000Y-87884000D02*
X145542000Y-88265000D01*
X136652000Y-87884000D02*
X145542000Y-87884000D01*
X134112000Y-90424000D02*
X134112000Y-90805000D01*
X134493000Y-94234000D02*
X134112000Y-94234000D01*
X137997838Y-94234000D02*
X136271000Y-94234000D01*
X145542000Y-92329000D02*
X140462000Y-92329000D01*
X145542000Y-91313000D02*
X145542000Y-92329000D01*
X134112000Y-93853000D02*
X134112000Y-94234000D01*
%TO.C,SW30*%
X176478838Y-113429960D02*
G75*
G02*
X178943000Y-111506000I2464162J-616040D01*
G01*
X172593000Y-109601000D02*
G75*
G02*
X175133000Y-107061000I2540000J0D01*
G01*
X184023000Y-107061000D02*
X184023000Y-107442000D01*
X175133000Y-107061000D02*
X184023000Y-107061000D01*
X172593000Y-109601000D02*
X172593000Y-109982000D01*
X172974000Y-113411000D02*
X172593000Y-113411000D01*
X176478838Y-113411000D02*
X174752000Y-113411000D01*
X184023000Y-111506000D02*
X178943000Y-111506000D01*
X184023000Y-110490000D02*
X184023000Y-111506000D01*
X172593000Y-113030000D02*
X172593000Y-113411000D01*
%TO.C,SW31*%
X166318838Y-75202960D02*
G75*
G02*
X168783000Y-73279000I2464162J-616040D01*
G01*
X162433000Y-71374000D02*
G75*
G02*
X164973000Y-68834000I2540000J0D01*
G01*
X173863000Y-68834000D02*
X173863000Y-69215000D01*
X164973000Y-68834000D02*
X173863000Y-68834000D01*
X162433000Y-71374000D02*
X162433000Y-71755000D01*
X162814000Y-75184000D02*
X162433000Y-75184000D01*
X166318838Y-75184000D02*
X164592000Y-75184000D01*
X173863000Y-73279000D02*
X168783000Y-73279000D01*
X173863000Y-72263000D02*
X173863000Y-73279000D01*
X162433000Y-74803000D02*
X162433000Y-75184000D01*
%TO.C,SW32*%
X157047838Y-94252960D02*
G75*
G02*
X159512000Y-92329000I2464162J-616040D01*
G01*
X153162000Y-90424000D02*
G75*
G02*
X155702000Y-87884000I2540000J0D01*
G01*
X164592000Y-87884000D02*
X164592000Y-88265000D01*
X155702000Y-87884000D02*
X164592000Y-87884000D01*
X153162000Y-90424000D02*
X153162000Y-90805000D01*
X153543000Y-94234000D02*
X153162000Y-94234000D01*
X157047838Y-94234000D02*
X155321000Y-94234000D01*
X164592000Y-92329000D02*
X159512000Y-92329000D01*
X164592000Y-91313000D02*
X164592000Y-92329000D01*
X153162000Y-93853000D02*
X153162000Y-94234000D01*
%TO.C,SW33*%
X195528838Y-113429960D02*
G75*
G02*
X197993000Y-111506000I2464162J-616040D01*
G01*
X191643000Y-109601000D02*
G75*
G02*
X194183000Y-107061000I2540000J0D01*
G01*
X203073000Y-107061000D02*
X203073000Y-107442000D01*
X194183000Y-107061000D02*
X203073000Y-107061000D01*
X191643000Y-109601000D02*
X191643000Y-109982000D01*
X192024000Y-113411000D02*
X191643000Y-113411000D01*
X195528838Y-113411000D02*
X193802000Y-113411000D01*
X203073000Y-111506000D02*
X197993000Y-111506000D01*
X203073000Y-110490000D02*
X203073000Y-111506000D01*
X191643000Y-113030000D02*
X191643000Y-113411000D01*
%TO.C,SW34*%
X252297838Y-94252960D02*
G75*
G02*
X254762000Y-92329000I2464162J-616040D01*
G01*
X248412000Y-90424000D02*
G75*
G02*
X250952000Y-87884000I2540000J0D01*
G01*
X259842000Y-87884000D02*
X259842000Y-88265000D01*
X250952000Y-87884000D02*
X259842000Y-87884000D01*
X248412000Y-90424000D02*
X248412000Y-90805000D01*
X248793000Y-94234000D02*
X248412000Y-94234000D01*
X252297838Y-94234000D02*
X250571000Y-94234000D01*
X259842000Y-92329000D02*
X254762000Y-92329000D01*
X259842000Y-91313000D02*
X259842000Y-92329000D01*
X248412000Y-93853000D02*
X248412000Y-94234000D01*
%TO.C,SW35*%
X152221838Y-37057860D02*
G75*
G02*
X154686000Y-35133900I2464162J-616040D01*
G01*
X148336000Y-33228900D02*
G75*
G02*
X150876000Y-30688900I2540000J0D01*
G01*
X159766000Y-30688900D02*
X159766000Y-31069900D01*
X150876000Y-30688900D02*
X159766000Y-30688900D01*
X148336000Y-33228900D02*
X148336000Y-33609900D01*
X148717000Y-37038900D02*
X148336000Y-37038900D01*
X152221838Y-37038900D02*
X150495000Y-37038900D01*
X159766000Y-35133900D02*
X154686000Y-35133900D01*
X159766000Y-34117900D02*
X159766000Y-35133900D01*
X148336000Y-36657900D02*
X148336000Y-37038900D01*
%TO.C,SW36*%
X161873838Y-56152960D02*
G75*
G02*
X164338000Y-54229000I2464162J-616040D01*
G01*
X157988000Y-52324000D02*
G75*
G02*
X160528000Y-49784000I2540000J0D01*
G01*
X169418000Y-49784000D02*
X169418000Y-50165000D01*
X160528000Y-49784000D02*
X169418000Y-49784000D01*
X157988000Y-52324000D02*
X157988000Y-52705000D01*
X158369000Y-56134000D02*
X157988000Y-56134000D01*
X161873838Y-56134000D02*
X160147000Y-56134000D01*
X169418000Y-54229000D02*
X164338000Y-54229000D01*
X169418000Y-53213000D02*
X169418000Y-54229000D01*
X157988000Y-55753000D02*
X157988000Y-56134000D01*
%TO.C,SW37*%
X171271838Y-37057860D02*
G75*
G02*
X173736000Y-35133900I2464162J-616040D01*
G01*
X167386000Y-33228900D02*
G75*
G02*
X169926000Y-30688900I2540000J0D01*
G01*
X178816000Y-30688900D02*
X178816000Y-31069900D01*
X169926000Y-30688900D02*
X178816000Y-30688900D01*
X167386000Y-33228900D02*
X167386000Y-33609900D01*
X167767000Y-37038900D02*
X167386000Y-37038900D01*
X171271838Y-37038900D02*
X169545000Y-37038900D01*
X178816000Y-35133900D02*
X173736000Y-35133900D01*
X178816000Y-34117900D02*
X178816000Y-35133900D01*
X167386000Y-36657900D02*
X167386000Y-37038900D01*
%TO.C,SW38*%
X180923838Y-56152960D02*
G75*
G02*
X183388000Y-54229000I2464162J-616040D01*
G01*
X177038000Y-52324000D02*
G75*
G02*
X179578000Y-49784000I2540000J0D01*
G01*
X188468000Y-49784000D02*
X188468000Y-50165000D01*
X179578000Y-49784000D02*
X188468000Y-49784000D01*
X177038000Y-52324000D02*
X177038000Y-52705000D01*
X177419000Y-56134000D02*
X177038000Y-56134000D01*
X180923838Y-56134000D02*
X179197000Y-56134000D01*
X188468000Y-54229000D02*
X183388000Y-54229000D01*
X188468000Y-53213000D02*
X188468000Y-54229000D01*
X177038000Y-55753000D02*
X177038000Y-56134000D01*
%TO.C,SW39*%
X185368838Y-75202960D02*
G75*
G02*
X187833000Y-73279000I2464162J-616040D01*
G01*
X181483000Y-71374000D02*
G75*
G02*
X184023000Y-68834000I2540000J0D01*
G01*
X192913000Y-68834000D02*
X192913000Y-69215000D01*
X184023000Y-68834000D02*
X192913000Y-68834000D01*
X181483000Y-71374000D02*
X181483000Y-71755000D01*
X181864000Y-75184000D02*
X181483000Y-75184000D01*
X185368838Y-75184000D02*
X183642000Y-75184000D01*
X192913000Y-73279000D02*
X187833000Y-73279000D01*
X192913000Y-72263000D02*
X192913000Y-73279000D01*
X181483000Y-74803000D02*
X181483000Y-75184000D01*
%TO.C,SW40*%
X176097838Y-94252960D02*
G75*
G02*
X178562000Y-92329000I2464162J-616040D01*
G01*
X172212000Y-90424000D02*
G75*
G02*
X174752000Y-87884000I2540000J0D01*
G01*
X183642000Y-87884000D02*
X183642000Y-88265000D01*
X174752000Y-87884000D02*
X183642000Y-87884000D01*
X172212000Y-90424000D02*
X172212000Y-90805000D01*
X172593000Y-94234000D02*
X172212000Y-94234000D01*
X176097838Y-94234000D02*
X174371000Y-94234000D01*
X183642000Y-92329000D02*
X178562000Y-92329000D01*
X183642000Y-91313000D02*
X183642000Y-92329000D01*
X172212000Y-93853000D02*
X172212000Y-94234000D01*
%TO.C,SW41*%
X247471838Y-37057860D02*
G75*
G02*
X249936000Y-35133900I2464162J-616040D01*
G01*
X243586000Y-33228900D02*
G75*
G02*
X246126000Y-30688900I2540000J0D01*
G01*
X255016000Y-30688900D02*
X255016000Y-31069900D01*
X246126000Y-30688900D02*
X255016000Y-30688900D01*
X243586000Y-33228900D02*
X243586000Y-33609900D01*
X243967000Y-37038900D02*
X243586000Y-37038900D01*
X247471838Y-37038900D02*
X245745000Y-37038900D01*
X255016000Y-35133900D02*
X249936000Y-35133900D01*
X255016000Y-34117900D02*
X255016000Y-35133900D01*
X243586000Y-36657900D02*
X243586000Y-37038900D01*
%TO.C,SW42*%
X204418838Y-75202960D02*
G75*
G02*
X206883000Y-73279000I2464162J-616040D01*
G01*
X200533000Y-71374000D02*
G75*
G02*
X203073000Y-68834000I2540000J0D01*
G01*
X211963000Y-68834000D02*
X211963000Y-69215000D01*
X203073000Y-68834000D02*
X211963000Y-68834000D01*
X200533000Y-71374000D02*
X200533000Y-71755000D01*
X200914000Y-75184000D02*
X200533000Y-75184000D01*
X204418838Y-75184000D02*
X202692000Y-75184000D01*
X211963000Y-73279000D02*
X206883000Y-73279000D01*
X211963000Y-72263000D02*
X211963000Y-73279000D01*
X200533000Y-74803000D02*
X200533000Y-75184000D01*
%TO.C,SW43*%
X195147838Y-94252960D02*
G75*
G02*
X197612000Y-92329000I2464162J-616040D01*
G01*
X191262000Y-90424000D02*
G75*
G02*
X193802000Y-87884000I2540000J0D01*
G01*
X202692000Y-87884000D02*
X202692000Y-88265000D01*
X193802000Y-87884000D02*
X202692000Y-87884000D01*
X191262000Y-90424000D02*
X191262000Y-90805000D01*
X191643000Y-94234000D02*
X191262000Y-94234000D01*
X195147838Y-94234000D02*
X193421000Y-94234000D01*
X202692000Y-92329000D02*
X197612000Y-92329000D01*
X202692000Y-91313000D02*
X202692000Y-92329000D01*
X191262000Y-93853000D02*
X191262000Y-94234000D01*
%TO.C,SW45*%
X266521838Y-37057860D02*
G75*
G02*
X268986000Y-35133900I2464162J-616040D01*
G01*
X262636000Y-33228900D02*
G75*
G02*
X265176000Y-30688900I2540000J0D01*
G01*
X274066000Y-30688900D02*
X274066000Y-31069900D01*
X265176000Y-30688900D02*
X274066000Y-30688900D01*
X262636000Y-33228900D02*
X262636000Y-33609900D01*
X263017000Y-37038900D02*
X262636000Y-37038900D01*
X266521838Y-37038900D02*
X264795000Y-37038900D01*
X274066000Y-35133900D02*
X268986000Y-35133900D01*
X274066000Y-34117900D02*
X274066000Y-35133900D01*
X262636000Y-36657900D02*
X262636000Y-37038900D01*
%TO.C,SW46*%
X190321838Y-37057860D02*
G75*
G02*
X192786000Y-35133900I2464162J-616040D01*
G01*
X186436000Y-33228900D02*
G75*
G02*
X188976000Y-30688900I2540000J0D01*
G01*
X197866000Y-30688900D02*
X197866000Y-31069900D01*
X188976000Y-30688900D02*
X197866000Y-30688900D01*
X186436000Y-33228900D02*
X186436000Y-33609900D01*
X186817000Y-37038900D02*
X186436000Y-37038900D01*
X190321838Y-37038900D02*
X188595000Y-37038900D01*
X197866000Y-35133900D02*
X192786000Y-35133900D01*
X197866000Y-34117900D02*
X197866000Y-35133900D01*
X186436000Y-36657900D02*
X186436000Y-37038900D01*
%TO.C,SW47*%
X199973838Y-56152960D02*
G75*
G02*
X202438000Y-54229000I2464162J-616040D01*
G01*
X196088000Y-52324000D02*
G75*
G02*
X198628000Y-49784000I2540000J0D01*
G01*
X207518000Y-49784000D02*
X207518000Y-50165000D01*
X198628000Y-49784000D02*
X207518000Y-49784000D01*
X196088000Y-52324000D02*
X196088000Y-52705000D01*
X196469000Y-56134000D02*
X196088000Y-56134000D01*
X199973838Y-56134000D02*
X198247000Y-56134000D01*
X207518000Y-54229000D02*
X202438000Y-54229000D01*
X207518000Y-53213000D02*
X207518000Y-54229000D01*
X196088000Y-55753000D02*
X196088000Y-56134000D01*
%TO.C,SW48*%
X209371838Y-37057860D02*
G75*
G02*
X211836000Y-35133900I2464162J-616040D01*
G01*
X205486000Y-33228900D02*
G75*
G02*
X208026000Y-30688900I2540000J0D01*
G01*
X216916000Y-30688900D02*
X216916000Y-31069900D01*
X208026000Y-30688900D02*
X216916000Y-30688900D01*
X205486000Y-33228900D02*
X205486000Y-33609900D01*
X205867000Y-37038900D02*
X205486000Y-37038900D01*
X209371838Y-37038900D02*
X207645000Y-37038900D01*
X216916000Y-35133900D02*
X211836000Y-35133900D01*
X216916000Y-34117900D02*
X216916000Y-35133900D01*
X205486000Y-36657900D02*
X205486000Y-37038900D01*
%TO.C,SW49*%
X219023838Y-56152960D02*
G75*
G02*
X221488000Y-54229000I2464162J-616040D01*
G01*
X215138000Y-52324000D02*
G75*
G02*
X217678000Y-49784000I2540000J0D01*
G01*
X226568000Y-49784000D02*
X226568000Y-50165000D01*
X217678000Y-49784000D02*
X226568000Y-49784000D01*
X215138000Y-52324000D02*
X215138000Y-52705000D01*
X215519000Y-56134000D02*
X215138000Y-56134000D01*
X219023838Y-56134000D02*
X217297000Y-56134000D01*
X226568000Y-54229000D02*
X221488000Y-54229000D01*
X226568000Y-53213000D02*
X226568000Y-54229000D01*
X215138000Y-55753000D02*
X215138000Y-56134000D01*
%TO.C,SW50*%
X223468838Y-75202960D02*
G75*
G02*
X225933000Y-73279000I2464162J-616040D01*
G01*
X219583000Y-71374000D02*
G75*
G02*
X222123000Y-68834000I2540000J0D01*
G01*
X231013000Y-68834000D02*
X231013000Y-69215000D01*
X222123000Y-68834000D02*
X231013000Y-68834000D01*
X219583000Y-71374000D02*
X219583000Y-71755000D01*
X219964000Y-75184000D02*
X219583000Y-75184000D01*
X223468838Y-75184000D02*
X221742000Y-75184000D01*
X231013000Y-73279000D02*
X225933000Y-73279000D01*
X231013000Y-72263000D02*
X231013000Y-73279000D01*
X219583000Y-74803000D02*
X219583000Y-75184000D01*
%TO.C,SW51*%
X214197838Y-94252960D02*
G75*
G02*
X216662000Y-92329000I2464162J-616040D01*
G01*
X210312000Y-90424000D02*
G75*
G02*
X212852000Y-87884000I2540000J0D01*
G01*
X221742000Y-87884000D02*
X221742000Y-88265000D01*
X212852000Y-87884000D02*
X221742000Y-87884000D01*
X210312000Y-90424000D02*
X210312000Y-90805000D01*
X210693000Y-94234000D02*
X210312000Y-94234000D01*
X214197838Y-94234000D02*
X212471000Y-94234000D01*
X221742000Y-92329000D02*
X216662000Y-92329000D01*
X221742000Y-91313000D02*
X221742000Y-92329000D01*
X210312000Y-93853000D02*
X210312000Y-94234000D01*
%TO.C,SW53*%
X228421838Y-37057860D02*
G75*
G02*
X230886000Y-35133900I2464162J-616040D01*
G01*
X224536000Y-33228900D02*
G75*
G02*
X227076000Y-30688900I2540000J0D01*
G01*
X235966000Y-30688900D02*
X235966000Y-31069900D01*
X227076000Y-30688900D02*
X235966000Y-30688900D01*
X224536000Y-33228900D02*
X224536000Y-33609900D01*
X224917000Y-37038900D02*
X224536000Y-37038900D01*
X228421838Y-37038900D02*
X226695000Y-37038900D01*
X235966000Y-35133900D02*
X230886000Y-35133900D01*
X235966000Y-34117900D02*
X235966000Y-35133900D01*
X224536000Y-36657900D02*
X224536000Y-37038900D01*
%TO.C,SW54*%
X356564838Y-74948960D02*
G75*
G02*
X359029000Y-73025000I2464162J-616040D01*
G01*
X352679000Y-71120000D02*
G75*
G02*
X355219000Y-68580000I2540000J0D01*
G01*
X364109000Y-68580000D02*
X364109000Y-68961000D01*
X355219000Y-68580000D02*
X364109000Y-68580000D01*
X352679000Y-71120000D02*
X352679000Y-71501000D01*
X353060000Y-74930000D02*
X352679000Y-74930000D01*
X356564838Y-74930000D02*
X354838000Y-74930000D01*
X364109000Y-73025000D02*
X359029000Y-73025000D01*
X364109000Y-72009000D02*
X364109000Y-73025000D01*
X352679000Y-74549000D02*
X352679000Y-74930000D01*
%TO.C,SW55*%
X276173838Y-56152960D02*
G75*
G02*
X278638000Y-54229000I2464162J-616040D01*
G01*
X272288000Y-52324000D02*
G75*
G02*
X274828000Y-49784000I2540000J0D01*
G01*
X283718000Y-49784000D02*
X283718000Y-50165000D01*
X274828000Y-49784000D02*
X283718000Y-49784000D01*
X272288000Y-52324000D02*
X272288000Y-52705000D01*
X272669000Y-56134000D02*
X272288000Y-56134000D01*
X276173838Y-56134000D02*
X274447000Y-56134000D01*
X283718000Y-54229000D02*
X278638000Y-54229000D01*
X283718000Y-53213000D02*
X283718000Y-54229000D01*
X272288000Y-55753000D02*
X272288000Y-56134000D01*
%TO.C,SW56*%
X375614838Y-74948960D02*
G75*
G02*
X378079000Y-73025000I2464162J-616040D01*
G01*
X371729000Y-71120000D02*
G75*
G02*
X374269000Y-68580000I2540000J0D01*
G01*
X383159000Y-68580000D02*
X383159000Y-68961000D01*
X374269000Y-68580000D02*
X383159000Y-68580000D01*
X371729000Y-71120000D02*
X371729000Y-71501000D01*
X372110000Y-74930000D02*
X371729000Y-74930000D01*
X375614838Y-74930000D02*
X373888000Y-74930000D01*
X383159000Y-73025000D02*
X378079000Y-73025000D01*
X383159000Y-72009000D02*
X383159000Y-73025000D01*
X371729000Y-74549000D02*
X371729000Y-74930000D01*
%TO.C,SW58*%
X261568838Y-75202960D02*
G75*
G02*
X264033000Y-73279000I2464162J-616040D01*
G01*
X257683000Y-71374000D02*
G75*
G02*
X260223000Y-68834000I2540000J0D01*
G01*
X269113000Y-68834000D02*
X269113000Y-69215000D01*
X260223000Y-68834000D02*
X269113000Y-68834000D01*
X257683000Y-71374000D02*
X257683000Y-71755000D01*
X258064000Y-75184000D02*
X257683000Y-75184000D01*
X261568838Y-75184000D02*
X259842000Y-75184000D01*
X269113000Y-73279000D02*
X264033000Y-73279000D01*
X269113000Y-72263000D02*
X269113000Y-73279000D01*
X257683000Y-74803000D02*
X257683000Y-75184000D01*
%TO.C,SW62*%
X356564838Y-55898960D02*
G75*
G02*
X359029000Y-53975000I2464162J-616040D01*
G01*
X352679000Y-52070000D02*
G75*
G02*
X355219000Y-49530000I2540000J0D01*
G01*
X364109000Y-49530000D02*
X364109000Y-49911000D01*
X355219000Y-49530000D02*
X364109000Y-49530000D01*
X352679000Y-52070000D02*
X352679000Y-52451000D01*
X353060000Y-55880000D02*
X352679000Y-55880000D01*
X356564838Y-55880000D02*
X354838000Y-55880000D01*
X364109000Y-53975000D02*
X359029000Y-53975000D01*
X364109000Y-52959000D02*
X364109000Y-53975000D01*
X352679000Y-55499000D02*
X352679000Y-55880000D01*
%TO.C,SW63*%
X337514838Y-55898960D02*
G75*
G02*
X339979000Y-53975000I2464162J-616040D01*
G01*
X333629000Y-52070000D02*
G75*
G02*
X336169000Y-49530000I2540000J0D01*
G01*
X345059000Y-49530000D02*
X345059000Y-49911000D01*
X336169000Y-49530000D02*
X345059000Y-49530000D01*
X333629000Y-52070000D02*
X333629000Y-52451000D01*
X334010000Y-55880000D02*
X333629000Y-55880000D01*
X337514838Y-55880000D02*
X335788000Y-55880000D01*
X345059000Y-53975000D02*
X339979000Y-53975000D01*
X345059000Y-52959000D02*
X345059000Y-53975000D01*
X333629000Y-55499000D02*
X333629000Y-55880000D01*
%TO.C,SW60*%
X337514838Y-74948960D02*
G75*
G02*
X339979000Y-73025000I2464162J-616040D01*
G01*
X333629000Y-71120000D02*
G75*
G02*
X336169000Y-68580000I2540000J0D01*
G01*
X345059000Y-68580000D02*
X345059000Y-68961000D01*
X336169000Y-68580000D02*
X345059000Y-68580000D01*
X333629000Y-71120000D02*
X333629000Y-71501000D01*
X334010000Y-74930000D02*
X333629000Y-74930000D01*
X337514838Y-74930000D02*
X335788000Y-74930000D01*
X345059000Y-73025000D02*
X339979000Y-73025000D01*
X345059000Y-72009000D02*
X345059000Y-73025000D01*
X333629000Y-74549000D02*
X333629000Y-74930000D01*
%TO.C,LEFT-SPACE1*%
X145500838Y-113419960D02*
G75*
G02*
X147965000Y-111496000I2464162J-616040D01*
G01*
X141615000Y-109591000D02*
G75*
G02*
X144155000Y-107051000I2540000J0D01*
G01*
X153045000Y-107051000D02*
X153045000Y-107432000D01*
X144155000Y-107051000D02*
X153045000Y-107051000D01*
X141996000Y-113401000D02*
X141615000Y-113401000D01*
X141615000Y-113020000D02*
X141615000Y-113401000D01*
X153045000Y-111496000D02*
X147965000Y-111496000D01*
X141615000Y-109591000D02*
X141615000Y-109972000D01*
X153045000Y-110480000D02*
X153045000Y-111496000D01*
X145500838Y-113401000D02*
X143774000Y-113401000D01*
%TO.C,RIGHT-SPACE1*%
X226526838Y-113419960D02*
G75*
G02*
X228991000Y-111496000I2464162J-616040D01*
G01*
X222641000Y-109591000D02*
G75*
G02*
X225181000Y-107051000I2540000J0D01*
G01*
X234071000Y-107051000D02*
X234071000Y-107432000D01*
X225181000Y-107051000D02*
X234071000Y-107051000D01*
X223022000Y-113401000D02*
X222641000Y-113401000D01*
X222641000Y-113020000D02*
X222641000Y-113401000D01*
X234071000Y-111496000D02*
X228991000Y-111496000D01*
X222641000Y-109591000D02*
X222641000Y-109972000D01*
X234071000Y-110480000D02*
X234071000Y-111496000D01*
X226526838Y-113401000D02*
X224800000Y-113401000D01*
%TO.C,SW64*%
X356564838Y-93998960D02*
G75*
G02*
X359029000Y-92075000I2464162J-616040D01*
G01*
X352679000Y-90170000D02*
G75*
G02*
X355219000Y-87630000I2540000J0D01*
G01*
X364109000Y-87630000D02*
X364109000Y-88011000D01*
X355219000Y-87630000D02*
X364109000Y-87630000D01*
X352679000Y-90170000D02*
X352679000Y-90551000D01*
X353060000Y-93980000D02*
X352679000Y-93980000D01*
X356564838Y-93980000D02*
X354838000Y-93980000D01*
X364109000Y-92075000D02*
X359029000Y-92075000D01*
X364109000Y-91059000D02*
X364109000Y-92075000D01*
X352679000Y-93599000D02*
X352679000Y-93980000D01*
%TO.C,SW65*%
X337514838Y-36848960D02*
G75*
G02*
X339979000Y-34925000I2464162J-616040D01*
G01*
X333629000Y-33020000D02*
G75*
G02*
X336169000Y-30480000I2540000J0D01*
G01*
X345059000Y-30480000D02*
X345059000Y-30861000D01*
X336169000Y-30480000D02*
X345059000Y-30480000D01*
X333629000Y-33020000D02*
X333629000Y-33401000D01*
X334010000Y-36830000D02*
X333629000Y-36830000D01*
X337514838Y-36830000D02*
X335788000Y-36830000D01*
X345059000Y-34925000D02*
X339979000Y-34925000D01*
X345059000Y-33909000D02*
X345059000Y-34925000D01*
X333629000Y-36449000D02*
X333629000Y-36830000D01*
%TO.C,SW66*%
X394664838Y-113048960D02*
G75*
G02*
X397129000Y-111125000I2464162J-616040D01*
G01*
X390779000Y-109220000D02*
G75*
G02*
X393319000Y-106680000I2540000J0D01*
G01*
X402209000Y-106680000D02*
X402209000Y-107061000D01*
X393319000Y-106680000D02*
X402209000Y-106680000D01*
X390779000Y-109220000D02*
X390779000Y-109601000D01*
X391160000Y-113030000D02*
X390779000Y-113030000D01*
X394664838Y-113030000D02*
X392938000Y-113030000D01*
X402209000Y-111125000D02*
X397129000Y-111125000D01*
X402209000Y-110109000D02*
X402209000Y-111125000D01*
X390779000Y-112649000D02*
X390779000Y-113030000D01*
%TO.C,SW67*%
X375614838Y-55898960D02*
G75*
G02*
X378079000Y-53975000I2464162J-616040D01*
G01*
X371729000Y-52070000D02*
G75*
G02*
X374269000Y-49530000I2540000J0D01*
G01*
X383159000Y-49530000D02*
X383159000Y-49911000D01*
X374269000Y-49530000D02*
X383159000Y-49530000D01*
X371729000Y-52070000D02*
X371729000Y-52451000D01*
X372110000Y-55880000D02*
X371729000Y-55880000D01*
X375614838Y-55880000D02*
X373888000Y-55880000D01*
X383159000Y-53975000D02*
X378079000Y-53975000D01*
X383159000Y-52959000D02*
X383159000Y-53975000D01*
X371729000Y-55499000D02*
X371729000Y-55880000D01*
%TO.C,SW68*%
X375614838Y-93998960D02*
G75*
G02*
X378079000Y-92075000I2464162J-616040D01*
G01*
X371729000Y-90170000D02*
G75*
G02*
X374269000Y-87630000I2540000J0D01*
G01*
X383159000Y-87630000D02*
X383159000Y-88011000D01*
X374269000Y-87630000D02*
X383159000Y-87630000D01*
X371729000Y-90170000D02*
X371729000Y-90551000D01*
X372110000Y-93980000D02*
X371729000Y-93980000D01*
X375614838Y-93980000D02*
X373888000Y-93980000D01*
X383159000Y-92075000D02*
X378079000Y-92075000D01*
X383159000Y-91059000D02*
X383159000Y-92075000D01*
X371729000Y-93599000D02*
X371729000Y-93980000D01*
%TO.C,SW69*%
X394664838Y-36848960D02*
G75*
G02*
X397129000Y-34925000I2464162J-616040D01*
G01*
X390779000Y-33020000D02*
G75*
G02*
X393319000Y-30480000I2540000J0D01*
G01*
X402209000Y-30480000D02*
X402209000Y-30861000D01*
X393319000Y-30480000D02*
X402209000Y-30480000D01*
X390779000Y-33020000D02*
X390779000Y-33401000D01*
X391160000Y-36830000D02*
X390779000Y-36830000D01*
X394664838Y-36830000D02*
X392938000Y-36830000D01*
X402209000Y-34925000D02*
X397129000Y-34925000D01*
X402209000Y-33909000D02*
X402209000Y-34925000D01*
X390779000Y-36449000D02*
X390779000Y-36830000D01*
%TO.C,SW70*%
X375614838Y-36848960D02*
G75*
G02*
X378079000Y-34925000I2464162J-616040D01*
G01*
X371729000Y-33020000D02*
G75*
G02*
X374269000Y-30480000I2540000J0D01*
G01*
X383159000Y-30480000D02*
X383159000Y-30861000D01*
X374269000Y-30480000D02*
X383159000Y-30480000D01*
X371729000Y-33020000D02*
X371729000Y-33401000D01*
X372110000Y-36830000D02*
X371729000Y-36830000D01*
X375614838Y-36830000D02*
X373888000Y-36830000D01*
X383159000Y-34925000D02*
X378079000Y-34925000D01*
X383159000Y-33909000D02*
X383159000Y-34925000D01*
X371729000Y-36449000D02*
X371729000Y-36830000D01*
%TO.C,SW71*%
X375614838Y-113048960D02*
G75*
G02*
X378079000Y-111125000I2464162J-616040D01*
G01*
X371729000Y-109220000D02*
G75*
G02*
X374269000Y-106680000I2540000J0D01*
G01*
X383159000Y-106680000D02*
X383159000Y-107061000D01*
X374269000Y-106680000D02*
X383159000Y-106680000D01*
X371729000Y-109220000D02*
X371729000Y-109601000D01*
X372110000Y-113030000D02*
X371729000Y-113030000D01*
X375614838Y-113030000D02*
X373888000Y-113030000D01*
X383159000Y-111125000D02*
X378079000Y-111125000D01*
X383159000Y-110109000D02*
X383159000Y-111125000D01*
X371729000Y-112649000D02*
X371729000Y-113030000D01*
%TO.C,SW72*%
X356564838Y-113048960D02*
G75*
G02*
X359029000Y-111125000I2464162J-616040D01*
G01*
X352679000Y-109220000D02*
G75*
G02*
X355219000Y-106680000I2540000J0D01*
G01*
X364109000Y-106680000D02*
X364109000Y-107061000D01*
X355219000Y-106680000D02*
X364109000Y-106680000D01*
X352679000Y-109220000D02*
X352679000Y-109601000D01*
X353060000Y-113030000D02*
X352679000Y-113030000D01*
X356564838Y-113030000D02*
X354838000Y-113030000D01*
X364109000Y-111125000D02*
X359029000Y-111125000D01*
X364109000Y-110109000D02*
X364109000Y-111125000D01*
X352679000Y-112649000D02*
X352679000Y-113030000D01*
%TO.C,SW73*%
X337514838Y-113048960D02*
G75*
G02*
X339979000Y-111125000I2464162J-616040D01*
G01*
X333629000Y-109220000D02*
G75*
G02*
X336169000Y-106680000I2540000J0D01*
G01*
X345059000Y-106680000D02*
X345059000Y-107061000D01*
X336169000Y-106680000D02*
X345059000Y-106680000D01*
X333629000Y-109220000D02*
X333629000Y-109601000D01*
X334010000Y-113030000D02*
X333629000Y-113030000D01*
X337514838Y-113030000D02*
X335788000Y-113030000D01*
X345059000Y-111125000D02*
X339979000Y-111125000D01*
X345059000Y-110109000D02*
X345059000Y-111125000D01*
X333629000Y-112649000D02*
X333629000Y-113030000D01*
%TO.C,S2*%
X394664838Y-93998960D02*
G75*
G02*
X397129000Y-92075000I2464162J-616040D01*
G01*
X390779000Y-90170000D02*
G75*
G02*
X393319000Y-87630000I2540000J0D01*
G01*
X402209000Y-87630000D02*
X402209000Y-88011000D01*
X393319000Y-87630000D02*
X402209000Y-87630000D01*
X390779000Y-90170000D02*
X390779000Y-90551000D01*
X391160000Y-93980000D02*
X390779000Y-93980000D01*
X394664838Y-93980000D02*
X392938000Y-93980000D01*
X402209000Y-92075000D02*
X397129000Y-92075000D01*
X402209000Y-91059000D02*
X402209000Y-92075000D01*
X390779000Y-93599000D02*
X390779000Y-93980000D01*
%TO.C,S1*%
X356564838Y-36848960D02*
G75*
G02*
X359029000Y-34925000I2464162J-616040D01*
G01*
X352679000Y-33020000D02*
G75*
G02*
X355219000Y-30480000I2540000J0D01*
G01*
X364109000Y-30480000D02*
X364109000Y-30861000D01*
X355219000Y-30480000D02*
X364109000Y-30480000D01*
X352679000Y-33020000D02*
X352679000Y-33401000D01*
X353060000Y-36830000D02*
X352679000Y-36830000D01*
X356564838Y-36830000D02*
X354838000Y-36830000D01*
X364109000Y-34925000D02*
X359029000Y-34925000D01*
X364109000Y-33909000D02*
X364109000Y-34925000D01*
X352679000Y-36449000D02*
X352679000Y-36830000D01*
%TO.C,SW44*%
X259800838Y-113419960D02*
G75*
G02*
X262265000Y-111496000I2464162J-616040D01*
G01*
X255915000Y-109591000D02*
G75*
G02*
X258455000Y-107051000I2540000J0D01*
G01*
X267345000Y-107051000D02*
X267345000Y-107432000D01*
X258455000Y-107051000D02*
X267345000Y-107051000D01*
X256296000Y-113401000D02*
X255915000Y-113401000D01*
X255915000Y-113020000D02*
X255915000Y-113401000D01*
X267345000Y-111496000D02*
X262265000Y-111496000D01*
X255915000Y-109591000D02*
X255915000Y-109972000D01*
X267345000Y-110480000D02*
X267345000Y-111496000D01*
X259800838Y-113401000D02*
X258074000Y-113401000D01*
%TO.C,SW52*%
X281380838Y-113429960D02*
G75*
G02*
X283845000Y-111506000I2464162J-616040D01*
G01*
X277495000Y-109601000D02*
G75*
G02*
X280035000Y-107061000I2540000J0D01*
G01*
X288925000Y-107061000D02*
X288925000Y-107442000D01*
X280035000Y-107061000D02*
X288925000Y-107061000D01*
X277495000Y-109601000D02*
X277495000Y-109982000D01*
X277876000Y-113411000D02*
X277495000Y-113411000D01*
X281380838Y-113411000D02*
X279654000Y-113411000D01*
X288925000Y-111506000D02*
X283845000Y-111506000D01*
X288925000Y-110490000D02*
X288925000Y-111506000D01*
X277495000Y-113030000D02*
X277495000Y-113411000D01*
%TO.C,RightMeta1*%
X306651333Y-106233380D02*
X306984666Y-105757190D01*
X307222761Y-106233380D02*
X307222761Y-105233380D01*
X306841809Y-105233380D01*
X306746571Y-105281000D01*
X306698952Y-105328619D01*
X306651333Y-105423857D01*
X306651333Y-105566714D01*
X306698952Y-105661952D01*
X306746571Y-105709571D01*
X306841809Y-105757190D01*
X307222761Y-105757190D01*
X306222761Y-105709571D02*
X305889428Y-105709571D01*
X305746571Y-106233380D02*
X306222761Y-106233380D01*
X306222761Y-105233380D01*
X305746571Y-105233380D01*
X304984666Y-105709571D02*
X305318000Y-105709571D01*
X305318000Y-106233380D02*
X305318000Y-105233380D01*
X304841809Y-105233380D01*
X304318000Y-105233380D02*
X304318000Y-105471476D01*
X304556095Y-105376238D02*
X304318000Y-105471476D01*
X304079904Y-105376238D01*
X304460857Y-105661952D02*
X304318000Y-105471476D01*
X304175142Y-105661952D01*
X303556095Y-105233380D02*
X303556095Y-105471476D01*
X303794190Y-105376238D02*
X303556095Y-105471476D01*
X303318000Y-105376238D01*
X303698952Y-105661952D02*
X303556095Y-105471476D01*
X303413238Y-105661952D01*
%TO.C,RIGHT-SHIFT1*%
X291919333Y-87056380D02*
X292252666Y-86580190D01*
X292490761Y-87056380D02*
X292490761Y-86056380D01*
X292109809Y-86056380D01*
X292014571Y-86104000D01*
X291966952Y-86151619D01*
X291919333Y-86246857D01*
X291919333Y-86389714D01*
X291966952Y-86484952D01*
X292014571Y-86532571D01*
X292109809Y-86580190D01*
X292490761Y-86580190D01*
X291490761Y-86532571D02*
X291157428Y-86532571D01*
X291014571Y-87056380D02*
X291490761Y-87056380D01*
X291490761Y-86056380D01*
X291014571Y-86056380D01*
X290252666Y-86532571D02*
X290586000Y-86532571D01*
X290586000Y-87056380D02*
X290586000Y-86056380D01*
X290109809Y-86056380D01*
X289586000Y-86056380D02*
X289586000Y-86294476D01*
X289824095Y-86199238D02*
X289586000Y-86294476D01*
X289347904Y-86199238D01*
X289728857Y-86484952D02*
X289586000Y-86294476D01*
X289443142Y-86484952D01*
X288824095Y-86056380D02*
X288824095Y-86294476D01*
X289062190Y-86199238D02*
X288824095Y-86294476D01*
X288586000Y-86199238D01*
X288966952Y-86484952D02*
X288824095Y-86294476D01*
X288681238Y-86484952D01*
%TO.C,ENTER1*%
X296491333Y-68006380D02*
X296824666Y-67530190D01*
X297062761Y-68006380D02*
X297062761Y-67006380D01*
X296681809Y-67006380D01*
X296586571Y-67054000D01*
X296538952Y-67101619D01*
X296491333Y-67196857D01*
X296491333Y-67339714D01*
X296538952Y-67434952D01*
X296586571Y-67482571D01*
X296681809Y-67530190D01*
X297062761Y-67530190D01*
X296062761Y-67482571D02*
X295729428Y-67482571D01*
X295586571Y-68006380D02*
X296062761Y-68006380D01*
X296062761Y-67006380D01*
X295586571Y-67006380D01*
X294824666Y-67482571D02*
X295158000Y-67482571D01*
X295158000Y-68006380D02*
X295158000Y-67006380D01*
X294681809Y-67006380D01*
X294158000Y-67006380D02*
X294158000Y-67244476D01*
X294396095Y-67149238D02*
X294158000Y-67244476D01*
X293919904Y-67149238D01*
X294300857Y-67434952D02*
X294158000Y-67244476D01*
X294015142Y-67434952D01*
X293396095Y-67006380D02*
X293396095Y-67244476D01*
X293634190Y-67149238D02*
X293396095Y-67244476D01*
X293158000Y-67149238D01*
X293538952Y-67434952D02*
X293396095Y-67244476D01*
X293253238Y-67434952D01*
%TO.C,SW4*%
X41639633Y-29823661D02*
X41496776Y-29871280D01*
X41258680Y-29871280D01*
X41163442Y-29823661D01*
X41115823Y-29776042D01*
X41068204Y-29680804D01*
X41068204Y-29585566D01*
X41115823Y-29490328D01*
X41163442Y-29442709D01*
X41258680Y-29395090D01*
X41449157Y-29347471D01*
X41544395Y-29299852D01*
X41592014Y-29252233D01*
X41639633Y-29156995D01*
X41639633Y-29061757D01*
X41592014Y-28966519D01*
X41544395Y-28918900D01*
X41449157Y-28871280D01*
X41211061Y-28871280D01*
X41068204Y-28918900D01*
X40734871Y-28871280D02*
X40496776Y-29871280D01*
X40306300Y-29156995D01*
X40115823Y-29871280D01*
X39877728Y-28871280D01*
X39068204Y-29204614D02*
X39068204Y-29871280D01*
X39306300Y-28823661D02*
X39544395Y-29537947D01*
X38925347Y-29537947D01*
%TO.C,WinKey1*%
X92021333Y-106233380D02*
X92354666Y-105757190D01*
X92592761Y-106233380D02*
X92592761Y-105233380D01*
X92211809Y-105233380D01*
X92116571Y-105281000D01*
X92068952Y-105328619D01*
X92021333Y-105423857D01*
X92021333Y-105566714D01*
X92068952Y-105661952D01*
X92116571Y-105709571D01*
X92211809Y-105757190D01*
X92592761Y-105757190D01*
X91592761Y-105709571D02*
X91259428Y-105709571D01*
X91116571Y-106233380D02*
X91592761Y-106233380D01*
X91592761Y-105233380D01*
X91116571Y-105233380D01*
X90354666Y-105709571D02*
X90688000Y-105709571D01*
X90688000Y-106233380D02*
X90688000Y-105233380D01*
X90211809Y-105233380D01*
X89688000Y-105233380D02*
X89688000Y-105471476D01*
X89926095Y-105376238D02*
X89688000Y-105471476D01*
X89449904Y-105376238D01*
X89830857Y-105661952D02*
X89688000Y-105471476D01*
X89545142Y-105661952D01*
X88926095Y-105233380D02*
X88926095Y-105471476D01*
X89164190Y-105376238D02*
X88926095Y-105471476D01*
X88688000Y-105376238D01*
X89068952Y-105661952D02*
X88926095Y-105471476D01*
X88783238Y-105661952D01*
%TO.C,LEFT_FN1*%
X68145333Y-106233380D02*
X68478666Y-105757190D01*
X68716761Y-106233380D02*
X68716761Y-105233380D01*
X68335809Y-105233380D01*
X68240571Y-105281000D01*
X68192952Y-105328619D01*
X68145333Y-105423857D01*
X68145333Y-105566714D01*
X68192952Y-105661952D01*
X68240571Y-105709571D01*
X68335809Y-105757190D01*
X68716761Y-105757190D01*
X67716761Y-105709571D02*
X67383428Y-105709571D01*
X67240571Y-106233380D02*
X67716761Y-106233380D01*
X67716761Y-105233380D01*
X67240571Y-105233380D01*
X66478666Y-105709571D02*
X66812000Y-105709571D01*
X66812000Y-106233380D02*
X66812000Y-105233380D01*
X66335809Y-105233380D01*
X65812000Y-105233380D02*
X65812000Y-105471476D01*
X66050095Y-105376238D02*
X65812000Y-105471476D01*
X65573904Y-105376238D01*
X65954857Y-105661952D02*
X65812000Y-105471476D01*
X65669142Y-105661952D01*
X65050095Y-105233380D02*
X65050095Y-105471476D01*
X65288190Y-105376238D02*
X65050095Y-105471476D01*
X64812000Y-105376238D01*
X65192952Y-105661952D02*
X65050095Y-105471476D01*
X64907238Y-105661952D01*
%TO.C,LEFT_CTRL1*%
X44269333Y-106233380D02*
X44602666Y-105757190D01*
X44840761Y-106233380D02*
X44840761Y-105233380D01*
X44459809Y-105233380D01*
X44364571Y-105281000D01*
X44316952Y-105328619D01*
X44269333Y-105423857D01*
X44269333Y-105566714D01*
X44316952Y-105661952D01*
X44364571Y-105709571D01*
X44459809Y-105757190D01*
X44840761Y-105757190D01*
X43840761Y-105709571D02*
X43507428Y-105709571D01*
X43364571Y-106233380D02*
X43840761Y-106233380D01*
X43840761Y-105233380D01*
X43364571Y-105233380D01*
X42602666Y-105709571D02*
X42936000Y-105709571D01*
X42936000Y-106233380D02*
X42936000Y-105233380D01*
X42459809Y-105233380D01*
X41936000Y-105233380D02*
X41936000Y-105471476D01*
X42174095Y-105376238D02*
X41936000Y-105471476D01*
X41697904Y-105376238D01*
X42078857Y-105661952D02*
X41936000Y-105471476D01*
X41793142Y-105661952D01*
X41174095Y-105233380D02*
X41174095Y-105471476D01*
X41412190Y-105376238D02*
X41174095Y-105471476D01*
X40936000Y-105376238D01*
X41316952Y-105661952D02*
X41174095Y-105471476D01*
X41031238Y-105661952D01*
%TO.C,LEFT_ALT1*%
X115897333Y-106233380D02*
X116230666Y-105757190D01*
X116468761Y-106233380D02*
X116468761Y-105233380D01*
X116087809Y-105233380D01*
X115992571Y-105281000D01*
X115944952Y-105328619D01*
X115897333Y-105423857D01*
X115897333Y-105566714D01*
X115944952Y-105661952D01*
X115992571Y-105709571D01*
X116087809Y-105757190D01*
X116468761Y-105757190D01*
X115468761Y-105709571D02*
X115135428Y-105709571D01*
X114992571Y-106233380D02*
X115468761Y-106233380D01*
X115468761Y-105233380D01*
X114992571Y-105233380D01*
X114230666Y-105709571D02*
X114564000Y-105709571D01*
X114564000Y-106233380D02*
X114564000Y-105233380D01*
X114087809Y-105233380D01*
X113564000Y-105233380D02*
X113564000Y-105471476D01*
X113802095Y-105376238D02*
X113564000Y-105471476D01*
X113325904Y-105376238D01*
X113706857Y-105661952D02*
X113564000Y-105471476D01*
X113421142Y-105661952D01*
X112802095Y-105233380D02*
X112802095Y-105471476D01*
X113040190Y-105376238D02*
X112802095Y-105471476D01*
X112564000Y-105376238D01*
X112944952Y-105661952D02*
X112802095Y-105471476D01*
X112659238Y-105661952D01*
%TO.C,Slash1*%
X303730333Y-48972580D02*
X304063666Y-48496390D01*
X304301761Y-48972580D02*
X304301761Y-47972580D01*
X303920809Y-47972580D01*
X303825571Y-48020200D01*
X303777952Y-48067819D01*
X303730333Y-48163057D01*
X303730333Y-48305914D01*
X303777952Y-48401152D01*
X303825571Y-48448771D01*
X303920809Y-48496390D01*
X304301761Y-48496390D01*
X303301761Y-48448771D02*
X302968428Y-48448771D01*
X302825571Y-48972580D02*
X303301761Y-48972580D01*
X303301761Y-47972580D01*
X302825571Y-47972580D01*
X302063666Y-48448771D02*
X302397000Y-48448771D01*
X302397000Y-48972580D02*
X302397000Y-47972580D01*
X301920809Y-47972580D01*
X301397000Y-47972580D02*
X301397000Y-48210676D01*
X301635095Y-48115438D02*
X301397000Y-48210676D01*
X301158904Y-48115438D01*
X301539857Y-48401152D02*
X301397000Y-48210676D01*
X301254142Y-48401152D01*
X300635095Y-47972580D02*
X300635095Y-48210676D01*
X300873190Y-48115438D02*
X300635095Y-48210676D01*
X300397000Y-48115438D01*
X300777952Y-48401152D02*
X300635095Y-48210676D01*
X300492238Y-48401152D01*
%TO.C,LEFT-SHIFT1*%
X53730833Y-87056380D02*
X54064166Y-86580190D01*
X54302261Y-87056380D02*
X54302261Y-86056380D01*
X53921309Y-86056380D01*
X53826071Y-86104000D01*
X53778452Y-86151619D01*
X53730833Y-86246857D01*
X53730833Y-86389714D01*
X53778452Y-86484952D01*
X53826071Y-86532571D01*
X53921309Y-86580190D01*
X54302261Y-86580190D01*
X53302261Y-86532571D02*
X52968928Y-86532571D01*
X52826071Y-87056380D02*
X53302261Y-87056380D01*
X53302261Y-86056380D01*
X52826071Y-86056380D01*
X52064166Y-86532571D02*
X52397500Y-86532571D01*
X52397500Y-87056380D02*
X52397500Y-86056380D01*
X51921309Y-86056380D01*
X51397500Y-86056380D02*
X51397500Y-86294476D01*
X51635595Y-86199238D02*
X51397500Y-86294476D01*
X51159404Y-86199238D01*
X51540357Y-86484952D02*
X51397500Y-86294476D01*
X51254642Y-86484952D01*
X50635595Y-86056380D02*
X50635595Y-86294476D01*
X50873690Y-86199238D02*
X50635595Y-86294476D01*
X50397500Y-86199238D01*
X50778452Y-86484952D02*
X50635595Y-86294476D01*
X50492738Y-86484952D01*
%TO.C,Backspace1*%
X298904333Y-29877480D02*
X299237666Y-29401290D01*
X299475761Y-29877480D02*
X299475761Y-28877480D01*
X299094809Y-28877480D01*
X298999571Y-28925100D01*
X298951952Y-28972719D01*
X298904333Y-29067957D01*
X298904333Y-29210814D01*
X298951952Y-29306052D01*
X298999571Y-29353671D01*
X299094809Y-29401290D01*
X299475761Y-29401290D01*
X298475761Y-29353671D02*
X298142428Y-29353671D01*
X297999571Y-29877480D02*
X298475761Y-29877480D01*
X298475761Y-28877480D01*
X297999571Y-28877480D01*
X297237666Y-29353671D02*
X297571000Y-29353671D01*
X297571000Y-29877480D02*
X297571000Y-28877480D01*
X297094809Y-28877480D01*
X296571000Y-28877480D02*
X296571000Y-29115576D01*
X296809095Y-29020338D02*
X296571000Y-29115576D01*
X296332904Y-29020338D01*
X296713857Y-29306052D02*
X296571000Y-29115576D01*
X296428142Y-29306052D01*
X295809095Y-28877480D02*
X295809095Y-29115576D01*
X296047190Y-29020338D02*
X295809095Y-29115576D01*
X295571000Y-29020338D01*
X295951952Y-29306052D02*
X295809095Y-29115576D01*
X295666238Y-29306052D01*
%TO.C,TAB1*%
X46555333Y-48972580D02*
X46888666Y-48496390D01*
X47126761Y-48972580D02*
X47126761Y-47972580D01*
X46745809Y-47972580D01*
X46650571Y-48020200D01*
X46602952Y-48067819D01*
X46555333Y-48163057D01*
X46555333Y-48305914D01*
X46602952Y-48401152D01*
X46650571Y-48448771D01*
X46745809Y-48496390D01*
X47126761Y-48496390D01*
X46126761Y-48448771D02*
X45793428Y-48448771D01*
X45650571Y-48972580D02*
X46126761Y-48972580D01*
X46126761Y-47972580D01*
X45650571Y-47972580D01*
X44888666Y-48448771D02*
X45222000Y-48448771D01*
X45222000Y-48972580D02*
X45222000Y-47972580D01*
X44745809Y-47972580D01*
X44222000Y-47972580D02*
X44222000Y-48210676D01*
X44460095Y-48115438D02*
X44222000Y-48210676D01*
X43983904Y-48115438D01*
X44364857Y-48401152D02*
X44222000Y-48210676D01*
X44079142Y-48401152D01*
X43460095Y-47972580D02*
X43460095Y-48210676D01*
X43698190Y-48115438D02*
X43460095Y-48210676D01*
X43222000Y-48115438D01*
X43602952Y-48401152D02*
X43460095Y-48210676D01*
X43317238Y-48401152D01*
%TO.C,CAPS1*%
X48937833Y-68006380D02*
X49271166Y-67530190D01*
X49509261Y-68006380D02*
X49509261Y-67006380D01*
X49128309Y-67006380D01*
X49033071Y-67054000D01*
X48985452Y-67101619D01*
X48937833Y-67196857D01*
X48937833Y-67339714D01*
X48985452Y-67434952D01*
X49033071Y-67482571D01*
X49128309Y-67530190D01*
X49509261Y-67530190D01*
X48509261Y-67482571D02*
X48175928Y-67482571D01*
X48033071Y-68006380D02*
X48509261Y-68006380D01*
X48509261Y-67006380D01*
X48033071Y-67006380D01*
X47271166Y-67482571D02*
X47604500Y-67482571D01*
X47604500Y-68006380D02*
X47604500Y-67006380D01*
X47128309Y-67006380D01*
X46604500Y-67006380D02*
X46604500Y-67244476D01*
X46842595Y-67149238D02*
X46604500Y-67244476D01*
X46366404Y-67149238D01*
X46747357Y-67434952D02*
X46604500Y-67244476D01*
X46461642Y-67434952D01*
X45842595Y-67006380D02*
X45842595Y-67244476D01*
X46080690Y-67149238D02*
X45842595Y-67244476D01*
X45604500Y-67149238D01*
X45985452Y-67434952D02*
X45842595Y-67244476D01*
X45699738Y-67434952D01*
%TO.C,SW57*%
X246792523Y-67968761D02*
X246649666Y-68016380D01*
X246411571Y-68016380D01*
X246316333Y-67968761D01*
X246268714Y-67921142D01*
X246221095Y-67825904D01*
X246221095Y-67730666D01*
X246268714Y-67635428D01*
X246316333Y-67587809D01*
X246411571Y-67540190D01*
X246602047Y-67492571D01*
X246697285Y-67444952D01*
X246744904Y-67397333D01*
X246792523Y-67302095D01*
X246792523Y-67206857D01*
X246744904Y-67111619D01*
X246697285Y-67064000D01*
X246602047Y-67016380D01*
X246363952Y-67016380D01*
X246221095Y-67064000D01*
X245887761Y-67016380D02*
X245649666Y-68016380D01*
X245459190Y-67302095D01*
X245268714Y-68016380D01*
X245030619Y-67016380D01*
X244173476Y-67016380D02*
X244649666Y-67016380D01*
X244697285Y-67492571D01*
X244649666Y-67444952D01*
X244554428Y-67397333D01*
X244316333Y-67397333D01*
X244221095Y-67444952D01*
X244173476Y-67492571D01*
X244125857Y-67587809D01*
X244125857Y-67825904D01*
X244173476Y-67921142D01*
X244221095Y-67968761D01*
X244316333Y-68016380D01*
X244554428Y-68016380D01*
X244649666Y-67968761D01*
X244697285Y-67921142D01*
X243792523Y-67016380D02*
X243125857Y-67016380D01*
X243554428Y-68016380D01*
%TO.C,SW1*%
X398462333Y-48664761D02*
X398319476Y-48712380D01*
X398081380Y-48712380D01*
X397986142Y-48664761D01*
X397938523Y-48617142D01*
X397890904Y-48521904D01*
X397890904Y-48426666D01*
X397938523Y-48331428D01*
X397986142Y-48283809D01*
X398081380Y-48236190D01*
X398271857Y-48188571D01*
X398367095Y-48140952D01*
X398414714Y-48093333D01*
X398462333Y-47998095D01*
X398462333Y-47902857D01*
X398414714Y-47807619D01*
X398367095Y-47760000D01*
X398271857Y-47712380D01*
X398033761Y-47712380D01*
X397890904Y-47760000D01*
X397557571Y-47712380D02*
X397319476Y-48712380D01*
X397129000Y-47998095D01*
X396938523Y-48712380D01*
X396700428Y-47712380D01*
X395795666Y-48712380D02*
X396367095Y-48712380D01*
X396081380Y-48712380D02*
X396081380Y-47712380D01*
X396176619Y-47855238D01*
X396271857Y-47950476D01*
X396367095Y-47998095D01*
%TO.C,SW3*%
X237045333Y-87018761D02*
X236902476Y-87066380D01*
X236664380Y-87066380D01*
X236569142Y-87018761D01*
X236521523Y-86971142D01*
X236473904Y-86875904D01*
X236473904Y-86780666D01*
X236521523Y-86685428D01*
X236569142Y-86637809D01*
X236664380Y-86590190D01*
X236854857Y-86542571D01*
X236950095Y-86494952D01*
X236997714Y-86447333D01*
X237045333Y-86352095D01*
X237045333Y-86256857D01*
X236997714Y-86161619D01*
X236950095Y-86114000D01*
X236854857Y-86066380D01*
X236616761Y-86066380D01*
X236473904Y-86114000D01*
X236140571Y-86066380D02*
X235902476Y-87066380D01*
X235712000Y-86352095D01*
X235521523Y-87066380D01*
X235283428Y-86066380D01*
X234997714Y-86066380D02*
X234378666Y-86066380D01*
X234712000Y-86447333D01*
X234569142Y-86447333D01*
X234473904Y-86494952D01*
X234426285Y-86542571D01*
X234378666Y-86637809D01*
X234378666Y-86875904D01*
X234426285Y-86971142D01*
X234473904Y-87018761D01*
X234569142Y-87066380D01*
X234854857Y-87066380D01*
X234950095Y-87018761D01*
X234997714Y-86971142D01*
%TO.C,SW5*%
X60769333Y-29823661D02*
X60626476Y-29871280D01*
X60388380Y-29871280D01*
X60293142Y-29823661D01*
X60245523Y-29776042D01*
X60197904Y-29680804D01*
X60197904Y-29585566D01*
X60245523Y-29490328D01*
X60293142Y-29442709D01*
X60388380Y-29395090D01*
X60578857Y-29347471D01*
X60674095Y-29299852D01*
X60721714Y-29252233D01*
X60769333Y-29156995D01*
X60769333Y-29061757D01*
X60721714Y-28966519D01*
X60674095Y-28918900D01*
X60578857Y-28871280D01*
X60340761Y-28871280D01*
X60197904Y-28918900D01*
X59864571Y-28871280D02*
X59626476Y-29871280D01*
X59436000Y-29156995D01*
X59245523Y-29871280D01*
X59007428Y-28871280D01*
X58150285Y-28871280D02*
X58626476Y-28871280D01*
X58674095Y-29347471D01*
X58626476Y-29299852D01*
X58531238Y-29252233D01*
X58293142Y-29252233D01*
X58197904Y-29299852D01*
X58150285Y-29347471D01*
X58102666Y-29442709D01*
X58102666Y-29680804D01*
X58150285Y-29776042D01*
X58197904Y-29823661D01*
X58293142Y-29871280D01*
X58531238Y-29871280D01*
X58626476Y-29823661D01*
X58674095Y-29776042D01*
%TO.C,SW6*%
X70421333Y-48918761D02*
X70278476Y-48966380D01*
X70040380Y-48966380D01*
X69945142Y-48918761D01*
X69897523Y-48871142D01*
X69849904Y-48775904D01*
X69849904Y-48680666D01*
X69897523Y-48585428D01*
X69945142Y-48537809D01*
X70040380Y-48490190D01*
X70230857Y-48442571D01*
X70326095Y-48394952D01*
X70373714Y-48347333D01*
X70421333Y-48252095D01*
X70421333Y-48156857D01*
X70373714Y-48061619D01*
X70326095Y-48014000D01*
X70230857Y-47966380D01*
X69992761Y-47966380D01*
X69849904Y-48014000D01*
X69516571Y-47966380D02*
X69278476Y-48966380D01*
X69088000Y-48252095D01*
X68897523Y-48966380D01*
X68659428Y-47966380D01*
X67849904Y-47966380D02*
X68040380Y-47966380D01*
X68135619Y-48014000D01*
X68183238Y-48061619D01*
X68278476Y-48204476D01*
X68326095Y-48394952D01*
X68326095Y-48775904D01*
X68278476Y-48871142D01*
X68230857Y-48918761D01*
X68135619Y-48966380D01*
X67945142Y-48966380D01*
X67849904Y-48918761D01*
X67802285Y-48871142D01*
X67754666Y-48775904D01*
X67754666Y-48537809D01*
X67802285Y-48442571D01*
X67849904Y-48394952D01*
X67945142Y-48347333D01*
X68135619Y-48347333D01*
X68230857Y-48394952D01*
X68278476Y-48442571D01*
X68326095Y-48537809D01*
%TO.C,SW7*%
X75120333Y-67968761D02*
X74977476Y-68016380D01*
X74739380Y-68016380D01*
X74644142Y-67968761D01*
X74596523Y-67921142D01*
X74548904Y-67825904D01*
X74548904Y-67730666D01*
X74596523Y-67635428D01*
X74644142Y-67587809D01*
X74739380Y-67540190D01*
X74929857Y-67492571D01*
X75025095Y-67444952D01*
X75072714Y-67397333D01*
X75120333Y-67302095D01*
X75120333Y-67206857D01*
X75072714Y-67111619D01*
X75025095Y-67064000D01*
X74929857Y-67016380D01*
X74691761Y-67016380D01*
X74548904Y-67064000D01*
X74215571Y-67016380D02*
X73977476Y-68016380D01*
X73787000Y-67302095D01*
X73596523Y-68016380D01*
X73358428Y-67016380D01*
X73072714Y-67016380D02*
X72406047Y-67016380D01*
X72834619Y-68016380D01*
%TO.C,SW9*%
X341312333Y-86764761D02*
X341169476Y-86812380D01*
X340931380Y-86812380D01*
X340836142Y-86764761D01*
X340788523Y-86717142D01*
X340740904Y-86621904D01*
X340740904Y-86526666D01*
X340788523Y-86431428D01*
X340836142Y-86383809D01*
X340931380Y-86336190D01*
X341121857Y-86288571D01*
X341217095Y-86240952D01*
X341264714Y-86193333D01*
X341312333Y-86098095D01*
X341312333Y-86002857D01*
X341264714Y-85907619D01*
X341217095Y-85860000D01*
X341121857Y-85812380D01*
X340883761Y-85812380D01*
X340740904Y-85860000D01*
X340407571Y-85812380D02*
X340169476Y-86812380D01*
X339979000Y-86098095D01*
X339788523Y-86812380D01*
X339550428Y-85812380D01*
X339121857Y-86812380D02*
X338931380Y-86812380D01*
X338836142Y-86764761D01*
X338788523Y-86717142D01*
X338693285Y-86574285D01*
X338645666Y-86383809D01*
X338645666Y-86002857D01*
X338693285Y-85907619D01*
X338740904Y-85860000D01*
X338836142Y-85812380D01*
X339026619Y-85812380D01*
X339121857Y-85860000D01*
X339169476Y-85907619D01*
X339217095Y-86002857D01*
X339217095Y-86240952D01*
X339169476Y-86336190D01*
X339121857Y-86383809D01*
X339026619Y-86431428D01*
X338836142Y-86431428D01*
X338740904Y-86383809D01*
X338693285Y-86336190D01*
X338645666Y-86240952D01*
%TO.C,SW10*%
X94646523Y-67968761D02*
X94503666Y-68016380D01*
X94265571Y-68016380D01*
X94170333Y-67968761D01*
X94122714Y-67921142D01*
X94075095Y-67825904D01*
X94075095Y-67730666D01*
X94122714Y-67635428D01*
X94170333Y-67587809D01*
X94265571Y-67540190D01*
X94456047Y-67492571D01*
X94551285Y-67444952D01*
X94598904Y-67397333D01*
X94646523Y-67302095D01*
X94646523Y-67206857D01*
X94598904Y-67111619D01*
X94551285Y-67064000D01*
X94456047Y-67016380D01*
X94217952Y-67016380D01*
X94075095Y-67064000D01*
X93741761Y-67016380D02*
X93503666Y-68016380D01*
X93313190Y-67302095D01*
X93122714Y-68016380D01*
X92884619Y-67016380D01*
X91979857Y-68016380D02*
X92551285Y-68016380D01*
X92265571Y-68016380D02*
X92265571Y-67016380D01*
X92360809Y-67159238D01*
X92456047Y-67254476D01*
X92551285Y-67302095D01*
X91360809Y-67016380D02*
X91265571Y-67016380D01*
X91170333Y-67064000D01*
X91122714Y-67111619D01*
X91075095Y-67206857D01*
X91027476Y-67397333D01*
X91027476Y-67635428D01*
X91075095Y-67825904D01*
X91122714Y-67921142D01*
X91170333Y-67968761D01*
X91265571Y-68016380D01*
X91360809Y-68016380D01*
X91456047Y-67968761D01*
X91503666Y-67921142D01*
X91551285Y-67825904D01*
X91598904Y-67635428D01*
X91598904Y-67397333D01*
X91551285Y-67206857D01*
X91503666Y-67111619D01*
X91456047Y-67064000D01*
X91360809Y-67016380D01*
%TO.C,SW11*%
X85121523Y-87018761D02*
X84978666Y-87066380D01*
X84740571Y-87066380D01*
X84645333Y-87018761D01*
X84597714Y-86971142D01*
X84550095Y-86875904D01*
X84550095Y-86780666D01*
X84597714Y-86685428D01*
X84645333Y-86637809D01*
X84740571Y-86590190D01*
X84931047Y-86542571D01*
X85026285Y-86494952D01*
X85073904Y-86447333D01*
X85121523Y-86352095D01*
X85121523Y-86256857D01*
X85073904Y-86161619D01*
X85026285Y-86114000D01*
X84931047Y-86066380D01*
X84692952Y-86066380D01*
X84550095Y-86114000D01*
X84216761Y-86066380D02*
X83978666Y-87066380D01*
X83788190Y-86352095D01*
X83597714Y-87066380D01*
X83359619Y-86066380D01*
X82454857Y-87066380D02*
X83026285Y-87066380D01*
X82740571Y-87066380D02*
X82740571Y-86066380D01*
X82835809Y-86209238D01*
X82931047Y-86304476D01*
X83026285Y-86352095D01*
X81502476Y-87066380D02*
X82073904Y-87066380D01*
X81788190Y-87066380D02*
X81788190Y-86066380D01*
X81883428Y-86209238D01*
X81978666Y-86304476D01*
X82073904Y-86352095D01*
%TO.C,SW12*%
X398938523Y-67714761D02*
X398795666Y-67762380D01*
X398557571Y-67762380D01*
X398462333Y-67714761D01*
X398414714Y-67667142D01*
X398367095Y-67571904D01*
X398367095Y-67476666D01*
X398414714Y-67381428D01*
X398462333Y-67333809D01*
X398557571Y-67286190D01*
X398748047Y-67238571D01*
X398843285Y-67190952D01*
X398890904Y-67143333D01*
X398938523Y-67048095D01*
X398938523Y-66952857D01*
X398890904Y-66857619D01*
X398843285Y-66810000D01*
X398748047Y-66762380D01*
X398509952Y-66762380D01*
X398367095Y-66810000D01*
X398033761Y-66762380D02*
X397795666Y-67762380D01*
X397605190Y-67048095D01*
X397414714Y-67762380D01*
X397176619Y-66762380D01*
X396271857Y-67762380D02*
X396843285Y-67762380D01*
X396557571Y-67762380D02*
X396557571Y-66762380D01*
X396652809Y-66905238D01*
X396748047Y-67000476D01*
X396843285Y-67048095D01*
X395890904Y-66857619D02*
X395843285Y-66810000D01*
X395748047Y-66762380D01*
X395509952Y-66762380D01*
X395414714Y-66810000D01*
X395367095Y-66857619D01*
X395319476Y-66952857D01*
X395319476Y-67048095D01*
X395367095Y-67190952D01*
X395938523Y-67762380D01*
X395319476Y-67762380D01*
%TO.C,SW13*%
X80295523Y-29823661D02*
X80152666Y-29871280D01*
X79914571Y-29871280D01*
X79819333Y-29823661D01*
X79771714Y-29776042D01*
X79724095Y-29680804D01*
X79724095Y-29585566D01*
X79771714Y-29490328D01*
X79819333Y-29442709D01*
X79914571Y-29395090D01*
X80105047Y-29347471D01*
X80200285Y-29299852D01*
X80247904Y-29252233D01*
X80295523Y-29156995D01*
X80295523Y-29061757D01*
X80247904Y-28966519D01*
X80200285Y-28918900D01*
X80105047Y-28871280D01*
X79866952Y-28871280D01*
X79724095Y-28918900D01*
X79390761Y-28871280D02*
X79152666Y-29871280D01*
X78962190Y-29156995D01*
X78771714Y-29871280D01*
X78533619Y-28871280D01*
X77628857Y-29871280D02*
X78200285Y-29871280D01*
X77914571Y-29871280D02*
X77914571Y-28871280D01*
X78009809Y-29014138D01*
X78105047Y-29109376D01*
X78200285Y-29156995D01*
X77295523Y-28871280D02*
X76676476Y-28871280D01*
X77009809Y-29252233D01*
X76866952Y-29252233D01*
X76771714Y-29299852D01*
X76724095Y-29347471D01*
X76676476Y-29442709D01*
X76676476Y-29680804D01*
X76724095Y-29776042D01*
X76771714Y-29823661D01*
X76866952Y-29871280D01*
X77152666Y-29871280D01*
X77247904Y-29823661D01*
X77295523Y-29776042D01*
%TO.C,SW14*%
X89947523Y-48918761D02*
X89804666Y-48966380D01*
X89566571Y-48966380D01*
X89471333Y-48918761D01*
X89423714Y-48871142D01*
X89376095Y-48775904D01*
X89376095Y-48680666D01*
X89423714Y-48585428D01*
X89471333Y-48537809D01*
X89566571Y-48490190D01*
X89757047Y-48442571D01*
X89852285Y-48394952D01*
X89899904Y-48347333D01*
X89947523Y-48252095D01*
X89947523Y-48156857D01*
X89899904Y-48061619D01*
X89852285Y-48014000D01*
X89757047Y-47966380D01*
X89518952Y-47966380D01*
X89376095Y-48014000D01*
X89042761Y-47966380D02*
X88804666Y-48966380D01*
X88614190Y-48252095D01*
X88423714Y-48966380D01*
X88185619Y-47966380D01*
X87280857Y-48966380D02*
X87852285Y-48966380D01*
X87566571Y-48966380D02*
X87566571Y-47966380D01*
X87661809Y-48109238D01*
X87757047Y-48204476D01*
X87852285Y-48252095D01*
X86423714Y-48299714D02*
X86423714Y-48966380D01*
X86661809Y-47918761D02*
X86899904Y-48633047D01*
X86280857Y-48633047D01*
%TO.C,SW15*%
X99345523Y-29823661D02*
X99202666Y-29871280D01*
X98964571Y-29871280D01*
X98869333Y-29823661D01*
X98821714Y-29776042D01*
X98774095Y-29680804D01*
X98774095Y-29585566D01*
X98821714Y-29490328D01*
X98869333Y-29442709D01*
X98964571Y-29395090D01*
X99155047Y-29347471D01*
X99250285Y-29299852D01*
X99297904Y-29252233D01*
X99345523Y-29156995D01*
X99345523Y-29061757D01*
X99297904Y-28966519D01*
X99250285Y-28918900D01*
X99155047Y-28871280D01*
X98916952Y-28871280D01*
X98774095Y-28918900D01*
X98440761Y-28871280D02*
X98202666Y-29871280D01*
X98012190Y-29156995D01*
X97821714Y-29871280D01*
X97583619Y-28871280D01*
X96678857Y-29871280D02*
X97250285Y-29871280D01*
X96964571Y-29871280D02*
X96964571Y-28871280D01*
X97059809Y-29014138D01*
X97155047Y-29109376D01*
X97250285Y-29156995D01*
X95774095Y-28871280D02*
X96250285Y-28871280D01*
X96297904Y-29347471D01*
X96250285Y-29299852D01*
X96155047Y-29252233D01*
X95916952Y-29252233D01*
X95821714Y-29299852D01*
X95774095Y-29347471D01*
X95726476Y-29442709D01*
X95726476Y-29680804D01*
X95774095Y-29776042D01*
X95821714Y-29823661D01*
X95916952Y-29871280D01*
X96155047Y-29871280D01*
X96250285Y-29823661D01*
X96297904Y-29776042D01*
%TO.C,SW16*%
X108997523Y-48918761D02*
X108854666Y-48966380D01*
X108616571Y-48966380D01*
X108521333Y-48918761D01*
X108473714Y-48871142D01*
X108426095Y-48775904D01*
X108426095Y-48680666D01*
X108473714Y-48585428D01*
X108521333Y-48537809D01*
X108616571Y-48490190D01*
X108807047Y-48442571D01*
X108902285Y-48394952D01*
X108949904Y-48347333D01*
X108997523Y-48252095D01*
X108997523Y-48156857D01*
X108949904Y-48061619D01*
X108902285Y-48014000D01*
X108807047Y-47966380D01*
X108568952Y-47966380D01*
X108426095Y-48014000D01*
X108092761Y-47966380D02*
X107854666Y-48966380D01*
X107664190Y-48252095D01*
X107473714Y-48966380D01*
X107235619Y-47966380D01*
X106330857Y-48966380D02*
X106902285Y-48966380D01*
X106616571Y-48966380D02*
X106616571Y-47966380D01*
X106711809Y-48109238D01*
X106807047Y-48204476D01*
X106902285Y-48252095D01*
X105473714Y-47966380D02*
X105664190Y-47966380D01*
X105759428Y-48014000D01*
X105807047Y-48061619D01*
X105902285Y-48204476D01*
X105949904Y-48394952D01*
X105949904Y-48775904D01*
X105902285Y-48871142D01*
X105854666Y-48918761D01*
X105759428Y-48966380D01*
X105568952Y-48966380D01*
X105473714Y-48918761D01*
X105426095Y-48871142D01*
X105378476Y-48775904D01*
X105378476Y-48537809D01*
X105426095Y-48442571D01*
X105473714Y-48394952D01*
X105568952Y-48347333D01*
X105759428Y-48347333D01*
X105854666Y-48394952D01*
X105902285Y-48442571D01*
X105949904Y-48537809D01*
%TO.C,SW17*%
X113696523Y-67968761D02*
X113553666Y-68016380D01*
X113315571Y-68016380D01*
X113220333Y-67968761D01*
X113172714Y-67921142D01*
X113125095Y-67825904D01*
X113125095Y-67730666D01*
X113172714Y-67635428D01*
X113220333Y-67587809D01*
X113315571Y-67540190D01*
X113506047Y-67492571D01*
X113601285Y-67444952D01*
X113648904Y-67397333D01*
X113696523Y-67302095D01*
X113696523Y-67206857D01*
X113648904Y-67111619D01*
X113601285Y-67064000D01*
X113506047Y-67016380D01*
X113267952Y-67016380D01*
X113125095Y-67064000D01*
X112791761Y-67016380D02*
X112553666Y-68016380D01*
X112363190Y-67302095D01*
X112172714Y-68016380D01*
X111934619Y-67016380D01*
X111029857Y-68016380D02*
X111601285Y-68016380D01*
X111315571Y-68016380D02*
X111315571Y-67016380D01*
X111410809Y-67159238D01*
X111506047Y-67254476D01*
X111601285Y-67302095D01*
X110696523Y-67016380D02*
X110029857Y-67016380D01*
X110458428Y-68016380D01*
%TO.C,SW18*%
X104171523Y-87018761D02*
X104028666Y-87066380D01*
X103790571Y-87066380D01*
X103695333Y-87018761D01*
X103647714Y-86971142D01*
X103600095Y-86875904D01*
X103600095Y-86780666D01*
X103647714Y-86685428D01*
X103695333Y-86637809D01*
X103790571Y-86590190D01*
X103981047Y-86542571D01*
X104076285Y-86494952D01*
X104123904Y-86447333D01*
X104171523Y-86352095D01*
X104171523Y-86256857D01*
X104123904Y-86161619D01*
X104076285Y-86114000D01*
X103981047Y-86066380D01*
X103742952Y-86066380D01*
X103600095Y-86114000D01*
X103266761Y-86066380D02*
X103028666Y-87066380D01*
X102838190Y-86352095D01*
X102647714Y-87066380D01*
X102409619Y-86066380D01*
X101504857Y-87066380D02*
X102076285Y-87066380D01*
X101790571Y-87066380D02*
X101790571Y-86066380D01*
X101885809Y-86209238D01*
X101981047Y-86304476D01*
X102076285Y-86352095D01*
X100933428Y-86494952D02*
X101028666Y-86447333D01*
X101076285Y-86399714D01*
X101123904Y-86304476D01*
X101123904Y-86256857D01*
X101076285Y-86161619D01*
X101028666Y-86114000D01*
X100933428Y-86066380D01*
X100742952Y-86066380D01*
X100647714Y-86114000D01*
X100600095Y-86161619D01*
X100552476Y-86256857D01*
X100552476Y-86304476D01*
X100600095Y-86399714D01*
X100647714Y-86447333D01*
X100742952Y-86494952D01*
X100933428Y-86494952D01*
X101028666Y-86542571D01*
X101076285Y-86590190D01*
X101123904Y-86685428D01*
X101123904Y-86875904D01*
X101076285Y-86971142D01*
X101028666Y-87018761D01*
X100933428Y-87066380D01*
X100742952Y-87066380D01*
X100647714Y-87018761D01*
X100600095Y-86971142D01*
X100552476Y-86875904D01*
X100552476Y-86685428D01*
X100600095Y-86590190D01*
X100647714Y-86542571D01*
X100742952Y-86494952D01*
%TO.C,SW20*%
X242347523Y-48918761D02*
X242204666Y-48966380D01*
X241966571Y-48966380D01*
X241871333Y-48918761D01*
X241823714Y-48871142D01*
X241776095Y-48775904D01*
X241776095Y-48680666D01*
X241823714Y-48585428D01*
X241871333Y-48537809D01*
X241966571Y-48490190D01*
X242157047Y-48442571D01*
X242252285Y-48394952D01*
X242299904Y-48347333D01*
X242347523Y-48252095D01*
X242347523Y-48156857D01*
X242299904Y-48061619D01*
X242252285Y-48014000D01*
X242157047Y-47966380D01*
X241918952Y-47966380D01*
X241776095Y-48014000D01*
X241442761Y-47966380D02*
X241204666Y-48966380D01*
X241014190Y-48252095D01*
X240823714Y-48966380D01*
X240585619Y-47966380D01*
X240252285Y-48061619D02*
X240204666Y-48014000D01*
X240109428Y-47966380D01*
X239871333Y-47966380D01*
X239776095Y-48014000D01*
X239728476Y-48061619D01*
X239680857Y-48156857D01*
X239680857Y-48252095D01*
X239728476Y-48394952D01*
X240299904Y-48966380D01*
X239680857Y-48966380D01*
X239061809Y-47966380D02*
X238966571Y-47966380D01*
X238871333Y-48014000D01*
X238823714Y-48061619D01*
X238776095Y-48156857D01*
X238728476Y-48347333D01*
X238728476Y-48585428D01*
X238776095Y-48775904D01*
X238823714Y-48871142D01*
X238871333Y-48918761D01*
X238966571Y-48966380D01*
X239061809Y-48966380D01*
X239157047Y-48918761D01*
X239204666Y-48871142D01*
X239252285Y-48775904D01*
X239299904Y-48585428D01*
X239299904Y-48347333D01*
X239252285Y-48156857D01*
X239204666Y-48061619D01*
X239157047Y-48014000D01*
X239061809Y-47966380D01*
%TO.C,SW21*%
X132746523Y-67968761D02*
X132603666Y-68016380D01*
X132365571Y-68016380D01*
X132270333Y-67968761D01*
X132222714Y-67921142D01*
X132175095Y-67825904D01*
X132175095Y-67730666D01*
X132222714Y-67635428D01*
X132270333Y-67587809D01*
X132365571Y-67540190D01*
X132556047Y-67492571D01*
X132651285Y-67444952D01*
X132698904Y-67397333D01*
X132746523Y-67302095D01*
X132746523Y-67206857D01*
X132698904Y-67111619D01*
X132651285Y-67064000D01*
X132556047Y-67016380D01*
X132317952Y-67016380D01*
X132175095Y-67064000D01*
X131841761Y-67016380D02*
X131603666Y-68016380D01*
X131413190Y-67302095D01*
X131222714Y-68016380D01*
X130984619Y-67016380D01*
X130651285Y-67111619D02*
X130603666Y-67064000D01*
X130508428Y-67016380D01*
X130270333Y-67016380D01*
X130175095Y-67064000D01*
X130127476Y-67111619D01*
X130079857Y-67206857D01*
X130079857Y-67302095D01*
X130127476Y-67444952D01*
X130698904Y-68016380D01*
X130079857Y-68016380D01*
X129127476Y-68016380D02*
X129698904Y-68016380D01*
X129413190Y-68016380D02*
X129413190Y-67016380D01*
X129508428Y-67159238D01*
X129603666Y-67254476D01*
X129698904Y-67302095D01*
%TO.C,SW22*%
X123221523Y-87018761D02*
X123078666Y-87066380D01*
X122840571Y-87066380D01*
X122745333Y-87018761D01*
X122697714Y-86971142D01*
X122650095Y-86875904D01*
X122650095Y-86780666D01*
X122697714Y-86685428D01*
X122745333Y-86637809D01*
X122840571Y-86590190D01*
X123031047Y-86542571D01*
X123126285Y-86494952D01*
X123173904Y-86447333D01*
X123221523Y-86352095D01*
X123221523Y-86256857D01*
X123173904Y-86161619D01*
X123126285Y-86114000D01*
X123031047Y-86066380D01*
X122792952Y-86066380D01*
X122650095Y-86114000D01*
X122316761Y-86066380D02*
X122078666Y-87066380D01*
X121888190Y-86352095D01*
X121697714Y-87066380D01*
X121459619Y-86066380D01*
X121126285Y-86161619D02*
X121078666Y-86114000D01*
X120983428Y-86066380D01*
X120745333Y-86066380D01*
X120650095Y-86114000D01*
X120602476Y-86161619D01*
X120554857Y-86256857D01*
X120554857Y-86352095D01*
X120602476Y-86494952D01*
X121173904Y-87066380D01*
X120554857Y-87066380D01*
X120173904Y-86161619D02*
X120126285Y-86114000D01*
X120031047Y-86066380D01*
X119792952Y-86066380D01*
X119697714Y-86114000D01*
X119650095Y-86161619D01*
X119602476Y-86256857D01*
X119602476Y-86352095D01*
X119650095Y-86494952D01*
X120221523Y-87066380D01*
X119602476Y-87066380D01*
%TO.C,SW23*%
X261397523Y-48918761D02*
X261254666Y-48966380D01*
X261016571Y-48966380D01*
X260921333Y-48918761D01*
X260873714Y-48871142D01*
X260826095Y-48775904D01*
X260826095Y-48680666D01*
X260873714Y-48585428D01*
X260921333Y-48537809D01*
X261016571Y-48490190D01*
X261207047Y-48442571D01*
X261302285Y-48394952D01*
X261349904Y-48347333D01*
X261397523Y-48252095D01*
X261397523Y-48156857D01*
X261349904Y-48061619D01*
X261302285Y-48014000D01*
X261207047Y-47966380D01*
X260968952Y-47966380D01*
X260826095Y-48014000D01*
X260492761Y-47966380D02*
X260254666Y-48966380D01*
X260064190Y-48252095D01*
X259873714Y-48966380D01*
X259635619Y-47966380D01*
X259302285Y-48061619D02*
X259254666Y-48014000D01*
X259159428Y-47966380D01*
X258921333Y-47966380D01*
X258826095Y-48014000D01*
X258778476Y-48061619D01*
X258730857Y-48156857D01*
X258730857Y-48252095D01*
X258778476Y-48394952D01*
X259349904Y-48966380D01*
X258730857Y-48966380D01*
X258397523Y-47966380D02*
X257778476Y-47966380D01*
X258111809Y-48347333D01*
X257968952Y-48347333D01*
X257873714Y-48394952D01*
X257826095Y-48442571D01*
X257778476Y-48537809D01*
X257778476Y-48775904D01*
X257826095Y-48871142D01*
X257873714Y-48918761D01*
X257968952Y-48966380D01*
X258254666Y-48966380D01*
X258349904Y-48918761D01*
X258397523Y-48871142D01*
%TO.C,SW24*%
X118395523Y-29823661D02*
X118252666Y-29871280D01*
X118014571Y-29871280D01*
X117919333Y-29823661D01*
X117871714Y-29776042D01*
X117824095Y-29680804D01*
X117824095Y-29585566D01*
X117871714Y-29490328D01*
X117919333Y-29442709D01*
X118014571Y-29395090D01*
X118205047Y-29347471D01*
X118300285Y-29299852D01*
X118347904Y-29252233D01*
X118395523Y-29156995D01*
X118395523Y-29061757D01*
X118347904Y-28966519D01*
X118300285Y-28918900D01*
X118205047Y-28871280D01*
X117966952Y-28871280D01*
X117824095Y-28918900D01*
X117490761Y-28871280D02*
X117252666Y-29871280D01*
X117062190Y-29156995D01*
X116871714Y-29871280D01*
X116633619Y-28871280D01*
X116300285Y-28966519D02*
X116252666Y-28918900D01*
X116157428Y-28871280D01*
X115919333Y-28871280D01*
X115824095Y-28918900D01*
X115776476Y-28966519D01*
X115728857Y-29061757D01*
X115728857Y-29156995D01*
X115776476Y-29299852D01*
X116347904Y-29871280D01*
X115728857Y-29871280D01*
X114871714Y-29204614D02*
X114871714Y-29871280D01*
X115109809Y-28823661D02*
X115347904Y-29537947D01*
X114728857Y-29537947D01*
%TO.C,SW25*%
X128047523Y-48918761D02*
X127904666Y-48966380D01*
X127666571Y-48966380D01*
X127571333Y-48918761D01*
X127523714Y-48871142D01*
X127476095Y-48775904D01*
X127476095Y-48680666D01*
X127523714Y-48585428D01*
X127571333Y-48537809D01*
X127666571Y-48490190D01*
X127857047Y-48442571D01*
X127952285Y-48394952D01*
X127999904Y-48347333D01*
X128047523Y-48252095D01*
X128047523Y-48156857D01*
X127999904Y-48061619D01*
X127952285Y-48014000D01*
X127857047Y-47966380D01*
X127618952Y-47966380D01*
X127476095Y-48014000D01*
X127142761Y-47966380D02*
X126904666Y-48966380D01*
X126714190Y-48252095D01*
X126523714Y-48966380D01*
X126285619Y-47966380D01*
X125952285Y-48061619D02*
X125904666Y-48014000D01*
X125809428Y-47966380D01*
X125571333Y-47966380D01*
X125476095Y-48014000D01*
X125428476Y-48061619D01*
X125380857Y-48156857D01*
X125380857Y-48252095D01*
X125428476Y-48394952D01*
X125999904Y-48966380D01*
X125380857Y-48966380D01*
X124476095Y-47966380D02*
X124952285Y-47966380D01*
X124999904Y-48442571D01*
X124952285Y-48394952D01*
X124857047Y-48347333D01*
X124618952Y-48347333D01*
X124523714Y-48394952D01*
X124476095Y-48442571D01*
X124428476Y-48537809D01*
X124428476Y-48775904D01*
X124476095Y-48871142D01*
X124523714Y-48918761D01*
X124618952Y-48966380D01*
X124857047Y-48966380D01*
X124952285Y-48918761D01*
X124999904Y-48871142D01*
%TO.C,SW26*%
X137445523Y-29823661D02*
X137302666Y-29871280D01*
X137064571Y-29871280D01*
X136969333Y-29823661D01*
X136921714Y-29776042D01*
X136874095Y-29680804D01*
X136874095Y-29585566D01*
X136921714Y-29490328D01*
X136969333Y-29442709D01*
X137064571Y-29395090D01*
X137255047Y-29347471D01*
X137350285Y-29299852D01*
X137397904Y-29252233D01*
X137445523Y-29156995D01*
X137445523Y-29061757D01*
X137397904Y-28966519D01*
X137350285Y-28918900D01*
X137255047Y-28871280D01*
X137016952Y-28871280D01*
X136874095Y-28918900D01*
X136540761Y-28871280D02*
X136302666Y-29871280D01*
X136112190Y-29156995D01*
X135921714Y-29871280D01*
X135683619Y-28871280D01*
X135350285Y-28966519D02*
X135302666Y-28918900D01*
X135207428Y-28871280D01*
X134969333Y-28871280D01*
X134874095Y-28918900D01*
X134826476Y-28966519D01*
X134778857Y-29061757D01*
X134778857Y-29156995D01*
X134826476Y-29299852D01*
X135397904Y-29871280D01*
X134778857Y-29871280D01*
X133921714Y-28871280D02*
X134112190Y-28871280D01*
X134207428Y-28918900D01*
X134255047Y-28966519D01*
X134350285Y-29109376D01*
X134397904Y-29299852D01*
X134397904Y-29680804D01*
X134350285Y-29776042D01*
X134302666Y-29823661D01*
X134207428Y-29871280D01*
X134016952Y-29871280D01*
X133921714Y-29823661D01*
X133874095Y-29776042D01*
X133826476Y-29680804D01*
X133826476Y-29442709D01*
X133874095Y-29347471D01*
X133921714Y-29299852D01*
X134016952Y-29252233D01*
X134207428Y-29252233D01*
X134302666Y-29299852D01*
X134350285Y-29347471D01*
X134397904Y-29442709D01*
%TO.C,SW27*%
X147097523Y-48918761D02*
X146954666Y-48966380D01*
X146716571Y-48966380D01*
X146621333Y-48918761D01*
X146573714Y-48871142D01*
X146526095Y-48775904D01*
X146526095Y-48680666D01*
X146573714Y-48585428D01*
X146621333Y-48537809D01*
X146716571Y-48490190D01*
X146907047Y-48442571D01*
X147002285Y-48394952D01*
X147049904Y-48347333D01*
X147097523Y-48252095D01*
X147097523Y-48156857D01*
X147049904Y-48061619D01*
X147002285Y-48014000D01*
X146907047Y-47966380D01*
X146668952Y-47966380D01*
X146526095Y-48014000D01*
X146192761Y-47966380D02*
X145954666Y-48966380D01*
X145764190Y-48252095D01*
X145573714Y-48966380D01*
X145335619Y-47966380D01*
X145002285Y-48061619D02*
X144954666Y-48014000D01*
X144859428Y-47966380D01*
X144621333Y-47966380D01*
X144526095Y-48014000D01*
X144478476Y-48061619D01*
X144430857Y-48156857D01*
X144430857Y-48252095D01*
X144478476Y-48394952D01*
X145049904Y-48966380D01*
X144430857Y-48966380D01*
X144097523Y-47966380D02*
X143430857Y-47966380D01*
X143859428Y-48966380D01*
%TO.C,SW28*%
X151542523Y-67968761D02*
X151399666Y-68016380D01*
X151161571Y-68016380D01*
X151066333Y-67968761D01*
X151018714Y-67921142D01*
X150971095Y-67825904D01*
X150971095Y-67730666D01*
X151018714Y-67635428D01*
X151066333Y-67587809D01*
X151161571Y-67540190D01*
X151352047Y-67492571D01*
X151447285Y-67444952D01*
X151494904Y-67397333D01*
X151542523Y-67302095D01*
X151542523Y-67206857D01*
X151494904Y-67111619D01*
X151447285Y-67064000D01*
X151352047Y-67016380D01*
X151113952Y-67016380D01*
X150971095Y-67064000D01*
X150637761Y-67016380D02*
X150399666Y-68016380D01*
X150209190Y-67302095D01*
X150018714Y-68016380D01*
X149780619Y-67016380D01*
X149447285Y-67111619D02*
X149399666Y-67064000D01*
X149304428Y-67016380D01*
X149066333Y-67016380D01*
X148971095Y-67064000D01*
X148923476Y-67111619D01*
X148875857Y-67206857D01*
X148875857Y-67302095D01*
X148923476Y-67444952D01*
X149494904Y-68016380D01*
X148875857Y-68016380D01*
X148304428Y-67444952D02*
X148399666Y-67397333D01*
X148447285Y-67349714D01*
X148494904Y-67254476D01*
X148494904Y-67206857D01*
X148447285Y-67111619D01*
X148399666Y-67064000D01*
X148304428Y-67016380D01*
X148113952Y-67016380D01*
X148018714Y-67064000D01*
X147971095Y-67111619D01*
X147923476Y-67206857D01*
X147923476Y-67254476D01*
X147971095Y-67349714D01*
X148018714Y-67397333D01*
X148113952Y-67444952D01*
X148304428Y-67444952D01*
X148399666Y-67492571D01*
X148447285Y-67540190D01*
X148494904Y-67635428D01*
X148494904Y-67825904D01*
X148447285Y-67921142D01*
X148399666Y-67968761D01*
X148304428Y-68016380D01*
X148113952Y-68016380D01*
X148018714Y-67968761D01*
X147971095Y-67921142D01*
X147923476Y-67825904D01*
X147923476Y-67635428D01*
X147971095Y-67540190D01*
X148018714Y-67492571D01*
X148113952Y-67444952D01*
%TO.C,SW29*%
X142271523Y-87018761D02*
X142128666Y-87066380D01*
X141890571Y-87066380D01*
X141795333Y-87018761D01*
X141747714Y-86971142D01*
X141700095Y-86875904D01*
X141700095Y-86780666D01*
X141747714Y-86685428D01*
X141795333Y-86637809D01*
X141890571Y-86590190D01*
X142081047Y-86542571D01*
X142176285Y-86494952D01*
X142223904Y-86447333D01*
X142271523Y-86352095D01*
X142271523Y-86256857D01*
X142223904Y-86161619D01*
X142176285Y-86114000D01*
X142081047Y-86066380D01*
X141842952Y-86066380D01*
X141700095Y-86114000D01*
X141366761Y-86066380D02*
X141128666Y-87066380D01*
X140938190Y-86352095D01*
X140747714Y-87066380D01*
X140509619Y-86066380D01*
X140176285Y-86161619D02*
X140128666Y-86114000D01*
X140033428Y-86066380D01*
X139795333Y-86066380D01*
X139700095Y-86114000D01*
X139652476Y-86161619D01*
X139604857Y-86256857D01*
X139604857Y-86352095D01*
X139652476Y-86494952D01*
X140223904Y-87066380D01*
X139604857Y-87066380D01*
X139128666Y-87066380D02*
X138938190Y-87066380D01*
X138842952Y-87018761D01*
X138795333Y-86971142D01*
X138700095Y-86828285D01*
X138652476Y-86637809D01*
X138652476Y-86256857D01*
X138700095Y-86161619D01*
X138747714Y-86114000D01*
X138842952Y-86066380D01*
X139033428Y-86066380D01*
X139128666Y-86114000D01*
X139176285Y-86161619D01*
X139223904Y-86256857D01*
X139223904Y-86494952D01*
X139176285Y-86590190D01*
X139128666Y-86637809D01*
X139033428Y-86685428D01*
X138842952Y-86685428D01*
X138747714Y-86637809D01*
X138700095Y-86590190D01*
X138652476Y-86494952D01*
%TO.C,SW30*%
X180752523Y-106195761D02*
X180609666Y-106243380D01*
X180371571Y-106243380D01*
X180276333Y-106195761D01*
X180228714Y-106148142D01*
X180181095Y-106052904D01*
X180181095Y-105957666D01*
X180228714Y-105862428D01*
X180276333Y-105814809D01*
X180371571Y-105767190D01*
X180562047Y-105719571D01*
X180657285Y-105671952D01*
X180704904Y-105624333D01*
X180752523Y-105529095D01*
X180752523Y-105433857D01*
X180704904Y-105338619D01*
X180657285Y-105291000D01*
X180562047Y-105243380D01*
X180323952Y-105243380D01*
X180181095Y-105291000D01*
X179847761Y-105243380D02*
X179609666Y-106243380D01*
X179419190Y-105529095D01*
X179228714Y-106243380D01*
X178990619Y-105243380D01*
X178704904Y-105243380D02*
X178085857Y-105243380D01*
X178419190Y-105624333D01*
X178276333Y-105624333D01*
X178181095Y-105671952D01*
X178133476Y-105719571D01*
X178085857Y-105814809D01*
X178085857Y-106052904D01*
X178133476Y-106148142D01*
X178181095Y-106195761D01*
X178276333Y-106243380D01*
X178562047Y-106243380D01*
X178657285Y-106195761D01*
X178704904Y-106148142D01*
X177466809Y-105243380D02*
X177371571Y-105243380D01*
X177276333Y-105291000D01*
X177228714Y-105338619D01*
X177181095Y-105433857D01*
X177133476Y-105624333D01*
X177133476Y-105862428D01*
X177181095Y-106052904D01*
X177228714Y-106148142D01*
X177276333Y-106195761D01*
X177371571Y-106243380D01*
X177466809Y-106243380D01*
X177562047Y-106195761D01*
X177609666Y-106148142D01*
X177657285Y-106052904D01*
X177704904Y-105862428D01*
X177704904Y-105624333D01*
X177657285Y-105433857D01*
X177609666Y-105338619D01*
X177562047Y-105291000D01*
X177466809Y-105243380D01*
%TO.C,SW31*%
X170592523Y-67968761D02*
X170449666Y-68016380D01*
X170211571Y-68016380D01*
X170116333Y-67968761D01*
X170068714Y-67921142D01*
X170021095Y-67825904D01*
X170021095Y-67730666D01*
X170068714Y-67635428D01*
X170116333Y-67587809D01*
X170211571Y-67540190D01*
X170402047Y-67492571D01*
X170497285Y-67444952D01*
X170544904Y-67397333D01*
X170592523Y-67302095D01*
X170592523Y-67206857D01*
X170544904Y-67111619D01*
X170497285Y-67064000D01*
X170402047Y-67016380D01*
X170163952Y-67016380D01*
X170021095Y-67064000D01*
X169687761Y-67016380D02*
X169449666Y-68016380D01*
X169259190Y-67302095D01*
X169068714Y-68016380D01*
X168830619Y-67016380D01*
X168544904Y-67016380D02*
X167925857Y-67016380D01*
X168259190Y-67397333D01*
X168116333Y-67397333D01*
X168021095Y-67444952D01*
X167973476Y-67492571D01*
X167925857Y-67587809D01*
X167925857Y-67825904D01*
X167973476Y-67921142D01*
X168021095Y-67968761D01*
X168116333Y-68016380D01*
X168402047Y-68016380D01*
X168497285Y-67968761D01*
X168544904Y-67921142D01*
X166973476Y-68016380D02*
X167544904Y-68016380D01*
X167259190Y-68016380D02*
X167259190Y-67016380D01*
X167354428Y-67159238D01*
X167449666Y-67254476D01*
X167544904Y-67302095D01*
%TO.C,SW32*%
X161321523Y-87018761D02*
X161178666Y-87066380D01*
X160940571Y-87066380D01*
X160845333Y-87018761D01*
X160797714Y-86971142D01*
X160750095Y-86875904D01*
X160750095Y-86780666D01*
X160797714Y-86685428D01*
X160845333Y-86637809D01*
X160940571Y-86590190D01*
X161131047Y-86542571D01*
X161226285Y-86494952D01*
X161273904Y-86447333D01*
X161321523Y-86352095D01*
X161321523Y-86256857D01*
X161273904Y-86161619D01*
X161226285Y-86114000D01*
X161131047Y-86066380D01*
X160892952Y-86066380D01*
X160750095Y-86114000D01*
X160416761Y-86066380D02*
X160178666Y-87066380D01*
X159988190Y-86352095D01*
X159797714Y-87066380D01*
X159559619Y-86066380D01*
X159273904Y-86066380D02*
X158654857Y-86066380D01*
X158988190Y-86447333D01*
X158845333Y-86447333D01*
X158750095Y-86494952D01*
X158702476Y-86542571D01*
X158654857Y-86637809D01*
X158654857Y-86875904D01*
X158702476Y-86971142D01*
X158750095Y-87018761D01*
X158845333Y-87066380D01*
X159131047Y-87066380D01*
X159226285Y-87018761D01*
X159273904Y-86971142D01*
X158273904Y-86161619D02*
X158226285Y-86114000D01*
X158131047Y-86066380D01*
X157892952Y-86066380D01*
X157797714Y-86114000D01*
X157750095Y-86161619D01*
X157702476Y-86256857D01*
X157702476Y-86352095D01*
X157750095Y-86494952D01*
X158321523Y-87066380D01*
X157702476Y-87066380D01*
%TO.C,SW33*%
X199802523Y-106195761D02*
X199659666Y-106243380D01*
X199421571Y-106243380D01*
X199326333Y-106195761D01*
X199278714Y-106148142D01*
X199231095Y-106052904D01*
X199231095Y-105957666D01*
X199278714Y-105862428D01*
X199326333Y-105814809D01*
X199421571Y-105767190D01*
X199612047Y-105719571D01*
X199707285Y-105671952D01*
X199754904Y-105624333D01*
X199802523Y-105529095D01*
X199802523Y-105433857D01*
X199754904Y-105338619D01*
X199707285Y-105291000D01*
X199612047Y-105243380D01*
X199373952Y-105243380D01*
X199231095Y-105291000D01*
X198897761Y-105243380D02*
X198659666Y-106243380D01*
X198469190Y-105529095D01*
X198278714Y-106243380D01*
X198040619Y-105243380D01*
X197754904Y-105243380D02*
X197135857Y-105243380D01*
X197469190Y-105624333D01*
X197326333Y-105624333D01*
X197231095Y-105671952D01*
X197183476Y-105719571D01*
X197135857Y-105814809D01*
X197135857Y-106052904D01*
X197183476Y-106148142D01*
X197231095Y-106195761D01*
X197326333Y-106243380D01*
X197612047Y-106243380D01*
X197707285Y-106195761D01*
X197754904Y-106148142D01*
X196802523Y-105243380D02*
X196183476Y-105243380D01*
X196516809Y-105624333D01*
X196373952Y-105624333D01*
X196278714Y-105671952D01*
X196231095Y-105719571D01*
X196183476Y-105814809D01*
X196183476Y-106052904D01*
X196231095Y-106148142D01*
X196278714Y-106195761D01*
X196373952Y-106243380D01*
X196659666Y-106243380D01*
X196754904Y-106195761D01*
X196802523Y-106148142D01*
%TO.C,SW34*%
X256571523Y-87018761D02*
X256428666Y-87066380D01*
X256190571Y-87066380D01*
X256095333Y-87018761D01*
X256047714Y-86971142D01*
X256000095Y-86875904D01*
X256000095Y-86780666D01*
X256047714Y-86685428D01*
X256095333Y-86637809D01*
X256190571Y-86590190D01*
X256381047Y-86542571D01*
X256476285Y-86494952D01*
X256523904Y-86447333D01*
X256571523Y-86352095D01*
X256571523Y-86256857D01*
X256523904Y-86161619D01*
X256476285Y-86114000D01*
X256381047Y-86066380D01*
X256142952Y-86066380D01*
X256000095Y-86114000D01*
X255666761Y-86066380D02*
X255428666Y-87066380D01*
X255238190Y-86352095D01*
X255047714Y-87066380D01*
X254809619Y-86066380D01*
X254523904Y-86066380D02*
X253904857Y-86066380D01*
X254238190Y-86447333D01*
X254095333Y-86447333D01*
X254000095Y-86494952D01*
X253952476Y-86542571D01*
X253904857Y-86637809D01*
X253904857Y-86875904D01*
X253952476Y-86971142D01*
X254000095Y-87018761D01*
X254095333Y-87066380D01*
X254381047Y-87066380D01*
X254476285Y-87018761D01*
X254523904Y-86971142D01*
X253047714Y-86399714D02*
X253047714Y-87066380D01*
X253285809Y-86018761D02*
X253523904Y-86733047D01*
X252904857Y-86733047D01*
%TO.C,SW35*%
X156495523Y-29823661D02*
X156352666Y-29871280D01*
X156114571Y-29871280D01*
X156019333Y-29823661D01*
X155971714Y-29776042D01*
X155924095Y-29680804D01*
X155924095Y-29585566D01*
X155971714Y-29490328D01*
X156019333Y-29442709D01*
X156114571Y-29395090D01*
X156305047Y-29347471D01*
X156400285Y-29299852D01*
X156447904Y-29252233D01*
X156495523Y-29156995D01*
X156495523Y-29061757D01*
X156447904Y-28966519D01*
X156400285Y-28918900D01*
X156305047Y-28871280D01*
X156066952Y-28871280D01*
X155924095Y-28918900D01*
X155590761Y-28871280D02*
X155352666Y-29871280D01*
X155162190Y-29156995D01*
X154971714Y-29871280D01*
X154733619Y-28871280D01*
X154447904Y-28871280D02*
X153828857Y-28871280D01*
X154162190Y-29252233D01*
X154019333Y-29252233D01*
X153924095Y-29299852D01*
X153876476Y-29347471D01*
X153828857Y-29442709D01*
X153828857Y-29680804D01*
X153876476Y-29776042D01*
X153924095Y-29823661D01*
X154019333Y-29871280D01*
X154305047Y-29871280D01*
X154400285Y-29823661D01*
X154447904Y-29776042D01*
X152924095Y-28871280D02*
X153400285Y-28871280D01*
X153447904Y-29347471D01*
X153400285Y-29299852D01*
X153305047Y-29252233D01*
X153066952Y-29252233D01*
X152971714Y-29299852D01*
X152924095Y-29347471D01*
X152876476Y-29442709D01*
X152876476Y-29680804D01*
X152924095Y-29776042D01*
X152971714Y-29823661D01*
X153066952Y-29871280D01*
X153305047Y-29871280D01*
X153400285Y-29823661D01*
X153447904Y-29776042D01*
%TO.C,SW36*%
X166147523Y-48918761D02*
X166004666Y-48966380D01*
X165766571Y-48966380D01*
X165671333Y-48918761D01*
X165623714Y-48871142D01*
X165576095Y-48775904D01*
X165576095Y-48680666D01*
X165623714Y-48585428D01*
X165671333Y-48537809D01*
X165766571Y-48490190D01*
X165957047Y-48442571D01*
X166052285Y-48394952D01*
X166099904Y-48347333D01*
X166147523Y-48252095D01*
X166147523Y-48156857D01*
X166099904Y-48061619D01*
X166052285Y-48014000D01*
X165957047Y-47966380D01*
X165718952Y-47966380D01*
X165576095Y-48014000D01*
X165242761Y-47966380D02*
X165004666Y-48966380D01*
X164814190Y-48252095D01*
X164623714Y-48966380D01*
X164385619Y-47966380D01*
X164099904Y-47966380D02*
X163480857Y-47966380D01*
X163814190Y-48347333D01*
X163671333Y-48347333D01*
X163576095Y-48394952D01*
X163528476Y-48442571D01*
X163480857Y-48537809D01*
X163480857Y-48775904D01*
X163528476Y-48871142D01*
X163576095Y-48918761D01*
X163671333Y-48966380D01*
X163957047Y-48966380D01*
X164052285Y-48918761D01*
X164099904Y-48871142D01*
X162623714Y-47966380D02*
X162814190Y-47966380D01*
X162909428Y-48014000D01*
X162957047Y-48061619D01*
X163052285Y-48204476D01*
X163099904Y-48394952D01*
X163099904Y-48775904D01*
X163052285Y-48871142D01*
X163004666Y-48918761D01*
X162909428Y-48966380D01*
X162718952Y-48966380D01*
X162623714Y-48918761D01*
X162576095Y-48871142D01*
X162528476Y-48775904D01*
X162528476Y-48537809D01*
X162576095Y-48442571D01*
X162623714Y-48394952D01*
X162718952Y-48347333D01*
X162909428Y-48347333D01*
X163004666Y-48394952D01*
X163052285Y-48442571D01*
X163099904Y-48537809D01*
%TO.C,SW37*%
X175545523Y-29823661D02*
X175402666Y-29871280D01*
X175164571Y-29871280D01*
X175069333Y-29823661D01*
X175021714Y-29776042D01*
X174974095Y-29680804D01*
X174974095Y-29585566D01*
X175021714Y-29490328D01*
X175069333Y-29442709D01*
X175164571Y-29395090D01*
X175355047Y-29347471D01*
X175450285Y-29299852D01*
X175497904Y-29252233D01*
X175545523Y-29156995D01*
X175545523Y-29061757D01*
X175497904Y-28966519D01*
X175450285Y-28918900D01*
X175355047Y-28871280D01*
X175116952Y-28871280D01*
X174974095Y-28918900D01*
X174640761Y-28871280D02*
X174402666Y-29871280D01*
X174212190Y-29156995D01*
X174021714Y-29871280D01*
X173783619Y-28871280D01*
X173497904Y-28871280D02*
X172878857Y-28871280D01*
X173212190Y-29252233D01*
X173069333Y-29252233D01*
X172974095Y-29299852D01*
X172926476Y-29347471D01*
X172878857Y-29442709D01*
X172878857Y-29680804D01*
X172926476Y-29776042D01*
X172974095Y-29823661D01*
X173069333Y-29871280D01*
X173355047Y-29871280D01*
X173450285Y-29823661D01*
X173497904Y-29776042D01*
X172545523Y-28871280D02*
X171878857Y-28871280D01*
X172307428Y-29871280D01*
%TO.C,SW38*%
X185197523Y-48918761D02*
X185054666Y-48966380D01*
X184816571Y-48966380D01*
X184721333Y-48918761D01*
X184673714Y-48871142D01*
X184626095Y-48775904D01*
X184626095Y-48680666D01*
X184673714Y-48585428D01*
X184721333Y-48537809D01*
X184816571Y-48490190D01*
X185007047Y-48442571D01*
X185102285Y-48394952D01*
X185149904Y-48347333D01*
X185197523Y-48252095D01*
X185197523Y-48156857D01*
X185149904Y-48061619D01*
X185102285Y-48014000D01*
X185007047Y-47966380D01*
X184768952Y-47966380D01*
X184626095Y-48014000D01*
X184292761Y-47966380D02*
X184054666Y-48966380D01*
X183864190Y-48252095D01*
X183673714Y-48966380D01*
X183435619Y-47966380D01*
X183149904Y-47966380D02*
X182530857Y-47966380D01*
X182864190Y-48347333D01*
X182721333Y-48347333D01*
X182626095Y-48394952D01*
X182578476Y-48442571D01*
X182530857Y-48537809D01*
X182530857Y-48775904D01*
X182578476Y-48871142D01*
X182626095Y-48918761D01*
X182721333Y-48966380D01*
X183007047Y-48966380D01*
X183102285Y-48918761D01*
X183149904Y-48871142D01*
X181959428Y-48394952D02*
X182054666Y-48347333D01*
X182102285Y-48299714D01*
X182149904Y-48204476D01*
X182149904Y-48156857D01*
X182102285Y-48061619D01*
X182054666Y-48014000D01*
X181959428Y-47966380D01*
X181768952Y-47966380D01*
X181673714Y-48014000D01*
X181626095Y-48061619D01*
X181578476Y-48156857D01*
X181578476Y-48204476D01*
X181626095Y-48299714D01*
X181673714Y-48347333D01*
X181768952Y-48394952D01*
X181959428Y-48394952D01*
X182054666Y-48442571D01*
X182102285Y-48490190D01*
X182149904Y-48585428D01*
X182149904Y-48775904D01*
X182102285Y-48871142D01*
X182054666Y-48918761D01*
X181959428Y-48966380D01*
X181768952Y-48966380D01*
X181673714Y-48918761D01*
X181626095Y-48871142D01*
X181578476Y-48775904D01*
X181578476Y-48585428D01*
X181626095Y-48490190D01*
X181673714Y-48442571D01*
X181768952Y-48394952D01*
%TO.C,SW39*%
X189642523Y-67968761D02*
X189499666Y-68016380D01*
X189261571Y-68016380D01*
X189166333Y-67968761D01*
X189118714Y-67921142D01*
X189071095Y-67825904D01*
X189071095Y-67730666D01*
X189118714Y-67635428D01*
X189166333Y-67587809D01*
X189261571Y-67540190D01*
X189452047Y-67492571D01*
X189547285Y-67444952D01*
X189594904Y-67397333D01*
X189642523Y-67302095D01*
X189642523Y-67206857D01*
X189594904Y-67111619D01*
X189547285Y-67064000D01*
X189452047Y-67016380D01*
X189213952Y-67016380D01*
X189071095Y-67064000D01*
X188737761Y-67016380D02*
X188499666Y-68016380D01*
X188309190Y-67302095D01*
X188118714Y-68016380D01*
X187880619Y-67016380D01*
X187594904Y-67016380D02*
X186975857Y-67016380D01*
X187309190Y-67397333D01*
X187166333Y-67397333D01*
X187071095Y-67444952D01*
X187023476Y-67492571D01*
X186975857Y-67587809D01*
X186975857Y-67825904D01*
X187023476Y-67921142D01*
X187071095Y-67968761D01*
X187166333Y-68016380D01*
X187452047Y-68016380D01*
X187547285Y-67968761D01*
X187594904Y-67921142D01*
X186499666Y-68016380D02*
X186309190Y-68016380D01*
X186213952Y-67968761D01*
X186166333Y-67921142D01*
X186071095Y-67778285D01*
X186023476Y-67587809D01*
X186023476Y-67206857D01*
X186071095Y-67111619D01*
X186118714Y-67064000D01*
X186213952Y-67016380D01*
X186404428Y-67016380D01*
X186499666Y-67064000D01*
X186547285Y-67111619D01*
X186594904Y-67206857D01*
X186594904Y-67444952D01*
X186547285Y-67540190D01*
X186499666Y-67587809D01*
X186404428Y-67635428D01*
X186213952Y-67635428D01*
X186118714Y-67587809D01*
X186071095Y-67540190D01*
X186023476Y-67444952D01*
%TO.C,SW40*%
X180371523Y-87018761D02*
X180228666Y-87066380D01*
X179990571Y-87066380D01*
X179895333Y-87018761D01*
X179847714Y-86971142D01*
X179800095Y-86875904D01*
X179800095Y-86780666D01*
X179847714Y-86685428D01*
X179895333Y-86637809D01*
X179990571Y-86590190D01*
X180181047Y-86542571D01*
X180276285Y-86494952D01*
X180323904Y-86447333D01*
X180371523Y-86352095D01*
X180371523Y-86256857D01*
X180323904Y-86161619D01*
X180276285Y-86114000D01*
X180181047Y-86066380D01*
X179942952Y-86066380D01*
X179800095Y-86114000D01*
X179466761Y-86066380D02*
X179228666Y-87066380D01*
X179038190Y-86352095D01*
X178847714Y-87066380D01*
X178609619Y-86066380D01*
X177800095Y-86399714D02*
X177800095Y-87066380D01*
X178038190Y-86018761D02*
X178276285Y-86733047D01*
X177657238Y-86733047D01*
X177085809Y-86066380D02*
X176990571Y-86066380D01*
X176895333Y-86114000D01*
X176847714Y-86161619D01*
X176800095Y-86256857D01*
X176752476Y-86447333D01*
X176752476Y-86685428D01*
X176800095Y-86875904D01*
X176847714Y-86971142D01*
X176895333Y-87018761D01*
X176990571Y-87066380D01*
X177085809Y-87066380D01*
X177181047Y-87018761D01*
X177228666Y-86971142D01*
X177276285Y-86875904D01*
X177323904Y-86685428D01*
X177323904Y-86447333D01*
X177276285Y-86256857D01*
X177228666Y-86161619D01*
X177181047Y-86114000D01*
X177085809Y-86066380D01*
%TO.C,SW41*%
X251745523Y-29823661D02*
X251602666Y-29871280D01*
X251364571Y-29871280D01*
X251269333Y-29823661D01*
X251221714Y-29776042D01*
X251174095Y-29680804D01*
X251174095Y-29585566D01*
X251221714Y-29490328D01*
X251269333Y-29442709D01*
X251364571Y-29395090D01*
X251555047Y-29347471D01*
X251650285Y-29299852D01*
X251697904Y-29252233D01*
X251745523Y-29156995D01*
X251745523Y-29061757D01*
X251697904Y-28966519D01*
X251650285Y-28918900D01*
X251555047Y-28871280D01*
X251316952Y-28871280D01*
X251174095Y-28918900D01*
X250840761Y-28871280D02*
X250602666Y-29871280D01*
X250412190Y-29156995D01*
X250221714Y-29871280D01*
X249983619Y-28871280D01*
X249174095Y-29204614D02*
X249174095Y-29871280D01*
X249412190Y-28823661D02*
X249650285Y-29537947D01*
X249031238Y-29537947D01*
X248126476Y-29871280D02*
X248697904Y-29871280D01*
X248412190Y-29871280D02*
X248412190Y-28871280D01*
X248507428Y-29014138D01*
X248602666Y-29109376D01*
X248697904Y-29156995D01*
%TO.C,SW42*%
X208692523Y-67968761D02*
X208549666Y-68016380D01*
X208311571Y-68016380D01*
X208216333Y-67968761D01*
X208168714Y-67921142D01*
X208121095Y-67825904D01*
X208121095Y-67730666D01*
X208168714Y-67635428D01*
X208216333Y-67587809D01*
X208311571Y-67540190D01*
X208502047Y-67492571D01*
X208597285Y-67444952D01*
X208644904Y-67397333D01*
X208692523Y-67302095D01*
X208692523Y-67206857D01*
X208644904Y-67111619D01*
X208597285Y-67064000D01*
X208502047Y-67016380D01*
X208263952Y-67016380D01*
X208121095Y-67064000D01*
X207787761Y-67016380D02*
X207549666Y-68016380D01*
X207359190Y-67302095D01*
X207168714Y-68016380D01*
X206930619Y-67016380D01*
X206121095Y-67349714D02*
X206121095Y-68016380D01*
X206359190Y-66968761D02*
X206597285Y-67683047D01*
X205978238Y-67683047D01*
X205644904Y-67111619D02*
X205597285Y-67064000D01*
X205502047Y-67016380D01*
X205263952Y-67016380D01*
X205168714Y-67064000D01*
X205121095Y-67111619D01*
X205073476Y-67206857D01*
X205073476Y-67302095D01*
X205121095Y-67444952D01*
X205692523Y-68016380D01*
X205073476Y-68016380D01*
%TO.C,SW43*%
X199421523Y-87018761D02*
X199278666Y-87066380D01*
X199040571Y-87066380D01*
X198945333Y-87018761D01*
X198897714Y-86971142D01*
X198850095Y-86875904D01*
X198850095Y-86780666D01*
X198897714Y-86685428D01*
X198945333Y-86637809D01*
X199040571Y-86590190D01*
X199231047Y-86542571D01*
X199326285Y-86494952D01*
X199373904Y-86447333D01*
X199421523Y-86352095D01*
X199421523Y-86256857D01*
X199373904Y-86161619D01*
X199326285Y-86114000D01*
X199231047Y-86066380D01*
X198992952Y-86066380D01*
X198850095Y-86114000D01*
X198516761Y-86066380D02*
X198278666Y-87066380D01*
X198088190Y-86352095D01*
X197897714Y-87066380D01*
X197659619Y-86066380D01*
X196850095Y-86399714D02*
X196850095Y-87066380D01*
X197088190Y-86018761D02*
X197326285Y-86733047D01*
X196707238Y-86733047D01*
X196421523Y-86066380D02*
X195802476Y-86066380D01*
X196135809Y-86447333D01*
X195992952Y-86447333D01*
X195897714Y-86494952D01*
X195850095Y-86542571D01*
X195802476Y-86637809D01*
X195802476Y-86875904D01*
X195850095Y-86971142D01*
X195897714Y-87018761D01*
X195992952Y-87066380D01*
X196278666Y-87066380D01*
X196373904Y-87018761D01*
X196421523Y-86971142D01*
%TO.C,SW45*%
X270795523Y-29823661D02*
X270652666Y-29871280D01*
X270414571Y-29871280D01*
X270319333Y-29823661D01*
X270271714Y-29776042D01*
X270224095Y-29680804D01*
X270224095Y-29585566D01*
X270271714Y-29490328D01*
X270319333Y-29442709D01*
X270414571Y-29395090D01*
X270605047Y-29347471D01*
X270700285Y-29299852D01*
X270747904Y-29252233D01*
X270795523Y-29156995D01*
X270795523Y-29061757D01*
X270747904Y-28966519D01*
X270700285Y-28918900D01*
X270605047Y-28871280D01*
X270366952Y-28871280D01*
X270224095Y-28918900D01*
X269890761Y-28871280D02*
X269652666Y-29871280D01*
X269462190Y-29156995D01*
X269271714Y-29871280D01*
X269033619Y-28871280D01*
X268224095Y-29204614D02*
X268224095Y-29871280D01*
X268462190Y-28823661D02*
X268700285Y-29537947D01*
X268081238Y-29537947D01*
X267224095Y-28871280D02*
X267700285Y-28871280D01*
X267747904Y-29347471D01*
X267700285Y-29299852D01*
X267605047Y-29252233D01*
X267366952Y-29252233D01*
X267271714Y-29299852D01*
X267224095Y-29347471D01*
X267176476Y-29442709D01*
X267176476Y-29680804D01*
X267224095Y-29776042D01*
X267271714Y-29823661D01*
X267366952Y-29871280D01*
X267605047Y-29871280D01*
X267700285Y-29823661D01*
X267747904Y-29776042D01*
%TO.C,SW46*%
X194595523Y-29823661D02*
X194452666Y-29871280D01*
X194214571Y-29871280D01*
X194119333Y-29823661D01*
X194071714Y-29776042D01*
X194024095Y-29680804D01*
X194024095Y-29585566D01*
X194071714Y-29490328D01*
X194119333Y-29442709D01*
X194214571Y-29395090D01*
X194405047Y-29347471D01*
X194500285Y-29299852D01*
X194547904Y-29252233D01*
X194595523Y-29156995D01*
X194595523Y-29061757D01*
X194547904Y-28966519D01*
X194500285Y-28918900D01*
X194405047Y-28871280D01*
X194166952Y-28871280D01*
X194024095Y-28918900D01*
X193690761Y-28871280D02*
X193452666Y-29871280D01*
X193262190Y-29156995D01*
X193071714Y-29871280D01*
X192833619Y-28871280D01*
X192024095Y-29204614D02*
X192024095Y-29871280D01*
X192262190Y-28823661D02*
X192500285Y-29537947D01*
X191881238Y-29537947D01*
X191071714Y-28871280D02*
X191262190Y-28871280D01*
X191357428Y-28918900D01*
X191405047Y-28966519D01*
X191500285Y-29109376D01*
X191547904Y-29299852D01*
X191547904Y-29680804D01*
X191500285Y-29776042D01*
X191452666Y-29823661D01*
X191357428Y-29871280D01*
X191166952Y-29871280D01*
X191071714Y-29823661D01*
X191024095Y-29776042D01*
X190976476Y-29680804D01*
X190976476Y-29442709D01*
X191024095Y-29347471D01*
X191071714Y-29299852D01*
X191166952Y-29252233D01*
X191357428Y-29252233D01*
X191452666Y-29299852D01*
X191500285Y-29347471D01*
X191547904Y-29442709D01*
%TO.C,SW47*%
X204247523Y-48918761D02*
X204104666Y-48966380D01*
X203866571Y-48966380D01*
X203771333Y-48918761D01*
X203723714Y-48871142D01*
X203676095Y-48775904D01*
X203676095Y-48680666D01*
X203723714Y-48585428D01*
X203771333Y-48537809D01*
X203866571Y-48490190D01*
X204057047Y-48442571D01*
X204152285Y-48394952D01*
X204199904Y-48347333D01*
X204247523Y-48252095D01*
X204247523Y-48156857D01*
X204199904Y-48061619D01*
X204152285Y-48014000D01*
X204057047Y-47966380D01*
X203818952Y-47966380D01*
X203676095Y-48014000D01*
X203342761Y-47966380D02*
X203104666Y-48966380D01*
X202914190Y-48252095D01*
X202723714Y-48966380D01*
X202485619Y-47966380D01*
X201676095Y-48299714D02*
X201676095Y-48966380D01*
X201914190Y-47918761D02*
X202152285Y-48633047D01*
X201533238Y-48633047D01*
X201247523Y-47966380D02*
X200580857Y-47966380D01*
X201009428Y-48966380D01*
%TO.C,SW48*%
X213645523Y-29823661D02*
X213502666Y-29871280D01*
X213264571Y-29871280D01*
X213169333Y-29823661D01*
X213121714Y-29776042D01*
X213074095Y-29680804D01*
X213074095Y-29585566D01*
X213121714Y-29490328D01*
X213169333Y-29442709D01*
X213264571Y-29395090D01*
X213455047Y-29347471D01*
X213550285Y-29299852D01*
X213597904Y-29252233D01*
X213645523Y-29156995D01*
X213645523Y-29061757D01*
X213597904Y-28966519D01*
X213550285Y-28918900D01*
X213455047Y-28871280D01*
X213216952Y-28871280D01*
X213074095Y-28918900D01*
X212740761Y-28871280D02*
X212502666Y-29871280D01*
X212312190Y-29156995D01*
X212121714Y-29871280D01*
X211883619Y-28871280D01*
X211074095Y-29204614D02*
X211074095Y-29871280D01*
X211312190Y-28823661D02*
X211550285Y-29537947D01*
X210931238Y-29537947D01*
X210407428Y-29299852D02*
X210502666Y-29252233D01*
X210550285Y-29204614D01*
X210597904Y-29109376D01*
X210597904Y-29061757D01*
X210550285Y-28966519D01*
X210502666Y-28918900D01*
X210407428Y-28871280D01*
X210216952Y-28871280D01*
X210121714Y-28918900D01*
X210074095Y-28966519D01*
X210026476Y-29061757D01*
X210026476Y-29109376D01*
X210074095Y-29204614D01*
X210121714Y-29252233D01*
X210216952Y-29299852D01*
X210407428Y-29299852D01*
X210502666Y-29347471D01*
X210550285Y-29395090D01*
X210597904Y-29490328D01*
X210597904Y-29680804D01*
X210550285Y-29776042D01*
X210502666Y-29823661D01*
X210407428Y-29871280D01*
X210216952Y-29871280D01*
X210121714Y-29823661D01*
X210074095Y-29776042D01*
X210026476Y-29680804D01*
X210026476Y-29490328D01*
X210074095Y-29395090D01*
X210121714Y-29347471D01*
X210216952Y-29299852D01*
%TO.C,SW49*%
X223297523Y-48918761D02*
X223154666Y-48966380D01*
X222916571Y-48966380D01*
X222821333Y-48918761D01*
X222773714Y-48871142D01*
X222726095Y-48775904D01*
X222726095Y-48680666D01*
X222773714Y-48585428D01*
X222821333Y-48537809D01*
X222916571Y-48490190D01*
X223107047Y-48442571D01*
X223202285Y-48394952D01*
X223249904Y-48347333D01*
X223297523Y-48252095D01*
X223297523Y-48156857D01*
X223249904Y-48061619D01*
X223202285Y-48014000D01*
X223107047Y-47966380D01*
X222868952Y-47966380D01*
X222726095Y-48014000D01*
X222392761Y-47966380D02*
X222154666Y-48966380D01*
X221964190Y-48252095D01*
X221773714Y-48966380D01*
X221535619Y-47966380D01*
X220726095Y-48299714D02*
X220726095Y-48966380D01*
X220964190Y-47918761D02*
X221202285Y-48633047D01*
X220583238Y-48633047D01*
X220154666Y-48966380D02*
X219964190Y-48966380D01*
X219868952Y-48918761D01*
X219821333Y-48871142D01*
X219726095Y-48728285D01*
X219678476Y-48537809D01*
X219678476Y-48156857D01*
X219726095Y-48061619D01*
X219773714Y-48014000D01*
X219868952Y-47966380D01*
X220059428Y-47966380D01*
X220154666Y-48014000D01*
X220202285Y-48061619D01*
X220249904Y-48156857D01*
X220249904Y-48394952D01*
X220202285Y-48490190D01*
X220154666Y-48537809D01*
X220059428Y-48585428D01*
X219868952Y-48585428D01*
X219773714Y-48537809D01*
X219726095Y-48490190D01*
X219678476Y-48394952D01*
%TO.C,SW50*%
X227742523Y-67968761D02*
X227599666Y-68016380D01*
X227361571Y-68016380D01*
X227266333Y-67968761D01*
X227218714Y-67921142D01*
X227171095Y-67825904D01*
X227171095Y-67730666D01*
X227218714Y-67635428D01*
X227266333Y-67587809D01*
X227361571Y-67540190D01*
X227552047Y-67492571D01*
X227647285Y-67444952D01*
X227694904Y-67397333D01*
X227742523Y-67302095D01*
X227742523Y-67206857D01*
X227694904Y-67111619D01*
X227647285Y-67064000D01*
X227552047Y-67016380D01*
X227313952Y-67016380D01*
X227171095Y-67064000D01*
X226837761Y-67016380D02*
X226599666Y-68016380D01*
X226409190Y-67302095D01*
X226218714Y-68016380D01*
X225980619Y-67016380D01*
X225123476Y-67016380D02*
X225599666Y-67016380D01*
X225647285Y-67492571D01*
X225599666Y-67444952D01*
X225504428Y-67397333D01*
X225266333Y-67397333D01*
X225171095Y-67444952D01*
X225123476Y-67492571D01*
X225075857Y-67587809D01*
X225075857Y-67825904D01*
X225123476Y-67921142D01*
X225171095Y-67968761D01*
X225266333Y-68016380D01*
X225504428Y-68016380D01*
X225599666Y-67968761D01*
X225647285Y-67921142D01*
X224456809Y-67016380D02*
X224361571Y-67016380D01*
X224266333Y-67064000D01*
X224218714Y-67111619D01*
X224171095Y-67206857D01*
X224123476Y-67397333D01*
X224123476Y-67635428D01*
X224171095Y-67825904D01*
X224218714Y-67921142D01*
X224266333Y-67968761D01*
X224361571Y-68016380D01*
X224456809Y-68016380D01*
X224552047Y-67968761D01*
X224599666Y-67921142D01*
X224647285Y-67825904D01*
X224694904Y-67635428D01*
X224694904Y-67397333D01*
X224647285Y-67206857D01*
X224599666Y-67111619D01*
X224552047Y-67064000D01*
X224456809Y-67016380D01*
%TO.C,SW51*%
X218471523Y-87018761D02*
X218328666Y-87066380D01*
X218090571Y-87066380D01*
X217995333Y-87018761D01*
X217947714Y-86971142D01*
X217900095Y-86875904D01*
X217900095Y-86780666D01*
X217947714Y-86685428D01*
X217995333Y-86637809D01*
X218090571Y-86590190D01*
X218281047Y-86542571D01*
X218376285Y-86494952D01*
X218423904Y-86447333D01*
X218471523Y-86352095D01*
X218471523Y-86256857D01*
X218423904Y-86161619D01*
X218376285Y-86114000D01*
X218281047Y-86066380D01*
X218042952Y-86066380D01*
X217900095Y-86114000D01*
X217566761Y-86066380D02*
X217328666Y-87066380D01*
X217138190Y-86352095D01*
X216947714Y-87066380D01*
X216709619Y-86066380D01*
X215852476Y-86066380D02*
X216328666Y-86066380D01*
X216376285Y-86542571D01*
X216328666Y-86494952D01*
X216233428Y-86447333D01*
X215995333Y-86447333D01*
X215900095Y-86494952D01*
X215852476Y-86542571D01*
X215804857Y-86637809D01*
X215804857Y-86875904D01*
X215852476Y-86971142D01*
X215900095Y-87018761D01*
X215995333Y-87066380D01*
X216233428Y-87066380D01*
X216328666Y-87018761D01*
X216376285Y-86971142D01*
X214852476Y-87066380D02*
X215423904Y-87066380D01*
X215138190Y-87066380D02*
X215138190Y-86066380D01*
X215233428Y-86209238D01*
X215328666Y-86304476D01*
X215423904Y-86352095D01*
%TO.C,SW53*%
X232695523Y-29823661D02*
X232552666Y-29871280D01*
X232314571Y-29871280D01*
X232219333Y-29823661D01*
X232171714Y-29776042D01*
X232124095Y-29680804D01*
X232124095Y-29585566D01*
X232171714Y-29490328D01*
X232219333Y-29442709D01*
X232314571Y-29395090D01*
X232505047Y-29347471D01*
X232600285Y-29299852D01*
X232647904Y-29252233D01*
X232695523Y-29156995D01*
X232695523Y-29061757D01*
X232647904Y-28966519D01*
X232600285Y-28918900D01*
X232505047Y-28871280D01*
X232266952Y-28871280D01*
X232124095Y-28918900D01*
X231790761Y-28871280D02*
X231552666Y-29871280D01*
X231362190Y-29156995D01*
X231171714Y-29871280D01*
X230933619Y-28871280D01*
X230076476Y-28871280D02*
X230552666Y-28871280D01*
X230600285Y-29347471D01*
X230552666Y-29299852D01*
X230457428Y-29252233D01*
X230219333Y-29252233D01*
X230124095Y-29299852D01*
X230076476Y-29347471D01*
X230028857Y-29442709D01*
X230028857Y-29680804D01*
X230076476Y-29776042D01*
X230124095Y-29823661D01*
X230219333Y-29871280D01*
X230457428Y-29871280D01*
X230552666Y-29823661D01*
X230600285Y-29776042D01*
X229695523Y-28871280D02*
X229076476Y-28871280D01*
X229409809Y-29252233D01*
X229266952Y-29252233D01*
X229171714Y-29299852D01*
X229124095Y-29347471D01*
X229076476Y-29442709D01*
X229076476Y-29680804D01*
X229124095Y-29776042D01*
X229171714Y-29823661D01*
X229266952Y-29871280D01*
X229552666Y-29871280D01*
X229647904Y-29823661D01*
X229695523Y-29776042D01*
%TO.C,SW54*%
X360838523Y-67714761D02*
X360695666Y-67762380D01*
X360457571Y-67762380D01*
X360362333Y-67714761D01*
X360314714Y-67667142D01*
X360267095Y-67571904D01*
X360267095Y-67476666D01*
X360314714Y-67381428D01*
X360362333Y-67333809D01*
X360457571Y-67286190D01*
X360648047Y-67238571D01*
X360743285Y-67190952D01*
X360790904Y-67143333D01*
X360838523Y-67048095D01*
X360838523Y-66952857D01*
X360790904Y-66857619D01*
X360743285Y-66810000D01*
X360648047Y-66762380D01*
X360409952Y-66762380D01*
X360267095Y-66810000D01*
X359933761Y-66762380D02*
X359695666Y-67762380D01*
X359505190Y-67048095D01*
X359314714Y-67762380D01*
X359076619Y-66762380D01*
X358219476Y-66762380D02*
X358695666Y-66762380D01*
X358743285Y-67238571D01*
X358695666Y-67190952D01*
X358600428Y-67143333D01*
X358362333Y-67143333D01*
X358267095Y-67190952D01*
X358219476Y-67238571D01*
X358171857Y-67333809D01*
X358171857Y-67571904D01*
X358219476Y-67667142D01*
X358267095Y-67714761D01*
X358362333Y-67762380D01*
X358600428Y-67762380D01*
X358695666Y-67714761D01*
X358743285Y-67667142D01*
X357314714Y-67095714D02*
X357314714Y-67762380D01*
X357552809Y-66714761D02*
X357790904Y-67429047D01*
X357171857Y-67429047D01*
%TO.C,SW55*%
X280447523Y-48918761D02*
X280304666Y-48966380D01*
X280066571Y-48966380D01*
X279971333Y-48918761D01*
X279923714Y-48871142D01*
X279876095Y-48775904D01*
X279876095Y-48680666D01*
X279923714Y-48585428D01*
X279971333Y-48537809D01*
X280066571Y-48490190D01*
X280257047Y-48442571D01*
X280352285Y-48394952D01*
X280399904Y-48347333D01*
X280447523Y-48252095D01*
X280447523Y-48156857D01*
X280399904Y-48061619D01*
X280352285Y-48014000D01*
X280257047Y-47966380D01*
X280018952Y-47966380D01*
X279876095Y-48014000D01*
X279542761Y-47966380D02*
X279304666Y-48966380D01*
X279114190Y-48252095D01*
X278923714Y-48966380D01*
X278685619Y-47966380D01*
X277828476Y-47966380D02*
X278304666Y-47966380D01*
X278352285Y-48442571D01*
X278304666Y-48394952D01*
X278209428Y-48347333D01*
X277971333Y-48347333D01*
X277876095Y-48394952D01*
X277828476Y-48442571D01*
X277780857Y-48537809D01*
X277780857Y-48775904D01*
X277828476Y-48871142D01*
X277876095Y-48918761D01*
X277971333Y-48966380D01*
X278209428Y-48966380D01*
X278304666Y-48918761D01*
X278352285Y-48871142D01*
X276876095Y-47966380D02*
X277352285Y-47966380D01*
X277399904Y-48442571D01*
X277352285Y-48394952D01*
X277257047Y-48347333D01*
X277018952Y-48347333D01*
X276923714Y-48394952D01*
X276876095Y-48442571D01*
X276828476Y-48537809D01*
X276828476Y-48775904D01*
X276876095Y-48871142D01*
X276923714Y-48918761D01*
X277018952Y-48966380D01*
X277257047Y-48966380D01*
X277352285Y-48918761D01*
X277399904Y-48871142D01*
%TO.C,SW56*%
X379888523Y-67714761D02*
X379745666Y-67762380D01*
X379507571Y-67762380D01*
X379412333Y-67714761D01*
X379364714Y-67667142D01*
X379317095Y-67571904D01*
X379317095Y-67476666D01*
X379364714Y-67381428D01*
X379412333Y-67333809D01*
X379507571Y-67286190D01*
X379698047Y-67238571D01*
X379793285Y-67190952D01*
X379840904Y-67143333D01*
X379888523Y-67048095D01*
X379888523Y-66952857D01*
X379840904Y-66857619D01*
X379793285Y-66810000D01*
X379698047Y-66762380D01*
X379459952Y-66762380D01*
X379317095Y-66810000D01*
X378983761Y-66762380D02*
X378745666Y-67762380D01*
X378555190Y-67048095D01*
X378364714Y-67762380D01*
X378126619Y-66762380D01*
X377269476Y-66762380D02*
X377745666Y-66762380D01*
X377793285Y-67238571D01*
X377745666Y-67190952D01*
X377650428Y-67143333D01*
X377412333Y-67143333D01*
X377317095Y-67190952D01*
X377269476Y-67238571D01*
X377221857Y-67333809D01*
X377221857Y-67571904D01*
X377269476Y-67667142D01*
X377317095Y-67714761D01*
X377412333Y-67762380D01*
X377650428Y-67762380D01*
X377745666Y-67714761D01*
X377793285Y-67667142D01*
X376364714Y-66762380D02*
X376555190Y-66762380D01*
X376650428Y-66810000D01*
X376698047Y-66857619D01*
X376793285Y-67000476D01*
X376840904Y-67190952D01*
X376840904Y-67571904D01*
X376793285Y-67667142D01*
X376745666Y-67714761D01*
X376650428Y-67762380D01*
X376459952Y-67762380D01*
X376364714Y-67714761D01*
X376317095Y-67667142D01*
X376269476Y-67571904D01*
X376269476Y-67333809D01*
X376317095Y-67238571D01*
X376364714Y-67190952D01*
X376459952Y-67143333D01*
X376650428Y-67143333D01*
X376745666Y-67190952D01*
X376793285Y-67238571D01*
X376840904Y-67333809D01*
%TO.C,SW58*%
X265842523Y-67968761D02*
X265699666Y-68016380D01*
X265461571Y-68016380D01*
X265366333Y-67968761D01*
X265318714Y-67921142D01*
X265271095Y-67825904D01*
X265271095Y-67730666D01*
X265318714Y-67635428D01*
X265366333Y-67587809D01*
X265461571Y-67540190D01*
X265652047Y-67492571D01*
X265747285Y-67444952D01*
X265794904Y-67397333D01*
X265842523Y-67302095D01*
X265842523Y-67206857D01*
X265794904Y-67111619D01*
X265747285Y-67064000D01*
X265652047Y-67016380D01*
X265413952Y-67016380D01*
X265271095Y-67064000D01*
X264937761Y-67016380D02*
X264699666Y-68016380D01*
X264509190Y-67302095D01*
X264318714Y-68016380D01*
X264080619Y-67016380D01*
X263223476Y-67016380D02*
X263699666Y-67016380D01*
X263747285Y-67492571D01*
X263699666Y-67444952D01*
X263604428Y-67397333D01*
X263366333Y-67397333D01*
X263271095Y-67444952D01*
X263223476Y-67492571D01*
X263175857Y-67587809D01*
X263175857Y-67825904D01*
X263223476Y-67921142D01*
X263271095Y-67968761D01*
X263366333Y-68016380D01*
X263604428Y-68016380D01*
X263699666Y-67968761D01*
X263747285Y-67921142D01*
X262604428Y-67444952D02*
X262699666Y-67397333D01*
X262747285Y-67349714D01*
X262794904Y-67254476D01*
X262794904Y-67206857D01*
X262747285Y-67111619D01*
X262699666Y-67064000D01*
X262604428Y-67016380D01*
X262413952Y-67016380D01*
X262318714Y-67064000D01*
X262271095Y-67111619D01*
X262223476Y-67206857D01*
X262223476Y-67254476D01*
X262271095Y-67349714D01*
X262318714Y-67397333D01*
X262413952Y-67444952D01*
X262604428Y-67444952D01*
X262699666Y-67492571D01*
X262747285Y-67540190D01*
X262794904Y-67635428D01*
X262794904Y-67825904D01*
X262747285Y-67921142D01*
X262699666Y-67968761D01*
X262604428Y-68016380D01*
X262413952Y-68016380D01*
X262318714Y-67968761D01*
X262271095Y-67921142D01*
X262223476Y-67825904D01*
X262223476Y-67635428D01*
X262271095Y-67540190D01*
X262318714Y-67492571D01*
X262413952Y-67444952D01*
%TO.C,SW62*%
X360838523Y-48664761D02*
X360695666Y-48712380D01*
X360457571Y-48712380D01*
X360362333Y-48664761D01*
X360314714Y-48617142D01*
X360267095Y-48521904D01*
X360267095Y-48426666D01*
X360314714Y-48331428D01*
X360362333Y-48283809D01*
X360457571Y-48236190D01*
X360648047Y-48188571D01*
X360743285Y-48140952D01*
X360790904Y-48093333D01*
X360838523Y-47998095D01*
X360838523Y-47902857D01*
X360790904Y-47807619D01*
X360743285Y-47760000D01*
X360648047Y-47712380D01*
X360409952Y-47712380D01*
X360267095Y-47760000D01*
X359933761Y-47712380D02*
X359695666Y-48712380D01*
X359505190Y-47998095D01*
X359314714Y-48712380D01*
X359076619Y-47712380D01*
X358267095Y-47712380D02*
X358457571Y-47712380D01*
X358552809Y-47760000D01*
X358600428Y-47807619D01*
X358695666Y-47950476D01*
X358743285Y-48140952D01*
X358743285Y-48521904D01*
X358695666Y-48617142D01*
X358648047Y-48664761D01*
X358552809Y-48712380D01*
X358362333Y-48712380D01*
X358267095Y-48664761D01*
X358219476Y-48617142D01*
X358171857Y-48521904D01*
X358171857Y-48283809D01*
X358219476Y-48188571D01*
X358267095Y-48140952D01*
X358362333Y-48093333D01*
X358552809Y-48093333D01*
X358648047Y-48140952D01*
X358695666Y-48188571D01*
X358743285Y-48283809D01*
X357790904Y-47807619D02*
X357743285Y-47760000D01*
X357648047Y-47712380D01*
X357409952Y-47712380D01*
X357314714Y-47760000D01*
X357267095Y-47807619D01*
X357219476Y-47902857D01*
X357219476Y-47998095D01*
X357267095Y-48140952D01*
X357838523Y-48712380D01*
X357219476Y-48712380D01*
%TO.C,SW63*%
X341788523Y-48664761D02*
X341645666Y-48712380D01*
X341407571Y-48712380D01*
X341312333Y-48664761D01*
X341264714Y-48617142D01*
X341217095Y-48521904D01*
X341217095Y-48426666D01*
X341264714Y-48331428D01*
X341312333Y-48283809D01*
X341407571Y-48236190D01*
X341598047Y-48188571D01*
X341693285Y-48140952D01*
X341740904Y-48093333D01*
X341788523Y-47998095D01*
X341788523Y-47902857D01*
X341740904Y-47807619D01*
X341693285Y-47760000D01*
X341598047Y-47712380D01*
X341359952Y-47712380D01*
X341217095Y-47760000D01*
X340883761Y-47712380D02*
X340645666Y-48712380D01*
X340455190Y-47998095D01*
X340264714Y-48712380D01*
X340026619Y-47712380D01*
X339217095Y-47712380D02*
X339407571Y-47712380D01*
X339502809Y-47760000D01*
X339550428Y-47807619D01*
X339645666Y-47950476D01*
X339693285Y-48140952D01*
X339693285Y-48521904D01*
X339645666Y-48617142D01*
X339598047Y-48664761D01*
X339502809Y-48712380D01*
X339312333Y-48712380D01*
X339217095Y-48664761D01*
X339169476Y-48617142D01*
X339121857Y-48521904D01*
X339121857Y-48283809D01*
X339169476Y-48188571D01*
X339217095Y-48140952D01*
X339312333Y-48093333D01*
X339502809Y-48093333D01*
X339598047Y-48140952D01*
X339645666Y-48188571D01*
X339693285Y-48283809D01*
X338788523Y-47712380D02*
X338169476Y-47712380D01*
X338502809Y-48093333D01*
X338359952Y-48093333D01*
X338264714Y-48140952D01*
X338217095Y-48188571D01*
X338169476Y-48283809D01*
X338169476Y-48521904D01*
X338217095Y-48617142D01*
X338264714Y-48664761D01*
X338359952Y-48712380D01*
X338645666Y-48712380D01*
X338740904Y-48664761D01*
X338788523Y-48617142D01*
%TO.C,SW60*%
X341788523Y-67714761D02*
X341645666Y-67762380D01*
X341407571Y-67762380D01*
X341312333Y-67714761D01*
X341264714Y-67667142D01*
X341217095Y-67571904D01*
X341217095Y-67476666D01*
X341264714Y-67381428D01*
X341312333Y-67333809D01*
X341407571Y-67286190D01*
X341598047Y-67238571D01*
X341693285Y-67190952D01*
X341740904Y-67143333D01*
X341788523Y-67048095D01*
X341788523Y-66952857D01*
X341740904Y-66857619D01*
X341693285Y-66810000D01*
X341598047Y-66762380D01*
X341359952Y-66762380D01*
X341217095Y-66810000D01*
X340883761Y-66762380D02*
X340645666Y-67762380D01*
X340455190Y-67048095D01*
X340264714Y-67762380D01*
X340026619Y-66762380D01*
X339217095Y-66762380D02*
X339407571Y-66762380D01*
X339502809Y-66810000D01*
X339550428Y-66857619D01*
X339645666Y-67000476D01*
X339693285Y-67190952D01*
X339693285Y-67571904D01*
X339645666Y-67667142D01*
X339598047Y-67714761D01*
X339502809Y-67762380D01*
X339312333Y-67762380D01*
X339217095Y-67714761D01*
X339169476Y-67667142D01*
X339121857Y-67571904D01*
X339121857Y-67333809D01*
X339169476Y-67238571D01*
X339217095Y-67190952D01*
X339312333Y-67143333D01*
X339502809Y-67143333D01*
X339598047Y-67190952D01*
X339645666Y-67238571D01*
X339693285Y-67333809D01*
X338502809Y-66762380D02*
X338407571Y-66762380D01*
X338312333Y-66810000D01*
X338264714Y-66857619D01*
X338217095Y-66952857D01*
X338169476Y-67143333D01*
X338169476Y-67381428D01*
X338217095Y-67571904D01*
X338264714Y-67667142D01*
X338312333Y-67714761D01*
X338407571Y-67762380D01*
X338502809Y-67762380D01*
X338598047Y-67714761D01*
X338645666Y-67667142D01*
X338693285Y-67571904D01*
X338740904Y-67381428D01*
X338740904Y-67143333D01*
X338693285Y-66952857D01*
X338645666Y-66857619D01*
X338598047Y-66810000D01*
X338502809Y-66762380D01*
%TO.C,LEFT-SPACE1*%
X149298333Y-106233380D02*
X149631666Y-105757190D01*
X149869761Y-106233380D02*
X149869761Y-105233380D01*
X149488809Y-105233380D01*
X149393571Y-105281000D01*
X149345952Y-105328619D01*
X149298333Y-105423857D01*
X149298333Y-105566714D01*
X149345952Y-105661952D01*
X149393571Y-105709571D01*
X149488809Y-105757190D01*
X149869761Y-105757190D01*
X148869761Y-105709571D02*
X148536428Y-105709571D01*
X148393571Y-106233380D02*
X148869761Y-106233380D01*
X148869761Y-105233380D01*
X148393571Y-105233380D01*
X147631666Y-105709571D02*
X147965000Y-105709571D01*
X147965000Y-106233380D02*
X147965000Y-105233380D01*
X147488809Y-105233380D01*
X146965000Y-105233380D02*
X146965000Y-105471476D01*
X147203095Y-105376238D02*
X146965000Y-105471476D01*
X146726904Y-105376238D01*
X147107857Y-105661952D02*
X146965000Y-105471476D01*
X146822142Y-105661952D01*
X146203095Y-105233380D02*
X146203095Y-105471476D01*
X146441190Y-105376238D02*
X146203095Y-105471476D01*
X145965000Y-105376238D01*
X146345952Y-105661952D02*
X146203095Y-105471476D01*
X146060238Y-105661952D01*
%TO.C,RIGHT-SPACE1*%
X230324333Y-106233380D02*
X230657666Y-105757190D01*
X230895761Y-106233380D02*
X230895761Y-105233380D01*
X230514809Y-105233380D01*
X230419571Y-105281000D01*
X230371952Y-105328619D01*
X230324333Y-105423857D01*
X230324333Y-105566714D01*
X230371952Y-105661952D01*
X230419571Y-105709571D01*
X230514809Y-105757190D01*
X230895761Y-105757190D01*
X229895761Y-105709571D02*
X229562428Y-105709571D01*
X229419571Y-106233380D02*
X229895761Y-106233380D01*
X229895761Y-105233380D01*
X229419571Y-105233380D01*
X228657666Y-105709571D02*
X228991000Y-105709571D01*
X228991000Y-106233380D02*
X228991000Y-105233380D01*
X228514809Y-105233380D01*
X227991000Y-105233380D02*
X227991000Y-105471476D01*
X228229095Y-105376238D02*
X227991000Y-105471476D01*
X227752904Y-105376238D01*
X228133857Y-105661952D02*
X227991000Y-105471476D01*
X227848142Y-105661952D01*
X227229095Y-105233380D02*
X227229095Y-105471476D01*
X227467190Y-105376238D02*
X227229095Y-105471476D01*
X226991000Y-105376238D01*
X227371952Y-105661952D02*
X227229095Y-105471476D01*
X227086238Y-105661952D01*
%TO.C,SW64*%
X360838523Y-86764761D02*
X360695666Y-86812380D01*
X360457571Y-86812380D01*
X360362333Y-86764761D01*
X360314714Y-86717142D01*
X360267095Y-86621904D01*
X360267095Y-86526666D01*
X360314714Y-86431428D01*
X360362333Y-86383809D01*
X360457571Y-86336190D01*
X360648047Y-86288571D01*
X360743285Y-86240952D01*
X360790904Y-86193333D01*
X360838523Y-86098095D01*
X360838523Y-86002857D01*
X360790904Y-85907619D01*
X360743285Y-85860000D01*
X360648047Y-85812380D01*
X360409952Y-85812380D01*
X360267095Y-85860000D01*
X359933761Y-85812380D02*
X359695666Y-86812380D01*
X359505190Y-86098095D01*
X359314714Y-86812380D01*
X359076619Y-85812380D01*
X358267095Y-85812380D02*
X358457571Y-85812380D01*
X358552809Y-85860000D01*
X358600428Y-85907619D01*
X358695666Y-86050476D01*
X358743285Y-86240952D01*
X358743285Y-86621904D01*
X358695666Y-86717142D01*
X358648047Y-86764761D01*
X358552809Y-86812380D01*
X358362333Y-86812380D01*
X358267095Y-86764761D01*
X358219476Y-86717142D01*
X358171857Y-86621904D01*
X358171857Y-86383809D01*
X358219476Y-86288571D01*
X358267095Y-86240952D01*
X358362333Y-86193333D01*
X358552809Y-86193333D01*
X358648047Y-86240952D01*
X358695666Y-86288571D01*
X358743285Y-86383809D01*
X357314714Y-86145714D02*
X357314714Y-86812380D01*
X357552809Y-85764761D02*
X357790904Y-86479047D01*
X357171857Y-86479047D01*
%TO.C,SW65*%
X341788523Y-29614761D02*
X341645666Y-29662380D01*
X341407571Y-29662380D01*
X341312333Y-29614761D01*
X341264714Y-29567142D01*
X341217095Y-29471904D01*
X341217095Y-29376666D01*
X341264714Y-29281428D01*
X341312333Y-29233809D01*
X341407571Y-29186190D01*
X341598047Y-29138571D01*
X341693285Y-29090952D01*
X341740904Y-29043333D01*
X341788523Y-28948095D01*
X341788523Y-28852857D01*
X341740904Y-28757619D01*
X341693285Y-28710000D01*
X341598047Y-28662380D01*
X341359952Y-28662380D01*
X341217095Y-28710000D01*
X340883761Y-28662380D02*
X340645666Y-29662380D01*
X340455190Y-28948095D01*
X340264714Y-29662380D01*
X340026619Y-28662380D01*
X339217095Y-28662380D02*
X339407571Y-28662380D01*
X339502809Y-28710000D01*
X339550428Y-28757619D01*
X339645666Y-28900476D01*
X339693285Y-29090952D01*
X339693285Y-29471904D01*
X339645666Y-29567142D01*
X339598047Y-29614761D01*
X339502809Y-29662380D01*
X339312333Y-29662380D01*
X339217095Y-29614761D01*
X339169476Y-29567142D01*
X339121857Y-29471904D01*
X339121857Y-29233809D01*
X339169476Y-29138571D01*
X339217095Y-29090952D01*
X339312333Y-29043333D01*
X339502809Y-29043333D01*
X339598047Y-29090952D01*
X339645666Y-29138571D01*
X339693285Y-29233809D01*
X338217095Y-28662380D02*
X338693285Y-28662380D01*
X338740904Y-29138571D01*
X338693285Y-29090952D01*
X338598047Y-29043333D01*
X338359952Y-29043333D01*
X338264714Y-29090952D01*
X338217095Y-29138571D01*
X338169476Y-29233809D01*
X338169476Y-29471904D01*
X338217095Y-29567142D01*
X338264714Y-29614761D01*
X338359952Y-29662380D01*
X338598047Y-29662380D01*
X338693285Y-29614761D01*
X338740904Y-29567142D01*
%TO.C,SW66*%
X398938523Y-105814761D02*
X398795666Y-105862380D01*
X398557571Y-105862380D01*
X398462333Y-105814761D01*
X398414714Y-105767142D01*
X398367095Y-105671904D01*
X398367095Y-105576666D01*
X398414714Y-105481428D01*
X398462333Y-105433809D01*
X398557571Y-105386190D01*
X398748047Y-105338571D01*
X398843285Y-105290952D01*
X398890904Y-105243333D01*
X398938523Y-105148095D01*
X398938523Y-105052857D01*
X398890904Y-104957619D01*
X398843285Y-104910000D01*
X398748047Y-104862380D01*
X398509952Y-104862380D01*
X398367095Y-104910000D01*
X398033761Y-104862380D02*
X397795666Y-105862380D01*
X397605190Y-105148095D01*
X397414714Y-105862380D01*
X397176619Y-104862380D01*
X396367095Y-104862380D02*
X396557571Y-104862380D01*
X396652809Y-104910000D01*
X396700428Y-104957619D01*
X396795666Y-105100476D01*
X396843285Y-105290952D01*
X396843285Y-105671904D01*
X396795666Y-105767142D01*
X396748047Y-105814761D01*
X396652809Y-105862380D01*
X396462333Y-105862380D01*
X396367095Y-105814761D01*
X396319476Y-105767142D01*
X396271857Y-105671904D01*
X396271857Y-105433809D01*
X396319476Y-105338571D01*
X396367095Y-105290952D01*
X396462333Y-105243333D01*
X396652809Y-105243333D01*
X396748047Y-105290952D01*
X396795666Y-105338571D01*
X396843285Y-105433809D01*
X395414714Y-104862380D02*
X395605190Y-104862380D01*
X395700428Y-104910000D01*
X395748047Y-104957619D01*
X395843285Y-105100476D01*
X395890904Y-105290952D01*
X395890904Y-105671904D01*
X395843285Y-105767142D01*
X395795666Y-105814761D01*
X395700428Y-105862380D01*
X395509952Y-105862380D01*
X395414714Y-105814761D01*
X395367095Y-105767142D01*
X395319476Y-105671904D01*
X395319476Y-105433809D01*
X395367095Y-105338571D01*
X395414714Y-105290952D01*
X395509952Y-105243333D01*
X395700428Y-105243333D01*
X395795666Y-105290952D01*
X395843285Y-105338571D01*
X395890904Y-105433809D01*
%TO.C,SW67*%
X379888523Y-48664761D02*
X379745666Y-48712380D01*
X379507571Y-48712380D01*
X379412333Y-48664761D01*
X379364714Y-48617142D01*
X379317095Y-48521904D01*
X379317095Y-48426666D01*
X379364714Y-48331428D01*
X379412333Y-48283809D01*
X379507571Y-48236190D01*
X379698047Y-48188571D01*
X379793285Y-48140952D01*
X379840904Y-48093333D01*
X379888523Y-47998095D01*
X379888523Y-47902857D01*
X379840904Y-47807619D01*
X379793285Y-47760000D01*
X379698047Y-47712380D01*
X379459952Y-47712380D01*
X379317095Y-47760000D01*
X378983761Y-47712380D02*
X378745666Y-48712380D01*
X378555190Y-47998095D01*
X378364714Y-48712380D01*
X378126619Y-47712380D01*
X377317095Y-47712380D02*
X377507571Y-47712380D01*
X377602809Y-47760000D01*
X377650428Y-47807619D01*
X377745666Y-47950476D01*
X377793285Y-48140952D01*
X377793285Y-48521904D01*
X377745666Y-48617142D01*
X377698047Y-48664761D01*
X377602809Y-48712380D01*
X377412333Y-48712380D01*
X377317095Y-48664761D01*
X377269476Y-48617142D01*
X377221857Y-48521904D01*
X377221857Y-48283809D01*
X377269476Y-48188571D01*
X377317095Y-48140952D01*
X377412333Y-48093333D01*
X377602809Y-48093333D01*
X377698047Y-48140952D01*
X377745666Y-48188571D01*
X377793285Y-48283809D01*
X376888523Y-47712380D02*
X376221857Y-47712380D01*
X376650428Y-48712380D01*
%TO.C,SW68*%
X379888523Y-86764761D02*
X379745666Y-86812380D01*
X379507571Y-86812380D01*
X379412333Y-86764761D01*
X379364714Y-86717142D01*
X379317095Y-86621904D01*
X379317095Y-86526666D01*
X379364714Y-86431428D01*
X379412333Y-86383809D01*
X379507571Y-86336190D01*
X379698047Y-86288571D01*
X379793285Y-86240952D01*
X379840904Y-86193333D01*
X379888523Y-86098095D01*
X379888523Y-86002857D01*
X379840904Y-85907619D01*
X379793285Y-85860000D01*
X379698047Y-85812380D01*
X379459952Y-85812380D01*
X379317095Y-85860000D01*
X378983761Y-85812380D02*
X378745666Y-86812380D01*
X378555190Y-86098095D01*
X378364714Y-86812380D01*
X378126619Y-85812380D01*
X377317095Y-85812380D02*
X377507571Y-85812380D01*
X377602809Y-85860000D01*
X377650428Y-85907619D01*
X377745666Y-86050476D01*
X377793285Y-86240952D01*
X377793285Y-86621904D01*
X377745666Y-86717142D01*
X377698047Y-86764761D01*
X377602809Y-86812380D01*
X377412333Y-86812380D01*
X377317095Y-86764761D01*
X377269476Y-86717142D01*
X377221857Y-86621904D01*
X377221857Y-86383809D01*
X377269476Y-86288571D01*
X377317095Y-86240952D01*
X377412333Y-86193333D01*
X377602809Y-86193333D01*
X377698047Y-86240952D01*
X377745666Y-86288571D01*
X377793285Y-86383809D01*
X376650428Y-86240952D02*
X376745666Y-86193333D01*
X376793285Y-86145714D01*
X376840904Y-86050476D01*
X376840904Y-86002857D01*
X376793285Y-85907619D01*
X376745666Y-85860000D01*
X376650428Y-85812380D01*
X376459952Y-85812380D01*
X376364714Y-85860000D01*
X376317095Y-85907619D01*
X376269476Y-86002857D01*
X376269476Y-86050476D01*
X376317095Y-86145714D01*
X376364714Y-86193333D01*
X376459952Y-86240952D01*
X376650428Y-86240952D01*
X376745666Y-86288571D01*
X376793285Y-86336190D01*
X376840904Y-86431428D01*
X376840904Y-86621904D01*
X376793285Y-86717142D01*
X376745666Y-86764761D01*
X376650428Y-86812380D01*
X376459952Y-86812380D01*
X376364714Y-86764761D01*
X376317095Y-86717142D01*
X376269476Y-86621904D01*
X376269476Y-86431428D01*
X376317095Y-86336190D01*
X376364714Y-86288571D01*
X376459952Y-86240952D01*
%TO.C,SW69*%
X398938523Y-29614761D02*
X398795666Y-29662380D01*
X398557571Y-29662380D01*
X398462333Y-29614761D01*
X398414714Y-29567142D01*
X398367095Y-29471904D01*
X398367095Y-29376666D01*
X398414714Y-29281428D01*
X398462333Y-29233809D01*
X398557571Y-29186190D01*
X398748047Y-29138571D01*
X398843285Y-29090952D01*
X398890904Y-29043333D01*
X398938523Y-28948095D01*
X398938523Y-28852857D01*
X398890904Y-28757619D01*
X398843285Y-28710000D01*
X398748047Y-28662380D01*
X398509952Y-28662380D01*
X398367095Y-28710000D01*
X398033761Y-28662380D02*
X397795666Y-29662380D01*
X397605190Y-28948095D01*
X397414714Y-29662380D01*
X397176619Y-28662380D01*
X396367095Y-28662380D02*
X396557571Y-28662380D01*
X396652809Y-28710000D01*
X396700428Y-28757619D01*
X396795666Y-28900476D01*
X396843285Y-29090952D01*
X396843285Y-29471904D01*
X396795666Y-29567142D01*
X396748047Y-29614761D01*
X396652809Y-29662380D01*
X396462333Y-29662380D01*
X396367095Y-29614761D01*
X396319476Y-29567142D01*
X396271857Y-29471904D01*
X396271857Y-29233809D01*
X396319476Y-29138571D01*
X396367095Y-29090952D01*
X396462333Y-29043333D01*
X396652809Y-29043333D01*
X396748047Y-29090952D01*
X396795666Y-29138571D01*
X396843285Y-29233809D01*
X395795666Y-29662380D02*
X395605190Y-29662380D01*
X395509952Y-29614761D01*
X395462333Y-29567142D01*
X395367095Y-29424285D01*
X395319476Y-29233809D01*
X395319476Y-28852857D01*
X395367095Y-28757619D01*
X395414714Y-28710000D01*
X395509952Y-28662380D01*
X395700428Y-28662380D01*
X395795666Y-28710000D01*
X395843285Y-28757619D01*
X395890904Y-28852857D01*
X395890904Y-29090952D01*
X395843285Y-29186190D01*
X395795666Y-29233809D01*
X395700428Y-29281428D01*
X395509952Y-29281428D01*
X395414714Y-29233809D01*
X395367095Y-29186190D01*
X395319476Y-29090952D01*
%TO.C,SW70*%
X379888523Y-29614761D02*
X379745666Y-29662380D01*
X379507571Y-29662380D01*
X379412333Y-29614761D01*
X379364714Y-29567142D01*
X379317095Y-29471904D01*
X379317095Y-29376666D01*
X379364714Y-29281428D01*
X379412333Y-29233809D01*
X379507571Y-29186190D01*
X379698047Y-29138571D01*
X379793285Y-29090952D01*
X379840904Y-29043333D01*
X379888523Y-28948095D01*
X379888523Y-28852857D01*
X379840904Y-28757619D01*
X379793285Y-28710000D01*
X379698047Y-28662380D01*
X379459952Y-28662380D01*
X379317095Y-28710000D01*
X378983761Y-28662380D02*
X378745666Y-29662380D01*
X378555190Y-28948095D01*
X378364714Y-29662380D01*
X378126619Y-28662380D01*
X377840904Y-28662380D02*
X377174238Y-28662380D01*
X377602809Y-29662380D01*
X376602809Y-28662380D02*
X376507571Y-28662380D01*
X376412333Y-28710000D01*
X376364714Y-28757619D01*
X376317095Y-28852857D01*
X376269476Y-29043333D01*
X376269476Y-29281428D01*
X376317095Y-29471904D01*
X376364714Y-29567142D01*
X376412333Y-29614761D01*
X376507571Y-29662380D01*
X376602809Y-29662380D01*
X376698047Y-29614761D01*
X376745666Y-29567142D01*
X376793285Y-29471904D01*
X376840904Y-29281428D01*
X376840904Y-29043333D01*
X376793285Y-28852857D01*
X376745666Y-28757619D01*
X376698047Y-28710000D01*
X376602809Y-28662380D01*
%TO.C,SW71*%
X379888523Y-105814761D02*
X379745666Y-105862380D01*
X379507571Y-105862380D01*
X379412333Y-105814761D01*
X379364714Y-105767142D01*
X379317095Y-105671904D01*
X379317095Y-105576666D01*
X379364714Y-105481428D01*
X379412333Y-105433809D01*
X379507571Y-105386190D01*
X379698047Y-105338571D01*
X379793285Y-105290952D01*
X379840904Y-105243333D01*
X379888523Y-105148095D01*
X379888523Y-105052857D01*
X379840904Y-104957619D01*
X379793285Y-104910000D01*
X379698047Y-104862380D01*
X379459952Y-104862380D01*
X379317095Y-104910000D01*
X378983761Y-104862380D02*
X378745666Y-105862380D01*
X378555190Y-105148095D01*
X378364714Y-105862380D01*
X378126619Y-104862380D01*
X377840904Y-104862380D02*
X377174238Y-104862380D01*
X377602809Y-105862380D01*
X376269476Y-105862380D02*
X376840904Y-105862380D01*
X376555190Y-105862380D02*
X376555190Y-104862380D01*
X376650428Y-105005238D01*
X376745666Y-105100476D01*
X376840904Y-105148095D01*
%TO.C,SW72*%
X360838523Y-105814761D02*
X360695666Y-105862380D01*
X360457571Y-105862380D01*
X360362333Y-105814761D01*
X360314714Y-105767142D01*
X360267095Y-105671904D01*
X360267095Y-105576666D01*
X360314714Y-105481428D01*
X360362333Y-105433809D01*
X360457571Y-105386190D01*
X360648047Y-105338571D01*
X360743285Y-105290952D01*
X360790904Y-105243333D01*
X360838523Y-105148095D01*
X360838523Y-105052857D01*
X360790904Y-104957619D01*
X360743285Y-104910000D01*
X360648047Y-104862380D01*
X360409952Y-104862380D01*
X360267095Y-104910000D01*
X359933761Y-104862380D02*
X359695666Y-105862380D01*
X359505190Y-105148095D01*
X359314714Y-105862380D01*
X359076619Y-104862380D01*
X358790904Y-104862380D02*
X358124238Y-104862380D01*
X358552809Y-105862380D01*
X357790904Y-104957619D02*
X357743285Y-104910000D01*
X357648047Y-104862380D01*
X357409952Y-104862380D01*
X357314714Y-104910000D01*
X357267095Y-104957619D01*
X357219476Y-105052857D01*
X357219476Y-105148095D01*
X357267095Y-105290952D01*
X357838523Y-105862380D01*
X357219476Y-105862380D01*
%TO.C,SW73*%
X341788523Y-105814761D02*
X341645666Y-105862380D01*
X341407571Y-105862380D01*
X341312333Y-105814761D01*
X341264714Y-105767142D01*
X341217095Y-105671904D01*
X341217095Y-105576666D01*
X341264714Y-105481428D01*
X341312333Y-105433809D01*
X341407571Y-105386190D01*
X341598047Y-105338571D01*
X341693285Y-105290952D01*
X341740904Y-105243333D01*
X341788523Y-105148095D01*
X341788523Y-105052857D01*
X341740904Y-104957619D01*
X341693285Y-104910000D01*
X341598047Y-104862380D01*
X341359952Y-104862380D01*
X341217095Y-104910000D01*
X340883761Y-104862380D02*
X340645666Y-105862380D01*
X340455190Y-105148095D01*
X340264714Y-105862380D01*
X340026619Y-104862380D01*
X339740904Y-104862380D02*
X339074238Y-104862380D01*
X339502809Y-105862380D01*
X338788523Y-104862380D02*
X338169476Y-104862380D01*
X338502809Y-105243333D01*
X338359952Y-105243333D01*
X338264714Y-105290952D01*
X338217095Y-105338571D01*
X338169476Y-105433809D01*
X338169476Y-105671904D01*
X338217095Y-105767142D01*
X338264714Y-105814761D01*
X338359952Y-105862380D01*
X338645666Y-105862380D01*
X338740904Y-105814761D01*
X338788523Y-105767142D01*
%TO.C,S2*%
X397890904Y-86764761D02*
X397748047Y-86812380D01*
X397509952Y-86812380D01*
X397414714Y-86764761D01*
X397367095Y-86717142D01*
X397319476Y-86621904D01*
X397319476Y-86526666D01*
X397367095Y-86431428D01*
X397414714Y-86383809D01*
X397509952Y-86336190D01*
X397700428Y-86288571D01*
X397795666Y-86240952D01*
X397843285Y-86193333D01*
X397890904Y-86098095D01*
X397890904Y-86002857D01*
X397843285Y-85907619D01*
X397795666Y-85860000D01*
X397700428Y-85812380D01*
X397462333Y-85812380D01*
X397319476Y-85860000D01*
X396938523Y-85907619D02*
X396890904Y-85860000D01*
X396795666Y-85812380D01*
X396557571Y-85812380D01*
X396462333Y-85860000D01*
X396414714Y-85907619D01*
X396367095Y-86002857D01*
X396367095Y-86098095D01*
X396414714Y-86240952D01*
X396986142Y-86812380D01*
X396367095Y-86812380D01*
%TO.C,S1*%
X359790904Y-29614761D02*
X359648047Y-29662380D01*
X359409952Y-29662380D01*
X359314714Y-29614761D01*
X359267095Y-29567142D01*
X359219476Y-29471904D01*
X359219476Y-29376666D01*
X359267095Y-29281428D01*
X359314714Y-29233809D01*
X359409952Y-29186190D01*
X359600428Y-29138571D01*
X359695666Y-29090952D01*
X359743285Y-29043333D01*
X359790904Y-28948095D01*
X359790904Y-28852857D01*
X359743285Y-28757619D01*
X359695666Y-28710000D01*
X359600428Y-28662380D01*
X359362333Y-28662380D01*
X359219476Y-28710000D01*
X358267095Y-29662380D02*
X358838523Y-29662380D01*
X358552809Y-29662380D02*
X358552809Y-28662380D01*
X358648047Y-28805238D01*
X358743285Y-28900476D01*
X358838523Y-28948095D01*
%TO.C,SW44*%
X263598333Y-106233380D02*
X263931666Y-105757190D01*
X264169761Y-106233380D02*
X264169761Y-105233380D01*
X263788809Y-105233380D01*
X263693571Y-105281000D01*
X263645952Y-105328619D01*
X263598333Y-105423857D01*
X263598333Y-105566714D01*
X263645952Y-105661952D01*
X263693571Y-105709571D01*
X263788809Y-105757190D01*
X264169761Y-105757190D01*
X263169761Y-105709571D02*
X262836428Y-105709571D01*
X262693571Y-106233380D02*
X263169761Y-106233380D01*
X263169761Y-105233380D01*
X262693571Y-105233380D01*
X261931666Y-105709571D02*
X262265000Y-105709571D01*
X262265000Y-106233380D02*
X262265000Y-105233380D01*
X261788809Y-105233380D01*
X261265000Y-105233380D02*
X261265000Y-105471476D01*
X261503095Y-105376238D02*
X261265000Y-105471476D01*
X261026904Y-105376238D01*
X261407857Y-105661952D02*
X261265000Y-105471476D01*
X261122142Y-105661952D01*
X260503095Y-105233380D02*
X260503095Y-105471476D01*
X260741190Y-105376238D02*
X260503095Y-105471476D01*
X260265000Y-105376238D01*
X260645952Y-105661952D02*
X260503095Y-105471476D01*
X260360238Y-105661952D01*
%TO.C,SW52*%
X285654523Y-106195761D02*
X285511666Y-106243380D01*
X285273571Y-106243380D01*
X285178333Y-106195761D01*
X285130714Y-106148142D01*
X285083095Y-106052904D01*
X285083095Y-105957666D01*
X285130714Y-105862428D01*
X285178333Y-105814809D01*
X285273571Y-105767190D01*
X285464047Y-105719571D01*
X285559285Y-105671952D01*
X285606904Y-105624333D01*
X285654523Y-105529095D01*
X285654523Y-105433857D01*
X285606904Y-105338619D01*
X285559285Y-105291000D01*
X285464047Y-105243380D01*
X285225952Y-105243380D01*
X285083095Y-105291000D01*
X284749761Y-105243380D02*
X284511666Y-106243380D01*
X284321190Y-105529095D01*
X284130714Y-106243380D01*
X283892619Y-105243380D01*
X283035476Y-105243380D02*
X283511666Y-105243380D01*
X283559285Y-105719571D01*
X283511666Y-105671952D01*
X283416428Y-105624333D01*
X283178333Y-105624333D01*
X283083095Y-105671952D01*
X283035476Y-105719571D01*
X282987857Y-105814809D01*
X282987857Y-106052904D01*
X283035476Y-106148142D01*
X283083095Y-106195761D01*
X283178333Y-106243380D01*
X283416428Y-106243380D01*
X283511666Y-106195761D01*
X283559285Y-106148142D01*
X282606904Y-105338619D02*
X282559285Y-105291000D01*
X282464047Y-105243380D01*
X282225952Y-105243380D01*
X282130714Y-105291000D01*
X282083095Y-105338619D01*
X282035476Y-105433857D01*
X282035476Y-105529095D01*
X282083095Y-105671952D01*
X282654523Y-106243380D01*
X282035476Y-106243380D01*
%TD*%
M02*
