%TF.GenerationSoftware,KiCad,Pcbnew,(5.1.10)-1*%
%TF.CreationDate,2021-11-11T14:39:24-08:00*%
%TF.ProjectId,chgray-keyboard,63686772-6179-42d6-9b65-79626f617264,Yeet2*%
%TF.SameCoordinates,Original*%
%TF.FileFunction,Profile,NP*%
%FSLAX46Y46*%
G04 Gerber Fmt 4.6, Leading zero omitted, Abs format (unit mm)*
G04 Created by KiCad (PCBNEW (5.1.10)-1) date 2021-11-11 14:39:24*
%MOMM*%
%LPD*%
G01*
G04 APERTURE LIST*
%TA.AperFunction,Profile*%
%ADD10C,0.100000*%
%TD*%
G04 APERTURE END LIST*
D10*
X265456000Y-104521000D02*
G75*
G03*
X265456000Y-104521000I-1550000J0D01*
G01*
X361214000Y-28575000D02*
G75*
G03*
X361214000Y-28575000I-1550000J0D01*
G01*
X89434000Y-28448000D02*
G75*
G03*
X89434000Y-28448000I-1550000J0D01*
G01*
X227102000Y-104267000D02*
G75*
G03*
X227102000Y-104267000I-1550000J0D01*
G01*
X94133000Y-104267000D02*
G75*
G03*
X94133000Y-104267000I-1550000J0D01*
G01*
X30506000Y-65786000D02*
G75*
G03*
X30506000Y-65786000I-1550000J0D01*
G01*
X249454000Y-6858000D02*
G75*
G03*
X249454000Y-6858000I-1550000J0D01*
G01*
X138837000Y-6985000D02*
G75*
G03*
X138837000Y-6985000I-1550000J0D01*
G01*
X361214000Y-85344000D02*
G75*
G03*
X361214000Y-85344000I-1550000J0D01*
G01*
X342291000Y-66294000D02*
G75*
G03*
X342291000Y-66294000I-1550000J0D01*
G01*
X314732000Y-66167000D02*
G75*
G03*
X314732000Y-66167000I-1550000J0D01*
G01*
X274854000Y-85471000D02*
G75*
G03*
X274854000Y-85471000I-1550000J0D01*
G01*
X242215000Y-28194000D02*
G75*
G03*
X242215000Y-28194000I-1550000J0D01*
G01*
X203734000Y-28067000D02*
G75*
G03*
X203734000Y-28067000I-1550000J0D01*
G01*
X127661000Y-28067000D02*
G75*
G03*
X127661000Y-28067000I-1550000J0D01*
G01*
X30887000Y-6477000D02*
G75*
G03*
X30887000Y-6477000I-1550000J0D01*
G01*
X30887000Y-122301000D02*
G75*
G03*
X30887000Y-122301000I-1550000J0D01*
G01*
X380137000Y-122529000D02*
G75*
G03*
X380137000Y-122529000I-1550000J0D01*
G01*
X380010000Y-6604000D02*
G75*
G03*
X380010000Y-6604000I-1550000J0D01*
G01*
X25273000Y-2794000D02*
X383540000Y-2794000D01*
X25273000Y-126238000D02*
X25273000Y-2794000D01*
X25273000Y-126238000D02*
X383540000Y-126238000D01*
X383540000Y-2794000D02*
X383540000Y-126238000D01*
M02*
