%TF.GenerationSoftware,KiCad,Pcbnew,(5.1.9)-1*%
%TF.CreationDate,2021-06-12T14:43:15-07:00*%
%TF.ProjectId,chgray-keyboard,63686772-6179-42d6-9b65-79626f617264,Yeet2*%
%TF.SameCoordinates,Original*%
%TF.FileFunction,Copper,L2,Bot*%
%TF.FilePolarity,Positive*%
%FSLAX46Y46*%
G04 Gerber Fmt 4.6, Leading zero omitted, Abs format (unit mm)*
G04 Created by KiCad (PCBNEW (5.1.9)-1) date 2021-06-12 14:43:15*
%MOMM*%
%LPD*%
G01*
G04 APERTURE LIST*
%TA.AperFunction,SMDPad,CuDef*%
%ADD10R,2.550000X2.500000*%
%TD*%
%TA.AperFunction,ComponentPad*%
%ADD11O,1.000000X1.000000*%
%TD*%
%TA.AperFunction,ComponentPad*%
%ADD12R,1.000000X1.000000*%
%TD*%
%TA.AperFunction,ViaPad*%
%ADD13C,0.800000*%
%TD*%
%TA.AperFunction,Conductor*%
%ADD14C,0.250000*%
%TD*%
G04 APERTURE END LIST*
D10*
%TO.P,RightMeta1,2*%
%TO.N,Net-(D70-Pad1)*%
X297758000Y-111496000D03*
%TO.P,RightMeta1,1*%
%TO.N,ROW3*%
X311608000Y-108956000D03*
%TD*%
%TO.P,RIGHT-SHIFT1,2*%
%TO.N,Net-(D36-Pad1)*%
X283026000Y-92319000D03*
%TO.P,RIGHT-SHIFT1,1*%
%TO.N,ROW5*%
X296876000Y-89779000D03*
%TD*%
%TO.P,ENTER1,2*%
%TO.N,Net-(D67-Pad1)*%
X287598000Y-73269000D03*
%TO.P,ENTER1,1*%
%TO.N,ROW0*%
X301448000Y-70729000D03*
%TD*%
%TO.P,SW4,2*%
%TO.N,Net-(D5-Pad1)*%
X32746300Y-35133900D03*
%TO.P,SW4,1*%
%TO.N,ROW0*%
X46596300Y-32593900D03*
%TD*%
%TO.P,WinKey1,2*%
%TO.N,Net-(D15-Pad1)*%
X83128000Y-111496000D03*
%TO.P,WinKey1,1*%
%TO.N,ROW4*%
X96978000Y-108956000D03*
%TD*%
%TO.P,LEFT_FN1,2*%
%TO.N,Net-(D11-Pad1)*%
X59252000Y-111496000D03*
%TO.P,LEFT_FN1,1*%
%TO.N,ROW4*%
X73102000Y-108956000D03*
%TD*%
%TO.P,LEFT_CTRL1,2*%
%TO.N,Net-(D3-Pad1)*%
X35376000Y-111496000D03*
%TO.P,LEFT_CTRL1,1*%
%TO.N,ROW4*%
X49226000Y-108956000D03*
%TD*%
%TO.P,LEFT_ALT1,2*%
%TO.N,Net-(D23-Pad1)*%
X107004000Y-111496000D03*
%TO.P,LEFT_ALT1,1*%
%TO.N,ROW4*%
X120854000Y-108956000D03*
%TD*%
%TO.P,Slash1,2*%
%TO.N,Net-(D68-Pad1)*%
X294837000Y-54235200D03*
%TO.P,Slash1,1*%
%TO.N,ROW1*%
X308687000Y-51695200D03*
%TD*%
%TO.P,LEFT-SHIFT1,2*%
%TO.N,Net-(D10-Pad1)*%
X44837500Y-92319000D03*
%TO.P,LEFT-SHIFT1,1*%
%TO.N,ROW3*%
X58687500Y-89779000D03*
%TD*%
%TO.P,Backspace1,2*%
%TO.N,Net-(Backspace1-Pad2)*%
X290011000Y-35140100D03*
%TO.P,Backspace1,1*%
%TO.N,ROW5*%
X303861000Y-32600100D03*
%TD*%
%TO.P,TAB1,2*%
%TO.N,Net-(D6-Pad1)*%
X37662000Y-54235200D03*
%TO.P,TAB1,1*%
%TO.N,ROW1*%
X51512000Y-51695200D03*
%TD*%
%TO.P,CAPS1,1*%
%TO.N,ROW2*%
X53894500Y-70729000D03*
%TO.P,CAPS1,2*%
%TO.N,Net-(CAPS1-Pad2)*%
X40044500Y-73269000D03*
%TD*%
%TO.P,SW57,2*%
%TO.N,Net-(D65-Pad1)*%
X237423000Y-73279000D03*
%TO.P,SW57,1*%
%TO.N,ROW4*%
X251273000Y-70739000D03*
%TD*%
%TO.P,SW1,2*%
%TO.N,Net-(D2-Pad1)*%
X389569000Y-53975000D03*
%TO.P,SW1,1*%
%TO.N,ROW3*%
X403419000Y-51435000D03*
%TD*%
%TO.P,SW3,2*%
%TO.N,Net-(D4-Pad1)*%
X228152000Y-92329000D03*
%TO.P,SW3,1*%
%TO.N,ROW5*%
X242002000Y-89789000D03*
%TD*%
%TO.P,SW5,2*%
%TO.N,Net-(D7-Pad1)*%
X51876000Y-35133900D03*
%TO.P,SW5,1*%
%TO.N,ROW0*%
X65726000Y-32593900D03*
%TD*%
%TO.P,SW6,2*%
%TO.N,Net-(D8-Pad1)*%
X61528000Y-54229000D03*
%TO.P,SW6,1*%
%TO.N,ROW1*%
X75378000Y-51689000D03*
%TD*%
%TO.P,SW7,2*%
%TO.N,Net-(D9-Pad1)*%
X66227000Y-73279000D03*
%TO.P,SW7,1*%
%TO.N,ROW2*%
X80077000Y-70739000D03*
%TD*%
%TO.P,SW9,2*%
%TO.N,Net-(D12-Pad1)*%
X332419000Y-92075000D03*
%TO.P,SW9,1*%
%TO.N,ROW5*%
X346269000Y-89535000D03*
%TD*%
%TO.P,SW10,2*%
%TO.N,Net-(D13-Pad1)*%
X85277000Y-73279000D03*
%TO.P,SW10,1*%
%TO.N,ROW2*%
X99127000Y-70739000D03*
%TD*%
%TO.P,SW11,2*%
%TO.N,Net-(D14-Pad1)*%
X75752000Y-92329000D03*
%TO.P,SW11,1*%
%TO.N,ROW3*%
X89602000Y-89789000D03*
%TD*%
%TO.P,SW12,2*%
%TO.N,Net-(D16-Pad1)*%
X389569000Y-73025000D03*
%TO.P,SW12,1*%
%TO.N,ROW5*%
X403419000Y-70485000D03*
%TD*%
%TO.P,SW13,2*%
%TO.N,Net-(D17-Pad1)*%
X70926000Y-35133900D03*
%TO.P,SW13,1*%
%TO.N,ROW0*%
X84776000Y-32593900D03*
%TD*%
%TO.P,SW14,2*%
%TO.N,Net-(D18-Pad1)*%
X80578000Y-54229000D03*
%TO.P,SW14,1*%
%TO.N,ROW1*%
X94428000Y-51689000D03*
%TD*%
%TO.P,SW15,2*%
%TO.N,Net-(D19-Pad1)*%
X89976000Y-35133900D03*
%TO.P,SW15,1*%
%TO.N,ROW0*%
X103826000Y-32593900D03*
%TD*%
%TO.P,SW16,2*%
%TO.N,Net-(D20-Pad1)*%
X99628000Y-54229000D03*
%TO.P,SW16,1*%
%TO.N,ROW1*%
X113478000Y-51689000D03*
%TD*%
%TO.P,SW17,2*%
%TO.N,Net-(D21-Pad1)*%
X104327000Y-73279000D03*
%TO.P,SW17,1*%
%TO.N,ROW2*%
X118177000Y-70739000D03*
%TD*%
%TO.P,SW18,2*%
%TO.N,Net-(D22-Pad1)*%
X94802000Y-92329000D03*
%TO.P,SW18,1*%
%TO.N,ROW3*%
X108652000Y-89789000D03*
%TD*%
%TO.P,SW20,2*%
%TO.N,Net-(D24-Pad1)*%
X232978000Y-54229000D03*
%TO.P,SW20,1*%
%TO.N,ROW5*%
X246828000Y-51689000D03*
%TD*%
%TO.P,SW21,2*%
%TO.N,Net-(D25-Pad1)*%
X123377000Y-73279000D03*
%TO.P,SW21,1*%
%TO.N,ROW2*%
X137227000Y-70739000D03*
%TD*%
%TO.P,SW22,2*%
%TO.N,Net-(D26-Pad1)*%
X113852000Y-92329000D03*
%TO.P,SW22,1*%
%TO.N,ROW3*%
X127702000Y-89789000D03*
%TD*%
%TO.P,SW23,2*%
%TO.N,Net-(D28-Pad1)*%
X252028000Y-54229000D03*
%TO.P,SW23,1*%
%TO.N,ROW5*%
X265878000Y-51689000D03*
%TD*%
%TO.P,SW24,2*%
%TO.N,Net-(D29-Pad1)*%
X109026000Y-35133900D03*
%TO.P,SW24,1*%
%TO.N,ROW0*%
X122876000Y-32593900D03*
%TD*%
%TO.P,SW25,2*%
%TO.N,Net-(D30-Pad1)*%
X118678000Y-54229000D03*
%TO.P,SW25,1*%
%TO.N,ROW1*%
X132528000Y-51689000D03*
%TD*%
%TO.P,SW26,2*%
%TO.N,Net-(D31-Pad1)*%
X128076000Y-35133900D03*
%TO.P,SW26,1*%
%TO.N,ROW0*%
X141926000Y-32593900D03*
%TD*%
%TO.P,SW27,2*%
%TO.N,Net-(D32-Pad1)*%
X137728000Y-54229000D03*
%TO.P,SW27,1*%
%TO.N,ROW1*%
X151578000Y-51689000D03*
%TD*%
%TO.P,SW28,2*%
%TO.N,Net-(D33-Pad1)*%
X142173000Y-73279000D03*
%TO.P,SW28,1*%
%TO.N,ROW2*%
X156023000Y-70739000D03*
%TD*%
%TO.P,SW29,2*%
%TO.N,Net-(D34-Pad1)*%
X132902000Y-92329000D03*
%TO.P,SW29,1*%
%TO.N,ROW3*%
X146752000Y-89789000D03*
%TD*%
%TO.P,SW30,2*%
%TO.N,Net-(D35-Pad1)*%
X171383000Y-111506000D03*
%TO.P,SW30,1*%
%TO.N,ROW4*%
X185233000Y-108966000D03*
%TD*%
%TO.P,SW31,2*%
%TO.N,Net-(D37-Pad1)*%
X161223000Y-73279000D03*
%TO.P,SW31,1*%
%TO.N,ROW2*%
X175073000Y-70739000D03*
%TD*%
%TO.P,SW32,2*%
%TO.N,Net-(D38-Pad1)*%
X151952000Y-92329000D03*
%TO.P,SW32,1*%
%TO.N,ROW3*%
X165802000Y-89789000D03*
%TD*%
%TO.P,SW33,2*%
%TO.N,Net-(D39-Pad1)*%
X190433000Y-111506000D03*
%TO.P,SW33,1*%
%TO.N,ROW4*%
X204283000Y-108966000D03*
%TD*%
%TO.P,SW34,2*%
%TO.N,Net-(D40-Pad1)*%
X247202000Y-92329000D03*
%TO.P,SW34,1*%
%TO.N,ROW5*%
X261052000Y-89789000D03*
%TD*%
%TO.P,SW35,2*%
%TO.N,Net-(D41-Pad1)*%
X147126000Y-35133900D03*
%TO.P,SW35,1*%
%TO.N,ROW0*%
X160976000Y-32593900D03*
%TD*%
%TO.P,SW36,2*%
%TO.N,Net-(D42-Pad1)*%
X156778000Y-54229000D03*
%TO.P,SW36,1*%
%TO.N,ROW1*%
X170628000Y-51689000D03*
%TD*%
%TO.P,SW37,2*%
%TO.N,Net-(D43-Pad1)*%
X166176000Y-35133900D03*
%TO.P,SW37,1*%
%TO.N,ROW0*%
X180026000Y-32593900D03*
%TD*%
%TO.P,SW38,2*%
%TO.N,Net-(D44-Pad1)*%
X175828000Y-54229000D03*
%TO.P,SW38,1*%
%TO.N,ROW1*%
X189678000Y-51689000D03*
%TD*%
%TO.P,SW39,2*%
%TO.N,Net-(D45-Pad1)*%
X180273000Y-73279000D03*
%TO.P,SW39,1*%
%TO.N,ROW2*%
X194123000Y-70739000D03*
%TD*%
%TO.P,SW40,2*%
%TO.N,Net-(D46-Pad1)*%
X171002000Y-92329000D03*
%TO.P,SW40,1*%
%TO.N,ROW3*%
X184852000Y-89789000D03*
%TD*%
%TO.P,SW41,2*%
%TO.N,Net-(D48-Pad1)*%
X242376000Y-35133900D03*
%TO.P,SW41,1*%
%TO.N,ROW5*%
X256226000Y-32593900D03*
%TD*%
%TO.P,SW42,2*%
%TO.N,Net-(D49-Pad1)*%
X199323000Y-73279000D03*
%TO.P,SW42,1*%
%TO.N,ROW2*%
X213173000Y-70739000D03*
%TD*%
%TO.P,SW43,2*%
%TO.N,Net-(D50-Pad1)*%
X190052000Y-92329000D03*
%TO.P,SW43,1*%
%TO.N,ROW3*%
X203902000Y-89789000D03*
%TD*%
%TO.P,SW45,2*%
%TO.N,Net-(D52-Pad1)*%
X261426000Y-35133900D03*
%TO.P,SW45,1*%
%TO.N,ROW5*%
X275276000Y-32593900D03*
%TD*%
%TO.P,SW46,2*%
%TO.N,Net-(D53-Pad1)*%
X185226000Y-35133900D03*
%TO.P,SW46,1*%
%TO.N,ROW0*%
X199076000Y-32593900D03*
%TD*%
%TO.P,SW47,2*%
%TO.N,Net-(D54-Pad1)*%
X194878000Y-54229000D03*
%TO.P,SW47,1*%
%TO.N,ROW1*%
X208728000Y-51689000D03*
%TD*%
%TO.P,SW48,2*%
%TO.N,Net-(D55-Pad1)*%
X204276000Y-35133900D03*
%TO.P,SW48,1*%
%TO.N,ROW0*%
X218126000Y-32593900D03*
%TD*%
%TO.P,SW49,2*%
%TO.N,Net-(D56-Pad1)*%
X213928000Y-54229000D03*
%TO.P,SW49,1*%
%TO.N,ROW1*%
X227778000Y-51689000D03*
%TD*%
%TO.P,SW50,2*%
%TO.N,Net-(D57-Pad1)*%
X218373000Y-73279000D03*
%TO.P,SW50,1*%
%TO.N,ROW2*%
X232223000Y-70739000D03*
%TD*%
%TO.P,SW51,2*%
%TO.N,Net-(D58-Pad1)*%
X209102000Y-92329000D03*
%TO.P,SW51,1*%
%TO.N,ROW3*%
X222952000Y-89789000D03*
%TD*%
%TO.P,SW53,2*%
%TO.N,Net-(D61-Pad1)*%
X223326000Y-35133900D03*
%TO.P,SW53,1*%
%TO.N,ROW0*%
X237176000Y-32593900D03*
%TD*%
%TO.P,SW54,2*%
%TO.N,Net-(D62-Pad1)*%
X351469000Y-73025000D03*
%TO.P,SW54,1*%
%TO.N,ROW1*%
X365319000Y-70485000D03*
%TD*%
%TO.P,SW55,2*%
%TO.N,Net-(D63-Pad1)*%
X271078000Y-54229000D03*
%TO.P,SW55,1*%
%TO.N,ROW2*%
X284928000Y-51689000D03*
%TD*%
%TO.P,SW56,2*%
%TO.N,Net-(D64-Pad1)*%
X370519000Y-73025000D03*
%TO.P,SW56,1*%
%TO.N,ROW3*%
X384369000Y-70485000D03*
%TD*%
%TO.P,SW58,2*%
%TO.N,Net-(D66-Pad1)*%
X256473000Y-73279000D03*
%TO.P,SW58,1*%
%TO.N,ROW5*%
X270323000Y-70739000D03*
%TD*%
%TO.P,SW62,2*%
%TO.N,Net-(D71-Pad1)*%
X351469000Y-53975000D03*
%TO.P,SW62,1*%
%TO.N,ROW4*%
X365319000Y-51435000D03*
%TD*%
%TO.P,SW63,2*%
%TO.N,Net-(D72-Pad1)*%
X332419000Y-53975000D03*
%TO.P,SW63,1*%
%TO.N,ROW5*%
X346269000Y-51435000D03*
%TD*%
%TO.P,SW60,2*%
%TO.N,Net-(D69-Pad1)*%
X332419000Y-73025000D03*
%TO.P,SW60,1*%
%TO.N,ROW2*%
X346269000Y-70485000D03*
%TD*%
%TO.P,LEFT-SPACE1,2*%
%TO.N,Net-(D27-Pad1)*%
X140405000Y-111496000D03*
%TO.P,LEFT-SPACE1,1*%
%TO.N,ROW4*%
X154255000Y-108956000D03*
%TD*%
%TO.P,RIGHT-SPACE1,2*%
%TO.N,Net-(D47-Pad1)*%
X221431000Y-111496000D03*
%TO.P,RIGHT-SPACE1,1*%
%TO.N,ROW4*%
X235281000Y-108956000D03*
%TD*%
%TO.P,SW64,2*%
%TO.N,Net-(D74-Pad1)*%
X351469000Y-92075000D03*
%TO.P,SW64,1*%
%TO.N,ROW1*%
X365319000Y-89535000D03*
%TD*%
%TO.P,SW65,2*%
%TO.N,Net-(D75-Pad1)*%
X332419000Y-34925000D03*
%TO.P,SW65,1*%
%TO.N,ROW2*%
X346269000Y-32385000D03*
%TD*%
%TO.P,SW66,2*%
%TO.N,Net-(D76-Pad1)*%
X389569000Y-111125000D03*
%TO.P,SW66,1*%
%TO.N,ROW3*%
X403419000Y-108585000D03*
%TD*%
%TO.P,SW67,2*%
%TO.N,Net-(D77-Pad1)*%
X370519000Y-53975000D03*
%TO.P,SW67,1*%
%TO.N,ROW4*%
X384369000Y-51435000D03*
%TD*%
%TO.P,SW68,2*%
%TO.N,Net-(D78-Pad1)*%
X370519000Y-92075000D03*
%TO.P,SW68,1*%
%TO.N,ROW5*%
X384369000Y-89535000D03*
%TD*%
%TO.P,SW69,2*%
%TO.N,Net-(D80-Pad1)*%
X389569000Y-34925000D03*
%TO.P,SW69,1*%
%TO.N,ROW1*%
X403419000Y-32385000D03*
%TD*%
%TO.P,SW70,2*%
%TO.N,Net-(D81-Pad1)*%
X370519000Y-34925000D03*
%TO.P,SW70,1*%
%TO.N,ROW2*%
X384369000Y-32385000D03*
%TD*%
%TO.P,SW71,2*%
%TO.N,Net-(D82-Pad1)*%
X370519000Y-111125000D03*
%TO.P,SW71,1*%
%TO.N,ROW3*%
X384369000Y-108585000D03*
%TD*%
%TO.P,SW72,2*%
%TO.N,Net-(D83-Pad1)*%
X351469000Y-111125000D03*
%TO.P,SW72,1*%
%TO.N,ROW4*%
X365319000Y-108585000D03*
%TD*%
%TO.P,SW73,2*%
%TO.N,Net-(D84-Pad1)*%
X332419000Y-111125000D03*
%TO.P,SW73,1*%
%TO.N,ROW5*%
X346269000Y-108585000D03*
%TD*%
%TO.P,S2,2*%
%TO.N,Net-(D79-Pad1)*%
X389569000Y-92075000D03*
%TO.P,S2,1*%
%TO.N,ROW0*%
X403419000Y-89535000D03*
%TD*%
%TO.P,S1,2*%
%TO.N,Net-(D73-Pad1)*%
X351469000Y-34925000D03*
%TO.P,S1,1*%
%TO.N,ROW0*%
X365319000Y-32385000D03*
%TD*%
%TO.P,SW44,2*%
%TO.N,Net-(D51-Pad1)*%
X254705000Y-111496000D03*
%TO.P,SW44,1*%
%TO.N,ROW4*%
X268555000Y-108956000D03*
%TD*%
%TO.P,SW52,2*%
%TO.N,Net-(D59-Pad1)*%
X276285000Y-111506000D03*
%TO.P,SW52,1*%
%TO.N,ROW4*%
X290135000Y-108966000D03*
%TD*%
D11*
%TO.P,J1,14*%
%TO.N,LED_5V*%
X320385000Y-97129600D03*
%TO.P,J1,13*%
%TO.N,N/C*%
X319115000Y-97129600D03*
%TO.P,J1,12*%
X320385000Y-95859600D03*
%TO.P,J1,11*%
X319115000Y-95859600D03*
%TO.P,J1,10*%
X320385000Y-94589600D03*
%TO.P,J1,9*%
X319115000Y-94589600D03*
%TO.P,J1,8*%
X320385000Y-93319600D03*
%TO.P,J1,7*%
X319115000Y-93319600D03*
%TO.P,J1,6*%
X320385000Y-92049600D03*
%TO.P,J1,5*%
X319115000Y-92049600D03*
%TO.P,J1,4*%
%TO.N,/RGB/INPUT*%
X320385000Y-90779600D03*
%TO.P,J1,3*%
%TO.N,LED_DATA*%
X319115000Y-90779600D03*
%TO.P,J1,2*%
%TO.N,LED_GND*%
X320385000Y-89509600D03*
D12*
%TO.P,J1,1*%
%TO.N,TEENSY_GND*%
X319115000Y-89509600D03*
%TD*%
D13*
%TO.N,Net-(D2-Pad1)*%
X389558200Y-48484400D03*
%TO.N,Net-(D3-Pad1)*%
X119133200Y-47076300D03*
%TO.N,Net-(D4-Pad1)*%
X228325300Y-101638600D03*
%TO.N,Net-(D5-Pad1)*%
X105236000Y-46859400D03*
%TO.N,Net-(D6-Pad1)*%
X227999500Y-45688600D03*
%TO.N,Net-(D7-Pad1)*%
X134849200Y-85264200D03*
%TO.N,Net-(D8-Pad1)*%
X124400900Y-50626800D03*
%TO.N,Net-(D9-Pad1)*%
X76986400Y-60284300D03*
%TO.N,Net-(D10-Pad1)*%
X64011900Y-49120800D03*
%TO.N,Net-(D11-Pad1)*%
X126583100Y-50192000D03*
%TO.N,Net-(D12-Pad1)*%
X347236400Y-46297700D03*
%TO.N,Net-(D13-Pad1)*%
X175037100Y-48183300D03*
X172935500Y-50182200D03*
X75604500Y-61040500D03*
%TO.N,Net-(D14-Pad1)*%
X73777700Y-62855900D03*
%TO.N,Net-(D15-Pad1)*%
X146226500Y-47273200D03*
%TO.N,Net-(D16-Pad1)*%
X388204400Y-45488000D03*
%TO.N,Net-(D17-Pad1)*%
X92368600Y-45508500D03*
%TO.N,Net-(D18-Pad1)*%
X242048300Y-103053800D03*
X237638700Y-98009300D03*
X130900400Y-84397400D03*
%TO.N,Net-(D19-Pad1)*%
X160250800Y-46230200D03*
%TO.N,Net-(D20-Pad1)*%
X197639800Y-49141200D03*
X183380600Y-60065400D03*
X103655200Y-60277600D03*
%TO.N,Net-(D21-Pad1)*%
X199058500Y-49139600D03*
X186861400Y-65472400D03*
X107354400Y-69587800D03*
%TO.N,Net-(D22-Pad1)*%
X245142200Y-47660700D03*
X227461100Y-84799500D03*
X98386700Y-88702300D03*
%TO.N,Net-(D23-Pad1)*%
X243282000Y-105902700D03*
%TO.N,Net-(D24-Pad1)*%
X214560100Y-48712300D03*
%TO.N,Net-(D25-Pad1)*%
X106684300Y-53110500D03*
%TO.N,Net-(D26-Pad1)*%
X187978400Y-103157900D03*
X185161000Y-98304900D03*
X123820300Y-93603800D03*
%TO.N,Net-(D27-Pad1)*%
X192991200Y-50340000D03*
%TO.N,Net-(D28-Pad1)*%
X90241700Y-45750300D03*
X98220200Y-41380800D03*
X253088400Y-42636200D03*
%TO.N,Net-(D29-Pad1)*%
X115530200Y-44942200D03*
%TO.N,Net-(D30-Pad1)*%
X132386900Y-84818500D03*
%TO.N,Net-(D31-Pad1)*%
X153942700Y-46003300D03*
%TO.N,Net-(D32-Pad1)*%
X80087500Y-46388200D03*
%TO.N,Net-(D33-Pad1)*%
X73388000Y-47417800D03*
X139046100Y-66420400D03*
X142351200Y-67559300D03*
%TO.N,Net-(D34-Pad1)*%
X230006100Y-48191400D03*
X185947100Y-48894600D03*
X147393800Y-59993800D03*
%TO.N,Net-(D35-Pad1)*%
X143766200Y-106639800D03*
%TO.N,Net-(D36-Pad1)*%
X261854800Y-100643700D03*
%TO.N,Net-(D37-Pad1)*%
X148007100Y-49099900D03*
X153864700Y-65922700D03*
X157920200Y-69752900D03*
%TO.N,Net-(D38-Pad1)*%
X134331200Y-105390800D03*
%TO.N,Net-(D39-Pad1)*%
X185749200Y-106497100D03*
%TO.N,Net-(D40-Pad1)*%
X246583100Y-53548700D03*
%TO.N,Net-(D41-Pad1)*%
X126532900Y-104253900D03*
%TO.N,Net-(D42-Pad1)*%
X149685700Y-50570600D03*
%TO.N,Net-(D43-Pad1)*%
X161159900Y-40150000D03*
%TO.N,Net-(D44-Pad1)*%
X130275900Y-108521900D03*
%TO.N,Net-(D45-Pad1)*%
X131532600Y-108946300D03*
%TO.N,Net-(D46-Pad1)*%
X251340100Y-47854200D03*
X249088600Y-65660700D03*
X217607800Y-69618200D03*
%TO.N,Net-(D47-Pad1)*%
X207984600Y-105891500D03*
%TO.N,Net-(D48-Pad1)*%
X195943500Y-104231000D03*
%TO.N,Net-(D49-Pad1)*%
X213165600Y-56084700D03*
%TO.N,Net-(D50-Pad1)*%
X147010300Y-107436400D03*
%TO.N,Net-(D51-Pad1)*%
X214061600Y-107229700D03*
%TO.N,Net-(D52-Pad1)*%
X175408500Y-106229000D03*
%TO.N,Net-(D53-Pad1)*%
X146988100Y-104394000D03*
X147677900Y-96118800D03*
X139585900Y-89674700D03*
%TO.N,Net-(D54-Pad1)*%
X195208900Y-49808800D03*
%TO.N,Net-(D55-Pad1)*%
X170934800Y-47436300D03*
%TO.N,Net-(D56-Pad1)*%
X158870200Y-103096100D03*
%TO.N,Net-(D57-Pad1)*%
X106053400Y-103918700D03*
X133188700Y-87127800D03*
X197623200Y-85688800D03*
%TO.N,Net-(D58-Pad1)*%
X112681400Y-104288200D03*
X125662700Y-96912600D03*
X203091100Y-97204900D03*
%TO.N,Net-(D59-Pad1)*%
X327497000Y-51633200D03*
X321766000Y-67761200D03*
X302899800Y-77798600D03*
%TO.N,Net-(D61-Pad1)*%
X224124100Y-101964100D03*
%TO.N,Net-(D62-Pad1)*%
X380318200Y-47309300D03*
%TO.N,Net-(D63-Pad1)*%
X170602900Y-102858700D03*
X218634700Y-69651700D03*
X269377900Y-66446700D03*
%TO.N,Net-(D64-Pad1)*%
X366887600Y-47668000D03*
%TO.N,Net-(D65-Pad1)*%
X140541600Y-109111400D03*
%TO.N,Net-(D66-Pad1)*%
X326012000Y-52161200D03*
X321940000Y-61210700D03*
X256763200Y-71413500D03*
%TO.N,Net-(D67-Pad1)*%
X152967300Y-103124200D03*
X180087200Y-78920800D03*
X281999000Y-75588500D03*
%TO.N,Net-(D68-Pad1)*%
X338246500Y-46206600D03*
%TO.N,Net-(D69-Pad1)*%
X386546300Y-103218500D03*
%TO.N,Net-(D70-Pad1)*%
X182630400Y-104026200D03*
X190032900Y-104231000D03*
X295861500Y-111367900D03*
%TO.N,Net-(D71-Pad1)*%
X363175100Y-49707300D03*
%TO.N,Net-(D72-Pad1)*%
X341972900Y-47735200D03*
%TO.N,Net-(Backspace1-Pad2)*%
X375419600Y-46926500D03*
X350957500Y-37373300D03*
X311513400Y-36030900D03*
%TO.N,Net-(D73-Pad1)*%
X347919900Y-105775000D03*
%TO.N,Net-(D74-Pad1)*%
X343399500Y-104651600D03*
%TO.N,Net-(CAPS1-Pad2)*%
X41230700Y-51771600D03*
%TO.N,Net-(D75-Pad1)*%
X338408500Y-102661900D03*
%TO.N,Net-(D76-Pad1)*%
X385162600Y-106461500D03*
%TO.N,Net-(D77-Pad1)*%
X363162300Y-102194300D03*
%TO.N,Net-(D78-Pad1)*%
X363414000Y-103648800D03*
%TO.N,Net-(D79-Pad1)*%
X368449600Y-104441500D03*
%TO.N,Net-(D80-Pad1)*%
X372992300Y-102238300D03*
%TO.N,Net-(D81-Pad1)*%
X374254700Y-102705700D03*
%TO.N,Net-(D82-Pad1)*%
X377327200Y-103952600D03*
%TO.N,Net-(D83-Pad1)*%
X358870500Y-103135300D03*
%TO.N,Net-(D84-Pad1)*%
X335771800Y-46931900D03*
%TO.N,LED_GND*%
X218711200Y-99966100D03*
X220222300Y-98455000D03*
X269810800Y-60886900D03*
X271241600Y-43322000D03*
%TO.N,LED_5V*%
X321672100Y-110900800D03*
X328139400Y-116283300D03*
X281356900Y-81728400D03*
X329922600Y-120241700D03*
X281966300Y-44528700D03*
X281955100Y-63322400D03*
X119206100Y-101070000D03*
X119187000Y-98413400D03*
%TO.N,TEENSY_GND*%
X320872000Y-42131500D03*
X325212100Y-106478400D03*
X322790300Y-47567400D03*
X321340400Y-70652100D03*
X320337900Y-119513600D03*
%TO.N,ROW5*%
X335519400Y-39375400D03*
X310575700Y-35538800D03*
%TO.N,ROW2*%
X328229800Y-36352600D03*
X233150800Y-68030300D03*
X281984700Y-66107500D03*
X138118200Y-68770800D03*
X155805700Y-68770800D03*
%TO.N,COL0*%
X123551800Y-51192500D03*
X136852300Y-64556100D03*
X262116400Y-64935300D03*
X249576600Y-103538800D03*
X265019000Y-47671100D03*
%TO.N,COL1*%
X227541600Y-105147600D03*
X243859600Y-60333700D03*
X70551700Y-48265400D03*
X130121600Y-47576900D03*
X153316900Y-48843400D03*
X185425900Y-46245800D03*
X321926600Y-53032600D03*
X327919200Y-48326600D03*
%TO.N,COL2*%
X253624600Y-103178400D03*
X253996900Y-60828500D03*
%TO.N,COL3*%
X216272700Y-41053900D03*
X178815000Y-45729100D03*
X253115300Y-41580500D03*
X315399500Y-39804800D03*
X327369900Y-45631000D03*
X248733400Y-104110500D03*
X251135900Y-46840100D03*
X202849000Y-46119900D03*
%TO.N,COL4*%
X263061000Y-100235700D03*
X273940100Y-47769600D03*
X278044700Y-53456100D03*
%TO.N,COL5*%
X233579200Y-48636800D03*
X174591200Y-47209300D03*
X228981500Y-102397200D03*
X111156700Y-44953800D03*
X156909100Y-46544700D03*
X243894500Y-54775100D03*
X155262000Y-105382700D03*
%TO.N,COL6*%
X134079100Y-103812800D03*
X167607000Y-57962900D03*
X174326000Y-50290100D03*
X175786100Y-48886500D03*
X234304600Y-49607800D03*
%TO.N,COL7*%
X205885300Y-102859400D03*
X246098900Y-48439500D03*
X64181000Y-59921000D03*
X77712700Y-102454700D03*
%TO.N,COL8*%
X215512400Y-52091300D03*
X177168600Y-86395000D03*
X151061500Y-103510700D03*
%TO.N,COL9*%
X371198600Y-46697000D03*
X352855700Y-40316300D03*
X128251800Y-103188600D03*
X176836800Y-40654700D03*
X171739600Y-45751900D03*
%TO.N,COL10*%
X222964300Y-101951300D03*
X231272600Y-77285900D03*
X321987600Y-62621900D03*
X330444000Y-48686200D03*
X330116800Y-42730200D03*
%TO.N,COL11*%
X162114800Y-103579200D03*
X333311900Y-43231000D03*
X189629700Y-80007900D03*
X324792900Y-69332400D03*
X398915500Y-98633300D03*
X394848300Y-104204000D03*
X335380700Y-45486700D03*
X181139400Y-102192100D03*
%TO.N,COL12*%
X330442100Y-103278600D03*
X326891400Y-42296800D03*
%TO.N,COL13*%
X323019800Y-45127200D03*
X328126800Y-106543700D03*
X330543600Y-46480900D03*
%TO.N,ROW0*%
X312127700Y-44742600D03*
X314683400Y-45783800D03*
%TO.N,ROW3*%
X128062600Y-87853100D03*
X166125700Y-87614800D03*
X183950800Y-87614800D03*
X324300700Y-38893700D03*
X224020200Y-93866900D03*
X304591300Y-97262600D03*
%TO.N,ROW4*%
X303013500Y-120808200D03*
X356100400Y-119352400D03*
X350133700Y-39912300D03*
%TO.N,ROW1*%
X293677900Y-56092000D03*
X233218200Y-58270800D03*
X305615400Y-47059400D03*
X404532700Y-62233800D03*
X329087800Y-63598800D03*
X331237500Y-39801900D03*
X365649400Y-67853900D03*
X151289600Y-49825300D03*
X132566500Y-49825300D03*
%TO.N,VCC*%
X320850300Y-79399000D03*
X320744900Y-44149800D03*
X321460100Y-47128400D03*
X317547900Y-101513500D03*
%TO.N,LED_DATA*%
X317769700Y-38337200D03*
X316636200Y-83375800D03*
%TO.N,Net-(R1-Pad2)*%
X319976600Y-47462100D03*
X324691100Y-120096100D03*
X324691000Y-109094400D03*
%TO.N,Net-(R4-Pad2)*%
X325222000Y-67727100D03*
X330130200Y-39231000D03*
%TO.N,Net-(C90-Pad1)*%
X315219300Y-50438400D03*
X312235600Y-92818700D03*
X314399700Y-57021200D03*
%TO.N,Net-(C91-Pad1)*%
X310336800Y-64920800D03*
X314218900Y-50319000D03*
X322529100Y-93607400D03*
X322334900Y-68607100D03*
%TO.N,Net-(C92-Pad2)*%
X319508100Y-82566400D03*
X319514500Y-43482500D03*
%TO.N,Net-(R2-Pad1)*%
X316015300Y-72211300D03*
X315973100Y-41709300D03*
%TO.N,Net-(R3-Pad1)*%
X314211400Y-77105400D03*
X315587100Y-42709700D03*
%TO.N,Net-(D168-Pad2)*%
X336193200Y-60967200D03*
X300475600Y-61909500D03*
%TO.N,Net-(D94-Pad2)*%
X295079000Y-43801200D03*
X398070000Y-120586100D03*
%TO.N,Net-(D105-Pad2)*%
X218179700Y-63497700D03*
X223383700Y-62842000D03*
%TO.N,Net-(D113-Pad2)*%
X162463000Y-63339700D03*
X185280800Y-62868000D03*
%TO.N,Net-(D114-Pad2)*%
X328742200Y-80434000D03*
X325075300Y-73316900D03*
%TO.N,Net-(D121-Pad2)*%
X143420200Y-63296100D03*
X147153400Y-62868000D03*
%TO.N,Net-(D129-Pad2)*%
X86254900Y-61888400D03*
X109058000Y-62831000D03*
%TO.N,Net-(D130-Pad2)*%
X396530700Y-98524200D03*
X398669100Y-91602800D03*
%TO.N,Net-(D136-Pad2)*%
X331367100Y-41928900D03*
X314611500Y-43803500D03*
%TO.N,Net-(D141-Pad2)*%
X46583000Y-79886700D03*
X46061400Y-63892200D03*
%TO.N,Net-(D142-Pad2)*%
X355810400Y-98808700D03*
X360929300Y-100584000D03*
%TO.N,Net-(D146-Pad2)*%
X322517300Y-100644000D03*
X328115100Y-101207700D03*
%TO.N,Net-(D150-Pad2)*%
X256584800Y-101863100D03*
X292424900Y-100965000D03*
%TO.N,Net-(D152-Pad2)*%
X394330500Y-61384000D03*
X398069000Y-44950600D03*
%TO.N,Net-(D154-Pad2)*%
X233898300Y-99977300D03*
X238473300Y-99922400D03*
%TO.N,Net-(D160-Pad2)*%
X375557500Y-62925400D03*
X379976400Y-62427100D03*
%TO.N,Net-(D162-Pad2)*%
X195782600Y-100117300D03*
X218565800Y-101010200D03*
%TO.N,Net-(C92-Pad1)*%
X321289800Y-34817300D03*
X317816000Y-82030100D03*
%TO.N,Net-(J2-Pad3)*%
X322270700Y-33772600D03*
X318717800Y-73867000D03*
%TO.N,Net-(J2-Pad2)*%
X322290200Y-34772900D03*
X318174100Y-75058500D03*
%TD*%
D14*
%TO.N,Net-(D2-Pad1)*%
X389569000Y-53975000D02*
X389569000Y-52399700D01*
X389569000Y-52399700D02*
X389558200Y-52388900D01*
X389558200Y-52388900D02*
X389558200Y-48484400D01*
%TO.N,Net-(D3-Pad1)*%
X35376000Y-111496000D02*
X35376000Y-81001900D01*
X35376000Y-81001900D02*
X41647700Y-74730200D01*
X41647700Y-74730200D02*
X41647700Y-66010300D01*
X41647700Y-66010300D02*
X47541300Y-60116700D01*
X47541300Y-60116700D02*
X47541300Y-54787600D01*
X47541300Y-54787600D02*
X45904400Y-53150700D01*
X45904400Y-53150700D02*
X45904400Y-47765300D01*
X45904400Y-47765300D02*
X49184700Y-44485000D01*
X49184700Y-44485000D02*
X49184700Y-34834000D01*
X49184700Y-34834000D02*
X50710100Y-33308600D01*
X50710100Y-33308600D02*
X58552700Y-33308600D01*
X58552700Y-33308600D02*
X61306400Y-36062300D01*
X61306400Y-36062300D02*
X64568400Y-36062300D01*
X64568400Y-36062300D02*
X76090900Y-47584800D01*
X76090900Y-47584800D02*
X118624700Y-47584800D01*
X118624700Y-47584800D02*
X119133200Y-47076300D01*
%TO.N,Net-(D4-Pad1)*%
X228152000Y-92329000D02*
X228152000Y-101465300D01*
X228152000Y-101465300D02*
X228325300Y-101638600D01*
%TO.N,Net-(D5-Pad1)*%
X105236000Y-46859400D02*
X104960900Y-47134500D01*
X104960900Y-47134500D02*
X76914400Y-47134500D01*
X76914400Y-47134500D02*
X65391900Y-35612000D01*
X65391900Y-35612000D02*
X61493000Y-35612000D01*
X61493000Y-35612000D02*
X58739300Y-32858300D01*
X58739300Y-32858300D02*
X50456100Y-32858300D01*
X50456100Y-32858300D02*
X48428300Y-34886100D01*
X48428300Y-34886100D02*
X41312800Y-34886100D01*
X41312800Y-34886100D02*
X39709600Y-33282900D01*
X39709600Y-33282900D02*
X33022000Y-33282900D01*
X33022000Y-33282900D02*
X32746300Y-33558600D01*
X32746300Y-35133900D02*
X32746300Y-33558600D01*
%TO.N,Net-(D6-Pad1)*%
X227999500Y-45688600D02*
X223160000Y-45688600D01*
X223160000Y-45688600D02*
X210765400Y-33294000D01*
X210765400Y-33294000D02*
X201940500Y-33294000D01*
X201940500Y-33294000D02*
X200775900Y-34458600D01*
X200775900Y-34458600D02*
X193282500Y-34458600D01*
X193282500Y-34458600D02*
X191663600Y-32839700D01*
X191663600Y-32839700D02*
X182786700Y-32839700D01*
X182786700Y-32839700D02*
X181176200Y-34450200D01*
X181176200Y-34450200D02*
X173792400Y-34450200D01*
X173792400Y-34450200D02*
X172641400Y-33299200D01*
X172641400Y-33299200D02*
X164201100Y-33299200D01*
X164201100Y-33299200D02*
X163027600Y-34472700D01*
X163027600Y-34472700D02*
X154764900Y-34472700D01*
X154764900Y-34472700D02*
X153389800Y-33097600D01*
X153389800Y-33097600D02*
X144440800Y-33097600D01*
X144440800Y-33097600D02*
X143119200Y-34419200D01*
X143119200Y-34419200D02*
X137419900Y-34419200D01*
X137419900Y-34419200D02*
X135849800Y-32849100D01*
X135849800Y-32849100D02*
X125673000Y-32849100D01*
X125673000Y-32849100D02*
X124100000Y-34422100D01*
X124100000Y-34422100D02*
X117727700Y-34422100D01*
X117727700Y-34422100D02*
X116162800Y-32857200D01*
X116162800Y-32857200D02*
X106618900Y-32857200D01*
X106618900Y-32857200D02*
X105054300Y-34421800D01*
X105054300Y-34421800D02*
X98677400Y-34421800D01*
X98677400Y-34421800D02*
X97104000Y-32848400D01*
X97104000Y-32848400D02*
X88146900Y-32848400D01*
X88146900Y-32848400D02*
X86522600Y-34472700D01*
X86522600Y-34472700D02*
X78564900Y-34472700D01*
X78564900Y-34472700D02*
X77348800Y-33256600D01*
X77348800Y-33256600D02*
X68993700Y-33256600D01*
X68993700Y-33256600D02*
X67805000Y-34445300D01*
X67805000Y-34445300D02*
X60963200Y-34445300D01*
X60963200Y-34445300D02*
X58884800Y-32366900D01*
X58884800Y-32366900D02*
X49849400Y-32366900D01*
X49849400Y-32366900D02*
X47780600Y-34435700D01*
X47780600Y-34435700D02*
X41616100Y-34435700D01*
X41616100Y-34435700D02*
X40012900Y-32832500D01*
X40012900Y-32832500D02*
X31949400Y-32832500D01*
X31949400Y-32832500D02*
X31145900Y-33636000D01*
X31145900Y-33636000D02*
X31145900Y-46143800D01*
X31145900Y-46143800D02*
X37662000Y-52659900D01*
X37662000Y-54235200D02*
X37662000Y-52659900D01*
%TO.N,Net-(D7-Pad1)*%
X134849200Y-85264200D02*
X138864100Y-81249300D01*
X138864100Y-81249300D02*
X138864100Y-67278800D01*
X138864100Y-67278800D02*
X137627700Y-66042400D01*
X137627700Y-66042400D02*
X137627700Y-64076400D01*
X137627700Y-64076400D02*
X134128400Y-60577100D01*
X134128400Y-60577100D02*
X134128400Y-50289700D01*
X134128400Y-50289700D02*
X132839200Y-49000500D01*
X132839200Y-49000500D02*
X69149800Y-49000500D01*
X69149800Y-49000500D02*
X64488800Y-44339500D01*
X64488800Y-44339500D02*
X59323500Y-44339500D01*
X59323500Y-44339500D02*
X51876000Y-36892000D01*
X51876000Y-36892000D02*
X51876000Y-35133900D01*
%TO.N,Net-(D8-Pad1)*%
X61528000Y-52653700D02*
X61812400Y-52369300D01*
X61812400Y-52369300D02*
X67800100Y-52369300D01*
X67800100Y-52369300D02*
X69397800Y-53967000D01*
X69397800Y-53967000D02*
X77357500Y-53967000D01*
X77357500Y-53967000D02*
X78940300Y-52384200D01*
X78940300Y-52384200D02*
X86169400Y-52384200D01*
X86169400Y-52384200D02*
X87752200Y-53967000D01*
X87752200Y-53967000D02*
X96717200Y-53967000D01*
X96717200Y-53967000D02*
X98329300Y-52354900D01*
X98329300Y-52354900D02*
X106961200Y-52354900D01*
X106961200Y-52354900D02*
X108572400Y-53966100D01*
X108572400Y-53966100D02*
X115735800Y-53966100D01*
X115735800Y-53966100D02*
X119263800Y-50438100D01*
X119263800Y-50438100D02*
X124212200Y-50438100D01*
X124212200Y-50438100D02*
X124400900Y-50626800D01*
X61528000Y-54229000D02*
X61528000Y-52653700D01*
%TO.N,Net-(D9-Pad1)*%
X76986400Y-60284300D02*
X75323600Y-60284300D01*
X75323600Y-60284300D02*
X66227000Y-69380900D01*
X66227000Y-69380900D02*
X66227000Y-71703700D01*
X66227000Y-73279000D02*
X66227000Y-71703700D01*
%TO.N,Net-(D10-Pad1)*%
X44837500Y-90743700D02*
X50793600Y-84787600D01*
X50793600Y-84787600D02*
X50793600Y-73280100D01*
X50793600Y-73280100D02*
X51969900Y-72103800D01*
X51969900Y-72103800D02*
X51969900Y-60796400D01*
X51969900Y-60796400D02*
X63645500Y-49120800D01*
X63645500Y-49120800D02*
X64011900Y-49120800D01*
X44837500Y-92319000D02*
X44837500Y-90743700D01*
%TO.N,Net-(D11-Pad1)*%
X59252000Y-111496000D02*
X48703500Y-111496000D01*
X48703500Y-111496000D02*
X47622800Y-110415300D01*
X47622800Y-110415300D02*
X47622800Y-105190400D01*
X47622800Y-105190400D02*
X43237100Y-100804700D01*
X43237100Y-100804700D02*
X43237100Y-85697800D01*
X43237100Y-85697800D02*
X49956900Y-78978000D01*
X49956900Y-78978000D02*
X49956900Y-73736500D01*
X49956900Y-73736500D02*
X48268900Y-72048500D01*
X48268900Y-72048500D02*
X48268900Y-63805700D01*
X48268900Y-63805700D02*
X63686200Y-48388400D01*
X63686200Y-48388400D02*
X65194200Y-48388400D01*
X65194200Y-48388400D02*
X70322400Y-53516600D01*
X70322400Y-53516600D02*
X76554100Y-53516600D01*
X76554100Y-53516600D02*
X78136900Y-51933800D01*
X78136900Y-51933800D02*
X87123300Y-51933800D01*
X87123300Y-51933800D02*
X88706100Y-53516600D01*
X88706100Y-53516600D02*
X95586100Y-53516600D01*
X95586100Y-53516600D02*
X97238100Y-51864600D01*
X97238100Y-51864600D02*
X107107800Y-51864600D01*
X107107800Y-51864600D02*
X108757700Y-53514500D01*
X108757700Y-53514500D02*
X114687400Y-53514500D01*
X114687400Y-53514500D02*
X118300500Y-49901400D01*
X118300500Y-49901400D02*
X126292500Y-49901400D01*
X126292500Y-49901400D02*
X126583100Y-50192000D01*
%TO.N,Net-(D12-Pad1)*%
X332419000Y-92075000D02*
X332419000Y-76089400D01*
X332419000Y-76089400D02*
X334022200Y-74486200D01*
X334022200Y-74486200D02*
X334022200Y-65888300D01*
X334022200Y-65888300D02*
X344612900Y-55297600D01*
X344612900Y-55297600D02*
X344612900Y-48921200D01*
X344612900Y-48921200D02*
X347236400Y-46297700D01*
%TO.N,Net-(D13-Pad1)*%
X175037100Y-48183300D02*
X174934400Y-48183300D01*
X174934400Y-48183300D02*
X172935500Y-50182200D01*
X85277000Y-73279000D02*
X79600400Y-73279000D01*
X79600400Y-73279000D02*
X78476600Y-72155200D01*
X78476600Y-72155200D02*
X78476600Y-63912600D01*
X78476600Y-63912600D02*
X75604500Y-61040500D01*
%TO.N,Net-(D14-Pad1)*%
X75752000Y-90753700D02*
X76115600Y-90390100D01*
X76115600Y-90390100D02*
X76115600Y-73674700D01*
X76115600Y-73674700D02*
X73777700Y-71336800D01*
X73777700Y-71336800D02*
X73777700Y-62855900D01*
X75752000Y-92329000D02*
X75752000Y-90753700D01*
%TO.N,Net-(D15-Pad1)*%
X83128000Y-109920700D02*
X87904100Y-105144600D01*
X87904100Y-105144600D02*
X118456500Y-105144600D01*
X118456500Y-105144600D02*
X129950600Y-93650500D01*
X129950600Y-93650500D02*
X129950600Y-91017600D01*
X129950600Y-91017600D02*
X133115100Y-87853100D01*
X133115100Y-87853100D02*
X133492300Y-87853100D01*
X133492300Y-87853100D02*
X139411500Y-81933900D01*
X139411500Y-81933900D02*
X139411500Y-67080800D01*
X139411500Y-67080800D02*
X139771400Y-66720900D01*
X139771400Y-66720900D02*
X139771400Y-65462300D01*
X139771400Y-65462300D02*
X139012500Y-64703400D01*
X139012500Y-64703400D02*
X139012500Y-56008900D01*
X139012500Y-56008900D02*
X139571600Y-55449800D01*
X139571600Y-55449800D02*
X139571600Y-53529200D01*
X139571600Y-53529200D02*
X145827600Y-47273200D01*
X145827600Y-47273200D02*
X146226500Y-47273200D01*
X83128000Y-111496000D02*
X83128000Y-109920700D01*
%TO.N,Net-(D16-Pad1)*%
X389569000Y-73025000D02*
X383921200Y-73025000D01*
X383921200Y-73025000D02*
X382712900Y-71816700D01*
X382712900Y-71816700D02*
X382712900Y-67962600D01*
X382712900Y-67962600D02*
X387924000Y-62751500D01*
X387924000Y-62751500D02*
X387924000Y-45768400D01*
X387924000Y-45768400D02*
X388204400Y-45488000D01*
%TO.N,Net-(D17-Pad1)*%
X70926000Y-35133900D02*
X70926000Y-36903200D01*
X70926000Y-36903200D02*
X74078100Y-40055300D01*
X74078100Y-40055300D02*
X86915400Y-40055300D01*
X86915400Y-40055300D02*
X92368600Y-45508500D01*
%TO.N,Net-(D18-Pad1)*%
X237638700Y-98009300D02*
X242048300Y-102418900D01*
X242048300Y-102418900D02*
X242048300Y-103053800D01*
X80578000Y-54229000D02*
X80578000Y-55960300D01*
X80578000Y-55960300D02*
X85620600Y-61002900D01*
X85620600Y-61002900D02*
X111426000Y-61002900D01*
X111426000Y-61002900D02*
X120572600Y-70149500D01*
X120572600Y-70149500D02*
X120572600Y-74069600D01*
X120572600Y-74069600D02*
X130900400Y-84397400D01*
%TO.N,Net-(D19-Pad1)*%
X89976000Y-33558600D02*
X90235800Y-33298800D01*
X90235800Y-33298800D02*
X96646300Y-33298800D01*
X96646300Y-33298800D02*
X98219700Y-34872200D01*
X98219700Y-34872200D02*
X106114900Y-34872200D01*
X106114900Y-34872200D02*
X107679500Y-33307600D01*
X107679500Y-33307600D02*
X115781900Y-33307600D01*
X115781900Y-33307600D02*
X117346800Y-34872500D01*
X117346800Y-34872500D02*
X125164600Y-34872500D01*
X125164600Y-34872500D02*
X126737600Y-33299500D01*
X126737600Y-33299500D02*
X134240300Y-33299500D01*
X134240300Y-33299500D02*
X135810400Y-34869600D01*
X135810400Y-34869600D02*
X143851700Y-34869600D01*
X143851700Y-34869600D02*
X145162800Y-33558500D01*
X145162800Y-33558500D02*
X148620900Y-33558500D01*
X148620900Y-33558500D02*
X148729200Y-33666800D01*
X148729200Y-33666800D02*
X148729200Y-36563200D01*
X148729200Y-36563200D02*
X148373400Y-36919000D01*
X148373400Y-36919000D02*
X148373400Y-38175800D01*
X148373400Y-38175800D02*
X154000500Y-43802900D01*
X154000500Y-43802900D02*
X157823500Y-43802900D01*
X157823500Y-43802900D02*
X160250800Y-46230200D01*
X89976000Y-35133900D02*
X89976000Y-33558600D01*
%TO.N,Net-(D20-Pad1)*%
X197639800Y-49141200D02*
X197543100Y-49044500D01*
X197543100Y-49044500D02*
X194858400Y-49044500D01*
X194858400Y-49044500D02*
X193733000Y-50169900D01*
X193733000Y-50169900D02*
X193733000Y-51295400D01*
X193733000Y-51295400D02*
X189699200Y-55329200D01*
X189699200Y-55329200D02*
X188116800Y-55329200D01*
X188116800Y-55329200D02*
X183380600Y-60065400D01*
X99628000Y-54229000D02*
X99628000Y-56250400D01*
X99628000Y-56250400D02*
X103655200Y-60277600D01*
%TO.N,Net-(D21-Pad1)*%
X199058500Y-49139600D02*
X196534100Y-51664000D01*
X196534100Y-51664000D02*
X196534100Y-55799700D01*
X196534100Y-55799700D02*
X186861400Y-65472400D01*
X104327000Y-73279000D02*
X104327000Y-71703700D01*
X104327000Y-71703700D02*
X105238500Y-71703700D01*
X105238500Y-71703700D02*
X107354400Y-69587800D01*
%TO.N,Net-(D22-Pad1)*%
X94802000Y-90753700D02*
X96335300Y-90753700D01*
X96335300Y-90753700D02*
X98386700Y-88702300D01*
X245142200Y-47660700D02*
X244522000Y-47660700D01*
X244522000Y-47660700D02*
X241245000Y-50937700D01*
X241245000Y-50937700D02*
X241245000Y-53212200D01*
X241245000Y-53212200D02*
X243386000Y-55353200D01*
X243386000Y-55353200D02*
X243386000Y-57837900D01*
X243386000Y-57837900D02*
X235297600Y-65926300D01*
X235297600Y-65926300D02*
X235297600Y-76963000D01*
X235297600Y-76963000D02*
X227461100Y-84799500D01*
X94802000Y-92329000D02*
X94802000Y-90753700D01*
%TO.N,Net-(D23-Pad1)*%
X107004000Y-109920700D02*
X107275500Y-109649200D01*
X107275500Y-109649200D02*
X112031700Y-109649200D01*
X112031700Y-109649200D02*
X113857600Y-111475100D01*
X113857600Y-111475100D02*
X118746700Y-111475100D01*
X118746700Y-111475100D02*
X123654600Y-116383000D01*
X123654600Y-116383000D02*
X234257700Y-116383000D01*
X234257700Y-116383000D02*
X243282000Y-107358700D01*
X243282000Y-107358700D02*
X243282000Y-105902700D01*
X107004000Y-111496000D02*
X107004000Y-109920700D01*
%TO.N,Net-(D24-Pad1)*%
X232978000Y-52653700D02*
X229036600Y-48712300D01*
X229036600Y-48712300D02*
X214560100Y-48712300D01*
X232978000Y-54229000D02*
X232978000Y-52653700D01*
%TO.N,Net-(D25-Pad1)*%
X123377000Y-71703700D02*
X123377000Y-69678000D01*
X123377000Y-69678000D02*
X106809500Y-53110500D01*
X106809500Y-53110500D02*
X106684300Y-53110500D01*
X123377000Y-73279000D02*
X123377000Y-71703700D01*
%TO.N,Net-(D26-Pad1)*%
X113852000Y-90753700D02*
X114102100Y-90503600D01*
X114102100Y-90503600D02*
X120720100Y-90503600D01*
X120720100Y-90503600D02*
X123820300Y-93603800D01*
X185161000Y-98304900D02*
X187978400Y-101122300D01*
X187978400Y-101122300D02*
X187978400Y-103157900D01*
X113852000Y-92329000D02*
X113852000Y-90753700D01*
%TO.N,Net-(D27-Pad1)*%
X140405000Y-111496000D02*
X132224200Y-111496000D01*
X132224200Y-111496000D02*
X129550600Y-108822400D01*
X129550600Y-108822400D02*
X129550600Y-102454400D01*
X129550600Y-102454400D02*
X140322000Y-91683000D01*
X140322000Y-91683000D02*
X140322000Y-88803700D01*
X140322000Y-88803700D02*
X152062300Y-77063400D01*
X152062300Y-77063400D02*
X152062300Y-74292100D01*
X152062300Y-74292100D02*
X149991000Y-72220800D01*
X149991000Y-72220800D02*
X149991000Y-69798700D01*
X149991000Y-69798700D02*
X153141700Y-66648000D01*
X153141700Y-66648000D02*
X154165200Y-66648000D01*
X154165200Y-66648000D02*
X159854100Y-60959100D01*
X159854100Y-60959100D02*
X159854100Y-60959000D01*
X159854100Y-60959000D02*
X163539300Y-60959000D01*
X163539300Y-60959000D02*
X171161400Y-53336900D01*
X171161400Y-53336900D02*
X172397600Y-53336900D01*
X172397600Y-53336900D02*
X173364300Y-52370200D01*
X173364300Y-52370200D02*
X181804300Y-52370200D01*
X181804300Y-52370200D02*
X182960800Y-53526700D01*
X182960800Y-53526700D02*
X190860200Y-53526700D01*
X190860200Y-53526700D02*
X192991200Y-51395700D01*
X192991200Y-51395700D02*
X192991200Y-50340000D01*
%TO.N,Net-(D28-Pad1)*%
X252028000Y-52653700D02*
X253088400Y-51593300D01*
X253088400Y-51593300D02*
X253088400Y-42636200D01*
X98220200Y-41380800D02*
X93367100Y-46233900D01*
X93367100Y-46233900D02*
X90725300Y-46233900D01*
X90725300Y-46233900D02*
X90241700Y-45750300D01*
X252028000Y-54229000D02*
X252028000Y-52653700D01*
%TO.N,Net-(D29-Pad1)*%
X109026000Y-35133900D02*
X109026000Y-38438000D01*
X109026000Y-38438000D02*
X115530200Y-44942200D01*
%TO.N,Net-(D30-Pad1)*%
X118678000Y-54229000D02*
X118678000Y-64342100D01*
X118678000Y-64342100D02*
X124977400Y-70641500D01*
X124977400Y-70641500D02*
X124977400Y-74711100D01*
X124977400Y-74711100D02*
X124622700Y-75065800D01*
X124622700Y-75065800D02*
X124622700Y-77054300D01*
X124622700Y-77054300D02*
X132386900Y-84818500D01*
%TO.N,Net-(D31-Pad1)*%
X128076000Y-35133900D02*
X128076000Y-36937200D01*
X128076000Y-36937200D02*
X133981600Y-42842800D01*
X133981600Y-42842800D02*
X150782200Y-42842800D01*
X150782200Y-42842800D02*
X153942700Y-46003300D01*
%TO.N,Net-(D32-Pad1)*%
X137728000Y-52653700D02*
X137728000Y-52569300D01*
X137728000Y-52569300D02*
X131292800Y-46134100D01*
X131292800Y-46134100D02*
X99856700Y-46134100D01*
X99856700Y-46134100D02*
X99306600Y-46684200D01*
X99306600Y-46684200D02*
X80383500Y-46684200D01*
X80383500Y-46684200D02*
X80087500Y-46388200D01*
X137728000Y-54229000D02*
X137728000Y-52653700D01*
%TO.N,Net-(D33-Pad1)*%
X139046100Y-66420400D02*
X138539700Y-65914000D01*
X138539700Y-65914000D02*
X138539700Y-60288400D01*
X138539700Y-60288400D02*
X134656700Y-56405400D01*
X134656700Y-56405400D02*
X134656700Y-50181100D01*
X134656700Y-50181100D02*
X131321300Y-46845700D01*
X131321300Y-46845700D02*
X120389700Y-46845700D01*
X120389700Y-46845700D02*
X119200300Y-48035100D01*
X119200300Y-48035100D02*
X74005300Y-48035100D01*
X74005300Y-48035100D02*
X73388000Y-47417800D01*
X142173000Y-73279000D02*
X142173000Y-71703700D01*
X142173000Y-71703700D02*
X142351200Y-71525500D01*
X142351200Y-71525500D02*
X142351200Y-67559300D01*
%TO.N,Net-(D34-Pad1)*%
X230006100Y-48191400D02*
X229731000Y-47916300D01*
X229731000Y-47916300D02*
X186925400Y-47916300D01*
X186925400Y-47916300D02*
X185947100Y-48894600D01*
X132902000Y-90753700D02*
X142646700Y-81009000D01*
X142646700Y-81009000D02*
X142646700Y-75869700D01*
X142646700Y-75869700D02*
X143776800Y-74739600D01*
X143776800Y-74739600D02*
X143776800Y-66068000D01*
X143776800Y-66068000D02*
X142680900Y-64972100D01*
X142680900Y-64972100D02*
X142680900Y-62986400D01*
X142680900Y-62986400D02*
X145673500Y-59993800D01*
X145673500Y-59993800D02*
X147393800Y-59993800D01*
X132902000Y-92329000D02*
X132902000Y-90753700D01*
%TO.N,Net-(D35-Pad1)*%
X171383000Y-111506000D02*
X148632400Y-111506000D01*
X148632400Y-111506000D02*
X143766200Y-106639800D01*
%TO.N,Net-(D36-Pad1)*%
X283026000Y-92319000D02*
X283026000Y-93894300D01*
X283026000Y-93894300D02*
X281450700Y-93894300D01*
X281450700Y-93894300D02*
X274383900Y-100961100D01*
X274383900Y-100961100D02*
X262172200Y-100961100D01*
X262172200Y-100961100D02*
X261854800Y-100643700D01*
%TO.N,Net-(D37-Pad1)*%
X148007100Y-49099900D02*
X147830300Y-49099900D01*
X147830300Y-49099900D02*
X145992100Y-50938100D01*
X145992100Y-50938100D02*
X145992100Y-52544300D01*
X145992100Y-52544300D02*
X149157600Y-55709800D01*
X149157600Y-55709800D02*
X149157600Y-61215600D01*
X149157600Y-61215600D02*
X153864700Y-65922700D01*
X161223000Y-73279000D02*
X161223000Y-71703700D01*
X161223000Y-71703700D02*
X159871000Y-71703700D01*
X159871000Y-71703700D02*
X157920200Y-69752900D01*
%TO.N,Net-(D38-Pad1)*%
X150351700Y-92329000D02*
X150351700Y-92419200D01*
X150351700Y-92419200D02*
X139845400Y-102925500D01*
X139845400Y-102925500D02*
X136796500Y-102925500D01*
X136796500Y-102925500D02*
X134331200Y-105390800D01*
X151952000Y-92329000D02*
X150351700Y-92329000D01*
%TO.N,Net-(D39-Pad1)*%
X185749200Y-106497100D02*
X189182800Y-109930700D01*
X189182800Y-109930700D02*
X190433000Y-109930700D01*
X190433000Y-111506000D02*
X190433000Y-109930700D01*
%TO.N,Net-(D40-Pad1)*%
X246583100Y-53548700D02*
X247913000Y-54878600D01*
X247913000Y-54878600D02*
X247913000Y-66112700D01*
X247913000Y-66112700D02*
X249387300Y-67587000D01*
X249387300Y-67587000D02*
X249387300Y-74695000D01*
X249387300Y-74695000D02*
X248354800Y-75727500D01*
X248354800Y-75727500D02*
X248354800Y-89600900D01*
X248354800Y-89600900D02*
X247202000Y-90753700D01*
X247202000Y-92329000D02*
X247202000Y-90753700D01*
%TO.N,Net-(D41-Pad1)*%
X126532900Y-104253900D02*
X126532900Y-100189400D01*
X126532900Y-100189400D02*
X130752500Y-95969800D01*
X130752500Y-95969800D02*
X130752500Y-90852600D01*
X130752500Y-90852600D02*
X133301700Y-88303400D01*
X133301700Y-88303400D02*
X133678900Y-88303400D01*
X133678900Y-88303400D02*
X139913100Y-82069200D01*
X139913100Y-82069200D02*
X139913100Y-67216100D01*
X139913100Y-67216100D02*
X140299200Y-66830000D01*
X140299200Y-66830000D02*
X140299200Y-58431800D01*
X140299200Y-58431800D02*
X144154800Y-54576200D01*
X144154800Y-54576200D02*
X144154800Y-50652700D01*
X144154800Y-50652700D02*
X147590000Y-47217500D01*
X147590000Y-47217500D02*
X153990600Y-47217500D01*
X153990600Y-47217500D02*
X154070000Y-47296900D01*
X154070000Y-47296900D02*
X157189300Y-47296900D01*
X157189300Y-47296900D02*
X157642200Y-46844000D01*
X157642200Y-46844000D02*
X157642200Y-46218700D01*
X157642200Y-46218700D02*
X156606200Y-45182700D01*
X156606200Y-45182700D02*
X154702800Y-45182700D01*
X154702800Y-45182700D02*
X147126000Y-37605900D01*
X147126000Y-37605900D02*
X147126000Y-35133900D01*
%TO.N,Net-(D42-Pad1)*%
X156778000Y-54229000D02*
X151108400Y-54229000D01*
X151108400Y-54229000D02*
X149685700Y-52806300D01*
X149685700Y-52806300D02*
X149685700Y-50570600D01*
%TO.N,Net-(D43-Pad1)*%
X166176000Y-36709200D02*
X164600700Y-36709200D01*
X164600700Y-36709200D02*
X161159900Y-40150000D01*
X166176000Y-35133900D02*
X166176000Y-36709200D01*
%TO.N,Net-(D44-Pad1)*%
X175828000Y-55804300D02*
X169020600Y-62611700D01*
X169020600Y-62611700D02*
X160932900Y-62611700D01*
X160932900Y-62611700D02*
X154324600Y-69220000D01*
X154324600Y-69220000D02*
X154324600Y-71975300D01*
X154324600Y-71975300D02*
X153636700Y-72663200D01*
X153636700Y-72663200D02*
X153636700Y-77079500D01*
X153636700Y-77079500D02*
X145107800Y-85608400D01*
X145107800Y-85608400D02*
X145107800Y-92771300D01*
X145107800Y-92771300D02*
X146718200Y-94381700D01*
X146718200Y-94381700D02*
X146718200Y-95356300D01*
X146718200Y-95356300D02*
X140525000Y-101549500D01*
X140525000Y-101549500D02*
X137388700Y-101549500D01*
X137388700Y-101549500D02*
X134272700Y-104665500D01*
X134272700Y-104665500D02*
X133996000Y-104665500D01*
X133996000Y-104665500D02*
X130275900Y-108385600D01*
X130275900Y-108385600D02*
X130275900Y-108521900D01*
X175828000Y-54229000D02*
X175828000Y-55804300D01*
%TO.N,Net-(D45-Pad1)*%
X180273000Y-73279000D02*
X180273000Y-74854300D01*
X180273000Y-74854300D02*
X168046900Y-87080400D01*
X168046900Y-87080400D02*
X168046900Y-90557600D01*
X168046900Y-90557600D02*
X166990100Y-91614400D01*
X166990100Y-91614400D02*
X166183200Y-91614400D01*
X166183200Y-91614400D02*
X160342400Y-97455200D01*
X160342400Y-97455200D02*
X155152400Y-97455200D01*
X155152400Y-97455200D02*
X147472400Y-105135200D01*
X147472400Y-105135200D02*
X146063200Y-105135200D01*
X146063200Y-105135200D02*
X145898300Y-104970300D01*
X145898300Y-104970300D02*
X142138400Y-104970300D01*
X142138400Y-104970300D02*
X138162400Y-108946300D01*
X138162400Y-108946300D02*
X131532600Y-108946300D01*
%TO.N,Net-(D46-Pad1)*%
X171002000Y-90753700D02*
X174635400Y-87120300D01*
X174635400Y-87120300D02*
X178105900Y-87120300D01*
X178105900Y-87120300D02*
X186418800Y-78807400D01*
X186418800Y-78807400D02*
X207197400Y-78807400D01*
X207197400Y-78807400D02*
X213690500Y-72314300D01*
X213690500Y-72314300D02*
X214911700Y-72314300D01*
X214911700Y-72314300D02*
X217607800Y-69618200D01*
X251340100Y-47854200D02*
X249088600Y-50105700D01*
X249088600Y-50105700D02*
X249088600Y-65660700D01*
X171002000Y-92329000D02*
X171002000Y-90753700D01*
%TO.N,Net-(D47-Pad1)*%
X207984600Y-105891500D02*
X213589100Y-111496000D01*
X213589100Y-111496000D02*
X221431000Y-111496000D01*
%TO.N,Net-(D48-Pad1)*%
X242376000Y-36709200D02*
X239608100Y-39477100D01*
X239608100Y-39477100D02*
X239608100Y-54372900D01*
X239608100Y-54372900D02*
X234396800Y-59584200D01*
X234396800Y-59584200D02*
X234396800Y-76166800D01*
X234396800Y-76166800D02*
X225648500Y-84915100D01*
X225648500Y-84915100D02*
X225648500Y-101465500D01*
X225648500Y-101465500D02*
X224424600Y-102689400D01*
X224424600Y-102689400D02*
X210286600Y-102689400D01*
X210286600Y-102689400D02*
X209683200Y-102086000D01*
X209683200Y-102086000D02*
X198088500Y-102086000D01*
X198088500Y-102086000D02*
X195943500Y-104231000D01*
X242376000Y-35133900D02*
X242376000Y-36709200D01*
%TO.N,Net-(D49-Pad1)*%
X213165600Y-56084700D02*
X213165600Y-57861100D01*
X213165600Y-57861100D02*
X199323000Y-71703700D01*
X199323000Y-73279000D02*
X199323000Y-71703700D01*
%TO.N,Net-(D50-Pad1)*%
X147010300Y-107436400D02*
X150138400Y-104308300D01*
X150138400Y-104308300D02*
X180049000Y-104308300D01*
X180049000Y-104308300D02*
X181864700Y-102492600D01*
X181864700Y-102492600D02*
X181864700Y-100575500D01*
X181864700Y-100575500D02*
X188535900Y-93904300D01*
X188535900Y-93904300D02*
X190052000Y-93904300D01*
X190052000Y-92329000D02*
X190052000Y-93904300D01*
%TO.N,Net-(D51-Pad1)*%
X254705000Y-111496000D02*
X250191500Y-111496000D01*
X250191500Y-111496000D02*
X243825100Y-105129600D01*
X243825100Y-105129600D02*
X240213000Y-105129600D01*
X240213000Y-105129600D02*
X238123500Y-107219100D01*
X238123500Y-107219100D02*
X238123500Y-109149400D01*
X238123500Y-109149400D02*
X236458400Y-110814500D01*
X236458400Y-110814500D02*
X229066000Y-110814500D01*
X229066000Y-110814500D02*
X227918700Y-109667200D01*
X227918700Y-109667200D02*
X216499100Y-109667200D01*
X216499100Y-109667200D02*
X214061600Y-107229700D01*
%TO.N,Net-(D52-Pad1)*%
X261426000Y-33558600D02*
X258885900Y-31018500D01*
X258885900Y-31018500D02*
X254808700Y-31018500D01*
X254808700Y-31018500D02*
X254622800Y-31204400D01*
X254622800Y-31204400D02*
X254622800Y-36267200D01*
X254622800Y-36267200D02*
X246995000Y-43895000D01*
X246995000Y-43895000D02*
X246995000Y-48624000D01*
X246995000Y-48624000D02*
X246356100Y-49262900D01*
X246356100Y-49262900D02*
X246214900Y-49262900D01*
X246214900Y-49262900D02*
X245227600Y-50250200D01*
X245227600Y-50250200D02*
X245227600Y-54099500D01*
X245227600Y-54099500D02*
X246794300Y-55666200D01*
X246794300Y-55666200D02*
X246794300Y-57260700D01*
X246794300Y-57260700D02*
X244446600Y-59608400D01*
X244446600Y-59608400D02*
X243449600Y-59608400D01*
X243449600Y-59608400D02*
X239026200Y-64031800D01*
X239026200Y-64031800D02*
X239026200Y-74708300D01*
X239026200Y-74708300D02*
X237931000Y-75803500D01*
X237931000Y-75803500D02*
X237931000Y-85716800D01*
X237931000Y-85716800D02*
X236426600Y-87221200D01*
X236426600Y-87221200D02*
X236426600Y-91726400D01*
X236426600Y-91726400D02*
X238031300Y-93331100D01*
X238031300Y-93331100D02*
X238031300Y-95852500D01*
X238031300Y-95852500D02*
X235145200Y-98738600D01*
X235145200Y-98738600D02*
X233466000Y-98738600D01*
X233466000Y-98738600D02*
X231457200Y-100747400D01*
X231457200Y-100747400D02*
X231457200Y-101639100D01*
X231457200Y-101639100D02*
X228674000Y-104422300D01*
X228674000Y-104422300D02*
X227107400Y-104422300D01*
X227107400Y-104422300D02*
X227039100Y-104490600D01*
X227039100Y-104490600D02*
X206642100Y-104490600D01*
X206642100Y-104490600D02*
X205227600Y-105905100D01*
X205227600Y-105905100D02*
X186341200Y-105905100D01*
X186341200Y-105905100D02*
X186169300Y-105733200D01*
X186169300Y-105733200D02*
X175904300Y-105733200D01*
X175904300Y-105733200D02*
X175408500Y-106229000D01*
X261426000Y-35133900D02*
X261426000Y-33558600D01*
%TO.N,Net-(D53-Pad1)*%
X185226000Y-36709200D02*
X183082000Y-36709200D01*
X183082000Y-36709200D02*
X171593500Y-48197700D01*
X171593500Y-48197700D02*
X153697000Y-48197700D01*
X153697000Y-48197700D02*
X153617400Y-48118100D01*
X153617400Y-48118100D02*
X147963200Y-48118100D01*
X147963200Y-48118100D02*
X145541700Y-50539600D01*
X145541700Y-50539600D02*
X145541700Y-52730800D01*
X145541700Y-52730800D02*
X148128800Y-55317900D01*
X148128800Y-55317900D02*
X148128800Y-74097200D01*
X148128800Y-74097200D02*
X146384800Y-75841200D01*
X146384800Y-75841200D02*
X146384800Y-81566000D01*
X146384800Y-81566000D02*
X139585900Y-88364900D01*
X139585900Y-88364900D02*
X139585900Y-89674700D01*
X146988100Y-104394000D02*
X147677900Y-103704200D01*
X147677900Y-103704200D02*
X147677900Y-96118800D01*
X185226000Y-35133900D02*
X185226000Y-36709200D01*
%TO.N,Net-(D54-Pad1)*%
X194878000Y-54229000D02*
X194878000Y-52653700D01*
X194878000Y-52653700D02*
X195208900Y-52322800D01*
X195208900Y-52322800D02*
X195208900Y-49808800D01*
%TO.N,Net-(D55-Pad1)*%
X170934800Y-47436300D02*
X171192400Y-47436300D01*
X171192400Y-47436300D02*
X181372700Y-37256000D01*
X181372700Y-37256000D02*
X181372700Y-35957900D01*
X181372700Y-35957900D02*
X184040500Y-33290100D01*
X184040500Y-33290100D02*
X191400300Y-33290100D01*
X191400300Y-33290100D02*
X193244100Y-35133900D01*
X193244100Y-35133900D02*
X204276000Y-35133900D01*
%TO.N,Net-(D56-Pad1)*%
X158870200Y-103096100D02*
X168947700Y-93018600D01*
X168947700Y-93018600D02*
X168947700Y-90697200D01*
X168947700Y-90697200D02*
X179727300Y-79917600D01*
X179727300Y-79917600D02*
X180384400Y-79917600D01*
X180384400Y-79917600D02*
X187680200Y-72621800D01*
X187680200Y-72621800D02*
X195226600Y-72621800D01*
X195226600Y-72621800D02*
X212327700Y-55520700D01*
X212327700Y-55520700D02*
X212327700Y-54229000D01*
X213928000Y-54229000D02*
X212327700Y-54229000D01*
%TO.N,Net-(D57-Pad1)*%
X133188700Y-87127800D02*
X129500200Y-90816300D01*
X129500200Y-90816300D02*
X129500200Y-91090400D01*
X129500200Y-91090400D02*
X128976200Y-91614400D01*
X128976200Y-91614400D02*
X128075500Y-91614400D01*
X128075500Y-91614400D02*
X122501600Y-97188300D01*
X122501600Y-97188300D02*
X112783800Y-97188300D01*
X112783800Y-97188300D02*
X106053400Y-103918700D01*
X218373000Y-73279000D02*
X218373000Y-74854300D01*
X218373000Y-74854300D02*
X207538500Y-85688800D01*
X207538500Y-85688800D02*
X197623200Y-85688800D01*
%TO.N,Net-(D58-Pad1)*%
X209102000Y-92329000D02*
X209102000Y-93904300D01*
X209102000Y-93904300D02*
X206391700Y-93904300D01*
X206391700Y-93904300D02*
X203091100Y-97204900D01*
X125662700Y-96912600D02*
X118287100Y-104288200D01*
X118287100Y-104288200D02*
X112681400Y-104288200D01*
%TO.N,Net-(D59-Pad1)*%
X321766000Y-67761200D02*
X323385700Y-66141500D01*
X323385700Y-66141500D02*
X323385700Y-57105800D01*
X323385700Y-57105800D02*
X327483400Y-53008100D01*
X327483400Y-53008100D02*
X327483400Y-51646800D01*
X327483400Y-51646800D02*
X327497000Y-51633200D01*
X276285000Y-111506000D02*
X276285000Y-113238800D01*
X276285000Y-113238800D02*
X284586500Y-121540300D01*
X284586500Y-121540300D02*
X303328100Y-121540300D01*
X303328100Y-121540300D02*
X307655100Y-117213300D01*
X307655100Y-117213300D02*
X307655100Y-112938800D01*
X307655100Y-112938800D02*
X300181900Y-105465600D01*
X300181900Y-105465600D02*
X300181900Y-80516500D01*
X300181900Y-80516500D02*
X302899800Y-77798600D01*
%TO.N,Net-(D61-Pad1)*%
X223326000Y-35133900D02*
X223326000Y-36930100D01*
X223326000Y-36930100D02*
X235052600Y-48656700D01*
X235052600Y-48656700D02*
X235052600Y-50183200D01*
X235052600Y-50183200D02*
X234581200Y-50654600D01*
X234581200Y-50654600D02*
X234581200Y-55687000D01*
X234581200Y-55687000D02*
X233946400Y-56321800D01*
X233946400Y-56321800D02*
X233946400Y-75672000D01*
X233946400Y-75672000D02*
X225198200Y-84420200D01*
X225198200Y-84420200D02*
X225198200Y-100890000D01*
X225198200Y-100890000D02*
X224124100Y-101964100D01*
%TO.N,Net-(D62-Pad1)*%
X380318200Y-47309300D02*
X383233900Y-47309300D01*
X383233900Y-47309300D02*
X385969400Y-50044800D01*
X385969400Y-50044800D02*
X385969400Y-52906200D01*
X385969400Y-52906200D02*
X385568700Y-53306900D01*
X385568700Y-53306900D02*
X379290700Y-53306900D01*
X379290700Y-53306900D02*
X378082800Y-52099000D01*
X378082800Y-52099000D02*
X369396400Y-52099000D01*
X369396400Y-52099000D02*
X368468300Y-53027100D01*
X368468300Y-53027100D02*
X368468300Y-54450400D01*
X368468300Y-54450400D02*
X351469000Y-71449700D01*
X351469000Y-73025000D02*
X351469000Y-71449700D01*
%TO.N,Net-(D63-Pad1)*%
X218634700Y-69651700D02*
X216660000Y-71626400D01*
X216660000Y-71626400D02*
X216660000Y-72827600D01*
X216660000Y-72827600D02*
X210229800Y-79257800D01*
X210229800Y-79257800D02*
X189037100Y-79257800D01*
X189037100Y-79257800D02*
X177972000Y-90322900D01*
X177972000Y-90322900D02*
X177972000Y-92133000D01*
X177972000Y-92133000D02*
X170602900Y-99502100D01*
X170602900Y-99502100D02*
X170602900Y-102858700D01*
X271078000Y-55804300D02*
X271078000Y-64746600D01*
X271078000Y-64746600D02*
X269377900Y-66446700D01*
X271078000Y-54229000D02*
X271078000Y-55804300D01*
%TO.N,Net-(D64-Pad1)*%
X366887600Y-47668000D02*
X376892600Y-47668000D01*
X376892600Y-47668000D02*
X377978100Y-46582500D01*
X377978100Y-46582500D02*
X383165300Y-46582500D01*
X383165300Y-46582500D02*
X386421900Y-49839100D01*
X386421900Y-49839100D02*
X386421900Y-57023600D01*
X386421900Y-57023600D02*
X371995800Y-71449700D01*
X371995800Y-71449700D02*
X370519000Y-71449700D01*
X370519000Y-73025000D02*
X370519000Y-71449700D01*
%TO.N,Net-(D65-Pad1)*%
X237423000Y-73279000D02*
X237423000Y-78014000D01*
X237423000Y-78014000D02*
X235011100Y-80425900D01*
X235011100Y-80425900D02*
X235011100Y-92153500D01*
X235011100Y-92153500D02*
X230743100Y-96421500D01*
X230743100Y-96421500D02*
X230743100Y-101661600D01*
X230743100Y-101661600D02*
X228432700Y-103972000D01*
X228432700Y-103972000D02*
X226920800Y-103972000D01*
X226920800Y-103972000D02*
X226852500Y-104040300D01*
X226852500Y-104040300D02*
X206323900Y-104040300D01*
X206323900Y-104040300D02*
X204957500Y-105406700D01*
X204957500Y-105406700D02*
X186743300Y-105406700D01*
X186743300Y-105406700D02*
X186545600Y-105209000D01*
X186545600Y-105209000D02*
X157451800Y-105209000D01*
X157451800Y-105209000D02*
X156536400Y-106124400D01*
X156536400Y-106124400D02*
X150622400Y-106124400D01*
X150622400Y-106124400D02*
X148572800Y-108174000D01*
X148572800Y-108174000D02*
X146659500Y-108174000D01*
X146659500Y-108174000D02*
X144941800Y-106456300D01*
X144941800Y-106456300D02*
X144941800Y-106152700D01*
X144941800Y-106152700D02*
X144224300Y-105435200D01*
X144224300Y-105435200D02*
X143215600Y-105435200D01*
X143215600Y-105435200D02*
X140541600Y-108109200D01*
X140541600Y-108109200D02*
X140541600Y-109111400D01*
%TO.N,Net-(D66-Pad1)*%
X256473000Y-71703700D02*
X256763200Y-71413500D01*
X256473000Y-73279000D02*
X256473000Y-71703700D01*
X321940000Y-61210700D02*
X321940000Y-56233200D01*
X321940000Y-56233200D02*
X326012000Y-52161200D01*
%TO.N,Net-(D67-Pad1)*%
X285997700Y-73269000D02*
X284318500Y-73269000D01*
X284318500Y-73269000D02*
X281999000Y-75588500D01*
X152967300Y-103124200D02*
X156430900Y-99660600D01*
X156430900Y-99660600D02*
X161464800Y-99660600D01*
X161464800Y-99660600D02*
X168497300Y-92628100D01*
X168497300Y-92628100D02*
X168497300Y-90510700D01*
X168497300Y-90510700D02*
X180087200Y-78920800D01*
X287598000Y-73269000D02*
X285997700Y-73269000D01*
%TO.N,Net-(D68-Pad1)*%
X294837000Y-52659900D02*
X295093100Y-52403800D01*
X295093100Y-52403800D02*
X301305700Y-52403800D01*
X301305700Y-52403800D02*
X302469400Y-53567500D01*
X302469400Y-53567500D02*
X309820400Y-53567500D01*
X309820400Y-53567500D02*
X310344700Y-53043200D01*
X310344700Y-53043200D02*
X310344700Y-51256600D01*
X310344700Y-51256600D02*
X313429700Y-48171600D01*
X313429700Y-48171600D02*
X313429700Y-39335000D01*
X313429700Y-39335000D02*
X321162100Y-31602600D01*
X321162100Y-31602600D02*
X323161300Y-31602600D01*
X323161300Y-31602600D02*
X327504500Y-35945800D01*
X327504500Y-35945800D02*
X327504500Y-36653000D01*
X327504500Y-36653000D02*
X328410300Y-37558800D01*
X328410300Y-37558800D02*
X330685400Y-37558800D01*
X330685400Y-37558800D02*
X338246500Y-45119900D01*
X338246500Y-45119900D02*
X338246500Y-46206600D01*
X294837000Y-54235200D02*
X294837000Y-52659900D01*
%TO.N,Net-(D69-Pad1)*%
X386546300Y-103218500D02*
X377035600Y-103218500D01*
X377035600Y-103218500D02*
X374071500Y-106182600D01*
X374071500Y-106182600D02*
X372467700Y-106182600D01*
X372467700Y-106182600D02*
X367986500Y-110663800D01*
X367986500Y-110663800D02*
X367986500Y-112156400D01*
X367986500Y-112156400D02*
X359614900Y-120528000D01*
X359614900Y-120528000D02*
X350258600Y-120528000D01*
X350258600Y-120528000D02*
X339133800Y-109403200D01*
X339133800Y-109403200D02*
X339133800Y-102035700D01*
X339133800Y-102035700D02*
X330818600Y-93720500D01*
X330818600Y-93720500D02*
X330818600Y-76200700D01*
X330818600Y-76200700D02*
X332419000Y-74600300D01*
X332419000Y-73025000D02*
X332419000Y-74600300D01*
%TO.N,Net-(D70-Pad1)*%
X190032900Y-104231000D02*
X182835200Y-104231000D01*
X182835200Y-104231000D02*
X182630400Y-104026200D01*
X296157700Y-111496000D02*
X296029600Y-111367900D01*
X296029600Y-111367900D02*
X295861500Y-111367900D01*
X297758000Y-111496000D02*
X296157700Y-111496000D01*
%TO.N,Net-(D71-Pad1)*%
X351469000Y-53975000D02*
X351469000Y-52399700D01*
X351469000Y-52399700D02*
X354259100Y-49609600D01*
X354259100Y-49609600D02*
X363077400Y-49609600D01*
X363077400Y-49609600D02*
X363175100Y-49707300D01*
%TO.N,Net-(D72-Pad1)*%
X332419000Y-53975000D02*
X332419000Y-52399700D01*
X332419000Y-52399700D02*
X337083500Y-47735200D01*
X337083500Y-47735200D02*
X341972900Y-47735200D01*
%TO.N,Net-(Backspace1-Pad2)*%
X375419600Y-46926500D02*
X369213400Y-40720300D01*
X369213400Y-40720300D02*
X354304500Y-40720300D01*
X354304500Y-40720300D02*
X350957500Y-37373300D01*
X290011000Y-35140100D02*
X290011000Y-33564800D01*
X290011000Y-33564800D02*
X290312100Y-33263700D01*
X290312100Y-33263700D02*
X296434700Y-33263700D01*
X296434700Y-33263700D02*
X299440000Y-36269000D01*
X299440000Y-36269000D02*
X311275300Y-36269000D01*
X311275300Y-36269000D02*
X311513400Y-36030900D01*
%TO.N,Net-(D73-Pad1)*%
X347919900Y-105775000D02*
X349375300Y-104319600D01*
X349375300Y-104319600D02*
X349375300Y-37904800D01*
X349375300Y-37904800D02*
X350779800Y-36500300D01*
X350779800Y-36500300D02*
X351469000Y-36500300D01*
X351469000Y-34925000D02*
X351469000Y-36500300D01*
%TO.N,Net-(D74-Pad1)*%
X351469000Y-92075000D02*
X351469000Y-106442400D01*
X351469000Y-106442400D02*
X347751000Y-110160400D01*
X347751000Y-110160400D02*
X344859300Y-110160400D01*
X344859300Y-110160400D02*
X344612900Y-109914000D01*
X344612900Y-109914000D02*
X344612900Y-105865000D01*
X344612900Y-105865000D02*
X343399500Y-104651600D01*
%TO.N,Net-(CAPS1-Pad2)*%
X40044500Y-73269000D02*
X40044500Y-71693700D01*
X40044500Y-71693700D02*
X38930300Y-70579500D01*
X38930300Y-70579500D02*
X38930300Y-56031300D01*
X38930300Y-56031300D02*
X39362700Y-55598900D01*
X39362700Y-55598900D02*
X39362700Y-53639600D01*
X39362700Y-53639600D02*
X41230700Y-51771600D01*
%TO.N,Net-(D75-Pad1)*%
X332419000Y-34925000D02*
X332419000Y-37300700D01*
X332419000Y-37300700D02*
X335219000Y-40100700D01*
X335219000Y-40100700D02*
X335378500Y-40100700D01*
X335378500Y-40100700D02*
X342731500Y-47453700D01*
X342731500Y-47453700D02*
X342731500Y-48587000D01*
X342731500Y-48587000D02*
X339389000Y-51929500D01*
X339389000Y-51929500D02*
X339389000Y-53779000D01*
X339389000Y-53779000D02*
X336918500Y-56249500D01*
X336918500Y-56249500D02*
X336918500Y-61775800D01*
X336918500Y-61775800D02*
X330347400Y-68346900D01*
X330347400Y-68346900D02*
X330347400Y-93963900D01*
X330347400Y-93963900D02*
X338408500Y-102025000D01*
X338408500Y-102025000D02*
X338408500Y-102661900D01*
%TO.N,Net-(D76-Pad1)*%
X389569000Y-111125000D02*
X389569000Y-109549700D01*
X389569000Y-109549700D02*
X386480800Y-106461500D01*
X386480800Y-106461500D02*
X385162600Y-106461500D01*
%TO.N,Net-(D77-Pad1)*%
X370519000Y-53975000D02*
X370519000Y-55550300D01*
X370519000Y-55550300D02*
X367919000Y-58150300D01*
X367919000Y-58150300D02*
X367919000Y-97437600D01*
X367919000Y-97437600D02*
X363162300Y-102194300D01*
%TO.N,Net-(D78-Pad1)*%
X370519000Y-92075000D02*
X370519000Y-96543800D01*
X370519000Y-96543800D02*
X363414000Y-103648800D01*
%TO.N,Net-(D79-Pad1)*%
X387968700Y-92075000D02*
X387542200Y-92075000D01*
X387542200Y-92075000D02*
X375175700Y-104441500D01*
X375175700Y-104441500D02*
X368449600Y-104441500D01*
X389569000Y-92075000D02*
X387968700Y-92075000D01*
%TO.N,Net-(D80-Pad1)*%
X389569000Y-34925000D02*
X389569000Y-36500300D01*
X389569000Y-36500300D02*
X387473600Y-38595700D01*
X387473600Y-38595700D02*
X387473600Y-59555600D01*
X387473600Y-59555600D02*
X378776000Y-68253200D01*
X378776000Y-68253200D02*
X378776000Y-71768900D01*
X378776000Y-71768900D02*
X380426000Y-73418900D01*
X380426000Y-73418900D02*
X380426000Y-81624100D01*
X380426000Y-81624100D02*
X377489000Y-84561100D01*
X377489000Y-84561100D02*
X377489000Y-91879000D01*
X377489000Y-91879000D02*
X372992300Y-96375700D01*
X372992300Y-96375700D02*
X372992300Y-102238300D01*
%TO.N,Net-(D81-Pad1)*%
X370519000Y-34925000D02*
X370519000Y-36670900D01*
X370519000Y-36670900D02*
X378590900Y-44742800D01*
X378590900Y-44742800D02*
X381997700Y-44742800D01*
X381997700Y-44742800D02*
X386872300Y-49617400D01*
X386872300Y-49617400D02*
X386872300Y-58400600D01*
X386872300Y-58400600D02*
X378122900Y-67150000D01*
X378122900Y-67150000D02*
X378122900Y-72195100D01*
X378122900Y-72195100D02*
X372122200Y-78195800D01*
X372122200Y-78195800D02*
X372122200Y-93504300D01*
X372122200Y-93504300D02*
X371766400Y-93860100D01*
X371766400Y-93860100D02*
X371766400Y-102038100D01*
X371766400Y-102038100D02*
X372692300Y-102964000D01*
X372692300Y-102964000D02*
X373996400Y-102964000D01*
X373996400Y-102964000D02*
X374254700Y-102705700D01*
%TO.N,Net-(D82-Pad1)*%
X370519000Y-109549700D02*
X371730100Y-109549700D01*
X371730100Y-109549700D02*
X377327200Y-103952600D01*
X370519000Y-111125000D02*
X370519000Y-109549700D01*
%TO.N,Net-(D83-Pad1)*%
X351469000Y-109549700D02*
X352456100Y-109549700D01*
X352456100Y-109549700D02*
X358870500Y-103135300D01*
X351469000Y-111125000D02*
X351469000Y-109549700D01*
%TO.N,Net-(D84-Pad1)*%
X332419000Y-109549700D02*
X332419000Y-96990700D01*
X332419000Y-96990700D02*
X329896500Y-94468200D01*
X329896500Y-94468200D02*
X329896500Y-66702200D01*
X329896500Y-66702200D02*
X330326500Y-66272200D01*
X330326500Y-66272200D02*
X330326500Y-52377200D01*
X330326500Y-52377200D02*
X335771800Y-46931900D01*
X332419000Y-111125000D02*
X332419000Y-109549700D01*
%TO.N,LED_GND*%
X271241600Y-43322000D02*
X269477600Y-45086000D01*
X269477600Y-45086000D02*
X269477600Y-60484400D01*
X269477600Y-60484400D02*
X269810800Y-60817600D01*
X269810800Y-60817600D02*
X269810800Y-60886900D01*
X220222300Y-98455000D02*
X218711200Y-99966100D01*
%TO.N,LED_5V*%
X325576600Y-108321000D02*
X325576600Y-113720500D01*
X325576600Y-113720500D02*
X328139400Y-116283300D01*
X320385000Y-97954900D02*
X320385000Y-100623600D01*
X320385000Y-100623600D02*
X325962100Y-106200700D01*
X325962100Y-106200700D02*
X325962100Y-107926700D01*
X325962100Y-107926700D02*
X325576600Y-108312200D01*
X325576600Y-108312200D02*
X325576600Y-108321000D01*
X325576600Y-108321000D02*
X324251900Y-108321000D01*
X324251900Y-108321000D02*
X321672100Y-110900800D01*
X328139400Y-116283300D02*
X328139400Y-118458500D01*
X328139400Y-118458500D02*
X329922600Y-120241700D01*
X281955100Y-63322400D02*
X281254600Y-64022900D01*
X281254600Y-64022900D02*
X281254600Y-81626100D01*
X281254600Y-81626100D02*
X281356900Y-81728400D01*
X320385000Y-97129600D02*
X320385000Y-97954900D01*
X281966300Y-44528700D02*
X283050000Y-45612400D01*
X283050000Y-45612400D02*
X283050000Y-55668100D01*
X283050000Y-55668100D02*
X281955100Y-56763000D01*
X281955100Y-56763000D02*
X281955100Y-63322400D01*
X119187000Y-98413400D02*
X119187000Y-101050900D01*
X119187000Y-101050900D02*
X119206100Y-101070000D01*
%TO.N,TEENSY_GND*%
X322790300Y-47567400D02*
X322282300Y-47059400D01*
X322282300Y-47059400D02*
X322282300Y-43541800D01*
X322282300Y-43541800D02*
X320872000Y-42131500D01*
X321340400Y-70652100D02*
X320590300Y-69902000D01*
X320590300Y-69902000D02*
X320590300Y-49767400D01*
X320590300Y-49767400D02*
X322790300Y-47567400D01*
X320337900Y-106478400D02*
X320337900Y-119513600D01*
X319115000Y-89509600D02*
X318289700Y-90334900D01*
X318289700Y-90334900D02*
X318289700Y-104430200D01*
X318289700Y-104430200D02*
X320337900Y-106478400D01*
X320337900Y-106478400D02*
X325212100Y-106478400D01*
X319115000Y-88684300D02*
X321575600Y-86223700D01*
X321575600Y-86223700D02*
X321575600Y-70887300D01*
X321575600Y-70887300D02*
X321340400Y-70652100D01*
X319115000Y-89509600D02*
X319115000Y-88684300D01*
%TO.N,ROW5*%
X346269000Y-51435000D02*
X346269000Y-49859700D01*
X335519400Y-39375400D02*
X339864700Y-43720700D01*
X339864700Y-43720700D02*
X345698600Y-43720700D01*
X345698600Y-43720700D02*
X347968100Y-45990200D01*
X347968100Y-45990200D02*
X347968100Y-48160600D01*
X347968100Y-48160600D02*
X346269000Y-49859700D01*
X296876000Y-91354300D02*
X295710000Y-92520300D01*
X295710000Y-92520300D02*
X289544800Y-92520300D01*
X289544800Y-92520300D02*
X282101800Y-99963300D01*
X282101800Y-99963300D02*
X276142600Y-99963300D01*
X276142600Y-99963300D02*
X274694400Y-101411500D01*
X274694400Y-101411500D02*
X261571200Y-101411500D01*
X261571200Y-101411500D02*
X261052000Y-100892300D01*
X261052000Y-100892300D02*
X261052000Y-89789000D01*
X246828000Y-50113700D02*
X248561500Y-48380200D01*
X248561500Y-48380200D02*
X248561500Y-45085600D01*
X248561500Y-45085600D02*
X252792000Y-40855100D01*
X252792000Y-40855100D02*
X253506200Y-40855100D01*
X253506200Y-40855100D02*
X258037900Y-36323400D01*
X303861000Y-32600100D02*
X307637000Y-32600100D01*
X307637000Y-32600100D02*
X310575700Y-35538800D01*
X346269000Y-103890300D02*
X346269000Y-108585000D01*
X346269000Y-89535000D02*
X346269000Y-103890300D01*
X346269000Y-103890300D02*
X343108600Y-103890300D01*
X343108600Y-103890300D02*
X340645600Y-106353300D01*
X340645600Y-106353300D02*
X340645600Y-109309500D01*
X340645600Y-109309500D02*
X343164300Y-111828200D01*
X343164300Y-111828200D02*
X345472200Y-111828200D01*
X345472200Y-111828200D02*
X353721700Y-120077700D01*
X353721700Y-120077700D02*
X359428300Y-120077700D01*
X359428300Y-120077700D02*
X366923400Y-112582600D01*
X366923400Y-112582600D02*
X366923400Y-104939400D01*
X366923400Y-104939400D02*
X368407400Y-103455400D01*
X368407400Y-103455400D02*
X374537900Y-103455400D01*
X374537900Y-103455400D02*
X381427300Y-96566000D01*
X381427300Y-96566000D02*
X381427300Y-94052000D01*
X381427300Y-94052000D02*
X384369000Y-91110300D01*
X384369000Y-89535000D02*
X384369000Y-91110300D01*
X346269000Y-53010300D02*
X346269000Y-61247500D01*
X346269000Y-61247500D02*
X344665800Y-62850700D01*
X344665800Y-62850700D02*
X344665800Y-73221700D01*
X344665800Y-73221700D02*
X346269000Y-74824900D01*
X346269000Y-74824900D02*
X346269000Y-89535000D01*
X242002000Y-88213700D02*
X247321300Y-82894400D01*
X247321300Y-82894400D02*
X247321300Y-73246800D01*
X247321300Y-73246800D02*
X245697700Y-71623200D01*
X245697700Y-71623200D02*
X245697700Y-60279900D01*
X245697700Y-60279900D02*
X247278200Y-58699400D01*
X247278200Y-58699400D02*
X247278200Y-55348300D01*
X247278200Y-55348300D02*
X245857800Y-53927900D01*
X245857800Y-53927900D02*
X245857800Y-52659200D01*
X245857800Y-52659200D02*
X246828000Y-51689000D01*
X256226000Y-34169200D02*
X258037900Y-35981100D01*
X258037900Y-35981100D02*
X258037900Y-36323400D01*
X265878000Y-44099300D02*
X258102100Y-36323400D01*
X258102100Y-36323400D02*
X258037900Y-36323400D01*
X265878000Y-44099300D02*
X265878000Y-51689000D01*
X275276000Y-34169200D02*
X275276000Y-34701300D01*
X275276000Y-34701300D02*
X265878000Y-44099300D01*
X246828000Y-51689000D02*
X246828000Y-50113700D01*
X256226000Y-32593900D02*
X256226000Y-34169200D01*
X275276000Y-32593900D02*
X275276000Y-34169200D01*
X303861000Y-31024800D02*
X303605200Y-30769000D01*
X303605200Y-30769000D02*
X289073700Y-30769000D01*
X289073700Y-30769000D02*
X287248800Y-32593900D01*
X287248800Y-32593900D02*
X275276000Y-32593900D01*
X265878000Y-51689000D02*
X265878000Y-53264300D01*
X269892900Y-70883000D02*
X265878000Y-66868100D01*
X265878000Y-66868100D02*
X265878000Y-53264300D01*
X261052000Y-89789000D02*
X261052000Y-88213700D01*
X269892900Y-70883000D02*
X267073400Y-73702500D01*
X267073400Y-73702500D02*
X267073400Y-82192300D01*
X267073400Y-82192300D02*
X261052000Y-88213700D01*
X270323000Y-70739000D02*
X270179000Y-70883000D01*
X270179000Y-70883000D02*
X269892900Y-70883000D01*
X384369000Y-89535000D02*
X386461800Y-89535000D01*
X386461800Y-89535000D02*
X403419000Y-72577800D01*
X403419000Y-72577800D02*
X403419000Y-70485000D01*
X303861000Y-32600100D02*
X303861000Y-31024800D01*
X296876000Y-89779000D02*
X296876000Y-91354300D01*
X346269000Y-52222600D02*
X346269000Y-51435000D01*
X346269000Y-52222600D02*
X346269000Y-53010300D01*
X242002000Y-89789000D02*
X242002000Y-88213700D01*
%TO.N,ROW2*%
X328229800Y-35798500D02*
X328229800Y-36352600D01*
X284928000Y-50113700D02*
X291966400Y-43075300D01*
X291966400Y-43075300D02*
X302680400Y-43075300D01*
X302680400Y-43075300D02*
X307902500Y-48297400D01*
X307902500Y-48297400D02*
X310488300Y-48297400D01*
X310488300Y-48297400D02*
X312906600Y-45879100D01*
X312906600Y-45879100D02*
X312906600Y-39164500D01*
X312906600Y-39164500D02*
X320920100Y-31151000D01*
X320920100Y-31151000D02*
X323582300Y-31151000D01*
X323582300Y-31151000D02*
X328229800Y-35798500D01*
X328229800Y-35798500D02*
X330930600Y-33097700D01*
X330930600Y-33097700D02*
X340208700Y-33097700D01*
X340208700Y-33097700D02*
X341336000Y-34225000D01*
X341336000Y-34225000D02*
X346004300Y-34225000D01*
X346004300Y-34225000D02*
X346269000Y-33960300D01*
X348474500Y-33960300D02*
X349348600Y-33086200D01*
X349348600Y-33086200D02*
X356302100Y-33086200D01*
X356302100Y-33086200D02*
X357459400Y-34243500D01*
X357459400Y-34243500D02*
X367939200Y-34243500D01*
X367939200Y-34243500D02*
X371668200Y-30514500D01*
X371668200Y-30514500D02*
X384073800Y-30514500D01*
X384073800Y-30514500D02*
X384369000Y-30809700D01*
X346269000Y-68909700D02*
X348474500Y-66704200D01*
X348474500Y-66704200D02*
X348474500Y-33960300D01*
X348474500Y-33960300D02*
X346269000Y-33960300D01*
X284928000Y-51689000D02*
X284928000Y-50113700D01*
X284928000Y-51689000D02*
X284928000Y-63164200D01*
X284928000Y-63164200D02*
X281984700Y-66107500D01*
X346269000Y-32385000D02*
X346269000Y-33960300D01*
X217447700Y-68891400D02*
X217447700Y-57483300D01*
X217447700Y-57483300D02*
X219544200Y-55386800D01*
X219544200Y-55386800D02*
X219544200Y-53481200D01*
X219544200Y-53481200D02*
X217429000Y-51366000D01*
X217429000Y-51366000D02*
X213803100Y-51366000D01*
X213803100Y-51366000D02*
X211866800Y-53302300D01*
X211866800Y-53302300D02*
X211866800Y-54131900D01*
X211866800Y-54131900D02*
X196961500Y-69037200D01*
X196961500Y-69037200D02*
X194123000Y-69037200D01*
X137227000Y-72314300D02*
X137227000Y-81106200D01*
X137227000Y-81106200D02*
X132769900Y-85563300D01*
X132769900Y-85563300D02*
X130969000Y-85563300D01*
X130969000Y-85563300D02*
X118177000Y-72771300D01*
X118177000Y-72771300D02*
X118177000Y-70739000D01*
X175073000Y-69163700D02*
X175326000Y-68910700D01*
X175326000Y-68910700D02*
X193996500Y-68910700D01*
X193996500Y-68910700D02*
X194123000Y-69037200D01*
X194123000Y-69163700D02*
X194123000Y-69037200D01*
X217447700Y-68891400D02*
X213445300Y-68891400D01*
X213445300Y-68891400D02*
X213173000Y-69163700D01*
X232120200Y-69060900D02*
X231950700Y-68891400D01*
X231950700Y-68891400D02*
X217447700Y-68891400D01*
X232223000Y-69163700D02*
X232120200Y-69060900D01*
X233150800Y-68030300D02*
X232120200Y-69060900D01*
X384369000Y-32385000D02*
X384369000Y-30809700D01*
X346269000Y-70485000D02*
X346269000Y-68909700D01*
X156023000Y-68896800D02*
X155931700Y-68896800D01*
X155931700Y-68896800D02*
X155805700Y-68770800D01*
X175073000Y-69163700D02*
X174806100Y-68896800D01*
X174806100Y-68896800D02*
X156023000Y-68896800D01*
X156023000Y-68896800D02*
X156023000Y-69364200D01*
X137227000Y-70739000D02*
X137227000Y-69163700D01*
X137227000Y-69163700D02*
X137725300Y-69163700D01*
X137725300Y-69163700D02*
X138118200Y-68770800D01*
X137227000Y-70739000D02*
X137227000Y-72314300D01*
X80393300Y-68847400D02*
X80077000Y-69163700D01*
X53894500Y-69153700D02*
X63901000Y-59147200D01*
X63901000Y-59147200D02*
X76876000Y-59147200D01*
X76876000Y-59147200D02*
X80393300Y-62664500D01*
X80393300Y-62664500D02*
X80393300Y-68847400D01*
X80393300Y-68847400D02*
X98810700Y-68847400D01*
X98810700Y-68847400D02*
X99127000Y-69163700D01*
X118177000Y-70739000D02*
X118177000Y-69163700D01*
X118177000Y-69163700D02*
X117861000Y-68847700D01*
X117861000Y-68847700D02*
X99443000Y-68847700D01*
X99443000Y-68847700D02*
X99127000Y-69163700D01*
X99127000Y-70739000D02*
X99127000Y-69163700D01*
X53894500Y-70729000D02*
X53894500Y-69153700D01*
X80077000Y-70739000D02*
X80077000Y-69163700D01*
X175073000Y-70739000D02*
X175073000Y-69163700D01*
X156023000Y-70739000D02*
X156023000Y-69364200D01*
X194123000Y-70739000D02*
X194123000Y-69163700D01*
X213173000Y-70739000D02*
X213173000Y-69163700D01*
X232223000Y-70739000D02*
X232223000Y-69163700D01*
%TO.N,COL0*%
X136852300Y-64556100D02*
X136852300Y-64086100D01*
X136852300Y-64086100D02*
X124118300Y-51352100D01*
X124118300Y-51352100D02*
X123711400Y-51352100D01*
X123711400Y-51352100D02*
X123551800Y-51192500D01*
X262116400Y-64935300D02*
X262116400Y-74319200D01*
X262116400Y-74319200D02*
X259448800Y-76986800D01*
X259448800Y-76986800D02*
X259448800Y-90831300D01*
X259448800Y-90831300D02*
X257949300Y-92330800D01*
X257949300Y-92330800D02*
X257949300Y-99472900D01*
X257949300Y-99472900D02*
X255859500Y-101562700D01*
X255859500Y-101562700D02*
X255859500Y-101969300D01*
X255859500Y-101969300D02*
X253925100Y-103903700D01*
X253925100Y-103903700D02*
X249941500Y-103903700D01*
X249941500Y-103903700D02*
X249576600Y-103538800D01*
X265019000Y-47671100D02*
X264221900Y-48468200D01*
X264221900Y-48468200D02*
X264221900Y-55228000D01*
X264221900Y-55228000D02*
X262116400Y-57333500D01*
X262116400Y-57333500D02*
X262116400Y-64935300D01*
%TO.N,COL1*%
X243859600Y-60333700D02*
X243859600Y-73526000D01*
X243859600Y-73526000D02*
X240325000Y-77060600D01*
X240325000Y-77060600D02*
X240325000Y-93558600D01*
X240325000Y-93558600D02*
X239208000Y-94675600D01*
X239208000Y-94675600D02*
X239208000Y-95312700D01*
X239208000Y-95312700D02*
X235331700Y-99189000D01*
X235331700Y-99189000D02*
X233660800Y-99189000D01*
X233660800Y-99189000D02*
X232872500Y-99977300D01*
X232872500Y-99977300D02*
X232872500Y-100888400D01*
X232872500Y-100888400D02*
X228613300Y-105147600D01*
X228613300Y-105147600D02*
X227541600Y-105147600D01*
X130121600Y-47576900D02*
X129213100Y-48485400D01*
X129213100Y-48485400D02*
X70771700Y-48485400D01*
X70771700Y-48485400D02*
X70551700Y-48265400D01*
X153316900Y-48843400D02*
X171584700Y-48843400D01*
X171584700Y-48843400D02*
X173973700Y-46454400D01*
X173973700Y-46454400D02*
X185217300Y-46454400D01*
X185217300Y-46454400D02*
X185425900Y-46245800D01*
X327919200Y-48326600D02*
X326632600Y-48326600D01*
X326632600Y-48326600D02*
X321926600Y-53032600D01*
%TO.N,COL2*%
X253996900Y-60828500D02*
X253996900Y-89610900D01*
X253996900Y-89610900D02*
X257086800Y-92700800D01*
X257086800Y-92700800D02*
X257086800Y-99698500D01*
X257086800Y-99698500D02*
X253624600Y-103160700D01*
X253624600Y-103160700D02*
X253624600Y-103178400D01*
%TO.N,COL3*%
X315399500Y-39804800D02*
X315399500Y-39618100D01*
X315399500Y-39618100D02*
X322011900Y-33005700D01*
X322011900Y-33005700D02*
X322560300Y-33005700D01*
X322560300Y-33005700D02*
X326153600Y-36599000D01*
X326153600Y-36599000D02*
X326153600Y-44414700D01*
X326153600Y-44414700D02*
X327369900Y-45631000D01*
X216272700Y-41053900D02*
X207287000Y-41053900D01*
X207287000Y-41053900D02*
X202849000Y-45491900D01*
X202849000Y-45491900D02*
X202849000Y-46119900D01*
X178815000Y-45729100D02*
X179052200Y-45491900D01*
X179052200Y-45491900D02*
X202849000Y-45491900D01*
X251135900Y-46840100D02*
X251135900Y-43559900D01*
X251135900Y-43559900D02*
X253115300Y-41580500D01*
X251135900Y-46840100D02*
X251368400Y-46840100D01*
X251368400Y-46840100D02*
X252065500Y-47537200D01*
X252065500Y-47537200D02*
X252065500Y-49231400D01*
X252065500Y-49231400D02*
X250427600Y-50869300D01*
X250427600Y-50869300D02*
X250427600Y-58341100D01*
X250427600Y-58341100D02*
X252893100Y-60806600D01*
X252893100Y-60806600D02*
X252893100Y-93323900D01*
X252893100Y-93323900D02*
X248733400Y-97483600D01*
X248733400Y-97483600D02*
X248733400Y-104110500D01*
%TO.N,COL4*%
X277998800Y-53456100D02*
X277998800Y-54082200D01*
X277998800Y-54082200D02*
X272957800Y-59123200D01*
X272957800Y-59123200D02*
X272957800Y-90338900D01*
X272957800Y-90338900D02*
X263061000Y-100235700D01*
X277998800Y-53456100D02*
X278044700Y-53456100D01*
X273940100Y-47769600D02*
X277998800Y-51828300D01*
X277998800Y-51828300D02*
X277998800Y-53456100D01*
%TO.N,COL5*%
X226549100Y-102397200D02*
X225356300Y-103590000D01*
X225356300Y-103590000D02*
X204918300Y-103590000D01*
X204918300Y-103590000D02*
X203551900Y-104956400D01*
X203551900Y-104956400D02*
X186929900Y-104956400D01*
X186929900Y-104956400D02*
X186732100Y-104758600D01*
X186732100Y-104758600D02*
X155886100Y-104758600D01*
X155886100Y-104758600D02*
X155262000Y-105382700D01*
X243894500Y-54775100D02*
X243894500Y-57966300D01*
X243894500Y-57966300D02*
X235822600Y-66038200D01*
X235822600Y-66038200D02*
X235822600Y-78900700D01*
X235822600Y-78900700D02*
X226549100Y-88174200D01*
X226549100Y-88174200D02*
X226549100Y-102397200D01*
X228981500Y-102397200D02*
X226549100Y-102397200D01*
X233579200Y-48636800D02*
X231956800Y-47014400D01*
X231956800Y-47014400D02*
X174786100Y-47014400D01*
X174786100Y-47014400D02*
X174591200Y-47209300D01*
X111156700Y-44953800D02*
X111875800Y-45672900D01*
X111875800Y-45672900D02*
X149707200Y-45672900D01*
X149707200Y-45672900D02*
X150785300Y-46751000D01*
X150785300Y-46751000D02*
X156702800Y-46751000D01*
X156702800Y-46751000D02*
X156909100Y-46544700D01*
%TO.N,COL6*%
X175786100Y-48886500D02*
X174382500Y-50290100D01*
X174382500Y-50290100D02*
X174326000Y-50290100D01*
X134079100Y-103812800D02*
X136897500Y-100994400D01*
X136897500Y-100994400D02*
X137625600Y-100994400D01*
X137625600Y-100994400D02*
X142826200Y-95793800D01*
X142826200Y-95793800D02*
X142826200Y-93407300D01*
X142826200Y-93407300D02*
X141153000Y-91734100D01*
X141153000Y-91734100D02*
X141153000Y-88609600D01*
X141153000Y-88609600D02*
X152535500Y-77227100D01*
X152535500Y-77227100D02*
X152535500Y-73605200D01*
X152535500Y-73605200D02*
X150441400Y-71511100D01*
X150441400Y-71511100D02*
X150441400Y-69985200D01*
X150441400Y-69985200D02*
X152578500Y-67848100D01*
X152578500Y-67848100D02*
X154556100Y-67848100D01*
X154556100Y-67848100D02*
X160940300Y-61463900D01*
X160940300Y-61463900D02*
X164106000Y-61463900D01*
X164106000Y-61463900D02*
X167607000Y-57962900D01*
X234304600Y-49607800D02*
X232983400Y-49607800D01*
X232983400Y-49607800D02*
X230840400Y-47464800D01*
X230840400Y-47464800D02*
X177207800Y-47464800D01*
X177207800Y-47464800D02*
X175786100Y-48886500D01*
%TO.N,COL7*%
X246098900Y-48439500D02*
X246098900Y-47570000D01*
X246098900Y-47570000D02*
X245450500Y-46921600D01*
X245450500Y-46921600D02*
X244546500Y-46921600D01*
X244546500Y-46921600D02*
X240794600Y-50673500D01*
X240794600Y-50673500D02*
X240794600Y-53722900D01*
X240794600Y-53722900D02*
X242903200Y-55831500D01*
X242903200Y-55831500D02*
X242903200Y-57683800D01*
X242903200Y-57683800D02*
X234847200Y-65739800D01*
X234847200Y-65739800D02*
X234847200Y-76353300D01*
X234847200Y-76353300D02*
X226098800Y-85101700D01*
X226098800Y-85101700D02*
X226098800Y-101652100D01*
X226098800Y-101652100D02*
X224611200Y-103139700D01*
X224611200Y-103139700D02*
X206165600Y-103139700D01*
X206165600Y-103139700D02*
X205885300Y-102859400D01*
X64181000Y-59921000D02*
X64181000Y-76991900D01*
X64181000Y-76991900D02*
X71270400Y-84081300D01*
X71270400Y-84081300D02*
X71270400Y-96012400D01*
X71270400Y-96012400D02*
X77712700Y-102454700D01*
%TO.N,COL8*%
X177168600Y-86395000D02*
X185206600Y-78357000D01*
X185206600Y-78357000D02*
X197309400Y-78357000D01*
X197309400Y-78357000D02*
X201038200Y-74628200D01*
X201038200Y-74628200D02*
X201038200Y-71453600D01*
X201038200Y-71453600D02*
X213891000Y-58600800D01*
X213891000Y-58600800D02*
X213891000Y-57330400D01*
X213891000Y-57330400D02*
X215570500Y-55650900D01*
X215570500Y-55650900D02*
X215570500Y-52149400D01*
X215570500Y-52149400D02*
X215512400Y-52091300D01*
X177168600Y-86395000D02*
X173950800Y-86395000D01*
X173950800Y-86395000D02*
X169401600Y-90944200D01*
X169401600Y-90944200D02*
X169401600Y-93635800D01*
X169401600Y-93635800D02*
X159179600Y-103857800D01*
X159179600Y-103857800D02*
X151408600Y-103857800D01*
X151408600Y-103857800D02*
X151061500Y-103510700D01*
%TO.N,COL9*%
X128251800Y-103188600D02*
X128251800Y-103079300D01*
X128251800Y-103079300D02*
X131235800Y-100095300D01*
X131235800Y-100095300D02*
X131235800Y-91006300D01*
X131235800Y-91006300D02*
X133488400Y-88753700D01*
X133488400Y-88753700D02*
X133865500Y-88753700D01*
X133865500Y-88753700D02*
X140363500Y-82255700D01*
X140363500Y-82255700D02*
X140363500Y-67402600D01*
X140363500Y-67402600D02*
X140749500Y-67016600D01*
X140749500Y-67016600D02*
X140749500Y-64239100D01*
X140749500Y-64239100D02*
X145900300Y-59088300D01*
X145900300Y-59088300D02*
X146258800Y-59088300D01*
X146258800Y-59088300D02*
X147627900Y-57719200D01*
X147627900Y-57719200D02*
X147627900Y-55453900D01*
X147627900Y-55453900D02*
X145091400Y-52917400D01*
X145091400Y-52917400D02*
X145091400Y-50353000D01*
X145091400Y-50353000D02*
X147776600Y-47667800D01*
X147776600Y-47667800D02*
X153804000Y-47667800D01*
X153804000Y-47667800D02*
X153883600Y-47747400D01*
X153883600Y-47747400D02*
X163518300Y-47747400D01*
X163518300Y-47747400D02*
X165513800Y-45751900D01*
X165513800Y-45751900D02*
X171739600Y-45751900D01*
X176836800Y-40654700D02*
X171739600Y-45751900D01*
X352855700Y-40316300D02*
X359236400Y-46697000D01*
X359236400Y-46697000D02*
X371198600Y-46697000D01*
%TO.N,COL10*%
X222964300Y-101951300D02*
X224747900Y-100167700D01*
X224747900Y-100167700D02*
X224747900Y-83810600D01*
X224747900Y-83810600D02*
X231272600Y-77285900D01*
X330444000Y-48686200D02*
X329416200Y-48686200D01*
X329416200Y-48686200D02*
X326737400Y-51365000D01*
X326737400Y-51365000D02*
X326737400Y-52853700D01*
X326737400Y-52853700D02*
X322935300Y-56655800D01*
X322935300Y-56655800D02*
X322935300Y-61674200D01*
X322935300Y-61674200D02*
X321987600Y-62621900D01*
X330116800Y-42730200D02*
X330116800Y-43216000D01*
X330116800Y-43216000D02*
X331311700Y-44410900D01*
X331311700Y-44410900D02*
X331311700Y-47818500D01*
X331311700Y-47818500D02*
X330444000Y-48686200D01*
%TO.N,COL11*%
X181139400Y-102192100D02*
X179747400Y-103584100D01*
X179747400Y-103584100D02*
X162119700Y-103584100D01*
X162119700Y-103584100D02*
X162114800Y-103579200D01*
X181139400Y-102192100D02*
X181139400Y-95571700D01*
X181139400Y-95571700D02*
X182998800Y-93712300D01*
X182998800Y-93712300D02*
X182998800Y-86638800D01*
X182998800Y-86638800D02*
X189629700Y-80007900D01*
X335380700Y-45486700D02*
X334750800Y-46116600D01*
X334750800Y-46116600D02*
X334750800Y-47316000D01*
X334750800Y-47316000D02*
X329819900Y-52246900D01*
X329819900Y-52246900D02*
X329819900Y-64305400D01*
X329819900Y-64305400D02*
X324792900Y-69332400D01*
X398915500Y-98633300D02*
X398915500Y-100136800D01*
X398915500Y-100136800D02*
X394848300Y-104204000D01*
X335380700Y-45486700D02*
X335380700Y-45299800D01*
X335380700Y-45299800D02*
X333311900Y-43231000D01*
%TO.N,COL12*%
X330442100Y-103278600D02*
X330442100Y-100466600D01*
X330442100Y-100466600D02*
X324042500Y-94067000D01*
X324042500Y-94067000D02*
X324042500Y-58957400D01*
X324042500Y-58957400D02*
X327933700Y-55066200D01*
X327933700Y-55066200D02*
X327933700Y-52222400D01*
X327933700Y-52222400D02*
X331786500Y-48369600D01*
X331786500Y-48369600D02*
X331786500Y-44248800D01*
X331786500Y-44248800D02*
X331642200Y-44104500D01*
X331642200Y-44104500D02*
X331642200Y-43229600D01*
X331642200Y-43229600D02*
X331642100Y-43229600D01*
X331642100Y-43229600D02*
X330365500Y-41953000D01*
X330365500Y-41953000D02*
X327235200Y-41953000D01*
X327235200Y-41953000D02*
X326891400Y-42296800D01*
%TO.N,COL13*%
X324476300Y-46480900D02*
X323122600Y-45127200D01*
X323122600Y-45127200D02*
X323019800Y-45127200D01*
X328126800Y-106543700D02*
X327341700Y-106543700D01*
X327341700Y-106543700D02*
X321700400Y-100902400D01*
X321700400Y-100902400D02*
X321700400Y-91035700D01*
X321700400Y-91035700D02*
X322087000Y-90649100D01*
X322087000Y-90649100D02*
X322087000Y-69474100D01*
X322087000Y-69474100D02*
X321040600Y-68427700D01*
X321040600Y-68427700D02*
X321040600Y-52612100D01*
X321040600Y-52612100D02*
X324476300Y-49176400D01*
X324476300Y-49176400D02*
X324476300Y-46480900D01*
X324476300Y-46480900D02*
X330543600Y-46480900D01*
%TO.N,ROW0*%
X365319000Y-30809700D02*
X366064600Y-30064100D01*
X366064600Y-30064100D02*
X393017200Y-30064100D01*
X393017200Y-30064100D02*
X405019400Y-42066300D01*
X405019400Y-42066300D02*
X405019400Y-60305500D01*
X405019400Y-60305500D02*
X403805900Y-61519000D01*
X403805900Y-61519000D02*
X403805900Y-65169400D01*
X403805900Y-65169400D02*
X405493900Y-66857400D01*
X405493900Y-66857400D02*
X405493900Y-85884800D01*
X405493900Y-85884800D02*
X403419000Y-87959700D01*
X403419000Y-89535000D02*
X403419000Y-87959700D01*
X312238700Y-35730400D02*
X317426600Y-30542500D01*
X317426600Y-30542500D02*
X365051800Y-30542500D01*
X365051800Y-30542500D02*
X365319000Y-30809700D01*
X312238700Y-35730400D02*
X311775100Y-35266800D01*
X311775100Y-35266800D02*
X311415500Y-35266800D01*
X311415500Y-35266800D02*
X304957200Y-28808500D01*
X304957200Y-28808500D02*
X239106700Y-28808500D01*
X239106700Y-28808500D02*
X237176000Y-30739200D01*
X312127700Y-44742600D02*
X312238700Y-44631600D01*
X312238700Y-44631600D02*
X312238700Y-35730400D01*
X365319000Y-32385000D02*
X365319000Y-30809700D01*
X301448000Y-69153700D02*
X301448000Y-65762500D01*
X301448000Y-65762500D02*
X312976100Y-54234400D01*
X312976100Y-54234400D02*
X312976100Y-49975600D01*
X312976100Y-49975600D02*
X314683400Y-48268300D01*
X314683400Y-48268300D02*
X314683400Y-45783800D01*
X180026000Y-31018600D02*
X179736400Y-30729000D01*
X179736400Y-30729000D02*
X161265600Y-30729000D01*
X161265600Y-30729000D02*
X160976000Y-31018600D01*
X199076000Y-31018600D02*
X198814500Y-30757100D01*
X198814500Y-30757100D02*
X180287500Y-30757100D01*
X180287500Y-30757100D02*
X180026000Y-31018600D01*
X180026000Y-32593900D02*
X180026000Y-31018600D01*
X218126000Y-31018600D02*
X217873600Y-30766200D01*
X217873600Y-30766200D02*
X199328400Y-30766200D01*
X199328400Y-30766200D02*
X199076000Y-31018600D01*
X199076000Y-32593900D02*
X199076000Y-31018600D01*
X237176000Y-30739200D02*
X218405400Y-30739200D01*
X218405400Y-30739200D02*
X218126000Y-31018600D01*
X65726000Y-31018600D02*
X65471500Y-30764100D01*
X65471500Y-30764100D02*
X46850800Y-30764100D01*
X46850800Y-30764100D02*
X46596300Y-31018600D01*
X46596300Y-32593900D02*
X46596300Y-31018600D01*
X84776000Y-31018600D02*
X84517500Y-30760100D01*
X84517500Y-30760100D02*
X65984500Y-30760100D01*
X65984500Y-30760100D02*
X65726000Y-31018600D01*
X65726000Y-32593900D02*
X65726000Y-31018600D01*
X103826000Y-31018600D02*
X103533600Y-30726200D01*
X103533600Y-30726200D02*
X85068400Y-30726200D01*
X85068400Y-30726200D02*
X84776000Y-31018600D01*
X84776000Y-32593900D02*
X84776000Y-31018600D01*
X122876000Y-31018600D02*
X122619200Y-30761800D01*
X122619200Y-30761800D02*
X104082800Y-30761800D01*
X104082800Y-30761800D02*
X103826000Y-31018600D01*
X237176000Y-30739200D02*
X237176000Y-31018600D01*
X218126000Y-32593900D02*
X218126000Y-31018600D01*
X237176000Y-32593900D02*
X237176000Y-31018600D01*
X141926000Y-31018600D02*
X141637400Y-30730000D01*
X141637400Y-30730000D02*
X123164600Y-30730000D01*
X123164600Y-30730000D02*
X122876000Y-31018600D01*
X160976000Y-31018600D02*
X160716600Y-30759200D01*
X160716600Y-30759200D02*
X142185400Y-30759200D01*
X142185400Y-30759200D02*
X141926000Y-31018600D01*
X141926000Y-32593900D02*
X141926000Y-31018600D01*
X160976000Y-32593900D02*
X160976000Y-31018600D01*
X103826000Y-32593900D02*
X103826000Y-31018600D01*
X122876000Y-32593900D02*
X122876000Y-31018600D01*
X301448000Y-70729000D02*
X301448000Y-69153700D01*
%TO.N,ROW3*%
X127702000Y-88213700D02*
X128062600Y-87853100D01*
X403419000Y-53010300D02*
X403419000Y-61269000D01*
X403419000Y-61269000D02*
X403354000Y-61334000D01*
X403354000Y-61334000D02*
X403354000Y-67495500D01*
X184852000Y-88085000D02*
X184421000Y-88085000D01*
X184421000Y-88085000D02*
X183950800Y-87614800D01*
X203902000Y-88213700D02*
X203644700Y-87956400D01*
X203644700Y-87956400D02*
X184980600Y-87956400D01*
X184980600Y-87956400D02*
X184852000Y-88085000D01*
X184852000Y-88085000D02*
X184852000Y-88213700D01*
X165802000Y-87938500D02*
X166125700Y-87614800D01*
X165802000Y-87938500D02*
X147027200Y-87938500D01*
X147027200Y-87938500D02*
X146752000Y-88213700D01*
X165802000Y-88213700D02*
X165802000Y-87938500D01*
X403354000Y-67495500D02*
X403419000Y-67495500D01*
X403419000Y-67495500D02*
X405033500Y-69110000D01*
X405033500Y-69110000D02*
X405033500Y-79135700D01*
X405033500Y-79135700D02*
X401815800Y-82353400D01*
X401815800Y-82353400D02*
X401815800Y-93117300D01*
X401815800Y-93117300D02*
X400967500Y-93965600D01*
X400967500Y-93965600D02*
X400967500Y-104929400D01*
X384369000Y-68909700D02*
X385783200Y-67495500D01*
X385783200Y-67495500D02*
X403354000Y-67495500D01*
X311608000Y-108956000D02*
X311608000Y-112446600D01*
X311608000Y-112446600D02*
X320139700Y-120978300D01*
X320139700Y-120978300D02*
X374051100Y-120978300D01*
X374051100Y-120978300D02*
X384369000Y-110660400D01*
X384369000Y-110660400D02*
X384369000Y-110160300D01*
X306713000Y-99384200D02*
X316340600Y-89756600D01*
X316340600Y-89756600D02*
X316340600Y-84697200D01*
X316340600Y-84697200D02*
X317361500Y-83676300D01*
X317361500Y-83676300D02*
X317361500Y-83528000D01*
X317361500Y-83528000D02*
X318851000Y-82038500D01*
X318851000Y-82038500D02*
X318851000Y-75407400D01*
X318851000Y-75407400D02*
X318899400Y-75359000D01*
X318899400Y-75359000D02*
X318899400Y-74711200D01*
X318899400Y-74711200D02*
X319443100Y-74167500D01*
X319443100Y-74167500D02*
X319443100Y-73566500D01*
X319443100Y-73566500D02*
X319014200Y-73137600D01*
X319014200Y-73137600D02*
X319014200Y-72232200D01*
X319014200Y-72232200D02*
X318789100Y-72007100D01*
X318789100Y-72007100D02*
X318789100Y-43173600D01*
X318789100Y-43173600D02*
X322590100Y-39372600D01*
X322590100Y-39372600D02*
X323821800Y-39372600D01*
X323821800Y-39372600D02*
X324300700Y-38893700D01*
X108652000Y-87962900D02*
X89852800Y-87962900D01*
X89852800Y-87962900D02*
X89602000Y-88213700D01*
X127702000Y-88213700D02*
X127451200Y-87962900D01*
X127451200Y-87962900D02*
X108652000Y-87962900D01*
X108652000Y-87962900D02*
X108652000Y-88213700D01*
X89602000Y-89789000D02*
X89602000Y-88213700D01*
X127702000Y-89789000D02*
X127702000Y-88213700D01*
X108652000Y-89789000D02*
X108652000Y-88213700D01*
X58687500Y-89779000D02*
X58687500Y-91354300D01*
X89602000Y-89789000D02*
X89602000Y-91364300D01*
X89602000Y-91364300D02*
X89602000Y-91872700D01*
X89602000Y-91872700D02*
X78276700Y-103198000D01*
X78276700Y-103198000D02*
X70531200Y-103198000D01*
X70531200Y-103198000D02*
X58687500Y-91354300D01*
X400967500Y-104929400D02*
X385669000Y-104929400D01*
X385669000Y-104929400D02*
X384369000Y-106229400D01*
X384369000Y-106229400D02*
X384369000Y-107009700D01*
X306713000Y-99384200D02*
X306712900Y-99384300D01*
X306712900Y-99384300D02*
X306712900Y-99941400D01*
X306712900Y-99941400D02*
X311608000Y-104836500D01*
X311608000Y-104836500D02*
X311608000Y-107380700D01*
X304591300Y-97262600D02*
X306713000Y-99384200D01*
X203902000Y-89789000D02*
X203902000Y-88213700D01*
X222701900Y-91614400D02*
X216311700Y-91614400D01*
X216311700Y-91614400D02*
X214486300Y-89789000D01*
X214486300Y-89789000D02*
X203902000Y-89789000D01*
X222701900Y-91614400D02*
X222701900Y-92548600D01*
X222701900Y-92548600D02*
X224020200Y-93866900D01*
X222952000Y-91364300D02*
X222701900Y-91614400D01*
X400967500Y-104929400D02*
X401338700Y-104929400D01*
X401338700Y-104929400D02*
X403419000Y-107009700D01*
X184852000Y-89789000D02*
X184852000Y-88213700D01*
X146752000Y-89789000D02*
X146752000Y-88213700D01*
X403419000Y-108585000D02*
X403419000Y-107009700D01*
X384369000Y-108585000D02*
X384369000Y-107009700D01*
X384369000Y-108607700D02*
X384369000Y-108585000D01*
X384369000Y-108607700D02*
X384369000Y-110160300D01*
X311608000Y-108168300D02*
X311608000Y-108956000D01*
X311608000Y-108168300D02*
X311608000Y-107380700D01*
X222952000Y-89789000D02*
X222952000Y-91364300D01*
X384369000Y-70485000D02*
X384369000Y-68909700D01*
X165802000Y-89789000D02*
X165802000Y-88213700D01*
X403419000Y-51435000D02*
X403419000Y-53010300D01*
%TO.N,ROW4*%
X154645800Y-108956000D02*
X152820400Y-110781400D01*
X152820400Y-110781400D02*
X148570400Y-110781400D01*
X148570400Y-110781400D02*
X144491500Y-106702500D01*
X144491500Y-106702500D02*
X144491500Y-106339300D01*
X144491500Y-106339300D02*
X144037900Y-105885700D01*
X144037900Y-105885700D02*
X143479100Y-105885700D01*
X143479100Y-105885700D02*
X142008200Y-107356600D01*
X142008200Y-107356600D02*
X142008200Y-112925300D01*
X142008200Y-112925300D02*
X141825500Y-113108000D01*
X141825500Y-113108000D02*
X123430700Y-113108000D01*
X123430700Y-113108000D02*
X120854000Y-110531300D01*
X120854000Y-110531300D02*
X120575200Y-110810100D01*
X120575200Y-110810100D02*
X115064000Y-110810100D01*
X115064000Y-110810100D02*
X113209900Y-108956000D01*
X113209900Y-108956000D02*
X96978000Y-108956000D01*
X120854000Y-108956000D02*
X120854000Y-110531300D01*
X154645800Y-108956000D02*
X155036600Y-108956000D01*
X154255000Y-108956000D02*
X154645800Y-108956000D01*
X204283000Y-108405100D02*
X207527300Y-105160800D01*
X207527300Y-105160800D02*
X224851400Y-105160800D01*
X224851400Y-105160800D02*
X226413800Y-106723200D01*
X226413800Y-106723200D02*
X234623500Y-106723200D01*
X234623500Y-106723200D02*
X235281000Y-107380700D01*
X185233000Y-110541300D02*
X189916300Y-115224600D01*
X189916300Y-115224600D02*
X193452400Y-115224600D01*
X193452400Y-115224600D02*
X197592500Y-111084500D01*
X197592500Y-111084500D02*
X201603600Y-111084500D01*
X201603600Y-111084500D02*
X204283000Y-108405100D01*
X248008100Y-104410900D02*
X248433000Y-104835800D01*
X248433000Y-104835800D02*
X266010100Y-104835800D01*
X266010100Y-104835800D02*
X268555000Y-107380700D01*
X251273000Y-70739000D02*
X251273000Y-77704800D01*
X251273000Y-77704800D02*
X249112000Y-79865800D01*
X249112000Y-79865800D02*
X249112000Y-93693300D01*
X249112000Y-93693300D02*
X248008100Y-94797200D01*
X248008100Y-94797200D02*
X248008100Y-104410900D01*
X248008100Y-104410900D02*
X238250800Y-104410900D01*
X238250800Y-104410900D02*
X235281000Y-107380700D01*
X235281000Y-108956000D02*
X235281000Y-107380700D01*
X155055200Y-108956000D02*
X155855300Y-108956000D01*
X155055200Y-108956000D02*
X155036600Y-108956000D01*
X155855300Y-108956000D02*
X176115900Y-108956000D01*
X176115900Y-108956000D02*
X177959400Y-110799500D01*
X177959400Y-110799500D02*
X184974800Y-110799500D01*
X184974800Y-110799500D02*
X185233000Y-110541300D01*
X204283000Y-108966000D02*
X204283000Y-108405100D01*
X365319000Y-108585000D02*
X365319000Y-110657900D01*
X365319000Y-110657900D02*
X356624500Y-119352400D01*
X356624500Y-119352400D02*
X356100400Y-119352400D01*
X303013500Y-120808200D02*
X292746600Y-110541300D01*
X292746600Y-110541300D02*
X290135000Y-110541300D01*
X365319000Y-107841500D02*
X365319000Y-108585000D01*
X350133700Y-39912300D02*
X358614800Y-48393400D01*
X358614800Y-48393400D02*
X363852700Y-48393400D01*
X363852700Y-48393400D02*
X365319000Y-49859700D01*
X268555000Y-108956000D02*
X268555000Y-107380700D01*
X290135000Y-110541300D02*
X289826600Y-110849700D01*
X289826600Y-110849700D02*
X283083700Y-110849700D01*
X283083700Y-110849700D02*
X281190000Y-108956000D01*
X281190000Y-108956000D02*
X268555000Y-108956000D01*
X365319000Y-53010300D02*
X365319000Y-53616600D01*
X365319000Y-53616600D02*
X349868600Y-69067000D01*
X349868600Y-69067000D02*
X349868600Y-82158100D01*
X349868600Y-82158100D02*
X362437000Y-94726500D01*
X362437000Y-94726500D02*
X362437000Y-104127700D01*
X362437000Y-104127700D02*
X365319000Y-107009700D01*
X49226000Y-108956000D02*
X66554200Y-108956000D01*
X66554200Y-108956000D02*
X68408100Y-110809900D01*
X68408100Y-110809900D02*
X72823400Y-110809900D01*
X72823400Y-110809900D02*
X73102000Y-110531300D01*
X96978000Y-108956000D02*
X96978000Y-110531300D01*
X96978000Y-110531300D02*
X96434800Y-111074500D01*
X96434800Y-111074500D02*
X90350000Y-111074500D01*
X90350000Y-111074500D02*
X86166400Y-115258100D01*
X86166400Y-115258100D02*
X77828800Y-115258100D01*
X77828800Y-115258100D02*
X73102000Y-110531300D01*
X73102000Y-108956000D02*
X73102000Y-110531300D01*
X290135000Y-108966000D02*
X290135000Y-110541300D01*
X365319000Y-107841500D02*
X365319000Y-107009700D01*
X365319000Y-49859700D02*
X365605500Y-49573200D01*
X365605500Y-49573200D02*
X384082500Y-49573200D01*
X384082500Y-49573200D02*
X384369000Y-49859700D01*
X365319000Y-51435000D02*
X365319000Y-53010300D01*
X365319000Y-51435000D02*
X365319000Y-49859700D01*
X384369000Y-51435000D02*
X384369000Y-49859700D01*
X185233000Y-108966000D02*
X185233000Y-110541300D01*
%TO.N,ROW1*%
X227778000Y-53291100D02*
X227550600Y-53518500D01*
X227550600Y-53518500D02*
X221534000Y-53518500D01*
X221534000Y-53518500D02*
X218931200Y-50915700D01*
X218931200Y-50915700D02*
X211101600Y-50915700D01*
X211101600Y-50915700D02*
X210328300Y-51689000D01*
X227778000Y-53291100D02*
X228238500Y-53291100D01*
X228238500Y-53291100D02*
X233218200Y-58270800D01*
X227778000Y-53063800D02*
X227778000Y-53291100D01*
X132528000Y-49863800D02*
X132115200Y-49451000D01*
X132115200Y-49451000D02*
X113882800Y-49451000D01*
X113882800Y-49451000D02*
X113478000Y-49855800D01*
X293677900Y-56092000D02*
X293236600Y-55650700D01*
X293236600Y-55650700D02*
X293236600Y-52839200D01*
X293236600Y-52839200D02*
X299016400Y-47059400D01*
X299016400Y-47059400D02*
X305615400Y-47059400D01*
X305615400Y-47059400D02*
X308675900Y-50119900D01*
X308675900Y-50119900D02*
X308687000Y-50119900D01*
X308687000Y-51695200D02*
X308687000Y-50119900D01*
X113478000Y-49855800D02*
X113478000Y-50113700D01*
X113478000Y-49855800D02*
X94685900Y-49855800D01*
X94685900Y-49855800D02*
X94428000Y-50113700D01*
X75378000Y-49838000D02*
X75378000Y-50113700D01*
X51512000Y-50119900D02*
X53700900Y-47931000D01*
X53700900Y-47931000D02*
X66782700Y-47931000D01*
X66782700Y-47931000D02*
X68689700Y-49838000D01*
X68689700Y-49838000D02*
X75378000Y-49838000D01*
X75378000Y-49838000D02*
X94152300Y-49838000D01*
X94152300Y-49838000D02*
X94428000Y-50113700D01*
X94428000Y-51689000D02*
X94428000Y-50113700D01*
X132528000Y-49863800D02*
X132566500Y-49825300D01*
X132528000Y-50113700D02*
X132528000Y-49863800D01*
X113478000Y-51689000D02*
X113478000Y-50113700D01*
X75378000Y-51689000D02*
X75378000Y-50113700D01*
X51512000Y-51695200D02*
X51512000Y-50119900D01*
X208728000Y-51689000D02*
X210328300Y-51689000D01*
X403419000Y-32385000D02*
X403419000Y-33960300D01*
X404532700Y-62233800D02*
X405510200Y-61256300D01*
X405510200Y-61256300D02*
X405510200Y-36051500D01*
X405510200Y-36051500D02*
X403419000Y-33960300D01*
X331237500Y-39801900D02*
X332542900Y-41107300D01*
X332542900Y-41107300D02*
X332542900Y-43506100D01*
X332542900Y-43506100D02*
X332752400Y-43715600D01*
X332752400Y-43715600D02*
X332752400Y-48677500D01*
X332752400Y-48677500D02*
X329087800Y-52342100D01*
X329087800Y-52342100D02*
X329087800Y-63598800D01*
X151578000Y-50113700D02*
X151289600Y-49825300D01*
X365649400Y-67853900D02*
X365319000Y-68184300D01*
X365319000Y-68184300D02*
X365319000Y-70485000D01*
X151578000Y-50113700D02*
X151829100Y-49862600D01*
X151829100Y-49862600D02*
X169468600Y-49862600D01*
X169468600Y-49862600D02*
X170628000Y-51022000D01*
X227778000Y-51689000D02*
X227778000Y-53063800D01*
X189678000Y-50113700D02*
X189398900Y-49834600D01*
X189398900Y-49834600D02*
X177772800Y-49834600D01*
X177772800Y-49834600D02*
X176585400Y-51022000D01*
X176585400Y-51022000D02*
X170628000Y-51022000D01*
X151578000Y-51689000D02*
X151578000Y-50113700D01*
X208728000Y-50113700D02*
X207025600Y-48411300D01*
X207025600Y-48411300D02*
X191380400Y-48411300D01*
X191380400Y-48411300D02*
X189678000Y-50113700D01*
X208728000Y-51689000D02*
X208728000Y-50113700D01*
X365319000Y-70485000D02*
X365319000Y-89535000D01*
X132528000Y-51689000D02*
X132528000Y-50113700D01*
X189678000Y-51689000D02*
X189678000Y-50113700D01*
X170628000Y-51689000D02*
X170628000Y-51022000D01*
%TO.N,VCC*%
X320813800Y-79399000D02*
X320813800Y-71787700D01*
X320813800Y-71787700D02*
X320140000Y-71113900D01*
X320140000Y-71113900D02*
X320140000Y-48448500D01*
X320140000Y-48448500D02*
X321182600Y-47405900D01*
X321182600Y-47405900D02*
X321182600Y-47128400D01*
X317547900Y-101513500D02*
X317547900Y-89595100D01*
X317547900Y-89595100D02*
X320813800Y-86329200D01*
X320813800Y-86329200D02*
X320813800Y-79399000D01*
X320813800Y-79399000D02*
X320850300Y-79399000D01*
X321182600Y-47128400D02*
X321182600Y-44587500D01*
X321182600Y-44587500D02*
X320744900Y-44149800D01*
X321182600Y-47128400D02*
X321460100Y-47128400D01*
%TO.N,LED_DATA*%
X316636200Y-83375800D02*
X316987900Y-83024100D01*
X316987900Y-83024100D02*
X316987900Y-39119000D01*
X316987900Y-39119000D02*
X317769700Y-38337200D01*
%TO.N,Net-(R1-Pad2)*%
X324691100Y-120096100D02*
X324533300Y-120253900D01*
X324533300Y-120253900D02*
X320052300Y-120253900D01*
X320052300Y-120253900D02*
X316791000Y-116992600D01*
X316791000Y-116992600D02*
X316791000Y-88537400D01*
X316791000Y-88537400D02*
X320242500Y-85085900D01*
X320242500Y-85085900D02*
X320242500Y-80349500D01*
X320242500Y-80349500D02*
X320125000Y-80232000D01*
X320125000Y-80232000D02*
X320125000Y-74759400D01*
X320125000Y-74759400D02*
X320343700Y-74540700D01*
X320343700Y-74540700D02*
X320343700Y-72287900D01*
X320343700Y-72287900D02*
X319689700Y-71633900D01*
X319689700Y-71633900D02*
X319689700Y-47749000D01*
X319689700Y-47749000D02*
X319976600Y-47462100D01*
X324691100Y-120096100D02*
X324691100Y-109094500D01*
X324691100Y-109094500D02*
X324691000Y-109094400D01*
%TO.N,Net-(R4-Pad2)*%
X330130200Y-39231000D02*
X330130200Y-39720300D01*
X330130200Y-39720300D02*
X330937100Y-40527200D01*
X330937100Y-40527200D02*
X331059400Y-40527200D01*
X331059400Y-40527200D02*
X332092500Y-41560300D01*
X332092500Y-41560300D02*
X332092500Y-43917900D01*
X332092500Y-43917900D02*
X332261400Y-44086800D01*
X332261400Y-44086800D02*
X332261400Y-48531600D01*
X332261400Y-48531600D02*
X328492400Y-52300600D01*
X328492400Y-52300600D02*
X328492400Y-63070300D01*
X328492400Y-63070300D02*
X325222000Y-66340700D01*
X325222000Y-66340700D02*
X325222000Y-67727100D01*
%TO.N,Net-(C90-Pad1)*%
X314399700Y-57021200D02*
X315219300Y-56201600D01*
X315219300Y-56201600D02*
X315219300Y-50438400D01*
X314399700Y-57021200D02*
X312235600Y-59185300D01*
X312235600Y-59185300D02*
X312235600Y-92818700D01*
%TO.N,Net-(C91-Pad1)*%
X310336800Y-64920800D02*
X310336800Y-57972800D01*
X310336800Y-57972800D02*
X314218800Y-54090800D01*
X314218800Y-54090800D02*
X314218800Y-50319000D01*
X314218800Y-50319000D02*
X314218900Y-50319000D01*
X322334900Y-68607100D02*
X322537300Y-68809500D01*
X322537300Y-68809500D02*
X322537300Y-93599200D01*
X322537300Y-93599200D02*
X322529100Y-93607400D01*
%TO.N,Net-(C92-Pad2)*%
X319508100Y-82566400D02*
X319508100Y-74739400D01*
X319508100Y-74739400D02*
X319893400Y-74354100D01*
X319893400Y-74354100D02*
X319893400Y-72474500D01*
X319893400Y-72474500D02*
X319239400Y-71820500D01*
X319239400Y-71820500D02*
X319239400Y-43757600D01*
X319239400Y-43757600D02*
X319514500Y-43482500D01*
%TO.N,Net-(R2-Pad1)*%
X316015300Y-72211300D02*
X316394900Y-71831700D01*
X316394900Y-71831700D02*
X316394900Y-42131100D01*
X316394900Y-42131100D02*
X315973100Y-41709300D01*
%TO.N,Net-(R3-Pad1)*%
X314211400Y-77105400D02*
X314211400Y-58499000D01*
X314211400Y-58499000D02*
X315944600Y-56765800D01*
X315944600Y-56765800D02*
X315944600Y-43067200D01*
X315944600Y-43067200D02*
X315587100Y-42709700D01*
%TO.N,Net-(D168-Pad2)*%
X300475600Y-61909500D02*
X304044000Y-61909500D01*
X304044000Y-61909500D02*
X312254600Y-53698900D01*
X312254600Y-53698900D02*
X312254600Y-50060200D01*
X312254600Y-50060200D02*
X313880000Y-48434800D01*
X313880000Y-48434800D02*
X313880000Y-39552100D01*
X313880000Y-39552100D02*
X321378800Y-32053300D01*
X321378800Y-32053300D02*
X322975100Y-32053300D01*
X322975100Y-32053300D02*
X327054200Y-36132400D01*
X327054200Y-36132400D02*
X327054200Y-36839600D01*
X327054200Y-36839600D02*
X328448700Y-38234100D01*
X328448700Y-38234100D02*
X330695700Y-38234100D01*
X330695700Y-38234100D02*
X336498800Y-44037200D01*
X336498800Y-44037200D02*
X336498800Y-47239900D01*
X336498800Y-47239900D02*
X334444800Y-49293900D01*
X334444800Y-49293900D02*
X334046700Y-49293900D01*
X334046700Y-49293900D02*
X330776800Y-52563800D01*
X330776800Y-52563800D02*
X330776800Y-55550800D01*
X330776800Y-55550800D02*
X336193200Y-60967200D01*
%TO.N,Net-(D94-Pad2)*%
X295079000Y-43801200D02*
X292786300Y-46093900D01*
X292786300Y-46093900D02*
X292786300Y-56754800D01*
X292786300Y-56754800D02*
X299767200Y-63735700D01*
X299767200Y-63735700D02*
X299767200Y-73635300D01*
X299767200Y-73635300D02*
X304417100Y-78285200D01*
X304417100Y-78285200D02*
X304417100Y-93620200D01*
X304417100Y-93620200D02*
X303837000Y-94200300D01*
X303837000Y-94200300D02*
X303837000Y-99236500D01*
X303837000Y-99236500D02*
X310004900Y-105404400D01*
X310004900Y-105404400D02*
X310004900Y-111529700D01*
X310004900Y-111529700D02*
X319950100Y-121474900D01*
X319950100Y-121474900D02*
X397181200Y-121474900D01*
X397181200Y-121474900D02*
X398070000Y-120586100D01*
%TO.N,Net-(D105-Pad2)*%
X218179700Y-63497700D02*
X218835400Y-62842000D01*
X218835400Y-62842000D02*
X223383700Y-62842000D01*
%TO.N,Net-(D113-Pad2)*%
X185280800Y-62868000D02*
X184809100Y-63339700D01*
X184809100Y-63339700D02*
X162463000Y-63339700D01*
%TO.N,Net-(D114-Pad2)*%
X325075300Y-73316900D02*
X328742200Y-76983800D01*
X328742200Y-76983800D02*
X328742200Y-80434000D01*
%TO.N,Net-(D121-Pad2)*%
X143420200Y-63296100D02*
X146725300Y-63296100D01*
X146725300Y-63296100D02*
X147153400Y-62868000D01*
%TO.N,Net-(D129-Pad2)*%
X86254900Y-61888400D02*
X87197500Y-62831000D01*
X87197500Y-62831000D02*
X109058000Y-62831000D01*
%TO.N,Net-(D130-Pad2)*%
X398669100Y-91602800D02*
X399497600Y-92431300D01*
X399497600Y-92431300D02*
X399497600Y-95557300D01*
X399497600Y-95557300D02*
X396530700Y-98524200D01*
%TO.N,Net-(D136-Pad2)*%
X314611500Y-43803500D02*
X314611500Y-39518400D01*
X314611500Y-39518400D02*
X321626300Y-32503600D01*
X321626300Y-32503600D02*
X322753600Y-32503600D01*
X322753600Y-32503600D02*
X326603900Y-36353900D01*
X326603900Y-36353900D02*
X326603900Y-37165700D01*
X326603900Y-37165700D02*
X331367100Y-41928900D01*
%TO.N,Net-(D141-Pad2)*%
X46061400Y-63892200D02*
X46061400Y-74026100D01*
X46061400Y-74026100D02*
X45284200Y-74803300D01*
X45284200Y-74803300D02*
X45284200Y-78587900D01*
X45284200Y-78587900D02*
X46583000Y-79886700D01*
%TO.N,Net-(D142-Pad2)*%
X355810400Y-98808700D02*
X357585700Y-100584000D01*
X357585700Y-100584000D02*
X360929300Y-100584000D01*
%TO.N,Net-(D146-Pad2)*%
X322517300Y-100644000D02*
X323081000Y-101207700D01*
X323081000Y-101207700D02*
X328115100Y-101207700D01*
%TO.N,Net-(D150-Pad2)*%
X256584800Y-101863100D02*
X274879700Y-101863100D01*
X274879700Y-101863100D02*
X275946800Y-100796000D01*
X275946800Y-100796000D02*
X292255900Y-100796000D01*
X292255900Y-100796000D02*
X292424900Y-100965000D01*
%TO.N,Net-(D152-Pad2)*%
X394330500Y-61384000D02*
X394330500Y-55987500D01*
X394330500Y-55987500D02*
X397790700Y-52527300D01*
X397790700Y-52527300D02*
X397790700Y-45228900D01*
X397790700Y-45228900D02*
X398069000Y-44950600D01*
%TO.N,Net-(D154-Pad2)*%
X233898300Y-99977300D02*
X238418400Y-99977300D01*
X238418400Y-99977300D02*
X238473300Y-99922400D01*
%TO.N,Net-(D160-Pad2)*%
X379976400Y-62427100D02*
X376055800Y-62427100D01*
X376055800Y-62427100D02*
X375557500Y-62925400D01*
%TO.N,Net-(D162-Pad2)*%
X195782600Y-100117300D02*
X196675500Y-101010200D01*
X196675500Y-101010200D02*
X218565800Y-101010200D01*
%TO.N,Net-(C92-Pad1)*%
X317816000Y-82030100D02*
X317438200Y-81652300D01*
X317438200Y-81652300D02*
X317438200Y-42244200D01*
X317438200Y-42244200D02*
X321289700Y-38392700D01*
X321289700Y-38392700D02*
X321289700Y-34817300D01*
X321289700Y-34817300D02*
X321289800Y-34817300D01*
%TO.N,Net-(J2-Pad3)*%
X322270700Y-33772600D02*
X322355200Y-33772600D01*
X322355200Y-33772600D02*
X323015500Y-34432900D01*
X323015500Y-34432900D02*
X323015500Y-38310300D01*
X323015500Y-38310300D02*
X318338800Y-42987000D01*
X318338800Y-42987000D02*
X318338800Y-73488000D01*
X318338800Y-73488000D02*
X318717800Y-73867000D01*
%TO.N,Net-(J2-Pad2)*%
X318174100Y-75058500D02*
X317888500Y-74772900D01*
X317888500Y-74772900D02*
X317888500Y-42430800D01*
X317888500Y-42430800D02*
X322290200Y-38029100D01*
X322290200Y-38029100D02*
X322290200Y-34772900D01*
%TD*%
M02*
