M48
; DRILL file {KiCad (5.1.10)-1} date 12/12/21 17:00:22
; FORMAT={-:-/ absolute / inch / decimal}
; #@! TF.CreationDate,2021-12-12T17:00:22-08:00
; #@! TF.GenerationSoftware,Kicad,Pcbnew,(5.1.10)-1
; #@! TF.FileFunction,Plated,1,2,PTH
FMAT,2
INCH
T1C0.0157
T2C0.0394
%
G90
G05
T1
X1.4954Y-1.85
X1.7076Y-2.4405
X1.7368Y-1.8514
X1.8185Y-2.5211
X1.8362Y-3.1459
X1.872Y-3.2957
X1.9298Y-3.3527
X2.0768Y-1.85
X2.2941Y-1.8576
X2.4808Y-3.6392
X2.6345Y-1.1724
X2.6933Y-2.5099
X2.7187Y-1.802
X2.7306Y-3.3242
X2.7492Y-3.3718
X2.7517Y-0.8717
X2.8221Y-0.978
X2.9181Y-2.6943
X2.9296Y-1.9542
X2.9551Y-2.3381
X2.9961Y-0.9337
X2.9995Y-1.802
X3.1132Y-0.4893
X3.1356Y-3.3512
X3.1998Y-2.7034
X3.323Y-1.8101
X3.3376Y-1.1724
X3.3694Y-3.3668
X3.4253Y-1.9215
X3.4524Y-3.127
X3.4748Y-1.8465
X3.4825Y-3.0781
X3.5045Y-3.3062
X3.5574Y-3.3774
X3.5674Y-3.6088
X3.5713Y-3.3354
X3.6713Y-1.9542
X3.6773Y-4.6976
X3.6821Y-1.0068
X3.7979Y-3.1042
X3.8238Y-1.8864
X3.8606Y-2.3666
X3.8881Y-2.7034
X3.9415Y-3.974
X3.9461Y-3.9322
X3.9777Y-1.7809
X4.0089Y-3.3261
X4.0734Y-0.8717
X4.0735Y-3.2284
X4.093Y-3.0837
X4.097Y-4.0223
X4.1432Y-1.8017
X4.1507Y-1.6068
X4.1768Y-1.9103
X4.1796Y-2.8239
X4.188Y-3.3573
X4.1925Y-3.2812
X4.1939Y-0.4907
X4.2561Y-3.6141
X4.2576Y-3.3122
X4.2967Y-1.9404
X4.3501Y-1.8743
X4.5181Y-0.9307
X4.5676Y-3.5348
X4.6526Y-2.708
X4.6551Y-4.6883
X4.729Y-3.3466
X4.8378Y-3.9661
X4.9185Y-0.974
X4.9788Y-1.8441
X5.048Y-3.2761
X5.0908Y-3.4147
X5.1055Y-1.8169
X5.1862Y-4.2919
X5.2043Y-3.3005
X5.216Y-2.1031
X5.2193Y-3.4557
X5.268Y-0.9665
X5.2806Y-2.0207
X5.4519Y-3.3079
X5.4742Y-1.8931
X5.575Y-1.2007
X5.6126Y-3.3151
X5.6437Y-1.4243
X5.7798Y-3.3664
X5.8645Y-1.1379
X5.8678Y-1.8043
X5.9522Y-1.85
X5.9692Y-1.6355
X6.0206Y-4.3232
X6.0292Y-2.3213
X6.0872Y-1.9708
X6.0874Y-4.8933
X6.1251Y-1.8839
X6.1403Y-1.6421
X6.1806Y-3.941
X6.1949Y-4.739
X6.196Y-3.4296
X6.2036Y-2.7123
X6.2441Y-3.314
X6.2655Y-1.863
X6.2765Y-2.6689
X6.2937Y-1.7817
X6.301Y-1.181
X6.336Y-2.0534
X6.3527Y-3.3145
X6.3779Y-1.8662
X6.4102Y-3.3428
X6.4464Y-3.8758
X6.4645Y-2.0958
X6.4693Y-3.0783
X6.4702Y-1.9125
X6.4937Y-4.7518
X6.4947Y-3.3989
X6.6548Y-1.8884
X6.6732Y-2.2885
X6.7664Y-2.7021
X6.7668Y-1.9754
X6.8679Y-4.5434
X6.9333Y-4.6439
X6.9946Y-1.813
X7.0044Y-3.2619
X7.0527Y-1.6421
X7.1394Y-1.8441
X7.1554Y-3.3237
X7.1742Y-4.7066
X7.3049Y-1.8761
X7.3321Y-3.3211
X7.3516Y-1.7762
X7.3925Y-2.3536
X7.4213Y-0.8183
X7.4465Y-3.0783
X7.461Y-3.3585
X7.4987Y-3.2958
X7.5042Y-3.0763
X7.6566Y-2.7048
X7.6763Y-3.9438
X7.6818Y-0.7916
X7.6874Y-1.0347
X7.6984Y-1.8583
X7.7674Y-3.3392
X7.769Y-1.3735
X7.782Y-3.8874
X7.7983Y-2.7326
X7.8623Y-2.434
X7.9001Y-1.5769
X7.9118Y-3.0854
X7.9692Y-3.3395
X7.978Y-1.85
X8.0229Y-0.7588
X8.0737Y-3.2843
X8.0883Y-1.5458
X8.1649Y-1.1806
X8.1784Y-1.0808
X8.2546Y-4.2744
X8.3033Y-1.8583
X8.3798Y-3.4626
X8.439Y-1.915
X8.4496Y-3.4163
X8.5594Y-2.7131
X8.5821Y-1.8682
X8.6089Y-2.5446
X8.6178Y-3.3972
X8.6329Y-4.6798
X8.6419Y-2.0038
X8.6999Y-1.6068
X8.7254Y-3.3157
X8.7377Y-3.6567
X8.7532Y-0.778
X8.766Y-3.315
X8.7767Y-3.8557
X8.8225Y-1.6278
X8.8298Y-2.6954
X8.858Y-3.2879
X8.87Y-1.8585
X8.8863Y-3.5456
X8.9195Y-2.5503
X8.9438Y-3.302
X9.0279Y-2.5769
X9.1429Y-1.8238
X9.1589Y-2.5366
X9.1688Y-3.457
X9.1755Y-2.6945
X9.1782Y-1.65
X9.18Y-3.9227
X9.2167Y-3.2341
X9.2175Y-2.7611
X9.2257Y-1.5532
X9.2307Y-1.4183
X9.2318Y-2.6659
X9.2472Y-3.2844
X9.2484Y-2.6075
X9.2496Y-1.5932
X9.2656Y-3.5935
X9.2676Y-1.8523
X9.2683Y-1.9349
X9.2716Y-2.657
X9.2729Y-2.2766
X9.2838Y-3.3047
X9.3195Y-1.9635
X9.3318Y-4.0223
X9.3486Y-2.0616
X9.3932Y-1.641
X9.4118Y-2.1277
X9.4349Y-2.5817
X9.4375Y-2.8066
X9.5041Y-2.1633
X9.5065Y-2.3501
X9.5451Y-3.6431
X9.5647Y-1.8412
X9.5738Y-0.7081
X9.5806Y-1.9311
X9.586Y-2.3801
X9.5871Y-1.7603
X9.5973Y-2.7315
X9.6148Y-3.6069
X9.6384Y-1.6656
X9.6941Y-1.6578
X9.7108Y-2.6505
X9.7255Y-3.3086
X9.74Y-1.9311
X9.759Y-2.3201
X9.7869Y-4.3083
X9.791Y-1.2145
X9.8098Y-2.6657
X9.814Y-2.2009
X9.8235Y-2.6075
X9.8287Y-1.0186
X9.8385Y-3.3086
X9.882Y-1.2215
X9.8873Y-3.3815
X9.8903Y-1.7935
X9.9622Y-1.8977
X9.9724Y-3.0652
X9.9896Y-2.2941
X9.9997Y-2.5818
X10.006Y-1.5446
X10.0171Y-2.6461
X10.0294Y-1.8849
X10.0439Y-1.8455
X10.0953Y-2.4291
X10.1281Y-2.6549
X10.1529Y-3.2769
X10.1677Y-1.5932
X10.1834Y-3.3058
X10.3055Y-4.1103
X10.3091Y-2.5017
X10.3215Y-1.8422
X10.4164Y-0.8335
X10.5344Y-1.367
X10.555Y-2.6075
X10.5945Y-1.2971
X10.6286Y-1.8535
X10.6431Y-1.0778
X10.678Y-0.9421
X10.6787Y-2.2766
X10.679Y-2.6075
X10.6792Y-1.3958
X10.6805Y-2.7079
X10.7091Y-3.1743
X10.7237Y-2.7651
X10.755Y-1.85
X10.759Y-0.9094
X10.828Y-2.534
X10.8898Y-2.5079
X10.937Y-0.976
X10.9463Y-1.2218
X10.9486Y-3.9347
X10.9994Y-2.6725
X11.0024Y-2.47
X11.0098Y-2.572
X11.2293Y-0.8853
X11.2519Y-2.1037
X11.4259Y-1.5866
X11.4873Y-1.6711
X11.6115Y-1.6248
X11.6677Y-2.323
X11.6998Y-1.3755
X11.7069Y-2.382
X11.7451Y-2.43
X11.7589Y-2.6364
X11.8025Y-1.6393
X11.8136Y-1.6996
X11.8342Y-2.5008
X11.8894Y-3.2539
X11.9137Y-0.7987
X11.9359Y-2.8871
X12.0102Y-2.8127
X12.1256Y-1.0631
X12.1702Y-0.974
X12.2155Y-1.4633
X12.2221Y-0.7914
X12.2488Y-0.9105
X12.2672Y-1.0453
X12.2706Y-1.4069
X12.2982Y-1.46
X12.323Y-1.9485
X12.3428Y-2.0926
X12.3649Y-1.7825
X12.3679Y-1.7431
X12.3787Y-1.1379
X12.3943Y-1.5455
X12.3973Y-0.9898
X12.3975Y-1.901
X12.4014Y-1.8518
X12.4043Y-1.6905
X12.423Y-1.4834
X12.4232Y-1.2495
X12.4244Y-0.7293
X12.4366Y-0.8234
X12.4367Y-0.9879
X12.4581Y-0.7631
X12.4772Y-1.6192
X12.4919Y-0.6641
X12.4933Y-1.3569
X12.5097Y-1.3963
X12.5459Y-4.1802
X12.5615Y-1.3842
X12.5681Y-1.3448
X12.5733Y-2.2796
X12.5762Y-2.1897
X12.5849Y-2.6553
X12.6031Y-1.547
X12.6041Y-1.4796
X12.6118Y-1.6256
X12.6338Y-1.7845
X12.6429Y-1.322
X12.6476Y-1.3736
X12.6711Y-1.2914
X12.6875Y-2.5945
X12.6905Y-3.3461
X12.7438Y-0.9232
X12.7534Y-1.8018
X12.7624Y-2.7774
X12.7679Y-1.1259
X12.7762Y-1.0335
X12.7786Y-2.5751
X12.7798Y-2.9789
X12.7867Y-1.547
X12.8008Y-3.3961
X12.8068Y-1.6971
X12.8091Y-2.8199
X12.8101Y-1.2225
X12.8105Y-1.0626
X12.8142Y-3.2748
X12.8156Y-1.0232
X12.8229Y-0.9661
X12.8254Y-0.7963
X12.8308Y-2.7203
X12.8542Y-3.981
X12.8705Y-0.9566
X12.8791Y-1.2189
X12.8886Y-2.7028
X12.8913Y-1.1127
X12.9068Y-0.9354
X12.9933Y-2.0461
X13.0438Y-2.5098
X13.1098Y-2.4352
X13.1152Y-3.9669
X13.1433Y-1.9161
X13.1511Y-1.6273
X13.1886Y-2.5823
X13.1894Y-3.9363
X13.2104Y-1.9858
X13.2288Y-1.9212
X13.2372Y-3.8885
X13.2515Y-2.3331
X13.2571Y-4.0263
X13.2753Y-1.9418
X13.3233Y-1.8091
X13.3295Y-2.6241
X13.3474Y-1.9418
X13.3529Y-3.3943
X13.3549Y-1.7838
X13.3907Y-3.2486
X13.4277Y-1.7749
X13.4306Y-3.5058
X13.4715Y-1.9099
X13.5156Y-3.0763
X13.5195Y-2.7131
X13.5248Y-1.7749
X13.5621Y-1.0983
X13.6271Y-4.0335
X13.6577Y-4.0621
X13.7294Y-1.9099
X13.7384Y-3.365
X13.7709Y-3.3286
X13.7791Y-1.8182
X13.7899Y-1.866
X13.8629Y-3.9763
X13.871Y-4.0396
X13.8808Y-3.365
X13.9096Y-3.9448
X13.9697Y-3.2831
X13.9873Y-2.3668
X13.9959Y-1.5518
X14.0632Y-1.7883
X14.0689Y-1.911
X14.0714Y-4.0624
X14.11Y-4.2926
X14.2265Y-1.8625
X14.2275Y-3.2862
X14.2386Y-0.7351
X14.3165Y-1.5518
X14.3486Y-1.91
X14.41Y-4.8933
X14.4593Y-2.4372
X14.4836Y-1.91
X14.7137Y-3.455
X14.8725Y-0.9777
T2
X12.57Y-3.0925
X12.57Y-3.1925
X12.57Y-3.2925
X12.57Y-3.3925
X12.57Y-3.4925
X12.57Y-3.5925
X12.57Y-3.6925
X12.57Y-3.7925
T0
M30
