%TF.GenerationSoftware,KiCad,Pcbnew,(5.1.10)-1*%
%TF.CreationDate,2022-01-02T11:55:34-08:00*%
%TF.ProjectId,chgray-keyboard,63686772-6179-42d6-9b65-79626f617264,Yeet2*%
%TF.SameCoordinates,Original*%
%TF.FileFunction,Legend,Bot*%
%TF.FilePolarity,Positive*%
%FSLAX46Y46*%
G04 Gerber Fmt 4.6, Leading zero omitted, Abs format (unit mm)*
G04 Created by KiCad (PCBNEW (5.1.10)-1) date 2022-01-02 11:55:34*
%MOMM*%
%LPD*%
G01*
G04 APERTURE LIST*
%ADD10C,0.950000*%
G04 APERTURE END LIST*
D10*
X100548404Y-8223023D02*
X102453166Y-8223023D01*
X102453166Y-4223023D01*
X98453166Y-4223023D02*
X97691261Y-4223023D01*
X97310309Y-4413500D01*
X96929357Y-4794452D01*
X96738880Y-5556357D01*
X96738880Y-6889690D01*
X96929357Y-7651595D01*
X97310309Y-8032547D01*
X97691261Y-8223023D01*
X98453166Y-8223023D01*
X98834119Y-8032547D01*
X99215071Y-7651595D01*
X99405547Y-6889690D01*
X99405547Y-5556357D01*
X99215071Y-4794452D01*
X98834119Y-4413500D01*
X98453166Y-4223023D01*
X92929357Y-4413500D02*
X93310309Y-4223023D01*
X93881738Y-4223023D01*
X94453166Y-4413500D01*
X94834119Y-4794452D01*
X95024595Y-5175404D01*
X95215071Y-5937309D01*
X95215071Y-6508738D01*
X95024595Y-7270642D01*
X94834119Y-7651595D01*
X94453166Y-8032547D01*
X93881738Y-8223023D01*
X93500785Y-8223023D01*
X92929357Y-8032547D01*
X92738880Y-7842071D01*
X92738880Y-6508738D01*
X93500785Y-6508738D01*
X90262690Y-4223023D02*
X89881738Y-4223023D01*
X89500785Y-4413500D01*
X89310309Y-4603976D01*
X89119833Y-4984928D01*
X88929357Y-5746833D01*
X88929357Y-6699214D01*
X89119833Y-7461119D01*
X89310309Y-7842071D01*
X89500785Y-8032547D01*
X89881738Y-8223023D01*
X90262690Y-8223023D01*
X90643642Y-8032547D01*
X90834119Y-7842071D01*
X91024595Y-7461119D01*
X91215071Y-6699214D01*
X91215071Y-5746833D01*
X91024595Y-4984928D01*
X90834119Y-4603976D01*
X90643642Y-4413500D01*
X90262690Y-4223023D01*
X87215071Y-7842071D02*
X87024595Y-8032547D01*
X87215071Y-8223023D01*
X87405547Y-8032547D01*
X87215071Y-7842071D01*
X87215071Y-8223023D01*
X85310309Y-8223023D02*
X85310309Y-4223023D01*
X83024595Y-8223023D02*
X84738880Y-5937309D01*
X83024595Y-4223023D02*
X85310309Y-6508738D01*
X79786500Y-8032547D02*
X80167452Y-8223023D01*
X80929357Y-8223023D01*
X81310309Y-8032547D01*
X81500785Y-7651595D01*
X81500785Y-6127785D01*
X81310309Y-5746833D01*
X80929357Y-5556357D01*
X80167452Y-5556357D01*
X79786500Y-5746833D01*
X79596023Y-6127785D01*
X79596023Y-6508738D01*
X81500785Y-6889690D01*
X78262690Y-5556357D02*
X77310309Y-8223023D01*
X76357928Y-5556357D02*
X77310309Y-8223023D01*
X77691261Y-9175404D01*
X77881738Y-9365880D01*
X78262690Y-9556357D01*
X74834119Y-7842071D02*
X74643642Y-8032547D01*
X74834119Y-8223023D01*
X75024595Y-8032547D01*
X74834119Y-7842071D01*
X74834119Y-8223023D01*
X72167452Y-6318261D02*
X72167452Y-8223023D01*
X73500785Y-4223023D02*
X72167452Y-6318261D01*
X70834119Y-4223023D01*
X67976976Y-8032547D02*
X68357928Y-8223023D01*
X69119833Y-8223023D01*
X69500785Y-8032547D01*
X69691261Y-7651595D01*
X69691261Y-6127785D01*
X69500785Y-5746833D01*
X69119833Y-5556357D01*
X68357928Y-5556357D01*
X67976976Y-5746833D01*
X67786500Y-6127785D01*
X67786500Y-6508738D01*
X69691261Y-6889690D01*
X64548404Y-8032547D02*
X64929357Y-8223023D01*
X65691261Y-8223023D01*
X66072214Y-8032547D01*
X66262690Y-7651595D01*
X66262690Y-6127785D01*
X66072214Y-5746833D01*
X65691261Y-5556357D01*
X64929357Y-5556357D01*
X64548404Y-5746833D01*
X64357928Y-6127785D01*
X64357928Y-6508738D01*
X66262690Y-6889690D01*
X63215071Y-5556357D02*
X61691261Y-5556357D01*
X62643642Y-4223023D02*
X62643642Y-7651595D01*
X62453166Y-8032547D01*
X62072214Y-8223023D01*
X61691261Y-8223023D01*
X57691261Y-5556357D02*
X56738880Y-8223023D01*
X55786500Y-5556357D01*
X54643642Y-4223023D02*
X51976976Y-4223023D01*
X53691261Y-8223023D01*
X50643642Y-4603976D02*
X50453166Y-4413500D01*
X50072214Y-4223023D01*
X49119833Y-4223023D01*
X48738880Y-4413500D01*
X48548404Y-4603976D01*
X48357928Y-4984928D01*
X48357928Y-5365880D01*
X48548404Y-5937309D01*
X50834119Y-8223023D01*
X48357928Y-8223023D01*
X47024595Y-4223023D02*
X44548404Y-4223023D01*
X45881738Y-5746833D01*
X45310309Y-5746833D01*
X44929357Y-5937309D01*
X44738880Y-6127785D01*
X44548404Y-6508738D01*
X44548404Y-7461119D01*
X44738880Y-7842071D01*
X44929357Y-8032547D01*
X45310309Y-8223023D01*
X46453166Y-8223023D01*
X46834119Y-8032547D01*
X47024595Y-7842071D01*
X40738880Y-8223023D02*
X43024595Y-8223023D01*
X41881738Y-8223023D02*
X41881738Y-4223023D01*
X42262690Y-4794452D01*
X42643642Y-5175404D01*
X43024595Y-5365880D01*
X38262690Y-4223023D02*
X37881738Y-4223023D01*
X37500785Y-4413500D01*
X37310309Y-4603976D01*
X37119833Y-4984928D01*
X36929357Y-5746833D01*
X36929357Y-6699214D01*
X37119833Y-7461119D01*
X37310309Y-7842071D01*
X37500785Y-8032547D01*
X37881738Y-8223023D01*
X38262690Y-8223023D01*
X38643642Y-8032547D01*
X38834119Y-7842071D01*
X39024595Y-7461119D01*
X39215071Y-6699214D01*
X39215071Y-5746833D01*
X39024595Y-4984928D01*
X38834119Y-4603976D01*
X38643642Y-4413500D01*
X38262690Y-4223023D01*
M02*
