M48
; DRILL file {KiCad (5.1.10)-1} date 09/10/21 11:23:50
; FORMAT={-:-/ absolute / inch / decimal}
; #@! TF.CreationDate,2021-09-10T11:23:50-07:00
; #@! TF.GenerationSoftware,Kicad,Pcbnew,(5.1.10)-1
; #@! TF.FileFunction,Plated,1,2,PTH
FMAT,2
INCH
T1C0.0157
T2C0.0256
T3C0.0590
%
G90
G05
T1
X1.4712Y-3.3113
X1.5103Y-1.0462
X1.5739Y-1.9069
X1.5804Y-1.6505
X1.6002Y-0.8949
X1.6348Y-1.968
X1.6624Y-1.668
X1.7776Y-1.9062
X1.8401Y-1.7923
X1.8738Y-2.5419
X2.0763Y-1.8555
X2.0794Y-1.9305
X2.1376Y-3.1336
X2.5189Y-3.3555
X2.6013Y-0.978
X2.6066Y-1.9203
X2.6457Y-2.4252
X2.6993Y-3.34
X2.7199Y-1.8565
X2.8641Y-3.3399
X2.8888Y-1.8545
X2.9387Y-2.3419
X3.0203Y-0.9341
X3.0473Y-2.1219
X3.1439Y-0.8263
X3.1493Y-1.8714
X3.1536Y-2.8584
X3.1567Y-2.4283
X3.1859Y-2.4566
X3.2043Y-3.9774
X3.2046Y-2.3419
X3.2145Y-3.1377
X3.2588Y-3.3399
X3.2847Y-2.3839
X3.2862Y-1.7797
X3.3056Y-3.3241
X3.3418Y-4.6337
X3.3646Y-1.9124
X3.3702Y-3.2444
X3.4017Y-3.9848
X3.4184Y-1.9043
X3.4288Y-1.2755
X3.4478Y-1.8717
X3.5261Y-3.2278
X3.5311Y-1.854
X3.5396Y-2.4594
X3.5836Y-1.2075
X3.6205Y-1.9171
X3.6209Y-3.2705
X3.631Y-1.2075
X3.6611Y-3.2855
X3.7142Y-3.4695
X3.7484Y-3.8561
X3.7535Y-3.2899
X3.7925Y-1.8631
X3.8573Y-2.8593
X3.9609Y-1.8516
X3.9724Y-2.5448
X4.0554Y-2.5746
X4.1175Y-4.3785
X4.2029Y-1.8518
X4.2052Y-0.9618
X4.2311Y-1.094
X4.2672Y-1.1136
X4.3016Y-3.389
X4.3175Y-0.4641
X4.404Y-1.8565
X4.5184Y-0.9075
X4.5211Y-0.5922
X4.536Y-3.42
X4.5776Y-2.0209
X4.5942Y-1.0301
X4.6734Y-3.256
X4.6894Y-1.0878
X4.7043Y-3.4196
X4.715Y-1.7875
X4.7637Y-1.3392
X4.7657Y-3.0313
X4.7748Y-3.2726
X4.788Y-0.6644
X4.8182Y-1.8383
X4.8285Y-2.4884
X4.8401Y-0.9371
X4.8462Y-3.0832
X4.8635Y-1.8674
X4.8713Y-3.8157
X4.9276Y-3.3564
X4.9675Y-1.4187
X4.9686Y-3.3884
X4.9872Y-3.4616
X5.0123Y-3.8366
X5.0134Y-1.648
X5.0276Y-2.47
X5.0281Y-2.4204
X5.041Y-4.0873
X5.0497Y-1.0852
X5.0917Y-1.8105
X5.092Y-1.5541
X5.1087Y-2.8456
X5.1284Y-1.9443
X5.1968Y-1.9557
X5.2358Y-1.9357
X5.2405Y-3.5092
X5.2423Y-0.974
X5.2607Y-1.8249
X5.262Y-1.6334
X5.2782Y-3.4323
X5.2934Y-1.8565
X5.295Y-2.4204
X5.3222Y-1.3724
X5.3461Y-3.3387
X5.3507Y-2.0019
X5.374Y-1.9184
X5.3774Y-1.8231
X5.4061Y-1.4031
X5.4127Y-0.8696
X5.4134Y-1.9279
X5.4352Y-3.9461
X5.449Y-3.4898
X5.4514Y-2.5517
X5.4588Y-1.5426
X5.4612Y-1.8289
X5.4617Y-3.5513
X5.465Y-2.7138
X5.4693Y-1.9385
X5.4948Y-1.5215
X5.514Y-1.141
X5.5221Y-3.0226
X5.5575Y-3.3605
X5.5751Y-2.43
X5.5794Y-1.9017
X5.601Y-3.2699
X5.6527Y-2.7676
X5.6654Y-1.8087
X5.6669Y-1.3689
X5.6673Y-1.1238
X5.682Y-2.6182
X5.702Y-3.2909
X5.7739Y-2.4568
X5.7761Y-1.0587
X5.7918Y-2.566
X5.7923Y-3.3022
X5.7924Y-1.6149
X5.794Y-3.2074
X5.8059Y-1.8564
X5.8165Y-1.0587
X5.8211Y-1.5215
X5.8537Y-3.4923
X5.8752Y-2.3135
X5.8763Y-2.8412
X5.8779Y-3.2832
X5.8816Y-3.6437
X5.9309Y-2.3707
X5.9355Y-1.8676
X5.971Y-3.3645
X5.9908Y-3.0724
X6.0166Y-3.2569
X6.0435Y-1.2592
X6.0783Y-3.1222
X6.0977Y-1.2879
X6.1245Y-3.1186
X6.14Y-1.8518
X6.1479Y-3.9174
X6.1605Y-2.63
X6.1701Y-3.1281
X6.2316Y-4.7217
X6.2441Y-1.3503
X6.2729Y-2.8496
X6.319Y-1.8415
X6.3262Y-2.4568
X6.3434Y-1.1227
X6.3685Y-2.4991
X6.3706Y-2.4283
X6.4112Y-0.8007
X6.4438Y-3.4024
X6.4473Y-1.9609
X6.4497Y-1.8565
X6.4663Y-0.6247
X6.4772Y-3.617
X6.4821Y-4.0512
X6.5369Y-1.7472
X6.5649Y-3.2587
X6.5821Y-2.4321
X6.587Y-3.4879
X6.6083Y-3.3211
X6.6336Y-3.2655
X6.6413Y-2.5735
X6.6649Y-3.5247
X6.6762Y-3.3037
X6.6836Y-2.612
X6.7133Y-1.7343
X6.7411Y-3.173
X6.758Y-1.8258
X6.7599Y-1.6215
X6.7622Y-1.7501
X6.7655Y-1.9163
X6.7717Y-2.0153
X6.7779Y-1.8634
X6.8025Y-3.3226
X6.8249Y-2.2614
X6.8294Y-1.9577
X6.8493Y-1.6391
X6.852Y-2.29
X6.867Y-3.4081
X6.9062Y-3.4273
X6.9262Y-3.9389
X6.9317Y-3.8154
X6.9596Y-1.8929
X6.9599Y-1.9347
X6.9839Y-4.677
X6.9889Y-3.5184
X7.0026Y-2.9344
X7.0033Y-2.8947
X7.0098Y-2.5857
X7.0217Y-2.4906
X7.0382Y-3.3605
X7.0466Y-3.3094
X7.0509Y-3.0529
X7.0739Y-3.6607
X7.0922Y-1.8866
X7.1066Y-2.4321
X7.1269Y-3.8746
X7.1305Y-2.5136
X7.1494Y-3.2163
X7.1521Y-2.0835
X7.1566Y-2.812
X7.159Y-3.0782
X7.1694Y-2.6356
X7.1915Y-1.2391
X7.1984Y-2.6062
X7.2266Y-4.857
X7.2355Y-2.5603
X7.2637Y-2.3704
X7.2649Y-2.4649
X7.2698Y-3.3572
X7.2729Y-2.7026
X7.2948Y-1.2857
X7.2948Y-3.2651
X7.306Y-3.6775
X7.3673Y-2.1263
X7.385Y-2.7165
X7.4177Y-3.5073
X7.4433Y-2.1341
X7.4656Y-1.9044
X7.515Y-1.9294
X7.5251Y-3.1768
X7.5358Y-3.5032
X7.5658Y-3.874
X7.6058Y-3.45
X7.6077Y-2.2578
X7.6202Y-3.9061
X7.6285Y-1.8375
X7.6358Y-3.3217
X7.638Y-1.9301
X7.6749Y-1.9739
X7.6949Y-4.6094
X7.7019Y-0.9738
X7.7053Y-3.092
X7.7256Y-3.2946
X7.7364Y-1.8531
X7.7483Y-2.3519
X7.7914Y-1.564
X7.7945Y-3.2954
X7.7946Y-1.1363
X7.8414Y-0.8096
X7.8436Y-3.0062
X7.8486Y-0.7515
X7.8526Y-1.3569
X7.8545Y-3.9725
X7.8766Y-2.5614
X7.8795Y-3.2942
X7.8797Y-1.8101
X7.8934Y-3.3543
X7.9339Y-0.7696
X7.9438Y-1.9492
X7.947Y-2.7356
X7.9523Y-2.0103
X7.9793Y-3.3221
X8.0147Y-3.8277
X8.0318Y-0.8696
X8.0372Y-2.5467
X8.0392Y-1.8597
X8.0739Y-0.9803
X8.0765Y-1.127
X8.1056Y-2.7356
X8.1073Y-1.8035
X8.1118Y-3.3188
X8.1557Y-1.9257
X8.2586Y-1.2039
X8.2689Y-2.4707
X8.287Y-3.0389
X8.3011Y-3.0787
X8.3022Y-1.6263
X8.3058Y-3.3645
X8.3072Y-1.3514
X8.3143Y-0.5313
X8.3183Y-2.0111
X8.3329Y-1.9324
X8.3338Y-1.2444
X8.3943Y-3.2627
X8.4036Y-2.2681
X8.419Y-2.0397
X8.4254Y-3.0736
X8.4297Y-3.9327
X8.4322Y-1.9797
X8.4636Y-1.8565
X8.4667Y-2.9088
X8.5074Y-1.8995
X8.5101Y-1.8565
X8.5169Y-3.3213
X8.5186Y-2.4941
X8.5333Y-2.7509
X8.5447Y-1.3742
X8.5518Y-3.2094
X8.5618Y-2.312
X8.5698Y-3.0826
X8.5753Y-3.6584
X8.5758Y-3.9058
X8.5763Y-2.2415
X8.5767Y-2.7921
X8.5794Y-1.9877
X8.5844Y-2.719
X8.6118Y-3.2926
X8.6415Y-1.7431
X8.652Y-0.6433
X8.6549Y-2.7768
X8.6842Y-2.7009
X8.6976Y-4.4673
X8.7565Y-2.7946
X8.7805Y-4.3844
X8.7952Y-4.0718
X8.7983Y-2.3873
X8.7998Y-2.702
X8.8055Y-2.5706
X8.8092Y-3.6086
X8.8201Y-3.2876
X8.8727Y-2.7779
X8.8832Y-1.5791
X8.8924Y-1.8655
X8.895Y-3.3875
X8.9116Y-4.2584
X8.9205Y-4.6903
X8.9472Y-2.6539
X8.9794Y-1.9227
X9.0609Y-3.1526
X9.0806Y-2.8572
X9.0822Y-1.24
X9.0965Y-2.0561
X9.1133Y-3.2885
X9.1176Y-2.4849
X9.1203Y-1.8565
X9.1473Y-3.2668
X9.1538Y-1.8923
X9.1615Y-2.712
X9.1649Y-2.0509
X9.1804Y-3.9446
X9.1898Y-1.4239
X9.1923Y-2.5202
X9.2046Y-2.9681
X9.2132Y-3.6314
X9.2271Y-3.4966
X9.2317Y-2.0022
X9.2471Y-3.0667
X9.256Y-1.6807
X9.2868Y-1.9838
X9.2912Y-1.5761
X9.3215Y-1.8565
X9.3301Y-3.3346
X9.3305Y-1.1565
X9.3386Y-3.9582
X9.3416Y-1.8189
X9.3434Y-3.0665
X9.3468Y-3.2369
X9.3497Y-2.6696
X9.357Y-1.127
X9.3645Y-1.9436
X9.3941Y-2.0913
X9.4013Y-1.3949
X9.4297Y-2.6699
X9.4356Y-1.2467
X9.4435Y-2.541
X9.4647Y-1.5018
X9.4753Y-0.8301
X9.5147Y-3.222
X9.5324Y-1.0468
X9.537Y-1.8852
X9.5371Y-1.8388
X9.5649Y-2.7307
X9.5846Y-2.3119
X9.5983Y-3.2814
X9.6415Y-1.0821
X9.6656Y-3.3123
X9.7077Y-1.0938
X9.7149Y-1.0157
X9.7233Y-1.6345
X9.7369Y-3.8904
X9.7503Y-1.8265
X9.7506Y-3.3315
X9.7511Y-0.9342
X9.7672Y-1.9394
X9.8167Y-2.393
X9.8168Y-2.0255
X9.8205Y-1.3219
X9.8401Y-2.2252
X9.8571Y-2.5705
X9.8627Y-2.5059
X9.8706Y-4.0331
X9.8982Y-3.9371
X9.8992Y-2.2836
X9.9001Y-2.664
X9.9161Y-1.1417
X9.9179Y-0.8604
X9.9235Y-3.3135
X9.9359Y-3.3605
X9.9504Y-1.6657
X9.9656Y-1.8623
X10.0406Y-2.6922
X10.059Y-1.3739
X10.0819Y-1.6892
X10.0892Y-1.9808
X10.1085Y-2.7472
X10.1311Y-1.9395
X10.1394Y-2.9588
X10.1791Y-1.8654
X10.2092Y-1.9009
X10.2154Y-1.5295
X10.2422Y-3.4418
X10.2499Y-1.6652
X10.2595Y-4.3676
X10.2702Y-2.4299
X10.2994Y-3.244
X10.3138Y-1.729
X10.3367Y-2.6905
X10.3405Y-3.6418
X10.3574Y-3.2733
X10.3639Y-4.2052
X10.3842Y-2.5823
X10.4202Y-1.7626
X10.4379Y-2.6557
X10.462Y-3.7777
X10.4624Y-3.5923
X10.4782Y-0.9535
X10.4792Y-4.2102
X10.5048Y-0.7965
X10.5073Y-3.5495
X10.5487Y-3.0383
X10.5498Y-1.2185
X10.5555Y-3.32
X10.5627Y-1.7625
X10.5774Y-2.46
X10.5951Y-2.3693
X10.6078Y-3.3587
X10.624Y-2.5823
X10.709Y-1.9046
X10.8342Y-2.4156
X10.8365Y-1.9326
X11.002Y-2.47
X11.0232Y-3.0833
X11.0707Y-1.3679
X11.0943Y-2.6446
X11.1376Y-1.8003
X11.2159Y-1.5827
X11.2605Y-1.3562
X11.2706Y-1.5693
X11.3456Y-2.5588
X11.4474Y-3.5028
X11.4655Y-3.3709
X11.4916Y-3.338
X11.4972Y-4.0124
X11.4989Y-1.5935
X11.5716Y-3.6853
X11.5729Y-1.5437
X11.58Y-2.0378
X11.6073Y-1.6686
X11.6118Y-4.5702
X11.6363Y-1.7317
X11.6632Y-4.1248
X11.7118Y-3.4508
X11.7424Y-1.96
X11.7629Y-3.2568
X11.7694Y-4.3211
X11.803Y-3.6073
X11.8075Y-2.5719
X11.8075Y-2.8678
X11.8088Y-3.3673
X11.8242Y-2.3053
X11.9026Y-2.0092
X11.9314Y-3.8503
X11.9321Y-0.9735
X11.9653Y-2.608
X11.9718Y-3.3153
X11.9767Y-3.9715
X11.9771Y-3.8687
X11.9921Y-3.4565
X12.0054Y-1.0021
X12.0135Y-4.6347
X12.0177Y-3.0882
X12.0204Y-2.3735
X12.0224Y-3.7026
X12.0493Y-4.1434
X12.0606Y-3.7914
X12.065Y-3.0435
X12.0744Y-3.8308
X12.0806Y-2.315
X12.0899Y-3.1051
X12.2113Y-0.3655
X12.2147Y-2.5654
X12.2178Y-3.4409
X12.2206Y-3.815
X12.2226Y-3.8544
X12.2382Y-0.7427
X12.248Y-4.0305
X12.2764Y-3.7146
X12.2764Y-2.5359
X12.2831Y-3.7717
X12.2862Y-0.8802
X12.2866Y-4.1743
X12.3041Y-3.8474
X12.313Y-0.4055
X12.3347Y-4.0303
X12.3347Y-4.1127
X12.3642Y-2.7333
X12.3727Y-1.7214
X12.3737Y-0.8494
X12.3779Y-3.3944
X12.3906Y-1.7841
X12.3977Y-3.923
X12.4056Y-3.8331
X12.4085Y-3.7569
X12.4133Y-2.0343
X12.437Y-4.0298
X12.46Y-4.6756
X12.4635Y-3.6101
X12.4636Y-1.0413
X12.4671Y-4.2348
X12.4682Y-3.3528
X12.4811Y-2.1036
X12.4827Y-4.1161
X12.483Y-4.7999
X12.4831Y-3.9101
X12.4841Y-2.2156
X12.4847Y-4.5281
X12.5088Y-1.912
X12.5234Y-3.1445
X12.5234Y-3.2098
X12.5234Y-3.253
X12.5301Y-2.5592
X12.5302Y-3.3583
X12.5409Y-0.5451
X12.5551Y-2.2452
X12.5553Y-2.1321
X12.5556Y-3.2987
X12.5556Y-1.9361
X12.556Y-1.1269
X12.5561Y-2.1748
X12.5568Y-3.1051
X12.5822Y-0.5202
X12.585Y-4.0046
X12.5923Y-3.4404
X12.5967Y-3.4811
X12.611Y-3.9448
X12.6386Y-0.5198
X12.6392Y-4.7957
X12.6421Y-3.9869
X12.6498Y-4.044
X12.6516Y-3.7835
X12.6614Y-4.1291
X12.6635Y-1.0293
X12.6638Y-0.806
X12.6639Y-2.7756
X12.6644Y-3.1844
X12.6646Y-0.9621
X12.6651Y-3.1192
X12.668Y-3.383
X12.6791Y-2.352
X12.6879Y-3.8589
X12.7254Y-4.0371
X12.7267Y-4.6203
X12.7304Y-1.7434
X12.74Y-3.4498
X12.7443Y-1.688
X12.7455Y-0.341
X12.7841Y-1.9034
X12.7949Y-4.7844
X12.8064Y-1.9428
X12.8427Y-4.7949
X12.8485Y-0.3733
X12.852Y-3.8573
X12.8855Y-3.4205
X12.8993Y-4.1205
X12.9674Y-3.5593
X12.9926Y-4.3151
X13.0091Y-4.0661
X13.1246Y-4.1205
X13.1306Y-0.7868
X13.1318Y-0.9327
X13.1414Y-1.5723
X13.1885Y-3.957
X13.208Y-3.7863
X13.2488Y-1.8863
X13.3005Y-0.7518
X13.3138Y-4.0941
X13.3151Y-3.8573
X13.3178Y-1.154
X13.3533Y-4.0968
X13.3705Y-1.1852
X13.4393Y-2.4808
X13.4566Y-3.984
X13.4567Y-3.7863
X13.4727Y-3.2535
X13.524Y-4.1184
X13.6075Y-1.776
X13.6163Y-3.8783
X13.6608Y-1.8312
X13.7128Y-3.9359
X13.7151Y-1.805
X13.729Y-1.8513
X13.8536Y-3.1192
X13.8615Y-3.9677
X13.9037Y-3.3019
X13.9068Y-3.9195
X14.0356Y-3.4315
X14.0734Y-4.1737
X14.0956Y-2.3964
X14.2143Y-4.5039
X14.2688Y-3.9365
X14.2987Y-4.2476
X14.4041Y-4.1253
X14.4609Y-1.5976
X14.5629Y-1.0313
X14.5769Y-1.0723
X14.6081Y-4.734
X14.6499Y-3.8263
X14.8777Y-3.1501
X14.892Y-3.2845
T2
X12.352Y-4.226
X12.352Y-4.276
X12.352Y-4.326
X12.352Y-4.376
X12.352Y-4.426
X12.352Y-4.476
X12.352Y-4.526
X12.402Y-4.226
X12.402Y-4.276
X12.402Y-4.326
X12.402Y-4.376
X12.402Y-4.426
X12.402Y-4.476
X12.402Y-4.526
T3
X6.235Y-4.39
X6.485Y-4.29
T0
M30
