  0
SECTION
  2
HEADER
  9
$ANGBASE
  50
0.0
  9
$ANGDIR
  70
1
  9
$MEASUREMENT
  70
0
  0
ENDSEC
  0
SECTION
  2
TABLES
  0
TABLE
  2
LTYPE
  70
4
  0
LTYPE
  5
40F
  2
CONTINUOUS
  70
0
  3
Solid line
  72
65
  73
0
  40
0.0
  0
LTYPE
  5
410
  2
DASHDOT
 70
0
  3
Dash Dot ____ _ ____ _
 72
65
 73
4
 40
2.0
 49
1.25
 49
-0.25
 49
0.25
 49
-0.25
  0
LTYPE
  5
411
  2
DASHED
 70
0
  3
Dashed __ __ __ __ __
 72
65
 73
2
 40
0.75
 49
0.5
 49
-0.25
  0
LTYPE
  5
43B
  2
DOTTED
 70
0
  3
Dotted .  .  .  .
 72
65
 73
2
 40
0.2
 49
0.0
 49
-0.2
  0
ENDTAB
  0
TABLE
  2
STYLE
  70
4
  0
STYLE
  2
KICAD
  70
0
  40
0
  41
1
  42
1
  50
0
  71
0
  3
isocp.shx
  0
STYLE
  2
KICADB
  70
0
  40
0
  41
1
  42
1
  50
0
  71
0
  3
isocp.shx
  0
STYLE
  2
KICADI
  70
0
  40
0
  41
1
  42
1
  50
15
  71
0
  3
isocp.shx
  0
STYLE
  2
KICADBI
  70
0
  40
0
  41
1
  42
1
  50
15
  71
0
  3
isocp.shx
  0
ENDTAB
  0
TABLE
  2
LAYER
  70
1
  0
LAYER
  2
BLACK
  70
0
  62
7
  6
CONTINUOUS
  0
ENDTAB
  0
ENDSEC
  0
SECTION
  2
ENTITIES
0
LINE
8
BLACK
6
CONTINUOUS
10
8.49015
20
-4.187
11
8.49059
21
-4.18704
0
LINE
8
BLACK
6
CONTINUOUS
10
8.49059
20
-4.18704
11
8.49115
21
-4.18721
0
LINE
8
BLACK
6
CONTINUOUS
10
8.49115
20
-4.18721
11
8.49167
21
-4.18749
0
LINE
8
BLACK
6
CONTINUOUS
10
8.49167
20
-4.18749
11
8.49213
21
-4.18787
0
LINE
8
BLACK
6
CONTINUOUS
10
8.49213
20
-4.18787
11
8.49251
21
-4.18833
0
LINE
8
BLACK
6
CONTINUOUS
10
8.49251
20
-4.18833
11
8.49279
21
-4.18885
0
LINE
8
BLACK
6
CONTINUOUS
10
8.49279
20
-4.18885
11
8.49296
21
-4.18941
0
LINE
8
BLACK
6
CONTINUOUS
10
8.49296
20
-4.18941
11
8.49301
21
-4.19
0
LINE
8
BLACK
6
CONTINUOUS
10
8.49301
20
-4.19
11
8.493
21
-4.19015
0
LINE
8
BLACK
6
CONTINUOUS
10
8.493
20
-4.19015
11
8.493
21
-4.88985
0
LINE
8
BLACK
6
CONTINUOUS
10
8.493
20
-4.88985
11
8.49301
21
-4.89
0
LINE
8
BLACK
6
CONTINUOUS
10
8.49301
20
-4.89
11
8.49296
21
-4.89059
0
LINE
8
BLACK
6
CONTINUOUS
10
8.49296
20
-4.89059
11
8.49279
21
-4.89115
0
LINE
8
BLACK
6
CONTINUOUS
10
8.49279
20
-4.89115
11
8.49251
21
-4.89167
0
LINE
8
BLACK
6
CONTINUOUS
10
8.49251
20
-4.89167
11
8.49213
21
-4.89213
0
LINE
8
BLACK
6
CONTINUOUS
10
8.49213
20
-4.89213
11
8.49167
21
-4.89251
0
LINE
8
BLACK
6
CONTINUOUS
10
8.49167
20
-4.89251
11
8.49115
21
-4.89279
0
LINE
8
BLACK
6
CONTINUOUS
10
8.49115
20
-4.89279
11
8.49059
21
-4.89296
0
LINE
8
BLACK
6
CONTINUOUS
10
8.49059
20
-4.89296
11
8.49015
21
-4.893
0
LINE
8
BLACK
6
CONTINUOUS
10
8.49015
20
-4.893
11
8.49
21
-4.89301
0
LINE
8
BLACK
6
CONTINUOUS
10
8.49
20
-4.89301
11
8.48985
21
-4.893
0
LINE
8
BLACK
6
CONTINUOUS
10
8.48985
20
-4.893
11
4.28015
21
-4.893
0
LINE
8
BLACK
6
CONTINUOUS
10
4.28015
20
-4.893
11
4.28
21
-4.89301
0
LINE
8
BLACK
6
CONTINUOUS
10
4.28
20
-4.89301
11
4.27985
21
-4.893
0
LINE
8
BLACK
6
CONTINUOUS
10
4.27985
20
-4.893
11
4.27941
21
-4.89296
0
LINE
8
BLACK
6
CONTINUOUS
10
4.27941
20
-4.89296
11
4.27885
21
-4.89279
0
LINE
8
BLACK
6
CONTINUOUS
10
4.27885
20
-4.89279
11
4.27833
21
-4.89251
0
LINE
8
BLACK
6
CONTINUOUS
10
4.27833
20
-4.89251
11
4.27787
21
-4.89213
0
LINE
8
BLACK
6
CONTINUOUS
10
4.27787
20
-4.89213
11
4.27749
21
-4.89167
0
LINE
8
BLACK
6
CONTINUOUS
10
4.27749
20
-4.89167
11
4.27721
21
-4.89115
0
LINE
8
BLACK
6
CONTINUOUS
10
4.27721
20
-4.89115
11
4.27704
21
-4.89059
0
LINE
8
BLACK
6
CONTINUOUS
10
4.27704
20
-4.89059
11
4.27699
21
-4.89
0
LINE
8
BLACK
6
CONTINUOUS
10
4.27699
20
-4.89
11
4.277
21
-4.88985
0
LINE
8
BLACK
6
CONTINUOUS
10
4.277
20
-4.88985
11
4.277
21
-4.19015
0
LINE
8
BLACK
6
CONTINUOUS
10
4.277
20
-4.19015
11
4.27699
21
-4.19
0
LINE
8
BLACK
6
CONTINUOUS
10
4.27699
20
-4.19
11
4.27704
21
-4.18941
0
LINE
8
BLACK
6
CONTINUOUS
10
4.27704
20
-4.18941
11
4.27721
21
-4.18885
0
LINE
8
BLACK
6
CONTINUOUS
10
4.27721
20
-4.18885
11
4.27749
21
-4.18833
0
LINE
8
BLACK
6
CONTINUOUS
10
4.27749
20
-4.18833
11
4.27787
21
-4.18787
0
LINE
8
BLACK
6
CONTINUOUS
10
4.27787
20
-4.18787
11
4.27833
21
-4.18749
0
LINE
8
BLACK
6
CONTINUOUS
10
4.27833
20
-4.18749
11
4.27885
21
-4.18721
0
LINE
8
BLACK
6
CONTINUOUS
10
4.27885
20
-4.18721
11
4.27941
21
-4.18704
0
LINE
8
BLACK
6
CONTINUOUS
10
4.27941
20
-4.18704
11
4.27985
21
-4.187
0
LINE
8
BLACK
6
CONTINUOUS
10
4.27985
20
-4.187
11
4.28
21
-4.18699
0
LINE
8
BLACK
6
CONTINUOUS
10
4.28
20
-4.18699
11
4.28015
21
-4.187
0
LINE
8
BLACK
6
CONTINUOUS
10
4.28015
20
-4.187
11
4.54985
21
-4.187
0
LINE
8
BLACK
6
CONTINUOUS
10
4.54985
20
-4.187
11
4.55
21
-4.18699
0
LINE
8
BLACK
6
CONTINUOUS
10
4.55
20
-4.18699
11
4.55015
21
-4.187
0
LINE
8
BLACK
6
CONTINUOUS
10
4.55015
20
-4.187
11
4.55059
21
-4.18704
0
LINE
8
BLACK
6
CONTINUOUS
10
4.55059
20
-4.18704
11
4.55115
21
-4.18721
0
LINE
8
BLACK
6
CONTINUOUS
10
4.55115
20
-4.18721
11
4.55167
21
-4.18749
0
LINE
8
BLACK
6
CONTINUOUS
10
4.55167
20
-4.18749
11
4.55213
21
-4.18787
0
LINE
8
BLACK
6
CONTINUOUS
10
4.55213
20
-4.18787
11
4.55251
21
-4.18833
0
LINE
8
BLACK
6
CONTINUOUS
10
4.55251
20
-4.18833
11
4.55279
21
-4.18885
0
LINE
8
BLACK
6
CONTINUOUS
10
4.55279
20
-4.18885
11
4.55296
21
-4.18941
0
LINE
8
BLACK
6
CONTINUOUS
10
4.55296
20
-4.18941
11
4.55301
21
-4.19
0
LINE
8
BLACK
6
CONTINUOUS
10
4.55301
20
-4.19
11
4.553
21
-4.19015
0
LINE
8
BLACK
6
CONTINUOUS
10
4.553
20
-4.19015
11
4.553
21
-4.787
0
LINE
8
BLACK
6
CONTINUOUS
10
4.553
20
-4.787
11
8.217
21
-4.787
0
LINE
8
BLACK
6
CONTINUOUS
10
8.217
20
-4.787
11
8.217
21
-4.19015
0
LINE
8
BLACK
6
CONTINUOUS
10
8.217
20
-4.19015
11
8.21699
21
-4.19
0
LINE
8
BLACK
6
CONTINUOUS
10
8.21699
20
-4.19
11
8.21704
21
-4.18941
0
LINE
8
BLACK
6
CONTINUOUS
10
8.21704
20
-4.18941
11
8.21721
21
-4.18885
0
LINE
8
BLACK
6
CONTINUOUS
10
8.21721
20
-4.18885
11
8.21749
21
-4.18833
0
LINE
8
BLACK
6
CONTINUOUS
10
8.21749
20
-4.18833
11
8.21787
21
-4.18787
0
LINE
8
BLACK
6
CONTINUOUS
10
8.21787
20
-4.18787
11
8.21833
21
-4.18749
0
LINE
8
BLACK
6
CONTINUOUS
10
8.21833
20
-4.18749
11
8.21885
21
-4.18721
0
LINE
8
BLACK
6
CONTINUOUS
10
8.21885
20
-4.18721
11
8.21941
21
-4.18704
0
LINE
8
BLACK
6
CONTINUOUS
10
8.21941
20
-4.18704
11
8.21985
21
-4.187
0
LINE
8
BLACK
6
CONTINUOUS
10
8.21985
20
-4.187
11
8.22
21
-4.18699
0
LINE
8
BLACK
6
CONTINUOUS
10
8.22
20
-4.18699
11
8.22015
21
-4.187
0
LINE
8
BLACK
6
CONTINUOUS
10
8.22015
20
-4.187
11
8.48985
21
-4.187
0
LINE
8
BLACK
6
CONTINUOUS
10
8.48985
20
-4.187
11
8.49
21
-4.18699
0
LINE
8
BLACK
6
CONTINUOUS
10
8.49
20
-4.18699
11
8.49015
21
-4.187
0
LINE
8
BLACK
6
CONTINUOUS
10
4.283
20
-4.193
11
4.283
21
-4.887
0
LINE
8
BLACK
6
CONTINUOUS
10
4.283
20
-4.887
11
8.487
21
-4.887
0
LINE
8
BLACK
6
CONTINUOUS
10
8.487
20
-4.887
11
8.487
21
-4.193
0
LINE
8
BLACK
6
CONTINUOUS
10
8.487
20
-4.193
11
8.223
21
-4.193
0
LINE
8
BLACK
6
CONTINUOUS
10
8.223
20
-4.193
11
8.223
21
-4.78985
0
LINE
8
BLACK
6
CONTINUOUS
10
8.223
20
-4.78985
11
8.22301
21
-4.79
0
LINE
8
BLACK
6
CONTINUOUS
10
8.22301
20
-4.79
11
8.22296
21
-4.79059
0
LINE
8
BLACK
6
CONTINUOUS
10
8.22296
20
-4.79059
11
8.22279
21
-4.79115
0
LINE
8
BLACK
6
CONTINUOUS
10
8.22279
20
-4.79115
11
8.22251
21
-4.79167
0
LINE
8
BLACK
6
CONTINUOUS
10
8.22251
20
-4.79167
11
8.22213
21
-4.79213
0
LINE
8
BLACK
6
CONTINUOUS
10
8.22213
20
-4.79213
11
8.22167
21
-4.79251
0
LINE
8
BLACK
6
CONTINUOUS
10
8.22167
20
-4.79251
11
8.22115
21
-4.79279
0
LINE
8
BLACK
6
CONTINUOUS
10
8.22115
20
-4.79279
11
8.22059
21
-4.79296
0
LINE
8
BLACK
6
CONTINUOUS
10
8.22059
20
-4.79296
11
8.22015
21
-4.793
0
LINE
8
BLACK
6
CONTINUOUS
10
8.22015
20
-4.793
11
8.22
21
-4.79301
0
LINE
8
BLACK
6
CONTINUOUS
10
8.22
20
-4.79301
11
8.21985
21
-4.793
0
LINE
8
BLACK
6
CONTINUOUS
10
8.21985
20
-4.793
11
4.55015
21
-4.793
0
LINE
8
BLACK
6
CONTINUOUS
10
4.55015
20
-4.793
11
4.55
21
-4.79301
0
LINE
8
BLACK
6
CONTINUOUS
10
4.55
20
-4.79301
11
4.54941
21
-4.79296
0
LINE
8
BLACK
6
CONTINUOUS
10
4.54941
20
-4.79296
11
4.54885
21
-4.79279
0
LINE
8
BLACK
6
CONTINUOUS
10
4.54885
20
-4.79279
11
4.54833
21
-4.79251
0
LINE
8
BLACK
6
CONTINUOUS
10
4.54833
20
-4.79251
11
4.54787
21
-4.79213
0
LINE
8
BLACK
6
CONTINUOUS
10
4.54787
20
-4.79213
11
4.54749
21
-4.79167
0
LINE
8
BLACK
6
CONTINUOUS
10
4.54749
20
-4.79167
11
4.54721
21
-4.79115
0
LINE
8
BLACK
6
CONTINUOUS
10
4.54721
20
-4.79115
11
4.54704
21
-4.79059
0
LINE
8
BLACK
6
CONTINUOUS
10
4.54704
20
-4.79059
11
4.54699
21
-4.79
0
LINE
8
BLACK
6
CONTINUOUS
10
4.54699
20
-4.79
11
4.547
21
-4.78985
0
LINE
8
BLACK
6
CONTINUOUS
10
4.547
20
-4.78985
11
4.547
21
-4.193
0
LINE
8
BLACK
6
CONTINUOUS
10
4.547
20
-4.193
11
4.283
21
-4.193
0
LINE
8
BLACK
6
CONTINUOUS
10
9.43015
20
-4.237
11
9.43059
21
-4.23704
0
LINE
8
BLACK
6
CONTINUOUS
10
9.43059
20
-4.23704
11
9.43115
21
-4.23721
0
LINE
8
BLACK
6
CONTINUOUS
10
9.43115
20
-4.23721
11
9.43167
21
-4.23749
0
LINE
8
BLACK
6
CONTINUOUS
10
9.43167
20
-4.23749
11
9.43213
21
-4.23787
0
LINE
8
BLACK
6
CONTINUOUS
10
9.43213
20
-4.23787
11
9.43251
21
-4.23833
0
LINE
8
BLACK
6
CONTINUOUS
10
9.43251
20
-4.23833
11
9.43279
21
-4.23885
0
LINE
8
BLACK
6
CONTINUOUS
10
9.43279
20
-4.23885
11
9.43296
21
-4.23941
0
LINE
8
BLACK
6
CONTINUOUS
10
9.43296
20
-4.23941
11
9.43301
21
-4.24
0
LINE
8
BLACK
6
CONTINUOUS
10
9.43301
20
-4.24
11
9.433
21
-4.24015
0
LINE
8
BLACK
6
CONTINUOUS
10
9.433
20
-4.24015
11
9.433
21
-4.73985
0
LINE
8
BLACK
6
CONTINUOUS
10
9.433
20
-4.73985
11
9.43301
21
-4.74
0
LINE
8
BLACK
6
CONTINUOUS
10
9.43301
20
-4.74
11
9.43296
21
-4.74059
0
LINE
8
BLACK
6
CONTINUOUS
10
9.43296
20
-4.74059
11
9.43279
21
-4.74115
0
LINE
8
BLACK
6
CONTINUOUS
10
9.43279
20
-4.74115
11
9.43251
21
-4.74167
0
LINE
8
BLACK
6
CONTINUOUS
10
9.43251
20
-4.74167
11
9.43213
21
-4.74213
0
LINE
8
BLACK
6
CONTINUOUS
10
9.43213
20
-4.74213
11
9.43167
21
-4.74251
0
LINE
8
BLACK
6
CONTINUOUS
10
9.43167
20
-4.74251
11
9.43115
21
-4.74279
0
LINE
8
BLACK
6
CONTINUOUS
10
9.43115
20
-4.74279
11
9.43059
21
-4.74296
0
LINE
8
BLACK
6
CONTINUOUS
10
9.43059
20
-4.74296
11
9.43015
21
-4.743
0
LINE
8
BLACK
6
CONTINUOUS
10
9.43015
20
-4.743
11
9.43
21
-4.74301
0
LINE
8
BLACK
6
CONTINUOUS
10
9.43
20
-4.74301
11
9.42985
21
-4.743
0
LINE
8
BLACK
6
CONTINUOUS
10
9.42985
20
-4.743
11
8.93015
21
-4.743
0
LINE
8
BLACK
6
CONTINUOUS
10
8.93015
20
-4.743
11
8.93
21
-4.74301
0
LINE
8
BLACK
6
CONTINUOUS
10
8.93
20
-4.74301
11
8.92941
21
-4.74296
0
LINE
8
BLACK
6
CONTINUOUS
10
8.92941
20
-4.74296
11
8.92885
21
-4.74279
0
LINE
8
BLACK
6
CONTINUOUS
10
8.92885
20
-4.74279
11
8.92833
21
-4.74251
0
LINE
8
BLACK
6
CONTINUOUS
10
8.92833
20
-4.74251
11
8.92787
21
-4.74213
0
LINE
8
BLACK
6
CONTINUOUS
10
8.92787
20
-4.74213
11
8.92749
21
-4.74167
0
LINE
8
BLACK
6
CONTINUOUS
10
8.92749
20
-4.74167
11
8.92721
21
-4.74115
0
LINE
8
BLACK
6
CONTINUOUS
10
8.92721
20
-4.74115
11
8.92704
21
-4.74059
0
LINE
8
BLACK
6
CONTINUOUS
10
8.92704
20
-4.74059
11
8.92699
21
-4.74
0
LINE
8
BLACK
6
CONTINUOUS
10
8.92699
20
-4.74
11
8.927
21
-4.73985
0
LINE
8
BLACK
6
CONTINUOUS
10
8.927
20
-4.73985
11
8.927
21
-4.24015
0
LINE
8
BLACK
6
CONTINUOUS
10
8.927
20
-4.24015
11
8.92699
21
-4.24
0
LINE
8
BLACK
6
CONTINUOUS
10
8.92699
20
-4.24
11
8.92704
21
-4.23941
0
LINE
8
BLACK
6
CONTINUOUS
10
8.92704
20
-4.23941
11
8.92721
21
-4.23885
0
LINE
8
BLACK
6
CONTINUOUS
10
8.92721
20
-4.23885
11
8.92749
21
-4.23833
0
LINE
8
BLACK
6
CONTINUOUS
10
8.92749
20
-4.23833
11
8.92787
21
-4.23787
0
LINE
8
BLACK
6
CONTINUOUS
10
8.92787
20
-4.23787
11
8.92833
21
-4.23749
0
LINE
8
BLACK
6
CONTINUOUS
10
8.92833
20
-4.23749
11
8.92885
21
-4.23721
0
LINE
8
BLACK
6
CONTINUOUS
10
8.92885
20
-4.23721
11
8.92941
21
-4.23704
0
LINE
8
BLACK
6
CONTINUOUS
10
8.92941
20
-4.23704
11
8.92985
21
-4.237
0
LINE
8
BLACK
6
CONTINUOUS
10
8.92985
20
-4.237
11
8.93
21
-4.23699
0
LINE
8
BLACK
6
CONTINUOUS
10
8.93
20
-4.23699
11
8.93015
21
-4.237
0
LINE
8
BLACK
6
CONTINUOUS
10
8.93015
20
-4.237
11
9.42985
21
-4.237
0
LINE
8
BLACK
6
CONTINUOUS
10
9.42985
20
-4.237
11
9.43
21
-4.23699
0
LINE
8
BLACK
6
CONTINUOUS
10
9.43
20
-4.23699
11
9.43015
21
-4.237
0
LINE
8
BLACK
6
CONTINUOUS
10
8.933
20
-4.243
11
8.933
21
-4.737
0
LINE
8
BLACK
6
CONTINUOUS
10
8.933
20
-4.737
11
9.427
21
-4.737
0
LINE
8
BLACK
6
CONTINUOUS
10
9.427
20
-4.737
11
9.427
21
-4.243
0
LINE
8
BLACK
6
CONTINUOUS
10
9.427
20
-4.243
11
8.933
21
-4.243
0
LINE
8
BLACK
6
CONTINUOUS
10
9.0634
20
-4.45463
11
9.07254
21
-4.43256
0
LINE
8
BLACK
6
CONTINUOUS
10
9.07254
20
-4.43256
11
9.08581
21
-4.4127
0
LINE
8
BLACK
6
CONTINUOUS
10
9.08581
20
-4.4127
11
9.1027
21
-4.39581
0
LINE
8
BLACK
6
CONTINUOUS
10
9.1027
20
-4.39581
11
9.12256
21
-4.38254
0
LINE
8
BLACK
6
CONTINUOUS
10
9.12256
20
-4.38254
11
9.14463
21
-4.3734
0
LINE
8
BLACK
6
CONTINUOUS
10
9.14463
20
-4.3734
11
9.16806
21
-4.36874
0
LINE
8
BLACK
6
CONTINUOUS
10
9.16806
20
-4.36874
11
9.19194
21
-4.36874
0
LINE
8
BLACK
6
CONTINUOUS
10
9.19194
20
-4.36874
11
9.21537
21
-4.3734
0
LINE
8
BLACK
6
CONTINUOUS
10
9.21537
20
-4.3734
11
9.23744
21
-4.38254
0
LINE
8
BLACK
6
CONTINUOUS
10
9.23744
20
-4.38254
11
9.2573
21
-4.39581
0
LINE
8
BLACK
6
CONTINUOUS
10
9.2573
20
-4.39581
11
9.27419
21
-4.4127
0
LINE
8
BLACK
6
CONTINUOUS
10
9.27419
20
-4.4127
11
9.28746
21
-4.43256
0
LINE
8
BLACK
6
CONTINUOUS
10
9.28746
20
-4.43256
11
9.2966
21
-4.45463
0
LINE
8
BLACK
6
CONTINUOUS
10
9.2966
20
-4.45463
11
9.30126
21
-4.47806
0
LINE
8
BLACK
6
CONTINUOUS
10
9.30126
20
-4.47806
11
9.30126
21
-4.50194
0
LINE
8
BLACK
6
CONTINUOUS
10
9.30126
20
-4.50194
11
9.2966
21
-4.52537
0
LINE
8
BLACK
6
CONTINUOUS
10
9.2966
20
-4.52537
11
9.28746
21
-4.54744
0
LINE
8
BLACK
6
CONTINUOUS
10
9.28746
20
-4.54744
11
9.27419
21
-4.5673
0
LINE
8
BLACK
6
CONTINUOUS
10
9.27419
20
-4.5673
11
9.2573
21
-4.58419
0
LINE
8
BLACK
6
CONTINUOUS
10
9.2573
20
-4.58419
11
9.23744
21
-4.59746
0
LINE
8
BLACK
6
CONTINUOUS
10
9.23744
20
-4.59746
11
9.21537
21
-4.6066
0
LINE
8
BLACK
6
CONTINUOUS
10
9.21537
20
-4.6066
11
9.19194
21
-4.61126
0
LINE
8
BLACK
6
CONTINUOUS
10
9.19194
20
-4.61126
11
9.16806
21
-4.61126
0
LINE
8
BLACK
6
CONTINUOUS
10
9.16806
20
-4.61126
11
9.14463
21
-4.6066
0
LINE
8
BLACK
6
CONTINUOUS
10
9.14463
20
-4.6066
11
9.12256
21
-4.59746
0
LINE
8
BLACK
6
CONTINUOUS
10
9.12256
20
-4.59746
11
9.1027
21
-4.58419
0
LINE
8
BLACK
6
CONTINUOUS
10
9.1027
20
-4.58419
11
9.08581
21
-4.5673
0
LINE
8
BLACK
6
CONTINUOUS
10
9.08581
20
-4.5673
11
9.07254
21
-4.54744
0
LINE
8
BLACK
6
CONTINUOUS
10
9.07254
20
-4.54744
11
9.0634
21
-4.52537
0
LINE
8
BLACK
6
CONTINUOUS
10
9.0634
20
-4.52537
11
9.05874
21
-4.50194
0
LINE
8
BLACK
6
CONTINUOUS
10
9.05874
20
-4.50194
11
9.05874
21
-4.47806
0
LINE
8
BLACK
6
CONTINUOUS
10
9.05874
20
-4.47806
11
9.0634
21
-4.45463
0
LINE
8
BLACK
6
CONTINUOUS
10
9.0698
20
-4.52343
11
9.07844
21
-4.54428
0
LINE
8
BLACK
6
CONTINUOUS
10
9.07844
20
-4.54428
11
9.09098
21
-4.56306
0
LINE
8
BLACK
6
CONTINUOUS
10
9.09098
20
-4.56306
11
9.10694
21
-4.57902
0
LINE
8
BLACK
6
CONTINUOUS
10
9.10694
20
-4.57902
11
9.12572
21
-4.59156
0
LINE
8
BLACK
6
CONTINUOUS
10
9.12572
20
-4.59156
11
9.14657
21
-4.6002
0
LINE
8
BLACK
6
CONTINUOUS
10
9.14657
20
-4.6002
11
9.16871
21
-4.6046
0
LINE
8
BLACK
6
CONTINUOUS
10
9.16871
20
-4.6046
11
9.19129
21
-4.6046
0
LINE
8
BLACK
6
CONTINUOUS
10
9.19129
20
-4.6046
11
9.21343
21
-4.6002
0
LINE
8
BLACK
6
CONTINUOUS
10
9.21343
20
-4.6002
11
9.23428
21
-4.59156
0
LINE
8
BLACK
6
CONTINUOUS
10
9.23428
20
-4.59156
11
9.25306
21
-4.57902
0
LINE
8
BLACK
6
CONTINUOUS
10
9.25306
20
-4.57902
11
9.26902
21
-4.56306
0
LINE
8
BLACK
6
CONTINUOUS
10
9.26902
20
-4.56306
11
9.28156
21
-4.54428
0
LINE
8
BLACK
6
CONTINUOUS
10
9.28156
20
-4.54428
11
9.2902
21
-4.52343
0
LINE
8
BLACK
6
CONTINUOUS
10
9.2902
20
-4.52343
11
9.2946
21
-4.50129
0
LINE
8
BLACK
6
CONTINUOUS
10
9.2946
20
-4.50129
11
9.2946
21
-4.47871
0
LINE
8
BLACK
6
CONTINUOUS
10
9.2946
20
-4.47871
11
9.2902
21
-4.45657
0
LINE
8
BLACK
6
CONTINUOUS
10
9.2902
20
-4.45657
11
9.28156
21
-4.43572
0
LINE
8
BLACK
6
CONTINUOUS
10
9.28156
20
-4.43572
11
9.26902
21
-4.41694
0
LINE
8
BLACK
6
CONTINUOUS
10
9.26902
20
-4.41694
11
9.25306
21
-4.40098
0
LINE
8
BLACK
6
CONTINUOUS
10
9.25306
20
-4.40098
11
9.23428
21
-4.38844
0
LINE
8
BLACK
6
CONTINUOUS
10
9.23428
20
-4.38844
11
9.21343
21
-4.3798
0
LINE
8
BLACK
6
CONTINUOUS
10
9.21343
20
-4.3798
11
9.19129
21
-4.3754
0
LINE
8
BLACK
6
CONTINUOUS
10
9.19129
20
-4.3754
11
9.16871
21
-4.3754
0
LINE
8
BLACK
6
CONTINUOUS
10
9.16871
20
-4.3754
11
9.14657
21
-4.3798
0
LINE
8
BLACK
6
CONTINUOUS
10
9.14657
20
-4.3798
11
9.12572
21
-4.38844
0
LINE
8
BLACK
6
CONTINUOUS
10
9.12572
20
-4.38844
11
9.10694
21
-4.40098
0
LINE
8
BLACK
6
CONTINUOUS
10
9.10694
20
-4.40098
11
9.09098
21
-4.41694
0
LINE
8
BLACK
6
CONTINUOUS
10
9.09098
20
-4.41694
11
9.07844
21
-4.43572
0
LINE
8
BLACK
6
CONTINUOUS
10
9.07844
20
-4.43572
11
9.0698
21
-4.45657
0
LINE
8
BLACK
6
CONTINUOUS
10
9.0698
20
-4.45657
11
9.0654
21
-4.47871
0
LINE
8
BLACK
6
CONTINUOUS
10
9.0654
20
-4.47871
11
9.0654
21
-4.50129
0
LINE
8
BLACK
6
CONTINUOUS
10
9.0654
20
-4.50129
11
9.0698
21
-4.52343
0
LINE
8
BLACK
6
CONTINUOUS
10
11.3101
20
-4.237
11
11.3106
21
-4.23704
0
LINE
8
BLACK
6
CONTINUOUS
10
11.3106
20
-4.23704
11
11.3112
21
-4.23721
0
LINE
8
BLACK
6
CONTINUOUS
10
11.3112
20
-4.23721
11
11.3117
21
-4.23749
0
LINE
8
BLACK
6
CONTINUOUS
10
11.3117
20
-4.23749
11
11.3121
21
-4.23787
0
LINE
8
BLACK
6
CONTINUOUS
10
11.3121
20
-4.23787
11
11.3125
21
-4.23833
0
LINE
8
BLACK
6
CONTINUOUS
10
11.3125
20
-4.23833
11
11.3128
21
-4.23885
0
LINE
8
BLACK
6
CONTINUOUS
10
11.3128
20
-4.23885
11
11.313
21
-4.23941
0
LINE
8
BLACK
6
CONTINUOUS
10
11.313
20
-4.23941
11
11.313
21
-4.24
0
LINE
8
BLACK
6
CONTINUOUS
10
11.313
20
-4.24
11
11.313
21
-4.24015
0
LINE
8
BLACK
6
CONTINUOUS
10
11.313
20
-4.24015
11
11.313
21
-4.73985
0
LINE
8
BLACK
6
CONTINUOUS
10
11.313
20
-4.73985
11
11.313
21
-4.74
0
LINE
8
BLACK
6
CONTINUOUS
10
11.313
20
-4.74
11
11.313
21
-4.74059
0
LINE
8
BLACK
6
CONTINUOUS
10
11.313
20
-4.74059
11
11.3128
21
-4.74115
0
LINE
8
BLACK
6
CONTINUOUS
10
11.3128
20
-4.74115
11
11.3125
21
-4.74167
0
LINE
8
BLACK
6
CONTINUOUS
10
11.3125
20
-4.74167
11
11.3121
21
-4.74213
0
LINE
8
BLACK
6
CONTINUOUS
10
11.3121
20
-4.74213
11
11.3117
21
-4.74251
0
LINE
8
BLACK
6
CONTINUOUS
10
11.3117
20
-4.74251
11
11.3112
21
-4.74279
0
LINE
8
BLACK
6
CONTINUOUS
10
11.3112
20
-4.74279
11
11.3106
21
-4.74296
0
LINE
8
BLACK
6
CONTINUOUS
10
11.3106
20
-4.74296
11
11.3101
21
-4.743
0
LINE
8
BLACK
6
CONTINUOUS
10
11.3101
20
-4.743
11
11.31
21
-4.74301
0
LINE
8
BLACK
6
CONTINUOUS
10
11.31
20
-4.74301
11
11.3099
21
-4.743
0
LINE
8
BLACK
6
CONTINUOUS
10
11.3099
20
-4.743
11
10.8101
21
-4.743
0
LINE
8
BLACK
6
CONTINUOUS
10
10.8101
20
-4.743
11
10.81
21
-4.74301
0
LINE
8
BLACK
6
CONTINUOUS
10
10.81
20
-4.74301
11
10.8094
21
-4.74296
0
LINE
8
BLACK
6
CONTINUOUS
10
10.8094
20
-4.74296
11
10.8088
21
-4.74279
0
LINE
8
BLACK
6
CONTINUOUS
10
10.8088
20
-4.74279
11
10.8083
21
-4.74251
0
LINE
8
BLACK
6
CONTINUOUS
10
10.8083
20
-4.74251
11
10.8079
21
-4.74213
0
LINE
8
BLACK
6
CONTINUOUS
10
10.8079
20
-4.74213
11
10.8075
21
-4.74167
0
LINE
8
BLACK
6
CONTINUOUS
10
10.8075
20
-4.74167
11
10.8072
21
-4.74115
0
LINE
8
BLACK
6
CONTINUOUS
10
10.8072
20
-4.74115
11
10.807
21
-4.74059
0
LINE
8
BLACK
6
CONTINUOUS
10
10.807
20
-4.74059
11
10.807
21
-4.74
0
LINE
8
BLACK
6
CONTINUOUS
10
10.807
20
-4.74
11
10.807
21
-4.73985
0
LINE
8
BLACK
6
CONTINUOUS
10
10.807
20
-4.73985
11
10.807
21
-4.24015
0
LINE
8
BLACK
6
CONTINUOUS
10
10.807
20
-4.24015
11
10.807
21
-4.24
0
LINE
8
BLACK
6
CONTINUOUS
10
10.807
20
-4.24
11
10.807
21
-4.23941
0
LINE
8
BLACK
6
CONTINUOUS
10
10.807
20
-4.23941
11
10.8072
21
-4.23885
0
LINE
8
BLACK
6
CONTINUOUS
10
10.8072
20
-4.23885
11
10.8075
21
-4.23833
0
LINE
8
BLACK
6
CONTINUOUS
10
10.8075
20
-4.23833
11
10.8079
21
-4.23787
0
LINE
8
BLACK
6
CONTINUOUS
10
10.8079
20
-4.23787
11
10.8083
21
-4.23749
0
LINE
8
BLACK
6
CONTINUOUS
10
10.8083
20
-4.23749
11
10.8088
21
-4.23721
0
LINE
8
BLACK
6
CONTINUOUS
10
10.8088
20
-4.23721
11
10.8094
21
-4.23704
0
LINE
8
BLACK
6
CONTINUOUS
10
10.8094
20
-4.23704
11
10.8099
21
-4.237
0
LINE
8
BLACK
6
CONTINUOUS
10
10.8099
20
-4.237
11
10.81
21
-4.23699
0
LINE
8
BLACK
6
CONTINUOUS
10
10.81
20
-4.23699
11
10.8101
21
-4.237
0
LINE
8
BLACK
6
CONTINUOUS
10
10.8101
20
-4.237
11
11.3099
21
-4.237
0
LINE
8
BLACK
6
CONTINUOUS
10
11.3099
20
-4.237
11
11.31
21
-4.23699
0
LINE
8
BLACK
6
CONTINUOUS
10
11.31
20
-4.23699
11
11.3101
21
-4.237
0
LINE
8
BLACK
6
CONTINUOUS
10
10.813
20
-4.243
11
10.813
21
-4.737
0
LINE
8
BLACK
6
CONTINUOUS
10
10.813
20
-4.737
11
11.307
21
-4.737
0
LINE
8
BLACK
6
CONTINUOUS
10
11.307
20
-4.737
11
11.307
21
-4.243
0
LINE
8
BLACK
6
CONTINUOUS
10
11.307
20
-4.243
11
10.813
21
-4.243
0
LINE
8
BLACK
6
CONTINUOUS
10
10.9434
20
-4.45463
11
10.9525
21
-4.43256
0
LINE
8
BLACK
6
CONTINUOUS
10
10.9525
20
-4.43256
11
10.9658
21
-4.4127
0
LINE
8
BLACK
6
CONTINUOUS
10
10.9658
20
-4.4127
11
10.9827
21
-4.39581
0
LINE
8
BLACK
6
CONTINUOUS
10
10.9827
20
-4.39581
11
11.0026
21
-4.38254
0
LINE
8
BLACK
6
CONTINUOUS
10
11.0026
20
-4.38254
11
11.0246
21
-4.3734
0
LINE
8
BLACK
6
CONTINUOUS
10
11.0246
20
-4.3734
11
11.0481
21
-4.36874
0
LINE
8
BLACK
6
CONTINUOUS
10
11.0481
20
-4.36874
11
11.0719
21
-4.36874
0
LINE
8
BLACK
6
CONTINUOUS
10
11.0719
20
-4.36874
11
11.0954
21
-4.3734
0
LINE
8
BLACK
6
CONTINUOUS
10
11.0954
20
-4.3734
11
11.1174
21
-4.38254
0
LINE
8
BLACK
6
CONTINUOUS
10
11.1174
20
-4.38254
11
11.1373
21
-4.39581
0
LINE
8
BLACK
6
CONTINUOUS
10
11.1373
20
-4.39581
11
11.1542
21
-4.4127
0
LINE
8
BLACK
6
CONTINUOUS
10
11.1542
20
-4.4127
11
11.1675
21
-4.43256
0
LINE
8
BLACK
6
CONTINUOUS
10
11.1675
20
-4.43256
11
11.1766
21
-4.45463
0
LINE
8
BLACK
6
CONTINUOUS
10
11.1766
20
-4.45463
11
11.1813
21
-4.47806
0
LINE
8
BLACK
6
CONTINUOUS
10
11.1813
20
-4.47806
11
11.1813
21
-4.50194
0
LINE
8
BLACK
6
CONTINUOUS
10
11.1813
20
-4.50194
11
11.1766
21
-4.52537
0
LINE
8
BLACK
6
CONTINUOUS
10
11.1766
20
-4.52537
11
11.1675
21
-4.54744
0
LINE
8
BLACK
6
CONTINUOUS
10
11.1675
20
-4.54744
11
11.1542
21
-4.5673
0
LINE
8
BLACK
6
CONTINUOUS
10
11.1542
20
-4.5673
11
11.1373
21
-4.58419
0
LINE
8
BLACK
6
CONTINUOUS
10
11.1373
20
-4.58419
11
11.1174
21
-4.59746
0
LINE
8
BLACK
6
CONTINUOUS
10
11.1174
20
-4.59746
11
11.0954
21
-4.6066
0
LINE
8
BLACK
6
CONTINUOUS
10
11.0954
20
-4.6066
11
11.0719
21
-4.61126
0
LINE
8
BLACK
6
CONTINUOUS
10
11.0719
20
-4.61126
11
11.0481
21
-4.61126
0
LINE
8
BLACK
6
CONTINUOUS
10
11.0481
20
-4.61126
11
11.0246
21
-4.6066
0
LINE
8
BLACK
6
CONTINUOUS
10
11.0246
20
-4.6066
11
11.0026
21
-4.59746
0
LINE
8
BLACK
6
CONTINUOUS
10
11.0026
20
-4.59746
11
10.9827
21
-4.58419
0
LINE
8
BLACK
6
CONTINUOUS
10
10.9827
20
-4.58419
11
10.9658
21
-4.5673
0
LINE
8
BLACK
6
CONTINUOUS
10
10.9658
20
-4.5673
11
10.9525
21
-4.54744
0
LINE
8
BLACK
6
CONTINUOUS
10
10.9525
20
-4.54744
11
10.9434
21
-4.52537
0
LINE
8
BLACK
6
CONTINUOUS
10
10.9434
20
-4.52537
11
10.9387
21
-4.50194
0
LINE
8
BLACK
6
CONTINUOUS
10
10.9387
20
-4.50194
11
10.9387
21
-4.47806
0
LINE
8
BLACK
6
CONTINUOUS
10
10.9387
20
-4.47806
11
10.9434
21
-4.45463
0
LINE
8
BLACK
6
CONTINUOUS
10
10.9498
20
-4.52343
11
10.9584
21
-4.54428
0
LINE
8
BLACK
6
CONTINUOUS
10
10.9584
20
-4.54428
11
10.971
21
-4.56306
0
LINE
8
BLACK
6
CONTINUOUS
10
10.971
20
-4.56306
11
10.9869
21
-4.57902
0
LINE
8
BLACK
6
CONTINUOUS
10
10.9869
20
-4.57902
11
11.0057
21
-4.59156
0
LINE
8
BLACK
6
CONTINUOUS
10
11.0057
20
-4.59156
11
11.0266
21
-4.6002
0
LINE
8
BLACK
6
CONTINUOUS
10
11.0266
20
-4.6002
11
11.0487
21
-4.6046
0
LINE
8
BLACK
6
CONTINUOUS
10
11.0487
20
-4.6046
11
11.0713
21
-4.6046
0
LINE
8
BLACK
6
CONTINUOUS
10
11.0713
20
-4.6046
11
11.0934
21
-4.6002
0
LINE
8
BLACK
6
CONTINUOUS
10
11.0934
20
-4.6002
11
11.1143
21
-4.59156
0
LINE
8
BLACK
6
CONTINUOUS
10
11.1143
20
-4.59156
11
11.1331
21
-4.57902
0
LINE
8
BLACK
6
CONTINUOUS
10
11.1331
20
-4.57902
11
11.149
21
-4.56306
0
LINE
8
BLACK
6
CONTINUOUS
10
11.149
20
-4.56306
11
11.1616
21
-4.54428
0
LINE
8
BLACK
6
CONTINUOUS
10
11.1616
20
-4.54428
11
11.1702
21
-4.52343
0
LINE
8
BLACK
6
CONTINUOUS
10
11.1702
20
-4.52343
11
11.1746
21
-4.50129
0
LINE
8
BLACK
6
CONTINUOUS
10
11.1746
20
-4.50129
11
11.1746
21
-4.47871
0
LINE
8
BLACK
6
CONTINUOUS
10
11.1746
20
-4.47871
11
11.1702
21
-4.45657
0
LINE
8
BLACK
6
CONTINUOUS
10
11.1702
20
-4.45657
11
11.1616
21
-4.43572
0
LINE
8
BLACK
6
CONTINUOUS
10
11.1616
20
-4.43572
11
11.149
21
-4.41694
0
LINE
8
BLACK
6
CONTINUOUS
10
11.149
20
-4.41694
11
11.1331
21
-4.40098
0
LINE
8
BLACK
6
CONTINUOUS
10
11.1331
20
-4.40098
11
11.1143
21
-4.38844
0
LINE
8
BLACK
6
CONTINUOUS
10
11.1143
20
-4.38844
11
11.0934
21
-4.3798
0
LINE
8
BLACK
6
CONTINUOUS
10
11.0934
20
-4.3798
11
11.0713
21
-4.3754
0
LINE
8
BLACK
6
CONTINUOUS
10
11.0713
20
-4.3754
11
11.0487
21
-4.3754
0
LINE
8
BLACK
6
CONTINUOUS
10
11.0487
20
-4.3754
11
11.0266
21
-4.3798
0
LINE
8
BLACK
6
CONTINUOUS
10
11.0266
20
-4.3798
11
11.0057
21
-4.38844
0
LINE
8
BLACK
6
CONTINUOUS
10
11.0057
20
-4.38844
11
10.9869
21
-4.40098
0
LINE
8
BLACK
6
CONTINUOUS
10
10.9869
20
-4.40098
11
10.971
21
-4.41694
0
LINE
8
BLACK
6
CONTINUOUS
10
10.971
20
-4.41694
11
10.9584
21
-4.43572
0
LINE
8
BLACK
6
CONTINUOUS
10
10.9584
20
-4.43572
11
10.9498
21
-4.45657
0
LINE
8
BLACK
6
CONTINUOUS
10
10.9498
20
-4.45657
11
10.9454
21
-4.47871
0
LINE
8
BLACK
6
CONTINUOUS
10
10.9454
20
-4.47871
11
10.9454
21
-4.50129
0
LINE
8
BLACK
6
CONTINUOUS
10
10.9454
20
-4.50129
11
10.9498
21
-4.52343
0
LINE
8
BLACK
6
CONTINUOUS
10
10.3701
20
-4.237
11
10.3706
21
-4.23704
0
LINE
8
BLACK
6
CONTINUOUS
10
10.3706
20
-4.23704
11
10.3712
21
-4.23721
0
LINE
8
BLACK
6
CONTINUOUS
10
10.3712
20
-4.23721
11
10.3717
21
-4.23749
0
LINE
8
BLACK
6
CONTINUOUS
10
10.3717
20
-4.23749
11
10.3721
21
-4.23787
0
LINE
8
BLACK
6
CONTINUOUS
10
10.3721
20
-4.23787
11
10.3725
21
-4.23833
0
LINE
8
BLACK
6
CONTINUOUS
10
10.3725
20
-4.23833
11
10.3728
21
-4.23885
0
LINE
8
BLACK
6
CONTINUOUS
10
10.3728
20
-4.23885
11
10.373
21
-4.23941
0
LINE
8
BLACK
6
CONTINUOUS
10
10.373
20
-4.23941
11
10.373
21
-4.24
0
LINE
8
BLACK
6
CONTINUOUS
10
10.373
20
-4.24
11
10.373
21
-4.24015
0
LINE
8
BLACK
6
CONTINUOUS
10
10.373
20
-4.24015
11
10.373
21
-4.73985
0
LINE
8
BLACK
6
CONTINUOUS
10
10.373
20
-4.73985
11
10.373
21
-4.74
0
LINE
8
BLACK
6
CONTINUOUS
10
10.373
20
-4.74
11
10.373
21
-4.74059
0
LINE
8
BLACK
6
CONTINUOUS
10
10.373
20
-4.74059
11
10.3728
21
-4.74115
0
LINE
8
BLACK
6
CONTINUOUS
10
10.3728
20
-4.74115
11
10.3725
21
-4.74167
0
LINE
8
BLACK
6
CONTINUOUS
10
10.3725
20
-4.74167
11
10.3721
21
-4.74213
0
LINE
8
BLACK
6
CONTINUOUS
10
10.3721
20
-4.74213
11
10.3717
21
-4.74251
0
LINE
8
BLACK
6
CONTINUOUS
10
10.3717
20
-4.74251
11
10.3712
21
-4.74279
0
LINE
8
BLACK
6
CONTINUOUS
10
10.3712
20
-4.74279
11
10.3706
21
-4.74296
0
LINE
8
BLACK
6
CONTINUOUS
10
10.3706
20
-4.74296
11
10.3701
21
-4.743
0
LINE
8
BLACK
6
CONTINUOUS
10
10.3701
20
-4.743
11
10.37
21
-4.74301
0
LINE
8
BLACK
6
CONTINUOUS
10
10.37
20
-4.74301
11
10.3699
21
-4.743
0
LINE
8
BLACK
6
CONTINUOUS
10
10.3699
20
-4.743
11
9.87015
21
-4.743
0
LINE
8
BLACK
6
CONTINUOUS
10
9.87015
20
-4.743
11
9.87
21
-4.74301
0
LINE
8
BLACK
6
CONTINUOUS
10
9.87
20
-4.74301
11
9.86941
21
-4.74296
0
LINE
8
BLACK
6
CONTINUOUS
10
9.86941
20
-4.74296
11
9.86885
21
-4.74279
0
LINE
8
BLACK
6
CONTINUOUS
10
9.86885
20
-4.74279
11
9.86833
21
-4.74251
0
LINE
8
BLACK
6
CONTINUOUS
10
9.86833
20
-4.74251
11
9.86787
21
-4.74213
0
LINE
8
BLACK
6
CONTINUOUS
10
9.86787
20
-4.74213
11
9.86749
21
-4.74167
0
LINE
8
BLACK
6
CONTINUOUS
10
9.86749
20
-4.74167
11
9.86721
21
-4.74115
0
LINE
8
BLACK
6
CONTINUOUS
10
9.86721
20
-4.74115
11
9.86704
21
-4.74059
0
LINE
8
BLACK
6
CONTINUOUS
10
9.86704
20
-4.74059
11
9.86699
21
-4.74
0
LINE
8
BLACK
6
CONTINUOUS
10
9.86699
20
-4.74
11
9.867
21
-4.73985
0
LINE
8
BLACK
6
CONTINUOUS
10
9.867
20
-4.73985
11
9.867
21
-4.24015
0
LINE
8
BLACK
6
CONTINUOUS
10
9.867
20
-4.24015
11
9.86699
21
-4.24
0
LINE
8
BLACK
6
CONTINUOUS
10
9.86699
20
-4.24
11
9.86704
21
-4.23941
0
LINE
8
BLACK
6
CONTINUOUS
10
9.86704
20
-4.23941
11
9.86721
21
-4.23885
0
LINE
8
BLACK
6
CONTINUOUS
10
9.86721
20
-4.23885
11
9.86749
21
-4.23833
0
LINE
8
BLACK
6
CONTINUOUS
10
9.86749
20
-4.23833
11
9.86787
21
-4.23787
0
LINE
8
BLACK
6
CONTINUOUS
10
9.86787
20
-4.23787
11
9.86833
21
-4.23749
0
LINE
8
BLACK
6
CONTINUOUS
10
9.86833
20
-4.23749
11
9.86885
21
-4.23721
0
LINE
8
BLACK
6
CONTINUOUS
10
9.86885
20
-4.23721
11
9.86941
21
-4.23704
0
LINE
8
BLACK
6
CONTINUOUS
10
9.86941
20
-4.23704
11
9.86985
21
-4.237
0
LINE
8
BLACK
6
CONTINUOUS
10
9.86985
20
-4.237
11
9.87
21
-4.23699
0
LINE
8
BLACK
6
CONTINUOUS
10
9.87
20
-4.23699
11
9.87015
21
-4.237
0
LINE
8
BLACK
6
CONTINUOUS
10
9.87015
20
-4.237
11
10.3699
21
-4.237
0
LINE
8
BLACK
6
CONTINUOUS
10
10.3699
20
-4.237
11
10.37
21
-4.23699
0
LINE
8
BLACK
6
CONTINUOUS
10
10.37
20
-4.23699
11
10.3701
21
-4.237
0
LINE
8
BLACK
6
CONTINUOUS
10
9.873
20
-4.243
11
9.873
21
-4.737
0
LINE
8
BLACK
6
CONTINUOUS
10
9.873
20
-4.737
11
10.367
21
-4.737
0
LINE
8
BLACK
6
CONTINUOUS
10
10.367
20
-4.737
11
10.367
21
-4.243
0
LINE
8
BLACK
6
CONTINUOUS
10
10.367
20
-4.243
11
9.873
21
-4.243
0
LINE
8
BLACK
6
CONTINUOUS
10
10.0034
20
-4.45463
11
10.0125
21
-4.43256
0
LINE
8
BLACK
6
CONTINUOUS
10
10.0125
20
-4.43256
11
10.0258
21
-4.4127
0
LINE
8
BLACK
6
CONTINUOUS
10
10.0258
20
-4.4127
11
10.0427
21
-4.39581
0
LINE
8
BLACK
6
CONTINUOUS
10
10.0427
20
-4.39581
11
10.0626
21
-4.38254
0
LINE
8
BLACK
6
CONTINUOUS
10
10.0626
20
-4.38254
11
10.0846
21
-4.3734
0
LINE
8
BLACK
6
CONTINUOUS
10
10.0846
20
-4.3734
11
10.1081
21
-4.36874
0
LINE
8
BLACK
6
CONTINUOUS
10
10.1081
20
-4.36874
11
10.1319
21
-4.36874
0
LINE
8
BLACK
6
CONTINUOUS
10
10.1319
20
-4.36874
11
10.1554
21
-4.3734
0
LINE
8
BLACK
6
CONTINUOUS
10
10.1554
20
-4.3734
11
10.1774
21
-4.38254
0
LINE
8
BLACK
6
CONTINUOUS
10
10.1774
20
-4.38254
11
10.1973
21
-4.39581
0
LINE
8
BLACK
6
CONTINUOUS
10
10.1973
20
-4.39581
11
10.2142
21
-4.4127
0
LINE
8
BLACK
6
CONTINUOUS
10
10.2142
20
-4.4127
11
10.2275
21
-4.43256
0
LINE
8
BLACK
6
CONTINUOUS
10
10.2275
20
-4.43256
11
10.2366
21
-4.45463
0
LINE
8
BLACK
6
CONTINUOUS
10
10.2366
20
-4.45463
11
10.2413
21
-4.47806
0
LINE
8
BLACK
6
CONTINUOUS
10
10.2413
20
-4.47806
11
10.2413
21
-4.50194
0
LINE
8
BLACK
6
CONTINUOUS
10
10.2413
20
-4.50194
11
10.2366
21
-4.52537
0
LINE
8
BLACK
6
CONTINUOUS
10
10.2366
20
-4.52537
11
10.2275
21
-4.54744
0
LINE
8
BLACK
6
CONTINUOUS
10
10.2275
20
-4.54744
11
10.2142
21
-4.5673
0
LINE
8
BLACK
6
CONTINUOUS
10
10.2142
20
-4.5673
11
10.1973
21
-4.58419
0
LINE
8
BLACK
6
CONTINUOUS
10
10.1973
20
-4.58419
11
10.1774
21
-4.59746
0
LINE
8
BLACK
6
CONTINUOUS
10
10.1774
20
-4.59746
11
10.1554
21
-4.6066
0
LINE
8
BLACK
6
CONTINUOUS
10
10.1554
20
-4.6066
11
10.1319
21
-4.61126
0
LINE
8
BLACK
6
CONTINUOUS
10
10.1319
20
-4.61126
11
10.1081
21
-4.61126
0
LINE
8
BLACK
6
CONTINUOUS
10
10.1081
20
-4.61126
11
10.0846
21
-4.6066
0
LINE
8
BLACK
6
CONTINUOUS
10
10.0846
20
-4.6066
11
10.0626
21
-4.59746
0
LINE
8
BLACK
6
CONTINUOUS
10
10.0626
20
-4.59746
11
10.0427
21
-4.58419
0
LINE
8
BLACK
6
CONTINUOUS
10
10.0427
20
-4.58419
11
10.0258
21
-4.5673
0
LINE
8
BLACK
6
CONTINUOUS
10
10.0258
20
-4.5673
11
10.0125
21
-4.54744
0
LINE
8
BLACK
6
CONTINUOUS
10
10.0125
20
-4.54744
11
10.0034
21
-4.52537
0
LINE
8
BLACK
6
CONTINUOUS
10
10.0034
20
-4.52537
11
9.99874
21
-4.50194
0
LINE
8
BLACK
6
CONTINUOUS
10
9.99874
20
-4.50194
11
9.99874
21
-4.47806
0
LINE
8
BLACK
6
CONTINUOUS
10
9.99874
20
-4.47806
11
10.0034
21
-4.45463
0
LINE
8
BLACK
6
CONTINUOUS
10
10.0098
20
-4.52343
11
10.0184
21
-4.54428
0
LINE
8
BLACK
6
CONTINUOUS
10
10.0184
20
-4.54428
11
10.031
21
-4.56306
0
LINE
8
BLACK
6
CONTINUOUS
10
10.031
20
-4.56306
11
10.0469
21
-4.57902
0
LINE
8
BLACK
6
CONTINUOUS
10
10.0469
20
-4.57902
11
10.0657
21
-4.59156
0
LINE
8
BLACK
6
CONTINUOUS
10
10.0657
20
-4.59156
11
10.0866
21
-4.6002
0
LINE
8
BLACK
6
CONTINUOUS
10
10.0866
20
-4.6002
11
10.1087
21
-4.6046
0
LINE
8
BLACK
6
CONTINUOUS
10
10.1087
20
-4.6046
11
10.1313
21
-4.6046
0
LINE
8
BLACK
6
CONTINUOUS
10
10.1313
20
-4.6046
11
10.1534
21
-4.6002
0
LINE
8
BLACK
6
CONTINUOUS
10
10.1534
20
-4.6002
11
10.1743
21
-4.59156
0
LINE
8
BLACK
6
CONTINUOUS
10
10.1743
20
-4.59156
11
10.1931
21
-4.57902
0
LINE
8
BLACK
6
CONTINUOUS
10
10.1931
20
-4.57902
11
10.209
21
-4.56306
0
LINE
8
BLACK
6
CONTINUOUS
10
10.209
20
-4.56306
11
10.2216
21
-4.54428
0
LINE
8
BLACK
6
CONTINUOUS
10
10.2216
20
-4.54428
11
10.2302
21
-4.52343
0
LINE
8
BLACK
6
CONTINUOUS
10
10.2302
20
-4.52343
11
10.2346
21
-4.50129
0
LINE
8
BLACK
6
CONTINUOUS
10
10.2346
20
-4.50129
11
10.2346
21
-4.47871
0
LINE
8
BLACK
6
CONTINUOUS
10
10.2346
20
-4.47871
11
10.2302
21
-4.45657
0
LINE
8
BLACK
6
CONTINUOUS
10
10.2302
20
-4.45657
11
10.2216
21
-4.43572
0
LINE
8
BLACK
6
CONTINUOUS
10
10.2216
20
-4.43572
11
10.209
21
-4.41694
0
LINE
8
BLACK
6
CONTINUOUS
10
10.209
20
-4.41694
11
10.1931
21
-4.40098
0
LINE
8
BLACK
6
CONTINUOUS
10
10.1931
20
-4.40098
11
10.1743
21
-4.38844
0
LINE
8
BLACK
6
CONTINUOUS
10
10.1743
20
-4.38844
11
10.1534
21
-4.3798
0
LINE
8
BLACK
6
CONTINUOUS
10
10.1534
20
-4.3798
11
10.1313
21
-4.3754
0
LINE
8
BLACK
6
CONTINUOUS
10
10.1313
20
-4.3754
11
10.1087
21
-4.3754
0
LINE
8
BLACK
6
CONTINUOUS
10
10.1087
20
-4.3754
11
10.0866
21
-4.3798
0
LINE
8
BLACK
6
CONTINUOUS
10
10.0866
20
-4.3798
11
10.0657
21
-4.38844
0
LINE
8
BLACK
6
CONTINUOUS
10
10.0657
20
-4.38844
11
10.0469
21
-4.40098
0
LINE
8
BLACK
6
CONTINUOUS
10
10.0469
20
-4.40098
11
10.031
21
-4.41694
0
LINE
8
BLACK
6
CONTINUOUS
10
10.031
20
-4.41694
11
10.0184
21
-4.43572
0
LINE
8
BLACK
6
CONTINUOUS
10
10.0184
20
-4.43572
11
10.0098
21
-4.45657
0
LINE
8
BLACK
6
CONTINUOUS
10
10.0098
20
-4.45657
11
10.0054
21
-4.47871
0
LINE
8
BLACK
6
CONTINUOUS
10
10.0054
20
-4.47871
11
10.0054
21
-4.50129
0
LINE
8
BLACK
6
CONTINUOUS
10
10.0054
20
-4.50129
11
10.0098
21
-4.52343
0
LINE
8
BLACK
6
CONTINUOUS
10
12.2474
20
-4.237
11
12.2478
21
-4.23704
0
LINE
8
BLACK
6
CONTINUOUS
10
12.2478
20
-4.23704
11
12.2484
21
-4.23721
0
LINE
8
BLACK
6
CONTINUOUS
10
12.2484
20
-4.23721
11
12.2489
21
-4.23749
0
LINE
8
BLACK
6
CONTINUOUS
10
12.2489
20
-4.23749
11
12.2494
21
-4.23787
0
LINE
8
BLACK
6
CONTINUOUS
10
12.2494
20
-4.23787
11
12.2498
21
-4.23833
0
LINE
8
BLACK
6
CONTINUOUS
10
12.2498
20
-4.23833
11
12.25
21
-4.23885
0
LINE
8
BLACK
6
CONTINUOUS
10
12.25
20
-4.23885
11
12.2502
21
-4.23941
0
LINE
8
BLACK
6
CONTINUOUS
10
12.2502
20
-4.23941
11
12.2503
21
-4.24
0
LINE
8
BLACK
6
CONTINUOUS
10
12.2503
20
-4.24
11
12.2502
21
-4.24015
0
LINE
8
BLACK
6
CONTINUOUS
10
12.2502
20
-4.24015
11
12.2502
21
-4.73985
0
LINE
8
BLACK
6
CONTINUOUS
10
12.2502
20
-4.73985
11
12.2503
21
-4.74
0
LINE
8
BLACK
6
CONTINUOUS
10
12.2503
20
-4.74
11
12.2502
21
-4.74059
0
LINE
8
BLACK
6
CONTINUOUS
10
12.2502
20
-4.74059
11
12.25
21
-4.74115
0
LINE
8
BLACK
6
CONTINUOUS
10
12.25
20
-4.74115
11
12.2498
21
-4.74167
0
LINE
8
BLACK
6
CONTINUOUS
10
12.2498
20
-4.74167
11
12.2494
21
-4.74213
0
LINE
8
BLACK
6
CONTINUOUS
10
12.2494
20
-4.74213
11
12.2489
21
-4.74251
0
LINE
8
BLACK
6
CONTINUOUS
10
12.2489
20
-4.74251
11
12.2484
21
-4.74279
0
LINE
8
BLACK
6
CONTINUOUS
10
12.2484
20
-4.74279
11
12.2478
21
-4.74296
0
LINE
8
BLACK
6
CONTINUOUS
10
12.2478
20
-4.74296
11
12.2474
21
-4.743
0
LINE
8
BLACK
6
CONTINUOUS
10
12.2474
20
-4.743
11
12.2472
21
-4.74301
0
LINE
8
BLACK
6
CONTINUOUS
10
12.2472
20
-4.74301
11
12.2471
21
-4.743
0
LINE
8
BLACK
6
CONTINUOUS
10
12.2471
20
-4.743
11
11.7474
21
-4.743
0
LINE
8
BLACK
6
CONTINUOUS
10
11.7474
20
-4.743
11
11.7472
21
-4.74301
0
LINE
8
BLACK
6
CONTINUOUS
10
11.7472
20
-4.74301
11
11.7467
21
-4.74296
0
LINE
8
BLACK
6
CONTINUOUS
10
11.7467
20
-4.74296
11
11.7461
21
-4.74279
0
LINE
8
BLACK
6
CONTINUOUS
10
11.7461
20
-4.74279
11
11.7456
21
-4.74251
0
LINE
8
BLACK
6
CONTINUOUS
10
11.7456
20
-4.74251
11
11.7451
21
-4.74213
0
LINE
8
BLACK
6
CONTINUOUS
10
11.7451
20
-4.74213
11
11.7447
21
-4.74167
0
LINE
8
BLACK
6
CONTINUOUS
10
11.7447
20
-4.74167
11
11.7445
21
-4.74115
0
LINE
8
BLACK
6
CONTINUOUS
10
11.7445
20
-4.74115
11
11.7443
21
-4.74059
0
LINE
8
BLACK
6
CONTINUOUS
10
11.7443
20
-4.74059
11
11.7442
21
-4.74
0
LINE
8
BLACK
6
CONTINUOUS
10
11.7442
20
-4.74
11
11.7442
21
-4.73985
0
LINE
8
BLACK
6
CONTINUOUS
10
11.7442
20
-4.73985
11
11.7442
21
-4.24015
0
LINE
8
BLACK
6
CONTINUOUS
10
11.7442
20
-4.24015
11
11.7442
21
-4.24
0
LINE
8
BLACK
6
CONTINUOUS
10
11.7442
20
-4.24
11
11.7443
21
-4.23941
0
LINE
8
BLACK
6
CONTINUOUS
10
11.7443
20
-4.23941
11
11.7445
21
-4.23885
0
LINE
8
BLACK
6
CONTINUOUS
10
11.7445
20
-4.23885
11
11.7447
21
-4.23833
0
LINE
8
BLACK
6
CONTINUOUS
10
11.7447
20
-4.23833
11
11.7451
21
-4.23787
0
LINE
8
BLACK
6
CONTINUOUS
10
11.7451
20
-4.23787
11
11.7456
21
-4.23749
0
LINE
8
BLACK
6
CONTINUOUS
10
11.7456
20
-4.23749
11
11.7461
21
-4.23721
0
LINE
8
BLACK
6
CONTINUOUS
10
11.7461
20
-4.23721
11
11.7467
21
-4.23704
0
LINE
8
BLACK
6
CONTINUOUS
10
11.7467
20
-4.23704
11
11.7471
21
-4.237
0
LINE
8
BLACK
6
CONTINUOUS
10
11.7471
20
-4.237
11
11.7472
21
-4.23699
0
LINE
8
BLACK
6
CONTINUOUS
10
11.7472
20
-4.23699
11
11.7474
21
-4.237
0
LINE
8
BLACK
6
CONTINUOUS
10
11.7474
20
-4.237
11
12.2471
21
-4.237
0
LINE
8
BLACK
6
CONTINUOUS
10
12.2471
20
-4.237
11
12.2472
21
-4.23699
0
LINE
8
BLACK
6
CONTINUOUS
10
12.2472
20
-4.23699
11
12.2474
21
-4.237
0
LINE
8
BLACK
6
CONTINUOUS
10
11.7502
20
-4.243
11
11.7502
21
-4.737
0
LINE
8
BLACK
6
CONTINUOUS
10
11.7502
20
-4.737
11
12.2442
21
-4.737
0
LINE
8
BLACK
6
CONTINUOUS
10
12.2442
20
-4.737
11
12.2442
21
-4.243
0
LINE
8
BLACK
6
CONTINUOUS
10
12.2442
20
-4.243
11
11.7502
21
-4.243
0
LINE
8
BLACK
6
CONTINUOUS
10
11.8806
20
-4.45463
11
11.8898
21
-4.43256
0
LINE
8
BLACK
6
CONTINUOUS
10
11.8898
20
-4.43256
11
11.9031
21
-4.4127
0
LINE
8
BLACK
6
CONTINUOUS
10
11.9031
20
-4.4127
11
11.9199
21
-4.39581
0
LINE
8
BLACK
6
CONTINUOUS
10
11.9199
20
-4.39581
11
11.9398
21
-4.38254
0
LINE
8
BLACK
6
CONTINUOUS
10
11.9398
20
-4.38254
11
11.9619
21
-4.3734
0
LINE
8
BLACK
6
CONTINUOUS
10
11.9619
20
-4.3734
11
11.9853
21
-4.36874
0
LINE
8
BLACK
6
CONTINUOUS
10
11.9853
20
-4.36874
11
12.0092
21
-4.36874
0
LINE
8
BLACK
6
CONTINUOUS
10
12.0092
20
-4.36874
11
12.0326
21
-4.3734
0
LINE
8
BLACK
6
CONTINUOUS
10
12.0326
20
-4.3734
11
12.0547
21
-4.38254
0
LINE
8
BLACK
6
CONTINUOUS
10
12.0547
20
-4.38254
11
12.0745
21
-4.39581
0
LINE
8
BLACK
6
CONTINUOUS
10
12.0745
20
-4.39581
11
12.0914
21
-4.4127
0
LINE
8
BLACK
6
CONTINUOUS
10
12.0914
20
-4.4127
11
12.1047
21
-4.43256
0
LINE
8
BLACK
6
CONTINUOUS
10
12.1047
20
-4.43256
11
12.1138
21
-4.45463
0
LINE
8
BLACK
6
CONTINUOUS
10
12.1138
20
-4.45463
11
12.1185
21
-4.47806
0
LINE
8
BLACK
6
CONTINUOUS
10
12.1185
20
-4.47806
11
12.1185
21
-4.50194
0
LINE
8
BLACK
6
CONTINUOUS
10
12.1185
20
-4.50194
11
12.1138
21
-4.52537
0
LINE
8
BLACK
6
CONTINUOUS
10
12.1138
20
-4.52537
11
12.1047
21
-4.54744
0
LINE
8
BLACK
6
CONTINUOUS
10
12.1047
20
-4.54744
11
12.0914
21
-4.5673
0
LINE
8
BLACK
6
CONTINUOUS
10
12.0914
20
-4.5673
11
12.0745
21
-4.58419
0
LINE
8
BLACK
6
CONTINUOUS
10
12.0745
20
-4.58419
11
12.0547
21
-4.59746
0
LINE
8
BLACK
6
CONTINUOUS
10
12.0547
20
-4.59746
11
12.0326
21
-4.6066
0
LINE
8
BLACK
6
CONTINUOUS
10
12.0326
20
-4.6066
11
12.0092
21
-4.61126
0
LINE
8
BLACK
6
CONTINUOUS
10
12.0092
20
-4.61126
11
11.9853
21
-4.61126
0
LINE
8
BLACK
6
CONTINUOUS
10
11.9853
20
-4.61126
11
11.9619
21
-4.6066
0
LINE
8
BLACK
6
CONTINUOUS
10
11.9619
20
-4.6066
11
11.9398
21
-4.59746
0
LINE
8
BLACK
6
CONTINUOUS
10
11.9398
20
-4.59746
11
11.9199
21
-4.58419
0
LINE
8
BLACK
6
CONTINUOUS
10
11.9199
20
-4.58419
11
11.9031
21
-4.5673
0
LINE
8
BLACK
6
CONTINUOUS
10
11.9031
20
-4.5673
11
11.8898
21
-4.54744
0
LINE
8
BLACK
6
CONTINUOUS
10
11.8898
20
-4.54744
11
11.8806
21
-4.52537
0
LINE
8
BLACK
6
CONTINUOUS
10
11.8806
20
-4.52537
11
11.876
21
-4.50194
0
LINE
8
BLACK
6
CONTINUOUS
10
11.876
20
-4.50194
11
11.876
21
-4.47806
0
LINE
8
BLACK
6
CONTINUOUS
10
11.876
20
-4.47806
11
11.8806
21
-4.45463
0
LINE
8
BLACK
6
CONTINUOUS
10
11.887
20
-4.52343
11
11.8957
21
-4.54428
0
LINE
8
BLACK
6
CONTINUOUS
10
11.8957
20
-4.54428
11
11.9082
21
-4.56306
0
LINE
8
BLACK
6
CONTINUOUS
10
11.9082
20
-4.56306
11
11.9242
21
-4.57902
0
LINE
8
BLACK
6
CONTINUOUS
10
11.9242
20
-4.57902
11
11.943
21
-4.59156
0
LINE
8
BLACK
6
CONTINUOUS
10
11.943
20
-4.59156
11
11.9638
21
-4.6002
0
LINE
8
BLACK
6
CONTINUOUS
10
11.9638
20
-4.6002
11
11.986
21
-4.6046
0
LINE
8
BLACK
6
CONTINUOUS
10
11.986
20
-4.6046
11
12.0085
21
-4.6046
0
LINE
8
BLACK
6
CONTINUOUS
10
12.0085
20
-4.6046
11
12.0307
21
-4.6002
0
LINE
8
BLACK
6
CONTINUOUS
10
12.0307
20
-4.6002
11
12.0515
21
-4.59156
0
LINE
8
BLACK
6
CONTINUOUS
10
12.0515
20
-4.59156
11
12.0703
21
-4.57902
0
LINE
8
BLACK
6
CONTINUOUS
10
12.0703
20
-4.57902
11
12.0863
21
-4.56306
0
LINE
8
BLACK
6
CONTINUOUS
10
12.0863
20
-4.56306
11
12.0988
21
-4.54428
0
LINE
8
BLACK
6
CONTINUOUS
10
12.0988
20
-4.54428
11
12.1074
21
-4.52343
0
LINE
8
BLACK
6
CONTINUOUS
10
12.1074
20
-4.52343
11
12.1118
21
-4.50129
0
LINE
8
BLACK
6
CONTINUOUS
10
12.1118
20
-4.50129
11
12.1118
21
-4.47871
0
LINE
8
BLACK
6
CONTINUOUS
10
12.1118
20
-4.47871
11
12.1074
21
-4.45657
0
LINE
8
BLACK
6
CONTINUOUS
10
12.1074
20
-4.45657
11
12.0988
21
-4.43572
0
LINE
8
BLACK
6
CONTINUOUS
10
12.0988
20
-4.43572
11
12.0863
21
-4.41694
0
LINE
8
BLACK
6
CONTINUOUS
10
12.0863
20
-4.41694
11
12.0703
21
-4.40098
0
LINE
8
BLACK
6
CONTINUOUS
10
12.0703
20
-4.40098
11
12.0515
21
-4.38844
0
LINE
8
BLACK
6
CONTINUOUS
10
12.0515
20
-4.38844
11
12.0307
21
-4.3798
0
LINE
8
BLACK
6
CONTINUOUS
10
12.0307
20
-4.3798
11
12.0085
21
-4.3754
0
LINE
8
BLACK
6
CONTINUOUS
10
12.0085
20
-4.3754
11
11.986
21
-4.3754
0
LINE
8
BLACK
6
CONTINUOUS
10
11.986
20
-4.3754
11
11.9638
21
-4.3798
0
LINE
8
BLACK
6
CONTINUOUS
10
11.9638
20
-4.3798
11
11.943
21
-4.38844
0
LINE
8
BLACK
6
CONTINUOUS
10
11.943
20
-4.38844
11
11.9242
21
-4.40098
0
LINE
8
BLACK
6
CONTINUOUS
10
11.9242
20
-4.40098
11
11.9082
21
-4.41694
0
LINE
8
BLACK
6
CONTINUOUS
10
11.9082
20
-4.41694
11
11.8957
21
-4.43572
0
LINE
8
BLACK
6
CONTINUOUS
10
11.8957
20
-4.43572
11
11.887
21
-4.45657
0
LINE
8
BLACK
6
CONTINUOUS
10
11.887
20
-4.45657
11
11.8826
21
-4.47871
0
LINE
8
BLACK
6
CONTINUOUS
10
11.8826
20
-4.47871
11
11.8826
21
-4.50129
0
LINE
8
BLACK
6
CONTINUOUS
10
11.8826
20
-4.50129
11
11.887
21
-4.52343
0
LINE
8
BLACK
6
CONTINUOUS
10
3.82015
20
-4.237
11
3.82059
21
-4.23704
0
LINE
8
BLACK
6
CONTINUOUS
10
3.82059
20
-4.23704
11
3.82115
21
-4.23721
0
LINE
8
BLACK
6
CONTINUOUS
10
3.82115
20
-4.23721
11
3.82167
21
-4.23749
0
LINE
8
BLACK
6
CONTINUOUS
10
3.82167
20
-4.23749
11
3.82213
21
-4.23787
0
LINE
8
BLACK
6
CONTINUOUS
10
3.82213
20
-4.23787
11
3.82251
21
-4.23833
0
LINE
8
BLACK
6
CONTINUOUS
10
3.82251
20
-4.23833
11
3.82279
21
-4.23885
0
LINE
8
BLACK
6
CONTINUOUS
10
3.82279
20
-4.23885
11
3.82296
21
-4.23941
0
LINE
8
BLACK
6
CONTINUOUS
10
3.82296
20
-4.23941
11
3.82301
21
-4.24
0
LINE
8
BLACK
6
CONTINUOUS
10
3.82301
20
-4.24
11
3.823
21
-4.24015
0
LINE
8
BLACK
6
CONTINUOUS
10
3.823
20
-4.24015
11
3.823
21
-4.73985
0
LINE
8
BLACK
6
CONTINUOUS
10
3.823
20
-4.73985
11
3.82301
21
-4.74
0
LINE
8
BLACK
6
CONTINUOUS
10
3.82301
20
-4.74
11
3.82296
21
-4.74059
0
LINE
8
BLACK
6
CONTINUOUS
10
3.82296
20
-4.74059
11
3.82279
21
-4.74115
0
LINE
8
BLACK
6
CONTINUOUS
10
3.82279
20
-4.74115
11
3.82251
21
-4.74167
0
LINE
8
BLACK
6
CONTINUOUS
10
3.82251
20
-4.74167
11
3.82213
21
-4.74213
0
LINE
8
BLACK
6
CONTINUOUS
10
3.82213
20
-4.74213
11
3.82167
21
-4.74251
0
LINE
8
BLACK
6
CONTINUOUS
10
3.82167
20
-4.74251
11
3.82115
21
-4.74279
0
LINE
8
BLACK
6
CONTINUOUS
10
3.82115
20
-4.74279
11
3.82059
21
-4.74296
0
LINE
8
BLACK
6
CONTINUOUS
10
3.82059
20
-4.74296
11
3.82015
21
-4.743
0
LINE
8
BLACK
6
CONTINUOUS
10
3.82015
20
-4.743
11
3.82
21
-4.74301
0
LINE
8
BLACK
6
CONTINUOUS
10
3.82
20
-4.74301
11
3.81985
21
-4.743
0
LINE
8
BLACK
6
CONTINUOUS
10
3.81985
20
-4.743
11
3.32015
21
-4.743
0
LINE
8
BLACK
6
CONTINUOUS
10
3.32015
20
-4.743
11
3.32
21
-4.74301
0
LINE
8
BLACK
6
CONTINUOUS
10
3.32
20
-4.74301
11
3.31941
21
-4.74296
0
LINE
8
BLACK
6
CONTINUOUS
10
3.31941
20
-4.74296
11
3.31885
21
-4.74279
0
LINE
8
BLACK
6
CONTINUOUS
10
3.31885
20
-4.74279
11
3.31833
21
-4.74251
0
LINE
8
BLACK
6
CONTINUOUS
10
3.31833
20
-4.74251
11
3.31787
21
-4.74213
0
LINE
8
BLACK
6
CONTINUOUS
10
3.31787
20
-4.74213
11
3.31749
21
-4.74167
0
LINE
8
BLACK
6
CONTINUOUS
10
3.31749
20
-4.74167
11
3.31721
21
-4.74115
0
LINE
8
BLACK
6
CONTINUOUS
10
3.31721
20
-4.74115
11
3.31704
21
-4.74059
0
LINE
8
BLACK
6
CONTINUOUS
10
3.31704
20
-4.74059
11
3.31699
21
-4.74
0
LINE
8
BLACK
6
CONTINUOUS
10
3.31699
20
-4.74
11
3.317
21
-4.73985
0
LINE
8
BLACK
6
CONTINUOUS
10
3.317
20
-4.73985
11
3.317
21
-4.24015
0
LINE
8
BLACK
6
CONTINUOUS
10
3.317
20
-4.24015
11
3.31699
21
-4.24
0
LINE
8
BLACK
6
CONTINUOUS
10
3.31699
20
-4.24
11
3.31704
21
-4.23941
0
LINE
8
BLACK
6
CONTINUOUS
10
3.31704
20
-4.23941
11
3.31721
21
-4.23885
0
LINE
8
BLACK
6
CONTINUOUS
10
3.31721
20
-4.23885
11
3.31749
21
-4.23833
0
LINE
8
BLACK
6
CONTINUOUS
10
3.31749
20
-4.23833
11
3.31787
21
-4.23787
0
LINE
8
BLACK
6
CONTINUOUS
10
3.31787
20
-4.23787
11
3.31833
21
-4.23749
0
LINE
8
BLACK
6
CONTINUOUS
10
3.31833
20
-4.23749
11
3.31885
21
-4.23721
0
LINE
8
BLACK
6
CONTINUOUS
10
3.31885
20
-4.23721
11
3.31941
21
-4.23704
0
LINE
8
BLACK
6
CONTINUOUS
10
3.31941
20
-4.23704
11
3.31985
21
-4.237
0
LINE
8
BLACK
6
CONTINUOUS
10
3.31985
20
-4.237
11
3.32
21
-4.23699
0
LINE
8
BLACK
6
CONTINUOUS
10
3.32
20
-4.23699
11
3.32015
21
-4.237
0
LINE
8
BLACK
6
CONTINUOUS
10
3.32015
20
-4.237
11
3.81985
21
-4.237
0
LINE
8
BLACK
6
CONTINUOUS
10
3.81985
20
-4.237
11
3.82
21
-4.23699
0
LINE
8
BLACK
6
CONTINUOUS
10
3.82
20
-4.23699
11
3.82015
21
-4.237
0
LINE
8
BLACK
6
CONTINUOUS
10
3.323
20
-4.243
11
3.323
21
-4.737
0
LINE
8
BLACK
6
CONTINUOUS
10
3.323
20
-4.737
11
3.817
21
-4.737
0
LINE
8
BLACK
6
CONTINUOUS
10
3.817
20
-4.737
11
3.817
21
-4.243
0
LINE
8
BLACK
6
CONTINUOUS
10
3.817
20
-4.243
11
3.323
21
-4.243
0
LINE
8
BLACK
6
CONTINUOUS
10
3.4534
20
-4.45463
11
3.46254
21
-4.43256
0
LINE
8
BLACK
6
CONTINUOUS
10
3.46254
20
-4.43256
11
3.47581
21
-4.4127
0
LINE
8
BLACK
6
CONTINUOUS
10
3.47581
20
-4.4127
11
3.4927
21
-4.39581
0
LINE
8
BLACK
6
CONTINUOUS
10
3.4927
20
-4.39581
11
3.51256
21
-4.38254
0
LINE
8
BLACK
6
CONTINUOUS
10
3.51256
20
-4.38254
11
3.53463
21
-4.3734
0
LINE
8
BLACK
6
CONTINUOUS
10
3.53463
20
-4.3734
11
3.55806
21
-4.36874
0
LINE
8
BLACK
6
CONTINUOUS
10
3.55806
20
-4.36874
11
3.58194
21
-4.36874
0
LINE
8
BLACK
6
CONTINUOUS
10
3.58194
20
-4.36874
11
3.60537
21
-4.3734
0
LINE
8
BLACK
6
CONTINUOUS
10
3.60537
20
-4.3734
11
3.62744
21
-4.38254
0
LINE
8
BLACK
6
CONTINUOUS
10
3.62744
20
-4.38254
11
3.6473
21
-4.39581
0
LINE
8
BLACK
6
CONTINUOUS
10
3.6473
20
-4.39581
11
3.66419
21
-4.4127
0
LINE
8
BLACK
6
CONTINUOUS
10
3.66419
20
-4.4127
11
3.67746
21
-4.43256
0
LINE
8
BLACK
6
CONTINUOUS
10
3.67746
20
-4.43256
11
3.6866
21
-4.45463
0
LINE
8
BLACK
6
CONTINUOUS
10
3.6866
20
-4.45463
11
3.69126
21
-4.47806
0
LINE
8
BLACK
6
CONTINUOUS
10
3.69126
20
-4.47806
11
3.69126
21
-4.50194
0
LINE
8
BLACK
6
CONTINUOUS
10
3.69126
20
-4.50194
11
3.6866
21
-4.52537
0
LINE
8
BLACK
6
CONTINUOUS
10
3.6866
20
-4.52537
11
3.67746
21
-4.54744
0
LINE
8
BLACK
6
CONTINUOUS
10
3.67746
20
-4.54744
11
3.66419
21
-4.5673
0
LINE
8
BLACK
6
CONTINUOUS
10
3.66419
20
-4.5673
11
3.6473
21
-4.58419
0
LINE
8
BLACK
6
CONTINUOUS
10
3.6473
20
-4.58419
11
3.62744
21
-4.59746
0
LINE
8
BLACK
6
CONTINUOUS
10
3.62744
20
-4.59746
11
3.60537
21
-4.6066
0
LINE
8
BLACK
6
CONTINUOUS
10
3.60537
20
-4.6066
11
3.58194
21
-4.61126
0
LINE
8
BLACK
6
CONTINUOUS
10
3.58194
20
-4.61126
11
3.55806
21
-4.61126
0
LINE
8
BLACK
6
CONTINUOUS
10
3.55806
20
-4.61126
11
3.53463
21
-4.6066
0
LINE
8
BLACK
6
CONTINUOUS
10
3.53463
20
-4.6066
11
3.51256
21
-4.59746
0
LINE
8
BLACK
6
CONTINUOUS
10
3.51256
20
-4.59746
11
3.4927
21
-4.58419
0
LINE
8
BLACK
6
CONTINUOUS
10
3.4927
20
-4.58419
11
3.47581
21
-4.5673
0
LINE
8
BLACK
6
CONTINUOUS
10
3.47581
20
-4.5673
11
3.46254
21
-4.54744
0
LINE
8
BLACK
6
CONTINUOUS
10
3.46254
20
-4.54744
11
3.4534
21
-4.52537
0
LINE
8
BLACK
6
CONTINUOUS
10
3.4534
20
-4.52537
11
3.44874
21
-4.50194
0
LINE
8
BLACK
6
CONTINUOUS
10
3.44874
20
-4.50194
11
3.44874
21
-4.47806
0
LINE
8
BLACK
6
CONTINUOUS
10
3.44874
20
-4.47806
11
3.4534
21
-4.45463
0
LINE
8
BLACK
6
CONTINUOUS
10
3.4598
20
-4.52343
11
3.46844
21
-4.54428
0
LINE
8
BLACK
6
CONTINUOUS
10
3.46844
20
-4.54428
11
3.48098
21
-4.56306
0
LINE
8
BLACK
6
CONTINUOUS
10
3.48098
20
-4.56306
11
3.49694
21
-4.57902
0
LINE
8
BLACK
6
CONTINUOUS
10
3.49694
20
-4.57902
11
3.51572
21
-4.59156
0
LINE
8
BLACK
6
CONTINUOUS
10
3.51572
20
-4.59156
11
3.53657
21
-4.6002
0
LINE
8
BLACK
6
CONTINUOUS
10
3.53657
20
-4.6002
11
3.55871
21
-4.6046
0
LINE
8
BLACK
6
CONTINUOUS
10
3.55871
20
-4.6046
11
3.58129
21
-4.6046
0
LINE
8
BLACK
6
CONTINUOUS
10
3.58129
20
-4.6046
11
3.60343
21
-4.6002
0
LINE
8
BLACK
6
CONTINUOUS
10
3.60343
20
-4.6002
11
3.62428
21
-4.59156
0
LINE
8
BLACK
6
CONTINUOUS
10
3.62428
20
-4.59156
11
3.64306
21
-4.57902
0
LINE
8
BLACK
6
CONTINUOUS
10
3.64306
20
-4.57902
11
3.65902
21
-4.56306
0
LINE
8
BLACK
6
CONTINUOUS
10
3.65902
20
-4.56306
11
3.67156
21
-4.54428
0
LINE
8
BLACK
6
CONTINUOUS
10
3.67156
20
-4.54428
11
3.6802
21
-4.52343
0
LINE
8
BLACK
6
CONTINUOUS
10
3.6802
20
-4.52343
11
3.6846
21
-4.50129
0
LINE
8
BLACK
6
CONTINUOUS
10
3.6846
20
-4.50129
11
3.6846
21
-4.47871
0
LINE
8
BLACK
6
CONTINUOUS
10
3.6846
20
-4.47871
11
3.6802
21
-4.45657
0
LINE
8
BLACK
6
CONTINUOUS
10
3.6802
20
-4.45657
11
3.67156
21
-4.43572
0
LINE
8
BLACK
6
CONTINUOUS
10
3.67156
20
-4.43572
11
3.65902
21
-4.41694
0
LINE
8
BLACK
6
CONTINUOUS
10
3.65902
20
-4.41694
11
3.64306
21
-4.40098
0
LINE
8
BLACK
6
CONTINUOUS
10
3.64306
20
-4.40098
11
3.62428
21
-4.38844
0
LINE
8
BLACK
6
CONTINUOUS
10
3.62428
20
-4.38844
11
3.60343
21
-4.3798
0
LINE
8
BLACK
6
CONTINUOUS
10
3.60343
20
-4.3798
11
3.58129
21
-4.3754
0
LINE
8
BLACK
6
CONTINUOUS
10
3.58129
20
-4.3754
11
3.55871
21
-4.3754
0
LINE
8
BLACK
6
CONTINUOUS
10
3.55871
20
-4.3754
11
3.53657
21
-4.3798
0
LINE
8
BLACK
6
CONTINUOUS
10
3.53657
20
-4.3798
11
3.51572
21
-4.38844
0
LINE
8
BLACK
6
CONTINUOUS
10
3.51572
20
-4.38844
11
3.49694
21
-4.40098
0
LINE
8
BLACK
6
CONTINUOUS
10
3.49694
20
-4.40098
11
3.48098
21
-4.41694
0
LINE
8
BLACK
6
CONTINUOUS
10
3.48098
20
-4.41694
11
3.46844
21
-4.43572
0
LINE
8
BLACK
6
CONTINUOUS
10
3.46844
20
-4.43572
11
3.4598
21
-4.45657
0
LINE
8
BLACK
6
CONTINUOUS
10
3.4598
20
-4.45657
11
3.4554
21
-4.47871
0
LINE
8
BLACK
6
CONTINUOUS
10
3.4554
20
-4.47871
11
3.4554
21
-4.50129
0
LINE
8
BLACK
6
CONTINUOUS
10
3.4554
20
-4.50129
11
3.4598
21
-4.52343
0
LINE
8
BLACK
6
CONTINUOUS
10
2.88015
20
-4.237
11
2.88059
21
-4.23704
0
LINE
8
BLACK
6
CONTINUOUS
10
2.88059
20
-4.23704
11
2.88115
21
-4.23721
0
LINE
8
BLACK
6
CONTINUOUS
10
2.88115
20
-4.23721
11
2.88167
21
-4.23749
0
LINE
8
BLACK
6
CONTINUOUS
10
2.88167
20
-4.23749
11
2.88213
21
-4.23787
0
LINE
8
BLACK
6
CONTINUOUS
10
2.88213
20
-4.23787
11
2.88251
21
-4.23833
0
LINE
8
BLACK
6
CONTINUOUS
10
2.88251
20
-4.23833
11
2.88279
21
-4.23885
0
LINE
8
BLACK
6
CONTINUOUS
10
2.88279
20
-4.23885
11
2.88296
21
-4.23941
0
LINE
8
BLACK
6
CONTINUOUS
10
2.88296
20
-4.23941
11
2.88301
21
-4.24
0
LINE
8
BLACK
6
CONTINUOUS
10
2.88301
20
-4.24
11
2.883
21
-4.24015
0
LINE
8
BLACK
6
CONTINUOUS
10
2.883
20
-4.24015
11
2.883
21
-4.73985
0
LINE
8
BLACK
6
CONTINUOUS
10
2.883
20
-4.73985
11
2.88301
21
-4.74
0
LINE
8
BLACK
6
CONTINUOUS
10
2.88301
20
-4.74
11
2.88296
21
-4.74059
0
LINE
8
BLACK
6
CONTINUOUS
10
2.88296
20
-4.74059
11
2.88279
21
-4.74115
0
LINE
8
BLACK
6
CONTINUOUS
10
2.88279
20
-4.74115
11
2.88251
21
-4.74167
0
LINE
8
BLACK
6
CONTINUOUS
10
2.88251
20
-4.74167
11
2.88213
21
-4.74213
0
LINE
8
BLACK
6
CONTINUOUS
10
2.88213
20
-4.74213
11
2.88167
21
-4.74251
0
LINE
8
BLACK
6
CONTINUOUS
10
2.88167
20
-4.74251
11
2.88115
21
-4.74279
0
LINE
8
BLACK
6
CONTINUOUS
10
2.88115
20
-4.74279
11
2.88059
21
-4.74296
0
LINE
8
BLACK
6
CONTINUOUS
10
2.88059
20
-4.74296
11
2.88015
21
-4.743
0
LINE
8
BLACK
6
CONTINUOUS
10
2.88015
20
-4.743
11
2.88
21
-4.74301
0
LINE
8
BLACK
6
CONTINUOUS
10
2.88
20
-4.74301
11
2.87985
21
-4.743
0
LINE
8
BLACK
6
CONTINUOUS
10
2.87985
20
-4.743
11
2.38015
21
-4.743
0
LINE
8
BLACK
6
CONTINUOUS
10
2.38015
20
-4.743
11
2.38
21
-4.74301
0
LINE
8
BLACK
6
CONTINUOUS
10
2.38
20
-4.74301
11
2.37941
21
-4.74296
0
LINE
8
BLACK
6
CONTINUOUS
10
2.37941
20
-4.74296
11
2.37885
21
-4.74279
0
LINE
8
BLACK
6
CONTINUOUS
10
2.37885
20
-4.74279
11
2.37833
21
-4.74251
0
LINE
8
BLACK
6
CONTINUOUS
10
2.37833
20
-4.74251
11
2.37787
21
-4.74213
0
LINE
8
BLACK
6
CONTINUOUS
10
2.37787
20
-4.74213
11
2.37749
21
-4.74167
0
LINE
8
BLACK
6
CONTINUOUS
10
2.37749
20
-4.74167
11
2.37721
21
-4.74115
0
LINE
8
BLACK
6
CONTINUOUS
10
2.37721
20
-4.74115
11
2.37704
21
-4.74059
0
LINE
8
BLACK
6
CONTINUOUS
10
2.37704
20
-4.74059
11
2.37699
21
-4.74
0
LINE
8
BLACK
6
CONTINUOUS
10
2.37699
20
-4.74
11
2.377
21
-4.73985
0
LINE
8
BLACK
6
CONTINUOUS
10
2.377
20
-4.73985
11
2.377
21
-4.24015
0
LINE
8
BLACK
6
CONTINUOUS
10
2.377
20
-4.24015
11
2.37699
21
-4.24
0
LINE
8
BLACK
6
CONTINUOUS
10
2.37699
20
-4.24
11
2.37704
21
-4.23941
0
LINE
8
BLACK
6
CONTINUOUS
10
2.37704
20
-4.23941
11
2.37721
21
-4.23885
0
LINE
8
BLACK
6
CONTINUOUS
10
2.37721
20
-4.23885
11
2.37749
21
-4.23833
0
LINE
8
BLACK
6
CONTINUOUS
10
2.37749
20
-4.23833
11
2.37787
21
-4.23787
0
LINE
8
BLACK
6
CONTINUOUS
10
2.37787
20
-4.23787
11
2.37833
21
-4.23749
0
LINE
8
BLACK
6
CONTINUOUS
10
2.37833
20
-4.23749
11
2.37885
21
-4.23721
0
LINE
8
BLACK
6
CONTINUOUS
10
2.37885
20
-4.23721
11
2.37941
21
-4.23704
0
LINE
8
BLACK
6
CONTINUOUS
10
2.37941
20
-4.23704
11
2.37985
21
-4.237
0
LINE
8
BLACK
6
CONTINUOUS
10
2.37985
20
-4.237
11
2.38
21
-4.23699
0
LINE
8
BLACK
6
CONTINUOUS
10
2.38
20
-4.23699
11
2.38015
21
-4.237
0
LINE
8
BLACK
6
CONTINUOUS
10
2.38015
20
-4.237
11
2.87985
21
-4.237
0
LINE
8
BLACK
6
CONTINUOUS
10
2.87985
20
-4.237
11
2.88
21
-4.23699
0
LINE
8
BLACK
6
CONTINUOUS
10
2.88
20
-4.23699
11
2.88015
21
-4.237
0
LINE
8
BLACK
6
CONTINUOUS
10
2.383
20
-4.243
11
2.383
21
-4.737
0
LINE
8
BLACK
6
CONTINUOUS
10
2.383
20
-4.737
11
2.877
21
-4.737
0
LINE
8
BLACK
6
CONTINUOUS
10
2.877
20
-4.737
11
2.877
21
-4.243
0
LINE
8
BLACK
6
CONTINUOUS
10
2.877
20
-4.243
11
2.383
21
-4.243
0
LINE
8
BLACK
6
CONTINUOUS
10
2.5134
20
-4.45463
11
2.52254
21
-4.43256
0
LINE
8
BLACK
6
CONTINUOUS
10
2.52254
20
-4.43256
11
2.53581
21
-4.4127
0
LINE
8
BLACK
6
CONTINUOUS
10
2.53581
20
-4.4127
11
2.5527
21
-4.39581
0
LINE
8
BLACK
6
CONTINUOUS
10
2.5527
20
-4.39581
11
2.57256
21
-4.38254
0
LINE
8
BLACK
6
CONTINUOUS
10
2.57256
20
-4.38254
11
2.59463
21
-4.3734
0
LINE
8
BLACK
6
CONTINUOUS
10
2.59463
20
-4.3734
11
2.61806
21
-4.36874
0
LINE
8
BLACK
6
CONTINUOUS
10
2.61806
20
-4.36874
11
2.64194
21
-4.36874
0
LINE
8
BLACK
6
CONTINUOUS
10
2.64194
20
-4.36874
11
2.66537
21
-4.3734
0
LINE
8
BLACK
6
CONTINUOUS
10
2.66537
20
-4.3734
11
2.68744
21
-4.38254
0
LINE
8
BLACK
6
CONTINUOUS
10
2.68744
20
-4.38254
11
2.7073
21
-4.39581
0
LINE
8
BLACK
6
CONTINUOUS
10
2.7073
20
-4.39581
11
2.72419
21
-4.4127
0
LINE
8
BLACK
6
CONTINUOUS
10
2.72419
20
-4.4127
11
2.73746
21
-4.43256
0
LINE
8
BLACK
6
CONTINUOUS
10
2.73746
20
-4.43256
11
2.7466
21
-4.45463
0
LINE
8
BLACK
6
CONTINUOUS
10
2.7466
20
-4.45463
11
2.75126
21
-4.47806
0
LINE
8
BLACK
6
CONTINUOUS
10
2.75126
20
-4.47806
11
2.75126
21
-4.50194
0
LINE
8
BLACK
6
CONTINUOUS
10
2.75126
20
-4.50194
11
2.7466
21
-4.52537
0
LINE
8
BLACK
6
CONTINUOUS
10
2.7466
20
-4.52537
11
2.73746
21
-4.54744
0
LINE
8
BLACK
6
CONTINUOUS
10
2.73746
20
-4.54744
11
2.72419
21
-4.5673
0
LINE
8
BLACK
6
CONTINUOUS
10
2.72419
20
-4.5673
11
2.7073
21
-4.58419
0
LINE
8
BLACK
6
CONTINUOUS
10
2.7073
20
-4.58419
11
2.68744
21
-4.59746
0
LINE
8
BLACK
6
CONTINUOUS
10
2.68744
20
-4.59746
11
2.66537
21
-4.6066
0
LINE
8
BLACK
6
CONTINUOUS
10
2.66537
20
-4.6066
11
2.64194
21
-4.61126
0
LINE
8
BLACK
6
CONTINUOUS
10
2.64194
20
-4.61126
11
2.61806
21
-4.61126
0
LINE
8
BLACK
6
CONTINUOUS
10
2.61806
20
-4.61126
11
2.59463
21
-4.6066
0
LINE
8
BLACK
6
CONTINUOUS
10
2.59463
20
-4.6066
11
2.57256
21
-4.59746
0
LINE
8
BLACK
6
CONTINUOUS
10
2.57256
20
-4.59746
11
2.5527
21
-4.58419
0
LINE
8
BLACK
6
CONTINUOUS
10
2.5527
20
-4.58419
11
2.53581
21
-4.5673
0
LINE
8
BLACK
6
CONTINUOUS
10
2.53581
20
-4.5673
11
2.52254
21
-4.54744
0
LINE
8
BLACK
6
CONTINUOUS
10
2.52254
20
-4.54744
11
2.5134
21
-4.52537
0
LINE
8
BLACK
6
CONTINUOUS
10
2.5134
20
-4.52537
11
2.50874
21
-4.50194
0
LINE
8
BLACK
6
CONTINUOUS
10
2.50874
20
-4.50194
11
2.50874
21
-4.47806
0
LINE
8
BLACK
6
CONTINUOUS
10
2.50874
20
-4.47806
11
2.5134
21
-4.45463
0
LINE
8
BLACK
6
CONTINUOUS
10
2.5198
20
-4.52343
11
2.52844
21
-4.54428
0
LINE
8
BLACK
6
CONTINUOUS
10
2.52844
20
-4.54428
11
2.54098
21
-4.56306
0
LINE
8
BLACK
6
CONTINUOUS
10
2.54098
20
-4.56306
11
2.55694
21
-4.57902
0
LINE
8
BLACK
6
CONTINUOUS
10
2.55694
20
-4.57902
11
2.57572
21
-4.59156
0
LINE
8
BLACK
6
CONTINUOUS
10
2.57572
20
-4.59156
11
2.59657
21
-4.6002
0
LINE
8
BLACK
6
CONTINUOUS
10
2.59657
20
-4.6002
11
2.61871
21
-4.6046
0
LINE
8
BLACK
6
CONTINUOUS
10
2.61871
20
-4.6046
11
2.64129
21
-4.6046
0
LINE
8
BLACK
6
CONTINUOUS
10
2.64129
20
-4.6046
11
2.66343
21
-4.6002
0
LINE
8
BLACK
6
CONTINUOUS
10
2.66343
20
-4.6002
11
2.68428
21
-4.59156
0
LINE
8
BLACK
6
CONTINUOUS
10
2.68428
20
-4.59156
11
2.70306
21
-4.57902
0
LINE
8
BLACK
6
CONTINUOUS
10
2.70306
20
-4.57902
11
2.71902
21
-4.56306
0
LINE
8
BLACK
6
CONTINUOUS
10
2.71902
20
-4.56306
11
2.73156
21
-4.54428
0
LINE
8
BLACK
6
CONTINUOUS
10
2.73156
20
-4.54428
11
2.7402
21
-4.52343
0
LINE
8
BLACK
6
CONTINUOUS
10
2.7402
20
-4.52343
11
2.7446
21
-4.50129
0
LINE
8
BLACK
6
CONTINUOUS
10
2.7446
20
-4.50129
11
2.7446
21
-4.47871
0
LINE
8
BLACK
6
CONTINUOUS
10
2.7446
20
-4.47871
11
2.7402
21
-4.45657
0
LINE
8
BLACK
6
CONTINUOUS
10
2.7402
20
-4.45657
11
2.73156
21
-4.43572
0
LINE
8
BLACK
6
CONTINUOUS
10
2.73156
20
-4.43572
11
2.71902
21
-4.41694
0
LINE
8
BLACK
6
CONTINUOUS
10
2.71902
20
-4.41694
11
2.70306
21
-4.40098
0
LINE
8
BLACK
6
CONTINUOUS
10
2.70306
20
-4.40098
11
2.68428
21
-4.38844
0
LINE
8
BLACK
6
CONTINUOUS
10
2.68428
20
-4.38844
11
2.66343
21
-4.3798
0
LINE
8
BLACK
6
CONTINUOUS
10
2.66343
20
-4.3798
11
2.64129
21
-4.3754
0
LINE
8
BLACK
6
CONTINUOUS
10
2.64129
20
-4.3754
11
2.61871
21
-4.3754
0
LINE
8
BLACK
6
CONTINUOUS
10
2.61871
20
-4.3754
11
2.59657
21
-4.3798
0
LINE
8
BLACK
6
CONTINUOUS
10
2.59657
20
-4.3798
11
2.57572
21
-4.38844
0
LINE
8
BLACK
6
CONTINUOUS
10
2.57572
20
-4.38844
11
2.55694
21
-4.40098
0
LINE
8
BLACK
6
CONTINUOUS
10
2.55694
20
-4.40098
11
2.54098
21
-4.41694
0
LINE
8
BLACK
6
CONTINUOUS
10
2.54098
20
-4.41694
11
2.52844
21
-4.43572
0
LINE
8
BLACK
6
CONTINUOUS
10
2.52844
20
-4.43572
11
2.5198
21
-4.45657
0
LINE
8
BLACK
6
CONTINUOUS
10
2.5198
20
-4.45657
11
2.5154
21
-4.47871
0
LINE
8
BLACK
6
CONTINUOUS
10
2.5154
20
-4.47871
11
2.5154
21
-4.50129
0
LINE
8
BLACK
6
CONTINUOUS
10
2.5154
20
-4.50129
11
2.5198
21
-4.52343
0
LINE
8
BLACK
6
CONTINUOUS
10
1.93852
20
-4.237
11
1.93896
21
-4.23704
0
LINE
8
BLACK
6
CONTINUOUS
10
1.93896
20
-4.23704
11
1.93953
21
-4.23721
0
LINE
8
BLACK
6
CONTINUOUS
10
1.93953
20
-4.23721
11
1.94005
21
-4.23749
0
LINE
8
BLACK
6
CONTINUOUS
10
1.94005
20
-4.23749
11
1.94051
21
-4.23787
0
LINE
8
BLACK
6
CONTINUOUS
10
1.94051
20
-4.23787
11
1.94088
21
-4.23833
0
LINE
8
BLACK
6
CONTINUOUS
10
1.94088
20
-4.23833
11
1.94116
21
-4.23885
0
LINE
8
BLACK
6
CONTINUOUS
10
1.94116
20
-4.23885
11
1.94133
21
-4.23941
0
LINE
8
BLACK
6
CONTINUOUS
10
1.94133
20
-4.23941
11
1.94139
21
-4.24
0
LINE
8
BLACK
6
CONTINUOUS
10
1.94139
20
-4.24
11
1.94137
21
-4.24015
0
LINE
8
BLACK
6
CONTINUOUS
10
1.94137
20
-4.24015
11
1.94137
21
-4.73985
0
LINE
8
BLACK
6
CONTINUOUS
10
1.94137
20
-4.73985
11
1.94139
21
-4.74
0
LINE
8
BLACK
6
CONTINUOUS
10
1.94139
20
-4.74
11
1.94133
21
-4.74059
0
LINE
8
BLACK
6
CONTINUOUS
10
1.94133
20
-4.74059
11
1.94116
21
-4.74115
0
LINE
8
BLACK
6
CONTINUOUS
10
1.94116
20
-4.74115
11
1.94088
21
-4.74167
0
LINE
8
BLACK
6
CONTINUOUS
10
1.94088
20
-4.74167
11
1.94051
21
-4.74213
0
LINE
8
BLACK
6
CONTINUOUS
10
1.94051
20
-4.74213
11
1.94005
21
-4.74251
0
LINE
8
BLACK
6
CONTINUOUS
10
1.94005
20
-4.74251
11
1.93953
21
-4.74279
0
LINE
8
BLACK
6
CONTINUOUS
10
1.93953
20
-4.74279
11
1.93896
21
-4.74296
0
LINE
8
BLACK
6
CONTINUOUS
10
1.93896
20
-4.74296
11
1.93852
21
-4.743
0
LINE
8
BLACK
6
CONTINUOUS
10
1.93852
20
-4.743
11
1.93837
21
-4.74301
0
LINE
8
BLACK
6
CONTINUOUS
10
1.93837
20
-4.74301
11
1.93823
21
-4.743
0
LINE
8
BLACK
6
CONTINUOUS
10
1.93823
20
-4.743
11
1.43852
21
-4.743
0
LINE
8
BLACK
6
CONTINUOUS
10
1.43852
20
-4.743
11
1.43837
21
-4.74301
0
LINE
8
BLACK
6
CONTINUOUS
10
1.43837
20
-4.74301
11
1.43779
21
-4.74296
0
LINE
8
BLACK
6
CONTINUOUS
10
1.43779
20
-4.74296
11
1.43722
21
-4.74279
0
LINE
8
BLACK
6
CONTINUOUS
10
1.43722
20
-4.74279
11
1.4367
21
-4.74251
0
LINE
8
BLACK
6
CONTINUOUS
10
1.4367
20
-4.74251
11
1.43624
21
-4.74213
0
LINE
8
BLACK
6
CONTINUOUS
10
1.43624
20
-4.74213
11
1.43587
21
-4.74167
0
LINE
8
BLACK
6
CONTINUOUS
10
1.43587
20
-4.74167
11
1.43559
21
-4.74115
0
LINE
8
BLACK
6
CONTINUOUS
10
1.43559
20
-4.74115
11
1.43542
21
-4.74059
0
LINE
8
BLACK
6
CONTINUOUS
10
1.43542
20
-4.74059
11
1.43536
21
-4.74
0
LINE
8
BLACK
6
CONTINUOUS
10
1.43536
20
-4.74
11
1.43537
21
-4.73985
0
LINE
8
BLACK
6
CONTINUOUS
10
1.43537
20
-4.73985
11
1.43537
21
-4.24015
0
LINE
8
BLACK
6
CONTINUOUS
10
1.43537
20
-4.24015
11
1.43536
21
-4.24
0
LINE
8
BLACK
6
CONTINUOUS
10
1.43536
20
-4.24
11
1.43542
21
-4.23941
0
LINE
8
BLACK
6
CONTINUOUS
10
1.43542
20
-4.23941
11
1.43559
21
-4.23885
0
LINE
8
BLACK
6
CONTINUOUS
10
1.43559
20
-4.23885
11
1.43587
21
-4.23833
0
LINE
8
BLACK
6
CONTINUOUS
10
1.43587
20
-4.23833
11
1.43624
21
-4.23787
0
LINE
8
BLACK
6
CONTINUOUS
10
1.43624
20
-4.23787
11
1.4367
21
-4.23749
0
LINE
8
BLACK
6
CONTINUOUS
10
1.4367
20
-4.23749
11
1.43722
21
-4.23721
0
LINE
8
BLACK
6
CONTINUOUS
10
1.43722
20
-4.23721
11
1.43779
21
-4.23704
0
LINE
8
BLACK
6
CONTINUOUS
10
1.43779
20
-4.23704
11
1.43823
21
-4.237
0
LINE
8
BLACK
6
CONTINUOUS
10
1.43823
20
-4.237
11
1.43837
21
-4.23699
0
LINE
8
BLACK
6
CONTINUOUS
10
1.43837
20
-4.23699
11
1.43852
21
-4.237
0
LINE
8
BLACK
6
CONTINUOUS
10
1.43852
20
-4.237
11
1.93823
21
-4.237
0
LINE
8
BLACK
6
CONTINUOUS
10
1.93823
20
-4.237
11
1.93837
21
-4.23699
0
LINE
8
BLACK
6
CONTINUOUS
10
1.93837
20
-4.23699
11
1.93852
21
-4.237
0
LINE
8
BLACK
6
CONTINUOUS
10
1.44137
20
-4.243
11
1.44137
21
-4.737
0
LINE
8
BLACK
6
CONTINUOUS
10
1.44137
20
-4.737
11
1.93537
21
-4.737
0
LINE
8
BLACK
6
CONTINUOUS
10
1.93537
20
-4.737
11
1.93537
21
-4.243
0
LINE
8
BLACK
6
CONTINUOUS
10
1.93537
20
-4.243
11
1.44137
21
-4.243
0
LINE
8
BLACK
6
CONTINUOUS
10
1.57177
20
-4.45463
11
1.58091
21
-4.43256
0
LINE
8
BLACK
6
CONTINUOUS
10
1.58091
20
-4.43256
11
1.59418
21
-4.4127
0
LINE
8
BLACK
6
CONTINUOUS
10
1.59418
20
-4.4127
11
1.61107
21
-4.39581
0
LINE
8
BLACK
6
CONTINUOUS
10
1.61107
20
-4.39581
11
1.63093
21
-4.38254
0
LINE
8
BLACK
6
CONTINUOUS
10
1.63093
20
-4.38254
11
1.653
21
-4.3734
0
LINE
8
BLACK
6
CONTINUOUS
10
1.653
20
-4.3734
11
1.67643
21
-4.36874
0
LINE
8
BLACK
6
CONTINUOUS
10
1.67643
20
-4.36874
11
1.70032
21
-4.36874
0
LINE
8
BLACK
6
CONTINUOUS
10
1.70032
20
-4.36874
11
1.72375
21
-4.3734
0
LINE
8
BLACK
6
CONTINUOUS
10
1.72375
20
-4.3734
11
1.74581
21
-4.38254
0
LINE
8
BLACK
6
CONTINUOUS
10
1.74581
20
-4.38254
11
1.76568
21
-4.39581
0
LINE
8
BLACK
6
CONTINUOUS
10
1.76568
20
-4.39581
11
1.78257
21
-4.4127
0
LINE
8
BLACK
6
CONTINUOUS
10
1.78257
20
-4.4127
11
1.79584
21
-4.43256
0
LINE
8
BLACK
6
CONTINUOUS
10
1.79584
20
-4.43256
11
1.80498
21
-4.45463
0
LINE
8
BLACK
6
CONTINUOUS
10
1.80498
20
-4.45463
11
1.80964
21
-4.47806
0
LINE
8
BLACK
6
CONTINUOUS
10
1.80964
20
-4.47806
11
1.80964
21
-4.50194
0
LINE
8
BLACK
6
CONTINUOUS
10
1.80964
20
-4.50194
11
1.80498
21
-4.52537
0
LINE
8
BLACK
6
CONTINUOUS
10
1.80498
20
-4.52537
11
1.79584
21
-4.54744
0
LINE
8
BLACK
6
CONTINUOUS
10
1.79584
20
-4.54744
11
1.78257
21
-4.5673
0
LINE
8
BLACK
6
CONTINUOUS
10
1.78257
20
-4.5673
11
1.76568
21
-4.58419
0
LINE
8
BLACK
6
CONTINUOUS
10
1.76568
20
-4.58419
11
1.74581
21
-4.59746
0
LINE
8
BLACK
6
CONTINUOUS
10
1.74581
20
-4.59746
11
1.72375
21
-4.6066
0
LINE
8
BLACK
6
CONTINUOUS
10
1.72375
20
-4.6066
11
1.70032
21
-4.61126
0
LINE
8
BLACK
6
CONTINUOUS
10
1.70032
20
-4.61126
11
1.67643
21
-4.61126
0
LINE
8
BLACK
6
CONTINUOUS
10
1.67643
20
-4.61126
11
1.653
21
-4.6066
0
LINE
8
BLACK
6
CONTINUOUS
10
1.653
20
-4.6066
11
1.63093
21
-4.59746
0
LINE
8
BLACK
6
CONTINUOUS
10
1.63093
20
-4.59746
11
1.61107
21
-4.58419
0
LINE
8
BLACK
6
CONTINUOUS
10
1.61107
20
-4.58419
11
1.59418
21
-4.5673
0
LINE
8
BLACK
6
CONTINUOUS
10
1.59418
20
-4.5673
11
1.58091
21
-4.54744
0
LINE
8
BLACK
6
CONTINUOUS
10
1.58091
20
-4.54744
11
1.57177
21
-4.52537
0
LINE
8
BLACK
6
CONTINUOUS
10
1.57177
20
-4.52537
11
1.56711
21
-4.50194
0
LINE
8
BLACK
6
CONTINUOUS
10
1.56711
20
-4.50194
11
1.56711
21
-4.47806
0
LINE
8
BLACK
6
CONTINUOUS
10
1.56711
20
-4.47806
11
1.57177
21
-4.45463
0
LINE
8
BLACK
6
CONTINUOUS
10
1.57818
20
-4.52343
11
1.58681
21
-4.54428
0
LINE
8
BLACK
6
CONTINUOUS
10
1.58681
20
-4.54428
11
1.59936
21
-4.56306
0
LINE
8
BLACK
6
CONTINUOUS
10
1.59936
20
-4.56306
11
1.61532
21
-4.57902
0
LINE
8
BLACK
6
CONTINUOUS
10
1.61532
20
-4.57902
11
1.63409
21
-4.59156
0
LINE
8
BLACK
6
CONTINUOUS
10
1.63409
20
-4.59156
11
1.65495
21
-4.6002
0
LINE
8
BLACK
6
CONTINUOUS
10
1.65495
20
-4.6002
11
1.67709
21
-4.6046
0
LINE
8
BLACK
6
CONTINUOUS
10
1.67709
20
-4.6046
11
1.69966
21
-4.6046
0
LINE
8
BLACK
6
CONTINUOUS
10
1.69966
20
-4.6046
11
1.7218
21
-4.6002
0
LINE
8
BLACK
6
CONTINUOUS
10
1.7218
20
-4.6002
11
1.74266
21
-4.59156
0
LINE
8
BLACK
6
CONTINUOUS
10
1.74266
20
-4.59156
11
1.76143
21
-4.57902
0
LINE
8
BLACK
6
CONTINUOUS
10
1.76143
20
-4.57902
11
1.77739
21
-4.56306
0
LINE
8
BLACK
6
CONTINUOUS
10
1.77739
20
-4.56306
11
1.78993
21
-4.54428
0
LINE
8
BLACK
6
CONTINUOUS
10
1.78993
20
-4.54428
11
1.79857
21
-4.52343
0
LINE
8
BLACK
6
CONTINUOUS
10
1.79857
20
-4.52343
11
1.80298
21
-4.50129
0
LINE
8
BLACK
6
CONTINUOUS
10
1.80298
20
-4.50129
11
1.80298
21
-4.47871
0
LINE
8
BLACK
6
CONTINUOUS
10
1.80298
20
-4.47871
11
1.79857
21
-4.45657
0
LINE
8
BLACK
6
CONTINUOUS
10
1.79857
20
-4.45657
11
1.78993
21
-4.43572
0
LINE
8
BLACK
6
CONTINUOUS
10
1.78993
20
-4.43572
11
1.77739
21
-4.41694
0
LINE
8
BLACK
6
CONTINUOUS
10
1.77739
20
-4.41694
11
1.76143
21
-4.40098
0
LINE
8
BLACK
6
CONTINUOUS
10
1.76143
20
-4.40098
11
1.74266
21
-4.38844
0
LINE
8
BLACK
6
CONTINUOUS
10
1.74266
20
-4.38844
11
1.7218
21
-4.3798
0
LINE
8
BLACK
6
CONTINUOUS
10
1.7218
20
-4.3798
11
1.69966
21
-4.3754
0
LINE
8
BLACK
6
CONTINUOUS
10
1.69966
20
-4.3754
11
1.67709
21
-4.3754
0
LINE
8
BLACK
6
CONTINUOUS
10
1.67709
20
-4.3754
11
1.65495
21
-4.3798
0
LINE
8
BLACK
6
CONTINUOUS
10
1.65495
20
-4.3798
11
1.63409
21
-4.38844
0
LINE
8
BLACK
6
CONTINUOUS
10
1.63409
20
-4.38844
11
1.61532
21
-4.40098
0
LINE
8
BLACK
6
CONTINUOUS
10
1.61532
20
-4.40098
11
1.59936
21
-4.41694
0
LINE
8
BLACK
6
CONTINUOUS
10
1.59936
20
-4.41694
11
1.58681
21
-4.43572
0
LINE
8
BLACK
6
CONTINUOUS
10
1.58681
20
-4.43572
11
1.57818
21
-4.45657
0
LINE
8
BLACK
6
CONTINUOUS
10
1.57818
20
-4.45657
11
1.57377
21
-4.47871
0
LINE
8
BLACK
6
CONTINUOUS
10
1.57377
20
-4.47871
11
1.57377
21
-4.50129
0
LINE
8
BLACK
6
CONTINUOUS
10
1.57377
20
-4.50129
11
1.57818
21
-4.52343
0
LINE
8
BLACK
6
CONTINUOUS
10
6.63515
20
-4.237
11
6.63559
21
-4.23704
0
LINE
8
BLACK
6
CONTINUOUS
10
6.63559
20
-4.23704
11
6.63615
21
-4.23721
0
LINE
8
BLACK
6
CONTINUOUS
10
6.63615
20
-4.23721
11
6.63667
21
-4.23749
0
LINE
8
BLACK
6
CONTINUOUS
10
6.63667
20
-4.23749
11
6.63713
21
-4.23787
0
LINE
8
BLACK
6
CONTINUOUS
10
6.63713
20
-4.23787
11
6.63751
21
-4.23833
0
LINE
8
BLACK
6
CONTINUOUS
10
6.63751
20
-4.23833
11
6.63779
21
-4.23885
0
LINE
8
BLACK
6
CONTINUOUS
10
6.63779
20
-4.23885
11
6.63796
21
-4.23941
0
LINE
8
BLACK
6
CONTINUOUS
10
6.63796
20
-4.23941
11
6.63801
21
-4.24
0
LINE
8
BLACK
6
CONTINUOUS
10
6.63801
20
-4.24
11
6.638
21
-4.24015
0
LINE
8
BLACK
6
CONTINUOUS
10
6.638
20
-4.24015
11
6.638
21
-4.73985
0
LINE
8
BLACK
6
CONTINUOUS
10
6.638
20
-4.73985
11
6.63801
21
-4.74
0
LINE
8
BLACK
6
CONTINUOUS
10
6.63801
20
-4.74
11
6.63796
21
-4.74059
0
LINE
8
BLACK
6
CONTINUOUS
10
6.63796
20
-4.74059
11
6.63779
21
-4.74115
0
LINE
8
BLACK
6
CONTINUOUS
10
6.63779
20
-4.74115
11
6.63751
21
-4.74167
0
LINE
8
BLACK
6
CONTINUOUS
10
6.63751
20
-4.74167
11
6.63713
21
-4.74213
0
LINE
8
BLACK
6
CONTINUOUS
10
6.63713
20
-4.74213
11
6.63667
21
-4.74251
0
LINE
8
BLACK
6
CONTINUOUS
10
6.63667
20
-4.74251
11
6.63615
21
-4.74279
0
LINE
8
BLACK
6
CONTINUOUS
10
6.63615
20
-4.74279
11
6.63559
21
-4.74296
0
LINE
8
BLACK
6
CONTINUOUS
10
6.63559
20
-4.74296
11
6.63515
21
-4.743
0
LINE
8
BLACK
6
CONTINUOUS
10
6.63515
20
-4.743
11
6.635
21
-4.74301
0
LINE
8
BLACK
6
CONTINUOUS
10
6.635
20
-4.74301
11
6.63485
21
-4.743
0
LINE
8
BLACK
6
CONTINUOUS
10
6.63485
20
-4.743
11
6.13515
21
-4.743
0
LINE
8
BLACK
6
CONTINUOUS
10
6.13515
20
-4.743
11
6.135
21
-4.74301
0
LINE
8
BLACK
6
CONTINUOUS
10
6.135
20
-4.74301
11
6.13441
21
-4.74296
0
LINE
8
BLACK
6
CONTINUOUS
10
6.13441
20
-4.74296
11
6.13385
21
-4.74279
0
LINE
8
BLACK
6
CONTINUOUS
10
6.13385
20
-4.74279
11
6.13333
21
-4.74251
0
LINE
8
BLACK
6
CONTINUOUS
10
6.13333
20
-4.74251
11
6.13287
21
-4.74213
0
LINE
8
BLACK
6
CONTINUOUS
10
6.13287
20
-4.74213
11
6.13249
21
-4.74167
0
LINE
8
BLACK
6
CONTINUOUS
10
6.13249
20
-4.74167
11
6.13221
21
-4.74115
0
LINE
8
BLACK
6
CONTINUOUS
10
6.13221
20
-4.74115
11
6.13204
21
-4.74059
0
LINE
8
BLACK
6
CONTINUOUS
10
6.13204
20
-4.74059
11
6.13199
21
-4.74
0
LINE
8
BLACK
6
CONTINUOUS
10
6.13199
20
-4.74
11
6.132
21
-4.73985
0
LINE
8
BLACK
6
CONTINUOUS
10
6.132
20
-4.73985
11
6.132
21
-4.24015
0
LINE
8
BLACK
6
CONTINUOUS
10
6.132
20
-4.24015
11
6.13199
21
-4.24
0
LINE
8
BLACK
6
CONTINUOUS
10
6.13199
20
-4.24
11
6.13204
21
-4.23941
0
LINE
8
BLACK
6
CONTINUOUS
10
6.13204
20
-4.23941
11
6.13221
21
-4.23885
0
LINE
8
BLACK
6
CONTINUOUS
10
6.13221
20
-4.23885
11
6.13249
21
-4.23833
0
LINE
8
BLACK
6
CONTINUOUS
10
6.13249
20
-4.23833
11
6.13287
21
-4.23787
0
LINE
8
BLACK
6
CONTINUOUS
10
6.13287
20
-4.23787
11
6.13333
21
-4.23749
0
LINE
8
BLACK
6
CONTINUOUS
10
6.13333
20
-4.23749
11
6.13385
21
-4.23721
0
LINE
8
BLACK
6
CONTINUOUS
10
6.13385
20
-4.23721
11
6.13441
21
-4.23704
0
LINE
8
BLACK
6
CONTINUOUS
10
6.13441
20
-4.23704
11
6.13485
21
-4.237
0
LINE
8
BLACK
6
CONTINUOUS
10
6.13485
20
-4.237
11
6.135
21
-4.23699
0
LINE
8
BLACK
6
CONTINUOUS
10
6.135
20
-4.23699
11
6.13515
21
-4.237
0
LINE
8
BLACK
6
CONTINUOUS
10
6.13515
20
-4.237
11
6.63485
21
-4.237
0
LINE
8
BLACK
6
CONTINUOUS
10
6.63485
20
-4.237
11
6.635
21
-4.23699
0
LINE
8
BLACK
6
CONTINUOUS
10
6.635
20
-4.23699
11
6.63515
21
-4.237
0
LINE
8
BLACK
6
CONTINUOUS
10
6.138
20
-4.243
11
6.138
21
-4.737
0
LINE
8
BLACK
6
CONTINUOUS
10
6.138
20
-4.737
11
6.632
21
-4.737
0
LINE
8
BLACK
6
CONTINUOUS
10
6.632
20
-4.737
11
6.632
21
-4.243
0
LINE
8
BLACK
6
CONTINUOUS
10
6.632
20
-4.243
11
6.138
21
-4.243
0
LINE
8
BLACK
6
CONTINUOUS
10
12.0201
20
-3.4345
11
12.0206
21
-3.43454
0
LINE
8
BLACK
6
CONTINUOUS
10
12.0206
20
-3.43454
11
12.0212
21
-3.43471
0
LINE
8
BLACK
6
CONTINUOUS
10
12.0212
20
-3.43471
11
12.0217
21
-3.43499
0
LINE
8
BLACK
6
CONTINUOUS
10
12.0217
20
-3.43499
11
12.0221
21
-3.43537
0
LINE
8
BLACK
6
CONTINUOUS
10
12.0221
20
-3.43537
11
12.0225
21
-3.43583
0
LINE
8
BLACK
6
CONTINUOUS
10
12.0225
20
-3.43583
11
12.0228
21
-3.43635
0
LINE
8
BLACK
6
CONTINUOUS
10
12.0228
20
-3.43635
11
12.023
21
-3.43691
0
LINE
8
BLACK
6
CONTINUOUS
10
12.023
20
-3.43691
11
12.023
21
-3.4375
0
LINE
8
BLACK
6
CONTINUOUS
10
12.023
20
-3.4375
11
12.023
21
-3.43765
0
LINE
8
BLACK
6
CONTINUOUS
10
12.023
20
-3.43765
11
12.023
21
-4.13735
0
LINE
8
BLACK
6
CONTINUOUS
10
12.023
20
-4.13735
11
12.023
21
-4.1375
0
LINE
8
BLACK
6
CONTINUOUS
10
12.023
20
-4.1375
11
12.023
21
-4.13809
0
LINE
8
BLACK
6
CONTINUOUS
10
12.023
20
-4.13809
11
12.0228
21
-4.13865
0
LINE
8
BLACK
6
CONTINUOUS
10
12.0228
20
-4.13865
11
12.0225
21
-4.13917
0
LINE
8
BLACK
6
CONTINUOUS
10
12.0225
20
-4.13917
11
12.0221
21
-4.13963
0
LINE
8
BLACK
6
CONTINUOUS
10
12.0221
20
-4.13963
11
12.0217
21
-4.14001
0
LINE
8
BLACK
6
CONTINUOUS
10
12.0217
20
-4.14001
11
12.0212
21
-4.14029
0
LINE
8
BLACK
6
CONTINUOUS
10
12.0212
20
-4.14029
11
12.0206
21
-4.14046
0
LINE
8
BLACK
6
CONTINUOUS
10
12.0206
20
-4.14046
11
12.0201
21
-4.1405
0
LINE
8
BLACK
6
CONTINUOUS
10
12.0201
20
-4.1405
11
12.02
21
-4.14051
0
LINE
8
BLACK
6
CONTINUOUS
10
12.02
20
-4.14051
11
12.0199
21
-4.1405
0
LINE
8
BLACK
6
CONTINUOUS
10
12.0199
20
-4.1405
11
10.8101
21
-4.1405
0
LINE
8
BLACK
6
CONTINUOUS
10
10.8101
20
-4.1405
11
10.81
21
-4.14051
0
LINE
8
BLACK
6
CONTINUOUS
10
10.81
20
-4.14051
11
10.8099
21
-4.1405
0
LINE
8
BLACK
6
CONTINUOUS
10
10.8099
20
-4.1405
11
10.8094
21
-4.14046
0
LINE
8
BLACK
6
CONTINUOUS
10
10.8094
20
-4.14046
11
10.8088
21
-4.14029
0
LINE
8
BLACK
6
CONTINUOUS
10
10.8088
20
-4.14029
11
10.8083
21
-4.14001
0
LINE
8
BLACK
6
CONTINUOUS
10
10.8083
20
-4.14001
11
10.8079
21
-4.13963
0
LINE
8
BLACK
6
CONTINUOUS
10
10.8079
20
-4.13963
11
10.8075
21
-4.13917
0
LINE
8
BLACK
6
CONTINUOUS
10
10.8075
20
-4.13917
11
10.8072
21
-4.13865
0
LINE
8
BLACK
6
CONTINUOUS
10
10.8072
20
-4.13865
11
10.807
21
-4.13809
0
LINE
8
BLACK
6
CONTINUOUS
10
10.807
20
-4.13809
11
10.807
21
-4.1375
0
LINE
8
BLACK
6
CONTINUOUS
10
10.807
20
-4.1375
11
10.807
21
-4.13735
0
LINE
8
BLACK
6
CONTINUOUS
10
10.807
20
-4.13735
11
10.807
21
-3.43765
0
LINE
8
BLACK
6
CONTINUOUS
10
10.807
20
-3.43765
11
10.807
21
-3.4375
0
LINE
8
BLACK
6
CONTINUOUS
10
10.807
20
-3.4375
11
10.807
21
-3.43691
0
LINE
8
BLACK
6
CONTINUOUS
10
10.807
20
-3.43691
11
10.8072
21
-3.43635
0
LINE
8
BLACK
6
CONTINUOUS
10
10.8072
20
-3.43635
11
10.8075
21
-3.43583
0
LINE
8
BLACK
6
CONTINUOUS
10
10.8075
20
-3.43583
11
10.8079
21
-3.43537
0
LINE
8
BLACK
6
CONTINUOUS
10
10.8079
20
-3.43537
11
10.8083
21
-3.43499
0
LINE
8
BLACK
6
CONTINUOUS
10
10.8083
20
-3.43499
11
10.8088
21
-3.43471
0
LINE
8
BLACK
6
CONTINUOUS
10
10.8088
20
-3.43471
11
10.8094
21
-3.43454
0
LINE
8
BLACK
6
CONTINUOUS
10
10.8094
20
-3.43454
11
10.8099
21
-3.4345
0
LINE
8
BLACK
6
CONTINUOUS
10
10.8099
20
-3.4345
11
10.81
21
-3.43449
0
LINE
8
BLACK
6
CONTINUOUS
10
10.81
20
-3.43449
11
10.8101
21
-3.4345
0
LINE
8
BLACK
6
CONTINUOUS
10
10.8101
20
-3.4345
11
11.0799
21
-3.4345
0
LINE
8
BLACK
6
CONTINUOUS
10
11.0799
20
-3.4345
11
11.08
21
-3.43449
0
LINE
8
BLACK
6
CONTINUOUS
10
11.08
20
-3.43449
11
11.0801
21
-3.4345
0
LINE
8
BLACK
6
CONTINUOUS
10
11.0801
20
-3.4345
11
11.0806
21
-3.43454
0
LINE
8
BLACK
6
CONTINUOUS
10
11.0806
20
-3.43454
11
11.0812
21
-3.43471
0
LINE
8
BLACK
6
CONTINUOUS
10
11.0812
20
-3.43471
11
11.0817
21
-3.43499
0
LINE
8
BLACK
6
CONTINUOUS
10
11.0817
20
-3.43499
11
11.0821
21
-3.43537
0
LINE
8
BLACK
6
CONTINUOUS
10
11.0821
20
-3.43537
11
11.0825
21
-3.43583
0
LINE
8
BLACK
6
CONTINUOUS
10
11.0825
20
-3.43583
11
11.0828
21
-3.43635
0
LINE
8
BLACK
6
CONTINUOUS
10
11.0828
20
-3.43635
11
11.083
21
-3.43691
0
LINE
8
BLACK
6
CONTINUOUS
10
11.083
20
-3.43691
11
11.083
21
-3.4375
0
LINE
8
BLACK
6
CONTINUOUS
10
11.083
20
-3.4375
11
11.083
21
-3.43765
0
LINE
8
BLACK
6
CONTINUOUS
10
11.083
20
-3.43765
11
11.083
21
-4.0345
0
LINE
8
BLACK
6
CONTINUOUS
10
11.083
20
-4.0345
11
11.747
21
-4.0345
0
LINE
8
BLACK
6
CONTINUOUS
10
11.747
20
-4.0345
11
11.747
21
-3.43765
0
LINE
8
BLACK
6
CONTINUOUS
10
11.747
20
-3.43765
11
11.747
21
-3.4375
0
LINE
8
BLACK
6
CONTINUOUS
10
11.747
20
-3.4375
11
11.747
21
-3.43691
0
LINE
8
BLACK
6
CONTINUOUS
10
11.747
20
-3.43691
11
11.7472
21
-3.43635
0
LINE
8
BLACK
6
CONTINUOUS
10
11.7472
20
-3.43635
11
11.7475
21
-3.43583
0
LINE
8
BLACK
6
CONTINUOUS
10
11.7475
20
-3.43583
11
11.7479
21
-3.43537
0
LINE
8
BLACK
6
CONTINUOUS
10
11.7479
20
-3.43537
11
11.7483
21
-3.43499
0
LINE
8
BLACK
6
CONTINUOUS
10
11.7483
20
-3.43499
11
11.7488
21
-3.43471
0
LINE
8
BLACK
6
CONTINUOUS
10
11.7488
20
-3.43471
11
11.7494
21
-3.43454
0
LINE
8
BLACK
6
CONTINUOUS
10
11.7494
20
-3.43454
11
11.7499
21
-3.4345
0
LINE
8
BLACK
6
CONTINUOUS
10
11.7499
20
-3.4345
11
11.75
21
-3.43449
0
LINE
8
BLACK
6
CONTINUOUS
10
11.75
20
-3.43449
11
11.7501
21
-3.4345
0
LINE
8
BLACK
6
CONTINUOUS
10
11.7501
20
-3.4345
11
12.0199
21
-3.4345
0
LINE
8
BLACK
6
CONTINUOUS
10
12.0199
20
-3.4345
11
12.02
21
-3.43449
0
LINE
8
BLACK
6
CONTINUOUS
10
12.02
20
-3.43449
11
12.0201
21
-3.4345
0
LINE
8
BLACK
6
CONTINUOUS
10
10.813
20
-3.4405
11
10.813
21
-4.1345
0
LINE
8
BLACK
6
CONTINUOUS
10
10.813
20
-4.1345
11
12.017
21
-4.1345
0
LINE
8
BLACK
6
CONTINUOUS
10
12.017
20
-4.1345
11
12.017
21
-3.4405
0
LINE
8
BLACK
6
CONTINUOUS
10
12.017
20
-3.4405
11
11.753
21
-3.4405
0
LINE
8
BLACK
6
CONTINUOUS
10
11.753
20
-3.4405
11
11.753
21
-4.03735
0
LINE
8
BLACK
6
CONTINUOUS
10
11.753
20
-4.03735
11
11.753
21
-4.0375
0
LINE
8
BLACK
6
CONTINUOUS
10
11.753
20
-4.0375
11
11.753
21
-4.03809
0
LINE
8
BLACK
6
CONTINUOUS
10
11.753
20
-4.03809
11
11.7528
21
-4.03865
0
LINE
8
BLACK
6
CONTINUOUS
10
11.7528
20
-4.03865
11
11.7525
21
-4.03917
0
LINE
8
BLACK
6
CONTINUOUS
10
11.7525
20
-4.03917
11
11.7521
21
-4.03963
0
LINE
8
BLACK
6
CONTINUOUS
10
11.7521
20
-4.03963
11
11.7517
21
-4.04001
0
LINE
8
BLACK
6
CONTINUOUS
10
11.7517
20
-4.04001
11
11.7512
21
-4.04029
0
LINE
8
BLACK
6
CONTINUOUS
10
11.7512
20
-4.04029
11
11.7506
21
-4.04046
0
LINE
8
BLACK
6
CONTINUOUS
10
11.7506
20
-4.04046
11
11.7501
21
-4.0405
0
LINE
8
BLACK
6
CONTINUOUS
10
11.7501
20
-4.0405
11
11.75
21
-4.04051
0
LINE
8
BLACK
6
CONTINUOUS
10
11.75
20
-4.04051
11
11.7499
21
-4.0405
0
LINE
8
BLACK
6
CONTINUOUS
10
11.7499
20
-4.0405
11
11.0801
21
-4.0405
0
LINE
8
BLACK
6
CONTINUOUS
10
11.0801
20
-4.0405
11
11.08
21
-4.04051
0
LINE
8
BLACK
6
CONTINUOUS
10
11.08
20
-4.04051
11
11.0794
21
-4.04046
0
LINE
8
BLACK
6
CONTINUOUS
10
11.0794
20
-4.04046
11
11.0788
21
-4.04029
0
LINE
8
BLACK
6
CONTINUOUS
10
11.0788
20
-4.04029
11
11.0783
21
-4.04001
0
LINE
8
BLACK
6
CONTINUOUS
10
11.0783
20
-4.04001
11
11.0779
21
-4.03963
0
LINE
8
BLACK
6
CONTINUOUS
10
11.0779
20
-4.03963
11
11.0775
21
-4.03917
0
LINE
8
BLACK
6
CONTINUOUS
10
11.0775
20
-4.03917
11
11.0772
21
-4.03865
0
LINE
8
BLACK
6
CONTINUOUS
10
11.0772
20
-4.03865
11
11.077
21
-4.03809
0
LINE
8
BLACK
6
CONTINUOUS
10
11.077
20
-4.03809
11
11.077
21
-4.0375
0
LINE
8
BLACK
6
CONTINUOUS
10
11.077
20
-4.0375
11
11.077
21
-4.03735
0
LINE
8
BLACK
6
CONTINUOUS
10
11.077
20
-4.03735
11
11.077
21
-3.4405
0
LINE
8
BLACK
6
CONTINUOUS
10
11.077
20
-3.4405
11
10.813
21
-3.4405
0
LINE
8
BLACK
6
CONTINUOUS
10
2.66852
20
-3.432
11
2.66896
21
-3.43204
0
LINE
8
BLACK
6
CONTINUOUS
10
2.66896
20
-3.43204
11
2.66953
21
-3.43221
0
LINE
8
BLACK
6
CONTINUOUS
10
2.66953
20
-3.43221
11
2.67005
21
-3.43249
0
LINE
8
BLACK
6
CONTINUOUS
10
2.67005
20
-3.43249
11
2.67051
21
-3.43287
0
LINE
8
BLACK
6
CONTINUOUS
10
2.67051
20
-3.43287
11
2.67088
21
-3.43333
0
LINE
8
BLACK
6
CONTINUOUS
10
2.67088
20
-3.43333
11
2.67116
21
-3.43385
0
LINE
8
BLACK
6
CONTINUOUS
10
2.67116
20
-3.43385
11
2.67133
21
-3.43441
0
LINE
8
BLACK
6
CONTINUOUS
10
2.67133
20
-3.43441
11
2.67139
21
-3.435
0
LINE
8
BLACK
6
CONTINUOUS
10
2.67139
20
-3.435
11
2.67137
21
-3.43515
0
LINE
8
BLACK
6
CONTINUOUS
10
2.67137
20
-3.43515
11
2.67137
21
-4.13485
0
LINE
8
BLACK
6
CONTINUOUS
10
2.67137
20
-4.13485
11
2.67139
21
-4.135
0
LINE
8
BLACK
6
CONTINUOUS
10
2.67139
20
-4.135
11
2.67133
21
-4.13559
0
LINE
8
BLACK
6
CONTINUOUS
10
2.67133
20
-4.13559
11
2.67116
21
-4.13615
0
LINE
8
BLACK
6
CONTINUOUS
10
2.67116
20
-4.13615
11
2.67088
21
-4.13667
0
LINE
8
BLACK
6
CONTINUOUS
10
2.67088
20
-4.13667
11
2.67051
21
-4.13713
0
LINE
8
BLACK
6
CONTINUOUS
10
2.67051
20
-4.13713
11
2.67005
21
-4.13751
0
LINE
8
BLACK
6
CONTINUOUS
10
2.67005
20
-4.13751
11
2.66953
21
-4.13779
0
LINE
8
BLACK
6
CONTINUOUS
10
2.66953
20
-4.13779
11
2.66896
21
-4.13796
0
LINE
8
BLACK
6
CONTINUOUS
10
2.66896
20
-4.13796
11
2.66852
21
-4.138
0
LINE
8
BLACK
6
CONTINUOUS
10
2.66852
20
-4.138
11
2.66837
21
-4.13801
0
LINE
8
BLACK
6
CONTINUOUS
10
2.66837
20
-4.13801
11
2.66823
21
-4.138
0
LINE
8
BLACK
6
CONTINUOUS
10
2.66823
20
-4.138
11
1.45852
21
-4.138
0
LINE
8
BLACK
6
CONTINUOUS
10
1.45852
20
-4.138
11
1.45837
21
-4.13801
0
LINE
8
BLACK
6
CONTINUOUS
10
1.45837
20
-4.13801
11
1.45823
21
-4.138
0
LINE
8
BLACK
6
CONTINUOUS
10
1.45823
20
-4.138
11
1.45779
21
-4.13796
0
LINE
8
BLACK
6
CONTINUOUS
10
1.45779
20
-4.13796
11
1.45722
21
-4.13779
0
LINE
8
BLACK
6
CONTINUOUS
10
1.45722
20
-4.13779
11
1.4567
21
-4.13751
0
LINE
8
BLACK
6
CONTINUOUS
10
1.4567
20
-4.13751
11
1.45624
21
-4.13713
0
LINE
8
BLACK
6
CONTINUOUS
10
1.45624
20
-4.13713
11
1.45587
21
-4.13667
0
LINE
8
BLACK
6
CONTINUOUS
10
1.45587
20
-4.13667
11
1.45559
21
-4.13615
0
LINE
8
BLACK
6
CONTINUOUS
10
1.45559
20
-4.13615
11
1.45542
21
-4.13559
0
LINE
8
BLACK
6
CONTINUOUS
10
1.45542
20
-4.13559
11
1.45536
21
-4.135
0
LINE
8
BLACK
6
CONTINUOUS
10
1.45536
20
-4.135
11
1.45537
21
-4.13485
0
LINE
8
BLACK
6
CONTINUOUS
10
1.45537
20
-4.13485
11
1.45537
21
-3.43515
0
LINE
8
BLACK
6
CONTINUOUS
10
1.45537
20
-3.43515
11
1.45536
21
-3.435
0
LINE
8
BLACK
6
CONTINUOUS
10
1.45536
20
-3.435
11
1.45542
21
-3.43441
0
LINE
8
BLACK
6
CONTINUOUS
10
1.45542
20
-3.43441
11
1.45559
21
-3.43385
0
LINE
8
BLACK
6
CONTINUOUS
10
1.45559
20
-3.43385
11
1.45587
21
-3.43333
0
LINE
8
BLACK
6
CONTINUOUS
10
1.45587
20
-3.43333
11
1.45624
21
-3.43287
0
LINE
8
BLACK
6
CONTINUOUS
10
1.45624
20
-3.43287
11
1.4567
21
-3.43249
0
LINE
8
BLACK
6
CONTINUOUS
10
1.4567
20
-3.43249
11
1.45722
21
-3.43221
0
LINE
8
BLACK
6
CONTINUOUS
10
1.45722
20
-3.43221
11
1.45779
21
-3.43204
0
LINE
8
BLACK
6
CONTINUOUS
10
1.45779
20
-3.43204
11
1.45823
21
-3.432
0
LINE
8
BLACK
6
CONTINUOUS
10
1.45823
20
-3.432
11
1.45837
21
-3.43199
0
LINE
8
BLACK
6
CONTINUOUS
10
1.45837
20
-3.43199
11
1.45852
21
-3.432
0
LINE
8
BLACK
6
CONTINUOUS
10
1.45852
20
-3.432
11
1.72823
21
-3.432
0
LINE
8
BLACK
6
CONTINUOUS
10
1.72823
20
-3.432
11
1.72837
21
-3.43199
0
LINE
8
BLACK
6
CONTINUOUS
10
1.72837
20
-3.43199
11
1.72852
21
-3.432
0
LINE
8
BLACK
6
CONTINUOUS
10
1.72852
20
-3.432
11
1.72896
21
-3.43204
0
LINE
8
BLACK
6
CONTINUOUS
10
1.72896
20
-3.43204
11
1.72953
21
-3.43221
0
LINE
8
BLACK
6
CONTINUOUS
10
1.72953
20
-3.43221
11
1.73005
21
-3.43249
0
LINE
8
BLACK
6
CONTINUOUS
10
1.73005
20
-3.43249
11
1.73051
21
-3.43287
0
LINE
8
BLACK
6
CONTINUOUS
10
1.73051
20
-3.43287
11
1.73088
21
-3.43333
0
LINE
8
BLACK
6
CONTINUOUS
10
1.73088
20
-3.43333
11
1.73116
21
-3.43385
0
LINE
8
BLACK
6
CONTINUOUS
10
1.73116
20
-3.43385
11
1.73133
21
-3.43441
0
LINE
8
BLACK
6
CONTINUOUS
10
1.73133
20
-3.43441
11
1.73139
21
-3.435
0
LINE
8
BLACK
6
CONTINUOUS
10
1.73139
20
-3.435
11
1.73137
21
-3.43515
0
LINE
8
BLACK
6
CONTINUOUS
10
1.73137
20
-3.43515
11
1.73137
21
-4.032
0
LINE
8
BLACK
6
CONTINUOUS
10
1.73137
20
-4.032
11
2.39537
21
-4.032
0
LINE
8
BLACK
6
CONTINUOUS
10
2.39537
20
-4.032
11
2.39537
21
-3.43515
0
LINE
8
BLACK
6
CONTINUOUS
10
2.39537
20
-3.43515
11
2.39536
21
-3.435
0
LINE
8
BLACK
6
CONTINUOUS
10
2.39536
20
-3.435
11
2.39542
21
-3.43441
0
LINE
8
BLACK
6
CONTINUOUS
10
2.39542
20
-3.43441
11
2.39559
21
-3.43385
0
LINE
8
BLACK
6
CONTINUOUS
10
2.39559
20
-3.43385
11
2.39587
21
-3.43333
0
LINE
8
BLACK
6
CONTINUOUS
10
2.39587
20
-3.43333
11
2.39624
21
-3.43287
0
LINE
8
BLACK
6
CONTINUOUS
10
2.39624
20
-3.43287
11
2.3967
21
-3.43249
0
LINE
8
BLACK
6
CONTINUOUS
10
2.3967
20
-3.43249
11
2.39722
21
-3.43221
0
LINE
8
BLACK
6
CONTINUOUS
10
2.39722
20
-3.43221
11
2.39779
21
-3.43204
0
LINE
8
BLACK
6
CONTINUOUS
10
2.39779
20
-3.43204
11
2.39823
21
-3.432
0
LINE
8
BLACK
6
CONTINUOUS
10
2.39823
20
-3.432
11
2.39837
21
-3.43199
0
LINE
8
BLACK
6
CONTINUOUS
10
2.39837
20
-3.43199
11
2.39852
21
-3.432
0
LINE
8
BLACK
6
CONTINUOUS
10
2.39852
20
-3.432
11
2.66823
21
-3.432
0
LINE
8
BLACK
6
CONTINUOUS
10
2.66823
20
-3.432
11
2.66837
21
-3.43199
0
LINE
8
BLACK
6
CONTINUOUS
10
2.66837
20
-3.43199
11
2.66852
21
-3.432
0
LINE
8
BLACK
6
CONTINUOUS
10
1.46137
20
-3.438
11
1.46137
21
-4.132
0
LINE
8
BLACK
6
CONTINUOUS
10
1.46137
20
-4.132
11
2.66537
21
-4.132
0
LINE
8
BLACK
6
CONTINUOUS
10
2.66537
20
-4.132
11
2.66537
21
-3.438
0
LINE
8
BLACK
6
CONTINUOUS
10
2.66537
20
-3.438
11
2.40137
21
-3.438
0
LINE
8
BLACK
6
CONTINUOUS
10
2.40137
20
-3.438
11
2.40137
21
-4.03485
0
LINE
8
BLACK
6
CONTINUOUS
10
2.40137
20
-4.03485
11
2.40139
21
-4.035
0
LINE
8
BLACK
6
CONTINUOUS
10
2.40139
20
-4.035
11
2.40133
21
-4.03559
0
LINE
8
BLACK
6
CONTINUOUS
10
2.40133
20
-4.03559
11
2.40116
21
-4.03615
0
LINE
8
BLACK
6
CONTINUOUS
10
2.40116
20
-4.03615
11
2.40088
21
-4.03667
0
LINE
8
BLACK
6
CONTINUOUS
10
2.40088
20
-4.03667
11
2.40051
21
-4.03713
0
LINE
8
BLACK
6
CONTINUOUS
10
2.40051
20
-4.03713
11
2.40005
21
-4.03751
0
LINE
8
BLACK
6
CONTINUOUS
10
2.40005
20
-4.03751
11
2.39953
21
-4.03779
0
LINE
8
BLACK
6
CONTINUOUS
10
2.39953
20
-4.03779
11
2.39896
21
-4.03796
0
LINE
8
BLACK
6
CONTINUOUS
10
2.39896
20
-4.03796
11
2.39852
21
-4.038
0
LINE
8
BLACK
6
CONTINUOUS
10
2.39852
20
-4.038
11
2.39837
21
-4.03801
0
LINE
8
BLACK
6
CONTINUOUS
10
2.39837
20
-4.03801
11
2.39823
21
-4.038
0
LINE
8
BLACK
6
CONTINUOUS
10
2.39823
20
-4.038
11
1.72852
21
-4.038
0
LINE
8
BLACK
6
CONTINUOUS
10
1.72852
20
-4.038
11
1.72837
21
-4.03801
0
LINE
8
BLACK
6
CONTINUOUS
10
1.72837
20
-4.03801
11
1.72779
21
-4.03796
0
LINE
8
BLACK
6
CONTINUOUS
10
1.72779
20
-4.03796
11
1.72722
21
-4.03779
0
LINE
8
BLACK
6
CONTINUOUS
10
1.72722
20
-4.03779
11
1.7267
21
-4.03751
0
LINE
8
BLACK
6
CONTINUOUS
10
1.7267
20
-4.03751
11
1.72624
21
-4.03713
0
LINE
8
BLACK
6
CONTINUOUS
10
1.72624
20
-4.03713
11
1.72606
21
-4.03691
0
LINE
8
BLACK
6
CONTINUOUS
10
1.72606
20
-4.03691
11
1.72587
21
-4.03667
0
LINE
8
BLACK
6
CONTINUOUS
10
1.72587
20
-4.03667
11
1.72559
21
-4.03615
0
LINE
8
BLACK
6
CONTINUOUS
10
1.72559
20
-4.03615
11
1.72542
21
-4.03559
0
LINE
8
BLACK
6
CONTINUOUS
10
1.72542
20
-4.03559
11
1.72536
21
-4.035
0
LINE
8
BLACK
6
CONTINUOUS
10
1.72536
20
-4.035
11
1.72537
21
-4.03485
0
LINE
8
BLACK
6
CONTINUOUS
10
1.72537
20
-4.03485
11
1.72537
21
-3.438
0
LINE
8
BLACK
6
CONTINUOUS
10
1.72537
20
-3.438
11
1.46137
21
-3.438
0
LINE
8
BLACK
6
CONTINUOUS
10
11.6651
20
-3.4845
11
11.6656
21
-3.48454
0
LINE
8
BLACK
6
CONTINUOUS
10
11.6656
20
-3.48454
11
11.6662
21
-3.48471
0
LINE
8
BLACK
6
CONTINUOUS
10
11.6662
20
-3.48471
11
11.6667
21
-3.48499
0
LINE
8
BLACK
6
CONTINUOUS
10
11.6667
20
-3.48499
11
11.6671
21
-3.48537
0
LINE
8
BLACK
6
CONTINUOUS
10
11.6671
20
-3.48537
11
11.6675
21
-3.48583
0
LINE
8
BLACK
6
CONTINUOUS
10
11.6675
20
-3.48583
11
11.6678
21
-3.48635
0
LINE
8
BLACK
6
CONTINUOUS
10
11.6678
20
-3.48635
11
11.668
21
-3.48691
0
LINE
8
BLACK
6
CONTINUOUS
10
11.668
20
-3.48691
11
11.668
21
-3.4875
0
LINE
8
BLACK
6
CONTINUOUS
10
11.668
20
-3.4875
11
11.668
21
-3.48765
0
LINE
8
BLACK
6
CONTINUOUS
10
11.668
20
-3.48765
11
11.668
21
-3.98735
0
LINE
8
BLACK
6
CONTINUOUS
10
11.668
20
-3.98735
11
11.668
21
-3.9875
0
LINE
8
BLACK
6
CONTINUOUS
10
11.668
20
-3.9875
11
11.668
21
-3.98809
0
LINE
8
BLACK
6
CONTINUOUS
10
11.668
20
-3.98809
11
11.6678
21
-3.98865
0
LINE
8
BLACK
6
CONTINUOUS
10
11.6678
20
-3.98865
11
11.6675
21
-3.98917
0
LINE
8
BLACK
6
CONTINUOUS
10
11.6675
20
-3.98917
11
11.6671
21
-3.98963
0
LINE
8
BLACK
6
CONTINUOUS
10
11.6671
20
-3.98963
11
11.6667
21
-3.99001
0
LINE
8
BLACK
6
CONTINUOUS
10
11.6667
20
-3.99001
11
11.6662
21
-3.99029
0
LINE
8
BLACK
6
CONTINUOUS
10
11.6662
20
-3.99029
11
11.6656
21
-3.99046
0
LINE
8
BLACK
6
CONTINUOUS
10
11.6656
20
-3.99046
11
11.6651
21
-3.9905
0
LINE
8
BLACK
6
CONTINUOUS
10
11.6651
20
-3.9905
11
11.665
21
-3.99051
0
LINE
8
BLACK
6
CONTINUOUS
10
11.665
20
-3.99051
11
11.6649
21
-3.9905
0
LINE
8
BLACK
6
CONTINUOUS
10
11.6649
20
-3.9905
11
11.1651
21
-3.9905
0
LINE
8
BLACK
6
CONTINUOUS
10
11.1651
20
-3.9905
11
11.165
21
-3.99051
0
LINE
8
BLACK
6
CONTINUOUS
10
11.165
20
-3.99051
11
11.1644
21
-3.99046
0
LINE
8
BLACK
6
CONTINUOUS
10
11.1644
20
-3.99046
11
11.1638
21
-3.99029
0
LINE
8
BLACK
6
CONTINUOUS
10
11.1638
20
-3.99029
11
11.1633
21
-3.99001
0
LINE
8
BLACK
6
CONTINUOUS
10
11.1633
20
-3.99001
11
11.1629
21
-3.98963
0
LINE
8
BLACK
6
CONTINUOUS
10
11.1629
20
-3.98963
11
11.1625
21
-3.98917
0
LINE
8
BLACK
6
CONTINUOUS
10
11.1625
20
-3.98917
11
11.1622
21
-3.98865
0
LINE
8
BLACK
6
CONTINUOUS
10
11.1622
20
-3.98865
11
11.162
21
-3.98809
0
LINE
8
BLACK
6
CONTINUOUS
10
11.162
20
-3.98809
11
11.162
21
-3.9875
0
LINE
8
BLACK
6
CONTINUOUS
10
11.162
20
-3.9875
11
11.162
21
-3.98735
0
LINE
8
BLACK
6
CONTINUOUS
10
11.162
20
-3.98735
11
11.162
21
-3.48765
0
LINE
8
BLACK
6
CONTINUOUS
10
11.162
20
-3.48765
11
11.162
21
-3.4875
0
LINE
8
BLACK
6
CONTINUOUS
10
11.162
20
-3.4875
11
11.162
21
-3.48691
0
LINE
8
BLACK
6
CONTINUOUS
10
11.162
20
-3.48691
11
11.1622
21
-3.48635
0
LINE
8
BLACK
6
CONTINUOUS
10
11.1622
20
-3.48635
11
11.1625
21
-3.48583
0
LINE
8
BLACK
6
CONTINUOUS
10
11.1625
20
-3.48583
11
11.1629
21
-3.48537
0
LINE
8
BLACK
6
CONTINUOUS
10
11.1629
20
-3.48537
11
11.1633
21
-3.48499
0
LINE
8
BLACK
6
CONTINUOUS
10
11.1633
20
-3.48499
11
11.1638
21
-3.48471
0
LINE
8
BLACK
6
CONTINUOUS
10
11.1638
20
-3.48471
11
11.1644
21
-3.48454
0
LINE
8
BLACK
6
CONTINUOUS
10
11.1644
20
-3.48454
11
11.1649
21
-3.4845
0
LINE
8
BLACK
6
CONTINUOUS
10
11.1649
20
-3.4845
11
11.165
21
-3.48449
0
LINE
8
BLACK
6
CONTINUOUS
10
11.165
20
-3.48449
11
11.1651
21
-3.4845
0
LINE
8
BLACK
6
CONTINUOUS
10
11.1651
20
-3.4845
11
11.6649
21
-3.4845
0
LINE
8
BLACK
6
CONTINUOUS
10
11.6649
20
-3.4845
11
11.665
21
-3.48449
0
LINE
8
BLACK
6
CONTINUOUS
10
11.665
20
-3.48449
11
11.6651
21
-3.4845
0
LINE
8
BLACK
6
CONTINUOUS
10
11.168
20
-3.4905
11
11.168
21
-3.9845
0
LINE
8
BLACK
6
CONTINUOUS
10
11.168
20
-3.9845
11
11.662
21
-3.9845
0
LINE
8
BLACK
6
CONTINUOUS
10
11.662
20
-3.9845
11
11.662
21
-3.4905
0
LINE
8
BLACK
6
CONTINUOUS
10
11.662
20
-3.4905
11
11.168
21
-3.4905
0
LINE
8
BLACK
6
CONTINUOUS
10
11.2984
20
-3.70213
11
11.3075
21
-3.68006
0
LINE
8
BLACK
6
CONTINUOUS
10
11.3075
20
-3.68006
11
11.3208
21
-3.6602
0
LINE
8
BLACK
6
CONTINUOUS
10
11.3208
20
-3.6602
11
11.3377
21
-3.64331
0
LINE
8
BLACK
6
CONTINUOUS
10
11.3377
20
-3.64331
11
11.3576
21
-3.63004
0
LINE
8
BLACK
6
CONTINUOUS
10
11.3576
20
-3.63004
11
11.3796
21
-3.6209
0
LINE
8
BLACK
6
CONTINUOUS
10
11.3796
20
-3.6209
11
11.4031
21
-3.61624
0
LINE
8
BLACK
6
CONTINUOUS
10
11.4031
20
-3.61624
11
11.4269
21
-3.61624
0
LINE
8
BLACK
6
CONTINUOUS
10
11.4269
20
-3.61624
11
11.4504
21
-3.6209
0
LINE
8
BLACK
6
CONTINUOUS
10
11.4504
20
-3.6209
11
11.4724
21
-3.63004
0
LINE
8
BLACK
6
CONTINUOUS
10
11.4724
20
-3.63004
11
11.4923
21
-3.64331
0
LINE
8
BLACK
6
CONTINUOUS
10
11.4923
20
-3.64331
11
11.5092
21
-3.6602
0
LINE
8
BLACK
6
CONTINUOUS
10
11.5092
20
-3.6602
11
11.5225
21
-3.68006
0
LINE
8
BLACK
6
CONTINUOUS
10
11.5225
20
-3.68006
11
11.5316
21
-3.70213
0
LINE
8
BLACK
6
CONTINUOUS
10
11.5316
20
-3.70213
11
11.5363
21
-3.72556
0
LINE
8
BLACK
6
CONTINUOUS
10
11.5363
20
-3.72556
11
11.5363
21
-3.74944
0
LINE
8
BLACK
6
CONTINUOUS
10
11.5363
20
-3.74944
11
11.5316
21
-3.77287
0
LINE
8
BLACK
6
CONTINUOUS
10
11.5316
20
-3.77287
11
11.5225
21
-3.79494
0
LINE
8
BLACK
6
CONTINUOUS
10
11.5225
20
-3.79494
11
11.5092
21
-3.8148
0
LINE
8
BLACK
6
CONTINUOUS
10
11.5092
20
-3.8148
11
11.4923
21
-3.83169
0
LINE
8
BLACK
6
CONTINUOUS
10
11.4923
20
-3.83169
11
11.4724
21
-3.84496
0
LINE
8
BLACK
6
CONTINUOUS
10
11.4724
20
-3.84496
11
11.4504
21
-3.8541
0
LINE
8
BLACK
6
CONTINUOUS
10
11.4504
20
-3.8541
11
11.4269
21
-3.85876
0
LINE
8
BLACK
6
CONTINUOUS
10
11.4269
20
-3.85876
11
11.4031
21
-3.85876
0
LINE
8
BLACK
6
CONTINUOUS
10
11.4031
20
-3.85876
11
11.3796
21
-3.8541
0
LINE
8
BLACK
6
CONTINUOUS
10
11.3796
20
-3.8541
11
11.3576
21
-3.84496
0
LINE
8
BLACK
6
CONTINUOUS
10
11.3576
20
-3.84496
11
11.3377
21
-3.83169
0
LINE
8
BLACK
6
CONTINUOUS
10
11.3377
20
-3.83169
11
11.3208
21
-3.8148
0
LINE
8
BLACK
6
CONTINUOUS
10
11.3208
20
-3.8148
11
11.3075
21
-3.79494
0
LINE
8
BLACK
6
CONTINUOUS
10
11.3075
20
-3.79494
11
11.2984
21
-3.77287
0
LINE
8
BLACK
6
CONTINUOUS
10
11.2984
20
-3.77287
11
11.2937
21
-3.74944
0
LINE
8
BLACK
6
CONTINUOUS
10
11.2937
20
-3.74944
11
11.2937
21
-3.72556
0
LINE
8
BLACK
6
CONTINUOUS
10
11.2937
20
-3.72556
11
11.2984
21
-3.70213
0
LINE
8
BLACK
6
CONTINUOUS
10
11.3048
20
-3.77093
11
11.3134
21
-3.79178
0
LINE
8
BLACK
6
CONTINUOUS
10
11.3134
20
-3.79178
11
11.326
21
-3.81056
0
LINE
8
BLACK
6
CONTINUOUS
10
11.326
20
-3.81056
11
11.3419
21
-3.82652
0
LINE
8
BLACK
6
CONTINUOUS
10
11.3419
20
-3.82652
11
11.3607
21
-3.83906
0
LINE
8
BLACK
6
CONTINUOUS
10
11.3607
20
-3.83906
11
11.3816
21
-3.8477
0
LINE
8
BLACK
6
CONTINUOUS
10
11.3816
20
-3.8477
11
11.4037
21
-3.8521
0
LINE
8
BLACK
6
CONTINUOUS
10
11.4037
20
-3.8521
11
11.4263
21
-3.8521
0
LINE
8
BLACK
6
CONTINUOUS
10
11.4263
20
-3.8521
11
11.4484
21
-3.8477
0
LINE
8
BLACK
6
CONTINUOUS
10
11.4484
20
-3.8477
11
11.4693
21
-3.83906
0
LINE
8
BLACK
6
CONTINUOUS
10
11.4693
20
-3.83906
11
11.4881
21
-3.82652
0
LINE
8
BLACK
6
CONTINUOUS
10
11.4881
20
-3.82652
11
11.504
21
-3.81056
0
LINE
8
BLACK
6
CONTINUOUS
10
11.504
20
-3.81056
11
11.5166
21
-3.79178
0
LINE
8
BLACK
6
CONTINUOUS
10
11.5166
20
-3.79178
11
11.5252
21
-3.77093
0
LINE
8
BLACK
6
CONTINUOUS
10
11.5252
20
-3.77093
11
11.5296
21
-3.74879
0
LINE
8
BLACK
6
CONTINUOUS
10
11.5296
20
-3.74879
11
11.5296
21
-3.72621
0
LINE
8
BLACK
6
CONTINUOUS
10
11.5296
20
-3.72621
11
11.5252
21
-3.70407
0
LINE
8
BLACK
6
CONTINUOUS
10
11.5252
20
-3.70407
11
11.5166
21
-3.68322
0
LINE
8
BLACK
6
CONTINUOUS
10
11.5166
20
-3.68322
11
11.504
21
-3.66444
0
LINE
8
BLACK
6
CONTINUOUS
10
11.504
20
-3.66444
11
11.4881
21
-3.64848
0
LINE
8
BLACK
6
CONTINUOUS
10
11.4881
20
-3.64848
11
11.4693
21
-3.63594
0
LINE
8
BLACK
6
CONTINUOUS
10
11.4693
20
-3.63594
11
11.4484
21
-3.6273
0
LINE
8
BLACK
6
CONTINUOUS
10
11.4484
20
-3.6273
11
11.4263
21
-3.6229
0
LINE
8
BLACK
6
CONTINUOUS
10
11.4263
20
-3.6229
11
11.4037
21
-3.6229
0
LINE
8
BLACK
6
CONTINUOUS
10
11.4037
20
-3.6229
11
11.3816
21
-3.6273
0
LINE
8
BLACK
6
CONTINUOUS
10
11.3816
20
-3.6273
11
11.3607
21
-3.63594
0
LINE
8
BLACK
6
CONTINUOUS
10
11.3607
20
-3.63594
11
11.3419
21
-3.64848
0
LINE
8
BLACK
6
CONTINUOUS
10
11.3419
20
-3.64848
11
11.326
21
-3.66444
0
LINE
8
BLACK
6
CONTINUOUS
10
11.326
20
-3.66444
11
11.3134
21
-3.68322
0
LINE
8
BLACK
6
CONTINUOUS
10
11.3134
20
-3.68322
11
11.3048
21
-3.70407
0
LINE
8
BLACK
6
CONTINUOUS
10
11.3048
20
-3.70407
11
11.3004
21
-3.72621
0
LINE
8
BLACK
6
CONTINUOUS
10
11.3004
20
-3.72621
11
11.3004
21
-3.74879
0
LINE
8
BLACK
6
CONTINUOUS
10
11.3004
20
-3.74879
11
11.3048
21
-3.77093
0
LINE
8
BLACK
6
CONTINUOUS
10
2.31352
20
-3.482
11
2.31396
21
-3.48204
0
LINE
8
BLACK
6
CONTINUOUS
10
2.31396
20
-3.48204
11
2.31453
21
-3.48221
0
LINE
8
BLACK
6
CONTINUOUS
10
2.31453
20
-3.48221
11
2.31505
21
-3.48249
0
LINE
8
BLACK
6
CONTINUOUS
10
2.31505
20
-3.48249
11
2.31551
21
-3.48287
0
LINE
8
BLACK
6
CONTINUOUS
10
2.31551
20
-3.48287
11
2.31588
21
-3.48333
0
LINE
8
BLACK
6
CONTINUOUS
10
2.31588
20
-3.48333
11
2.31616
21
-3.48385
0
LINE
8
BLACK
6
CONTINUOUS
10
2.31616
20
-3.48385
11
2.31633
21
-3.48441
0
LINE
8
BLACK
6
CONTINUOUS
10
2.31633
20
-3.48441
11
2.31639
21
-3.485
0
LINE
8
BLACK
6
CONTINUOUS
10
2.31639
20
-3.485
11
2.31637
21
-3.48515
0
LINE
8
BLACK
6
CONTINUOUS
10
2.31637
20
-3.48515
11
2.31637
21
-3.98485
0
LINE
8
BLACK
6
CONTINUOUS
10
2.31637
20
-3.98485
11
2.31639
21
-3.985
0
LINE
8
BLACK
6
CONTINUOUS
10
2.31639
20
-3.985
11
2.31633
21
-3.98559
0
LINE
8
BLACK
6
CONTINUOUS
10
2.31633
20
-3.98559
11
2.31616
21
-3.98615
0
LINE
8
BLACK
6
CONTINUOUS
10
2.31616
20
-3.98615
11
2.31588
21
-3.98667
0
LINE
8
BLACK
6
CONTINUOUS
10
2.31588
20
-3.98667
11
2.31551
21
-3.98713
0
LINE
8
BLACK
6
CONTINUOUS
10
2.31551
20
-3.98713
11
2.31505
21
-3.98751
0
LINE
8
BLACK
6
CONTINUOUS
10
2.31505
20
-3.98751
11
2.31453
21
-3.98779
0
LINE
8
BLACK
6
CONTINUOUS
10
2.31453
20
-3.98779
11
2.31396
21
-3.98796
0
LINE
8
BLACK
6
CONTINUOUS
10
2.31396
20
-3.98796
11
2.31352
21
-3.988
0
LINE
8
BLACK
6
CONTINUOUS
10
2.31352
20
-3.988
11
2.31337
21
-3.98801
0
LINE
8
BLACK
6
CONTINUOUS
10
2.31337
20
-3.98801
11
2.31323
21
-3.988
0
LINE
8
BLACK
6
CONTINUOUS
10
2.31323
20
-3.988
11
1.81352
21
-3.988
0
LINE
8
BLACK
6
CONTINUOUS
10
1.81352
20
-3.988
11
1.81337
21
-3.98801
0
LINE
8
BLACK
6
CONTINUOUS
10
1.81337
20
-3.98801
11
1.81279
21
-3.98796
0
LINE
8
BLACK
6
CONTINUOUS
10
1.81279
20
-3.98796
11
1.81222
21
-3.98779
0
LINE
8
BLACK
6
CONTINUOUS
10
1.81222
20
-3.98779
11
1.8117
21
-3.98751
0
LINE
8
BLACK
6
CONTINUOUS
10
1.8117
20
-3.98751
11
1.81124
21
-3.98713
0
LINE
8
BLACK
6
CONTINUOUS
10
1.81124
20
-3.98713
11
1.81106
21
-3.98691
0
LINE
8
BLACK
6
CONTINUOUS
10
1.81106
20
-3.98691
11
1.81087
21
-3.98667
0
LINE
8
BLACK
6
CONTINUOUS
10
1.81087
20
-3.98667
11
1.81059
21
-3.98615
0
LINE
8
BLACK
6
CONTINUOUS
10
1.81059
20
-3.98615
11
1.81042
21
-3.98559
0
LINE
8
BLACK
6
CONTINUOUS
10
1.81042
20
-3.98559
11
1.81036
21
-3.985
0
LINE
8
BLACK
6
CONTINUOUS
10
1.81036
20
-3.985
11
1.81037
21
-3.98485
0
LINE
8
BLACK
6
CONTINUOUS
10
1.81037
20
-3.98485
11
1.81037
21
-3.48515
0
LINE
8
BLACK
6
CONTINUOUS
10
1.81037
20
-3.48515
11
1.81036
21
-3.485
0
LINE
8
BLACK
6
CONTINUOUS
10
1.81036
20
-3.485
11
1.81042
21
-3.48441
0
LINE
8
BLACK
6
CONTINUOUS
10
1.81042
20
-3.48441
11
1.81059
21
-3.48385
0
LINE
8
BLACK
6
CONTINUOUS
10
1.81059
20
-3.48385
11
1.81087
21
-3.48333
0
LINE
8
BLACK
6
CONTINUOUS
10
1.81087
20
-3.48333
11
1.81124
21
-3.48287
0
LINE
8
BLACK
6
CONTINUOUS
10
1.81124
20
-3.48287
11
1.8117
21
-3.48249
0
LINE
8
BLACK
6
CONTINUOUS
10
1.8117
20
-3.48249
11
1.81222
21
-3.48221
0
LINE
8
BLACK
6
CONTINUOUS
10
1.81222
20
-3.48221
11
1.81279
21
-3.48204
0
LINE
8
BLACK
6
CONTINUOUS
10
1.81279
20
-3.48204
11
1.81323
21
-3.482
0
LINE
8
BLACK
6
CONTINUOUS
10
1.81323
20
-3.482
11
1.81337
21
-3.48199
0
LINE
8
BLACK
6
CONTINUOUS
10
1.81337
20
-3.48199
11
1.81352
21
-3.482
0
LINE
8
BLACK
6
CONTINUOUS
10
1.81352
20
-3.482
11
2.31323
21
-3.482
0
LINE
8
BLACK
6
CONTINUOUS
10
2.31323
20
-3.482
11
2.31337
21
-3.48199
0
LINE
8
BLACK
6
CONTINUOUS
10
2.31337
20
-3.48199
11
2.31352
21
-3.482
0
LINE
8
BLACK
6
CONTINUOUS
10
1.81637
20
-3.488
11
1.81637
21
-3.982
0
LINE
8
BLACK
6
CONTINUOUS
10
1.81637
20
-3.982
11
2.31037
21
-3.982
0
LINE
8
BLACK
6
CONTINUOUS
10
2.31037
20
-3.982
11
2.31037
21
-3.488
0
LINE
8
BLACK
6
CONTINUOUS
10
2.31037
20
-3.488
11
1.81637
21
-3.488
0
LINE
8
BLACK
6
CONTINUOUS
10
1.94677
20
-3.69963
11
1.95591
21
-3.67756
0
LINE
8
BLACK
6
CONTINUOUS
10
1.95591
20
-3.67756
11
1.96918
21
-3.6577
0
LINE
8
BLACK
6
CONTINUOUS
10
1.96918
20
-3.6577
11
1.98607
21
-3.64081
0
LINE
8
BLACK
6
CONTINUOUS
10
1.98607
20
-3.64081
11
2.00593
21
-3.62754
0
LINE
8
BLACK
6
CONTINUOUS
10
2.00593
20
-3.62754
11
2.028
21
-3.6184
0
LINE
8
BLACK
6
CONTINUOUS
10
2.028
20
-3.6184
11
2.05143
21
-3.61374
0
LINE
8
BLACK
6
CONTINUOUS
10
2.05143
20
-3.61374
11
2.07532
21
-3.61374
0
LINE
8
BLACK
6
CONTINUOUS
10
2.07532
20
-3.61374
11
2.09875
21
-3.6184
0
LINE
8
BLACK
6
CONTINUOUS
10
2.09875
20
-3.6184
11
2.12081
21
-3.62754
0
LINE
8
BLACK
6
CONTINUOUS
10
2.12081
20
-3.62754
11
2.14068
21
-3.64081
0
LINE
8
BLACK
6
CONTINUOUS
10
2.14068
20
-3.64081
11
2.15757
21
-3.6577
0
LINE
8
BLACK
6
CONTINUOUS
10
2.15757
20
-3.6577
11
2.17084
21
-3.67756
0
LINE
8
BLACK
6
CONTINUOUS
10
2.17084
20
-3.67756
11
2.17998
21
-3.69963
0
LINE
8
BLACK
6
CONTINUOUS
10
2.17998
20
-3.69963
11
2.18464
21
-3.72306
0
LINE
8
BLACK
6
CONTINUOUS
10
2.18464
20
-3.72306
11
2.18464
21
-3.74694
0
LINE
8
BLACK
6
CONTINUOUS
10
2.18464
20
-3.74694
11
2.17998
21
-3.77037
0
LINE
8
BLACK
6
CONTINUOUS
10
2.17998
20
-3.77037
11
2.17084
21
-3.79244
0
LINE
8
BLACK
6
CONTINUOUS
10
2.17084
20
-3.79244
11
2.15757
21
-3.8123
0
LINE
8
BLACK
6
CONTINUOUS
10
2.15757
20
-3.8123
11
2.14068
21
-3.82919
0
LINE
8
BLACK
6
CONTINUOUS
10
2.14068
20
-3.82919
11
2.12081
21
-3.84246
0
LINE
8
BLACK
6
CONTINUOUS
10
2.12081
20
-3.84246
11
2.09875
21
-3.8516
0
LINE
8
BLACK
6
CONTINUOUS
10
2.09875
20
-3.8516
11
2.07532
21
-3.85626
0
LINE
8
BLACK
6
CONTINUOUS
10
2.07532
20
-3.85626
11
2.05143
21
-3.85626
0
LINE
8
BLACK
6
CONTINUOUS
10
2.05143
20
-3.85626
11
2.028
21
-3.8516
0
LINE
8
BLACK
6
CONTINUOUS
10
2.028
20
-3.8516
11
2.00593
21
-3.84246
0
LINE
8
BLACK
6
CONTINUOUS
10
2.00593
20
-3.84246
11
1.98607
21
-3.82919
0
LINE
8
BLACK
6
CONTINUOUS
10
1.98607
20
-3.82919
11
1.96918
21
-3.8123
0
LINE
8
BLACK
6
CONTINUOUS
10
1.96918
20
-3.8123
11
1.95591
21
-3.79244
0
LINE
8
BLACK
6
CONTINUOUS
10
1.95591
20
-3.79244
11
1.94677
21
-3.77037
0
LINE
8
BLACK
6
CONTINUOUS
10
1.94677
20
-3.77037
11
1.94211
21
-3.74694
0
LINE
8
BLACK
6
CONTINUOUS
10
1.94211
20
-3.74694
11
1.94211
21
-3.72306
0
LINE
8
BLACK
6
CONTINUOUS
10
1.94211
20
-3.72306
11
1.94677
21
-3.69963
0
LINE
8
BLACK
6
CONTINUOUS
10
1.95318
20
-3.76843
11
1.96181
21
-3.78928
0
LINE
8
BLACK
6
CONTINUOUS
10
1.96181
20
-3.78928
11
1.97436
21
-3.80806
0
LINE
8
BLACK
6
CONTINUOUS
10
1.97436
20
-3.80806
11
1.99032
21
-3.82402
0
LINE
8
BLACK
6
CONTINUOUS
10
1.99032
20
-3.82402
11
2.00909
21
-3.83656
0
LINE
8
BLACK
6
CONTINUOUS
10
2.00909
20
-3.83656
11
2.02995
21
-3.8452
0
LINE
8
BLACK
6
CONTINUOUS
10
2.02995
20
-3.8452
11
2.05209
21
-3.8496
0
LINE
8
BLACK
6
CONTINUOUS
10
2.05209
20
-3.8496
11
2.07466
21
-3.8496
0
LINE
8
BLACK
6
CONTINUOUS
10
2.07466
20
-3.8496
11
2.0968
21
-3.8452
0
LINE
8
BLACK
6
CONTINUOUS
10
2.0968
20
-3.8452
11
2.11766
21
-3.83656
0
LINE
8
BLACK
6
CONTINUOUS
10
2.11766
20
-3.83656
11
2.13643
21
-3.82402
0
LINE
8
BLACK
6
CONTINUOUS
10
2.13643
20
-3.82402
11
2.15239
21
-3.80806
0
LINE
8
BLACK
6
CONTINUOUS
10
2.15239
20
-3.80806
11
2.16493
21
-3.78928
0
LINE
8
BLACK
6
CONTINUOUS
10
2.16493
20
-3.78928
11
2.17357
21
-3.76843
0
LINE
8
BLACK
6
CONTINUOUS
10
2.17357
20
-3.76843
11
2.17798
21
-3.74629
0
LINE
8
BLACK
6
CONTINUOUS
10
2.17798
20
-3.74629
11
2.17798
21
-3.72371
0
LINE
8
BLACK
6
CONTINUOUS
10
2.17798
20
-3.72371
11
2.17357
21
-3.70157
0
LINE
8
BLACK
6
CONTINUOUS
10
2.17357
20
-3.70157
11
2.16493
21
-3.68072
0
LINE
8
BLACK
6
CONTINUOUS
10
2.16493
20
-3.68072
11
2.15239
21
-3.66194
0
LINE
8
BLACK
6
CONTINUOUS
10
2.15239
20
-3.66194
11
2.13643
21
-3.64598
0
LINE
8
BLACK
6
CONTINUOUS
10
2.13643
20
-3.64598
11
2.11766
21
-3.63344
0
LINE
8
BLACK
6
CONTINUOUS
10
2.11766
20
-3.63344
11
2.0968
21
-3.6248
0
LINE
8
BLACK
6
CONTINUOUS
10
2.0968
20
-3.6248
11
2.07466
21
-3.6204
0
LINE
8
BLACK
6
CONTINUOUS
10
2.07466
20
-3.6204
11
2.05209
21
-3.6204
0
LINE
8
BLACK
6
CONTINUOUS
10
2.05209
20
-3.6204
11
2.02995
21
-3.6248
0
LINE
8
BLACK
6
CONTINUOUS
10
2.02995
20
-3.6248
11
2.00909
21
-3.63344
0
LINE
8
BLACK
6
CONTINUOUS
10
2.00909
20
-3.63344
11
1.99032
21
-3.64598
0
LINE
8
BLACK
6
CONTINUOUS
10
1.99032
20
-3.64598
11
1.97436
21
-3.66194
0
LINE
8
BLACK
6
CONTINUOUS
10
1.97436
20
-3.66194
11
1.96181
21
-3.68072
0
LINE
8
BLACK
6
CONTINUOUS
10
1.96181
20
-3.68072
11
1.95318
21
-3.70157
0
LINE
8
BLACK
6
CONTINUOUS
10
1.95318
20
-3.70157
11
1.94877
21
-3.72371
0
LINE
8
BLACK
6
CONTINUOUS
10
1.94877
20
-3.72371
11
1.94877
21
-3.74629
0
LINE
8
BLACK
6
CONTINUOUS
10
1.94877
20
-3.74629
11
1.95318
21
-3.76843
0
LINE
8
BLACK
6
CONTINUOUS
10
12.2201
20
-2.6795
11
12.2206
21
-2.67954
0
LINE
8
BLACK
6
CONTINUOUS
10
12.2206
20
-2.67954
11
12.2212
21
-2.67971
0
LINE
8
BLACK
6
CONTINUOUS
10
12.2212
20
-2.67971
11
12.2217
21
-2.67999
0
LINE
8
BLACK
6
CONTINUOUS
10
12.2217
20
-2.67999
11
12.2221
21
-2.68037
0
LINE
8
BLACK
6
CONTINUOUS
10
12.2221
20
-2.68037
11
12.2225
21
-2.68083
0
LINE
8
BLACK
6
CONTINUOUS
10
12.2225
20
-2.68083
11
12.2228
21
-2.68135
0
LINE
8
BLACK
6
CONTINUOUS
10
12.2228
20
-2.68135
11
12.223
21
-2.68191
0
LINE
8
BLACK
6
CONTINUOUS
10
12.223
20
-2.68191
11
12.223
21
-2.6825
0
LINE
8
BLACK
6
CONTINUOUS
10
12.223
20
-2.6825
11
12.223
21
-2.68265
0
LINE
8
BLACK
6
CONTINUOUS
10
12.223
20
-2.68265
11
12.223
21
-3.38235
0
LINE
8
BLACK
6
CONTINUOUS
10
12.223
20
-3.38235
11
12.223
21
-3.3825
0
LINE
8
BLACK
6
CONTINUOUS
10
12.223
20
-3.3825
11
12.223
21
-3.38309
0
LINE
8
BLACK
6
CONTINUOUS
10
12.223
20
-3.38309
11
12.2228
21
-3.38365
0
LINE
8
BLACK
6
CONTINUOUS
10
12.2228
20
-3.38365
11
12.2225
21
-3.38417
0
LINE
8
BLACK
6
CONTINUOUS
10
12.2225
20
-3.38417
11
12.2221
21
-3.38463
0
LINE
8
BLACK
6
CONTINUOUS
10
12.2221
20
-3.38463
11
12.2217
21
-3.38501
0
LINE
8
BLACK
6
CONTINUOUS
10
12.2217
20
-3.38501
11
12.2212
21
-3.38529
0
LINE
8
BLACK
6
CONTINUOUS
10
12.2212
20
-3.38529
11
12.2206
21
-3.38546
0
LINE
8
BLACK
6
CONTINUOUS
10
12.2206
20
-3.38546
11
12.2201
21
-3.3855
0
LINE
8
BLACK
6
CONTINUOUS
10
12.2201
20
-3.3855
11
12.22
21
-3.38551
0
LINE
8
BLACK
6
CONTINUOUS
10
12.22
20
-3.38551
11
12.2199
21
-3.3855
0
LINE
8
BLACK
6
CONTINUOUS
10
12.2199
20
-3.3855
11
11.0101
21
-3.3855
0
LINE
8
BLACK
6
CONTINUOUS
10
11.0101
20
-3.3855
11
11.01
21
-3.38551
0
LINE
8
BLACK
6
CONTINUOUS
10
11.01
20
-3.38551
11
11.0099
21
-3.3855
0
LINE
8
BLACK
6
CONTINUOUS
10
11.0099
20
-3.3855
11
11.0094
21
-3.38546
0
LINE
8
BLACK
6
CONTINUOUS
10
11.0094
20
-3.38546
11
11.0088
21
-3.38529
0
LINE
8
BLACK
6
CONTINUOUS
10
11.0088
20
-3.38529
11
11.0083
21
-3.38501
0
LINE
8
BLACK
6
CONTINUOUS
10
11.0083
20
-3.38501
11
11.0079
21
-3.38463
0
LINE
8
BLACK
6
CONTINUOUS
10
11.0079
20
-3.38463
11
11.0075
21
-3.38417
0
LINE
8
BLACK
6
CONTINUOUS
10
11.0075
20
-3.38417
11
11.0072
21
-3.38365
0
LINE
8
BLACK
6
CONTINUOUS
10
11.0072
20
-3.38365
11
11.007
21
-3.38309
0
LINE
8
BLACK
6
CONTINUOUS
10
11.007
20
-3.38309
11
11.007
21
-3.3825
0
LINE
8
BLACK
6
CONTINUOUS
10
11.007
20
-3.3825
11
11.007
21
-3.38235
0
LINE
8
BLACK
6
CONTINUOUS
10
11.007
20
-3.38235
11
11.007
21
-2.68265
0
LINE
8
BLACK
6
CONTINUOUS
10
11.007
20
-2.68265
11
11.007
21
-2.6825
0
LINE
8
BLACK
6
CONTINUOUS
10
11.007
20
-2.6825
11
11.007
21
-2.68191
0
LINE
8
BLACK
6
CONTINUOUS
10
11.007
20
-2.68191
11
11.0072
21
-2.68135
0
LINE
8
BLACK
6
CONTINUOUS
10
11.0072
20
-2.68135
11
11.0075
21
-2.68083
0
LINE
8
BLACK
6
CONTINUOUS
10
11.0075
20
-2.68083
11
11.0079
21
-2.68037
0
LINE
8
BLACK
6
CONTINUOUS
10
11.0079
20
-2.68037
11
11.0083
21
-2.67999
0
LINE
8
BLACK
6
CONTINUOUS
10
11.0083
20
-2.67999
11
11.0088
21
-2.67971
0
LINE
8
BLACK
6
CONTINUOUS
10
11.0088
20
-2.67971
11
11.0094
21
-2.67954
0
LINE
8
BLACK
6
CONTINUOUS
10
11.0094
20
-2.67954
11
11.0099
21
-2.6795
0
LINE
8
BLACK
6
CONTINUOUS
10
11.0099
20
-2.6795
11
11.01
21
-2.67949
0
LINE
8
BLACK
6
CONTINUOUS
10
11.01
20
-2.67949
11
11.0101
21
-2.6795
0
LINE
8
BLACK
6
CONTINUOUS
10
11.0101
20
-2.6795
11
11.2799
21
-2.6795
0
LINE
8
BLACK
6
CONTINUOUS
10
11.2799
20
-2.6795
11
11.28
21
-2.67949
0
LINE
8
BLACK
6
CONTINUOUS
10
11.28
20
-2.67949
11
11.2801
21
-2.6795
0
LINE
8
BLACK
6
CONTINUOUS
10
11.2801
20
-2.6795
11
11.2806
21
-2.67954
0
LINE
8
BLACK
6
CONTINUOUS
10
11.2806
20
-2.67954
11
11.2812
21
-2.67971
0
LINE
8
BLACK
6
CONTINUOUS
10
11.2812
20
-2.67971
11
11.2817
21
-2.67999
0
LINE
8
BLACK
6
CONTINUOUS
10
11.2817
20
-2.67999
11
11.2821
21
-2.68037
0
LINE
8
BLACK
6
CONTINUOUS
10
11.2821
20
-2.68037
11
11.2825
21
-2.68083
0
LINE
8
BLACK
6
CONTINUOUS
10
11.2825
20
-2.68083
11
11.2828
21
-2.68135
0
LINE
8
BLACK
6
CONTINUOUS
10
11.2828
20
-2.68135
11
11.283
21
-2.68191
0
LINE
8
BLACK
6
CONTINUOUS
10
11.283
20
-2.68191
11
11.283
21
-2.6825
0
LINE
8
BLACK
6
CONTINUOUS
10
11.283
20
-2.6825
11
11.283
21
-2.68265
0
LINE
8
BLACK
6
CONTINUOUS
10
11.283
20
-2.68265
11
11.283
21
-3.2795
0
LINE
8
BLACK
6
CONTINUOUS
10
11.283
20
-3.2795
11
11.947
21
-3.2795
0
LINE
8
BLACK
6
CONTINUOUS
10
11.947
20
-3.2795
11
11.947
21
-2.68265
0
LINE
8
BLACK
6
CONTINUOUS
10
11.947
20
-2.68265
11
11.947
21
-2.6825
0
LINE
8
BLACK
6
CONTINUOUS
10
11.947
20
-2.6825
11
11.947
21
-2.68191
0
LINE
8
BLACK
6
CONTINUOUS
10
11.947
20
-2.68191
11
11.9472
21
-2.68135
0
LINE
8
BLACK
6
CONTINUOUS
10
11.9472
20
-2.68135
11
11.9475
21
-2.68083
0
LINE
8
BLACK
6
CONTINUOUS
10
11.9475
20
-2.68083
11
11.9479
21
-2.68037
0
LINE
8
BLACK
6
CONTINUOUS
10
11.9479
20
-2.68037
11
11.9483
21
-2.67999
0
LINE
8
BLACK
6
CONTINUOUS
10
11.9483
20
-2.67999
11
11.9488
21
-2.67971
0
LINE
8
BLACK
6
CONTINUOUS
10
11.9488
20
-2.67971
11
11.9494
21
-2.67954
0
LINE
8
BLACK
6
CONTINUOUS
10
11.9494
20
-2.67954
11
11.9499
21
-2.6795
0
LINE
8
BLACK
6
CONTINUOUS
10
11.9499
20
-2.6795
11
11.95
21
-2.67949
0
LINE
8
BLACK
6
CONTINUOUS
10
11.95
20
-2.67949
11
11.9501
21
-2.6795
0
LINE
8
BLACK
6
CONTINUOUS
10
11.9501
20
-2.6795
11
12.2199
21
-2.6795
0
LINE
8
BLACK
6
CONTINUOUS
10
12.2199
20
-2.6795
11
12.22
21
-2.67949
0
LINE
8
BLACK
6
CONTINUOUS
10
12.22
20
-2.67949
11
12.2201
21
-2.6795
0
LINE
8
BLACK
6
CONTINUOUS
10
11.953
20
-2.6855
11
11.953
21
-3.28235
0
LINE
8
BLACK
6
CONTINUOUS
10
11.953
20
-3.28235
11
11.953
21
-3.2825
0
LINE
8
BLACK
6
CONTINUOUS
10
11.953
20
-3.2825
11
11.953
21
-3.28309
0
LINE
8
BLACK
6
CONTINUOUS
10
11.953
20
-3.28309
11
11.9528
21
-3.28365
0
LINE
8
BLACK
6
CONTINUOUS
10
11.9528
20
-3.28365
11
11.9525
21
-3.28417
0
LINE
8
BLACK
6
CONTINUOUS
10
11.9525
20
-3.28417
11
11.9521
21
-3.28463
0
LINE
8
BLACK
6
CONTINUOUS
10
11.9521
20
-3.28463
11
11.9517
21
-3.28501
0
LINE
8
BLACK
6
CONTINUOUS
10
11.9517
20
-3.28501
11
11.9512
21
-3.28529
0
LINE
8
BLACK
6
CONTINUOUS
10
11.9512
20
-3.28529
11
11.9506
21
-3.28546
0
LINE
8
BLACK
6
CONTINUOUS
10
11.9506
20
-3.28546
11
11.9501
21
-3.2855
0
LINE
8
BLACK
6
CONTINUOUS
10
11.9501
20
-3.2855
11
11.95
21
-3.28551
0
LINE
8
BLACK
6
CONTINUOUS
10
11.95
20
-3.28551
11
11.9499
21
-3.2855
0
LINE
8
BLACK
6
CONTINUOUS
10
11.9499
20
-3.2855
11
11.2801
21
-3.2855
0
LINE
8
BLACK
6
CONTINUOUS
10
11.2801
20
-3.2855
11
11.28
21
-3.28551
0
LINE
8
BLACK
6
CONTINUOUS
10
11.28
20
-3.28551
11
11.2794
21
-3.28546
0
LINE
8
BLACK
6
CONTINUOUS
10
11.2794
20
-3.28546
11
11.2788
21
-3.28529
0
LINE
8
BLACK
6
CONTINUOUS
10
11.2788
20
-3.28529
11
11.2783
21
-3.28501
0
LINE
8
BLACK
6
CONTINUOUS
10
11.2783
20
-3.28501
11
11.2779
21
-3.28463
0
LINE
8
BLACK
6
CONTINUOUS
10
11.2779
20
-3.28463
11
11.2775
21
-3.28417
0
LINE
8
BLACK
6
CONTINUOUS
10
11.2775
20
-3.28417
11
11.2772
21
-3.28365
0
LINE
8
BLACK
6
CONTINUOUS
10
11.2772
20
-3.28365
11
11.277
21
-3.28309
0
LINE
8
BLACK
6
CONTINUOUS
10
11.277
20
-3.28309
11
11.277
21
-3.2825
0
LINE
8
BLACK
6
CONTINUOUS
10
11.277
20
-3.2825
11
11.277
21
-3.28235
0
LINE
8
BLACK
6
CONTINUOUS
10
11.277
20
-3.28235
11
11.277
21
-2.6855
0
LINE
8
BLACK
6
CONTINUOUS
10
11.277
20
-2.6855
11
11.013
21
-2.6855
0
LINE
8
BLACK
6
CONTINUOUS
10
11.013
20
-2.6855
11
11.013
21
-3.3795
0
LINE
8
BLACK
6
CONTINUOUS
10
11.013
20
-3.3795
11
12.217
21
-3.3795
0
LINE
8
BLACK
6
CONTINUOUS
10
12.217
20
-3.3795
11
12.217
21
-2.6855
0
LINE
8
BLACK
6
CONTINUOUS
10
12.217
20
-2.6855
11
11.953
21
-2.6855
0
LINE
8
BLACK
6
CONTINUOUS
10
2.12602
20
-2.732
11
2.12646
21
-2.73204
0
LINE
8
BLACK
6
CONTINUOUS
10
2.12646
20
-2.73204
11
2.12703
21
-2.73221
0
LINE
8
BLACK
6
CONTINUOUS
10
2.12703
20
-2.73221
11
2.12755
21
-2.73249
0
LINE
8
BLACK
6
CONTINUOUS
10
2.12755
20
-2.73249
11
2.12801
21
-2.73287
0
LINE
8
BLACK
6
CONTINUOUS
10
2.12801
20
-2.73287
11
2.12838
21
-2.73333
0
LINE
8
BLACK
6
CONTINUOUS
10
2.12838
20
-2.73333
11
2.12866
21
-2.73385
0
LINE
8
BLACK
6
CONTINUOUS
10
2.12866
20
-2.73385
11
2.12883
21
-2.73441
0
LINE
8
BLACK
6
CONTINUOUS
10
2.12883
20
-2.73441
11
2.12889
21
-2.735
0
LINE
8
BLACK
6
CONTINUOUS
10
2.12889
20
-2.735
11
2.12887
21
-2.73515
0
LINE
8
BLACK
6
CONTINUOUS
10
2.12887
20
-2.73515
11
2.12887
21
-3.23485
0
LINE
8
BLACK
6
CONTINUOUS
10
2.12887
20
-3.23485
11
2.12889
21
-3.235
0
LINE
8
BLACK
6
CONTINUOUS
10
2.12889
20
-3.235
11
2.12883
21
-3.23559
0
LINE
8
BLACK
6
CONTINUOUS
10
2.12883
20
-3.23559
11
2.12866
21
-3.23615
0
LINE
8
BLACK
6
CONTINUOUS
10
2.12866
20
-3.23615
11
2.12838
21
-3.23667
0
LINE
8
BLACK
6
CONTINUOUS
10
2.12838
20
-3.23667
11
2.12801
21
-3.23713
0
LINE
8
BLACK
6
CONTINUOUS
10
2.12801
20
-3.23713
11
2.12755
21
-3.23751
0
LINE
8
BLACK
6
CONTINUOUS
10
2.12755
20
-3.23751
11
2.12703
21
-3.23779
0
LINE
8
BLACK
6
CONTINUOUS
10
2.12703
20
-3.23779
11
2.12646
21
-3.23796
0
LINE
8
BLACK
6
CONTINUOUS
10
2.12646
20
-3.23796
11
2.12602
21
-3.238
0
LINE
8
BLACK
6
CONTINUOUS
10
2.12602
20
-3.238
11
2.12587
21
-3.23801
0
LINE
8
BLACK
6
CONTINUOUS
10
2.12587
20
-3.23801
11
2.12573
21
-3.238
0
LINE
8
BLACK
6
CONTINUOUS
10
2.12573
20
-3.238
11
1.62602
21
-3.238
0
LINE
8
BLACK
6
CONTINUOUS
10
1.62602
20
-3.238
11
1.62587
21
-3.23801
0
LINE
8
BLACK
6
CONTINUOUS
10
1.62587
20
-3.23801
11
1.62529
21
-3.23796
0
LINE
8
BLACK
6
CONTINUOUS
10
1.62529
20
-3.23796
11
1.62472
21
-3.23779
0
LINE
8
BLACK
6
CONTINUOUS
10
1.62472
20
-3.23779
11
1.6242
21
-3.23751
0
LINE
8
BLACK
6
CONTINUOUS
10
1.6242
20
-3.23751
11
1.62374
21
-3.23713
0
LINE
8
BLACK
6
CONTINUOUS
10
1.62374
20
-3.23713
11
1.62337
21
-3.23667
0
LINE
8
BLACK
6
CONTINUOUS
10
1.62337
20
-3.23667
11
1.62309
21
-3.23615
0
LINE
8
BLACK
6
CONTINUOUS
10
1.62309
20
-3.23615
11
1.62292
21
-3.23559
0
LINE
8
BLACK
6
CONTINUOUS
10
1.62292
20
-3.23559
11
1.62286
21
-3.235
0
LINE
8
BLACK
6
CONTINUOUS
10
1.62286
20
-3.235
11
1.62287
21
-3.23485
0
LINE
8
BLACK
6
CONTINUOUS
10
1.62287
20
-3.23485
11
1.62287
21
-2.73515
0
LINE
8
BLACK
6
CONTINUOUS
10
1.62287
20
-2.73515
11
1.62286
21
-2.735
0
LINE
8
BLACK
6
CONTINUOUS
10
1.62286
20
-2.735
11
1.62292
21
-2.73441
0
LINE
8
BLACK
6
CONTINUOUS
10
1.62292
20
-2.73441
11
1.62309
21
-2.73385
0
LINE
8
BLACK
6
CONTINUOUS
10
1.62309
20
-2.73385
11
1.62337
21
-2.73333
0
LINE
8
BLACK
6
CONTINUOUS
10
1.62337
20
-2.73333
11
1.62374
21
-2.73287
0
LINE
8
BLACK
6
CONTINUOUS
10
1.62374
20
-2.73287
11
1.6242
21
-2.73249
0
LINE
8
BLACK
6
CONTINUOUS
10
1.6242
20
-2.73249
11
1.62472
21
-2.73221
0
LINE
8
BLACK
6
CONTINUOUS
10
1.62472
20
-2.73221
11
1.62529
21
-2.73204
0
LINE
8
BLACK
6
CONTINUOUS
10
1.62529
20
-2.73204
11
1.62573
21
-2.732
0
LINE
8
BLACK
6
CONTINUOUS
10
1.62573
20
-2.732
11
1.62587
21
-2.73199
0
LINE
8
BLACK
6
CONTINUOUS
10
1.62587
20
-2.73199
11
1.62602
21
-2.732
0
LINE
8
BLACK
6
CONTINUOUS
10
1.62602
20
-2.732
11
2.12573
21
-2.732
0
LINE
8
BLACK
6
CONTINUOUS
10
2.12573
20
-2.732
11
2.12587
21
-2.73199
0
LINE
8
BLACK
6
CONTINUOUS
10
2.12587
20
-2.73199
11
2.12602
21
-2.732
0
LINE
8
BLACK
6
CONTINUOUS
10
1.62887
20
-2.738
11
1.62887
21
-3.232
0
LINE
8
BLACK
6
CONTINUOUS
10
1.62887
20
-3.232
11
2.12287
21
-3.232
0
LINE
8
BLACK
6
CONTINUOUS
10
2.12287
20
-3.232
11
2.12287
21
-2.738
0
LINE
8
BLACK
6
CONTINUOUS
10
2.12287
20
-2.738
11
1.62887
21
-2.738
0
LINE
8
BLACK
6
CONTINUOUS
10
1.75927
20
-2.94963
11
1.76841
21
-2.92756
0
LINE
8
BLACK
6
CONTINUOUS
10
1.76841
20
-2.92756
11
1.78168
21
-2.9077
0
LINE
8
BLACK
6
CONTINUOUS
10
1.78168
20
-2.9077
11
1.79857
21
-2.89081
0
LINE
8
BLACK
6
CONTINUOUS
10
1.79857
20
-2.89081
11
1.81843
21
-2.87754
0
LINE
8
BLACK
6
CONTINUOUS
10
1.81843
20
-2.87754
11
1.8405
21
-2.8684
0
LINE
8
BLACK
6
CONTINUOUS
10
1.8405
20
-2.8684
11
1.86393
21
-2.86374
0
LINE
8
BLACK
6
CONTINUOUS
10
1.86393
20
-2.86374
11
1.88782
21
-2.86374
0
LINE
8
BLACK
6
CONTINUOUS
10
1.88782
20
-2.86374
11
1.91125
21
-2.8684
0
LINE
8
BLACK
6
CONTINUOUS
10
1.91125
20
-2.8684
11
1.93331
21
-2.87754
0
LINE
8
BLACK
6
CONTINUOUS
10
1.93331
20
-2.87754
11
1.95318
21
-2.89081
0
LINE
8
BLACK
6
CONTINUOUS
10
1.95318
20
-2.89081
11
1.97007
21
-2.9077
0
LINE
8
BLACK
6
CONTINUOUS
10
1.97007
20
-2.9077
11
1.98334
21
-2.92756
0
LINE
8
BLACK
6
CONTINUOUS
10
1.98334
20
-2.92756
11
1.99248
21
-2.94963
0
LINE
8
BLACK
6
CONTINUOUS
10
1.99248
20
-2.94963
11
1.99714
21
-2.97306
0
LINE
8
BLACK
6
CONTINUOUS
10
1.99714
20
-2.97306
11
1.99714
21
-2.99694
0
LINE
8
BLACK
6
CONTINUOUS
10
1.99714
20
-2.99694
11
1.99248
21
-3.02037
0
LINE
8
BLACK
6
CONTINUOUS
10
1.99248
20
-3.02037
11
1.98334
21
-3.04244
0
LINE
8
BLACK
6
CONTINUOUS
10
1.98334
20
-3.04244
11
1.97007
21
-3.0623
0
LINE
8
BLACK
6
CONTINUOUS
10
1.97007
20
-3.0623
11
1.95318
21
-3.07919
0
LINE
8
BLACK
6
CONTINUOUS
10
1.95318
20
-3.07919
11
1.93331
21
-3.09246
0
LINE
8
BLACK
6
CONTINUOUS
10
1.93331
20
-3.09246
11
1.91125
21
-3.1016
0
LINE
8
BLACK
6
CONTINUOUS
10
1.91125
20
-3.1016
11
1.88782
21
-3.10626
0
LINE
8
BLACK
6
CONTINUOUS
10
1.88782
20
-3.10626
11
1.86393
21
-3.10626
0
LINE
8
BLACK
6
CONTINUOUS
10
1.86393
20
-3.10626
11
1.8405
21
-3.1016
0
LINE
8
BLACK
6
CONTINUOUS
10
1.8405
20
-3.1016
11
1.81843
21
-3.09246
0
LINE
8
BLACK
6
CONTINUOUS
10
1.81843
20
-3.09246
11
1.79857
21
-3.07919
0
LINE
8
BLACK
6
CONTINUOUS
10
1.79857
20
-3.07919
11
1.78168
21
-3.0623
0
LINE
8
BLACK
6
CONTINUOUS
10
1.78168
20
-3.0623
11
1.76841
21
-3.04244
0
LINE
8
BLACK
6
CONTINUOUS
10
1.76841
20
-3.04244
11
1.75927
21
-3.02037
0
LINE
8
BLACK
6
CONTINUOUS
10
1.75927
20
-3.02037
11
1.75461
21
-2.99694
0
LINE
8
BLACK
6
CONTINUOUS
10
1.75461
20
-2.99694
11
1.75461
21
-2.97306
0
LINE
8
BLACK
6
CONTINUOUS
10
1.75461
20
-2.97306
11
1.75927
21
-2.94963
0
LINE
8
BLACK
6
CONTINUOUS
10
1.76568
20
-3.01843
11
1.77431
21
-3.03928
0
LINE
8
BLACK
6
CONTINUOUS
10
1.77431
20
-3.03928
11
1.78686
21
-3.05806
0
LINE
8
BLACK
6
CONTINUOUS
10
1.78686
20
-3.05806
11
1.80282
21
-3.07402
0
LINE
8
BLACK
6
CONTINUOUS
10
1.80282
20
-3.07402
11
1.82159
21
-3.08656
0
LINE
8
BLACK
6
CONTINUOUS
10
1.82159
20
-3.08656
11
1.84245
21
-3.0952
0
LINE
8
BLACK
6
CONTINUOUS
10
1.84245
20
-3.0952
11
1.86459
21
-3.0996
0
LINE
8
BLACK
6
CONTINUOUS
10
1.86459
20
-3.0996
11
1.88716
21
-3.0996
0
LINE
8
BLACK
6
CONTINUOUS
10
1.88716
20
-3.0996
11
1.9093
21
-3.0952
0
LINE
8
BLACK
6
CONTINUOUS
10
1.9093
20
-3.0952
11
1.93016
21
-3.08656
0
LINE
8
BLACK
6
CONTINUOUS
10
1.93016
20
-3.08656
11
1.94893
21
-3.07402
0
LINE
8
BLACK
6
CONTINUOUS
10
1.94893
20
-3.07402
11
1.96489
21
-3.05806
0
LINE
8
BLACK
6
CONTINUOUS
10
1.96489
20
-3.05806
11
1.97743
21
-3.03928
0
LINE
8
BLACK
6
CONTINUOUS
10
1.97743
20
-3.03928
11
1.98607
21
-3.01843
0
LINE
8
BLACK
6
CONTINUOUS
10
1.98607
20
-3.01843
11
1.99048
21
-2.99629
0
LINE
8
BLACK
6
CONTINUOUS
10
1.99048
20
-2.99629
11
1.99048
21
-2.97371
0
LINE
8
BLACK
6
CONTINUOUS
10
1.99048
20
-2.97371
11
1.98607
21
-2.95157
0
LINE
8
BLACK
6
CONTINUOUS
10
1.98607
20
-2.95157
11
1.97743
21
-2.93072
0
LINE
8
BLACK
6
CONTINUOUS
10
1.97743
20
-2.93072
11
1.96489
21
-2.91194
0
LINE
8
BLACK
6
CONTINUOUS
10
1.96489
20
-2.91194
11
1.94893
21
-2.89598
0
LINE
8
BLACK
6
CONTINUOUS
10
1.94893
20
-2.89598
11
1.93016
21
-2.88344
0
LINE
8
BLACK
6
CONTINUOUS
10
1.93016
20
-2.88344
11
1.9093
21
-2.8748
0
LINE
8
BLACK
6
CONTINUOUS
10
1.9093
20
-2.8748
11
1.88716
21
-2.8704
0
LINE
8
BLACK
6
CONTINUOUS
10
1.88716
20
-2.8704
11
1.86459
21
-2.8704
0
LINE
8
BLACK
6
CONTINUOUS
10
1.86459
20
-2.8704
11
1.84245
21
-2.8748
0
LINE
8
BLACK
6
CONTINUOUS
10
1.84245
20
-2.8748
11
1.82159
21
-2.88344
0
LINE
8
BLACK
6
CONTINUOUS
10
1.82159
20
-2.88344
11
1.80282
21
-2.89598
0
LINE
8
BLACK
6
CONTINUOUS
10
1.80282
20
-2.89598
11
1.78686
21
-2.91194
0
LINE
8
BLACK
6
CONTINUOUS
10
1.78686
20
-2.91194
11
1.77431
21
-2.93072
0
LINE
8
BLACK
6
CONTINUOUS
10
1.77431
20
-2.93072
11
1.76568
21
-2.95157
0
LINE
8
BLACK
6
CONTINUOUS
10
1.76568
20
-2.95157
11
1.76127
21
-2.97371
0
LINE
8
BLACK
6
CONTINUOUS
10
1.76127
20
-2.97371
11
1.76127
21
-2.99629
0
LINE
8
BLACK
6
CONTINUOUS
10
1.76127
20
-2.99629
11
1.76568
21
-3.01843
0
LINE
8
BLACK
6
CONTINUOUS
10
11.8651
20
-2.7295
11
11.8656
21
-2.72954
0
LINE
8
BLACK
6
CONTINUOUS
10
11.8656
20
-2.72954
11
11.8662
21
-2.72971
0
LINE
8
BLACK
6
CONTINUOUS
10
11.8662
20
-2.72971
11
11.8667
21
-2.72999
0
LINE
8
BLACK
6
CONTINUOUS
10
11.8667
20
-2.72999
11
11.8671
21
-2.73037
0
LINE
8
BLACK
6
CONTINUOUS
10
11.8671
20
-2.73037
11
11.8675
21
-2.73083
0
LINE
8
BLACK
6
CONTINUOUS
10
11.8675
20
-2.73083
11
11.8678
21
-2.73135
0
LINE
8
BLACK
6
CONTINUOUS
10
11.8678
20
-2.73135
11
11.868
21
-2.73191
0
LINE
8
BLACK
6
CONTINUOUS
10
11.868
20
-2.73191
11
11.868
21
-2.7325
0
LINE
8
BLACK
6
CONTINUOUS
10
11.868
20
-2.7325
11
11.868
21
-2.73265
0
LINE
8
BLACK
6
CONTINUOUS
10
11.868
20
-2.73265
11
11.868
21
-3.23235
0
LINE
8
BLACK
6
CONTINUOUS
10
11.868
20
-3.23235
11
11.868
21
-3.2325
0
LINE
8
BLACK
6
CONTINUOUS
10
11.868
20
-3.2325
11
11.868
21
-3.23309
0
LINE
8
BLACK
6
CONTINUOUS
10
11.868
20
-3.23309
11
11.8678
21
-3.23365
0
LINE
8
BLACK
6
CONTINUOUS
10
11.8678
20
-3.23365
11
11.8675
21
-3.23417
0
LINE
8
BLACK
6
CONTINUOUS
10
11.8675
20
-3.23417
11
11.8671
21
-3.23463
0
LINE
8
BLACK
6
CONTINUOUS
10
11.8671
20
-3.23463
11
11.8667
21
-3.23501
0
LINE
8
BLACK
6
CONTINUOUS
10
11.8667
20
-3.23501
11
11.8662
21
-3.23529
0
LINE
8
BLACK
6
CONTINUOUS
10
11.8662
20
-3.23529
11
11.8656
21
-3.23546
0
LINE
8
BLACK
6
CONTINUOUS
10
11.8656
20
-3.23546
11
11.8651
21
-3.2355
0
LINE
8
BLACK
6
CONTINUOUS
10
11.8651
20
-3.2355
11
11.865
21
-3.23551
0
LINE
8
BLACK
6
CONTINUOUS
10
11.865
20
-3.23551
11
11.8649
21
-3.2355
0
LINE
8
BLACK
6
CONTINUOUS
10
11.8649
20
-3.2355
11
11.3651
21
-3.2355
0
LINE
8
BLACK
6
CONTINUOUS
10
11.3651
20
-3.2355
11
11.365
21
-3.23551
0
LINE
8
BLACK
6
CONTINUOUS
10
11.365
20
-3.23551
11
11.3644
21
-3.23546
0
LINE
8
BLACK
6
CONTINUOUS
10
11.3644
20
-3.23546
11
11.3638
21
-3.23529
0
LINE
8
BLACK
6
CONTINUOUS
10
11.3638
20
-3.23529
11
11.3633
21
-3.23501
0
LINE
8
BLACK
6
CONTINUOUS
10
11.3633
20
-3.23501
11
11.3629
21
-3.23463
0
LINE
8
BLACK
6
CONTINUOUS
10
11.3629
20
-3.23463
11
11.3627
21
-3.23441
0
LINE
8
BLACK
6
CONTINUOUS
10
11.3627
20
-3.23441
11
11.3625
21
-3.23417
0
LINE
8
BLACK
6
CONTINUOUS
10
11.3625
20
-3.23417
11
11.3622
21
-3.23365
0
LINE
8
BLACK
6
CONTINUOUS
10
11.3622
20
-3.23365
11
11.362
21
-3.23309
0
LINE
8
BLACK
6
CONTINUOUS
10
11.362
20
-3.23309
11
11.362
21
-3.2325
0
LINE
8
BLACK
6
CONTINUOUS
10
11.362
20
-3.2325
11
11.362
21
-3.23235
0
LINE
8
BLACK
6
CONTINUOUS
10
11.362
20
-3.23235
11
11.362
21
-2.73265
0
LINE
8
BLACK
6
CONTINUOUS
10
11.362
20
-2.73265
11
11.362
21
-2.7325
0
LINE
8
BLACK
6
CONTINUOUS
10
11.362
20
-2.7325
11
11.362
21
-2.73191
0
LINE
8
BLACK
6
CONTINUOUS
10
11.362
20
-2.73191
11
11.3622
21
-2.73135
0
LINE
8
BLACK
6
CONTINUOUS
10
11.3622
20
-2.73135
11
11.3625
21
-2.73083
0
LINE
8
BLACK
6
CONTINUOUS
10
11.3625
20
-2.73083
11
11.3629
21
-2.73037
0
LINE
8
BLACK
6
CONTINUOUS
10
11.3629
20
-2.73037
11
11.3633
21
-2.72999
0
LINE
8
BLACK
6
CONTINUOUS
10
11.3633
20
-2.72999
11
11.3638
21
-2.72971
0
LINE
8
BLACK
6
CONTINUOUS
10
11.3638
20
-2.72971
11
11.3644
21
-2.72954
0
LINE
8
BLACK
6
CONTINUOUS
10
11.3644
20
-2.72954
11
11.3649
21
-2.7295
0
LINE
8
BLACK
6
CONTINUOUS
10
11.3649
20
-2.7295
11
11.365
21
-2.72949
0
LINE
8
BLACK
6
CONTINUOUS
10
11.365
20
-2.72949
11
11.3651
21
-2.7295
0
LINE
8
BLACK
6
CONTINUOUS
10
11.3651
20
-2.7295
11
11.8649
21
-2.7295
0
LINE
8
BLACK
6
CONTINUOUS
10
11.8649
20
-2.7295
11
11.865
21
-2.72949
0
LINE
8
BLACK
6
CONTINUOUS
10
11.865
20
-2.72949
11
11.8651
21
-2.7295
0
LINE
8
BLACK
6
CONTINUOUS
10
11.368
20
-2.7355
11
11.368
21
-3.2295
0
LINE
8
BLACK
6
CONTINUOUS
10
11.368
20
-3.2295
11
11.862
21
-3.2295
0
LINE
8
BLACK
6
CONTINUOUS
10
11.862
20
-3.2295
11
11.862
21
-2.7355
0
LINE
8
BLACK
6
CONTINUOUS
10
11.862
20
-2.7355
11
11.368
21
-2.7355
0
LINE
8
BLACK
6
CONTINUOUS
10
11.4984
20
-2.94713
11
11.5075
21
-2.92506
0
LINE
8
BLACK
6
CONTINUOUS
10
11.5075
20
-2.92506
11
11.5208
21
-2.9052
0
LINE
8
BLACK
6
CONTINUOUS
10
11.5208
20
-2.9052
11
11.5377
21
-2.88831
0
LINE
8
BLACK
6
CONTINUOUS
10
11.5377
20
-2.88831
11
11.5576
21
-2.87504
0
LINE
8
BLACK
6
CONTINUOUS
10
11.5576
20
-2.87504
11
11.5796
21
-2.8659
0
LINE
8
BLACK
6
CONTINUOUS
10
11.5796
20
-2.8659
11
11.6031
21
-2.86124
0
LINE
8
BLACK
6
CONTINUOUS
10
11.6031
20
-2.86124
11
11.6269
21
-2.86124
0
LINE
8
BLACK
6
CONTINUOUS
10
11.6269
20
-2.86124
11
11.6504
21
-2.8659
0
LINE
8
BLACK
6
CONTINUOUS
10
11.6504
20
-2.8659
11
11.6724
21
-2.87504
0
LINE
8
BLACK
6
CONTINUOUS
10
11.6724
20
-2.87504
11
11.6923
21
-2.88831
0
LINE
8
BLACK
6
CONTINUOUS
10
11.6923
20
-2.88831
11
11.7092
21
-2.9052
0
LINE
8
BLACK
6
CONTINUOUS
10
11.7092
20
-2.9052
11
11.7225
21
-2.92506
0
LINE
8
BLACK
6
CONTINUOUS
10
11.7225
20
-2.92506
11
11.7316
21
-2.94713
0
LINE
8
BLACK
6
CONTINUOUS
10
11.7316
20
-2.94713
11
11.7363
21
-2.97056
0
LINE
8
BLACK
6
CONTINUOUS
10
11.7363
20
-2.97056
11
11.7363
21
-2.99444
0
LINE
8
BLACK
6
CONTINUOUS
10
11.7363
20
-2.99444
11
11.7316
21
-3.01787
0
LINE
8
BLACK
6
CONTINUOUS
10
11.7316
20
-3.01787
11
11.7225
21
-3.03994
0
LINE
8
BLACK
6
CONTINUOUS
10
11.7225
20
-3.03994
11
11.7092
21
-3.0598
0
LINE
8
BLACK
6
CONTINUOUS
10
11.7092
20
-3.0598
11
11.6923
21
-3.07669
0
LINE
8
BLACK
6
CONTINUOUS
10
11.6923
20
-3.07669
11
11.6724
21
-3.08996
0
LINE
8
BLACK
6
CONTINUOUS
10
11.6724
20
-3.08996
11
11.6504
21
-3.0991
0
LINE
8
BLACK
6
CONTINUOUS
10
11.6504
20
-3.0991
11
11.6269
21
-3.10376
0
LINE
8
BLACK
6
CONTINUOUS
10
11.6269
20
-3.10376
11
11.6031
21
-3.10376
0
LINE
8
BLACK
6
CONTINUOUS
10
11.6031
20
-3.10376
11
11.5796
21
-3.0991
0
LINE
8
BLACK
6
CONTINUOUS
10
11.5796
20
-3.0991
11
11.5576
21
-3.08996
0
LINE
8
BLACK
6
CONTINUOUS
10
11.5576
20
-3.08996
11
11.5377
21
-3.07669
0
LINE
8
BLACK
6
CONTINUOUS
10
11.5377
20
-3.07669
11
11.5208
21
-3.0598
0
LINE
8
BLACK
6
CONTINUOUS
10
11.5208
20
-3.0598
11
11.5075
21
-3.03994
0
LINE
8
BLACK
6
CONTINUOUS
10
11.5075
20
-3.03994
11
11.4984
21
-3.01787
0
LINE
8
BLACK
6
CONTINUOUS
10
11.4984
20
-3.01787
11
11.4937
21
-2.99444
0
LINE
8
BLACK
6
CONTINUOUS
10
11.4937
20
-2.99444
11
11.4937
21
-2.97056
0
LINE
8
BLACK
6
CONTINUOUS
10
11.4937
20
-2.97056
11
11.4984
21
-2.94713
0
LINE
8
BLACK
6
CONTINUOUS
10
11.5048
20
-3.01593
11
11.5134
21
-3.03678
0
LINE
8
BLACK
6
CONTINUOUS
10
11.5134
20
-3.03678
11
11.526
21
-3.05556
0
LINE
8
BLACK
6
CONTINUOUS
10
11.526
20
-3.05556
11
11.5419
21
-3.07152
0
LINE
8
BLACK
6
CONTINUOUS
10
11.5419
20
-3.07152
11
11.5607
21
-3.08406
0
LINE
8
BLACK
6
CONTINUOUS
10
11.5607
20
-3.08406
11
11.5816
21
-3.0927
0
LINE
8
BLACK
6
CONTINUOUS
10
11.5816
20
-3.0927
11
11.6037
21
-3.0971
0
LINE
8
BLACK
6
CONTINUOUS
10
11.6037
20
-3.0971
11
11.6263
21
-3.0971
0
LINE
8
BLACK
6
CONTINUOUS
10
11.6263
20
-3.0971
11
11.6484
21
-3.0927
0
LINE
8
BLACK
6
CONTINUOUS
10
11.6484
20
-3.0927
11
11.6693
21
-3.08406
0
LINE
8
BLACK
6
CONTINUOUS
10
11.6693
20
-3.08406
11
11.6881
21
-3.07152
0
LINE
8
BLACK
6
CONTINUOUS
10
11.6881
20
-3.07152
11
11.704
21
-3.05556
0
LINE
8
BLACK
6
CONTINUOUS
10
11.704
20
-3.05556
11
11.7166
21
-3.03678
0
LINE
8
BLACK
6
CONTINUOUS
10
11.7166
20
-3.03678
11
11.7252
21
-3.01593
0
LINE
8
BLACK
6
CONTINUOUS
10
11.7252
20
-3.01593
11
11.7296
21
-2.99379
0
LINE
8
BLACK
6
CONTINUOUS
10
11.7296
20
-2.99379
11
11.7296
21
-2.97121
0
LINE
8
BLACK
6
CONTINUOUS
10
11.7296
20
-2.97121
11
11.7252
21
-2.94907
0
LINE
8
BLACK
6
CONTINUOUS
10
11.7252
20
-2.94907
11
11.7166
21
-2.92822
0
LINE
8
BLACK
6
CONTINUOUS
10
11.7166
20
-2.92822
11
11.704
21
-2.90944
0
LINE
8
BLACK
6
CONTINUOUS
10
11.704
20
-2.90944
11
11.6881
21
-2.89348
0
LINE
8
BLACK
6
CONTINUOUS
10
11.6881
20
-2.89348
11
11.6693
21
-2.88094
0
LINE
8
BLACK
6
CONTINUOUS
10
11.6693
20
-2.88094
11
11.6484
21
-2.8723
0
LINE
8
BLACK
6
CONTINUOUS
10
11.6484
20
-2.8723
11
11.6263
21
-2.8679
0
LINE
8
BLACK
6
CONTINUOUS
10
11.6263
20
-2.8679
11
11.6037
21
-2.8679
0
LINE
8
BLACK
6
CONTINUOUS
10
11.6037
20
-2.8679
11
11.5816
21
-2.8723
0
LINE
8
BLACK
6
CONTINUOUS
10
11.5816
20
-2.8723
11
11.5607
21
-2.88094
0
LINE
8
BLACK
6
CONTINUOUS
10
11.5607
20
-2.88094
11
11.5419
21
-2.89348
0
LINE
8
BLACK
6
CONTINUOUS
10
11.5419
20
-2.89348
11
11.526
21
-2.90944
0
LINE
8
BLACK
6
CONTINUOUS
10
11.526
20
-2.90944
11
11.5134
21
-2.92822
0
LINE
8
BLACK
6
CONTINUOUS
10
11.5134
20
-2.92822
11
11.5048
21
-2.94907
0
LINE
8
BLACK
6
CONTINUOUS
10
11.5048
20
-2.94907
11
11.5004
21
-2.97121
0
LINE
8
BLACK
6
CONTINUOUS
10
11.5004
20
-2.97121
11
11.5004
21
-2.99379
0
LINE
8
BLACK
6
CONTINUOUS
10
11.5004
20
-2.99379
11
11.5048
21
-3.01593
0
LINE
8
BLACK
6
CONTINUOUS
10
12.1127
20
-1.9845
11
12.1131
21
-1.98454
0
LINE
8
BLACK
6
CONTINUOUS
10
12.1131
20
-1.98454
11
12.1137
21
-1.98471
0
LINE
8
BLACK
6
CONTINUOUS
10
12.1137
20
-1.98471
11
12.1142
21
-1.98499
0
LINE
8
BLACK
6
CONTINUOUS
10
12.1142
20
-1.98499
11
12.1147
21
-1.98537
0
LINE
8
BLACK
6
CONTINUOUS
10
12.1147
20
-1.98537
11
12.115
21
-1.98583
0
LINE
8
BLACK
6
CONTINUOUS
10
12.115
20
-1.98583
11
12.1153
21
-1.98635
0
LINE
8
BLACK
6
CONTINUOUS
10
12.1153
20
-1.98635
11
12.1155
21
-1.98691
0
LINE
8
BLACK
6
CONTINUOUS
10
12.1155
20
-1.98691
11
12.1155
21
-1.9875
0
LINE
8
BLACK
6
CONTINUOUS
10
12.1155
20
-1.9875
11
12.1155
21
-1.98765
0
LINE
8
BLACK
6
CONTINUOUS
10
12.1155
20
-1.98765
11
12.1155
21
-2.48735
0
LINE
8
BLACK
6
CONTINUOUS
10
12.1155
20
-2.48735
11
12.1155
21
-2.4875
0
LINE
8
BLACK
6
CONTINUOUS
10
12.1155
20
-2.4875
11
12.1155
21
-2.48809
0
LINE
8
BLACK
6
CONTINUOUS
10
12.1155
20
-2.48809
11
12.1153
21
-2.48865
0
LINE
8
BLACK
6
CONTINUOUS
10
12.1153
20
-2.48865
11
12.115
21
-2.48917
0
LINE
8
BLACK
6
CONTINUOUS
10
12.115
20
-2.48917
11
12.1147
21
-2.48963
0
LINE
8
BLACK
6
CONTINUOUS
10
12.1147
20
-2.48963
11
12.1142
21
-2.49001
0
LINE
8
BLACK
6
CONTINUOUS
10
12.1142
20
-2.49001
11
12.1137
21
-2.49029
0
LINE
8
BLACK
6
CONTINUOUS
10
12.1137
20
-2.49029
11
12.1131
21
-2.49046
0
LINE
8
BLACK
6
CONTINUOUS
10
12.1131
20
-2.49046
11
12.1127
21
-2.4905
0
LINE
8
BLACK
6
CONTINUOUS
10
12.1127
20
-2.4905
11
12.1125
21
-2.49051
0
LINE
8
BLACK
6
CONTINUOUS
10
12.1125
20
-2.49051
11
12.1124
21
-2.4905
0
LINE
8
BLACK
6
CONTINUOUS
10
12.1124
20
-2.4905
11
11.6127
21
-2.4905
0
LINE
8
BLACK
6
CONTINUOUS
10
11.6127
20
-2.4905
11
11.6125
21
-2.49051
0
LINE
8
BLACK
6
CONTINUOUS
10
11.6125
20
-2.49051
11
11.6119
21
-2.49046
0
LINE
8
BLACK
6
CONTINUOUS
10
11.6119
20
-2.49046
11
11.6114
21
-2.49029
0
LINE
8
BLACK
6
CONTINUOUS
10
11.6114
20
-2.49029
11
11.6108
21
-2.49001
0
LINE
8
BLACK
6
CONTINUOUS
10
11.6108
20
-2.49001
11
11.6104
21
-2.48963
0
LINE
8
BLACK
6
CONTINUOUS
10
11.6104
20
-2.48963
11
11.61
21
-2.48917
0
LINE
8
BLACK
6
CONTINUOUS
10
11.61
20
-2.48917
11
11.6097
21
-2.48865
0
LINE
8
BLACK
6
CONTINUOUS
10
11.6097
20
-2.48865
11
11.6096
21
-2.48809
0
LINE
8
BLACK
6
CONTINUOUS
10
11.6096
20
-2.48809
11
11.6095
21
-2.4875
0
LINE
8
BLACK
6
CONTINUOUS
10
11.6095
20
-2.4875
11
11.6095
21
-2.48735
0
LINE
8
BLACK
6
CONTINUOUS
10
11.6095
20
-2.48735
11
11.6095
21
-1.98765
0
LINE
8
BLACK
6
CONTINUOUS
10
11.6095
20
-1.98765
11
11.6095
21
-1.9875
0
LINE
8
BLACK
6
CONTINUOUS
10
11.6095
20
-1.9875
11
11.6096
21
-1.98691
0
LINE
8
BLACK
6
CONTINUOUS
10
11.6096
20
-1.98691
11
11.6097
21
-1.98635
0
LINE
8
BLACK
6
CONTINUOUS
10
11.6097
20
-1.98635
11
11.61
21
-1.98583
0
LINE
8
BLACK
6
CONTINUOUS
10
11.61
20
-1.98583
11
11.6104
21
-1.98537
0
LINE
8
BLACK
6
CONTINUOUS
10
11.6104
20
-1.98537
11
11.6108
21
-1.98499
0
LINE
8
BLACK
6
CONTINUOUS
10
11.6108
20
-1.98499
11
11.6114
21
-1.98471
0
LINE
8
BLACK
6
CONTINUOUS
10
11.6114
20
-1.98471
11
11.6119
21
-1.98454
0
LINE
8
BLACK
6
CONTINUOUS
10
11.6119
20
-1.98454
11
11.6124
21
-1.9845
0
LINE
8
BLACK
6
CONTINUOUS
10
11.6124
20
-1.9845
11
11.6125
21
-1.98449
0
LINE
8
BLACK
6
CONTINUOUS
10
11.6125
20
-1.98449
11
11.6127
21
-1.9845
0
LINE
8
BLACK
6
CONTINUOUS
10
11.6127
20
-1.9845
11
12.1124
21
-1.9845
0
LINE
8
BLACK
6
CONTINUOUS
10
12.1124
20
-1.9845
11
12.1125
21
-1.98449
0
LINE
8
BLACK
6
CONTINUOUS
10
12.1125
20
-1.98449
11
12.1127
21
-1.9845
0
LINE
8
BLACK
6
CONTINUOUS
10
11.6155
20
-1.9905
11
11.6155
21
-2.4845
0
LINE
8
BLACK
6
CONTINUOUS
10
11.6155
20
-2.4845
11
12.1095
21
-2.4845
0
LINE
8
BLACK
6
CONTINUOUS
10
12.1095
20
-2.4845
11
12.1095
21
-1.9905
0
LINE
8
BLACK
6
CONTINUOUS
10
12.1095
20
-1.9905
11
11.6155
21
-1.9905
0
LINE
8
BLACK
6
CONTINUOUS
10
11.7459
20
-2.20213
11
11.7551
21
-2.18006
0
LINE
8
BLACK
6
CONTINUOUS
10
11.7551
20
-2.18006
11
11.7683
21
-2.1602
0
LINE
8
BLACK
6
CONTINUOUS
10
11.7683
20
-2.1602
11
11.7852
21
-2.14331
0
LINE
8
BLACK
6
CONTINUOUS
10
11.7852
20
-2.14331
11
11.8051
21
-2.13004
0
LINE
8
BLACK
6
CONTINUOUS
10
11.8051
20
-2.13004
11
11.8271
21
-2.1209
0
LINE
8
BLACK
6
CONTINUOUS
10
11.8271
20
-2.1209
11
11.8506
21
-2.11624
0
LINE
8
BLACK
6
CONTINUOUS
10
11.8506
20
-2.11624
11
11.8745
21
-2.11624
0
LINE
8
BLACK
6
CONTINUOUS
10
11.8745
20
-2.11624
11
11.8979
21
-2.1209
0
LINE
8
BLACK
6
CONTINUOUS
10
11.8979
20
-2.1209
11
11.92
21
-2.13004
0
LINE
8
BLACK
6
CONTINUOUS
10
11.92
20
-2.13004
11
11.9398
21
-2.14331
0
LINE
8
BLACK
6
CONTINUOUS
10
11.9398
20
-2.14331
11
11.9567
21
-2.1602
0
LINE
8
BLACK
6
CONTINUOUS
10
11.9567
20
-2.1602
11
11.97
21
-2.18006
0
LINE
8
BLACK
6
CONTINUOUS
10
11.97
20
-2.18006
11
11.9791
21
-2.20213
0
LINE
8
BLACK
6
CONTINUOUS
10
11.9791
20
-2.20213
11
11.9838
21
-2.22556
0
LINE
8
BLACK
6
CONTINUOUS
10
11.9838
20
-2.22556
11
11.9838
21
-2.24944
0
LINE
8
BLACK
6
CONTINUOUS
10
11.9838
20
-2.24944
11
11.9791
21
-2.27287
0
LINE
8
BLACK
6
CONTINUOUS
10
11.9791
20
-2.27287
11
11.97
21
-2.29494
0
LINE
8
BLACK
6
CONTINUOUS
10
11.97
20
-2.29494
11
11.9567
21
-2.3148
0
LINE
8
BLACK
6
CONTINUOUS
10
11.9567
20
-2.3148
11
11.9398
21
-2.33169
0
LINE
8
BLACK
6
CONTINUOUS
10
11.9398
20
-2.33169
11
11.92
21
-2.34496
0
LINE
8
BLACK
6
CONTINUOUS
10
11.92
20
-2.34496
11
11.8979
21
-2.3541
0
LINE
8
BLACK
6
CONTINUOUS
10
11.8979
20
-2.3541
11
11.8745
21
-2.35876
0
LINE
8
BLACK
6
CONTINUOUS
10
11.8745
20
-2.35876
11
11.8506
21
-2.35876
0
LINE
8
BLACK
6
CONTINUOUS
10
11.8506
20
-2.35876
11
11.8271
21
-2.3541
0
LINE
8
BLACK
6
CONTINUOUS
10
11.8271
20
-2.3541
11
11.8051
21
-2.34496
0
LINE
8
BLACK
6
CONTINUOUS
10
11.8051
20
-2.34496
11
11.7852
21
-2.33169
0
LINE
8
BLACK
6
CONTINUOUS
10
11.7852
20
-2.33169
11
11.7683
21
-2.3148
0
LINE
8
BLACK
6
CONTINUOUS
10
11.7683
20
-2.3148
11
11.7551
21
-2.29494
0
LINE
8
BLACK
6
CONTINUOUS
10
11.7551
20
-2.29494
11
11.7459
21
-2.27287
0
LINE
8
BLACK
6
CONTINUOUS
10
11.7459
20
-2.27287
11
11.7413
21
-2.24944
0
LINE
8
BLACK
6
CONTINUOUS
10
11.7413
20
-2.24944
11
11.7413
21
-2.22556
0
LINE
8
BLACK
6
CONTINUOUS
10
11.7413
20
-2.22556
11
11.7459
21
-2.20213
0
LINE
8
BLACK
6
CONTINUOUS
10
11.7523
20
-2.27093
11
11.761
21
-2.29178
0
LINE
8
BLACK
6
CONTINUOUS
10
11.761
20
-2.29178
11
11.7735
21
-2.31056
0
LINE
8
BLACK
6
CONTINUOUS
10
11.7735
20
-2.31056
11
11.7895
21
-2.32652
0
LINE
8
BLACK
6
CONTINUOUS
10
11.7895
20
-2.32652
11
11.8082
21
-2.33906
0
LINE
8
BLACK
6
CONTINUOUS
10
11.8082
20
-2.33906
11
11.8291
21
-2.3477
0
LINE
8
BLACK
6
CONTINUOUS
10
11.8291
20
-2.3477
11
11.8512
21
-2.3521
0
LINE
8
BLACK
6
CONTINUOUS
10
11.8512
20
-2.3521
11
11.8738
21
-2.3521
0
LINE
8
BLACK
6
CONTINUOUS
10
11.8738
20
-2.3521
11
11.8959
21
-2.3477
0
LINE
8
BLACK
6
CONTINUOUS
10
11.8959
20
-2.3477
11
11.9168
21
-2.33906
0
LINE
8
BLACK
6
CONTINUOUS
10
11.9168
20
-2.33906
11
11.9356
21
-2.32652
0
LINE
8
BLACK
6
CONTINUOUS
10
11.9356
20
-2.32652
11
11.9515
21
-2.31056
0
LINE
8
BLACK
6
CONTINUOUS
10
11.9515
20
-2.31056
11
11.9641
21
-2.29178
0
LINE
8
BLACK
6
CONTINUOUS
10
11.9641
20
-2.29178
11
11.9727
21
-2.27093
0
LINE
8
BLACK
6
CONTINUOUS
10
11.9727
20
-2.27093
11
11.9771
21
-2.24879
0
LINE
8
BLACK
6
CONTINUOUS
10
11.9771
20
-2.24879
11
11.9771
21
-2.22621
0
LINE
8
BLACK
6
CONTINUOUS
10
11.9771
20
-2.22621
11
11.9727
21
-2.20407
0
LINE
8
BLACK
6
CONTINUOUS
10
11.9727
20
-2.20407
11
11.9641
21
-2.18322
0
LINE
8
BLACK
6
CONTINUOUS
10
11.9641
20
-2.18322
11
11.9515
21
-2.16444
0
LINE
8
BLACK
6
CONTINUOUS
10
11.9515
20
-2.16444
11
11.9356
21
-2.14848
0
LINE
8
BLACK
6
CONTINUOUS
10
11.9356
20
-2.14848
11
11.9168
21
-2.13594
0
LINE
8
BLACK
6
CONTINUOUS
10
11.9168
20
-2.13594
11
11.8959
21
-2.1273
0
LINE
8
BLACK
6
CONTINUOUS
10
11.8959
20
-2.1273
11
11.8738
21
-2.1229
0
LINE
8
BLACK
6
CONTINUOUS
10
11.8738
20
-2.1229
11
11.8512
21
-2.1229
0
LINE
8
BLACK
6
CONTINUOUS
10
11.8512
20
-2.1229
11
11.8291
21
-2.1273
0
LINE
8
BLACK
6
CONTINUOUS
10
11.8291
20
-2.1273
11
11.8082
21
-2.13594
0
LINE
8
BLACK
6
CONTINUOUS
10
11.8082
20
-2.13594
11
11.7895
21
-2.14848
0
LINE
8
BLACK
6
CONTINUOUS
10
11.7895
20
-2.14848
11
11.7735
21
-2.16444
0
LINE
8
BLACK
6
CONTINUOUS
10
11.7735
20
-2.16444
11
11.761
21
-2.18322
0
LINE
8
BLACK
6
CONTINUOUS
10
11.761
20
-2.18322
11
11.7523
21
-2.20407
0
LINE
8
BLACK
6
CONTINUOUS
10
11.7523
20
-2.20407
11
11.7479
21
-2.22621
0
LINE
8
BLACK
6
CONTINUOUS
10
11.7479
20
-2.22621
11
11.7479
21
-2.24879
0
LINE
8
BLACK
6
CONTINUOUS
10
11.7479
20
-2.24879
11
11.7523
21
-2.27093
0
LINE
8
BLACK
6
CONTINUOUS
10
2.03222
20
-1.98264
11
2.03266
21
-1.98268
0
LINE
8
BLACK
6
CONTINUOUS
10
2.03266
20
-1.98268
11
2.03323
21
-1.98285
0
LINE
8
BLACK
6
CONTINUOUS
10
2.03323
20
-1.98285
11
2.03375
21
-1.98313
0
LINE
8
BLACK
6
CONTINUOUS
10
2.03375
20
-1.98313
11
2.03421
21
-1.98351
0
LINE
8
BLACK
6
CONTINUOUS
10
2.03421
20
-1.98351
11
2.03458
21
-1.98396
0
LINE
8
BLACK
6
CONTINUOUS
10
2.03458
20
-1.98396
11
2.03486
21
-1.98448
0
LINE
8
BLACK
6
CONTINUOUS
10
2.03486
20
-1.98448
11
2.03503
21
-1.98505
0
LINE
8
BLACK
6
CONTINUOUS
10
2.03503
20
-1.98505
11
2.03509
21
-1.98564
0
LINE
8
BLACK
6
CONTINUOUS
10
2.03509
20
-1.98564
11
2.03507
21
-1.98578
0
LINE
8
BLACK
6
CONTINUOUS
10
2.03507
20
-1.98578
11
2.03507
21
-2.48549
0
LINE
8
BLACK
6
CONTINUOUS
10
2.03507
20
-2.48549
11
2.03509
21
-2.48564
0
LINE
8
BLACK
6
CONTINUOUS
10
2.03509
20
-2.48564
11
2.03503
21
-2.48623
0
LINE
8
BLACK
6
CONTINUOUS
10
2.03503
20
-2.48623
11
2.03486
21
-2.48679
0
LINE
8
BLACK
6
CONTINUOUS
10
2.03486
20
-2.48679
11
2.03458
21
-2.48731
0
LINE
8
BLACK
6
CONTINUOUS
10
2.03458
20
-2.48731
11
2.03421
21
-2.48777
0
LINE
8
BLACK
6
CONTINUOUS
10
2.03421
20
-2.48777
11
2.03375
21
-2.48814
0
LINE
8
BLACK
6
CONTINUOUS
10
2.03375
20
-2.48814
11
2.03323
21
-2.48842
0
LINE
8
BLACK
6
CONTINUOUS
10
2.03323
20
-2.48842
11
2.03266
21
-2.48859
0
LINE
8
BLACK
6
CONTINUOUS
10
2.03266
20
-2.48859
11
2.03222
21
-2.48864
0
LINE
8
BLACK
6
CONTINUOUS
10
2.03222
20
-2.48864
11
2.03207
21
-2.48865
0
LINE
8
BLACK
6
CONTINUOUS
10
2.03207
20
-2.48865
11
2.03193
21
-2.48864
0
LINE
8
BLACK
6
CONTINUOUS
10
2.03193
20
-2.48864
11
1.53222
21
-2.48864
0
LINE
8
BLACK
6
CONTINUOUS
10
1.53222
20
-2.48864
11
1.53207
21
-2.48865
0
LINE
8
BLACK
6
CONTINUOUS
10
1.53207
20
-2.48865
11
1.53149
21
-2.48859
0
LINE
8
BLACK
6
CONTINUOUS
10
1.53149
20
-2.48859
11
1.53092
21
-2.48842
0
LINE
8
BLACK
6
CONTINUOUS
10
1.53092
20
-2.48842
11
1.5304
21
-2.48814
0
LINE
8
BLACK
6
CONTINUOUS
10
1.5304
20
-2.48814
11
1.52994
21
-2.48777
0
LINE
8
BLACK
6
CONTINUOUS
10
1.52994
20
-2.48777
11
1.52984
21
-2.48765
0
LINE
8
BLACK
6
CONTINUOUS
10
1.52984
20
-2.48765
11
1.52957
21
-2.48731
0
LINE
8
BLACK
6
CONTINUOUS
10
1.52957
20
-2.48731
11
1.52929
21
-2.48679
0
LINE
8
BLACK
6
CONTINUOUS
10
1.52929
20
-2.48679
11
1.52912
21
-2.48623
0
LINE
8
BLACK
6
CONTINUOUS
10
1.52912
20
-2.48623
11
1.52906
21
-2.48564
0
LINE
8
BLACK
6
CONTINUOUS
10
1.52906
20
-2.48564
11
1.52907
21
-2.48549
0
LINE
8
BLACK
6
CONTINUOUS
10
1.52907
20
-2.48549
11
1.52907
21
-1.98579
0
LINE
8
BLACK
6
CONTINUOUS
10
1.52907
20
-1.98579
11
1.52906
21
-1.98564
0
LINE
8
BLACK
6
CONTINUOUS
10
1.52906
20
-1.98564
11
1.52912
21
-1.98505
0
LINE
8
BLACK
6
CONTINUOUS
10
1.52912
20
-1.98505
11
1.52929
21
-1.98448
0
LINE
8
BLACK
6
CONTINUOUS
10
1.52929
20
-1.98448
11
1.52957
21
-1.98396
0
LINE
8
BLACK
6
CONTINUOUS
10
1.52957
20
-1.98396
11
1.52994
21
-1.98351
0
LINE
8
BLACK
6
CONTINUOUS
10
1.52994
20
-1.98351
11
1.5304
21
-1.98313
0
LINE
8
BLACK
6
CONTINUOUS
10
1.5304
20
-1.98313
11
1.53092
21
-1.98285
0
LINE
8
BLACK
6
CONTINUOUS
10
1.53092
20
-1.98285
11
1.53149
21
-1.98268
0
LINE
8
BLACK
6
CONTINUOUS
10
1.53149
20
-1.98268
11
1.53193
21
-1.98264
0
LINE
8
BLACK
6
CONTINUOUS
10
1.53193
20
-1.98264
11
1.53207
21
-1.98262
0
LINE
8
BLACK
6
CONTINUOUS
10
1.53207
20
-1.98262
11
1.53222
21
-1.98264
0
LINE
8
BLACK
6
CONTINUOUS
10
1.53222
20
-1.98264
11
2.03193
21
-1.98264
0
LINE
8
BLACK
6
CONTINUOUS
10
2.03193
20
-1.98264
11
2.03207
21
-1.98262
0
LINE
8
BLACK
6
CONTINUOUS
10
2.03207
20
-1.98262
11
2.03222
21
-1.98264
0
LINE
8
BLACK
6
CONTINUOUS
10
1.53507
20
-1.98864
11
1.53507
21
-2.48264
0
LINE
8
BLACK
6
CONTINUOUS
10
1.53507
20
-2.48264
11
2.02907
21
-2.48264
0
LINE
8
BLACK
6
CONTINUOUS
10
2.02907
20
-2.48264
11
2.02907
21
-1.98864
0
LINE
8
BLACK
6
CONTINUOUS
10
2.02907
20
-1.98864
11
1.53507
21
-1.98864
0
LINE
8
BLACK
6
CONTINUOUS
10
1.66547
20
-2.20027
11
1.67461
21
-2.1782
0
LINE
8
BLACK
6
CONTINUOUS
10
1.67461
20
-2.1782
11
1.68788
21
-2.15834
0
LINE
8
BLACK
6
CONTINUOUS
10
1.68788
20
-2.15834
11
1.70477
21
-2.14145
0
LINE
8
BLACK
6
CONTINUOUS
10
1.70477
20
-2.14145
11
1.72463
21
-2.12818
0
LINE
8
BLACK
6
CONTINUOUS
10
1.72463
20
-2.12818
11
1.7467
21
-2.11903
0
LINE
8
BLACK
6
CONTINUOUS
10
1.7467
20
-2.11903
11
1.77013
21
-2.11437
0
LINE
8
BLACK
6
CONTINUOUS
10
1.77013
20
-2.11437
11
1.79402
21
-2.11437
0
LINE
8
BLACK
6
CONTINUOUS
10
1.79402
20
-2.11437
11
1.81745
21
-2.11903
0
LINE
8
BLACK
6
CONTINUOUS
10
1.81745
20
-2.11903
11
1.83951
21
-2.12818
0
LINE
8
BLACK
6
CONTINUOUS
10
1.83951
20
-2.12818
11
1.85938
21
-2.14145
0
LINE
8
BLACK
6
CONTINUOUS
10
1.85938
20
-2.14145
11
1.87627
21
-2.15834
0
LINE
8
BLACK
6
CONTINUOUS
10
1.87627
20
-2.15834
11
1.88954
21
-2.1782
0
LINE
8
BLACK
6
CONTINUOUS
10
1.88954
20
-2.1782
11
1.89868
21
-2.20027
0
LINE
8
BLACK
6
CONTINUOUS
10
1.89868
20
-2.20027
11
1.90334
21
-2.22369
0
LINE
8
BLACK
6
CONTINUOUS
10
1.90334
20
-2.22369
11
1.90334
21
-2.24758
0
LINE
8
BLACK
6
CONTINUOUS
10
1.90334
20
-2.24758
11
1.89868
21
-2.27101
0
LINE
8
BLACK
6
CONTINUOUS
10
1.89868
20
-2.27101
11
1.88954
21
-2.29308
0
LINE
8
BLACK
6
CONTINUOUS
10
1.88954
20
-2.29308
11
1.87627
21
-2.31294
0
LINE
8
BLACK
6
CONTINUOUS
10
1.87627
20
-2.31294
11
1.85938
21
-2.32983
0
LINE
8
BLACK
6
CONTINUOUS
10
1.85938
20
-2.32983
11
1.83951
21
-2.3431
0
LINE
8
BLACK
6
CONTINUOUS
10
1.83951
20
-2.3431
11
1.81745
21
-2.35224
0
LINE
8
BLACK
6
CONTINUOUS
10
1.81745
20
-2.35224
11
1.79402
21
-2.3569
0
LINE
8
BLACK
6
CONTINUOUS
10
1.79402
20
-2.3569
11
1.77013
21
-2.3569
0
LINE
8
BLACK
6
CONTINUOUS
10
1.77013
20
-2.3569
11
1.7467
21
-2.35224
0
LINE
8
BLACK
6
CONTINUOUS
10
1.7467
20
-2.35224
11
1.72463
21
-2.3431
0
LINE
8
BLACK
6
CONTINUOUS
10
1.72463
20
-2.3431
11
1.70477
21
-2.32983
0
LINE
8
BLACK
6
CONTINUOUS
10
1.70477
20
-2.32983
11
1.68788
21
-2.31294
0
LINE
8
BLACK
6
CONTINUOUS
10
1.68788
20
-2.31294
11
1.67461
21
-2.29308
0
LINE
8
BLACK
6
CONTINUOUS
10
1.67461
20
-2.29308
11
1.66547
21
-2.27101
0
LINE
8
BLACK
6
CONTINUOUS
10
1.66547
20
-2.27101
11
1.66081
21
-2.24758
0
LINE
8
BLACK
6
CONTINUOUS
10
1.66081
20
-2.24758
11
1.66081
21
-2.22369
0
LINE
8
BLACK
6
CONTINUOUS
10
1.66081
20
-2.22369
11
1.66547
21
-2.20027
0
LINE
8
BLACK
6
CONTINUOUS
10
1.67188
20
-2.26907
11
1.68051
21
-2.28992
0
LINE
8
BLACK
6
CONTINUOUS
10
1.68051
20
-2.28992
11
1.69306
21
-2.30869
0
LINE
8
BLACK
6
CONTINUOUS
10
1.69306
20
-2.30869
11
1.70902
21
-2.32466
0
LINE
8
BLACK
6
CONTINUOUS
10
1.70902
20
-2.32466
11
1.72779
21
-2.3372
0
LINE
8
BLACK
6
CONTINUOUS
10
1.72779
20
-2.3372
11
1.74865
21
-2.34584
0
LINE
8
BLACK
6
CONTINUOUS
10
1.74865
20
-2.34584
11
1.77079
21
-2.35024
0
LINE
8
BLACK
6
CONTINUOUS
10
1.77079
20
-2.35024
11
1.79336
21
-2.35024
0
LINE
8
BLACK
6
CONTINUOUS
10
1.79336
20
-2.35024
11
1.8155
21
-2.34584
0
LINE
8
BLACK
6
CONTINUOUS
10
1.8155
20
-2.34584
11
1.83636
21
-2.3372
0
LINE
8
BLACK
6
CONTINUOUS
10
1.83636
20
-2.3372
11
1.85513
21
-2.32466
0
LINE
8
BLACK
6
CONTINUOUS
10
1.85513
20
-2.32466
11
1.87109
21
-2.30869
0
LINE
8
BLACK
6
CONTINUOUS
10
1.87109
20
-2.30869
11
1.88363
21
-2.28992
0
LINE
8
BLACK
6
CONTINUOUS
10
1.88363
20
-2.28992
11
1.89227
21
-2.26907
0
LINE
8
BLACK
6
CONTINUOUS
10
1.89227
20
-2.26907
11
1.89668
21
-2.24693
0
LINE
8
BLACK
6
CONTINUOUS
10
1.89668
20
-2.24693
11
1.89668
21
-2.22435
0
LINE
8
BLACK
6
CONTINUOUS
10
1.89668
20
-2.22435
11
1.89227
21
-2.20221
0
LINE
8
BLACK
6
CONTINUOUS
10
1.89227
20
-2.20221
11
1.88363
21
-2.18135
0
LINE
8
BLACK
6
CONTINUOUS
10
1.88363
20
-2.18135
11
1.87109
21
-2.16258
0
LINE
8
BLACK
6
CONTINUOUS
10
1.87109
20
-2.16258
11
1.85513
21
-2.14662
0
LINE
8
BLACK
6
CONTINUOUS
10
1.85513
20
-2.14662
11
1.83636
21
-2.13408
0
LINE
8
BLACK
6
CONTINUOUS
10
1.83636
20
-2.13408
11
1.8155
21
-2.12544
0
LINE
8
BLACK
6
CONTINUOUS
10
1.8155
20
-2.12544
11
1.79336
21
-2.12103
0
LINE
8
BLACK
6
CONTINUOUS
10
1.79336
20
-2.12103
11
1.77079
21
-2.12103
0
LINE
8
BLACK
6
CONTINUOUS
10
1.77079
20
-2.12103
11
1.74865
21
-2.12544
0
LINE
8
BLACK
6
CONTINUOUS
10
1.74865
20
-2.12544
11
1.72779
21
-2.13408
0
LINE
8
BLACK
6
CONTINUOUS
10
1.72779
20
-2.13408
11
1.70902
21
-2.14662
0
LINE
8
BLACK
6
CONTINUOUS
10
1.70902
20
-2.14662
11
1.69306
21
-2.16258
0
LINE
8
BLACK
6
CONTINUOUS
10
1.69306
20
-2.16258
11
1.68051
21
-2.18135
0
LINE
8
BLACK
6
CONTINUOUS
10
1.68051
20
-2.18135
11
1.67188
21
-2.20221
0
LINE
8
BLACK
6
CONTINUOUS
10
1.67188
20
-2.20221
11
1.66747
21
-2.22435
0
LINE
8
BLACK
6
CONTINUOUS
10
1.66747
20
-2.22435
11
1.66747
21
-2.24693
0
LINE
8
BLACK
6
CONTINUOUS
10
1.66747
20
-2.24693
11
1.67188
21
-2.26907
0
LINE
8
BLACK
6
CONTINUOUS
10
12.3214
20
-1.187
11
12.3218
21
-1.18704
0
LINE
8
BLACK
6
CONTINUOUS
10
12.3218
20
-1.18704
11
12.3224
21
-1.18721
0
LINE
8
BLACK
6
CONTINUOUS
10
12.3224
20
-1.18721
11
12.3229
21
-1.18749
0
LINE
8
BLACK
6
CONTINUOUS
10
12.3229
20
-1.18749
11
12.3234
21
-1.18787
0
LINE
8
BLACK
6
CONTINUOUS
10
12.3234
20
-1.18787
11
12.3238
21
-1.18833
0
LINE
8
BLACK
6
CONTINUOUS
10
12.3238
20
-1.18833
11
12.324
21
-1.18885
0
LINE
8
BLACK
6
CONTINUOUS
10
12.324
20
-1.18885
11
12.3242
21
-1.18941
0
LINE
8
BLACK
6
CONTINUOUS
10
12.3242
20
-1.18941
11
12.3243
21
-1.19
0
LINE
8
BLACK
6
CONTINUOUS
10
12.3243
20
-1.19
11
12.3243
21
-1.19015
0
LINE
8
BLACK
6
CONTINUOUS
10
12.3243
20
-1.19015
11
12.3243
21
-1.88985
0
LINE
8
BLACK
6
CONTINUOUS
10
12.3243
20
-1.88985
11
12.3243
21
-1.89
0
LINE
8
BLACK
6
CONTINUOUS
10
12.3243
20
-1.89
11
12.3242
21
-1.89059
0
LINE
8
BLACK
6
CONTINUOUS
10
12.3242
20
-1.89059
11
12.324
21
-1.89115
0
LINE
8
BLACK
6
CONTINUOUS
10
12.324
20
-1.89115
11
12.3238
21
-1.89167
0
LINE
8
BLACK
6
CONTINUOUS
10
12.3238
20
-1.89167
11
12.3234
21
-1.89213
0
LINE
8
BLACK
6
CONTINUOUS
10
12.3234
20
-1.89213
11
12.3229
21
-1.89251
0
LINE
8
BLACK
6
CONTINUOUS
10
12.3229
20
-1.89251
11
12.3224
21
-1.89279
0
LINE
8
BLACK
6
CONTINUOUS
10
12.3224
20
-1.89279
11
12.3218
21
-1.89296
0
LINE
8
BLACK
6
CONTINUOUS
10
12.3218
20
-1.89296
11
12.3214
21
-1.893
0
LINE
8
BLACK
6
CONTINUOUS
10
12.3214
20
-1.893
11
12.3213
21
-1.89301
0
LINE
8
BLACK
6
CONTINUOUS
10
12.3213
20
-1.89301
11
12.3211
21
-1.893
0
LINE
8
BLACK
6
CONTINUOUS
10
12.3211
20
-1.893
11
11.1114
21
-1.893
0
LINE
8
BLACK
6
CONTINUOUS
10
11.1114
20
-1.893
11
11.1113
21
-1.89301
0
LINE
8
BLACK
6
CONTINUOUS
10
11.1113
20
-1.89301
11
11.1111
21
-1.893
0
LINE
8
BLACK
6
CONTINUOUS
10
11.1111
20
-1.893
11
11.1107
21
-1.89296
0
LINE
8
BLACK
6
CONTINUOUS
10
11.1107
20
-1.89296
11
11.1101
21
-1.89279
0
LINE
8
BLACK
6
CONTINUOUS
10
11.1101
20
-1.89279
11
11.1096
21
-1.89251
0
LINE
8
BLACK
6
CONTINUOUS
10
11.1096
20
-1.89251
11
11.1091
21
-1.89213
0
LINE
8
BLACK
6
CONTINUOUS
10
11.1091
20
-1.89213
11
11.1088
21
-1.89167
0
LINE
8
BLACK
6
CONTINUOUS
10
11.1088
20
-1.89167
11
11.1085
21
-1.89115
0
LINE
8
BLACK
6
CONTINUOUS
10
11.1085
20
-1.89115
11
11.1083
21
-1.89059
0
LINE
8
BLACK
6
CONTINUOUS
10
11.1083
20
-1.89059
11
11.1082
21
-1.89
0
LINE
8
BLACK
6
CONTINUOUS
10
11.1082
20
-1.89
11
11.1083
21
-1.88985
0
LINE
8
BLACK
6
CONTINUOUS
10
11.1083
20
-1.88985
11
11.1083
21
-1.19015
0
LINE
8
BLACK
6
CONTINUOUS
10
11.1083
20
-1.19015
11
11.1082
21
-1.19
0
LINE
8
BLACK
6
CONTINUOUS
10
11.1082
20
-1.19
11
11.1083
21
-1.18941
0
LINE
8
BLACK
6
CONTINUOUS
10
11.1083
20
-1.18941
11
11.1085
21
-1.18885
0
LINE
8
BLACK
6
CONTINUOUS
10
11.1085
20
-1.18885
11
11.1088
21
-1.18833
0
LINE
8
BLACK
6
CONTINUOUS
10
11.1088
20
-1.18833
11
11.1091
21
-1.18787
0
LINE
8
BLACK
6
CONTINUOUS
10
11.1091
20
-1.18787
11
11.1096
21
-1.18749
0
LINE
8
BLACK
6
CONTINUOUS
10
11.1096
20
-1.18749
11
11.1101
21
-1.18721
0
LINE
8
BLACK
6
CONTINUOUS
10
11.1101
20
-1.18721
11
11.1107
21
-1.18704
0
LINE
8
BLACK
6
CONTINUOUS
10
11.1107
20
-1.18704
11
11.1111
21
-1.187
0
LINE
8
BLACK
6
CONTINUOUS
10
11.1111
20
-1.187
11
11.1113
21
-1.18699
0
LINE
8
BLACK
6
CONTINUOUS
10
11.1113
20
-1.18699
11
11.1114
21
-1.187
0
LINE
8
BLACK
6
CONTINUOUS
10
11.1114
20
-1.187
11
11.3811
21
-1.187
0
LINE
8
BLACK
6
CONTINUOUS
10
11.3811
20
-1.187
11
11.3813
21
-1.18699
0
LINE
8
BLACK
6
CONTINUOUS
10
11.3813
20
-1.18699
11
11.3814
21
-1.187
0
LINE
8
BLACK
6
CONTINUOUS
10
11.3814
20
-1.187
11
11.3818
21
-1.18704
0
LINE
8
BLACK
6
CONTINUOUS
10
11.3818
20
-1.18704
11
11.3824
21
-1.18721
0
LINE
8
BLACK
6
CONTINUOUS
10
11.3824
20
-1.18721
11
11.3829
21
-1.18749
0
LINE
8
BLACK
6
CONTINUOUS
10
11.3829
20
-1.18749
11
11.3834
21
-1.18787
0
LINE
8
BLACK
6
CONTINUOUS
10
11.3834
20
-1.18787
11
11.3838
21
-1.18833
0
LINE
8
BLACK
6
CONTINUOUS
10
11.3838
20
-1.18833
11
11.384
21
-1.18885
0
LINE
8
BLACK
6
CONTINUOUS
10
11.384
20
-1.18885
11
11.3842
21
-1.18941
0
LINE
8
BLACK
6
CONTINUOUS
10
11.3842
20
-1.18941
11
11.3843
21
-1.19
0
LINE
8
BLACK
6
CONTINUOUS
10
11.3843
20
-1.19
11
11.3843
21
-1.19015
0
LINE
8
BLACK
6
CONTINUOUS
10
11.3843
20
-1.19015
11
11.3843
21
-1.787
0
LINE
8
BLACK
6
CONTINUOUS
10
11.3843
20
-1.787
11
12.0483
21
-1.787
0
LINE
8
BLACK
6
CONTINUOUS
10
12.0483
20
-1.787
11
12.0483
21
-1.19015
0
LINE
8
BLACK
6
CONTINUOUS
10
12.0483
20
-1.19015
11
12.0482
21
-1.19
0
LINE
8
BLACK
6
CONTINUOUS
10
12.0482
20
-1.19
11
12.0483
21
-1.18941
0
LINE
8
BLACK
6
CONTINUOUS
10
12.0483
20
-1.18941
11
12.0485
21
-1.18885
0
LINE
8
BLACK
6
CONTINUOUS
10
12.0485
20
-1.18885
11
12.0488
21
-1.18833
0
LINE
8
BLACK
6
CONTINUOUS
10
12.0488
20
-1.18833
11
12.0491
21
-1.18787
0
LINE
8
BLACK
6
CONTINUOUS
10
12.0491
20
-1.18787
11
12.0496
21
-1.18749
0
LINE
8
BLACK
6
CONTINUOUS
10
12.0496
20
-1.18749
11
12.0501
21
-1.18721
0
LINE
8
BLACK
6
CONTINUOUS
10
12.0501
20
-1.18721
11
12.0507
21
-1.18704
0
LINE
8
BLACK
6
CONTINUOUS
10
12.0507
20
-1.18704
11
12.0511
21
-1.187
0
LINE
8
BLACK
6
CONTINUOUS
10
12.0511
20
-1.187
11
12.0513
21
-1.18699
0
LINE
8
BLACK
6
CONTINUOUS
10
12.0513
20
-1.18699
11
12.0514
21
-1.187
0
LINE
8
BLACK
6
CONTINUOUS
10
12.0514
20
-1.187
11
12.3211
21
-1.187
0
LINE
8
BLACK
6
CONTINUOUS
10
12.3211
20
-1.187
11
12.3213
21
-1.18699
0
LINE
8
BLACK
6
CONTINUOUS
10
12.3213
20
-1.18699
11
12.3214
21
-1.187
0
LINE
8
BLACK
6
CONTINUOUS
10
12.0543
20
-1.193
11
12.0543
21
-1.78985
0
LINE
8
BLACK
6
CONTINUOUS
10
12.0543
20
-1.78985
11
12.0543
21
-1.79
0
LINE
8
BLACK
6
CONTINUOUS
10
12.0543
20
-1.79
11
12.0542
21
-1.79059
0
LINE
8
BLACK
6
CONTINUOUS
10
12.0542
20
-1.79059
11
12.054
21
-1.79115
0
LINE
8
BLACK
6
CONTINUOUS
10
12.054
20
-1.79115
11
12.0538
21
-1.79167
0
LINE
8
BLACK
6
CONTINUOUS
10
12.0538
20
-1.79167
11
12.0534
21
-1.79213
0
LINE
8
BLACK
6
CONTINUOUS
10
12.0534
20
-1.79213
11
12.0529
21
-1.79251
0
LINE
8
BLACK
6
CONTINUOUS
10
12.0529
20
-1.79251
11
12.0524
21
-1.79279
0
LINE
8
BLACK
6
CONTINUOUS
10
12.0524
20
-1.79279
11
12.0518
21
-1.79296
0
LINE
8
BLACK
6
CONTINUOUS
10
12.0518
20
-1.79296
11
12.0514
21
-1.793
0
LINE
8
BLACK
6
CONTINUOUS
10
12.0514
20
-1.793
11
12.0513
21
-1.79301
0
LINE
8
BLACK
6
CONTINUOUS
10
12.0513
20
-1.79301
11
12.0511
21
-1.793
0
LINE
8
BLACK
6
CONTINUOUS
10
12.0511
20
-1.793
11
11.3814
21
-1.793
0
LINE
8
BLACK
6
CONTINUOUS
10
11.3814
20
-1.793
11
11.3813
21
-1.79301
0
LINE
8
BLACK
6
CONTINUOUS
10
11.3813
20
-1.79301
11
11.3807
21
-1.79296
0
LINE
8
BLACK
6
CONTINUOUS
10
11.3807
20
-1.79296
11
11.3801
21
-1.79279
0
LINE
8
BLACK
6
CONTINUOUS
10
11.3801
20
-1.79279
11
11.3796
21
-1.79251
0
LINE
8
BLACK
6
CONTINUOUS
10
11.3796
20
-1.79251
11
11.3791
21
-1.79213
0
LINE
8
BLACK
6
CONTINUOUS
10
11.3791
20
-1.79213
11
11.3788
21
-1.79167
0
LINE
8
BLACK
6
CONTINUOUS
10
11.3788
20
-1.79167
11
11.3785
21
-1.79115
0
LINE
8
BLACK
6
CONTINUOUS
10
11.3785
20
-1.79115
11
11.3783
21
-1.79059
0
LINE
8
BLACK
6
CONTINUOUS
10
11.3783
20
-1.79059
11
11.3782
21
-1.79
0
LINE
8
BLACK
6
CONTINUOUS
10
11.3782
20
-1.79
11
11.3783
21
-1.78985
0
LINE
8
BLACK
6
CONTINUOUS
10
11.3783
20
-1.78985
11
11.3783
21
-1.193
0
LINE
8
BLACK
6
CONTINUOUS
10
11.3783
20
-1.193
11
11.1143
21
-1.193
0
LINE
8
BLACK
6
CONTINUOUS
10
11.1143
20
-1.193
11
11.1143
21
-1.887
0
LINE
8
BLACK
6
CONTINUOUS
10
11.1143
20
-1.887
11
12.3183
21
-1.887
0
LINE
8
BLACK
6
CONTINUOUS
10
12.3183
20
-1.887
11
12.3183
21
-1.193
0
LINE
8
BLACK
6
CONTINUOUS
10
12.3183
20
-1.193
11
12.0543
21
-1.193
0
LINE
8
BLACK
6
CONTINUOUS
10
11.9664
20
-1.237
11
11.9668
21
-1.23704
0
LINE
8
BLACK
6
CONTINUOUS
10
11.9668
20
-1.23704
11
11.9674
21
-1.23721
0
LINE
8
BLACK
6
CONTINUOUS
10
11.9674
20
-1.23721
11
11.9679
21
-1.23749
0
LINE
8
BLACK
6
CONTINUOUS
10
11.9679
20
-1.23749
11
11.9684
21
-1.23787
0
LINE
8
BLACK
6
CONTINUOUS
10
11.9684
20
-1.23787
11
11.9688
21
-1.23833
0
LINE
8
BLACK
6
CONTINUOUS
10
11.9688
20
-1.23833
11
11.969
21
-1.23885
0
LINE
8
BLACK
6
CONTINUOUS
10
11.969
20
-1.23885
11
11.9692
21
-1.23941
0
LINE
8
BLACK
6
CONTINUOUS
10
11.9692
20
-1.23941
11
11.9693
21
-1.24
0
LINE
8
BLACK
6
CONTINUOUS
10
11.9693
20
-1.24
11
11.9693
21
-1.24015
0
LINE
8
BLACK
6
CONTINUOUS
10
11.9693
20
-1.24015
11
11.9693
21
-1.73985
0
LINE
8
BLACK
6
CONTINUOUS
10
11.9693
20
-1.73985
11
11.9693
21
-1.74
0
LINE
8
BLACK
6
CONTINUOUS
10
11.9693
20
-1.74
11
11.9692
21
-1.74059
0
LINE
8
BLACK
6
CONTINUOUS
10
11.9692
20
-1.74059
11
11.969
21
-1.74115
0
LINE
8
BLACK
6
CONTINUOUS
10
11.969
20
-1.74115
11
11.9688
21
-1.74167
0
LINE
8
BLACK
6
CONTINUOUS
10
11.9688
20
-1.74167
11
11.9684
21
-1.74213
0
LINE
8
BLACK
6
CONTINUOUS
10
11.9684
20
-1.74213
11
11.9679
21
-1.74251
0
LINE
8
BLACK
6
CONTINUOUS
10
11.9679
20
-1.74251
11
11.9674
21
-1.74279
0
LINE
8
BLACK
6
CONTINUOUS
10
11.9674
20
-1.74279
11
11.9668
21
-1.74296
0
LINE
8
BLACK
6
CONTINUOUS
10
11.9668
20
-1.74296
11
11.9664
21
-1.743
0
LINE
8
BLACK
6
CONTINUOUS
10
11.9664
20
-1.743
11
11.9663
21
-1.74301
0
LINE
8
BLACK
6
CONTINUOUS
10
11.9663
20
-1.74301
11
11.9661
21
-1.743
0
LINE
8
BLACK
6
CONTINUOUS
10
11.9661
20
-1.743
11
11.4664
21
-1.743
0
LINE
8
BLACK
6
CONTINUOUS
10
11.4664
20
-1.743
11
11.4663
21
-1.74301
0
LINE
8
BLACK
6
CONTINUOUS
10
11.4663
20
-1.74301
11
11.4657
21
-1.74296
0
LINE
8
BLACK
6
CONTINUOUS
10
11.4657
20
-1.74296
11
11.4651
21
-1.74279
0
LINE
8
BLACK
6
CONTINUOUS
10
11.4651
20
-1.74279
11
11.4646
21
-1.74251
0
LINE
8
BLACK
6
CONTINUOUS
10
11.4646
20
-1.74251
11
11.4641
21
-1.74213
0
LINE
8
BLACK
6
CONTINUOUS
10
11.4641
20
-1.74213
11
11.4638
21
-1.74167
0
LINE
8
BLACK
6
CONTINUOUS
10
11.4638
20
-1.74167
11
11.4635
21
-1.74115
0
LINE
8
BLACK
6
CONTINUOUS
10
11.4635
20
-1.74115
11
11.4633
21
-1.74059
0
LINE
8
BLACK
6
CONTINUOUS
10
11.4633
20
-1.74059
11
11.4632
21
-1.74
0
LINE
8
BLACK
6
CONTINUOUS
10
11.4632
20
-1.74
11
11.4633
21
-1.73985
0
LINE
8
BLACK
6
CONTINUOUS
10
11.4633
20
-1.73985
11
11.4633
21
-1.24015
0
LINE
8
BLACK
6
CONTINUOUS
10
11.4633
20
-1.24015
11
11.4632
21
-1.24
0
LINE
8
BLACK
6
CONTINUOUS
10
11.4632
20
-1.24
11
11.4633
21
-1.23941
0
LINE
8
BLACK
6
CONTINUOUS
10
11.4633
20
-1.23941
11
11.4635
21
-1.23885
0
LINE
8
BLACK
6
CONTINUOUS
10
11.4635
20
-1.23885
11
11.4638
21
-1.23833
0
LINE
8
BLACK
6
CONTINUOUS
10
11.4638
20
-1.23833
11
11.4641
21
-1.23787
0
LINE
8
BLACK
6
CONTINUOUS
10
11.4641
20
-1.23787
11
11.4646
21
-1.23749
0
LINE
8
BLACK
6
CONTINUOUS
10
11.4646
20
-1.23749
11
11.4651
21
-1.23721
0
LINE
8
BLACK
6
CONTINUOUS
10
11.4651
20
-1.23721
11
11.4657
21
-1.23704
0
LINE
8
BLACK
6
CONTINUOUS
10
11.4657
20
-1.23704
11
11.4661
21
-1.237
0
LINE
8
BLACK
6
CONTINUOUS
10
11.4661
20
-1.237
11
11.4663
21
-1.23699
0
LINE
8
BLACK
6
CONTINUOUS
10
11.4663
20
-1.23699
11
11.4664
21
-1.237
0
LINE
8
BLACK
6
CONTINUOUS
10
11.4664
20
-1.237
11
11.9661
21
-1.237
0
LINE
8
BLACK
6
CONTINUOUS
10
11.9661
20
-1.237
11
11.9663
21
-1.23699
0
LINE
8
BLACK
6
CONTINUOUS
10
11.9663
20
-1.23699
11
11.9664
21
-1.237
0
LINE
8
BLACK
6
CONTINUOUS
10
11.4693
20
-1.243
11
11.4693
21
-1.737
0
LINE
8
BLACK
6
CONTINUOUS
10
11.4693
20
-1.737
11
11.9633
21
-1.737
0
LINE
8
BLACK
6
CONTINUOUS
10
11.9633
20
-1.737
11
11.9633
21
-1.243
0
LINE
8
BLACK
6
CONTINUOUS
10
11.9633
20
-1.243
11
11.4693
21
-1.243
0
LINE
8
BLACK
6
CONTINUOUS
10
11.5997
20
-1.45463
11
11.6088
21
-1.43256
0
LINE
8
BLACK
6
CONTINUOUS
10
11.6088
20
-1.43256
11
11.6221
21
-1.4127
0
LINE
8
BLACK
6
CONTINUOUS
10
11.6221
20
-1.4127
11
11.639
21
-1.39581
0
LINE
8
BLACK
6
CONTINUOUS
10
11.639
20
-1.39581
11
11.6588
21
-1.38254
0
LINE
8
BLACK
6
CONTINUOUS
10
11.6588
20
-1.38254
11
11.6809
21
-1.3734
0
LINE
8
BLACK
6
CONTINUOUS
10
11.6809
20
-1.3734
11
11.7043
21
-1.36874
0
LINE
8
BLACK
6
CONTINUOUS
10
11.7043
20
-1.36874
11
11.7282
21
-1.36874
0
LINE
8
BLACK
6
CONTINUOUS
10
11.7282
20
-1.36874
11
11.7516
21
-1.3734
0
LINE
8
BLACK
6
CONTINUOUS
10
11.7516
20
-1.3734
11
11.7737
21
-1.38254
0
LINE
8
BLACK
6
CONTINUOUS
10
11.7737
20
-1.38254
11
11.7936
21
-1.39581
0
LINE
8
BLACK
6
CONTINUOUS
10
11.7936
20
-1.39581
11
11.8105
21
-1.4127
0
LINE
8
BLACK
6
CONTINUOUS
10
11.8105
20
-1.4127
11
11.8237
21
-1.43256
0
LINE
8
BLACK
6
CONTINUOUS
10
11.8237
20
-1.43256
11
11.8329
21
-1.45463
0
LINE
8
BLACK
6
CONTINUOUS
10
11.8329
20
-1.45463
11
11.8375
21
-1.47806
0
LINE
8
BLACK
6
CONTINUOUS
10
11.8375
20
-1.47806
11
11.8375
21
-1.50194
0
LINE
8
BLACK
6
CONTINUOUS
10
11.8375
20
-1.50194
11
11.8329
21
-1.52537
0
LINE
8
BLACK
6
CONTINUOUS
10
11.8329
20
-1.52537
11
11.8237
21
-1.54744
0
LINE
8
BLACK
6
CONTINUOUS
10
11.8237
20
-1.54744
11
11.8105
21
-1.5673
0
LINE
8
BLACK
6
CONTINUOUS
10
11.8105
20
-1.5673
11
11.7936
21
-1.58419
0
LINE
8
BLACK
6
CONTINUOUS
10
11.7936
20
-1.58419
11
11.7737
21
-1.59746
0
LINE
8
BLACK
6
CONTINUOUS
10
11.7737
20
-1.59746
11
11.7516
21
-1.6066
0
LINE
8
BLACK
6
CONTINUOUS
10
11.7516
20
-1.6066
11
11.7282
21
-1.61126
0
LINE
8
BLACK
6
CONTINUOUS
10
11.7282
20
-1.61126
11
11.7043
21
-1.61126
0
LINE
8
BLACK
6
CONTINUOUS
10
11.7043
20
-1.61126
11
11.6809
21
-1.6066
0
LINE
8
BLACK
6
CONTINUOUS
10
11.6809
20
-1.6066
11
11.6588
21
-1.59746
0
LINE
8
BLACK
6
CONTINUOUS
10
11.6588
20
-1.59746
11
11.639
21
-1.58419
0
LINE
8
BLACK
6
CONTINUOUS
10
11.639
20
-1.58419
11
11.6221
21
-1.5673
0
LINE
8
BLACK
6
CONTINUOUS
10
11.6221
20
-1.5673
11
11.6088
21
-1.54744
0
LINE
8
BLACK
6
CONTINUOUS
10
11.6088
20
-1.54744
11
11.5997
21
-1.52537
0
LINE
8
BLACK
6
CONTINUOUS
10
11.5997
20
-1.52537
11
11.595
21
-1.50194
0
LINE
8
BLACK
6
CONTINUOUS
10
11.595
20
-1.50194
11
11.595
21
-1.47806
0
LINE
8
BLACK
6
CONTINUOUS
10
11.595
20
-1.47806
11
11.5997
21
-1.45463
0
LINE
8
BLACK
6
CONTINUOUS
10
11.6061
20
-1.52343
11
11.6147
21
-1.54428
0
LINE
8
BLACK
6
CONTINUOUS
10
11.6147
20
-1.54428
11
11.6272
21
-1.56306
0
LINE
8
BLACK
6
CONTINUOUS
10
11.6272
20
-1.56306
11
11.6432
21
-1.57902
0
LINE
8
BLACK
6
CONTINUOUS
10
11.6432
20
-1.57902
11
11.662
21
-1.59156
0
LINE
8
BLACK
6
CONTINUOUS
10
11.662
20
-1.59156
11
11.6828
21
-1.6002
0
LINE
8
BLACK
6
CONTINUOUS
10
11.6828
20
-1.6002
11
11.705
21
-1.6046
0
LINE
8
BLACK
6
CONTINUOUS
10
11.705
20
-1.6046
11
11.7275
21
-1.6046
0
LINE
8
BLACK
6
CONTINUOUS
10
11.7275
20
-1.6046
11
11.7497
21
-1.6002
0
LINE
8
BLACK
6
CONTINUOUS
10
11.7497
20
-1.6002
11
11.7705
21
-1.59156
0
LINE
8
BLACK
6
CONTINUOUS
10
11.7705
20
-1.59156
11
11.7893
21
-1.57902
0
LINE
8
BLACK
6
CONTINUOUS
10
11.7893
20
-1.57902
11
11.8053
21
-1.56306
0
LINE
8
BLACK
6
CONTINUOUS
10
11.8053
20
-1.56306
11
11.8178
21
-1.54428
0
LINE
8
BLACK
6
CONTINUOUS
10
11.8178
20
-1.54428
11
11.8265
21
-1.52343
0
LINE
8
BLACK
6
CONTINUOUS
10
11.8265
20
-1.52343
11
11.8309
21
-1.50129
0
LINE
8
BLACK
6
CONTINUOUS
10
11.8309
20
-1.50129
11
11.8309
21
-1.47871
0
LINE
8
BLACK
6
CONTINUOUS
10
11.8309
20
-1.47871
11
11.8265
21
-1.45657
0
LINE
8
BLACK
6
CONTINUOUS
10
11.8265
20
-1.45657
11
11.8178
21
-1.43572
0
LINE
8
BLACK
6
CONTINUOUS
10
11.8178
20
-1.43572
11
11.8053
21
-1.41694
0
LINE
8
BLACK
6
CONTINUOUS
10
11.8053
20
-1.41694
11
11.7893
21
-1.40098
0
LINE
8
BLACK
6
CONTINUOUS
10
11.7893
20
-1.40098
11
11.7705
21
-1.38844
0
LINE
8
BLACK
6
CONTINUOUS
10
11.7705
20
-1.38844
11
11.7497
21
-1.3798
0
LINE
8
BLACK
6
CONTINUOUS
10
11.7497
20
-1.3798
11
11.7275
21
-1.3754
0
LINE
8
BLACK
6
CONTINUOUS
10
11.7275
20
-1.3754
11
11.705
21
-1.3754
0
LINE
8
BLACK
6
CONTINUOUS
10
11.705
20
-1.3754
11
11.6828
21
-1.3798
0
LINE
8
BLACK
6
CONTINUOUS
10
11.6828
20
-1.3798
11
11.662
21
-1.38844
0
LINE
8
BLACK
6
CONTINUOUS
10
11.662
20
-1.38844
11
11.6432
21
-1.40098
0
LINE
8
BLACK
6
CONTINUOUS
10
11.6432
20
-1.40098
11
11.6272
21
-1.41694
0
LINE
8
BLACK
6
CONTINUOUS
10
11.6272
20
-1.41694
11
11.6147
21
-1.43572
0
LINE
8
BLACK
6
CONTINUOUS
10
11.6147
20
-1.43572
11
11.6061
21
-1.45657
0
LINE
8
BLACK
6
CONTINUOUS
10
11.6061
20
-1.45657
11
11.6017
21
-1.47871
0
LINE
8
BLACK
6
CONTINUOUS
10
11.6017
20
-1.47871
11
11.6017
21
-1.50129
0
LINE
8
BLACK
6
CONTINUOUS
10
11.6017
20
-1.50129
11
11.6061
21
-1.52343
  0
ENDSEC
  0
EOF
