%TF.GenerationSoftware,KiCad,Pcbnew,5.1.6+dfsg1-1*%
%TF.CreationDate,2021-06-10T17:02:18-07:00*%
%TF.ProjectId,chgray-keyboard,63686772-6179-42d6-9b65-79626f617264,Yeet2*%
%TF.SameCoordinates,Original*%
%TF.FileFunction,Copper,L2,Bot*%
%TF.FilePolarity,Positive*%
%FSLAX46Y46*%
G04 Gerber Fmt 4.6, Leading zero omitted, Abs format (unit mm)*
G04 Created by KiCad (PCBNEW 5.1.6+dfsg1-1) date 2021-06-10 17:02:18*
%MOMM*%
%LPD*%
G01*
G04 APERTURE LIST*
%TA.AperFunction,SMDPad,CuDef*%
%ADD10R,2.550000X2.500000*%
%TD*%
%TA.AperFunction,ComponentPad*%
%ADD11O,1.000000X1.000000*%
%TD*%
%TA.AperFunction,ComponentPad*%
%ADD12R,1.000000X1.000000*%
%TD*%
%TA.AperFunction,ViaPad*%
%ADD13C,0.800000*%
%TD*%
%TA.AperFunction,Conductor*%
%ADD14C,0.250000*%
%TD*%
G04 APERTURE END LIST*
D10*
%TO.P,RightMeta1,2*%
%TO.N,Net-(D70-Pad1)*%
X297758000Y-111496000D03*
%TO.P,RightMeta1,1*%
%TO.N,ROW3*%
X311608000Y-108956000D03*
%TD*%
%TO.P,RIGHT-SHIFT1,2*%
%TO.N,Net-(D36-Pad1)*%
X283026000Y-92319000D03*
%TO.P,RIGHT-SHIFT1,1*%
%TO.N,ROW5*%
X296876000Y-89779000D03*
%TD*%
%TO.P,ENTER1,2*%
%TO.N,Net-(D67-Pad1)*%
X287598000Y-73269000D03*
%TO.P,ENTER1,1*%
%TO.N,ROW0*%
X301448000Y-70729000D03*
%TD*%
%TO.P,SW4,2*%
%TO.N,Net-(D5-Pad1)*%
X32746300Y-35133900D03*
%TO.P,SW4,1*%
%TO.N,ROW0*%
X46596300Y-32593900D03*
%TD*%
%TO.P,WinKey1,2*%
%TO.N,Net-(D15-Pad1)*%
X83128000Y-111496000D03*
%TO.P,WinKey1,1*%
%TO.N,ROW4*%
X96978000Y-108956000D03*
%TD*%
%TO.P,LEFT_FN1,2*%
%TO.N,Net-(D11-Pad1)*%
X59252000Y-111496000D03*
%TO.P,LEFT_FN1,1*%
%TO.N,ROW4*%
X73102000Y-108956000D03*
%TD*%
%TO.P,LEFT_CTRL1,2*%
%TO.N,Net-(D3-Pad1)*%
X35376000Y-111496000D03*
%TO.P,LEFT_CTRL1,1*%
%TO.N,ROW4*%
X49226000Y-108956000D03*
%TD*%
%TO.P,LEFT_ALT1,2*%
%TO.N,Net-(D23-Pad1)*%
X107004000Y-111496000D03*
%TO.P,LEFT_ALT1,1*%
%TO.N,ROW4*%
X120854000Y-108956000D03*
%TD*%
%TO.P,Slash1,2*%
%TO.N,Net-(D68-Pad1)*%
X294837000Y-54235200D03*
%TO.P,Slash1,1*%
%TO.N,ROW1*%
X308687000Y-51695200D03*
%TD*%
%TO.P,LEFT-SHIFT1,2*%
%TO.N,Net-(D10-Pad1)*%
X44837500Y-92319000D03*
%TO.P,LEFT-SHIFT1,1*%
%TO.N,ROW3*%
X58687500Y-89779000D03*
%TD*%
%TO.P,Backspace1,2*%
%TO.N,Net-(Backspace1-Pad2)*%
X290011000Y-35140100D03*
%TO.P,Backspace1,1*%
%TO.N,ROW5*%
X303861000Y-32600100D03*
%TD*%
%TO.P,TAB1,2*%
%TO.N,Net-(D6-Pad1)*%
X37662000Y-54235200D03*
%TO.P,TAB1,1*%
%TO.N,ROW1*%
X51512000Y-51695200D03*
%TD*%
%TO.P,CAPS1,1*%
%TO.N,ROW2*%
X53894500Y-70729000D03*
%TO.P,CAPS1,2*%
%TO.N,Net-(CAPS1-Pad2)*%
X40044500Y-73269000D03*
%TD*%
%TO.P,SW57,2*%
%TO.N,Net-(D65-Pad1)*%
X237423000Y-73279000D03*
%TO.P,SW57,1*%
%TO.N,ROW4*%
X251273000Y-70739000D03*
%TD*%
%TO.P,SW1,2*%
%TO.N,Net-(D2-Pad1)*%
X389569000Y-53975000D03*
%TO.P,SW1,1*%
%TO.N,ROW3*%
X403419000Y-51435000D03*
%TD*%
%TO.P,SW3,2*%
%TO.N,Net-(D4-Pad1)*%
X228152000Y-92329000D03*
%TO.P,SW3,1*%
%TO.N,ROW5*%
X242002000Y-89789000D03*
%TD*%
%TO.P,SW5,2*%
%TO.N,Net-(D7-Pad1)*%
X51876000Y-35133900D03*
%TO.P,SW5,1*%
%TO.N,ROW0*%
X65726000Y-32593900D03*
%TD*%
%TO.P,SW6,2*%
%TO.N,Net-(D8-Pad1)*%
X61528000Y-54229000D03*
%TO.P,SW6,1*%
%TO.N,ROW1*%
X75378000Y-51689000D03*
%TD*%
%TO.P,SW7,2*%
%TO.N,Net-(D9-Pad1)*%
X66227000Y-73279000D03*
%TO.P,SW7,1*%
%TO.N,ROW2*%
X80077000Y-70739000D03*
%TD*%
%TO.P,SW9,2*%
%TO.N,Net-(D12-Pad1)*%
X332419000Y-92075000D03*
%TO.P,SW9,1*%
%TO.N,ROW5*%
X346269000Y-89535000D03*
%TD*%
%TO.P,SW10,2*%
%TO.N,Net-(D13-Pad1)*%
X85277000Y-73279000D03*
%TO.P,SW10,1*%
%TO.N,ROW2*%
X99127000Y-70739000D03*
%TD*%
%TO.P,SW11,2*%
%TO.N,Net-(D14-Pad1)*%
X75752000Y-92329000D03*
%TO.P,SW11,1*%
%TO.N,ROW3*%
X89602000Y-89789000D03*
%TD*%
%TO.P,SW12,2*%
%TO.N,Net-(D16-Pad1)*%
X389569000Y-73025000D03*
%TO.P,SW12,1*%
%TO.N,ROW5*%
X403419000Y-70485000D03*
%TD*%
%TO.P,SW13,2*%
%TO.N,Net-(D17-Pad1)*%
X70926000Y-35133900D03*
%TO.P,SW13,1*%
%TO.N,ROW0*%
X84776000Y-32593900D03*
%TD*%
%TO.P,SW14,2*%
%TO.N,Net-(D18-Pad1)*%
X80578000Y-54229000D03*
%TO.P,SW14,1*%
%TO.N,ROW1*%
X94428000Y-51689000D03*
%TD*%
%TO.P,SW15,2*%
%TO.N,Net-(D19-Pad1)*%
X89976000Y-35133900D03*
%TO.P,SW15,1*%
%TO.N,ROW0*%
X103826000Y-32593900D03*
%TD*%
%TO.P,SW16,2*%
%TO.N,Net-(D20-Pad1)*%
X99628000Y-54229000D03*
%TO.P,SW16,1*%
%TO.N,ROW1*%
X113478000Y-51689000D03*
%TD*%
%TO.P,SW17,2*%
%TO.N,Net-(D21-Pad1)*%
X104327000Y-73279000D03*
%TO.P,SW17,1*%
%TO.N,ROW2*%
X118177000Y-70739000D03*
%TD*%
%TO.P,SW18,2*%
%TO.N,Net-(D22-Pad1)*%
X94802000Y-92329000D03*
%TO.P,SW18,1*%
%TO.N,ROW3*%
X108652000Y-89789000D03*
%TD*%
%TO.P,SW20,2*%
%TO.N,Net-(D24-Pad1)*%
X232978000Y-54229000D03*
%TO.P,SW20,1*%
%TO.N,ROW5*%
X246828000Y-51689000D03*
%TD*%
%TO.P,SW21,2*%
%TO.N,Net-(D25-Pad1)*%
X123377000Y-73279000D03*
%TO.P,SW21,1*%
%TO.N,ROW2*%
X137227000Y-70739000D03*
%TD*%
%TO.P,SW22,2*%
%TO.N,Net-(D26-Pad1)*%
X113852000Y-92329000D03*
%TO.P,SW22,1*%
%TO.N,ROW3*%
X127702000Y-89789000D03*
%TD*%
%TO.P,SW23,2*%
%TO.N,Net-(D28-Pad1)*%
X252028000Y-54229000D03*
%TO.P,SW23,1*%
%TO.N,ROW5*%
X265878000Y-51689000D03*
%TD*%
%TO.P,SW24,2*%
%TO.N,Net-(D29-Pad1)*%
X109026000Y-35133900D03*
%TO.P,SW24,1*%
%TO.N,ROW0*%
X122876000Y-32593900D03*
%TD*%
%TO.P,SW25,2*%
%TO.N,Net-(D30-Pad1)*%
X118678000Y-54229000D03*
%TO.P,SW25,1*%
%TO.N,ROW1*%
X132528000Y-51689000D03*
%TD*%
%TO.P,SW26,2*%
%TO.N,Net-(D31-Pad1)*%
X128076000Y-35133900D03*
%TO.P,SW26,1*%
%TO.N,ROW0*%
X141926000Y-32593900D03*
%TD*%
%TO.P,SW27,2*%
%TO.N,Net-(D32-Pad1)*%
X137728000Y-54229000D03*
%TO.P,SW27,1*%
%TO.N,ROW1*%
X151578000Y-51689000D03*
%TD*%
%TO.P,SW28,2*%
%TO.N,Net-(D33-Pad1)*%
X142173000Y-73279000D03*
%TO.P,SW28,1*%
%TO.N,ROW2*%
X156023000Y-70739000D03*
%TD*%
%TO.P,SW29,2*%
%TO.N,Net-(D34-Pad1)*%
X132902000Y-92329000D03*
%TO.P,SW29,1*%
%TO.N,ROW3*%
X146752000Y-89789000D03*
%TD*%
%TO.P,SW30,2*%
%TO.N,Net-(D35-Pad1)*%
X171383000Y-111506000D03*
%TO.P,SW30,1*%
%TO.N,ROW4*%
X185233000Y-108966000D03*
%TD*%
%TO.P,SW31,2*%
%TO.N,Net-(D37-Pad1)*%
X161223000Y-73279000D03*
%TO.P,SW31,1*%
%TO.N,ROW2*%
X175073000Y-70739000D03*
%TD*%
%TO.P,SW32,2*%
%TO.N,Net-(D38-Pad1)*%
X151952000Y-92329000D03*
%TO.P,SW32,1*%
%TO.N,ROW3*%
X165802000Y-89789000D03*
%TD*%
%TO.P,SW33,2*%
%TO.N,Net-(D39-Pad1)*%
X190433000Y-111506000D03*
%TO.P,SW33,1*%
%TO.N,ROW4*%
X204283000Y-108966000D03*
%TD*%
%TO.P,SW34,2*%
%TO.N,Net-(D40-Pad1)*%
X247202000Y-92329000D03*
%TO.P,SW34,1*%
%TO.N,ROW5*%
X261052000Y-89789000D03*
%TD*%
%TO.P,SW35,2*%
%TO.N,Net-(D41-Pad1)*%
X147126000Y-35133900D03*
%TO.P,SW35,1*%
%TO.N,ROW0*%
X160976000Y-32593900D03*
%TD*%
%TO.P,SW36,2*%
%TO.N,Net-(D42-Pad1)*%
X156778000Y-54229000D03*
%TO.P,SW36,1*%
%TO.N,ROW1*%
X170628000Y-51689000D03*
%TD*%
%TO.P,SW37,2*%
%TO.N,Net-(D43-Pad1)*%
X166176000Y-35133900D03*
%TO.P,SW37,1*%
%TO.N,ROW0*%
X180026000Y-32593900D03*
%TD*%
%TO.P,SW38,2*%
%TO.N,Net-(D44-Pad1)*%
X175828000Y-54229000D03*
%TO.P,SW38,1*%
%TO.N,ROW1*%
X189678000Y-51689000D03*
%TD*%
%TO.P,SW39,2*%
%TO.N,Net-(D45-Pad1)*%
X180273000Y-73279000D03*
%TO.P,SW39,1*%
%TO.N,ROW2*%
X194123000Y-70739000D03*
%TD*%
%TO.P,SW40,2*%
%TO.N,Net-(D46-Pad1)*%
X171002000Y-92329000D03*
%TO.P,SW40,1*%
%TO.N,ROW3*%
X184852000Y-89789000D03*
%TD*%
%TO.P,SW41,2*%
%TO.N,Net-(D48-Pad1)*%
X242376000Y-35133900D03*
%TO.P,SW41,1*%
%TO.N,ROW5*%
X256226000Y-32593900D03*
%TD*%
%TO.P,SW42,2*%
%TO.N,Net-(D49-Pad1)*%
X199323000Y-73279000D03*
%TO.P,SW42,1*%
%TO.N,ROW2*%
X213173000Y-70739000D03*
%TD*%
%TO.P,SW43,2*%
%TO.N,Net-(D50-Pad1)*%
X190052000Y-92329000D03*
%TO.P,SW43,1*%
%TO.N,ROW3*%
X203902000Y-89789000D03*
%TD*%
%TO.P,SW45,2*%
%TO.N,Net-(D52-Pad1)*%
X261426000Y-35133900D03*
%TO.P,SW45,1*%
%TO.N,ROW5*%
X275276000Y-32593900D03*
%TD*%
%TO.P,SW46,2*%
%TO.N,Net-(D53-Pad1)*%
X185226000Y-35133900D03*
%TO.P,SW46,1*%
%TO.N,ROW0*%
X199076000Y-32593900D03*
%TD*%
%TO.P,SW47,2*%
%TO.N,Net-(D54-Pad1)*%
X194878000Y-54229000D03*
%TO.P,SW47,1*%
%TO.N,ROW1*%
X208728000Y-51689000D03*
%TD*%
%TO.P,SW48,2*%
%TO.N,Net-(D55-Pad1)*%
X204276000Y-35133900D03*
%TO.P,SW48,1*%
%TO.N,ROW0*%
X218126000Y-32593900D03*
%TD*%
%TO.P,SW49,2*%
%TO.N,Net-(D56-Pad1)*%
X213928000Y-54229000D03*
%TO.P,SW49,1*%
%TO.N,ROW1*%
X227778000Y-51689000D03*
%TD*%
%TO.P,SW50,2*%
%TO.N,Net-(D57-Pad1)*%
X218373000Y-73279000D03*
%TO.P,SW50,1*%
%TO.N,ROW2*%
X232223000Y-70739000D03*
%TD*%
%TO.P,SW51,2*%
%TO.N,Net-(D58-Pad1)*%
X209102000Y-92329000D03*
%TO.P,SW51,1*%
%TO.N,ROW3*%
X222952000Y-89789000D03*
%TD*%
%TO.P,SW53,2*%
%TO.N,Net-(D61-Pad1)*%
X223326000Y-35133900D03*
%TO.P,SW53,1*%
%TO.N,ROW0*%
X237176000Y-32593900D03*
%TD*%
%TO.P,SW54,2*%
%TO.N,Net-(D62-Pad1)*%
X351469000Y-73025000D03*
%TO.P,SW54,1*%
%TO.N,ROW1*%
X365319000Y-70485000D03*
%TD*%
%TO.P,SW55,2*%
%TO.N,Net-(D63-Pad1)*%
X271078000Y-54229000D03*
%TO.P,SW55,1*%
%TO.N,ROW2*%
X284928000Y-51689000D03*
%TD*%
%TO.P,SW56,2*%
%TO.N,Net-(D64-Pad1)*%
X370519000Y-73025000D03*
%TO.P,SW56,1*%
%TO.N,ROW3*%
X384369000Y-70485000D03*
%TD*%
%TO.P,SW58,2*%
%TO.N,Net-(D66-Pad1)*%
X256473000Y-73279000D03*
%TO.P,SW58,1*%
%TO.N,ROW5*%
X270323000Y-70739000D03*
%TD*%
%TO.P,SW62,2*%
%TO.N,Net-(D71-Pad1)*%
X351469000Y-53975000D03*
%TO.P,SW62,1*%
%TO.N,ROW4*%
X365319000Y-51435000D03*
%TD*%
%TO.P,SW63,2*%
%TO.N,Net-(D72-Pad1)*%
X332419000Y-53975000D03*
%TO.P,SW63,1*%
%TO.N,ROW5*%
X346269000Y-51435000D03*
%TD*%
%TO.P,SW60,2*%
%TO.N,Net-(D69-Pad1)*%
X332419000Y-73025000D03*
%TO.P,SW60,1*%
%TO.N,ROW2*%
X346269000Y-70485000D03*
%TD*%
%TO.P,LEFT-SPACE1,2*%
%TO.N,Net-(D27-Pad1)*%
X140405000Y-111496000D03*
%TO.P,LEFT-SPACE1,1*%
%TO.N,ROW4*%
X154255000Y-108956000D03*
%TD*%
%TO.P,RIGHT-SPACE1,2*%
%TO.N,Net-(D47-Pad1)*%
X221431000Y-111496000D03*
%TO.P,RIGHT-SPACE1,1*%
%TO.N,ROW4*%
X235281000Y-108956000D03*
%TD*%
%TO.P,SW64,2*%
%TO.N,Net-(D74-Pad1)*%
X351469000Y-92075000D03*
%TO.P,SW64,1*%
%TO.N,ROW1*%
X365319000Y-89535000D03*
%TD*%
%TO.P,SW65,2*%
%TO.N,Net-(D75-Pad1)*%
X332419000Y-34925000D03*
%TO.P,SW65,1*%
%TO.N,ROW2*%
X346269000Y-32385000D03*
%TD*%
%TO.P,SW66,2*%
%TO.N,Net-(D76-Pad1)*%
X389569000Y-111125000D03*
%TO.P,SW66,1*%
%TO.N,ROW3*%
X403419000Y-108585000D03*
%TD*%
%TO.P,SW67,2*%
%TO.N,Net-(D77-Pad1)*%
X370519000Y-53975000D03*
%TO.P,SW67,1*%
%TO.N,ROW4*%
X384369000Y-51435000D03*
%TD*%
%TO.P,SW68,2*%
%TO.N,Net-(D78-Pad1)*%
X370519000Y-92075000D03*
%TO.P,SW68,1*%
%TO.N,ROW5*%
X384369000Y-89535000D03*
%TD*%
%TO.P,SW69,2*%
%TO.N,Net-(D80-Pad1)*%
X389569000Y-34925000D03*
%TO.P,SW69,1*%
%TO.N,ROW1*%
X403419000Y-32385000D03*
%TD*%
%TO.P,SW70,2*%
%TO.N,Net-(D81-Pad1)*%
X370519000Y-34925000D03*
%TO.P,SW70,1*%
%TO.N,ROW2*%
X384369000Y-32385000D03*
%TD*%
%TO.P,SW71,2*%
%TO.N,Net-(D82-Pad1)*%
X370519000Y-111125000D03*
%TO.P,SW71,1*%
%TO.N,ROW3*%
X384369000Y-108585000D03*
%TD*%
%TO.P,SW72,2*%
%TO.N,Net-(D83-Pad1)*%
X351469000Y-111125000D03*
%TO.P,SW72,1*%
%TO.N,ROW4*%
X365319000Y-108585000D03*
%TD*%
%TO.P,SW73,2*%
%TO.N,Net-(D84-Pad1)*%
X332419000Y-111125000D03*
%TO.P,SW73,1*%
%TO.N,ROW5*%
X346269000Y-108585000D03*
%TD*%
%TO.P,S2,2*%
%TO.N,Net-(D79-Pad1)*%
X389569000Y-92075000D03*
%TO.P,S2,1*%
%TO.N,ROW0*%
X403419000Y-89535000D03*
%TD*%
%TO.P,S1,2*%
%TO.N,Net-(D73-Pad1)*%
X351469000Y-34925000D03*
%TO.P,S1,1*%
%TO.N,ROW0*%
X365319000Y-32385000D03*
%TD*%
%TO.P,SW44,2*%
%TO.N,Net-(D51-Pad1)*%
X254705000Y-111496000D03*
%TO.P,SW44,1*%
%TO.N,ROW4*%
X268555000Y-108956000D03*
%TD*%
%TO.P,SW52,2*%
%TO.N,Net-(D59-Pad1)*%
X276285000Y-111506000D03*
%TO.P,SW52,1*%
%TO.N,ROW4*%
X290135000Y-108966000D03*
%TD*%
D11*
%TO.P,J1,14*%
%TO.N,LED_5V*%
X320385000Y-97129600D03*
%TO.P,J1,13*%
%TO.N,N/C*%
X319115000Y-97129600D03*
%TO.P,J1,12*%
X320385000Y-95859600D03*
%TO.P,J1,11*%
X319115000Y-95859600D03*
%TO.P,J1,10*%
X320385000Y-94589600D03*
%TO.P,J1,9*%
X319115000Y-94589600D03*
%TO.P,J1,8*%
X320385000Y-93319600D03*
%TO.P,J1,7*%
X319115000Y-93319600D03*
%TO.P,J1,6*%
X320385000Y-92049600D03*
%TO.P,J1,5*%
X319115000Y-92049600D03*
%TO.P,J1,4*%
%TO.N,/RGB/INPUT*%
X320385000Y-90779600D03*
%TO.P,J1,3*%
%TO.N,LED_DATA*%
X319115000Y-90779600D03*
%TO.P,J1,2*%
%TO.N,LED_GND*%
X320385000Y-89509600D03*
D12*
%TO.P,J1,1*%
%TO.N,TEENSY_GND*%
X319115000Y-89509600D03*
%TD*%
D13*
%TO.N,Net-(D2-Pad1)*%
X388911000Y-48130400D03*
%TO.N,Net-(D3-Pad1)*%
X114887900Y-48861100D03*
X80349600Y-84878300D03*
X34838800Y-84878300D03*
%TO.N,Net-(D4-Pad1)*%
X234691900Y-104396200D03*
%TO.N,Net-(D5-Pad1)*%
X104358100Y-46903300D03*
%TO.N,Net-(D6-Pad1)*%
X38187000Y-60409900D03*
X243526800Y-60013300D03*
X258364000Y-46569600D03*
%TO.N,Net-(D7-Pad1)*%
X224019300Y-103910600D03*
%TO.N,Net-(D8-Pad1)*%
X124542700Y-45943900D03*
%TO.N,Net-(D9-Pad1)*%
X183856800Y-49228800D03*
X179566800Y-64613800D03*
X79605700Y-64613800D03*
%TO.N,Net-(D10-Pad1)*%
X62461400Y-47445300D03*
%TO.N,Net-(D11-Pad1)*%
X128369700Y-45696000D03*
%TO.N,Net-(D12-Pad1)*%
X351767800Y-47855600D03*
X348741700Y-64863000D03*
X332877300Y-64908200D03*
%TO.N,Net-(D13-Pad1)*%
X174141900Y-47180500D03*
%TO.N,Net-(D14-Pad1)*%
X59190100Y-49112400D03*
%TO.N,Net-(D15-Pad1)*%
X137748300Y-49165200D03*
X128632600Y-68881300D03*
X103877300Y-68881300D03*
%TO.N,Net-(D16-Pad1)*%
X361325700Y-46926500D03*
X349105500Y-68190300D03*
X386578500Y-71172500D03*
%TO.N,Net-(D17-Pad1)*%
X90399000Y-46702700D03*
%TO.N,Net-(D18-Pad1)*%
X248115100Y-104557900D03*
X250191200Y-65401600D03*
X83664100Y-65351900D03*
%TO.N,Net-(D19-Pad1)*%
X160178700Y-47154000D03*
%TO.N,Net-(D20-Pad1)*%
X196887600Y-48499400D03*
%TO.N,Net-(D21-Pad1)*%
X111135700Y-73170400D03*
X188270800Y-68913500D03*
X211846300Y-48390500D03*
%TO.N,Net-(D22-Pad1)*%
X247702500Y-47509900D03*
X243001400Y-54908100D03*
X248175700Y-54908100D03*
X238614400Y-80688600D03*
X95666300Y-88698800D03*
%TO.N,Net-(D23-Pad1)*%
X206707200Y-108881700D03*
%TO.N,Net-(D24-Pad1)*%
X230985200Y-45304700D03*
%TO.N,Net-(D25-Pad1)*%
X108490300Y-48497500D03*
%TO.N,Net-(D26-Pad1)*%
X185214500Y-104394000D03*
%TO.N,Net-(D27-Pad1)*%
X216962400Y-49048500D03*
X132448800Y-110489200D03*
X138154500Y-111788000D03*
%TO.N,Net-(D28-Pad1)*%
X88363100Y-48161300D03*
X97741900Y-50775300D03*
X250168100Y-59566300D03*
%TO.N,Net-(D29-Pad1)*%
X111363300Y-39916600D03*
X258288900Y-40003300D03*
X266391400Y-48105800D03*
%TO.N,Net-(D30-Pad1)*%
X240612300Y-101974200D03*
X253299000Y-66045900D03*
X119913700Y-66001600D03*
%TO.N,Net-(D31-Pad1)*%
X154267000Y-47008500D03*
%TO.N,Net-(D32-Pad1)*%
X109658400Y-49588600D03*
%TO.N,Net-(D33-Pad1)*%
X115989600Y-53865400D03*
%TO.N,Net-(D34-Pad1)*%
X213337000Y-48682900D03*
%TO.N,Net-(D35-Pad1)*%
X168852200Y-109265800D03*
%TO.N,Net-(D36-Pad1)*%
X238303400Y-106658100D03*
%TO.N,Net-(D37-Pad1)*%
X143291600Y-49177400D03*
%TO.N,Net-(D38-Pad1)*%
X133729200Y-104051900D03*
%TO.N,Net-(D39-Pad1)*%
X175685900Y-107008600D03*
%TO.N,Net-(D40-Pad1)*%
X253992300Y-49260800D03*
%TO.N,Net-(D41-Pad1)*%
X119526500Y-104081900D03*
X89746600Y-98474000D03*
X75196500Y-98474000D03*
X57971000Y-48853500D03*
X56217800Y-47106000D03*
X58606200Y-34485800D03*
X133668100Y-33971400D03*
%TO.N,Net-(D42-Pad1)*%
X112885800Y-47520900D03*
%TO.N,Net-(D43-Pad1)*%
X70737900Y-45225500D03*
%TO.N,Net-(D44-Pad1)*%
X163385100Y-68125300D03*
X83715800Y-68125300D03*
X81243000Y-104394000D03*
%TO.N,Net-(D45-Pad1)*%
X131806400Y-108032600D03*
%TO.N,Net-(D46-Pad1)*%
X214096100Y-50674400D03*
X248899300Y-50329400D03*
X251597800Y-47180500D03*
%TO.N,Net-(D47-Pad1)*%
X205483700Y-105963100D03*
%TO.N,Net-(D48-Pad1)*%
X196612400Y-104280400D03*
%TO.N,Net-(D49-Pad1)*%
X220107900Y-49206300D03*
%TO.N,Net-(D50-Pad1)*%
X98759300Y-104296400D03*
X107488500Y-98025500D03*
X185930800Y-98025500D03*
%TO.N,Net-(D51-Pad1)*%
X211026900Y-105737900D03*
%TO.N,Net-(D52-Pad1)*%
X234146500Y-86300000D03*
X109436100Y-93105000D03*
X101159700Y-102832100D03*
%TO.N,Net-(D53-Pad1)*%
X193173800Y-45307700D03*
X182196300Y-49250600D03*
X166981500Y-87750800D03*
X162713200Y-92881300D03*
X144322400Y-104268100D03*
%TO.N,Net-(D54-Pad1)*%
X193355500Y-49991200D03*
%TO.N,Net-(D55-Pad1)*%
X170873100Y-47976100D03*
X202903000Y-47363300D03*
X218749800Y-43669400D03*
%TO.N,Net-(D56-Pad1)*%
X162076800Y-104286700D03*
%TO.N,Net-(D57-Pad1)*%
X104495300Y-103190200D03*
X113434900Y-88688900D03*
X206641400Y-85298200D03*
%TO.N,Net-(D58-Pad1)*%
X199768300Y-101593700D03*
%TO.N,Net-(D59-Pad1)*%
X370578500Y-46926500D03*
X349830900Y-107040700D03*
X356268200Y-107755600D03*
%TO.N,Net-(D61-Pad1)*%
X229734200Y-101522200D03*
%TO.N,Net-(D62-Pad1)*%
X375386300Y-47851800D03*
%TO.N,Net-(D63-Pad1)*%
X164086200Y-103295800D03*
X205950200Y-64551000D03*
X266723500Y-64520000D03*
%TO.N,Net-(D64-Pad1)*%
X366092100Y-49368900D03*
%TO.N,Net-(D65-Pad1)*%
X233453400Y-87032500D03*
X141169300Y-92082000D03*
X122313900Y-105319300D03*
%TO.N,Net-(D66-Pad1)*%
X385126900Y-46926500D03*
X379342100Y-66566800D03*
X329148800Y-66566800D03*
X325348700Y-71549600D03*
X257139900Y-69139200D03*
%TO.N,Net-(D67-Pad1)*%
X155134700Y-104154900D03*
X181051600Y-78266700D03*
X271139500Y-78359700D03*
%TO.N,Net-(D68-Pad1)*%
X330186400Y-46034000D03*
X327080600Y-52614000D03*
X311827500Y-53158400D03*
%TO.N,Net-(D69-Pad1)*%
X342544400Y-100773500D03*
%TO.N,Net-(D70-Pad1)*%
X241340200Y-112069800D03*
%TO.N,Net-(D71-Pad1)*%
X354669600Y-49609600D03*
%TO.N,Net-(D72-Pad1)*%
X332206600Y-47399800D03*
%TO.N,Net-(Backspace1-Pad2)*%
X372918800Y-48151500D03*
%TO.N,Net-(D73-Pad1)*%
X347123700Y-101498800D03*
%TO.N,Net-(D74-Pad1)*%
X342095200Y-102999800D03*
%TO.N,Net-(CAPS1-Pad2)*%
X44133500Y-48594200D03*
%TO.N,Net-(D75-Pad1)*%
X340008900Y-102230000D03*
%TO.N,Net-(D76-Pad1)*%
X353722500Y-103609700D03*
%TO.N,Net-(D77-Pad1)*%
X362754600Y-104313000D03*
%TO.N,Net-(D78-Pad1)*%
X362246300Y-103162900D03*
%TO.N,Net-(D79-Pad1)*%
X374516000Y-102997300D03*
%TO.N,Net-(D80-Pad1)*%
X372562900Y-104139600D03*
%TO.N,Net-(D81-Pad1)*%
X373599800Y-106100300D03*
%TO.N,Net-(D82-Pad1)*%
X377309400Y-105129400D03*
%TO.N,Net-(D83-Pad1)*%
X356296800Y-106690800D03*
%TO.N,Net-(D84-Pad1)*%
X333207000Y-47436700D03*
%TO.N,LED_GND*%
X79043000Y-80471600D03*
X80466100Y-63582300D03*
X246393400Y-43929400D03*
X238654100Y-63622100D03*
X175914200Y-43659700D03*
X178431800Y-45071600D03*
X250954500Y-63594400D03*
X249244100Y-80219500D03*
X83010800Y-43926300D03*
X80123200Y-41102700D03*
X362443900Y-82839900D03*
X361638700Y-63159300D03*
X389500600Y-63159300D03*
X387413800Y-44661400D03*
X360948700Y-81534000D03*
X352319500Y-100275100D03*
X317166900Y-79327500D03*
X317167000Y-100256800D03*
X325365200Y-63457500D03*
X328126600Y-63249600D03*
%TO.N,LED_5V*%
X389927800Y-80623800D03*
X389034900Y-78234100D03*
X369674200Y-42079900D03*
X214738700Y-41105100D03*
X219693100Y-42759600D03*
X131029400Y-99236400D03*
X134025900Y-113092000D03*
X230696900Y-81413900D03*
X228403900Y-79112500D03*
X133496000Y-43139600D03*
X130673800Y-41178900D03*
X314556900Y-41285700D03*
X315972000Y-55568700D03*
X328121100Y-98902800D03*
X303564800Y-117773600D03*
X385525400Y-60639200D03*
X386214100Y-41278400D03*
%TO.N,TEENSY_GND*%
X321075700Y-42312800D03*
X322515700Y-89773900D03*
X321924400Y-47455300D03*
X322493600Y-81749100D03*
X321157400Y-70716500D03*
X322502000Y-103753200D03*
X323249600Y-119074200D03*
%TO.N,ROW5*%
X328119400Y-87169400D03*
X242908400Y-87935800D03*
X254380000Y-88312800D03*
X383214300Y-87169400D03*
X347652500Y-87169400D03*
X320779700Y-38888600D03*
%TO.N,ROW2*%
X344389900Y-30698100D03*
X381252900Y-29268900D03*
X196000800Y-69739900D03*
X174899500Y-68083000D03*
X92860100Y-69472400D03*
X325919600Y-38891200D03*
X77313900Y-67975900D03*
X54490300Y-67975900D03*
X230324200Y-58978900D03*
X282504900Y-53807500D03*
%TO.N,COL0*%
X281164800Y-46066900D03*
X347063700Y-44418500D03*
X137840400Y-51066200D03*
X136345900Y-49165200D03*
X263582900Y-49860700D03*
X241102800Y-104673500D03*
X261606600Y-47447200D03*
%TO.N,COL1*%
X321399800Y-44731300D03*
X320707100Y-68863900D03*
X231756100Y-67221800D03*
X227239900Y-103034000D03*
X69944600Y-47139800D03*
X81184600Y-48110700D03*
X94153900Y-46256200D03*
X135164600Y-45865000D03*
X188210200Y-46782900D03*
%TO.N,COL2*%
X178677600Y-46992300D03*
X233144000Y-66778000D03*
X299530400Y-66778000D03*
X312276000Y-51357600D03*
X290758000Y-105469000D03*
%TO.N,COL3*%
X253085600Y-77262400D03*
X324913000Y-73291600D03*
X327384400Y-45631000D03*
X245495900Y-104230200D03*
X252605100Y-49536400D03*
X198824200Y-47363300D03*
X172118000Y-48149800D03*
%TO.N,COL4*%
X325363800Y-51175300D03*
X321209600Y-81743400D03*
X241751000Y-83802900D03*
X251826000Y-50277700D03*
X238260900Y-101621000D03*
%TO.N,COL5*%
X234532500Y-58466600D03*
X233771000Y-47062000D03*
X172289700Y-45485300D03*
X230942400Y-103762800D03*
X148219300Y-105319400D03*
X83410200Y-46242600D03*
X118547600Y-44522000D03*
%TO.N,COL6*%
X132161100Y-94191600D03*
X129484000Y-104856700D03*
X169691300Y-86575100D03*
X186977600Y-59139500D03*
X240826300Y-46568200D03*
X234872300Y-53097400D03*
X145806800Y-50375700D03*
X119876700Y-48401800D03*
X146086600Y-48192400D03*
%TO.N,COL7*%
X54930900Y-49107000D03*
X78671700Y-103192800D03*
X255629400Y-48783200D03*
X199183800Y-104510400D03*
X165248000Y-109933500D03*
%TO.N,COL8*%
X295352800Y-48281800D03*
X280680200Y-67935400D03*
X226517400Y-66852700D03*
X194583600Y-102459700D03*
X194881400Y-73671800D03*
X200994700Y-71535700D03*
X223762900Y-48549300D03*
X158146200Y-105786300D03*
X182945800Y-102724100D03*
%TO.N,COL9*%
X142784000Y-102727900D03*
X150052700Y-92827700D03*
X165093600Y-87849800D03*
X180279000Y-49473300D03*
X179474500Y-67357700D03*
X320453500Y-70005700D03*
X322572100Y-41631000D03*
X336150900Y-49094900D03*
X331137900Y-41631000D03*
%TO.N,COL10*%
X221636100Y-104443800D03*
X236448500Y-97623200D03*
X300176900Y-97623200D03*
X319048500Y-44304400D03*
X123767700Y-104877200D03*
X128561100Y-109670600D03*
X366910400Y-46632600D03*
X360652000Y-40374200D03*
%TO.N,COL11*%
X356843300Y-41208300D03*
X352354100Y-46926500D03*
X170789400Y-107328700D03*
X347516200Y-46906100D03*
X345743700Y-44162800D03*
X402948600Y-47209100D03*
X405792900Y-104204000D03*
%TO.N,COL12*%
X339363200Y-104204000D03*
X325388200Y-45472500D03*
%TO.N,COL13*%
X326060700Y-43663600D03*
X345829800Y-106230800D03*
X342074000Y-46483500D03*
%TO.N,/RGB/INPUT*%
X314556900Y-40243200D03*
%TO.N,ROW0*%
X312091600Y-36088500D03*
X309335600Y-33110000D03*
X312728100Y-45631000D03*
%TO.N,ROW3*%
X319686200Y-40852900D03*
X61253800Y-92345300D03*
X88748400Y-87296400D03*
X167992700Y-87921700D03*
X184848600Y-87921700D03*
X224230800Y-98433500D03*
X298692800Y-98433500D03*
%TO.N,ROW4*%
X320294700Y-39912100D03*
X324359900Y-109509100D03*
X297689100Y-107592900D03*
%TO.N,ROW1*%
X96340000Y-51819100D03*
X102956200Y-51819100D03*
X232534000Y-60745800D03*
X310575600Y-52708100D03*
X367958000Y-51473200D03*
X401345800Y-48817200D03*
X312277800Y-44630600D03*
%TO.N,VCC*%
X324855000Y-80360900D03*
X331043900Y-47087300D03*
X328445000Y-37410500D03*
%TO.N,LED_DATA*%
X316262900Y-38427700D03*
X317167000Y-90779600D03*
%TO.N,Net-(R1-Pad2)*%
X314748200Y-104366000D03*
X318113900Y-49501600D03*
X322189400Y-119838900D03*
X322236700Y-107592900D03*
%TO.N,Net-(R4-Pad2)*%
X325221000Y-67579800D03*
X329924200Y-38516800D03*
%TO.N,Net-(C90-Pad1)*%
X322183500Y-55975100D03*
X322924800Y-47566400D03*
X315972000Y-56758300D03*
X319653700Y-98802600D03*
%TO.N,Net-(C91-Pad1)*%
X316270600Y-61535100D03*
X315617400Y-49035400D03*
X317661900Y-65428400D03*
X321697300Y-93607400D03*
%TO.N,Net-(C92-Pad2)*%
X322454200Y-85247700D03*
X319498800Y-43231000D03*
%TO.N,Net-(R2-Pad1)*%
X315972000Y-72347100D03*
X315980100Y-41953800D03*
%TO.N,Net-(R3-Pad1)*%
X321607700Y-74852700D03*
X318889500Y-34887300D03*
%TO.N,Net-(D168-Pad2)*%
X329111900Y-62484000D03*
X325344100Y-68623500D03*
%TO.N,Net-(D165-Pad2)*%
X147956500Y-81695000D03*
X170758900Y-81074900D03*
%TO.N,Net-(D89-Pad2)*%
X376189700Y-119421600D03*
X387002600Y-116220100D03*
%TO.N,Net-(D167-Pad2)*%
X357146100Y-119311600D03*
X362030700Y-120003000D03*
%TO.N,Net-(D94-Pad2)*%
X313681800Y-42577400D03*
X333528100Y-115242200D03*
%TO.N,Net-(D100-Pad4)*%
X99917900Y-42715000D03*
X75247500Y-43815000D03*
%TO.N,Net-(D100-Pad2)*%
X118495000Y-42715000D03*
X113488000Y-42209600D03*
%TO.N,Net-(D114-Pad2)*%
X328135400Y-79437500D03*
X325312200Y-76870400D03*
%TO.N,Net-(D115-Pad2)*%
X44835300Y-119450000D03*
X51435000Y-102012000D03*
%TO.N,Net-(D120-Pad2)*%
X213741300Y-42553600D03*
X190874700Y-43772000D03*
%TO.N,Net-(D130-Pad2)*%
X398137400Y-98527800D03*
X398890800Y-79766200D03*
%TO.N,Net-(D131-Pad2)*%
X149855100Y-119199500D03*
X112706800Y-120145600D03*
%TO.N,Net-(D136-Pad2)*%
X347428300Y-42827000D03*
X301273800Y-41288600D03*
%TO.N,Net-(D139-Pad2)*%
X213609400Y-119072800D03*
X177096200Y-120118600D03*
%TO.N,Net-(D141-Pad2)*%
X44297000Y-63896300D03*
X49389700Y-81096800D03*
%TO.N,Net-(D144-Pad2)*%
X380000300Y-42334000D03*
X376053300Y-39312600D03*
X356757500Y-39648900D03*
X357177200Y-43463400D03*
%TO.N,Net-(D146-Pad2)*%
X322525900Y-99656600D03*
X328139700Y-100434800D03*
%TO.N,Net-(D152-Pad2)*%
X393475800Y-43479900D03*
X398070000Y-60405500D03*
%TO.N,Net-(D159-Pad2)*%
X341845400Y-118878300D03*
X301329200Y-119922700D03*
%TO.N,Net-(D161-Pad2)*%
X151734900Y-80633300D03*
X129111800Y-81957000D03*
%TO.N,Net-(C92-Pad1)*%
X327035500Y-32969900D03*
X322512500Y-82949800D03*
%TO.N,Net-(J2-Pad3)*%
X323113000Y-33623900D03*
X321157400Y-73852200D03*
%TO.N,Net-(J2-Pad2)*%
X322508300Y-77621100D03*
X323913000Y-32997400D03*
%TD*%
D14*
%TO.N,Net-(D2-Pad1)*%
X389569000Y-52399700D02*
X388911000Y-51741700D01*
X388911000Y-51741700D02*
X388911000Y-48130400D01*
X389569000Y-53975000D02*
X389569000Y-52399700D01*
%TO.N,Net-(D3-Pad1)*%
X35376000Y-111496000D02*
X35376000Y-109920700D01*
X35376000Y-109920700D02*
X34838800Y-109383500D01*
X34838800Y-109383500D02*
X34838800Y-84878300D01*
X80349600Y-84878300D02*
X85061400Y-80166500D01*
X85061400Y-80166500D02*
X85061400Y-76559000D01*
X85061400Y-76559000D02*
X86992200Y-74628200D01*
X86992200Y-74628200D02*
X86992200Y-71102800D01*
X86992200Y-71102800D02*
X99525200Y-58569800D01*
X99525200Y-58569800D02*
X99525200Y-57396200D01*
X99525200Y-57396200D02*
X101240200Y-55681200D01*
X101240200Y-55681200D02*
X101240200Y-52478400D01*
X101240200Y-52478400D02*
X102950600Y-50768000D01*
X102950600Y-50768000D02*
X104557100Y-50768000D01*
X104557100Y-50768000D02*
X108004500Y-47320600D01*
X108004500Y-47320600D02*
X109953100Y-47320600D01*
X109953100Y-47320600D02*
X111493600Y-48861100D01*
X111493600Y-48861100D02*
X114887900Y-48861100D01*
%TO.N,Net-(D4-Pad1)*%
X228152000Y-92329000D02*
X228152000Y-97856300D01*
X228152000Y-97856300D02*
X234691900Y-104396200D01*
%TO.N,Net-(D5-Pad1)*%
X104358100Y-46903300D02*
X102002900Y-46903300D01*
X102002900Y-46903300D02*
X101478100Y-47428100D01*
X101478100Y-47428100D02*
X81527800Y-47428100D01*
X81527800Y-47428100D02*
X81325300Y-47225600D01*
X81325300Y-47225600D02*
X76422700Y-47225600D01*
X76422700Y-47225600D02*
X76174900Y-46977800D01*
X76174900Y-46977800D02*
X71464500Y-46977800D01*
X71464500Y-46977800D02*
X70012600Y-45525900D01*
X70012600Y-45525900D02*
X70012600Y-44866400D01*
X70012600Y-44866400D02*
X58411300Y-33265100D01*
X58411300Y-33265100D02*
X49875400Y-33265100D01*
X49875400Y-33265100D02*
X48706100Y-34434400D01*
X48706100Y-34434400D02*
X42028200Y-34434400D01*
X42028200Y-34434400D02*
X40876700Y-33282900D01*
X40876700Y-33282900D02*
X33022000Y-33282900D01*
X33022000Y-33282900D02*
X32746300Y-33558600D01*
X32746300Y-35133900D02*
X32746300Y-33558600D01*
%TO.N,Net-(D6-Pad1)*%
X258364000Y-46569600D02*
X253234600Y-46569600D01*
X253234600Y-46569600D02*
X249624600Y-50179600D01*
X249624600Y-50179600D02*
X249624600Y-50629900D01*
X249624600Y-50629900D02*
X248974400Y-51280100D01*
X248974400Y-51280100D02*
X248974400Y-52554700D01*
X248974400Y-52554700D02*
X248111200Y-53417900D01*
X248111200Y-53417900D02*
X247235400Y-53417900D01*
X247235400Y-53417900D02*
X244225300Y-56428000D01*
X244225300Y-56428000D02*
X244225300Y-59314800D01*
X244225300Y-59314800D02*
X243526800Y-60013300D01*
X37662000Y-54235200D02*
X37662000Y-59884900D01*
X37662000Y-59884900D02*
X38187000Y-60409900D01*
%TO.N,Net-(D7-Pad1)*%
X51876000Y-35133900D02*
X51876000Y-36709200D01*
X51876000Y-36709200D02*
X51506800Y-36709200D01*
X51506800Y-36709200D02*
X35575700Y-52640300D01*
X35575700Y-52640300D02*
X35575700Y-86042600D01*
X35575700Y-86042600D02*
X50243100Y-100710000D01*
X50243100Y-100710000D02*
X51175800Y-100710000D01*
X51175800Y-100710000D02*
X55795900Y-105330100D01*
X55795900Y-105330100D02*
X55795900Y-111086700D01*
X55795900Y-111086700D02*
X57780600Y-113071400D01*
X57780600Y-113071400D02*
X60741000Y-113071400D01*
X60741000Y-113071400D02*
X60855200Y-112957200D01*
X60855200Y-112957200D02*
X60855200Y-110956800D01*
X60855200Y-110956800D02*
X64719400Y-107092600D01*
X64719400Y-107092600D02*
X74297200Y-107092600D01*
X74297200Y-107092600D02*
X80276000Y-113071400D01*
X80276000Y-113071400D02*
X84617000Y-113071400D01*
X84617000Y-113071400D02*
X84843200Y-112845200D01*
X84843200Y-112845200D02*
X84843200Y-110942900D01*
X84843200Y-110942900D02*
X88711400Y-107074700D01*
X88711400Y-107074700D02*
X122016300Y-107074700D01*
X122016300Y-107074700D02*
X129253200Y-114311600D01*
X129253200Y-114311600D02*
X134592200Y-114311600D01*
X134592200Y-114311600D02*
X141791000Y-107112800D01*
X141791000Y-107112800D02*
X155404900Y-107112800D01*
X155404900Y-107112800D02*
X157750000Y-109457900D01*
X157750000Y-109457900D02*
X164597000Y-109457900D01*
X164597000Y-109457900D02*
X168883700Y-105171200D01*
X168883700Y-105171200D02*
X193558500Y-105171200D01*
X193558500Y-105171200D02*
X195535500Y-103194200D01*
X195535500Y-103194200D02*
X223302900Y-103194200D01*
X223302900Y-103194200D02*
X224019300Y-103910600D01*
%TO.N,Net-(D8-Pad1)*%
X61528000Y-54229000D02*
X61528000Y-55953700D01*
X61528000Y-55953700D02*
X64703200Y-59128900D01*
X64703200Y-59128900D02*
X73499300Y-59128900D01*
X73499300Y-59128900D02*
X78593800Y-54034400D01*
X78593800Y-54034400D02*
X78593800Y-53218900D01*
X78593800Y-53218900D02*
X79415100Y-52397600D01*
X79415100Y-52397600D02*
X88588800Y-52397600D01*
X88588800Y-52397600D02*
X89714000Y-53522800D01*
X89714000Y-53522800D02*
X96020300Y-53522800D01*
X96020300Y-53522800D02*
X101914300Y-47628800D01*
X101914300Y-47628800D02*
X104896700Y-47628800D01*
X104896700Y-47628800D02*
X107100600Y-45424900D01*
X107100600Y-45424900D02*
X116959400Y-45424900D01*
X116959400Y-45424900D02*
X117277700Y-45743200D01*
X117277700Y-45743200D02*
X124342000Y-45743200D01*
X124342000Y-45743200D02*
X124542700Y-45943900D01*
%TO.N,Net-(D9-Pad1)*%
X179566800Y-64613800D02*
X186175400Y-58005200D01*
X186175400Y-58005200D02*
X186175400Y-55623000D01*
X186175400Y-55623000D02*
X183856900Y-53304500D01*
X183856900Y-53304500D02*
X183856800Y-53304500D01*
X183856800Y-53304500D02*
X183856800Y-49228800D01*
X66227000Y-73279000D02*
X66227000Y-75023000D01*
X66227000Y-75023000D02*
X69351800Y-78147800D01*
X69351800Y-78147800D02*
X74773900Y-78147800D01*
X74773900Y-78147800D02*
X78161800Y-74759900D01*
X78161800Y-74759900D02*
X78161800Y-69952600D01*
X78161800Y-69952600D02*
X76557400Y-68348200D01*
X76557400Y-68348200D02*
X76557400Y-67662100D01*
X76557400Y-67662100D02*
X79605700Y-64613800D01*
%TO.N,Net-(D10-Pad1)*%
X44837500Y-92319000D02*
X44837500Y-81613000D01*
X44837500Y-81613000D02*
X36061600Y-72837100D01*
X36061600Y-72837100D02*
X36061600Y-52806000D01*
X36061600Y-52806000D02*
X41036300Y-47831300D01*
X41036300Y-47831300D02*
X56518300Y-47831300D01*
X56518300Y-47831300D02*
X56904300Y-47445300D01*
X56904300Y-47445300D02*
X62461400Y-47445300D01*
%TO.N,Net-(D11-Pad1)*%
X128369700Y-45696000D02*
X126288600Y-45696000D01*
X126288600Y-45696000D02*
X125301000Y-46683600D01*
X125301000Y-46683600D02*
X122696000Y-46683600D01*
X122696000Y-46683600D02*
X122337900Y-46325500D01*
X122337900Y-46325500D02*
X117223100Y-46325500D01*
X117223100Y-46325500D02*
X116772800Y-45875200D01*
X116772800Y-45875200D02*
X107512100Y-45875200D01*
X107512100Y-45875200D02*
X105140200Y-48247100D01*
X105140200Y-48247100D02*
X101932900Y-48247100D01*
X101932900Y-48247100D02*
X96953800Y-53226200D01*
X96953800Y-53226200D02*
X96953800Y-56455400D01*
X96953800Y-56455400D02*
X83410300Y-69998900D01*
X83410300Y-69998900D02*
X83410300Y-78813900D01*
X83410300Y-78813900D02*
X79617300Y-82606900D01*
X79617300Y-82606900D02*
X79617300Y-87865600D01*
X79617300Y-87865600D02*
X85631300Y-93879600D01*
X85631300Y-93879600D02*
X85631300Y-101065000D01*
X85631300Y-101065000D02*
X80335400Y-106360900D01*
X80335400Y-106360900D02*
X62811800Y-106360900D01*
X62811800Y-106360900D02*
X59252000Y-109920700D01*
X59252000Y-111496000D02*
X59252000Y-109920700D01*
%TO.N,Net-(D12-Pad1)*%
X332419000Y-92075000D02*
X332419000Y-90499700D01*
X348741700Y-64863000D02*
X348880400Y-64724300D01*
X348880400Y-64724300D02*
X348880400Y-50743000D01*
X348880400Y-50743000D02*
X351767800Y-47855600D01*
X332419000Y-90499700D02*
X330818700Y-88899400D01*
X330818700Y-88899400D02*
X330818700Y-66966800D01*
X330818700Y-66966800D02*
X332877300Y-64908200D01*
%TO.N,Net-(D13-Pad1)*%
X174141900Y-47180500D02*
X169113900Y-47180500D01*
X169113900Y-47180500D02*
X167629500Y-48664900D01*
X167629500Y-48664900D02*
X150624000Y-48664900D01*
X150624000Y-48664900D02*
X148525600Y-46566500D01*
X148525600Y-46566500D02*
X145413000Y-46566500D01*
X145413000Y-46566500D02*
X145371100Y-46608400D01*
X145371100Y-46608400D02*
X126013100Y-46608400D01*
X126013100Y-46608400D02*
X125455000Y-47166500D01*
X125455000Y-47166500D02*
X122487800Y-47166500D01*
X122487800Y-47166500D02*
X122097100Y-46775800D01*
X122097100Y-46775800D02*
X117036500Y-46775800D01*
X117036500Y-46775800D02*
X116586300Y-46325600D01*
X116586300Y-46325600D02*
X107725700Y-46325600D01*
X107725700Y-46325600D02*
X105353900Y-48697400D01*
X105353900Y-48697400D02*
X102166000Y-48697400D01*
X102166000Y-48697400D02*
X97987000Y-52876400D01*
X97987000Y-52876400D02*
X97987000Y-58993700D01*
X97987000Y-58993700D02*
X85277000Y-71703700D01*
X85277000Y-73279000D02*
X85277000Y-71703700D01*
%TO.N,Net-(D14-Pad1)*%
X75752000Y-90753700D02*
X60983900Y-75985600D01*
X60983900Y-75985600D02*
X60983900Y-62942000D01*
X60983900Y-62942000D02*
X59190100Y-61148200D01*
X59190100Y-61148200D02*
X59190100Y-49112400D01*
X75752000Y-92329000D02*
X75752000Y-90753700D01*
%TO.N,Net-(D15-Pad1)*%
X83128000Y-109920700D02*
X86081700Y-106967000D01*
X86081700Y-106967000D02*
X86081700Y-95288400D01*
X86081700Y-95288400D02*
X87998800Y-93371300D01*
X87998800Y-93371300D02*
X87998800Y-84305300D01*
X87998800Y-84305300D02*
X95192400Y-77111700D01*
X95192400Y-77111700D02*
X95192400Y-74511300D01*
X95192400Y-74511300D02*
X92134700Y-71453600D01*
X92134700Y-71453600D02*
X92134700Y-69117300D01*
X92134700Y-69117300D02*
X92788800Y-68463200D01*
X92788800Y-68463200D02*
X103459200Y-68463200D01*
X103459200Y-68463200D02*
X103877300Y-68881300D01*
X128632600Y-68881300D02*
X128632600Y-66388800D01*
X128632600Y-66388800D02*
X139331200Y-55690200D01*
X139331200Y-55690200D02*
X139331200Y-50748100D01*
X139331200Y-50748100D02*
X137748300Y-49165200D01*
X83128000Y-111496000D02*
X83128000Y-109920700D01*
%TO.N,Net-(D16-Pad1)*%
X349105500Y-68190300D02*
X349105500Y-65525000D01*
X349105500Y-65525000D02*
X349467000Y-65163500D01*
X349467000Y-65163500D02*
X349467000Y-52956300D01*
X349467000Y-52956300D02*
X355496700Y-46926600D01*
X355496700Y-46926600D02*
X361325700Y-46926600D01*
X361325700Y-46926600D02*
X361325700Y-46926500D01*
X389569000Y-73025000D02*
X387968700Y-73025000D01*
X387968700Y-73025000D02*
X387968700Y-72562700D01*
X387968700Y-72562700D02*
X386578500Y-71172500D01*
%TO.N,Net-(D17-Pad1)*%
X90399000Y-46702700D02*
X90133800Y-46967900D01*
X90133800Y-46967900D02*
X81704500Y-46967900D01*
X81704500Y-46967900D02*
X81511900Y-46775300D01*
X81511900Y-46775300D02*
X80771700Y-46775300D01*
X80771700Y-46775300D02*
X70926000Y-36929600D01*
X70926000Y-36929600D02*
X70926000Y-35133900D01*
%TO.N,Net-(D18-Pad1)*%
X80578000Y-54229000D02*
X80578000Y-62265800D01*
X80578000Y-62265800D02*
X83664100Y-65351900D01*
X250191200Y-65401600D02*
X250191200Y-66638000D01*
X250191200Y-66638000D02*
X252873300Y-69320100D01*
X252873300Y-69320100D02*
X252873300Y-72123800D01*
X252873300Y-72123800D02*
X252234700Y-72762400D01*
X252234700Y-72762400D02*
X252234700Y-76075400D01*
X252234700Y-76075400D02*
X243781900Y-84528200D01*
X243781900Y-84528200D02*
X243781900Y-94596800D01*
X243781900Y-94596800D02*
X239436600Y-98942100D01*
X239436600Y-98942100D02*
X239436600Y-102588200D01*
X239436600Y-102588200D02*
X236531900Y-105492900D01*
X236531900Y-105492900D02*
X236531900Y-107198500D01*
X236531900Y-107198500D02*
X238739700Y-109406300D01*
X238739700Y-109406300D02*
X242411600Y-109406300D01*
X242411600Y-109406300D02*
X247260000Y-104557900D01*
X247260000Y-104557900D02*
X248115100Y-104557900D01*
%TO.N,Net-(D19-Pad1)*%
X91576300Y-35133900D02*
X91576300Y-34624500D01*
X91576300Y-34624500D02*
X92911100Y-33289700D01*
X92911100Y-33289700D02*
X95101000Y-33289700D01*
X95101000Y-33289700D02*
X96698200Y-34886900D01*
X96698200Y-34886900D02*
X106287900Y-34886900D01*
X106287900Y-34886900D02*
X107914900Y-33259900D01*
X107914900Y-33259900D02*
X113499400Y-33259900D01*
X113499400Y-33259900D02*
X115208900Y-34969400D01*
X115208900Y-34969400D02*
X122209000Y-34969400D01*
X122209000Y-34969400D02*
X131104600Y-43865000D01*
X131104600Y-43865000D02*
X148767200Y-43865000D01*
X148767200Y-43865000D02*
X152640800Y-47738600D01*
X152640800Y-47738600D02*
X159594100Y-47738600D01*
X159594100Y-47738600D02*
X160178700Y-47154000D01*
X89976000Y-35133900D02*
X91576300Y-35133900D01*
%TO.N,Net-(D20-Pad1)*%
X196887600Y-48499400D02*
X196571500Y-48815500D01*
X196571500Y-48815500D02*
X190943600Y-48815500D01*
X190943600Y-48815500D02*
X190900000Y-48859100D01*
X190900000Y-48859100D02*
X187321400Y-48859100D01*
X187321400Y-48859100D02*
X186510800Y-48048500D01*
X186510800Y-48048500D02*
X180027600Y-48048500D01*
X180027600Y-48048500D02*
X178729200Y-49346900D01*
X178729200Y-49346900D02*
X148903800Y-49346900D01*
X148903800Y-49346900D02*
X146573700Y-47016800D01*
X146573700Y-47016800D02*
X145599600Y-47016800D01*
X145599600Y-47016800D02*
X145532100Y-47084300D01*
X145532100Y-47084300D02*
X126174100Y-47084300D01*
X126174100Y-47084300D02*
X125632000Y-47626400D01*
X125632000Y-47626400D02*
X122310800Y-47626400D01*
X122310800Y-47626400D02*
X121910500Y-47226100D01*
X121910500Y-47226100D02*
X116849900Y-47226100D01*
X116849900Y-47226100D02*
X116399700Y-46775900D01*
X116399700Y-46775900D02*
X107912300Y-46775900D01*
X107912300Y-46775900D02*
X105276800Y-49411400D01*
X105276800Y-49411400D02*
X102870300Y-49411400D01*
X102870300Y-49411400D02*
X99628000Y-52653700D01*
X99628000Y-54229000D02*
X99628000Y-52653700D01*
%TO.N,Net-(D21-Pad1)*%
X211846300Y-48390500D02*
X212279400Y-47957400D01*
X212279400Y-47957400D02*
X216897200Y-47957400D01*
X216897200Y-47957400D02*
X217699400Y-48759600D01*
X217699400Y-48759600D02*
X217699400Y-49337300D01*
X217699400Y-49337300D02*
X215210000Y-51826700D01*
X215210000Y-51826700D02*
X213322500Y-51826700D01*
X213322500Y-51826700D02*
X211979100Y-53170100D01*
X211979100Y-53170100D02*
X211979100Y-54650000D01*
X211979100Y-54650000D02*
X200377800Y-66251300D01*
X200377800Y-66251300D02*
X190933000Y-66251300D01*
X190933000Y-66251300D02*
X188270800Y-68913500D01*
X104327000Y-73279000D02*
X104327000Y-71703700D01*
X111135700Y-73170400D02*
X109395300Y-71430000D01*
X109395300Y-71430000D02*
X104600700Y-71430000D01*
X104600700Y-71430000D02*
X104327000Y-71703700D01*
%TO.N,Net-(D22-Pad1)*%
X248175700Y-54908100D02*
X248175700Y-61634800D01*
X248175700Y-61634800D02*
X239026200Y-70784300D01*
X239026200Y-70784300D02*
X239026200Y-74740200D01*
X239026200Y-74740200D02*
X238614400Y-75152000D01*
X238614400Y-75152000D02*
X238614400Y-80688600D01*
X94802000Y-92329000D02*
X94802000Y-90753700D01*
X94802000Y-90753700D02*
X95666300Y-89889400D01*
X95666300Y-89889400D02*
X95666300Y-88698800D01*
X243001400Y-54908100D02*
X241249300Y-53156000D01*
X241249300Y-53156000D02*
X241249300Y-50314000D01*
X241249300Y-50314000D02*
X242826400Y-48736900D01*
X242826400Y-48736900D02*
X242826400Y-46420900D01*
X242826400Y-46420900D02*
X246045600Y-43201700D01*
X246045600Y-43201700D02*
X246718200Y-43201700D01*
X246718200Y-43201700D02*
X247702500Y-44186000D01*
X247702500Y-44186000D02*
X247702500Y-47509900D01*
%TO.N,Net-(D23-Pad1)*%
X107004000Y-109920700D02*
X107254100Y-109670600D01*
X107254100Y-109670600D02*
X112128800Y-109670600D01*
X112128800Y-109670600D02*
X113777200Y-111319000D01*
X113777200Y-111319000D02*
X118590600Y-111319000D01*
X118590600Y-111319000D02*
X124101100Y-116829500D01*
X124101100Y-116829500D02*
X199171600Y-116829500D01*
X199171600Y-116829500D02*
X201320200Y-114680900D01*
X201320200Y-114680900D02*
X201320200Y-114123600D01*
X201320200Y-114123600D02*
X204240200Y-111203600D01*
X204240200Y-111203600D02*
X205674600Y-111203600D01*
X205674600Y-111203600D02*
X206707200Y-110171000D01*
X206707200Y-110171000D02*
X206707200Y-108881700D01*
X107004000Y-111496000D02*
X107004000Y-109920700D01*
%TO.N,Net-(D24-Pad1)*%
X230985200Y-45304700D02*
X232978000Y-47297500D01*
X232978000Y-47297500D02*
X232978000Y-54229000D01*
%TO.N,Net-(D25-Pad1)*%
X123377000Y-71703700D02*
X111091700Y-59418400D01*
X111091700Y-59418400D02*
X111091700Y-56711600D01*
X111091700Y-56711600D02*
X107902600Y-53522500D01*
X107902600Y-53522500D02*
X107902600Y-49085200D01*
X107902600Y-49085200D02*
X108490300Y-48497500D01*
X123377000Y-73279000D02*
X123377000Y-71703700D01*
%TO.N,Net-(D26-Pad1)*%
X185214500Y-104394000D02*
X169012400Y-104394000D01*
X169012400Y-104394000D02*
X164446300Y-108960100D01*
X164446300Y-108960100D02*
X158114500Y-108960100D01*
X158114500Y-108960100D02*
X155816900Y-106662500D01*
X155816900Y-106662500D02*
X141524900Y-106662500D01*
X141524900Y-106662500D02*
X134326100Y-113861300D01*
X134326100Y-113861300D02*
X129782900Y-113861300D01*
X129782900Y-113861300D02*
X120251800Y-104330200D01*
X120251800Y-104330200D02*
X120251800Y-103781400D01*
X120251800Y-103781400D02*
X113852000Y-97381600D01*
X113852000Y-97381600D02*
X113852000Y-92329000D01*
%TO.N,Net-(D27-Pad1)*%
X132448800Y-110489200D02*
X131061300Y-109101700D01*
X131061300Y-109101700D02*
X131061300Y-105590100D01*
X131061300Y-105590100D02*
X135579500Y-101071900D01*
X135579500Y-101071900D02*
X141002700Y-101071900D01*
X141002700Y-101071900D02*
X149053600Y-93021000D01*
X149053600Y-93021000D02*
X149053600Y-92175500D01*
X149053600Y-92175500D02*
X150764300Y-90464800D01*
X150764300Y-90464800D02*
X157011100Y-90464800D01*
X157011100Y-90464800D02*
X158661000Y-92114700D01*
X158661000Y-92114700D02*
X167157700Y-92114700D01*
X167157700Y-92114700D02*
X168241800Y-91030600D01*
X168241800Y-91030600D02*
X168241800Y-89802700D01*
X168241800Y-89802700D02*
X178541300Y-79503200D01*
X178541300Y-79503200D02*
X178541300Y-72013400D01*
X178541300Y-72013400D02*
X190586300Y-59968400D01*
X190586300Y-59968400D02*
X202566600Y-59968400D01*
X202566600Y-59968400D02*
X207718200Y-54816800D01*
X207718200Y-54816800D02*
X209228500Y-54816800D01*
X209228500Y-54816800D02*
X210919200Y-53126100D01*
X210919200Y-53126100D02*
X210919200Y-52797100D01*
X210919200Y-52797100D02*
X214667800Y-49048500D01*
X214667800Y-49048500D02*
X216962400Y-49048500D01*
X140405000Y-111496000D02*
X138446500Y-111496000D01*
X138446500Y-111496000D02*
X138154500Y-111788000D01*
%TO.N,Net-(D28-Pad1)*%
X252028000Y-55804300D02*
X250168100Y-57664200D01*
X250168100Y-57664200D02*
X250168100Y-59566300D01*
X97741900Y-50775300D02*
X95127900Y-48161300D01*
X95127900Y-48161300D02*
X88363100Y-48161300D01*
X252028000Y-54229000D02*
X252028000Y-55804300D01*
%TO.N,Net-(D29-Pad1)*%
X266391400Y-48105800D02*
X258288900Y-40003300D01*
X109026000Y-35133900D02*
X109026000Y-37579300D01*
X109026000Y-37579300D02*
X111363300Y-39916600D01*
%TO.N,Net-(D30-Pad1)*%
X240612300Y-101974200D02*
X240612300Y-101615000D01*
X240612300Y-101615000D02*
X245283000Y-96944300D01*
X245283000Y-96944300D02*
X245283000Y-86090800D01*
X245283000Y-86090800D02*
X253810900Y-77562900D01*
X253810900Y-77562900D02*
X253810900Y-73096900D01*
X253810900Y-73096900D02*
X254228700Y-72679100D01*
X254228700Y-72679100D02*
X254228700Y-66975600D01*
X254228700Y-66975600D02*
X253299000Y-66045900D01*
X118678000Y-54229000D02*
X118678000Y-64765900D01*
X118678000Y-64765900D02*
X119913700Y-66001600D01*
%TO.N,Net-(D31-Pad1)*%
X128076000Y-35133900D02*
X128076000Y-36937200D01*
X128076000Y-36937200D02*
X133451600Y-42312800D01*
X133451600Y-42312800D02*
X149571300Y-42312800D01*
X149571300Y-42312800D02*
X154267000Y-47008500D01*
%TO.N,Net-(D32-Pad1)*%
X137728000Y-54229000D02*
X125086700Y-54229000D01*
X125086700Y-54229000D02*
X123216300Y-52358600D01*
X123216300Y-52358600D02*
X116470700Y-52358600D01*
X116470700Y-52358600D02*
X115564900Y-53264400D01*
X115564900Y-53264400D02*
X111983100Y-53264400D01*
X111983100Y-53264400D02*
X111874800Y-53156100D01*
X111874800Y-53156100D02*
X111874800Y-51228500D01*
X111874800Y-51228500D02*
X110234900Y-49588600D01*
X110234900Y-49588600D02*
X109658400Y-49588600D01*
%TO.N,Net-(D33-Pad1)*%
X115989600Y-53865400D02*
X115989600Y-63126200D01*
X115989600Y-63126200D02*
X121691600Y-68828200D01*
X121691600Y-68828200D02*
X127386800Y-68828200D01*
X127386800Y-68828200D02*
X131837600Y-73279000D01*
X131837600Y-73279000D02*
X142173000Y-73279000D01*
%TO.N,Net-(D34-Pad1)*%
X213337000Y-48682900D02*
X210468900Y-51551000D01*
X210468900Y-51551000D02*
X210468900Y-52939500D01*
X210468900Y-52939500D02*
X209556300Y-53852100D01*
X209556300Y-53852100D02*
X202029000Y-53852100D01*
X202029000Y-53852100D02*
X196588200Y-59292900D01*
X196588200Y-59292900D02*
X190624900Y-59292900D01*
X190624900Y-59292900D02*
X178091000Y-71826800D01*
X178091000Y-71826800D02*
X178091000Y-79316600D01*
X178091000Y-79316600D02*
X167791500Y-89616100D01*
X167791500Y-89616100D02*
X167791500Y-90792200D01*
X167791500Y-90792200D02*
X166922000Y-91661700D01*
X166922000Y-91661700D02*
X159069900Y-91661700D01*
X159069900Y-91661700D02*
X157422700Y-90014500D01*
X157422700Y-90014500D02*
X150456900Y-90014500D01*
X150456900Y-90014500D02*
X148664000Y-91807400D01*
X148664000Y-91807400D02*
X146812600Y-91807400D01*
X146812600Y-91807400D02*
X141409100Y-97210900D01*
X141409100Y-97210900D02*
X135951900Y-97210900D01*
X135951900Y-97210900D02*
X132902000Y-94161000D01*
X132902000Y-94161000D02*
X132902000Y-92329000D01*
%TO.N,Net-(D35-Pad1)*%
X171383000Y-109930700D02*
X169517100Y-109930700D01*
X169517100Y-109930700D02*
X168852200Y-109265800D01*
X171383000Y-111506000D02*
X171383000Y-109930700D01*
%TO.N,Net-(D36-Pad1)*%
X283026000Y-93894300D02*
X275788000Y-101132300D01*
X275788000Y-101132300D02*
X243549600Y-101132300D01*
X243549600Y-101132300D02*
X238303400Y-106378500D01*
X238303400Y-106378500D02*
X238303400Y-106658100D01*
X283026000Y-92319000D02*
X283026000Y-93894300D01*
%TO.N,Net-(D37-Pad1)*%
X161223000Y-73279000D02*
X155552400Y-73279000D01*
X155552400Y-73279000D02*
X154419800Y-72146400D01*
X154419800Y-72146400D02*
X154419800Y-62484300D01*
X154419800Y-62484300D02*
X143291600Y-51356100D01*
X143291600Y-51356100D02*
X143291600Y-49177400D01*
%TO.N,Net-(D38-Pad1)*%
X133729200Y-104051900D02*
X142485800Y-104051900D01*
X142485800Y-104051900D02*
X151952000Y-94585700D01*
X151952000Y-94585700D02*
X151952000Y-93904300D01*
X151952000Y-92329000D02*
X151952000Y-93904300D01*
%TO.N,Net-(D39-Pad1)*%
X175685900Y-107008600D02*
X182205400Y-107008600D01*
X182205400Y-107008600D02*
X183371800Y-108175000D01*
X183371800Y-108175000D02*
X183371800Y-110167300D01*
X183371800Y-110167300D02*
X184710500Y-111506000D01*
X184710500Y-111506000D02*
X190433000Y-111506000D01*
%TO.N,Net-(D40-Pad1)*%
X247202000Y-90753700D02*
X254261200Y-83694500D01*
X254261200Y-83694500D02*
X254261200Y-73283500D01*
X254261200Y-73283500D02*
X254679000Y-72865700D01*
X254679000Y-72865700D02*
X254679000Y-58261600D01*
X254679000Y-58261600D02*
X257624700Y-55315900D01*
X257624700Y-55315900D02*
X257624700Y-52893200D01*
X257624700Y-52893200D02*
X253992300Y-49260800D01*
X247202000Y-92329000D02*
X247202000Y-90753700D01*
%TO.N,Net-(D41-Pad1)*%
X75196500Y-98474000D02*
X70681500Y-93959000D01*
X70681500Y-93959000D02*
X70681400Y-93959000D01*
X70681400Y-93959000D02*
X70681400Y-86320000D01*
X70681400Y-86320000D02*
X59640300Y-75278900D01*
X59640300Y-75278900D02*
X59640300Y-62895400D01*
X59640300Y-62895400D02*
X57971000Y-61226100D01*
X57971000Y-61226100D02*
X57971000Y-48853500D01*
X89746600Y-98474000D02*
X96294400Y-105021800D01*
X96294400Y-105021800D02*
X118586600Y-105021800D01*
X118586600Y-105021800D02*
X119526500Y-104081900D01*
X58606200Y-34485800D02*
X58606200Y-35177700D01*
X58606200Y-35177700D02*
X56217800Y-37566100D01*
X56217800Y-37566100D02*
X56217800Y-47106000D01*
X147126000Y-35133900D02*
X134830600Y-35133900D01*
X134830600Y-35133900D02*
X133668100Y-33971400D01*
%TO.N,Net-(D42-Pad1)*%
X112885800Y-47520900D02*
X113041300Y-47676400D01*
X113041300Y-47676400D02*
X121723900Y-47676400D01*
X121723900Y-47676400D02*
X122125900Y-48078400D01*
X122125900Y-48078400D02*
X125816900Y-48078400D01*
X125816900Y-48078400D02*
X126356000Y-47539300D01*
X126356000Y-47539300D02*
X145714000Y-47539300D01*
X145714000Y-47539300D02*
X145786200Y-47467100D01*
X145786200Y-47467100D02*
X146387100Y-47467100D01*
X146387100Y-47467100D02*
X149921900Y-51001900D01*
X149921900Y-51001900D02*
X149921900Y-53023900D01*
X149921900Y-53023900D02*
X151127000Y-54229000D01*
X151127000Y-54229000D02*
X156778000Y-54229000D01*
%TO.N,Net-(D43-Pad1)*%
X164575700Y-35133900D02*
X154428600Y-35133900D01*
X154428600Y-35133900D02*
X152566300Y-33271600D01*
X152566300Y-33271600D02*
X145423700Y-33271600D01*
X145423700Y-33271600D02*
X144242900Y-34452400D01*
X144242900Y-34452400D02*
X135174900Y-34452400D01*
X135174900Y-34452400D02*
X133968600Y-33246100D01*
X133968600Y-33246100D02*
X126260500Y-33246100D01*
X126260500Y-33246100D02*
X125054200Y-34452400D01*
X125054200Y-34452400D02*
X115647100Y-34452400D01*
X115647100Y-34452400D02*
X114004300Y-32809600D01*
X114004300Y-32809600D02*
X107452200Y-32809600D01*
X107452200Y-32809600D02*
X105828800Y-34433000D01*
X105828800Y-34433000D02*
X97106500Y-34433000D01*
X97106500Y-34433000D02*
X95512900Y-32839400D01*
X95512900Y-32839400D02*
X88372400Y-32839400D01*
X88372400Y-32839400D02*
X86750300Y-34461500D01*
X86750300Y-34461500D02*
X79526100Y-34461500D01*
X79526100Y-34461500D02*
X77912700Y-32848100D01*
X77912700Y-32848100D02*
X69449200Y-32848100D01*
X69449200Y-32848100D02*
X68857100Y-33440200D01*
X68857100Y-33440200D02*
X68857100Y-38381500D01*
X68857100Y-38381500D02*
X70737900Y-40262300D01*
X70737900Y-40262300D02*
X70737900Y-45225500D01*
X166176000Y-35133900D02*
X164575700Y-35133900D01*
%TO.N,Net-(D44-Pad1)*%
X83715800Y-68125300D02*
X82959900Y-68881200D01*
X82959900Y-68881200D02*
X82959900Y-78282100D01*
X82959900Y-78282100D02*
X77408200Y-83833800D01*
X77408200Y-83833800D02*
X77408200Y-93737200D01*
X77408200Y-93737200D02*
X77045800Y-94099600D01*
X77045800Y-94099600D02*
X77045800Y-100196800D01*
X77045800Y-100196800D02*
X81243000Y-104394000D01*
X175828000Y-54229000D02*
X175828000Y-55804300D01*
X175828000Y-55804300D02*
X175706100Y-55804300D01*
X175706100Y-55804300D02*
X163385100Y-68125300D01*
%TO.N,Net-(D45-Pad1)*%
X131806400Y-108032600D02*
X134843600Y-104995400D01*
X134843600Y-104995400D02*
X147493900Y-104995400D01*
X147493900Y-104995400D02*
X152461300Y-100028000D01*
X152461300Y-100028000D02*
X158306300Y-100028000D01*
X158306300Y-100028000D02*
X162519100Y-95815200D01*
X162519100Y-95815200D02*
X162519100Y-95257900D01*
X162519100Y-95257900D02*
X165212000Y-92565000D01*
X165212000Y-92565000D02*
X167344300Y-92565000D01*
X167344300Y-92565000D02*
X168692100Y-91217200D01*
X168692100Y-91217200D02*
X168692100Y-89989300D01*
X168692100Y-89989300D02*
X180273000Y-78408400D01*
X180273000Y-78408400D02*
X180273000Y-73279000D01*
%TO.N,Net-(D46-Pad1)*%
X171002000Y-90753700D02*
X181823000Y-79932700D01*
X181823000Y-79932700D02*
X181823000Y-77234100D01*
X181823000Y-77234100D02*
X181521800Y-76932900D01*
X181521800Y-76932900D02*
X181521800Y-75094600D01*
X181521800Y-75094600D02*
X181876200Y-74740200D01*
X181876200Y-74740200D02*
X181876200Y-72799500D01*
X181876200Y-72799500D02*
X194031900Y-60643800D01*
X194031900Y-60643800D02*
X205306700Y-60643800D01*
X205306700Y-60643800D02*
X211369500Y-54581000D01*
X211369500Y-54581000D02*
X211369500Y-53063300D01*
X211369500Y-53063300D02*
X213758400Y-50674400D01*
X213758400Y-50674400D02*
X214096100Y-50674400D01*
X251597800Y-47180500D02*
X248899300Y-49879000D01*
X248899300Y-49879000D02*
X248899300Y-50329400D01*
X171002000Y-92329000D02*
X171002000Y-90753700D01*
%TO.N,Net-(D47-Pad1)*%
X221431000Y-111496000D02*
X211016600Y-111496000D01*
X211016600Y-111496000D02*
X205483700Y-105963100D01*
%TO.N,Net-(D48-Pad1)*%
X196612400Y-104280400D02*
X197217800Y-103675000D01*
X197217800Y-103675000D02*
X222758000Y-103675000D01*
X222758000Y-103675000D02*
X223740000Y-104657000D01*
X223740000Y-104657000D02*
X231074200Y-104657000D01*
X231074200Y-104657000D02*
X231700700Y-104030500D01*
X231700700Y-104030500D02*
X231700700Y-102339800D01*
X231700700Y-102339800D02*
X226514300Y-97153400D01*
X226514300Y-97153400D02*
X226514300Y-90845800D01*
X226514300Y-90845800D02*
X235232100Y-82128000D01*
X235232100Y-82128000D02*
X235232100Y-65421200D01*
X235232100Y-65421200D02*
X242903800Y-57749500D01*
X242903800Y-57749500D02*
X242903800Y-55836200D01*
X242903800Y-55836200D02*
X240799000Y-53731400D01*
X240799000Y-53731400D02*
X240799000Y-48258200D01*
X240799000Y-48258200D02*
X242376000Y-46681200D01*
X242376000Y-46681200D02*
X242376000Y-36709200D01*
X242376000Y-35133900D02*
X242376000Y-36709200D01*
%TO.N,Net-(D49-Pad1)*%
X220107900Y-49206300D02*
X215531200Y-53783000D01*
X215531200Y-53783000D02*
X215531200Y-55684200D01*
X215531200Y-55684200D02*
X206675500Y-64539900D01*
X206675500Y-64539900D02*
X206675500Y-64896900D01*
X206675500Y-64896900D02*
X200762000Y-70810400D01*
X200762000Y-70810400D02*
X200216300Y-70810400D01*
X200216300Y-70810400D02*
X199323000Y-71703700D01*
X199323000Y-73279000D02*
X199323000Y-71703700D01*
%TO.N,Net-(D50-Pad1)*%
X190052000Y-93904300D02*
X185930800Y-98025500D01*
X98759300Y-104296400D02*
X101217600Y-104296400D01*
X101217600Y-104296400D02*
X107488500Y-98025500D01*
X190052000Y-92329000D02*
X190052000Y-93904300D01*
%TO.N,Net-(D51-Pad1)*%
X211026900Y-105737900D02*
X214199300Y-108910300D01*
X214199300Y-108910300D02*
X225199500Y-108910300D01*
X225199500Y-108910300D02*
X227096800Y-110807600D01*
X227096800Y-110807600D02*
X231072500Y-110807600D01*
X231072500Y-110807600D02*
X233068600Y-112803700D01*
X233068600Y-112803700D02*
X251797000Y-112803700D01*
X251797000Y-112803700D02*
X253104700Y-111496000D01*
X254705000Y-111496000D02*
X253104700Y-111496000D01*
%TO.N,Net-(D52-Pad1)*%
X261426000Y-36709200D02*
X260539900Y-36709200D01*
X260539900Y-36709200D02*
X257563500Y-39685600D01*
X257563500Y-39685600D02*
X257563500Y-44415600D01*
X257563500Y-44415600D02*
X259097700Y-45949800D01*
X259097700Y-45949800D02*
X259097700Y-46898500D01*
X259097700Y-46898500D02*
X257941300Y-48054900D01*
X257941300Y-48054900D02*
X252386200Y-48054900D01*
X252386200Y-48054900D02*
X250074900Y-50366200D01*
X250074900Y-50366200D02*
X250074900Y-50816500D01*
X250074900Y-50816500D02*
X249424700Y-51466700D01*
X249424700Y-51466700D02*
X249424700Y-52769600D01*
X249424700Y-52769600D02*
X248326100Y-53868200D01*
X248326100Y-53868200D02*
X248100700Y-53868200D01*
X248100700Y-53868200D02*
X247450400Y-54518500D01*
X247450400Y-54518500D02*
X247450400Y-60141200D01*
X247450400Y-60141200D02*
X235749500Y-71842100D01*
X235749500Y-71842100D02*
X235749500Y-84697000D01*
X235749500Y-84697000D02*
X234146500Y-86300000D01*
X101159700Y-102832100D02*
X109436100Y-94555700D01*
X109436100Y-94555700D02*
X109436100Y-93105000D01*
X261426000Y-35133900D02*
X261426000Y-36709200D01*
%TO.N,Net-(D53-Pad1)*%
X182196300Y-49250600D02*
X182196300Y-52360500D01*
X182196300Y-52360500D02*
X183645000Y-53809200D01*
X183645000Y-53809200D02*
X183724700Y-53809200D01*
X183724700Y-53809200D02*
X185725100Y-55809600D01*
X185725100Y-55809600D02*
X185725100Y-57764100D01*
X185725100Y-57764100D02*
X179727700Y-63761500D01*
X179727700Y-63761500D02*
X179375500Y-63761500D01*
X179375500Y-63761500D02*
X178788800Y-64348200D01*
X178788800Y-64348200D02*
X178788800Y-65078400D01*
X178788800Y-65078400D02*
X180247000Y-66536600D01*
X180247000Y-66536600D02*
X180247000Y-68056100D01*
X180247000Y-68056100D02*
X177182100Y-71121000D01*
X177182100Y-71121000D02*
X177182100Y-77550200D01*
X177182100Y-77550200D02*
X166981500Y-87750800D01*
X162713200Y-92881300D02*
X162068800Y-93525700D01*
X162068800Y-93525700D02*
X162068800Y-95628600D01*
X162068800Y-95628600D02*
X158147000Y-99550400D01*
X158147000Y-99550400D02*
X149040100Y-99550400D01*
X149040100Y-99550400D02*
X144322400Y-104268100D01*
X185226000Y-35133900D02*
X185226000Y-39193900D01*
X185226000Y-39193900D02*
X191339700Y-45307600D01*
X191339700Y-45307600D02*
X193173800Y-45307600D01*
X193173800Y-45307600D02*
X193173800Y-45307700D01*
%TO.N,Net-(D54-Pad1)*%
X194878000Y-54229000D02*
X194878000Y-51513700D01*
X194878000Y-51513700D02*
X193355500Y-49991200D01*
%TO.N,Net-(D55-Pad1)*%
X202903000Y-47363300D02*
X202628000Y-47638300D01*
X202628000Y-47638300D02*
X199574900Y-47638300D01*
X199574900Y-47638300D02*
X199574900Y-47638400D01*
X199574900Y-47638400D02*
X199124700Y-48088600D01*
X199124700Y-48088600D02*
X198523800Y-48088600D01*
X198523800Y-48088600D02*
X198205100Y-47769900D01*
X198205100Y-47769900D02*
X196591100Y-47769900D01*
X196591100Y-47769900D02*
X195995800Y-48365200D01*
X195995800Y-48365200D02*
X190229800Y-48365200D01*
X190229800Y-48365200D02*
X190186200Y-48408800D01*
X190186200Y-48408800D02*
X187508000Y-48408800D01*
X187508000Y-48408800D02*
X186697400Y-47598200D01*
X186697400Y-47598200D02*
X179738600Y-47598200D01*
X179738600Y-47598200D02*
X178440700Y-48896100D01*
X178440700Y-48896100D02*
X171793100Y-48896100D01*
X171793100Y-48896100D02*
X170873100Y-47976100D01*
X204276000Y-35133900D02*
X204276000Y-36907300D01*
X204276000Y-36907300D02*
X211038100Y-43669400D01*
X211038100Y-43669400D02*
X218749800Y-43669400D01*
%TO.N,Net-(D56-Pad1)*%
X213928000Y-55804300D02*
X213664300Y-55804300D01*
X213664300Y-55804300D02*
X201061400Y-68407200D01*
X201061400Y-68407200D02*
X190092200Y-68407200D01*
X190092200Y-68407200D02*
X188065100Y-70434300D01*
X188065100Y-70434300D02*
X188065100Y-72170500D01*
X188065100Y-72170500D02*
X183287800Y-76947800D01*
X183287800Y-76947800D02*
X183287800Y-79216300D01*
X183287800Y-79216300D02*
X172605200Y-89898900D01*
X172605200Y-89898900D02*
X172605200Y-93751000D01*
X172605200Y-93751000D02*
X162076800Y-104279400D01*
X162076800Y-104279400D02*
X162076800Y-104286700D01*
X213928000Y-54229000D02*
X213928000Y-55804300D01*
%TO.N,Net-(D57-Pad1)*%
X218373000Y-74854300D02*
X217085300Y-74854300D01*
X217085300Y-74854300D02*
X206641400Y-85298200D01*
X104495300Y-103190200D02*
X110161400Y-97524100D01*
X110161400Y-97524100D02*
X110161400Y-91962400D01*
X110161400Y-91962400D02*
X113434900Y-88688900D01*
X218373000Y-73279000D02*
X218373000Y-74854300D01*
%TO.N,Net-(D58-Pad1)*%
X209102000Y-93904300D02*
X207457700Y-93904300D01*
X207457700Y-93904300D02*
X199768300Y-101593700D01*
X209102000Y-92329000D02*
X209102000Y-93904300D01*
%TO.N,Net-(D59-Pad1)*%
X349830900Y-107040700D02*
X349830900Y-65436500D01*
X349830900Y-65436500D02*
X349917300Y-65350100D01*
X349917300Y-65350100D02*
X349917300Y-58591100D01*
X349917300Y-58591100D02*
X353155500Y-55352900D01*
X353155500Y-55352900D02*
X353155500Y-53428900D01*
X353155500Y-53428900D02*
X358906700Y-47677700D01*
X358906700Y-47677700D02*
X369827300Y-47677700D01*
X369827300Y-47677700D02*
X370578500Y-46926500D01*
X276285000Y-111506000D02*
X276285000Y-113307700D01*
X276285000Y-113307700D02*
X281316000Y-118338700D01*
X281316000Y-118338700D02*
X297842400Y-118338700D01*
X297842400Y-118338700D02*
X300976400Y-121472700D01*
X300976400Y-121472700D02*
X347827900Y-121472700D01*
X347827900Y-121472700D02*
X357073500Y-112227100D01*
X357073500Y-112227100D02*
X357073500Y-108560900D01*
X357073500Y-108560900D02*
X356268200Y-107755600D01*
%TO.N,Net-(D61-Pad1)*%
X229734200Y-101522200D02*
X226032000Y-97820000D01*
X226032000Y-97820000D02*
X226032000Y-89852800D01*
X226032000Y-89852800D02*
X234781800Y-81103000D01*
X234781800Y-81103000D02*
X234781800Y-64590800D01*
X234781800Y-64590800D02*
X235257800Y-64114800D01*
X235257800Y-64114800D02*
X235257800Y-58632800D01*
X235257800Y-58632800D02*
X240036600Y-53854000D01*
X240036600Y-53854000D02*
X240036600Y-48383700D01*
X240036600Y-48383700D02*
X241551600Y-46868700D01*
X241551600Y-46868700D02*
X241551600Y-46186100D01*
X241551600Y-46186100D02*
X235358700Y-39993200D01*
X235358700Y-39993200D02*
X226428500Y-39993200D01*
X226428500Y-39993200D02*
X223326000Y-36890700D01*
X223326000Y-36890700D02*
X223326000Y-35133900D01*
%TO.N,Net-(D62-Pad1)*%
X351469000Y-73025000D02*
X351469000Y-67491500D01*
X351469000Y-67491500D02*
X363715800Y-55244700D01*
X363715800Y-55244700D02*
X363715800Y-50002100D01*
X363715800Y-50002100D02*
X365589800Y-48128100D01*
X365589800Y-48128100D02*
X370383600Y-48128100D01*
X370383600Y-48128100D02*
X371148000Y-48892500D01*
X371148000Y-48892500D02*
X374345600Y-48892500D01*
X374345600Y-48892500D02*
X375386300Y-47851800D01*
%TO.N,Net-(D63-Pad1)*%
X164086200Y-103295800D02*
X169181600Y-98200400D01*
X169181600Y-98200400D02*
X171829000Y-98200400D01*
X171829000Y-98200400D02*
X177972000Y-92057400D01*
X177972000Y-92057400D02*
X177972000Y-88960000D01*
X177972000Y-88960000D02*
X192269800Y-74662200D01*
X192269800Y-74662200D02*
X192269800Y-69585700D01*
X192269800Y-69585700D02*
X192997900Y-68857600D01*
X192997900Y-68857600D02*
X201643600Y-68857600D01*
X201643600Y-68857600D02*
X205950200Y-64551000D01*
X271078000Y-55804300D02*
X266723500Y-60158800D01*
X266723500Y-60158800D02*
X266723500Y-64520000D01*
X271078000Y-54229000D02*
X271078000Y-55804300D01*
%TO.N,Net-(D64-Pad1)*%
X370519000Y-71449700D02*
X368683300Y-69614000D01*
X368683300Y-69614000D02*
X368683300Y-51172700D01*
X368683300Y-51172700D02*
X366879500Y-49368900D01*
X366879500Y-49368900D02*
X366092100Y-49368900D01*
X370519000Y-73025000D02*
X370519000Y-71449700D01*
%TO.N,Net-(D65-Pad1)*%
X237423000Y-73279000D02*
X237423000Y-84049300D01*
X237423000Y-84049300D02*
X234439800Y-87032500D01*
X234439800Y-87032500D02*
X233453400Y-87032500D01*
X141169300Y-92082000D02*
X139583400Y-90496100D01*
X139583400Y-90496100D02*
X131665300Y-90496100D01*
X131665300Y-90496100D02*
X129283400Y-92878000D01*
X129283400Y-92878000D02*
X129283400Y-98335800D01*
X129283400Y-98335800D02*
X122313900Y-105305300D01*
X122313900Y-105305300D02*
X122313900Y-105319300D01*
%TO.N,Net-(D66-Pad1)*%
X256473000Y-71703700D02*
X257139900Y-71036800D01*
X257139900Y-71036800D02*
X257139900Y-69139200D01*
X329148800Y-66566800D02*
X329148800Y-67749500D01*
X329148800Y-67749500D02*
X325348700Y-71549600D01*
X256473000Y-73279000D02*
X256473000Y-71703700D01*
X385126900Y-46926500D02*
X385126900Y-47610300D01*
X385126900Y-47610300D02*
X386439300Y-48922700D01*
X386439300Y-48922700D02*
X386439300Y-57821200D01*
X386439300Y-57821200D02*
X379342100Y-64918400D01*
X379342100Y-64918400D02*
X379342100Y-66566800D01*
%TO.N,Net-(D67-Pad1)*%
X155134700Y-104154900D02*
X156972900Y-104154900D01*
X156972900Y-104154900D02*
X169142400Y-91985400D01*
X169142400Y-91985400D02*
X169142400Y-90175900D01*
X169142400Y-90175900D02*
X181051600Y-78266700D01*
X287598000Y-73269000D02*
X276230200Y-73269000D01*
X276230200Y-73269000D02*
X271139500Y-78359700D01*
%TO.N,Net-(D68-Pad1)*%
X327080600Y-52614000D02*
X327080600Y-49139800D01*
X327080600Y-49139800D02*
X330186400Y-46034000D01*
X294837000Y-52659900D02*
X295100100Y-52396800D01*
X295100100Y-52396800D02*
X302840800Y-52396800D01*
X302840800Y-52396800D02*
X303977500Y-53533500D01*
X303977500Y-53533500D02*
X311452400Y-53533500D01*
X311452400Y-53533500D02*
X311827500Y-53158400D01*
X294837000Y-54235200D02*
X294837000Y-52659900D01*
%TO.N,Net-(D69-Pad1)*%
X342544400Y-100773500D02*
X340362500Y-102955400D01*
X340362500Y-102955400D02*
X339708600Y-102955400D01*
X339708600Y-102955400D02*
X333652000Y-96898800D01*
X333652000Y-96898800D02*
X333652000Y-93874500D01*
X333652000Y-93874500D02*
X334019400Y-93507100D01*
X334019400Y-93507100D02*
X334019400Y-90474900D01*
X334019400Y-90474900D02*
X332419000Y-88874500D01*
X332419000Y-88874500D02*
X332419000Y-73025000D01*
%TO.N,Net-(D70-Pad1)*%
X241340200Y-112069800D02*
X243778700Y-109631300D01*
X243778700Y-109631300D02*
X260281900Y-109631300D01*
X260281900Y-109631300D02*
X261907200Y-111256600D01*
X261907200Y-111256600D02*
X270621700Y-111256600D01*
X270621700Y-111256600D02*
X272243300Y-109635000D01*
X272243300Y-109635000D02*
X281851100Y-109635000D01*
X281851100Y-109635000D02*
X283712100Y-111496000D01*
X283712100Y-111496000D02*
X297758000Y-111496000D01*
%TO.N,Net-(D71-Pad1)*%
X351469000Y-52399700D02*
X351879500Y-52399700D01*
X351879500Y-52399700D02*
X354669600Y-49609600D01*
X351469000Y-53975000D02*
X351469000Y-52399700D01*
%TO.N,Net-(D72-Pad1)*%
X332419000Y-52399700D02*
X333938000Y-50880700D01*
X333938000Y-50880700D02*
X333938000Y-47093500D01*
X333938000Y-47093500D02*
X333504200Y-46659700D01*
X333504200Y-46659700D02*
X332946700Y-46659700D01*
X332946700Y-46659700D02*
X332206600Y-47399800D01*
X332419000Y-53975000D02*
X332419000Y-52399700D01*
%TO.N,Net-(Backspace1-Pad2)*%
X372918800Y-48151500D02*
X372918800Y-48037400D01*
X372918800Y-48037400D02*
X353953600Y-29072200D01*
X353953600Y-29072200D02*
X328058600Y-29072200D01*
X328058600Y-29072200D02*
X327608300Y-29522500D01*
X327608300Y-29522500D02*
X313949900Y-29522500D01*
X313949900Y-29522500D02*
X308588400Y-34884000D01*
X308588400Y-34884000D02*
X297508400Y-34884000D01*
X297508400Y-34884000D02*
X295908200Y-33283800D01*
X295908200Y-33283800D02*
X292978000Y-33283800D01*
X292978000Y-33283800D02*
X291611300Y-34650500D01*
X291611300Y-34650500D02*
X291611300Y-35140100D01*
X290011000Y-35140100D02*
X291611300Y-35140100D01*
%TO.N,Net-(D73-Pad1)*%
X351469000Y-36500300D02*
X348377800Y-39591500D01*
X348377800Y-39591500D02*
X348377800Y-61334500D01*
X348377800Y-61334500D02*
X348016400Y-61695900D01*
X348016400Y-61695900D02*
X348016400Y-65163400D01*
X348016400Y-65163400D02*
X348377800Y-65524800D01*
X348377800Y-65524800D02*
X348377800Y-100244700D01*
X348377800Y-100244700D02*
X347123700Y-101498800D01*
X351469000Y-34925000D02*
X351469000Y-36500300D01*
%TO.N,Net-(D74-Pad1)*%
X351469000Y-92075000D02*
X351469000Y-106442400D01*
X351469000Y-106442400D02*
X347751000Y-110160400D01*
X347751000Y-110160400D02*
X344851900Y-110160400D01*
X344851900Y-110160400D02*
X344387800Y-109696300D01*
X344387800Y-109696300D02*
X344387800Y-105292400D01*
X344387800Y-105292400D02*
X342095200Y-102999800D01*
%TO.N,Net-(CAPS1-Pad2)*%
X40044500Y-71693700D02*
X38932600Y-70581800D01*
X38932600Y-70581800D02*
X38932600Y-56029000D01*
X38932600Y-56029000D02*
X39265200Y-55696400D01*
X39265200Y-55696400D02*
X39265200Y-53462500D01*
X39265200Y-53462500D02*
X44133500Y-48594200D01*
X40044500Y-73269000D02*
X40044500Y-71693700D01*
%TO.N,Net-(D75-Pad1)*%
X332419000Y-34925000D02*
X332419000Y-42153300D01*
X332419000Y-42153300D02*
X336879100Y-46613400D01*
X336879100Y-46613400D02*
X336879100Y-50496300D01*
X336879100Y-50496300D02*
X334019400Y-53356000D01*
X334019400Y-53356000D02*
X334019400Y-55670500D01*
X334019400Y-55670500D02*
X333669900Y-56020000D01*
X333669900Y-56020000D02*
X333669900Y-60909800D01*
X333669900Y-60909800D02*
X334019300Y-61259200D01*
X334019300Y-61259200D02*
X334019300Y-74409800D01*
X334019300Y-74409800D02*
X333652500Y-74776600D01*
X333652500Y-74776600D02*
X333652500Y-77880400D01*
X333652500Y-77880400D02*
X338036400Y-82264300D01*
X338036400Y-82264300D02*
X338036400Y-93231600D01*
X338036400Y-93231600D02*
X337650700Y-93617300D01*
X337650700Y-93617300D02*
X337650700Y-99871800D01*
X337650700Y-99871800D02*
X340008900Y-102230000D01*
%TO.N,Net-(D76-Pad1)*%
X389569000Y-112700300D02*
X388295400Y-112700300D01*
X388295400Y-112700300D02*
X384989900Y-116005800D01*
X384989900Y-116005800D02*
X364739000Y-116005800D01*
X364739000Y-116005800D02*
X358490200Y-109757000D01*
X358490200Y-109757000D02*
X358490200Y-107858300D01*
X358490200Y-107858300D02*
X354241600Y-103609700D01*
X354241600Y-103609700D02*
X353722500Y-103609700D01*
X389569000Y-111125000D02*
X389569000Y-112700300D01*
%TO.N,Net-(D77-Pad1)*%
X370519000Y-53975000D02*
X370519000Y-57968300D01*
X370519000Y-57968300D02*
X372122200Y-59571500D01*
X372122200Y-59571500D02*
X372122200Y-74486200D01*
X372122200Y-74486200D02*
X368721800Y-77886600D01*
X368721800Y-77886600D02*
X368721800Y-94159000D01*
X368721800Y-94159000D02*
X361506400Y-101374400D01*
X361506400Y-101374400D02*
X361506400Y-103492500D01*
X361506400Y-103492500D02*
X362326900Y-104313000D01*
X362326900Y-104313000D02*
X362754600Y-104313000D01*
%TO.N,Net-(D78-Pad1)*%
X370519000Y-92075000D02*
X370519000Y-93650300D01*
X370519000Y-93650300D02*
X362246300Y-101923000D01*
X362246300Y-101923000D02*
X362246300Y-103162900D01*
%TO.N,Net-(D79-Pad1)*%
X387968700Y-92075000D02*
X377046400Y-102997300D01*
X377046400Y-102997300D02*
X374516000Y-102997300D01*
X389569000Y-92075000D02*
X387968700Y-92075000D01*
%TO.N,Net-(D80-Pad1)*%
X372562900Y-104139600D02*
X372562900Y-96714700D01*
X372562900Y-96714700D02*
X377603300Y-91674300D01*
X377603300Y-91674300D02*
X377603300Y-82073600D01*
X377603300Y-82073600D02*
X381057100Y-78619800D01*
X381057100Y-78619800D02*
X381057100Y-75867000D01*
X381057100Y-75867000D02*
X382540700Y-74383400D01*
X382540700Y-74383400D02*
X382540700Y-68191600D01*
X382540700Y-68191600D02*
X387339900Y-63392400D01*
X387339900Y-63392400D02*
X387339900Y-48549500D01*
X387339900Y-48549500D02*
X386666500Y-47876100D01*
X386666500Y-47876100D02*
X386666500Y-42895400D01*
X386666500Y-42895400D02*
X389569000Y-39992900D01*
X389569000Y-39992900D02*
X389569000Y-34925000D01*
%TO.N,Net-(D81-Pad1)*%
X370519000Y-34925000D02*
X370519000Y-36701700D01*
X370519000Y-36701700D02*
X373855200Y-40037900D01*
X373855200Y-40037900D02*
X375998900Y-40037900D01*
X375998900Y-40037900D02*
X385989000Y-50028000D01*
X385989000Y-50028000D02*
X385989000Y-57245800D01*
X385989000Y-57245800D02*
X378616800Y-64618000D01*
X378616800Y-64618000D02*
X378616800Y-72141700D01*
X378616800Y-72141700D02*
X380447500Y-73972400D01*
X380447500Y-73972400D02*
X380447500Y-76476600D01*
X380447500Y-76476600D02*
X372122200Y-84801900D01*
X372122200Y-84801900D02*
X372122200Y-93536200D01*
X372122200Y-93536200D02*
X371809400Y-93849000D01*
X371809400Y-93849000D02*
X371809400Y-104419700D01*
X371809400Y-104419700D02*
X373490000Y-106100300D01*
X373490000Y-106100300D02*
X373599800Y-106100300D01*
%TO.N,Net-(D82-Pad1)*%
X370519000Y-111125000D02*
X372119300Y-111125000D01*
X372119300Y-111125000D02*
X372119300Y-110319500D01*
X372119300Y-110319500D02*
X377309400Y-105129400D01*
%TO.N,Net-(D83-Pad1)*%
X351469000Y-109549700D02*
X353437900Y-109549700D01*
X353437900Y-109549700D02*
X356296800Y-106690800D01*
X351469000Y-111125000D02*
X351469000Y-109549700D01*
%TO.N,Net-(D84-Pad1)*%
X334019300Y-111125000D02*
X334019300Y-98006500D01*
X334019300Y-98006500D02*
X330365800Y-94353000D01*
X330365800Y-94353000D02*
X330365800Y-50277900D01*
X330365800Y-50277900D02*
X333207000Y-47436700D01*
X332419000Y-111125000D02*
X334019300Y-111125000D01*
%TO.N,LED_GND*%
X80466100Y-63582300D02*
X81703600Y-64819800D01*
X81703600Y-64819800D02*
X81703600Y-77811000D01*
X81703600Y-77811000D02*
X79043000Y-80471600D01*
X249244100Y-80219500D02*
X249244100Y-80078200D01*
X249244100Y-80078200D02*
X252877800Y-76444500D01*
X252877800Y-76444500D02*
X252877800Y-72756200D01*
X252877800Y-72756200D02*
X253323600Y-72310400D01*
X253323600Y-72310400D02*
X253323600Y-69133500D01*
X253323600Y-69133500D02*
X250954600Y-66764500D01*
X250954600Y-66764500D02*
X250954600Y-63594400D01*
X250954600Y-63594400D02*
X250954500Y-63594400D01*
X175914200Y-43659700D02*
X177326100Y-45071600D01*
X177326100Y-45071600D02*
X178431800Y-45071600D01*
X238654100Y-63622100D02*
X243775000Y-58501200D01*
X243775000Y-58501200D02*
X243775000Y-55132800D01*
X243775000Y-55132800D02*
X245171900Y-53735900D01*
X245171900Y-53735900D02*
X245171900Y-45150900D01*
X245171900Y-45150900D02*
X246393400Y-43929400D01*
X317166900Y-79327500D02*
X317442000Y-79602600D01*
X317442000Y-79602600D02*
X317442000Y-87677300D01*
X317442000Y-87677300D02*
X318449000Y-88684300D01*
X360948700Y-81534000D02*
X353072200Y-89410500D01*
X353072200Y-89410500D02*
X353072200Y-93536200D01*
X353072200Y-93536200D02*
X352332200Y-94276200D01*
X352332200Y-94276200D02*
X352332200Y-100287800D01*
X352332200Y-100287800D02*
X352319500Y-100275100D01*
X318449000Y-88684300D02*
X317892300Y-89241000D01*
X317892300Y-89241000D02*
X317892300Y-99531500D01*
X317892300Y-99531500D02*
X317167000Y-100256800D01*
X80123200Y-41102700D02*
X82946700Y-43926200D01*
X82946700Y-43926200D02*
X83010800Y-43926200D01*
X83010800Y-43926200D02*
X83010800Y-43926300D01*
X389500600Y-63159300D02*
X387790200Y-61448900D01*
X387790200Y-61448900D02*
X387790200Y-45037800D01*
X387790200Y-45037800D02*
X387413800Y-44661400D01*
X361043400Y-81439300D02*
X361361600Y-81121100D01*
X361361600Y-81121100D02*
X361361600Y-73631300D01*
X361361600Y-73631300D02*
X359722700Y-71992400D01*
X359722700Y-71992400D02*
X359722700Y-65075300D01*
X359722700Y-65075300D02*
X361638700Y-63159300D01*
X360948700Y-81534000D02*
X361043400Y-81439300D01*
X361043400Y-81439300D02*
X362443900Y-82839900D01*
X320385000Y-88684300D02*
X318449000Y-88684300D01*
X325365200Y-63457500D02*
X325573100Y-63249600D01*
X325573100Y-63249600D02*
X328126600Y-63249600D01*
X320385000Y-89509600D02*
X320385000Y-88684300D01*
%TO.N,LED_5V*%
X314556900Y-41285700D02*
X314892100Y-41620900D01*
X314892100Y-41620900D02*
X314892100Y-54488800D01*
X314892100Y-54488800D02*
X315972000Y-55568700D01*
X303564800Y-117773600D02*
X304929800Y-117773600D01*
X304929800Y-117773600D02*
X310007600Y-112695800D01*
X310007600Y-112695800D02*
X310007600Y-107521100D01*
X310007600Y-107521100D02*
X310787000Y-106741700D01*
X310787000Y-106741700D02*
X313398300Y-106741700D01*
X313398300Y-106741700D02*
X320385000Y-99755000D01*
X320385000Y-99755000D02*
X320385000Y-98902800D01*
X228403900Y-79112500D02*
X230696900Y-81405500D01*
X230696900Y-81405500D02*
X230696900Y-81413900D01*
X131029400Y-99236400D02*
X130611000Y-99654800D01*
X130611000Y-99654800D02*
X130611000Y-109677100D01*
X130611000Y-109677100D02*
X134025900Y-113092000D01*
X219693100Y-42759600D02*
X216393200Y-42759600D01*
X216393200Y-42759600D02*
X214738700Y-41105100D01*
X386214100Y-41278400D02*
X385217900Y-41278400D01*
X385217900Y-41278400D02*
X379085200Y-35145700D01*
X379085200Y-35145700D02*
X377962400Y-35145700D01*
X377962400Y-35145700D02*
X375867900Y-33051200D01*
X375867900Y-33051200D02*
X369400100Y-33051200D01*
X369400100Y-33051200D02*
X368913700Y-33537600D01*
X368913700Y-33537600D02*
X368913700Y-41319400D01*
X368913700Y-41319400D02*
X369674200Y-42079900D01*
X385525400Y-60639200D02*
X386889600Y-59275000D01*
X386889600Y-59275000D02*
X386889600Y-48736100D01*
X386889600Y-48736100D02*
X386214100Y-48060600D01*
X386214100Y-48060600D02*
X386214100Y-41278400D01*
X389927800Y-80623800D02*
X389034900Y-79730900D01*
X389034900Y-79730900D02*
X389034900Y-78234100D01*
X130673800Y-41178900D02*
X131535300Y-41178900D01*
X131535300Y-41178900D02*
X133496000Y-43139600D01*
X320385000Y-98902800D02*
X320385000Y-97954900D01*
X320385000Y-98902800D02*
X328121100Y-98902800D01*
X320385000Y-97129600D02*
X320385000Y-97954900D01*
%TO.N,TEENSY_GND*%
X321157400Y-70716500D02*
X320432100Y-71441800D01*
X320432100Y-71441800D02*
X320432100Y-79687600D01*
X320432100Y-79687600D02*
X322493600Y-81749100D01*
X321924400Y-47455300D02*
X321432500Y-47947200D01*
X321432500Y-47947200D02*
X321432500Y-70441400D01*
X321432500Y-70441400D02*
X321157400Y-70716500D01*
X321924400Y-47455300D02*
X322125100Y-47254600D01*
X322125100Y-47254600D02*
X322125100Y-44843700D01*
X322125100Y-44843700D02*
X323297500Y-43671300D01*
X323297500Y-43671300D02*
X323297500Y-41317800D01*
X323297500Y-41317800D02*
X322832000Y-40852300D01*
X322832000Y-40852300D02*
X322298900Y-40852300D01*
X322298900Y-40852300D02*
X321075700Y-42075500D01*
X321075700Y-42075500D02*
X321075700Y-42312800D01*
X323249600Y-104500800D02*
X322502000Y-103753200D01*
X323249600Y-119074200D02*
X323249600Y-104500800D01*
X323249600Y-104500800D02*
X325121100Y-104500800D01*
X325121100Y-104500800D02*
X328866700Y-100755200D01*
X328866700Y-100755200D02*
X328866700Y-96124900D01*
X328866700Y-96124900D02*
X322515700Y-89773900D01*
%TO.N,ROW5*%
X320779700Y-38888600D02*
X321020000Y-39128900D01*
X321020000Y-39128900D02*
X321020000Y-41342800D01*
X321020000Y-41342800D02*
X320224100Y-42138700D01*
X320224100Y-42138700D02*
X320224100Y-44791500D01*
X320224100Y-44791500D02*
X319832200Y-45183400D01*
X319832200Y-45183400D02*
X319832200Y-68076200D01*
X319832200Y-68076200D02*
X319531500Y-68376900D01*
X319531500Y-68376900D02*
X319531500Y-69350900D01*
X319531500Y-69350900D02*
X319728200Y-69547600D01*
X319728200Y-69547600D02*
X319728200Y-70306100D01*
X319728200Y-70306100D02*
X319832200Y-70410100D01*
X319832200Y-70410100D02*
X319832200Y-81958900D01*
X319832200Y-81958900D02*
X322250900Y-84377600D01*
X322250900Y-84377600D02*
X325327600Y-84377600D01*
X325327600Y-84377600D02*
X328119400Y-87169400D01*
X284898200Y-54547800D02*
X288061100Y-54547800D01*
X288061100Y-54547800D02*
X297350900Y-45258000D01*
X297350900Y-45258000D02*
X300762000Y-45258000D01*
X300762000Y-45258000D02*
X311172200Y-34847800D01*
X311172200Y-34847800D02*
X317824000Y-34847800D01*
X317824000Y-34847800D02*
X320779700Y-37803500D01*
X320779700Y-37803500D02*
X320779700Y-38888600D01*
X265878000Y-51689000D02*
X265878000Y-64718700D01*
X265878000Y-64718700D02*
X270323000Y-69163700D01*
X284898200Y-54547800D02*
X284898200Y-57252500D01*
X284898200Y-57252500D02*
X283056200Y-59094500D01*
X283056200Y-59094500D02*
X274220100Y-59094500D01*
X274220100Y-59094500D02*
X272381800Y-57256200D01*
X272381800Y-57256200D02*
X272381800Y-56281800D01*
X272381800Y-56281800D02*
X272692200Y-55971400D01*
X272692200Y-55971400D02*
X272692200Y-52833400D01*
X272692200Y-52833400D02*
X271547800Y-51689000D01*
X271547800Y-51689000D02*
X265878000Y-51689000D01*
X346269000Y-108585000D02*
X346555100Y-108298900D01*
X346555100Y-108298900D02*
X346555100Y-105910400D01*
X346555100Y-105910400D02*
X346398300Y-105753600D01*
X346398300Y-105753600D02*
X346398300Y-96781600D01*
X346398300Y-96781600D02*
X346719300Y-96460600D01*
X346719300Y-96460600D02*
X346719300Y-91560600D01*
X346719300Y-91560600D02*
X346269000Y-91110300D01*
X346269000Y-53010300D02*
X347566100Y-54307400D01*
X347566100Y-54307400D02*
X347566100Y-65350000D01*
X347566100Y-65350000D02*
X347880300Y-65664200D01*
X347880300Y-65664200D02*
X347880300Y-86910800D01*
X347880300Y-86910800D02*
X347637100Y-87154000D01*
X270327500Y-78656700D02*
X270770400Y-79099600D01*
X270770400Y-79099600D02*
X287771900Y-79099600D01*
X287771900Y-79099600D02*
X296876000Y-88203700D01*
X270323000Y-70739000D02*
X270323000Y-78652200D01*
X270323000Y-78652200D02*
X270327500Y-78656700D01*
X270327500Y-78656700D02*
X261052000Y-87932200D01*
X261052000Y-87932200D02*
X261052000Y-88213700D01*
X261052000Y-87932200D02*
X254760600Y-87932200D01*
X254760600Y-87932200D02*
X254380000Y-88312800D01*
X242002000Y-89789000D02*
X242002000Y-88213700D01*
X242002000Y-88213700D02*
X242630500Y-88213700D01*
X242630500Y-88213700D02*
X242908400Y-87935800D01*
X256226000Y-32593900D02*
X256226000Y-31018600D01*
X275389200Y-32593900D02*
X273553200Y-30757900D01*
X273553200Y-30757900D02*
X256486700Y-30757900D01*
X256486700Y-30757900D02*
X256226000Y-31018600D01*
X276076200Y-32593900D02*
X276876300Y-32593900D01*
X275276000Y-32593900D02*
X275389200Y-32593900D01*
X276076200Y-32593900D02*
X275389200Y-32593900D01*
X346269000Y-52222600D02*
X346269000Y-51435000D01*
X346269000Y-52222600D02*
X346269000Y-53010300D01*
X347637100Y-87154000D02*
X347652500Y-87169400D01*
X346269000Y-87959700D02*
X347074700Y-87154000D01*
X347074700Y-87154000D02*
X347637100Y-87154000D01*
X384369000Y-89535000D02*
X384369000Y-87959700D01*
X383214300Y-87169400D02*
X384004600Y-87959700D01*
X384004600Y-87959700D02*
X384369000Y-87959700D01*
X256226000Y-32593900D02*
X256226000Y-40715700D01*
X256226000Y-40715700D02*
X246828000Y-50113700D01*
X296876000Y-89779000D02*
X296876000Y-88203700D01*
X303861000Y-34175400D02*
X303602800Y-34433600D01*
X303602800Y-34433600D02*
X297694900Y-34433600D01*
X297694900Y-34433600D02*
X296094800Y-32833500D01*
X296094800Y-32833500D02*
X279771600Y-32833500D01*
X279771600Y-32833500D02*
X279321300Y-33283800D01*
X279321300Y-33283800D02*
X279321300Y-52475400D01*
X279321300Y-52475400D02*
X281393700Y-54547800D01*
X281393700Y-54547800D02*
X284898200Y-54547800D01*
X346269000Y-89535000D02*
X346269000Y-91110300D01*
X384369000Y-89535000D02*
X386461800Y-89535000D01*
X386461800Y-89535000D02*
X403419000Y-72577800D01*
X403419000Y-72577800D02*
X403419000Y-70485000D01*
X346269000Y-89535000D02*
X346269000Y-87959700D01*
X279321300Y-33283800D02*
X277566200Y-33283800D01*
X277566200Y-33283800D02*
X276876300Y-32593900D01*
X261052000Y-89789000D02*
X261052000Y-88213700D01*
X246828000Y-51689000D02*
X246828000Y-50113700D01*
X270323000Y-70739000D02*
X270323000Y-69163700D01*
X303861000Y-32600100D02*
X303861000Y-34175400D01*
%TO.N,ROW2*%
X327779100Y-32226900D02*
X327779100Y-35121100D01*
X327779100Y-35121100D02*
X325919600Y-36980600D01*
X325919600Y-36980600D02*
X325919600Y-38891200D01*
X284928000Y-50113700D02*
X290234000Y-44807700D01*
X290234000Y-44807700D02*
X300575400Y-44807700D01*
X300575400Y-44807700D02*
X313156200Y-32226900D01*
X313156200Y-32226900D02*
X327779100Y-32226900D01*
X213173000Y-69163700D02*
X212922900Y-68913600D01*
X212922900Y-68913600D02*
X204827600Y-68913600D01*
X204827600Y-68913600D02*
X201132500Y-72608700D01*
X201132500Y-72608700D02*
X201132500Y-74533900D01*
X201132500Y-74533900D02*
X200804800Y-74861600D01*
X200804800Y-74861600D02*
X197097000Y-74861600D01*
X197097000Y-74861600D02*
X194549700Y-72314300D01*
X194549700Y-72314300D02*
X194123000Y-72314300D01*
X175073000Y-70345100D02*
X174899500Y-70171600D01*
X174899500Y-70171600D02*
X174899500Y-68083000D01*
X119505000Y-72404100D02*
X119341600Y-72567500D01*
X119341600Y-72567500D02*
X111558600Y-72567500D01*
X111558600Y-72567500D02*
X109730100Y-70739000D01*
X109730100Y-70739000D02*
X99127000Y-70739000D01*
X346269000Y-30809700D02*
X346157400Y-30698100D01*
X346157400Y-30698100D02*
X344389900Y-30698100D01*
X344389900Y-30698100D02*
X344235400Y-30543600D01*
X344235400Y-30543600D02*
X329462400Y-30543600D01*
X329462400Y-30543600D02*
X327779100Y-32226900D01*
X384369000Y-32385000D02*
X384369000Y-30809700D01*
X384369000Y-30809700D02*
X382793700Y-30809700D01*
X382793700Y-30809700D02*
X381252900Y-29268900D01*
X346269000Y-32385000D02*
X346269000Y-40712700D01*
X346269000Y-40712700D02*
X344660400Y-42321300D01*
X344660400Y-42321300D02*
X344660400Y-53914200D01*
X344660400Y-53914200D02*
X346269000Y-55522800D01*
X346269000Y-55522800D02*
X346269000Y-70485000D01*
X346269000Y-31597300D02*
X346269000Y-32385000D01*
X346269000Y-31597300D02*
X346269000Y-30809700D01*
X195723300Y-70739000D02*
X195723300Y-70017400D01*
X195723300Y-70017400D02*
X196000800Y-69739900D01*
X194123000Y-70739000D02*
X195723300Y-70739000D01*
X175073000Y-70345100D02*
X175073000Y-69951300D01*
X175073000Y-70739000D02*
X175073000Y-70345100D01*
X230324200Y-68911300D02*
X213425400Y-68911300D01*
X213425400Y-68911300D02*
X213173000Y-69163700D01*
X232223000Y-69163700D02*
X231970600Y-68911300D01*
X231970600Y-68911300D02*
X230324200Y-68911300D01*
X230324200Y-68911300D02*
X230324200Y-58978900D01*
X119777300Y-70739000D02*
X119777300Y-72131800D01*
X119777300Y-72131800D02*
X119505000Y-72404100D01*
X143776200Y-71426600D02*
X143776200Y-74708300D01*
X143776200Y-74708300D02*
X140325800Y-78158700D01*
X140325800Y-78158700D02*
X125259600Y-78158700D01*
X125259600Y-78158700D02*
X119505000Y-72404100D01*
X99127000Y-70739000D02*
X99127000Y-69163700D01*
X99127000Y-69163700D02*
X98876900Y-68913600D01*
X98876900Y-68913600D02*
X93418900Y-68913600D01*
X93418900Y-68913600D02*
X92860100Y-69472400D01*
X284928000Y-51689000D02*
X284928000Y-50113700D01*
X53894500Y-70729000D02*
X53894500Y-69153700D01*
X80077000Y-69163700D02*
X78501700Y-69163700D01*
X78501700Y-69163700D02*
X77313900Y-67975900D01*
X80077000Y-70739000D02*
X80077000Y-69163700D01*
X53894500Y-69153700D02*
X54490300Y-68557900D01*
X54490300Y-68557900D02*
X54490300Y-67975900D01*
X284928000Y-51689000D02*
X283327700Y-51689000D01*
X283327700Y-51689000D02*
X283327700Y-52984700D01*
X283327700Y-52984700D02*
X282504900Y-53807500D01*
X194123000Y-70739000D02*
X194123000Y-72314300D01*
X137227000Y-70739000D02*
X143088600Y-70739000D01*
X143088600Y-70739000D02*
X143776200Y-71426600D01*
X143776200Y-71426600D02*
X148086100Y-71426600D01*
X148086100Y-71426600D02*
X149232000Y-72572500D01*
X149232000Y-72572500D02*
X153366200Y-72572500D01*
X153366200Y-72572500D02*
X155686800Y-74893100D01*
X155686800Y-74893100D02*
X162641400Y-74893100D01*
X162641400Y-74893100D02*
X162835000Y-74699500D01*
X162835000Y-74699500D02*
X162835000Y-69163700D01*
X175073000Y-69951300D02*
X174006200Y-68884500D01*
X174006200Y-68884500D02*
X163114200Y-68884500D01*
X163114200Y-68884500D02*
X162835000Y-69163700D01*
X162835000Y-69163700D02*
X156023000Y-69163700D01*
X156023000Y-70739000D02*
X156023000Y-69163700D01*
X118177000Y-70739000D02*
X119777300Y-70739000D01*
X213173000Y-70739000D02*
X213173000Y-69163700D01*
X232223000Y-70739000D02*
X232223000Y-69163700D01*
%TO.N,COL0*%
X281164800Y-46066900D02*
X284248100Y-42983600D01*
X284248100Y-42983600D02*
X301762600Y-42983600D01*
X301762600Y-42983600D02*
X314323000Y-30423200D01*
X314323000Y-30423200D02*
X328206700Y-30423200D01*
X328206700Y-30423200D02*
X328657100Y-29972800D01*
X328657100Y-29972800D02*
X346869300Y-29972800D01*
X346869300Y-29972800D02*
X347918700Y-31022200D01*
X347918700Y-31022200D02*
X347918700Y-34647100D01*
X347918700Y-34647100D02*
X346909800Y-35656000D01*
X346909800Y-35656000D02*
X346909800Y-41494500D01*
X346909800Y-41494500D02*
X346683200Y-41721100D01*
X346683200Y-41721100D02*
X346683200Y-44038000D01*
X346683200Y-44038000D02*
X347063700Y-44418500D01*
X263582900Y-49860700D02*
X263953400Y-50231200D01*
X263953400Y-50231200D02*
X263953400Y-55683700D01*
X263953400Y-55683700D02*
X258073400Y-61563700D01*
X258073400Y-61563700D02*
X258073400Y-74711100D01*
X258073400Y-74711100D02*
X255079600Y-77704900D01*
X255079600Y-77704900D02*
X255079600Y-85560700D01*
X255079600Y-85560700D02*
X248805200Y-91835100D01*
X248805200Y-91835100D02*
X248805200Y-94076600D01*
X248805200Y-94076600D02*
X241337600Y-101544200D01*
X241337600Y-101544200D02*
X241337600Y-102274700D01*
X241337600Y-102274700D02*
X237524900Y-106087400D01*
X237524900Y-106087400D02*
X237524900Y-106912300D01*
X237524900Y-106912300D02*
X237996000Y-107383400D01*
X237996000Y-107383400D02*
X238603900Y-107383400D01*
X238603900Y-107383400D02*
X239028700Y-106958600D01*
X239028700Y-106958600D02*
X239028700Y-106294200D01*
X239028700Y-106294200D02*
X240649400Y-104673500D01*
X240649400Y-104673500D02*
X241102800Y-104673500D01*
X136345900Y-49165200D02*
X137840400Y-50659700D01*
X137840400Y-50659700D02*
X137840400Y-51066200D01*
X261606600Y-47447200D02*
X261606600Y-47884400D01*
X261606600Y-47884400D02*
X263582900Y-49860700D01*
%TO.N,COL1*%
X321399800Y-44731300D02*
X321399800Y-46506800D01*
X321399800Y-46506800D02*
X320982200Y-46924400D01*
X320982200Y-46924400D02*
X320982200Y-68588800D01*
X320982200Y-68588800D02*
X320707100Y-68863900D01*
X233881200Y-67553800D02*
X233881200Y-72089300D01*
X233881200Y-72089300D02*
X233352300Y-72618200D01*
X233352300Y-72618200D02*
X232550300Y-72618200D01*
X232550300Y-72618200D02*
X225131300Y-80037200D01*
X225131300Y-80037200D02*
X225131300Y-100925400D01*
X225131300Y-100925400D02*
X227239900Y-103034000D01*
X188210200Y-46782900D02*
X195667400Y-46782900D01*
X195667400Y-46782900D02*
X196262700Y-46187600D01*
X196262700Y-46187600D02*
X225947300Y-46187600D01*
X225947300Y-46187600D02*
X230155400Y-50395700D01*
X230155400Y-50395700D02*
X230155400Y-56018400D01*
X230155400Y-56018400D02*
X233881200Y-59744200D01*
X233881200Y-59744200D02*
X233881200Y-67553800D01*
X233881200Y-67553800D02*
X232088100Y-67553800D01*
X232088100Y-67553800D02*
X231756100Y-67221800D01*
X69944600Y-47139800D02*
X70458000Y-47653200D01*
X70458000Y-47653200D02*
X75988400Y-47653200D01*
X75988400Y-47653200D02*
X76445900Y-48110700D01*
X76445900Y-48110700D02*
X81184600Y-48110700D01*
X135164600Y-45865000D02*
X134265400Y-44965800D01*
X134265400Y-44965800D02*
X123779700Y-44965800D01*
X123779700Y-44965800D02*
X123489400Y-45256100D01*
X123489400Y-45256100D02*
X117652800Y-45256100D01*
X117652800Y-45256100D02*
X117369100Y-44972400D01*
X117369100Y-44972400D02*
X95437700Y-44972400D01*
X95437700Y-44972400D02*
X94153900Y-46256200D01*
X188210200Y-46782900D02*
X187674600Y-46247300D01*
X187674600Y-46247300D02*
X168920100Y-46247300D01*
X168920100Y-46247300D02*
X166955000Y-48212400D01*
X166955000Y-48212400D02*
X151615800Y-48212400D01*
X151615800Y-48212400D02*
X149268400Y-45865000D01*
X149268400Y-45865000D02*
X135164600Y-45865000D01*
%TO.N,COL2*%
X178677600Y-46992300D02*
X178972300Y-46697600D01*
X178972300Y-46697600D02*
X187070800Y-46697600D01*
X187070800Y-46697600D02*
X187881400Y-47508200D01*
X187881400Y-47508200D02*
X189343900Y-47508200D01*
X189343900Y-47508200D02*
X189387500Y-47464600D01*
X189387500Y-47464600D02*
X195622600Y-47464600D01*
X195622600Y-47464600D02*
X196449200Y-46638000D01*
X196449200Y-46638000D02*
X225760800Y-46638000D01*
X225760800Y-46638000D02*
X229705100Y-50582300D01*
X229705100Y-50582300D02*
X229705100Y-56205000D01*
X229705100Y-56205000D02*
X233282700Y-59782600D01*
X233282700Y-59782600D02*
X233282700Y-66639300D01*
X233282700Y-66639300D02*
X233144000Y-66778000D01*
X299530400Y-66778000D02*
X312552900Y-53755500D01*
X312552900Y-53755500D02*
X312552900Y-51634500D01*
X312552900Y-51634500D02*
X312276000Y-51357600D01*
X299530400Y-66778000D02*
X299530400Y-74625700D01*
X299530400Y-74625700D02*
X299006400Y-75149700D01*
X299006400Y-75149700D02*
X299006400Y-94746400D01*
X299006400Y-94746400D02*
X290758000Y-102994800D01*
X290758000Y-102994800D02*
X290758000Y-105469000D01*
%TO.N,COL3*%
X324913000Y-73291600D02*
X324159900Y-72538500D01*
X324159900Y-72538500D02*
X324159900Y-60587700D01*
X324159900Y-60587700D02*
X325904900Y-58842700D01*
X325904900Y-58842700D02*
X325904900Y-51660000D01*
X325904900Y-51660000D02*
X326089100Y-51475800D01*
X326089100Y-51475800D02*
X326089100Y-46926300D01*
X326089100Y-46926300D02*
X327384400Y-45631000D01*
X245495900Y-104230200D02*
X245495900Y-105100900D01*
X245495900Y-105100900D02*
X241640800Y-108956000D01*
X241640800Y-108956000D02*
X238926400Y-108956000D01*
X238926400Y-108956000D02*
X237040100Y-107069700D01*
X237040100Y-107069700D02*
X237040100Y-105860500D01*
X237040100Y-105860500D02*
X239886900Y-103013700D01*
X239886900Y-103013700D02*
X239886900Y-100897000D01*
X239886900Y-100897000D02*
X244682600Y-96101300D01*
X244682600Y-96101300D02*
X244682600Y-85806800D01*
X244682600Y-85806800D02*
X253085600Y-77403800D01*
X253085600Y-77403800D02*
X253085600Y-77262400D01*
X253085600Y-77262400D02*
X253328100Y-77019900D01*
X253328100Y-77019900D02*
X253328100Y-72942800D01*
X253328100Y-72942800D02*
X253773900Y-72497000D01*
X253773900Y-72497000D02*
X253773900Y-68946900D01*
X253773900Y-68946900D02*
X252552300Y-67725300D01*
X252552300Y-67725300D02*
X252552300Y-56737200D01*
X252552300Y-56737200D02*
X253631200Y-55658300D01*
X253631200Y-55658300D02*
X253631200Y-50562500D01*
X253631200Y-50562500D02*
X252605100Y-49536400D01*
X172118000Y-48149800D02*
X178550100Y-48149800D01*
X178550100Y-48149800D02*
X179552000Y-47147900D01*
X179552000Y-47147900D02*
X186884000Y-47147900D01*
X186884000Y-47147900D02*
X187694600Y-47958500D01*
X187694600Y-47958500D02*
X189530500Y-47958500D01*
X189530500Y-47958500D02*
X189574100Y-47914900D01*
X189574100Y-47914900D02*
X195809200Y-47914900D01*
X195809200Y-47914900D02*
X196429700Y-47294400D01*
X196429700Y-47294400D02*
X198755300Y-47294400D01*
X198755300Y-47294400D02*
X198824200Y-47363300D01*
%TO.N,COL4*%
X325363800Y-51175300D02*
X325363800Y-58746900D01*
X325363800Y-58746900D02*
X323684000Y-60426700D01*
X323684000Y-60426700D02*
X323684000Y-82881000D01*
X323684000Y-82881000D02*
X322862800Y-83702200D01*
X322862800Y-83702200D02*
X322212400Y-83702200D01*
X322212400Y-83702200D02*
X321209600Y-82699400D01*
X321209600Y-82699400D02*
X321209600Y-81743400D01*
X241751000Y-83083500D02*
X241751000Y-83802900D01*
X241751000Y-83083500D02*
X236420500Y-88414000D01*
X236420500Y-88414000D02*
X236420500Y-90816900D01*
X236420500Y-90816900D02*
X238513400Y-92909800D01*
X238513400Y-92909800D02*
X238513400Y-101368500D01*
X238513400Y-101368500D02*
X238260900Y-101621000D01*
X251826000Y-50277700D02*
X251826000Y-50339200D01*
X251826000Y-50339200D02*
X250325300Y-51839900D01*
X250325300Y-51839900D02*
X250325300Y-53331900D01*
X250325300Y-53331900D02*
X249427800Y-54229400D01*
X249427800Y-54229400D02*
X249427800Y-74563300D01*
X249427800Y-74563300D02*
X247302300Y-76688800D01*
X247302300Y-76688800D02*
X247302300Y-77532200D01*
X247302300Y-77532200D02*
X241751000Y-83083500D01*
%TO.N,COL5*%
X234368800Y-58630300D02*
X234532500Y-58466600D01*
X230942400Y-103762800D02*
X225581700Y-98402100D01*
X225581700Y-98402100D02*
X225581700Y-89441200D01*
X225581700Y-89441200D02*
X234331500Y-80691400D01*
X234331500Y-80691400D02*
X234331500Y-64015300D01*
X234331500Y-64015300D02*
X234368600Y-63978200D01*
X234368600Y-63978200D02*
X234368600Y-58630500D01*
X234368600Y-58630500D02*
X234368800Y-58630300D01*
X234368800Y-58630300D02*
X231056000Y-55317600D01*
X231056000Y-55317600D02*
X231056000Y-46493500D01*
X231056000Y-46493500D02*
X230229400Y-45666900D01*
X148219300Y-105319400D02*
X157500300Y-105319400D01*
X157500300Y-105319400D02*
X158103700Y-104716000D01*
X158103700Y-104716000D02*
X161379400Y-104716000D01*
X161379400Y-104716000D02*
X161689200Y-105025800D01*
X161689200Y-105025800D02*
X163382000Y-105025800D01*
X163382000Y-105025800D02*
X166409000Y-101998800D01*
X166409000Y-101998800D02*
X193097000Y-101998800D01*
X193097000Y-101998800D02*
X194283200Y-103185000D01*
X194283200Y-103185000D02*
X194884100Y-103185000D01*
X194884100Y-103185000D02*
X195345200Y-102723900D01*
X195345200Y-102723900D02*
X223858400Y-102723900D01*
X223858400Y-102723900D02*
X224897300Y-103762800D01*
X224897300Y-103762800D02*
X230942400Y-103762800D01*
X230229400Y-45666900D02*
X230229400Y-45034800D01*
X230229400Y-45034800D02*
X230684800Y-44579400D01*
X230684800Y-44579400D02*
X231288400Y-44579400D01*
X231288400Y-44579400D02*
X233771000Y-47062000D01*
X230229400Y-45666900D02*
X194439800Y-45666900D01*
X194439800Y-45666900D02*
X194049200Y-46057500D01*
X194049200Y-46057500D02*
X190888300Y-46057500D01*
X190888300Y-46057500D02*
X190627800Y-45797000D01*
X190627800Y-45797000D02*
X172601400Y-45797000D01*
X172601400Y-45797000D02*
X172289700Y-45485300D01*
X118547600Y-44522000D02*
X85130800Y-44522000D01*
X85130800Y-44522000D02*
X83410200Y-46242600D01*
%TO.N,COL6*%
X234872300Y-53097400D02*
X234872300Y-52522200D01*
X234872300Y-52522200D02*
X240826300Y-46568200D01*
X132161100Y-94191600D02*
X129805500Y-96547200D01*
X129805500Y-96547200D02*
X129805500Y-104535200D01*
X129805500Y-104535200D02*
X129484000Y-104856700D01*
X145806800Y-48209200D02*
X145587200Y-47989600D01*
X145587200Y-47989600D02*
X126542600Y-47989600D01*
X126542600Y-47989600D02*
X125962000Y-48570200D01*
X125962000Y-48570200D02*
X120045100Y-48570200D01*
X120045100Y-48570200D02*
X119876700Y-48401800D01*
X169691300Y-86575100D02*
X177632400Y-78634000D01*
X177632400Y-78634000D02*
X177632400Y-71307600D01*
X177632400Y-71307600D02*
X186977600Y-61962400D01*
X186977600Y-61962400D02*
X186977600Y-59139500D01*
X145806800Y-48209200D02*
X146069800Y-48209200D01*
X146069800Y-48209200D02*
X146086600Y-48192400D01*
X145806800Y-48209200D02*
X145806800Y-50375700D01*
%TO.N,COL7*%
X54930900Y-49107000D02*
X54930900Y-58935700D01*
X54930900Y-58935700D02*
X59190000Y-63194800D01*
X59190000Y-63194800D02*
X59190000Y-76863100D01*
X59190000Y-76863100D02*
X66525200Y-84198300D01*
X66525200Y-84198300D02*
X66525200Y-91046300D01*
X66525200Y-91046300D02*
X78671700Y-103192800D01*
X255629400Y-48783200D02*
X255351400Y-48505200D01*
X255351400Y-48505200D02*
X252572800Y-48505200D01*
X252572800Y-48505200D02*
X250525200Y-50552800D01*
X250525200Y-50552800D02*
X250525200Y-51003100D01*
X250525200Y-51003100D02*
X249875000Y-51653300D01*
X249875000Y-51653300D02*
X249875000Y-53106800D01*
X249875000Y-53106800D02*
X248977400Y-54004400D01*
X248977400Y-54004400D02*
X248977400Y-64051500D01*
X248977400Y-64051500D02*
X243761600Y-69267300D01*
X243761600Y-69267300D02*
X243761600Y-73714400D01*
X243761600Y-73714400D02*
X242489100Y-74986900D01*
X242489100Y-74986900D02*
X242489100Y-79620100D01*
X242489100Y-79620100D02*
X235964100Y-86145100D01*
X235964100Y-86145100D02*
X235964100Y-91222300D01*
X235964100Y-91222300D02*
X238035800Y-93294000D01*
X238035800Y-93294000D02*
X238035800Y-97061700D01*
X238035800Y-97061700D02*
X236380000Y-98717500D01*
X236380000Y-98717500D02*
X236379900Y-98717500D01*
X236379900Y-98717500D02*
X236379900Y-104371100D01*
X236379900Y-104371100D02*
X235159900Y-105591100D01*
X235159900Y-105591100D02*
X221417200Y-105591100D01*
X221417200Y-105591100D02*
X220336500Y-104510400D01*
X220336500Y-104510400D02*
X199183800Y-104510400D01*
X165248000Y-109933500D02*
X169560000Y-105621500D01*
X169560000Y-105621500D02*
X198072700Y-105621500D01*
X198072700Y-105621500D02*
X199183800Y-104510400D01*
%TO.N,COL8*%
X280680200Y-67935400D02*
X280680200Y-62954400D01*
X280680200Y-62954400D02*
X295352800Y-48281800D01*
X218149500Y-58484800D02*
X226517400Y-66852700D01*
X223762900Y-48549300D02*
X221550300Y-50761900D01*
X221550300Y-50761900D02*
X221550300Y-53309600D01*
X221550300Y-53309600D02*
X218149500Y-56710400D01*
X218149500Y-56710400D02*
X218149500Y-58484800D01*
X218149500Y-58484800D02*
X214045600Y-58484800D01*
X214045600Y-58484800D02*
X200994700Y-71535700D01*
X194881400Y-73671800D02*
X194881400Y-75544100D01*
X194881400Y-75544100D02*
X183248800Y-87176700D01*
X183248800Y-87176700D02*
X183248800Y-92284600D01*
X183248800Y-92284600D02*
X184973200Y-94009000D01*
X184973200Y-94009000D02*
X184973200Y-98158200D01*
X184973200Y-98158200D02*
X185565900Y-98750900D01*
X185565900Y-98750900D02*
X190874800Y-98750900D01*
X190874800Y-98750900D02*
X194583600Y-102459700D01*
X158146200Y-105786300D02*
X158737800Y-105194700D01*
X158737800Y-105194700D02*
X160995900Y-105194700D01*
X160995900Y-105194700D02*
X161291400Y-105490200D01*
X161291400Y-105490200D02*
X164107200Y-105490200D01*
X164107200Y-105490200D02*
X166873300Y-102724100D01*
X166873300Y-102724100D02*
X182945800Y-102724100D01*
%TO.N,COL9*%
X322572100Y-41631000D02*
X322572100Y-42267900D01*
X322572100Y-42267900D02*
X320674400Y-44165600D01*
X320674400Y-44165600D02*
X320674400Y-45228400D01*
X320674400Y-45228400D02*
X320282500Y-45620300D01*
X320282500Y-45620300D02*
X320282500Y-68262800D01*
X320282500Y-68262800D02*
X319981800Y-68563500D01*
X319981800Y-68563500D02*
X319981800Y-69164300D01*
X319981800Y-69164300D02*
X320453500Y-69636000D01*
X320453500Y-69636000D02*
X320453500Y-70005700D01*
X179474500Y-67357700D02*
X177089700Y-64972900D01*
X177089700Y-64972900D02*
X177089700Y-56031700D01*
X177089700Y-56031700D02*
X177431200Y-55690200D01*
X177431200Y-55690200D02*
X177431200Y-52321100D01*
X177431200Y-52321100D02*
X180279000Y-49473300D01*
X179474500Y-67357700D02*
X176731800Y-70100400D01*
X176731800Y-70100400D02*
X176731800Y-76211600D01*
X176731800Y-76211600D02*
X165093600Y-87849800D01*
X142784000Y-102727900D02*
X142784000Y-100096400D01*
X142784000Y-100096400D02*
X150052700Y-92827700D01*
X331137900Y-41631000D02*
X336150900Y-46644000D01*
X336150900Y-46644000D02*
X336150900Y-49094900D01*
%TO.N,COL10*%
X236448500Y-97623200D02*
X235806800Y-98264900D01*
X235806800Y-98264900D02*
X235806800Y-104307300D01*
X235806800Y-104307300D02*
X234979700Y-105134400D01*
X234979700Y-105134400D02*
X222326700Y-105134400D01*
X222326700Y-105134400D02*
X221636100Y-104443800D01*
X300176900Y-97623200D02*
X313903800Y-83896300D01*
X313903800Y-83896300D02*
X313903800Y-43825000D01*
X313903800Y-43825000D02*
X313903700Y-43825000D01*
X313903700Y-43825000D02*
X312931000Y-42852300D01*
X312931000Y-42852300D02*
X312931000Y-38733600D01*
X312931000Y-38733600D02*
X315465900Y-36198700D01*
X315465900Y-36198700D02*
X317039400Y-36198700D01*
X317039400Y-36198700D02*
X318773400Y-37932700D01*
X318773400Y-37932700D02*
X318773400Y-44029300D01*
X318773400Y-44029300D02*
X319048500Y-44304400D01*
X366910400Y-46632600D02*
X360652000Y-40374200D01*
X123767700Y-104877200D02*
X128561100Y-109670600D01*
%TO.N,COL11*%
X347516200Y-46906100D02*
X347516200Y-45935300D01*
X347516200Y-45935300D02*
X345743700Y-44162800D01*
X170789400Y-107328700D02*
X171194600Y-107733900D01*
X171194600Y-107733900D02*
X176836100Y-107733900D01*
X176836100Y-107733900D02*
X181958300Y-112856100D01*
X181958300Y-112856100D02*
X188678200Y-112856100D01*
X188678200Y-112856100D02*
X192201300Y-116379200D01*
X192201300Y-116379200D02*
X198985000Y-116379200D01*
X198985000Y-116379200D02*
X200710600Y-114653600D01*
X200710600Y-114653600D02*
X200710600Y-114066900D01*
X200710600Y-114066900D02*
X204024200Y-110753300D01*
X204024200Y-110753300D02*
X205488000Y-110753300D01*
X205488000Y-110753300D02*
X205883400Y-110357900D01*
X205883400Y-110357900D02*
X205883400Y-108646900D01*
X205883400Y-108646900D02*
X206398200Y-108132100D01*
X206398200Y-108132100D02*
X207015800Y-108132100D01*
X207015800Y-108132100D02*
X218865400Y-119981700D01*
X218865400Y-119981700D02*
X298345400Y-119981700D01*
X298345400Y-119981700D02*
X300343700Y-121980000D01*
X300343700Y-121980000D02*
X371434300Y-121980000D01*
X371434300Y-121980000D02*
X375914900Y-117499400D01*
X375914900Y-117499400D02*
X384451400Y-117499400D01*
X384451400Y-117499400D02*
X386532400Y-115418400D01*
X386532400Y-115418400D02*
X392011300Y-115418400D01*
X392011300Y-115418400D02*
X396083900Y-111345800D01*
X396083900Y-111345800D02*
X403717700Y-111345800D01*
X403717700Y-111345800D02*
X405792900Y-109270600D01*
X405792900Y-109270600D02*
X405792900Y-104204000D01*
X356843300Y-41208300D02*
X352354100Y-45697500D01*
X352354100Y-45697500D02*
X352354100Y-46926500D01*
X405792900Y-104204000D02*
X405792900Y-50053400D01*
X405792900Y-50053400D02*
X402948600Y-47209100D01*
%TO.N,COL12*%
X325388200Y-45472500D02*
X327221000Y-43639700D01*
X327221000Y-43639700D02*
X327221000Y-36953000D01*
X327221000Y-36953000D02*
X330824400Y-33349600D01*
X330824400Y-33349600D02*
X333913900Y-33349600D01*
X333913900Y-33349600D02*
X334022200Y-33457900D01*
X334022200Y-33457900D02*
X334022200Y-36354300D01*
X334022200Y-36354300D02*
X333694300Y-36682200D01*
X333694300Y-36682200D02*
X333694300Y-41247200D01*
X333694300Y-41247200D02*
X338009900Y-45562800D01*
X338009900Y-45562800D02*
X338009900Y-55158100D01*
X338009900Y-55158100D02*
X337625100Y-55542900D01*
X337625100Y-55542900D02*
X337625100Y-70622700D01*
X337625100Y-70622700D02*
X338011000Y-71008600D01*
X338011000Y-71008600D02*
X338011000Y-74207000D01*
X338011000Y-74207000D02*
X337652800Y-74565200D01*
X337652800Y-74565200D02*
X337652800Y-80925600D01*
X337652800Y-80925600D02*
X340140900Y-83413700D01*
X340140900Y-83413700D02*
X340140900Y-91360400D01*
X340140900Y-91360400D02*
X343309000Y-94528500D01*
X343309000Y-94528500D02*
X343309000Y-101042600D01*
X343309000Y-101042600D02*
X342525800Y-101825800D01*
X342525800Y-101825800D02*
X342208400Y-101825800D01*
X342208400Y-101825800D02*
X339830200Y-104204000D01*
X339830200Y-104204000D02*
X339363200Y-104204000D01*
%TO.N,COL13*%
X326060700Y-43663600D02*
X326670300Y-43054000D01*
X326670300Y-43054000D02*
X326670300Y-36866800D01*
X326670300Y-36866800D02*
X330684300Y-32852800D01*
X330684300Y-32852800D02*
X336695100Y-32852800D01*
X336695100Y-32852800D02*
X337994700Y-34152400D01*
X337994700Y-34152400D02*
X337994700Y-36123300D01*
X337994700Y-36123300D02*
X337643600Y-36474400D01*
X337643600Y-36474400D02*
X337643600Y-42053100D01*
X337643600Y-42053100D02*
X342074000Y-46483500D01*
X345829800Y-106230800D02*
X345829800Y-96713200D01*
X345829800Y-96713200D02*
X346268900Y-96274100D01*
X346268900Y-96274100D02*
X346268900Y-93874800D01*
X346268900Y-93874800D02*
X344663600Y-92269500D01*
X344663600Y-92269500D02*
X344663600Y-78162600D01*
X344663600Y-78162600D02*
X346269100Y-76557100D01*
X346269100Y-76557100D02*
X346269100Y-75111500D01*
X346269100Y-75111500D02*
X344665800Y-73508200D01*
X344665800Y-73508200D02*
X344665800Y-57909800D01*
X344665800Y-57909800D02*
X340609800Y-53853800D01*
X340609800Y-53853800D02*
X340609800Y-47947700D01*
X340609800Y-47947700D02*
X342074000Y-46483500D01*
%TO.N,/RGB/INPUT*%
X314556900Y-40243200D02*
X314556900Y-39099200D01*
X314556900Y-39099200D02*
X315989200Y-37666900D01*
X315989200Y-37666900D02*
X316554900Y-37666900D01*
X316554900Y-37666900D02*
X317331000Y-38443000D01*
X317331000Y-38443000D02*
X317331000Y-50187800D01*
X317331000Y-50187800D02*
X318057600Y-50914400D01*
X318057600Y-50914400D02*
X318057600Y-62047700D01*
X318057600Y-62047700D02*
X316917500Y-63187800D01*
X316917500Y-63187800D02*
X316917500Y-66185400D01*
X316917500Y-66185400D02*
X317892300Y-67160200D01*
X317892300Y-67160200D02*
X317892300Y-67468500D01*
X317892300Y-67468500D02*
X317730300Y-67630500D01*
X317730300Y-67630500D02*
X317730300Y-70097300D01*
X317730300Y-70097300D02*
X317892300Y-70259300D01*
X317892300Y-70259300D02*
X317892300Y-84508600D01*
X317892300Y-84508600D02*
X321223700Y-87840000D01*
X321223700Y-87840000D02*
X321223700Y-89940900D01*
X321223700Y-89940900D02*
X320385000Y-90779600D01*
%TO.N,ROW0*%
X313003200Y-45631000D02*
X313003200Y-44198300D01*
X313003200Y-44198300D02*
X312030400Y-43225500D01*
X312030400Y-43225500D02*
X312030400Y-36149700D01*
X312030400Y-36149700D02*
X312091600Y-36088500D01*
X313003200Y-45631000D02*
X313003200Y-57598500D01*
X313003200Y-57598500D02*
X301448000Y-69153700D01*
X313003200Y-45631000D02*
X312728100Y-45631000D01*
X237176000Y-31018600D02*
X236912700Y-30755300D01*
X236912700Y-30755300D02*
X223267500Y-30755300D01*
X223267500Y-30755300D02*
X223267500Y-30753100D01*
X223267500Y-30753100D02*
X222842700Y-30328300D01*
X222842700Y-30328300D02*
X222241800Y-30328300D01*
X222241800Y-30328300D02*
X221816900Y-30753200D01*
X221816900Y-30753200D02*
X221816900Y-30755300D01*
X221816900Y-30755300D02*
X218389300Y-30755300D01*
X218389300Y-30755300D02*
X218126000Y-31018600D01*
X403419000Y-87959700D02*
X405045500Y-86333200D01*
X405045500Y-86333200D02*
X405045500Y-50056600D01*
X405045500Y-50056600D02*
X404717800Y-49728900D01*
X404717800Y-49728900D02*
X401193000Y-49728900D01*
X401193000Y-49728900D02*
X390816400Y-39352300D01*
X390816400Y-39352300D02*
X390816400Y-36710100D01*
X390816400Y-36710100D02*
X391172200Y-36354300D01*
X391172200Y-36354300D02*
X391172200Y-33457900D01*
X391172200Y-33457900D02*
X391063900Y-33349600D01*
X391063900Y-33349600D02*
X386969000Y-33349600D01*
X386969000Y-33349600D02*
X386054800Y-34263800D01*
X386054800Y-34263800D02*
X378794800Y-34263800D01*
X378794800Y-34263800D02*
X376916000Y-32385000D01*
X376916000Y-32385000D02*
X365319000Y-32385000D01*
X309335600Y-33109900D02*
X308890700Y-33109900D01*
X308890700Y-33109900D02*
X304599200Y-28818400D01*
X304599200Y-28818400D02*
X239376200Y-28818400D01*
X239376200Y-28818400D02*
X237176000Y-31018600D01*
X365319000Y-30809700D02*
X362198200Y-27688900D01*
X362198200Y-27688900D02*
X315146600Y-27688900D01*
X315146600Y-27688900D02*
X309725600Y-33109900D01*
X309725600Y-33109900D02*
X309335600Y-33109900D01*
X309335600Y-33109900D02*
X309335600Y-33110000D01*
X365319000Y-32385000D02*
X365319000Y-30809700D01*
X403419000Y-89535000D02*
X403419000Y-87959700D01*
X65726000Y-31018600D02*
X65432100Y-30724700D01*
X65432100Y-30724700D02*
X46890200Y-30724700D01*
X46890200Y-30724700D02*
X46596300Y-31018600D01*
X46596300Y-32593900D02*
X46596300Y-31018600D01*
X84776000Y-31018600D02*
X84519200Y-30761800D01*
X84519200Y-30761800D02*
X65982800Y-30761800D01*
X65982800Y-30761800D02*
X65726000Y-31018600D01*
X65726000Y-32593900D02*
X65726000Y-31018600D01*
X103826000Y-31018600D02*
X103532100Y-30724700D01*
X103532100Y-30724700D02*
X85069900Y-30724700D01*
X85069900Y-30724700D02*
X84776000Y-31018600D01*
X84776000Y-32593900D02*
X84776000Y-31018600D01*
X122876000Y-31018600D02*
X122619200Y-30761800D01*
X122619200Y-30761800D02*
X104082800Y-30761800D01*
X104082800Y-30761800D02*
X103826000Y-31018600D01*
X103826000Y-32593900D02*
X103826000Y-31018600D01*
X141926000Y-31018600D02*
X141632000Y-30724600D01*
X141632000Y-30724600D02*
X123170000Y-30724600D01*
X123170000Y-30724600D02*
X122876000Y-31018600D01*
X122876000Y-32593900D02*
X122876000Y-31018600D01*
X160976000Y-31018600D02*
X160719100Y-30761700D01*
X160719100Y-30761700D02*
X142182900Y-30761700D01*
X142182900Y-30761700D02*
X141926000Y-31018600D01*
X141926000Y-32593900D02*
X141926000Y-31018600D01*
X180026000Y-31018600D02*
X179731800Y-30724400D01*
X179731800Y-30724400D02*
X161270200Y-30724400D01*
X161270200Y-30724400D02*
X160976000Y-31018600D01*
X160976000Y-32593900D02*
X160976000Y-31018600D01*
X199076000Y-31018600D02*
X198818400Y-30761000D01*
X198818400Y-30761000D02*
X180283600Y-30761000D01*
X180283600Y-30761000D02*
X180026000Y-31018600D01*
X180026000Y-32593900D02*
X180026000Y-31018600D01*
X218126000Y-31018600D02*
X217830000Y-30722600D01*
X217830000Y-30722600D02*
X199372000Y-30722600D01*
X199372000Y-30722600D02*
X199076000Y-31018600D01*
X199076000Y-32593900D02*
X199076000Y-31018600D01*
X218126000Y-32593900D02*
X218126000Y-31018600D01*
X237176000Y-32593900D02*
X237176000Y-31018600D01*
X301448000Y-70729000D02*
X301448000Y-69153700D01*
%TO.N,ROW3*%
X298692800Y-98433500D02*
X298692800Y-98045500D01*
X298692800Y-98045500D02*
X313453500Y-83284800D01*
X313453500Y-83284800D02*
X313453500Y-44011700D01*
X313453500Y-44011700D02*
X312480700Y-43038900D01*
X312480700Y-43038900D02*
X312480700Y-38547000D01*
X312480700Y-38547000D02*
X315279300Y-35748400D01*
X315279300Y-35748400D02*
X317315100Y-35748400D01*
X317315100Y-35748400D02*
X319235900Y-37669200D01*
X319235900Y-37669200D02*
X319235900Y-40402600D01*
X319235900Y-40402600D02*
X319686200Y-40852900D01*
X222647600Y-91668700D02*
X224230800Y-93251900D01*
X224230800Y-93251900D02*
X224230800Y-98433500D01*
X146752000Y-88213700D02*
X147002100Y-87963600D01*
X147002100Y-87963600D02*
X163931700Y-87963600D01*
X163931700Y-87963600D02*
X164969400Y-89001300D01*
X164969400Y-89001300D02*
X165802000Y-89001300D01*
X165802000Y-88213700D02*
X166418700Y-88213700D01*
X166418700Y-88213700D02*
X166681100Y-88476100D01*
X166681100Y-88476100D02*
X167282000Y-88476100D01*
X167282000Y-88476100D02*
X167836400Y-87921700D01*
X167836400Y-87921700D02*
X167992700Y-87921700D01*
X374770700Y-104365500D02*
X374770700Y-106005600D01*
X374770700Y-106005600D02*
X373822300Y-106954000D01*
X373822300Y-106954000D02*
X370514600Y-106954000D01*
X370514600Y-106954000D02*
X367004800Y-110463800D01*
X367004800Y-110463800D02*
X360828200Y-110463800D01*
X360828200Y-110463800D02*
X358940600Y-108576200D01*
X358940600Y-108576200D02*
X358940600Y-107671800D01*
X358940600Y-107671800D02*
X354153000Y-102884200D01*
X354153000Y-102884200D02*
X353333100Y-102884200D01*
X353333100Y-102884200D02*
X352790900Y-103426400D01*
X352790900Y-103426400D02*
X352790900Y-106770200D01*
X352790900Y-106770200D02*
X349708700Y-109852400D01*
X349708700Y-109852400D02*
X349708700Y-110748100D01*
X349708700Y-110748100D02*
X344113600Y-116343200D01*
X344113600Y-116343200D02*
X343106700Y-116343200D01*
X343106700Y-116343200D02*
X338877800Y-120572100D01*
X338877800Y-120572100D02*
X317660000Y-120572100D01*
X317660000Y-120572100D02*
X311608000Y-114520100D01*
X58687500Y-89779000D02*
X58687500Y-91354300D01*
X61253800Y-92345300D02*
X60262800Y-91354300D01*
X60262800Y-91354300D02*
X58687500Y-91354300D01*
X89602000Y-88629600D02*
X88748400Y-87776000D01*
X88748400Y-87776000D02*
X88748400Y-87296400D01*
X89602000Y-88629600D02*
X89602000Y-88213700D01*
X89602000Y-89045500D02*
X89602000Y-88629600D01*
X374770700Y-104365500D02*
X381724800Y-104365500D01*
X381724800Y-104365500D02*
X384369000Y-107009700D01*
X389576400Y-69994000D02*
X391172200Y-71589900D01*
X391172200Y-71589900D02*
X391172200Y-74486200D01*
X391172200Y-74486200D02*
X382765800Y-82892600D01*
X382765800Y-82892600D02*
X382765800Y-86592200D01*
X382765800Y-86592200D02*
X382489000Y-86869000D01*
X382489000Y-86869000D02*
X382489000Y-93621500D01*
X382489000Y-93621500D02*
X373762200Y-102348300D01*
X373762200Y-102348300D02*
X373762200Y-103357000D01*
X373762200Y-103357000D02*
X374770700Y-104365500D01*
X311608000Y-114520100D02*
X307629000Y-118499100D01*
X307629000Y-118499100D02*
X303002300Y-118499100D01*
X303002300Y-118499100D02*
X299047600Y-114544400D01*
X299047600Y-114544400D02*
X299047600Y-113270800D01*
X299047600Y-113270800D02*
X299419700Y-112898700D01*
X299419700Y-112898700D02*
X299419700Y-99160400D01*
X299419700Y-99160400D02*
X298692800Y-98433500D01*
X311608000Y-110531300D02*
X311608000Y-114520100D01*
X389576400Y-69994000D02*
X389123200Y-70447200D01*
X389123200Y-70447200D02*
X386278100Y-70447200D01*
X386278100Y-70447200D02*
X386240300Y-70485000D01*
X386240300Y-70485000D02*
X384369000Y-70485000D01*
X89602000Y-89045500D02*
X89602000Y-89789000D01*
X127702000Y-88213700D02*
X127451900Y-87963600D01*
X127451900Y-87963600D02*
X108902100Y-87963600D01*
X108902100Y-87963600D02*
X108652000Y-88213700D01*
X146752000Y-88213700D02*
X146501900Y-87963600D01*
X146501900Y-87963600D02*
X127952100Y-87963600D01*
X127952100Y-87963600D02*
X127702000Y-88213700D01*
X184996300Y-88069400D02*
X184848600Y-87921700D01*
X165802000Y-89001300D02*
X165802000Y-88213700D01*
X184996300Y-88069400D02*
X184852000Y-88213700D01*
X203902000Y-88213700D02*
X203638300Y-87950000D01*
X203638300Y-87950000D02*
X185115700Y-87950000D01*
X185115700Y-87950000D02*
X184996300Y-88069400D01*
X222647600Y-91668700D02*
X216155400Y-91668700D01*
X216155400Y-91668700D02*
X214275700Y-89789000D01*
X214275700Y-89789000D02*
X203902000Y-89789000D01*
X222952000Y-91364300D02*
X222647600Y-91668700D01*
X389576400Y-69994000D02*
X400510200Y-59060200D01*
X400510200Y-59060200D02*
X400510200Y-55919100D01*
X400510200Y-55919100D02*
X403419000Y-53010300D01*
X384369000Y-108585000D02*
X384369000Y-107009700D01*
X311608000Y-108956000D02*
X311608000Y-110531300D01*
X89602000Y-88213700D02*
X89852100Y-87963600D01*
X89852100Y-87963600D02*
X108401900Y-87963600D01*
X108401900Y-87963600D02*
X108652000Y-88213700D01*
X165802000Y-89789000D02*
X165802000Y-89001300D01*
X203902000Y-89789000D02*
X203902000Y-88213700D01*
X403419000Y-110160300D02*
X403154300Y-110425000D01*
X403154300Y-110425000D02*
X398486000Y-110425000D01*
X398486000Y-110425000D02*
X396646000Y-108585000D01*
X396646000Y-108585000D02*
X385969300Y-108585000D01*
X384369000Y-108585000D02*
X385969300Y-108585000D01*
X108652000Y-89789000D02*
X108652000Y-88213700D01*
X127702000Y-89789000D02*
X127702000Y-88213700D01*
X146752000Y-89789000D02*
X146752000Y-88213700D01*
X184852000Y-89789000D02*
X184852000Y-88213700D01*
X222952000Y-89789000D02*
X222952000Y-91364300D01*
X403419000Y-51435000D02*
X403419000Y-53010300D01*
X403419000Y-108585000D02*
X403419000Y-110160300D01*
%TO.N,ROW4*%
X236881300Y-108956000D02*
X237781900Y-109856600D01*
X237781900Y-109856600D02*
X242916400Y-109856600D01*
X242916400Y-109856600D02*
X243648100Y-109124900D01*
X243648100Y-109124900D02*
X261071800Y-109124900D01*
X261071800Y-109124900D02*
X262736400Y-110789500D01*
X262736400Y-110789500D02*
X268296800Y-110789500D01*
X268296800Y-110789500D02*
X268555000Y-110531300D01*
X251273000Y-70739000D02*
X251273000Y-76272500D01*
X251273000Y-76272500D02*
X240268000Y-87277500D01*
X240268000Y-87277500D02*
X240268000Y-93593100D01*
X240268000Y-93593100D02*
X238986300Y-94874800D01*
X238986300Y-94874800D02*
X238986300Y-102401600D01*
X238986300Y-102401600D02*
X235281000Y-106106900D01*
X235281000Y-106106900D02*
X235281000Y-107380700D01*
X290135000Y-108966000D02*
X290135000Y-107390700D01*
X320294700Y-39912100D02*
X319686200Y-39303600D01*
X319686200Y-39303600D02*
X319686200Y-37469200D01*
X319686200Y-37469200D02*
X317515100Y-35298100D01*
X317515100Y-35298100D02*
X311850600Y-35298100D01*
X311850600Y-35298100D02*
X296426000Y-50722700D01*
X296426000Y-50722700D02*
X295364400Y-50722700D01*
X295364400Y-50722700D02*
X293236200Y-52850900D01*
X293236200Y-52850900D02*
X293236200Y-69394200D01*
X293236200Y-69394200D02*
X298476400Y-74634400D01*
X298476400Y-74634400D02*
X298476400Y-91163700D01*
X298476400Y-91163700D02*
X296566200Y-93073900D01*
X296566200Y-93073900D02*
X295765700Y-93073900D01*
X295765700Y-93073900D02*
X290024400Y-98815200D01*
X290024400Y-98815200D02*
X290024400Y-107280100D01*
X290024400Y-107280100D02*
X290135000Y-107390700D01*
X203991400Y-107099100D02*
X203991400Y-106400800D01*
X203991400Y-106400800D02*
X205379700Y-105012500D01*
X205379700Y-105012500D02*
X220201700Y-105012500D01*
X220201700Y-105012500D02*
X221969000Y-106779800D01*
X221969000Y-106779800D02*
X234680100Y-106779800D01*
X234680100Y-106779800D02*
X235281000Y-107380700D01*
X154255000Y-110531300D02*
X154409500Y-110685800D01*
X154409500Y-110685800D02*
X166406400Y-110685800D01*
X166406400Y-110685800D02*
X170809000Y-106283200D01*
X170809000Y-106283200D02*
X183484000Y-106283200D01*
X183484000Y-106283200D02*
X185233000Y-108032200D01*
X365319000Y-49859700D02*
X365319000Y-49061600D01*
X365319000Y-49061600D02*
X365754400Y-48626200D01*
X365754400Y-48626200D02*
X369920100Y-48626200D01*
X369920100Y-48626200D02*
X370855600Y-49561700D01*
X370855600Y-49561700D02*
X384071000Y-49561700D01*
X384071000Y-49561700D02*
X384369000Y-49859700D01*
X203991400Y-107099100D02*
X204283000Y-107390700D01*
X185233000Y-107390700D02*
X185524600Y-107099100D01*
X185524600Y-107099100D02*
X203991400Y-107099100D01*
X290135000Y-108966000D02*
X296316000Y-108966000D01*
X296316000Y-108966000D02*
X297689100Y-107592900D01*
X235281000Y-108956000D02*
X236881300Y-108956000D01*
X361056100Y-102422800D02*
X361056100Y-103679100D01*
X361056100Y-103679100D02*
X364386700Y-107009700D01*
X364386700Y-107009700D02*
X365319000Y-107009700D01*
X365319000Y-51435000D02*
X365319000Y-58182400D01*
X365319000Y-58182400D02*
X363715800Y-59785600D01*
X363715800Y-59785600D02*
X363715800Y-74067300D01*
X363715800Y-74067300D02*
X362882800Y-74900300D01*
X362882800Y-74900300D02*
X362882800Y-77969300D01*
X362882800Y-77969300D02*
X363422100Y-78508600D01*
X363422100Y-78508600D02*
X363422100Y-90632100D01*
X363422100Y-90632100D02*
X361506400Y-92547800D01*
X361506400Y-92547800D02*
X361506400Y-100649500D01*
X361506400Y-100649500D02*
X361056100Y-101099800D01*
X361056100Y-101099800D02*
X361056100Y-102422800D01*
X324359900Y-109509100D02*
X330837700Y-115986900D01*
X330837700Y-115986900D02*
X340946100Y-115986900D01*
X340946100Y-115986900D02*
X345224000Y-111709000D01*
X345224000Y-111709000D02*
X346841800Y-111709000D01*
X346841800Y-111709000D02*
X351954100Y-106596700D01*
X351954100Y-106596700D02*
X351954100Y-103604600D01*
X351954100Y-103604600D02*
X353135900Y-102422800D01*
X353135900Y-102422800D02*
X361056100Y-102422800D01*
X290135000Y-109709500D02*
X290135000Y-108966000D01*
X290135000Y-109709500D02*
X290135000Y-110541300D01*
X120854000Y-110531300D02*
X125544700Y-115222000D01*
X125544700Y-115222000D02*
X143362500Y-115222000D01*
X143362500Y-115222000D02*
X144683900Y-113900600D01*
X144683900Y-113900600D02*
X144683900Y-113548500D01*
X144683900Y-113548500D02*
X144684000Y-113548500D01*
X144684000Y-113548500D02*
X147394500Y-110838000D01*
X147394500Y-110838000D02*
X147394500Y-110837900D01*
X147394500Y-110837900D02*
X153948400Y-110837900D01*
X153948400Y-110837900D02*
X154255000Y-110531300D01*
X290135000Y-110541300D02*
X289851800Y-110824500D01*
X289851800Y-110824500D02*
X285587500Y-110824500D01*
X285587500Y-110824500D02*
X283719000Y-108956000D01*
X283719000Y-108956000D02*
X268555000Y-108956000D01*
X96978000Y-108956000D02*
X96978000Y-110531300D01*
X96978000Y-110531300D02*
X96434800Y-111074500D01*
X96434800Y-111074500D02*
X90350000Y-111074500D01*
X90350000Y-111074500D02*
X86166400Y-115258100D01*
X86166400Y-115258100D02*
X77828800Y-115258100D01*
X77828800Y-115258100D02*
X73102000Y-110531300D01*
X120854000Y-110531300D02*
X120595800Y-110789500D01*
X120595800Y-110789500D02*
X115278600Y-110789500D01*
X115278600Y-110789500D02*
X113445100Y-108956000D01*
X113445100Y-108956000D02*
X96978000Y-108956000D01*
X73102000Y-108956000D02*
X73102000Y-110531300D01*
X384369000Y-51435000D02*
X384369000Y-49859700D01*
X365319000Y-51435000D02*
X365319000Y-49859700D01*
X120854000Y-108956000D02*
X120854000Y-110531300D01*
X235281000Y-108956000D02*
X235281000Y-107380700D01*
X154255000Y-108956000D02*
X154255000Y-110531300D01*
X185233000Y-108032200D02*
X185233000Y-107390700D01*
X185233000Y-108966000D02*
X185233000Y-108178300D01*
X185233000Y-108178300D02*
X185233000Y-108032200D01*
X365319000Y-108585000D02*
X365319000Y-107009700D01*
X268555000Y-108956000D02*
X268555000Y-110531300D01*
X49226000Y-108956000D02*
X49226000Y-110531300D01*
X73102000Y-110531300D02*
X72803700Y-110829600D01*
X72803700Y-110829600D02*
X66718900Y-110829600D01*
X66718900Y-110829600D02*
X62303000Y-115245500D01*
X62303000Y-115245500D02*
X53940200Y-115245500D01*
X53940200Y-115245500D02*
X49226000Y-110531300D01*
X204283000Y-108966000D02*
X204283000Y-108910400D01*
X204283000Y-108825500D02*
X204283000Y-108910400D01*
X204283000Y-108825500D02*
X204283000Y-107390700D01*
%TO.N,ROW1*%
X102956200Y-51819100D02*
X104142900Y-51819100D01*
X104142900Y-51819100D02*
X108191000Y-47771000D01*
X108191000Y-47771000D02*
X109689800Y-47771000D01*
X109689800Y-47771000D02*
X112032500Y-50113700D01*
X112032500Y-50113700D02*
X113478000Y-50113700D01*
X75378000Y-50113700D02*
X73609000Y-48344700D01*
X73609000Y-48344700D02*
X58488000Y-48344700D01*
X58488000Y-48344700D02*
X58271500Y-48128200D01*
X58271500Y-48128200D02*
X57670600Y-48128200D01*
X57670600Y-48128200D02*
X57454100Y-48344700D01*
X57454100Y-48344700D02*
X53287200Y-48344700D01*
X53287200Y-48344700D02*
X51512000Y-50119900D01*
X170628000Y-49855800D02*
X178857200Y-49855800D01*
X178857200Y-49855800D02*
X180209500Y-48503500D01*
X180209500Y-48503500D02*
X186328900Y-48503500D01*
X186328900Y-48503500D02*
X187134800Y-49309400D01*
X187134800Y-49309400D02*
X191529900Y-49309400D01*
X191529900Y-49309400D02*
X191573500Y-49265800D01*
X191573500Y-49265800D02*
X194876500Y-49265800D01*
X194876500Y-49265800D02*
X196494000Y-50883300D01*
X312277800Y-44630600D02*
X312002800Y-44905600D01*
X312002800Y-44905600D02*
X312002800Y-46804100D01*
X312002800Y-46804100D02*
X308687000Y-50119900D01*
X208728000Y-49784800D02*
X211005700Y-47507100D01*
X211005700Y-47507100D02*
X225171400Y-47507100D01*
X225171400Y-47507100D02*
X227778000Y-50113700D01*
X208728000Y-49784800D02*
X208728000Y-50113700D01*
X208728000Y-49784800D02*
X197592500Y-49784800D01*
X197592500Y-49784800D02*
X196494000Y-50883300D01*
X189678000Y-53264300D02*
X192218100Y-55804400D01*
X192218100Y-55804400D02*
X196295200Y-55804400D01*
X196295200Y-55804400D02*
X196494000Y-55605600D01*
X196494000Y-55605600D02*
X196494000Y-50883300D01*
X227778000Y-51689000D02*
X227778000Y-55068600D01*
X227778000Y-55068600D02*
X232534000Y-59824600D01*
X232534000Y-59824600D02*
X232534000Y-60745800D01*
X158390000Y-50113700D02*
X158647900Y-49855800D01*
X158647900Y-49855800D02*
X170628000Y-49855800D01*
X170628000Y-50901300D02*
X170628000Y-49855800D01*
X132528000Y-50373100D02*
X134461200Y-48439900D01*
X134461200Y-48439900D02*
X143670100Y-48439900D01*
X143670100Y-48439900D02*
X144016900Y-48786700D01*
X144016900Y-48786700D02*
X144016900Y-50535700D01*
X144016900Y-50535700D02*
X148530900Y-55049700D01*
X148530900Y-55049700D02*
X151310800Y-55049700D01*
X151310800Y-55049700D02*
X152104200Y-55843100D01*
X152104200Y-55843100D02*
X158196400Y-55843100D01*
X158196400Y-55843100D02*
X158390000Y-55649500D01*
X158390000Y-55649500D02*
X158390000Y-50113700D01*
X94428000Y-51689000D02*
X96028300Y-51689000D01*
X96340000Y-51819100D02*
X96158400Y-51819100D01*
X96158400Y-51819100D02*
X96028300Y-51689000D01*
X113478000Y-50113700D02*
X113749600Y-49842100D01*
X113749600Y-49842100D02*
X131997000Y-49842100D01*
X131997000Y-49842100D02*
X132528000Y-50373100D01*
X51512000Y-51695200D02*
X51512000Y-50119900D01*
X308687000Y-50719700D02*
X308687000Y-50819500D01*
X308687000Y-50819500D02*
X310575600Y-52708100D01*
X189678000Y-51689000D02*
X189678000Y-53264300D01*
X158390000Y-50113700D02*
X151578000Y-50113700D01*
X151578000Y-51689000D02*
X151578000Y-50113700D01*
X170628000Y-51689000D02*
X170628000Y-50901300D01*
X308687000Y-50719700D02*
X308687000Y-50119900D01*
X308687000Y-51695200D02*
X308687000Y-50719700D01*
X365319000Y-70485000D02*
X365319000Y-68909700D01*
X403419000Y-32385000D02*
X403419000Y-38891100D01*
X403419000Y-38891100D02*
X401345800Y-40964300D01*
X401345800Y-40964300D02*
X401345800Y-48817200D01*
X367958000Y-51473200D02*
X367958000Y-66270700D01*
X367958000Y-66270700D02*
X365319000Y-68909700D01*
X94428000Y-51689000D02*
X94428000Y-50113700D01*
X132528000Y-51689000D02*
X132528000Y-50373100D01*
X365319000Y-89535000D02*
X365319000Y-70485000D01*
X113478000Y-51689000D02*
X113478000Y-50113700D01*
X94428000Y-50113700D02*
X94157400Y-49843100D01*
X94157400Y-49843100D02*
X75648600Y-49843100D01*
X75648600Y-49843100D02*
X75378000Y-50113700D01*
X227778000Y-51689000D02*
X227778000Y-50113700D01*
X208728000Y-51689000D02*
X208728000Y-50113700D01*
X75378000Y-51689000D02*
X75378000Y-50113700D01*
%TO.N,VCC*%
X331043900Y-47087300D02*
X329915400Y-48215800D01*
X329915400Y-48215800D02*
X329915400Y-70991400D01*
X329915400Y-70991400D02*
X324584700Y-76322100D01*
X324584700Y-76322100D02*
X324584700Y-80090600D01*
X324584700Y-80090600D02*
X324855000Y-80360900D01*
X331043900Y-47087300D02*
X331043900Y-45188400D01*
X331043900Y-45188400D02*
X328445000Y-42589500D01*
X328445000Y-42589500D02*
X328445000Y-37410500D01*
%TO.N,LED_DATA*%
X317167000Y-90779600D02*
X316891900Y-90504500D01*
X316891900Y-90504500D02*
X316891900Y-80078100D01*
X316891900Y-80078100D02*
X316891800Y-80078100D01*
X316891800Y-80078100D02*
X316441600Y-79627900D01*
X316441600Y-79627900D02*
X316441600Y-79027100D01*
X316441600Y-79027100D02*
X316728900Y-78739800D01*
X316728900Y-78739800D02*
X316728900Y-67091100D01*
X316728900Y-67091100D02*
X316457500Y-66819700D01*
X316457500Y-66819700D02*
X316457500Y-63010900D01*
X316457500Y-63010900D02*
X317607300Y-61861100D01*
X317607300Y-61861100D02*
X317607300Y-51101000D01*
X317607300Y-51101000D02*
X316880700Y-50374400D01*
X316880700Y-50374400D02*
X316880700Y-39045500D01*
X316880700Y-39045500D02*
X316262900Y-38427700D01*
%TO.N,Net-(R1-Pad2)*%
X314748200Y-104366000D02*
X314441800Y-104059600D01*
X314441800Y-104059600D02*
X314441800Y-42208500D01*
X314441800Y-42208500D02*
X313831600Y-41598300D01*
X313831600Y-41598300D02*
X313831600Y-39106800D01*
X313831600Y-39106800D02*
X315769500Y-37168900D01*
X315769500Y-37168900D02*
X316696600Y-37168900D01*
X316696600Y-37168900D02*
X317872800Y-38345100D01*
X317872800Y-38345100D02*
X317872800Y-49260500D01*
X317872800Y-49260500D02*
X318113900Y-49501600D01*
X322236700Y-107592900D02*
X322189400Y-107640200D01*
X322189400Y-107640200D02*
X322189400Y-119838900D01*
%TO.N,Net-(R4-Pad2)*%
X325221000Y-67579800D02*
X324610200Y-66969000D01*
X324610200Y-66969000D02*
X324610200Y-61676300D01*
X324610200Y-61676300D02*
X326355200Y-59931300D01*
X326355200Y-59931300D02*
X326355200Y-51846600D01*
X326355200Y-51846600D02*
X326539400Y-51662400D01*
X326539400Y-51662400D02*
X326539400Y-47749800D01*
X326539400Y-47749800D02*
X328163400Y-46125800D01*
X328163400Y-46125800D02*
X328163400Y-44399100D01*
X328163400Y-44399100D02*
X327719600Y-43955300D01*
X327719600Y-43955300D02*
X327719600Y-37091300D01*
X327719600Y-37091300D02*
X328152300Y-36658600D01*
X328152300Y-36658600D02*
X328742900Y-36658600D01*
X328742900Y-36658600D02*
X329924200Y-37839900D01*
X329924200Y-37839900D02*
X329924200Y-38516800D01*
%TO.N,Net-(C90-Pad1)*%
X322924800Y-47566400D02*
X322183500Y-48307700D01*
X322183500Y-48307700D02*
X322183500Y-55975100D01*
X319653700Y-98802600D02*
X317447700Y-101008600D01*
X317447700Y-101008600D02*
X316882100Y-101008600D01*
X316882100Y-101008600D02*
X315246600Y-99373100D01*
X315246600Y-99373100D02*
X315246600Y-57483700D01*
X315246600Y-57483700D02*
X315972000Y-56758300D01*
%TO.N,Net-(C91-Pad1)*%
X317661900Y-65428400D02*
X318342600Y-66109100D01*
X318342600Y-66109100D02*
X318342600Y-67655100D01*
X318342600Y-67655100D02*
X318180600Y-67817100D01*
X318180600Y-67817100D02*
X318180600Y-69910700D01*
X318180600Y-69910700D02*
X318342600Y-70072700D01*
X318342600Y-70072700D02*
X318342600Y-83592600D01*
X318342600Y-83592600D02*
X321697300Y-86947300D01*
X321697300Y-86947300D02*
X321697300Y-93607400D01*
X315617400Y-49035400D02*
X315617400Y-53657500D01*
X315617400Y-53657500D02*
X316706700Y-54746800D01*
X316706700Y-54746800D02*
X316706700Y-61099000D01*
X316706700Y-61099000D02*
X316270600Y-61535100D01*
%TO.N,Net-(C92-Pad2)*%
X319498800Y-43231000D02*
X319773800Y-43506000D01*
X319773800Y-43506000D02*
X319773800Y-44604900D01*
X319773800Y-44604900D02*
X319381900Y-44996800D01*
X319381900Y-44996800D02*
X319381900Y-67889600D01*
X319381900Y-67889600D02*
X319081200Y-68190300D01*
X319081200Y-68190300D02*
X319081200Y-69537500D01*
X319081200Y-69537500D02*
X319277900Y-69734200D01*
X319277900Y-69734200D02*
X319277900Y-70492700D01*
X319277900Y-70492700D02*
X319381900Y-70596700D01*
X319381900Y-70596700D02*
X319381900Y-82175400D01*
X319381900Y-82175400D02*
X322454200Y-85247700D01*
%TO.N,Net-(R2-Pad1)*%
X315972000Y-72347100D02*
X315972000Y-62859500D01*
X315972000Y-62859500D02*
X317157000Y-61674500D01*
X317157000Y-61674500D02*
X317157000Y-54264900D01*
X317157000Y-54264900D02*
X316430400Y-53538300D01*
X316430400Y-53538300D02*
X316430400Y-42404100D01*
X316430400Y-42404100D02*
X315980100Y-41953800D01*
%TO.N,Net-(R3-Pad1)*%
X318889500Y-34887300D02*
X323747800Y-39745600D01*
X323747800Y-39745600D02*
X323747800Y-43858000D01*
X323747800Y-43858000D02*
X323293700Y-44312100D01*
X323293700Y-44312100D02*
X323293700Y-46722900D01*
X323293700Y-46722900D02*
X323650100Y-47079300D01*
X323650100Y-47079300D02*
X323650100Y-49952600D01*
X323650100Y-49952600D02*
X323287600Y-50315100D01*
X323287600Y-50315100D02*
X323287600Y-58182200D01*
X323287600Y-58182200D02*
X321882800Y-59587000D01*
X321882800Y-59587000D02*
X321882800Y-74577600D01*
X321882800Y-74577600D02*
X321607700Y-74852700D01*
%TO.N,Net-(D168-Pad2)*%
X325344100Y-68623500D02*
X329111900Y-64855700D01*
X329111900Y-64855700D02*
X329111900Y-62484000D01*
%TO.N,Net-(D165-Pad2)*%
X170758900Y-81074900D02*
X170138800Y-81695000D01*
X170138800Y-81695000D02*
X147956500Y-81695000D01*
%TO.N,Net-(D89-Pad2)*%
X387002600Y-116220100D02*
X383801100Y-119421600D01*
X383801100Y-119421600D02*
X376189700Y-119421600D01*
%TO.N,Net-(D167-Pad2)*%
X357146100Y-119311600D02*
X361339300Y-119311600D01*
X361339300Y-119311600D02*
X362030700Y-120003000D01*
%TO.N,Net-(D94-Pad2)*%
X313681800Y-42577400D02*
X313381300Y-42276900D01*
X313381300Y-42276900D02*
X313381300Y-38920200D01*
X313381300Y-38920200D02*
X315652500Y-36649000D01*
X315652500Y-36649000D02*
X316821500Y-36649000D01*
X316821500Y-36649000D02*
X318323100Y-38150600D01*
X318323100Y-38150600D02*
X318323100Y-46973100D01*
X318323100Y-46973100D02*
X318861900Y-47511900D01*
X318861900Y-47511900D02*
X318861900Y-67772700D01*
X318861900Y-67772700D02*
X318630900Y-68003700D01*
X318630900Y-68003700D02*
X318630900Y-69724100D01*
X318630900Y-69724100D02*
X318827600Y-69920800D01*
X318827600Y-69920800D02*
X318827600Y-70679300D01*
X318827600Y-70679300D02*
X318861900Y-70713600D01*
X318861900Y-70713600D02*
X318861900Y-83108900D01*
X318861900Y-83108900D02*
X329542200Y-93789200D01*
X329542200Y-93789200D02*
X329542200Y-111256300D01*
X329542200Y-111256300D02*
X333528100Y-115242200D01*
%TO.N,Net-(D100-Pad4)*%
X75247500Y-43815000D02*
X69325600Y-37893100D01*
X69325600Y-37893100D02*
X69325600Y-33654600D01*
X69325600Y-33654600D02*
X69672700Y-33307500D01*
X69672700Y-33307500D02*
X77399700Y-33307500D01*
X77399700Y-33307500D02*
X86807100Y-42714900D01*
X86807100Y-42714900D02*
X99917900Y-42714900D01*
X99917900Y-42714900D02*
X99917900Y-42715000D01*
%TO.N,Net-(D100-Pad2)*%
X118495000Y-42715000D02*
X113993400Y-42715000D01*
X113993400Y-42715000D02*
X113488000Y-42209600D01*
%TO.N,Net-(D114-Pad2)*%
X328135400Y-79437500D02*
X327879300Y-79437500D01*
X327879300Y-79437500D02*
X325312200Y-76870400D01*
%TO.N,Net-(D115-Pad2)*%
X51435000Y-102012000D02*
X47622800Y-105824200D01*
X47622800Y-105824200D02*
X47622800Y-112629300D01*
X47622800Y-112629300D02*
X44835300Y-115416800D01*
X44835300Y-115416800D02*
X44835300Y-119450000D01*
%TO.N,Net-(D120-Pad2)*%
X213741300Y-42553600D02*
X213378600Y-42553600D01*
X213378600Y-42553600D02*
X209466300Y-38641300D01*
X209466300Y-38641300D02*
X209466300Y-36717600D01*
X209466300Y-36717600D02*
X209852000Y-36331900D01*
X209852000Y-36331900D02*
X209852000Y-34364500D01*
X209852000Y-34364500D02*
X208746100Y-33258600D01*
X208746100Y-33258600D02*
X203107700Y-33258600D01*
X203107700Y-33258600D02*
X201676000Y-34690300D01*
X201676000Y-34690300D02*
X201676000Y-35570800D01*
X201676000Y-35570800D02*
X193474800Y-43772000D01*
X193474800Y-43772000D02*
X190874700Y-43772000D01*
%TO.N,Net-(D130-Pad2)*%
X398890800Y-79766200D02*
X401522100Y-82397500D01*
X401522100Y-82397500D02*
X401522100Y-93502000D01*
X401522100Y-93502000D02*
X398137400Y-96886700D01*
X398137400Y-96886700D02*
X398137400Y-98527800D01*
%TO.N,Net-(D131-Pad2)*%
X149855100Y-119199500D02*
X113652900Y-119199500D01*
X113652900Y-119199500D02*
X112706800Y-120145600D01*
%TO.N,Net-(D136-Pad2)*%
X347428300Y-42827000D02*
X347428300Y-35999400D01*
X347428300Y-35999400D02*
X348369000Y-35058700D01*
X348369000Y-35058700D02*
X348369000Y-30835600D01*
X348369000Y-30835600D02*
X347055900Y-29522500D01*
X347055900Y-29522500D02*
X328245200Y-29522500D01*
X328245200Y-29522500D02*
X327794900Y-29972800D01*
X327794900Y-29972800D02*
X314136500Y-29972800D01*
X314136500Y-29972800D02*
X302820700Y-41288600D01*
X302820700Y-41288600D02*
X301273800Y-41288600D01*
%TO.N,Net-(D139-Pad2)*%
X213609400Y-119072800D02*
X212563600Y-120118600D01*
X212563600Y-120118600D02*
X177096200Y-120118600D01*
%TO.N,Net-(D141-Pad2)*%
X49389700Y-81096800D02*
X49985500Y-80501000D01*
X49985500Y-80501000D02*
X49985500Y-74228900D01*
X49985500Y-74228900D02*
X44297000Y-68540400D01*
X44297000Y-68540400D02*
X44297000Y-63896300D01*
%TO.N,Net-(D144-Pad2)*%
X376053300Y-39312600D02*
X379074700Y-42334000D01*
X379074700Y-42334000D02*
X380000300Y-42334000D01*
X357177200Y-43463400D02*
X357568700Y-43071900D01*
X357568700Y-43071900D02*
X357568700Y-40460100D01*
X357568700Y-40460100D02*
X356757500Y-39648900D01*
%TO.N,Net-(D146-Pad2)*%
X328139700Y-100434800D02*
X327361500Y-99656600D01*
X327361500Y-99656600D02*
X322525900Y-99656600D01*
%TO.N,Net-(D152-Pad2)*%
X393475800Y-43479900D02*
X393475800Y-48900700D01*
X393475800Y-48900700D02*
X399482700Y-54907600D01*
X399482700Y-54907600D02*
X399482700Y-58992800D01*
X399482700Y-58992800D02*
X398070000Y-60405500D01*
%TO.N,Net-(D159-Pad2)*%
X341845400Y-118878300D02*
X339701300Y-121022400D01*
X339701300Y-121022400D02*
X302428900Y-121022400D01*
X302428900Y-121022400D02*
X301329200Y-119922700D01*
%TO.N,Net-(D161-Pad2)*%
X151734900Y-80633300D02*
X130435500Y-80633300D01*
X130435500Y-80633300D02*
X129111800Y-81957000D01*
%TO.N,Net-(C92-Pad1)*%
X327035500Y-32969900D02*
X325155000Y-34850400D01*
X325155000Y-34850400D02*
X325155000Y-44679800D01*
X325155000Y-44679800D02*
X324648900Y-45185900D01*
X324648900Y-45185900D02*
X324648900Y-45911600D01*
X324648900Y-45911600D02*
X325001000Y-46263700D01*
X325001000Y-46263700D02*
X325001000Y-50512400D01*
X325001000Y-50512400D02*
X324638500Y-50874900D01*
X324638500Y-50874900D02*
X324638500Y-58742000D01*
X324638500Y-58742000D02*
X323233700Y-60146800D01*
X323233700Y-60146800D02*
X323233700Y-82228600D01*
X323233700Y-82228600D02*
X322512500Y-82949800D01*
%TO.N,Net-(J2-Pad3)*%
X323113000Y-33623900D02*
X324254400Y-34765300D01*
X324254400Y-34765300D02*
X324254400Y-44306600D01*
X324254400Y-44306600D02*
X323744600Y-44816400D01*
X323744600Y-44816400D02*
X323744600Y-46536900D01*
X323744600Y-46536900D02*
X324100400Y-46892700D01*
X324100400Y-46892700D02*
X324100400Y-50139200D01*
X324100400Y-50139200D02*
X323737900Y-50501700D01*
X323737900Y-50501700D02*
X323737900Y-58368800D01*
X323737900Y-58368800D02*
X322333100Y-59773600D01*
X322333100Y-59773600D02*
X322333100Y-75160400D01*
X322333100Y-75160400D02*
X321874100Y-75619400D01*
X321874100Y-75619400D02*
X321348700Y-75619400D01*
X321348700Y-75619400D02*
X320882400Y-75153100D01*
X320882400Y-75153100D02*
X320882400Y-74127200D01*
X320882400Y-74127200D02*
X321157400Y-73852200D01*
%TO.N,Net-(J2-Pad2)*%
X323913000Y-32997400D02*
X324704700Y-33789100D01*
X324704700Y-33789100D02*
X324704700Y-44493200D01*
X324704700Y-44493200D02*
X324195500Y-45002400D01*
X324195500Y-45002400D02*
X324195500Y-46350900D01*
X324195500Y-46350900D02*
X324550700Y-46706100D01*
X324550700Y-46706100D02*
X324550700Y-50325800D01*
X324550700Y-50325800D02*
X324188200Y-50688300D01*
X324188200Y-50688300D02*
X324188200Y-58555400D01*
X324188200Y-58555400D02*
X322783400Y-59960200D01*
X322783400Y-59960200D02*
X322783400Y-77346000D01*
X322783400Y-77346000D02*
X322508300Y-77621100D01*
%TD*%
M02*
