%TF.GenerationSoftware,KiCad,Pcbnew,(5.1.10)-1*%
%TF.CreationDate,2021-12-12T17:00:17-08:00*%
%TF.ProjectId,chgray-keyboard,63686772-6179-42d6-9b65-79626f617264,Yeet2*%
%TF.SameCoordinates,Original*%
%TF.FileFunction,Copper,L2,Bot*%
%TF.FilePolarity,Positive*%
%FSLAX46Y46*%
G04 Gerber Fmt 4.6, Leading zero omitted, Abs format (unit mm)*
G04 Created by KiCad (PCBNEW (5.1.10)-1) date 2021-12-12 17:00:17*
%MOMM*%
%LPD*%
G01*
G04 APERTURE LIST*
%TA.AperFunction,SMDPad,CuDef*%
%ADD10R,2.550000X2.500000*%
%TD*%
%TA.AperFunction,ComponentPad*%
%ADD11O,1.700000X1.700000*%
%TD*%
%TA.AperFunction,ComponentPad*%
%ADD12R,1.700000X1.700000*%
%TD*%
%TA.AperFunction,ViaPad*%
%ADD13C,0.800000*%
%TD*%
%TA.AperFunction,Conductor*%
%ADD14C,0.250000*%
%TD*%
G04 APERTURE END LIST*
D10*
%TO.P,SW54,2*%
%TO.N,Net-(D65-Pad1)*%
X212912000Y-54102000D03*
%TO.P,SW54,1*%
%TO.N,ROW1*%
X226762000Y-51562000D03*
%TD*%
D11*
%TO.P,J1,8*%
%TO.N,LED_OUT*%
X319278000Y-96329500D03*
%TO.P,J1,7*%
%TO.N,LED_5V*%
X319278000Y-93789500D03*
%TO.P,J1,6*%
%TO.N,RESET*%
X319278000Y-91249500D03*
%TO.P,J1,5*%
%TO.N,ROW0*%
X319278000Y-88709500D03*
%TO.P,J1,4*%
%TO.N,COL13*%
X319278000Y-86169500D03*
%TO.P,J1,3*%
%TO.N,COL12*%
X319278000Y-83629500D03*
%TO.P,J1,2*%
%TO.N,LED_DATA*%
X319278000Y-81089500D03*
D12*
%TO.P,J1,1*%
%TO.N,LED_GND*%
X319278000Y-78549500D03*
%TD*%
D10*
%TO.P,SW41,2*%
%TO.N,Net-(D51-Pad1)*%
X175066000Y-54102000D03*
%TO.P,SW41,1*%
%TO.N,ROW1*%
X188916000Y-51562000D03*
%TD*%
%TO.P,SW10,2*%
%TO.N,Net-(D15-Pad1)*%
X85277000Y-73279000D03*
%TO.P,SW10,1*%
%TO.N,ROW2*%
X99127000Y-70739000D03*
%TD*%
%TO.P,SW57,2*%
%TO.N,Net-(D68-Pad1)*%
X154619000Y-111506000D03*
%TO.P,SW57,1*%
%TO.N,ROW4*%
X168469000Y-108966000D03*
%TD*%
%TO.P,SW21,2*%
%TO.N,Net-(D28-Pad1)*%
X299674000Y-16129000D03*
%TO.P,SW21,1*%
%TO.N,ROW6*%
X313524000Y-13589000D03*
%TD*%
%TO.P,RIGHT-SHIFT1,2*%
%TO.N,Net-(D41-Pad1)*%
X282391000Y-92382500D03*
%TO.P,RIGHT-SHIFT1,1*%
%TO.N,ROW5*%
X296241000Y-89842500D03*
%TD*%
%TO.P,Slash1,2*%
%TO.N,Net-(D78-Pad1)*%
X293758000Y-54282500D03*
%TO.P,Slash1,1*%
%TO.N,ROW1*%
X307608000Y-51742500D03*
%TD*%
%TO.P,SW52,2*%
%TO.N,Net-(D63-Pad1)*%
X193989000Y-54102000D03*
%TO.P,SW52,1*%
%TO.N,ROW1*%
X207839000Y-51562000D03*
%TD*%
%TO.P,SW51,2*%
%TO.N,Net-(D62-Pad1)*%
X185226000Y-35133900D03*
%TO.P,SW51,1*%
%TO.N,ROW0*%
X199076000Y-32593900D03*
%TD*%
%TO.P,SW58,2*%
%TO.N,Net-(D70-Pad1)*%
X225622000Y-111496000D03*
%TO.P,SW58,1*%
%TO.N,ROW6*%
X239472000Y-108956000D03*
%TD*%
%TO.P,RIGHT-SPACE1,2*%
%TO.N,Net-(D54-Pad1)*%
X249498000Y-111496000D03*
%TO.P,RIGHT-SPACE1,1*%
%TO.N,ROW4*%
X263348000Y-108956000D03*
%TD*%
%TO.P,LEFT_ALT1,2*%
%TO.N,Net-(D26-Pad1)*%
X128076000Y-16129000D03*
%TO.P,LEFT_ALT1,1*%
%TO.N,ROW4*%
X141926000Y-13589000D03*
%TD*%
%TO.P,RIGHT-SHIFT2,2*%
%TO.N,Net-(D42-Pad1)*%
X204276000Y-16129000D03*
%TO.P,RIGHT-SHIFT2,1*%
%TO.N,ROW6*%
X218126000Y-13589000D03*
%TD*%
%TO.P,LEFT-SPACE1,2*%
%TO.N,Net-(D31-Pad1)*%
X147126000Y-16129000D03*
%TO.P,LEFT-SPACE1,1*%
%TO.N,ROW4*%
X160976000Y-13589000D03*
%TD*%
%TO.P,SW50,2*%
%TO.N,Net-(D61-Pad1)*%
X323605000Y-16129000D03*
%TO.P,SW50,1*%
%TO.N,ROW6*%
X337455000Y-13589000D03*
%TD*%
%TO.P,SW45,2*%
%TO.N,Net-(D56-Pad1)*%
X261426000Y-16129000D03*
%TO.P,SW45,1*%
%TO.N,ROW6*%
X275276000Y-13589000D03*
%TD*%
%TO.P,SW37,2*%
%TO.N,Net-(D47-Pad1)*%
X361578000Y-16129000D03*
%TO.P,SW37,1*%
%TO.N,ROW6*%
X375428000Y-13589000D03*
%TD*%
%TO.P,SW25,2*%
%TO.N,Net-(D33-Pad1)*%
X280476000Y-16129000D03*
%TO.P,SW25,1*%
%TO.N,ROW6*%
X294326000Y-13589000D03*
%TD*%
%TO.P,SW13,2*%
%TO.N,Net-(D19-Pad1)*%
X242376000Y-16129000D03*
%TO.P,SW13,1*%
%TO.N,ROW6*%
X256226000Y-13589000D03*
%TD*%
%TO.P,SW9,2*%
%TO.N,Net-(D14-Pad1)*%
X342655000Y-16129000D03*
%TO.P,SW9,1*%
%TO.N,ROW6*%
X356505000Y-13589000D03*
%TD*%
%TO.P,SW3,2*%
%TO.N,Net-(D5-Pad1)*%
X223326000Y-16129000D03*
%TO.P,SW3,1*%
%TO.N,ROW6*%
X237176000Y-13589000D03*
%TD*%
%TO.P,RightMeta1,2*%
%TO.N,Net-(D80-Pad1)*%
X297180000Y-111496000D03*
%TO.P,RightMeta1,1*%
%TO.N,ROW3*%
X311030000Y-108956000D03*
%TD*%
%TO.P,ENTER1,2*%
%TO.N,Net-(D77-Pad1)*%
X287471000Y-73205500D03*
%TO.P,ENTER1,1*%
%TO.N,ROW0*%
X301321000Y-70665500D03*
%TD*%
%TO.P,SW4,2*%
%TO.N,Net-(D6-Pad1)*%
X32826000Y-35133900D03*
%TO.P,SW4,1*%
%TO.N,ROW0*%
X46676000Y-32593900D03*
%TD*%
%TO.P,WinKey1,2*%
%TO.N,Net-(D17-Pad1)*%
X83128000Y-111496000D03*
%TO.P,WinKey1,1*%
%TO.N,ROW4*%
X96978000Y-108956000D03*
%TD*%
%TO.P,LEFT_FN1,2*%
%TO.N,Net-(D12-Pad1)*%
X59252000Y-111496000D03*
%TO.P,LEFT_FN1,1*%
%TO.N,ROW4*%
X73102000Y-108956000D03*
%TD*%
%TO.P,LEFT_CTRL1,2*%
%TO.N,Net-(D3-Pad1)*%
X35334700Y-111496000D03*
%TO.P,LEFT_CTRL1,1*%
%TO.N,ROW4*%
X49184700Y-108956000D03*
%TD*%
%TO.P,LEFT-SHIFT1,2*%
%TO.N,Net-(D11-Pad1)*%
X44859700Y-92319000D03*
%TO.P,LEFT-SHIFT1,1*%
%TO.N,ROW3*%
X58709700Y-89779000D03*
%TD*%
%TO.P,Backspace1,2*%
%TO.N,Net-(Backspace1-Pad2)*%
X290043000Y-35296000D03*
%TO.P,Backspace1,1*%
%TO.N,ROW5*%
X303893000Y-32756000D03*
%TD*%
%TO.P,TAB1,2*%
%TO.N,Net-(D7-Pad1)*%
X37714700Y-54235200D03*
%TO.P,TAB1,1*%
%TO.N,ROW1*%
X51564700Y-51695200D03*
%TD*%
%TO.P,CAPS1,1*%
%TO.N,ROW2*%
X53947200Y-70729000D03*
%TO.P,CAPS1,2*%
%TO.N,Net-(CAPS1-Pad2)*%
X40097200Y-73269000D03*
%TD*%
%TO.P,SW63,2*%
%TO.N,Net-(D75-Pad1)*%
X237423000Y-73279000D03*
%TO.P,SW63,1*%
%TO.N,ROW4*%
X251273000Y-70739000D03*
%TD*%
%TO.P,SW1,2*%
%TO.N,Net-(D2-Pad1)*%
X109026000Y-16129000D03*
%TO.P,SW1,1*%
%TO.N,ROW3*%
X122876000Y-13589000D03*
%TD*%
%TO.P,SW2,2*%
%TO.N,Net-(D4-Pad1)*%
X227517000Y-92329000D03*
%TO.P,SW2,1*%
%TO.N,ROW5*%
X241367000Y-89789000D03*
%TD*%
%TO.P,SW5,2*%
%TO.N,Net-(D8-Pad1)*%
X51876000Y-35133900D03*
%TO.P,SW5,1*%
%TO.N,ROW0*%
X65726000Y-32593900D03*
%TD*%
%TO.P,SW6,2*%
%TO.N,Net-(D9-Pad1)*%
X61528000Y-54102000D03*
%TO.P,SW6,1*%
%TO.N,ROW1*%
X75378000Y-51562000D03*
%TD*%
%TO.P,SW7,2*%
%TO.N,Net-(D10-Pad1)*%
X66227000Y-73279000D03*
%TO.P,SW7,1*%
%TO.N,ROW2*%
X80077000Y-70739000D03*
%TD*%
%TO.P,SW8,2*%
%TO.N,Net-(D13-Pad1)*%
X323605000Y-92329000D03*
%TO.P,SW8,1*%
%TO.N,ROW5*%
X337455000Y-89789000D03*
%TD*%
%TO.P,SW11,2*%
%TO.N,Net-(D16-Pad1)*%
X75752000Y-92329000D03*
%TO.P,SW11,1*%
%TO.N,ROW3*%
X89602000Y-89789000D03*
%TD*%
%TO.P,SW12,2*%
%TO.N,Net-(D18-Pad1)*%
X89976000Y-16129000D03*
%TO.P,SW12,1*%
%TO.N,ROW5*%
X103826000Y-13589000D03*
%TD*%
%TO.P,SW14,2*%
%TO.N,Net-(D20-Pad1)*%
X70926000Y-35133900D03*
%TO.P,SW14,1*%
%TO.N,ROW0*%
X84776000Y-32593900D03*
%TD*%
%TO.P,SW15,2*%
%TO.N,Net-(D21-Pad1)*%
X80451000Y-54102000D03*
%TO.P,SW15,1*%
%TO.N,ROW1*%
X94301000Y-51562000D03*
%TD*%
%TO.P,SW16,2*%
%TO.N,Net-(D22-Pad1)*%
X89976000Y-35133900D03*
%TO.P,SW16,1*%
%TO.N,ROW0*%
X103826000Y-32593900D03*
%TD*%
%TO.P,SW17,2*%
%TO.N,Net-(D23-Pad1)*%
X99374000Y-54102000D03*
%TO.P,SW17,1*%
%TO.N,ROW1*%
X113224000Y-51562000D03*
%TD*%
%TO.P,SW18,2*%
%TO.N,Net-(D24-Pad1)*%
X104327000Y-73279000D03*
%TO.P,SW18,1*%
%TO.N,ROW2*%
X118177000Y-70739000D03*
%TD*%
%TO.P,SW19,2*%
%TO.N,Net-(D25-Pad1)*%
X94548000Y-92329000D03*
%TO.P,SW19,1*%
%TO.N,ROW3*%
X108398000Y-89789000D03*
%TD*%
%TO.P,SW20,2*%
%TO.N,Net-(D27-Pad1)*%
X231835000Y-54102000D03*
%TO.P,SW20,1*%
%TO.N,ROW5*%
X245685000Y-51562000D03*
%TD*%
%TO.P,SW22,2*%
%TO.N,Net-(D29-Pad1)*%
X123377000Y-73279000D03*
%TO.P,SW22,1*%
%TO.N,ROW2*%
X137227000Y-70739000D03*
%TD*%
%TO.P,SW23,2*%
%TO.N,Net-(D30-Pad1)*%
X113471000Y-92329000D03*
%TO.P,SW23,1*%
%TO.N,ROW3*%
X127321000Y-89789000D03*
%TD*%
%TO.P,SW24,2*%
%TO.N,Net-(D32-Pad1)*%
X250885000Y-54102000D03*
%TO.P,SW24,1*%
%TO.N,ROW5*%
X264735000Y-51562000D03*
%TD*%
%TO.P,SW26,2*%
%TO.N,Net-(D34-Pad1)*%
X109026000Y-35133900D03*
%TO.P,SW26,1*%
%TO.N,ROW0*%
X122876000Y-32593900D03*
%TD*%
%TO.P,SW27,2*%
%TO.N,Net-(D35-Pad1)*%
X118297000Y-54102000D03*
%TO.P,SW27,1*%
%TO.N,ROW1*%
X132147000Y-51562000D03*
%TD*%
%TO.P,SW28,2*%
%TO.N,Net-(D36-Pad1)*%
X128076000Y-35133900D03*
%TO.P,SW28,1*%
%TO.N,ROW0*%
X141926000Y-32593900D03*
%TD*%
%TO.P,SW29,2*%
%TO.N,Net-(D37-Pad1)*%
X137220000Y-54102000D03*
%TO.P,SW29,1*%
%TO.N,ROW1*%
X151070000Y-51562000D03*
%TD*%
%TO.P,SW30,2*%
%TO.N,Net-(D38-Pad1)*%
X142173000Y-73279000D03*
%TO.P,SW30,1*%
%TO.N,ROW2*%
X156023000Y-70739000D03*
%TD*%
%TO.P,SW31,2*%
%TO.N,Net-(D39-Pad1)*%
X132394000Y-92329000D03*
%TO.P,SW31,1*%
%TO.N,ROW3*%
X146244000Y-89789000D03*
%TD*%
%TO.P,SW32,2*%
%TO.N,Net-(D40-Pad1)*%
X166176000Y-16129000D03*
%TO.P,SW32,1*%
%TO.N,ROW4*%
X180026000Y-13589000D03*
%TD*%
%TO.P,SW33,2*%
%TO.N,Net-(D43-Pad1)*%
X161223000Y-73279000D03*
%TO.P,SW33,1*%
%TO.N,ROW2*%
X175073000Y-70739000D03*
%TD*%
%TO.P,SW34,2*%
%TO.N,Net-(D44-Pad1)*%
X151317000Y-92329000D03*
%TO.P,SW34,1*%
%TO.N,ROW3*%
X165167000Y-89789000D03*
%TD*%
%TO.P,SW35,2*%
%TO.N,Net-(D45-Pad1)*%
X185226000Y-16129000D03*
%TO.P,SW35,1*%
%TO.N,ROW4*%
X199076000Y-13589000D03*
%TD*%
%TO.P,SW36,2*%
%TO.N,Net-(D46-Pad1)*%
X246440000Y-92329000D03*
%TO.P,SW36,1*%
%TO.N,ROW5*%
X260290000Y-89789000D03*
%TD*%
%TO.P,SW38,2*%
%TO.N,Net-(D48-Pad1)*%
X147126000Y-35133900D03*
%TO.P,SW38,1*%
%TO.N,ROW0*%
X160976000Y-32593900D03*
%TD*%
%TO.P,SW39,2*%
%TO.N,Net-(D49-Pad1)*%
X156143000Y-54102000D03*
%TO.P,SW39,1*%
%TO.N,ROW1*%
X169993000Y-51562000D03*
%TD*%
%TO.P,SW40,2*%
%TO.N,Net-(D50-Pad1)*%
X166176000Y-35133900D03*
%TO.P,SW40,1*%
%TO.N,ROW0*%
X180026000Y-32593900D03*
%TD*%
%TO.P,SW42,2*%
%TO.N,Net-(D52-Pad1)*%
X180273000Y-73279000D03*
%TO.P,SW42,1*%
%TO.N,ROW2*%
X194123000Y-70739000D03*
%TD*%
%TO.P,SW43,2*%
%TO.N,Net-(D53-Pad1)*%
X170240000Y-92329000D03*
%TO.P,SW43,1*%
%TO.N,ROW3*%
X184090000Y-89789000D03*
%TD*%
%TO.P,SW44,2*%
%TO.N,Net-(D55-Pad1)*%
X242376000Y-35133900D03*
%TO.P,SW44,1*%
%TO.N,ROW5*%
X256226000Y-32593900D03*
%TD*%
%TO.P,SW46,2*%
%TO.N,Net-(D57-Pad1)*%
X199323000Y-73279000D03*
%TO.P,SW46,1*%
%TO.N,ROW2*%
X213173000Y-70739000D03*
%TD*%
%TO.P,SW47,2*%
%TO.N,Net-(D58-Pad1)*%
X189290000Y-92329000D03*
%TO.P,SW47,1*%
%TO.N,ROW3*%
X203140000Y-89789000D03*
%TD*%
%TO.P,SW49,2*%
%TO.N,Net-(D60-Pad1)*%
X261426000Y-35133900D03*
%TO.P,SW49,1*%
%TO.N,ROW5*%
X275276000Y-32593900D03*
%TD*%
%TO.P,SW53,2*%
%TO.N,Net-(D64-Pad1)*%
X204276000Y-35133900D03*
%TO.P,SW53,1*%
%TO.N,ROW0*%
X218126000Y-32593900D03*
%TD*%
%TO.P,SW55,2*%
%TO.N,Net-(D66-Pad1)*%
X218373000Y-73279000D03*
%TO.P,SW55,1*%
%TO.N,ROW2*%
X232223000Y-70739000D03*
%TD*%
%TO.P,SW56,2*%
%TO.N,Net-(D67-Pad1)*%
X208467000Y-92329000D03*
%TO.P,SW56,1*%
%TO.N,ROW3*%
X222317000Y-89789000D03*
%TD*%
%TO.P,SW59,2*%
%TO.N,Net-(D71-Pad1)*%
X223326000Y-35133900D03*
%TO.P,SW59,1*%
%TO.N,ROW0*%
X237176000Y-32593900D03*
%TD*%
%TO.P,SW60,2*%
%TO.N,Net-(D72-Pad1)*%
X342655000Y-73279000D03*
%TO.P,SW60,1*%
%TO.N,ROW1*%
X356505000Y-70739000D03*
%TD*%
%TO.P,SW61,2*%
%TO.N,Net-(D73-Pad1)*%
X270062000Y-54102000D03*
%TO.P,SW61,1*%
%TO.N,ROW2*%
X283912000Y-51562000D03*
%TD*%
%TO.P,SW62,2*%
%TO.N,Net-(D74-Pad1)*%
X361578000Y-73279000D03*
%TO.P,SW62,1*%
%TO.N,ROW3*%
X375428000Y-70739000D03*
%TD*%
%TO.P,SW64,2*%
%TO.N,Net-(D76-Pad1)*%
X256473000Y-73279000D03*
%TO.P,SW64,1*%
%TO.N,ROW5*%
X270323000Y-70739000D03*
%TD*%
%TO.P,SW66,2*%
%TO.N,Net-(D81-Pad1)*%
X342655000Y-54229000D03*
%TO.P,SW66,1*%
%TO.N,ROW4*%
X356505000Y-51689000D03*
%TD*%
%TO.P,SW67,2*%
%TO.N,Net-(D82-Pad1)*%
X323605000Y-54229000D03*
%TO.P,SW67,1*%
%TO.N,ROW5*%
X337455000Y-51689000D03*
%TD*%
%TO.P,SW65,2*%
%TO.N,Net-(D79-Pad1)*%
X323605000Y-73279000D03*
%TO.P,SW65,1*%
%TO.N,ROW2*%
X337455000Y-70739000D03*
%TD*%
%TO.P,SW68,2*%
%TO.N,Net-(D84-Pad1)*%
X342655000Y-92329000D03*
%TO.P,SW68,1*%
%TO.N,ROW1*%
X356505000Y-89789000D03*
%TD*%
%TO.P,SW69,2*%
%TO.N,Net-(D85-Pad1)*%
X323605000Y-35306000D03*
%TO.P,SW69,1*%
%TO.N,ROW2*%
X337455000Y-32766000D03*
%TD*%
%TO.P,SW70,2*%
%TO.N,Net-(D86-Pad1)*%
X51876000Y-16129000D03*
%TO.P,SW70,1*%
%TO.N,ROW3*%
X65726000Y-13589000D03*
%TD*%
%TO.P,SW71,2*%
%TO.N,Net-(D87-Pad1)*%
X361578000Y-54229000D03*
%TO.P,SW71,1*%
%TO.N,ROW4*%
X375428000Y-51689000D03*
%TD*%
%TO.P,SW72,2*%
%TO.N,Net-(D88-Pad1)*%
X361578000Y-92329000D03*
%TO.P,SW72,1*%
%TO.N,ROW5*%
X375428000Y-89789000D03*
%TD*%
%TO.P,SW73,2*%
%TO.N,Net-(D90-Pad1)*%
X32826000Y-16129000D03*
%TO.P,SW73,1*%
%TO.N,ROW1*%
X46676000Y-13589000D03*
%TD*%
%TO.P,SW74,2*%
%TO.N,Net-(D91-Pad1)*%
X361578000Y-35306000D03*
%TO.P,SW74,1*%
%TO.N,ROW2*%
X375428000Y-32766000D03*
%TD*%
%TO.P,SW75,2*%
%TO.N,Net-(D92-Pad1)*%
X361578000Y-111506000D03*
%TO.P,SW75,1*%
%TO.N,ROW3*%
X375428000Y-108966000D03*
%TD*%
%TO.P,SW76,2*%
%TO.N,Net-(D93-Pad1)*%
X342655000Y-111506000D03*
%TO.P,SW76,1*%
%TO.N,ROW4*%
X356505000Y-108966000D03*
%TD*%
%TO.P,SW77,2*%
%TO.N,Net-(D94-Pad1)*%
X323605000Y-111506000D03*
%TO.P,SW77,1*%
%TO.N,ROW5*%
X337455000Y-108966000D03*
%TD*%
%TO.P,S2,2*%
%TO.N,Net-(D89-Pad1)*%
X70926000Y-16129000D03*
%TO.P,S2,1*%
%TO.N,ROW0*%
X84776000Y-13589000D03*
%TD*%
%TO.P,S1,2*%
%TO.N,Net-(D83-Pad1)*%
X342655000Y-35306000D03*
%TO.P,S1,1*%
%TO.N,ROW0*%
X356505000Y-32766000D03*
%TD*%
%TO.P,SW48,2*%
%TO.N,Net-(D59-Pad1)*%
X273374000Y-111496000D03*
%TO.P,SW48,1*%
%TO.N,ROW4*%
X287224000Y-108956000D03*
%TD*%
D13*
%TO.N,Net-(D2-Pad1)*%
X103463500Y-22140100D03*
X69893500Y-22140100D03*
X69054500Y-45770000D03*
%TO.N,Net-(D3-Pad1)*%
X49017300Y-85157600D03*
%TO.N,Net-(D4-Pad1)*%
X186731700Y-45115100D03*
%TO.N,Net-(D5-Pad1)*%
X222331500Y-19761500D03*
X188500500Y-20784500D03*
X177662800Y-46050700D03*
%TO.N,Net-(D6-Pad1)*%
X47548100Y-83710100D03*
%TO.N,Net-(D7-Pad1)*%
X52751400Y-46990000D03*
%TO.N,Net-(D8-Pad1)*%
X89015300Y-83977200D03*
%TO.N,Net-(D9-Pad1)*%
X74119900Y-68436000D03*
X106160800Y-71726000D03*
X120116000Y-85004700D03*
%TO.N,Net-(D10-Pad1)*%
X69356400Y-84435400D03*
%TO.N,Net-(D11-Pad1)*%
X79643900Y-85120300D03*
%TO.N,Net-(D12-Pad1)*%
X63011500Y-92434900D03*
%TO.N,Net-(D13-Pad1)*%
X336588500Y-59261300D03*
%TO.N,Net-(D14-Pad1)*%
X348955900Y-85471000D03*
%TO.N,Net-(D15-Pad1)*%
X106376000Y-85275300D03*
X103962000Y-78326500D03*
X88454700Y-78183400D03*
%TO.N,Net-(D16-Pad1)*%
X87001900Y-48805100D03*
%TO.N,Net-(D17-Pad1)*%
X90357100Y-85785700D03*
%TO.N,Net-(D18-Pad1)*%
X84403700Y-45975700D03*
%TO.N,Net-(D19-Pad1)*%
X195540000Y-47200600D03*
X197332500Y-34886800D03*
X248692400Y-30847500D03*
%TO.N,Net-(D20-Pad1)*%
X90710200Y-84719400D03*
%TO.N,Net-(D21-Pad1)*%
X88260300Y-46902000D03*
%TO.N,Net-(D22-Pad1)*%
X106488700Y-83343000D03*
%TO.N,Net-(D23-Pad1)*%
X108144300Y-84128700D03*
%TO.N,Net-(D24-Pad1)*%
X142558900Y-84204600D03*
%TO.N,Net-(D25-Pad1)*%
X101827200Y-84482200D03*
%TO.N,Net-(D26-Pad1)*%
X129680100Y-46148200D03*
%TO.N,Net-(D27-Pad1)*%
X232636400Y-64430100D03*
%TO.N,Net-(D28-Pad1)*%
X269099900Y-32947200D03*
X200663800Y-40053500D03*
X202641900Y-46990000D03*
%TO.N,Net-(D29-Pad1)*%
X146806000Y-85507700D03*
%TO.N,Net-(D30-Pad1)*%
X116015900Y-89784100D03*
%TO.N,Net-(D31-Pad1)*%
X186234400Y-84355000D03*
%TO.N,Net-(D32-Pad1)*%
X249168900Y-67708300D03*
%TO.N,Net-(D33-Pad1)*%
X262166500Y-46791300D03*
%TO.N,Net-(D34-Pad1)*%
X105236600Y-45762300D03*
%TO.N,Net-(D35-Pad1)*%
X132188800Y-83833100D03*
%TO.N,Net-(D36-Pad1)*%
X158601000Y-84175300D03*
%TO.N,Net-(D37-Pad1)*%
X161359100Y-84189300D03*
%TO.N,Net-(D38-Pad1)*%
X164966100Y-86332800D03*
%TO.N,Net-(D39-Pad1)*%
X109135800Y-49286600D03*
%TO.N,Net-(D40-Pad1)*%
X202418200Y-84823400D03*
%TO.N,Net-(D41-Pad1)*%
X253991400Y-65577700D03*
%TO.N,Net-(D42-Pad1)*%
X203780400Y-19273400D03*
X195118100Y-20107200D03*
X169032900Y-47965600D03*
%TO.N,Net-(D43-Pad1)*%
X164320200Y-78188500D03*
X189141000Y-78188500D03*
X197291900Y-84815300D03*
%TO.N,Net-(D44-Pad1)*%
X157378000Y-87111600D03*
%TO.N,Net-(D45-Pad1)*%
X205070800Y-83420700D03*
%TO.N,Net-(D46-Pad1)*%
X244215500Y-91614400D03*
X235346900Y-91275600D03*
X214350700Y-48640100D03*
%TO.N,Net-(D47-Pad1)*%
X349782000Y-84545600D03*
%TO.N,Net-(D48-Pad1)*%
X181747000Y-84423100D03*
%TO.N,Net-(D49-Pad1)*%
X189510000Y-85305800D03*
%TO.N,Net-(D50-Pad1)*%
X164344300Y-48576800D03*
%TO.N,Net-(D51-Pad1)*%
X225710900Y-90059500D03*
%TO.N,Net-(D52-Pad1)*%
X169498400Y-58128000D03*
X153140600Y-58961500D03*
X139044700Y-48083800D03*
%TO.N,Net-(D53-Pad1)*%
X177912000Y-82851000D03*
%TO.N,Net-(D54-Pad1)*%
X226554900Y-64777600D03*
%TO.N,Net-(D55-Pad1)*%
X243346400Y-49049400D03*
X247395800Y-49049400D03*
X249896900Y-84039300D03*
%TO.N,Net-(D56-Pad1)*%
X242944200Y-46766900D03*
%TO.N,Net-(D57-Pad1)*%
X179138100Y-41710000D03*
X155962700Y-41710000D03*
X151186800Y-46990000D03*
%TO.N,Net-(D58-Pad1)*%
X214620800Y-86773000D03*
%TO.N,Net-(D59-Pad1)*%
X257255000Y-67433900D03*
%TO.N,Net-(D61-Pad1)*%
X339213600Y-45308800D03*
%TO.N,Net-(D62-Pad1)*%
X222656000Y-84200700D03*
%TO.N,Net-(D63-Pad1)*%
X221625000Y-84218900D03*
%TO.N,Net-(D64-Pad1)*%
X235809600Y-83938200D03*
%TO.N,Net-(D65-Pad1)*%
X224276200Y-68463300D03*
X243771300Y-69379600D03*
X247027100Y-84039200D03*
%TO.N,Net-(D66-Pad1)*%
X227171400Y-83870900D03*
%TO.N,Net-(D67-Pad1)*%
X212846300Y-87949700D03*
%TO.N,Net-(D68-Pad1)*%
X106090200Y-48520900D03*
X131730300Y-109014600D03*
X152922200Y-109809200D03*
%TO.N,Net-(D70-Pad1)*%
X159142500Y-47319700D03*
%TO.N,Net-(D71-Pad1)*%
X237455400Y-52365100D03*
X253734700Y-58270800D03*
X258658900Y-83966700D03*
%TO.N,Net-(D72-Pad1)*%
X339025000Y-49320500D03*
%TO.N,Net-(Backspace1-Pad2)*%
X269967200Y-47078000D03*
%TO.N,Net-(D73-Pad1)*%
X254434700Y-67210800D03*
%TO.N,Net-(D74-Pad1)*%
X361378900Y-83469900D03*
%TO.N,Net-(CAPS1-Pad2)*%
X44114200Y-47026800D03*
%TO.N,Net-(D75-Pad1)*%
X234487200Y-67714800D03*
%TO.N,Net-(D76-Pad1)*%
X254747400Y-47876100D03*
%TO.N,Net-(D77-Pad1)*%
X279384300Y-67880700D03*
%TO.N,Net-(D78-Pad1)*%
X181341800Y-46840500D03*
X198075600Y-69407000D03*
X272383000Y-70233600D03*
%TO.N,Net-(D79-Pad1)*%
X320897900Y-45327500D03*
%TO.N,Net-(D80-Pad1)*%
X268096900Y-66230500D03*
%TO.N,Net-(D81-Pad1)*%
X336011000Y-48798000D03*
%TO.N,Net-(D82-Pad1)*%
X341062800Y-45083500D03*
X343530100Y-45083500D03*
X349989000Y-46183000D03*
%TO.N,Net-(D83-Pad1)*%
X333840000Y-48669200D03*
%TO.N,Net-(D84-Pad1)*%
X348726000Y-48510300D03*
%TO.N,LED_GND*%
X335011800Y-99982500D03*
X336225700Y-98768600D03*
X278093500Y-99941000D03*
X272010200Y-80626100D03*
X316921800Y-41127500D03*
X243483200Y-60454600D03*
X246229500Y-42107300D03*
X334991300Y-65589900D03*
X332987800Y-61854300D03*
X319657300Y-67443600D03*
X273278600Y-23099900D03*
X270335300Y-27375400D03*
X148958600Y-28902600D03*
X151618100Y-41541600D03*
%TO.N,LED_5V*%
X320338600Y-41290200D03*
X314891900Y-25140400D03*
X314420000Y-28902200D03*
X352117100Y-100998700D03*
X327440200Y-28262200D03*
X100113800Y-100939100D03*
X104062600Y-102165200D03*
X300589700Y-63521300D03*
X317746600Y-35465900D03*
X325765700Y-20226000D03*
X325701400Y-24539100D03*
X176106600Y-117955400D03*
X174444900Y-115401800D03*
X340124800Y-82514900D03*
X338568500Y-66652200D03*
X207732000Y-27452000D03*
X207388400Y-29986300D03*
X301991500Y-82648200D03*
%TO.N,ROW5*%
X106526300Y-12464100D03*
X243174400Y-17987000D03*
X341138100Y-89048400D03*
X373727400Y-87756400D03*
X311120600Y-23126300D03*
%TO.N,ROW2*%
X81273700Y-68666300D03*
X325351700Y-71625900D03*
X326909600Y-24296900D03*
X271283500Y-68781200D03*
X118177000Y-68782800D03*
X194477800Y-68702600D03*
X217408700Y-68913600D03*
X98756600Y-68666300D03*
X171866800Y-68634000D03*
X157571600Y-68893400D03*
X234124200Y-70132000D03*
%TO.N,COL0*%
X85581700Y-85517800D03*
X69828700Y-85643700D03*
X75058700Y-59386700D03*
X243513100Y-44710600D03*
X251003400Y-31027000D03*
X278036900Y-31033700D03*
X324305500Y-28597800D03*
X159859200Y-45254900D03*
X160933500Y-52156900D03*
%TO.N,COL1*%
X344476800Y-27896000D03*
X357349900Y-48538800D03*
X129307400Y-86732500D03*
X132571000Y-87775200D03*
X361352200Y-47307500D03*
X352571800Y-85471000D03*
%TO.N,COL2*%
X321248800Y-34890700D03*
X324164300Y-70546300D03*
X305059300Y-71443700D03*
X303170700Y-73332300D03*
X200960800Y-78369000D03*
X185543400Y-47654000D03*
X187770500Y-59781700D03*
X98058000Y-60112000D03*
X103467500Y-82001200D03*
X97124700Y-47915300D03*
%TO.N,COL3*%
X325376800Y-31052000D03*
X271252700Y-35452200D03*
X254152500Y-39233300D03*
X244816300Y-42306800D03*
X233125500Y-41911200D03*
X229307700Y-65452900D03*
X219505000Y-50896600D03*
X128219200Y-83211900D03*
X132487600Y-53419000D03*
%TO.N,COL4*%
X314067600Y-45275600D03*
X321846600Y-32802800D03*
X251213100Y-45555200D03*
X246653500Y-67322400D03*
X110491800Y-47606300D03*
X138478800Y-84020100D03*
X190467500Y-83713900D03*
X190607400Y-78138300D03*
X239713500Y-71286600D03*
X239646000Y-65575200D03*
%TO.N,COL5*%
X321130900Y-33579700D03*
X315070000Y-42938600D03*
X300065400Y-43171000D03*
X275032400Y-64364700D03*
X155578600Y-47849900D03*
X126460800Y-46840500D03*
X159422700Y-67791300D03*
X162820000Y-84907500D03*
%TO.N,COL6*%
X320143500Y-37582200D03*
X320119300Y-39293300D03*
X324782600Y-39293300D03*
X324575900Y-65407600D03*
X322262900Y-65900300D03*
X322338400Y-84991100D03*
X232888100Y-87807900D03*
X210902700Y-47201900D03*
X224994000Y-83513800D03*
%TO.N,COL7*%
X299782300Y-41639300D03*
X285798900Y-53433700D03*
X232230600Y-46324700D03*
X235415600Y-49145700D03*
X234104300Y-82146500D03*
X234909200Y-66230500D03*
%TO.N,COL8*%
X314145600Y-44275200D03*
X279648500Y-65329600D03*
X218891500Y-86288000D03*
X149042800Y-45829900D03*
X315548800Y-31737100D03*
X233058500Y-68440100D03*
X234878400Y-83424100D03*
%TO.N,COL9*%
X273176300Y-46990000D03*
X315888500Y-20913900D03*
X317293800Y-16867600D03*
X324516300Y-26250600D03*
X161999800Y-47401200D03*
X164199000Y-53233000D03*
X247877400Y-58931100D03*
X253040400Y-48201100D03*
X251137600Y-85890600D03*
%TO.N,COL10*%
X338411800Y-45950200D03*
X325386600Y-26990200D03*
X342175000Y-48510300D03*
X343396400Y-68913600D03*
X324607800Y-75663900D03*
X253298000Y-77856100D03*
X325481800Y-83179100D03*
X257883800Y-83233400D03*
X249517600Y-66230500D03*
X255114700Y-46875700D03*
%TO.N,COL11*%
X323936400Y-45766900D03*
X327130400Y-30961300D03*
X271246900Y-66230500D03*
X271239000Y-57825600D03*
X236715100Y-49871800D03*
X235397500Y-47048800D03*
X335543600Y-50439700D03*
X337192800Y-49320500D03*
X325902700Y-69095800D03*
%TO.N,COL12*%
X350264700Y-47396600D03*
X330030000Y-51971300D03*
X314895300Y-48284500D03*
X339163600Y-86215100D03*
X346128600Y-102452000D03*
X313004900Y-49491700D03*
X311673500Y-35734000D03*
%TO.N,COL13*%
X234459600Y-36025400D03*
X225297000Y-47205500D03*
X220978100Y-40812800D03*
X105428600Y-40812800D03*
X101034300Y-45234000D03*
X325140500Y-86260800D03*
X336729300Y-102268600D03*
X315543100Y-37677900D03*
X357414800Y-103185600D03*
X367882500Y-48515200D03*
%TO.N,ROW0*%
X312375400Y-37083700D03*
X296358500Y-59005100D03*
X239058600Y-54043600D03*
X141605700Y-30499000D03*
X160046400Y-29997400D03*
X66916500Y-29778500D03*
X84776000Y-29778500D03*
X357204300Y-45424000D03*
X314996200Y-47035700D03*
%TO.N,ROW3*%
X323692200Y-23449000D03*
X108104900Y-91798900D03*
X90610900Y-91663100D03*
X221938500Y-92881200D03*
X242445100Y-92535500D03*
%TO.N,ROW4*%
X261758500Y-104400700D03*
X209667900Y-108569100D03*
X355495900Y-39414900D03*
X363638000Y-39414900D03*
X241404000Y-54948900D03*
X249275500Y-55902100D03*
X327832600Y-23758900D03*
%TO.N,ROW1*%
X134127700Y-51326800D03*
X234333500Y-39451200D03*
X290218100Y-40300800D03*
X297174600Y-34938500D03*
X355278100Y-60115900D03*
X313507600Y-53152000D03*
X171876300Y-50175300D03*
X154614400Y-50059300D03*
X310274000Y-37168200D03*
X93252000Y-49636800D03*
X74412100Y-49636800D03*
%TO.N,LED_DATA*%
X314815200Y-39255700D03*
X315892300Y-25093600D03*
%TO.N,Net-(R2-Pad1)*%
X307990100Y-27003500D03*
X315578600Y-18524600D03*
%TO.N,Net-(R3-Pad1)*%
X316436100Y-19382000D03*
X311587300Y-26551200D03*
%TO.N,Net-(D167-Pad2)*%
X326497800Y-101118300D03*
X333125800Y-100758600D03*
%TO.N,Net-(D103-Pad4)*%
X156987800Y-100102300D03*
X163739300Y-98445800D03*
%TO.N,Net-(D101-Pad2)*%
X256419900Y-61699600D03*
X261851000Y-63543900D03*
X276600500Y-63701400D03*
X279461000Y-62738000D03*
%TO.N,Net-(D104-Pad2)*%
X238586500Y-41681400D03*
X124929300Y-24739600D03*
%TO.N,Net-(D109-Pad2)*%
X267572500Y-34722800D03*
X249649400Y-25872900D03*
%TO.N,Net-(D113-Pad2)*%
X100231300Y-99877200D03*
X122880800Y-100739600D03*
%TO.N,Net-(D116-Pad2)*%
X199701800Y-61824800D03*
X218665600Y-64633200D03*
%TO.N,Net-(D124-Pad2)*%
X285224200Y-22485400D03*
X309122100Y-24739600D03*
%TO.N,Net-(D129-Pad2)*%
X271221300Y-23929700D03*
X264577300Y-21171300D03*
%TO.N,Net-(D142-Pad2)*%
X76101000Y-23715600D03*
X87692200Y-79425900D03*
%TO.N,Net-(D143-Pad2)*%
X133808200Y-24549700D03*
X93403600Y-119320300D03*
%TO.N,Net-(D144-Pad2)*%
X310442500Y-20101100D03*
X277798800Y-24790400D03*
%TO.N,Net-(D152-Pad2)*%
X353302900Y-100198900D03*
X343296500Y-78138200D03*
X96465500Y-78847500D03*
X93526100Y-25571800D03*
%TO.N,Net-(D154-Pad2)*%
X118240100Y-119082900D03*
X154620500Y-124288700D03*
X366015000Y-124288700D03*
X377762100Y-24832400D03*
%TO.N,Net-(D155-Pad2)*%
X325293300Y-43105800D03*
X291776900Y-42445000D03*
%TO.N,Net-(D156-Pad2)*%
X43373900Y-61988700D03*
X68408900Y-63751700D03*
%TO.N,Net-(D161-Pad2)*%
X46638900Y-79906600D03*
X46190800Y-64037200D03*
%TO.N,Net-(D163-Pad2)*%
X219275800Y-118868100D03*
X195259600Y-26282500D03*
%TO.N,Net-(D164-Pad2)*%
X157349500Y-120371300D03*
X182223600Y-119547900D03*
%TO.N,ROW6*%
X325516700Y-25989800D03*
%TO.N,Net-(D180-Pad2)*%
X367265800Y-61905600D03*
X361661700Y-18672800D03*
X79074200Y-12428700D03*
X71682000Y-24841200D03*
%TO.N,Net-(D187-Pad2)*%
X194977300Y-100171400D03*
X197663400Y-98739100D03*
%TO.N,Net-(D195-Pad2)*%
X331312200Y-63748400D03*
X327370700Y-68651000D03*
X298675200Y-66965600D03*
X298324800Y-61721000D03*
%TO.N,Net-(C107-Pad1)*%
X319229900Y-34157300D03*
X319361200Y-57902700D03*
%TO.N,Net-(C108-Pad1)*%
X319062900Y-35157700D03*
X319434300Y-55618800D03*
%TO.N,Net-(D60-Pad1)*%
X258260500Y-40467300D03*
X234940000Y-40467300D03*
X235499000Y-67488500D03*
%TO.N,Net-(D85-Pad1)*%
X217985200Y-47451800D03*
X224090800Y-41346200D03*
X294931200Y-41269200D03*
%TO.N,Net-(D86-Pad1)*%
X58270600Y-47182000D03*
%TO.N,Net-(D87-Pad1)*%
X354829400Y-83391300D03*
%TO.N,Net-(D88-Pad1)*%
X346904800Y-103177400D03*
%TO.N,Net-(D89-Pad1)*%
X76188000Y-45770000D03*
%TO.N,Net-(D90-Pad1)*%
X37984000Y-46990000D03*
%TO.N,Net-(D91-Pad1)*%
X352322500Y-102604900D03*
%TO.N,Net-(D92-Pad1)*%
X358393400Y-109032000D03*
%TO.N,Net-(D93-Pad1)*%
X364454000Y-48515200D03*
%TO.N,Net-(D94-Pad1)*%
X235532100Y-57825400D03*
X241464500Y-59692900D03*
X297355500Y-60503700D03*
%TO.N,Net-(D104-Pad4)*%
X114760400Y-23639600D03*
X143349800Y-36177700D03*
X205443500Y-39264400D03*
X248586700Y-109430000D03*
%TO.N,Net-(D170-Pad2)*%
X302608200Y-20286700D03*
X334037400Y-41333000D03*
%TO.N,Net-(D177-Pad2)*%
X233172300Y-99637400D03*
X237027800Y-102166800D03*
%TO.N,RESET*%
X317328900Y-34465500D03*
X318667000Y-106177700D03*
%TO.N,LED_OUT*%
X222927000Y-97934000D03*
X164939000Y-120696200D03*
%TD*%
D14*
%TO.N,Net-(D2-Pad1)*%
X109026000Y-16129000D02*
X109026000Y-17704300D01*
X69054500Y-45770000D02*
X69054500Y-22979100D01*
X69054500Y-22979100D02*
X69893500Y-22140100D01*
X103463500Y-22140100D02*
X107899300Y-17704300D01*
X107899300Y-17704300D02*
X109026000Y-17704300D01*
%TO.N,Net-(D3-Pad1)*%
X35334700Y-111496000D02*
X35334700Y-98840200D01*
X35334700Y-98840200D02*
X49017300Y-85157600D01*
%TO.N,Net-(D4-Pad1)*%
X227517000Y-92329000D02*
X227517000Y-90623200D01*
X227517000Y-90623200D02*
X222132700Y-85238900D01*
X222132700Y-85238900D02*
X221598100Y-85238900D01*
X221598100Y-85238900D02*
X215002500Y-78643300D01*
X215002500Y-78643300D02*
X213033100Y-78643300D01*
X213033100Y-78643300D02*
X192229500Y-57839700D01*
X192229500Y-57839700D02*
X192229500Y-49837100D01*
X192229500Y-49837100D02*
X187507500Y-45115100D01*
X187507500Y-45115100D02*
X186731700Y-45115100D01*
%TO.N,Net-(D5-Pad1)*%
X177662800Y-46050700D02*
X177662800Y-41408900D01*
X177662800Y-41408900D02*
X182783900Y-36287800D01*
X182783900Y-36287800D02*
X182783900Y-26501100D01*
X182783900Y-26501100D02*
X188500500Y-20784500D01*
X222331500Y-19761500D02*
X223326000Y-18767000D01*
X223326000Y-18767000D02*
X223326000Y-16129000D01*
%TO.N,Net-(D6-Pad1)*%
X32826000Y-35133900D02*
X32826000Y-68988000D01*
X32826000Y-68988000D02*
X47548100Y-83710100D01*
%TO.N,Net-(D7-Pad1)*%
X52751400Y-46990000D02*
X52062900Y-46301500D01*
X52062900Y-46301500D02*
X43699600Y-46301500D01*
X43699600Y-46301500D02*
X37714700Y-52286400D01*
X37714700Y-52286400D02*
X37714700Y-54235200D01*
%TO.N,Net-(D8-Pad1)*%
X51876000Y-35133900D02*
X51876000Y-36917000D01*
X51876000Y-36917000D02*
X63870500Y-48911500D01*
X63870500Y-48911500D02*
X75774200Y-48911500D01*
X75774200Y-48911500D02*
X77381900Y-50519200D01*
X77381900Y-50519200D02*
X77381900Y-62474600D01*
X77381900Y-62474600D02*
X82449300Y-67542000D01*
X82449300Y-67542000D02*
X82449300Y-69352000D01*
X82449300Y-69352000D02*
X82301000Y-69500300D01*
X82301000Y-69500300D02*
X82301000Y-77262900D01*
X82301000Y-77262900D02*
X89015300Y-83977200D01*
%TO.N,Net-(D9-Pad1)*%
X120116000Y-85004700D02*
X120116000Y-80758800D01*
X120116000Y-80758800D02*
X110758400Y-71401200D01*
X110758400Y-71401200D02*
X106485600Y-71401200D01*
X106485600Y-71401200D02*
X106160800Y-71726000D01*
X74119900Y-68436000D02*
X61528000Y-55844100D01*
X61528000Y-55844100D02*
X61528000Y-54102000D01*
%TO.N,Net-(D10-Pad1)*%
X69356400Y-84435400D02*
X66227000Y-81306000D01*
X66227000Y-81306000D02*
X66227000Y-73279000D01*
%TO.N,Net-(D11-Pad1)*%
X44859700Y-92319000D02*
X44859700Y-90743700D01*
X44859700Y-90743700D02*
X49570200Y-86033200D01*
X49570200Y-86033200D02*
X68182700Y-86033200D01*
X68182700Y-86033200D02*
X68537900Y-86388400D01*
X68537900Y-86388400D02*
X78375800Y-86388400D01*
X78375800Y-86388400D02*
X79643900Y-85120300D01*
%TO.N,Net-(D12-Pad1)*%
X59252000Y-111496000D02*
X59252000Y-96194400D01*
X59252000Y-96194400D02*
X63011500Y-92434900D01*
%TO.N,Net-(D13-Pad1)*%
X336588500Y-59261300D02*
X336588500Y-66563000D01*
X336588500Y-66563000D02*
X339081100Y-69055600D01*
X339081100Y-69055600D02*
X339081100Y-72145600D01*
X339081100Y-72145600D02*
X337192800Y-74033900D01*
X337192800Y-74033900D02*
X336305300Y-74033900D01*
X336305300Y-74033900D02*
X323605000Y-86734200D01*
X323605000Y-86734200D02*
X323605000Y-92329000D01*
%TO.N,Net-(D14-Pad1)*%
X342655000Y-16129000D02*
X342655000Y-17922100D01*
X342655000Y-17922100D02*
X355348000Y-30615100D01*
X355348000Y-30615100D02*
X357386500Y-30615100D01*
X357386500Y-30615100D02*
X358105700Y-31334300D01*
X358105700Y-31334300D02*
X358105700Y-53077600D01*
X358105700Y-53077600D02*
X356215400Y-54967900D01*
X356215400Y-54967900D02*
X354738900Y-54967900D01*
X354738900Y-54967900D02*
X353415300Y-56291500D01*
X353415300Y-56291500D02*
X353415300Y-61633800D01*
X353415300Y-61633800D02*
X349868000Y-65181100D01*
X349868000Y-65181100D02*
X349868000Y-72840000D01*
X349868000Y-72840000D02*
X347838200Y-74869800D01*
X347838200Y-74869800D02*
X347838200Y-84353300D01*
X347838200Y-84353300D02*
X348955900Y-85471000D01*
%TO.N,Net-(D15-Pad1)*%
X85277000Y-73279000D02*
X85277000Y-75005700D01*
X85277000Y-75005700D02*
X88454700Y-78183400D01*
X103962000Y-78326500D02*
X107214100Y-81578600D01*
X107214100Y-81578600D02*
X107214100Y-84437200D01*
X107214100Y-84437200D02*
X106376000Y-85275300D01*
%TO.N,Net-(D16-Pad1)*%
X75752000Y-92329000D02*
X75752000Y-107177000D01*
X75752000Y-107177000D02*
X81663700Y-113088700D01*
X81663700Y-113088700D02*
X84567800Y-113088700D01*
X84567800Y-113088700D02*
X84731200Y-112925300D01*
X84731200Y-112925300D02*
X84731200Y-108954400D01*
X84731200Y-108954400D02*
X91838100Y-101847500D01*
X91838100Y-101847500D02*
X91838100Y-79522100D01*
X91838100Y-79522100D02*
X90507300Y-78191300D01*
X90507300Y-78191300D02*
X90507300Y-74822700D01*
X90507300Y-74822700D02*
X90878100Y-74451900D01*
X90878100Y-74451900D02*
X90878100Y-72545500D01*
X90878100Y-72545500D02*
X90709100Y-72376500D01*
X90709100Y-72376500D02*
X90709100Y-55750000D01*
X90709100Y-55750000D02*
X87001900Y-52042800D01*
X87001900Y-52042800D02*
X87001900Y-48805100D01*
%TO.N,Net-(D17-Pad1)*%
X83128000Y-111496000D02*
X83128000Y-104006300D01*
X83128000Y-104006300D02*
X91363900Y-95770400D01*
X91363900Y-95770400D02*
X91363900Y-86792500D01*
X91363900Y-86792500D02*
X90357100Y-85785700D01*
%TO.N,Net-(D18-Pad1)*%
X89976000Y-16129000D02*
X89976000Y-17704300D01*
X89976000Y-17704300D02*
X85975800Y-21704500D01*
X85975800Y-21704500D02*
X85975800Y-29952400D01*
X85975800Y-29952400D02*
X86376400Y-30353000D01*
X86376400Y-30353000D02*
X86376400Y-44003000D01*
X86376400Y-44003000D02*
X84403700Y-45975700D01*
%TO.N,Net-(D19-Pad1)*%
X242376000Y-16129000D02*
X242376000Y-24531100D01*
X242376000Y-24531100D02*
X248692400Y-30847500D01*
X195540000Y-47200600D02*
X195540000Y-36679300D01*
X195540000Y-36679300D02*
X197332500Y-34886800D01*
%TO.N,Net-(D20-Pad1)*%
X90710200Y-84719400D02*
X90710200Y-83469900D01*
X90710200Y-83469900D02*
X83201600Y-75961300D01*
X83201600Y-75961300D02*
X83201600Y-69873500D01*
X83201600Y-69873500D02*
X83349900Y-69725200D01*
X83349900Y-69725200D02*
X83349900Y-67168800D01*
X83349900Y-67168800D02*
X78282500Y-62101400D01*
X78282500Y-62101400D02*
X78282500Y-50146000D01*
X78282500Y-50146000D02*
X70926100Y-42789600D01*
X70926100Y-42789600D02*
X70926000Y-42789600D01*
X70926000Y-42789600D02*
X70926000Y-36709200D01*
X70926000Y-35133900D02*
X70926000Y-36709200D01*
%TO.N,Net-(D21-Pad1)*%
X82051300Y-54102000D02*
X82051300Y-52638400D01*
X82051300Y-52638400D02*
X87787700Y-46902000D01*
X87787700Y-46902000D02*
X88260300Y-46902000D01*
X80451000Y-54102000D02*
X82051300Y-54102000D01*
%TO.N,Net-(D22-Pad1)*%
X106488700Y-83343000D02*
X103774900Y-83343000D01*
X103774900Y-83343000D02*
X96582700Y-76150800D01*
X96582700Y-76150800D02*
X96582700Y-74812500D01*
X96582700Y-74812500D02*
X93541900Y-71771700D01*
X93541900Y-71771700D02*
X93541900Y-59025500D01*
X93541900Y-59025500D02*
X94282100Y-58285300D01*
X94282100Y-58285300D02*
X94282100Y-55131300D01*
X94282100Y-55131300D02*
X92485800Y-53335000D01*
X92485800Y-53335000D02*
X92485800Y-40541200D01*
X92485800Y-40541200D02*
X89976000Y-38031400D01*
X89976000Y-38031400D02*
X89976000Y-35133900D01*
%TO.N,Net-(D23-Pad1)*%
X99374000Y-54102000D02*
X99374000Y-67523600D01*
X99374000Y-67523600D02*
X101589700Y-69739300D01*
X101589700Y-69739300D02*
X101589700Y-74928400D01*
X101589700Y-74928400D02*
X108144300Y-81483000D01*
X108144300Y-81483000D02*
X108144300Y-84128700D01*
%TO.N,Net-(D24-Pad1)*%
X104327000Y-73279000D02*
X104327000Y-75107500D01*
X104327000Y-75107500D02*
X114949500Y-85730000D01*
X114949500Y-85730000D02*
X141033500Y-85730000D01*
X141033500Y-85730000D02*
X142558900Y-84204600D01*
%TO.N,Net-(D25-Pad1)*%
X94548000Y-90753700D02*
X95555700Y-90753700D01*
X95555700Y-90753700D02*
X101827200Y-84482200D01*
X94548000Y-92329000D02*
X94548000Y-90753700D01*
%TO.N,Net-(D26-Pad1)*%
X128076000Y-16129000D02*
X128076000Y-17944700D01*
X128076000Y-17944700D02*
X130791900Y-20660600D01*
X130791900Y-20660600D02*
X134256300Y-20660600D01*
X134256300Y-20660600D02*
X144526600Y-30930900D01*
X144526600Y-30930900D02*
X144526600Y-36718200D01*
X144526600Y-36718200D02*
X135096600Y-46148200D01*
X135096600Y-46148200D02*
X129680100Y-46148200D01*
%TO.N,Net-(D27-Pad1)*%
X231835000Y-54102000D02*
X231835000Y-55677300D01*
X232636400Y-64430100D02*
X232636400Y-56478700D01*
X232636400Y-56478700D02*
X231835000Y-55677300D01*
%TO.N,Net-(D28-Pad1)*%
X299674000Y-16129000D02*
X287196100Y-16129000D01*
X287196100Y-16129000D02*
X283473200Y-19851900D01*
X283473200Y-19851900D02*
X281622300Y-19851900D01*
X281622300Y-19851900D02*
X269099900Y-32374300D01*
X269099900Y-32374300D02*
X269099900Y-32947200D01*
X202641900Y-46990000D02*
X200663800Y-45011900D01*
X200663800Y-45011900D02*
X200663800Y-40053500D01*
%TO.N,Net-(D29-Pad1)*%
X123377000Y-73279000D02*
X123377000Y-75082300D01*
X123377000Y-75082300D02*
X129430200Y-81135500D01*
X129430200Y-81135500D02*
X142433800Y-81135500D01*
X142433800Y-81135500D02*
X146806000Y-85507700D01*
%TO.N,Net-(D30-Pad1)*%
X113471000Y-90753700D02*
X115046300Y-90753700D01*
X115046300Y-90753700D02*
X116015900Y-89784100D01*
X113471000Y-92329000D02*
X113471000Y-90753700D01*
%TO.N,Net-(D31-Pad1)*%
X186234400Y-84355000D02*
X175026200Y-73146800D01*
X175026200Y-73146800D02*
X171113000Y-73146800D01*
X171113000Y-73146800D02*
X157413600Y-59447400D01*
X157413600Y-59447400D02*
X157413600Y-55895800D01*
X157413600Y-55895800D02*
X157748300Y-55561100D01*
X157748300Y-55561100D02*
X157748300Y-36666500D01*
X157748300Y-36666500D02*
X147126000Y-26044200D01*
X147126000Y-26044200D02*
X147126000Y-16129000D01*
%TO.N,Net-(D32-Pad1)*%
X249168900Y-67708300D02*
X248327700Y-66867100D01*
X248327700Y-66867100D02*
X248327700Y-59506600D01*
X248327700Y-59506600D02*
X248602700Y-59231600D01*
X248602700Y-59231600D02*
X248602700Y-58630600D01*
X248602700Y-58630600D02*
X248533900Y-58561800D01*
X248533900Y-58561800D02*
X248533900Y-54852800D01*
X248533900Y-54852800D02*
X249284700Y-54102000D01*
X250885000Y-54102000D02*
X249284700Y-54102000D01*
%TO.N,Net-(D33-Pad1)*%
X280476000Y-17704300D02*
X280476000Y-18855900D01*
X280476000Y-18855900D02*
X268318300Y-31013600D01*
X268318300Y-31013600D02*
X268318300Y-35015600D01*
X268318300Y-35015600D02*
X262166500Y-41167400D01*
X262166500Y-41167400D02*
X262166500Y-46791300D01*
X280476000Y-16129000D02*
X280476000Y-17704300D01*
%TO.N,Net-(D34-Pad1)*%
X105236600Y-45762300D02*
X109026000Y-41972900D01*
X109026000Y-41972900D02*
X109026000Y-36709200D01*
X109026000Y-35133900D02*
X109026000Y-36709200D01*
%TO.N,Net-(D35-Pad1)*%
X132188800Y-83833100D02*
X132070700Y-83951200D01*
X132070700Y-83951200D02*
X127932500Y-83951200D01*
X127932500Y-83951200D02*
X117452900Y-73471600D01*
X117452900Y-73471600D02*
X114570400Y-73471600D01*
X114570400Y-73471600D02*
X112601600Y-71502800D01*
X112601600Y-71502800D02*
X112601600Y-61372700D01*
X112601600Y-61372700D02*
X118297000Y-55677300D01*
X118297000Y-54102000D02*
X118297000Y-55677300D01*
%TO.N,Net-(D36-Pad1)*%
X128076000Y-36709200D02*
X125668700Y-39116500D01*
X125668700Y-39116500D02*
X125668700Y-47155900D01*
X125668700Y-47155900D02*
X126771600Y-48258800D01*
X126771600Y-48258800D02*
X132085500Y-48258800D01*
X132085500Y-48258800D02*
X134853000Y-51026300D01*
X134853000Y-51026300D02*
X134853000Y-54789700D01*
X134853000Y-54789700D02*
X147601500Y-67538200D01*
X147601500Y-67538200D02*
X157242400Y-67538200D01*
X157242400Y-67538200D02*
X158296900Y-68592700D01*
X158296900Y-68592700D02*
X158296900Y-83871200D01*
X158296900Y-83871200D02*
X158601000Y-84175300D01*
X128076000Y-35133900D02*
X128076000Y-36709200D01*
%TO.N,Net-(D37-Pad1)*%
X161359100Y-84189300D02*
X158747300Y-81577500D01*
X158747300Y-81577500D02*
X158747300Y-68406100D01*
X158747300Y-68406100D02*
X157270100Y-66928900D01*
X157270100Y-66928900D02*
X148263800Y-66928900D01*
X148263800Y-66928900D02*
X137220000Y-55885100D01*
X137220000Y-55885100D02*
X137220000Y-54102000D01*
%TO.N,Net-(D38-Pad1)*%
X142173000Y-73279000D02*
X142173000Y-75062100D01*
X142173000Y-75062100D02*
X153443700Y-86332800D01*
X153443700Y-86332800D02*
X164966100Y-86332800D01*
%TO.N,Net-(D39-Pad1)*%
X132394000Y-92329000D02*
X126850400Y-92329000D01*
X126850400Y-92329000D02*
X125717800Y-91196400D01*
X125717800Y-91196400D02*
X125717800Y-89300000D01*
X125717800Y-89300000D02*
X123857000Y-87439200D01*
X123857000Y-87439200D02*
X115434300Y-87439200D01*
X115434300Y-87439200D02*
X102726600Y-74731500D01*
X102726600Y-74731500D02*
X102726600Y-57523400D01*
X102726600Y-57523400D02*
X107361800Y-52888200D01*
X107361800Y-52888200D02*
X107361800Y-51060600D01*
X107361800Y-51060600D02*
X109135800Y-49286600D01*
%TO.N,Net-(D40-Pad1)*%
X166176000Y-17704300D02*
X159321100Y-24559200D01*
X159321100Y-24559200D02*
X159321100Y-36209500D01*
X159321100Y-36209500D02*
X158589800Y-36940800D01*
X158589800Y-36940800D02*
X158589800Y-42750600D01*
X158589800Y-42750600D02*
X163619000Y-47779800D01*
X163619000Y-47779800D02*
X163619000Y-51522900D01*
X163619000Y-51522900D02*
X165683700Y-53587600D01*
X165683700Y-53587600D02*
X168953800Y-53587600D01*
X168953800Y-53587600D02*
X190504300Y-75138100D01*
X190504300Y-75138100D02*
X190504300Y-75799400D01*
X190504300Y-75799400D02*
X199528300Y-84823400D01*
X199528300Y-84823400D02*
X202418200Y-84823400D01*
X166176000Y-16129000D02*
X166176000Y-17704300D01*
%TO.N,Net-(D41-Pad1)*%
X282391000Y-92382500D02*
X282391000Y-89660000D01*
X282391000Y-89660000D02*
X270534000Y-77803000D01*
X270534000Y-77803000D02*
X269313500Y-77803000D01*
X269313500Y-77803000D02*
X258204200Y-66693700D01*
X258204200Y-66693700D02*
X256811200Y-66693700D01*
X256811200Y-66693700D02*
X255566300Y-67938600D01*
X255566300Y-67938600D02*
X254088800Y-67938600D01*
X254088800Y-67938600D02*
X253692000Y-67541800D01*
X253692000Y-67541800D02*
X253692000Y-65877100D01*
X253692000Y-65877100D02*
X253991400Y-65577700D01*
%TO.N,Net-(D42-Pad1)*%
X195118100Y-20107200D02*
X195118100Y-17704500D01*
X195118100Y-17704500D02*
X191710800Y-14297200D01*
X191710800Y-14297200D02*
X184072700Y-14297200D01*
X184072700Y-14297200D02*
X181642100Y-16727800D01*
X181642100Y-16727800D02*
X181642100Y-33962900D01*
X181642100Y-33962900D02*
X181243300Y-34361700D01*
X181243300Y-34361700D02*
X180392200Y-34361700D01*
X180392200Y-34361700D02*
X169032900Y-45721000D01*
X169032900Y-45721000D02*
X169032900Y-47965600D01*
X203780400Y-19273400D02*
X204276000Y-18777800D01*
X204276000Y-18777800D02*
X204276000Y-16129000D01*
%TO.N,Net-(D43-Pad1)*%
X161223000Y-73279000D02*
X161223000Y-75091300D01*
X161223000Y-75091300D02*
X164320200Y-78188500D01*
X197291900Y-84815300D02*
X197291900Y-83737900D01*
X197291900Y-83737900D02*
X190954200Y-77400200D01*
X190954200Y-77400200D02*
X189929300Y-77400200D01*
X189929300Y-77400200D02*
X189141000Y-78188500D01*
%TO.N,Net-(D44-Pad1)*%
X151317000Y-90753700D02*
X154959100Y-87111600D01*
X154959100Y-87111600D02*
X157378000Y-87111600D01*
X151317000Y-92329000D02*
X151317000Y-90753700D01*
%TO.N,Net-(D45-Pad1)*%
X185226000Y-17704300D02*
X182333600Y-20596700D01*
X182333600Y-20596700D02*
X182333600Y-35839600D01*
X182333600Y-35839600D02*
X168373800Y-49799400D01*
X168373800Y-49799400D02*
X168373800Y-52927900D01*
X168373800Y-52927900D02*
X168583200Y-53137300D01*
X168583200Y-53137300D02*
X172316300Y-53137300D01*
X172316300Y-53137300D02*
X173177000Y-52276600D01*
X173177000Y-52276600D02*
X179621800Y-52276600D01*
X179621800Y-52276600D02*
X180641400Y-53296200D01*
X180641400Y-53296200D02*
X180641400Y-55233500D01*
X180641400Y-55233500D02*
X180255900Y-55619000D01*
X180255900Y-55619000D02*
X180255900Y-63215000D01*
X180255900Y-63215000D02*
X189866300Y-72825400D01*
X189866300Y-72825400D02*
X194391500Y-72825400D01*
X194391500Y-72825400D02*
X204986800Y-83420700D01*
X204986800Y-83420700D02*
X205070800Y-83420700D01*
X185226000Y-16129000D02*
X185226000Y-17704300D01*
%TO.N,Net-(D46-Pad1)*%
X244839700Y-92329000D02*
X244839700Y-92238600D01*
X244839700Y-92238600D02*
X244215500Y-91614400D01*
X246440000Y-92329000D02*
X244839700Y-92329000D01*
X214350700Y-48640100D02*
X218498100Y-52787500D01*
X218498100Y-52787500D02*
X218498100Y-55289900D01*
X218498100Y-55289900D02*
X218107300Y-55680700D01*
X218107300Y-55680700D02*
X218107300Y-59195700D01*
X218107300Y-59195700D02*
X225902300Y-66990700D01*
X225902300Y-66990700D02*
X225902300Y-70803100D01*
X225902300Y-70803100D02*
X228294700Y-73195500D01*
X228294700Y-73195500D02*
X230100900Y-73195500D01*
X230100900Y-73195500D02*
X232189300Y-75283900D01*
X232189300Y-75283900D02*
X232189300Y-83052800D01*
X232189300Y-83052800D02*
X233740600Y-84604100D01*
X233740600Y-84604100D02*
X233740600Y-89669300D01*
X233740600Y-89669300D02*
X235346900Y-91275600D01*
%TO.N,Net-(D47-Pad1)*%
X361578000Y-17704300D02*
X357744000Y-21538300D01*
X357744000Y-21538300D02*
X357744000Y-29730700D01*
X357744000Y-29730700D02*
X358599700Y-30586400D01*
X358599700Y-30586400D02*
X358599700Y-53289200D01*
X358599700Y-53289200D02*
X356470700Y-55418200D01*
X356470700Y-55418200D02*
X354925500Y-55418200D01*
X354925500Y-55418200D02*
X353865600Y-56478100D01*
X353865600Y-56478100D02*
X353865600Y-66428200D01*
X353865600Y-66428200D02*
X350929600Y-69364200D01*
X350929600Y-69364200D02*
X350929600Y-72572500D01*
X350929600Y-72572500D02*
X352571800Y-74214700D01*
X352571800Y-74214700D02*
X352571800Y-81755800D01*
X352571800Y-81755800D02*
X349782000Y-84545600D01*
X361578000Y-16129000D02*
X361578000Y-17704300D01*
%TO.N,Net-(D48-Pad1)*%
X181747000Y-84423100D02*
X175025300Y-77701400D01*
X175025300Y-77701400D02*
X174057700Y-77701400D01*
X174057700Y-77701400D02*
X154766500Y-58410200D01*
X154766500Y-58410200D02*
X154766500Y-57360700D01*
X154766500Y-57360700D02*
X154505300Y-57099500D01*
X154505300Y-57099500D02*
X154505300Y-52665500D01*
X154505300Y-52665500D02*
X157243300Y-49927500D01*
X157243300Y-49927500D02*
X157243300Y-41265500D01*
X157243300Y-41265500D02*
X156489100Y-40511300D01*
X156489100Y-40511300D02*
X154435300Y-40511300D01*
X154435300Y-40511300D02*
X152679600Y-42267000D01*
X152679600Y-42267000D02*
X151232900Y-42267000D01*
X151232900Y-42267000D02*
X147126000Y-38160100D01*
X147126000Y-38160100D02*
X147126000Y-35133900D01*
%TO.N,Net-(D49-Pad1)*%
X189510000Y-85305800D02*
X185650400Y-85305800D01*
X185650400Y-85305800D02*
X174100700Y-73756100D01*
X174100700Y-73756100D02*
X171085400Y-73756100D01*
X171085400Y-73756100D02*
X156143000Y-58813700D01*
X156143000Y-58813700D02*
X156143000Y-54102000D01*
%TO.N,Net-(D50-Pad1)*%
X166176000Y-35133900D02*
X166176000Y-46745100D01*
X166176000Y-46745100D02*
X164344300Y-48576800D01*
%TO.N,Net-(D51-Pad1)*%
X175066000Y-54102000D02*
X175066000Y-58662000D01*
X175066000Y-58662000D02*
X191736700Y-75332700D01*
X191736700Y-75332700D02*
X191736700Y-76370400D01*
X191736700Y-76370400D02*
X199464400Y-84098100D01*
X199464400Y-84098100D02*
X202718700Y-84098100D01*
X202718700Y-84098100D02*
X202803300Y-84182700D01*
X202803300Y-84182700D02*
X219792400Y-84182700D01*
X219792400Y-84182700D02*
X221306300Y-85696600D01*
X221306300Y-85696600D02*
X221943200Y-85696600D01*
X221943200Y-85696600D02*
X225710900Y-89464300D01*
X225710900Y-89464300D02*
X225710900Y-90059500D01*
%TO.N,Net-(D52-Pad1)*%
X139044700Y-48083800D02*
X145262400Y-54301500D01*
X145262400Y-54301500D02*
X149190400Y-54301500D01*
X149190400Y-54301500D02*
X153140600Y-58251700D01*
X153140600Y-58251700D02*
X153140600Y-58961500D01*
X180273000Y-73279000D02*
X180273000Y-68902600D01*
X180273000Y-68902600D02*
X169498400Y-58128000D01*
%TO.N,Net-(D53-Pad1)*%
X170240000Y-90753700D02*
X177912000Y-83081700D01*
X177912000Y-83081700D02*
X177912000Y-82851000D01*
X170240000Y-92329000D02*
X170240000Y-90753700D01*
%TO.N,Net-(D54-Pad1)*%
X249498000Y-111496000D02*
X249498000Y-105994300D01*
X249498000Y-105994300D02*
X238183400Y-94679700D01*
X238183400Y-94679700D02*
X238183400Y-92945400D01*
X238183400Y-92945400D02*
X234416000Y-89178000D01*
X234416000Y-89178000D02*
X234416000Y-84642600D01*
X234416000Y-84642600D02*
X232808700Y-83035300D01*
X232808700Y-83035300D02*
X232808700Y-75027800D01*
X232808700Y-75027800D02*
X230339600Y-72558700D01*
X230339600Y-72558700D02*
X230339600Y-68562300D01*
X230339600Y-68562300D02*
X226554900Y-64777600D01*
%TO.N,Net-(D55-Pad1)*%
X242376000Y-36709200D02*
X242218900Y-36866300D01*
X242218900Y-36866300D02*
X242218900Y-47921900D01*
X242218900Y-47921900D02*
X243346400Y-49049400D01*
X247395800Y-49049400D02*
X247395800Y-52890400D01*
X247395800Y-52890400D02*
X246135400Y-54150800D01*
X246135400Y-54150800D02*
X246135400Y-66133600D01*
X246135400Y-66133600D02*
X245685000Y-66584000D01*
X245685000Y-66584000D02*
X245685000Y-71700500D01*
X245685000Y-71700500D02*
X248387700Y-74403200D01*
X248387700Y-74403200D02*
X248387700Y-82530100D01*
X248387700Y-82530100D02*
X249896900Y-84039300D01*
X242376000Y-35133900D02*
X242376000Y-36709200D01*
%TO.N,Net-(D56-Pad1)*%
X261426000Y-16129000D02*
X250689300Y-16129000D01*
X250689300Y-16129000D02*
X248834900Y-14274600D01*
X248834900Y-14274600D02*
X241154600Y-14274600D01*
X241154600Y-14274600D02*
X240739900Y-14689300D01*
X240739900Y-14689300D02*
X240739900Y-24335800D01*
X240739900Y-24335800D02*
X243981300Y-27577200D01*
X243981300Y-27577200D02*
X243981300Y-36884800D01*
X243981300Y-36884800D02*
X242787800Y-38078300D01*
X242787800Y-38078300D02*
X242787800Y-46610500D01*
X242787800Y-46610500D02*
X242944200Y-46766900D01*
%TO.N,Net-(D57-Pad1)*%
X199323000Y-73279000D02*
X199323000Y-69617200D01*
X199323000Y-69617200D02*
X191713300Y-62007500D01*
X191713300Y-62007500D02*
X191713300Y-49957800D01*
X191713300Y-49957800D02*
X187780900Y-46025400D01*
X187780900Y-46025400D02*
X183453500Y-46025400D01*
X183453500Y-46025400D02*
X179138100Y-41710000D01*
X155962700Y-41710000D02*
X151186800Y-46485900D01*
X151186800Y-46485900D02*
X151186800Y-46990000D01*
%TO.N,Net-(D58-Pad1)*%
X189290000Y-90753700D02*
X193275100Y-86768600D01*
X193275100Y-86768600D02*
X214616400Y-86768600D01*
X214616400Y-86768600D02*
X214620800Y-86773000D01*
X189290000Y-92329000D02*
X189290000Y-90753700D01*
%TO.N,Net-(D59-Pad1)*%
X273374000Y-111496000D02*
X273374000Y-96918300D01*
X273374000Y-96918300D02*
X257720400Y-81264700D01*
X257720400Y-81264700D02*
X257720400Y-75064100D01*
X257720400Y-75064100D02*
X258076200Y-74708300D01*
X258076200Y-74708300D02*
X258076200Y-68255100D01*
X258076200Y-68255100D02*
X257255000Y-67433900D01*
%TO.N,Net-(D61-Pad1)*%
X339213600Y-45308800D02*
X339213600Y-44531000D01*
X339213600Y-44531000D02*
X334796100Y-40113500D01*
X334796100Y-40113500D02*
X334796100Y-36694900D01*
X334796100Y-36694900D02*
X328756300Y-30655100D01*
X328756300Y-30655100D02*
X328756300Y-30287600D01*
X328756300Y-30287600D02*
X327636300Y-29167600D01*
X327636300Y-29167600D02*
X327319900Y-29167600D01*
X327319900Y-29167600D02*
X326704200Y-28551900D01*
X326704200Y-28551900D02*
X326704200Y-26151500D01*
X326704200Y-26151500D02*
X325817200Y-25264500D01*
X325817200Y-25264500D02*
X325192900Y-25264500D01*
X325192900Y-25264500D02*
X325003400Y-25075000D01*
X325003400Y-25075000D02*
X324225500Y-25075000D01*
X324225500Y-25075000D02*
X322966800Y-23816300D01*
X322966800Y-23816300D02*
X322966800Y-18342500D01*
X322966800Y-18342500D02*
X323605000Y-17704300D01*
X323605000Y-16129000D02*
X323605000Y-17704300D01*
%TO.N,Net-(D62-Pad1)*%
X222656000Y-84200700D02*
X211947800Y-73492500D01*
X211947800Y-73492500D02*
X209577100Y-73492500D01*
X209577100Y-73492500D02*
X195194500Y-59109900D01*
X195194500Y-59109900D02*
X195194500Y-55881600D01*
X195194500Y-55881600D02*
X195589300Y-55486800D01*
X195589300Y-55486800D02*
X195589300Y-52560000D01*
X195589300Y-52560000D02*
X185226000Y-42196700D01*
X185226000Y-42196700D02*
X185226000Y-36709200D01*
X185226000Y-35133900D02*
X185226000Y-36709200D01*
%TO.N,Net-(D63-Pad1)*%
X221625000Y-84218900D02*
X221625000Y-83817500D01*
X221625000Y-83817500D02*
X212450300Y-74642800D01*
X212450300Y-74642800D02*
X210086700Y-74642800D01*
X210086700Y-74642800D02*
X193989000Y-58545100D01*
X193989000Y-58545100D02*
X193989000Y-55677300D01*
X193989000Y-54102000D02*
X193989000Y-55677300D01*
%TO.N,Net-(D64-Pad1)*%
X204276000Y-35133900D02*
X204276000Y-36874900D01*
X204276000Y-36874900D02*
X223820300Y-56419200D01*
X223820300Y-56419200D02*
X223820300Y-60991400D01*
X223820300Y-60991400D02*
X229374100Y-66545200D01*
X229374100Y-66545200D02*
X232200100Y-66545200D01*
X232200100Y-66545200D02*
X235809600Y-70154700D01*
X235809600Y-70154700D02*
X235809600Y-83938200D01*
%TO.N,Net-(D65-Pad1)*%
X212912000Y-55677300D02*
X212912000Y-57099100D01*
X212912000Y-57099100D02*
X224276200Y-68463300D01*
X243771300Y-69379600D02*
X243771300Y-71314000D01*
X243771300Y-71314000D02*
X247306600Y-74849300D01*
X247306600Y-74849300D02*
X247306600Y-83759700D01*
X247306600Y-83759700D02*
X247027100Y-84039200D01*
X212912000Y-54102000D02*
X212912000Y-55677300D01*
%TO.N,Net-(D66-Pad1)*%
X218373000Y-73279000D02*
X218373000Y-75072500D01*
X218373000Y-75072500D02*
X227171400Y-83870900D01*
%TO.N,Net-(D67-Pad1)*%
X208467000Y-90753700D02*
X210042300Y-90753700D01*
X210042300Y-90753700D02*
X212846300Y-87949700D01*
X208467000Y-92329000D02*
X208467000Y-90753700D01*
%TO.N,Net-(D68-Pad1)*%
X154619000Y-111506000D02*
X154619000Y-109930700D01*
X154619000Y-109930700D02*
X153043700Y-109930700D01*
X153043700Y-109930700D02*
X152922200Y-109809200D01*
X106090200Y-48520900D02*
X100977200Y-53633900D01*
X100977200Y-53633900D02*
X100977200Y-55563200D01*
X100977200Y-55563200D02*
X100644600Y-55895800D01*
X100644600Y-55895800D02*
X100644600Y-57293500D01*
X100644600Y-57293500D02*
X102276200Y-58925100D01*
X102276200Y-58925100D02*
X102276200Y-74978000D01*
X102276200Y-74978000D02*
X108874100Y-81575900D01*
X108874100Y-81575900D02*
X108874100Y-86282000D01*
X108874100Y-86282000D02*
X106794800Y-88361300D01*
X106794800Y-88361300D02*
X106794800Y-91545000D01*
X106794800Y-91545000D02*
X112847000Y-97597200D01*
X112847000Y-97597200D02*
X120834600Y-97597200D01*
X120834600Y-97597200D02*
X131730300Y-108492900D01*
X131730300Y-108492900D02*
X131730300Y-109014600D01*
%TO.N,Net-(D70-Pad1)*%
X159142500Y-47319700D02*
X159142500Y-49202200D01*
X159142500Y-49202200D02*
X163898600Y-53958300D01*
X163898600Y-53958300D02*
X164299400Y-53958300D01*
X164299400Y-53958300D02*
X176868500Y-66527400D01*
X176868500Y-66527400D02*
X176868500Y-72870700D01*
X176868500Y-72870700D02*
X188437000Y-84439200D01*
X188437000Y-84439200D02*
X192380600Y-84439200D01*
X192380600Y-84439200D02*
X193490200Y-85548800D01*
X193490200Y-85548800D02*
X220521600Y-85548800D01*
X220521600Y-85548800D02*
X221119700Y-86146900D01*
X221119700Y-86146900D02*
X221692900Y-86146900D01*
X221692900Y-86146900D02*
X223992900Y-88446900D01*
X223992900Y-88446900D02*
X223992900Y-91364600D01*
X223992900Y-91364600D02*
X223662000Y-91695500D01*
X223662000Y-91695500D02*
X223662000Y-107960700D01*
X223662000Y-107960700D02*
X225622000Y-109920700D01*
X225622000Y-111496000D02*
X225622000Y-109920700D01*
%TO.N,Net-(D71-Pad1)*%
X223326000Y-33558600D02*
X223599700Y-33284900D01*
X223599700Y-33284900D02*
X228324000Y-33284900D01*
X228324000Y-33284900D02*
X230314600Y-35275500D01*
X230314600Y-35275500D02*
X235243200Y-35275500D01*
X235243200Y-35275500D02*
X237144400Y-37176700D01*
X237144400Y-37176700D02*
X237144400Y-47250600D01*
X237144400Y-47250600D02*
X237455400Y-47561600D01*
X237455400Y-47561600D02*
X237455400Y-52365100D01*
X223326000Y-35133900D02*
X223326000Y-33558600D01*
X258658900Y-83966700D02*
X258658900Y-82933100D01*
X258658900Y-82933100D02*
X254813700Y-79087900D01*
X254813700Y-79087900D02*
X254813700Y-70528600D01*
X254813700Y-70528600D02*
X252753500Y-68468400D01*
X252753500Y-68468400D02*
X252753500Y-59252000D01*
X252753500Y-59252000D02*
X253734700Y-58270800D01*
%TO.N,Net-(D72-Pad1)*%
X342655000Y-73279000D02*
X342655000Y-62760400D01*
X342655000Y-62760400D02*
X339104800Y-59210200D01*
X339104800Y-59210200D02*
X339104800Y-49400300D01*
X339104800Y-49400300D02*
X339025000Y-49320500D01*
%TO.N,Net-(Backspace1-Pad2)*%
X269967200Y-47078000D02*
X280173900Y-36871300D01*
X280173900Y-36871300D02*
X290043000Y-36871300D01*
X290043000Y-35296000D02*
X290043000Y-36871300D01*
%TO.N,Net-(D73-Pad1)*%
X254434700Y-67210800D02*
X257376300Y-64269200D01*
X257376300Y-64269200D02*
X262174600Y-64269200D01*
X262174600Y-64269200D02*
X270062000Y-56381800D01*
X270062000Y-56381800D02*
X270062000Y-55677300D01*
X270062000Y-54102000D02*
X270062000Y-55677300D01*
%TO.N,Net-(D74-Pad1)*%
X361578000Y-73279000D02*
X361578000Y-74854300D01*
X361578000Y-74854300D02*
X361378900Y-75053400D01*
X361378900Y-75053400D02*
X361378900Y-83469900D01*
%TO.N,Net-(CAPS1-Pad2)*%
X40097200Y-73269000D02*
X40097200Y-71693700D01*
X40097200Y-71693700D02*
X38986800Y-70583300D01*
X38986800Y-70583300D02*
X38986800Y-56027500D01*
X38986800Y-56027500D02*
X39370900Y-55643400D01*
X39370900Y-55643400D02*
X39370900Y-51770100D01*
X39370900Y-51770100D02*
X44114200Y-47026800D01*
%TO.N,Net-(D75-Pad1)*%
X237423000Y-73279000D02*
X237423000Y-70650600D01*
X237423000Y-70650600D02*
X234487200Y-67714800D01*
%TO.N,Net-(D76-Pad1)*%
X254747400Y-47876100D02*
X256500100Y-49628800D01*
X256500100Y-49628800D02*
X256500100Y-54818500D01*
X256500100Y-54818500D02*
X255263200Y-56055400D01*
X255263200Y-56055400D02*
X255263200Y-62893200D01*
X255263200Y-62893200D02*
X253241700Y-64914700D01*
X253241700Y-64914700D02*
X253241700Y-67759400D01*
X253241700Y-67759400D02*
X256473000Y-70990700D01*
X256473000Y-70990700D02*
X256473000Y-73279000D01*
%TO.N,Net-(D77-Pad1)*%
X287471000Y-73205500D02*
X284709100Y-73205500D01*
X284709100Y-73205500D02*
X279384300Y-67880700D01*
%TO.N,Net-(D78-Pad1)*%
X181341800Y-46840500D02*
X187865700Y-46840500D01*
X187865700Y-46840500D02*
X191169900Y-50144700D01*
X191169900Y-50144700D02*
X191169900Y-62501300D01*
X191169900Y-62501300D02*
X198075600Y-69407000D01*
X293758000Y-54282500D02*
X293758000Y-55857800D01*
X293758000Y-55857800D02*
X282780900Y-66834900D01*
X282780900Y-66834900D02*
X275781700Y-66834900D01*
X275781700Y-66834900D02*
X272383000Y-70233600D01*
%TO.N,Net-(D79-Pad1)*%
X323605000Y-71703700D02*
X323400300Y-71499000D01*
X323400300Y-71499000D02*
X323400300Y-64920400D01*
X323400300Y-64920400D02*
X320610000Y-62130100D01*
X320610000Y-62130100D02*
X320610000Y-45615400D01*
X320610000Y-45615400D02*
X320897900Y-45327500D01*
X323605000Y-73279000D02*
X323605000Y-71703700D01*
%TO.N,Net-(D80-Pad1)*%
X297180000Y-109920700D02*
X287603400Y-100344100D01*
X287603400Y-100344100D02*
X287603400Y-93944100D01*
X287603400Y-93944100D02*
X287971300Y-93576200D01*
X287971300Y-93576200D02*
X287971300Y-85587600D01*
X287971300Y-85587600D02*
X283626500Y-81242800D01*
X283626500Y-81242800D02*
X277808700Y-81242800D01*
X277808700Y-81242800D02*
X268719800Y-72153900D01*
X268719800Y-72153900D02*
X268719800Y-66853400D01*
X268719800Y-66853400D02*
X268096900Y-66230500D01*
X297180000Y-111496000D02*
X297180000Y-109920700D01*
%TO.N,Net-(D81-Pad1)*%
X336011000Y-48798000D02*
X336213900Y-48595100D01*
X336213900Y-48595100D02*
X339379800Y-48595100D01*
X339379800Y-48595100D02*
X342655000Y-51870300D01*
X342655000Y-51870300D02*
X342655000Y-54229000D01*
%TO.N,Net-(D82-Pad1)*%
X323605000Y-52653700D02*
X325745300Y-50513400D01*
X325745300Y-50513400D02*
X330722100Y-50513400D01*
X330722100Y-50513400D02*
X334103900Y-47131600D01*
X334103900Y-47131600D02*
X339053500Y-47131600D01*
X339053500Y-47131600D02*
X341062800Y-45122300D01*
X341062800Y-45122300D02*
X341062800Y-45083500D01*
X349989000Y-46183000D02*
X344629600Y-46183000D01*
X344629600Y-46183000D02*
X343530100Y-45083500D01*
X323605000Y-54229000D02*
X323605000Y-52653700D01*
%TO.N,Net-(D83-Pad1)*%
X333840000Y-48669200D02*
X334927300Y-47581900D01*
X334927300Y-47581900D02*
X339426200Y-47581900D01*
X339426200Y-47581900D02*
X340974000Y-46034100D01*
X340974000Y-46034100D02*
X341168600Y-46034100D01*
X341168600Y-46034100D02*
X342655000Y-44547700D01*
X342655000Y-44547700D02*
X342655000Y-35306000D01*
%TO.N,Net-(D84-Pad1)*%
X342655000Y-90753700D02*
X342571200Y-90669900D01*
X342571200Y-90669900D02*
X342571200Y-76713600D01*
X342571200Y-76713600D02*
X344382200Y-74902600D01*
X344382200Y-74902600D02*
X344382200Y-59275800D01*
X344382200Y-59275800D02*
X348726000Y-54932000D01*
X348726000Y-54932000D02*
X348726000Y-48510300D01*
X342655000Y-92329000D02*
X342655000Y-90753700D01*
%TO.N,LED_GND*%
X319657300Y-67443600D02*
X317280400Y-65066700D01*
X317280400Y-65066700D02*
X317280400Y-41486100D01*
X317280400Y-41486100D02*
X316921800Y-41127500D01*
X243483200Y-60454600D02*
X243268400Y-60239800D01*
X243268400Y-60239800D02*
X243268400Y-54272300D01*
X243268400Y-54272300D02*
X244081800Y-53458900D01*
X244081800Y-53458900D02*
X244081800Y-45167700D01*
X244081800Y-45167700D02*
X246229500Y-43020000D01*
X246229500Y-43020000D02*
X246229500Y-42107300D01*
X272010200Y-80626100D02*
X276134300Y-84750200D01*
X276134300Y-84750200D02*
X276134300Y-97981800D01*
X276134300Y-97981800D02*
X278093500Y-99941000D01*
X336225700Y-98768600D02*
X335011800Y-99982500D01*
X334991300Y-65589900D02*
X332987800Y-63586400D01*
X332987800Y-63586400D02*
X332987800Y-61854300D01*
X270335300Y-27375400D02*
X273278600Y-24432100D01*
X273278600Y-24432100D02*
X273278600Y-23099900D01*
X319278000Y-78549500D02*
X319278000Y-67822900D01*
X319278000Y-67822900D02*
X319657300Y-67443600D01*
X151618100Y-41541600D02*
X148391000Y-38314500D01*
X148391000Y-38314500D02*
X148391000Y-36933300D01*
X148391000Y-36933300D02*
X148958600Y-36365700D01*
X148958600Y-36365700D02*
X148958600Y-28902600D01*
%TO.N,LED_5V*%
X325701400Y-24539100D02*
X325728800Y-24539100D01*
X325728800Y-24539100D02*
X327440200Y-26250500D01*
X327440200Y-26250500D02*
X327440200Y-28262200D01*
X325765700Y-20226000D02*
X325701400Y-20290300D01*
X325701400Y-20290300D02*
X325701400Y-24539100D01*
X318519800Y-33425400D02*
X318504600Y-33440600D01*
X318504600Y-33440600D02*
X318504600Y-34527000D01*
X318504600Y-34527000D02*
X317746600Y-35285000D01*
X317746600Y-35285000D02*
X317746600Y-35465900D01*
X320338600Y-41290200D02*
X320868800Y-40760000D01*
X320868800Y-40760000D02*
X320868800Y-37281700D01*
X320868800Y-37281700D02*
X320405700Y-36818600D01*
X320405700Y-36818600D02*
X320405600Y-36818600D01*
X320405600Y-36818600D02*
X320405600Y-34302400D01*
X320405600Y-34302400D02*
X319528600Y-33425400D01*
X319528600Y-33425400D02*
X318519800Y-33425400D01*
X314891900Y-25140400D02*
X314891900Y-25068300D01*
X314891900Y-25068300D02*
X315591900Y-24368300D01*
X315591900Y-24368300D02*
X316245000Y-24368300D01*
X316245000Y-24368300D02*
X318519800Y-26643100D01*
X318519800Y-26643100D02*
X318519800Y-33425400D01*
X314891900Y-25140400D02*
X314891900Y-28430300D01*
X314891900Y-28430300D02*
X314420000Y-28902200D01*
X352117100Y-100998700D02*
X348339600Y-100998700D01*
X348339600Y-100998700D02*
X341054600Y-93713700D01*
X341054600Y-93713700D02*
X341054600Y-90899600D01*
X341054600Y-90899600D02*
X341868000Y-90086200D01*
X341868000Y-90086200D02*
X341868000Y-84258100D01*
X341868000Y-84258100D02*
X340124800Y-82514900D01*
X301991500Y-82648200D02*
X301991500Y-74992800D01*
X301991500Y-74992800D02*
X299715100Y-72716400D01*
X299715100Y-72716400D02*
X299715100Y-64395900D01*
X299715100Y-64395900D02*
X300589700Y-63521300D01*
X100113800Y-100939100D02*
X101339900Y-102165200D01*
X101339900Y-102165200D02*
X104062600Y-102165200D01*
X338568500Y-66652200D02*
X338568500Y-66964800D01*
X338568500Y-66964800D02*
X340124800Y-68521100D01*
X340124800Y-68521100D02*
X340124800Y-82514900D01*
X174444900Y-115401800D02*
X176106600Y-117063500D01*
X176106600Y-117063500D02*
X176106600Y-117955400D01*
X207732000Y-27452000D02*
X207388400Y-27795600D01*
X207388400Y-27795600D02*
X207388400Y-29986300D01*
X319278000Y-93789500D02*
X313132800Y-93789500D01*
X313132800Y-93789500D02*
X301991500Y-82648200D01*
%TO.N,ROW5*%
X303893000Y-30912800D02*
X305143600Y-30912800D01*
X305143600Y-30912800D02*
X310800700Y-25255700D01*
X310800700Y-25255700D02*
X310800700Y-23446200D01*
X310800700Y-23446200D02*
X311120600Y-23126300D01*
X276876300Y-32593900D02*
X277030500Y-32748100D01*
X277030500Y-32748100D02*
X287919300Y-32748100D01*
X287919300Y-32748100D02*
X290204900Y-30462500D01*
X290204900Y-30462500D02*
X303442700Y-30462500D01*
X303442700Y-30462500D02*
X303893000Y-30912800D01*
X276076200Y-32593900D02*
X276076200Y-33917900D01*
X276076200Y-33917900D02*
X262459800Y-47534300D01*
X270323000Y-72314300D02*
X280288100Y-72314300D01*
X280288100Y-72314300D02*
X296241000Y-88267200D01*
X264735000Y-50774300D02*
X269740200Y-50774300D01*
X269740200Y-50774300D02*
X271665200Y-52699300D01*
X271665200Y-52699300D02*
X271665200Y-55846500D01*
X271665200Y-55846500D02*
X270323000Y-57188700D01*
X270323000Y-57188700D02*
X270323000Y-70739000D01*
X256226000Y-44507500D02*
X250912000Y-44507500D01*
X250912000Y-44507500D02*
X245685000Y-49734500D01*
X245685000Y-49734500D02*
X245685000Y-49986700D01*
X245685000Y-51562000D02*
X245685000Y-65721800D01*
X245685000Y-65721800D02*
X245234700Y-66172100D01*
X245234700Y-66172100D02*
X245234700Y-72112000D01*
X245234700Y-72112000D02*
X247756900Y-74634200D01*
X247756900Y-74634200D02*
X247756900Y-87950600D01*
X254625700Y-32593900D02*
X254625700Y-31994400D01*
X254625700Y-31994400D02*
X243174400Y-20543100D01*
X243174400Y-20543100D02*
X243174400Y-17987000D01*
X247756900Y-87950600D02*
X241630100Y-87950600D01*
X241630100Y-87950600D02*
X241367000Y-88213700D01*
X260290000Y-88213700D02*
X260026900Y-87950600D01*
X260026900Y-87950600D02*
X247756900Y-87950600D01*
X339137400Y-85151600D02*
X339137400Y-72726200D01*
X339137400Y-72726200D02*
X339531400Y-72332200D01*
X339531400Y-72332200D02*
X339531400Y-68644100D01*
X339531400Y-68644100D02*
X337455000Y-66567700D01*
X337455000Y-66567700D02*
X337455000Y-51689000D01*
X256226000Y-32593900D02*
X254625700Y-32593900D01*
X105426300Y-13589000D02*
X105426300Y-13564100D01*
X105426300Y-13564100D02*
X106526300Y-12464100D01*
X103826000Y-13589000D02*
X105426300Y-13589000D01*
X256226000Y-44507500D02*
X256226000Y-32593900D01*
X339137400Y-85151600D02*
X337455000Y-86834000D01*
X337455000Y-86834000D02*
X337455000Y-89789000D01*
X341138100Y-89048400D02*
X341138100Y-87152300D01*
X341138100Y-87152300D02*
X339137400Y-85151600D01*
X375428000Y-89789000D02*
X375428000Y-88213700D01*
X375428000Y-88213700D02*
X374184700Y-88213700D01*
X374184700Y-88213700D02*
X373727400Y-87756400D01*
X245685000Y-50774300D02*
X245685000Y-51562000D01*
X241367000Y-89789000D02*
X241367000Y-88213700D01*
X260290000Y-89789000D02*
X260290000Y-88213700D01*
X245685000Y-50774300D02*
X245685000Y-49986700D01*
X303893000Y-31180700D02*
X303893000Y-30912800D01*
X264735000Y-50774300D02*
X264735000Y-49986700D01*
X264735000Y-51562000D02*
X264735000Y-50774300D01*
X296241000Y-89054800D02*
X323551400Y-116365200D01*
X323551400Y-116365200D02*
X332125800Y-116365200D01*
X332125800Y-116365200D02*
X337455000Y-111036000D01*
X337455000Y-111036000D02*
X337455000Y-108966000D01*
X262459800Y-47534300D02*
X259252800Y-47534300D01*
X259252800Y-47534300D02*
X256226000Y-44507500D01*
X264735000Y-49986700D02*
X262459800Y-47711500D01*
X262459800Y-47711500D02*
X262459800Y-47534300D01*
X276076200Y-32593900D02*
X276876300Y-32593900D01*
X275276000Y-32593900D02*
X276076200Y-32593900D01*
X296241000Y-89054800D02*
X296241000Y-88267200D01*
X296241000Y-89842500D02*
X296241000Y-89054800D01*
X337455000Y-89789000D02*
X337455000Y-108966000D01*
X270323000Y-71526600D02*
X270323000Y-70739000D01*
X270323000Y-71526600D02*
X270323000Y-72314300D01*
X303893000Y-32756000D02*
X303893000Y-31180700D01*
%TO.N,ROW2*%
X80077000Y-70739000D02*
X80077000Y-69163700D01*
X80077000Y-69163700D02*
X80776300Y-69163700D01*
X80776300Y-69163700D02*
X81273700Y-68666300D01*
X80077000Y-70739000D02*
X80077000Y-72314300D01*
X53947200Y-70729000D02*
X73294000Y-70729000D01*
X73294000Y-70729000D02*
X75144000Y-72579000D01*
X75144000Y-72579000D02*
X79812300Y-72579000D01*
X79812300Y-72579000D02*
X80077000Y-72314300D01*
X326212400Y-70765200D02*
X325158600Y-69711500D01*
X325158600Y-69711500D02*
X325158600Y-65850700D01*
X325158600Y-65850700D02*
X325301200Y-65708100D01*
X325301200Y-65708100D02*
X325301200Y-65107100D01*
X325301200Y-65107100D02*
X324808400Y-64614300D01*
X324808400Y-64614300D02*
X324808400Y-58608200D01*
X324808400Y-58608200D02*
X322004600Y-55804400D01*
X322004600Y-55804400D02*
X322004600Y-52777600D01*
X322004600Y-52777600D02*
X326982800Y-47799400D01*
X326982800Y-47799400D02*
X329717000Y-47799400D01*
X329717000Y-47799400D02*
X330167300Y-47349100D01*
X330167300Y-47349100D02*
X333249500Y-47349100D01*
X333249500Y-47349100D02*
X333917300Y-46681300D01*
X333917300Y-46681300D02*
X338751200Y-46681300D01*
X338751200Y-46681300D02*
X339398400Y-46034100D01*
X339398400Y-46034100D02*
X339514100Y-46034100D01*
X339514100Y-46034100D02*
X339938900Y-45609300D01*
X339938900Y-45609300D02*
X339938900Y-35993400D01*
X339938900Y-35993400D02*
X336711500Y-32766000D01*
X283168500Y-51562000D02*
X283168500Y-54405700D01*
X283168500Y-54405700D02*
X271972200Y-65602000D01*
X271972200Y-65602000D02*
X271972200Y-68092500D01*
X271972200Y-68092500D02*
X271283500Y-68781200D01*
X326212400Y-70765200D02*
X325351700Y-71625900D01*
X326212400Y-70765200D02*
X326212400Y-70765300D01*
X326212400Y-70765300D02*
X326282200Y-70765300D01*
X326282200Y-70765300D02*
X328175700Y-68871800D01*
X328175700Y-68871800D02*
X337163100Y-68871800D01*
X337163100Y-68871800D02*
X337455000Y-69163700D01*
X336711500Y-32766000D02*
X335854700Y-32766000D01*
X337455000Y-32766000D02*
X336711500Y-32766000D01*
X327071700Y-24271000D02*
X327045800Y-24296900D01*
X327045800Y-24296900D02*
X326909600Y-24296900D01*
X327071700Y-24271000D02*
X327071700Y-19436300D01*
X327071700Y-19436300D02*
X330613800Y-15894200D01*
X330613800Y-15894200D02*
X339758200Y-15894200D01*
X339758200Y-15894200D02*
X341351300Y-14301100D01*
X341351300Y-14301100D02*
X349445100Y-14301100D01*
X349445100Y-14301100D02*
X351041800Y-15897800D01*
X351041800Y-15897800D02*
X358491500Y-15897800D01*
X358491500Y-15897800D02*
X360094800Y-14294500D01*
X360094800Y-14294500D02*
X368060000Y-14294500D01*
X368060000Y-14294500D02*
X375428000Y-21662500D01*
X375428000Y-21662500D02*
X375428000Y-32766000D01*
X337455000Y-70739000D02*
X337455000Y-69163700D01*
X327071700Y-24271000D02*
X332918500Y-30117800D01*
X332918500Y-30117800D02*
X333703800Y-30117800D01*
X333703800Y-30117800D02*
X335854700Y-32268700D01*
X335854700Y-32268700D02*
X335854700Y-32766000D01*
X283912000Y-51562000D02*
X283168500Y-51562000D01*
X118177000Y-69163700D02*
X118177000Y-68782800D01*
X118177000Y-70739000D02*
X118177000Y-69163700D01*
X194123000Y-70739000D02*
X194123000Y-69163700D01*
X194123000Y-69163700D02*
X194477800Y-68808900D01*
X194477800Y-68808900D02*
X194477800Y-68702600D01*
X214773300Y-70739000D02*
X215583300Y-70739000D01*
X215583300Y-70739000D02*
X217408700Y-68913600D01*
X213173000Y-70739000D02*
X214773300Y-70739000D01*
X157571600Y-68893400D02*
X157571600Y-69838100D01*
X157571600Y-69838100D02*
X156023000Y-71386700D01*
X99127000Y-70739000D02*
X99127000Y-69036700D01*
X99127000Y-69036700D02*
X98756600Y-68666300D01*
X175073000Y-69163700D02*
X172396500Y-69163700D01*
X172396500Y-69163700D02*
X171866800Y-68634000D01*
X175073000Y-70739000D02*
X175073000Y-69163700D01*
X156023000Y-70739000D02*
X156023000Y-71386700D01*
X156023000Y-71482500D02*
X156023000Y-72314300D01*
X156023000Y-71482500D02*
X156023000Y-71386700D01*
X232223000Y-70739000D02*
X232223000Y-70149300D01*
X234124200Y-70132000D02*
X232240300Y-70132000D01*
X232240300Y-70132000D02*
X232223000Y-70149300D01*
X137227000Y-72314300D02*
X136975700Y-72565600D01*
X136975700Y-72565600D02*
X129859300Y-72565600D01*
X129859300Y-72565600D02*
X128032700Y-70739000D01*
X128032700Y-70739000D02*
X118177000Y-70739000D01*
X137227000Y-70739000D02*
X137227000Y-72314300D01*
X156023000Y-72314300D02*
X155750400Y-72586900D01*
X155750400Y-72586900D02*
X147816800Y-72586900D01*
X147816800Y-72586900D02*
X145968900Y-70739000D01*
X145968900Y-70739000D02*
X137227000Y-70739000D01*
%TO.N,COL0*%
X80659700Y-80595800D02*
X85581700Y-85517800D01*
X75058700Y-59386700D02*
X75058700Y-60788300D01*
X75058700Y-60788300D02*
X81999000Y-67728600D01*
X81999000Y-67728600D02*
X81999000Y-69165400D01*
X81999000Y-69165400D02*
X81697500Y-69466900D01*
X81697500Y-69466900D02*
X81697500Y-79558000D01*
X81697500Y-79558000D02*
X80659700Y-80595800D01*
X80659700Y-80595800D02*
X74876600Y-80595800D01*
X74876600Y-80595800D02*
X69828700Y-85643700D01*
X278036900Y-31033700D02*
X278036900Y-28580900D01*
X278036900Y-28580900D02*
X284857900Y-21759900D01*
X284857900Y-21759900D02*
X285971800Y-21759900D01*
X285971800Y-21759900D02*
X286153600Y-21941700D01*
X286153600Y-21941700D02*
X310642600Y-21941700D01*
X310642600Y-21941700D02*
X311331300Y-21253000D01*
X311331300Y-21253000D02*
X312048000Y-21253000D01*
X312048000Y-21253000D02*
X314711700Y-18589300D01*
X314711700Y-18589300D02*
X314711700Y-18355000D01*
X314711700Y-18355000D02*
X315318400Y-17748300D01*
X315318400Y-17748300D02*
X315828300Y-17748300D01*
X315828300Y-17748300D02*
X317962500Y-19882500D01*
X317962500Y-19882500D02*
X317962500Y-22254800D01*
X317962500Y-22254800D02*
X324305500Y-28597800D01*
X243513100Y-44710600D02*
X243513100Y-40680300D01*
X243513100Y-40680300D02*
X248280500Y-35912900D01*
X248280500Y-35912900D02*
X248280500Y-33749900D01*
X248280500Y-33749900D02*
X251003400Y-31027000D01*
X160933500Y-52156900D02*
X158359200Y-49582600D01*
X158359200Y-49582600D02*
X158359200Y-46754900D01*
X158359200Y-46754900D02*
X159859200Y-45254900D01*
%TO.N,COL1*%
X344476800Y-27896000D02*
X351182200Y-34601400D01*
X351182200Y-34601400D02*
X353714300Y-34601400D01*
X353714300Y-34601400D02*
X356528000Y-37415100D01*
X356528000Y-37415100D02*
X356528000Y-40515600D01*
X356528000Y-40515600D02*
X356460800Y-40582800D01*
X356460800Y-40582800D02*
X356460800Y-46428600D01*
X356460800Y-46428600D02*
X357349900Y-47317700D01*
X357349900Y-47317700D02*
X357349900Y-48538800D01*
X129307400Y-86732500D02*
X131528300Y-86732500D01*
X131528300Y-86732500D02*
X132571000Y-87775200D01*
X361352200Y-47307500D02*
X359214900Y-49444800D01*
X359214900Y-49444800D02*
X359214900Y-55153400D01*
X359214900Y-55153400D02*
X354552800Y-59815500D01*
X354552800Y-59815500D02*
X354552800Y-60416300D01*
X354552800Y-60416300D02*
X354610900Y-60474400D01*
X354610900Y-60474400D02*
X354610900Y-73316700D01*
X354610900Y-73316700D02*
X353532600Y-74395000D01*
X353532600Y-74395000D02*
X353532600Y-84510200D01*
X353532600Y-84510200D02*
X352571800Y-85471000D01*
%TO.N,COL2*%
X321248800Y-34890700D02*
X321319100Y-34961000D01*
X321319100Y-34961000D02*
X321319100Y-41195800D01*
X321319100Y-41195800D02*
X321689200Y-41565900D01*
X321689200Y-41565900D02*
X321689200Y-51819200D01*
X321689200Y-51819200D02*
X321060300Y-52448100D01*
X321060300Y-52448100D02*
X321060300Y-56468500D01*
X321060300Y-56468500D02*
X323850600Y-59258800D01*
X323850600Y-59258800D02*
X323850600Y-70232600D01*
X323850600Y-70232600D02*
X324164300Y-70546300D01*
X187770500Y-59781700D02*
X187770500Y-60127700D01*
X187770500Y-60127700D02*
X197722700Y-70079900D01*
X197722700Y-70079900D02*
X197722700Y-75130900D01*
X197722700Y-75130900D02*
X200960800Y-78369000D01*
X185543400Y-47654000D02*
X188026000Y-47654000D01*
X188026000Y-47654000D02*
X190516400Y-50144400D01*
X190516400Y-50144400D02*
X190516400Y-57035800D01*
X190516400Y-57035800D02*
X187770500Y-59781700D01*
X303170700Y-73332300D02*
X305059300Y-71443700D01*
X97523800Y-60112000D02*
X97523800Y-72187400D01*
X97523800Y-72187400D02*
X103236700Y-77900300D01*
X103236700Y-77900300D02*
X103236700Y-81770400D01*
X103236700Y-81770400D02*
X103467500Y-82001200D01*
X97124700Y-47915300D02*
X97523800Y-48314400D01*
X97523800Y-48314400D02*
X97523800Y-60112000D01*
X97523800Y-60112000D02*
X98058000Y-60112000D01*
%TO.N,COL3*%
X271252700Y-35452200D02*
X273672800Y-33032100D01*
X273672800Y-33032100D02*
X273672800Y-31130400D01*
X273672800Y-31130400D02*
X283493700Y-21309500D01*
X283493700Y-21309500D02*
X286158300Y-21309500D01*
X286158300Y-21309500D02*
X286311200Y-21462400D01*
X286311200Y-21462400D02*
X310107100Y-21462400D01*
X310107100Y-21462400D02*
X310821600Y-20747900D01*
X310821600Y-20747900D02*
X311916200Y-20747900D01*
X311916200Y-20747900D02*
X314261400Y-18402700D01*
X314261400Y-18402700D02*
X314261400Y-18168300D01*
X314261400Y-18168300D02*
X315131700Y-17298000D01*
X315131700Y-17298000D02*
X316014900Y-17298000D01*
X316014900Y-17298000D02*
X318412800Y-19695900D01*
X318412800Y-19695900D02*
X318412800Y-21809900D01*
X318412800Y-21809900D02*
X324475400Y-27872500D01*
X324475400Y-27872500D02*
X324606000Y-27872500D01*
X324606000Y-27872500D02*
X325030800Y-28297300D01*
X325030800Y-28297300D02*
X325030800Y-30706000D01*
X325030800Y-30706000D02*
X325376800Y-31052000D01*
X224270700Y-55662300D02*
X219505000Y-50896600D01*
X229307700Y-65452900D02*
X224270700Y-60415900D01*
X224270700Y-60415900D02*
X224270700Y-55662300D01*
X233125500Y-41911200D02*
X229761800Y-45274900D01*
X229761800Y-45274900D02*
X229761800Y-51583000D01*
X229761800Y-51583000D02*
X225942700Y-55402100D01*
X225942700Y-55402100D02*
X224530900Y-55402100D01*
X224530900Y-55402100D02*
X224270700Y-55662300D01*
X254152500Y-39233300D02*
X252813800Y-40572000D01*
X252813800Y-40572000D02*
X246551100Y-40572000D01*
X246551100Y-40572000D02*
X244816300Y-42306800D01*
X132487600Y-53419000D02*
X116573800Y-69332800D01*
X116573800Y-69332800D02*
X116573800Y-72173400D01*
X116573800Y-72173400D02*
X117421700Y-73021300D01*
X117421700Y-73021300D02*
X118028600Y-73021300D01*
X118028600Y-73021300D02*
X128219200Y-83211900D01*
%TO.N,COL4*%
X321846600Y-32802800D02*
X321846600Y-28656200D01*
X321846600Y-28656200D02*
X316653800Y-23463400D01*
X316653800Y-23463400D02*
X314883200Y-23463400D01*
X314883200Y-23463400D02*
X313213300Y-25133300D01*
X313213300Y-25133300D02*
X313213300Y-29456700D01*
X313213300Y-29456700D02*
X314558900Y-30802300D01*
X314558900Y-30802300D02*
X315640000Y-30802300D01*
X315640000Y-30802300D02*
X316351400Y-31513700D01*
X316351400Y-31513700D02*
X316351400Y-32125000D01*
X316351400Y-32125000D02*
X313551100Y-34925300D01*
X313551100Y-34925300D02*
X313551100Y-40606300D01*
X313551100Y-40606300D02*
X314122700Y-41177900D01*
X314122700Y-41177900D02*
X314122700Y-43021300D01*
X314122700Y-43021300D02*
X314871000Y-43769600D01*
X314871000Y-43769600D02*
X314871000Y-44575600D01*
X314871000Y-44575600D02*
X314171100Y-45275500D01*
X314171100Y-45275500D02*
X314067600Y-45275500D01*
X314067600Y-45275500D02*
X314067600Y-45275600D01*
X246653500Y-67322400D02*
X246653500Y-54587900D01*
X246653500Y-54587900D02*
X248326000Y-52915400D01*
X248326000Y-52915400D02*
X248326000Y-48442300D01*
X248326000Y-48442300D02*
X251213100Y-45555200D01*
X190467500Y-83713900D02*
X190467500Y-78278200D01*
X190467500Y-78278200D02*
X190607400Y-78138300D01*
X110491800Y-47606300D02*
X111327100Y-48441600D01*
X111327100Y-48441600D02*
X111327100Y-55529000D01*
X111327100Y-55529000D02*
X110832900Y-56023200D01*
X110832900Y-56023200D02*
X110832900Y-70371000D01*
X110832900Y-70371000D02*
X114542800Y-74080900D01*
X114542800Y-74080900D02*
X117332300Y-74080900D01*
X117332300Y-74080900D02*
X127862600Y-84611200D01*
X127862600Y-84611200D02*
X137887700Y-84611200D01*
X137887700Y-84611200D02*
X138478800Y-84020100D01*
X239713500Y-71286600D02*
X239713500Y-65642700D01*
X239713500Y-65642700D02*
X239646000Y-65575200D01*
%TO.N,COL5*%
X315070000Y-42938600D02*
X315070000Y-41488300D01*
X315070000Y-41488300D02*
X314068200Y-40486500D01*
X314068200Y-40486500D02*
X314068200Y-35045200D01*
X314068200Y-35045200D02*
X316839100Y-32274300D01*
X316839100Y-32274300D02*
X316839100Y-31265900D01*
X316839100Y-31265900D02*
X315597500Y-30024300D01*
X315597500Y-30024300D02*
X314491500Y-30024300D01*
X314491500Y-30024300D02*
X313663600Y-29196400D01*
X313663600Y-29196400D02*
X313663600Y-25319900D01*
X313663600Y-25319900D02*
X315069800Y-23913700D01*
X315069800Y-23913700D02*
X316427300Y-23913700D01*
X316427300Y-23913700D02*
X318970200Y-26456600D01*
X318970200Y-26456600D02*
X318970200Y-31419000D01*
X318970200Y-31419000D02*
X321130900Y-33579700D01*
X300065400Y-43171000D02*
X284921900Y-58314500D01*
X284921900Y-58314500D02*
X280961600Y-58314500D01*
X280961600Y-58314500D02*
X275032400Y-64243700D01*
X275032400Y-64243700D02*
X275032400Y-64364700D01*
X159422700Y-67791300D02*
X153865900Y-62234500D01*
X153865900Y-62234500D02*
X153865900Y-57733900D01*
X153865900Y-57733900D02*
X153572600Y-57440600D01*
X153572600Y-57440600D02*
X153572600Y-52181500D01*
X153572600Y-52181500D02*
X155362400Y-50391700D01*
X155362400Y-50391700D02*
X155362400Y-49741500D01*
X155362400Y-49741500D02*
X154524700Y-48903800D01*
X154524700Y-48903800D02*
X140890500Y-48903800D01*
X140890500Y-48903800D02*
X139345200Y-47358500D01*
X139345200Y-47358500D02*
X126978800Y-47358500D01*
X126978800Y-47358500D02*
X126460800Y-46840500D01*
X155578600Y-47849900D02*
X154524700Y-48903800D01*
X159422700Y-67791300D02*
X159422700Y-78379800D01*
X159422700Y-78379800D02*
X162820000Y-81777100D01*
X162820000Y-81777100D02*
X162820000Y-84907500D01*
%TO.N,COL6*%
X320143500Y-37582200D02*
X320119300Y-37606400D01*
X320119300Y-37606400D02*
X320119300Y-39293300D01*
X322338400Y-84991100D02*
X322004600Y-84657300D01*
X322004600Y-84657300D02*
X322004600Y-66158600D01*
X322004600Y-66158600D02*
X322262900Y-65900300D01*
X324575900Y-65407600D02*
X324343400Y-65175100D01*
X324343400Y-65175100D02*
X324343400Y-59114700D01*
X324343400Y-59114700D02*
X321510600Y-56281900D01*
X321510600Y-56281900D02*
X321510600Y-52634700D01*
X321510600Y-52634700D02*
X322586500Y-51558800D01*
X322586500Y-51558800D02*
X322586500Y-46033900D01*
X322586500Y-46033900D02*
X324789200Y-43831200D01*
X324789200Y-43831200D02*
X325620300Y-43831200D01*
X325620300Y-43831200D02*
X326018700Y-43432800D01*
X326018700Y-43432800D02*
X326018700Y-40529400D01*
X326018700Y-40529400D02*
X324782600Y-39293300D01*
X210902700Y-47201900D02*
X214512400Y-50811600D01*
X214512400Y-50811600D02*
X214512400Y-55830900D01*
X214512400Y-55830900D02*
X214215700Y-56127600D01*
X214215700Y-56127600D02*
X214215700Y-57246700D01*
X214215700Y-57246700D02*
X225451900Y-68482900D01*
X225451900Y-68482900D02*
X225451900Y-71616600D01*
X225451900Y-71616600D02*
X228261400Y-74426100D01*
X228261400Y-74426100D02*
X228261400Y-84598800D01*
X228261400Y-84598800D02*
X231470500Y-87807900D01*
X231470500Y-87807900D02*
X232888100Y-87807900D01*
X228261400Y-84598800D02*
X226079000Y-84598800D01*
X226079000Y-84598800D02*
X224994000Y-83513800D01*
%TO.N,COL7*%
X299782300Y-41639300D02*
X299427000Y-41994600D01*
X299427000Y-41994600D02*
X292370300Y-41994600D01*
X292370300Y-41994600D02*
X292085900Y-41710200D01*
X292085900Y-41710200D02*
X291461700Y-41710200D01*
X291461700Y-41710200D02*
X289279900Y-43892000D01*
X289279900Y-43892000D02*
X289279900Y-49952700D01*
X289279900Y-49952700D02*
X285798900Y-53433700D01*
X234909200Y-66230500D02*
X235266800Y-66230500D01*
X235266800Y-66230500D02*
X238988200Y-69951900D01*
X238988200Y-69951900D02*
X238988200Y-71587000D01*
X238988200Y-71587000D02*
X239047000Y-71645800D01*
X239047000Y-71645800D02*
X239047000Y-74687500D01*
X239047000Y-74687500D02*
X236534900Y-77199600D01*
X236534900Y-77199600D02*
X236534900Y-84238700D01*
X236534900Y-84238700D02*
X236110100Y-84663500D01*
X236110100Y-84663500D02*
X235073800Y-84663500D01*
X235073800Y-84663500D02*
X234104400Y-83694100D01*
X234104400Y-83694100D02*
X234104400Y-82146500D01*
X234104400Y-82146500D02*
X234104300Y-82146500D01*
X234909200Y-66230500D02*
X234909200Y-65677100D01*
X234909200Y-65677100D02*
X233108800Y-63876700D01*
X233108800Y-63876700D02*
X233108800Y-56001600D01*
X233108800Y-56001600D02*
X233438200Y-55672200D01*
X233438200Y-55672200D02*
X233438200Y-51123100D01*
X233438200Y-51123100D02*
X235233600Y-49327700D01*
X235233600Y-49327700D02*
X235415600Y-49145700D01*
X235233600Y-49327700D02*
X232230600Y-46324700D01*
%TO.N,COL8*%
X312551800Y-34734100D02*
X312376100Y-34558400D01*
X312376100Y-34558400D02*
X310419700Y-34558400D01*
X310419700Y-34558400D02*
X279648500Y-65329600D01*
X314145600Y-44275200D02*
X313672400Y-43802000D01*
X313672400Y-43802000D02*
X313672400Y-41364500D01*
X313672400Y-41364500D02*
X313100800Y-40792900D01*
X313100800Y-40792900D02*
X313100800Y-35283100D01*
X313100800Y-35283100D02*
X312551800Y-34734100D01*
X315548800Y-31737100D02*
X312551800Y-34734100D01*
X233058500Y-68440100D02*
X233458100Y-68440100D01*
X233458100Y-68440100D02*
X234878400Y-69860400D01*
X234878400Y-69860400D02*
X234878400Y-83424100D01*
X218891500Y-86288000D02*
X218602600Y-85999100D01*
X218602600Y-85999100D02*
X191161100Y-85999100D01*
X191161100Y-85999100D02*
X191104600Y-86055600D01*
X191104600Y-86055600D02*
X182353800Y-86055600D01*
X182353800Y-86055600D02*
X174837700Y-78539500D01*
X174837700Y-78539500D02*
X174837700Y-78539400D01*
X174837700Y-78539400D02*
X168212200Y-78539400D01*
X168212200Y-78539400D02*
X166434100Y-76761300D01*
X166434100Y-76761300D02*
X166434100Y-74841900D01*
X166434100Y-74841900D02*
X166828800Y-74447200D01*
X166828800Y-74447200D02*
X166828800Y-71620700D01*
X166828800Y-71620700D02*
X154316200Y-59108100D01*
X154316200Y-59108100D02*
X154316200Y-57547300D01*
X154316200Y-57547300D02*
X154022900Y-57254000D01*
X154022900Y-57254000D02*
X154022900Y-52406600D01*
X154022900Y-52406600D02*
X156711500Y-49718000D01*
X156711500Y-49718000D02*
X156711500Y-41416100D01*
X156711500Y-41416100D02*
X156257000Y-40961600D01*
X156257000Y-40961600D02*
X154698700Y-40961600D01*
X154698700Y-40961600D02*
X149830400Y-45829900D01*
X149830400Y-45829900D02*
X149042800Y-45829900D01*
%TO.N,COL9*%
X315888500Y-20913900D02*
X314885100Y-20913900D01*
X314885100Y-20913900D02*
X311251000Y-24548000D01*
X311251000Y-24548000D02*
X311251000Y-25621000D01*
X311251000Y-25621000D02*
X307183500Y-29688500D01*
X307183500Y-29688500D02*
X307183500Y-32531000D01*
X307183500Y-32531000D02*
X305358400Y-34356100D01*
X305358400Y-34356100D02*
X302505300Y-34356100D01*
X302505300Y-34356100D02*
X302289800Y-34140600D01*
X302289800Y-34140600D02*
X302289800Y-32307000D01*
X302289800Y-32307000D02*
X300895600Y-30912800D01*
X300895600Y-30912800D02*
X295517600Y-30912800D01*
X295517600Y-30912800D02*
X291893000Y-34537400D01*
X291893000Y-34537400D02*
X291893000Y-36486300D01*
X291893000Y-36486300D02*
X281389300Y-46990000D01*
X281389300Y-46990000D02*
X273176300Y-46990000D01*
X324516300Y-26250600D02*
X324127300Y-26250600D01*
X324127300Y-26250600D02*
X319763700Y-21887000D01*
X319763700Y-21887000D02*
X319763700Y-19337500D01*
X319763700Y-19337500D02*
X317293800Y-16867600D01*
X247877400Y-58931100D02*
X247877400Y-54000900D01*
X247877400Y-54000900D02*
X248776300Y-53102000D01*
X248776300Y-53102000D02*
X248776300Y-52465200D01*
X248776300Y-52465200D02*
X253040400Y-48201100D01*
X164199000Y-53233000D02*
X161999800Y-51033800D01*
X161999800Y-51033800D02*
X161999800Y-47401200D01*
X251137600Y-85890600D02*
X251273000Y-85755200D01*
X251273000Y-85755200D02*
X251273000Y-73724500D01*
X251273000Y-73724500D02*
X249669900Y-72121400D01*
X249669900Y-72121400D02*
X249669900Y-69235400D01*
X249669900Y-69235400D02*
X247877400Y-67442900D01*
X247877400Y-67442900D02*
X247877400Y-58931100D01*
%TO.N,COL10*%
X338411800Y-45950200D02*
X338411800Y-44366100D01*
X338411800Y-44366100D02*
X334345800Y-40300100D01*
X334345800Y-40300100D02*
X334345800Y-37025300D01*
X334345800Y-37025300D02*
X328306000Y-30985500D01*
X328306000Y-30985500D02*
X328306000Y-30474200D01*
X328306000Y-30474200D02*
X327449700Y-29617900D01*
X327449700Y-29617900D02*
X327035900Y-29617900D01*
X327035900Y-29617900D02*
X325931400Y-28513400D01*
X325931400Y-28513400D02*
X325931400Y-27535000D01*
X325931400Y-27535000D02*
X325386600Y-26990200D01*
X343396400Y-68913600D02*
X343396400Y-56552000D01*
X343396400Y-56552000D02*
X344274400Y-55674000D01*
X344274400Y-55674000D02*
X344274400Y-50609700D01*
X344274400Y-50609700D02*
X342175000Y-48510300D01*
X253298000Y-77856100D02*
X253298000Y-78647600D01*
X253298000Y-78647600D02*
X257883800Y-83233400D01*
X249643300Y-66104800D02*
X253298000Y-69759600D01*
X253298000Y-69759600D02*
X253298000Y-77856100D01*
X324607800Y-75663900D02*
X324607800Y-82305100D01*
X324607800Y-82305100D02*
X325481800Y-83179100D01*
X249643300Y-66104800D02*
X249643200Y-66104800D01*
X249643200Y-66104800D02*
X249643200Y-66087000D01*
X249643200Y-66087000D02*
X251688700Y-64041500D01*
X251688700Y-64041500D02*
X251688700Y-56330800D01*
X251688700Y-56330800D02*
X252488200Y-55531300D01*
X252488200Y-55531300D02*
X252488200Y-49779100D01*
X252488200Y-49779100D02*
X253765700Y-48501600D01*
X253765700Y-48501600D02*
X253765700Y-48339000D01*
X253765700Y-48339000D02*
X254022100Y-48082600D01*
X254022100Y-48082600D02*
X254022100Y-47575700D01*
X254022100Y-47575700D02*
X254447000Y-47150800D01*
X254447000Y-47150800D02*
X254839600Y-47150800D01*
X254839600Y-47150800D02*
X255114700Y-46875700D01*
X249643300Y-66104800D02*
X249517600Y-66230500D01*
%TO.N,COL11*%
X335543600Y-50439700D02*
X335543600Y-55675700D01*
X335543600Y-55675700D02*
X325902700Y-65316600D01*
X325902700Y-65316600D02*
X325902700Y-69095800D01*
X327130400Y-30961300D02*
X325208200Y-32883500D01*
X325208200Y-32883500D02*
X325208200Y-36735300D01*
X325208200Y-36735300D02*
X324852400Y-37091100D01*
X324852400Y-37091100D02*
X324852400Y-38276800D01*
X324852400Y-38276800D02*
X326489300Y-39913700D01*
X326489300Y-39913700D02*
X326489300Y-43625700D01*
X326489300Y-43625700D02*
X324348200Y-45766800D01*
X324348200Y-45766800D02*
X323936400Y-45766800D01*
X323936400Y-45766800D02*
X323936400Y-45766900D01*
X235397500Y-47048800D02*
X236715100Y-48366400D01*
X236715100Y-48366400D02*
X236715100Y-49871800D01*
X335543600Y-50439700D02*
X336662800Y-49320500D01*
X336662800Y-49320500D02*
X337192800Y-49320500D01*
X271239000Y-57825600D02*
X271239000Y-66222600D01*
X271239000Y-66222600D02*
X271246900Y-66230500D01*
%TO.N,COL12*%
X314895300Y-49491700D02*
X313004900Y-49491700D01*
X319278000Y-83629500D02*
X320470400Y-84821900D01*
X320470400Y-84821900D02*
X320470400Y-86683000D01*
X320470400Y-86683000D02*
X319753900Y-87399500D01*
X319753900Y-87399500D02*
X318832500Y-87399500D01*
X318832500Y-87399500D02*
X315120600Y-83687600D01*
X315120600Y-83687600D02*
X315120600Y-49717000D01*
X315120600Y-49717000D02*
X314895300Y-49491700D01*
X314895300Y-49491700D02*
X314895300Y-48284500D01*
X311673500Y-35734000D02*
X311650100Y-35757400D01*
X311650100Y-35757400D02*
X311650100Y-40616000D01*
X311650100Y-40616000D02*
X312408600Y-41374500D01*
X312408600Y-41374500D02*
X312408600Y-48895400D01*
X312408600Y-48895400D02*
X313004900Y-49491700D01*
X350264700Y-47396600D02*
X340248500Y-47396600D01*
X340248500Y-47396600D02*
X339612800Y-48032300D01*
X339612800Y-48032300D02*
X335750700Y-48032300D01*
X335750700Y-48032300D02*
X334225300Y-49557700D01*
X334225300Y-49557700D02*
X332443600Y-49557700D01*
X332443600Y-49557700D02*
X330030000Y-51971300D01*
X346128600Y-102452000D02*
X339163600Y-95487000D01*
X339163600Y-95487000D02*
X339163600Y-86215100D01*
%TO.N,COL13*%
X357414800Y-103185600D02*
X367182000Y-93418400D01*
X367182000Y-93418400D02*
X367182000Y-90687800D01*
X367182000Y-90687800D02*
X366787100Y-90292900D01*
X366787100Y-90292900D02*
X366787100Y-74843900D01*
X366787100Y-74843900D02*
X368548000Y-73083000D01*
X368548000Y-73083000D02*
X368548000Y-65765100D01*
X368548000Y-65765100D02*
X371493300Y-62819800D01*
X371493300Y-62819800D02*
X371493300Y-58643400D01*
X371493300Y-58643400D02*
X371943600Y-58193100D01*
X371943600Y-58193100D02*
X371943600Y-55091100D01*
X371943600Y-55091100D02*
X371679900Y-54827400D01*
X371679900Y-54827400D02*
X371493300Y-54827400D01*
X371493300Y-54827400D02*
X371493300Y-54597000D01*
X371493300Y-54597000D02*
X368294300Y-51398000D01*
X368294300Y-51398000D02*
X368332800Y-51359500D01*
X368332800Y-51359500D02*
X368332800Y-49054000D01*
X368332800Y-49054000D02*
X368069100Y-48790300D01*
X368069100Y-48790300D02*
X367882500Y-48790300D01*
X367882500Y-48790300D02*
X367882500Y-48515200D01*
X319278000Y-84994200D02*
X318965300Y-84994200D01*
X318965300Y-84994200D02*
X316296300Y-82325200D01*
X316296300Y-82325200D02*
X316296300Y-42502200D01*
X316296300Y-42502200D02*
X315543100Y-41749000D01*
X315543100Y-41749000D02*
X315543100Y-37677900D01*
X225297000Y-41499500D02*
X224402600Y-40605100D01*
X224402600Y-40605100D02*
X221185800Y-40605100D01*
X221185800Y-40605100D02*
X220978100Y-40812800D01*
X225297000Y-47205500D02*
X225297000Y-41499500D01*
X225297000Y-41499500D02*
X230417000Y-41499500D01*
X230417000Y-41499500D02*
X234459600Y-37456900D01*
X234459600Y-37456900D02*
X234459600Y-36025400D01*
X336729300Y-102268600D02*
X336729300Y-99290800D01*
X336729300Y-99290800D02*
X336951000Y-99069100D01*
X336951000Y-99069100D02*
X336951000Y-98468100D01*
X336951000Y-98468100D02*
X336729300Y-98246400D01*
X336729300Y-98246400D02*
X336729300Y-97136800D01*
X336729300Y-97136800D02*
X325853300Y-86260800D01*
X325853300Y-86260800D02*
X325140500Y-86260800D01*
X101034300Y-45234000D02*
X101034300Y-45207100D01*
X101034300Y-45207100D02*
X105428600Y-40812800D01*
X319278000Y-86169500D02*
X319278000Y-84994200D01*
%TO.N,ROW0*%
X314996200Y-47035700D02*
X314802000Y-47035700D01*
X314802000Y-47035700D02*
X313108200Y-45341900D01*
X313108200Y-45341900D02*
X313108200Y-41437200D01*
X313108200Y-41437200D02*
X312375400Y-40704400D01*
X312375400Y-40704400D02*
X312375400Y-37083700D01*
X301321000Y-60099600D02*
X306004800Y-55415800D01*
X306004800Y-55415800D02*
X306004800Y-40377000D01*
X306004800Y-40377000D02*
X311373100Y-35008700D01*
X311373100Y-35008700D02*
X311974000Y-35008700D01*
X311974000Y-35008700D02*
X312443500Y-35478200D01*
X312443500Y-35478200D02*
X312443500Y-37015600D01*
X312443500Y-37015600D02*
X312375400Y-37083700D01*
X301321000Y-72240800D02*
X301321000Y-72508300D01*
X301321000Y-72508300D02*
X317522200Y-88709500D01*
X317522200Y-88709500D02*
X318102700Y-88709500D01*
X239058600Y-54043600D02*
X238180700Y-53165700D01*
X238180700Y-53165700D02*
X238180700Y-47649900D01*
X238180700Y-47649900D02*
X237857900Y-47327100D01*
X237857900Y-47327100D02*
X237857900Y-36371200D01*
X237857900Y-36371200D02*
X237820000Y-36333300D01*
X237820000Y-36333300D02*
X237820000Y-35954000D01*
X237820000Y-35954000D02*
X237594800Y-35728800D01*
X237594800Y-35728800D02*
X237594800Y-35104400D01*
X237594800Y-35104400D02*
X237256000Y-34765600D01*
X237256000Y-34765600D02*
X237256000Y-34440900D01*
X237256000Y-34440900D02*
X237080200Y-34265000D01*
X237080200Y-34265000D02*
X237080100Y-34265000D01*
X237080100Y-34265000D02*
X235981400Y-34265000D01*
X235981400Y-34265000D02*
X235819000Y-34427400D01*
X235819000Y-34427400D02*
X230168200Y-34427400D01*
X230168200Y-34427400D02*
X228334700Y-32593900D01*
X228334700Y-32593900D02*
X218126000Y-32593900D01*
X237176000Y-34169200D02*
X237080200Y-34265000D01*
X356505000Y-34341300D02*
X357204300Y-35040600D01*
X357204300Y-35040600D02*
X357204300Y-45424000D01*
X301321000Y-60099600D02*
X300999800Y-59778400D01*
X300999800Y-59778400D02*
X297131800Y-59778400D01*
X297131800Y-59778400D02*
X296358500Y-59005100D01*
X301321000Y-70665500D02*
X301321000Y-69090200D01*
X301321000Y-69090200D02*
X301321000Y-60099600D01*
X160976000Y-31806200D02*
X160046400Y-30876600D01*
X160046400Y-30876600D02*
X160046400Y-29997400D01*
X141605700Y-30748200D02*
X123621700Y-30748200D01*
X123621700Y-30748200D02*
X122876000Y-31493900D01*
X141926000Y-31018600D02*
X141655600Y-30748200D01*
X141655600Y-30748200D02*
X141605700Y-30748200D01*
X141605700Y-30499000D02*
X141605700Y-30748200D01*
X160976000Y-31806200D02*
X160976000Y-31018600D01*
X160976000Y-32593900D02*
X160976000Y-31806200D01*
X84776000Y-29778500D02*
X84776000Y-32593900D01*
X84776000Y-14542900D02*
X84776000Y-29778500D01*
X66916500Y-29778500D02*
X65701200Y-30993800D01*
X65701200Y-30993800D02*
X65726000Y-31018600D01*
X46676000Y-31018600D02*
X46927700Y-30766900D01*
X46927700Y-30766900D02*
X65474300Y-30766900D01*
X65474300Y-30766900D02*
X65701200Y-30993800D01*
X199100800Y-30768500D02*
X199100800Y-21687300D01*
X199100800Y-21687300D02*
X196102500Y-18689000D01*
X196102500Y-18689000D02*
X196102500Y-18052000D01*
X196102500Y-18052000D02*
X191897400Y-13846900D01*
X191897400Y-13846900D02*
X183886100Y-13846900D01*
X183886100Y-13846900D02*
X180951000Y-16782000D01*
X180951000Y-16782000D02*
X180951000Y-29539600D01*
X180951000Y-29539600D02*
X179749000Y-30741600D01*
X356505000Y-32766000D02*
X356505000Y-34341300D01*
X179749000Y-30741600D02*
X180026000Y-31018600D01*
X160976000Y-31018600D02*
X161253000Y-30741600D01*
X161253000Y-30741600D02*
X179749000Y-30741600D01*
X199076000Y-31018600D02*
X199100800Y-30993800D01*
X199100800Y-30993800D02*
X199100800Y-30768500D01*
X218126000Y-31018600D02*
X217875900Y-30768500D01*
X217875900Y-30768500D02*
X199100800Y-30768500D01*
X218126000Y-32593900D02*
X218126000Y-31018600D01*
X199076000Y-32593900D02*
X199076000Y-31018600D01*
X84776000Y-13589000D02*
X84776000Y-14542900D01*
X84776000Y-14542900D02*
X91385500Y-14542900D01*
X91385500Y-14542900D02*
X91579200Y-14736600D01*
X91579200Y-14736600D02*
X91579200Y-17558300D01*
X91579200Y-17558300D02*
X91279700Y-17857800D01*
X91279700Y-17857800D02*
X91279700Y-19224100D01*
X91279700Y-19224100D02*
X102767400Y-30711800D01*
X102767400Y-30711800D02*
X103826000Y-30711800D01*
X141926000Y-32593900D02*
X141926000Y-31018600D01*
X122876000Y-31493900D02*
X122876000Y-31018600D01*
X122876000Y-32593900D02*
X122876000Y-31493900D01*
X103826000Y-30711800D02*
X122569200Y-30711800D01*
X122569200Y-30711800D02*
X122876000Y-31018600D01*
X103826000Y-31018600D02*
X103826000Y-30711800D01*
X301321000Y-71453100D02*
X301321000Y-70665500D01*
X46676000Y-32593900D02*
X46676000Y-31018600D01*
X65726000Y-32593900D02*
X65726000Y-31018600D01*
X103826000Y-32593900D02*
X103826000Y-31018600D01*
X180026000Y-32593900D02*
X180026000Y-31018600D01*
X237176000Y-32593900D02*
X237176000Y-34169200D01*
X301321000Y-71453100D02*
X301321000Y-72240800D01*
X319278000Y-88709500D02*
X318102700Y-88709500D01*
%TO.N,ROW3*%
X67276100Y-16714300D02*
X68283700Y-17722000D01*
X68283700Y-17722000D02*
X68283700Y-46046800D01*
X68283700Y-46046800D02*
X70311500Y-48074600D01*
X70311500Y-48074600D02*
X75574200Y-48074600D01*
X75574200Y-48074600D02*
X77832200Y-50332600D01*
X77832200Y-50332600D02*
X77832200Y-62288000D01*
X77832200Y-62288000D02*
X82899600Y-67355400D01*
X82899600Y-67355400D02*
X82899600Y-69538600D01*
X82899600Y-69538600D02*
X82751300Y-69686900D01*
X82751300Y-69686900D02*
X82751300Y-76576900D01*
X82751300Y-76576900D02*
X89753900Y-83579500D01*
X89753900Y-83579500D02*
X89753900Y-85363200D01*
X89753900Y-85363200D02*
X89631800Y-85485300D01*
X89631800Y-85485300D02*
X89631800Y-87574500D01*
X89631800Y-87574500D02*
X89297300Y-87909000D01*
X65726000Y-15164300D02*
X67276100Y-16714300D01*
X122876000Y-12013700D02*
X121300700Y-12013700D01*
X121300700Y-12013700D02*
X120987200Y-11700200D01*
X120987200Y-11700200D02*
X72290200Y-11700200D01*
X72290200Y-11700200D02*
X67276100Y-16714300D01*
X122876000Y-13589000D02*
X122876000Y-12013700D01*
X89297300Y-87909000D02*
X89602000Y-88213700D01*
X58709700Y-89779000D02*
X83009700Y-89779000D01*
X83009700Y-89779000D02*
X84879700Y-87909000D01*
X84879700Y-87909000D02*
X89297300Y-87909000D01*
X65726000Y-13589000D02*
X65726000Y-15164300D01*
X89602000Y-89789000D02*
X89602000Y-88213700D01*
X375428000Y-69163700D02*
X377036700Y-67555000D01*
X377036700Y-67555000D02*
X377036700Y-19814600D01*
X377036700Y-19814600D02*
X372672300Y-15450200D01*
X372672300Y-15450200D02*
X369852600Y-15450200D01*
X369852600Y-15450200D02*
X368246500Y-13844100D01*
X368246500Y-13844100D02*
X359271500Y-13844100D01*
X359271500Y-13844100D02*
X357668200Y-15447400D01*
X357668200Y-15447400D02*
X351865200Y-15447400D01*
X351865200Y-15447400D02*
X350268500Y-13850700D01*
X350268500Y-13850700D02*
X340178400Y-13850700D01*
X340178400Y-13850700D02*
X338585300Y-15443800D01*
X338585300Y-15443800D02*
X330157500Y-15443800D01*
X330157500Y-15443800D02*
X328995900Y-14282200D01*
X328995900Y-14282200D02*
X326544600Y-14282200D01*
X326544600Y-14282200D02*
X325208200Y-15618600D01*
X325208200Y-15618600D02*
X325208200Y-17699200D01*
X325208200Y-17699200D02*
X323692200Y-19215200D01*
X323692200Y-19215200D02*
X323692200Y-23449000D01*
X375428000Y-70739000D02*
X375428000Y-69163700D01*
X375428000Y-71526600D02*
X375428000Y-70739000D01*
X89602000Y-89789000D02*
X89602000Y-91364300D01*
X89602000Y-91364300D02*
X90312100Y-91364300D01*
X90312100Y-91364300D02*
X90610900Y-91663100D01*
X108104900Y-91798900D02*
X108398000Y-91505800D01*
X108398000Y-91505800D02*
X108398000Y-89789000D01*
X311030000Y-111525800D02*
X303924300Y-111525800D01*
X303924300Y-111525800D02*
X299040100Y-116410000D01*
X299040100Y-116410000D02*
X266447900Y-116410000D01*
X266447900Y-116410000D02*
X261884700Y-111846800D01*
X261884700Y-111846800D02*
X259848900Y-111846800D01*
X259848900Y-111846800D02*
X242445100Y-94443000D01*
X242445100Y-94443000D02*
X242445100Y-92535500D01*
X375428000Y-107136400D02*
X367035800Y-107136400D01*
X367035800Y-107136400D02*
X363181200Y-110991000D01*
X363181200Y-110991000D02*
X363181200Y-112935300D01*
X363181200Y-112935300D02*
X358806400Y-117310100D01*
X358806400Y-117310100D02*
X316814300Y-117310100D01*
X316814300Y-117310100D02*
X311030000Y-111525800D01*
X311030000Y-111525800D02*
X311030000Y-109918000D01*
X222317000Y-89789000D02*
X222317000Y-91364300D01*
X221938500Y-92881200D02*
X221938500Y-91742800D01*
X221938500Y-91742800D02*
X222317000Y-91364300D01*
X375428000Y-71526600D02*
X375428000Y-72314300D01*
X311030000Y-108956000D02*
X311030000Y-109918000D01*
X222317000Y-89001300D02*
X222317000Y-89789000D01*
X222317000Y-89001300D02*
X222317000Y-88213700D01*
X134006000Y-90495400D02*
X134006000Y-93749500D01*
X134006000Y-93749500D02*
X133812400Y-93943100D01*
X133812400Y-93943100D02*
X126984800Y-93943100D01*
X126984800Y-93943100D02*
X124664200Y-91622500D01*
X124664200Y-91622500D02*
X120538600Y-91622500D01*
X120538600Y-91622500D02*
X117942300Y-89026200D01*
X117942300Y-89026200D02*
X108398000Y-89026200D01*
X127321000Y-89789000D02*
X133299600Y-89789000D01*
X133299600Y-89789000D02*
X134006000Y-90495400D01*
X146244000Y-91364300D02*
X145935600Y-91672700D01*
X145935600Y-91672700D02*
X140054200Y-91672700D01*
X140054200Y-91672700D02*
X138876900Y-90495400D01*
X138876900Y-90495400D02*
X134006000Y-90495400D01*
X108398000Y-89789000D02*
X108398000Y-89026200D01*
X203140000Y-87917800D02*
X194810500Y-87917800D01*
X194810500Y-87917800D02*
X190893200Y-91835100D01*
X190893200Y-91835100D02*
X190893200Y-93758200D01*
X190893200Y-93758200D02*
X190693700Y-93957700D01*
X190693700Y-93957700D02*
X186683400Y-93957700D01*
X186683400Y-93957700D02*
X184090000Y-91364300D01*
X184090000Y-91364300D02*
X183839900Y-91614400D01*
X183839900Y-91614400D02*
X177728600Y-91614400D01*
X177728600Y-91614400D02*
X173297700Y-96045300D01*
X173297700Y-96045300D02*
X170635700Y-96045300D01*
X170635700Y-96045300D02*
X165167000Y-90576600D01*
X203140000Y-87917800D02*
X203838700Y-87219100D01*
X203838700Y-87219100D02*
X214041200Y-87219100D01*
X214041200Y-87219100D02*
X214320400Y-87498300D01*
X214320400Y-87498300D02*
X221601600Y-87498300D01*
X221601600Y-87498300D02*
X222317000Y-88213700D01*
X203140000Y-88213700D02*
X203140000Y-87917800D01*
X184090000Y-89789000D02*
X184090000Y-91364300D01*
X165167000Y-90576600D02*
X164081000Y-91662600D01*
X164081000Y-91662600D02*
X158786000Y-91662600D01*
X158786000Y-91662600D02*
X154357500Y-96091100D01*
X154357500Y-96091100D02*
X150970800Y-96091100D01*
X150970800Y-96091100D02*
X146244000Y-91364300D01*
X146244000Y-89789000D02*
X146244000Y-91364300D01*
X165167000Y-89789000D02*
X165167000Y-90576600D01*
X203140000Y-89789000D02*
X203140000Y-88213700D01*
X375428000Y-107136400D02*
X377030700Y-105533700D01*
X377030700Y-105533700D02*
X377030700Y-73917000D01*
X377030700Y-73917000D02*
X375428000Y-72314300D01*
X375428000Y-107390700D02*
X375428000Y-107136400D01*
X375428000Y-108966000D02*
X375428000Y-107390700D01*
%TO.N,ROW4*%
X355301100Y-39609700D02*
X356010500Y-40319200D01*
X356010500Y-40319200D02*
X356010500Y-46840100D01*
X356010500Y-46840100D02*
X356454000Y-47283600D01*
X356454000Y-47283600D02*
X356454000Y-49519800D01*
X356454000Y-49519800D02*
X356505000Y-49570800D01*
X356505000Y-49570800D02*
X356505000Y-51689000D01*
X241404000Y-54948900D02*
X239396000Y-52940900D01*
X239396000Y-52940900D02*
X239396000Y-31095000D01*
X239396000Y-31095000D02*
X229700100Y-21399100D01*
X229700100Y-21399100D02*
X204880400Y-21399100D01*
X204880400Y-21399100D02*
X199076000Y-15594700D01*
X199076000Y-15594700D02*
X199076000Y-15164300D01*
X251273000Y-69163700D02*
X251273000Y-68783500D01*
X251273000Y-68783500D02*
X249472500Y-66983000D01*
X249472500Y-66983000D02*
X249187300Y-66983000D01*
X249187300Y-66983000D02*
X248778000Y-66573700D01*
X248778000Y-66573700D02*
X248778000Y-59693200D01*
X248778000Y-59693200D02*
X249275500Y-59195700D01*
X249275500Y-59195700D02*
X249275500Y-55902100D01*
X327832600Y-23758900D02*
X339262100Y-23758900D01*
X339262100Y-23758900D02*
X344163900Y-28660700D01*
X344163900Y-28660700D02*
X344352000Y-28660700D01*
X344352000Y-28660700D02*
X355301100Y-39609700D01*
X168469000Y-107390700D02*
X168205300Y-107127000D01*
X168205300Y-107127000D02*
X153968700Y-107127000D01*
X153968700Y-107127000D02*
X151352100Y-109743600D01*
X151352100Y-109743600D02*
X96978000Y-109743600D01*
X261758500Y-104400700D02*
X261922800Y-104400700D01*
X261922800Y-104400700D02*
X261922800Y-88298300D01*
X261922800Y-88298300D02*
X251723300Y-78098800D01*
X251723300Y-78098800D02*
X251723300Y-72764600D01*
X251723300Y-72764600D02*
X251273000Y-72314300D01*
X263348000Y-107380700D02*
X261922800Y-105955500D01*
X261922800Y-105955500D02*
X261922800Y-104400700D01*
X168469000Y-108178300D02*
X209277100Y-108178300D01*
X209277100Y-108178300D02*
X209667900Y-108569100D01*
X168469000Y-108178300D02*
X168469000Y-107390700D01*
X168469000Y-108966000D02*
X168469000Y-108178300D01*
X375428000Y-51689000D02*
X375428000Y-50113700D01*
X375428000Y-50113700D02*
X374336800Y-50113700D01*
X374336800Y-50113700D02*
X363638000Y-39414900D01*
X356505000Y-107390700D02*
X356505100Y-107390700D01*
X356505100Y-107390700D02*
X356505400Y-107391000D01*
X356505400Y-107391000D02*
X356505400Y-107417100D01*
X356505400Y-107417100D02*
X356554600Y-107466300D01*
X356554600Y-107466300D02*
X356554700Y-107466300D01*
X356554700Y-107466300D02*
X356630300Y-107390700D01*
X356630300Y-107390700D02*
X359896300Y-107390700D01*
X359896300Y-107390700D02*
X371457200Y-95829800D01*
X371457200Y-95829800D02*
X371457200Y-92151500D01*
X371457200Y-92151500D02*
X369807900Y-90502200D01*
X369807900Y-90502200D02*
X369807900Y-78565600D01*
X369807900Y-78565600D02*
X373824800Y-74548700D01*
X373824800Y-74548700D02*
X373824800Y-60685200D01*
X373824800Y-60685200D02*
X375428000Y-59082000D01*
X375428000Y-59082000D02*
X375428000Y-51689000D01*
X355301100Y-39609700D02*
X355495900Y-39414900D01*
X73102000Y-110531300D02*
X82647600Y-120076900D01*
X82647600Y-120076900D02*
X93776000Y-120076900D01*
X93776000Y-120076900D02*
X96978000Y-116874900D01*
X96978000Y-116874900D02*
X96978000Y-109743600D01*
X199076000Y-13589000D02*
X199076000Y-15164300D01*
X251273000Y-70739000D02*
X251273000Y-69163700D01*
X251273000Y-71526600D02*
X251273000Y-70739000D01*
X251273000Y-71526600D02*
X251273000Y-72314300D01*
X356505000Y-108178300D02*
X352967400Y-111715900D01*
X352967400Y-111715900D02*
X349258300Y-111715900D01*
X349258300Y-111715900D02*
X344114400Y-116859800D01*
X344114400Y-116859800D02*
X323168700Y-116859800D01*
X323168700Y-116859800D02*
X313388400Y-107079500D01*
X313388400Y-107079500D02*
X302705800Y-107079500D01*
X302705800Y-107079500D02*
X298783200Y-111002100D01*
X298783200Y-111002100D02*
X298783200Y-112925300D01*
X298783200Y-112925300D02*
X298598400Y-113110100D01*
X298598400Y-113110100D02*
X289995500Y-113110100D01*
X289995500Y-113110100D02*
X287224000Y-110338600D01*
X356505000Y-108178300D02*
X356505000Y-107390700D01*
X356505000Y-108966000D02*
X356505000Y-108178300D01*
X263348000Y-108956000D02*
X263348000Y-107380700D01*
X263348000Y-109699500D02*
X263348000Y-108956000D01*
X263348000Y-109699500D02*
X263348000Y-110531300D01*
X141926000Y-12845500D02*
X141926000Y-13589000D01*
X287224000Y-110338600D02*
X286733000Y-110829600D01*
X286733000Y-110829600D02*
X280806600Y-110829600D01*
X280806600Y-110829600D02*
X276378100Y-115258100D01*
X276378100Y-115258100D02*
X268074800Y-115258100D01*
X268074800Y-115258100D02*
X263348000Y-110531300D01*
X287224000Y-108956000D02*
X287224000Y-110338600D01*
X96978000Y-108956000D02*
X96978000Y-109743600D01*
X73102000Y-110338600D02*
X73102000Y-110531300D01*
X73102000Y-108956000D02*
X73102000Y-110338600D01*
X141926000Y-12845500D02*
X141926000Y-12013700D01*
X160976000Y-12013700D02*
X160710900Y-11748600D01*
X160710900Y-11748600D02*
X142191100Y-11748600D01*
X142191100Y-11748600D02*
X141926000Y-12013700D01*
X180026000Y-12013700D02*
X179763900Y-11751600D01*
X179763900Y-11751600D02*
X161238100Y-11751600D01*
X161238100Y-11751600D02*
X160976000Y-12013700D01*
X160976000Y-13589000D02*
X160976000Y-12013700D01*
X199076000Y-12013700D02*
X198821800Y-11759500D01*
X198821800Y-11759500D02*
X180280200Y-11759500D01*
X180280200Y-11759500D02*
X180026000Y-12013700D01*
X180026000Y-13589000D02*
X180026000Y-12013700D01*
X199076000Y-13589000D02*
X199076000Y-12013700D01*
X49184700Y-108956000D02*
X49184700Y-110531300D01*
X73102000Y-110531300D02*
X72803700Y-110829600D01*
X72803700Y-110829600D02*
X66684600Y-110829600D01*
X66684600Y-110829600D02*
X62256100Y-115258100D01*
X62256100Y-115258100D02*
X53911500Y-115258100D01*
X53911500Y-115258100D02*
X49184700Y-110531300D01*
%TO.N,ROW1*%
X94278500Y-49715200D02*
X93330400Y-49715200D01*
X93330400Y-49715200D02*
X93252000Y-49636800D01*
X53488500Y-49636800D02*
X74412100Y-49636800D01*
X51564700Y-50119900D02*
X52047800Y-49636800D01*
X52047800Y-49636800D02*
X53488500Y-49636800D01*
X53488500Y-49636800D02*
X53488500Y-46664100D01*
X53488500Y-46664100D02*
X52571200Y-45746800D01*
X52571200Y-45746800D02*
X51810000Y-45746800D01*
X51810000Y-45746800D02*
X41089600Y-35026400D01*
X41089600Y-35026400D02*
X41089600Y-21381900D01*
X41089600Y-21381900D02*
X46676000Y-15795500D01*
X46676000Y-15795500D02*
X46676000Y-13589000D01*
X51564700Y-51695200D02*
X51564700Y-50119900D01*
X311362300Y-50167200D02*
X311855100Y-49674400D01*
X311855100Y-49674400D02*
X311855100Y-41457900D01*
X311855100Y-41457900D02*
X310274000Y-39876800D01*
X310274000Y-39876800D02*
X310274000Y-37168200D01*
X234333500Y-39451200D02*
X226737200Y-47047500D01*
X226737200Y-47047500D02*
X226737200Y-48225600D01*
X297174600Y-34938500D02*
X291812300Y-40300800D01*
X291812300Y-40300800D02*
X290218100Y-40300800D01*
X113224000Y-49986700D02*
X113224000Y-49312700D01*
X113224000Y-49312700D02*
X110792300Y-46881000D01*
X110792300Y-46881000D02*
X97112700Y-46881000D01*
X97112700Y-46881000D02*
X94278500Y-49715200D01*
X74412100Y-49636800D02*
X74762000Y-49986700D01*
X74762000Y-49986700D02*
X75378000Y-49986700D01*
X226762000Y-49986700D02*
X226737200Y-49961900D01*
X226737200Y-49961900D02*
X226737200Y-48225600D01*
X226737200Y-48225600D02*
X217651200Y-48225600D01*
X217651200Y-48225600D02*
X214555200Y-45129600D01*
X214555200Y-45129600D02*
X214555200Y-37096600D01*
X214555200Y-37096600D02*
X210716000Y-33257400D01*
X210716000Y-33257400D02*
X203143500Y-33257400D01*
X203143500Y-33257400D02*
X201027600Y-35373300D01*
X207839000Y-49986700D02*
X201389100Y-43536800D01*
X201389100Y-43536800D02*
X201389100Y-35734800D01*
X201389100Y-35734800D02*
X201027600Y-35373300D01*
X132147000Y-50774300D02*
X133575200Y-50774300D01*
X133575200Y-50774300D02*
X134127700Y-51326800D01*
X132147000Y-50774300D02*
X132147000Y-49986700D01*
X132147000Y-51562000D02*
X132147000Y-50774300D01*
X151070000Y-50920900D02*
X153752800Y-50920900D01*
X153752800Y-50920900D02*
X154614400Y-50059300D01*
X178404000Y-49689800D02*
X178404000Y-41304600D01*
X178404000Y-41304600D02*
X183234200Y-36474400D01*
X183234200Y-36474400D02*
X183234200Y-34079100D01*
X183234200Y-34079100D02*
X191761600Y-25551700D01*
X191761600Y-25551700D02*
X195560000Y-25551700D01*
X195560000Y-25551700D02*
X197313500Y-27305200D01*
X197313500Y-27305200D02*
X197313500Y-33838800D01*
X197313500Y-33838800D02*
X198848000Y-35373300D01*
X198848000Y-35373300D02*
X201027600Y-35373300D01*
X171593300Y-51562000D02*
X171593300Y-50458300D01*
X171593300Y-50458300D02*
X171876300Y-50175300D01*
X178404000Y-49689800D02*
X171077500Y-49689800D01*
X171077500Y-49689800D02*
X169993000Y-50774300D01*
X188916000Y-49986700D02*
X188619100Y-49689800D01*
X188619100Y-49689800D02*
X178404000Y-49689800D01*
X311362300Y-50167200D02*
X311362300Y-51006700D01*
X311362300Y-51006700D02*
X313507600Y-53152000D01*
X307608000Y-50167200D02*
X311362300Y-50167200D01*
X355278100Y-60115900D02*
X356505000Y-61342800D01*
X356505000Y-61342800D02*
X356505000Y-70739000D01*
X207839000Y-51562000D02*
X207839000Y-49986700D01*
X226762000Y-51562000D02*
X226762000Y-49986700D01*
X169993000Y-51562000D02*
X171593300Y-51562000D01*
X151070000Y-51562000D02*
X151070000Y-50920900D01*
X307608000Y-51742500D02*
X307608000Y-50167200D01*
X94301000Y-50009200D02*
X94278500Y-49986700D01*
X94278500Y-49986700D02*
X94278500Y-49715200D01*
X94301000Y-51562000D02*
X94301000Y-50009200D01*
X75378000Y-51562000D02*
X75378000Y-49986700D01*
X132147000Y-49986700D02*
X131831800Y-49671500D01*
X131831800Y-49671500D02*
X113539200Y-49671500D01*
X113539200Y-49671500D02*
X113224000Y-49986700D01*
X113224000Y-51562000D02*
X113224000Y-49986700D01*
X188916000Y-51562000D02*
X188916000Y-49986700D01*
X169993000Y-51562000D02*
X169993000Y-50774300D01*
X354904700Y-89789000D02*
X354904700Y-88937100D01*
X354904700Y-88937100D02*
X354086700Y-88119100D01*
X354086700Y-88119100D02*
X354086700Y-74732600D01*
X354086700Y-74732600D02*
X356505000Y-72314300D01*
X356505000Y-70739000D02*
X356505000Y-72314300D01*
X356505000Y-89789000D02*
X354904700Y-89789000D01*
%TO.N,LED_DATA*%
X315892300Y-25093600D02*
X317325100Y-26526400D01*
X317325100Y-26526400D02*
X317325100Y-33443600D01*
X317325100Y-33443600D02*
X316603600Y-34165100D01*
X316603600Y-34165100D02*
X316603600Y-34286600D01*
X316603600Y-34286600D02*
X315591800Y-35298400D01*
X315591800Y-35298400D02*
X315591800Y-36535800D01*
X315591800Y-36535800D02*
X315543300Y-36584300D01*
X315543300Y-36584300D02*
X314815200Y-37312400D01*
X314815200Y-37312400D02*
X314815200Y-39255700D01*
X319278000Y-79914200D02*
X318481300Y-79914200D01*
X318481300Y-79914200D02*
X316746700Y-78179600D01*
X316746700Y-78179600D02*
X316746700Y-42315700D01*
X316746700Y-42315700D02*
X316196500Y-41765500D01*
X316196500Y-41765500D02*
X316196500Y-40827100D01*
X316196500Y-40827100D02*
X316312100Y-40711500D01*
X316312100Y-40711500D02*
X316312100Y-37353200D01*
X316312100Y-37353200D02*
X315543300Y-36584300D01*
X319278000Y-81089500D02*
X319278000Y-79914200D01*
%TO.N,Net-(R2-Pad1)*%
X307990100Y-27003500D02*
X309855100Y-25138500D01*
X309855100Y-25138500D02*
X309855100Y-23366100D01*
X309855100Y-23366100D02*
X311347700Y-21873500D01*
X311347700Y-21873500D02*
X312229700Y-21873500D01*
X312229700Y-21873500D02*
X315578600Y-18524600D01*
%TO.N,Net-(R3-Pad1)*%
X316436100Y-19382000D02*
X316671300Y-19617200D01*
X316671300Y-19617200D02*
X316671300Y-21223000D01*
X316671300Y-21223000D02*
X315781800Y-22112500D01*
X315781800Y-22112500D02*
X314323400Y-22112500D01*
X314323400Y-22112500D02*
X311716100Y-24719800D01*
X311716100Y-24719800D02*
X311716100Y-26422400D01*
X311716100Y-26422400D02*
X311587300Y-26551200D01*
%TO.N,Net-(D167-Pad2)*%
X326497800Y-101118300D02*
X326857500Y-100758600D01*
X326857500Y-100758600D02*
X333125800Y-100758600D01*
%TO.N,Net-(D103-Pad4)*%
X156987800Y-100102300D02*
X162082800Y-100102300D01*
X162082800Y-100102300D02*
X163739300Y-98445800D01*
%TO.N,Net-(D101-Pad2)*%
X276600500Y-63701400D02*
X277563900Y-62738000D01*
X277563900Y-62738000D02*
X279461000Y-62738000D01*
X261851000Y-63543900D02*
X258264200Y-63543900D01*
X258264200Y-63543900D02*
X256419900Y-61699600D01*
%TO.N,Net-(D104-Pad2)*%
X124929300Y-24739600D02*
X124929300Y-16257300D01*
X124929300Y-16257300D02*
X126912000Y-14274600D01*
X126912000Y-14274600D02*
X134521700Y-14274600D01*
X134521700Y-14274600D02*
X135661500Y-15414400D01*
X135661500Y-15414400D02*
X144198600Y-15414400D01*
X144198600Y-15414400D02*
X145359900Y-14253100D01*
X145359900Y-14253100D02*
X153550200Y-14253100D01*
X153550200Y-14253100D02*
X154711500Y-15414400D01*
X154711500Y-15414400D02*
X163081000Y-15414400D01*
X163081000Y-15414400D02*
X164192000Y-14303400D01*
X164192000Y-14303400D02*
X172650500Y-14303400D01*
X172650500Y-14303400D02*
X173767300Y-15420200D01*
X173767300Y-15420200D02*
X181229400Y-15420200D01*
X181229400Y-15420200D02*
X183253000Y-13396600D01*
X183253000Y-13396600D02*
X192084000Y-13396600D01*
X192084000Y-13396600D02*
X196080000Y-17392600D01*
X196080000Y-17392600D02*
X199267600Y-17392600D01*
X199267600Y-17392600D02*
X211172600Y-29297600D01*
X211172600Y-29297600D02*
X236916300Y-29297600D01*
X236916300Y-29297600D02*
X238788500Y-31169800D01*
X238788500Y-31169800D02*
X238788500Y-41479400D01*
X238788500Y-41479400D02*
X238586500Y-41681400D01*
%TO.N,Net-(D109-Pad2)*%
X249649400Y-25872900D02*
X258722600Y-25872900D01*
X258722600Y-25872900D02*
X267572500Y-34722800D01*
%TO.N,Net-(D113-Pad2)*%
X122880800Y-100739600D02*
X101093700Y-100739600D01*
X101093700Y-100739600D02*
X100231300Y-99877200D01*
%TO.N,Net-(D116-Pad2)*%
X199701800Y-61824800D02*
X202510100Y-64633100D01*
X202510100Y-64633100D02*
X218665600Y-64633100D01*
X218665600Y-64633100D02*
X218665600Y-64633200D01*
%TO.N,Net-(D124-Pad2)*%
X285224200Y-22485400D02*
X306867900Y-22485400D01*
X306867900Y-22485400D02*
X309122100Y-24739600D01*
%TO.N,Net-(D129-Pad2)*%
X264577300Y-21171300D02*
X267335700Y-23929700D01*
X267335700Y-23929700D02*
X271221300Y-23929700D01*
%TO.N,Net-(D142-Pad2)*%
X76101000Y-23715600D02*
X76101000Y-31327800D01*
X76101000Y-31327800D02*
X80805300Y-36032100D01*
X80805300Y-36032100D02*
X80805300Y-47211300D01*
X80805300Y-47211300D02*
X78797600Y-49219000D01*
X78797600Y-49219000D02*
X78797600Y-61979600D01*
X78797600Y-61979600D02*
X83800200Y-66982200D01*
X83800200Y-66982200D02*
X83800200Y-69911800D01*
X83800200Y-69911800D02*
X83651900Y-70060100D01*
X83651900Y-70060100D02*
X83651900Y-75385600D01*
X83651900Y-75385600D02*
X87692200Y-79425900D01*
%TO.N,Net-(D143-Pad2)*%
X93403600Y-119320300D02*
X93403600Y-111980600D01*
X93403600Y-111980600D02*
X95079000Y-110305200D01*
X95079000Y-110305200D02*
X95079000Y-94862400D01*
X95079000Y-94862400D02*
X96151200Y-93790200D01*
X96151200Y-93790200D02*
X96151200Y-91449800D01*
X96151200Y-91449800D02*
X102565400Y-85035600D01*
X102565400Y-85035600D02*
X102565400Y-82799600D01*
X102565400Y-82799600D02*
X95907500Y-76141700D01*
X95907500Y-76141700D02*
X95907500Y-74972500D01*
X95907500Y-74972500D02*
X91630800Y-70695800D01*
X91630800Y-70695800D02*
X91630800Y-55397800D01*
X91630800Y-55397800D02*
X88686200Y-52453200D01*
X88686200Y-52453200D02*
X88686200Y-48157700D01*
X88686200Y-48157700D02*
X89525600Y-47318300D01*
X89525600Y-47318300D02*
X89525600Y-45931400D01*
X89525600Y-45931400D02*
X88359900Y-44765700D01*
X88359900Y-44765700D02*
X88359900Y-33758900D01*
X88359900Y-33758900D02*
X88810300Y-33308500D01*
X88810300Y-33308500D02*
X98132000Y-33308500D01*
X98132000Y-33308500D02*
X99287800Y-34464300D01*
X99287800Y-34464300D02*
X105886000Y-34464300D01*
X105886000Y-34464300D02*
X107090700Y-33259600D01*
X107090700Y-33259600D02*
X115451800Y-33259600D01*
X115451800Y-33259600D02*
X116612300Y-34420100D01*
X116612300Y-34420100D02*
X124980200Y-34420100D01*
X124980200Y-34420100D02*
X126094800Y-33305500D01*
X126094800Y-33305500D02*
X135653000Y-33305500D01*
X135653000Y-33305500D02*
X138300100Y-35952600D01*
X138300100Y-35952600D02*
X141918000Y-35952600D01*
X141918000Y-35952600D02*
X142870400Y-36905000D01*
X142870400Y-36905000D02*
X143693000Y-36905000D01*
X143693000Y-36905000D02*
X144076200Y-36521800D01*
X144076200Y-36521800D02*
X144076200Y-31117400D01*
X144076200Y-31117400D02*
X137508600Y-24549800D01*
X137508600Y-24549800D02*
X133808200Y-24549800D01*
X133808200Y-24549800D02*
X133808200Y-24549700D01*
%TO.N,Net-(D144-Pad2)*%
X310442500Y-20101100D02*
X309531500Y-21012100D01*
X309531500Y-21012100D02*
X286497900Y-21012100D01*
X286497900Y-21012100D02*
X286326100Y-20840300D01*
X286326100Y-20840300D02*
X281748900Y-20840300D01*
X281748900Y-20840300D02*
X277798800Y-24790400D01*
%TO.N,Net-(D152-Pad2)*%
X93526100Y-25571800D02*
X87909600Y-31188300D01*
X87909600Y-31188300D02*
X87909600Y-45270600D01*
X87909600Y-45270600D02*
X89035100Y-46396100D01*
X89035100Y-46396100D02*
X89035100Y-47171900D01*
X89035100Y-47171900D02*
X88235900Y-47971100D01*
X88235900Y-47971100D02*
X88235900Y-52639900D01*
X88235900Y-52639900D02*
X91180500Y-55584500D01*
X91180500Y-55584500D02*
X91180500Y-70882400D01*
X91180500Y-70882400D02*
X95231900Y-74933800D01*
X95231900Y-74933800D02*
X95231900Y-77613900D01*
X95231900Y-77613900D02*
X96465500Y-78847500D01*
X353302900Y-100198900D02*
X353302900Y-94540400D01*
X353302900Y-94540400D02*
X343296500Y-84534000D01*
X343296500Y-84534000D02*
X343296500Y-78138200D01*
%TO.N,Net-(D154-Pad2)*%
X366015000Y-124288700D02*
X377762100Y-112541600D01*
X377762100Y-112541600D02*
X377762100Y-24832400D01*
X154620500Y-124288700D02*
X149414700Y-119082900D01*
X149414700Y-119082900D02*
X118240100Y-119082900D01*
%TO.N,Net-(D155-Pad2)*%
X291776900Y-42445000D02*
X301330000Y-42445000D01*
X301330000Y-42445000D02*
X312763000Y-31012000D01*
X312763000Y-31012000D02*
X312763000Y-24946700D01*
X312763000Y-24946700D02*
X314696600Y-23013100D01*
X314696600Y-23013100D02*
X316880300Y-23013100D01*
X316880300Y-23013100D02*
X322650400Y-28783200D01*
X322650400Y-28783200D02*
X322650400Y-33229500D01*
X322650400Y-33229500D02*
X322002400Y-33877500D01*
X322002400Y-33877500D02*
X322002400Y-39814900D01*
X322002400Y-39814900D02*
X325293300Y-43105800D01*
%TO.N,Net-(D156-Pad2)*%
X68408900Y-63751700D02*
X66645900Y-61988700D01*
X66645900Y-61988700D02*
X43373900Y-61988700D01*
%TO.N,Net-(D161-Pad2)*%
X46190800Y-64037200D02*
X46190800Y-73949400D01*
X46190800Y-73949400D02*
X45335300Y-74804900D01*
X45335300Y-74804900D02*
X45335300Y-78603000D01*
X45335300Y-78603000D02*
X46638900Y-79906600D01*
%TO.N,Net-(D163-Pad2)*%
X195259600Y-26282500D02*
X195203500Y-26282500D01*
X195203500Y-26282500D02*
X186829200Y-34656800D01*
X186829200Y-34656800D02*
X186829200Y-36563100D01*
X186829200Y-36563100D02*
X186526800Y-36865500D01*
X186526800Y-36865500D02*
X186526800Y-40308300D01*
X186526800Y-40308300D02*
X199564300Y-53345800D01*
X199564300Y-53345800D02*
X199564300Y-54858200D01*
X199564300Y-54858200D02*
X198916100Y-55506400D01*
X198916100Y-55506400D02*
X198916100Y-62092100D01*
X198916100Y-62092100D02*
X203049100Y-66225100D01*
X203049100Y-66225100D02*
X207536800Y-66225100D01*
X207536800Y-66225100D02*
X211406600Y-70094900D01*
X211406600Y-70094900D02*
X211406600Y-71962000D01*
X211406600Y-71962000D02*
X222640300Y-83195700D01*
X222640300Y-83195700D02*
X222722100Y-83195700D01*
X222722100Y-83195700D02*
X229120200Y-89593800D01*
X229120200Y-89593800D02*
X229120200Y-93758300D01*
X229120200Y-93758300D02*
X227546600Y-95331900D01*
X227546600Y-95331900D02*
X227546600Y-112603900D01*
X227546600Y-112603900D02*
X221282500Y-118868000D01*
X221282500Y-118868000D02*
X219275800Y-118868000D01*
X219275800Y-118868000D02*
X219275800Y-118868100D01*
%TO.N,Net-(D164-Pad2)*%
X182223600Y-119547900D02*
X158172900Y-119547900D01*
X158172900Y-119547900D02*
X157349500Y-120371300D01*
%TO.N,ROW6*%
X325516700Y-25989800D02*
X325281300Y-25989800D01*
X325281300Y-25989800D02*
X324816800Y-25525300D01*
X324816800Y-25525300D02*
X324038900Y-25525300D01*
X324038900Y-25525300D02*
X321550100Y-23036500D01*
X321550100Y-23036500D02*
X321550100Y-12013700D01*
X256226000Y-15164300D02*
X255961300Y-15429000D01*
X255961300Y-15429000D02*
X250626200Y-15429000D01*
X250626200Y-15429000D02*
X248786200Y-13589000D01*
X248786200Y-13589000D02*
X238776300Y-13589000D01*
X239472000Y-110531300D02*
X242014900Y-113074200D01*
X242014900Y-113074200D02*
X250908200Y-113074200D01*
X250908200Y-113074200D02*
X251101200Y-112881200D01*
X251101200Y-112881200D02*
X251101200Y-104149600D01*
X251101200Y-104149600D02*
X239760700Y-92809100D01*
X239760700Y-92809100D02*
X239760700Y-77715300D01*
X239760700Y-77715300D02*
X243018000Y-74458000D01*
X243018000Y-74458000D02*
X243018000Y-61199600D01*
X243018000Y-61199600D02*
X242689300Y-60870900D01*
X242689300Y-60870900D02*
X242689300Y-55022300D01*
X242689300Y-55022300D02*
X240054700Y-52387700D01*
X240054700Y-52387700D02*
X240054700Y-30899500D01*
X240054700Y-30899500D02*
X237381100Y-28225900D01*
X237381100Y-28225900D02*
X237381100Y-13589000D01*
X239472000Y-108956000D02*
X239472000Y-110531300D01*
X237381100Y-13589000D02*
X238776300Y-13589000D01*
X237176000Y-13589000D02*
X237381100Y-13589000D01*
X275276000Y-12013700D02*
X275011100Y-11748800D01*
X275011100Y-11748800D02*
X258661100Y-11748800D01*
X258661100Y-11748800D02*
X256226000Y-14183900D01*
X321550100Y-12013700D02*
X313524000Y-12013700D01*
X337455000Y-12013700D02*
X337194800Y-11753500D01*
X337194800Y-11753500D02*
X321810300Y-11753500D01*
X321810300Y-11753500D02*
X321550100Y-12013700D01*
X313524000Y-12013700D02*
X313251600Y-11741300D01*
X313251600Y-11741300D02*
X294598400Y-11741300D01*
X294598400Y-11741300D02*
X294326000Y-12013700D01*
X237176000Y-13589000D02*
X237176000Y-12013700D01*
X218126000Y-13589000D02*
X218126000Y-12013700D01*
X218126000Y-12013700D02*
X218376100Y-11763600D01*
X218376100Y-11763600D02*
X236925900Y-11763600D01*
X236925900Y-11763600D02*
X237176000Y-12013700D01*
X313524000Y-13589000D02*
X313524000Y-12013700D01*
X356505000Y-12013700D02*
X356225400Y-11734100D01*
X356225400Y-11734100D02*
X337734600Y-11734100D01*
X337734600Y-11734100D02*
X337455000Y-12013700D01*
X294326000Y-12013700D02*
X294008900Y-11696600D01*
X294008900Y-11696600D02*
X275593100Y-11696600D01*
X275593100Y-11696600D02*
X275276000Y-12013700D01*
X337455000Y-13589000D02*
X337455000Y-12013700D01*
X356505000Y-12013700D02*
X356805800Y-11712900D01*
X356805800Y-11712900D02*
X375127200Y-11712900D01*
X375127200Y-11712900D02*
X375428000Y-12013700D01*
X294326000Y-13589000D02*
X294326000Y-12013700D01*
X275276000Y-13589000D02*
X275276000Y-12013700D01*
X256226000Y-14183900D02*
X256226000Y-15164300D01*
X256226000Y-13589000D02*
X256226000Y-14183900D01*
X375428000Y-13589000D02*
X375428000Y-12013700D01*
X356505000Y-13589000D02*
X356505000Y-12013700D01*
%TO.N,Net-(D180-Pad2)*%
X71682000Y-24841200D02*
X71682000Y-22174100D01*
X71682000Y-22174100D02*
X79074200Y-14781900D01*
X79074200Y-14781900D02*
X79074200Y-12428700D01*
X367265800Y-61905600D02*
X367368900Y-61905600D01*
X367368900Y-61905600D02*
X371493300Y-57781200D01*
X371493300Y-57781200D02*
X371493300Y-55502700D01*
X371493300Y-55502700D02*
X367658700Y-51668100D01*
X367658700Y-51668100D02*
X367658700Y-51080700D01*
X367658700Y-51080700D02*
X365179400Y-48601400D01*
X365179400Y-48601400D02*
X365179400Y-42184300D01*
X365179400Y-42184300D02*
X363392900Y-40397800D01*
X363392900Y-40397800D02*
X363313300Y-40397800D01*
X363313300Y-40397800D02*
X363313300Y-40397700D01*
X363313300Y-40397700D02*
X362820900Y-39905300D01*
X362820900Y-39905300D02*
X362820900Y-37095600D01*
X362820900Y-37095600D02*
X363181200Y-36735300D01*
X363181200Y-36735300D02*
X363181200Y-20192300D01*
X363181200Y-20192300D02*
X361661700Y-18672800D01*
%TO.N,Net-(D187-Pad2)*%
X194977300Y-100171400D02*
X196409600Y-98739100D01*
X196409600Y-98739100D02*
X197663400Y-98739100D01*
%TO.N,Net-(D195-Pad2)*%
X298675200Y-66965600D02*
X298324800Y-66615200D01*
X298324800Y-66615200D02*
X298324800Y-61721000D01*
X327370700Y-68651000D02*
X327370700Y-67689900D01*
X327370700Y-67689900D02*
X331312200Y-63748400D01*
%TO.N,Net-(C107-Pad1)*%
X319361200Y-57902700D02*
X320159700Y-57104200D01*
X320159700Y-57104200D02*
X320159700Y-42137000D01*
X320159700Y-42137000D02*
X319372500Y-41349800D01*
X319372500Y-41349800D02*
X319372500Y-37327500D01*
X319372500Y-37327500D02*
X319824200Y-36875800D01*
X319824200Y-36875800D02*
X319824200Y-34751600D01*
X319824200Y-34751600D02*
X319229900Y-34157300D01*
%TO.N,Net-(C108-Pad1)*%
X319062900Y-35157700D02*
X318922200Y-35298400D01*
X318922200Y-35298400D02*
X318922200Y-55106700D01*
X318922200Y-55106700D02*
X319434300Y-55618800D01*
%TO.N,Net-(D60-Pad1)*%
X235499000Y-67488500D02*
X234999900Y-66989400D01*
X234999900Y-66989400D02*
X234170000Y-66989400D01*
X234170000Y-66989400D02*
X230212200Y-63031600D01*
X230212200Y-63031600D02*
X230212200Y-45850300D01*
X230212200Y-45850300D02*
X234940000Y-41122500D01*
X234940000Y-41122500D02*
X234940000Y-40467300D01*
X258260500Y-40467300D02*
X261426000Y-37301800D01*
X261426000Y-37301800D02*
X261426000Y-35133900D01*
%TO.N,Net-(D85-Pad1)*%
X323605000Y-33730700D02*
X323605000Y-29100900D01*
X323605000Y-29100900D02*
X317066900Y-22562800D01*
X317066900Y-22562800D02*
X314510000Y-22562800D01*
X314510000Y-22562800D02*
X312312700Y-24760100D01*
X312312700Y-24760100D02*
X312312700Y-30768100D01*
X312312700Y-30768100D02*
X302166800Y-40914000D01*
X302166800Y-40914000D02*
X295286400Y-40914000D01*
X295286400Y-40914000D02*
X294931200Y-41269200D01*
X323605000Y-35306000D02*
X323605000Y-33730700D01*
X217985200Y-47451800D02*
X224090800Y-41346200D01*
%TO.N,Net-(D86-Pad1)*%
X58270600Y-47182000D02*
X45072800Y-33984200D01*
X45072800Y-33984200D02*
X45072800Y-24507500D01*
X45072800Y-24507500D02*
X51876000Y-17704300D01*
X51876000Y-16129000D02*
X51876000Y-17704300D01*
%TO.N,Net-(D87-Pad1)*%
X354829400Y-83391300D02*
X358555600Y-79665100D01*
X358555600Y-79665100D02*
X358555600Y-59409100D01*
X358555600Y-59409100D02*
X358610100Y-59409100D01*
X358610100Y-59409100D02*
X359005900Y-59013300D01*
X359005900Y-59013300D02*
X359005900Y-58640000D01*
X359005900Y-58640000D02*
X358874100Y-58508200D01*
X358874100Y-58508200D02*
X361578000Y-55804300D01*
X361578000Y-54229000D02*
X361578000Y-55804300D01*
%TO.N,Net-(D88-Pad1)*%
X361578000Y-92329000D02*
X361578000Y-94375400D01*
X361578000Y-94375400D02*
X352595700Y-103357700D01*
X352595700Y-103357700D02*
X347085100Y-103357700D01*
X347085100Y-103357700D02*
X346904800Y-103177400D01*
%TO.N,Net-(D89-Pad1)*%
X76188000Y-45770000D02*
X72196700Y-41778700D01*
X72196700Y-41778700D02*
X72196700Y-36927600D01*
X72196700Y-36927600D02*
X72529200Y-36595100D01*
X72529200Y-36595100D02*
X72529200Y-27155000D01*
X72529200Y-27155000D02*
X70926000Y-25551800D01*
X70926000Y-25551800D02*
X70926000Y-16129000D01*
%TO.N,Net-(D90-Pad1)*%
X32826000Y-16129000D02*
X32826000Y-19485500D01*
X32826000Y-19485500D02*
X34429200Y-21088700D01*
X34429200Y-21088700D02*
X34429200Y-36595100D01*
X34429200Y-36595100D02*
X34096600Y-36927700D01*
X34096600Y-36927700D02*
X34096600Y-43102600D01*
X34096600Y-43102600D02*
X37984000Y-46990000D01*
%TO.N,Net-(D91-Pad1)*%
X361578000Y-35306000D02*
X361578000Y-38662500D01*
X361578000Y-38662500D02*
X362127100Y-39211600D01*
X362127100Y-39211600D02*
X361995300Y-39343400D01*
X361995300Y-39343400D02*
X361995300Y-39716600D01*
X361995300Y-39716600D02*
X362730900Y-40452200D01*
X362730900Y-40452200D02*
X362730900Y-40452300D01*
X362730900Y-40452300D02*
X363126700Y-40848100D01*
X363126700Y-40848100D02*
X363181200Y-40848100D01*
X363181200Y-40848100D02*
X363181200Y-55690200D01*
X363181200Y-55690200D02*
X359486800Y-59384600D01*
X359486800Y-59384600D02*
X359486800Y-80490200D01*
X359486800Y-80490200D02*
X357729600Y-82247400D01*
X357729600Y-82247400D02*
X357729600Y-87187000D01*
X357729600Y-87187000D02*
X358118500Y-87575900D01*
X358118500Y-87575900D02*
X358118500Y-96808900D01*
X358118500Y-96808900D02*
X352322500Y-102604900D01*
%TO.N,Net-(D92-Pad1)*%
X359977700Y-111506000D02*
X359977700Y-110616300D01*
X359977700Y-110616300D02*
X358393400Y-109032000D01*
X361578000Y-111506000D02*
X359977700Y-111506000D01*
%TO.N,Net-(D93-Pad1)*%
X342655000Y-109930700D02*
X343103100Y-109482600D01*
X343103100Y-109482600D02*
X347454400Y-109482600D01*
X347454400Y-109482600D02*
X363200300Y-93736700D01*
X363200300Y-93736700D02*
X363200300Y-77017200D01*
X363200300Y-77017200D02*
X362823700Y-76640600D01*
X362823700Y-76640600D02*
X362823700Y-75065800D01*
X362823700Y-75065800D02*
X363181200Y-74708300D01*
X363181200Y-74708300D02*
X363181200Y-59399800D01*
X363181200Y-59399800D02*
X367208300Y-55372700D01*
X367208300Y-55372700D02*
X367208300Y-51269500D01*
X367208300Y-51269500D02*
X364454000Y-48515200D01*
X342655000Y-111506000D02*
X342655000Y-109930700D01*
%TO.N,Net-(D94-Pad1)*%
X235532100Y-57825400D02*
X237399600Y-59692900D01*
X237399600Y-59692900D02*
X241464500Y-59692900D01*
X323605000Y-111506000D02*
X322004700Y-111506000D01*
X322004700Y-111506000D02*
X298934700Y-88436000D01*
X298934700Y-88436000D02*
X298934700Y-75140700D01*
X298934700Y-75140700D02*
X295711100Y-71917100D01*
X295711100Y-71917100D02*
X295711100Y-62148100D01*
X295711100Y-62148100D02*
X297355500Y-60503700D01*
%TO.N,Net-(D104-Pad4)*%
X205443500Y-39264400D02*
X209609600Y-43430500D01*
X209609600Y-43430500D02*
X209609600Y-54551200D01*
X209609600Y-54551200D02*
X219391500Y-64333100D01*
X219391500Y-64333100D02*
X219391500Y-68858000D01*
X219391500Y-68858000D02*
X216772600Y-71476900D01*
X216772600Y-71476900D02*
X216772600Y-76367200D01*
X216772600Y-76367200D02*
X230630400Y-90225000D01*
X230630400Y-90225000D02*
X233270700Y-90225000D01*
X233270700Y-90225000D02*
X233270700Y-90225100D01*
X233270700Y-90225100D02*
X235046500Y-92000900D01*
X235046500Y-92000900D02*
X235504600Y-92000900D01*
X235504600Y-92000900D02*
X237573800Y-94070100D01*
X237573800Y-94070100D02*
X237573800Y-98417100D01*
X237573800Y-98417100D02*
X248586700Y-109430000D01*
X114760400Y-23639600D02*
X121077300Y-29956500D01*
X121077300Y-29956500D02*
X141122500Y-29956500D01*
X141122500Y-29956500D02*
X141305300Y-29773700D01*
X141305300Y-29773700D02*
X142095500Y-29773700D01*
X142095500Y-29773700D02*
X143548200Y-31226400D01*
X143548200Y-31226400D02*
X143548200Y-35979300D01*
X143548200Y-35979300D02*
X143349800Y-36177700D01*
%TO.N,Net-(D170-Pad2)*%
X334037400Y-41333000D02*
X333895500Y-41191100D01*
X333895500Y-41191100D02*
X333895500Y-37292600D01*
X333895500Y-37292600D02*
X327855700Y-31252800D01*
X327855700Y-31252800D02*
X327855700Y-30660800D01*
X327855700Y-30660800D02*
X327263100Y-30068200D01*
X327263100Y-30068200D02*
X326819100Y-30068200D01*
X326819100Y-30068200D02*
X325481100Y-28730200D01*
X325481100Y-28730200D02*
X325481100Y-28110700D01*
X325481100Y-28110700D02*
X324792600Y-27422200D01*
X324792600Y-27422200D02*
X324662000Y-27422200D01*
X324662000Y-27422200D02*
X318863200Y-21623400D01*
X318863200Y-21623400D02*
X318863200Y-19509300D01*
X318863200Y-19509300D02*
X315700900Y-16347000D01*
X315700900Y-16347000D02*
X306230000Y-16347000D01*
X306230000Y-16347000D02*
X302608200Y-19968800D01*
X302608200Y-19968800D02*
X302608200Y-20286700D01*
%TO.N,Net-(D177-Pad2)*%
X233172300Y-99637400D02*
X235701700Y-102166800D01*
X235701700Y-102166800D02*
X237027800Y-102166800D01*
%TO.N,RESET*%
X319278000Y-90074200D02*
X319645300Y-90074200D01*
X319645300Y-90074200D02*
X320920700Y-88798800D01*
X320920700Y-88798800D02*
X320920700Y-63406200D01*
X320920700Y-63406200D02*
X317730700Y-60216200D01*
X317730700Y-60216200D02*
X317730700Y-36475700D01*
X317730700Y-36475700D02*
X317021300Y-35766300D01*
X317021300Y-35766300D02*
X317021300Y-34773100D01*
X317021300Y-34773100D02*
X317328900Y-34465500D01*
X319278000Y-92424800D02*
X319645300Y-92424800D01*
X319645300Y-92424800D02*
X320472000Y-93251500D01*
X320472000Y-93251500D02*
X320472000Y-104372700D01*
X320472000Y-104372700D02*
X318667000Y-106177700D01*
X319278000Y-91249500D02*
X319278000Y-90074200D01*
X319278000Y-91837100D02*
X319278000Y-91249500D01*
X319278000Y-91837100D02*
X319278000Y-92424800D01*
%TO.N,LED_OUT*%
X164939000Y-120696200D02*
X200638300Y-120696200D01*
X200638300Y-120696200D02*
X222927000Y-98407500D01*
X222927000Y-98407500D02*
X222927000Y-97934000D01*
%TD*%
M02*
