%TF.GenerationSoftware,KiCad,Pcbnew,(5.1.10)-1*%
%TF.CreationDate,2022-01-02T11:55:34-08:00*%
%TF.ProjectId,chgray-keyboard,63686772-6179-42d6-9b65-79626f617264,Yeet2*%
%TF.SameCoordinates,Original*%
%TF.FileFunction,Copper,L2,Bot*%
%TF.FilePolarity,Positive*%
%FSLAX46Y46*%
G04 Gerber Fmt 4.6, Leading zero omitted, Abs format (unit mm)*
G04 Created by KiCad (PCBNEW (5.1.10)-1) date 2022-01-02 11:55:34*
%MOMM*%
%LPD*%
G01*
G04 APERTURE LIST*
%TA.AperFunction,ViaPad*%
%ADD10C,0.800000*%
%TD*%
%TA.AperFunction,Conductor*%
%ADD11C,0.250000*%
%TD*%
G04 APERTURE END LIST*
D10*
%TO.N,*%
X322351400Y-23088600D03*
X322351400Y-26289000D03*
X315468000Y-59791600D03*
X316153800Y-64262000D03*
X316331600Y-69113400D03*
X316204600Y-71348600D03*
X315493400Y-50850800D03*
%TD*%
D11*
%TO.N,*%
X317017400Y-15036800D02*
X317017400Y-23088600D01*
X317017400Y-23088600D02*
X322351400Y-23088600D01*
X322351400Y-26289000D02*
X322351400Y-26289000D01*
X317017400Y-26289000D02*
X316941200Y-26365200D01*
X316941200Y-26365200D02*
X316941200Y-32639000D01*
X316941200Y-32639000D02*
X317881000Y-33578800D01*
X317881000Y-33578800D02*
X321716400Y-33578800D01*
X321716400Y-33578800D02*
X322580000Y-32715200D01*
X322580000Y-32715200D02*
X322580000Y-31064200D01*
X322580000Y-31064200D02*
X321157600Y-29641800D01*
X322351400Y-23088600D02*
X322351400Y-23088600D01*
X322351400Y-26289000D02*
X317017400Y-26289000D01*
X317881000Y-33578800D02*
X317881000Y-33578800D01*
X316890400Y-49453800D02*
X315493400Y-50850800D01*
X316890400Y-32791400D02*
X316890400Y-49453800D01*
X315468000Y-63576200D02*
X316153800Y-64262000D01*
X315468000Y-59791600D02*
X315468000Y-63576200D01*
X316331600Y-71221600D02*
X316204600Y-71348600D01*
X316331600Y-69113400D02*
X316331600Y-71221600D01*
%TD*%
M02*
