  0
SECTION
  2
HEADER
  9
$ANGBASE
  50
0.0
  9
$ANGDIR
  70
1
  9
$MEASUREMENT
  70
1
  0
ENDSEC
  0
SECTION
  2
TABLES
  0
TABLE
  2
LTYPE
  70
4
  0
LTYPE
  5
40F
  2
CONTINUOUS
  70
0
  3
Solid line
  72
65
  73
0
  40
0.0
  0
LTYPE
  5
410
  2
DASHDOT
 70
0
  3
Dash Dot ____ _ ____ _
 72
65
 73
4
 40
2.0
 49
1.25
 49
-0.25
 49
0.25
 49
-0.25
  0
LTYPE
  5
411
  2
DASHED
 70
0
  3
Dashed __ __ __ __ __
 72
65
 73
2
 40
0.75
 49
0.5
 49
-0.25
  0
LTYPE
  5
43B
  2
DOTTED
 70
0
  3
Dotted .  .  .  .
 72
65
 73
2
 40
0.2
 49
0.0
 49
-0.2
  0
ENDTAB
  0
TABLE
  2
STYLE
  70
4
  0
STYLE
  2
KICAD
  70
0
  40
0
  41
1
  42
1
  50
0
  71
0
  3
isocp.shx
  0
STYLE
  2
KICADB
  70
0
  40
0
  41
1
  42
1
  50
0
  71
0
  3
isocp.shx
  0
STYLE
  2
KICADI
  70
0
  40
0
  41
1
  42
1
  50
15
  71
0
  3
isocp.shx
  0
STYLE
  2
KICADBI
  70
0
  40
0
  41
1
  42
1
  50
15
  71
0
  3
isocp.shx
  0
ENDTAB
  0
TABLE
  2
LAYER
  70
1
  0
LAYER
  2
BLACK
  70
0
  62
7
  6
CONTINUOUS
  0
ENDTAB
  0
ENDSEC
  0
SECTION
  2
ENTITIES
0
LINE
8
BLACK
6
CONTINUOUS
10
155.894
20
-112.756
11
153.344
21
-112.756
0
LINE
8
BLACK
6
CONTINUOUS
10
153.344
20
-112.756
11
153.344
21
-110.256
0
LINE
8
BLACK
6
CONTINUOUS
10
153.344
20
-110.256
11
155.894
21
-110.256
0
LINE
8
BLACK
6
CONTINUOUS
10
155.894
20
-110.256
11
155.894
21
-112.756
0
LINE
8
BLACK
6
CONTINUOUS
10
362.853
20
-112.756
11
360.303
21
-112.756
0
LINE
8
BLACK
6
CONTINUOUS
10
360.303
20
-112.756
11
360.303
21
-110.256
0
LINE
8
BLACK
6
CONTINUOUS
10
360.303
20
-110.256
11
362.853
21
-110.256
0
LINE
8
BLACK
6
CONTINUOUS
10
362.853
20
-110.256
11
362.853
21
-112.756
0
LINE
8
BLACK
6
CONTINUOUS
10
343.93
20
-112.756
11
341.38
21
-112.756
0
LINE
8
BLACK
6
CONTINUOUS
10
341.38
20
-112.756
11
341.38
21
-110.256
0
LINE
8
BLACK
6
CONTINUOUS
10
341.38
20
-110.256
11
343.93
21
-110.256
0
LINE
8
BLACK
6
CONTINUOUS
10
343.93
20
-110.256
11
343.93
21
-112.756
0
LINE
8
BLACK
6
CONTINUOUS
10
324.88
20
-112.756
11
322.33
21
-112.756
0
LINE
8
BLACK
6
CONTINUOUS
10
322.33
20
-112.756
11
322.33
21
-110.256
0
LINE
8
BLACK
6
CONTINUOUS
10
322.33
20
-110.256
11
324.88
21
-110.256
0
LINE
8
BLACK
6
CONTINUOUS
10
324.88
20
-110.256
11
324.88
21
-112.756
0
LINE
8
BLACK
6
CONTINUOUS
10
298.455
20
-112.746
11
295.905
21
-112.746
0
LINE
8
BLACK
6
CONTINUOUS
10
295.905
20
-112.746
11
295.905
21
-110.246
0
LINE
8
BLACK
6
CONTINUOUS
10
295.905
20
-110.246
11
298.455
21
-110.246
0
LINE
8
BLACK
6
CONTINUOUS
10
298.455
20
-110.246
11
298.455
21
-112.746
0
LINE
8
BLACK
6
CONTINUOUS
10
84.403
20
-112.746
11
81.853
21
-112.746
0
LINE
8
BLACK
6
CONTINUOUS
10
81.853
20
-112.746
11
81.853
21
-110.246
0
LINE
8
BLACK
6
CONTINUOUS
10
81.853
20
-110.246
11
84.403
21
-110.246
0
LINE
8
BLACK
6
CONTINUOUS
10
84.403
20
-110.246
11
84.403
21
-112.746
0
LINE
8
BLACK
6
CONTINUOUS
10
60.527
20
-112.746
11
57.977
21
-112.746
0
LINE
8
BLACK
6
CONTINUOUS
10
57.977
20
-112.746
11
57.977
21
-110.246
0
LINE
8
BLACK
6
CONTINUOUS
10
57.977
20
-110.246
11
60.527
21
-110.246
0
LINE
8
BLACK
6
CONTINUOUS
10
60.527
20
-110.246
11
60.527
21
-112.746
0
LINE
8
BLACK
6
CONTINUOUS
10
36.6097
20
-112.746
11
34.0597
21
-112.746
0
LINE
8
BLACK
6
CONTINUOUS
10
34.0597
20
-112.746
11
34.0597
21
-110.246
0
LINE
8
BLACK
6
CONTINUOUS
10
34.0597
20
-110.246
11
36.6097
21
-110.246
0
LINE
8
BLACK
6
CONTINUOUS
10
36.6097
20
-110.246
11
36.6097
21
-112.746
0
LINE
8
BLACK
6
CONTINUOUS
10
274.649
20
-112.746
11
272.099
21
-112.746
0
LINE
8
BLACK
6
CONTINUOUS
10
272.099
20
-112.746
11
272.099
21
-110.246
0
LINE
8
BLACK
6
CONTINUOUS
10
272.099
20
-110.246
11
274.649
21
-110.246
0
LINE
8
BLACK
6
CONTINUOUS
10
274.649
20
-110.246
11
274.649
21
-112.746
0
LINE
8
BLACK
6
CONTINUOUS
10
250.773
20
-112.746
11
248.223
21
-112.746
0
LINE
8
BLACK
6
CONTINUOUS
10
248.223
20
-112.746
11
248.223
21
-110.246
0
LINE
8
BLACK
6
CONTINUOUS
10
248.223
20
-110.246
11
250.773
21
-110.246
0
LINE
8
BLACK
6
CONTINUOUS
10
250.773
20
-110.246
11
250.773
21
-112.746
0
LINE
8
BLACK
6
CONTINUOUS
10
226.897
20
-112.746
11
224.347
21
-112.746
0
LINE
8
BLACK
6
CONTINUOUS
10
224.347
20
-112.746
11
224.347
21
-110.246
0
LINE
8
BLACK
6
CONTINUOUS
10
224.347
20
-110.246
11
226.897
21
-110.246
0
LINE
8
BLACK
6
CONTINUOUS
10
226.897
20
-110.246
11
226.897
21
-112.746
0
LINE
8
BLACK
6
CONTINUOUS
10
338.73
20
-110.216
11
336.18
21
-110.216
0
LINE
8
BLACK
6
CONTINUOUS
10
336.18
20
-110.216
11
336.18
21
-107.716
0
LINE
8
BLACK
6
CONTINUOUS
10
336.18
20
-107.716
11
338.73
21
-107.716
0
LINE
8
BLACK
6
CONTINUOUS
10
338.73
20
-107.716
11
338.73
21
-110.216
0
LINE
8
BLACK
6
CONTINUOUS
10
357.78
20
-110.216
11
355.23
21
-110.216
0
LINE
8
BLACK
6
CONTINUOUS
10
355.23
20
-110.216
11
355.23
21
-107.716
0
LINE
8
BLACK
6
CONTINUOUS
10
355.23
20
-107.716
11
357.78
21
-107.716
0
LINE
8
BLACK
6
CONTINUOUS
10
357.78
20
-107.716
11
357.78
21
-110.216
0
LINE
8
BLACK
6
CONTINUOUS
10
376.703
20
-110.216
11
374.153
21
-110.216
0
LINE
8
BLACK
6
CONTINUOUS
10
374.153
20
-110.216
11
374.153
21
-107.716
0
LINE
8
BLACK
6
CONTINUOUS
10
374.153
20
-107.716
11
376.703
21
-107.716
0
LINE
8
BLACK
6
CONTINUOUS
10
376.703
20
-107.716
11
376.703
21
-110.216
0
LINE
8
BLACK
6
CONTINUOUS
10
169.744
20
-110.216
11
167.194
21
-110.216
0
LINE
8
BLACK
6
CONTINUOUS
10
167.194
20
-110.216
11
167.194
21
-107.716
0
LINE
8
BLACK
6
CONTINUOUS
10
167.194
20
-107.716
11
169.744
21
-107.716
0
LINE
8
BLACK
6
CONTINUOUS
10
169.744
20
-107.716
11
169.744
21
-110.216
0
LINE
8
BLACK
6
CONTINUOUS
10
288.499
20
-110.206
11
285.949
21
-110.206
0
LINE
8
BLACK
6
CONTINUOUS
10
285.949
20
-110.206
11
285.949
21
-107.706
0
LINE
8
BLACK
6
CONTINUOUS
10
285.949
20
-107.706
11
288.499
21
-107.706
0
LINE
8
BLACK
6
CONTINUOUS
10
288.499
20
-107.706
11
288.499
21
-110.206
0
LINE
8
BLACK
6
CONTINUOUS
10
50.4597
20
-110.206
11
47.9097
21
-110.206
0
LINE
8
BLACK
6
CONTINUOUS
10
47.9097
20
-110.206
11
47.9097
21
-107.706
0
LINE
8
BLACK
6
CONTINUOUS
10
47.9097
20
-107.706
11
50.4597
21
-107.706
0
LINE
8
BLACK
6
CONTINUOUS
10
50.4597
20
-107.706
11
50.4597
21
-110.206
0
LINE
8
BLACK
6
CONTINUOUS
10
74.377
20
-110.206
11
71.827
21
-110.206
0
LINE
8
BLACK
6
CONTINUOUS
10
71.827
20
-110.206
11
71.827
21
-107.706
0
LINE
8
BLACK
6
CONTINUOUS
10
71.827
20
-107.706
11
74.377
21
-107.706
0
LINE
8
BLACK
6
CONTINUOUS
10
74.377
20
-107.706
11
74.377
21
-110.206
0
LINE
8
BLACK
6
CONTINUOUS
10
98.253
20
-110.206
11
95.703
21
-110.206
0
LINE
8
BLACK
6
CONTINUOUS
10
95.703
20
-110.206
11
95.703
21
-107.706
0
LINE
8
BLACK
6
CONTINUOUS
10
95.703
20
-107.706
11
98.253
21
-107.706
0
LINE
8
BLACK
6
CONTINUOUS
10
98.253
20
-107.706
11
98.253
21
-110.206
0
LINE
8
BLACK
6
CONTINUOUS
10
312.305
20
-110.206
11
309.755
21
-110.206
0
LINE
8
BLACK
6
CONTINUOUS
10
309.755
20
-110.206
11
309.755
21
-107.706
0
LINE
8
BLACK
6
CONTINUOUS
10
309.755
20
-107.706
11
312.305
21
-107.706
0
LINE
8
BLACK
6
CONTINUOUS
10
312.305
20
-107.706
11
312.305
21
-110.206
0
LINE
8
BLACK
6
CONTINUOUS
10
240.747
20
-110.206
11
238.197
21
-110.206
0
LINE
8
BLACK
6
CONTINUOUS
10
238.197
20
-110.206
11
238.197
21
-107.706
0
LINE
8
BLACK
6
CONTINUOUS
10
238.197
20
-107.706
11
240.747
21
-107.706
0
LINE
8
BLACK
6
CONTINUOUS
10
240.747
20
-107.706
11
240.747
21
-110.206
0
LINE
8
BLACK
6
CONTINUOUS
10
264.623
20
-110.206
11
262.073
21
-110.206
0
LINE
8
BLACK
6
CONTINUOUS
10
262.073
20
-110.206
11
262.073
21
-107.706
0
LINE
8
BLACK
6
CONTINUOUS
10
262.073
20
-107.706
11
264.623
21
-107.706
0
LINE
8
BLACK
6
CONTINUOUS
10
264.623
20
-107.706
11
264.623
21
-110.206
0
LINE
8
BLACK
6
CONTINUOUS
10
284.047
20
-93.696
11
281.497
21
-93.696
0
LINE
8
BLACK
6
CONTINUOUS
10
281.497
20
-93.696
11
281.497
21
-91.196
0
LINE
8
BLACK
6
CONTINUOUS
10
281.497
20
-91.196
11
284.047
21
-91.196
0
LINE
8
BLACK
6
CONTINUOUS
10
284.047
20
-91.196
11
284.047
21
-93.696
0
LINE
8
BLACK
6
CONTINUOUS
10
190.565
20
-93.579
11
188.015
21
-93.579
0
LINE
8
BLACK
6
CONTINUOUS
10
188.015
20
-93.579
11
188.015
21
-91.079
0
LINE
8
BLACK
6
CONTINUOUS
10
188.015
20
-91.079
11
190.565
21
-91.079
0
LINE
8
BLACK
6
CONTINUOUS
10
190.565
20
-91.079
11
190.565
21
-93.579
0
LINE
8
BLACK
6
CONTINUOUS
10
228.792
20
-93.579
11
226.242
21
-93.579
0
LINE
8
BLACK
6
CONTINUOUS
10
226.242
20
-93.579
11
226.242
21
-91.079
0
LINE
8
BLACK
6
CONTINUOUS
10
226.242
20
-91.079
11
228.792
21
-91.079
0
LINE
8
BLACK
6
CONTINUOUS
10
228.792
20
-91.079
11
228.792
21
-93.579
0
LINE
8
BLACK
6
CONTINUOUS
10
171.515
20
-93.579
11
168.965
21
-93.579
0
LINE
8
BLACK
6
CONTINUOUS
10
168.965
20
-93.579
11
168.965
21
-91.079
0
LINE
8
BLACK
6
CONTINUOUS
10
168.965
20
-91.079
11
171.515
21
-91.079
0
LINE
8
BLACK
6
CONTINUOUS
10
171.515
20
-91.079
11
171.515
21
-93.579
0
LINE
8
BLACK
6
CONTINUOUS
10
324.88
20
-93.579
11
322.33
21
-93.579
0
LINE
8
BLACK
6
CONTINUOUS
10
322.33
20
-93.579
11
322.33
21
-91.079
0
LINE
8
BLACK
6
CONTINUOUS
10
322.33
20
-91.079
11
324.88
21
-91.079
0
LINE
8
BLACK
6
CONTINUOUS
10
324.88
20
-91.079
11
324.88
21
-93.579
0
LINE
8
BLACK
6
CONTINUOUS
10
362.853
20
-93.579
11
360.303
21
-93.579
0
LINE
8
BLACK
6
CONTINUOUS
10
360.303
20
-93.579
11
360.303
21
-91.079
0
LINE
8
BLACK
6
CONTINUOUS
10
360.303
20
-91.079
11
362.853
21
-91.079
0
LINE
8
BLACK
6
CONTINUOUS
10
362.853
20
-91.079
11
362.853
21
-93.579
0
LINE
8
BLACK
6
CONTINUOUS
10
77.027
20
-93.579
11
74.477
21
-93.579
0
LINE
8
BLACK
6
CONTINUOUS
10
74.477
20
-93.579
11
74.477
21
-91.079
0
LINE
8
BLACK
6
CONTINUOUS
10
74.477
20
-91.079
11
77.027
21
-91.079
0
LINE
8
BLACK
6
CONTINUOUS
10
77.027
20
-91.079
11
77.027
21
-93.579
0
LINE
8
BLACK
6
CONTINUOUS
10
209.742
20
-93.579
11
207.192
21
-93.579
0
LINE
8
BLACK
6
CONTINUOUS
10
207.192
20
-93.579
11
207.192
21
-91.079
0
LINE
8
BLACK
6
CONTINUOUS
10
207.192
20
-91.079
11
209.742
21
-91.079
0
LINE
8
BLACK
6
CONTINUOUS
10
209.742
20
-91.079
11
209.742
21
-93.579
0
LINE
8
BLACK
6
CONTINUOUS
10
247.969
20
-93.579
11
245.419
21
-93.579
0
LINE
8
BLACK
6
CONTINUOUS
10
245.419
20
-93.579
11
245.419
21
-91.079
0
LINE
8
BLACK
6
CONTINUOUS
10
245.419
20
-91.079
11
247.969
21
-91.079
0
LINE
8
BLACK
6
CONTINUOUS
10
247.969
20
-91.079
11
247.969
21
-93.579
0
LINE
8
BLACK
6
CONTINUOUS
10
152.592
20
-93.579
11
150.042
21
-93.579
0
LINE
8
BLACK
6
CONTINUOUS
10
150.042
20
-93.579
11
150.042
21
-91.079
0
LINE
8
BLACK
6
CONTINUOUS
10
150.042
20
-91.079
11
152.592
21
-91.079
0
LINE
8
BLACK
6
CONTINUOUS
10
152.592
20
-91.079
11
152.592
21
-93.579
0
LINE
8
BLACK
6
CONTINUOUS
10
95.823
20
-93.579
11
93.273
21
-93.579
0
LINE
8
BLACK
6
CONTINUOUS
10
93.273
20
-93.579
11
93.273
21
-91.079
0
LINE
8
BLACK
6
CONTINUOUS
10
93.273
20
-91.079
11
95.823
21
-91.079
0
LINE
8
BLACK
6
CONTINUOUS
10
95.823
20
-91.079
11
95.823
21
-93.579
0
LINE
8
BLACK
6
CONTINUOUS
10
343.93
20
-93.579
11
341.38
21
-93.579
0
LINE
8
BLACK
6
CONTINUOUS
10
341.38
20
-93.579
11
341.38
21
-91.079
0
LINE
8
BLACK
6
CONTINUOUS
10
341.38
20
-91.079
11
343.93
21
-91.079
0
LINE
8
BLACK
6
CONTINUOUS
10
343.93
20
-91.079
11
343.93
21
-93.579
0
LINE
8
BLACK
6
CONTINUOUS
10
114.746
20
-93.579
11
112.196
21
-93.579
0
LINE
8
BLACK
6
CONTINUOUS
10
112.196
20
-93.579
11
112.196
21
-91.079
0
LINE
8
BLACK
6
CONTINUOUS
10
112.196
20
-91.079
11
114.746
21
-91.079
0
LINE
8
BLACK
6
CONTINUOUS
10
114.746
20
-91.079
11
114.746
21
-93.579
0
LINE
8
BLACK
6
CONTINUOUS
10
133.669
20
-93.579
11
131.119
21
-93.579
0
LINE
8
BLACK
6
CONTINUOUS
10
131.119
20
-93.579
11
131.119
21
-91.079
0
LINE
8
BLACK
6
CONTINUOUS
10
131.119
20
-91.079
11
133.669
21
-91.079
0
LINE
8
BLACK
6
CONTINUOUS
10
133.669
20
-91.079
11
133.669
21
-93.579
0
LINE
8
BLACK
6
CONTINUOUS
10
46.1347
20
-93.569
11
43.5847
21
-93.569
0
LINE
8
BLACK
6
CONTINUOUS
10
43.5847
20
-93.569
11
43.5847
21
-91.069
0
LINE
8
BLACK
6
CONTINUOUS
10
43.5847
20
-91.069
11
46.1347
21
-91.069
0
LINE
8
BLACK
6
CONTINUOUS
10
46.1347
20
-91.069
11
46.1347
21
-93.569
0
LINE
8
BLACK
6
CONTINUOUS
10
297.897
20
-91.156
11
295.347
21
-91.156
0
LINE
8
BLACK
6
CONTINUOUS
10
295.347
20
-91.156
11
295.347
21
-88.656
0
LINE
8
BLACK
6
CONTINUOUS
10
295.347
20
-88.656
11
297.897
21
-88.656
0
LINE
8
BLACK
6
CONTINUOUS
10
297.897
20
-88.656
11
297.897
21
-91.156
0
LINE
8
BLACK
6
CONTINUOUS
10
166.442
20
-91.039
11
163.892
21
-91.039
0
LINE
8
BLACK
6
CONTINUOUS
10
163.892
20
-91.039
11
163.892
21
-88.539
0
LINE
8
BLACK
6
CONTINUOUS
10
163.892
20
-88.539
11
166.442
21
-88.539
0
LINE
8
BLACK
6
CONTINUOUS
10
166.442
20
-88.539
11
166.442
21
-91.039
0
LINE
8
BLACK
6
CONTINUOUS
10
109.673
20
-91.039
11
107.123
21
-91.039
0
LINE
8
BLACK
6
CONTINUOUS
10
107.123
20
-91.039
11
107.123
21
-88.539
0
LINE
8
BLACK
6
CONTINUOUS
10
107.123
20
-88.539
11
109.673
21
-88.539
0
LINE
8
BLACK
6
CONTINUOUS
10
109.673
20
-88.539
11
109.673
21
-91.039
0
LINE
8
BLACK
6
CONTINUOUS
10
261.819
20
-91.039
11
259.269
21
-91.039
0
LINE
8
BLACK
6
CONTINUOUS
10
259.269
20
-91.039
11
259.269
21
-88.539
0
LINE
8
BLACK
6
CONTINUOUS
10
259.269
20
-88.539
11
261.819
21
-88.539
0
LINE
8
BLACK
6
CONTINUOUS
10
261.819
20
-88.539
11
261.819
21
-91.039
0
LINE
8
BLACK
6
CONTINUOUS
10
90.877
20
-91.039
11
88.327
21
-91.039
0
LINE
8
BLACK
6
CONTINUOUS
10
88.327
20
-91.039
11
88.327
21
-88.539
0
LINE
8
BLACK
6
CONTINUOUS
10
88.327
20
-88.539
11
90.877
21
-88.539
0
LINE
8
BLACK
6
CONTINUOUS
10
90.877
20
-88.539
11
90.877
21
-91.039
0
LINE
8
BLACK
6
CONTINUOUS
10
357.78
20
-91.039
11
355.23
21
-91.039
0
LINE
8
BLACK
6
CONTINUOUS
10
355.23
20
-91.039
11
355.23
21
-88.539
0
LINE
8
BLACK
6
CONTINUOUS
10
355.23
20
-88.539
11
357.78
21
-88.539
0
LINE
8
BLACK
6
CONTINUOUS
10
357.78
20
-88.539
11
357.78
21
-91.039
0
LINE
8
BLACK
6
CONTINUOUS
10
338.73
20
-91.039
11
336.18
21
-91.039
0
LINE
8
BLACK
6
CONTINUOUS
10
336.18
20
-91.039
11
336.18
21
-88.539
0
LINE
8
BLACK
6
CONTINUOUS
10
336.18
20
-88.539
11
338.73
21
-88.539
0
LINE
8
BLACK
6
CONTINUOUS
10
338.73
20
-88.539
11
338.73
21
-91.039
0
LINE
8
BLACK
6
CONTINUOUS
10
128.596
20
-91.039
11
126.046
21
-91.039
0
LINE
8
BLACK
6
CONTINUOUS
10
126.046
20
-91.039
11
126.046
21
-88.539
0
LINE
8
BLACK
6
CONTINUOUS
10
126.046
20
-88.539
11
128.596
21
-88.539
0
LINE
8
BLACK
6
CONTINUOUS
10
128.596
20
-88.539
11
128.596
21
-91.039
0
LINE
8
BLACK
6
CONTINUOUS
10
147.519
20
-91.039
11
144.969
21
-91.039
0
LINE
8
BLACK
6
CONTINUOUS
10
144.969
20
-91.039
11
144.969
21
-88.539
0
LINE
8
BLACK
6
CONTINUOUS
10
144.969
20
-88.539
11
147.519
21
-88.539
0
LINE
8
BLACK
6
CONTINUOUS
10
147.519
20
-88.539
11
147.519
21
-91.039
0
LINE
8
BLACK
6
CONTINUOUS
10
242.642
20
-91.039
11
240.092
21
-91.039
0
LINE
8
BLACK
6
CONTINUOUS
10
240.092
20
-91.039
11
240.092
21
-88.539
0
LINE
8
BLACK
6
CONTINUOUS
10
240.092
20
-88.539
11
242.642
21
-88.539
0
LINE
8
BLACK
6
CONTINUOUS
10
242.642
20
-88.539
11
242.642
21
-91.039
0
LINE
8
BLACK
6
CONTINUOUS
10
185.365
20
-91.039
11
182.815
21
-91.039
0
LINE
8
BLACK
6
CONTINUOUS
10
182.815
20
-91.039
11
182.815
21
-88.539
0
LINE
8
BLACK
6
CONTINUOUS
10
182.815
20
-88.539
11
185.365
21
-88.539
0
LINE
8
BLACK
6
CONTINUOUS
10
185.365
20
-88.539
11
185.365
21
-91.039
0
LINE
8
BLACK
6
CONTINUOUS
10
223.592
20
-91.039
11
221.042
21
-91.039
0
LINE
8
BLACK
6
CONTINUOUS
10
221.042
20
-91.039
11
221.042
21
-88.539
0
LINE
8
BLACK
6
CONTINUOUS
10
221.042
20
-88.539
11
223.592
21
-88.539
0
LINE
8
BLACK
6
CONTINUOUS
10
223.592
20
-88.539
11
223.592
21
-91.039
0
LINE
8
BLACK
6
CONTINUOUS
10
204.415
20
-91.039
11
201.865
21
-91.039
0
LINE
8
BLACK
6
CONTINUOUS
10
201.865
20
-91.039
11
201.865
21
-88.539
0
LINE
8
BLACK
6
CONTINUOUS
10
201.865
20
-88.539
11
204.415
21
-88.539
0
LINE
8
BLACK
6
CONTINUOUS
10
204.415
20
-88.539
11
204.415
21
-91.039
0
LINE
8
BLACK
6
CONTINUOUS
10
376.703
20
-91.039
11
374.153
21
-91.039
0
LINE
8
BLACK
6
CONTINUOUS
10
374.153
20
-91.039
11
374.153
21
-88.539
0
LINE
8
BLACK
6
CONTINUOUS
10
374.153
20
-88.539
11
376.703
21
-88.539
0
LINE
8
BLACK
6
CONTINUOUS
10
376.703
20
-88.539
11
376.703
21
-91.039
0
LINE
8
BLACK
6
CONTINUOUS
10
59.9847
20
-91.029
11
57.4347
21
-91.029
0
LINE
8
BLACK
6
CONTINUOUS
10
57.4347
20
-91.029
11
57.4347
21
-88.529
0
LINE
8
BLACK
6
CONTINUOUS
10
57.4347
20
-88.529
11
59.9847
21
-88.529
0
LINE
8
BLACK
6
CONTINUOUS
10
59.9847
20
-88.529
11
59.9847
21
-91.029
0
LINE
8
BLACK
6
CONTINUOUS
10
257.748
20
-74.529
11
255.198
21
-74.529
0
LINE
8
BLACK
6
CONTINUOUS
10
255.198
20
-74.529
11
255.198
21
-72.029
0
LINE
8
BLACK
6
CONTINUOUS
10
255.198
20
-72.029
11
257.748
21
-72.029
0
LINE
8
BLACK
6
CONTINUOUS
10
257.748
20
-72.029
11
257.748
21
-74.529
0
LINE
8
BLACK
6
CONTINUOUS
10
124.652
20
-74.529
11
122.102
21
-74.529
0
LINE
8
BLACK
6
CONTINUOUS
10
122.102
20
-74.529
11
122.102
21
-72.029
0
LINE
8
BLACK
6
CONTINUOUS
10
122.102
20
-72.029
11
124.652
21
-72.029
0
LINE
8
BLACK
6
CONTINUOUS
10
124.652
20
-72.029
11
124.652
21
-74.529
0
LINE
8
BLACK
6
CONTINUOUS
10
362.853
20
-74.529
11
360.303
21
-74.529
0
LINE
8
BLACK
6
CONTINUOUS
10
360.303
20
-74.529
11
360.303
21
-72.029
0
LINE
8
BLACK
6
CONTINUOUS
10
360.303
20
-72.029
11
362.853
21
-72.029
0
LINE
8
BLACK
6
CONTINUOUS
10
362.853
20
-72.029
11
362.853
21
-74.529
0
LINE
8
BLACK
6
CONTINUOUS
10
105.602
20
-74.529
11
103.052
21
-74.529
0
LINE
8
BLACK
6
CONTINUOUS
10
103.052
20
-74.529
11
103.052
21
-72.029
0
LINE
8
BLACK
6
CONTINUOUS
10
103.052
20
-72.029
11
105.602
21
-72.029
0
LINE
8
BLACK
6
CONTINUOUS
10
105.602
20
-72.029
11
105.602
21
-74.529
0
LINE
8
BLACK
6
CONTINUOUS
10
162.498
20
-74.529
11
159.948
21
-74.529
0
LINE
8
BLACK
6
CONTINUOUS
10
159.948
20
-74.529
11
159.948
21
-72.029
0
LINE
8
BLACK
6
CONTINUOUS
10
159.948
20
-72.029
11
162.498
21
-72.029
0
LINE
8
BLACK
6
CONTINUOUS
10
162.498
20
-72.029
11
162.498
21
-74.529
0
LINE
8
BLACK
6
CONTINUOUS
10
324.88
20
-74.529
11
322.33
21
-74.529
0
LINE
8
BLACK
6
CONTINUOUS
10
322.33
20
-74.529
11
322.33
21
-72.029
0
LINE
8
BLACK
6
CONTINUOUS
10
322.33
20
-72.029
11
324.88
21
-72.029
0
LINE
8
BLACK
6
CONTINUOUS
10
324.88
20
-72.029
11
324.88
21
-74.529
0
LINE
8
BLACK
6
CONTINUOUS
10
343.93
20
-74.529
11
341.38
21
-74.529
0
LINE
8
BLACK
6
CONTINUOUS
10
341.38
20
-74.529
11
341.38
21
-72.029
0
LINE
8
BLACK
6
CONTINUOUS
10
341.38
20
-72.029
11
343.93
21
-72.029
0
LINE
8
BLACK
6
CONTINUOUS
10
343.93
20
-72.029
11
343.93
21
-74.529
0
LINE
8
BLACK
6
CONTINUOUS
10
86.552
20
-74.529
11
84.002
21
-74.529
0
LINE
8
BLACK
6
CONTINUOUS
10
84.002
20
-74.529
11
84.002
21
-72.029
0
LINE
8
BLACK
6
CONTINUOUS
10
84.002
20
-72.029
11
86.552
21
-72.029
0
LINE
8
BLACK
6
CONTINUOUS
10
86.552
20
-72.029
11
86.552
21
-74.529
0
LINE
8
BLACK
6
CONTINUOUS
10
219.648
20
-74.529
11
217.098
21
-74.529
0
LINE
8
BLACK
6
CONTINUOUS
10
217.098
20
-74.529
11
217.098
21
-72.029
0
LINE
8
BLACK
6
CONTINUOUS
10
217.098
20
-72.029
11
219.648
21
-72.029
0
LINE
8
BLACK
6
CONTINUOUS
10
219.648
20
-72.029
11
219.648
21
-74.529
0
LINE
8
BLACK
6
CONTINUOUS
10
67.502
20
-74.529
11
64.952
21
-74.529
0
LINE
8
BLACK
6
CONTINUOUS
10
64.952
20
-74.529
11
64.952
21
-72.029
0
LINE
8
BLACK
6
CONTINUOUS
10
64.952
20
-72.029
11
67.502
21
-72.029
0
LINE
8
BLACK
6
CONTINUOUS
10
67.502
20
-72.029
11
67.502
21
-74.529
0
LINE
8
BLACK
6
CONTINUOUS
10
181.548
20
-74.529
11
178.998
21
-74.529
0
LINE
8
BLACK
6
CONTINUOUS
10
178.998
20
-74.529
11
178.998
21
-72.029
0
LINE
8
BLACK
6
CONTINUOUS
10
178.998
20
-72.029
11
181.548
21
-72.029
0
LINE
8
BLACK
6
CONTINUOUS
10
181.548
20
-72.029
11
181.548
21
-74.529
0
LINE
8
BLACK
6
CONTINUOUS
10
143.448
20
-74.529
11
140.898
21
-74.529
0
LINE
8
BLACK
6
CONTINUOUS
10
140.898
20
-74.529
11
140.898
21
-72.029
0
LINE
8
BLACK
6
CONTINUOUS
10
140.898
20
-72.029
11
143.448
21
-72.029
0
LINE
8
BLACK
6
CONTINUOUS
10
143.448
20
-72.029
11
143.448
21
-74.529
0
LINE
8
BLACK
6
CONTINUOUS
10
200.598
20
-74.529
11
198.048
21
-74.529
0
LINE
8
BLACK
6
CONTINUOUS
10
198.048
20
-74.529
11
198.048
21
-72.029
0
LINE
8
BLACK
6
CONTINUOUS
10
198.048
20
-72.029
11
200.598
21
-72.029
0
LINE
8
BLACK
6
CONTINUOUS
10
200.598
20
-72.029
11
200.598
21
-74.529
0
LINE
8
BLACK
6
CONTINUOUS
10
238.698
20
-74.529
11
236.148
21
-74.529
0
LINE
8
BLACK
6
CONTINUOUS
10
236.148
20
-74.529
11
236.148
21
-72.029
0
LINE
8
BLACK
6
CONTINUOUS
10
236.148
20
-72.029
11
238.698
21
-72.029
0
LINE
8
BLACK
6
CONTINUOUS
10
238.698
20
-72.029
11
238.698
21
-74.529
0
LINE
8
BLACK
6
CONTINUOUS
10
288.935
20
-74.519
11
286.385
21
-74.519
0
LINE
8
BLACK
6
CONTINUOUS
10
286.385
20
-74.519
11
286.385
21
-72.019
0
LINE
8
BLACK
6
CONTINUOUS
10
286.385
20
-72.019
11
288.935
21
-72.019
0
LINE
8
BLACK
6
CONTINUOUS
10
288.935
20
-72.019
11
288.935
21
-74.519
0
LINE
8
BLACK
6
CONTINUOUS
10
41.3722
20
-74.519
11
38.8222
21
-74.519
0
LINE
8
BLACK
6
CONTINUOUS
10
38.8222
20
-74.519
11
38.8222
21
-72.019
0
LINE
8
BLACK
6
CONTINUOUS
10
38.8222
20
-72.019
11
41.3722
21
-72.019
0
LINE
8
BLACK
6
CONTINUOUS
10
41.3722
20
-72.019
11
41.3722
21
-74.519
0
LINE
8
BLACK
6
CONTINUOUS
10
81.352
20
-71.989
11
78.802
21
-71.989
0
LINE
8
BLACK
6
CONTINUOUS
10
78.802
20
-71.989
11
78.802
21
-69.489
0
LINE
8
BLACK
6
CONTINUOUS
10
78.802
20
-69.489
11
81.352
21
-69.489
0
LINE
8
BLACK
6
CONTINUOUS
10
81.352
20
-69.489
11
81.352
21
-71.989
0
LINE
8
BLACK
6
CONTINUOUS
10
138.502
20
-71.989
11
135.952
21
-71.989
0
LINE
8
BLACK
6
CONTINUOUS
10
135.952
20
-71.989
11
135.952
21
-69.489
0
LINE
8
BLACK
6
CONTINUOUS
10
135.952
20
-69.489
11
138.502
21
-69.489
0
LINE
8
BLACK
6
CONTINUOUS
10
138.502
20
-69.489
11
138.502
21
-71.989
0
LINE
8
BLACK
6
CONTINUOUS
10
214.448
20
-71.989
11
211.898
21
-71.989
0
LINE
8
BLACK
6
CONTINUOUS
10
211.898
20
-71.989
11
211.898
21
-69.489
0
LINE
8
BLACK
6
CONTINUOUS
10
211.898
20
-69.489
11
214.448
21
-69.489
0
LINE
8
BLACK
6
CONTINUOUS
10
214.448
20
-69.489
11
214.448
21
-71.989
0
LINE
8
BLACK
6
CONTINUOUS
10
376.703
20
-71.989
11
374.153
21
-71.989
0
LINE
8
BLACK
6
CONTINUOUS
10
374.153
20
-71.989
11
374.153
21
-69.489
0
LINE
8
BLACK
6
CONTINUOUS
10
374.153
20
-69.489
11
376.703
21
-69.489
0
LINE
8
BLACK
6
CONTINUOUS
10
376.703
20
-69.489
11
376.703
21
-71.989
0
LINE
8
BLACK
6
CONTINUOUS
10
271.598
20
-71.989
11
269.048
21
-71.989
0
LINE
8
BLACK
6
CONTINUOUS
10
269.048
20
-71.989
11
269.048
21
-69.489
0
LINE
8
BLACK
6
CONTINUOUS
10
269.048
20
-69.489
11
271.598
21
-69.489
0
LINE
8
BLACK
6
CONTINUOUS
10
271.598
20
-69.489
11
271.598
21
-71.989
0
LINE
8
BLACK
6
CONTINUOUS
10
119.452
20
-71.989
11
116.902
21
-71.989
0
LINE
8
BLACK
6
CONTINUOUS
10
116.902
20
-71.989
11
116.902
21
-69.489
0
LINE
8
BLACK
6
CONTINUOUS
10
116.902
20
-69.489
11
119.452
21
-69.489
0
LINE
8
BLACK
6
CONTINUOUS
10
119.452
20
-69.489
11
119.452
21
-71.989
0
LINE
8
BLACK
6
CONTINUOUS
10
176.348
20
-71.989
11
173.798
21
-71.989
0
LINE
8
BLACK
6
CONTINUOUS
10
173.798
20
-71.989
11
173.798
21
-69.489
0
LINE
8
BLACK
6
CONTINUOUS
10
173.798
20
-69.489
11
176.348
21
-69.489
0
LINE
8
BLACK
6
CONTINUOUS
10
176.348
20
-69.489
11
176.348
21
-71.989
0
LINE
8
BLACK
6
CONTINUOUS
10
357.78
20
-71.989
11
355.23
21
-71.989
0
LINE
8
BLACK
6
CONTINUOUS
10
355.23
20
-71.989
11
355.23
21
-69.489
0
LINE
8
BLACK
6
CONTINUOUS
10
355.23
20
-69.489
11
357.78
21
-69.489
0
LINE
8
BLACK
6
CONTINUOUS
10
357.78
20
-69.489
11
357.78
21
-71.989
0
LINE
8
BLACK
6
CONTINUOUS
10
338.73
20
-71.989
11
336.18
21
-71.989
0
LINE
8
BLACK
6
CONTINUOUS
10
336.18
20
-71.989
11
336.18
21
-69.489
0
LINE
8
BLACK
6
CONTINUOUS
10
336.18
20
-69.489
11
338.73
21
-69.489
0
LINE
8
BLACK
6
CONTINUOUS
10
338.73
20
-69.489
11
338.73
21
-71.989
0
LINE
8
BLACK
6
CONTINUOUS
10
252.548
20
-71.989
11
249.998
21
-71.989
0
LINE
8
BLACK
6
CONTINUOUS
10
249.998
20
-71.989
11
249.998
21
-69.489
0
LINE
8
BLACK
6
CONTINUOUS
10
249.998
20
-69.489
11
252.548
21
-69.489
0
LINE
8
BLACK
6
CONTINUOUS
10
252.548
20
-69.489
11
252.548
21
-71.989
0
LINE
8
BLACK
6
CONTINUOUS
10
233.498
20
-71.989
11
230.948
21
-71.989
0
LINE
8
BLACK
6
CONTINUOUS
10
230.948
20
-71.989
11
230.948
21
-69.489
0
LINE
8
BLACK
6
CONTINUOUS
10
230.948
20
-69.489
11
233.498
21
-69.489
0
LINE
8
BLACK
6
CONTINUOUS
10
233.498
20
-69.489
11
233.498
21
-71.989
0
LINE
8
BLACK
6
CONTINUOUS
10
100.402
20
-71.989
11
97.852
21
-71.989
0
LINE
8
BLACK
6
CONTINUOUS
10
97.852
20
-71.989
11
97.852
21
-69.489
0
LINE
8
BLACK
6
CONTINUOUS
10
97.852
20
-69.489
11
100.402
21
-69.489
0
LINE
8
BLACK
6
CONTINUOUS
10
100.402
20
-69.489
11
100.402
21
-71.989
0
LINE
8
BLACK
6
CONTINUOUS
10
195.398
20
-71.989
11
192.848
21
-71.989
0
LINE
8
BLACK
6
CONTINUOUS
10
192.848
20
-71.989
11
192.848
21
-69.489
0
LINE
8
BLACK
6
CONTINUOUS
10
192.848
20
-69.489
11
195.398
21
-69.489
0
LINE
8
BLACK
6
CONTINUOUS
10
195.398
20
-69.489
11
195.398
21
-71.989
0
LINE
8
BLACK
6
CONTINUOUS
10
157.298
20
-71.989
11
154.748
21
-71.989
0
LINE
8
BLACK
6
CONTINUOUS
10
154.748
20
-71.989
11
154.748
21
-69.489
0
LINE
8
BLACK
6
CONTINUOUS
10
154.748
20
-69.489
11
157.298
21
-69.489
0
LINE
8
BLACK
6
CONTINUOUS
10
157.298
20
-69.489
11
157.298
21
-71.989
0
LINE
8
BLACK
6
CONTINUOUS
10
302.785
20
-71.979
11
300.235
21
-71.979
0
LINE
8
BLACK
6
CONTINUOUS
10
300.235
20
-71.979
11
300.235
21
-69.479
0
LINE
8
BLACK
6
CONTINUOUS
10
300.235
20
-69.479
11
302.785
21
-69.479
0
LINE
8
BLACK
6
CONTINUOUS
10
302.785
20
-69.479
11
302.785
21
-71.979
0
LINE
8
BLACK
6
CONTINUOUS
10
55.2222
20
-71.979
11
52.6722
21
-71.979
0
LINE
8
BLACK
6
CONTINUOUS
10
52.6722
20
-71.979
11
52.6722
21
-69.479
0
LINE
8
BLACK
6
CONTINUOUS
10
52.6722
20
-69.479
11
55.2222
21
-69.479
0
LINE
8
BLACK
6
CONTINUOUS
10
55.2222
20
-69.479
11
55.2222
21
-71.979
0
LINE
8
BLACK
6
CONTINUOUS
10
38.9897
20
-55.4852
11
36.4397
21
-55.4852
0
LINE
8
BLACK
6
CONTINUOUS
10
36.4397
20
-55.4852
11
36.4397
21
-52.9852
0
LINE
8
BLACK
6
CONTINUOUS
10
36.4397
20
-52.9852
11
38.9897
21
-52.9852
0
LINE
8
BLACK
6
CONTINUOUS
10
38.9897
20
-52.9852
11
38.9897
21
-55.4852
0
LINE
8
BLACK
6
CONTINUOUS
10
362.853
20
-55.479
11
360.303
21
-55.479
0
LINE
8
BLACK
6
CONTINUOUS
10
360.303
20
-55.479
11
360.303
21
-52.979
0
LINE
8
BLACK
6
CONTINUOUS
10
360.303
20
-52.979
11
362.853
21
-52.979
0
LINE
8
BLACK
6
CONTINUOUS
10
362.853
20
-52.979
11
362.853
21
-55.479
0
LINE
8
BLACK
6
CONTINUOUS
10
343.93
20
-55.479
11
341.38
21
-55.479
0
LINE
8
BLACK
6
CONTINUOUS
10
341.38
20
-55.479
11
341.38
21
-52.979
0
LINE
8
BLACK
6
CONTINUOUS
10
341.38
20
-52.979
11
343.93
21
-52.979
0
LINE
8
BLACK
6
CONTINUOUS
10
343.93
20
-52.979
11
343.93
21
-55.479
0
LINE
8
BLACK
6
CONTINUOUS
10
324.88
20
-55.479
11
322.33
21
-55.479
0
LINE
8
BLACK
6
CONTINUOUS
10
322.33
20
-55.479
11
322.33
21
-52.979
0
LINE
8
BLACK
6
CONTINUOUS
10
322.33
20
-52.979
11
324.88
21
-52.979
0
LINE
8
BLACK
6
CONTINUOUS
10
324.88
20
-52.979
11
324.88
21
-55.479
0
LINE
8
BLACK
6
CONTINUOUS
10
138.495
20
-55.352
11
135.945
21
-55.352
0
LINE
8
BLACK
6
CONTINUOUS
10
135.945
20
-55.352
11
135.945
21
-52.852
0
LINE
8
BLACK
6
CONTINUOUS
10
135.945
20
-52.852
11
138.495
21
-52.852
0
LINE
8
BLACK
6
CONTINUOUS
10
138.495
20
-52.852
11
138.495
21
-55.352
0
LINE
8
BLACK
6
CONTINUOUS
10
271.337
20
-55.352
11
268.787
21
-55.352
0
LINE
8
BLACK
6
CONTINUOUS
10
268.787
20
-55.352
11
268.787
21
-52.852
0
LINE
8
BLACK
6
CONTINUOUS
10
268.787
20
-52.852
11
271.337
21
-52.852
0
LINE
8
BLACK
6
CONTINUOUS
10
271.337
20
-52.852
11
271.337
21
-55.352
0
LINE
8
BLACK
6
CONTINUOUS
10
157.418
20
-55.352
11
154.868
21
-55.352
0
LINE
8
BLACK
6
CONTINUOUS
10
154.868
20
-55.352
11
154.868
21
-52.852
0
LINE
8
BLACK
6
CONTINUOUS
10
154.868
20
-52.852
11
157.418
21
-52.852
0
LINE
8
BLACK
6
CONTINUOUS
10
157.418
20
-52.852
11
157.418
21
-55.352
0
LINE
8
BLACK
6
CONTINUOUS
10
176.341
20
-55.352
11
173.791
21
-55.352
0
LINE
8
BLACK
6
CONTINUOUS
10
173.791
20
-55.352
11
173.791
21
-52.852
0
LINE
8
BLACK
6
CONTINUOUS
10
173.791
20
-52.852
11
176.341
21
-52.852
0
LINE
8
BLACK
6
CONTINUOUS
10
176.341
20
-52.852
11
176.341
21
-55.352
0
LINE
8
BLACK
6
CONTINUOUS
10
214.187
20
-55.352
11
211.637
21
-55.352
0
LINE
8
BLACK
6
CONTINUOUS
10
211.637
20
-55.352
11
211.637
21
-52.852
0
LINE
8
BLACK
6
CONTINUOUS
10
211.637
20
-52.852
11
214.187
21
-52.852
0
LINE
8
BLACK
6
CONTINUOUS
10
214.187
20
-52.852
11
214.187
21
-55.352
0
LINE
8
BLACK
6
CONTINUOUS
10
195.264
20
-55.352
11
192.714
21
-55.352
0
LINE
8
BLACK
6
CONTINUOUS
10
192.714
20
-55.352
11
192.714
21
-52.852
0
LINE
8
BLACK
6
CONTINUOUS
10
192.714
20
-52.852
11
195.264
21
-52.852
0
LINE
8
BLACK
6
CONTINUOUS
10
195.264
20
-52.852
11
195.264
21
-55.352
0
LINE
8
BLACK
6
CONTINUOUS
10
252.16
20
-55.352
11
249.61
21
-55.352
0
LINE
8
BLACK
6
CONTINUOUS
10
249.61
20
-55.352
11
249.61
21
-52.852
0
LINE
8
BLACK
6
CONTINUOUS
10
249.61
20
-52.852
11
252.16
21
-52.852
0
LINE
8
BLACK
6
CONTINUOUS
10
252.16
20
-52.852
11
252.16
21
-55.352
0
LINE
8
BLACK
6
CONTINUOUS
10
62.803
20
-55.352
11
60.253
21
-55.352
0
LINE
8
BLACK
6
CONTINUOUS
10
60.253
20
-55.352
11
60.253
21
-52.852
0
LINE
8
BLACK
6
CONTINUOUS
10
60.253
20
-52.852
11
62.803
21
-52.852
0
LINE
8
BLACK
6
CONTINUOUS
10
62.803
20
-52.852
11
62.803
21
-55.352
0
LINE
8
BLACK
6
CONTINUOUS
10
119.572
20
-55.352
11
117.022
21
-55.352
0
LINE
8
BLACK
6
CONTINUOUS
10
117.022
20
-55.352
11
117.022
21
-52.852
0
LINE
8
BLACK
6
CONTINUOUS
10
117.022
20
-52.852
11
119.572
21
-52.852
0
LINE
8
BLACK
6
CONTINUOUS
10
119.572
20
-52.852
11
119.572
21
-55.352
0
LINE
8
BLACK
6
CONTINUOUS
10
81.726
20
-55.352
11
79.176
21
-55.352
0
LINE
8
BLACK
6
CONTINUOUS
10
79.176
20
-55.352
11
79.176
21
-52.852
0
LINE
8
BLACK
6
CONTINUOUS
10
79.176
20
-52.852
11
81.726
21
-52.852
0
LINE
8
BLACK
6
CONTINUOUS
10
81.726
20
-52.852
11
81.726
21
-55.352
0
LINE
8
BLACK
6
CONTINUOUS
10
100.649
20
-55.352
11
98.099
21
-55.352
0
LINE
8
BLACK
6
CONTINUOUS
10
98.099
20
-55.352
11
98.099
21
-52.852
0
LINE
8
BLACK
6
CONTINUOUS
10
98.099
20
-52.852
11
100.649
21
-52.852
0
LINE
8
BLACK
6
CONTINUOUS
10
100.649
20
-52.852
11
100.649
21
-55.352
0
LINE
8
BLACK
6
CONTINUOUS
10
233.11
20
-55.352
11
230.56
21
-55.352
0
LINE
8
BLACK
6
CONTINUOUS
10
230.56
20
-55.352
11
230.56
21
-52.852
0
LINE
8
BLACK
6
CONTINUOUS
10
230.56
20
-52.852
11
233.11
21
-52.852
0
LINE
8
BLACK
6
CONTINUOUS
10
233.11
20
-52.852
11
233.11
21
-55.352
0
LINE
8
BLACK
6
CONTINUOUS
10
296.08
20
-55.342
11
293.53
21
-55.342
0
LINE
8
BLACK
6
CONTINUOUS
10
293.53
20
-55.342
11
293.53
21
-52.842
0
LINE
8
BLACK
6
CONTINUOUS
10
293.53
20
-52.842
11
296.08
21
-52.842
0
LINE
8
BLACK
6
CONTINUOUS
10
296.08
20
-52.842
11
296.08
21
-55.342
0
LINE
8
BLACK
6
CONTINUOUS
10
52.8397
20
-52.9452
11
50.2897
21
-52.9452
0
LINE
8
BLACK
6
CONTINUOUS
10
50.2897
20
-52.9452
11
50.2897
21
-50.4452
0
LINE
8
BLACK
6
CONTINUOUS
10
50.2897
20
-50.4452
11
52.8397
21
-50.4452
0
LINE
8
BLACK
6
CONTINUOUS
10
52.8397
20
-50.4452
11
52.8397
21
-52.9452
0
LINE
8
BLACK
6
CONTINUOUS
10
357.78
20
-52.939
11
355.23
21
-52.939
0
LINE
8
BLACK
6
CONTINUOUS
10
355.23
20
-52.939
11
355.23
21
-50.439
0
LINE
8
BLACK
6
CONTINUOUS
10
355.23
20
-50.439
11
357.78
21
-50.439
0
LINE
8
BLACK
6
CONTINUOUS
10
357.78
20
-50.439
11
357.78
21
-52.939
0
LINE
8
BLACK
6
CONTINUOUS
10
338.73
20
-52.939
11
336.18
21
-52.939
0
LINE
8
BLACK
6
CONTINUOUS
10
336.18
20
-52.939
11
336.18
21
-50.439
0
LINE
8
BLACK
6
CONTINUOUS
10
336.18
20
-50.439
11
338.73
21
-50.439
0
LINE
8
BLACK
6
CONTINUOUS
10
338.73
20
-50.439
11
338.73
21
-52.939
0
LINE
8
BLACK
6
CONTINUOUS
10
376.703
20
-52.939
11
374.153
21
-52.939
0
LINE
8
BLACK
6
CONTINUOUS
10
374.153
20
-52.939
11
374.153
21
-50.439
0
LINE
8
BLACK
6
CONTINUOUS
10
374.153
20
-50.439
11
376.703
21
-50.439
0
LINE
8
BLACK
6
CONTINUOUS
10
376.703
20
-50.439
11
376.703
21
-52.939
0
LINE
8
BLACK
6
CONTINUOUS
10
285.187
20
-52.812
11
282.637
21
-52.812
0
LINE
8
BLACK
6
CONTINUOUS
10
282.637
20
-52.812
11
282.637
21
-50.312
0
LINE
8
BLACK
6
CONTINUOUS
10
282.637
20
-50.312
11
285.187
21
-50.312
0
LINE
8
BLACK
6
CONTINUOUS
10
285.187
20
-50.312
11
285.187
21
-52.812
0
LINE
8
BLACK
6
CONTINUOUS
10
133.422
20
-52.812
11
130.872
21
-52.812
0
LINE
8
BLACK
6
CONTINUOUS
10
130.872
20
-52.812
11
130.872
21
-50.312
0
LINE
8
BLACK
6
CONTINUOUS
10
130.872
20
-50.312
11
133.422
21
-50.312
0
LINE
8
BLACK
6
CONTINUOUS
10
133.422
20
-50.312
11
133.422
21
-52.812
0
LINE
8
BLACK
6
CONTINUOUS
10
76.653
20
-52.812
11
74.103
21
-52.812
0
LINE
8
BLACK
6
CONTINUOUS
10
74.103
20
-52.812
11
74.103
21
-50.312
0
LINE
8
BLACK
6
CONTINUOUS
10
74.103
20
-50.312
11
76.653
21
-50.312
0
LINE
8
BLACK
6
CONTINUOUS
10
76.653
20
-50.312
11
76.653
21
-52.812
0
LINE
8
BLACK
6
CONTINUOUS
10
190.191
20
-52.812
11
187.641
21
-52.812
0
LINE
8
BLACK
6
CONTINUOUS
10
187.641
20
-52.812
11
187.641
21
-50.312
0
LINE
8
BLACK
6
CONTINUOUS
10
187.641
20
-50.312
11
190.191
21
-50.312
0
LINE
8
BLACK
6
CONTINUOUS
10
190.191
20
-50.312
11
190.191
21
-52.812
0
LINE
8
BLACK
6
CONTINUOUS
10
209.114
20
-52.812
11
206.564
21
-52.812
0
LINE
8
BLACK
6
CONTINUOUS
10
206.564
20
-52.812
11
206.564
21
-50.312
0
LINE
8
BLACK
6
CONTINUOUS
10
206.564
20
-50.312
11
209.114
21
-50.312
0
LINE
8
BLACK
6
CONTINUOUS
10
209.114
20
-50.312
11
209.114
21
-52.812
0
LINE
8
BLACK
6
CONTINUOUS
10
171.268
20
-52.812
11
168.718
21
-52.812
0
LINE
8
BLACK
6
CONTINUOUS
10
168.718
20
-52.812
11
168.718
21
-50.312
0
LINE
8
BLACK
6
CONTINUOUS
10
168.718
20
-50.312
11
171.268
21
-50.312
0
LINE
8
BLACK
6
CONTINUOUS
10
171.268
20
-50.312
11
171.268
21
-52.812
0
LINE
8
BLACK
6
CONTINUOUS
10
228.037
20
-52.812
11
225.487
21
-52.812
0
LINE
8
BLACK
6
CONTINUOUS
10
225.487
20
-52.812
11
225.487
21
-50.312
0
LINE
8
BLACK
6
CONTINUOUS
10
225.487
20
-50.312
11
228.037
21
-50.312
0
LINE
8
BLACK
6
CONTINUOUS
10
228.037
20
-50.312
11
228.037
21
-52.812
0
LINE
8
BLACK
6
CONTINUOUS
10
152.345
20
-52.812
11
149.795
21
-52.812
0
LINE
8
BLACK
6
CONTINUOUS
10
149.795
20
-52.812
11
149.795
21
-50.312
0
LINE
8
BLACK
6
CONTINUOUS
10
149.795
20
-50.312
11
152.345
21
-50.312
0
LINE
8
BLACK
6
CONTINUOUS
10
152.345
20
-50.312
11
152.345
21
-52.812
0
LINE
8
BLACK
6
CONTINUOUS
10
95.576
20
-52.812
11
93.026
21
-52.812
0
LINE
8
BLACK
6
CONTINUOUS
10
93.026
20
-52.812
11
93.026
21
-50.312
0
LINE
8
BLACK
6
CONTINUOUS
10
93.026
20
-50.312
11
95.576
21
-50.312
0
LINE
8
BLACK
6
CONTINUOUS
10
95.576
20
-50.312
11
95.576
21
-52.812
0
LINE
8
BLACK
6
CONTINUOUS
10
114.499
20
-52.812
11
111.949
21
-52.812
0
LINE
8
BLACK
6
CONTINUOUS
10
111.949
20
-52.812
11
111.949
21
-50.312
0
LINE
8
BLACK
6
CONTINUOUS
10
111.949
20
-50.312
11
114.499
21
-50.312
0
LINE
8
BLACK
6
CONTINUOUS
10
114.499
20
-50.312
11
114.499
21
-52.812
0
LINE
8
BLACK
6
CONTINUOUS
10
246.96
20
-52.812
11
244.41
21
-52.812
0
LINE
8
BLACK
6
CONTINUOUS
10
244.41
20
-52.812
11
244.41
21
-50.312
0
LINE
8
BLACK
6
CONTINUOUS
10
244.41
20
-50.312
11
246.96
21
-50.312
0
LINE
8
BLACK
6
CONTINUOUS
10
246.96
20
-50.312
11
246.96
21
-52.812
0
LINE
8
BLACK
6
CONTINUOUS
10
266.01
20
-52.812
11
263.46
21
-52.812
0
LINE
8
BLACK
6
CONTINUOUS
10
263.46
20
-52.812
11
263.46
21
-50.312
0
LINE
8
BLACK
6
CONTINUOUS
10
263.46
20
-50.312
11
266.01
21
-50.312
0
LINE
8
BLACK
6
CONTINUOUS
10
266.01
20
-50.312
11
266.01
21
-52.812
0
LINE
8
BLACK
6
CONTINUOUS
10
309.93
20
-52.802
11
307.38
21
-52.802
0
LINE
8
BLACK
6
CONTINUOUS
10
307.38
20
-52.802
11
307.38
21
-50.302
0
LINE
8
BLACK
6
CONTINUOUS
10
307.38
20
-50.302
11
309.93
21
-50.302
0
LINE
8
BLACK
6
CONTINUOUS
10
309.93
20
-50.302
11
309.93
21
-52.802
0
LINE
8
BLACK
6
CONTINUOUS
10
362.853
20
-36.556
11
360.303
21
-36.556
0
LINE
8
BLACK
6
CONTINUOUS
10
360.303
20
-36.556
11
360.303
21
-34.056
0
LINE
8
BLACK
6
CONTINUOUS
10
360.303
20
-34.056
11
362.853
21
-34.056
0
LINE
8
BLACK
6
CONTINUOUS
10
362.853
20
-34.056
11
362.853
21
-36.556
0
LINE
8
BLACK
6
CONTINUOUS
10
324.88
20
-36.556
11
322.33
21
-36.556
0
LINE
8
BLACK
6
CONTINUOUS
10
322.33
20
-36.556
11
322.33
21
-34.056
0
LINE
8
BLACK
6
CONTINUOUS
10
322.33
20
-34.056
11
324.88
21
-34.056
0
LINE
8
BLACK
6
CONTINUOUS
10
324.88
20
-34.056
11
324.88
21
-36.556
0
LINE
8
BLACK
6
CONTINUOUS
10
343.93
20
-36.556
11
341.38
21
-36.556
0
LINE
8
BLACK
6
CONTINUOUS
10
341.38
20
-36.556
11
341.38
21
-34.056
0
LINE
8
BLACK
6
CONTINUOUS
10
341.38
20
-34.056
11
343.93
21
-34.056
0
LINE
8
BLACK
6
CONTINUOUS
10
343.93
20
-34.056
11
343.93
21
-36.556
0
LINE
8
BLACK
6
CONTINUOUS
10
291.318
20
-36.546
11
288.768
21
-36.546
0
LINE
8
BLACK
6
CONTINUOUS
10
288.768
20
-36.546
11
288.768
21
-34.046
0
LINE
8
BLACK
6
CONTINUOUS
10
288.768
20
-34.046
11
291.318
21
-34.046
0
LINE
8
BLACK
6
CONTINUOUS
10
291.318
20
-34.046
11
291.318
21
-36.546
0
LINE
8
BLACK
6
CONTINUOUS
10
224.601
20
-36.3839
11
222.051
21
-36.3839
0
LINE
8
BLACK
6
CONTINUOUS
10
222.051
20
-36.3839
11
222.051
21
-33.8839
0
LINE
8
BLACK
6
CONTINUOUS
10
222.051
20
-33.8839
11
224.601
21
-33.8839
0
LINE
8
BLACK
6
CONTINUOUS
10
224.601
20
-33.8839
11
224.601
21
-36.3839
0
LINE
8
BLACK
6
CONTINUOUS
10
34.101
20
-36.3839
11
31.551
21
-36.3839
0
LINE
8
BLACK
6
CONTINUOUS
10
31.551
20
-36.3839
11
31.551
21
-33.8839
0
LINE
8
BLACK
6
CONTINUOUS
10
31.551
20
-33.8839
11
34.101
21
-33.8839
0
LINE
8
BLACK
6
CONTINUOUS
10
34.101
20
-33.8839
11
34.101
21
-36.3839
0
LINE
8
BLACK
6
CONTINUOUS
10
205.551
20
-36.3839
11
203.001
21
-36.3839
0
LINE
8
BLACK
6
CONTINUOUS
10
203.001
20
-36.3839
11
203.001
21
-33.8839
0
LINE
8
BLACK
6
CONTINUOUS
10
203.001
20
-33.8839
11
205.551
21
-33.8839
0
LINE
8
BLACK
6
CONTINUOUS
10
205.551
20
-33.8839
11
205.551
21
-36.3839
0
LINE
8
BLACK
6
CONTINUOUS
10
186.501
20
-36.3839
11
183.951
21
-36.3839
0
LINE
8
BLACK
6
CONTINUOUS
10
183.951
20
-36.3839
11
183.951
21
-33.8839
0
LINE
8
BLACK
6
CONTINUOUS
10
183.951
20
-33.8839
11
186.501
21
-33.8839
0
LINE
8
BLACK
6
CONTINUOUS
10
186.501
20
-33.8839
11
186.501
21
-36.3839
0
LINE
8
BLACK
6
CONTINUOUS
10
262.701
20
-36.3839
11
260.151
21
-36.3839
0
LINE
8
BLACK
6
CONTINUOUS
10
260.151
20
-36.3839
11
260.151
21
-33.8839
0
LINE
8
BLACK
6
CONTINUOUS
10
260.151
20
-33.8839
11
262.701
21
-33.8839
0
LINE
8
BLACK
6
CONTINUOUS
10
262.701
20
-33.8839
11
262.701
21
-36.3839
0
LINE
8
BLACK
6
CONTINUOUS
10
129.351
20
-36.3839
11
126.801
21
-36.3839
0
LINE
8
BLACK
6
CONTINUOUS
10
126.801
20
-36.3839
11
126.801
21
-33.8839
0
LINE
8
BLACK
6
CONTINUOUS
10
126.801
20
-33.8839
11
129.351
21
-33.8839
0
LINE
8
BLACK
6
CONTINUOUS
10
129.351
20
-33.8839
11
129.351
21
-36.3839
0
LINE
8
BLACK
6
CONTINUOUS
10
91.251
20
-36.3839
11
88.701
21
-36.3839
0
LINE
8
BLACK
6
CONTINUOUS
10
88.701
20
-36.3839
11
88.701
21
-33.8839
0
LINE
8
BLACK
6
CONTINUOUS
10
88.701
20
-33.8839
11
91.251
21
-33.8839
0
LINE
8
BLACK
6
CONTINUOUS
10
91.251
20
-33.8839
11
91.251
21
-36.3839
0
LINE
8
BLACK
6
CONTINUOUS
10
243.651
20
-36.3839
11
241.101
21
-36.3839
0
LINE
8
BLACK
6
CONTINUOUS
10
241.101
20
-36.3839
11
241.101
21
-33.8839
0
LINE
8
BLACK
6
CONTINUOUS
10
241.101
20
-33.8839
11
243.651
21
-33.8839
0
LINE
8
BLACK
6
CONTINUOUS
10
243.651
20
-33.8839
11
243.651
21
-36.3839
0
LINE
8
BLACK
6
CONTINUOUS
10
53.151
20
-36.3839
11
50.601
21
-36.3839
0
LINE
8
BLACK
6
CONTINUOUS
10
50.601
20
-36.3839
11
50.601
21
-33.8839
0
LINE
8
BLACK
6
CONTINUOUS
10
50.601
20
-33.8839
11
53.151
21
-33.8839
0
LINE
8
BLACK
6
CONTINUOUS
10
53.151
20
-33.8839
11
53.151
21
-36.3839
0
LINE
8
BLACK
6
CONTINUOUS
10
72.201
20
-36.3839
11
69.651
21
-36.3839
0
LINE
8
BLACK
6
CONTINUOUS
10
69.651
20
-36.3839
11
69.651
21
-33.8839
0
LINE
8
BLACK
6
CONTINUOUS
10
69.651
20
-33.8839
11
72.201
21
-33.8839
0
LINE
8
BLACK
6
CONTINUOUS
10
72.201
20
-33.8839
11
72.201
21
-36.3839
0
LINE
8
BLACK
6
CONTINUOUS
10
148.401
20
-36.3839
11
145.851
21
-36.3839
0
LINE
8
BLACK
6
CONTINUOUS
10
145.851
20
-36.3839
11
145.851
21
-33.8839
0
LINE
8
BLACK
6
CONTINUOUS
10
145.851
20
-33.8839
11
148.401
21
-33.8839
0
LINE
8
BLACK
6
CONTINUOUS
10
148.401
20
-33.8839
11
148.401
21
-36.3839
0
LINE
8
BLACK
6
CONTINUOUS
10
110.301
20
-36.3839
11
107.751
21
-36.3839
0
LINE
8
BLACK
6
CONTINUOUS
10
107.751
20
-36.3839
11
107.751
21
-33.8839
0
LINE
8
BLACK
6
CONTINUOUS
10
107.751
20
-33.8839
11
110.301
21
-33.8839
0
LINE
8
BLACK
6
CONTINUOUS
10
110.301
20
-33.8839
11
110.301
21
-36.3839
0
LINE
8
BLACK
6
CONTINUOUS
10
167.451
20
-36.3839
11
164.901
21
-36.3839
0
LINE
8
BLACK
6
CONTINUOUS
10
164.901
20
-36.3839
11
164.901
21
-33.8839
0
LINE
8
BLACK
6
CONTINUOUS
10
164.901
20
-33.8839
11
167.451
21
-33.8839
0
LINE
8
BLACK
6
CONTINUOUS
10
167.451
20
-33.8839
11
167.451
21
-36.3839
0
LINE
8
BLACK
6
CONTINUOUS
10
338.73
20
-34.016
11
336.18
21
-34.016
0
LINE
8
BLACK
6
CONTINUOUS
10
336.18
20
-34.016
11
336.18
21
-31.516
0
LINE
8
BLACK
6
CONTINUOUS
10
336.18
20
-31.516
11
338.73
21
-31.516
0
LINE
8
BLACK
6
CONTINUOUS
10
338.73
20
-31.516
11
338.73
21
-34.016
0
LINE
8
BLACK
6
CONTINUOUS
10
376.703
20
-34.016
11
374.153
21
-34.016
0
LINE
8
BLACK
6
CONTINUOUS
10
374.153
20
-34.016
11
374.153
21
-31.516
0
LINE
8
BLACK
6
CONTINUOUS
10
374.153
20
-31.516
11
376.703
21
-31.516
0
LINE
8
BLACK
6
CONTINUOUS
10
376.703
20
-31.516
11
376.703
21
-34.016
0
LINE
8
BLACK
6
CONTINUOUS
10
357.78
20
-34.016
11
355.23
21
-34.016
0
LINE
8
BLACK
6
CONTINUOUS
10
355.23
20
-34.016
11
355.23
21
-31.516
0
LINE
8
BLACK
6
CONTINUOUS
10
355.23
20
-31.516
11
357.78
21
-31.516
0
LINE
8
BLACK
6
CONTINUOUS
10
357.78
20
-31.516
11
357.78
21
-34.016
0
LINE
8
BLACK
6
CONTINUOUS
10
305.168
20
-34.006
11
302.618
21
-34.006
0
LINE
8
BLACK
6
CONTINUOUS
10
302.618
20
-34.006
11
302.618
21
-31.506
0
LINE
8
BLACK
6
CONTINUOUS
10
302.618
20
-31.506
11
305.168
21
-31.506
0
LINE
8
BLACK
6
CONTINUOUS
10
305.168
20
-31.506
11
305.168
21
-34.006
0
LINE
8
BLACK
6
CONTINUOUS
10
105.101
20
-33.8439
11
102.551
21
-33.8439
0
LINE
8
BLACK
6
CONTINUOUS
10
102.551
20
-33.8439
11
102.551
21
-31.3439
0
LINE
8
BLACK
6
CONTINUOUS
10
102.551
20
-31.3439
11
105.101
21
-31.3439
0
LINE
8
BLACK
6
CONTINUOUS
10
105.101
20
-31.3439
11
105.101
21
-33.8439
0
LINE
8
BLACK
6
CONTINUOUS
10
86.051
20
-33.8439
11
83.501
21
-33.8439
0
LINE
8
BLACK
6
CONTINUOUS
10
83.501
20
-33.8439
11
83.501
21
-31.3439
0
LINE
8
BLACK
6
CONTINUOUS
10
83.501
20
-31.3439
11
86.051
21
-31.3439
0
LINE
8
BLACK
6
CONTINUOUS
10
86.051
20
-31.3439
11
86.051
21
-33.8439
0
LINE
8
BLACK
6
CONTINUOUS
10
47.951
20
-33.8439
11
45.401
21
-33.8439
0
LINE
8
BLACK
6
CONTINUOUS
10
45.401
20
-33.8439
11
45.401
21
-31.3439
0
LINE
8
BLACK
6
CONTINUOUS
10
45.401
20
-31.3439
11
47.951
21
-31.3439
0
LINE
8
BLACK
6
CONTINUOUS
10
47.951
20
-31.3439
11
47.951
21
-33.8439
0
LINE
8
BLACK
6
CONTINUOUS
10
238.451
20
-33.8439
11
235.901
21
-33.8439
0
LINE
8
BLACK
6
CONTINUOUS
10
235.901
20
-33.8439
11
235.901
21
-31.3439
0
LINE
8
BLACK
6
CONTINUOUS
10
235.901
20
-31.3439
11
238.451
21
-31.3439
0
LINE
8
BLACK
6
CONTINUOUS
10
238.451
20
-31.3439
11
238.451
21
-33.8439
0
LINE
8
BLACK
6
CONTINUOUS
10
124.151
20
-33.8439
11
121.601
21
-33.8439
0
LINE
8
BLACK
6
CONTINUOUS
10
121.601
20
-33.8439
11
121.601
21
-31.3439
0
LINE
8
BLACK
6
CONTINUOUS
10
121.601
20
-31.3439
11
124.151
21
-31.3439
0
LINE
8
BLACK
6
CONTINUOUS
10
124.151
20
-31.3439
11
124.151
21
-33.8439
0
LINE
8
BLACK
6
CONTINUOUS
10
143.201
20
-33.8439
11
140.651
21
-33.8439
0
LINE
8
BLACK
6
CONTINUOUS
10
140.651
20
-33.8439
11
140.651
21
-31.3439
0
LINE
8
BLACK
6
CONTINUOUS
10
140.651
20
-31.3439
11
143.201
21
-31.3439
0
LINE
8
BLACK
6
CONTINUOUS
10
143.201
20
-31.3439
11
143.201
21
-33.8439
0
LINE
8
BLACK
6
CONTINUOUS
10
162.251
20
-33.8439
11
159.701
21
-33.8439
0
LINE
8
BLACK
6
CONTINUOUS
10
159.701
20
-33.8439
11
159.701
21
-31.3439
0
LINE
8
BLACK
6
CONTINUOUS
10
159.701
20
-31.3439
11
162.251
21
-31.3439
0
LINE
8
BLACK
6
CONTINUOUS
10
162.251
20
-31.3439
11
162.251
21
-33.8439
0
LINE
8
BLACK
6
CONTINUOUS
10
219.401
20
-33.8439
11
216.851
21
-33.8439
0
LINE
8
BLACK
6
CONTINUOUS
10
216.851
20
-33.8439
11
216.851
21
-31.3439
0
LINE
8
BLACK
6
CONTINUOUS
10
216.851
20
-31.3439
11
219.401
21
-31.3439
0
LINE
8
BLACK
6
CONTINUOUS
10
219.401
20
-31.3439
11
219.401
21
-33.8439
0
LINE
8
BLACK
6
CONTINUOUS
10
181.301
20
-33.8439
11
178.751
21
-33.8439
0
LINE
8
BLACK
6
CONTINUOUS
10
178.751
20
-33.8439
11
178.751
21
-31.3439
0
LINE
8
BLACK
6
CONTINUOUS
10
178.751
20
-31.3439
11
181.301
21
-31.3439
0
LINE
8
BLACK
6
CONTINUOUS
10
181.301
20
-31.3439
11
181.301
21
-33.8439
0
LINE
8
BLACK
6
CONTINUOUS
10
200.351
20
-33.8439
11
197.801
21
-33.8439
0
LINE
8
BLACK
6
CONTINUOUS
10
197.801
20
-33.8439
11
197.801
21
-31.3439
0
LINE
8
BLACK
6
CONTINUOUS
10
197.801
20
-31.3439
11
200.351
21
-31.3439
0
LINE
8
BLACK
6
CONTINUOUS
10
200.351
20
-31.3439
11
200.351
21
-33.8439
0
LINE
8
BLACK
6
CONTINUOUS
10
67.001
20
-33.8439
11
64.451
21
-33.8439
0
LINE
8
BLACK
6
CONTINUOUS
10
64.451
20
-33.8439
11
64.451
21
-31.3439
0
LINE
8
BLACK
6
CONTINUOUS
10
64.451
20
-31.3439
11
67.001
21
-31.3439
0
LINE
8
BLACK
6
CONTINUOUS
10
67.001
20
-31.3439
11
67.001
21
-33.8439
0
LINE
8
BLACK
6
CONTINUOUS
10
276.551
20
-33.8439
11
274.001
21
-33.8439
0
LINE
8
BLACK
6
CONTINUOUS
10
274.001
20
-33.8439
11
274.001
21
-31.3439
0
LINE
8
BLACK
6
CONTINUOUS
10
274.001
20
-31.3439
11
276.551
21
-31.3439
0
LINE
8
BLACK
6
CONTINUOUS
10
276.551
20
-31.3439
11
276.551
21
-33.8439
0
LINE
8
BLACK
6
CONTINUOUS
10
257.501
20
-33.8439
11
254.951
21
-33.8439
0
LINE
8
BLACK
6
CONTINUOUS
10
254.951
20
-33.8439
11
254.951
21
-31.3439
0
LINE
8
BLACK
6
CONTINUOUS
10
254.951
20
-31.3439
11
257.501
21
-31.3439
0
LINE
8
BLACK
6
CONTINUOUS
10
257.501
20
-31.3439
11
257.501
21
-33.8439
0
LINE
8
BLACK
6
CONTINUOUS
10
53.151
20
-17.379
11
50.601
21
-17.379
0
LINE
8
BLACK
6
CONTINUOUS
10
50.601
20
-17.379
11
50.601
21
-14.879
0
LINE
8
BLACK
6
CONTINUOUS
10
50.601
20
-14.879
11
53.151
21
-14.879
0
LINE
8
BLACK
6
CONTINUOUS
10
53.151
20
-14.879
11
53.151
21
-17.379
0
LINE
8
BLACK
6
CONTINUOUS
10
34.101
20
-17.379
11
31.551
21
-17.379
0
LINE
8
BLACK
6
CONTINUOUS
10
31.551
20
-17.379
11
31.551
21
-14.879
0
LINE
8
BLACK
6
CONTINUOUS
10
31.551
20
-14.879
11
34.101
21
-14.879
0
LINE
8
BLACK
6
CONTINUOUS
10
34.101
20
-14.879
11
34.101
21
-17.379
0
LINE
8
BLACK
6
CONTINUOUS
10
324.88
20
-17.379
11
322.33
21
-17.379
0
LINE
8
BLACK
6
CONTINUOUS
10
322.33
20
-17.379
11
322.33
21
-14.879
0
LINE
8
BLACK
6
CONTINUOUS
10
322.33
20
-14.879
11
324.88
21
-14.879
0
LINE
8
BLACK
6
CONTINUOUS
10
324.88
20
-14.879
11
324.88
21
-17.379
0
LINE
8
BLACK
6
CONTINUOUS
10
167.451
20
-17.379
11
164.901
21
-17.379
0
LINE
8
BLACK
6
CONTINUOUS
10
164.901
20
-17.379
11
164.901
21
-14.879
0
LINE
8
BLACK
6
CONTINUOUS
10
164.901
20
-14.879
11
167.451
21
-14.879
0
LINE
8
BLACK
6
CONTINUOUS
10
167.451
20
-14.879
11
167.451
21
-17.379
0
LINE
8
BLACK
6
CONTINUOUS
10
148.401
20
-17.379
11
145.851
21
-17.379
0
LINE
8
BLACK
6
CONTINUOUS
10
145.851
20
-17.379
11
145.851
21
-14.879
0
LINE
8
BLACK
6
CONTINUOUS
10
145.851
20
-14.879
11
148.401
21
-14.879
0
LINE
8
BLACK
6
CONTINUOUS
10
148.401
20
-14.879
11
148.401
21
-17.379
0
LINE
8
BLACK
6
CONTINUOUS
10
205.551
20
-17.379
11
203.001
21
-17.379
0
LINE
8
BLACK
6
CONTINUOUS
10
203.001
20
-17.379
11
203.001
21
-14.879
0
LINE
8
BLACK
6
CONTINUOUS
10
203.001
20
-14.879
11
205.551
21
-14.879
0
LINE
8
BLACK
6
CONTINUOUS
10
205.551
20
-14.879
11
205.551
21
-17.379
0
LINE
8
BLACK
6
CONTINUOUS
10
72.201
20
-17.379
11
69.651
21
-17.379
0
LINE
8
BLACK
6
CONTINUOUS
10
69.651
20
-17.379
11
69.651
21
-14.879
0
LINE
8
BLACK
6
CONTINUOUS
10
69.651
20
-14.879
11
72.201
21
-14.879
0
LINE
8
BLACK
6
CONTINUOUS
10
72.201
20
-14.879
11
72.201
21
-17.379
0
LINE
8
BLACK
6
CONTINUOUS
10
129.351
20
-17.379
11
126.801
21
-17.379
0
LINE
8
BLACK
6
CONTINUOUS
10
126.801
20
-17.379
11
126.801
21
-14.879
0
LINE
8
BLACK
6
CONTINUOUS
10
126.801
20
-14.879
11
129.351
21
-14.879
0
LINE
8
BLACK
6
CONTINUOUS
10
129.351
20
-14.879
11
129.351
21
-17.379
0
LINE
8
BLACK
6
CONTINUOUS
10
186.501
20
-17.379
11
183.951
21
-17.379
0
LINE
8
BLACK
6
CONTINUOUS
10
183.951
20
-17.379
11
183.951
21
-14.879
0
LINE
8
BLACK
6
CONTINUOUS
10
183.951
20
-14.879
11
186.501
21
-14.879
0
LINE
8
BLACK
6
CONTINUOUS
10
186.501
20
-14.879
11
186.501
21
-17.379
0
LINE
8
BLACK
6
CONTINUOUS
10
243.651
20
-17.379
11
241.101
21
-17.379
0
LINE
8
BLACK
6
CONTINUOUS
10
241.101
20
-17.379
11
241.101
21
-14.879
0
LINE
8
BLACK
6
CONTINUOUS
10
241.101
20
-14.879
11
243.651
21
-14.879
0
LINE
8
BLACK
6
CONTINUOUS
10
243.651
20
-14.879
11
243.651
21
-17.379
0
LINE
8
BLACK
6
CONTINUOUS
10
343.93
20
-17.379
11
341.38
21
-17.379
0
LINE
8
BLACK
6
CONTINUOUS
10
341.38
20
-17.379
11
341.38
21
-14.879
0
LINE
8
BLACK
6
CONTINUOUS
10
341.38
20
-14.879
11
343.93
21
-14.879
0
LINE
8
BLACK
6
CONTINUOUS
10
343.93
20
-14.879
11
343.93
21
-17.379
0
LINE
8
BLACK
6
CONTINUOUS
10
224.601
20
-17.379
11
222.051
21
-17.379
0
LINE
8
BLACK
6
CONTINUOUS
10
222.051
20
-17.379
11
222.051
21
-14.879
0
LINE
8
BLACK
6
CONTINUOUS
10
222.051
20
-14.879
11
224.601
21
-14.879
0
LINE
8
BLACK
6
CONTINUOUS
10
224.601
20
-14.879
11
224.601
21
-17.379
0
LINE
8
BLACK
6
CONTINUOUS
10
300.949
20
-17.379
11
298.399
21
-17.379
0
LINE
8
BLACK
6
CONTINUOUS
10
298.399
20
-17.379
11
298.399
21
-14.879
0
LINE
8
BLACK
6
CONTINUOUS
10
298.399
20
-14.879
11
300.949
21
-14.879
0
LINE
8
BLACK
6
CONTINUOUS
10
300.949
20
-14.879
11
300.949
21
-17.379
0
LINE
8
BLACK
6
CONTINUOUS
10
281.751
20
-17.379
11
279.201
21
-17.379
0
LINE
8
BLACK
6
CONTINUOUS
10
279.201
20
-17.379
11
279.201
21
-14.879
0
LINE
8
BLACK
6
CONTINUOUS
10
279.201
20
-14.879
11
281.751
21
-14.879
0
LINE
8
BLACK
6
CONTINUOUS
10
281.751
20
-14.879
11
281.751
21
-17.379
0
LINE
8
BLACK
6
CONTINUOUS
10
362.853
20
-17.379
11
360.303
21
-17.379
0
LINE
8
BLACK
6
CONTINUOUS
10
360.303
20
-17.379
11
360.303
21
-14.879
0
LINE
8
BLACK
6
CONTINUOUS
10
360.303
20
-14.879
11
362.853
21
-14.879
0
LINE
8
BLACK
6
CONTINUOUS
10
362.853
20
-14.879
11
362.853
21
-17.379
0
LINE
8
BLACK
6
CONTINUOUS
10
262.701
20
-17.379
11
260.151
21
-17.379
0
LINE
8
BLACK
6
CONTINUOUS
10
260.151
20
-17.379
11
260.151
21
-14.879
0
LINE
8
BLACK
6
CONTINUOUS
10
260.151
20
-14.879
11
262.701
21
-14.879
0
LINE
8
BLACK
6
CONTINUOUS
10
262.701
20
-14.879
11
262.701
21
-17.379
0
LINE
8
BLACK
6
CONTINUOUS
10
91.251
20
-17.379
11
88.701
21
-17.379
0
LINE
8
BLACK
6
CONTINUOUS
10
88.701
20
-17.379
11
88.701
21
-14.879
0
LINE
8
BLACK
6
CONTINUOUS
10
88.701
20
-14.879
11
91.251
21
-14.879
0
LINE
8
BLACK
6
CONTINUOUS
10
91.251
20
-14.879
11
91.251
21
-17.379
0
LINE
8
BLACK
6
CONTINUOUS
10
110.301
20
-17.379
11
107.751
21
-17.379
0
LINE
8
BLACK
6
CONTINUOUS
10
107.751
20
-17.379
11
107.751
21
-14.879
0
LINE
8
BLACK
6
CONTINUOUS
10
107.751
20
-14.879
11
110.301
21
-14.879
0
LINE
8
BLACK
6
CONTINUOUS
10
110.301
20
-14.879
11
110.301
21
-17.379
0
LINE
8
BLACK
6
CONTINUOUS
10
105.101
20
-14.839
11
102.551
21
-14.839
0
LINE
8
BLACK
6
CONTINUOUS
10
102.551
20
-14.839
11
102.551
21
-12.339
0
LINE
8
BLACK
6
CONTINUOUS
10
102.551
20
-12.339
11
105.101
21
-12.339
0
LINE
8
BLACK
6
CONTINUOUS
10
105.101
20
-12.339
11
105.101
21
-14.839
0
LINE
8
BLACK
6
CONTINUOUS
10
200.351
20
-14.839
11
197.801
21
-14.839
0
LINE
8
BLACK
6
CONTINUOUS
10
197.801
20
-14.839
11
197.801
21
-12.339
0
LINE
8
BLACK
6
CONTINUOUS
10
197.801
20
-12.339
11
200.351
21
-12.339
0
LINE
8
BLACK
6
CONTINUOUS
10
200.351
20
-12.339
11
200.351
21
-14.839
0
LINE
8
BLACK
6
CONTINUOUS
10
257.501
20
-14.839
11
254.951
21
-14.839
0
LINE
8
BLACK
6
CONTINUOUS
10
254.951
20
-14.839
11
254.951
21
-12.339
0
LINE
8
BLACK
6
CONTINUOUS
10
254.951
20
-12.339
11
257.501
21
-12.339
0
LINE
8
BLACK
6
CONTINUOUS
10
257.501
20
-12.339
11
257.501
21
-14.839
0
LINE
8
BLACK
6
CONTINUOUS
10
181.301
20
-14.839
11
178.751
21
-14.839
0
LINE
8
BLACK
6
CONTINUOUS
10
178.751
20
-14.839
11
178.751
21
-12.339
0
LINE
8
BLACK
6
CONTINUOUS
10
178.751
20
-12.339
11
181.301
21
-12.339
0
LINE
8
BLACK
6
CONTINUOUS
10
181.301
20
-12.339
11
181.301
21
-14.839
0
LINE
8
BLACK
6
CONTINUOUS
10
357.78
20
-14.839
11
355.23
21
-14.839
0
LINE
8
BLACK
6
CONTINUOUS
10
355.23
20
-14.839
11
355.23
21
-12.339
0
LINE
8
BLACK
6
CONTINUOUS
10
355.23
20
-12.339
11
357.78
21
-12.339
0
LINE
8
BLACK
6
CONTINUOUS
10
357.78
20
-12.339
11
357.78
21
-14.839
0
LINE
8
BLACK
6
CONTINUOUS
10
86.051
20
-14.839
11
83.501
21
-14.839
0
LINE
8
BLACK
6
CONTINUOUS
10
83.501
20
-14.839
11
83.501
21
-12.339
0
LINE
8
BLACK
6
CONTINUOUS
10
83.501
20
-12.339
11
86.051
21
-12.339
0
LINE
8
BLACK
6
CONTINUOUS
10
86.051
20
-12.339
11
86.051
21
-14.839
0
LINE
8
BLACK
6
CONTINUOUS
10
314.799
20
-14.839
11
312.249
21
-14.839
0
LINE
8
BLACK
6
CONTINUOUS
10
312.249
20
-14.839
11
312.249
21
-12.339
0
LINE
8
BLACK
6
CONTINUOUS
10
312.249
20
-12.339
11
314.799
21
-12.339
0
LINE
8
BLACK
6
CONTINUOUS
10
314.799
20
-12.339
11
314.799
21
-14.839
0
LINE
8
BLACK
6
CONTINUOUS
10
143.201
20
-14.839
11
140.651
21
-14.839
0
LINE
8
BLACK
6
CONTINUOUS
10
140.651
20
-14.839
11
140.651
21
-12.339
0
LINE
8
BLACK
6
CONTINUOUS
10
140.651
20
-12.339
11
143.201
21
-12.339
0
LINE
8
BLACK
6
CONTINUOUS
10
143.201
20
-12.339
11
143.201
21
-14.839
0
LINE
8
BLACK
6
CONTINUOUS
10
238.451
20
-14.839
11
235.901
21
-14.839
0
LINE
8
BLACK
6
CONTINUOUS
10
235.901
20
-14.839
11
235.901
21
-12.339
0
LINE
8
BLACK
6
CONTINUOUS
10
235.901
20
-12.339
11
238.451
21
-12.339
0
LINE
8
BLACK
6
CONTINUOUS
10
238.451
20
-12.339
11
238.451
21
-14.839
0
LINE
8
BLACK
6
CONTINUOUS
10
219.401
20
-14.839
11
216.851
21
-14.839
0
LINE
8
BLACK
6
CONTINUOUS
10
216.851
20
-14.839
11
216.851
21
-12.339
0
LINE
8
BLACK
6
CONTINUOUS
10
216.851
20
-12.339
11
219.401
21
-12.339
0
LINE
8
BLACK
6
CONTINUOUS
10
219.401
20
-12.339
11
219.401
21
-14.839
0
LINE
8
BLACK
6
CONTINUOUS
10
162.251
20
-14.839
11
159.701
21
-14.839
0
LINE
8
BLACK
6
CONTINUOUS
10
159.701
20
-14.839
11
159.701
21
-12.339
0
LINE
8
BLACK
6
CONTINUOUS
10
159.701
20
-12.339
11
162.251
21
-12.339
0
LINE
8
BLACK
6
CONTINUOUS
10
162.251
20
-12.339
11
162.251
21
-14.839
0
LINE
8
BLACK
6
CONTINUOUS
10
295.601
20
-14.839
11
293.051
21
-14.839
0
LINE
8
BLACK
6
CONTINUOUS
10
293.051
20
-14.839
11
293.051
21
-12.339
0
LINE
8
BLACK
6
CONTINUOUS
10
293.051
20
-12.339
11
295.601
21
-12.339
0
LINE
8
BLACK
6
CONTINUOUS
10
295.601
20
-12.339
11
295.601
21
-14.839
0
LINE
8
BLACK
6
CONTINUOUS
10
376.703
20
-14.839
11
374.153
21
-14.839
0
LINE
8
BLACK
6
CONTINUOUS
10
374.153
20
-14.839
11
374.153
21
-12.339
0
LINE
8
BLACK
6
CONTINUOUS
10
374.153
20
-12.339
11
376.703
21
-12.339
0
LINE
8
BLACK
6
CONTINUOUS
10
376.703
20
-12.339
11
376.703
21
-14.839
0
LINE
8
BLACK
6
CONTINUOUS
10
47.951
20
-14.839
11
45.401
21
-14.839
0
LINE
8
BLACK
6
CONTINUOUS
10
45.401
20
-14.839
11
45.401
21
-12.339
0
LINE
8
BLACK
6
CONTINUOUS
10
45.401
20
-12.339
11
47.951
21
-12.339
0
LINE
8
BLACK
6
CONTINUOUS
10
47.951
20
-12.339
11
47.951
21
-14.839
0
LINE
8
BLACK
6
CONTINUOUS
10
124.151
20
-14.839
11
121.601
21
-14.839
0
LINE
8
BLACK
6
CONTINUOUS
10
121.601
20
-14.839
11
121.601
21
-12.339
0
LINE
8
BLACK
6
CONTINUOUS
10
121.601
20
-12.339
11
124.151
21
-12.339
0
LINE
8
BLACK
6
CONTINUOUS
10
124.151
20
-12.339
11
124.151
21
-14.839
0
LINE
8
BLACK
6
CONTINUOUS
10
276.551
20
-14.839
11
274.001
21
-14.839
0
LINE
8
BLACK
6
CONTINUOUS
10
274.001
20
-14.839
11
274.001
21
-12.339
0
LINE
8
BLACK
6
CONTINUOUS
10
274.001
20
-12.339
11
276.551
21
-12.339
0
LINE
8
BLACK
6
CONTINUOUS
10
276.551
20
-12.339
11
276.551
21
-14.839
0
LINE
8
BLACK
6
CONTINUOUS
10
67.001
20
-14.839
11
64.451
21
-14.839
0
LINE
8
BLACK
6
CONTINUOUS
10
64.451
20
-14.839
11
64.451
21
-12.339
0
LINE
8
BLACK
6
CONTINUOUS
10
64.451
20
-12.339
11
67.001
21
-12.339
0
LINE
8
BLACK
6
CONTINUOUS
10
67.001
20
-12.339
11
67.001
21
-14.839
0
LINE
8
BLACK
6
CONTINUOUS
10
338.73
20
-14.839
11
336.18
21
-14.839
0
LINE
8
BLACK
6
CONTINUOUS
10
336.18
20
-14.839
11
336.18
21
-12.339
0
LINE
8
BLACK
6
CONTINUOUS
10
336.18
20
-12.339
11
338.73
21
-12.339
0
LINE
8
BLACK
6
CONTINUOUS
10
338.73
20
-12.339
11
338.73
21
-14.839
  0
ENDSEC
  0
EOF
