  0
SECTION
  2
HEADER
  9
$ANGBASE
  50
0.0
  9
$ANGDIR
  70
1
  9
$MEASUREMENT
  70
0
  0
ENDSEC
  0
SECTION
  2
TABLES
  0
TABLE
  2
LTYPE
  70
4
  0
LTYPE
  5
40F
  2
CONTINUOUS
  70
0
  3
Solid line
  72
65
  73
0
  40
0.0
  0
LTYPE
  5
410
  2
DASHDOT
 70
0
  3
Dash Dot ____ _ ____ _
 72
65
 73
4
 40
2.0
 49
1.25
 49
-0.25
 49
0.25
 49
-0.25
  0
LTYPE
  5
411
  2
DASHED
 70
0
  3
Dashed __ __ __ __ __
 72
65
 73
2
 40
0.75
 49
0.5
 49
-0.25
  0
LTYPE
  5
43B
  2
DOTTED
 70
0
  3
Dotted .  .  .  .
 72
65
 73
2
 40
0.2
 49
0.0
 49
-0.2
  0
ENDTAB
  0
TABLE
  2
STYLE
  70
4
  0
STYLE
  2
KICAD
  70
0
  40
0
  41
1
  42
1
  50
0
  71
0
  3
isocp.shx
  0
STYLE
  2
KICADB
  70
0
  40
0
  41
1
  42
1
  50
0
  71
0
  3
isocp.shx
  0
STYLE
  2
KICADI
  70
0
  40
0
  41
1
  42
1
  50
15
  71
0
  3
isocp.shx
  0
STYLE
  2
KICADBI
  70
0
  40
0
  41
1
  42
1
  50
15
  71
0
  3
isocp.shx
  0
ENDTAB
  0
TABLE
  2
LAYER
  70
1
  0
LAYER
  2
BLACK
  70
0
  62
7
  6
CONTINUOUS
  0
ENDTAB
  0
ENDSEC
  0
SECTION
  2
ENTITIES
0
LINE
8
BLACK
6
CONTINUOUS
10
14.9501
20
-0.158031
11
14.9504
21
-0.15806
0
LINE
8
BLACK
6
CONTINUOUS
10
14.9504
20
-0.15806
11
14.9508
21
-0.158173
0
LINE
8
BLACK
6
CONTINUOUS
10
14.9508
20
-0.158173
11
14.9511
21
-0.158355
0
LINE
8
BLACK
6
CONTINUOUS
10
14.9511
20
-0.158355
11
14.9514
21
-0.158601
0
LINE
8
BLACK
6
CONTINUOUS
10
14.9514
20
-0.158601
11
14.9516
21
-0.158901
0
LINE
8
BLACK
6
CONTINUOUS
10
14.9516
20
-0.158901
11
14.9518
21
-0.159243
0
LINE
8
BLACK
6
CONTINUOUS
10
14.9518
20
-0.159243
11
14.9519
21
-0.159614
0
LINE
8
BLACK
6
CONTINUOUS
10
14.9519
20
-0.159614
11
14.952
21
-0.16
0
LINE
8
BLACK
6
CONTINUOUS
10
14.952
20
-0.16
11
14.952
21
-0.160096
0
LINE
8
BLACK
6
CONTINUOUS
10
14.952
20
-0.160096
11
14.952
21
-4.9119
0
LINE
8
BLACK
6
CONTINUOUS
10
14.952
20
-4.9119
11
14.952
21
-4.912
0
LINE
8
BLACK
6
CONTINUOUS
10
14.952
20
-4.912
11
14.952
21
-4.9121
0
LINE
8
BLACK
6
CONTINUOUS
10
14.952
20
-4.9121
11
14.952
21
-4.9121
0
LINE
8
BLACK
6
CONTINUOUS
10
14.952
20
-4.9121
11
14.9519
21
-4.91239
0
LINE
8
BLACK
6
CONTINUOUS
10
14.9519
20
-4.91239
11
14.9518
21
-4.91276
0
LINE
8
BLACK
6
CONTINUOUS
10
14.9518
20
-4.91276
11
14.9516
21
-4.9131
0
LINE
8
BLACK
6
CONTINUOUS
10
14.9516
20
-4.9131
11
14.9514
21
-4.9134
0
LINE
8
BLACK
6
CONTINUOUS
10
14.9514
20
-4.9134
11
14.9511
21
-4.91364
0
LINE
8
BLACK
6
CONTINUOUS
10
14.9511
20
-4.91364
11
14.9508
21
-4.91383
0
LINE
8
BLACK
6
CONTINUOUS
10
14.9508
20
-4.91383
11
14.9504
21
-4.91394
0
LINE
8
BLACK
6
CONTINUOUS
10
14.9504
20
-4.91394
11
14.95
21
-4.91398
0
LINE
8
BLACK
6
CONTINUOUS
10
14.95
20
-4.91398
11
14.9499
21
-4.91397
0
LINE
8
BLACK
6
CONTINUOUS
10
14.9499
20
-4.91397
11
1.0641
21
-4.91397
0
LINE
8
BLACK
6
CONTINUOUS
10
1.0641
20
-4.91397
11
1.064
21
-4.91398
0
LINE
8
BLACK
6
CONTINUOUS
10
1.064
20
-4.91398
11
1.06361
21
-4.91394
0
LINE
8
BLACK
6
CONTINUOUS
10
1.06361
20
-4.91394
11
1.06324
21
-4.91383
0
LINE
8
BLACK
6
CONTINUOUS
10
1.06324
20
-4.91383
11
1.0629
21
-4.91364
0
LINE
8
BLACK
6
CONTINUOUS
10
1.0629
20
-4.91364
11
1.0626
21
-4.9134
0
LINE
8
BLACK
6
CONTINUOUS
10
1.0626
20
-4.9134
11
1.06236
21
-4.9131
0
LINE
8
BLACK
6
CONTINUOUS
10
1.06236
20
-4.9131
11
1.06217
21
-4.91276
0
LINE
8
BLACK
6
CONTINUOUS
10
1.06217
20
-4.91276
11
1.06206
21
-4.91239
0
LINE
8
BLACK
6
CONTINUOUS
10
1.06206
20
-4.91239
11
1.06202
21
-4.912
0
LINE
8
BLACK
6
CONTINUOUS
10
1.06202
20
-4.912
11
1.06203
21
-4.9119
0
LINE
8
BLACK
6
CONTINUOUS
10
1.06203
20
-4.9119
11
1.06203
21
-0.160097
0
LINE
8
BLACK
6
CONTINUOUS
10
1.06203
20
-0.160097
11
1.06202
21
-0.16
0
LINE
8
BLACK
6
CONTINUOUS
10
1.06202
20
-0.16
11
1.06206
21
-0.159614
0
LINE
8
BLACK
6
CONTINUOUS
10
1.06206
20
-0.159614
11
1.06217
21
-0.159243
0
LINE
8
BLACK
6
CONTINUOUS
10
1.06217
20
-0.159243
11
1.06236
21
-0.158901
0
LINE
8
BLACK
6
CONTINUOUS
10
1.06236
20
-0.158901
11
1.0626
21
-0.158601
0
LINE
8
BLACK
6
CONTINUOUS
10
1.0626
20
-0.158601
11
1.0629
21
-0.158355
0
LINE
8
BLACK
6
CONTINUOUS
10
1.0629
20
-0.158355
11
1.06324
21
-0.158173
0
LINE
8
BLACK
6
CONTINUOUS
10
1.06324
20
-0.158173
11
1.06361
21
-0.15806
0
LINE
8
BLACK
6
CONTINUOUS
10
1.06361
20
-0.15806
11
1.0639
21
-0.158031
0
LINE
8
BLACK
6
CONTINUOUS
10
1.0639
20
-0.158031
11
1.064
21
-0.158022
0
LINE
8
BLACK
6
CONTINUOUS
10
1.064
20
-0.158022
11
1.0641
21
-0.158031
0
LINE
8
BLACK
6
CONTINUOUS
10
1.0641
20
-0.158031
11
14.9499
21
-0.158031
0
LINE
8
BLACK
6
CONTINUOUS
10
14.9499
20
-0.158031
11
14.95
21
-0.158022
0
LINE
8
BLACK
6
CONTINUOUS
10
14.95
20
-0.158022
11
14.9501
21
-0.158031
0
LINE
8
BLACK
6
CONTINUOUS
10
1.06597
20
-0.161969
11
1.06597
21
-4.91003
0
LINE
8
BLACK
6
CONTINUOUS
10
1.06597
20
-4.91003
11
14.948
21
-4.91003
0
LINE
8
BLACK
6
CONTINUOUS
10
14.948
20
-4.91003
11
14.948
21
-0.161969
0
LINE
8
BLACK
6
CONTINUOUS
10
14.948
20
-0.161969
11
1.06597
21
-0.161969
0
LINE
8
BLACK
6
CONTINUOUS
10
14.804
20
-4.81149
11
14.8088
21
-4.79993
0
LINE
8
BLACK
6
CONTINUOUS
10
14.8088
20
-4.79993
11
14.8157
21
-4.78954
0
LINE
8
BLACK
6
CONTINUOUS
10
14.8157
20
-4.78954
11
14.8245
21
-4.7807
0
LINE
8
BLACK
6
CONTINUOUS
10
14.8245
20
-4.7807
11
14.8349
21
-4.77375
0
LINE
8
BLACK
6
CONTINUOUS
10
14.8349
20
-4.77375
11
14.8465
21
-4.76897
0
LINE
8
BLACK
6
CONTINUOUS
10
14.8465
20
-4.76897
11
14.8587
21
-4.76653
0
LINE
8
BLACK
6
CONTINUOUS
10
14.8587
20
-4.76653
11
14.8713
21
-4.76653
0
LINE
8
BLACK
6
CONTINUOUS
10
14.8713
20
-4.76653
11
14.8835
21
-4.76897
0
LINE
8
BLACK
6
CONTINUOUS
10
14.8835
20
-4.76897
11
14.8951
21
-4.77375
0
LINE
8
BLACK
6
CONTINUOUS
10
14.8951
20
-4.77375
11
14.9055
21
-4.7807
0
LINE
8
BLACK
6
CONTINUOUS
10
14.9055
20
-4.7807
11
14.9143
21
-4.78954
0
LINE
8
BLACK
6
CONTINUOUS
10
14.9143
20
-4.78954
11
14.9212
21
-4.79993
0
LINE
8
BLACK
6
CONTINUOUS
10
14.9212
20
-4.79993
11
14.926
21
-4.81149
0
LINE
8
BLACK
6
CONTINUOUS
10
14.926
20
-4.81149
11
14.9285
21
-4.82375
0
LINE
8
BLACK
6
CONTINUOUS
10
14.9285
20
-4.82375
11
14.9285
21
-4.83625
0
LINE
8
BLACK
6
CONTINUOUS
10
14.9285
20
-4.83625
11
14.926
21
-4.84851
0
LINE
8
BLACK
6
CONTINUOUS
10
14.926
20
-4.84851
11
14.9212
21
-4.86007
0
LINE
8
BLACK
6
CONTINUOUS
10
14.9212
20
-4.86007
11
14.9143
21
-4.87046
0
LINE
8
BLACK
6
CONTINUOUS
10
14.9143
20
-4.87046
11
14.9055
21
-4.8793
0
LINE
8
BLACK
6
CONTINUOUS
10
14.9055
20
-4.8793
11
14.8951
21
-4.88625
0
LINE
8
BLACK
6
CONTINUOUS
10
14.8951
20
-4.88625
11
14.8835
21
-4.89103
0
LINE
8
BLACK
6
CONTINUOUS
10
14.8835
20
-4.89103
11
14.8713
21
-4.89347
0
LINE
8
BLACK
6
CONTINUOUS
10
14.8713
20
-4.89347
11
14.8587
21
-4.89347
0
LINE
8
BLACK
6
CONTINUOUS
10
14.8587
20
-4.89347
11
14.8465
21
-4.89103
0
LINE
8
BLACK
6
CONTINUOUS
10
14.8465
20
-4.89103
11
14.8349
21
-4.88625
0
LINE
8
BLACK
6
CONTINUOUS
10
14.8349
20
-4.88625
11
14.8245
21
-4.8793
0
LINE
8
BLACK
6
CONTINUOUS
10
14.8245
20
-4.8793
11
14.8157
21
-4.87046
0
LINE
8
BLACK
6
CONTINUOUS
10
14.8157
20
-4.87046
11
14.8088
21
-4.86007
0
LINE
8
BLACK
6
CONTINUOUS
10
14.8088
20
-4.86007
11
14.804
21
-4.84851
0
LINE
8
BLACK
6
CONTINUOUS
10
14.804
20
-4.84851
11
14.8015
21
-4.83625
0
LINE
8
BLACK
6
CONTINUOUS
10
14.8015
20
-4.83625
11
14.8015
21
-4.82375
0
LINE
8
BLACK
6
CONTINUOUS
10
14.8015
20
-4.82375
11
14.804
21
-4.81149
0
LINE
8
BLACK
6
CONTINUOUS
10
14.8085
20
-4.84714
11
14.8129
21
-4.85784
0
LINE
8
BLACK
6
CONTINUOUS
10
14.8129
20
-4.85784
11
14.8193
21
-4.86746
0
LINE
8
BLACK
6
CONTINUOUS
10
14.8193
20
-4.86746
11
14.8275
21
-4.87565
0
LINE
8
BLACK
6
CONTINUOUS
10
14.8275
20
-4.87565
11
14.8372
21
-4.88208
0
LINE
8
BLACK
6
CONTINUOUS
10
14.8372
20
-4.88208
11
14.8479
21
-4.88651
0
LINE
8
BLACK
6
CONTINUOUS
10
14.8479
20
-4.88651
11
14.8592
21
-4.88877
0
LINE
8
BLACK
6
CONTINUOUS
10
14.8592
20
-4.88877
11
14.8708
21
-4.88877
0
LINE
8
BLACK
6
CONTINUOUS
10
14.8708
20
-4.88877
11
14.8821
21
-4.88651
0
LINE
8
BLACK
6
CONTINUOUS
10
14.8821
20
-4.88651
11
14.8928
21
-4.88208
0
LINE
8
BLACK
6
CONTINUOUS
10
14.8928
20
-4.88208
11
14.9025
21
-4.87565
0
LINE
8
BLACK
6
CONTINUOUS
10
14.9025
20
-4.87565
11
14.9107
21
-4.86746
0
LINE
8
BLACK
6
CONTINUOUS
10
14.9107
20
-4.86746
11
14.9171
21
-4.85784
0
LINE
8
BLACK
6
CONTINUOUS
10
14.9171
20
-4.85784
11
14.9215
21
-4.84714
0
LINE
8
BLACK
6
CONTINUOUS
10
14.9215
20
-4.84714
11
14.9238
21
-4.83579
0
LINE
8
BLACK
6
CONTINUOUS
10
14.9238
20
-4.83579
11
14.9238
21
-4.82421
0
LINE
8
BLACK
6
CONTINUOUS
10
14.9238
20
-4.82421
11
14.9215
21
-4.81286
0
LINE
8
BLACK
6
CONTINUOUS
10
14.9215
20
-4.81286
11
14.9171
21
-4.80216
0
LINE
8
BLACK
6
CONTINUOUS
10
14.9171
20
-4.80216
11
14.9107
21
-4.79254
0
LINE
8
BLACK
6
CONTINUOUS
10
14.9107
20
-4.79254
11
14.9025
21
-4.78435
0
LINE
8
BLACK
6
CONTINUOUS
10
14.9025
20
-4.78435
11
14.8928
21
-4.77792
0
LINE
8
BLACK
6
CONTINUOUS
10
14.8928
20
-4.77792
11
14.8821
21
-4.77349
0
LINE
8
BLACK
6
CONTINUOUS
10
14.8821
20
-4.77349
11
14.8708
21
-4.77123
0
LINE
8
BLACK
6
CONTINUOUS
10
14.8708
20
-4.77123
11
14.8592
21
-4.77123
0
LINE
8
BLACK
6
CONTINUOUS
10
14.8592
20
-4.77123
11
14.8479
21
-4.77349
0
LINE
8
BLACK
6
CONTINUOUS
10
14.8479
20
-4.77349
11
14.8372
21
-4.77792
0
LINE
8
BLACK
6
CONTINUOUS
10
14.8372
20
-4.77792
11
14.8275
21
-4.78435
0
LINE
8
BLACK
6
CONTINUOUS
10
14.8275
20
-4.78435
11
14.8193
21
-4.79254
0
LINE
8
BLACK
6
CONTINUOUS
10
14.8193
20
-4.79254
11
14.8129
21
-4.80216
0
LINE
8
BLACK
6
CONTINUOUS
10
14.8129
20
-4.80216
11
14.8085
21
-4.81286
0
LINE
8
BLACK
6
CONTINUOUS
10
14.8085
20
-4.81286
11
14.8062
21
-4.82421
0
LINE
8
BLACK
6
CONTINUOUS
10
14.8062
20
-4.82421
11
14.8062
21
-4.83579
0
LINE
8
BLACK
6
CONTINUOUS
10
14.8062
20
-4.83579
11
14.8085
21
-4.84714
0
LINE
8
BLACK
6
CONTINUOUS
10
1.09397
20
-4.79649
11
1.09875
21
-4.78493
0
LINE
8
BLACK
6
CONTINUOUS
10
1.09875
20
-4.78493
11
1.1057
21
-4.77454
0
LINE
8
BLACK
6
CONTINUOUS
10
1.1057
20
-4.77454
11
1.11454
21
-4.7657
0
LINE
8
BLACK
6
CONTINUOUS
10
1.11454
20
-4.7657
11
1.12493
21
-4.75875
0
LINE
8
BLACK
6
CONTINUOUS
10
1.12493
20
-4.75875
11
1.13649
21
-4.75397
0
LINE
8
BLACK
6
CONTINUOUS
10
1.13649
20
-4.75397
11
1.14875
21
-4.75153
0
LINE
8
BLACK
6
CONTINUOUS
10
1.14875
20
-4.75153
11
1.16125
21
-4.75153
0
LINE
8
BLACK
6
CONTINUOUS
10
1.16125
20
-4.75153
11
1.17351
21
-4.75397
0
LINE
8
BLACK
6
CONTINUOUS
10
1.17351
20
-4.75397
11
1.18507
21
-4.75875
0
LINE
8
BLACK
6
CONTINUOUS
10
1.18507
20
-4.75875
11
1.19546
21
-4.7657
0
LINE
8
BLACK
6
CONTINUOUS
10
1.19546
20
-4.7657
11
1.2043
21
-4.77454
0
LINE
8
BLACK
6
CONTINUOUS
10
1.2043
20
-4.77454
11
1.21125
21
-4.78493
0
LINE
8
BLACK
6
CONTINUOUS
10
1.21125
20
-4.78493
11
1.21603
21
-4.79649
0
LINE
8
BLACK
6
CONTINUOUS
10
1.21603
20
-4.79649
11
1.21847
21
-4.80875
0
LINE
8
BLACK
6
CONTINUOUS
10
1.21847
20
-4.80875
11
1.21847
21
-4.82125
0
LINE
8
BLACK
6
CONTINUOUS
10
1.21847
20
-4.82125
11
1.21603
21
-4.83351
0
LINE
8
BLACK
6
CONTINUOUS
10
1.21603
20
-4.83351
11
1.21125
21
-4.84507
0
LINE
8
BLACK
6
CONTINUOUS
10
1.21125
20
-4.84507
11
1.2043
21
-4.85546
0
LINE
8
BLACK
6
CONTINUOUS
10
1.2043
20
-4.85546
11
1.19546
21
-4.8643
0
LINE
8
BLACK
6
CONTINUOUS
10
1.19546
20
-4.8643
11
1.18507
21
-4.87125
0
LINE
8
BLACK
6
CONTINUOUS
10
1.18507
20
-4.87125
11
1.17351
21
-4.87603
0
LINE
8
BLACK
6
CONTINUOUS
10
1.17351
20
-4.87603
11
1.16125
21
-4.87847
0
LINE
8
BLACK
6
CONTINUOUS
10
1.16125
20
-4.87847
11
1.14875
21
-4.87847
0
LINE
8
BLACK
6
CONTINUOUS
10
1.14875
20
-4.87847
11
1.13649
21
-4.87603
0
LINE
8
BLACK
6
CONTINUOUS
10
1.13649
20
-4.87603
11
1.12493
21
-4.87125
0
LINE
8
BLACK
6
CONTINUOUS
10
1.12493
20
-4.87125
11
1.11454
21
-4.8643
0
LINE
8
BLACK
6
CONTINUOUS
10
1.11454
20
-4.8643
11
1.1057
21
-4.85546
0
LINE
8
BLACK
6
CONTINUOUS
10
1.1057
20
-4.85546
11
1.09875
21
-4.84507
0
LINE
8
BLACK
6
CONTINUOUS
10
1.09875
20
-4.84507
11
1.09397
21
-4.83351
0
LINE
8
BLACK
6
CONTINUOUS
10
1.09397
20
-4.83351
11
1.09153
21
-4.82125
0
LINE
8
BLACK
6
CONTINUOUS
10
1.09153
20
-4.82125
11
1.09153
21
-4.80875
0
LINE
8
BLACK
6
CONTINUOUS
10
1.09153
20
-4.80875
11
1.09397
21
-4.79649
0
LINE
8
BLACK
6
CONTINUOUS
10
1.09849
20
-4.83214
11
1.10292
21
-4.84284
0
LINE
8
BLACK
6
CONTINUOUS
10
1.10292
20
-4.84284
11
1.10935
21
-4.85246
0
LINE
8
BLACK
6
CONTINUOUS
10
1.10935
20
-4.85246
11
1.11754
21
-4.86065
0
LINE
8
BLACK
6
CONTINUOUS
10
1.11754
20
-4.86065
11
1.12716
21
-4.86708
0
LINE
8
BLACK
6
CONTINUOUS
10
1.12716
20
-4.86708
11
1.13786
21
-4.87151
0
LINE
8
BLACK
6
CONTINUOUS
10
1.13786
20
-4.87151
11
1.14921
21
-4.87377
0
LINE
8
BLACK
6
CONTINUOUS
10
1.14921
20
-4.87377
11
1.16079
21
-4.87377
0
LINE
8
BLACK
6
CONTINUOUS
10
1.16079
20
-4.87377
11
1.17214
21
-4.87151
0
LINE
8
BLACK
6
CONTINUOUS
10
1.17214
20
-4.87151
11
1.18284
21
-4.86708
0
LINE
8
BLACK
6
CONTINUOUS
10
1.18284
20
-4.86708
11
1.19246
21
-4.86065
0
LINE
8
BLACK
6
CONTINUOUS
10
1.19246
20
-4.86065
11
1.20065
21
-4.85246
0
LINE
8
BLACK
6
CONTINUOUS
10
1.20065
20
-4.85246
11
1.20708
21
-4.84284
0
LINE
8
BLACK
6
CONTINUOUS
10
1.20708
20
-4.84284
11
1.21151
21
-4.83214
0
LINE
8
BLACK
6
CONTINUOUS
10
1.21151
20
-4.83214
11
1.21377
21
-4.82079
0
LINE
8
BLACK
6
CONTINUOUS
10
1.21377
20
-4.82079
11
1.21377
21
-4.80921
0
LINE
8
BLACK
6
CONTINUOUS
10
1.21377
20
-4.80921
11
1.21151
21
-4.79786
0
LINE
8
BLACK
6
CONTINUOUS
10
1.21151
20
-4.79786
11
1.20708
21
-4.78716
0
LINE
8
BLACK
6
CONTINUOUS
10
1.20708
20
-4.78716
11
1.20065
21
-4.77754
0
LINE
8
BLACK
6
CONTINUOUS
10
1.20065
20
-4.77754
11
1.19246
21
-4.76935
0
LINE
8
BLACK
6
CONTINUOUS
10
1.19246
20
-4.76935
11
1.18284
21
-4.76292
0
LINE
8
BLACK
6
CONTINUOUS
10
1.18284
20
-4.76292
11
1.17214
21
-4.75849
0
LINE
8
BLACK
6
CONTINUOUS
10
1.17214
20
-4.75849
11
1.16079
21
-4.75623
0
LINE
8
BLACK
6
CONTINUOUS
10
1.16079
20
-4.75623
11
1.14921
21
-4.75623
0
LINE
8
BLACK
6
CONTINUOUS
10
1.14921
20
-4.75623
11
1.13786
21
-4.75849
0
LINE
8
BLACK
6
CONTINUOUS
10
1.13786
20
-4.75849
11
1.12716
21
-4.76292
0
LINE
8
BLACK
6
CONTINUOUS
10
1.12716
20
-4.76292
11
1.11754
21
-4.76935
0
LINE
8
BLACK
6
CONTINUOUS
10
1.11754
20
-4.76935
11
1.10935
21
-4.77754
0
LINE
8
BLACK
6
CONTINUOUS
10
1.10935
20
-4.77754
11
1.10292
21
-4.78716
0
LINE
8
BLACK
6
CONTINUOUS
10
1.10292
20
-4.78716
11
1.09849
21
-4.79786
0
LINE
8
BLACK
6
CONTINUOUS
10
1.09849
20
-4.79786
11
1.09623
21
-4.80921
0
LINE
8
BLACK
6
CONTINUOUS
10
1.09623
20
-4.80921
11
1.09623
21
-4.82079
0
LINE
8
BLACK
6
CONTINUOUS
10
1.09623
20
-4.82079
11
1.09849
21
-4.83214
0
LINE
8
BLACK
6
CONTINUOUS
10
10.329
20
-4.09649
11
10.3338
21
-4.08493
0
LINE
8
BLACK
6
CONTINUOUS
10
10.3338
20
-4.08493
11
10.3407
21
-4.07454
0
LINE
8
BLACK
6
CONTINUOUS
10
10.3407
20
-4.07454
11
10.3495
21
-4.0657
0
LINE
8
BLACK
6
CONTINUOUS
10
10.3495
20
-4.0657
11
10.3599
21
-4.05875
0
LINE
8
BLACK
6
CONTINUOUS
10
10.3599
20
-4.05875
11
10.3715
21
-4.05397
0
LINE
8
BLACK
6
CONTINUOUS
10
10.3715
20
-4.05397
11
10.3837
21
-4.05153
0
LINE
8
BLACK
6
CONTINUOUS
10
10.3837
20
-4.05153
11
10.3963
21
-4.05153
0
LINE
8
BLACK
6
CONTINUOUS
10
10.3963
20
-4.05153
11
10.4085
21
-4.05397
0
LINE
8
BLACK
6
CONTINUOUS
10
10.4085
20
-4.05397
11
10.4201
21
-4.05875
0
LINE
8
BLACK
6
CONTINUOUS
10
10.4201
20
-4.05875
11
10.4305
21
-4.0657
0
LINE
8
BLACK
6
CONTINUOUS
10
10.4305
20
-4.0657
11
10.4393
21
-4.07454
0
LINE
8
BLACK
6
CONTINUOUS
10
10.4393
20
-4.07454
11
10.4462
21
-4.08493
0
LINE
8
BLACK
6
CONTINUOUS
10
10.4462
20
-4.08493
11
10.451
21
-4.09649
0
LINE
8
BLACK
6
CONTINUOUS
10
10.451
20
-4.09649
11
10.4535
21
-4.10875
0
LINE
8
BLACK
6
CONTINUOUS
10
10.4535
20
-4.10875
11
10.4535
21
-4.12125
0
LINE
8
BLACK
6
CONTINUOUS
10
10.4535
20
-4.12125
11
10.451
21
-4.13351
0
LINE
8
BLACK
6
CONTINUOUS
10
10.451
20
-4.13351
11
10.4462
21
-4.14507
0
LINE
8
BLACK
6
CONTINUOUS
10
10.4462
20
-4.14507
11
10.4393
21
-4.15546
0
LINE
8
BLACK
6
CONTINUOUS
10
10.4393
20
-4.15546
11
10.4305
21
-4.1643
0
LINE
8
BLACK
6
CONTINUOUS
10
10.4305
20
-4.1643
11
10.4201
21
-4.17125
0
LINE
8
BLACK
6
CONTINUOUS
10
10.4201
20
-4.17125
11
10.4085
21
-4.17603
0
LINE
8
BLACK
6
CONTINUOUS
10
10.4085
20
-4.17603
11
10.3963
21
-4.17847
0
LINE
8
BLACK
6
CONTINUOUS
10
10.3963
20
-4.17847
11
10.3837
21
-4.17847
0
LINE
8
BLACK
6
CONTINUOUS
10
10.3837
20
-4.17847
11
10.3715
21
-4.17603
0
LINE
8
BLACK
6
CONTINUOUS
10
10.3715
20
-4.17603
11
10.3599
21
-4.17125
0
LINE
8
BLACK
6
CONTINUOUS
10
10.3599
20
-4.17125
11
10.3495
21
-4.1643
0
LINE
8
BLACK
6
CONTINUOUS
10
10.3495
20
-4.1643
11
10.3407
21
-4.15546
0
LINE
8
BLACK
6
CONTINUOUS
10
10.3407
20
-4.15546
11
10.3338
21
-4.14507
0
LINE
8
BLACK
6
CONTINUOUS
10
10.3338
20
-4.14507
11
10.329
21
-4.13351
0
LINE
8
BLACK
6
CONTINUOUS
10
10.329
20
-4.13351
11
10.3265
21
-4.12125
0
LINE
8
BLACK
6
CONTINUOUS
10
10.3265
20
-4.12125
11
10.3265
21
-4.10875
0
LINE
8
BLACK
6
CONTINUOUS
10
10.3265
20
-4.10875
11
10.329
21
-4.09649
0
LINE
8
BLACK
6
CONTINUOUS
10
10.3335
20
-4.13214
11
10.3379
21
-4.14284
0
LINE
8
BLACK
6
CONTINUOUS
10
10.3379
20
-4.14284
11
10.3443
21
-4.15246
0
LINE
8
BLACK
6
CONTINUOUS
10
10.3443
20
-4.15246
11
10.3525
21
-4.16065
0
LINE
8
BLACK
6
CONTINUOUS
10
10.3525
20
-4.16065
11
10.3622
21
-4.16708
0
LINE
8
BLACK
6
CONTINUOUS
10
10.3622
20
-4.16708
11
10.3729
21
-4.17151
0
LINE
8
BLACK
6
CONTINUOUS
10
10.3729
20
-4.17151
11
10.3842
21
-4.17377
0
LINE
8
BLACK
6
CONTINUOUS
10
10.3842
20
-4.17377
11
10.3958
21
-4.17377
0
LINE
8
BLACK
6
CONTINUOUS
10
10.3958
20
-4.17377
11
10.4071
21
-4.17151
0
LINE
8
BLACK
6
CONTINUOUS
10
10.4071
20
-4.17151
11
10.4178
21
-4.16708
0
LINE
8
BLACK
6
CONTINUOUS
10
10.4178
20
-4.16708
11
10.4275
21
-4.16065
0
LINE
8
BLACK
6
CONTINUOUS
10
10.4275
20
-4.16065
11
10.4357
21
-4.15246
0
LINE
8
BLACK
6
CONTINUOUS
10
10.4357
20
-4.15246
11
10.4421
21
-4.14284
0
LINE
8
BLACK
6
CONTINUOUS
10
10.4421
20
-4.14284
11
10.4465
21
-4.13214
0
LINE
8
BLACK
6
CONTINUOUS
10
10.4465
20
-4.13214
11
10.4488
21
-4.12079
0
LINE
8
BLACK
6
CONTINUOUS
10
10.4488
20
-4.12079
11
10.4488
21
-4.10921
0
LINE
8
BLACK
6
CONTINUOUS
10
10.4488
20
-4.10921
11
10.4465
21
-4.09786
0
LINE
8
BLACK
6
CONTINUOUS
10
10.4465
20
-4.09786
11
10.4421
21
-4.08716
0
LINE
8
BLACK
6
CONTINUOUS
10
10.4421
20
-4.08716
11
10.4357
21
-4.07754
0
LINE
8
BLACK
6
CONTINUOUS
10
10.4357
20
-4.07754
11
10.4275
21
-4.06935
0
LINE
8
BLACK
6
CONTINUOUS
10
10.4275
20
-4.06935
11
10.4178
21
-4.06292
0
LINE
8
BLACK
6
CONTINUOUS
10
10.4178
20
-4.06292
11
10.4071
21
-4.05849
0
LINE
8
BLACK
6
CONTINUOUS
10
10.4071
20
-4.05849
11
10.3958
21
-4.05623
0
LINE
8
BLACK
6
CONTINUOUS
10
10.3958
20
-4.05623
11
10.3842
21
-4.05623
0
LINE
8
BLACK
6
CONTINUOUS
10
10.3842
20
-4.05623
11
10.3729
21
-4.05849
0
LINE
8
BLACK
6
CONTINUOUS
10
10.3729
20
-4.05849
11
10.3622
21
-4.06292
0
LINE
8
BLACK
6
CONTINUOUS
10
10.3622
20
-4.06292
11
10.3525
21
-4.06935
0
LINE
8
BLACK
6
CONTINUOUS
10
10.3525
20
-4.06935
11
10.3443
21
-4.07754
0
LINE
8
BLACK
6
CONTINUOUS
10
10.3443
20
-4.07754
11
10.3379
21
-4.08716
0
LINE
8
BLACK
6
CONTINUOUS
10
10.3379
20
-4.08716
11
10.3335
21
-4.09786
0
LINE
8
BLACK
6
CONTINUOUS
10
10.3335
20
-4.09786
11
10.3312
21
-4.10921
0
LINE
8
BLACK
6
CONTINUOUS
10
10.3312
20
-4.10921
11
10.3312
21
-4.12079
0
LINE
8
BLACK
6
CONTINUOUS
10
10.3312
20
-4.12079
11
10.3335
21
-4.13214
0
LINE
8
BLACK
6
CONTINUOUS
10
3.58397
20
-4.08649
11
3.58875
21
-4.07493
0
LINE
8
BLACK
6
CONTINUOUS
10
3.58875
20
-4.07493
11
3.5957
21
-4.06454
0
LINE
8
BLACK
6
CONTINUOUS
10
3.5957
20
-4.06454
11
3.60454
21
-4.0557
0
LINE
8
BLACK
6
CONTINUOUS
10
3.60454
20
-4.0557
11
3.61493
21
-4.04875
0
LINE
8
BLACK
6
CONTINUOUS
10
3.61493
20
-4.04875
11
3.62649
21
-4.04397
0
LINE
8
BLACK
6
CONTINUOUS
10
3.62649
20
-4.04397
11
3.63875
21
-4.04153
0
LINE
8
BLACK
6
CONTINUOUS
10
3.63875
20
-4.04153
11
3.65125
21
-4.04153
0
LINE
8
BLACK
6
CONTINUOUS
10
3.65125
20
-4.04153
11
3.66351
21
-4.04397
0
LINE
8
BLACK
6
CONTINUOUS
10
3.66351
20
-4.04397
11
3.67507
21
-4.04875
0
LINE
8
BLACK
6
CONTINUOUS
10
3.67507
20
-4.04875
11
3.68546
21
-4.0557
0
LINE
8
BLACK
6
CONTINUOUS
10
3.68546
20
-4.0557
11
3.6943
21
-4.06454
0
LINE
8
BLACK
6
CONTINUOUS
10
3.6943
20
-4.06454
11
3.70125
21
-4.07493
0
LINE
8
BLACK
6
CONTINUOUS
10
3.70125
20
-4.07493
11
3.70603
21
-4.08649
0
LINE
8
BLACK
6
CONTINUOUS
10
3.70603
20
-4.08649
11
3.70847
21
-4.09875
0
LINE
8
BLACK
6
CONTINUOUS
10
3.70847
20
-4.09875
11
3.70847
21
-4.11125
0
LINE
8
BLACK
6
CONTINUOUS
10
3.70847
20
-4.11125
11
3.70603
21
-4.12351
0
LINE
8
BLACK
6
CONTINUOUS
10
3.70603
20
-4.12351
11
3.70125
21
-4.13507
0
LINE
8
BLACK
6
CONTINUOUS
10
3.70125
20
-4.13507
11
3.6943
21
-4.14546
0
LINE
8
BLACK
6
CONTINUOUS
10
3.6943
20
-4.14546
11
3.68546
21
-4.1543
0
LINE
8
BLACK
6
CONTINUOUS
10
3.68546
20
-4.1543
11
3.67507
21
-4.16125
0
LINE
8
BLACK
6
CONTINUOUS
10
3.67507
20
-4.16125
11
3.66351
21
-4.16603
0
LINE
8
BLACK
6
CONTINUOUS
10
3.66351
20
-4.16603
11
3.65125
21
-4.16847
0
LINE
8
BLACK
6
CONTINUOUS
10
3.65125
20
-4.16847
11
3.63875
21
-4.16847
0
LINE
8
BLACK
6
CONTINUOUS
10
3.63875
20
-4.16847
11
3.62649
21
-4.16603
0
LINE
8
BLACK
6
CONTINUOUS
10
3.62649
20
-4.16603
11
3.61493
21
-4.16125
0
LINE
8
BLACK
6
CONTINUOUS
10
3.61493
20
-4.16125
11
3.60454
21
-4.1543
0
LINE
8
BLACK
6
CONTINUOUS
10
3.60454
20
-4.1543
11
3.5957
21
-4.14546
0
LINE
8
BLACK
6
CONTINUOUS
10
3.5957
20
-4.14546
11
3.58875
21
-4.13507
0
LINE
8
BLACK
6
CONTINUOUS
10
3.58875
20
-4.13507
11
3.58397
21
-4.12351
0
LINE
8
BLACK
6
CONTINUOUS
10
3.58397
20
-4.12351
11
3.58153
21
-4.11125
0
LINE
8
BLACK
6
CONTINUOUS
10
3.58153
20
-4.11125
11
3.58153
21
-4.09875
0
LINE
8
BLACK
6
CONTINUOUS
10
3.58153
20
-4.09875
11
3.58397
21
-4.08649
0
LINE
8
BLACK
6
CONTINUOUS
10
3.58849
20
-4.12214
11
3.59292
21
-4.13284
0
LINE
8
BLACK
6
CONTINUOUS
10
3.59292
20
-4.13284
11
3.59935
21
-4.14246
0
LINE
8
BLACK
6
CONTINUOUS
10
3.59935
20
-4.14246
11
3.60754
21
-4.15065
0
LINE
8
BLACK
6
CONTINUOUS
10
3.60754
20
-4.15065
11
3.61716
21
-4.15708
0
LINE
8
BLACK
6
CONTINUOUS
10
3.61716
20
-4.15708
11
3.62786
21
-4.16151
0
LINE
8
BLACK
6
CONTINUOUS
10
3.62786
20
-4.16151
11
3.63921
21
-4.16377
0
LINE
8
BLACK
6
CONTINUOUS
10
3.63921
20
-4.16377
11
3.65079
21
-4.16377
0
LINE
8
BLACK
6
CONTINUOUS
10
3.65079
20
-4.16377
11
3.66214
21
-4.16151
0
LINE
8
BLACK
6
CONTINUOUS
10
3.66214
20
-4.16151
11
3.67284
21
-4.15708
0
LINE
8
BLACK
6
CONTINUOUS
10
3.67284
20
-4.15708
11
3.68246
21
-4.15065
0
LINE
8
BLACK
6
CONTINUOUS
10
3.68246
20
-4.15065
11
3.69065
21
-4.14246
0
LINE
8
BLACK
6
CONTINUOUS
10
3.69065
20
-4.14246
11
3.69708
21
-4.13284
0
LINE
8
BLACK
6
CONTINUOUS
10
3.69708
20
-4.13284
11
3.70151
21
-4.12214
0
LINE
8
BLACK
6
CONTINUOUS
10
3.70151
20
-4.12214
11
3.70377
21
-4.11079
0
LINE
8
BLACK
6
CONTINUOUS
10
3.70377
20
-4.11079
11
3.70377
21
-4.09921
0
LINE
8
BLACK
6
CONTINUOUS
10
3.70377
20
-4.09921
11
3.70151
21
-4.08786
0
LINE
8
BLACK
6
CONTINUOUS
10
3.70151
20
-4.08786
11
3.69708
21
-4.07716
0
LINE
8
BLACK
6
CONTINUOUS
10
3.69708
20
-4.07716
11
3.69065
21
-4.06754
0
LINE
8
BLACK
6
CONTINUOUS
10
3.69065
20
-4.06754
11
3.68246
21
-4.05935
0
LINE
8
BLACK
6
CONTINUOUS
10
3.68246
20
-4.05935
11
3.67284
21
-4.05292
0
LINE
8
BLACK
6
CONTINUOUS
10
3.67284
20
-4.05292
11
3.66214
21
-4.04849
0
LINE
8
BLACK
6
CONTINUOUS
10
3.66214
20
-4.04849
11
3.65079
21
-4.04623
0
LINE
8
BLACK
6
CONTINUOUS
10
3.65079
20
-4.04623
11
3.63921
21
-4.04623
0
LINE
8
BLACK
6
CONTINUOUS
10
3.63921
20
-4.04623
11
3.62786
21
-4.04849
0
LINE
8
BLACK
6
CONTINUOUS
10
3.62786
20
-4.04849
11
3.61716
21
-4.05292
0
LINE
8
BLACK
6
CONTINUOUS
10
3.61716
20
-4.05292
11
3.60754
21
-4.05935
0
LINE
8
BLACK
6
CONTINUOUS
10
3.60754
20
-4.05935
11
3.59935
21
-4.06754
0
LINE
8
BLACK
6
CONTINUOUS
10
3.59935
20
-4.06754
11
3.59292
21
-4.07716
0
LINE
8
BLACK
6
CONTINUOUS
10
3.59292
20
-4.07716
11
3.58849
21
-4.08786
0
LINE
8
BLACK
6
CONTINUOUS
10
3.58849
20
-4.08786
11
3.58623
21
-4.09921
0
LINE
8
BLACK
6
CONTINUOUS
10
3.58623
20
-4.09921
11
3.58623
21
-4.11079
0
LINE
8
BLACK
6
CONTINUOUS
10
3.58623
20
-4.11079
11
3.58849
21
-4.12214
0
LINE
8
BLACK
6
CONTINUOUS
10
8.81897
20
-4.08649
11
8.82375
21
-4.07493
0
LINE
8
BLACK
6
CONTINUOUS
10
8.82375
20
-4.07493
11
8.8307
21
-4.06454
0
LINE
8
BLACK
6
CONTINUOUS
10
8.8307
20
-4.06454
11
8.83954
21
-4.0557
0
LINE
8
BLACK
6
CONTINUOUS
10
8.83954
20
-4.0557
11
8.84993
21
-4.04875
0
LINE
8
BLACK
6
CONTINUOUS
10
8.84993
20
-4.04875
11
8.86149
21
-4.04397
0
LINE
8
BLACK
6
CONTINUOUS
10
8.86149
20
-4.04397
11
8.87375
21
-4.04153
0
LINE
8
BLACK
6
CONTINUOUS
10
8.87375
20
-4.04153
11
8.88625
21
-4.04153
0
LINE
8
BLACK
6
CONTINUOUS
10
8.88625
20
-4.04153
11
8.89851
21
-4.04397
0
LINE
8
BLACK
6
CONTINUOUS
10
8.89851
20
-4.04397
11
8.91007
21
-4.04875
0
LINE
8
BLACK
6
CONTINUOUS
10
8.91007
20
-4.04875
11
8.92046
21
-4.0557
0
LINE
8
BLACK
6
CONTINUOUS
10
8.92046
20
-4.0557
11
8.9293
21
-4.06454
0
LINE
8
BLACK
6
CONTINUOUS
10
8.9293
20
-4.06454
11
8.93625
21
-4.07493
0
LINE
8
BLACK
6
CONTINUOUS
10
8.93625
20
-4.07493
11
8.94103
21
-4.08649
0
LINE
8
BLACK
6
CONTINUOUS
10
8.94103
20
-4.08649
11
8.94347
21
-4.09875
0
LINE
8
BLACK
6
CONTINUOUS
10
8.94347
20
-4.09875
11
8.94347
21
-4.11125
0
LINE
8
BLACK
6
CONTINUOUS
10
8.94347
20
-4.11125
11
8.94103
21
-4.12351
0
LINE
8
BLACK
6
CONTINUOUS
10
8.94103
20
-4.12351
11
8.93625
21
-4.13507
0
LINE
8
BLACK
6
CONTINUOUS
10
8.93625
20
-4.13507
11
8.9293
21
-4.14546
0
LINE
8
BLACK
6
CONTINUOUS
10
8.9293
20
-4.14546
11
8.92046
21
-4.1543
0
LINE
8
BLACK
6
CONTINUOUS
10
8.92046
20
-4.1543
11
8.91007
21
-4.16125
0
LINE
8
BLACK
6
CONTINUOUS
10
8.91007
20
-4.16125
11
8.89851
21
-4.16603
0
LINE
8
BLACK
6
CONTINUOUS
10
8.89851
20
-4.16603
11
8.88625
21
-4.16847
0
LINE
8
BLACK
6
CONTINUOUS
10
8.88625
20
-4.16847
11
8.87375
21
-4.16847
0
LINE
8
BLACK
6
CONTINUOUS
10
8.87375
20
-4.16847
11
8.86149
21
-4.16603
0
LINE
8
BLACK
6
CONTINUOUS
10
8.86149
20
-4.16603
11
8.84993
21
-4.16125
0
LINE
8
BLACK
6
CONTINUOUS
10
8.84993
20
-4.16125
11
8.83954
21
-4.1543
0
LINE
8
BLACK
6
CONTINUOUS
10
8.83954
20
-4.1543
11
8.8307
21
-4.14546
0
LINE
8
BLACK
6
CONTINUOUS
10
8.8307
20
-4.14546
11
8.82375
21
-4.13507
0
LINE
8
BLACK
6
CONTINUOUS
10
8.82375
20
-4.13507
11
8.81897
21
-4.12351
0
LINE
8
BLACK
6
CONTINUOUS
10
8.81897
20
-4.12351
11
8.81653
21
-4.11125
0
LINE
8
BLACK
6
CONTINUOUS
10
8.81653
20
-4.11125
11
8.81653
21
-4.09875
0
LINE
8
BLACK
6
CONTINUOUS
10
8.81653
20
-4.09875
11
8.81897
21
-4.08649
0
LINE
8
BLACK
6
CONTINUOUS
10
8.82349
20
-4.12214
11
8.82792
21
-4.13284
0
LINE
8
BLACK
6
CONTINUOUS
10
8.82792
20
-4.13284
11
8.83435
21
-4.14246
0
LINE
8
BLACK
6
CONTINUOUS
10
8.83435
20
-4.14246
11
8.84254
21
-4.15065
0
LINE
8
BLACK
6
CONTINUOUS
10
8.84254
20
-4.15065
11
8.85216
21
-4.15708
0
LINE
8
BLACK
6
CONTINUOUS
10
8.85216
20
-4.15708
11
8.86286
21
-4.16151
0
LINE
8
BLACK
6
CONTINUOUS
10
8.86286
20
-4.16151
11
8.87421
21
-4.16377
0
LINE
8
BLACK
6
CONTINUOUS
10
8.87421
20
-4.16377
11
8.88579
21
-4.16377
0
LINE
8
BLACK
6
CONTINUOUS
10
8.88579
20
-4.16377
11
8.89714
21
-4.16151
0
LINE
8
BLACK
6
CONTINUOUS
10
8.89714
20
-4.16151
11
8.90784
21
-4.15708
0
LINE
8
BLACK
6
CONTINUOUS
10
8.90784
20
-4.15708
11
8.91746
21
-4.15065
0
LINE
8
BLACK
6
CONTINUOUS
10
8.91746
20
-4.15065
11
8.92565
21
-4.14246
0
LINE
8
BLACK
6
CONTINUOUS
10
8.92565
20
-4.14246
11
8.93208
21
-4.13284
0
LINE
8
BLACK
6
CONTINUOUS
10
8.93208
20
-4.13284
11
8.93651
21
-4.12214
0
LINE
8
BLACK
6
CONTINUOUS
10
8.93651
20
-4.12214
11
8.93877
21
-4.11079
0
LINE
8
BLACK
6
CONTINUOUS
10
8.93877
20
-4.11079
11
8.93877
21
-4.09921
0
LINE
8
BLACK
6
CONTINUOUS
10
8.93877
20
-4.09921
11
8.93651
21
-4.08786
0
LINE
8
BLACK
6
CONTINUOUS
10
8.93651
20
-4.08786
11
8.93208
21
-4.07716
0
LINE
8
BLACK
6
CONTINUOUS
10
8.93208
20
-4.07716
11
8.92565
21
-4.06754
0
LINE
8
BLACK
6
CONTINUOUS
10
8.92565
20
-4.06754
11
8.91746
21
-4.05935
0
LINE
8
BLACK
6
CONTINUOUS
10
8.91746
20
-4.05935
11
8.90784
21
-4.05292
0
LINE
8
BLACK
6
CONTINUOUS
10
8.90784
20
-4.05292
11
8.89714
21
-4.04849
0
LINE
8
BLACK
6
CONTINUOUS
10
8.89714
20
-4.04849
11
8.88579
21
-4.04623
0
LINE
8
BLACK
6
CONTINUOUS
10
8.88579
20
-4.04623
11
8.87421
21
-4.04623
0
LINE
8
BLACK
6
CONTINUOUS
10
8.87421
20
-4.04623
11
8.86286
21
-4.04849
0
LINE
8
BLACK
6
CONTINUOUS
10
8.86286
20
-4.04849
11
8.85216
21
-4.05292
0
LINE
8
BLACK
6
CONTINUOUS
10
8.85216
20
-4.05292
11
8.84254
21
-4.05935
0
LINE
8
BLACK
6
CONTINUOUS
10
8.84254
20
-4.05935
11
8.83435
21
-4.06754
0
LINE
8
BLACK
6
CONTINUOUS
10
8.83435
20
-4.06754
11
8.82792
21
-4.07716
0
LINE
8
BLACK
6
CONTINUOUS
10
8.82792
20
-4.07716
11
8.82349
21
-4.08786
0
LINE
8
BLACK
6
CONTINUOUS
10
8.82349
20
-4.08786
11
8.82123
21
-4.09921
0
LINE
8
BLACK
6
CONTINUOUS
10
8.82123
20
-4.09921
11
8.82123
21
-4.11079
0
LINE
8
BLACK
6
CONTINUOUS
10
8.82123
20
-4.11079
11
8.82349
21
-4.12214
0
LINE
8
BLACK
6
CONTINUOUS
10
10.699
20
-3.34649
11
10.7038
21
-3.33493
0
LINE
8
BLACK
6
CONTINUOUS
10
10.7038
20
-3.33493
11
10.7107
21
-3.32454
0
LINE
8
BLACK
6
CONTINUOUS
10
10.7107
20
-3.32454
11
10.7195
21
-3.3157
0
LINE
8
BLACK
6
CONTINUOUS
10
10.7195
20
-3.3157
11
10.7299
21
-3.30875
0
LINE
8
BLACK
6
CONTINUOUS
10
10.7299
20
-3.30875
11
10.7415
21
-3.30397
0
LINE
8
BLACK
6
CONTINUOUS
10
10.7415
20
-3.30397
11
10.7537
21
-3.30153
0
LINE
8
BLACK
6
CONTINUOUS
10
10.7537
20
-3.30153
11
10.7663
21
-3.30153
0
LINE
8
BLACK
6
CONTINUOUS
10
10.7663
20
-3.30153
11
10.7785
21
-3.30397
0
LINE
8
BLACK
6
CONTINUOUS
10
10.7785
20
-3.30397
11
10.7901
21
-3.30875
0
LINE
8
BLACK
6
CONTINUOUS
10
10.7901
20
-3.30875
11
10.8005
21
-3.3157
0
LINE
8
BLACK
6
CONTINUOUS
10
10.8005
20
-3.3157
11
10.8093
21
-3.32454
0
LINE
8
BLACK
6
CONTINUOUS
10
10.8093
20
-3.32454
11
10.8162
21
-3.33493
0
LINE
8
BLACK
6
CONTINUOUS
10
10.8162
20
-3.33493
11
10.821
21
-3.34649
0
LINE
8
BLACK
6
CONTINUOUS
10
10.821
20
-3.34649
11
10.8235
21
-3.35875
0
LINE
8
BLACK
6
CONTINUOUS
10
10.8235
20
-3.35875
11
10.8235
21
-3.37125
0
LINE
8
BLACK
6
CONTINUOUS
10
10.8235
20
-3.37125
11
10.821
21
-3.38351
0
LINE
8
BLACK
6
CONTINUOUS
10
10.821
20
-3.38351
11
10.8162
21
-3.39507
0
LINE
8
BLACK
6
CONTINUOUS
10
10.8162
20
-3.39507
11
10.8093
21
-3.40546
0
LINE
8
BLACK
6
CONTINUOUS
10
10.8093
20
-3.40546
11
10.8005
21
-3.4143
0
LINE
8
BLACK
6
CONTINUOUS
10
10.8005
20
-3.4143
11
10.7901
21
-3.42125
0
LINE
8
BLACK
6
CONTINUOUS
10
10.7901
20
-3.42125
11
10.7785
21
-3.42603
0
LINE
8
BLACK
6
CONTINUOUS
10
10.7785
20
-3.42603
11
10.7663
21
-3.42847
0
LINE
8
BLACK
6
CONTINUOUS
10
10.7663
20
-3.42847
11
10.7537
21
-3.42847
0
LINE
8
BLACK
6
CONTINUOUS
10
10.7537
20
-3.42847
11
10.7415
21
-3.42603
0
LINE
8
BLACK
6
CONTINUOUS
10
10.7415
20
-3.42603
11
10.7299
21
-3.42125
0
LINE
8
BLACK
6
CONTINUOUS
10
10.7299
20
-3.42125
11
10.7195
21
-3.4143
0
LINE
8
BLACK
6
CONTINUOUS
10
10.7195
20
-3.4143
11
10.7107
21
-3.40546
0
LINE
8
BLACK
6
CONTINUOUS
10
10.7107
20
-3.40546
11
10.7038
21
-3.39507
0
LINE
8
BLACK
6
CONTINUOUS
10
10.7038
20
-3.39507
11
10.699
21
-3.38351
0
LINE
8
BLACK
6
CONTINUOUS
10
10.699
20
-3.38351
11
10.6965
21
-3.37125
0
LINE
8
BLACK
6
CONTINUOUS
10
10.6965
20
-3.37125
11
10.6965
21
-3.35875
0
LINE
8
BLACK
6
CONTINUOUS
10
10.6965
20
-3.35875
11
10.699
21
-3.34649
0
LINE
8
BLACK
6
CONTINUOUS
10
10.7035
20
-3.38214
11
10.7079
21
-3.39284
0
LINE
8
BLACK
6
CONTINUOUS
10
10.7079
20
-3.39284
11
10.7143
21
-3.40246
0
LINE
8
BLACK
6
CONTINUOUS
10
10.7143
20
-3.40246
11
10.7225
21
-3.41065
0
LINE
8
BLACK
6
CONTINUOUS
10
10.7225
20
-3.41065
11
10.7322
21
-3.41708
0
LINE
8
BLACK
6
CONTINUOUS
10
10.7322
20
-3.41708
11
10.7429
21
-3.42151
0
LINE
8
BLACK
6
CONTINUOUS
10
10.7429
20
-3.42151
11
10.7542
21
-3.42377
0
LINE
8
BLACK
6
CONTINUOUS
10
10.7542
20
-3.42377
11
10.7658
21
-3.42377
0
LINE
8
BLACK
6
CONTINUOUS
10
10.7658
20
-3.42377
11
10.7771
21
-3.42151
0
LINE
8
BLACK
6
CONTINUOUS
10
10.7771
20
-3.42151
11
10.7878
21
-3.41708
0
LINE
8
BLACK
6
CONTINUOUS
10
10.7878
20
-3.41708
11
10.7975
21
-3.41065
0
LINE
8
BLACK
6
CONTINUOUS
10
10.7975
20
-3.41065
11
10.8057
21
-3.40246
0
LINE
8
BLACK
6
CONTINUOUS
10
10.8057
20
-3.40246
11
10.8121
21
-3.39284
0
LINE
8
BLACK
6
CONTINUOUS
10
10.8121
20
-3.39284
11
10.8165
21
-3.38214
0
LINE
8
BLACK
6
CONTINUOUS
10
10.8165
20
-3.38214
11
10.8188
21
-3.37079
0
LINE
8
BLACK
6
CONTINUOUS
10
10.8188
20
-3.37079
11
10.8188
21
-3.35921
0
LINE
8
BLACK
6
CONTINUOUS
10
10.8188
20
-3.35921
11
10.8165
21
-3.34786
0
LINE
8
BLACK
6
CONTINUOUS
10
10.8165
20
-3.34786
11
10.8121
21
-3.33716
0
LINE
8
BLACK
6
CONTINUOUS
10
10.8121
20
-3.33716
11
10.8057
21
-3.32754
0
LINE
8
BLACK
6
CONTINUOUS
10
10.8057
20
-3.32754
11
10.7975
21
-3.31935
0
LINE
8
BLACK
6
CONTINUOUS
10
10.7975
20
-3.31935
11
10.7878
21
-3.31292
0
LINE
8
BLACK
6
CONTINUOUS
10
10.7878
20
-3.31292
11
10.7771
21
-3.30849
0
LINE
8
BLACK
6
CONTINUOUS
10
10.7771
20
-3.30849
11
10.7658
21
-3.30623
0
LINE
8
BLACK
6
CONTINUOUS
10
10.7658
20
-3.30623
11
10.7542
21
-3.30623
0
LINE
8
BLACK
6
CONTINUOUS
10
10.7542
20
-3.30623
11
10.7429
21
-3.30849
0
LINE
8
BLACK
6
CONTINUOUS
10
10.7429
20
-3.30849
11
10.7322
21
-3.31292
0
LINE
8
BLACK
6
CONTINUOUS
10
10.7322
20
-3.31292
11
10.7225
21
-3.31935
0
LINE
8
BLACK
6
CONTINUOUS
10
10.7225
20
-3.31935
11
10.7143
21
-3.32754
0
LINE
8
BLACK
6
CONTINUOUS
10
10.7143
20
-3.32754
11
10.7079
21
-3.33716
0
LINE
8
BLACK
6
CONTINUOUS
10
10.7079
20
-3.33716
11
10.7035
21
-3.34786
0
LINE
8
BLACK
6
CONTINUOUS
10
10.7035
20
-3.34786
11
10.7012
21
-3.35921
0
LINE
8
BLACK
6
CONTINUOUS
10
10.7012
20
-3.35921
11
10.7012
21
-3.37079
0
LINE
8
BLACK
6
CONTINUOUS
10
10.7012
20
-3.37079
11
10.7035
21
-3.38214
0
LINE
8
BLACK
6
CONTINUOUS
10
14.099
20
-3.34149
11
14.1038
21
-3.32993
0
LINE
8
BLACK
6
CONTINUOUS
10
14.1038
20
-3.32993
11
14.1107
21
-3.31954
0
LINE
8
BLACK
6
CONTINUOUS
10
14.1107
20
-3.31954
11
14.1195
21
-3.3107
0
LINE
8
BLACK
6
CONTINUOUS
10
14.1195
20
-3.3107
11
14.1299
21
-3.30375
0
LINE
8
BLACK
6
CONTINUOUS
10
14.1299
20
-3.30375
11
14.1415
21
-3.29897
0
LINE
8
BLACK
6
CONTINUOUS
10
14.1415
20
-3.29897
11
14.1537
21
-3.29653
0
LINE
8
BLACK
6
CONTINUOUS
10
14.1537
20
-3.29653
11
14.1663
21
-3.29653
0
LINE
8
BLACK
6
CONTINUOUS
10
14.1663
20
-3.29653
11
14.1785
21
-3.29897
0
LINE
8
BLACK
6
CONTINUOUS
10
14.1785
20
-3.29897
11
14.1901
21
-3.30375
0
LINE
8
BLACK
6
CONTINUOUS
10
14.1901
20
-3.30375
11
14.2005
21
-3.3107
0
LINE
8
BLACK
6
CONTINUOUS
10
14.2005
20
-3.3107
11
14.2093
21
-3.31954
0
LINE
8
BLACK
6
CONTINUOUS
10
14.2093
20
-3.31954
11
14.2162
21
-3.32993
0
LINE
8
BLACK
6
CONTINUOUS
10
14.2162
20
-3.32993
11
14.221
21
-3.34149
0
LINE
8
BLACK
6
CONTINUOUS
10
14.221
20
-3.34149
11
14.2235
21
-3.35375
0
LINE
8
BLACK
6
CONTINUOUS
10
14.2235
20
-3.35375
11
14.2235
21
-3.36625
0
LINE
8
BLACK
6
CONTINUOUS
10
14.2235
20
-3.36625
11
14.221
21
-3.37851
0
LINE
8
BLACK
6
CONTINUOUS
10
14.221
20
-3.37851
11
14.2162
21
-3.39007
0
LINE
8
BLACK
6
CONTINUOUS
10
14.2162
20
-3.39007
11
14.2093
21
-3.40046
0
LINE
8
BLACK
6
CONTINUOUS
10
14.2093
20
-3.40046
11
14.2005
21
-3.4093
0
LINE
8
BLACK
6
CONTINUOUS
10
14.2005
20
-3.4093
11
14.1901
21
-3.41625
0
LINE
8
BLACK
6
CONTINUOUS
10
14.1901
20
-3.41625
11
14.1785
21
-3.42103
0
LINE
8
BLACK
6
CONTINUOUS
10
14.1785
20
-3.42103
11
14.1663
21
-3.42347
0
LINE
8
BLACK
6
CONTINUOUS
10
14.1663
20
-3.42347
11
14.1537
21
-3.42347
0
LINE
8
BLACK
6
CONTINUOUS
10
14.1537
20
-3.42347
11
14.1415
21
-3.42103
0
LINE
8
BLACK
6
CONTINUOUS
10
14.1415
20
-3.42103
11
14.1299
21
-3.41625
0
LINE
8
BLACK
6
CONTINUOUS
10
14.1299
20
-3.41625
11
14.1195
21
-3.4093
0
LINE
8
BLACK
6
CONTINUOUS
10
14.1195
20
-3.4093
11
14.1107
21
-3.40046
0
LINE
8
BLACK
6
CONTINUOUS
10
14.1107
20
-3.40046
11
14.1038
21
-3.39007
0
LINE
8
BLACK
6
CONTINUOUS
10
14.1038
20
-3.39007
11
14.099
21
-3.37851
0
LINE
8
BLACK
6
CONTINUOUS
10
14.099
20
-3.37851
11
14.0965
21
-3.36625
0
LINE
8
BLACK
6
CONTINUOUS
10
14.0965
20
-3.36625
11
14.0965
21
-3.35375
0
LINE
8
BLACK
6
CONTINUOUS
10
14.0965
20
-3.35375
11
14.099
21
-3.34149
0
LINE
8
BLACK
6
CONTINUOUS
10
14.1035
20
-3.37714
11
14.1079
21
-3.38784
0
LINE
8
BLACK
6
CONTINUOUS
10
14.1079
20
-3.38784
11
14.1143
21
-3.39746
0
LINE
8
BLACK
6
CONTINUOUS
10
14.1143
20
-3.39746
11
14.1225
21
-3.40565
0
LINE
8
BLACK
6
CONTINUOUS
10
14.1225
20
-3.40565
11
14.1322
21
-3.41208
0
LINE
8
BLACK
6
CONTINUOUS
10
14.1322
20
-3.41208
11
14.1429
21
-3.41651
0
LINE
8
BLACK
6
CONTINUOUS
10
14.1429
20
-3.41651
11
14.1542
21
-3.41877
0
LINE
8
BLACK
6
CONTINUOUS
10
14.1542
20
-3.41877
11
14.1658
21
-3.41877
0
LINE
8
BLACK
6
CONTINUOUS
10
14.1658
20
-3.41877
11
14.1771
21
-3.41651
0
LINE
8
BLACK
6
CONTINUOUS
10
14.1771
20
-3.41651
11
14.1878
21
-3.41208
0
LINE
8
BLACK
6
CONTINUOUS
10
14.1878
20
-3.41208
11
14.1975
21
-3.40565
0
LINE
8
BLACK
6
CONTINUOUS
10
14.1975
20
-3.40565
11
14.2057
21
-3.39746
0
LINE
8
BLACK
6
CONTINUOUS
10
14.2057
20
-3.39746
11
14.2121
21
-3.38784
0
LINE
8
BLACK
6
CONTINUOUS
10
14.2121
20
-3.38784
11
14.2165
21
-3.37714
0
LINE
8
BLACK
6
CONTINUOUS
10
14.2165
20
-3.37714
11
14.2188
21
-3.36579
0
LINE
8
BLACK
6
CONTINUOUS
10
14.2188
20
-3.36579
11
14.2188
21
-3.35421
0
LINE
8
BLACK
6
CONTINUOUS
10
14.2188
20
-3.35421
11
14.2165
21
-3.34286
0
LINE
8
BLACK
6
CONTINUOUS
10
14.2165
20
-3.34286
11
14.2121
21
-3.33216
0
LINE
8
BLACK
6
CONTINUOUS
10
14.2121
20
-3.33216
11
14.2057
21
-3.32254
0
LINE
8
BLACK
6
CONTINUOUS
10
14.2057
20
-3.32254
11
14.1975
21
-3.31435
0
LINE
8
BLACK
6
CONTINUOUS
10
14.1975
20
-3.31435
11
14.1878
21
-3.30792
0
LINE
8
BLACK
6
CONTINUOUS
10
14.1878
20
-3.30792
11
14.1771
21
-3.30349
0
LINE
8
BLACK
6
CONTINUOUS
10
14.1771
20
-3.30349
11
14.1658
21
-3.30123
0
LINE
8
BLACK
6
CONTINUOUS
10
14.1658
20
-3.30123
11
14.1542
21
-3.30123
0
LINE
8
BLACK
6
CONTINUOUS
10
14.1542
20
-3.30123
11
14.1429
21
-3.30349
0
LINE
8
BLACK
6
CONTINUOUS
10
14.1429
20
-3.30349
11
14.1322
21
-3.30792
0
LINE
8
BLACK
6
CONTINUOUS
10
14.1322
20
-3.30792
11
14.1225
21
-3.31435
0
LINE
8
BLACK
6
CONTINUOUS
10
14.1225
20
-3.31435
11
14.1143
21
-3.32254
0
LINE
8
BLACK
6
CONTINUOUS
10
14.1143
20
-3.32254
11
14.1079
21
-3.33216
0
LINE
8
BLACK
6
CONTINUOUS
10
14.1079
20
-3.33216
11
14.1035
21
-3.34286
0
LINE
8
BLACK
6
CONTINUOUS
10
14.1035
20
-3.34286
11
14.1012
21
-3.35421
0
LINE
8
BLACK
6
CONTINUOUS
10
14.1012
20
-3.35421
11
14.1012
21
-3.36579
0
LINE
8
BLACK
6
CONTINUOUS
10
14.1012
20
-3.36579
11
14.1035
21
-3.37714
0
LINE
8
BLACK
6
CONTINUOUS
10
8.23897
20
-2.59149
11
8.24375
21
-2.57993
0
LINE
8
BLACK
6
CONTINUOUS
10
8.24375
20
-2.57993
11
8.2507
21
-2.56954
0
LINE
8
BLACK
6
CONTINUOUS
10
8.2507
20
-2.56954
11
8.25954
21
-2.5607
0
LINE
8
BLACK
6
CONTINUOUS
10
8.25954
20
-2.5607
11
8.26993
21
-2.55375
0
LINE
8
BLACK
6
CONTINUOUS
10
8.26993
20
-2.55375
11
8.28149
21
-2.54897
0
LINE
8
BLACK
6
CONTINUOUS
10
8.28149
20
-2.54897
11
8.29375
21
-2.54653
0
LINE
8
BLACK
6
CONTINUOUS
10
8.29375
20
-2.54653
11
8.30625
21
-2.54653
0
LINE
8
BLACK
6
CONTINUOUS
10
8.30625
20
-2.54653
11
8.31851
21
-2.54897
0
LINE
8
BLACK
6
CONTINUOUS
10
8.31851
20
-2.54897
11
8.33007
21
-2.55375
0
LINE
8
BLACK
6
CONTINUOUS
10
8.33007
20
-2.55375
11
8.34046
21
-2.5607
0
LINE
8
BLACK
6
CONTINUOUS
10
8.34046
20
-2.5607
11
8.3493
21
-2.56954
0
LINE
8
BLACK
6
CONTINUOUS
10
8.3493
20
-2.56954
11
8.35625
21
-2.57993
0
LINE
8
BLACK
6
CONTINUOUS
10
8.35625
20
-2.57993
11
8.36103
21
-2.59149
0
LINE
8
BLACK
6
CONTINUOUS
10
8.36103
20
-2.59149
11
8.36347
21
-2.60375
0
LINE
8
BLACK
6
CONTINUOUS
10
8.36347
20
-2.60375
11
8.36347
21
-2.61625
0
LINE
8
BLACK
6
CONTINUOUS
10
8.36347
20
-2.61625
11
8.36103
21
-2.62851
0
LINE
8
BLACK
6
CONTINUOUS
10
8.36103
20
-2.62851
11
8.35625
21
-2.64007
0
LINE
8
BLACK
6
CONTINUOUS
10
8.35625
20
-2.64007
11
8.3493
21
-2.65046
0
LINE
8
BLACK
6
CONTINUOUS
10
8.3493
20
-2.65046
11
8.34046
21
-2.6593
0
LINE
8
BLACK
6
CONTINUOUS
10
8.34046
20
-2.6593
11
8.33007
21
-2.66625
0
LINE
8
BLACK
6
CONTINUOUS
10
8.33007
20
-2.66625
11
8.31851
21
-2.67103
0
LINE
8
BLACK
6
CONTINUOUS
10
8.31851
20
-2.67103
11
8.30625
21
-2.67347
0
LINE
8
BLACK
6
CONTINUOUS
10
8.30625
20
-2.67347
11
8.29375
21
-2.67347
0
LINE
8
BLACK
6
CONTINUOUS
10
8.29375
20
-2.67347
11
8.28149
21
-2.67103
0
LINE
8
BLACK
6
CONTINUOUS
10
8.28149
20
-2.67103
11
8.26993
21
-2.66625
0
LINE
8
BLACK
6
CONTINUOUS
10
8.26993
20
-2.66625
11
8.25954
21
-2.6593
0
LINE
8
BLACK
6
CONTINUOUS
10
8.25954
20
-2.6593
11
8.2507
21
-2.65046
0
LINE
8
BLACK
6
CONTINUOUS
10
8.2507
20
-2.65046
11
8.24375
21
-2.64007
0
LINE
8
BLACK
6
CONTINUOUS
10
8.24375
20
-2.64007
11
8.23897
21
-2.62851
0
LINE
8
BLACK
6
CONTINUOUS
10
8.23897
20
-2.62851
11
8.23653
21
-2.61625
0
LINE
8
BLACK
6
CONTINUOUS
10
8.23653
20
-2.61625
11
8.23653
21
-2.60375
0
LINE
8
BLACK
6
CONTINUOUS
10
8.23653
20
-2.60375
11
8.23897
21
-2.59149
0
LINE
8
BLACK
6
CONTINUOUS
10
8.24349
20
-2.62714
11
8.24792
21
-2.63784
0
LINE
8
BLACK
6
CONTINUOUS
10
8.24792
20
-2.63784
11
8.25435
21
-2.64746
0
LINE
8
BLACK
6
CONTINUOUS
10
8.25435
20
-2.64746
11
8.26254
21
-2.65565
0
LINE
8
BLACK
6
CONTINUOUS
10
8.26254
20
-2.65565
11
8.27216
21
-2.66208
0
LINE
8
BLACK
6
CONTINUOUS
10
8.27216
20
-2.66208
11
8.28286
21
-2.66651
0
LINE
8
BLACK
6
CONTINUOUS
10
8.28286
20
-2.66651
11
8.29421
21
-2.66877
0
LINE
8
BLACK
6
CONTINUOUS
10
8.29421
20
-2.66877
11
8.30579
21
-2.66877
0
LINE
8
BLACK
6
CONTINUOUS
10
8.30579
20
-2.66877
11
8.31714
21
-2.66651
0
LINE
8
BLACK
6
CONTINUOUS
10
8.31714
20
-2.66651
11
8.32784
21
-2.66208
0
LINE
8
BLACK
6
CONTINUOUS
10
8.32784
20
-2.66208
11
8.33746
21
-2.65565
0
LINE
8
BLACK
6
CONTINUOUS
10
8.33746
20
-2.65565
11
8.34565
21
-2.64746
0
LINE
8
BLACK
6
CONTINUOUS
10
8.34565
20
-2.64746
11
8.35208
21
-2.63784
0
LINE
8
BLACK
6
CONTINUOUS
10
8.35208
20
-2.63784
11
8.35651
21
-2.62714
0
LINE
8
BLACK
6
CONTINUOUS
10
8.35651
20
-2.62714
11
8.35877
21
-2.61579
0
LINE
8
BLACK
6
CONTINUOUS
10
8.35877
20
-2.61579
11
8.35877
21
-2.60421
0
LINE
8
BLACK
6
CONTINUOUS
10
8.35877
20
-2.60421
11
8.35651
21
-2.59286
0
LINE
8
BLACK
6
CONTINUOUS
10
8.35651
20
-2.59286
11
8.35208
21
-2.58216
0
LINE
8
BLACK
6
CONTINUOUS
10
8.35208
20
-2.58216
11
8.34565
21
-2.57254
0
LINE
8
BLACK
6
CONTINUOUS
10
8.34565
20
-2.57254
11
8.33746
21
-2.56435
0
LINE
8
BLACK
6
CONTINUOUS
10
8.33746
20
-2.56435
11
8.32784
21
-2.55792
0
LINE
8
BLACK
6
CONTINUOUS
10
8.32784
20
-2.55792
11
8.31714
21
-2.55349
0
LINE
8
BLACK
6
CONTINUOUS
10
8.31714
20
-2.55349
11
8.30579
21
-2.55123
0
LINE
8
BLACK
6
CONTINUOUS
10
8.30579
20
-2.55123
11
8.29421
21
-2.55123
0
LINE
8
BLACK
6
CONTINUOUS
10
8.29421
20
-2.55123
11
8.28286
21
-2.55349
0
LINE
8
BLACK
6
CONTINUOUS
10
8.28286
20
-2.55349
11
8.27216
21
-2.55792
0
LINE
8
BLACK
6
CONTINUOUS
10
8.27216
20
-2.55792
11
8.26254
21
-2.56435
0
LINE
8
BLACK
6
CONTINUOUS
10
8.26254
20
-2.56435
11
8.25435
21
-2.57254
0
LINE
8
BLACK
6
CONTINUOUS
10
8.25435
20
-2.57254
11
8.24792
21
-2.58216
0
LINE
8
BLACK
6
CONTINUOUS
10
8.24792
20
-2.58216
11
8.24349
21
-2.59286
0
LINE
8
BLACK
6
CONTINUOUS
10
8.24349
20
-2.59286
11
8.24123
21
-2.60421
0
LINE
8
BLACK
6
CONTINUOUS
10
8.24123
20
-2.60421
11
8.24123
21
-2.61579
0
LINE
8
BLACK
6
CONTINUOUS
10
8.24123
20
-2.61579
11
8.24349
21
-2.62714
0
LINE
8
BLACK
6
CONTINUOUS
10
5.26397
20
-2.59149
11
5.26875
21
-2.57993
0
LINE
8
BLACK
6
CONTINUOUS
10
5.26875
20
-2.57993
11
5.2757
21
-2.56954
0
LINE
8
BLACK
6
CONTINUOUS
10
5.2757
20
-2.56954
11
5.28454
21
-2.5607
0
LINE
8
BLACK
6
CONTINUOUS
10
5.28454
20
-2.5607
11
5.29493
21
-2.55375
0
LINE
8
BLACK
6
CONTINUOUS
10
5.29493
20
-2.55375
11
5.30649
21
-2.54897
0
LINE
8
BLACK
6
CONTINUOUS
10
5.30649
20
-2.54897
11
5.31875
21
-2.54653
0
LINE
8
BLACK
6
CONTINUOUS
10
5.31875
20
-2.54653
11
5.33125
21
-2.54653
0
LINE
8
BLACK
6
CONTINUOUS
10
5.33125
20
-2.54653
11
5.34351
21
-2.54897
0
LINE
8
BLACK
6
CONTINUOUS
10
5.34351
20
-2.54897
11
5.35507
21
-2.55375
0
LINE
8
BLACK
6
CONTINUOUS
10
5.35507
20
-2.55375
11
5.36546
21
-2.5607
0
LINE
8
BLACK
6
CONTINUOUS
10
5.36546
20
-2.5607
11
5.3743
21
-2.56954
0
LINE
8
BLACK
6
CONTINUOUS
10
5.3743
20
-2.56954
11
5.38125
21
-2.57993
0
LINE
8
BLACK
6
CONTINUOUS
10
5.38125
20
-2.57993
11
5.38603
21
-2.59149
0
LINE
8
BLACK
6
CONTINUOUS
10
5.38603
20
-2.59149
11
5.38847
21
-2.60375
0
LINE
8
BLACK
6
CONTINUOUS
10
5.38847
20
-2.60375
11
5.38847
21
-2.61625
0
LINE
8
BLACK
6
CONTINUOUS
10
5.38847
20
-2.61625
11
5.38603
21
-2.62851
0
LINE
8
BLACK
6
CONTINUOUS
10
5.38603
20
-2.62851
11
5.38125
21
-2.64007
0
LINE
8
BLACK
6
CONTINUOUS
10
5.38125
20
-2.64007
11
5.3743
21
-2.65046
0
LINE
8
BLACK
6
CONTINUOUS
10
5.3743
20
-2.65046
11
5.36546
21
-2.6593
0
LINE
8
BLACK
6
CONTINUOUS
10
5.36546
20
-2.6593
11
5.35507
21
-2.66625
0
LINE
8
BLACK
6
CONTINUOUS
10
5.35507
20
-2.66625
11
5.34351
21
-2.67103
0
LINE
8
BLACK
6
CONTINUOUS
10
5.34351
20
-2.67103
11
5.33125
21
-2.67347
0
LINE
8
BLACK
6
CONTINUOUS
10
5.33125
20
-2.67347
11
5.31875
21
-2.67347
0
LINE
8
BLACK
6
CONTINUOUS
10
5.31875
20
-2.67347
11
5.30649
21
-2.67103
0
LINE
8
BLACK
6
CONTINUOUS
10
5.30649
20
-2.67103
11
5.29493
21
-2.66625
0
LINE
8
BLACK
6
CONTINUOUS
10
5.29493
20
-2.66625
11
5.28454
21
-2.6593
0
LINE
8
BLACK
6
CONTINUOUS
10
5.28454
20
-2.6593
11
5.2757
21
-2.65046
0
LINE
8
BLACK
6
CONTINUOUS
10
5.2757
20
-2.65046
11
5.26875
21
-2.64007
0
LINE
8
BLACK
6
CONTINUOUS
10
5.26875
20
-2.64007
11
5.26397
21
-2.62851
0
LINE
8
BLACK
6
CONTINUOUS
10
5.26397
20
-2.62851
11
5.26153
21
-2.61625
0
LINE
8
BLACK
6
CONTINUOUS
10
5.26153
20
-2.61625
11
5.26153
21
-2.60375
0
LINE
8
BLACK
6
CONTINUOUS
10
5.26153
20
-2.60375
11
5.26397
21
-2.59149
0
LINE
8
BLACK
6
CONTINUOUS
10
5.26849
20
-2.62714
11
5.27292
21
-2.63784
0
LINE
8
BLACK
6
CONTINUOUS
10
5.27292
20
-2.63784
11
5.27935
21
-2.64746
0
LINE
8
BLACK
6
CONTINUOUS
10
5.27935
20
-2.64746
11
5.28754
21
-2.65565
0
LINE
8
BLACK
6
CONTINUOUS
10
5.28754
20
-2.65565
11
5.29716
21
-2.66208
0
LINE
8
BLACK
6
CONTINUOUS
10
5.29716
20
-2.66208
11
5.30786
21
-2.66651
0
LINE
8
BLACK
6
CONTINUOUS
10
5.30786
20
-2.66651
11
5.31921
21
-2.66877
0
LINE
8
BLACK
6
CONTINUOUS
10
5.31921
20
-2.66877
11
5.33079
21
-2.66877
0
LINE
8
BLACK
6
CONTINUOUS
10
5.33079
20
-2.66877
11
5.34214
21
-2.66651
0
LINE
8
BLACK
6
CONTINUOUS
10
5.34214
20
-2.66651
11
5.35284
21
-2.66208
0
LINE
8
BLACK
6
CONTINUOUS
10
5.35284
20
-2.66208
11
5.36246
21
-2.65565
0
LINE
8
BLACK
6
CONTINUOUS
10
5.36246
20
-2.65565
11
5.37065
21
-2.64746
0
LINE
8
BLACK
6
CONTINUOUS
10
5.37065
20
-2.64746
11
5.37708
21
-2.63784
0
LINE
8
BLACK
6
CONTINUOUS
10
5.37708
20
-2.63784
11
5.38151
21
-2.62714
0
LINE
8
BLACK
6
CONTINUOUS
10
5.38151
20
-2.62714
11
5.38377
21
-2.61579
0
LINE
8
BLACK
6
CONTINUOUS
10
5.38377
20
-2.61579
11
5.38377
21
-2.60421
0
LINE
8
BLACK
6
CONTINUOUS
10
5.38377
20
-2.60421
11
5.38151
21
-2.59286
0
LINE
8
BLACK
6
CONTINUOUS
10
5.38151
20
-2.59286
11
5.37708
21
-2.58216
0
LINE
8
BLACK
6
CONTINUOUS
10
5.37708
20
-2.58216
11
5.37065
21
-2.57254
0
LINE
8
BLACK
6
CONTINUOUS
10
5.37065
20
-2.57254
11
5.36246
21
-2.56435
0
LINE
8
BLACK
6
CONTINUOUS
10
5.36246
20
-2.56435
11
5.35284
21
-2.55792
0
LINE
8
BLACK
6
CONTINUOUS
10
5.35284
20
-2.55792
11
5.34214
21
-2.55349
0
LINE
8
BLACK
6
CONTINUOUS
10
5.34214
20
-2.55349
11
5.33079
21
-2.55123
0
LINE
8
BLACK
6
CONTINUOUS
10
5.33079
20
-2.55123
11
5.31921
21
-2.55123
0
LINE
8
BLACK
6
CONTINUOUS
10
5.31921
20
-2.55123
11
5.30786
21
-2.55349
0
LINE
8
BLACK
6
CONTINUOUS
10
5.30786
20
-2.55349
11
5.29716
21
-2.55792
0
LINE
8
BLACK
6
CONTINUOUS
10
5.29716
20
-2.55792
11
5.28754
21
-2.56435
0
LINE
8
BLACK
6
CONTINUOUS
10
5.28754
20
-2.56435
11
5.27935
21
-2.57254
0
LINE
8
BLACK
6
CONTINUOUS
10
5.27935
20
-2.57254
11
5.27292
21
-2.58216
0
LINE
8
BLACK
6
CONTINUOUS
10
5.27292
20
-2.58216
11
5.26849
21
-2.59286
0
LINE
8
BLACK
6
CONTINUOUS
10
5.26849
20
-2.59286
11
5.26623
21
-2.60421
0
LINE
8
BLACK
6
CONTINUOUS
10
5.26623
20
-2.60421
11
5.26623
21
-2.61579
0
LINE
8
BLACK
6
CONTINUOUS
10
5.26623
20
-2.61579
11
5.26849
21
-2.62714
0
LINE
8
BLACK
6
CONTINUOUS
10
13.354
20
-2.59149
11
13.3588
21
-2.57993
0
LINE
8
BLACK
6
CONTINUOUS
10
13.3588
20
-2.57993
11
13.3657
21
-2.56954
0
LINE
8
BLACK
6
CONTINUOUS
10
13.3657
20
-2.56954
11
13.3745
21
-2.5607
0
LINE
8
BLACK
6
CONTINUOUS
10
13.3745
20
-2.5607
11
13.3849
21
-2.55375
0
LINE
8
BLACK
6
CONTINUOUS
10
13.3849
20
-2.55375
11
13.3965
21
-2.54897
0
LINE
8
BLACK
6
CONTINUOUS
10
13.3965
20
-2.54897
11
13.4087
21
-2.54653
0
LINE
8
BLACK
6
CONTINUOUS
10
13.4087
20
-2.54653
11
13.4213
21
-2.54653
0
LINE
8
BLACK
6
CONTINUOUS
10
13.4213
20
-2.54653
11
13.4335
21
-2.54897
0
LINE
8
BLACK
6
CONTINUOUS
10
13.4335
20
-2.54897
11
13.4451
21
-2.55375
0
LINE
8
BLACK
6
CONTINUOUS
10
13.4451
20
-2.55375
11
13.4555
21
-2.5607
0
LINE
8
BLACK
6
CONTINUOUS
10
13.4555
20
-2.5607
11
13.4643
21
-2.56954
0
LINE
8
BLACK
6
CONTINUOUS
10
13.4643
20
-2.56954
11
13.4712
21
-2.57993
0
LINE
8
BLACK
6
CONTINUOUS
10
13.4712
20
-2.57993
11
13.476
21
-2.59149
0
LINE
8
BLACK
6
CONTINUOUS
10
13.476
20
-2.59149
11
13.4785
21
-2.60375
0
LINE
8
BLACK
6
CONTINUOUS
10
13.4785
20
-2.60375
11
13.4785
21
-2.61625
0
LINE
8
BLACK
6
CONTINUOUS
10
13.4785
20
-2.61625
11
13.476
21
-2.62851
0
LINE
8
BLACK
6
CONTINUOUS
10
13.476
20
-2.62851
11
13.4712
21
-2.64007
0
LINE
8
BLACK
6
CONTINUOUS
10
13.4712
20
-2.64007
11
13.4643
21
-2.65046
0
LINE
8
BLACK
6
CONTINUOUS
10
13.4643
20
-2.65046
11
13.4555
21
-2.6593
0
LINE
8
BLACK
6
CONTINUOUS
10
13.4555
20
-2.6593
11
13.4451
21
-2.66625
0
LINE
8
BLACK
6
CONTINUOUS
10
13.4451
20
-2.66625
11
13.4335
21
-2.67103
0
LINE
8
BLACK
6
CONTINUOUS
10
13.4335
20
-2.67103
11
13.4213
21
-2.67347
0
LINE
8
BLACK
6
CONTINUOUS
10
13.4213
20
-2.67347
11
13.4087
21
-2.67347
0
LINE
8
BLACK
6
CONTINUOUS
10
13.4087
20
-2.67347
11
13.3965
21
-2.67103
0
LINE
8
BLACK
6
CONTINUOUS
10
13.3965
20
-2.67103
11
13.3849
21
-2.66625
0
LINE
8
BLACK
6
CONTINUOUS
10
13.3849
20
-2.66625
11
13.3745
21
-2.6593
0
LINE
8
BLACK
6
CONTINUOUS
10
13.3745
20
-2.6593
11
13.3657
21
-2.65046
0
LINE
8
BLACK
6
CONTINUOUS
10
13.3657
20
-2.65046
11
13.3588
21
-2.64007
0
LINE
8
BLACK
6
CONTINUOUS
10
13.3588
20
-2.64007
11
13.354
21
-2.62851
0
LINE
8
BLACK
6
CONTINUOUS
10
13.354
20
-2.62851
11
13.3515
21
-2.61625
0
LINE
8
BLACK
6
CONTINUOUS
10
13.3515
20
-2.61625
11
13.3515
21
-2.60375
0
LINE
8
BLACK
6
CONTINUOUS
10
13.3515
20
-2.60375
11
13.354
21
-2.59149
0
LINE
8
BLACK
6
CONTINUOUS
10
13.3585
20
-2.62714
11
13.3629
21
-2.63784
0
LINE
8
BLACK
6
CONTINUOUS
10
13.3629
20
-2.63784
11
13.3693
21
-2.64746
0
LINE
8
BLACK
6
CONTINUOUS
10
13.3693
20
-2.64746
11
13.3775
21
-2.65565
0
LINE
8
BLACK
6
CONTINUOUS
10
13.3775
20
-2.65565
11
13.3872
21
-2.66208
0
LINE
8
BLACK
6
CONTINUOUS
10
13.3872
20
-2.66208
11
13.3979
21
-2.66651
0
LINE
8
BLACK
6
CONTINUOUS
10
13.3979
20
-2.66651
11
13.4092
21
-2.66877
0
LINE
8
BLACK
6
CONTINUOUS
10
13.4092
20
-2.66877
11
13.4208
21
-2.66877
0
LINE
8
BLACK
6
CONTINUOUS
10
13.4208
20
-2.66877
11
13.4321
21
-2.66651
0
LINE
8
BLACK
6
CONTINUOUS
10
13.4321
20
-2.66651
11
13.4428
21
-2.66208
0
LINE
8
BLACK
6
CONTINUOUS
10
13.4428
20
-2.66208
11
13.4525
21
-2.65565
0
LINE
8
BLACK
6
CONTINUOUS
10
13.4525
20
-2.65565
11
13.4607
21
-2.64746
0
LINE
8
BLACK
6
CONTINUOUS
10
13.4607
20
-2.64746
11
13.4671
21
-2.63784
0
LINE
8
BLACK
6
CONTINUOUS
10
13.4671
20
-2.63784
11
13.4715
21
-2.62714
0
LINE
8
BLACK
6
CONTINUOUS
10
13.4715
20
-2.62714
11
13.4738
21
-2.61579
0
LINE
8
BLACK
6
CONTINUOUS
10
13.4738
20
-2.61579
11
13.4738
21
-2.60421
0
LINE
8
BLACK
6
CONTINUOUS
10
13.4738
20
-2.60421
11
13.4715
21
-2.59286
0
LINE
8
BLACK
6
CONTINUOUS
10
13.4715
20
-2.59286
11
13.4671
21
-2.58216
0
LINE
8
BLACK
6
CONTINUOUS
10
13.4671
20
-2.58216
11
13.4607
21
-2.57254
0
LINE
8
BLACK
6
CONTINUOUS
10
13.4607
20
-2.57254
11
13.4525
21
-2.56435
0
LINE
8
BLACK
6
CONTINUOUS
10
13.4525
20
-2.56435
11
13.4428
21
-2.55792
0
LINE
8
BLACK
6
CONTINUOUS
10
13.4428
20
-2.55792
11
13.4321
21
-2.55349
0
LINE
8
BLACK
6
CONTINUOUS
10
13.4321
20
-2.55349
11
13.4208
21
-2.55123
0
LINE
8
BLACK
6
CONTINUOUS
10
13.4208
20
-2.55123
11
13.4092
21
-2.55123
0
LINE
8
BLACK
6
CONTINUOUS
10
13.4092
20
-2.55123
11
13.3979
21
-2.55349
0
LINE
8
BLACK
6
CONTINUOUS
10
13.3979
20
-2.55349
11
13.3872
21
-2.55792
0
LINE
8
BLACK
6
CONTINUOUS
10
13.3872
20
-2.55792
11
13.3775
21
-2.56435
0
LINE
8
BLACK
6
CONTINUOUS
10
13.3775
20
-2.56435
11
13.3693
21
-2.57254
0
LINE
8
BLACK
6
CONTINUOUS
10
13.3693
20
-2.57254
11
13.3629
21
-2.58216
0
LINE
8
BLACK
6
CONTINUOUS
10
13.3629
20
-2.58216
11
13.3585
21
-2.59286
0
LINE
8
BLACK
6
CONTINUOUS
10
13.3585
20
-2.59286
11
13.3562
21
-2.60421
0
LINE
8
BLACK
6
CONTINUOUS
10
13.3562
20
-2.60421
11
13.3562
21
-2.61579
0
LINE
8
BLACK
6
CONTINUOUS
10
13.3562
20
-2.61579
11
13.3585
21
-2.62714
0
LINE
8
BLACK
6
CONTINUOUS
10
12.269
20
-2.58649
11
12.2738
21
-2.57493
0
LINE
8
BLACK
6
CONTINUOUS
10
12.2738
20
-2.57493
11
12.2807
21
-2.56454
0
LINE
8
BLACK
6
CONTINUOUS
10
12.2807
20
-2.56454
11
12.2895
21
-2.5557
0
LINE
8
BLACK
6
CONTINUOUS
10
12.2895
20
-2.5557
11
12.2999
21
-2.54875
0
LINE
8
BLACK
6
CONTINUOUS
10
12.2999
20
-2.54875
11
12.3115
21
-2.54397
0
LINE
8
BLACK
6
CONTINUOUS
10
12.3115
20
-2.54397
11
12.3237
21
-2.54153
0
LINE
8
BLACK
6
CONTINUOUS
10
12.3237
20
-2.54153
11
12.3363
21
-2.54153
0
LINE
8
BLACK
6
CONTINUOUS
10
12.3363
20
-2.54153
11
12.3485
21
-2.54397
0
LINE
8
BLACK
6
CONTINUOUS
10
12.3485
20
-2.54397
11
12.3601
21
-2.54875
0
LINE
8
BLACK
6
CONTINUOUS
10
12.3601
20
-2.54875
11
12.3705
21
-2.5557
0
LINE
8
BLACK
6
CONTINUOUS
10
12.3705
20
-2.5557
11
12.3793
21
-2.56454
0
LINE
8
BLACK
6
CONTINUOUS
10
12.3793
20
-2.56454
11
12.3862
21
-2.57493
0
LINE
8
BLACK
6
CONTINUOUS
10
12.3862
20
-2.57493
11
12.391
21
-2.58649
0
LINE
8
BLACK
6
CONTINUOUS
10
12.391
20
-2.58649
11
12.3935
21
-2.59875
0
LINE
8
BLACK
6
CONTINUOUS
10
12.3935
20
-2.59875
11
12.3935
21
-2.61125
0
LINE
8
BLACK
6
CONTINUOUS
10
12.3935
20
-2.61125
11
12.391
21
-2.62351
0
LINE
8
BLACK
6
CONTINUOUS
10
12.391
20
-2.62351
11
12.3862
21
-2.63507
0
LINE
8
BLACK
6
CONTINUOUS
10
12.3862
20
-2.63507
11
12.3793
21
-2.64546
0
LINE
8
BLACK
6
CONTINUOUS
10
12.3793
20
-2.64546
11
12.3705
21
-2.6543
0
LINE
8
BLACK
6
CONTINUOUS
10
12.3705
20
-2.6543
11
12.3601
21
-2.66125
0
LINE
8
BLACK
6
CONTINUOUS
10
12.3601
20
-2.66125
11
12.3485
21
-2.66603
0
LINE
8
BLACK
6
CONTINUOUS
10
12.3485
20
-2.66603
11
12.3363
21
-2.66847
0
LINE
8
BLACK
6
CONTINUOUS
10
12.3363
20
-2.66847
11
12.3237
21
-2.66847
0
LINE
8
BLACK
6
CONTINUOUS
10
12.3237
20
-2.66847
11
12.3115
21
-2.66603
0
LINE
8
BLACK
6
CONTINUOUS
10
12.3115
20
-2.66603
11
12.2999
21
-2.66125
0
LINE
8
BLACK
6
CONTINUOUS
10
12.2999
20
-2.66125
11
12.2895
21
-2.6543
0
LINE
8
BLACK
6
CONTINUOUS
10
12.2895
20
-2.6543
11
12.2807
21
-2.64546
0
LINE
8
BLACK
6
CONTINUOUS
10
12.2807
20
-2.64546
11
12.2738
21
-2.63507
0
LINE
8
BLACK
6
CONTINUOUS
10
12.2738
20
-2.63507
11
12.269
21
-2.62351
0
LINE
8
BLACK
6
CONTINUOUS
10
12.269
20
-2.62351
11
12.2665
21
-2.61125
0
LINE
8
BLACK
6
CONTINUOUS
10
12.2665
20
-2.61125
11
12.2665
21
-2.59875
0
LINE
8
BLACK
6
CONTINUOUS
10
12.2665
20
-2.59875
11
12.269
21
-2.58649
0
LINE
8
BLACK
6
CONTINUOUS
10
12.2735
20
-2.62214
11
12.2779
21
-2.63284
0
LINE
8
BLACK
6
CONTINUOUS
10
12.2779
20
-2.63284
11
12.2843
21
-2.64246
0
LINE
8
BLACK
6
CONTINUOUS
10
12.2843
20
-2.64246
11
12.2925
21
-2.65065
0
LINE
8
BLACK
6
CONTINUOUS
10
12.2925
20
-2.65065
11
12.3022
21
-2.65708
0
LINE
8
BLACK
6
CONTINUOUS
10
12.3022
20
-2.65708
11
12.3129
21
-2.66151
0
LINE
8
BLACK
6
CONTINUOUS
10
12.3129
20
-2.66151
11
12.3242
21
-2.66377
0
LINE
8
BLACK
6
CONTINUOUS
10
12.3242
20
-2.66377
11
12.3358
21
-2.66377
0
LINE
8
BLACK
6
CONTINUOUS
10
12.3358
20
-2.66377
11
12.3471
21
-2.66151
0
LINE
8
BLACK
6
CONTINUOUS
10
12.3471
20
-2.66151
11
12.3578
21
-2.65708
0
LINE
8
BLACK
6
CONTINUOUS
10
12.3578
20
-2.65708
11
12.3675
21
-2.65065
0
LINE
8
BLACK
6
CONTINUOUS
10
12.3675
20
-2.65065
11
12.3757
21
-2.64246
0
LINE
8
BLACK
6
CONTINUOUS
10
12.3757
20
-2.64246
11
12.3821
21
-2.63284
0
LINE
8
BLACK
6
CONTINUOUS
10
12.3821
20
-2.63284
11
12.3865
21
-2.62214
0
LINE
8
BLACK
6
CONTINUOUS
10
12.3865
20
-2.62214
11
12.3888
21
-2.61079
0
LINE
8
BLACK
6
CONTINUOUS
10
12.3888
20
-2.61079
11
12.3888
21
-2.59921
0
LINE
8
BLACK
6
CONTINUOUS
10
12.3888
20
-2.59921
11
12.3865
21
-2.58786
0
LINE
8
BLACK
6
CONTINUOUS
10
12.3865
20
-2.58786
11
12.3821
21
-2.57716
0
LINE
8
BLACK
6
CONTINUOUS
10
12.3821
20
-2.57716
11
12.3757
21
-2.56754
0
LINE
8
BLACK
6
CONTINUOUS
10
12.3757
20
-2.56754
11
12.3675
21
-2.55935
0
LINE
8
BLACK
6
CONTINUOUS
10
12.3675
20
-2.55935
11
12.3578
21
-2.55292
0
LINE
8
BLACK
6
CONTINUOUS
10
12.3578
20
-2.55292
11
12.3471
21
-2.54849
0
LINE
8
BLACK
6
CONTINUOUS
10
12.3471
20
-2.54849
11
12.3358
21
-2.54623
0
LINE
8
BLACK
6
CONTINUOUS
10
12.3358
20
-2.54623
11
12.3242
21
-2.54623
0
LINE
8
BLACK
6
CONTINUOUS
10
12.3242
20
-2.54623
11
12.3129
21
-2.54849
0
LINE
8
BLACK
6
CONTINUOUS
10
12.3129
20
-2.54849
11
12.3022
21
-2.55292
0
LINE
8
BLACK
6
CONTINUOUS
10
12.3022
20
-2.55292
11
12.2925
21
-2.55935
0
LINE
8
BLACK
6
CONTINUOUS
10
12.2925
20
-2.55935
11
12.2843
21
-2.56754
0
LINE
8
BLACK
6
CONTINUOUS
10
12.2843
20
-2.56754
11
12.2779
21
-2.57716
0
LINE
8
BLACK
6
CONTINUOUS
10
12.2779
20
-2.57716
11
12.2735
21
-2.58786
0
LINE
8
BLACK
6
CONTINUOUS
10
12.2735
20
-2.58786
11
12.2712
21
-2.59921
0
LINE
8
BLACK
6
CONTINUOUS
10
12.2712
20
-2.59921
11
12.2712
21
-2.61079
0
LINE
8
BLACK
6
CONTINUOUS
10
12.2712
20
-2.61079
11
12.2735
21
-2.62214
0
LINE
8
BLACK
6
CONTINUOUS
10
3.77397
20
-2.58649
11
3.77875
21
-2.57493
0
LINE
8
BLACK
6
CONTINUOUS
10
3.77875
20
-2.57493
11
3.7857
21
-2.56454
0
LINE
8
BLACK
6
CONTINUOUS
10
3.7857
20
-2.56454
11
3.79454
21
-2.5557
0
LINE
8
BLACK
6
CONTINUOUS
10
3.79454
20
-2.5557
11
3.80493
21
-2.54875
0
LINE
8
BLACK
6
CONTINUOUS
10
3.80493
20
-2.54875
11
3.81649
21
-2.54397
0
LINE
8
BLACK
6
CONTINUOUS
10
3.81649
20
-2.54397
11
3.82875
21
-2.54153
0
LINE
8
BLACK
6
CONTINUOUS
10
3.82875
20
-2.54153
11
3.84125
21
-2.54153
0
LINE
8
BLACK
6
CONTINUOUS
10
3.84125
20
-2.54153
11
3.85351
21
-2.54397
0
LINE
8
BLACK
6
CONTINUOUS
10
3.85351
20
-2.54397
11
3.86507
21
-2.54875
0
LINE
8
BLACK
6
CONTINUOUS
10
3.86507
20
-2.54875
11
3.87546
21
-2.5557
0
LINE
8
BLACK
6
CONTINUOUS
10
3.87546
20
-2.5557
11
3.8843
21
-2.56454
0
LINE
8
BLACK
6
CONTINUOUS
10
3.8843
20
-2.56454
11
3.89125
21
-2.57493
0
LINE
8
BLACK
6
CONTINUOUS
10
3.89125
20
-2.57493
11
3.89603
21
-2.58649
0
LINE
8
BLACK
6
CONTINUOUS
10
3.89603
20
-2.58649
11
3.89847
21
-2.59875
0
LINE
8
BLACK
6
CONTINUOUS
10
3.89847
20
-2.59875
11
3.89847
21
-2.61125
0
LINE
8
BLACK
6
CONTINUOUS
10
3.89847
20
-2.61125
11
3.89603
21
-2.62351
0
LINE
8
BLACK
6
CONTINUOUS
10
3.89603
20
-2.62351
11
3.89125
21
-2.63507
0
LINE
8
BLACK
6
CONTINUOUS
10
3.89125
20
-2.63507
11
3.8843
21
-2.64546
0
LINE
8
BLACK
6
CONTINUOUS
10
3.8843
20
-2.64546
11
3.87546
21
-2.6543
0
LINE
8
BLACK
6
CONTINUOUS
10
3.87546
20
-2.6543
11
3.86507
21
-2.66125
0
LINE
8
BLACK
6
CONTINUOUS
10
3.86507
20
-2.66125
11
3.85351
21
-2.66603
0
LINE
8
BLACK
6
CONTINUOUS
10
3.85351
20
-2.66603
11
3.84125
21
-2.66847
0
LINE
8
BLACK
6
CONTINUOUS
10
3.84125
20
-2.66847
11
3.82875
21
-2.66847
0
LINE
8
BLACK
6
CONTINUOUS
10
3.82875
20
-2.66847
11
3.81649
21
-2.66603
0
LINE
8
BLACK
6
CONTINUOUS
10
3.81649
20
-2.66603
11
3.80493
21
-2.66125
0
LINE
8
BLACK
6
CONTINUOUS
10
3.80493
20
-2.66125
11
3.79454
21
-2.6543
0
LINE
8
BLACK
6
CONTINUOUS
10
3.79454
20
-2.6543
11
3.7857
21
-2.64546
0
LINE
8
BLACK
6
CONTINUOUS
10
3.7857
20
-2.64546
11
3.77875
21
-2.63507
0
LINE
8
BLACK
6
CONTINUOUS
10
3.77875
20
-2.63507
11
3.77397
21
-2.62351
0
LINE
8
BLACK
6
CONTINUOUS
10
3.77397
20
-2.62351
11
3.77153
21
-2.61125
0
LINE
8
BLACK
6
CONTINUOUS
10
3.77153
20
-2.61125
11
3.77153
21
-2.59875
0
LINE
8
BLACK
6
CONTINUOUS
10
3.77153
20
-2.59875
11
3.77397
21
-2.58649
0
LINE
8
BLACK
6
CONTINUOUS
10
3.77849
20
-2.62214
11
3.78292
21
-2.63284
0
LINE
8
BLACK
6
CONTINUOUS
10
3.78292
20
-2.63284
11
3.78935
21
-2.64246
0
LINE
8
BLACK
6
CONTINUOUS
10
3.78935
20
-2.64246
11
3.79754
21
-2.65065
0
LINE
8
BLACK
6
CONTINUOUS
10
3.79754
20
-2.65065
11
3.80716
21
-2.65708
0
LINE
8
BLACK
6
CONTINUOUS
10
3.80716
20
-2.65708
11
3.81786
21
-2.66151
0
LINE
8
BLACK
6
CONTINUOUS
10
3.81786
20
-2.66151
11
3.82921
21
-2.66377
0
LINE
8
BLACK
6
CONTINUOUS
10
3.82921
20
-2.66377
11
3.84079
21
-2.66377
0
LINE
8
BLACK
6
CONTINUOUS
10
3.84079
20
-2.66377
11
3.85214
21
-2.66151
0
LINE
8
BLACK
6
CONTINUOUS
10
3.85214
20
-2.66151
11
3.86284
21
-2.65708
0
LINE
8
BLACK
6
CONTINUOUS
10
3.86284
20
-2.65708
11
3.87246
21
-2.65065
0
LINE
8
BLACK
6
CONTINUOUS
10
3.87246
20
-2.65065
11
3.88065
21
-2.64246
0
LINE
8
BLACK
6
CONTINUOUS
10
3.88065
20
-2.64246
11
3.88708
21
-2.63284
0
LINE
8
BLACK
6
CONTINUOUS
10
3.88708
20
-2.63284
11
3.89151
21
-2.62214
0
LINE
8
BLACK
6
CONTINUOUS
10
3.89151
20
-2.62214
11
3.89377
21
-2.61079
0
LINE
8
BLACK
6
CONTINUOUS
10
3.89377
20
-2.61079
11
3.89377
21
-2.59921
0
LINE
8
BLACK
6
CONTINUOUS
10
3.89377
20
-2.59921
11
3.89151
21
-2.58786
0
LINE
8
BLACK
6
CONTINUOUS
10
3.89151
20
-2.58786
11
3.88708
21
-2.57716
0
LINE
8
BLACK
6
CONTINUOUS
10
3.88708
20
-2.57716
11
3.88065
21
-2.56754
0
LINE
8
BLACK
6
CONTINUOUS
10
3.88065
20
-2.56754
11
3.87246
21
-2.55935
0
LINE
8
BLACK
6
CONTINUOUS
10
3.87246
20
-2.55935
11
3.86284
21
-2.55292
0
LINE
8
BLACK
6
CONTINUOUS
10
3.86284
20
-2.55292
11
3.85214
21
-2.54849
0
LINE
8
BLACK
6
CONTINUOUS
10
3.85214
20
-2.54849
11
3.84079
21
-2.54623
0
LINE
8
BLACK
6
CONTINUOUS
10
3.84079
20
-2.54623
11
3.82921
21
-2.54623
0
LINE
8
BLACK
6
CONTINUOUS
10
3.82921
20
-2.54623
11
3.81786
21
-2.54849
0
LINE
8
BLACK
6
CONTINUOUS
10
3.81786
20
-2.54849
11
3.80716
21
-2.55292
0
LINE
8
BLACK
6
CONTINUOUS
10
3.80716
20
-2.55292
11
3.79754
21
-2.55935
0
LINE
8
BLACK
6
CONTINUOUS
10
3.79754
20
-2.55935
11
3.78935
21
-2.56754
0
LINE
8
BLACK
6
CONTINUOUS
10
3.78935
20
-2.56754
11
3.78292
21
-2.57716
0
LINE
8
BLACK
6
CONTINUOUS
10
3.78292
20
-2.57716
11
3.77849
21
-2.58786
0
LINE
8
BLACK
6
CONTINUOUS
10
3.77849
20
-2.58786
11
3.77623
21
-2.59921
0
LINE
8
BLACK
6
CONTINUOUS
10
3.77623
20
-2.59921
11
3.77623
21
-2.61079
0
LINE
8
BLACK
6
CONTINUOUS
10
3.77623
20
-2.61079
11
3.77849
21
-2.62214
0
LINE
8
BLACK
6
CONTINUOUS
10
6.75397
20
-2.58649
11
6.75875
21
-2.57493
0
LINE
8
BLACK
6
CONTINUOUS
10
6.75875
20
-2.57493
11
6.7657
21
-2.56454
0
LINE
8
BLACK
6
CONTINUOUS
10
6.7657
20
-2.56454
11
6.77454
21
-2.5557
0
LINE
8
BLACK
6
CONTINUOUS
10
6.77454
20
-2.5557
11
6.78493
21
-2.54875
0
LINE
8
BLACK
6
CONTINUOUS
10
6.78493
20
-2.54875
11
6.79649
21
-2.54397
0
LINE
8
BLACK
6
CONTINUOUS
10
6.79649
20
-2.54397
11
6.80875
21
-2.54153
0
LINE
8
BLACK
6
CONTINUOUS
10
6.80875
20
-2.54153
11
6.82125
21
-2.54153
0
LINE
8
BLACK
6
CONTINUOUS
10
6.82125
20
-2.54153
11
6.83351
21
-2.54397
0
LINE
8
BLACK
6
CONTINUOUS
10
6.83351
20
-2.54397
11
6.84507
21
-2.54875
0
LINE
8
BLACK
6
CONTINUOUS
10
6.84507
20
-2.54875
11
6.85546
21
-2.5557
0
LINE
8
BLACK
6
CONTINUOUS
10
6.85546
20
-2.5557
11
6.8643
21
-2.56454
0
LINE
8
BLACK
6
CONTINUOUS
10
6.8643
20
-2.56454
11
6.87125
21
-2.57493
0
LINE
8
BLACK
6
CONTINUOUS
10
6.87125
20
-2.57493
11
6.87603
21
-2.58649
0
LINE
8
BLACK
6
CONTINUOUS
10
6.87603
20
-2.58649
11
6.87847
21
-2.59875
0
LINE
8
BLACK
6
CONTINUOUS
10
6.87847
20
-2.59875
11
6.87847
21
-2.61125
0
LINE
8
BLACK
6
CONTINUOUS
10
6.87847
20
-2.61125
11
6.87603
21
-2.62351
0
LINE
8
BLACK
6
CONTINUOUS
10
6.87603
20
-2.62351
11
6.87125
21
-2.63507
0
LINE
8
BLACK
6
CONTINUOUS
10
6.87125
20
-2.63507
11
6.8643
21
-2.64546
0
LINE
8
BLACK
6
CONTINUOUS
10
6.8643
20
-2.64546
11
6.85546
21
-2.6543
0
LINE
8
BLACK
6
CONTINUOUS
10
6.85546
20
-2.6543
11
6.84507
21
-2.66125
0
LINE
8
BLACK
6
CONTINUOUS
10
6.84507
20
-2.66125
11
6.83351
21
-2.66603
0
LINE
8
BLACK
6
CONTINUOUS
10
6.83351
20
-2.66603
11
6.82125
21
-2.66847
0
LINE
8
BLACK
6
CONTINUOUS
10
6.82125
20
-2.66847
11
6.80875
21
-2.66847
0
LINE
8
BLACK
6
CONTINUOUS
10
6.80875
20
-2.66847
11
6.79649
21
-2.66603
0
LINE
8
BLACK
6
CONTINUOUS
10
6.79649
20
-2.66603
11
6.78493
21
-2.66125
0
LINE
8
BLACK
6
CONTINUOUS
10
6.78493
20
-2.66125
11
6.77454
21
-2.6543
0
LINE
8
BLACK
6
CONTINUOUS
10
6.77454
20
-2.6543
11
6.7657
21
-2.64546
0
LINE
8
BLACK
6
CONTINUOUS
10
6.7657
20
-2.64546
11
6.75875
21
-2.63507
0
LINE
8
BLACK
6
CONTINUOUS
10
6.75875
20
-2.63507
11
6.75397
21
-2.62351
0
LINE
8
BLACK
6
CONTINUOUS
10
6.75397
20
-2.62351
11
6.75153
21
-2.61125
0
LINE
8
BLACK
6
CONTINUOUS
10
6.75153
20
-2.61125
11
6.75153
21
-2.59875
0
LINE
8
BLACK
6
CONTINUOUS
10
6.75153
20
-2.59875
11
6.75397
21
-2.58649
0
LINE
8
BLACK
6
CONTINUOUS
10
6.75849
20
-2.62214
11
6.76292
21
-2.63284
0
LINE
8
BLACK
6
CONTINUOUS
10
6.76292
20
-2.63284
11
6.76935
21
-2.64246
0
LINE
8
BLACK
6
CONTINUOUS
10
6.76935
20
-2.64246
11
6.77754
21
-2.65065
0
LINE
8
BLACK
6
CONTINUOUS
10
6.77754
20
-2.65065
11
6.78716
21
-2.65708
0
LINE
8
BLACK
6
CONTINUOUS
10
6.78716
20
-2.65708
11
6.79786
21
-2.66151
0
LINE
8
BLACK
6
CONTINUOUS
10
6.79786
20
-2.66151
11
6.80921
21
-2.66377
0
LINE
8
BLACK
6
CONTINUOUS
10
6.80921
20
-2.66377
11
6.82079
21
-2.66377
0
LINE
8
BLACK
6
CONTINUOUS
10
6.82079
20
-2.66377
11
6.83214
21
-2.66151
0
LINE
8
BLACK
6
CONTINUOUS
10
6.83214
20
-2.66151
11
6.84284
21
-2.65708
0
LINE
8
BLACK
6
CONTINUOUS
10
6.84284
20
-2.65708
11
6.85246
21
-2.65065
0
LINE
8
BLACK
6
CONTINUOUS
10
6.85246
20
-2.65065
11
6.86065
21
-2.64246
0
LINE
8
BLACK
6
CONTINUOUS
10
6.86065
20
-2.64246
11
6.86708
21
-2.63284
0
LINE
8
BLACK
6
CONTINUOUS
10
6.86708
20
-2.63284
11
6.87151
21
-2.62214
0
LINE
8
BLACK
6
CONTINUOUS
10
6.87151
20
-2.62214
11
6.87377
21
-2.61079
0
LINE
8
BLACK
6
CONTINUOUS
10
6.87377
20
-2.61079
11
6.87377
21
-2.59921
0
LINE
8
BLACK
6
CONTINUOUS
10
6.87377
20
-2.59921
11
6.87151
21
-2.58786
0
LINE
8
BLACK
6
CONTINUOUS
10
6.87151
20
-2.58786
11
6.86708
21
-2.57716
0
LINE
8
BLACK
6
CONTINUOUS
10
6.86708
20
-2.57716
11
6.86065
21
-2.56754
0
LINE
8
BLACK
6
CONTINUOUS
10
6.86065
20
-2.56754
11
6.85246
21
-2.55935
0
LINE
8
BLACK
6
CONTINUOUS
10
6.85246
20
-2.55935
11
6.84284
21
-2.55292
0
LINE
8
BLACK
6
CONTINUOUS
10
6.84284
20
-2.55292
11
6.83214
21
-2.54849
0
LINE
8
BLACK
6
CONTINUOUS
10
6.83214
20
-2.54849
11
6.82079
21
-2.54623
0
LINE
8
BLACK
6
CONTINUOUS
10
6.82079
20
-2.54623
11
6.80921
21
-2.54623
0
LINE
8
BLACK
6
CONTINUOUS
10
6.80921
20
-2.54623
11
6.79786
21
-2.54849
0
LINE
8
BLACK
6
CONTINUOUS
10
6.79786
20
-2.54849
11
6.78716
21
-2.55292
0
LINE
8
BLACK
6
CONTINUOUS
10
6.78716
20
-2.55292
11
6.77754
21
-2.55935
0
LINE
8
BLACK
6
CONTINUOUS
10
6.77754
20
-2.55935
11
6.76935
21
-2.56754
0
LINE
8
BLACK
6
CONTINUOUS
10
6.76935
20
-2.56754
11
6.76292
21
-2.57716
0
LINE
8
BLACK
6
CONTINUOUS
10
6.76292
20
-2.57716
11
6.75849
21
-2.58786
0
LINE
8
BLACK
6
CONTINUOUS
10
6.75849
20
-2.58786
11
6.75623
21
-2.59921
0
LINE
8
BLACK
6
CONTINUOUS
10
6.75623
20
-2.59921
11
6.75623
21
-2.61079
0
LINE
8
BLACK
6
CONTINUOUS
10
6.75623
20
-2.61079
11
6.75849
21
-2.62214
0
LINE
8
BLACK
6
CONTINUOUS
10
1.07897
20
-2.57149
11
1.08375
21
-2.55993
0
LINE
8
BLACK
6
CONTINUOUS
10
1.08375
20
-2.55993
11
1.0907
21
-2.54954
0
LINE
8
BLACK
6
CONTINUOUS
10
1.0907
20
-2.54954
11
1.09954
21
-2.5407
0
LINE
8
BLACK
6
CONTINUOUS
10
1.09954
20
-2.5407
11
1.10993
21
-2.53375
0
LINE
8
BLACK
6
CONTINUOUS
10
1.10993
20
-2.53375
11
1.12149
21
-2.52897
0
LINE
8
BLACK
6
CONTINUOUS
10
1.12149
20
-2.52897
11
1.13375
21
-2.52653
0
LINE
8
BLACK
6
CONTINUOUS
10
1.13375
20
-2.52653
11
1.14625
21
-2.52653
0
LINE
8
BLACK
6
CONTINUOUS
10
1.14625
20
-2.52653
11
1.15851
21
-2.52897
0
LINE
8
BLACK
6
CONTINUOUS
10
1.15851
20
-2.52897
11
1.17007
21
-2.53375
0
LINE
8
BLACK
6
CONTINUOUS
10
1.17007
20
-2.53375
11
1.18046
21
-2.5407
0
LINE
8
BLACK
6
CONTINUOUS
10
1.18046
20
-2.5407
11
1.1893
21
-2.54954
0
LINE
8
BLACK
6
CONTINUOUS
10
1.1893
20
-2.54954
11
1.19625
21
-2.55993
0
LINE
8
BLACK
6
CONTINUOUS
10
1.19625
20
-2.55993
11
1.20103
21
-2.57149
0
LINE
8
BLACK
6
CONTINUOUS
10
1.20103
20
-2.57149
11
1.20347
21
-2.58375
0
LINE
8
BLACK
6
CONTINUOUS
10
1.20347
20
-2.58375
11
1.20347
21
-2.59625
0
LINE
8
BLACK
6
CONTINUOUS
10
1.20347
20
-2.59625
11
1.20103
21
-2.60851
0
LINE
8
BLACK
6
CONTINUOUS
10
1.20103
20
-2.60851
11
1.19625
21
-2.62007
0
LINE
8
BLACK
6
CONTINUOUS
10
1.19625
20
-2.62007
11
1.1893
21
-2.63046
0
LINE
8
BLACK
6
CONTINUOUS
10
1.1893
20
-2.63046
11
1.18046
21
-2.6393
0
LINE
8
BLACK
6
CONTINUOUS
10
1.18046
20
-2.6393
11
1.17007
21
-2.64625
0
LINE
8
BLACK
6
CONTINUOUS
10
1.17007
20
-2.64625
11
1.15851
21
-2.65103
0
LINE
8
BLACK
6
CONTINUOUS
10
1.15851
20
-2.65103
11
1.14625
21
-2.65347
0
LINE
8
BLACK
6
CONTINUOUS
10
1.14625
20
-2.65347
11
1.13375
21
-2.65347
0
LINE
8
BLACK
6
CONTINUOUS
10
1.13375
20
-2.65347
11
1.12149
21
-2.65103
0
LINE
8
BLACK
6
CONTINUOUS
10
1.12149
20
-2.65103
11
1.10993
21
-2.64625
0
LINE
8
BLACK
6
CONTINUOUS
10
1.10993
20
-2.64625
11
1.09954
21
-2.6393
0
LINE
8
BLACK
6
CONTINUOUS
10
1.09954
20
-2.6393
11
1.0907
21
-2.63046
0
LINE
8
BLACK
6
CONTINUOUS
10
1.0907
20
-2.63046
11
1.08375
21
-2.62007
0
LINE
8
BLACK
6
CONTINUOUS
10
1.08375
20
-2.62007
11
1.07897
21
-2.60851
0
LINE
8
BLACK
6
CONTINUOUS
10
1.07897
20
-2.60851
11
1.07653
21
-2.59625
0
LINE
8
BLACK
6
CONTINUOUS
10
1.07653
20
-2.59625
11
1.07653
21
-2.58375
0
LINE
8
BLACK
6
CONTINUOUS
10
1.07653
20
-2.58375
11
1.07897
21
-2.57149
0
LINE
8
BLACK
6
CONTINUOUS
10
1.08349
20
-2.60714
11
1.08792
21
-2.61784
0
LINE
8
BLACK
6
CONTINUOUS
10
1.08792
20
-2.61784
11
1.09435
21
-2.62746
0
LINE
8
BLACK
6
CONTINUOUS
10
1.09435
20
-2.62746
11
1.10254
21
-2.63565
0
LINE
8
BLACK
6
CONTINUOUS
10
1.10254
20
-2.63565
11
1.11216
21
-2.64208
0
LINE
8
BLACK
6
CONTINUOUS
10
1.11216
20
-2.64208
11
1.12286
21
-2.64651
0
LINE
8
BLACK
6
CONTINUOUS
10
1.12286
20
-2.64651
11
1.13421
21
-2.64877
0
LINE
8
BLACK
6
CONTINUOUS
10
1.13421
20
-2.64877
11
1.14579
21
-2.64877
0
LINE
8
BLACK
6
CONTINUOUS
10
1.14579
20
-2.64877
11
1.15714
21
-2.64651
0
LINE
8
BLACK
6
CONTINUOUS
10
1.15714
20
-2.64651
11
1.16784
21
-2.64208
0
LINE
8
BLACK
6
CONTINUOUS
10
1.16784
20
-2.64208
11
1.17746
21
-2.63565
0
LINE
8
BLACK
6
CONTINUOUS
10
1.17746
20
-2.63565
11
1.18565
21
-2.62746
0
LINE
8
BLACK
6
CONTINUOUS
10
1.18565
20
-2.62746
11
1.19208
21
-2.61784
0
LINE
8
BLACK
6
CONTINUOUS
10
1.19208
20
-2.61784
11
1.19651
21
-2.60714
0
LINE
8
BLACK
6
CONTINUOUS
10
1.19651
20
-2.60714
11
1.19877
21
-2.59579
0
LINE
8
BLACK
6
CONTINUOUS
10
1.19877
20
-2.59579
11
1.19877
21
-2.58421
0
LINE
8
BLACK
6
CONTINUOUS
10
1.19877
20
-2.58421
11
1.19651
21
-2.57286
0
LINE
8
BLACK
6
CONTINUOUS
10
1.19651
20
-2.57286
11
1.19208
21
-2.56216
0
LINE
8
BLACK
6
CONTINUOUS
10
1.19208
20
-2.56216
11
1.18565
21
-2.55254
0
LINE
8
BLACK
6
CONTINUOUS
10
1.18565
20
-2.55254
11
1.17746
21
-2.54435
0
LINE
8
BLACK
6
CONTINUOUS
10
1.17746
20
-2.54435
11
1.16784
21
-2.53792
0
LINE
8
BLACK
6
CONTINUOUS
10
1.16784
20
-2.53792
11
1.15714
21
-2.53349
0
LINE
8
BLACK
6
CONTINUOUS
10
1.15714
20
-2.53349
11
1.14579
21
-2.53123
0
LINE
8
BLACK
6
CONTINUOUS
10
1.14579
20
-2.53123
11
1.13421
21
-2.53123
0
LINE
8
BLACK
6
CONTINUOUS
10
1.13421
20
-2.53123
11
1.12286
21
-2.53349
0
LINE
8
BLACK
6
CONTINUOUS
10
1.12286
20
-2.53349
11
1.11216
21
-2.53792
0
LINE
8
BLACK
6
CONTINUOUS
10
1.11216
20
-2.53792
11
1.10254
21
-2.54435
0
LINE
8
BLACK
6
CONTINUOUS
10
1.10254
20
-2.54435
11
1.09435
21
-2.55254
0
LINE
8
BLACK
6
CONTINUOUS
10
1.09435
20
-2.55254
11
1.08792
21
-2.56216
0
LINE
8
BLACK
6
CONTINUOUS
10
1.08792
20
-2.56216
11
1.08349
21
-2.57286
0
LINE
8
BLACK
6
CONTINUOUS
10
1.08349
20
-2.57286
11
1.08123
21
-2.58421
0
LINE
8
BLACK
6
CONTINUOUS
10
1.08123
20
-2.58421
11
1.08123
21
-2.59579
0
LINE
8
BLACK
6
CONTINUOUS
10
1.08123
20
-2.59579
11
1.08349
21
-2.60714
0
LINE
8
BLACK
6
CONTINUOUS
10
14.099
20
-1.10649
11
14.1038
21
-1.09493
0
LINE
8
BLACK
6
CONTINUOUS
10
14.1038
20
-1.09493
11
14.1107
21
-1.08454
0
LINE
8
BLACK
6
CONTINUOUS
10
14.1107
20
-1.08454
11
14.1195
21
-1.0757
0
LINE
8
BLACK
6
CONTINUOUS
10
14.1195
20
-1.0757
11
14.1299
21
-1.06875
0
LINE
8
BLACK
6
CONTINUOUS
10
14.1299
20
-1.06875
11
14.1415
21
-1.06397
0
LINE
8
BLACK
6
CONTINUOUS
10
14.1415
20
-1.06397
11
14.1537
21
-1.06153
0
LINE
8
BLACK
6
CONTINUOUS
10
14.1537
20
-1.06153
11
14.1663
21
-1.06153
0
LINE
8
BLACK
6
CONTINUOUS
10
14.1663
20
-1.06153
11
14.1785
21
-1.06397
0
LINE
8
BLACK
6
CONTINUOUS
10
14.1785
20
-1.06397
11
14.1901
21
-1.06875
0
LINE
8
BLACK
6
CONTINUOUS
10
14.1901
20
-1.06875
11
14.2005
21
-1.0757
0
LINE
8
BLACK
6
CONTINUOUS
10
14.2005
20
-1.0757
11
14.2093
21
-1.08454
0
LINE
8
BLACK
6
CONTINUOUS
10
14.2093
20
-1.08454
11
14.2162
21
-1.09493
0
LINE
8
BLACK
6
CONTINUOUS
10
14.2162
20
-1.09493
11
14.221
21
-1.10649
0
LINE
8
BLACK
6
CONTINUOUS
10
14.221
20
-1.10649
11
14.2235
21
-1.11875
0
LINE
8
BLACK
6
CONTINUOUS
10
14.2235
20
-1.11875
11
14.2235
21
-1.13125
0
LINE
8
BLACK
6
CONTINUOUS
10
14.2235
20
-1.13125
11
14.221
21
-1.14351
0
LINE
8
BLACK
6
CONTINUOUS
10
14.221
20
-1.14351
11
14.2162
21
-1.15507
0
LINE
8
BLACK
6
CONTINUOUS
10
14.2162
20
-1.15507
11
14.2093
21
-1.16546
0
LINE
8
BLACK
6
CONTINUOUS
10
14.2093
20
-1.16546
11
14.2005
21
-1.1743
0
LINE
8
BLACK
6
CONTINUOUS
10
14.2005
20
-1.1743
11
14.1901
21
-1.18125
0
LINE
8
BLACK
6
CONTINUOUS
10
14.1901
20
-1.18125
11
14.1785
21
-1.18603
0
LINE
8
BLACK
6
CONTINUOUS
10
14.1785
20
-1.18603
11
14.1663
21
-1.18847
0
LINE
8
BLACK
6
CONTINUOUS
10
14.1663
20
-1.18847
11
14.1537
21
-1.18847
0
LINE
8
BLACK
6
CONTINUOUS
10
14.1537
20
-1.18847
11
14.1415
21
-1.18603
0
LINE
8
BLACK
6
CONTINUOUS
10
14.1415
20
-1.18603
11
14.1299
21
-1.18125
0
LINE
8
BLACK
6
CONTINUOUS
10
14.1299
20
-1.18125
11
14.1195
21
-1.1743
0
LINE
8
BLACK
6
CONTINUOUS
10
14.1195
20
-1.1743
11
14.1107
21
-1.16546
0
LINE
8
BLACK
6
CONTINUOUS
10
14.1107
20
-1.16546
11
14.1038
21
-1.15507
0
LINE
8
BLACK
6
CONTINUOUS
10
14.1038
20
-1.15507
11
14.099
21
-1.14351
0
LINE
8
BLACK
6
CONTINUOUS
10
14.099
20
-1.14351
11
14.0965
21
-1.13125
0
LINE
8
BLACK
6
CONTINUOUS
10
14.0965
20
-1.13125
11
14.0965
21
-1.11875
0
LINE
8
BLACK
6
CONTINUOUS
10
14.0965
20
-1.11875
11
14.099
21
-1.10649
0
LINE
8
BLACK
6
CONTINUOUS
10
14.1035
20
-1.14214
11
14.1079
21
-1.15284
0
LINE
8
BLACK
6
CONTINUOUS
10
14.1079
20
-1.15284
11
14.1143
21
-1.16246
0
LINE
8
BLACK
6
CONTINUOUS
10
14.1143
20
-1.16246
11
14.1225
21
-1.17065
0
LINE
8
BLACK
6
CONTINUOUS
10
14.1225
20
-1.17065
11
14.1322
21
-1.17708
0
LINE
8
BLACK
6
CONTINUOUS
10
14.1322
20
-1.17708
11
14.1429
21
-1.18151
0
LINE
8
BLACK
6
CONTINUOUS
10
14.1429
20
-1.18151
11
14.1542
21
-1.18377
0
LINE
8
BLACK
6
CONTINUOUS
10
14.1542
20
-1.18377
11
14.1658
21
-1.18377
0
LINE
8
BLACK
6
CONTINUOUS
10
14.1658
20
-1.18377
11
14.1771
21
-1.18151
0
LINE
8
BLACK
6
CONTINUOUS
10
14.1771
20
-1.18151
11
14.1878
21
-1.17708
0
LINE
8
BLACK
6
CONTINUOUS
10
14.1878
20
-1.17708
11
14.1975
21
-1.17065
0
LINE
8
BLACK
6
CONTINUOUS
10
14.1975
20
-1.17065
11
14.2057
21
-1.16246
0
LINE
8
BLACK
6
CONTINUOUS
10
14.2057
20
-1.16246
11
14.2121
21
-1.15284
0
LINE
8
BLACK
6
CONTINUOUS
10
14.2121
20
-1.15284
11
14.2165
21
-1.14214
0
LINE
8
BLACK
6
CONTINUOUS
10
14.2165
20
-1.14214
11
14.2188
21
-1.13079
0
LINE
8
BLACK
6
CONTINUOUS
10
14.2188
20
-1.13079
11
14.2188
21
-1.11921
0
LINE
8
BLACK
6
CONTINUOUS
10
14.2188
20
-1.11921
11
14.2165
21
-1.10786
0
LINE
8
BLACK
6
CONTINUOUS
10
14.2165
20
-1.10786
11
14.2121
21
-1.09716
0
LINE
8
BLACK
6
CONTINUOUS
10
14.2121
20
-1.09716
11
14.2057
21
-1.08754
0
LINE
8
BLACK
6
CONTINUOUS
10
14.2057
20
-1.08754
11
14.1975
21
-1.07935
0
LINE
8
BLACK
6
CONTINUOUS
10
14.1975
20
-1.07935
11
14.1878
21
-1.07292
0
LINE
8
BLACK
6
CONTINUOUS
10
14.1878
20
-1.07292
11
14.1771
21
-1.06849
0
LINE
8
BLACK
6
CONTINUOUS
10
14.1771
20
-1.06849
11
14.1658
21
-1.06623
0
LINE
8
BLACK
6
CONTINUOUS
10
14.1658
20
-1.06623
11
14.1542
21
-1.06623
0
LINE
8
BLACK
6
CONTINUOUS
10
14.1542
20
-1.06623
11
14.1429
21
-1.06849
0
LINE
8
BLACK
6
CONTINUOUS
10
14.1429
20
-1.06849
11
14.1322
21
-1.07292
0
LINE
8
BLACK
6
CONTINUOUS
10
14.1322
20
-1.07292
11
14.1225
21
-1.07935
0
LINE
8
BLACK
6
CONTINUOUS
10
14.1225
20
-1.07935
11
14.1143
21
-1.08754
0
LINE
8
BLACK
6
CONTINUOUS
10
14.1143
20
-1.08754
11
14.1079
21
-1.09716
0
LINE
8
BLACK
6
CONTINUOUS
10
14.1079
20
-1.09716
11
14.1035
21
-1.10786
0
LINE
8
BLACK
6
CONTINUOUS
10
14.1035
20
-1.10786
11
14.1012
21
-1.11921
0
LINE
8
BLACK
6
CONTINUOUS
10
14.1012
20
-1.11921
11
14.1012
21
-1.13079
0
LINE
8
BLACK
6
CONTINUOUS
10
14.1012
20
-1.13079
11
14.1035
21
-1.14214
0
LINE
8
BLACK
6
CONTINUOUS
10
3.39897
20
-1.10149
11
3.40375
21
-1.08993
0
LINE
8
BLACK
6
CONTINUOUS
10
3.40375
20
-1.08993
11
3.4107
21
-1.07954
0
LINE
8
BLACK
6
CONTINUOUS
10
3.4107
20
-1.07954
11
3.41954
21
-1.0707
0
LINE
8
BLACK
6
CONTINUOUS
10
3.41954
20
-1.0707
11
3.42993
21
-1.06375
0
LINE
8
BLACK
6
CONTINUOUS
10
3.42993
20
-1.06375
11
3.44149
21
-1.05897
0
LINE
8
BLACK
6
CONTINUOUS
10
3.44149
20
-1.05897
11
3.45375
21
-1.05653
0
LINE
8
BLACK
6
CONTINUOUS
10
3.45375
20
-1.05653
11
3.46625
21
-1.05653
0
LINE
8
BLACK
6
CONTINUOUS
10
3.46625
20
-1.05653
11
3.47851
21
-1.05897
0
LINE
8
BLACK
6
CONTINUOUS
10
3.47851
20
-1.05897
11
3.49007
21
-1.06375
0
LINE
8
BLACK
6
CONTINUOUS
10
3.49007
20
-1.06375
11
3.50046
21
-1.0707
0
LINE
8
BLACK
6
CONTINUOUS
10
3.50046
20
-1.0707
11
3.5093
21
-1.07954
0
LINE
8
BLACK
6
CONTINUOUS
10
3.5093
20
-1.07954
11
3.51625
21
-1.08993
0
LINE
8
BLACK
6
CONTINUOUS
10
3.51625
20
-1.08993
11
3.52103
21
-1.10149
0
LINE
8
BLACK
6
CONTINUOUS
10
3.52103
20
-1.10149
11
3.52347
21
-1.11375
0
LINE
8
BLACK
6
CONTINUOUS
10
3.52347
20
-1.11375
11
3.52347
21
-1.12625
0
LINE
8
BLACK
6
CONTINUOUS
10
3.52347
20
-1.12625
11
3.52103
21
-1.13851
0
LINE
8
BLACK
6
CONTINUOUS
10
3.52103
20
-1.13851
11
3.51625
21
-1.15007
0
LINE
8
BLACK
6
CONTINUOUS
10
3.51625
20
-1.15007
11
3.5093
21
-1.16046
0
LINE
8
BLACK
6
CONTINUOUS
10
3.5093
20
-1.16046
11
3.50046
21
-1.1693
0
LINE
8
BLACK
6
CONTINUOUS
10
3.50046
20
-1.1693
11
3.49007
21
-1.17625
0
LINE
8
BLACK
6
CONTINUOUS
10
3.49007
20
-1.17625
11
3.47851
21
-1.18103
0
LINE
8
BLACK
6
CONTINUOUS
10
3.47851
20
-1.18103
11
3.46625
21
-1.18347
0
LINE
8
BLACK
6
CONTINUOUS
10
3.46625
20
-1.18347
11
3.45375
21
-1.18347
0
LINE
8
BLACK
6
CONTINUOUS
10
3.45375
20
-1.18347
11
3.44149
21
-1.18103
0
LINE
8
BLACK
6
CONTINUOUS
10
3.44149
20
-1.18103
11
3.42993
21
-1.17625
0
LINE
8
BLACK
6
CONTINUOUS
10
3.42993
20
-1.17625
11
3.41954
21
-1.1693
0
LINE
8
BLACK
6
CONTINUOUS
10
3.41954
20
-1.1693
11
3.4107
21
-1.16046
0
LINE
8
BLACK
6
CONTINUOUS
10
3.4107
20
-1.16046
11
3.40375
21
-1.15007
0
LINE
8
BLACK
6
CONTINUOUS
10
3.40375
20
-1.15007
11
3.39897
21
-1.13851
0
LINE
8
BLACK
6
CONTINUOUS
10
3.39897
20
-1.13851
11
3.39653
21
-1.12625
0
LINE
8
BLACK
6
CONTINUOUS
10
3.39653
20
-1.12625
11
3.39653
21
-1.11375
0
LINE
8
BLACK
6
CONTINUOUS
10
3.39653
20
-1.11375
11
3.39897
21
-1.10149
0
LINE
8
BLACK
6
CONTINUOUS
10
3.40349
20
-1.13714
11
3.40792
21
-1.14784
0
LINE
8
BLACK
6
CONTINUOUS
10
3.40792
20
-1.14784
11
3.41435
21
-1.15746
0
LINE
8
BLACK
6
CONTINUOUS
10
3.41435
20
-1.15746
11
3.42254
21
-1.16565
0
LINE
8
BLACK
6
CONTINUOUS
10
3.42254
20
-1.16565
11
3.43216
21
-1.17208
0
LINE
8
BLACK
6
CONTINUOUS
10
3.43216
20
-1.17208
11
3.44286
21
-1.17651
0
LINE
8
BLACK
6
CONTINUOUS
10
3.44286
20
-1.17651
11
3.45421
21
-1.17877
0
LINE
8
BLACK
6
CONTINUOUS
10
3.45421
20
-1.17877
11
3.46579
21
-1.17877
0
LINE
8
BLACK
6
CONTINUOUS
10
3.46579
20
-1.17877
11
3.47714
21
-1.17651
0
LINE
8
BLACK
6
CONTINUOUS
10
3.47714
20
-1.17651
11
3.48784
21
-1.17208
0
LINE
8
BLACK
6
CONTINUOUS
10
3.48784
20
-1.17208
11
3.49746
21
-1.16565
0
LINE
8
BLACK
6
CONTINUOUS
10
3.49746
20
-1.16565
11
3.50565
21
-1.15746
0
LINE
8
BLACK
6
CONTINUOUS
10
3.50565
20
-1.15746
11
3.51208
21
-1.14784
0
LINE
8
BLACK
6
CONTINUOUS
10
3.51208
20
-1.14784
11
3.51651
21
-1.13714
0
LINE
8
BLACK
6
CONTINUOUS
10
3.51651
20
-1.13714
11
3.51877
21
-1.12579
0
LINE
8
BLACK
6
CONTINUOUS
10
3.51877
20
-1.12579
11
3.51877
21
-1.11421
0
LINE
8
BLACK
6
CONTINUOUS
10
3.51877
20
-1.11421
11
3.51651
21
-1.10286
0
LINE
8
BLACK
6
CONTINUOUS
10
3.51651
20
-1.10286
11
3.51208
21
-1.09216
0
LINE
8
BLACK
6
CONTINUOUS
10
3.51208
20
-1.09216
11
3.50565
21
-1.08254
0
LINE
8
BLACK
6
CONTINUOUS
10
3.50565
20
-1.08254
11
3.49746
21
-1.07435
0
LINE
8
BLACK
6
CONTINUOUS
10
3.49746
20
-1.07435
11
3.48784
21
-1.06792
0
LINE
8
BLACK
6
CONTINUOUS
10
3.48784
20
-1.06792
11
3.47714
21
-1.06349
0
LINE
8
BLACK
6
CONTINUOUS
10
3.47714
20
-1.06349
11
3.46579
21
-1.06123
0
LINE
8
BLACK
6
CONTINUOUS
10
3.46579
20
-1.06123
11
3.45421
21
-1.06123
0
LINE
8
BLACK
6
CONTINUOUS
10
3.45421
20
-1.06123
11
3.44286
21
-1.06349
0
LINE
8
BLACK
6
CONTINUOUS
10
3.44286
20
-1.06349
11
3.43216
21
-1.06792
0
LINE
8
BLACK
6
CONTINUOUS
10
3.43216
20
-1.06792
11
3.42254
21
-1.07435
0
LINE
8
BLACK
6
CONTINUOUS
10
3.42254
20
-1.07435
11
3.41435
21
-1.08254
0
LINE
8
BLACK
6
CONTINUOUS
10
3.41435
20
-1.08254
11
3.40792
21
-1.09216
0
LINE
8
BLACK
6
CONTINUOUS
10
3.40792
20
-1.09216
11
3.40349
21
-1.10286
0
LINE
8
BLACK
6
CONTINUOUS
10
3.40349
20
-1.10286
11
3.40123
21
-1.11421
0
LINE
8
BLACK
6
CONTINUOUS
10
3.40123
20
-1.11421
11
3.40123
21
-1.12579
0
LINE
8
BLACK
6
CONTINUOUS
10
3.40123
20
-1.12579
11
3.40349
21
-1.13714
0
LINE
8
BLACK
6
CONTINUOUS
10
9.41397
20
-1.09149
11
9.41875
21
-1.07993
0
LINE
8
BLACK
6
CONTINUOUS
10
9.41875
20
-1.07993
11
9.4257
21
-1.06954
0
LINE
8
BLACK
6
CONTINUOUS
10
9.4257
20
-1.06954
11
9.43454
21
-1.0607
0
LINE
8
BLACK
6
CONTINUOUS
10
9.43454
20
-1.0607
11
9.44493
21
-1.05375
0
LINE
8
BLACK
6
CONTINUOUS
10
9.44493
20
-1.05375
11
9.45649
21
-1.04897
0
LINE
8
BLACK
6
CONTINUOUS
10
9.45649
20
-1.04897
11
9.46875
21
-1.04653
0
LINE
8
BLACK
6
CONTINUOUS
10
9.46875
20
-1.04653
11
9.48125
21
-1.04653
0
LINE
8
BLACK
6
CONTINUOUS
10
9.48125
20
-1.04653
11
9.49351
21
-1.04897
0
LINE
8
BLACK
6
CONTINUOUS
10
9.49351
20
-1.04897
11
9.50507
21
-1.05375
0
LINE
8
BLACK
6
CONTINUOUS
10
9.50507
20
-1.05375
11
9.51546
21
-1.0607
0
LINE
8
BLACK
6
CONTINUOUS
10
9.51546
20
-1.0607
11
9.5243
21
-1.06954
0
LINE
8
BLACK
6
CONTINUOUS
10
9.5243
20
-1.06954
11
9.53125
21
-1.07993
0
LINE
8
BLACK
6
CONTINUOUS
10
9.53125
20
-1.07993
11
9.53603
21
-1.09149
0
LINE
8
BLACK
6
CONTINUOUS
10
9.53603
20
-1.09149
11
9.53847
21
-1.10375
0
LINE
8
BLACK
6
CONTINUOUS
10
9.53847
20
-1.10375
11
9.53847
21
-1.11625
0
LINE
8
BLACK
6
CONTINUOUS
10
9.53847
20
-1.11625
11
9.53603
21
-1.12851
0
LINE
8
BLACK
6
CONTINUOUS
10
9.53603
20
-1.12851
11
9.53125
21
-1.14007
0
LINE
8
BLACK
6
CONTINUOUS
10
9.53125
20
-1.14007
11
9.5243
21
-1.15046
0
LINE
8
BLACK
6
CONTINUOUS
10
9.5243
20
-1.15046
11
9.51546
21
-1.1593
0
LINE
8
BLACK
6
CONTINUOUS
10
9.51546
20
-1.1593
11
9.50507
21
-1.16625
0
LINE
8
BLACK
6
CONTINUOUS
10
9.50507
20
-1.16625
11
9.49351
21
-1.17103
0
LINE
8
BLACK
6
CONTINUOUS
10
9.49351
20
-1.17103
11
9.48125
21
-1.17347
0
LINE
8
BLACK
6
CONTINUOUS
10
9.48125
20
-1.17347
11
9.46875
21
-1.17347
0
LINE
8
BLACK
6
CONTINUOUS
10
9.46875
20
-1.17347
11
9.45649
21
-1.17103
0
LINE
8
BLACK
6
CONTINUOUS
10
9.45649
20
-1.17103
11
9.44493
21
-1.16625
0
LINE
8
BLACK
6
CONTINUOUS
10
9.44493
20
-1.16625
11
9.43454
21
-1.1593
0
LINE
8
BLACK
6
CONTINUOUS
10
9.43454
20
-1.1593
11
9.4257
21
-1.15046
0
LINE
8
BLACK
6
CONTINUOUS
10
9.4257
20
-1.15046
11
9.41875
21
-1.14007
0
LINE
8
BLACK
6
CONTINUOUS
10
9.41875
20
-1.14007
11
9.41397
21
-1.12851
0
LINE
8
BLACK
6
CONTINUOUS
10
9.41397
20
-1.12851
11
9.41153
21
-1.11625
0
LINE
8
BLACK
6
CONTINUOUS
10
9.41153
20
-1.11625
11
9.41153
21
-1.10375
0
LINE
8
BLACK
6
CONTINUOUS
10
9.41153
20
-1.10375
11
9.41397
21
-1.09149
0
LINE
8
BLACK
6
CONTINUOUS
10
9.41849
20
-1.12714
11
9.42292
21
-1.13784
0
LINE
8
BLACK
6
CONTINUOUS
10
9.42292
20
-1.13784
11
9.42935
21
-1.14746
0
LINE
8
BLACK
6
CONTINUOUS
10
9.42935
20
-1.14746
11
9.43754
21
-1.15565
0
LINE
8
BLACK
6
CONTINUOUS
10
9.43754
20
-1.15565
11
9.44716
21
-1.16208
0
LINE
8
BLACK
6
CONTINUOUS
10
9.44716
20
-1.16208
11
9.45786
21
-1.16651
0
LINE
8
BLACK
6
CONTINUOUS
10
9.45786
20
-1.16651
11
9.46921
21
-1.16877
0
LINE
8
BLACK
6
CONTINUOUS
10
9.46921
20
-1.16877
11
9.48079
21
-1.16877
0
LINE
8
BLACK
6
CONTINUOUS
10
9.48079
20
-1.16877
11
9.49214
21
-1.16651
0
LINE
8
BLACK
6
CONTINUOUS
10
9.49214
20
-1.16651
11
9.50284
21
-1.16208
0
LINE
8
BLACK
6
CONTINUOUS
10
9.50284
20
-1.16208
11
9.51246
21
-1.15565
0
LINE
8
BLACK
6
CONTINUOUS
10
9.51246
20
-1.15565
11
9.52065
21
-1.14746
0
LINE
8
BLACK
6
CONTINUOUS
10
9.52065
20
-1.14746
11
9.52708
21
-1.13784
0
LINE
8
BLACK
6
CONTINUOUS
10
9.52708
20
-1.13784
11
9.53151
21
-1.12714
0
LINE
8
BLACK
6
CONTINUOUS
10
9.53151
20
-1.12714
11
9.53377
21
-1.11579
0
LINE
8
BLACK
6
CONTINUOUS
10
9.53377
20
-1.11579
11
9.53377
21
-1.10421
0
LINE
8
BLACK
6
CONTINUOUS
10
9.53377
20
-1.10421
11
9.53151
21
-1.09286
0
LINE
8
BLACK
6
CONTINUOUS
10
9.53151
20
-1.09286
11
9.52708
21
-1.08216
0
LINE
8
BLACK
6
CONTINUOUS
10
9.52708
20
-1.08216
11
9.52065
21
-1.07254
0
LINE
8
BLACK
6
CONTINUOUS
10
9.52065
20
-1.07254
11
9.51246
21
-1.06435
0
LINE
8
BLACK
6
CONTINUOUS
10
9.51246
20
-1.06435
11
9.50284
21
-1.05792
0
LINE
8
BLACK
6
CONTINUOUS
10
9.50284
20
-1.05792
11
9.49214
21
-1.05349
0
LINE
8
BLACK
6
CONTINUOUS
10
9.49214
20
-1.05349
11
9.48079
21
-1.05123
0
LINE
8
BLACK
6
CONTINUOUS
10
9.48079
20
-1.05123
11
9.46921
21
-1.05123
0
LINE
8
BLACK
6
CONTINUOUS
10
9.46921
20
-1.05123
11
9.45786
21
-1.05349
0
LINE
8
BLACK
6
CONTINUOUS
10
9.45786
20
-1.05349
11
9.44716
21
-1.05792
0
LINE
8
BLACK
6
CONTINUOUS
10
9.44716
20
-1.05792
11
9.43754
21
-1.06435
0
LINE
8
BLACK
6
CONTINUOUS
10
9.43754
20
-1.06435
11
9.42935
21
-1.07254
0
LINE
8
BLACK
6
CONTINUOUS
10
9.42935
20
-1.07254
11
9.42292
21
-1.08216
0
LINE
8
BLACK
6
CONTINUOUS
10
9.42292
20
-1.08216
11
9.41849
21
-1.09286
0
LINE
8
BLACK
6
CONTINUOUS
10
9.41849
20
-1.09286
11
9.41623
21
-1.10421
0
LINE
8
BLACK
6
CONTINUOUS
10
9.41623
20
-1.10421
11
9.41623
21
-1.11579
0
LINE
8
BLACK
6
CONTINUOUS
10
9.41623
20
-1.11579
11
9.41849
21
-1.12714
0
LINE
8
BLACK
6
CONTINUOUS
10
4.90397
20
-1.08649
11
4.90875
21
-1.07493
0
LINE
8
BLACK
6
CONTINUOUS
10
4.90875
20
-1.07493
11
4.9157
21
-1.06454
0
LINE
8
BLACK
6
CONTINUOUS
10
4.9157
20
-1.06454
11
4.92454
21
-1.0557
0
LINE
8
BLACK
6
CONTINUOUS
10
4.92454
20
-1.0557
11
4.93493
21
-1.04875
0
LINE
8
BLACK
6
CONTINUOUS
10
4.93493
20
-1.04875
11
4.94649
21
-1.04397
0
LINE
8
BLACK
6
CONTINUOUS
10
4.94649
20
-1.04397
11
4.95875
21
-1.04153
0
LINE
8
BLACK
6
CONTINUOUS
10
4.95875
20
-1.04153
11
4.97125
21
-1.04153
0
LINE
8
BLACK
6
CONTINUOUS
10
4.97125
20
-1.04153
11
4.98351
21
-1.04397
0
LINE
8
BLACK
6
CONTINUOUS
10
4.98351
20
-1.04397
11
4.99507
21
-1.04875
0
LINE
8
BLACK
6
CONTINUOUS
10
4.99507
20
-1.04875
11
5.00546
21
-1.0557
0
LINE
8
BLACK
6
CONTINUOUS
10
5.00546
20
-1.0557
11
5.0143
21
-1.06454
0
LINE
8
BLACK
6
CONTINUOUS
10
5.0143
20
-1.06454
11
5.02125
21
-1.07493
0
LINE
8
BLACK
6
CONTINUOUS
10
5.02125
20
-1.07493
11
5.02603
21
-1.08649
0
LINE
8
BLACK
6
CONTINUOUS
10
5.02603
20
-1.08649
11
5.02847
21
-1.09875
0
LINE
8
BLACK
6
CONTINUOUS
10
5.02847
20
-1.09875
11
5.02847
21
-1.11125
0
LINE
8
BLACK
6
CONTINUOUS
10
5.02847
20
-1.11125
11
5.02603
21
-1.12351
0
LINE
8
BLACK
6
CONTINUOUS
10
5.02603
20
-1.12351
11
5.02125
21
-1.13507
0
LINE
8
BLACK
6
CONTINUOUS
10
5.02125
20
-1.13507
11
5.0143
21
-1.14546
0
LINE
8
BLACK
6
CONTINUOUS
10
5.0143
20
-1.14546
11
5.00546
21
-1.1543
0
LINE
8
BLACK
6
CONTINUOUS
10
5.00546
20
-1.1543
11
4.99507
21
-1.16125
0
LINE
8
BLACK
6
CONTINUOUS
10
4.99507
20
-1.16125
11
4.98351
21
-1.16603
0
LINE
8
BLACK
6
CONTINUOUS
10
4.98351
20
-1.16603
11
4.97125
21
-1.16847
0
LINE
8
BLACK
6
CONTINUOUS
10
4.97125
20
-1.16847
11
4.95875
21
-1.16847
0
LINE
8
BLACK
6
CONTINUOUS
10
4.95875
20
-1.16847
11
4.94649
21
-1.16603
0
LINE
8
BLACK
6
CONTINUOUS
10
4.94649
20
-1.16603
11
4.93493
21
-1.16125
0
LINE
8
BLACK
6
CONTINUOUS
10
4.93493
20
-1.16125
11
4.92454
21
-1.1543
0
LINE
8
BLACK
6
CONTINUOUS
10
4.92454
20
-1.1543
11
4.9157
21
-1.14546
0
LINE
8
BLACK
6
CONTINUOUS
10
4.9157
20
-1.14546
11
4.90875
21
-1.13507
0
LINE
8
BLACK
6
CONTINUOUS
10
4.90875
20
-1.13507
11
4.90397
21
-1.12351
0
LINE
8
BLACK
6
CONTINUOUS
10
4.90397
20
-1.12351
11
4.90153
21
-1.11125
0
LINE
8
BLACK
6
CONTINUOUS
10
4.90153
20
-1.11125
11
4.90153
21
-1.09875
0
LINE
8
BLACK
6
CONTINUOUS
10
4.90153
20
-1.09875
11
4.90397
21
-1.08649
0
LINE
8
BLACK
6
CONTINUOUS
10
4.90849
20
-1.12214
11
4.91292
21
-1.13284
0
LINE
8
BLACK
6
CONTINUOUS
10
4.91292
20
-1.13284
11
4.91935
21
-1.14246
0
LINE
8
BLACK
6
CONTINUOUS
10
4.91935
20
-1.14246
11
4.92754
21
-1.15065
0
LINE
8
BLACK
6
CONTINUOUS
10
4.92754
20
-1.15065
11
4.93716
21
-1.15708
0
LINE
8
BLACK
6
CONTINUOUS
10
4.93716
20
-1.15708
11
4.94786
21
-1.16151
0
LINE
8
BLACK
6
CONTINUOUS
10
4.94786
20
-1.16151
11
4.95921
21
-1.16377
0
LINE
8
BLACK
6
CONTINUOUS
10
4.95921
20
-1.16377
11
4.97079
21
-1.16377
0
LINE
8
BLACK
6
CONTINUOUS
10
4.97079
20
-1.16377
11
4.98214
21
-1.16151
0
LINE
8
BLACK
6
CONTINUOUS
10
4.98214
20
-1.16151
11
4.99284
21
-1.15708
0
LINE
8
BLACK
6
CONTINUOUS
10
4.99284
20
-1.15708
11
5.00246
21
-1.15065
0
LINE
8
BLACK
6
CONTINUOUS
10
5.00246
20
-1.15065
11
5.01065
21
-1.14246
0
LINE
8
BLACK
6
CONTINUOUS
10
5.01065
20
-1.14246
11
5.01708
21
-1.13284
0
LINE
8
BLACK
6
CONTINUOUS
10
5.01708
20
-1.13284
11
5.02151
21
-1.12214
0
LINE
8
BLACK
6
CONTINUOUS
10
5.02151
20
-1.12214
11
5.02377
21
-1.11079
0
LINE
8
BLACK
6
CONTINUOUS
10
5.02377
20
-1.11079
11
5.02377
21
-1.09921
0
LINE
8
BLACK
6
CONTINUOUS
10
5.02377
20
-1.09921
11
5.02151
21
-1.08786
0
LINE
8
BLACK
6
CONTINUOUS
10
5.02151
20
-1.08786
11
5.01708
21
-1.07716
0
LINE
8
BLACK
6
CONTINUOUS
10
5.01708
20
-1.07716
11
5.01065
21
-1.06754
0
LINE
8
BLACK
6
CONTINUOUS
10
5.01065
20
-1.06754
11
5.00246
21
-1.05935
0
LINE
8
BLACK
6
CONTINUOUS
10
5.00246
20
-1.05935
11
4.99284
21
-1.05292
0
LINE
8
BLACK
6
CONTINUOUS
10
4.99284
20
-1.05292
11
4.98214
21
-1.04849
0
LINE
8
BLACK
6
CONTINUOUS
10
4.98214
20
-1.04849
11
4.97079
21
-1.04623
0
LINE
8
BLACK
6
CONTINUOUS
10
4.97079
20
-1.04623
11
4.95921
21
-1.04623
0
LINE
8
BLACK
6
CONTINUOUS
10
4.95921
20
-1.04623
11
4.94786
21
-1.04849
0
LINE
8
BLACK
6
CONTINUOUS
10
4.94786
20
-1.04849
11
4.93716
21
-1.05292
0
LINE
8
BLACK
6
CONTINUOUS
10
4.93716
20
-1.05292
11
4.92754
21
-1.05935
0
LINE
8
BLACK
6
CONTINUOUS
10
4.92754
20
-1.05935
11
4.91935
21
-1.06754
0
LINE
8
BLACK
6
CONTINUOUS
10
4.91935
20
-1.06754
11
4.91292
21
-1.07716
0
LINE
8
BLACK
6
CONTINUOUS
10
4.91292
20
-1.07716
11
4.90849
21
-1.08786
0
LINE
8
BLACK
6
CONTINUOUS
10
4.90849
20
-1.08786
11
4.90623
21
-1.09921
0
LINE
8
BLACK
6
CONTINUOUS
10
4.90623
20
-1.09921
11
4.90623
21
-1.11079
0
LINE
8
BLACK
6
CONTINUOUS
10
4.90623
20
-1.11079
11
4.90849
21
-1.12214
0
LINE
8
BLACK
6
CONTINUOUS
10
7.89897
20
-1.08649
11
7.90375
21
-1.07493
0
LINE
8
BLACK
6
CONTINUOUS
10
7.90375
20
-1.07493
11
7.9107
21
-1.06454
0
LINE
8
BLACK
6
CONTINUOUS
10
7.9107
20
-1.06454
11
7.91954
21
-1.0557
0
LINE
8
BLACK
6
CONTINUOUS
10
7.91954
20
-1.0557
11
7.92993
21
-1.04875
0
LINE
8
BLACK
6
CONTINUOUS
10
7.92993
20
-1.04875
11
7.94149
21
-1.04397
0
LINE
8
BLACK
6
CONTINUOUS
10
7.94149
20
-1.04397
11
7.95375
21
-1.04153
0
LINE
8
BLACK
6
CONTINUOUS
10
7.95375
20
-1.04153
11
7.96625
21
-1.04153
0
LINE
8
BLACK
6
CONTINUOUS
10
7.96625
20
-1.04153
11
7.97851
21
-1.04397
0
LINE
8
BLACK
6
CONTINUOUS
10
7.97851
20
-1.04397
11
7.99007
21
-1.04875
0
LINE
8
BLACK
6
CONTINUOUS
10
7.99007
20
-1.04875
11
8.00046
21
-1.0557
0
LINE
8
BLACK
6
CONTINUOUS
10
8.00046
20
-1.0557
11
8.0093
21
-1.06454
0
LINE
8
BLACK
6
CONTINUOUS
10
8.0093
20
-1.06454
11
8.01625
21
-1.07493
0
LINE
8
BLACK
6
CONTINUOUS
10
8.01625
20
-1.07493
11
8.02103
21
-1.08649
0
LINE
8
BLACK
6
CONTINUOUS
10
8.02103
20
-1.08649
11
8.02347
21
-1.09875
0
LINE
8
BLACK
6
CONTINUOUS
10
8.02347
20
-1.09875
11
8.02347
21
-1.11125
0
LINE
8
BLACK
6
CONTINUOUS
10
8.02347
20
-1.11125
11
8.02103
21
-1.12351
0
LINE
8
BLACK
6
CONTINUOUS
10
8.02103
20
-1.12351
11
8.01625
21
-1.13507
0
LINE
8
BLACK
6
CONTINUOUS
10
8.01625
20
-1.13507
11
8.0093
21
-1.14546
0
LINE
8
BLACK
6
CONTINUOUS
10
8.0093
20
-1.14546
11
8.00046
21
-1.1543
0
LINE
8
BLACK
6
CONTINUOUS
10
8.00046
20
-1.1543
11
7.99007
21
-1.16125
0
LINE
8
BLACK
6
CONTINUOUS
10
7.99007
20
-1.16125
11
7.97851
21
-1.16603
0
LINE
8
BLACK
6
CONTINUOUS
10
7.97851
20
-1.16603
11
7.96625
21
-1.16847
0
LINE
8
BLACK
6
CONTINUOUS
10
7.96625
20
-1.16847
11
7.95375
21
-1.16847
0
LINE
8
BLACK
6
CONTINUOUS
10
7.95375
20
-1.16847
11
7.94149
21
-1.16603
0
LINE
8
BLACK
6
CONTINUOUS
10
7.94149
20
-1.16603
11
7.92993
21
-1.16125
0
LINE
8
BLACK
6
CONTINUOUS
10
7.92993
20
-1.16125
11
7.91954
21
-1.1543
0
LINE
8
BLACK
6
CONTINUOUS
10
7.91954
20
-1.1543
11
7.9107
21
-1.14546
0
LINE
8
BLACK
6
CONTINUOUS
10
7.9107
20
-1.14546
11
7.90375
21
-1.13507
0
LINE
8
BLACK
6
CONTINUOUS
10
7.90375
20
-1.13507
11
7.89897
21
-1.12351
0
LINE
8
BLACK
6
CONTINUOUS
10
7.89897
20
-1.12351
11
7.89653
21
-1.11125
0
LINE
8
BLACK
6
CONTINUOUS
10
7.89653
20
-1.11125
11
7.89653
21
-1.09875
0
LINE
8
BLACK
6
CONTINUOUS
10
7.89653
20
-1.09875
11
7.89897
21
-1.08649
0
LINE
8
BLACK
6
CONTINUOUS
10
7.90349
20
-1.12214
11
7.90792
21
-1.13284
0
LINE
8
BLACK
6
CONTINUOUS
10
7.90792
20
-1.13284
11
7.91435
21
-1.14246
0
LINE
8
BLACK
6
CONTINUOUS
10
7.91435
20
-1.14246
11
7.92254
21
-1.15065
0
LINE
8
BLACK
6
CONTINUOUS
10
7.92254
20
-1.15065
11
7.93216
21
-1.15708
0
LINE
8
BLACK
6
CONTINUOUS
10
7.93216
20
-1.15708
11
7.94286
21
-1.16151
0
LINE
8
BLACK
6
CONTINUOUS
10
7.94286
20
-1.16151
11
7.95421
21
-1.16377
0
LINE
8
BLACK
6
CONTINUOUS
10
7.95421
20
-1.16377
11
7.96579
21
-1.16377
0
LINE
8
BLACK
6
CONTINUOUS
10
7.96579
20
-1.16377
11
7.97714
21
-1.16151
0
LINE
8
BLACK
6
CONTINUOUS
10
7.97714
20
-1.16151
11
7.98784
21
-1.15708
0
LINE
8
BLACK
6
CONTINUOUS
10
7.98784
20
-1.15708
11
7.99746
21
-1.15065
0
LINE
8
BLACK
6
CONTINUOUS
10
7.99746
20
-1.15065
11
8.00565
21
-1.14246
0
LINE
8
BLACK
6
CONTINUOUS
10
8.00565
20
-1.14246
11
8.01208
21
-1.13284
0
LINE
8
BLACK
6
CONTINUOUS
10
8.01208
20
-1.13284
11
8.01651
21
-1.12214
0
LINE
8
BLACK
6
CONTINUOUS
10
8.01651
20
-1.12214
11
8.01877
21
-1.11079
0
LINE
8
BLACK
6
CONTINUOUS
10
8.01877
20
-1.11079
11
8.01877
21
-1.09921
0
LINE
8
BLACK
6
CONTINUOUS
10
8.01877
20
-1.09921
11
8.01651
21
-1.08786
0
LINE
8
BLACK
6
CONTINUOUS
10
8.01651
20
-1.08786
11
8.01208
21
-1.07716
0
LINE
8
BLACK
6
CONTINUOUS
10
8.01208
20
-1.07716
11
8.00565
21
-1.06754
0
LINE
8
BLACK
6
CONTINUOUS
10
8.00565
20
-1.06754
11
7.99746
21
-1.05935
0
LINE
8
BLACK
6
CONTINUOUS
10
7.99746
20
-1.05935
11
7.98784
21
-1.05292
0
LINE
8
BLACK
6
CONTINUOUS
10
7.98784
20
-1.05292
11
7.97714
21
-1.04849
0
LINE
8
BLACK
6
CONTINUOUS
10
7.97714
20
-1.04849
11
7.96579
21
-1.04623
0
LINE
8
BLACK
6
CONTINUOUS
10
7.96579
20
-1.04623
11
7.95421
21
-1.04623
0
LINE
8
BLACK
6
CONTINUOUS
10
7.95421
20
-1.04623
11
7.94286
21
-1.04849
0
LINE
8
BLACK
6
CONTINUOUS
10
7.94286
20
-1.04849
11
7.93216
21
-1.05292
0
LINE
8
BLACK
6
CONTINUOUS
10
7.93216
20
-1.05292
11
7.92254
21
-1.05935
0
LINE
8
BLACK
6
CONTINUOUS
10
7.92254
20
-1.05935
11
7.91435
21
-1.06754
0
LINE
8
BLACK
6
CONTINUOUS
10
7.91435
20
-1.06754
11
7.90792
21
-1.07716
0
LINE
8
BLACK
6
CONTINUOUS
10
7.90792
20
-1.07716
11
7.90349
21
-1.08786
0
LINE
8
BLACK
6
CONTINUOUS
10
7.90349
20
-1.08786
11
7.90123
21
-1.09921
0
LINE
8
BLACK
6
CONTINUOUS
10
7.90123
20
-1.09921
11
7.90123
21
-1.11079
0
LINE
8
BLACK
6
CONTINUOUS
10
7.90123
20
-1.11079
11
7.90349
21
-1.12214
0
LINE
8
BLACK
6
CONTINUOUS
10
5.34397
20
-0.256486
11
5.34875
21
-0.244935
0
LINE
8
BLACK
6
CONTINUOUS
10
5.34875
20
-0.244935
11
5.3557
21
-0.234539
0
LINE
8
BLACK
6
CONTINUOUS
10
5.3557
20
-0.234539
11
5.36454
21
-0.225698
0
LINE
8
BLACK
6
CONTINUOUS
10
5.36454
20
-0.225698
11
5.37493
21
-0.218751
0
LINE
8
BLACK
6
CONTINUOUS
10
5.37493
20
-0.218751
11
5.38649
21
-0.213967
0
LINE
8
BLACK
6
CONTINUOUS
10
5.38649
20
-0.213967
11
5.39875
21
-0.211528
0
LINE
8
BLACK
6
CONTINUOUS
10
5.39875
20
-0.211528
11
5.41125
21
-0.211528
0
LINE
8
BLACK
6
CONTINUOUS
10
5.41125
20
-0.211528
11
5.42351
21
-0.213967
0
LINE
8
BLACK
6
CONTINUOUS
10
5.42351
20
-0.213967
11
5.43507
21
-0.218751
0
LINE
8
BLACK
6
CONTINUOUS
10
5.43507
20
-0.218751
11
5.44546
21
-0.225698
0
LINE
8
BLACK
6
CONTINUOUS
10
5.44546
20
-0.225698
11
5.4543
21
-0.234539
0
LINE
8
BLACK
6
CONTINUOUS
10
5.4543
20
-0.234539
11
5.46125
21
-0.244935
0
LINE
8
BLACK
6
CONTINUOUS
10
5.46125
20
-0.244935
11
5.46603
21
-0.256486
0
LINE
8
BLACK
6
CONTINUOUS
10
5.46603
20
-0.256486
11
5.46847
21
-0.268749
0
LINE
8
BLACK
6
CONTINUOUS
10
5.46847
20
-0.268749
11
5.46847
21
-0.281251
0
LINE
8
BLACK
6
CONTINUOUS
10
5.46847
20
-0.281251
11
5.46603
21
-0.293514
0
LINE
8
BLACK
6
CONTINUOUS
10
5.46603
20
-0.293514
11
5.46125
21
-0.305065
0
LINE
8
BLACK
6
CONTINUOUS
10
5.46125
20
-0.305065
11
5.4543
21
-0.315461
0
LINE
8
BLACK
6
CONTINUOUS
10
5.4543
20
-0.315461
11
5.44546
21
-0.324302
0
LINE
8
BLACK
6
CONTINUOUS
10
5.44546
20
-0.324302
11
5.43507
21
-0.331249
0
LINE
8
BLACK
6
CONTINUOUS
10
5.43507
20
-0.331249
11
5.42351
21
-0.336033
0
LINE
8
BLACK
6
CONTINUOUS
10
5.42351
20
-0.336033
11
5.41125
21
-0.338472
0
LINE
8
BLACK
6
CONTINUOUS
10
5.41125
20
-0.338472
11
5.39875
21
-0.338472
0
LINE
8
BLACK
6
CONTINUOUS
10
5.39875
20
-0.338472
11
5.38649
21
-0.336033
0
LINE
8
BLACK
6
CONTINUOUS
10
5.38649
20
-0.336033
11
5.37493
21
-0.331249
0
LINE
8
BLACK
6
CONTINUOUS
10
5.37493
20
-0.331249
11
5.36454
21
-0.324302
0
LINE
8
BLACK
6
CONTINUOUS
10
5.36454
20
-0.324302
11
5.3557
21
-0.315461
0
LINE
8
BLACK
6
CONTINUOUS
10
5.3557
20
-0.315461
11
5.34875
21
-0.305065
0
LINE
8
BLACK
6
CONTINUOUS
10
5.34875
20
-0.305065
11
5.34397
21
-0.293514
0
LINE
8
BLACK
6
CONTINUOUS
10
5.34397
20
-0.293514
11
5.34153
21
-0.281251
0
LINE
8
BLACK
6
CONTINUOUS
10
5.34153
20
-0.281251
11
5.34153
21
-0.268749
0
LINE
8
BLACK
6
CONTINUOUS
10
5.34153
20
-0.268749
11
5.34397
21
-0.256486
0
LINE
8
BLACK
6
CONTINUOUS
10
5.34849
20
-0.292143
11
5.35292
21
-0.302838
0
LINE
8
BLACK
6
CONTINUOUS
10
5.35292
20
-0.302838
11
5.35935
21
-0.312464
0
LINE
8
BLACK
6
CONTINUOUS
10
5.35935
20
-0.312464
11
5.36754
21
-0.32065
0
LINE
8
BLACK
6
CONTINUOUS
10
5.36754
20
-0.32065
11
5.37716
21
-0.327082
0
LINE
8
BLACK
6
CONTINUOUS
10
5.37716
20
-0.327082
11
5.38786
21
-0.331512
0
LINE
8
BLACK
6
CONTINUOUS
10
5.38786
20
-0.331512
11
5.39921
21
-0.333771
0
LINE
8
BLACK
6
CONTINUOUS
10
5.39921
20
-0.333771
11
5.41079
21
-0.333771
0
LINE
8
BLACK
6
CONTINUOUS
10
5.41079
20
-0.333771
11
5.42214
21
-0.331512
0
LINE
8
BLACK
6
CONTINUOUS
10
5.42214
20
-0.331512
11
5.43284
21
-0.327082
0
LINE
8
BLACK
6
CONTINUOUS
10
5.43284
20
-0.327082
11
5.44246
21
-0.32065
0
LINE
8
BLACK
6
CONTINUOUS
10
5.44246
20
-0.32065
11
5.45065
21
-0.312464
0
LINE
8
BLACK
6
CONTINUOUS
10
5.45065
20
-0.312464
11
5.45708
21
-0.302838
0
LINE
8
BLACK
6
CONTINUOUS
10
5.45708
20
-0.302838
11
5.46151
21
-0.292143
0
LINE
8
BLACK
6
CONTINUOUS
10
5.46151
20
-0.292143
11
5.46377
21
-0.280788
0
LINE
8
BLACK
6
CONTINUOUS
10
5.46377
20
-0.280788
11
5.46377
21
-0.269212
0
LINE
8
BLACK
6
CONTINUOUS
10
5.46377
20
-0.269212
11
5.46151
21
-0.257857
0
LINE
8
BLACK
6
CONTINUOUS
10
5.46151
20
-0.257857
11
5.45708
21
-0.247162
0
LINE
8
BLACK
6
CONTINUOUS
10
5.45708
20
-0.247162
11
5.45065
21
-0.237536
0
LINE
8
BLACK
6
CONTINUOUS
10
5.45065
20
-0.237536
11
5.44246
21
-0.22935
0
LINE
8
BLACK
6
CONTINUOUS
10
5.44246
20
-0.22935
11
5.43284
21
-0.222918
0
LINE
8
BLACK
6
CONTINUOUS
10
5.43284
20
-0.222918
11
5.42214
21
-0.218488
0
LINE
8
BLACK
6
CONTINUOUS
10
5.42214
20
-0.218488
11
5.41079
21
-0.216229
0
LINE
8
BLACK
6
CONTINUOUS
10
5.41079
20
-0.216229
11
5.39921
21
-0.216229
0
LINE
8
BLACK
6
CONTINUOUS
10
5.39921
20
-0.216229
11
5.38786
21
-0.218488
0
LINE
8
BLACK
6
CONTINUOUS
10
5.38786
20
-0.218488
11
5.37716
21
-0.222918
0
LINE
8
BLACK
6
CONTINUOUS
10
5.37716
20
-0.222918
11
5.36754
21
-0.22935
0
LINE
8
BLACK
6
CONTINUOUS
10
5.36754
20
-0.22935
11
5.35935
21
-0.237536
0
LINE
8
BLACK
6
CONTINUOUS
10
5.35935
20
-0.237536
11
5.35292
21
-0.247162
0
LINE
8
BLACK
6
CONTINUOUS
10
5.35292
20
-0.247162
11
5.34849
21
-0.257857
0
LINE
8
BLACK
6
CONTINUOUS
10
5.34849
20
-0.257857
11
5.34623
21
-0.269212
0
LINE
8
BLACK
6
CONTINUOUS
10
5.34623
20
-0.269212
11
5.34623
21
-0.280788
0
LINE
8
BLACK
6
CONTINUOUS
10
5.34623
20
-0.280788
11
5.34849
21
-0.292143
0
LINE
8
BLACK
6
CONTINUOUS
10
9.69897
20
-0.251486
11
9.70375
21
-0.239935
0
LINE
8
BLACK
6
CONTINUOUS
10
9.70375
20
-0.239935
11
9.7107
21
-0.229539
0
LINE
8
BLACK
6
CONTINUOUS
10
9.7107
20
-0.229539
11
9.71954
21
-0.220698
0
LINE
8
BLACK
6
CONTINUOUS
10
9.71954
20
-0.220698
11
9.72993
21
-0.213751
0
LINE
8
BLACK
6
CONTINUOUS
10
9.72993
20
-0.213751
11
9.74149
21
-0.208967
0
LINE
8
BLACK
6
CONTINUOUS
10
9.74149
20
-0.208967
11
9.75375
21
-0.206528
0
LINE
8
BLACK
6
CONTINUOUS
10
9.75375
20
-0.206528
11
9.76625
21
-0.206528
0
LINE
8
BLACK
6
CONTINUOUS
10
9.76625
20
-0.206528
11
9.77851
21
-0.208967
0
LINE
8
BLACK
6
CONTINUOUS
10
9.77851
20
-0.208967
11
9.79007
21
-0.213751
0
LINE
8
BLACK
6
CONTINUOUS
10
9.79007
20
-0.213751
11
9.80046
21
-0.220698
0
LINE
8
BLACK
6
CONTINUOUS
10
9.80046
20
-0.220698
11
9.8093
21
-0.229539
0
LINE
8
BLACK
6
CONTINUOUS
10
9.8093
20
-0.229539
11
9.81625
21
-0.239935
0
LINE
8
BLACK
6
CONTINUOUS
10
9.81625
20
-0.239935
11
9.82103
21
-0.251486
0
LINE
8
BLACK
6
CONTINUOUS
10
9.82103
20
-0.251486
11
9.82347
21
-0.263749
0
LINE
8
BLACK
6
CONTINUOUS
10
9.82347
20
-0.263749
11
9.82347
21
-0.276251
0
LINE
8
BLACK
6
CONTINUOUS
10
9.82347
20
-0.276251
11
9.82103
21
-0.288514
0
LINE
8
BLACK
6
CONTINUOUS
10
9.82103
20
-0.288514
11
9.81625
21
-0.300065
0
LINE
8
BLACK
6
CONTINUOUS
10
9.81625
20
-0.300065
11
9.8093
21
-0.310461
0
LINE
8
BLACK
6
CONTINUOUS
10
9.8093
20
-0.310461
11
9.80046
21
-0.319302
0
LINE
8
BLACK
6
CONTINUOUS
10
9.80046
20
-0.319302
11
9.79007
21
-0.326249
0
LINE
8
BLACK
6
CONTINUOUS
10
9.79007
20
-0.326249
11
9.77851
21
-0.331033
0
LINE
8
BLACK
6
CONTINUOUS
10
9.77851
20
-0.331033
11
9.76625
21
-0.333472
0
LINE
8
BLACK
6
CONTINUOUS
10
9.76625
20
-0.333472
11
9.75375
21
-0.333472
0
LINE
8
BLACK
6
CONTINUOUS
10
9.75375
20
-0.333472
11
9.74149
21
-0.331033
0
LINE
8
BLACK
6
CONTINUOUS
10
9.74149
20
-0.331033
11
9.72993
21
-0.326249
0
LINE
8
BLACK
6
CONTINUOUS
10
9.72993
20
-0.326249
11
9.71954
21
-0.319302
0
LINE
8
BLACK
6
CONTINUOUS
10
9.71954
20
-0.319302
11
9.7107
21
-0.310461
0
LINE
8
BLACK
6
CONTINUOUS
10
9.7107
20
-0.310461
11
9.70375
21
-0.300065
0
LINE
8
BLACK
6
CONTINUOUS
10
9.70375
20
-0.300065
11
9.69897
21
-0.288514
0
LINE
8
BLACK
6
CONTINUOUS
10
9.69897
20
-0.288514
11
9.69653
21
-0.276251
0
LINE
8
BLACK
6
CONTINUOUS
10
9.69653
20
-0.276251
11
9.69653
21
-0.263749
0
LINE
8
BLACK
6
CONTINUOUS
10
9.69653
20
-0.263749
11
9.69897
21
-0.251486
0
LINE
8
BLACK
6
CONTINUOUS
10
9.70349
20
-0.287143
11
9.70792
21
-0.297838
0
LINE
8
BLACK
6
CONTINUOUS
10
9.70792
20
-0.297838
11
9.71435
21
-0.307464
0
LINE
8
BLACK
6
CONTINUOUS
10
9.71435
20
-0.307464
11
9.72254
21
-0.31565
0
LINE
8
BLACK
6
CONTINUOUS
10
9.72254
20
-0.31565
11
9.73216
21
-0.322082
0
LINE
8
BLACK
6
CONTINUOUS
10
9.73216
20
-0.322082
11
9.74286
21
-0.326512
0
LINE
8
BLACK
6
CONTINUOUS
10
9.74286
20
-0.326512
11
9.75421
21
-0.328771
0
LINE
8
BLACK
6
CONTINUOUS
10
9.75421
20
-0.328771
11
9.76579
21
-0.328771
0
LINE
8
BLACK
6
CONTINUOUS
10
9.76579
20
-0.328771
11
9.77714
21
-0.326512
0
LINE
8
BLACK
6
CONTINUOUS
10
9.77714
20
-0.326512
11
9.78784
21
-0.322082
0
LINE
8
BLACK
6
CONTINUOUS
10
9.78784
20
-0.322082
11
9.79746
21
-0.31565
0
LINE
8
BLACK
6
CONTINUOUS
10
9.79746
20
-0.31565
11
9.80565
21
-0.307464
0
LINE
8
BLACK
6
CONTINUOUS
10
9.80565
20
-0.307464
11
9.81208
21
-0.297838
0
LINE
8
BLACK
6
CONTINUOUS
10
9.81208
20
-0.297838
11
9.81651
21
-0.287143
0
LINE
8
BLACK
6
CONTINUOUS
10
9.81651
20
-0.287143
11
9.81877
21
-0.275788
0
LINE
8
BLACK
6
CONTINUOUS
10
9.81877
20
-0.275788
11
9.81877
21
-0.264212
0
LINE
8
BLACK
6
CONTINUOUS
10
9.81877
20
-0.264212
11
9.81651
21
-0.252857
0
LINE
8
BLACK
6
CONTINUOUS
10
9.81651
20
-0.252857
11
9.81208
21
-0.242162
0
LINE
8
BLACK
6
CONTINUOUS
10
9.81208
20
-0.242162
11
9.80565
21
-0.232536
0
LINE
8
BLACK
6
CONTINUOUS
10
9.80565
20
-0.232536
11
9.79746
21
-0.22435
0
LINE
8
BLACK
6
CONTINUOUS
10
9.79746
20
-0.22435
11
9.78784
21
-0.217918
0
LINE
8
BLACK
6
CONTINUOUS
10
9.78784
20
-0.217918
11
9.77714
21
-0.213488
0
LINE
8
BLACK
6
CONTINUOUS
10
9.77714
20
-0.213488
11
9.76579
21
-0.211229
0
LINE
8
BLACK
6
CONTINUOUS
10
9.76579
20
-0.211229
11
9.75421
21
-0.211229
0
LINE
8
BLACK
6
CONTINUOUS
10
9.75421
20
-0.211229
11
9.74286
21
-0.213488
0
LINE
8
BLACK
6
CONTINUOUS
10
9.74286
20
-0.213488
11
9.73216
21
-0.217918
0
LINE
8
BLACK
6
CONTINUOUS
10
9.73216
20
-0.217918
11
9.72254
21
-0.22435
0
LINE
8
BLACK
6
CONTINUOUS
10
9.72254
20
-0.22435
11
9.71435
21
-0.232536
0
LINE
8
BLACK
6
CONTINUOUS
10
9.71435
20
-0.232536
11
9.70792
21
-0.242162
0
LINE
8
BLACK
6
CONTINUOUS
10
9.70792
20
-0.242162
11
9.70349
21
-0.252857
0
LINE
8
BLACK
6
CONTINUOUS
10
9.70349
20
-0.252857
11
9.70123
21
-0.264212
0
LINE
8
BLACK
6
CONTINUOUS
10
9.70123
20
-0.264212
11
9.70123
21
-0.275788
0
LINE
8
BLACK
6
CONTINUOUS
10
9.70123
20
-0.275788
11
9.70349
21
-0.287143
0
LINE
8
BLACK
6
CONTINUOUS
10
14.7829
20
-0.246486
11
14.7877
21
-0.234935
0
LINE
8
BLACK
6
CONTINUOUS
10
14.7877
20
-0.234935
11
14.7947
21
-0.224539
0
LINE
8
BLACK
6
CONTINUOUS
10
14.7947
20
-0.224539
11
14.8035
21
-0.215698
0
LINE
8
BLACK
6
CONTINUOUS
10
14.8035
20
-0.215698
11
14.8139
21
-0.208751
0
LINE
8
BLACK
6
CONTINUOUS
10
14.8139
20
-0.208751
11
14.8255
21
-0.203967
0
LINE
8
BLACK
6
CONTINUOUS
10
14.8255
20
-0.203967
11
14.8377
21
-0.201528
0
LINE
8
BLACK
6
CONTINUOUS
10
14.8377
20
-0.201528
11
14.8502
21
-0.201528
0
LINE
8
BLACK
6
CONTINUOUS
10
14.8502
20
-0.201528
11
14.8625
21
-0.203967
0
LINE
8
BLACK
6
CONTINUOUS
10
14.8625
20
-0.203967
11
14.874
21
-0.208751
0
LINE
8
BLACK
6
CONTINUOUS
10
14.874
20
-0.208751
11
14.8844
21
-0.215698
0
LINE
8
BLACK
6
CONTINUOUS
10
14.8844
20
-0.215698
11
14.8933
21
-0.224539
0
LINE
8
BLACK
6
CONTINUOUS
10
14.8933
20
-0.224539
11
14.9002
21
-0.234935
0
LINE
8
BLACK
6
CONTINUOUS
10
14.9002
20
-0.234935
11
14.905
21
-0.246486
0
LINE
8
BLACK
6
CONTINUOUS
10
14.905
20
-0.246486
11
14.9074
21
-0.258749
0
LINE
8
BLACK
6
CONTINUOUS
10
14.9074
20
-0.258749
11
14.9074
21
-0.271251
0
LINE
8
BLACK
6
CONTINUOUS
10
14.9074
20
-0.271251
11
14.905
21
-0.283514
0
LINE
8
BLACK
6
CONTINUOUS
10
14.905
20
-0.283514
11
14.9002
21
-0.295065
0
LINE
8
BLACK
6
CONTINUOUS
10
14.9002
20
-0.295065
11
14.8933
21
-0.305461
0
LINE
8
BLACK
6
CONTINUOUS
10
14.8933
20
-0.305461
11
14.8844
21
-0.314302
0
LINE
8
BLACK
6
CONTINUOUS
10
14.8844
20
-0.314302
11
14.874
21
-0.321249
0
LINE
8
BLACK
6
CONTINUOUS
10
14.874
20
-0.321249
11
14.8625
21
-0.326033
0
LINE
8
BLACK
6
CONTINUOUS
10
14.8625
20
-0.326033
11
14.8502
21
-0.328472
0
LINE
8
BLACK
6
CONTINUOUS
10
14.8502
20
-0.328472
11
14.8377
21
-0.328472
0
LINE
8
BLACK
6
CONTINUOUS
10
14.8377
20
-0.328472
11
14.8255
21
-0.326033
0
LINE
8
BLACK
6
CONTINUOUS
10
14.8255
20
-0.326033
11
14.8139
21
-0.321249
0
LINE
8
BLACK
6
CONTINUOUS
10
14.8139
20
-0.321249
11
14.8035
21
-0.314302
0
LINE
8
BLACK
6
CONTINUOUS
10
14.8035
20
-0.314302
11
14.7947
21
-0.305461
0
LINE
8
BLACK
6
CONTINUOUS
10
14.7947
20
-0.305461
11
14.7877
21
-0.295065
0
LINE
8
BLACK
6
CONTINUOUS
10
14.7877
20
-0.295065
11
14.7829
21
-0.283514
0
LINE
8
BLACK
6
CONTINUOUS
10
14.7829
20
-0.283514
11
14.7805
21
-0.271251
0
LINE
8
BLACK
6
CONTINUOUS
10
14.7805
20
-0.271251
11
14.7805
21
-0.258749
0
LINE
8
BLACK
6
CONTINUOUS
10
14.7805
20
-0.258749
11
14.7829
21
-0.246486
0
LINE
8
BLACK
6
CONTINUOUS
10
14.7875
20
-0.282143
11
14.7919
21
-0.292838
0
LINE
8
BLACK
6
CONTINUOUS
10
14.7919
20
-0.292838
11
14.7983
21
-0.302464
0
LINE
8
BLACK
6
CONTINUOUS
10
14.7983
20
-0.302464
11
14.8065
21
-0.31065
0
LINE
8
BLACK
6
CONTINUOUS
10
14.8065
20
-0.31065
11
14.8161
21
-0.317082
0
LINE
8
BLACK
6
CONTINUOUS
10
14.8161
20
-0.317082
11
14.8268
21
-0.321512
0
LINE
8
BLACK
6
CONTINUOUS
10
14.8268
20
-0.321512
11
14.8382
21
-0.323771
0
LINE
8
BLACK
6
CONTINUOUS
10
14.8382
20
-0.323771
11
14.8498
21
-0.323771
0
LINE
8
BLACK
6
CONTINUOUS
10
14.8498
20
-0.323771
11
14.8611
21
-0.321512
0
LINE
8
BLACK
6
CONTINUOUS
10
14.8611
20
-0.321512
11
14.8718
21
-0.317082
0
LINE
8
BLACK
6
CONTINUOUS
10
14.8718
20
-0.317082
11
14.8814
21
-0.31065
0
LINE
8
BLACK
6
CONTINUOUS
10
14.8814
20
-0.31065
11
14.8896
21
-0.302464
0
LINE
8
BLACK
6
CONTINUOUS
10
14.8896
20
-0.302464
11
14.8961
21
-0.292838
0
LINE
8
BLACK
6
CONTINUOUS
10
14.8961
20
-0.292838
11
14.9005
21
-0.282143
0
LINE
8
BLACK
6
CONTINUOUS
10
14.9005
20
-0.282143
11
14.9027
21
-0.270788
0
LINE
8
BLACK
6
CONTINUOUS
10
14.9027
20
-0.270788
11
14.9027
21
-0.259212
0
LINE
8
BLACK
6
CONTINUOUS
10
14.9027
20
-0.259212
11
14.9005
21
-0.247857
0
LINE
8
BLACK
6
CONTINUOUS
10
14.9005
20
-0.247857
11
14.8961
21
-0.237162
0
LINE
8
BLACK
6
CONTINUOUS
10
14.8961
20
-0.237162
11
14.8896
21
-0.227536
0
LINE
8
BLACK
6
CONTINUOUS
10
14.8896
20
-0.227536
11
14.8814
21
-0.21935
0
LINE
8
BLACK
6
CONTINUOUS
10
14.8814
20
-0.21935
11
14.8718
21
-0.212918
0
LINE
8
BLACK
6
CONTINUOUS
10
14.8718
20
-0.212918
11
14.8611
21
-0.208488
0
LINE
8
BLACK
6
CONTINUOUS
10
14.8611
20
-0.208488
11
14.8498
21
-0.206229
0
LINE
8
BLACK
6
CONTINUOUS
10
14.8498
20
-0.206229
11
14.8382
21
-0.206229
0
LINE
8
BLACK
6
CONTINUOUS
10
14.8382
20
-0.206229
11
14.8268
21
-0.208488
0
LINE
8
BLACK
6
CONTINUOUS
10
14.8268
20
-0.208488
11
14.8161
21
-0.212918
0
LINE
8
BLACK
6
CONTINUOUS
10
14.8161
20
-0.212918
11
14.8065
21
-0.21935
0
LINE
8
BLACK
6
CONTINUOUS
10
14.8065
20
-0.21935
11
14.7983
21
-0.227536
0
LINE
8
BLACK
6
CONTINUOUS
10
14.7983
20
-0.227536
11
14.7919
21
-0.237162
0
LINE
8
BLACK
6
CONTINUOUS
10
14.7919
20
-0.237162
11
14.7875
21
-0.247857
0
LINE
8
BLACK
6
CONTINUOUS
10
14.7875
20
-0.247857
11
14.7852
21
-0.259212
0
LINE
8
BLACK
6
CONTINUOUS
10
14.7852
20
-0.259212
11
14.7852
21
-0.270788
0
LINE
8
BLACK
6
CONTINUOUS
10
14.7852
20
-0.270788
11
14.7875
21
-0.282143
0
LINE
8
BLACK
6
CONTINUOUS
10
1.09397
20
-0.236486
11
1.09875
21
-0.224935
0
LINE
8
BLACK
6
CONTINUOUS
10
1.09875
20
-0.224935
11
1.1057
21
-0.214539
0
LINE
8
BLACK
6
CONTINUOUS
10
1.1057
20
-0.214539
11
1.11454
21
-0.205698
0
LINE
8
BLACK
6
CONTINUOUS
10
1.11454
20
-0.205698
11
1.12493
21
-0.198751
0
LINE
8
BLACK
6
CONTINUOUS
10
1.12493
20
-0.198751
11
1.13649
21
-0.193967
0
LINE
8
BLACK
6
CONTINUOUS
10
1.13649
20
-0.193967
11
1.14875
21
-0.191528
0
LINE
8
BLACK
6
CONTINUOUS
10
1.14875
20
-0.191528
11
1.16125
21
-0.191528
0
LINE
8
BLACK
6
CONTINUOUS
10
1.16125
20
-0.191528
11
1.17351
21
-0.193967
0
LINE
8
BLACK
6
CONTINUOUS
10
1.17351
20
-0.193967
11
1.18507
21
-0.198751
0
LINE
8
BLACK
6
CONTINUOUS
10
1.18507
20
-0.198751
11
1.19546
21
-0.205698
0
LINE
8
BLACK
6
CONTINUOUS
10
1.19546
20
-0.205698
11
1.2043
21
-0.214539
0
LINE
8
BLACK
6
CONTINUOUS
10
1.2043
20
-0.214539
11
1.21125
21
-0.224935
0
LINE
8
BLACK
6
CONTINUOUS
10
1.21125
20
-0.224935
11
1.21603
21
-0.236486
0
LINE
8
BLACK
6
CONTINUOUS
10
1.21603
20
-0.236486
11
1.21847
21
-0.248749
0
LINE
8
BLACK
6
CONTINUOUS
10
1.21847
20
-0.248749
11
1.21847
21
-0.261251
0
LINE
8
BLACK
6
CONTINUOUS
10
1.21847
20
-0.261251
11
1.21603
21
-0.273514
0
LINE
8
BLACK
6
CONTINUOUS
10
1.21603
20
-0.273514
11
1.21125
21
-0.285065
0
LINE
8
BLACK
6
CONTINUOUS
10
1.21125
20
-0.285065
11
1.2043
21
-0.295461
0
LINE
8
BLACK
6
CONTINUOUS
10
1.2043
20
-0.295461
11
1.19546
21
-0.304302
0
LINE
8
BLACK
6
CONTINUOUS
10
1.19546
20
-0.304302
11
1.18507
21
-0.311249
0
LINE
8
BLACK
6
CONTINUOUS
10
1.18507
20
-0.311249
11
1.17351
21
-0.316033
0
LINE
8
BLACK
6
CONTINUOUS
10
1.17351
20
-0.316033
11
1.16125
21
-0.318472
0
LINE
8
BLACK
6
CONTINUOUS
10
1.16125
20
-0.318472
11
1.14875
21
-0.318472
0
LINE
8
BLACK
6
CONTINUOUS
10
1.14875
20
-0.318472
11
1.13649
21
-0.316033
0
LINE
8
BLACK
6
CONTINUOUS
10
1.13649
20
-0.316033
11
1.12493
21
-0.311249
0
LINE
8
BLACK
6
CONTINUOUS
10
1.12493
20
-0.311249
11
1.11454
21
-0.304302
0
LINE
8
BLACK
6
CONTINUOUS
10
1.11454
20
-0.304302
11
1.1057
21
-0.295461
0
LINE
8
BLACK
6
CONTINUOUS
10
1.1057
20
-0.295461
11
1.09875
21
-0.285065
0
LINE
8
BLACK
6
CONTINUOUS
10
1.09875
20
-0.285065
11
1.09397
21
-0.273514
0
LINE
8
BLACK
6
CONTINUOUS
10
1.09397
20
-0.273514
11
1.09153
21
-0.261251
0
LINE
8
BLACK
6
CONTINUOUS
10
1.09153
20
-0.261251
11
1.09153
21
-0.248749
0
LINE
8
BLACK
6
CONTINUOUS
10
1.09153
20
-0.248749
11
1.09397
21
-0.236486
0
LINE
8
BLACK
6
CONTINUOUS
10
1.09849
20
-0.272143
11
1.10292
21
-0.282838
0
LINE
8
BLACK
6
CONTINUOUS
10
1.10292
20
-0.282838
11
1.10935
21
-0.292464
0
LINE
8
BLACK
6
CONTINUOUS
10
1.10935
20
-0.292464
11
1.11754
21
-0.30065
0
LINE
8
BLACK
6
CONTINUOUS
10
1.11754
20
-0.30065
11
1.12716
21
-0.307082
0
LINE
8
BLACK
6
CONTINUOUS
10
1.12716
20
-0.307082
11
1.13786
21
-0.311512
0
LINE
8
BLACK
6
CONTINUOUS
10
1.13786
20
-0.311512
11
1.14921
21
-0.313771
0
LINE
8
BLACK
6
CONTINUOUS
10
1.14921
20
-0.313771
11
1.16079
21
-0.313771
0
LINE
8
BLACK
6
CONTINUOUS
10
1.16079
20
-0.313771
11
1.17214
21
-0.311512
0
LINE
8
BLACK
6
CONTINUOUS
10
1.17214
20
-0.311512
11
1.18284
21
-0.307082
0
LINE
8
BLACK
6
CONTINUOUS
10
1.18284
20
-0.307082
11
1.19246
21
-0.30065
0
LINE
8
BLACK
6
CONTINUOUS
10
1.19246
20
-0.30065
11
1.20065
21
-0.292464
0
LINE
8
BLACK
6
CONTINUOUS
10
1.20065
20
-0.292464
11
1.20708
21
-0.282838
0
LINE
8
BLACK
6
CONTINUOUS
10
1.20708
20
-0.282838
11
1.21151
21
-0.272143
0
LINE
8
BLACK
6
CONTINUOUS
10
1.21151
20
-0.272143
11
1.21377
21
-0.260788
0
LINE
8
BLACK
6
CONTINUOUS
10
1.21377
20
-0.260788
11
1.21377
21
-0.249212
0
LINE
8
BLACK
6
CONTINUOUS
10
1.21377
20
-0.249212
11
1.21151
21
-0.237857
0
LINE
8
BLACK
6
CONTINUOUS
10
1.21151
20
-0.237857
11
1.20708
21
-0.227162
0
LINE
8
BLACK
6
CONTINUOUS
10
1.20708
20
-0.227162
11
1.20065
21
-0.217536
0
LINE
8
BLACK
6
CONTINUOUS
10
1.20065
20
-0.217536
11
1.19246
21
-0.20935
0
LINE
8
BLACK
6
CONTINUOUS
10
1.19246
20
-0.20935
11
1.18284
21
-0.202918
0
LINE
8
BLACK
6
CONTINUOUS
10
1.18284
20
-0.202918
11
1.17214
21
-0.198488
0
LINE
8
BLACK
6
CONTINUOUS
10
1.17214
20
-0.198488
11
1.16079
21
-0.196229
0
LINE
8
BLACK
6
CONTINUOUS
10
1.16079
20
-0.196229
11
1.14921
21
-0.196229
0
LINE
8
BLACK
6
CONTINUOUS
10
1.14921
20
-0.196229
11
1.13786
21
-0.198488
0
LINE
8
BLACK
6
CONTINUOUS
10
1.13786
20
-0.198488
11
1.12716
21
-0.202918
0
LINE
8
BLACK
6
CONTINUOUS
10
1.12716
20
-0.202918
11
1.11754
21
-0.20935
0
LINE
8
BLACK
6
CONTINUOUS
10
1.11754
20
-0.20935
11
1.10935
21
-0.217536
0
LINE
8
BLACK
6
CONTINUOUS
10
1.10935
20
-0.217536
11
1.10292
21
-0.227162
0
LINE
8
BLACK
6
CONTINUOUS
10
1.10292
20
-0.227162
11
1.09849
21
-0.237857
0
LINE
8
BLACK
6
CONTINUOUS
10
1.09849
20
-0.237857
11
1.09623
21
-0.249212
0
LINE
8
BLACK
6
CONTINUOUS
10
1.09623
20
-0.249212
11
1.09623
21
-0.260788
0
LINE
8
BLACK
6
CONTINUOUS
10
1.09623
20
-0.260788
11
1.09849
21
-0.272143
  0
ENDSEC
  0
EOF
