%TF.GenerationSoftware,KiCad,Pcbnew,(5.1.10)-1*%
%TF.CreationDate,2022-01-02T11:55:34-08:00*%
%TF.ProjectId,chgray-keyboard,63686772-6179-42d6-9b65-79626f617264,Yeet2*%
%TF.SameCoordinates,Original*%
%TF.FileFunction,Copper,L1,Top*%
%TF.FilePolarity,Positive*%
%FSLAX46Y46*%
G04 Gerber Fmt 4.6, Leading zero omitted, Abs format (unit mm)*
G04 Created by KiCad (PCBNEW (5.1.10)-1) date 2022-01-02 11:55:34*
%MOMM*%
%LPD*%
G01*
G04 APERTURE LIST*
%TA.AperFunction,ViaPad*%
%ADD10C,0.800000*%
%TD*%
%TA.AperFunction,Conductor*%
%ADD11C,0.250000*%
%TD*%
G04 APERTURE END LIST*
D10*
%TO.N,*%
X322351400Y-23088600D03*
X322351400Y-26289000D03*
X315468000Y-59791600D03*
X316153800Y-64262000D03*
X316331600Y-69113400D03*
X316204600Y-71348600D03*
X315493400Y-50850800D03*
%TD*%
D11*
%TO.N,*%
X320878200Y-50850800D02*
X315493400Y-50850800D01*
X315468000Y-50850800D02*
X315468000Y-54991000D01*
X315468000Y-54991000D02*
X315595000Y-55118000D01*
X315595000Y-55118000D02*
X320675000Y-55118000D01*
X320675000Y-55118000D02*
X320675000Y-58166000D01*
X320675000Y-58166000D02*
X319049400Y-59791600D01*
X319049400Y-59791600D02*
X315468000Y-59791600D01*
X316153800Y-64262000D02*
X316153800Y-64262000D01*
X316204600Y-71348600D02*
X316204600Y-71348600D01*
X319125600Y-71348600D02*
X320725800Y-72948800D01*
X320725800Y-72948800D02*
X320725800Y-73025000D01*
X320725800Y-73025000D02*
X316179200Y-77571600D01*
X316179200Y-77571600D02*
X320852800Y-77571600D01*
X315468000Y-59791600D02*
X315468000Y-59791600D01*
X316331600Y-69113400D02*
X316331600Y-69113400D01*
X316204600Y-71348600D02*
X319125600Y-71348600D01*
X322351400Y-23088600D02*
X322351400Y-26289000D01*
X315493400Y-50850800D02*
X315468000Y-50850800D01*
X316153800Y-64262000D02*
X321462400Y-64262000D01*
X316611000Y-69113400D02*
X316331600Y-69113400D01*
X321462400Y-64262000D02*
X316611000Y-69113400D01*
%TD*%
M02*
