%TF.GenerationSoftware,KiCad,Pcbnew,(5.1.10)-1*%
%TF.CreationDate,2021-12-12T17:00:18-08:00*%
%TF.ProjectId,chgray-keyboard,63686772-6179-42d6-9b65-79626f617264,Yeet2*%
%TF.SameCoordinates,Original*%
%TF.FileFunction,Soldermask,Top*%
%TF.FilePolarity,Negative*%
%FSLAX46Y46*%
G04 Gerber Fmt 4.6, Leading zero omitted, Abs format (unit mm)*
G04 Created by KiCad (PCBNEW (5.1.10)-1) date 2021-12-12 17:00:18*
%MOMM*%
%LPD*%
G01*
G04 APERTURE LIST*
%ADD10C,1.701800*%
%ADD11C,3.987800*%
%ADD12C,3.000000*%
%ADD13O,1.700000X1.700000*%
%ADD14R,1.700000X1.700000*%
%ADD15R,1.300000X5.500000*%
%ADD16R,5.200000X5.200000*%
%ADD17C,0.900000*%
%ADD18R,0.500000X2.500000*%
%ADD19R,2.000000X2.500000*%
%ADD20R,1.000000X1.200000*%
%ADD21R,1.300000X1.550000*%
%ADD22R,0.700000X0.700000*%
G04 APERTURE END LIST*
D10*
%TO.C,SW54*%
X215392000Y-56642000D03*
X225552000Y-56642000D03*
D11*
X220472000Y-56642000D03*
D12*
X216662000Y-54102000D03*
X223012000Y-51562000D03*
%TD*%
D13*
%TO.C,J1*%
X319278000Y-96329500D03*
X319278000Y-93789500D03*
X319278000Y-91249500D03*
X319278000Y-88709500D03*
X319278000Y-86169500D03*
X319278000Y-83629500D03*
X319278000Y-81089500D03*
D14*
X319278000Y-78549500D03*
%TD*%
D10*
%TO.C,SW41*%
X177546000Y-56642000D03*
X187706000Y-56642000D03*
D11*
X182626000Y-56642000D03*
D12*
X178816000Y-54102000D03*
X185166000Y-51562000D03*
%TD*%
D15*
%TO.C,Y1-16hz1*%
X318834000Y-52260500D03*
X318834000Y-61260500D03*
%TD*%
D16*
%TO.C,U1*%
X319342000Y-28321000D03*
G36*
G01*
X316717000Y-25458500D02*
X316717000Y-24508500D01*
G75*
G02*
X316779500Y-24446000I62500J0D01*
G01*
X316904500Y-24446000D01*
G75*
G02*
X316967000Y-24508500I0J-62500D01*
G01*
X316967000Y-25458500D01*
G75*
G02*
X316904500Y-25521000I-62500J0D01*
G01*
X316779500Y-25521000D01*
G75*
G02*
X316717000Y-25458500I0J62500D01*
G01*
G37*
G36*
G01*
X317217000Y-25458500D02*
X317217000Y-24508500D01*
G75*
G02*
X317279500Y-24446000I62500J0D01*
G01*
X317404500Y-24446000D01*
G75*
G02*
X317467000Y-24508500I0J-62500D01*
G01*
X317467000Y-25458500D01*
G75*
G02*
X317404500Y-25521000I-62500J0D01*
G01*
X317279500Y-25521000D01*
G75*
G02*
X317217000Y-25458500I0J62500D01*
G01*
G37*
G36*
G01*
X317717000Y-25458500D02*
X317717000Y-24508500D01*
G75*
G02*
X317779500Y-24446000I62500J0D01*
G01*
X317904500Y-24446000D01*
G75*
G02*
X317967000Y-24508500I0J-62500D01*
G01*
X317967000Y-25458500D01*
G75*
G02*
X317904500Y-25521000I-62500J0D01*
G01*
X317779500Y-25521000D01*
G75*
G02*
X317717000Y-25458500I0J62500D01*
G01*
G37*
G36*
G01*
X318217000Y-25458500D02*
X318217000Y-24508500D01*
G75*
G02*
X318279500Y-24446000I62500J0D01*
G01*
X318404500Y-24446000D01*
G75*
G02*
X318467000Y-24508500I0J-62500D01*
G01*
X318467000Y-25458500D01*
G75*
G02*
X318404500Y-25521000I-62500J0D01*
G01*
X318279500Y-25521000D01*
G75*
G02*
X318217000Y-25458500I0J62500D01*
G01*
G37*
G36*
G01*
X318717000Y-25458500D02*
X318717000Y-24508500D01*
G75*
G02*
X318779500Y-24446000I62500J0D01*
G01*
X318904500Y-24446000D01*
G75*
G02*
X318967000Y-24508500I0J-62500D01*
G01*
X318967000Y-25458500D01*
G75*
G02*
X318904500Y-25521000I-62500J0D01*
G01*
X318779500Y-25521000D01*
G75*
G02*
X318717000Y-25458500I0J62500D01*
G01*
G37*
G36*
G01*
X319217000Y-25458500D02*
X319217000Y-24508500D01*
G75*
G02*
X319279500Y-24446000I62500J0D01*
G01*
X319404500Y-24446000D01*
G75*
G02*
X319467000Y-24508500I0J-62500D01*
G01*
X319467000Y-25458500D01*
G75*
G02*
X319404500Y-25521000I-62500J0D01*
G01*
X319279500Y-25521000D01*
G75*
G02*
X319217000Y-25458500I0J62500D01*
G01*
G37*
G36*
G01*
X319717000Y-25458500D02*
X319717000Y-24508500D01*
G75*
G02*
X319779500Y-24446000I62500J0D01*
G01*
X319904500Y-24446000D01*
G75*
G02*
X319967000Y-24508500I0J-62500D01*
G01*
X319967000Y-25458500D01*
G75*
G02*
X319904500Y-25521000I-62500J0D01*
G01*
X319779500Y-25521000D01*
G75*
G02*
X319717000Y-25458500I0J62500D01*
G01*
G37*
G36*
G01*
X320217000Y-25458500D02*
X320217000Y-24508500D01*
G75*
G02*
X320279500Y-24446000I62500J0D01*
G01*
X320404500Y-24446000D01*
G75*
G02*
X320467000Y-24508500I0J-62500D01*
G01*
X320467000Y-25458500D01*
G75*
G02*
X320404500Y-25521000I-62500J0D01*
G01*
X320279500Y-25521000D01*
G75*
G02*
X320217000Y-25458500I0J62500D01*
G01*
G37*
G36*
G01*
X320717000Y-25458500D02*
X320717000Y-24508500D01*
G75*
G02*
X320779500Y-24446000I62500J0D01*
G01*
X320904500Y-24446000D01*
G75*
G02*
X320967000Y-24508500I0J-62500D01*
G01*
X320967000Y-25458500D01*
G75*
G02*
X320904500Y-25521000I-62500J0D01*
G01*
X320779500Y-25521000D01*
G75*
G02*
X320717000Y-25458500I0J62500D01*
G01*
G37*
G36*
G01*
X321217000Y-25458500D02*
X321217000Y-24508500D01*
G75*
G02*
X321279500Y-24446000I62500J0D01*
G01*
X321404500Y-24446000D01*
G75*
G02*
X321467000Y-24508500I0J-62500D01*
G01*
X321467000Y-25458500D01*
G75*
G02*
X321404500Y-25521000I-62500J0D01*
G01*
X321279500Y-25521000D01*
G75*
G02*
X321217000Y-25458500I0J62500D01*
G01*
G37*
G36*
G01*
X321717000Y-25458500D02*
X321717000Y-24508500D01*
G75*
G02*
X321779500Y-24446000I62500J0D01*
G01*
X321904500Y-24446000D01*
G75*
G02*
X321967000Y-24508500I0J-62500D01*
G01*
X321967000Y-25458500D01*
G75*
G02*
X321904500Y-25521000I-62500J0D01*
G01*
X321779500Y-25521000D01*
G75*
G02*
X321717000Y-25458500I0J62500D01*
G01*
G37*
G36*
G01*
X322142000Y-25883500D02*
X322142000Y-25758500D01*
G75*
G02*
X322204500Y-25696000I62500J0D01*
G01*
X323154500Y-25696000D01*
G75*
G02*
X323217000Y-25758500I0J-62500D01*
G01*
X323217000Y-25883500D01*
G75*
G02*
X323154500Y-25946000I-62500J0D01*
G01*
X322204500Y-25946000D01*
G75*
G02*
X322142000Y-25883500I0J62500D01*
G01*
G37*
G36*
G01*
X322142000Y-26383500D02*
X322142000Y-26258500D01*
G75*
G02*
X322204500Y-26196000I62500J0D01*
G01*
X323154500Y-26196000D01*
G75*
G02*
X323217000Y-26258500I0J-62500D01*
G01*
X323217000Y-26383500D01*
G75*
G02*
X323154500Y-26446000I-62500J0D01*
G01*
X322204500Y-26446000D01*
G75*
G02*
X322142000Y-26383500I0J62500D01*
G01*
G37*
G36*
G01*
X322142000Y-26883500D02*
X322142000Y-26758500D01*
G75*
G02*
X322204500Y-26696000I62500J0D01*
G01*
X323154500Y-26696000D01*
G75*
G02*
X323217000Y-26758500I0J-62500D01*
G01*
X323217000Y-26883500D01*
G75*
G02*
X323154500Y-26946000I-62500J0D01*
G01*
X322204500Y-26946000D01*
G75*
G02*
X322142000Y-26883500I0J62500D01*
G01*
G37*
G36*
G01*
X322142000Y-27383500D02*
X322142000Y-27258500D01*
G75*
G02*
X322204500Y-27196000I62500J0D01*
G01*
X323154500Y-27196000D01*
G75*
G02*
X323217000Y-27258500I0J-62500D01*
G01*
X323217000Y-27383500D01*
G75*
G02*
X323154500Y-27446000I-62500J0D01*
G01*
X322204500Y-27446000D01*
G75*
G02*
X322142000Y-27383500I0J62500D01*
G01*
G37*
G36*
G01*
X322142000Y-27883500D02*
X322142000Y-27758500D01*
G75*
G02*
X322204500Y-27696000I62500J0D01*
G01*
X323154500Y-27696000D01*
G75*
G02*
X323217000Y-27758500I0J-62500D01*
G01*
X323217000Y-27883500D01*
G75*
G02*
X323154500Y-27946000I-62500J0D01*
G01*
X322204500Y-27946000D01*
G75*
G02*
X322142000Y-27883500I0J62500D01*
G01*
G37*
G36*
G01*
X322142000Y-28383500D02*
X322142000Y-28258500D01*
G75*
G02*
X322204500Y-28196000I62500J0D01*
G01*
X323154500Y-28196000D01*
G75*
G02*
X323217000Y-28258500I0J-62500D01*
G01*
X323217000Y-28383500D01*
G75*
G02*
X323154500Y-28446000I-62500J0D01*
G01*
X322204500Y-28446000D01*
G75*
G02*
X322142000Y-28383500I0J62500D01*
G01*
G37*
G36*
G01*
X322142000Y-28883500D02*
X322142000Y-28758500D01*
G75*
G02*
X322204500Y-28696000I62500J0D01*
G01*
X323154500Y-28696000D01*
G75*
G02*
X323217000Y-28758500I0J-62500D01*
G01*
X323217000Y-28883500D01*
G75*
G02*
X323154500Y-28946000I-62500J0D01*
G01*
X322204500Y-28946000D01*
G75*
G02*
X322142000Y-28883500I0J62500D01*
G01*
G37*
G36*
G01*
X322142000Y-29383500D02*
X322142000Y-29258500D01*
G75*
G02*
X322204500Y-29196000I62500J0D01*
G01*
X323154500Y-29196000D01*
G75*
G02*
X323217000Y-29258500I0J-62500D01*
G01*
X323217000Y-29383500D01*
G75*
G02*
X323154500Y-29446000I-62500J0D01*
G01*
X322204500Y-29446000D01*
G75*
G02*
X322142000Y-29383500I0J62500D01*
G01*
G37*
G36*
G01*
X322142000Y-29883500D02*
X322142000Y-29758500D01*
G75*
G02*
X322204500Y-29696000I62500J0D01*
G01*
X323154500Y-29696000D01*
G75*
G02*
X323217000Y-29758500I0J-62500D01*
G01*
X323217000Y-29883500D01*
G75*
G02*
X323154500Y-29946000I-62500J0D01*
G01*
X322204500Y-29946000D01*
G75*
G02*
X322142000Y-29883500I0J62500D01*
G01*
G37*
G36*
G01*
X322142000Y-30383500D02*
X322142000Y-30258500D01*
G75*
G02*
X322204500Y-30196000I62500J0D01*
G01*
X323154500Y-30196000D01*
G75*
G02*
X323217000Y-30258500I0J-62500D01*
G01*
X323217000Y-30383500D01*
G75*
G02*
X323154500Y-30446000I-62500J0D01*
G01*
X322204500Y-30446000D01*
G75*
G02*
X322142000Y-30383500I0J62500D01*
G01*
G37*
G36*
G01*
X322142000Y-30883500D02*
X322142000Y-30758500D01*
G75*
G02*
X322204500Y-30696000I62500J0D01*
G01*
X323154500Y-30696000D01*
G75*
G02*
X323217000Y-30758500I0J-62500D01*
G01*
X323217000Y-30883500D01*
G75*
G02*
X323154500Y-30946000I-62500J0D01*
G01*
X322204500Y-30946000D01*
G75*
G02*
X322142000Y-30883500I0J62500D01*
G01*
G37*
G36*
G01*
X321717000Y-32133500D02*
X321717000Y-31183500D01*
G75*
G02*
X321779500Y-31121000I62500J0D01*
G01*
X321904500Y-31121000D01*
G75*
G02*
X321967000Y-31183500I0J-62500D01*
G01*
X321967000Y-32133500D01*
G75*
G02*
X321904500Y-32196000I-62500J0D01*
G01*
X321779500Y-32196000D01*
G75*
G02*
X321717000Y-32133500I0J62500D01*
G01*
G37*
G36*
G01*
X321217000Y-32133500D02*
X321217000Y-31183500D01*
G75*
G02*
X321279500Y-31121000I62500J0D01*
G01*
X321404500Y-31121000D01*
G75*
G02*
X321467000Y-31183500I0J-62500D01*
G01*
X321467000Y-32133500D01*
G75*
G02*
X321404500Y-32196000I-62500J0D01*
G01*
X321279500Y-32196000D01*
G75*
G02*
X321217000Y-32133500I0J62500D01*
G01*
G37*
G36*
G01*
X320717000Y-32133500D02*
X320717000Y-31183500D01*
G75*
G02*
X320779500Y-31121000I62500J0D01*
G01*
X320904500Y-31121000D01*
G75*
G02*
X320967000Y-31183500I0J-62500D01*
G01*
X320967000Y-32133500D01*
G75*
G02*
X320904500Y-32196000I-62500J0D01*
G01*
X320779500Y-32196000D01*
G75*
G02*
X320717000Y-32133500I0J62500D01*
G01*
G37*
G36*
G01*
X320217000Y-32133500D02*
X320217000Y-31183500D01*
G75*
G02*
X320279500Y-31121000I62500J0D01*
G01*
X320404500Y-31121000D01*
G75*
G02*
X320467000Y-31183500I0J-62500D01*
G01*
X320467000Y-32133500D01*
G75*
G02*
X320404500Y-32196000I-62500J0D01*
G01*
X320279500Y-32196000D01*
G75*
G02*
X320217000Y-32133500I0J62500D01*
G01*
G37*
G36*
G01*
X319717000Y-32133500D02*
X319717000Y-31183500D01*
G75*
G02*
X319779500Y-31121000I62500J0D01*
G01*
X319904500Y-31121000D01*
G75*
G02*
X319967000Y-31183500I0J-62500D01*
G01*
X319967000Y-32133500D01*
G75*
G02*
X319904500Y-32196000I-62500J0D01*
G01*
X319779500Y-32196000D01*
G75*
G02*
X319717000Y-32133500I0J62500D01*
G01*
G37*
G36*
G01*
X319217000Y-32133500D02*
X319217000Y-31183500D01*
G75*
G02*
X319279500Y-31121000I62500J0D01*
G01*
X319404500Y-31121000D01*
G75*
G02*
X319467000Y-31183500I0J-62500D01*
G01*
X319467000Y-32133500D01*
G75*
G02*
X319404500Y-32196000I-62500J0D01*
G01*
X319279500Y-32196000D01*
G75*
G02*
X319217000Y-32133500I0J62500D01*
G01*
G37*
G36*
G01*
X318717000Y-32133500D02*
X318717000Y-31183500D01*
G75*
G02*
X318779500Y-31121000I62500J0D01*
G01*
X318904500Y-31121000D01*
G75*
G02*
X318967000Y-31183500I0J-62500D01*
G01*
X318967000Y-32133500D01*
G75*
G02*
X318904500Y-32196000I-62500J0D01*
G01*
X318779500Y-32196000D01*
G75*
G02*
X318717000Y-32133500I0J62500D01*
G01*
G37*
G36*
G01*
X318217000Y-32133500D02*
X318217000Y-31183500D01*
G75*
G02*
X318279500Y-31121000I62500J0D01*
G01*
X318404500Y-31121000D01*
G75*
G02*
X318467000Y-31183500I0J-62500D01*
G01*
X318467000Y-32133500D01*
G75*
G02*
X318404500Y-32196000I-62500J0D01*
G01*
X318279500Y-32196000D01*
G75*
G02*
X318217000Y-32133500I0J62500D01*
G01*
G37*
G36*
G01*
X317717000Y-32133500D02*
X317717000Y-31183500D01*
G75*
G02*
X317779500Y-31121000I62500J0D01*
G01*
X317904500Y-31121000D01*
G75*
G02*
X317967000Y-31183500I0J-62500D01*
G01*
X317967000Y-32133500D01*
G75*
G02*
X317904500Y-32196000I-62500J0D01*
G01*
X317779500Y-32196000D01*
G75*
G02*
X317717000Y-32133500I0J62500D01*
G01*
G37*
G36*
G01*
X317217000Y-32133500D02*
X317217000Y-31183500D01*
G75*
G02*
X317279500Y-31121000I62500J0D01*
G01*
X317404500Y-31121000D01*
G75*
G02*
X317467000Y-31183500I0J-62500D01*
G01*
X317467000Y-32133500D01*
G75*
G02*
X317404500Y-32196000I-62500J0D01*
G01*
X317279500Y-32196000D01*
G75*
G02*
X317217000Y-32133500I0J62500D01*
G01*
G37*
G36*
G01*
X316717000Y-32133500D02*
X316717000Y-31183500D01*
G75*
G02*
X316779500Y-31121000I62500J0D01*
G01*
X316904500Y-31121000D01*
G75*
G02*
X316967000Y-31183500I0J-62500D01*
G01*
X316967000Y-32133500D01*
G75*
G02*
X316904500Y-32196000I-62500J0D01*
G01*
X316779500Y-32196000D01*
G75*
G02*
X316717000Y-32133500I0J62500D01*
G01*
G37*
G36*
G01*
X315467000Y-30883500D02*
X315467000Y-30758500D01*
G75*
G02*
X315529500Y-30696000I62500J0D01*
G01*
X316479500Y-30696000D01*
G75*
G02*
X316542000Y-30758500I0J-62500D01*
G01*
X316542000Y-30883500D01*
G75*
G02*
X316479500Y-30946000I-62500J0D01*
G01*
X315529500Y-30946000D01*
G75*
G02*
X315467000Y-30883500I0J62500D01*
G01*
G37*
G36*
G01*
X315467000Y-30383500D02*
X315467000Y-30258500D01*
G75*
G02*
X315529500Y-30196000I62500J0D01*
G01*
X316479500Y-30196000D01*
G75*
G02*
X316542000Y-30258500I0J-62500D01*
G01*
X316542000Y-30383500D01*
G75*
G02*
X316479500Y-30446000I-62500J0D01*
G01*
X315529500Y-30446000D01*
G75*
G02*
X315467000Y-30383500I0J62500D01*
G01*
G37*
G36*
G01*
X315467000Y-29883500D02*
X315467000Y-29758500D01*
G75*
G02*
X315529500Y-29696000I62500J0D01*
G01*
X316479500Y-29696000D01*
G75*
G02*
X316542000Y-29758500I0J-62500D01*
G01*
X316542000Y-29883500D01*
G75*
G02*
X316479500Y-29946000I-62500J0D01*
G01*
X315529500Y-29946000D01*
G75*
G02*
X315467000Y-29883500I0J62500D01*
G01*
G37*
G36*
G01*
X315467000Y-29383500D02*
X315467000Y-29258500D01*
G75*
G02*
X315529500Y-29196000I62500J0D01*
G01*
X316479500Y-29196000D01*
G75*
G02*
X316542000Y-29258500I0J-62500D01*
G01*
X316542000Y-29383500D01*
G75*
G02*
X316479500Y-29446000I-62500J0D01*
G01*
X315529500Y-29446000D01*
G75*
G02*
X315467000Y-29383500I0J62500D01*
G01*
G37*
G36*
G01*
X315467000Y-28883500D02*
X315467000Y-28758500D01*
G75*
G02*
X315529500Y-28696000I62500J0D01*
G01*
X316479500Y-28696000D01*
G75*
G02*
X316542000Y-28758500I0J-62500D01*
G01*
X316542000Y-28883500D01*
G75*
G02*
X316479500Y-28946000I-62500J0D01*
G01*
X315529500Y-28946000D01*
G75*
G02*
X315467000Y-28883500I0J62500D01*
G01*
G37*
G36*
G01*
X315467000Y-28383500D02*
X315467000Y-28258500D01*
G75*
G02*
X315529500Y-28196000I62500J0D01*
G01*
X316479500Y-28196000D01*
G75*
G02*
X316542000Y-28258500I0J-62500D01*
G01*
X316542000Y-28383500D01*
G75*
G02*
X316479500Y-28446000I-62500J0D01*
G01*
X315529500Y-28446000D01*
G75*
G02*
X315467000Y-28383500I0J62500D01*
G01*
G37*
G36*
G01*
X315467000Y-27883500D02*
X315467000Y-27758500D01*
G75*
G02*
X315529500Y-27696000I62500J0D01*
G01*
X316479500Y-27696000D01*
G75*
G02*
X316542000Y-27758500I0J-62500D01*
G01*
X316542000Y-27883500D01*
G75*
G02*
X316479500Y-27946000I-62500J0D01*
G01*
X315529500Y-27946000D01*
G75*
G02*
X315467000Y-27883500I0J62500D01*
G01*
G37*
G36*
G01*
X315467000Y-27383500D02*
X315467000Y-27258500D01*
G75*
G02*
X315529500Y-27196000I62500J0D01*
G01*
X316479500Y-27196000D01*
G75*
G02*
X316542000Y-27258500I0J-62500D01*
G01*
X316542000Y-27383500D01*
G75*
G02*
X316479500Y-27446000I-62500J0D01*
G01*
X315529500Y-27446000D01*
G75*
G02*
X315467000Y-27383500I0J62500D01*
G01*
G37*
G36*
G01*
X315467000Y-26883500D02*
X315467000Y-26758500D01*
G75*
G02*
X315529500Y-26696000I62500J0D01*
G01*
X316479500Y-26696000D01*
G75*
G02*
X316542000Y-26758500I0J-62500D01*
G01*
X316542000Y-26883500D01*
G75*
G02*
X316479500Y-26946000I-62500J0D01*
G01*
X315529500Y-26946000D01*
G75*
G02*
X315467000Y-26883500I0J62500D01*
G01*
G37*
G36*
G01*
X315467000Y-26383500D02*
X315467000Y-26258500D01*
G75*
G02*
X315529500Y-26196000I62500J0D01*
G01*
X316479500Y-26196000D01*
G75*
G02*
X316542000Y-26258500I0J-62500D01*
G01*
X316542000Y-26383500D01*
G75*
G02*
X316479500Y-26446000I-62500J0D01*
G01*
X315529500Y-26446000D01*
G75*
G02*
X315467000Y-26383500I0J62500D01*
G01*
G37*
G36*
G01*
X315467000Y-25883500D02*
X315467000Y-25758500D01*
G75*
G02*
X315529500Y-25696000I62500J0D01*
G01*
X316479500Y-25696000D01*
G75*
G02*
X316542000Y-25758500I0J-62500D01*
G01*
X316542000Y-25883500D01*
G75*
G02*
X316479500Y-25946000I-62500J0D01*
G01*
X315529500Y-25946000D01*
G75*
G02*
X315467000Y-25883500I0J62500D01*
G01*
G37*
%TD*%
D17*
%TO.C,J2*%
X317392000Y-7631000D03*
X321792000Y-7631000D03*
D18*
X317992000Y-10231000D03*
X318792000Y-10231000D03*
X319592000Y-10231000D03*
X320392000Y-10231000D03*
X321192000Y-10231000D03*
D19*
X315192000Y-10231000D03*
X323992000Y-10231000D03*
X315192000Y-4731000D03*
X323992000Y-4731000D03*
%TD*%
D20*
%TO.C,D94*%
X226771000Y-46990000D03*
X223671000Y-46990000D03*
%TD*%
%TO.C,D93*%
X367554000Y-47307500D03*
X364454000Y-47307500D03*
%TD*%
%TO.C,D92*%
X344982000Y-104394000D03*
X341882000Y-104394000D03*
%TD*%
%TO.C,D91*%
X355182000Y-104394000D03*
X352082000Y-104394000D03*
%TD*%
%TO.C,D90*%
X42190000Y-46990000D03*
X39090000Y-46990000D03*
%TD*%
%TO.C,D89*%
X79106100Y-46990000D03*
X76006100Y-46990000D03*
%TD*%
%TO.C,D88*%
X350082000Y-104394000D03*
X346982000Y-104394000D03*
%TD*%
%TO.C,D87*%
X340733000Y-85471000D03*
X337633000Y-85471000D03*
%TD*%
%TO.C,D86*%
X64339700Y-46990000D03*
X61239700Y-46990000D03*
%TD*%
%TO.C,D85*%
X219387000Y-46990000D03*
X216287000Y-46990000D03*
%TD*%
%TO.C,D84*%
X352256000Y-47307500D03*
X349156000Y-47307500D03*
%TD*%
%TO.C,D83*%
X248920000Y-46990000D03*
X245820000Y-46990000D03*
%TD*%
%TO.C,D82*%
X357355000Y-47307500D03*
X354255000Y-47307500D03*
%TD*%
%TO.C,D81*%
X336957000Y-47307500D03*
X333857000Y-47307500D03*
%TD*%
%TO.C,D80*%
X270092000Y-66230500D03*
X266992000Y-66230500D03*
%TD*%
%TO.C,D79*%
X234154000Y-46990000D03*
X231054000Y-46990000D03*
%TD*%
%TO.C,D78*%
X182471000Y-46990000D03*
X179371000Y-46990000D03*
%TD*%
%TO.C,D77*%
X265223000Y-66230500D03*
X262123000Y-66230500D03*
%TD*%
%TO.C,D76*%
X256304000Y-46990000D03*
X253204000Y-46990000D03*
%TD*%
%TO.C,D75*%
X226276000Y-66230500D03*
X223176000Y-66230500D03*
%TD*%
%TO.C,D74*%
X335633000Y-85471000D03*
X332533000Y-85471000D03*
%TD*%
%TO.C,D73*%
X250618000Y-66230500D03*
X247518000Y-66230500D03*
%TD*%
%TO.C,D72*%
X342057000Y-47307500D03*
X338957000Y-47307500D03*
%TD*%
%TO.C,D71*%
X268250000Y-85407500D03*
X265150000Y-85407500D03*
%TD*%
%TO.C,D70*%
X160322000Y-46990000D03*
X157222000Y-46990000D03*
%TD*%
%TO.C,D69*%
X271070000Y-46990000D03*
X267970000Y-46990000D03*
%TD*%
%TO.C,D68*%
X116022000Y-46990000D03*
X112922000Y-46990000D03*
%TD*%
%TO.C,D67*%
X236432000Y-85407500D03*
X233332000Y-85407500D03*
%TD*%
%TO.C,D66*%
X247108000Y-85407500D03*
X244008000Y-85407500D03*
%TD*%
%TO.C,D65*%
X252446000Y-85407500D03*
X249346000Y-85407500D03*
%TD*%
%TO.C,D64*%
X241770000Y-85407500D03*
X238670000Y-85407500D03*
%TD*%
%TO.C,D63*%
X231094000Y-85407500D03*
X227994000Y-85407500D03*
%TD*%
%TO.C,D62*%
X225756000Y-85407500D03*
X222656000Y-85407500D03*
%TD*%
%TO.C,D61*%
X347156000Y-47307500D03*
X344056000Y-47307500D03*
%TD*%
%TO.C,D60*%
X240881000Y-66230500D03*
X237781000Y-66230500D03*
%TD*%
%TO.C,D59*%
X260355000Y-66230500D03*
X257255000Y-66230500D03*
%TD*%
%TO.C,D58*%
X220418000Y-85407500D03*
X217318000Y-85407500D03*
%TD*%
%TO.C,D57*%
X152938000Y-46990000D03*
X149838000Y-46990000D03*
%TD*%
%TO.C,D56*%
X241537000Y-46990000D03*
X238437000Y-46990000D03*
%TD*%
%TO.C,D55*%
X263122000Y-85407500D03*
X260022000Y-85407500D03*
%TD*%
%TO.C,D54*%
X236013000Y-66230500D03*
X232913000Y-66230500D03*
%TD*%
%TO.C,D53*%
X209742000Y-85407500D03*
X206642000Y-85407500D03*
%TD*%
%TO.C,D52*%
X145555000Y-46990000D03*
X142455000Y-46990000D03*
%TD*%
%TO.C,D51*%
X257784000Y-85407500D03*
X254684000Y-85407500D03*
%TD*%
%TO.C,D50*%
X138172000Y-46990000D03*
X135072000Y-46990000D03*
%TD*%
%TO.C,D49*%
X193729000Y-85407500D03*
X190629000Y-85407500D03*
%TD*%
%TO.C,D48*%
X183053000Y-85407500D03*
X179953000Y-85407500D03*
%TD*%
%TO.C,D47*%
X345832000Y-85471000D03*
X342732000Y-85471000D03*
%TD*%
%TO.C,D46*%
X212004000Y-46990000D03*
X208904000Y-46990000D03*
%TD*%
%TO.C,D45*%
X215080000Y-85407500D03*
X211980000Y-85407500D03*
%TD*%
%TO.C,D44*%
X172377000Y-85407500D03*
X169277000Y-85407500D03*
%TD*%
%TO.C,D43*%
X199067000Y-85407500D03*
X195967000Y-85407500D03*
%TD*%
%TO.C,D42*%
X167705000Y-46990000D03*
X164605000Y-46990000D03*
%TD*%
%TO.C,D41*%
X255486000Y-66230500D03*
X252386000Y-66230500D03*
%TD*%
%TO.C,D40*%
X204404000Y-85407500D03*
X201304000Y-85407500D03*
%TD*%
%TO.C,D39*%
X123405000Y-46990000D03*
X120305000Y-46990000D03*
%TD*%
%TO.C,D38*%
X177715000Y-85407500D03*
X174615000Y-85407500D03*
%TD*%
%TO.C,D37*%
X167039000Y-85407500D03*
X163939000Y-85407500D03*
%TD*%
%TO.C,D36*%
X161701000Y-85407500D03*
X158601000Y-85407500D03*
%TD*%
%TO.C,D35*%
X156363000Y-85407500D03*
X153263000Y-85407500D03*
%TD*%
%TO.C,D34*%
X108639000Y-46990000D03*
X105539000Y-46990000D03*
%TD*%
%TO.C,D33*%
X263687000Y-46990000D03*
X260587000Y-46990000D03*
%TD*%
%TO.C,D32*%
X245750000Y-66230500D03*
X242650000Y-66230500D03*
%TD*%
%TO.C,D31*%
X188391000Y-85407500D03*
X185291000Y-85407500D03*
%TD*%
%TO.C,D30*%
X140349000Y-85407500D03*
X137249000Y-85407500D03*
%TD*%
%TO.C,D29*%
X151025000Y-85407500D03*
X147925000Y-85407500D03*
%TD*%
%TO.C,D28*%
X204621000Y-46990000D03*
X201521000Y-46990000D03*
%TD*%
%TO.C,D27*%
X231145000Y-66230500D03*
X228045000Y-66230500D03*
%TD*%
%TO.C,D26*%
X130789000Y-46990000D03*
X127689000Y-46990000D03*
%TD*%
%TO.C,D25*%
X118997000Y-85407500D03*
X115897000Y-85407500D03*
%TD*%
%TO.C,D24*%
X145687000Y-85407500D03*
X142587000Y-85407500D03*
%TD*%
%TO.C,D23*%
X113659000Y-85407500D03*
X110559000Y-85407500D03*
%TD*%
%TO.C,D22*%
X129673000Y-85407500D03*
X126573000Y-85407500D03*
%TD*%
%TO.C,D21*%
X93872600Y-46990000D03*
X90772600Y-46990000D03*
%TD*%
%TO.C,D20*%
X97645300Y-85407500D03*
X94545300Y-85407500D03*
%TD*%
%TO.C,D19*%
X197238000Y-46990000D03*
X194138000Y-46990000D03*
%TD*%
%TO.C,D18*%
X86489400Y-46990000D03*
X83389400Y-46990000D03*
%TD*%
%TO.C,D17*%
X92307300Y-85407500D03*
X89207300Y-85407500D03*
%TD*%
%TO.C,D16*%
X101255800Y-46990000D03*
X98155800Y-46990000D03*
%TD*%
%TO.C,D15*%
X108321000Y-85407500D03*
X105221000Y-85407500D03*
%TD*%
%TO.C,D14*%
X350932000Y-85471000D03*
X347832000Y-85471000D03*
%TD*%
%TO.C,D13*%
X362455000Y-47307500D03*
X359355000Y-47307500D03*
%TD*%
%TO.C,D12*%
X76293500Y-85407500D03*
X73193500Y-85407500D03*
%TD*%
%TO.C,D11*%
X81631400Y-85407500D03*
X78531400Y-85407500D03*
%TD*%
%TO.C,D10*%
X135011000Y-85407500D03*
X131911000Y-85407500D03*
%TD*%
%TO.C,D9*%
X124335000Y-85407500D03*
X121235000Y-85407500D03*
%TD*%
%TO.C,D8*%
X102983000Y-85407500D03*
X99883000Y-85407500D03*
%TD*%
%TO.C,D7*%
X56956400Y-46990000D03*
X53856400Y-46990000D03*
%TD*%
%TO.C,D6*%
X86969400Y-85407500D03*
X83869400Y-85407500D03*
%TD*%
%TO.C,D5*%
X189854000Y-46990000D03*
X186754000Y-46990000D03*
%TD*%
%TO.C,D4*%
X175088000Y-46990000D03*
X171988000Y-46990000D03*
%TD*%
%TO.C,D3*%
X70955500Y-85407500D03*
X67855500Y-85407500D03*
%TD*%
%TO.C,D2*%
X71722900Y-46990000D03*
X68622900Y-46990000D03*
%TD*%
%TO.C,D1*%
X49573200Y-46990000D03*
X46473200Y-46990000D03*
%TD*%
D21*
%TO.C,SW_RESET1*%
X318990000Y-120846000D03*
X318960000Y-112956000D03*
%TD*%
%TO.C,R4*%
G36*
G01*
X343334000Y-27568998D02*
X343334000Y-28819002D01*
G75*
G02*
X343084002Y-29069000I-249998J0D01*
G01*
X342458998Y-29069000D01*
G75*
G02*
X342209000Y-28819002I0J249998D01*
G01*
X342209000Y-27568998D01*
G75*
G02*
X342458998Y-27319000I249998J0D01*
G01*
X343084002Y-27319000D01*
G75*
G02*
X343334000Y-27568998I0J-249998D01*
G01*
G37*
G36*
G01*
X346259000Y-27568998D02*
X346259000Y-28819002D01*
G75*
G02*
X346009002Y-29069000I-249998J0D01*
G01*
X345383998Y-29069000D01*
G75*
G02*
X345134000Y-28819002I0J249998D01*
G01*
X345134000Y-27568998D01*
G75*
G02*
X345383998Y-27319000I249998J0D01*
G01*
X346009002Y-27319000D01*
G75*
G02*
X346259000Y-27568998I0J-249998D01*
G01*
G37*
%TD*%
%TO.C,R3*%
G36*
G01*
X320109002Y-14355500D02*
X319208998Y-14355500D01*
G75*
G02*
X318959000Y-14105502I0J249998D01*
G01*
X318959000Y-13580498D01*
G75*
G02*
X319208998Y-13330500I249998J0D01*
G01*
X320109002Y-13330500D01*
G75*
G02*
X320359000Y-13580498I0J-249998D01*
G01*
X320359000Y-14105502D01*
G75*
G02*
X320109002Y-14355500I-249998J0D01*
G01*
G37*
G36*
G01*
X320109002Y-16180500D02*
X319208998Y-16180500D01*
G75*
G02*
X318959000Y-15930502I0J249998D01*
G01*
X318959000Y-15405498D01*
G75*
G02*
X319208998Y-15155500I249998J0D01*
G01*
X320109002Y-15155500D01*
G75*
G02*
X320359000Y-15405498I0J-249998D01*
G01*
X320359000Y-15930502D01*
G75*
G02*
X320109002Y-16180500I-249998J0D01*
G01*
G37*
%TD*%
%TO.C,R2*%
G36*
G01*
X318077002Y-14355500D02*
X317176998Y-14355500D01*
G75*
G02*
X316927000Y-14105502I0J249998D01*
G01*
X316927000Y-13580498D01*
G75*
G02*
X317176998Y-13330500I249998J0D01*
G01*
X318077002Y-13330500D01*
G75*
G02*
X318327000Y-13580498I0J-249998D01*
G01*
X318327000Y-14105502D01*
G75*
G02*
X318077002Y-14355500I-249998J0D01*
G01*
G37*
G36*
G01*
X318077002Y-16180500D02*
X317176998Y-16180500D01*
G75*
G02*
X316927000Y-15930502I0J249998D01*
G01*
X316927000Y-15405498D01*
G75*
G02*
X317176998Y-15155500I249998J0D01*
G01*
X318077002Y-15155500D01*
G75*
G02*
X318327000Y-15405498I0J-249998D01*
G01*
X318327000Y-15930502D01*
G75*
G02*
X318077002Y-16180500I-249998J0D01*
G01*
G37*
%TD*%
%TO.C,R1*%
G36*
G01*
X319585002Y-107939000D02*
X318334998Y-107939000D01*
G75*
G02*
X318085000Y-107689002I0J249998D01*
G01*
X318085000Y-107063998D01*
G75*
G02*
X318334998Y-106814000I249998J0D01*
G01*
X319585002Y-106814000D01*
G75*
G02*
X319835000Y-107063998I0J-249998D01*
G01*
X319835000Y-107689002D01*
G75*
G02*
X319585002Y-107939000I-249998J0D01*
G01*
G37*
G36*
G01*
X319585002Y-110864000D02*
X318334998Y-110864000D01*
G75*
G02*
X318085000Y-110614002I0J249998D01*
G01*
X318085000Y-109988998D01*
G75*
G02*
X318334998Y-109739000I249998J0D01*
G01*
X319585002Y-109739000D01*
G75*
G02*
X319835000Y-109988998I0J-249998D01*
G01*
X319835000Y-110614002D01*
G75*
G02*
X319585002Y-110864000I-249998J0D01*
G01*
G37*
%TD*%
%TO.C,C109*%
G36*
G01*
X299032000Y-28796000D02*
X299032000Y-27846000D01*
G75*
G02*
X299282000Y-27596000I250000J0D01*
G01*
X299782000Y-27596000D01*
G75*
G02*
X300032000Y-27846000I0J-250000D01*
G01*
X300032000Y-28796000D01*
G75*
G02*
X299782000Y-29046000I-250000J0D01*
G01*
X299282000Y-29046000D01*
G75*
G02*
X299032000Y-28796000I0J250000D01*
G01*
G37*
G36*
G01*
X300932000Y-28796000D02*
X300932000Y-27846000D01*
G75*
G02*
X301182000Y-27596000I250000J0D01*
G01*
X301682000Y-27596000D01*
G75*
G02*
X301932000Y-27846000I0J-250000D01*
G01*
X301932000Y-28796000D01*
G75*
G02*
X301682000Y-29046000I-250000J0D01*
G01*
X301182000Y-29046000D01*
G75*
G02*
X300932000Y-28796000I0J250000D01*
G01*
G37*
%TD*%
%TO.C,C108*%
G36*
G01*
X314612000Y-53602000D02*
X315562000Y-53602000D01*
G75*
G02*
X315812000Y-53852000I0J-250000D01*
G01*
X315812000Y-54352000D01*
G75*
G02*
X315562000Y-54602000I-250000J0D01*
G01*
X314612000Y-54602000D01*
G75*
G02*
X314362000Y-54352000I0J250000D01*
G01*
X314362000Y-53852000D01*
G75*
G02*
X314612000Y-53602000I250000J0D01*
G01*
G37*
G36*
G01*
X314612000Y-51702000D02*
X315562000Y-51702000D01*
G75*
G02*
X315812000Y-51952000I0J-250000D01*
G01*
X315812000Y-52452000D01*
G75*
G02*
X315562000Y-52702000I-250000J0D01*
G01*
X314612000Y-52702000D01*
G75*
G02*
X314362000Y-52452000I0J250000D01*
G01*
X314362000Y-51952000D01*
G75*
G02*
X314612000Y-51702000I250000J0D01*
G01*
G37*
%TD*%
%TO.C,C107*%
G36*
G01*
X315625000Y-60195000D02*
X314675000Y-60195000D01*
G75*
G02*
X314425000Y-59945000I0J250000D01*
G01*
X314425000Y-59445000D01*
G75*
G02*
X314675000Y-59195000I250000J0D01*
G01*
X315625000Y-59195000D01*
G75*
G02*
X315875000Y-59445000I0J-250000D01*
G01*
X315875000Y-59945000D01*
G75*
G02*
X315625000Y-60195000I-250000J0D01*
G01*
G37*
G36*
G01*
X315625000Y-62095000D02*
X314675000Y-62095000D01*
G75*
G02*
X314425000Y-61845000I0J250000D01*
G01*
X314425000Y-61345000D01*
G75*
G02*
X314675000Y-61095000I250000J0D01*
G01*
X315625000Y-61095000D01*
G75*
G02*
X315875000Y-61345000I0J-250000D01*
G01*
X315875000Y-61845000D01*
G75*
G02*
X315625000Y-62095000I-250000J0D01*
G01*
G37*
%TD*%
%TO.C,C106*%
G36*
G01*
X322840000Y-13810000D02*
X322840000Y-12860000D01*
G75*
G02*
X323090000Y-12610000I250000J0D01*
G01*
X323590000Y-12610000D01*
G75*
G02*
X323840000Y-12860000I0J-250000D01*
G01*
X323840000Y-13810000D01*
G75*
G02*
X323590000Y-14060000I-250000J0D01*
G01*
X323090000Y-14060000D01*
G75*
G02*
X322840000Y-13810000I0J250000D01*
G01*
G37*
G36*
G01*
X320940000Y-13810000D02*
X320940000Y-12860000D01*
G75*
G02*
X321190000Y-12610000I250000J0D01*
G01*
X321690000Y-12610000D01*
G75*
G02*
X321940000Y-12860000I0J-250000D01*
G01*
X321940000Y-13810000D01*
G75*
G02*
X321690000Y-14060000I-250000J0D01*
G01*
X321190000Y-14060000D01*
G75*
G02*
X320940000Y-13810000I0J250000D01*
G01*
G37*
%TD*%
%TO.C,C105*%
G36*
G01*
X316070000Y-14343000D02*
X315120000Y-14343000D01*
G75*
G02*
X314870000Y-14093000I0J250000D01*
G01*
X314870000Y-13593000D01*
G75*
G02*
X315120000Y-13343000I250000J0D01*
G01*
X316070000Y-13343000D01*
G75*
G02*
X316320000Y-13593000I0J-250000D01*
G01*
X316320000Y-14093000D01*
G75*
G02*
X316070000Y-14343000I-250000J0D01*
G01*
G37*
G36*
G01*
X316070000Y-16243000D02*
X315120000Y-16243000D01*
G75*
G02*
X314870000Y-15993000I0J250000D01*
G01*
X314870000Y-15493000D01*
G75*
G02*
X315120000Y-15243000I250000J0D01*
G01*
X316070000Y-15243000D01*
G75*
G02*
X316320000Y-15493000I0J-250000D01*
G01*
X316320000Y-15993000D01*
G75*
G02*
X316070000Y-16243000I-250000J0D01*
G01*
G37*
%TD*%
%TO.C,C104*%
G36*
G01*
X322840000Y-15905500D02*
X322840000Y-14955500D01*
G75*
G02*
X323090000Y-14705500I250000J0D01*
G01*
X323590000Y-14705500D01*
G75*
G02*
X323840000Y-14955500I0J-250000D01*
G01*
X323840000Y-15905500D01*
G75*
G02*
X323590000Y-16155500I-250000J0D01*
G01*
X323090000Y-16155500D01*
G75*
G02*
X322840000Y-15905500I0J250000D01*
G01*
G37*
G36*
G01*
X320940000Y-15905500D02*
X320940000Y-14955500D01*
G75*
G02*
X321190000Y-14705500I250000J0D01*
G01*
X321690000Y-14705500D01*
G75*
G02*
X321940000Y-14955500I0J-250000D01*
G01*
X321940000Y-15905500D01*
G75*
G02*
X321690000Y-16155500I-250000J0D01*
G01*
X321190000Y-16155500D01*
G75*
G02*
X320940000Y-15905500I0J250000D01*
G01*
G37*
%TD*%
%TO.C,C103*%
G36*
G01*
X336939000Y-28415000D02*
X336939000Y-27465000D01*
G75*
G02*
X337189000Y-27215000I250000J0D01*
G01*
X337689000Y-27215000D01*
G75*
G02*
X337939000Y-27465000I0J-250000D01*
G01*
X337939000Y-28415000D01*
G75*
G02*
X337689000Y-28665000I-250000J0D01*
G01*
X337189000Y-28665000D01*
G75*
G02*
X336939000Y-28415000I0J250000D01*
G01*
G37*
G36*
G01*
X335039000Y-28415000D02*
X335039000Y-27465000D01*
G75*
G02*
X335289000Y-27215000I250000J0D01*
G01*
X335789000Y-27215000D01*
G75*
G02*
X336039000Y-27465000I0J-250000D01*
G01*
X336039000Y-28415000D01*
G75*
G02*
X335789000Y-28665000I-250000J0D01*
G01*
X335289000Y-28665000D01*
G75*
G02*
X335039000Y-28415000I0J250000D01*
G01*
G37*
%TD*%
%TO.C,C102*%
G36*
G01*
X317089000Y-39378000D02*
X318039000Y-39378000D01*
G75*
G02*
X318289000Y-39628000I0J-250000D01*
G01*
X318289000Y-40128000D01*
G75*
G02*
X318039000Y-40378000I-250000J0D01*
G01*
X317089000Y-40378000D01*
G75*
G02*
X316839000Y-40128000I0J250000D01*
G01*
X316839000Y-39628000D01*
G75*
G02*
X317089000Y-39378000I250000J0D01*
G01*
G37*
G36*
G01*
X317089000Y-37478000D02*
X318039000Y-37478000D01*
G75*
G02*
X318289000Y-37728000I0J-250000D01*
G01*
X318289000Y-38228000D01*
G75*
G02*
X318039000Y-38478000I-250000J0D01*
G01*
X317089000Y-38478000D01*
G75*
G02*
X316839000Y-38228000I0J250000D01*
G01*
X316839000Y-37728000D01*
G75*
G02*
X317089000Y-37478000I250000J0D01*
G01*
G37*
%TD*%
D10*
%TO.C,SW10*%
X87757000Y-75819000D03*
X97917000Y-75819000D03*
D11*
X92837000Y-75819000D03*
D12*
X89027000Y-73279000D03*
X95377000Y-70739000D03*
%TD*%
D10*
%TO.C,SW57*%
X157099000Y-114046000D03*
D11*
X162179000Y-114046000D03*
D10*
X167259000Y-114046000D03*
D12*
X158369000Y-111506000D03*
X164719000Y-108966000D03*
%TD*%
D10*
%TO.C,SW21*%
X302154000Y-18669000D03*
X312314000Y-18669000D03*
D11*
X307234000Y-18669000D03*
D12*
X303424000Y-16129000D03*
X309774000Y-13589000D03*
%TD*%
%TO.C,RIGHT-SHIFT1*%
X286141000Y-92382500D03*
D10*
X284871000Y-94922500D03*
D11*
X289951000Y-94922500D03*
D10*
X295031000Y-94922500D03*
D12*
X292491000Y-89842500D03*
%TD*%
%TO.C,Slash1*%
X297508000Y-54282500D03*
D10*
X296238000Y-56822500D03*
D11*
X301318000Y-56822500D03*
D10*
X306398000Y-56822500D03*
D12*
X303858000Y-51742500D03*
%TD*%
D10*
%TO.C,SW52*%
X196469000Y-56642000D03*
X206629000Y-56642000D03*
D11*
X201549000Y-56642000D03*
D12*
X197739000Y-54102000D03*
X204089000Y-51562000D03*
%TD*%
D10*
%TO.C,SW51*%
X187706000Y-37673900D03*
X197866000Y-37673900D03*
D11*
X192786000Y-37673900D03*
D12*
X188976000Y-35133900D03*
X195326000Y-32593900D03*
%TD*%
D22*
%TO.C,D179*%
X163018000Y-119033000D03*
X163018000Y-120133000D03*
X161188000Y-120133000D03*
X161188000Y-119033000D03*
%TD*%
%TO.C,C85*%
G36*
G01*
X39100900Y-28344800D02*
X39100900Y-28004800D01*
G75*
G02*
X39240900Y-27864800I140000J0D01*
G01*
X39520900Y-27864800D01*
G75*
G02*
X39660900Y-28004800I0J-140000D01*
G01*
X39660900Y-28344800D01*
G75*
G02*
X39520900Y-28484800I-140000J0D01*
G01*
X39240900Y-28484800D01*
G75*
G02*
X39100900Y-28344800I0J140000D01*
G01*
G37*
G36*
G01*
X38140900Y-28344800D02*
X38140900Y-28004800D01*
G75*
G02*
X38280900Y-27864800I140000J0D01*
G01*
X38560900Y-27864800D01*
G75*
G02*
X38700900Y-28004800I0J-140000D01*
G01*
X38700900Y-28344800D01*
G75*
G02*
X38560900Y-28484800I-140000J0D01*
G01*
X38280900Y-28484800D01*
G75*
G02*
X38140900Y-28344800I0J140000D01*
G01*
G37*
%TD*%
%TO.C,D174*%
X180188000Y-118669000D03*
X180188000Y-119769000D03*
X178358000Y-119769000D03*
X178358000Y-118669000D03*
%TD*%
%TO.C,D169*%
X141631000Y-118830000D03*
X141631000Y-119930000D03*
X139801000Y-119930000D03*
X139801000Y-118830000D03*
%TD*%
%TO.C,D164*%
X197460000Y-118474000D03*
X197460000Y-119574000D03*
X195630000Y-119574000D03*
X195630000Y-118474000D03*
%TD*%
%TO.C,D159*%
X121057000Y-118830000D03*
X121057000Y-119930000D03*
X119227000Y-119930000D03*
X119227000Y-118830000D03*
%TD*%
%TO.C,C80*%
G36*
G01*
X152521000Y-28344800D02*
X152521000Y-28004800D01*
G75*
G02*
X152661000Y-27864800I140000J0D01*
G01*
X152941000Y-27864800D01*
G75*
G02*
X153081000Y-28004800I0J-140000D01*
G01*
X153081000Y-28344800D01*
G75*
G02*
X152941000Y-28484800I-140000J0D01*
G01*
X152661000Y-28484800D01*
G75*
G02*
X152521000Y-28344800I0J140000D01*
G01*
G37*
G36*
G01*
X151561000Y-28344800D02*
X151561000Y-28004800D01*
G75*
G02*
X151701000Y-27864800I140000J0D01*
G01*
X151981000Y-27864800D01*
G75*
G02*
X152121000Y-28004800I0J-140000D01*
G01*
X152121000Y-28344800D01*
G75*
G02*
X151981000Y-28484800I-140000J0D01*
G01*
X151701000Y-28484800D01*
G75*
G02*
X151561000Y-28344800I0J140000D01*
G01*
G37*
%TD*%
%TO.C,C75*%
G36*
G01*
X45520000Y-65997000D02*
X45520000Y-66337000D01*
G75*
G02*
X45380000Y-66477000I-140000J0D01*
G01*
X45100000Y-66477000D01*
G75*
G02*
X44960000Y-66337000I0J140000D01*
G01*
X44960000Y-65997000D01*
G75*
G02*
X45100000Y-65857000I140000J0D01*
G01*
X45380000Y-65857000D01*
G75*
G02*
X45520000Y-65997000I0J-140000D01*
G01*
G37*
G36*
G01*
X46480000Y-65997000D02*
X46480000Y-66337000D01*
G75*
G02*
X46340000Y-66477000I-140000J0D01*
G01*
X46060000Y-66477000D01*
G75*
G02*
X45920000Y-66337000I0J140000D01*
G01*
X45920000Y-65997000D01*
G75*
G02*
X46060000Y-65857000I140000J0D01*
G01*
X46340000Y-65857000D01*
G75*
G02*
X46480000Y-65997000I0J-140000D01*
G01*
G37*
%TD*%
%TO.C,C70*%
G36*
G01*
X344450000Y-66060500D02*
X344450000Y-66400500D01*
G75*
G02*
X344310000Y-66540500I-140000J0D01*
G01*
X344030000Y-66540500D01*
G75*
G02*
X343890000Y-66400500I0J140000D01*
G01*
X343890000Y-66060500D01*
G75*
G02*
X344030000Y-65920500I140000J0D01*
G01*
X344310000Y-65920500D01*
G75*
G02*
X344450000Y-66060500I0J-140000D01*
G01*
G37*
G36*
G01*
X345410000Y-66060500D02*
X345410000Y-66400500D01*
G75*
G02*
X345270000Y-66540500I-140000J0D01*
G01*
X344990000Y-66540500D01*
G75*
G02*
X344850000Y-66400500I0J140000D01*
G01*
X344850000Y-66060500D01*
G75*
G02*
X344990000Y-65920500I140000J0D01*
G01*
X345270000Y-65920500D01*
G75*
G02*
X345410000Y-66060500I0J-140000D01*
G01*
G37*
%TD*%
%TO.C,C65*%
G36*
G01*
X157922000Y-28344800D02*
X157922000Y-28004800D01*
G75*
G02*
X158062000Y-27864800I140000J0D01*
G01*
X158342000Y-27864800D01*
G75*
G02*
X158482000Y-28004800I0J-140000D01*
G01*
X158482000Y-28344800D01*
G75*
G02*
X158342000Y-28484800I-140000J0D01*
G01*
X158062000Y-28484800D01*
G75*
G02*
X157922000Y-28344800I0J140000D01*
G01*
G37*
G36*
G01*
X156962000Y-28344800D02*
X156962000Y-28004800D01*
G75*
G02*
X157102000Y-27864800I140000J0D01*
G01*
X157382000Y-27864800D01*
G75*
G02*
X157522000Y-28004800I0J-140000D01*
G01*
X157522000Y-28344800D01*
G75*
G02*
X157382000Y-28484800I-140000J0D01*
G01*
X157102000Y-28484800D01*
G75*
G02*
X156962000Y-28344800I0J140000D01*
G01*
G37*
%TD*%
%TO.C,D154*%
X370079000Y-23732400D03*
X370079000Y-24832400D03*
X368249000Y-24832400D03*
X368249000Y-23732400D03*
%TD*%
%TO.C,C60*%
G36*
G01*
X233535000Y-28110000D02*
X233535000Y-27770000D01*
G75*
G02*
X233675000Y-27630000I140000J0D01*
G01*
X233955000Y-27630000D01*
G75*
G02*
X234095000Y-27770000I0J-140000D01*
G01*
X234095000Y-28110000D01*
G75*
G02*
X233955000Y-28250000I-140000J0D01*
G01*
X233675000Y-28250000D01*
G75*
G02*
X233535000Y-28110000I0J140000D01*
G01*
G37*
G36*
G01*
X232575000Y-28110000D02*
X232575000Y-27770000D01*
G75*
G02*
X232715000Y-27630000I140000J0D01*
G01*
X232995000Y-27630000D01*
G75*
G02*
X233135000Y-27770000I0J-140000D01*
G01*
X233135000Y-28110000D01*
G75*
G02*
X232995000Y-28250000I-140000J0D01*
G01*
X232715000Y-28250000D01*
G75*
G02*
X232575000Y-28110000I0J140000D01*
G01*
G37*
%TD*%
%TO.C,D149*%
X351182000Y-23690400D03*
X351182000Y-24790400D03*
X349352000Y-24790400D03*
X349352000Y-23690400D03*
%TD*%
%TO.C,D144*%
X269902000Y-23690400D03*
X269902000Y-24790400D03*
X268072000Y-24790400D03*
X268072000Y-23690400D03*
%TD*%
%TO.C,D139*%
X332081000Y-23690400D03*
X332081000Y-24790400D03*
X330251000Y-24790400D03*
X330251000Y-23690400D03*
%TD*%
%TO.C,D134*%
X288952000Y-23690400D03*
X288952000Y-24790400D03*
X287122000Y-24790400D03*
X287122000Y-23690400D03*
%TD*%
%TO.C,D129*%
X212752000Y-23741200D03*
X212752000Y-24841200D03*
X210922000Y-24841200D03*
X210922000Y-23741200D03*
%TD*%
%TO.C,D124*%
X308154000Y-23639600D03*
X308154000Y-24739600D03*
X306324000Y-24739600D03*
X306324000Y-23639600D03*
%TD*%
%TO.C,D119*%
X231802000Y-23639600D03*
X231802000Y-24739600D03*
X229972000Y-24739600D03*
X229972000Y-23639600D03*
%TD*%
%TO.C,D114*%
X250902000Y-23672800D03*
X250902000Y-24772800D03*
X249072000Y-24772800D03*
X249072000Y-23672800D03*
%TD*%
%TO.C,C55*%
G36*
G01*
X184926000Y-28281300D02*
X184926000Y-27941300D01*
G75*
G02*
X185066000Y-27801300I140000J0D01*
G01*
X185346000Y-27801300D01*
G75*
G02*
X185486000Y-27941300I0J-140000D01*
G01*
X185486000Y-28281300D01*
G75*
G02*
X185346000Y-28421300I-140000J0D01*
G01*
X185066000Y-28421300D01*
G75*
G02*
X184926000Y-28281300I0J140000D01*
G01*
G37*
G36*
G01*
X183966000Y-28281300D02*
X183966000Y-27941300D01*
G75*
G02*
X184106000Y-27801300I140000J0D01*
G01*
X184386000Y-27801300D01*
G75*
G02*
X184526000Y-27941300I0J-140000D01*
G01*
X184526000Y-28281300D01*
G75*
G02*
X184386000Y-28421300I-140000J0D01*
G01*
X184106000Y-28421300D01*
G75*
G02*
X183966000Y-28281300I0J140000D01*
G01*
G37*
%TD*%
%TO.C,C50*%
G36*
G01*
X153808000Y-65997000D02*
X153808000Y-66337000D01*
G75*
G02*
X153668000Y-66477000I-140000J0D01*
G01*
X153388000Y-66477000D01*
G75*
G02*
X153248000Y-66337000I0J140000D01*
G01*
X153248000Y-65997000D01*
G75*
G02*
X153388000Y-65857000I140000J0D01*
G01*
X153668000Y-65857000D01*
G75*
G02*
X153808000Y-65997000I0J-140000D01*
G01*
G37*
G36*
G01*
X154768000Y-65997000D02*
X154768000Y-66337000D01*
G75*
G02*
X154628000Y-66477000I-140000J0D01*
G01*
X154348000Y-66477000D01*
G75*
G02*
X154208000Y-66337000I0J140000D01*
G01*
X154208000Y-65997000D01*
G75*
G02*
X154348000Y-65857000I140000J0D01*
G01*
X154628000Y-65857000D01*
G75*
G02*
X154768000Y-65997000I0J-140000D01*
G01*
G37*
%TD*%
%TO.C,C45*%
G36*
G01*
X206530000Y-28281300D02*
X206530000Y-27941300D01*
G75*
G02*
X206670000Y-27801300I140000J0D01*
G01*
X206950000Y-27801300D01*
G75*
G02*
X207090000Y-27941300I0J-140000D01*
G01*
X207090000Y-28281300D01*
G75*
G02*
X206950000Y-28421300I-140000J0D01*
G01*
X206670000Y-28421300D01*
G75*
G02*
X206530000Y-28281300I0J140000D01*
G01*
G37*
G36*
G01*
X205570000Y-28281300D02*
X205570000Y-27941300D01*
G75*
G02*
X205710000Y-27801300I140000J0D01*
G01*
X205990000Y-27801300D01*
G75*
G02*
X206130000Y-27941300I0J-140000D01*
G01*
X206130000Y-28281300D01*
G75*
G02*
X205990000Y-28421300I-140000J0D01*
G01*
X205710000Y-28421300D01*
G75*
G02*
X205570000Y-28281300I0J140000D01*
G01*
G37*
%TD*%
%TO.C,C40*%
G36*
G01*
X174124000Y-28281300D02*
X174124000Y-27941300D01*
G75*
G02*
X174264000Y-27801300I140000J0D01*
G01*
X174544000Y-27801300D01*
G75*
G02*
X174684000Y-27941300I0J-140000D01*
G01*
X174684000Y-28281300D01*
G75*
G02*
X174544000Y-28421300I-140000J0D01*
G01*
X174264000Y-28421300D01*
G75*
G02*
X174124000Y-28281300I0J140000D01*
G01*
G37*
G36*
G01*
X173164000Y-28281300D02*
X173164000Y-27941300D01*
G75*
G02*
X173304000Y-27801300I140000J0D01*
G01*
X173584000Y-27801300D01*
G75*
G02*
X173724000Y-27941300I0J-140000D01*
G01*
X173724000Y-28281300D01*
G75*
G02*
X173584000Y-28421300I-140000J0D01*
G01*
X173304000Y-28421300D01*
G75*
G02*
X173164000Y-28281300I0J140000D01*
G01*
G37*
%TD*%
%TO.C,C35*%
G36*
G01*
X195728000Y-28281300D02*
X195728000Y-27941300D01*
G75*
G02*
X195868000Y-27801300I140000J0D01*
G01*
X196148000Y-27801300D01*
G75*
G02*
X196288000Y-27941300I0J-140000D01*
G01*
X196288000Y-28281300D01*
G75*
G02*
X196148000Y-28421300I-140000J0D01*
G01*
X195868000Y-28421300D01*
G75*
G02*
X195728000Y-28281300I0J140000D01*
G01*
G37*
G36*
G01*
X194768000Y-28281300D02*
X194768000Y-27941300D01*
G75*
G02*
X194908000Y-27801300I140000J0D01*
G01*
X195188000Y-27801300D01*
G75*
G02*
X195328000Y-27941300I0J-140000D01*
G01*
X195328000Y-28281300D01*
G75*
G02*
X195188000Y-28421300I-140000J0D01*
G01*
X194908000Y-28421300D01*
G75*
G02*
X194768000Y-28281300I0J140000D01*
G01*
G37*
%TD*%
%TO.C,C30*%
G36*
G01*
X168724000Y-28281300D02*
X168724000Y-27941300D01*
G75*
G02*
X168864000Y-27801300I140000J0D01*
G01*
X169144000Y-27801300D01*
G75*
G02*
X169284000Y-27941300I0J-140000D01*
G01*
X169284000Y-28281300D01*
G75*
G02*
X169144000Y-28421300I-140000J0D01*
G01*
X168864000Y-28421300D01*
G75*
G02*
X168724000Y-28281300I0J140000D01*
G01*
G37*
G36*
G01*
X167764000Y-28281300D02*
X167764000Y-27941300D01*
G75*
G02*
X167904000Y-27801300I140000J0D01*
G01*
X168184000Y-27801300D01*
G75*
G02*
X168324000Y-27941300I0J-140000D01*
G01*
X168324000Y-28281300D01*
G75*
G02*
X168184000Y-28421300I-140000J0D01*
G01*
X167904000Y-28421300D01*
G75*
G02*
X167764000Y-28281300I0J140000D01*
G01*
G37*
%TD*%
%TO.C,C25*%
G36*
G01*
X179525000Y-28281300D02*
X179525000Y-27941300D01*
G75*
G02*
X179665000Y-27801300I140000J0D01*
G01*
X179945000Y-27801300D01*
G75*
G02*
X180085000Y-27941300I0J-140000D01*
G01*
X180085000Y-28281300D01*
G75*
G02*
X179945000Y-28421300I-140000J0D01*
G01*
X179665000Y-28421300D01*
G75*
G02*
X179525000Y-28281300I0J140000D01*
G01*
G37*
G36*
G01*
X178565000Y-28281300D02*
X178565000Y-27941300D01*
G75*
G02*
X178705000Y-27801300I140000J0D01*
G01*
X178985000Y-27801300D01*
G75*
G02*
X179125000Y-27941300I0J-140000D01*
G01*
X179125000Y-28281300D01*
G75*
G02*
X178985000Y-28421300I-140000J0D01*
G01*
X178705000Y-28421300D01*
G75*
G02*
X178565000Y-28281300I0J140000D01*
G01*
G37*
%TD*%
%TO.C,C20*%
G36*
G01*
X190327000Y-28281300D02*
X190327000Y-27941300D01*
G75*
G02*
X190467000Y-27801300I140000J0D01*
G01*
X190747000Y-27801300D01*
G75*
G02*
X190887000Y-27941300I0J-140000D01*
G01*
X190887000Y-28281300D01*
G75*
G02*
X190747000Y-28421300I-140000J0D01*
G01*
X190467000Y-28421300D01*
G75*
G02*
X190327000Y-28281300I0J140000D01*
G01*
G37*
G36*
G01*
X189367000Y-28281300D02*
X189367000Y-27941300D01*
G75*
G02*
X189507000Y-27801300I140000J0D01*
G01*
X189787000Y-27801300D01*
G75*
G02*
X189927000Y-27941300I0J-140000D01*
G01*
X189927000Y-28281300D01*
G75*
G02*
X189787000Y-28421300I-140000J0D01*
G01*
X189507000Y-28421300D01*
G75*
G02*
X189367000Y-28281300I0J140000D01*
G01*
G37*
%TD*%
D12*
%TO.C,SW58*%
X229372000Y-111496000D03*
D10*
X228102000Y-114036000D03*
D11*
X233182000Y-114036000D03*
D10*
X238262000Y-114036000D03*
D12*
X235722000Y-108956000D03*
%TD*%
%TO.C,RIGHT-SPACE1*%
X253248000Y-111496000D03*
D10*
X251978000Y-114036000D03*
D11*
X257058000Y-114036000D03*
D10*
X262138000Y-114036000D03*
D12*
X259598000Y-108956000D03*
%TD*%
D10*
%TO.C,LEFT_ALT1*%
X130556000Y-18669000D03*
X140716000Y-18669000D03*
D11*
X135636000Y-18669000D03*
D12*
X131826000Y-16129000D03*
X138176000Y-13589000D03*
%TD*%
D10*
%TO.C,RIGHT-SHIFT2*%
X206756000Y-18669000D03*
X216916000Y-18669000D03*
D11*
X211836000Y-18669000D03*
D12*
X208026000Y-16129000D03*
X214376000Y-13589000D03*
%TD*%
D10*
%TO.C,LEFT-SPACE1*%
X149606000Y-18669000D03*
X159766000Y-18669000D03*
D11*
X154686000Y-18669000D03*
D12*
X150876000Y-16129000D03*
X157226000Y-13589000D03*
%TD*%
D10*
%TO.C,SW50*%
X326085000Y-18669000D03*
X336245000Y-18669000D03*
D11*
X331165000Y-18669000D03*
D12*
X327355000Y-16129000D03*
X333705000Y-13589000D03*
%TD*%
D10*
%TO.C,SW45*%
X263906000Y-18669000D03*
X274066000Y-18669000D03*
D11*
X268986000Y-18669000D03*
D12*
X265176000Y-16129000D03*
X271526000Y-13589000D03*
%TD*%
D10*
%TO.C,SW37*%
X364058000Y-18669000D03*
X374218000Y-18669000D03*
D11*
X369138000Y-18669000D03*
D12*
X365328000Y-16129000D03*
X371678000Y-13589000D03*
%TD*%
D10*
%TO.C,SW25*%
X282956000Y-18669000D03*
X293116000Y-18669000D03*
D11*
X288036000Y-18669000D03*
D12*
X284226000Y-16129000D03*
X290576000Y-13589000D03*
%TD*%
D10*
%TO.C,SW13*%
X244856000Y-18669000D03*
X255016000Y-18669000D03*
D11*
X249936000Y-18669000D03*
D12*
X246126000Y-16129000D03*
X252476000Y-13589000D03*
%TD*%
D10*
%TO.C,SW9*%
X345135000Y-18669000D03*
X355295000Y-18669000D03*
D11*
X350215000Y-18669000D03*
D12*
X346405000Y-16129000D03*
X352755000Y-13589000D03*
%TD*%
D10*
%TO.C,SW3*%
X225806000Y-18669000D03*
X235966000Y-18669000D03*
D11*
X230886000Y-18669000D03*
D12*
X227076000Y-16129000D03*
X233426000Y-13589000D03*
%TD*%
%TO.C,RightMeta1*%
X300930000Y-111496000D03*
D10*
X299660000Y-114036000D03*
D11*
X304740000Y-114036000D03*
D10*
X309820000Y-114036000D03*
D12*
X307280000Y-108956000D03*
%TD*%
%TO.C,ENTER1*%
X291221000Y-73205500D03*
D10*
X289951000Y-75745500D03*
D11*
X295031000Y-75745500D03*
D10*
X300111000Y-75745500D03*
D12*
X297571000Y-70665500D03*
%TD*%
D10*
%TO.C,SW4*%
X35306000Y-37673900D03*
X45466000Y-37673900D03*
D11*
X40386000Y-37673900D03*
D12*
X36576000Y-35133900D03*
X42926000Y-32593900D03*
%TD*%
D22*
%TO.C,D195*%
X332030000Y-61790400D03*
X332030000Y-62890400D03*
X330200000Y-62890400D03*
X330200000Y-61790400D03*
%TD*%
%TO.C,D193*%
X351131000Y-119042000D03*
X351131000Y-120142000D03*
X349301000Y-120142000D03*
X349301000Y-119042000D03*
%TD*%
%TO.C,D192*%
X197764000Y-99890000D03*
X197764000Y-100990000D03*
X195934000Y-100990000D03*
X195934000Y-99890000D03*
%TD*%
%TO.C,D191*%
X150737000Y-80857000D03*
X150737000Y-81957000D03*
X148907000Y-81957000D03*
X148907000Y-80857000D03*
%TD*%
%TO.C,D190*%
X351182000Y-61790400D03*
X351182000Y-62890400D03*
X349352000Y-62890400D03*
X349352000Y-61790400D03*
%TD*%
%TO.C,D188*%
X332081000Y-119144000D03*
X332081000Y-120244000D03*
X330251000Y-120244000D03*
X330251000Y-119144000D03*
%TD*%
%TO.C,D187*%
X216916000Y-99890000D03*
X216916000Y-100990000D03*
X215086000Y-100990000D03*
X215086000Y-99890000D03*
%TD*%
%TO.C,D186*%
X131915000Y-80857000D03*
X131915000Y-81957000D03*
X130085000Y-81957000D03*
X130085000Y-80857000D03*
%TD*%
%TO.C,D185*%
X370079000Y-61841200D03*
X370079000Y-62941200D03*
X368249000Y-62941200D03*
X368249000Y-61841200D03*
%TD*%
%TO.C,D183*%
X305664000Y-119042000D03*
X305664000Y-120142000D03*
X303834000Y-120142000D03*
X303834000Y-119042000D03*
%TD*%
%TO.C,D182*%
X235967000Y-99882000D03*
X235967000Y-100982000D03*
X234137000Y-100982000D03*
X234137000Y-99882000D03*
%TD*%
%TO.C,D181*%
X112841000Y-80832000D03*
X112841000Y-81932000D03*
X111011000Y-81932000D03*
X111011000Y-80832000D03*
%TD*%
%TO.C,D180*%
X60402400Y-23741200D03*
X60402400Y-24841200D03*
X58572400Y-24841200D03*
X58572400Y-23741200D03*
%TD*%
%TO.C,D178*%
X281840000Y-119042000D03*
X281840000Y-120142000D03*
X280010000Y-120142000D03*
X280010000Y-119042000D03*
%TD*%
%TO.C,D177*%
X255168000Y-99941000D03*
X255168000Y-101041000D03*
X253338000Y-101041000D03*
X253338000Y-99941000D03*
%TD*%
%TO.C,D176*%
X93815500Y-80857000D03*
X93815500Y-81957000D03*
X91985500Y-81957000D03*
X91985500Y-80857000D03*
%TD*%
%TO.C,D175*%
X41301000Y-23681600D03*
X41301000Y-24781600D03*
X39471000Y-24781600D03*
X39471000Y-23681600D03*
%TD*%
%TO.C,D173*%
X258014000Y-119093000D03*
X258014000Y-120193000D03*
X256184000Y-120193000D03*
X256184000Y-119093000D03*
%TD*%
%TO.C,D172*%
X291238000Y-100025000D03*
X291238000Y-101125000D03*
X289408000Y-101125000D03*
X289408000Y-100025000D03*
%TD*%
%TO.C,D171*%
X74765500Y-80857000D03*
X74765500Y-81957000D03*
X72935500Y-81957000D03*
X72935500Y-80857000D03*
%TD*%
%TO.C,D170*%
X370028000Y-42926000D03*
X370028000Y-44026000D03*
X368198000Y-44026000D03*
X368198000Y-42926000D03*
%TD*%
%TO.C,D168*%
X234036000Y-119093000D03*
X234036000Y-120193000D03*
X232206000Y-120193000D03*
X232206000Y-119093000D03*
%TD*%
%TO.C,D167*%
X332157000Y-99949000D03*
X332157000Y-101049000D03*
X330327000Y-101049000D03*
X330327000Y-99949000D03*
%TD*%
%TO.C,D166*%
X48564800Y-80857000D03*
X48564800Y-81957000D03*
X46734800Y-81957000D03*
X46734800Y-80857000D03*
%TD*%
%TO.C,D165*%
X351130000Y-42884000D03*
X351130000Y-43984000D03*
X349300000Y-43984000D03*
X349300000Y-42884000D03*
%TD*%
%TO.C,D163*%
X193752000Y-23681600D03*
X193752000Y-24781600D03*
X191922000Y-24781600D03*
X191922000Y-23681600D03*
%TD*%
%TO.C,D162*%
X351130000Y-99924000D03*
X351130000Y-101024000D03*
X349300000Y-101024000D03*
X349300000Y-99924000D03*
%TD*%
%TO.C,D161*%
X46178400Y-61807000D03*
X46178400Y-62907000D03*
X44348400Y-62907000D03*
X44348400Y-61807000D03*
%TD*%
%TO.C,D160*%
X332080000Y-42875200D03*
X332080000Y-43975200D03*
X330250000Y-43975200D03*
X330250000Y-42875200D03*
%TD*%
%TO.C,D158*%
X174652000Y-23741200D03*
X174652000Y-24841200D03*
X172822000Y-24841200D03*
X172822000Y-23741200D03*
%TD*%
%TO.C,D157*%
X370028000Y-99924000D03*
X370028000Y-101024000D03*
X368198000Y-101024000D03*
X368198000Y-99924000D03*
%TD*%
%TO.C,D156*%
X70003000Y-61688800D03*
X70003000Y-62788800D03*
X68173000Y-62788800D03*
X68173000Y-61688800D03*
%TD*%
%TO.C,D155*%
X269901000Y-42693500D03*
X269901000Y-43793500D03*
X268071000Y-43793500D03*
X268071000Y-42693500D03*
%TD*%
%TO.C,D153*%
X155602000Y-23639600D03*
X155602000Y-24739600D03*
X153772000Y-24739600D03*
X153772000Y-23639600D03*
%TD*%
%TO.C,D152*%
X98451600Y-23741200D03*
X98451600Y-24841200D03*
X96621600Y-24841200D03*
X96621600Y-23741200D03*
%TD*%
%TO.C,D151*%
X88952000Y-61638000D03*
X88952000Y-62738000D03*
X87122000Y-62738000D03*
X87122000Y-61638000D03*
%TD*%
%TO.C,D150*%
X250889000Y-42715000D03*
X250889000Y-43815000D03*
X249059000Y-43815000D03*
X249059000Y-42715000D03*
%TD*%
%TO.C,D148*%
X136602000Y-23723600D03*
X136602000Y-24823600D03*
X134772000Y-24823600D03*
X134772000Y-23723600D03*
%TD*%
%TO.C,D147*%
X79503200Y-23639600D03*
X79503200Y-24739600D03*
X77673200Y-24739600D03*
X77673200Y-23639600D03*
%TD*%
%TO.C,D146*%
X107850000Y-61688800D03*
X107850000Y-62788800D03*
X106020000Y-62788800D03*
X106020000Y-61688800D03*
%TD*%
%TO.C,D145*%
X231763000Y-42715000D03*
X231763000Y-43815000D03*
X229933000Y-43815000D03*
X229933000Y-42715000D03*
%TD*%
%TO.C,D143*%
X91619000Y-119126000D03*
X91619000Y-120226000D03*
X89789000Y-120226000D03*
X89789000Y-119126000D03*
%TD*%
%TO.C,D142*%
X370028000Y-80840400D03*
X370028000Y-81940400D03*
X368198000Y-81940400D03*
X368198000Y-80840400D03*
%TD*%
%TO.C,D141*%
X126747000Y-61638000D03*
X126747000Y-62738000D03*
X124917000Y-62738000D03*
X124917000Y-61638000D03*
%TD*%
%TO.C,D140*%
X212789000Y-42715000D03*
X212789000Y-43815000D03*
X210959000Y-43815000D03*
X210959000Y-42715000D03*
%TD*%
%TO.C,D138*%
X67768400Y-119093000D03*
X67768400Y-120193000D03*
X65938400Y-120193000D03*
X65938400Y-119093000D03*
%TD*%
%TO.C,D137*%
X351131000Y-80840400D03*
X351131000Y-81940400D03*
X349301000Y-81940400D03*
X349301000Y-80840400D03*
%TD*%
%TO.C,D136*%
X145645000Y-61688800D03*
X145645000Y-62788800D03*
X143815000Y-62788800D03*
X143815000Y-61688800D03*
%TD*%
%TO.C,D135*%
X193675000Y-42672000D03*
X193675000Y-43772000D03*
X191845000Y-43772000D03*
X191845000Y-42672000D03*
%TD*%
%TO.C,D133*%
X43841600Y-119121000D03*
X43841600Y-120221000D03*
X42011600Y-120221000D03*
X42011600Y-119121000D03*
%TD*%
%TO.C,D132*%
X332081000Y-80840400D03*
X332081000Y-81940400D03*
X330251000Y-81940400D03*
X330251000Y-80840400D03*
%TD*%
%TO.C,D131*%
X164593000Y-61638000D03*
X164593000Y-62738000D03*
X162763000Y-62738000D03*
X162763000Y-61638000D03*
%TD*%
%TO.C,D130*%
X174651000Y-42693500D03*
X174651000Y-43793500D03*
X172821000Y-43793500D03*
X172821000Y-42693500D03*
%TD*%
%TO.C,D128*%
X53340000Y-99890000D03*
X53340000Y-100990000D03*
X51510000Y-100990000D03*
X51510000Y-99890000D03*
%TD*%
%TO.C,D127*%
X296037000Y-80815000D03*
X296037000Y-81915000D03*
X294207000Y-81915000D03*
X294207000Y-80815000D03*
%TD*%
%TO.C,D126*%
X183542000Y-61688800D03*
X183542000Y-62788800D03*
X181712000Y-62788800D03*
X181712000Y-61688800D03*
%TD*%
%TO.C,D125*%
X155575000Y-42715000D03*
X155575000Y-43815000D03*
X153745000Y-43815000D03*
X153745000Y-42715000D03*
%TD*%
%TO.C,D123*%
X84175600Y-99890000D03*
X84175600Y-100990000D03*
X82345600Y-100990000D03*
X82345600Y-99890000D03*
%TD*%
%TO.C,D122*%
X265011000Y-80843000D03*
X265011000Y-81943000D03*
X263181000Y-81943000D03*
X263181000Y-80843000D03*
%TD*%
%TO.C,D121*%
X202490000Y-61688800D03*
X202490000Y-62788800D03*
X200660000Y-62788800D03*
X200660000Y-61688800D03*
%TD*%
%TO.C,D120*%
X136577000Y-42715000D03*
X136577000Y-43815000D03*
X134747000Y-43815000D03*
X134747000Y-42715000D03*
%TD*%
%TO.C,D118*%
X103022000Y-99890000D03*
X103022000Y-100990000D03*
X101192000Y-100990000D03*
X101192000Y-99890000D03*
%TD*%
%TO.C,D117*%
X245961000Y-80857000D03*
X245961000Y-81957000D03*
X244131000Y-81957000D03*
X244131000Y-80857000D03*
%TD*%
%TO.C,D116*%
X221388000Y-61638000D03*
X221388000Y-62738000D03*
X219558000Y-62738000D03*
X219558000Y-61638000D03*
%TD*%
%TO.C,D115*%
X117527000Y-42715000D03*
X117527000Y-43815000D03*
X115697000Y-43815000D03*
X115697000Y-42715000D03*
%TD*%
%TO.C,D113*%
X121920000Y-99890000D03*
X121920000Y-100990000D03*
X120090000Y-100990000D03*
X120090000Y-99890000D03*
%TD*%
%TO.C,D112*%
X226937000Y-80832000D03*
X226937000Y-81932000D03*
X225107000Y-81932000D03*
X225107000Y-80832000D03*
%TD*%
%TO.C,D111*%
X240336000Y-61688800D03*
X240336000Y-62788800D03*
X238506000Y-62788800D03*
X238506000Y-61688800D03*
%TD*%
%TO.C,D110*%
X98477000Y-42715000D03*
X98477000Y-43815000D03*
X96647000Y-43815000D03*
X96647000Y-42715000D03*
%TD*%
%TO.C,D109*%
X298502000Y-42884000D03*
X298502000Y-43984000D03*
X296672000Y-43984000D03*
X296672000Y-42884000D03*
%TD*%
%TO.C,D108*%
X140868000Y-99890000D03*
X140868000Y-100990000D03*
X139038000Y-100990000D03*
X139038000Y-99890000D03*
%TD*%
%TO.C,D107*%
X207837000Y-80882000D03*
X207837000Y-81982000D03*
X206007000Y-81982000D03*
X206007000Y-80882000D03*
%TD*%
%TO.C,D106*%
X259284000Y-61638000D03*
X259284000Y-62738000D03*
X257454000Y-62738000D03*
X257454000Y-61638000D03*
%TD*%
%TO.C,D105*%
X79427000Y-42715000D03*
X79427000Y-43815000D03*
X77597000Y-43815000D03*
X77597000Y-42715000D03*
%TD*%
%TO.C,D104*%
X117552000Y-23639600D03*
X117552000Y-24739600D03*
X115722000Y-24739600D03*
X115722000Y-23639600D03*
%TD*%
%TO.C,D103*%
X159817000Y-99890000D03*
X159817000Y-100990000D03*
X157987000Y-100990000D03*
X157987000Y-99890000D03*
%TD*%
%TO.C,D102*%
X188811000Y-80868000D03*
X188811000Y-81968000D03*
X186981000Y-81968000D03*
X186981000Y-80868000D03*
%TD*%
%TO.C,D101*%
X278487000Y-61638000D03*
X278487000Y-62738000D03*
X276657000Y-62738000D03*
X276657000Y-61638000D03*
%TD*%
%TO.C,D100*%
X60414500Y-42693500D03*
X60414500Y-43793500D03*
X58584500Y-43793500D03*
X58584500Y-42693500D03*
%TD*%
%TO.C,D99*%
X370078000Y-119144000D03*
X370078000Y-120244000D03*
X368248000Y-120244000D03*
X368248000Y-119144000D03*
%TD*%
%TO.C,D98*%
X178714000Y-99890000D03*
X178714000Y-100990000D03*
X176884000Y-100990000D03*
X176884000Y-99890000D03*
%TD*%
%TO.C,D97*%
X169787000Y-80882000D03*
X169787000Y-81982000D03*
X167957000Y-81982000D03*
X167957000Y-80882000D03*
%TD*%
%TO.C,D96*%
X303226000Y-61638000D03*
X303226000Y-62738000D03*
X301396000Y-62738000D03*
X301396000Y-61638000D03*
%TD*%
%TO.C,D95*%
X41200000Y-42715000D03*
X41200000Y-43815000D03*
X39370000Y-43815000D03*
X39370000Y-42715000D03*
%TD*%
D12*
%TO.C,WinKey1*%
X86878000Y-111496000D03*
D10*
X85608000Y-114036000D03*
D11*
X90688000Y-114036000D03*
D10*
X95768000Y-114036000D03*
D12*
X93228000Y-108956000D03*
%TD*%
%TO.C,LEFT_FN1*%
X63002000Y-111496000D03*
D10*
X61732000Y-114036000D03*
D11*
X66812000Y-114036000D03*
D10*
X71892000Y-114036000D03*
D12*
X69352000Y-108956000D03*
%TD*%
%TO.C,LEFT_CTRL1*%
X39084700Y-111496000D03*
D10*
X37814700Y-114036000D03*
D11*
X42894700Y-114036000D03*
D10*
X47974700Y-114036000D03*
D12*
X45434700Y-108956000D03*
%TD*%
%TO.C,LEFT-SHIFT1*%
X48609700Y-92319000D03*
D10*
X47339700Y-94859000D03*
D11*
X52419700Y-94859000D03*
D10*
X57499700Y-94859000D03*
D12*
X54959700Y-89779000D03*
%TD*%
%TO.C,Backspace1*%
X293793000Y-35296000D03*
D10*
X292523000Y-37836000D03*
D11*
X297603000Y-37836000D03*
D10*
X302683000Y-37836000D03*
D12*
X300143000Y-32756000D03*
%TD*%
%TO.C,TAB1*%
X41464700Y-54235200D03*
D10*
X40194700Y-56775200D03*
D11*
X45274700Y-56775200D03*
D10*
X50354700Y-56775200D03*
D12*
X47814700Y-51695200D03*
%TD*%
%TO.C,CAPS1*%
X50197200Y-70729000D03*
D10*
X52737200Y-75809000D03*
D11*
X47657200Y-75809000D03*
D10*
X42577200Y-75809000D03*
D12*
X43847200Y-73269000D03*
%TD*%
D10*
%TO.C,SW63*%
X239903000Y-75819000D03*
X250063000Y-75819000D03*
D11*
X244983000Y-75819000D03*
D12*
X241173000Y-73279000D03*
X247523000Y-70739000D03*
%TD*%
D10*
%TO.C,SW1*%
X111506000Y-18669000D03*
X121666000Y-18669000D03*
D11*
X116586000Y-18669000D03*
D12*
X112776000Y-16129000D03*
X119126000Y-13589000D03*
%TD*%
D10*
%TO.C,SW2*%
X229997000Y-94869000D03*
X240157000Y-94869000D03*
D11*
X235077000Y-94869000D03*
D12*
X231267000Y-92329000D03*
X237617000Y-89789000D03*
%TD*%
D10*
%TO.C,SW5*%
X54356000Y-37673900D03*
X64516000Y-37673900D03*
D11*
X59436000Y-37673900D03*
D12*
X55626000Y-35133900D03*
X61976000Y-32593900D03*
%TD*%
D10*
%TO.C,SW6*%
X64008000Y-56642000D03*
X74168000Y-56642000D03*
D11*
X69088000Y-56642000D03*
D12*
X65278000Y-54102000D03*
X71628000Y-51562000D03*
%TD*%
D10*
%TO.C,SW7*%
X68707000Y-75819000D03*
X78867000Y-75819000D03*
D11*
X73787000Y-75819000D03*
D12*
X69977000Y-73279000D03*
X76327000Y-70739000D03*
%TD*%
D10*
%TO.C,SW8*%
X326085000Y-94869000D03*
X336245000Y-94869000D03*
D11*
X331165000Y-94869000D03*
D12*
X327355000Y-92329000D03*
X333705000Y-89789000D03*
%TD*%
D10*
%TO.C,SW11*%
X78232000Y-94869000D03*
X88392000Y-94869000D03*
D11*
X83312000Y-94869000D03*
D12*
X79502000Y-92329000D03*
X85852000Y-89789000D03*
%TD*%
D10*
%TO.C,SW12*%
X92456000Y-18669000D03*
X102616000Y-18669000D03*
D11*
X97536000Y-18669000D03*
D12*
X93726000Y-16129000D03*
X100076000Y-13589000D03*
%TD*%
D10*
%TO.C,SW14*%
X73406000Y-37673900D03*
X83566000Y-37673900D03*
D11*
X78486000Y-37673900D03*
D12*
X74676000Y-35133900D03*
X81026000Y-32593900D03*
%TD*%
D10*
%TO.C,SW15*%
X82931000Y-56642000D03*
X93091000Y-56642000D03*
D11*
X88011000Y-56642000D03*
D12*
X84201000Y-54102000D03*
X90551000Y-51562000D03*
%TD*%
D10*
%TO.C,SW16*%
X92456000Y-37673900D03*
X102616000Y-37673900D03*
D11*
X97536000Y-37673900D03*
D12*
X93726000Y-35133900D03*
X100076000Y-32593900D03*
%TD*%
D10*
%TO.C,SW17*%
X101854000Y-56642000D03*
X112014000Y-56642000D03*
D11*
X106934000Y-56642000D03*
D12*
X103124000Y-54102000D03*
X109474000Y-51562000D03*
%TD*%
D10*
%TO.C,SW18*%
X106807000Y-75819000D03*
X116967000Y-75819000D03*
D11*
X111887000Y-75819000D03*
D12*
X108077000Y-73279000D03*
X114427000Y-70739000D03*
%TD*%
D10*
%TO.C,SW19*%
X97028000Y-94869000D03*
X107188000Y-94869000D03*
D11*
X102108000Y-94869000D03*
D12*
X98298000Y-92329000D03*
X104648000Y-89789000D03*
%TD*%
D10*
%TO.C,SW20*%
X234315000Y-56642000D03*
X244475000Y-56642000D03*
D11*
X239395000Y-56642000D03*
D12*
X235585000Y-54102000D03*
X241935000Y-51562000D03*
%TD*%
D10*
%TO.C,SW22*%
X125857000Y-75819000D03*
X136017000Y-75819000D03*
D11*
X130937000Y-75819000D03*
D12*
X127127000Y-73279000D03*
X133477000Y-70739000D03*
%TD*%
D10*
%TO.C,SW23*%
X115951000Y-94869000D03*
X126111000Y-94869000D03*
D11*
X121031000Y-94869000D03*
D12*
X117221000Y-92329000D03*
X123571000Y-89789000D03*
%TD*%
D10*
%TO.C,SW24*%
X253365000Y-56642000D03*
X263525000Y-56642000D03*
D11*
X258445000Y-56642000D03*
D12*
X254635000Y-54102000D03*
X260985000Y-51562000D03*
%TD*%
D10*
%TO.C,SW26*%
X111506000Y-37673900D03*
X121666000Y-37673900D03*
D11*
X116586000Y-37673900D03*
D12*
X112776000Y-35133900D03*
X119126000Y-32593900D03*
%TD*%
D10*
%TO.C,SW27*%
X120777000Y-56642000D03*
X130937000Y-56642000D03*
D11*
X125857000Y-56642000D03*
D12*
X122047000Y-54102000D03*
X128397000Y-51562000D03*
%TD*%
D10*
%TO.C,SW28*%
X130556000Y-37673900D03*
X140716000Y-37673900D03*
D11*
X135636000Y-37673900D03*
D12*
X131826000Y-35133900D03*
X138176000Y-32593900D03*
%TD*%
D10*
%TO.C,SW29*%
X139700000Y-56642000D03*
X149860000Y-56642000D03*
D11*
X144780000Y-56642000D03*
D12*
X140970000Y-54102000D03*
X147320000Y-51562000D03*
%TD*%
D10*
%TO.C,SW30*%
X144653000Y-75819000D03*
X154813000Y-75819000D03*
D11*
X149733000Y-75819000D03*
D12*
X145923000Y-73279000D03*
X152273000Y-70739000D03*
%TD*%
D10*
%TO.C,SW31*%
X134874000Y-94869000D03*
X145034000Y-94869000D03*
D11*
X139954000Y-94869000D03*
D12*
X136144000Y-92329000D03*
X142494000Y-89789000D03*
%TD*%
D10*
%TO.C,SW32*%
X168656000Y-18669000D03*
X178816000Y-18669000D03*
D11*
X173736000Y-18669000D03*
D12*
X169926000Y-16129000D03*
X176276000Y-13589000D03*
%TD*%
D10*
%TO.C,SW33*%
X163703000Y-75819000D03*
X173863000Y-75819000D03*
D11*
X168783000Y-75819000D03*
D12*
X164973000Y-73279000D03*
X171323000Y-70739000D03*
%TD*%
D10*
%TO.C,SW34*%
X153797000Y-94869000D03*
X163957000Y-94869000D03*
D11*
X158877000Y-94869000D03*
D12*
X155067000Y-92329000D03*
X161417000Y-89789000D03*
%TD*%
D10*
%TO.C,SW35*%
X187706000Y-18669000D03*
X197866000Y-18669000D03*
D11*
X192786000Y-18669000D03*
D12*
X188976000Y-16129000D03*
X195326000Y-13589000D03*
%TD*%
D10*
%TO.C,SW36*%
X248920000Y-94869000D03*
X259080000Y-94869000D03*
D11*
X254000000Y-94869000D03*
D12*
X250190000Y-92329000D03*
X256540000Y-89789000D03*
%TD*%
D10*
%TO.C,SW38*%
X149606000Y-37673900D03*
X159766000Y-37673900D03*
D11*
X154686000Y-37673900D03*
D12*
X150876000Y-35133900D03*
X157226000Y-32593900D03*
%TD*%
D10*
%TO.C,SW39*%
X158623000Y-56642000D03*
X168783000Y-56642000D03*
D11*
X163703000Y-56642000D03*
D12*
X159893000Y-54102000D03*
X166243000Y-51562000D03*
%TD*%
D10*
%TO.C,SW40*%
X168656000Y-37673900D03*
X178816000Y-37673900D03*
D11*
X173736000Y-37673900D03*
D12*
X169926000Y-35133900D03*
X176276000Y-32593900D03*
%TD*%
D10*
%TO.C,SW42*%
X182753000Y-75819000D03*
X192913000Y-75819000D03*
D11*
X187833000Y-75819000D03*
D12*
X184023000Y-73279000D03*
X190373000Y-70739000D03*
%TD*%
D10*
%TO.C,SW43*%
X172720000Y-94869000D03*
X182880000Y-94869000D03*
D11*
X177800000Y-94869000D03*
D12*
X173990000Y-92329000D03*
X180340000Y-89789000D03*
%TD*%
D10*
%TO.C,SW44*%
X244856000Y-37673900D03*
X255016000Y-37673900D03*
D11*
X249936000Y-37673900D03*
D12*
X246126000Y-35133900D03*
X252476000Y-32593900D03*
%TD*%
D10*
%TO.C,SW46*%
X201803000Y-75819000D03*
X211963000Y-75819000D03*
D11*
X206883000Y-75819000D03*
D12*
X203073000Y-73279000D03*
X209423000Y-70739000D03*
%TD*%
D10*
%TO.C,SW47*%
X191770000Y-94869000D03*
X201930000Y-94869000D03*
D11*
X196850000Y-94869000D03*
D12*
X193040000Y-92329000D03*
X199390000Y-89789000D03*
%TD*%
D10*
%TO.C,SW49*%
X263906000Y-37673900D03*
X274066000Y-37673900D03*
D11*
X268986000Y-37673900D03*
D12*
X265176000Y-35133900D03*
X271526000Y-32593900D03*
%TD*%
D10*
%TO.C,SW53*%
X206756000Y-37673900D03*
X216916000Y-37673900D03*
D11*
X211836000Y-37673900D03*
D12*
X208026000Y-35133900D03*
X214376000Y-32593900D03*
%TD*%
D10*
%TO.C,SW55*%
X220853000Y-75819000D03*
X231013000Y-75819000D03*
D11*
X225933000Y-75819000D03*
D12*
X222123000Y-73279000D03*
X228473000Y-70739000D03*
%TD*%
D10*
%TO.C,SW56*%
X210947000Y-94869000D03*
X221107000Y-94869000D03*
D11*
X216027000Y-94869000D03*
D12*
X212217000Y-92329000D03*
X218567000Y-89789000D03*
%TD*%
D10*
%TO.C,SW59*%
X225806000Y-37673900D03*
X235966000Y-37673900D03*
D11*
X230886000Y-37673900D03*
D12*
X227076000Y-35133900D03*
X233426000Y-32593900D03*
%TD*%
D10*
%TO.C,SW60*%
X345135000Y-75819000D03*
X355295000Y-75819000D03*
D11*
X350215000Y-75819000D03*
D12*
X346405000Y-73279000D03*
X352755000Y-70739000D03*
%TD*%
D10*
%TO.C,SW61*%
X272542000Y-56642000D03*
X282702000Y-56642000D03*
D11*
X277622000Y-56642000D03*
D12*
X273812000Y-54102000D03*
X280162000Y-51562000D03*
%TD*%
D10*
%TO.C,SW62*%
X364058000Y-75819000D03*
X374218000Y-75819000D03*
D11*
X369138000Y-75819000D03*
D12*
X365328000Y-73279000D03*
X371678000Y-70739000D03*
%TD*%
D10*
%TO.C,SW64*%
X258953000Y-75819000D03*
X269113000Y-75819000D03*
D11*
X264033000Y-75819000D03*
D12*
X260223000Y-73279000D03*
X266573000Y-70739000D03*
%TD*%
D10*
%TO.C,SW66*%
X345135000Y-56769000D03*
X355295000Y-56769000D03*
D11*
X350215000Y-56769000D03*
D12*
X346405000Y-54229000D03*
X352755000Y-51689000D03*
%TD*%
D10*
%TO.C,SW67*%
X326085000Y-56769000D03*
X336245000Y-56769000D03*
D11*
X331165000Y-56769000D03*
D12*
X327355000Y-54229000D03*
X333705000Y-51689000D03*
%TD*%
D10*
%TO.C,SW65*%
X326085000Y-75819000D03*
X336245000Y-75819000D03*
D11*
X331165000Y-75819000D03*
D12*
X327355000Y-73279000D03*
X333705000Y-70739000D03*
%TD*%
D10*
%TO.C,SW68*%
X345135000Y-94869000D03*
X355295000Y-94869000D03*
D11*
X350215000Y-94869000D03*
D12*
X346405000Y-92329000D03*
X352755000Y-89789000D03*
%TD*%
D10*
%TO.C,SW69*%
X326085000Y-37846000D03*
X336245000Y-37846000D03*
D11*
X331165000Y-37846000D03*
D12*
X327355000Y-35306000D03*
X333705000Y-32766000D03*
%TD*%
D10*
%TO.C,SW70*%
X54356000Y-18669000D03*
X64516000Y-18669000D03*
D11*
X59436000Y-18669000D03*
D12*
X55626000Y-16129000D03*
X61976000Y-13589000D03*
%TD*%
D10*
%TO.C,SW71*%
X364058000Y-56769000D03*
X374218000Y-56769000D03*
D11*
X369138000Y-56769000D03*
D12*
X365328000Y-54229000D03*
X371678000Y-51689000D03*
%TD*%
D10*
%TO.C,SW72*%
X364058000Y-94869000D03*
X374218000Y-94869000D03*
D11*
X369138000Y-94869000D03*
D12*
X365328000Y-92329000D03*
X371678000Y-89789000D03*
%TD*%
D10*
%TO.C,SW73*%
X35306000Y-18669000D03*
X45466000Y-18669000D03*
D11*
X40386000Y-18669000D03*
D12*
X36576000Y-16129000D03*
X42926000Y-13589000D03*
%TD*%
D10*
%TO.C,SW74*%
X364058000Y-37846000D03*
X374218000Y-37846000D03*
D11*
X369138000Y-37846000D03*
D12*
X365328000Y-35306000D03*
X371678000Y-32766000D03*
%TD*%
D10*
%TO.C,SW75*%
X364058000Y-114046000D03*
X374218000Y-114046000D03*
D11*
X369138000Y-114046000D03*
D12*
X365328000Y-111506000D03*
X371678000Y-108966000D03*
%TD*%
D10*
%TO.C,SW76*%
X345135000Y-114046000D03*
X355295000Y-114046000D03*
D11*
X350215000Y-114046000D03*
D12*
X346405000Y-111506000D03*
X352755000Y-108966000D03*
%TD*%
D10*
%TO.C,SW77*%
X326085000Y-114046000D03*
X336245000Y-114046000D03*
D11*
X331165000Y-114046000D03*
D12*
X327355000Y-111506000D03*
X333705000Y-108966000D03*
%TD*%
D10*
%TO.C,S2*%
X73406000Y-18669000D03*
X83566000Y-18669000D03*
D11*
X78486000Y-18669000D03*
D12*
X74676000Y-16129000D03*
X81026000Y-13589000D03*
%TD*%
D10*
%TO.C,S1*%
X345135000Y-37846000D03*
X355295000Y-37846000D03*
D11*
X350215000Y-37846000D03*
D12*
X346405000Y-35306000D03*
X352755000Y-32766000D03*
%TD*%
%TO.C,SW48*%
X277124000Y-111496000D03*
D10*
X275854000Y-114036000D03*
D11*
X280934000Y-114036000D03*
D10*
X286014000Y-114036000D03*
D12*
X283474000Y-108956000D03*
%TD*%
%TO.C,C3*%
G36*
G01*
X337385000Y-66444800D02*
X337385000Y-66104800D01*
G75*
G02*
X337525000Y-65964800I140000J0D01*
G01*
X337805000Y-65964800D01*
G75*
G02*
X337945000Y-66104800I0J-140000D01*
G01*
X337945000Y-66444800D01*
G75*
G02*
X337805000Y-66584800I-140000J0D01*
G01*
X337525000Y-66584800D01*
G75*
G02*
X337385000Y-66444800I0J140000D01*
G01*
G37*
G36*
G01*
X336425000Y-66444800D02*
X336425000Y-66104800D01*
G75*
G02*
X336565000Y-65964800I140000J0D01*
G01*
X336845000Y-65964800D01*
G75*
G02*
X336985000Y-66104800I0J-140000D01*
G01*
X336985000Y-66444800D01*
G75*
G02*
X336845000Y-66584800I-140000J0D01*
G01*
X336565000Y-66584800D01*
G75*
G02*
X336425000Y-66444800I0J140000D01*
G01*
G37*
%TD*%
%TO.C,C5*%
G36*
G01*
X176212000Y-65997000D02*
X176212000Y-66337000D01*
G75*
G02*
X176072000Y-66477000I-140000J0D01*
G01*
X175792000Y-66477000D01*
G75*
G02*
X175652000Y-66337000I0J140000D01*
G01*
X175652000Y-65997000D01*
G75*
G02*
X175792000Y-65857000I140000J0D01*
G01*
X176072000Y-65857000D01*
G75*
G02*
X176212000Y-65997000I0J-140000D01*
G01*
G37*
G36*
G01*
X177172000Y-65997000D02*
X177172000Y-66337000D01*
G75*
G02*
X177032000Y-66477000I-140000J0D01*
G01*
X176752000Y-66477000D01*
G75*
G02*
X176612000Y-66337000I0J140000D01*
G01*
X176612000Y-65997000D01*
G75*
G02*
X176752000Y-65857000I140000J0D01*
G01*
X177032000Y-65857000D01*
G75*
G02*
X177172000Y-65997000I0J-140000D01*
G01*
G37*
%TD*%
%TO.C,C6*%
G36*
G01*
X368024000Y-66060500D02*
X368024000Y-66400500D01*
G75*
G02*
X367884000Y-66540500I-140000J0D01*
G01*
X367604000Y-66540500D01*
G75*
G02*
X367464000Y-66400500I0J140000D01*
G01*
X367464000Y-66060500D01*
G75*
G02*
X367604000Y-65920500I140000J0D01*
G01*
X367884000Y-65920500D01*
G75*
G02*
X368024000Y-66060500I0J-140000D01*
G01*
G37*
G36*
G01*
X368984000Y-66060500D02*
X368984000Y-66400500D01*
G75*
G02*
X368844000Y-66540500I-140000J0D01*
G01*
X368564000Y-66540500D01*
G75*
G02*
X368424000Y-66400500I0J140000D01*
G01*
X368424000Y-66060500D01*
G75*
G02*
X368564000Y-65920500I140000J0D01*
G01*
X368844000Y-65920500D01*
G75*
G02*
X368984000Y-66060500I0J-140000D01*
G01*
G37*
%TD*%
%TO.C,C8*%
G36*
G01*
X183681000Y-65997000D02*
X183681000Y-66337000D01*
G75*
G02*
X183541000Y-66477000I-140000J0D01*
G01*
X183261000Y-66477000D01*
G75*
G02*
X183121000Y-66337000I0J140000D01*
G01*
X183121000Y-65997000D01*
G75*
G02*
X183261000Y-65857000I140000J0D01*
G01*
X183541000Y-65857000D01*
G75*
G02*
X183681000Y-65997000I0J-140000D01*
G01*
G37*
G36*
G01*
X184641000Y-65997000D02*
X184641000Y-66337000D01*
G75*
G02*
X184501000Y-66477000I-140000J0D01*
G01*
X184221000Y-66477000D01*
G75*
G02*
X184081000Y-66337000I0J140000D01*
G01*
X184081000Y-65997000D01*
G75*
G02*
X184221000Y-65857000I140000J0D01*
G01*
X184501000Y-65857000D01*
G75*
G02*
X184641000Y-65997000I0J-140000D01*
G01*
G37*
%TD*%
%TO.C,C9*%
G36*
G01*
X244337000Y-28281300D02*
X244337000Y-27941300D01*
G75*
G02*
X244477000Y-27801300I140000J0D01*
G01*
X244757000Y-27801300D01*
G75*
G02*
X244897000Y-27941300I0J-140000D01*
G01*
X244897000Y-28281300D01*
G75*
G02*
X244757000Y-28421300I-140000J0D01*
G01*
X244477000Y-28421300D01*
G75*
G02*
X244337000Y-28281300I0J140000D01*
G01*
G37*
G36*
G01*
X243377000Y-28281300D02*
X243377000Y-27941300D01*
G75*
G02*
X243517000Y-27801300I140000J0D01*
G01*
X243797000Y-27801300D01*
G75*
G02*
X243937000Y-27941300I0J-140000D01*
G01*
X243937000Y-28281300D01*
G75*
G02*
X243797000Y-28421300I-140000J0D01*
G01*
X243517000Y-28421300D01*
G75*
G02*
X243377000Y-28281300I0J140000D01*
G01*
G37*
%TD*%
%TO.C,C11*%
G36*
G01*
X255139000Y-28281300D02*
X255139000Y-27941300D01*
G75*
G02*
X255279000Y-27801300I140000J0D01*
G01*
X255559000Y-27801300D01*
G75*
G02*
X255699000Y-27941300I0J-140000D01*
G01*
X255699000Y-28281300D01*
G75*
G02*
X255559000Y-28421300I-140000J0D01*
G01*
X255279000Y-28421300D01*
G75*
G02*
X255139000Y-28281300I0J140000D01*
G01*
G37*
G36*
G01*
X254179000Y-28281300D02*
X254179000Y-27941300D01*
G75*
G02*
X254319000Y-27801300I140000J0D01*
G01*
X254599000Y-27801300D01*
G75*
G02*
X254739000Y-27941300I0J-140000D01*
G01*
X254739000Y-28281300D01*
G75*
G02*
X254599000Y-28421300I-140000J0D01*
G01*
X254319000Y-28421300D01*
G75*
G02*
X254179000Y-28281300I0J140000D01*
G01*
G37*
%TD*%
%TO.C,C13*%
G36*
G01*
X357921000Y-66060500D02*
X357921000Y-66400500D01*
G75*
G02*
X357781000Y-66540500I-140000J0D01*
G01*
X357501000Y-66540500D01*
G75*
G02*
X357361000Y-66400500I0J140000D01*
G01*
X357361000Y-66060500D01*
G75*
G02*
X357501000Y-65920500I140000J0D01*
G01*
X357781000Y-65920500D01*
G75*
G02*
X357921000Y-66060500I0J-140000D01*
G01*
G37*
G36*
G01*
X358881000Y-66060500D02*
X358881000Y-66400500D01*
G75*
G02*
X358741000Y-66540500I-140000J0D01*
G01*
X358461000Y-66540500D01*
G75*
G02*
X358321000Y-66400500I0J140000D01*
G01*
X358321000Y-66060500D01*
G75*
G02*
X358461000Y-65920500I140000J0D01*
G01*
X358741000Y-65920500D01*
G75*
G02*
X358881000Y-66060500I0J-140000D01*
G01*
G37*
%TD*%
%TO.C,C16*%
G36*
G01*
X260539000Y-28281300D02*
X260539000Y-27941300D01*
G75*
G02*
X260679000Y-27801300I140000J0D01*
G01*
X260959000Y-27801300D01*
G75*
G02*
X261099000Y-27941300I0J-140000D01*
G01*
X261099000Y-28281300D01*
G75*
G02*
X260959000Y-28421300I-140000J0D01*
G01*
X260679000Y-28421300D01*
G75*
G02*
X260539000Y-28281300I0J140000D01*
G01*
G37*
G36*
G01*
X259579000Y-28281300D02*
X259579000Y-27941300D01*
G75*
G02*
X259719000Y-27801300I140000J0D01*
G01*
X259999000Y-27801300D01*
G75*
G02*
X260139000Y-27941300I0J-140000D01*
G01*
X260139000Y-28281300D01*
G75*
G02*
X259999000Y-28421300I-140000J0D01*
G01*
X259719000Y-28421300D01*
G75*
G02*
X259579000Y-28281300I0J140000D01*
G01*
G37*
%TD*%
%TO.C,C17*%
G36*
G01*
X179946000Y-65997000D02*
X179946000Y-66337000D01*
G75*
G02*
X179806000Y-66477000I-140000J0D01*
G01*
X179526000Y-66477000D01*
G75*
G02*
X179386000Y-66337000I0J140000D01*
G01*
X179386000Y-65997000D01*
G75*
G02*
X179526000Y-65857000I140000J0D01*
G01*
X179806000Y-65857000D01*
G75*
G02*
X179946000Y-65997000I0J-140000D01*
G01*
G37*
G36*
G01*
X180906000Y-65997000D02*
X180906000Y-66337000D01*
G75*
G02*
X180766000Y-66477000I-140000J0D01*
G01*
X180486000Y-66477000D01*
G75*
G02*
X180346000Y-66337000I0J140000D01*
G01*
X180346000Y-65997000D01*
G75*
G02*
X180486000Y-65857000I140000J0D01*
G01*
X180766000Y-65857000D01*
G75*
G02*
X180906000Y-65997000I0J-140000D01*
G01*
G37*
%TD*%
%TO.C,C18*%
G36*
G01*
X265940000Y-28281300D02*
X265940000Y-27941300D01*
G75*
G02*
X266080000Y-27801300I140000J0D01*
G01*
X266360000Y-27801300D01*
G75*
G02*
X266500000Y-27941300I0J-140000D01*
G01*
X266500000Y-28281300D01*
G75*
G02*
X266360000Y-28421300I-140000J0D01*
G01*
X266080000Y-28421300D01*
G75*
G02*
X265940000Y-28281300I0J140000D01*
G01*
G37*
G36*
G01*
X264980000Y-28281300D02*
X264980000Y-27941300D01*
G75*
G02*
X265120000Y-27801300I140000J0D01*
G01*
X265400000Y-27801300D01*
G75*
G02*
X265540000Y-27941300I0J-140000D01*
G01*
X265540000Y-28281300D01*
G75*
G02*
X265400000Y-28421300I-140000J0D01*
G01*
X265120000Y-28421300D01*
G75*
G02*
X264980000Y-28281300I0J140000D01*
G01*
G37*
%TD*%
%TO.C,C22*%
G36*
G01*
X249738000Y-28281300D02*
X249738000Y-27941300D01*
G75*
G02*
X249878000Y-27801300I140000J0D01*
G01*
X250158000Y-27801300D01*
G75*
G02*
X250298000Y-27941300I0J-140000D01*
G01*
X250298000Y-28281300D01*
G75*
G02*
X250158000Y-28421300I-140000J0D01*
G01*
X249878000Y-28421300D01*
G75*
G02*
X249738000Y-28281300I0J140000D01*
G01*
G37*
G36*
G01*
X248778000Y-28281300D02*
X248778000Y-27941300D01*
G75*
G02*
X248918000Y-27801300I140000J0D01*
G01*
X249198000Y-27801300D01*
G75*
G02*
X249338000Y-27941300I0J-140000D01*
G01*
X249338000Y-28281300D01*
G75*
G02*
X249198000Y-28421300I-140000J0D01*
G01*
X248918000Y-28421300D01*
G75*
G02*
X248778000Y-28281300I0J140000D01*
G01*
G37*
%TD*%
%TO.C,C24*%
G36*
G01*
X211931000Y-28281300D02*
X211931000Y-27941300D01*
G75*
G02*
X212071000Y-27801300I140000J0D01*
G01*
X212351000Y-27801300D01*
G75*
G02*
X212491000Y-27941300I0J-140000D01*
G01*
X212491000Y-28281300D01*
G75*
G02*
X212351000Y-28421300I-140000J0D01*
G01*
X212071000Y-28421300D01*
G75*
G02*
X211931000Y-28281300I0J140000D01*
G01*
G37*
G36*
G01*
X210971000Y-28281300D02*
X210971000Y-27941300D01*
G75*
G02*
X211111000Y-27801300I140000J0D01*
G01*
X211391000Y-27801300D01*
G75*
G02*
X211531000Y-27941300I0J-140000D01*
G01*
X211531000Y-28281300D01*
G75*
G02*
X211391000Y-28421300I-140000J0D01*
G01*
X211111000Y-28421300D01*
G75*
G02*
X210971000Y-28281300I0J140000D01*
G01*
G37*
%TD*%
%TO.C,C27*%
G36*
G01*
X325955000Y-66444800D02*
X325955000Y-66104800D01*
G75*
G02*
X326095000Y-65964800I140000J0D01*
G01*
X326375000Y-65964800D01*
G75*
G02*
X326515000Y-66104800I0J-140000D01*
G01*
X326515000Y-66444800D01*
G75*
G02*
X326375000Y-66584800I-140000J0D01*
G01*
X326095000Y-66584800D01*
G75*
G02*
X325955000Y-66444800I0J140000D01*
G01*
G37*
G36*
G01*
X324995000Y-66444800D02*
X324995000Y-66104800D01*
G75*
G02*
X325135000Y-65964800I140000J0D01*
G01*
X325415000Y-65964800D01*
G75*
G02*
X325555000Y-66104800I0J-140000D01*
G01*
X325555000Y-66444800D01*
G75*
G02*
X325415000Y-66584800I-140000J0D01*
G01*
X325135000Y-66584800D01*
G75*
G02*
X324995000Y-66444800I0J140000D01*
G01*
G37*
%TD*%
%TO.C,C29*%
G36*
G01*
X150074000Y-65997000D02*
X150074000Y-66337000D01*
G75*
G02*
X149934000Y-66477000I-140000J0D01*
G01*
X149654000Y-66477000D01*
G75*
G02*
X149514000Y-66337000I0J140000D01*
G01*
X149514000Y-65997000D01*
G75*
G02*
X149654000Y-65857000I140000J0D01*
G01*
X149934000Y-65857000D01*
G75*
G02*
X150074000Y-65997000I0J-140000D01*
G01*
G37*
G36*
G01*
X151034000Y-65997000D02*
X151034000Y-66337000D01*
G75*
G02*
X150894000Y-66477000I-140000J0D01*
G01*
X150614000Y-66477000D01*
G75*
G02*
X150474000Y-66337000I0J140000D01*
G01*
X150474000Y-65997000D01*
G75*
G02*
X150614000Y-65857000I140000J0D01*
G01*
X150894000Y-65857000D01*
G75*
G02*
X151034000Y-65997000I0J-140000D01*
G01*
G37*
%TD*%
%TO.C,C31*%
G36*
G01*
X163323000Y-28344800D02*
X163323000Y-28004800D01*
G75*
G02*
X163463000Y-27864800I140000J0D01*
G01*
X163743000Y-27864800D01*
G75*
G02*
X163883000Y-28004800I0J-140000D01*
G01*
X163883000Y-28344800D01*
G75*
G02*
X163743000Y-28484800I-140000J0D01*
G01*
X163463000Y-28484800D01*
G75*
G02*
X163323000Y-28344800I0J140000D01*
G01*
G37*
G36*
G01*
X162363000Y-28344800D02*
X162363000Y-28004800D01*
G75*
G02*
X162503000Y-27864800I140000J0D01*
G01*
X162783000Y-27864800D01*
G75*
G02*
X162923000Y-28004800I0J-140000D01*
G01*
X162923000Y-28344800D01*
G75*
G02*
X162783000Y-28484800I-140000J0D01*
G01*
X162503000Y-28484800D01*
G75*
G02*
X162363000Y-28344800I0J140000D01*
G01*
G37*
%TD*%
%TO.C,C32*%
G36*
G01*
X108999000Y-65997000D02*
X108999000Y-66337000D01*
G75*
G02*
X108859000Y-66477000I-140000J0D01*
G01*
X108579000Y-66477000D01*
G75*
G02*
X108439000Y-66337000I0J140000D01*
G01*
X108439000Y-65997000D01*
G75*
G02*
X108579000Y-65857000I140000J0D01*
G01*
X108859000Y-65857000D01*
G75*
G02*
X108999000Y-65997000I0J-140000D01*
G01*
G37*
G36*
G01*
X109959000Y-65997000D02*
X109959000Y-66337000D01*
G75*
G02*
X109819000Y-66477000I-140000J0D01*
G01*
X109539000Y-66477000D01*
G75*
G02*
X109399000Y-66337000I0J140000D01*
G01*
X109399000Y-65997000D01*
G75*
G02*
X109539000Y-65857000I140000J0D01*
G01*
X109819000Y-65857000D01*
G75*
G02*
X109959000Y-65997000I0J-140000D01*
G01*
G37*
%TD*%
%TO.C,C33*%
G36*
G01*
X228134000Y-28281300D02*
X228134000Y-27941300D01*
G75*
G02*
X228274000Y-27801300I140000J0D01*
G01*
X228554000Y-27801300D01*
G75*
G02*
X228694000Y-27941300I0J-140000D01*
G01*
X228694000Y-28281300D01*
G75*
G02*
X228554000Y-28421300I-140000J0D01*
G01*
X228274000Y-28421300D01*
G75*
G02*
X228134000Y-28281300I0J140000D01*
G01*
G37*
G36*
G01*
X227174000Y-28281300D02*
X227174000Y-27941300D01*
G75*
G02*
X227314000Y-27801300I140000J0D01*
G01*
X227594000Y-27801300D01*
G75*
G02*
X227734000Y-27941300I0J-140000D01*
G01*
X227734000Y-28281300D01*
G75*
G02*
X227594000Y-28421300I-140000J0D01*
G01*
X227314000Y-28421300D01*
G75*
G02*
X227174000Y-28281300I0J140000D01*
G01*
G37*
%TD*%
%TO.C,C36*%
G36*
G01*
X187415000Y-65997000D02*
X187415000Y-66337000D01*
G75*
G02*
X187275000Y-66477000I-140000J0D01*
G01*
X186995000Y-66477000D01*
G75*
G02*
X186855000Y-66337000I0J140000D01*
G01*
X186855000Y-65997000D01*
G75*
G02*
X186995000Y-65857000I140000J0D01*
G01*
X187275000Y-65857000D01*
G75*
G02*
X187415000Y-65997000I0J-140000D01*
G01*
G37*
G36*
G01*
X188375000Y-65997000D02*
X188375000Y-66337000D01*
G75*
G02*
X188235000Y-66477000I-140000J0D01*
G01*
X187955000Y-66477000D01*
G75*
G02*
X187815000Y-66337000I0J140000D01*
G01*
X187815000Y-65997000D01*
G75*
G02*
X187955000Y-65857000I140000J0D01*
G01*
X188235000Y-65857000D01*
G75*
G02*
X188375000Y-65997000I0J-140000D01*
G01*
G37*
%TD*%
%TO.C,C37*%
G36*
G01*
X202351000Y-65997000D02*
X202351000Y-66337000D01*
G75*
G02*
X202211000Y-66477000I-140000J0D01*
G01*
X201931000Y-66477000D01*
G75*
G02*
X201791000Y-66337000I0J140000D01*
G01*
X201791000Y-65997000D01*
G75*
G02*
X201931000Y-65857000I140000J0D01*
G01*
X202211000Y-65857000D01*
G75*
G02*
X202351000Y-65997000I0J-140000D01*
G01*
G37*
G36*
G01*
X203311000Y-65997000D02*
X203311000Y-66337000D01*
G75*
G02*
X203171000Y-66477000I-140000J0D01*
G01*
X202891000Y-66477000D01*
G75*
G02*
X202751000Y-66337000I0J140000D01*
G01*
X202751000Y-65997000D01*
G75*
G02*
X202891000Y-65857000I140000J0D01*
G01*
X203171000Y-65857000D01*
G75*
G02*
X203311000Y-65997000I0J-140000D01*
G01*
G37*
%TD*%
%TO.C,C39*%
G36*
G01*
X146340000Y-65997000D02*
X146340000Y-66337000D01*
G75*
G02*
X146200000Y-66477000I-140000J0D01*
G01*
X145920000Y-66477000D01*
G75*
G02*
X145780000Y-66337000I0J140000D01*
G01*
X145780000Y-65997000D01*
G75*
G02*
X145920000Y-65857000I140000J0D01*
G01*
X146200000Y-65857000D01*
G75*
G02*
X146340000Y-65997000I0J-140000D01*
G01*
G37*
G36*
G01*
X147300000Y-65997000D02*
X147300000Y-66337000D01*
G75*
G02*
X147160000Y-66477000I-140000J0D01*
G01*
X146880000Y-66477000D01*
G75*
G02*
X146740000Y-66337000I0J140000D01*
G01*
X146740000Y-65997000D01*
G75*
G02*
X146880000Y-65857000I140000J0D01*
G01*
X147160000Y-65857000D01*
G75*
G02*
X147300000Y-65997000I0J-140000D01*
G01*
G37*
%TD*%
%TO.C,C41*%
G36*
G01*
X352146000Y-66060500D02*
X352146000Y-66400500D01*
G75*
G02*
X352006000Y-66540500I-140000J0D01*
G01*
X351726000Y-66540500D01*
G75*
G02*
X351586000Y-66400500I0J140000D01*
G01*
X351586000Y-66060500D01*
G75*
G02*
X351726000Y-65920500I140000J0D01*
G01*
X352006000Y-65920500D01*
G75*
G02*
X352146000Y-66060500I0J-140000D01*
G01*
G37*
G36*
G01*
X353106000Y-66060500D02*
X353106000Y-66400500D01*
G75*
G02*
X352966000Y-66540500I-140000J0D01*
G01*
X352686000Y-66540500D01*
G75*
G02*
X352546000Y-66400500I0J140000D01*
G01*
X352546000Y-66060500D01*
G75*
G02*
X352686000Y-65920500I140000J0D01*
G01*
X352966000Y-65920500D01*
G75*
G02*
X353106000Y-66060500I0J-140000D01*
G01*
G37*
%TD*%
%TO.C,C42*%
G36*
G01*
X142606000Y-65997000D02*
X142606000Y-66337000D01*
G75*
G02*
X142466000Y-66477000I-140000J0D01*
G01*
X142186000Y-66477000D01*
G75*
G02*
X142046000Y-66337000I0J140000D01*
G01*
X142046000Y-65997000D01*
G75*
G02*
X142186000Y-65857000I140000J0D01*
G01*
X142466000Y-65857000D01*
G75*
G02*
X142606000Y-65997000I0J-140000D01*
G01*
G37*
G36*
G01*
X143566000Y-65997000D02*
X143566000Y-66337000D01*
G75*
G02*
X143426000Y-66477000I-140000J0D01*
G01*
X143146000Y-66477000D01*
G75*
G02*
X143006000Y-66337000I0J140000D01*
G01*
X143006000Y-65997000D01*
G75*
G02*
X143146000Y-65857000I140000J0D01*
G01*
X143426000Y-65857000D01*
G75*
G02*
X143566000Y-65997000I0J-140000D01*
G01*
G37*
%TD*%
%TO.C,C46*%
G36*
G01*
X71506600Y-28344800D02*
X71506600Y-28004800D01*
G75*
G02*
X71646600Y-27864800I140000J0D01*
G01*
X71926600Y-27864800D01*
G75*
G02*
X72066600Y-28004800I0J-140000D01*
G01*
X72066600Y-28344800D01*
G75*
G02*
X71926600Y-28484800I-140000J0D01*
G01*
X71646600Y-28484800D01*
G75*
G02*
X71506600Y-28344800I0J140000D01*
G01*
G37*
G36*
G01*
X70546600Y-28344800D02*
X70546600Y-28004800D01*
G75*
G02*
X70686600Y-27864800I140000J0D01*
G01*
X70966600Y-27864800D01*
G75*
G02*
X71106600Y-28004800I0J-140000D01*
G01*
X71106600Y-28344800D01*
G75*
G02*
X70966600Y-28484800I-140000J0D01*
G01*
X70686600Y-28484800D01*
G75*
G02*
X70546600Y-28344800I0J140000D01*
G01*
G37*
%TD*%
%TO.C,C47*%
G36*
G01*
X217332000Y-28281300D02*
X217332000Y-27941300D01*
G75*
G02*
X217472000Y-27801300I140000J0D01*
G01*
X217752000Y-27801300D01*
G75*
G02*
X217892000Y-27941300I0J-140000D01*
G01*
X217892000Y-28281300D01*
G75*
G02*
X217752000Y-28421300I-140000J0D01*
G01*
X217472000Y-28421300D01*
G75*
G02*
X217332000Y-28281300I0J140000D01*
G01*
G37*
G36*
G01*
X216372000Y-28281300D02*
X216372000Y-27941300D01*
G75*
G02*
X216512000Y-27801300I140000J0D01*
G01*
X216792000Y-27801300D01*
G75*
G02*
X216932000Y-27941300I0J-140000D01*
G01*
X216932000Y-28281300D01*
G75*
G02*
X216792000Y-28421300I-140000J0D01*
G01*
X216512000Y-28421300D01*
G75*
G02*
X216372000Y-28281300I0J140000D01*
G01*
G37*
%TD*%
%TO.C,C48*%
G36*
G01*
X66105600Y-28344800D02*
X66105600Y-28004800D01*
G75*
G02*
X66245600Y-27864800I140000J0D01*
G01*
X66525600Y-27864800D01*
G75*
G02*
X66665600Y-28004800I0J-140000D01*
G01*
X66665600Y-28344800D01*
G75*
G02*
X66525600Y-28484800I-140000J0D01*
G01*
X66245600Y-28484800D01*
G75*
G02*
X66105600Y-28344800I0J140000D01*
G01*
G37*
G36*
G01*
X65145600Y-28344800D02*
X65145600Y-28004800D01*
G75*
G02*
X65285600Y-27864800I140000J0D01*
G01*
X65565600Y-27864800D01*
G75*
G02*
X65705600Y-28004800I0J-140000D01*
G01*
X65705600Y-28344800D01*
G75*
G02*
X65565600Y-28484800I-140000J0D01*
G01*
X65285600Y-28484800D01*
G75*
G02*
X65145600Y-28344800I0J140000D01*
G01*
G37*
%TD*%
%TO.C,C49*%
G36*
G01*
X123935000Y-65997000D02*
X123935000Y-66337000D01*
G75*
G02*
X123795000Y-66477000I-140000J0D01*
G01*
X123515000Y-66477000D01*
G75*
G02*
X123375000Y-66337000I0J140000D01*
G01*
X123375000Y-65997000D01*
G75*
G02*
X123515000Y-65857000I140000J0D01*
G01*
X123795000Y-65857000D01*
G75*
G02*
X123935000Y-65997000I0J-140000D01*
G01*
G37*
G36*
G01*
X124895000Y-65997000D02*
X124895000Y-66337000D01*
G75*
G02*
X124755000Y-66477000I-140000J0D01*
G01*
X124475000Y-66477000D01*
G75*
G02*
X124335000Y-66337000I0J140000D01*
G01*
X124335000Y-65997000D01*
G75*
G02*
X124475000Y-65857000I140000J0D01*
G01*
X124755000Y-65857000D01*
G75*
G02*
X124895000Y-65997000I0J-140000D01*
G01*
G37*
%TD*%
%TO.C,C51*%
G36*
G01*
X364657000Y-66060500D02*
X364657000Y-66400500D01*
G75*
G02*
X364517000Y-66540500I-140000J0D01*
G01*
X364237000Y-66540500D01*
G75*
G02*
X364097000Y-66400500I0J140000D01*
G01*
X364097000Y-66060500D01*
G75*
G02*
X364237000Y-65920500I140000J0D01*
G01*
X364517000Y-65920500D01*
G75*
G02*
X364657000Y-66060500I0J-140000D01*
G01*
G37*
G36*
G01*
X365617000Y-66060500D02*
X365617000Y-66400500D01*
G75*
G02*
X365477000Y-66540500I-140000J0D01*
G01*
X365197000Y-66540500D01*
G75*
G02*
X365057000Y-66400500I0J140000D01*
G01*
X365057000Y-66060500D01*
G75*
G02*
X365197000Y-65920500I140000J0D01*
G01*
X365477000Y-65920500D01*
G75*
G02*
X365617000Y-66060500I0J-140000D01*
G01*
G37*
%TD*%
%TO.C,C54*%
G36*
G01*
X105265000Y-65997000D02*
X105265000Y-66337000D01*
G75*
G02*
X105125000Y-66477000I-140000J0D01*
G01*
X104845000Y-66477000D01*
G75*
G02*
X104705000Y-66337000I0J140000D01*
G01*
X104705000Y-65997000D01*
G75*
G02*
X104845000Y-65857000I140000J0D01*
G01*
X105125000Y-65857000D01*
G75*
G02*
X105265000Y-65997000I0J-140000D01*
G01*
G37*
G36*
G01*
X106225000Y-65997000D02*
X106225000Y-66337000D01*
G75*
G02*
X106085000Y-66477000I-140000J0D01*
G01*
X105805000Y-66477000D01*
G75*
G02*
X105665000Y-66337000I0J140000D01*
G01*
X105665000Y-65997000D01*
G75*
G02*
X105805000Y-65857000I140000J0D01*
G01*
X106085000Y-65857000D01*
G75*
G02*
X106225000Y-65997000I0J-140000D01*
G01*
G37*
%TD*%
%TO.C,C56*%
G36*
G01*
X375720000Y-66060500D02*
X375720000Y-66400500D01*
G75*
G02*
X375580000Y-66540500I-140000J0D01*
G01*
X375300000Y-66540500D01*
G75*
G02*
X375160000Y-66400500I0J140000D01*
G01*
X375160000Y-66060500D01*
G75*
G02*
X375300000Y-65920500I140000J0D01*
G01*
X375580000Y-65920500D01*
G75*
G02*
X375720000Y-66060500I0J-140000D01*
G01*
G37*
G36*
G01*
X376680000Y-66060500D02*
X376680000Y-66400500D01*
G75*
G02*
X376540000Y-66540500I-140000J0D01*
G01*
X376260000Y-66540500D01*
G75*
G02*
X376120000Y-66400500I0J140000D01*
G01*
X376120000Y-66060500D01*
G75*
G02*
X376260000Y-65920500I140000J0D01*
G01*
X376540000Y-65920500D01*
G75*
G02*
X376680000Y-66060500I0J-140000D01*
G01*
G37*
%TD*%
%TO.C,C57*%
G36*
G01*
X135138000Y-65997000D02*
X135138000Y-66337000D01*
G75*
G02*
X134998000Y-66477000I-140000J0D01*
G01*
X134718000Y-66477000D01*
G75*
G02*
X134578000Y-66337000I0J140000D01*
G01*
X134578000Y-65997000D01*
G75*
G02*
X134718000Y-65857000I140000J0D01*
G01*
X134998000Y-65857000D01*
G75*
G02*
X135138000Y-65997000I0J-140000D01*
G01*
G37*
G36*
G01*
X136098000Y-65997000D02*
X136098000Y-66337000D01*
G75*
G02*
X135958000Y-66477000I-140000J0D01*
G01*
X135678000Y-66477000D01*
G75*
G02*
X135538000Y-66337000I0J140000D01*
G01*
X135538000Y-65997000D01*
G75*
G02*
X135678000Y-65857000I140000J0D01*
G01*
X135958000Y-65857000D01*
G75*
G02*
X136098000Y-65997000I0J-140000D01*
G01*
G37*
%TD*%
%TO.C,C58*%
G36*
G01*
X101531000Y-65997000D02*
X101531000Y-66337000D01*
G75*
G02*
X101391000Y-66477000I-140000J0D01*
G01*
X101111000Y-66477000D01*
G75*
G02*
X100971000Y-66337000I0J140000D01*
G01*
X100971000Y-65997000D01*
G75*
G02*
X101111000Y-65857000I140000J0D01*
G01*
X101391000Y-65857000D01*
G75*
G02*
X101531000Y-65997000I0J-140000D01*
G01*
G37*
G36*
G01*
X102491000Y-65997000D02*
X102491000Y-66337000D01*
G75*
G02*
X102351000Y-66477000I-140000J0D01*
G01*
X102071000Y-66477000D01*
G75*
G02*
X101931000Y-66337000I0J140000D01*
G01*
X101931000Y-65997000D01*
G75*
G02*
X102071000Y-65857000I140000J0D01*
G01*
X102351000Y-65857000D01*
G75*
G02*
X102491000Y-65997000I0J-140000D01*
G01*
G37*
%TD*%
%TO.C,C61*%
G36*
G01*
X76907500Y-28344800D02*
X76907500Y-28004800D01*
G75*
G02*
X77047500Y-27864800I140000J0D01*
G01*
X77327500Y-27864800D01*
G75*
G02*
X77467500Y-28004800I0J-140000D01*
G01*
X77467500Y-28344800D01*
G75*
G02*
X77327500Y-28484800I-140000J0D01*
G01*
X77047500Y-28484800D01*
G75*
G02*
X76907500Y-28344800I0J140000D01*
G01*
G37*
G36*
G01*
X75947500Y-28344800D02*
X75947500Y-28004800D01*
G75*
G02*
X76087500Y-27864800I140000J0D01*
G01*
X76367500Y-27864800D01*
G75*
G02*
X76507500Y-28004800I0J-140000D01*
G01*
X76507500Y-28344800D01*
G75*
G02*
X76367500Y-28484800I-140000J0D01*
G01*
X76087500Y-28484800D01*
G75*
G02*
X75947500Y-28344800I0J140000D01*
G01*
G37*
%TD*%
%TO.C,C62*%
G36*
G01*
X103912000Y-28344800D02*
X103912000Y-28004800D01*
G75*
G02*
X104052000Y-27864800I140000J0D01*
G01*
X104332000Y-27864800D01*
G75*
G02*
X104472000Y-28004800I0J-140000D01*
G01*
X104472000Y-28344800D01*
G75*
G02*
X104332000Y-28484800I-140000J0D01*
G01*
X104052000Y-28484800D01*
G75*
G02*
X103912000Y-28344800I0J140000D01*
G01*
G37*
G36*
G01*
X102952000Y-28344800D02*
X102952000Y-28004800D01*
G75*
G02*
X103092000Y-27864800I140000J0D01*
G01*
X103372000Y-27864800D01*
G75*
G02*
X103512000Y-28004800I0J-140000D01*
G01*
X103512000Y-28344800D01*
G75*
G02*
X103372000Y-28484800I-140000J0D01*
G01*
X103092000Y-28484800D01*
G75*
G02*
X102952000Y-28344800I0J140000D01*
G01*
G37*
%TD*%
%TO.C,C63*%
G36*
G01*
X97797000Y-65997000D02*
X97797000Y-66337000D01*
G75*
G02*
X97657000Y-66477000I-140000J0D01*
G01*
X97377000Y-66477000D01*
G75*
G02*
X97237000Y-66337000I0J140000D01*
G01*
X97237000Y-65997000D01*
G75*
G02*
X97377000Y-65857000I140000J0D01*
G01*
X97657000Y-65857000D01*
G75*
G02*
X97797000Y-65997000I0J-140000D01*
G01*
G37*
G36*
G01*
X98757000Y-65997000D02*
X98757000Y-66337000D01*
G75*
G02*
X98617000Y-66477000I-140000J0D01*
G01*
X98337000Y-66477000D01*
G75*
G02*
X98197000Y-66337000I0J140000D01*
G01*
X98197000Y-65997000D01*
G75*
G02*
X98337000Y-65857000I140000J0D01*
G01*
X98617000Y-65857000D01*
G75*
G02*
X98757000Y-65997000I0J-140000D01*
G01*
G37*
%TD*%
%TO.C,C64*%
G36*
G01*
X55303800Y-28344800D02*
X55303800Y-28004800D01*
G75*
G02*
X55443800Y-27864800I140000J0D01*
G01*
X55723800Y-27864800D01*
G75*
G02*
X55863800Y-28004800I0J-140000D01*
G01*
X55863800Y-28344800D01*
G75*
G02*
X55723800Y-28484800I-140000J0D01*
G01*
X55443800Y-28484800D01*
G75*
G02*
X55303800Y-28344800I0J140000D01*
G01*
G37*
G36*
G01*
X54343800Y-28344800D02*
X54343800Y-28004800D01*
G75*
G02*
X54483800Y-27864800I140000J0D01*
G01*
X54763800Y-27864800D01*
G75*
G02*
X54903800Y-28004800I0J-140000D01*
G01*
X54903800Y-28344800D01*
G75*
G02*
X54763800Y-28484800I-140000J0D01*
G01*
X54483800Y-28484800D01*
G75*
G02*
X54343800Y-28344800I0J140000D01*
G01*
G37*
%TD*%
%TO.C,C66*%
G36*
G01*
X82308500Y-28344800D02*
X82308500Y-28004800D01*
G75*
G02*
X82448500Y-27864800I140000J0D01*
G01*
X82728500Y-27864800D01*
G75*
G02*
X82868500Y-28004800I0J-140000D01*
G01*
X82868500Y-28344800D01*
G75*
G02*
X82728500Y-28484800I-140000J0D01*
G01*
X82448500Y-28484800D01*
G75*
G02*
X82308500Y-28344800I0J140000D01*
G01*
G37*
G36*
G01*
X81348500Y-28344800D02*
X81348500Y-28004800D01*
G75*
G02*
X81488500Y-27864800I140000J0D01*
G01*
X81768500Y-27864800D01*
G75*
G02*
X81908500Y-28004800I0J-140000D01*
G01*
X81908500Y-28344800D01*
G75*
G02*
X81768500Y-28484800I-140000J0D01*
G01*
X81488500Y-28484800D01*
G75*
G02*
X81348500Y-28344800I0J140000D01*
G01*
G37*
%TD*%
%TO.C,C67*%
G36*
G01*
X49902800Y-28344800D02*
X49902800Y-28004800D01*
G75*
G02*
X50042800Y-27864800I140000J0D01*
G01*
X50322800Y-27864800D01*
G75*
G02*
X50462800Y-28004800I0J-140000D01*
G01*
X50462800Y-28344800D01*
G75*
G02*
X50322800Y-28484800I-140000J0D01*
G01*
X50042800Y-28484800D01*
G75*
G02*
X49902800Y-28344800I0J140000D01*
G01*
G37*
G36*
G01*
X48942800Y-28344800D02*
X48942800Y-28004800D01*
G75*
G02*
X49082800Y-27864800I140000J0D01*
G01*
X49362800Y-27864800D01*
G75*
G02*
X49502800Y-28004800I0J-140000D01*
G01*
X49502800Y-28344800D01*
G75*
G02*
X49362800Y-28484800I-140000J0D01*
G01*
X49082800Y-28484800D01*
G75*
G02*
X48942800Y-28344800I0J140000D01*
G01*
G37*
%TD*%
%TO.C,C71*%
G36*
G01*
X131404000Y-65997000D02*
X131404000Y-66337000D01*
G75*
G02*
X131264000Y-66477000I-140000J0D01*
G01*
X130984000Y-66477000D01*
G75*
G02*
X130844000Y-66337000I0J140000D01*
G01*
X130844000Y-65997000D01*
G75*
G02*
X130984000Y-65857000I140000J0D01*
G01*
X131264000Y-65857000D01*
G75*
G02*
X131404000Y-65997000I0J-140000D01*
G01*
G37*
G36*
G01*
X132364000Y-65997000D02*
X132364000Y-66337000D01*
G75*
G02*
X132224000Y-66477000I-140000J0D01*
G01*
X131944000Y-66477000D01*
G75*
G02*
X131804000Y-66337000I0J140000D01*
G01*
X131804000Y-65997000D01*
G75*
G02*
X131944000Y-65857000I140000J0D01*
G01*
X132224000Y-65857000D01*
G75*
G02*
X132364000Y-65997000I0J-140000D01*
G01*
G37*
%TD*%
%TO.C,C73*%
G36*
G01*
X94062900Y-65997000D02*
X94062900Y-66337000D01*
G75*
G02*
X93922900Y-66477000I-140000J0D01*
G01*
X93642900Y-66477000D01*
G75*
G02*
X93502900Y-66337000I0J140000D01*
G01*
X93502900Y-65997000D01*
G75*
G02*
X93642900Y-65857000I140000J0D01*
G01*
X93922900Y-65857000D01*
G75*
G02*
X94062900Y-65997000I0J-140000D01*
G01*
G37*
G36*
G01*
X95022900Y-65997000D02*
X95022900Y-66337000D01*
G75*
G02*
X94882900Y-66477000I-140000J0D01*
G01*
X94602900Y-66477000D01*
G75*
G02*
X94462900Y-66337000I0J140000D01*
G01*
X94462900Y-65997000D01*
G75*
G02*
X94602900Y-65857000I140000J0D01*
G01*
X94882900Y-65857000D01*
G75*
G02*
X95022900Y-65997000I0J-140000D01*
G01*
G37*
%TD*%
%TO.C,C74*%
G36*
G01*
X60704700Y-28344800D02*
X60704700Y-28004800D01*
G75*
G02*
X60844700Y-27864800I140000J0D01*
G01*
X61124700Y-27864800D01*
G75*
G02*
X61264700Y-28004800I0J-140000D01*
G01*
X61264700Y-28344800D01*
G75*
G02*
X61124700Y-28484800I-140000J0D01*
G01*
X60844700Y-28484800D01*
G75*
G02*
X60704700Y-28344800I0J140000D01*
G01*
G37*
G36*
G01*
X59744700Y-28344800D02*
X59744700Y-28004800D01*
G75*
G02*
X59884700Y-27864800I140000J0D01*
G01*
X60164700Y-27864800D01*
G75*
G02*
X60304700Y-28004800I0J-140000D01*
G01*
X60304700Y-28344800D01*
G75*
G02*
X60164700Y-28484800I-140000J0D01*
G01*
X59884700Y-28484800D01*
G75*
G02*
X59744700Y-28344800I0J140000D01*
G01*
G37*
%TD*%
%TO.C,C79*%
G36*
G01*
X194883000Y-65997000D02*
X194883000Y-66337000D01*
G75*
G02*
X194743000Y-66477000I-140000J0D01*
G01*
X194463000Y-66477000D01*
G75*
G02*
X194323000Y-66337000I0J140000D01*
G01*
X194323000Y-65997000D01*
G75*
G02*
X194463000Y-65857000I140000J0D01*
G01*
X194743000Y-65857000D01*
G75*
G02*
X194883000Y-65997000I0J-140000D01*
G01*
G37*
G36*
G01*
X195843000Y-65997000D02*
X195843000Y-66337000D01*
G75*
G02*
X195703000Y-66477000I-140000J0D01*
G01*
X195423000Y-66477000D01*
G75*
G02*
X195283000Y-66337000I0J140000D01*
G01*
X195283000Y-65997000D01*
G75*
G02*
X195423000Y-65857000I140000J0D01*
G01*
X195703000Y-65857000D01*
G75*
G02*
X195843000Y-65997000I0J-140000D01*
G01*
G37*
%TD*%
%TO.C,C81*%
G36*
G01*
X90328800Y-65997000D02*
X90328800Y-66337000D01*
G75*
G02*
X90188800Y-66477000I-140000J0D01*
G01*
X89908800Y-66477000D01*
G75*
G02*
X89768800Y-66337000I0J140000D01*
G01*
X89768800Y-65997000D01*
G75*
G02*
X89908800Y-65857000I140000J0D01*
G01*
X90188800Y-65857000D01*
G75*
G02*
X90328800Y-65997000I0J-140000D01*
G01*
G37*
G36*
G01*
X91288800Y-65997000D02*
X91288800Y-66337000D01*
G75*
G02*
X91148800Y-66477000I-140000J0D01*
G01*
X90868800Y-66477000D01*
G75*
G02*
X90728800Y-66337000I0J140000D01*
G01*
X90728800Y-65997000D01*
G75*
G02*
X90868800Y-65857000I140000J0D01*
G01*
X91148800Y-65857000D01*
G75*
G02*
X91288800Y-65997000I0J-140000D01*
G01*
G37*
%TD*%
%TO.C,C82*%
G36*
G01*
X127670000Y-65997000D02*
X127670000Y-66337000D01*
G75*
G02*
X127530000Y-66477000I-140000J0D01*
G01*
X127250000Y-66477000D01*
G75*
G02*
X127110000Y-66337000I0J140000D01*
G01*
X127110000Y-65997000D01*
G75*
G02*
X127250000Y-65857000I140000J0D01*
G01*
X127530000Y-65857000D01*
G75*
G02*
X127670000Y-65997000I0J-140000D01*
G01*
G37*
G36*
G01*
X128630000Y-65997000D02*
X128630000Y-66337000D01*
G75*
G02*
X128490000Y-66477000I-140000J0D01*
G01*
X128210000Y-66477000D01*
G75*
G02*
X128070000Y-66337000I0J140000D01*
G01*
X128070000Y-65997000D01*
G75*
G02*
X128210000Y-65857000I140000J0D01*
G01*
X128490000Y-65857000D01*
G75*
G02*
X128630000Y-65997000I0J-140000D01*
G01*
G37*
%TD*%
%TO.C,C83*%
G36*
G01*
X371392000Y-66060500D02*
X371392000Y-66400500D01*
G75*
G02*
X371252000Y-66540500I-140000J0D01*
G01*
X370972000Y-66540500D01*
G75*
G02*
X370832000Y-66400500I0J140000D01*
G01*
X370832000Y-66060500D01*
G75*
G02*
X370972000Y-65920500I140000J0D01*
G01*
X371252000Y-65920500D01*
G75*
G02*
X371392000Y-66060500I0J-140000D01*
G01*
G37*
G36*
G01*
X372352000Y-66060500D02*
X372352000Y-66400500D01*
G75*
G02*
X372212000Y-66540500I-140000J0D01*
G01*
X371932000Y-66540500D01*
G75*
G02*
X371792000Y-66400500I0J140000D01*
G01*
X371792000Y-66060500D01*
G75*
G02*
X371932000Y-65920500I140000J0D01*
G01*
X372212000Y-65920500D01*
G75*
G02*
X372352000Y-66060500I0J-140000D01*
G01*
G37*
%TD*%
%TO.C,C84*%
G36*
G01*
X93110300Y-28344800D02*
X93110300Y-28004800D01*
G75*
G02*
X93250300Y-27864800I140000J0D01*
G01*
X93530300Y-27864800D01*
G75*
G02*
X93670300Y-28004800I0J-140000D01*
G01*
X93670300Y-28344800D01*
G75*
G02*
X93530300Y-28484800I-140000J0D01*
G01*
X93250300Y-28484800D01*
G75*
G02*
X93110300Y-28344800I0J140000D01*
G01*
G37*
G36*
G01*
X92150300Y-28344800D02*
X92150300Y-28004800D01*
G75*
G02*
X92290300Y-27864800I140000J0D01*
G01*
X92570300Y-27864800D01*
G75*
G02*
X92710300Y-28004800I0J-140000D01*
G01*
X92710300Y-28344800D01*
G75*
G02*
X92570300Y-28484800I-140000J0D01*
G01*
X92290300Y-28484800D01*
G75*
G02*
X92150300Y-28344800I0J140000D01*
G01*
G37*
%TD*%
%TO.C,C88*%
G36*
G01*
X112733000Y-65997000D02*
X112733000Y-66337000D01*
G75*
G02*
X112593000Y-66477000I-140000J0D01*
G01*
X112313000Y-66477000D01*
G75*
G02*
X112173000Y-66337000I0J140000D01*
G01*
X112173000Y-65997000D01*
G75*
G02*
X112313000Y-65857000I140000J0D01*
G01*
X112593000Y-65857000D01*
G75*
G02*
X112733000Y-65997000I0J-140000D01*
G01*
G37*
G36*
G01*
X113693000Y-65997000D02*
X113693000Y-66337000D01*
G75*
G02*
X113553000Y-66477000I-140000J0D01*
G01*
X113273000Y-66477000D01*
G75*
G02*
X113133000Y-66337000I0J140000D01*
G01*
X113133000Y-65997000D01*
G75*
G02*
X113273000Y-65857000I140000J0D01*
G01*
X113553000Y-65857000D01*
G75*
G02*
X113693000Y-65997000I0J-140000D01*
G01*
G37*
%TD*%
%TO.C,C89*%
G36*
G01*
X191149000Y-65997000D02*
X191149000Y-66337000D01*
G75*
G02*
X191009000Y-66477000I-140000J0D01*
G01*
X190729000Y-66477000D01*
G75*
G02*
X190589000Y-66337000I0J140000D01*
G01*
X190589000Y-65997000D01*
G75*
G02*
X190729000Y-65857000I140000J0D01*
G01*
X191009000Y-65857000D01*
G75*
G02*
X191149000Y-65997000I0J-140000D01*
G01*
G37*
G36*
G01*
X192109000Y-65997000D02*
X192109000Y-66337000D01*
G75*
G02*
X191969000Y-66477000I-140000J0D01*
G01*
X191689000Y-66477000D01*
G75*
G02*
X191549000Y-66337000I0J140000D01*
G01*
X191549000Y-65997000D01*
G75*
G02*
X191689000Y-65857000I140000J0D01*
G01*
X191969000Y-65857000D01*
G75*
G02*
X192109000Y-65997000I0J-140000D01*
G01*
G37*
%TD*%
%TO.C,C91*%
G36*
G01*
X86594800Y-65997000D02*
X86594800Y-66337000D01*
G75*
G02*
X86454800Y-66477000I-140000J0D01*
G01*
X86174800Y-66477000D01*
G75*
G02*
X86034800Y-66337000I0J140000D01*
G01*
X86034800Y-65997000D01*
G75*
G02*
X86174800Y-65857000I140000J0D01*
G01*
X86454800Y-65857000D01*
G75*
G02*
X86594800Y-65997000I0J-140000D01*
G01*
G37*
G36*
G01*
X87554800Y-65997000D02*
X87554800Y-66337000D01*
G75*
G02*
X87414800Y-66477000I-140000J0D01*
G01*
X87134800Y-66477000D01*
G75*
G02*
X86994800Y-66337000I0J140000D01*
G01*
X86994800Y-65997000D01*
G75*
G02*
X87134800Y-65857000I140000J0D01*
G01*
X87414800Y-65857000D01*
G75*
G02*
X87554800Y-65997000I0J-140000D01*
G01*
G37*
%TD*%
%TO.C,C93*%
G36*
G01*
X98511300Y-28344800D02*
X98511300Y-28004800D01*
G75*
G02*
X98651300Y-27864800I140000J0D01*
G01*
X98931300Y-27864800D01*
G75*
G02*
X99071300Y-28004800I0J-140000D01*
G01*
X99071300Y-28344800D01*
G75*
G02*
X98931300Y-28484800I-140000J0D01*
G01*
X98651300Y-28484800D01*
G75*
G02*
X98511300Y-28344800I0J140000D01*
G01*
G37*
G36*
G01*
X97551300Y-28344800D02*
X97551300Y-28004800D01*
G75*
G02*
X97691300Y-27864800I140000J0D01*
G01*
X97971300Y-27864800D01*
G75*
G02*
X98111300Y-28004800I0J-140000D01*
G01*
X98111300Y-28344800D01*
G75*
G02*
X97971300Y-28484800I-140000J0D01*
G01*
X97691300Y-28484800D01*
G75*
G02*
X97551300Y-28344800I0J140000D01*
G01*
G37*
%TD*%
%TO.C,C96*%
G36*
G01*
X82860700Y-65997000D02*
X82860700Y-66337000D01*
G75*
G02*
X82720700Y-66477000I-140000J0D01*
G01*
X82440700Y-66477000D01*
G75*
G02*
X82300700Y-66337000I0J140000D01*
G01*
X82300700Y-65997000D01*
G75*
G02*
X82440700Y-65857000I140000J0D01*
G01*
X82720700Y-65857000D01*
G75*
G02*
X82860700Y-65997000I0J-140000D01*
G01*
G37*
G36*
G01*
X83820700Y-65997000D02*
X83820700Y-66337000D01*
G75*
G02*
X83680700Y-66477000I-140000J0D01*
G01*
X83400700Y-66477000D01*
G75*
G02*
X83260700Y-66337000I0J140000D01*
G01*
X83260700Y-65997000D01*
G75*
G02*
X83400700Y-65857000I140000J0D01*
G01*
X83680700Y-65857000D01*
G75*
G02*
X83820700Y-65997000I0J-140000D01*
G01*
G37*
%TD*%
%TO.C,C97*%
G36*
G01*
X44501900Y-28344800D02*
X44501900Y-28004800D01*
G75*
G02*
X44641900Y-27864800I140000J0D01*
G01*
X44921900Y-27864800D01*
G75*
G02*
X45061900Y-28004800I0J-140000D01*
G01*
X45061900Y-28344800D01*
G75*
G02*
X44921900Y-28484800I-140000J0D01*
G01*
X44641900Y-28484800D01*
G75*
G02*
X44501900Y-28344800I0J140000D01*
G01*
G37*
G36*
G01*
X43541900Y-28344800D02*
X43541900Y-28004800D01*
G75*
G02*
X43681900Y-27864800I140000J0D01*
G01*
X43961900Y-27864800D01*
G75*
G02*
X44101900Y-28004800I0J-140000D01*
G01*
X44101900Y-28344800D01*
G75*
G02*
X43961900Y-28484800I-140000J0D01*
G01*
X43681900Y-28484800D01*
G75*
G02*
X43541900Y-28344800I0J140000D01*
G01*
G37*
%TD*%
%TO.C,C98*%
G36*
G01*
X116467000Y-65997000D02*
X116467000Y-66337000D01*
G75*
G02*
X116327000Y-66477000I-140000J0D01*
G01*
X116047000Y-66477000D01*
G75*
G02*
X115907000Y-66337000I0J140000D01*
G01*
X115907000Y-65997000D01*
G75*
G02*
X116047000Y-65857000I140000J0D01*
G01*
X116327000Y-65857000D01*
G75*
G02*
X116467000Y-65997000I0J-140000D01*
G01*
G37*
G36*
G01*
X117427000Y-65997000D02*
X117427000Y-66337000D01*
G75*
G02*
X117287000Y-66477000I-140000J0D01*
G01*
X117007000Y-66477000D01*
G75*
G02*
X116867000Y-66337000I0J140000D01*
G01*
X116867000Y-65997000D01*
G75*
G02*
X117007000Y-65857000I140000J0D01*
G01*
X117287000Y-65857000D01*
G75*
G02*
X117427000Y-65997000I0J-140000D01*
G01*
G37*
%TD*%
%TO.C,C101*%
G36*
G01*
X333575000Y-66444800D02*
X333575000Y-66104800D01*
G75*
G02*
X333715000Y-65964800I140000J0D01*
G01*
X333995000Y-65964800D01*
G75*
G02*
X334135000Y-66104800I0J-140000D01*
G01*
X334135000Y-66444800D01*
G75*
G02*
X333995000Y-66584800I-140000J0D01*
G01*
X333715000Y-66584800D01*
G75*
G02*
X333575000Y-66444800I0J140000D01*
G01*
G37*
G36*
G01*
X332615000Y-66444800D02*
X332615000Y-66104800D01*
G75*
G02*
X332755000Y-65964800I140000J0D01*
G01*
X333035000Y-65964800D01*
G75*
G02*
X333175000Y-66104800I0J-140000D01*
G01*
X333175000Y-66444800D01*
G75*
G02*
X333035000Y-66584800I-140000J0D01*
G01*
X332755000Y-66584800D01*
G75*
G02*
X332615000Y-66444800I0J140000D01*
G01*
G37*
%TD*%
%TO.C,C23*%
G36*
G01*
X168744000Y-65997000D02*
X168744000Y-66337000D01*
G75*
G02*
X168604000Y-66477000I-140000J0D01*
G01*
X168324000Y-66477000D01*
G75*
G02*
X168184000Y-66337000I0J140000D01*
G01*
X168184000Y-65997000D01*
G75*
G02*
X168324000Y-65857000I140000J0D01*
G01*
X168604000Y-65857000D01*
G75*
G02*
X168744000Y-65997000I0J-140000D01*
G01*
G37*
G36*
G01*
X169704000Y-65997000D02*
X169704000Y-66337000D01*
G75*
G02*
X169564000Y-66477000I-140000J0D01*
G01*
X169284000Y-66477000D01*
G75*
G02*
X169144000Y-66337000I0J140000D01*
G01*
X169144000Y-65997000D01*
G75*
G02*
X169284000Y-65857000I140000J0D01*
G01*
X169564000Y-65857000D01*
G75*
G02*
X169704000Y-65997000I0J-140000D01*
G01*
G37*
%TD*%
%TO.C,C26*%
G36*
G01*
X347818000Y-66060500D02*
X347818000Y-66400500D01*
G75*
G02*
X347678000Y-66540500I-140000J0D01*
G01*
X347398000Y-66540500D01*
G75*
G02*
X347258000Y-66400500I0J140000D01*
G01*
X347258000Y-66060500D01*
G75*
G02*
X347398000Y-65920500I140000J0D01*
G01*
X347678000Y-65920500D01*
G75*
G02*
X347818000Y-66060500I0J-140000D01*
G01*
G37*
G36*
G01*
X348778000Y-66060500D02*
X348778000Y-66400500D01*
G75*
G02*
X348638000Y-66540500I-140000J0D01*
G01*
X348358000Y-66540500D01*
G75*
G02*
X348218000Y-66400500I0J140000D01*
G01*
X348218000Y-66060500D01*
G75*
G02*
X348358000Y-65920500I140000J0D01*
G01*
X348638000Y-65920500D01*
G75*
G02*
X348778000Y-66060500I0J-140000D01*
G01*
G37*
%TD*%
%TO.C,C28*%
G36*
G01*
X71658500Y-65997000D02*
X71658500Y-66337000D01*
G75*
G02*
X71518500Y-66477000I-140000J0D01*
G01*
X71238500Y-66477000D01*
G75*
G02*
X71098500Y-66337000I0J140000D01*
G01*
X71098500Y-65997000D01*
G75*
G02*
X71238500Y-65857000I140000J0D01*
G01*
X71518500Y-65857000D01*
G75*
G02*
X71658500Y-65997000I0J-140000D01*
G01*
G37*
G36*
G01*
X72618500Y-65997000D02*
X72618500Y-66337000D01*
G75*
G02*
X72478500Y-66477000I-140000J0D01*
G01*
X72198500Y-66477000D01*
G75*
G02*
X72058500Y-66337000I0J140000D01*
G01*
X72058500Y-65997000D01*
G75*
G02*
X72198500Y-65857000I140000J0D01*
G01*
X72478500Y-65857000D01*
G75*
G02*
X72618500Y-65997000I0J-140000D01*
G01*
G37*
%TD*%
%TO.C,C15*%
G36*
G01*
X172478000Y-65997000D02*
X172478000Y-66337000D01*
G75*
G02*
X172338000Y-66477000I-140000J0D01*
G01*
X172058000Y-66477000D01*
G75*
G02*
X171918000Y-66337000I0J140000D01*
G01*
X171918000Y-65997000D01*
G75*
G02*
X172058000Y-65857000I140000J0D01*
G01*
X172338000Y-65857000D01*
G75*
G02*
X172478000Y-65997000I0J-140000D01*
G01*
G37*
G36*
G01*
X173438000Y-65997000D02*
X173438000Y-66337000D01*
G75*
G02*
X173298000Y-66477000I-140000J0D01*
G01*
X173018000Y-66477000D01*
G75*
G02*
X172878000Y-66337000I0J140000D01*
G01*
X172878000Y-65997000D01*
G75*
G02*
X173018000Y-65857000I140000J0D01*
G01*
X173298000Y-65857000D01*
G75*
G02*
X173438000Y-65997000I0J-140000D01*
G01*
G37*
%TD*%
%TO.C,C21*%
G36*
G01*
X33700000Y-28344800D02*
X33700000Y-28004800D01*
G75*
G02*
X33840000Y-27864800I140000J0D01*
G01*
X34120000Y-27864800D01*
G75*
G02*
X34260000Y-28004800I0J-140000D01*
G01*
X34260000Y-28344800D01*
G75*
G02*
X34120000Y-28484800I-140000J0D01*
G01*
X33840000Y-28484800D01*
G75*
G02*
X33700000Y-28344800I0J140000D01*
G01*
G37*
G36*
G01*
X32740000Y-28344800D02*
X32740000Y-28004800D01*
G75*
G02*
X32880000Y-27864800I140000J0D01*
G01*
X33160000Y-27864800D01*
G75*
G02*
X33300000Y-28004800I0J-140000D01*
G01*
X33300000Y-28344800D01*
G75*
G02*
X33160000Y-28484800I-140000J0D01*
G01*
X32880000Y-28484800D01*
G75*
G02*
X32740000Y-28344800I0J140000D01*
G01*
G37*
%TD*%
%TO.C,C19*%
G36*
G01*
X114714000Y-28344800D02*
X114714000Y-28004800D01*
G75*
G02*
X114854000Y-27864800I140000J0D01*
G01*
X115134000Y-27864800D01*
G75*
G02*
X115274000Y-28004800I0J-140000D01*
G01*
X115274000Y-28344800D01*
G75*
G02*
X115134000Y-28484800I-140000J0D01*
G01*
X114854000Y-28484800D01*
G75*
G02*
X114714000Y-28344800I0J140000D01*
G01*
G37*
G36*
G01*
X113754000Y-28344800D02*
X113754000Y-28004800D01*
G75*
G02*
X113894000Y-27864800I140000J0D01*
G01*
X114174000Y-27864800D01*
G75*
G02*
X114314000Y-28004800I0J-140000D01*
G01*
X114314000Y-28344800D01*
G75*
G02*
X114174000Y-28484800I-140000J0D01*
G01*
X113894000Y-28484800D01*
G75*
G02*
X113754000Y-28344800I0J140000D01*
G01*
G37*
%TD*%
%TO.C,C44*%
G36*
G01*
X67924400Y-65997000D02*
X67924400Y-66337000D01*
G75*
G02*
X67784400Y-66477000I-140000J0D01*
G01*
X67504400Y-66477000D01*
G75*
G02*
X67364400Y-66337000I0J140000D01*
G01*
X67364400Y-65997000D01*
G75*
G02*
X67504400Y-65857000I140000J0D01*
G01*
X67784400Y-65857000D01*
G75*
G02*
X67924400Y-65997000I0J-140000D01*
G01*
G37*
G36*
G01*
X68884400Y-65997000D02*
X68884400Y-66337000D01*
G75*
G02*
X68744400Y-66477000I-140000J0D01*
G01*
X68464400Y-66477000D01*
G75*
G02*
X68324400Y-66337000I0J140000D01*
G01*
X68324400Y-65997000D01*
G75*
G02*
X68464400Y-65857000I140000J0D01*
G01*
X68744400Y-65857000D01*
G75*
G02*
X68884400Y-65997000I0J-140000D01*
G01*
G37*
%TD*%
%TO.C,C38*%
G36*
G01*
X60456300Y-65997000D02*
X60456300Y-66337000D01*
G75*
G02*
X60316300Y-66477000I-140000J0D01*
G01*
X60036300Y-66477000D01*
G75*
G02*
X59896300Y-66337000I0J140000D01*
G01*
X59896300Y-65997000D01*
G75*
G02*
X60036300Y-65857000I140000J0D01*
G01*
X60316300Y-65857000D01*
G75*
G02*
X60456300Y-65997000I0J-140000D01*
G01*
G37*
G36*
G01*
X61416300Y-65997000D02*
X61416300Y-66337000D01*
G75*
G02*
X61276300Y-66477000I-140000J0D01*
G01*
X60996300Y-66477000D01*
G75*
G02*
X60856300Y-66337000I0J140000D01*
G01*
X60856300Y-65997000D01*
G75*
G02*
X60996300Y-65857000I140000J0D01*
G01*
X61276300Y-65857000D01*
G75*
G02*
X61416300Y-65997000I0J-140000D01*
G01*
G37*
%TD*%
%TO.C,C52*%
G36*
G01*
X198617000Y-65997000D02*
X198617000Y-66337000D01*
G75*
G02*
X198477000Y-66477000I-140000J0D01*
G01*
X198197000Y-66477000D01*
G75*
G02*
X198057000Y-66337000I0J140000D01*
G01*
X198057000Y-65997000D01*
G75*
G02*
X198197000Y-65857000I140000J0D01*
G01*
X198477000Y-65857000D01*
G75*
G02*
X198617000Y-65997000I0J-140000D01*
G01*
G37*
G36*
G01*
X199577000Y-65997000D02*
X199577000Y-66337000D01*
G75*
G02*
X199437000Y-66477000I-140000J0D01*
G01*
X199157000Y-66477000D01*
G75*
G02*
X199017000Y-66337000I0J140000D01*
G01*
X199017000Y-65997000D01*
G75*
G02*
X199157000Y-65857000I140000J0D01*
G01*
X199437000Y-65857000D01*
G75*
G02*
X199577000Y-65997000I0J-140000D01*
G01*
G37*
%TD*%
%TO.C,C34*%
G36*
G01*
X136318000Y-28344800D02*
X136318000Y-28004800D01*
G75*
G02*
X136458000Y-27864800I140000J0D01*
G01*
X136738000Y-27864800D01*
G75*
G02*
X136878000Y-28004800I0J-140000D01*
G01*
X136878000Y-28344800D01*
G75*
G02*
X136738000Y-28484800I-140000J0D01*
G01*
X136458000Y-28484800D01*
G75*
G02*
X136318000Y-28344800I0J140000D01*
G01*
G37*
G36*
G01*
X135358000Y-28344800D02*
X135358000Y-28004800D01*
G75*
G02*
X135498000Y-27864800I140000J0D01*
G01*
X135778000Y-27864800D01*
G75*
G02*
X135918000Y-28004800I0J-140000D01*
G01*
X135918000Y-28344800D01*
G75*
G02*
X135778000Y-28484800I-140000J0D01*
G01*
X135498000Y-28484800D01*
G75*
G02*
X135358000Y-28344800I0J140000D01*
G01*
G37*
%TD*%
%TO.C,C43*%
G36*
G01*
X138872000Y-65997000D02*
X138872000Y-66337000D01*
G75*
G02*
X138732000Y-66477000I-140000J0D01*
G01*
X138452000Y-66477000D01*
G75*
G02*
X138312000Y-66337000I0J140000D01*
G01*
X138312000Y-65997000D01*
G75*
G02*
X138452000Y-65857000I140000J0D01*
G01*
X138732000Y-65857000D01*
G75*
G02*
X138872000Y-65997000I0J-140000D01*
G01*
G37*
G36*
G01*
X139832000Y-65997000D02*
X139832000Y-66337000D01*
G75*
G02*
X139692000Y-66477000I-140000J0D01*
G01*
X139412000Y-66477000D01*
G75*
G02*
X139272000Y-66337000I0J140000D01*
G01*
X139272000Y-65997000D01*
G75*
G02*
X139412000Y-65857000I140000J0D01*
G01*
X139692000Y-65857000D01*
G75*
G02*
X139832000Y-65997000I0J-140000D01*
G01*
G37*
%TD*%
%TO.C,C53*%
G36*
G01*
X130917000Y-28344800D02*
X130917000Y-28004800D01*
G75*
G02*
X131057000Y-27864800I140000J0D01*
G01*
X131337000Y-27864800D01*
G75*
G02*
X131477000Y-28004800I0J-140000D01*
G01*
X131477000Y-28344800D01*
G75*
G02*
X131337000Y-28484800I-140000J0D01*
G01*
X131057000Y-28484800D01*
G75*
G02*
X130917000Y-28344800I0J140000D01*
G01*
G37*
G36*
G01*
X129957000Y-28344800D02*
X129957000Y-28004800D01*
G75*
G02*
X130097000Y-27864800I140000J0D01*
G01*
X130377000Y-27864800D01*
G75*
G02*
X130517000Y-28004800I0J-140000D01*
G01*
X130517000Y-28344800D01*
G75*
G02*
X130377000Y-28484800I-140000J0D01*
G01*
X130097000Y-28484800D01*
G75*
G02*
X129957000Y-28344800I0J140000D01*
G01*
G37*
%TD*%
%TO.C,C59*%
G36*
G01*
X120115000Y-28344800D02*
X120115000Y-28004800D01*
G75*
G02*
X120255000Y-27864800I140000J0D01*
G01*
X120535000Y-27864800D01*
G75*
G02*
X120675000Y-28004800I0J-140000D01*
G01*
X120675000Y-28344800D01*
G75*
G02*
X120535000Y-28484800I-140000J0D01*
G01*
X120255000Y-28484800D01*
G75*
G02*
X120115000Y-28344800I0J140000D01*
G01*
G37*
G36*
G01*
X119155000Y-28344800D02*
X119155000Y-28004800D01*
G75*
G02*
X119295000Y-27864800I140000J0D01*
G01*
X119575000Y-27864800D01*
G75*
G02*
X119715000Y-28004800I0J-140000D01*
G01*
X119715000Y-28344800D01*
G75*
G02*
X119575000Y-28484800I-140000J0D01*
G01*
X119295000Y-28484800D01*
G75*
G02*
X119155000Y-28344800I0J140000D01*
G01*
G37*
%TD*%
%TO.C,C78*%
G36*
G01*
X329765000Y-66444800D02*
X329765000Y-66104800D01*
G75*
G02*
X329905000Y-65964800I140000J0D01*
G01*
X330185000Y-65964800D01*
G75*
G02*
X330325000Y-66104800I0J-140000D01*
G01*
X330325000Y-66444800D01*
G75*
G02*
X330185000Y-66584800I-140000J0D01*
G01*
X329905000Y-66584800D01*
G75*
G02*
X329765000Y-66444800I0J140000D01*
G01*
G37*
G36*
G01*
X328805000Y-66444800D02*
X328805000Y-66104800D01*
G75*
G02*
X328945000Y-65964800I140000J0D01*
G01*
X329225000Y-65964800D01*
G75*
G02*
X329365000Y-66104800I0J-140000D01*
G01*
X329365000Y-66444800D01*
G75*
G02*
X329225000Y-66584800I-140000J0D01*
G01*
X328945000Y-66584800D01*
G75*
G02*
X328805000Y-66444800I0J140000D01*
G01*
G37*
%TD*%
%TO.C,C86*%
G36*
G01*
X75392600Y-65997000D02*
X75392600Y-66337000D01*
G75*
G02*
X75252600Y-66477000I-140000J0D01*
G01*
X74972600Y-66477000D01*
G75*
G02*
X74832600Y-66337000I0J140000D01*
G01*
X74832600Y-65997000D01*
G75*
G02*
X74972600Y-65857000I140000J0D01*
G01*
X75252600Y-65857000D01*
G75*
G02*
X75392600Y-65997000I0J-140000D01*
G01*
G37*
G36*
G01*
X76352600Y-65997000D02*
X76352600Y-66337000D01*
G75*
G02*
X76212600Y-66477000I-140000J0D01*
G01*
X75932600Y-66477000D01*
G75*
G02*
X75792600Y-66337000I0J140000D01*
G01*
X75792600Y-65997000D01*
G75*
G02*
X75932600Y-65857000I140000J0D01*
G01*
X76212600Y-65857000D01*
G75*
G02*
X76352600Y-65997000I0J-140000D01*
G01*
G37*
%TD*%
%TO.C,C92*%
G36*
G01*
X222733000Y-28344800D02*
X222733000Y-28004800D01*
G75*
G02*
X222873000Y-27864800I140000J0D01*
G01*
X223153000Y-27864800D01*
G75*
G02*
X223293000Y-28004800I0J-140000D01*
G01*
X223293000Y-28344800D01*
G75*
G02*
X223153000Y-28484800I-140000J0D01*
G01*
X222873000Y-28484800D01*
G75*
G02*
X222733000Y-28344800I0J140000D01*
G01*
G37*
G36*
G01*
X221773000Y-28344800D02*
X221773000Y-28004800D01*
G75*
G02*
X221913000Y-27864800I140000J0D01*
G01*
X222193000Y-27864800D01*
G75*
G02*
X222333000Y-28004800I0J-140000D01*
G01*
X222333000Y-28344800D01*
G75*
G02*
X222193000Y-28484800I-140000J0D01*
G01*
X221913000Y-28484800D01*
G75*
G02*
X221773000Y-28344800I0J140000D01*
G01*
G37*
%TD*%
%TO.C,C99*%
G36*
G01*
X206085000Y-65997000D02*
X206085000Y-66337000D01*
G75*
G02*
X205945000Y-66477000I-140000J0D01*
G01*
X205665000Y-66477000D01*
G75*
G02*
X205525000Y-66337000I0J140000D01*
G01*
X205525000Y-65997000D01*
G75*
G02*
X205665000Y-65857000I140000J0D01*
G01*
X205945000Y-65857000D01*
G75*
G02*
X206085000Y-65997000I0J-140000D01*
G01*
G37*
G36*
G01*
X207045000Y-65997000D02*
X207045000Y-66337000D01*
G75*
G02*
X206905000Y-66477000I-140000J0D01*
G01*
X206625000Y-66477000D01*
G75*
G02*
X206485000Y-66337000I0J140000D01*
G01*
X206485000Y-65997000D01*
G75*
G02*
X206625000Y-65857000I140000J0D01*
G01*
X206905000Y-65857000D01*
G75*
G02*
X207045000Y-65997000I0J-140000D01*
G01*
G37*
%TD*%
%TO.C,C87*%
G36*
G01*
X109313000Y-28344800D02*
X109313000Y-28004800D01*
G75*
G02*
X109453000Y-27864800I140000J0D01*
G01*
X109733000Y-27864800D01*
G75*
G02*
X109873000Y-28004800I0J-140000D01*
G01*
X109873000Y-28344800D01*
G75*
G02*
X109733000Y-28484800I-140000J0D01*
G01*
X109453000Y-28484800D01*
G75*
G02*
X109313000Y-28344800I0J140000D01*
G01*
G37*
G36*
G01*
X108353000Y-28344800D02*
X108353000Y-28004800D01*
G75*
G02*
X108493000Y-27864800I140000J0D01*
G01*
X108773000Y-27864800D01*
G75*
G02*
X108913000Y-28004800I0J-140000D01*
G01*
X108913000Y-28344800D01*
G75*
G02*
X108773000Y-28484800I-140000J0D01*
G01*
X108493000Y-28484800D01*
G75*
G02*
X108353000Y-28344800I0J140000D01*
G01*
G37*
%TD*%
%TO.C,C76*%
G36*
G01*
X56722200Y-65997000D02*
X56722200Y-66337000D01*
G75*
G02*
X56582200Y-66477000I-140000J0D01*
G01*
X56302200Y-66477000D01*
G75*
G02*
X56162200Y-66337000I0J140000D01*
G01*
X56162200Y-65997000D01*
G75*
G02*
X56302200Y-65857000I140000J0D01*
G01*
X56582200Y-65857000D01*
G75*
G02*
X56722200Y-65997000I0J-140000D01*
G01*
G37*
G36*
G01*
X57682200Y-65997000D02*
X57682200Y-66337000D01*
G75*
G02*
X57542200Y-66477000I-140000J0D01*
G01*
X57262200Y-66477000D01*
G75*
G02*
X57122200Y-66337000I0J140000D01*
G01*
X57122200Y-65997000D01*
G75*
G02*
X57262200Y-65857000I140000J0D01*
G01*
X57542200Y-65857000D01*
G75*
G02*
X57682200Y-65997000I0J-140000D01*
G01*
G37*
%TD*%
%TO.C,C94*%
G36*
G01*
X64190300Y-65997000D02*
X64190300Y-66337000D01*
G75*
G02*
X64050300Y-66477000I-140000J0D01*
G01*
X63770300Y-66477000D01*
G75*
G02*
X63630300Y-66337000I0J140000D01*
G01*
X63630300Y-65997000D01*
G75*
G02*
X63770300Y-65857000I140000J0D01*
G01*
X64050300Y-65857000D01*
G75*
G02*
X64190300Y-65997000I0J-140000D01*
G01*
G37*
G36*
G01*
X65150300Y-65997000D02*
X65150300Y-66337000D01*
G75*
G02*
X65010300Y-66477000I-140000J0D01*
G01*
X64730300Y-66477000D01*
G75*
G02*
X64590300Y-66337000I0J140000D01*
G01*
X64590300Y-65997000D01*
G75*
G02*
X64730300Y-65857000I140000J0D01*
G01*
X65010300Y-65857000D01*
G75*
G02*
X65150300Y-65997000I0J-140000D01*
G01*
G37*
%TD*%
%TO.C,C77*%
G36*
G01*
X52988100Y-65997000D02*
X52988100Y-66337000D01*
G75*
G02*
X52848100Y-66477000I-140000J0D01*
G01*
X52568100Y-66477000D01*
G75*
G02*
X52428100Y-66337000I0J140000D01*
G01*
X52428100Y-65997000D01*
G75*
G02*
X52568100Y-65857000I140000J0D01*
G01*
X52848100Y-65857000D01*
G75*
G02*
X52988100Y-65997000I0J-140000D01*
G01*
G37*
G36*
G01*
X53948100Y-65997000D02*
X53948100Y-66337000D01*
G75*
G02*
X53808100Y-66477000I-140000J0D01*
G01*
X53528100Y-66477000D01*
G75*
G02*
X53388100Y-66337000I0J140000D01*
G01*
X53388100Y-65997000D01*
G75*
G02*
X53528100Y-65857000I140000J0D01*
G01*
X53808100Y-65857000D01*
G75*
G02*
X53948100Y-65997000I0J-140000D01*
G01*
G37*
%TD*%
%TO.C,C69*%
G36*
G01*
X120201000Y-65997000D02*
X120201000Y-66337000D01*
G75*
G02*
X120061000Y-66477000I-140000J0D01*
G01*
X119781000Y-66477000D01*
G75*
G02*
X119641000Y-66337000I0J140000D01*
G01*
X119641000Y-65997000D01*
G75*
G02*
X119781000Y-65857000I140000J0D01*
G01*
X120061000Y-65857000D01*
G75*
G02*
X120201000Y-65997000I0J-140000D01*
G01*
G37*
G36*
G01*
X121161000Y-65997000D02*
X121161000Y-66337000D01*
G75*
G02*
X121021000Y-66477000I-140000J0D01*
G01*
X120741000Y-66477000D01*
G75*
G02*
X120601000Y-66337000I0J140000D01*
G01*
X120601000Y-65997000D01*
G75*
G02*
X120741000Y-65857000I140000J0D01*
G01*
X121021000Y-65857000D01*
G75*
G02*
X121161000Y-65997000I0J-140000D01*
G01*
G37*
%TD*%
%TO.C,C68*%
G36*
G01*
X79126600Y-65997000D02*
X79126600Y-66337000D01*
G75*
G02*
X78986600Y-66477000I-140000J0D01*
G01*
X78706600Y-66477000D01*
G75*
G02*
X78566600Y-66337000I0J140000D01*
G01*
X78566600Y-65997000D01*
G75*
G02*
X78706600Y-65857000I140000J0D01*
G01*
X78986600Y-65857000D01*
G75*
G02*
X79126600Y-65997000I0J-140000D01*
G01*
G37*
G36*
G01*
X80086600Y-65997000D02*
X80086600Y-66337000D01*
G75*
G02*
X79946600Y-66477000I-140000J0D01*
G01*
X79666600Y-66477000D01*
G75*
G02*
X79526600Y-66337000I0J140000D01*
G01*
X79526600Y-65997000D01*
G75*
G02*
X79666600Y-65857000I140000J0D01*
G01*
X79946600Y-65857000D01*
G75*
G02*
X80086600Y-65997000I0J-140000D01*
G01*
G37*
%TD*%
%TO.C,C72*%
G36*
G01*
X354553000Y-66060500D02*
X354553000Y-66400500D01*
G75*
G02*
X354413000Y-66540500I-140000J0D01*
G01*
X354133000Y-66540500D01*
G75*
G02*
X353993000Y-66400500I0J140000D01*
G01*
X353993000Y-66060500D01*
G75*
G02*
X354133000Y-65920500I140000J0D01*
G01*
X354413000Y-65920500D01*
G75*
G02*
X354553000Y-66060500I0J-140000D01*
G01*
G37*
G36*
G01*
X355513000Y-66060500D02*
X355513000Y-66400500D01*
G75*
G02*
X355373000Y-66540500I-140000J0D01*
G01*
X355093000Y-66540500D01*
G75*
G02*
X354953000Y-66400500I0J140000D01*
G01*
X354953000Y-66060500D01*
G75*
G02*
X355093000Y-65920500I140000J0D01*
G01*
X355373000Y-65920500D01*
G75*
G02*
X355513000Y-66060500I0J-140000D01*
G01*
G37*
%TD*%
%TO.C,C4*%
G36*
G01*
X165010000Y-65997000D02*
X165010000Y-66337000D01*
G75*
G02*
X164870000Y-66477000I-140000J0D01*
G01*
X164590000Y-66477000D01*
G75*
G02*
X164450000Y-66337000I0J140000D01*
G01*
X164450000Y-65997000D01*
G75*
G02*
X164590000Y-65857000I140000J0D01*
G01*
X164870000Y-65857000D01*
G75*
G02*
X165010000Y-65997000I0J-140000D01*
G01*
G37*
G36*
G01*
X165970000Y-65997000D02*
X165970000Y-66337000D01*
G75*
G02*
X165830000Y-66477000I-140000J0D01*
G01*
X165550000Y-66477000D01*
G75*
G02*
X165410000Y-66337000I0J140000D01*
G01*
X165410000Y-65997000D01*
G75*
G02*
X165550000Y-65857000I140000J0D01*
G01*
X165830000Y-65857000D01*
G75*
G02*
X165970000Y-65997000I0J-140000D01*
G01*
G37*
%TD*%
%TO.C,C7*%
G36*
G01*
X161276000Y-65997000D02*
X161276000Y-66337000D01*
G75*
G02*
X161136000Y-66477000I-140000J0D01*
G01*
X160856000Y-66477000D01*
G75*
G02*
X160716000Y-66337000I0J140000D01*
G01*
X160716000Y-65997000D01*
G75*
G02*
X160856000Y-65857000I140000J0D01*
G01*
X161136000Y-65857000D01*
G75*
G02*
X161276000Y-65997000I0J-140000D01*
G01*
G37*
G36*
G01*
X162236000Y-65997000D02*
X162236000Y-66337000D01*
G75*
G02*
X162096000Y-66477000I-140000J0D01*
G01*
X161816000Y-66477000D01*
G75*
G02*
X161676000Y-66337000I0J140000D01*
G01*
X161676000Y-65997000D01*
G75*
G02*
X161816000Y-65857000I140000J0D01*
G01*
X162096000Y-65857000D01*
G75*
G02*
X162236000Y-65997000I0J-140000D01*
G01*
G37*
%TD*%
%TO.C,C10*%
G36*
G01*
X141719000Y-28344800D02*
X141719000Y-28004800D01*
G75*
G02*
X141859000Y-27864800I140000J0D01*
G01*
X142139000Y-27864800D01*
G75*
G02*
X142279000Y-28004800I0J-140000D01*
G01*
X142279000Y-28344800D01*
G75*
G02*
X142139000Y-28484800I-140000J0D01*
G01*
X141859000Y-28484800D01*
G75*
G02*
X141719000Y-28344800I0J140000D01*
G01*
G37*
G36*
G01*
X140759000Y-28344800D02*
X140759000Y-28004800D01*
G75*
G02*
X140899000Y-27864800I140000J0D01*
G01*
X141179000Y-27864800D01*
G75*
G02*
X141319000Y-28004800I0J-140000D01*
G01*
X141319000Y-28344800D01*
G75*
G02*
X141179000Y-28484800I-140000J0D01*
G01*
X140899000Y-28484800D01*
G75*
G02*
X140759000Y-28344800I0J140000D01*
G01*
G37*
%TD*%
%TO.C,C14*%
G36*
G01*
X361289000Y-66060500D02*
X361289000Y-66400500D01*
G75*
G02*
X361149000Y-66540500I-140000J0D01*
G01*
X360869000Y-66540500D01*
G75*
G02*
X360729000Y-66400500I0J140000D01*
G01*
X360729000Y-66060500D01*
G75*
G02*
X360869000Y-65920500I140000J0D01*
G01*
X361149000Y-65920500D01*
G75*
G02*
X361289000Y-66060500I0J-140000D01*
G01*
G37*
G36*
G01*
X362249000Y-66060500D02*
X362249000Y-66400500D01*
G75*
G02*
X362109000Y-66540500I-140000J0D01*
G01*
X361829000Y-66540500D01*
G75*
G02*
X361689000Y-66400500I0J140000D01*
G01*
X361689000Y-66060500D01*
G75*
G02*
X361829000Y-65920500I140000J0D01*
G01*
X362109000Y-65920500D01*
G75*
G02*
X362249000Y-66060500I0J-140000D01*
G01*
G37*
%TD*%
%TO.C,C2*%
G36*
G01*
X49254100Y-65997000D02*
X49254100Y-66337000D01*
G75*
G02*
X49114100Y-66477000I-140000J0D01*
G01*
X48834100Y-66477000D01*
G75*
G02*
X48694100Y-66337000I0J140000D01*
G01*
X48694100Y-65997000D01*
G75*
G02*
X48834100Y-65857000I140000J0D01*
G01*
X49114100Y-65857000D01*
G75*
G02*
X49254100Y-65997000I0J-140000D01*
G01*
G37*
G36*
G01*
X50214100Y-65997000D02*
X50214100Y-66337000D01*
G75*
G02*
X50074100Y-66477000I-140000J0D01*
G01*
X49794100Y-66477000D01*
G75*
G02*
X49654100Y-66337000I0J140000D01*
G01*
X49654100Y-65997000D01*
G75*
G02*
X49794100Y-65857000I140000J0D01*
G01*
X50074100Y-65857000D01*
G75*
G02*
X50214100Y-65997000I0J-140000D01*
G01*
G37*
%TD*%
%TO.C,C12*%
G36*
G01*
X157542000Y-65997000D02*
X157542000Y-66337000D01*
G75*
G02*
X157402000Y-66477000I-140000J0D01*
G01*
X157122000Y-66477000D01*
G75*
G02*
X156982000Y-66337000I0J140000D01*
G01*
X156982000Y-65997000D01*
G75*
G02*
X157122000Y-65857000I140000J0D01*
G01*
X157402000Y-65857000D01*
G75*
G02*
X157542000Y-65997000I0J-140000D01*
G01*
G37*
G36*
G01*
X158502000Y-65997000D02*
X158502000Y-66337000D01*
G75*
G02*
X158362000Y-66477000I-140000J0D01*
G01*
X158082000Y-66477000D01*
G75*
G02*
X157942000Y-66337000I0J140000D01*
G01*
X157942000Y-65997000D01*
G75*
G02*
X158082000Y-65857000I140000J0D01*
G01*
X158362000Y-65857000D01*
G75*
G02*
X158502000Y-65997000I0J-140000D01*
G01*
G37*
%TD*%
%TO.C,C1*%
G36*
G01*
X147120000Y-28344800D02*
X147120000Y-28004800D01*
G75*
G02*
X147260000Y-27864800I140000J0D01*
G01*
X147540000Y-27864800D01*
G75*
G02*
X147680000Y-28004800I0J-140000D01*
G01*
X147680000Y-28344800D01*
G75*
G02*
X147540000Y-28484800I-140000J0D01*
G01*
X147260000Y-28484800D01*
G75*
G02*
X147120000Y-28344800I0J140000D01*
G01*
G37*
G36*
G01*
X146160000Y-28344800D02*
X146160000Y-28004800D01*
G75*
G02*
X146300000Y-27864800I140000J0D01*
G01*
X146580000Y-27864800D01*
G75*
G02*
X146720000Y-28004800I0J-140000D01*
G01*
X146720000Y-28344800D01*
G75*
G02*
X146580000Y-28484800I-140000J0D01*
G01*
X146300000Y-28484800D01*
G75*
G02*
X146160000Y-28344800I0J140000D01*
G01*
G37*
%TD*%
M02*
