%TF.GenerationSoftware,KiCad,Pcbnew,(5.1.10)-1*%
%TF.CreationDate,2021-12-12T17:38:06-08:00*%
%TF.ProjectId,chgray-keyboard,63686772-6179-42d6-9b65-79626f617264,Yeet2*%
%TF.SameCoordinates,Original*%
%TF.FileFunction,Other,User*%
%FSLAX46Y46*%
G04 Gerber Fmt 4.6, Leading zero omitted, Abs format (unit mm)*
G04 Created by KiCad (PCBNEW (5.1.10)-1) date 2021-12-12 17:38:06*
%MOMM*%
%LPD*%
G01*
G04 APERTURE LIST*
%ADD10C,0.050000*%
%ADD11C,0.120000*%
G04 APERTURE END LIST*
D10*
%TO.C,J1*%
X321078000Y-76749500D02*
X317478000Y-76749500D01*
X321078000Y-98099500D02*
X321078000Y-76749500D01*
X317478000Y-98099500D02*
X321078000Y-98099500D01*
X317478000Y-76749500D02*
X317478000Y-98099500D01*
%TO.C,Y1*%
X316234000Y-63560500D02*
X321434000Y-63560500D01*
X321434000Y-63560500D02*
X321434000Y-49960500D01*
X321434000Y-49960500D02*
X316234000Y-49960500D01*
X316234000Y-49960500D02*
X316234000Y-63560500D01*
%TO.C,U1*%
X323462000Y-24201000D02*
X315222000Y-24201000D01*
X323462000Y-32441000D02*
X323462000Y-24201000D01*
X315222000Y-32441000D02*
X323462000Y-32441000D01*
X315222000Y-24201000D02*
X315222000Y-32441000D01*
%TO.C,J2*%
X325492000Y-8481000D02*
X325492000Y-11981000D01*
X325492000Y-11981000D02*
X313692000Y-11981000D01*
X313692000Y-11981000D02*
X313692000Y-8481000D01*
X315242000Y-1231000D02*
X323942000Y-1231000D01*
X323942000Y-1231000D02*
X323942000Y-2981000D01*
X315242000Y-2981000D02*
X315242000Y-1231000D01*
X323942000Y-6481000D02*
X323942000Y-8481000D01*
X315242000Y-8481000D02*
X315242000Y-6481000D01*
X313692000Y-2981000D02*
X315242000Y-2981000D01*
X315242000Y-6481000D02*
X313692000Y-6481000D01*
X313692000Y-8481000D02*
X315242000Y-8481000D01*
X313692000Y-6481000D02*
X313692000Y-2981000D01*
X323942000Y-2981000D02*
X325482000Y-2981000D01*
X325492000Y-6481000D02*
X323942000Y-6481000D01*
X323942000Y-8481000D02*
X325492000Y-8481000D01*
X325482000Y-2981000D02*
X325492000Y-6481000D01*
%TO.C,D94*%
X223021000Y-45840000D02*
X223021000Y-48140000D01*
X227421000Y-48140000D02*
X223021000Y-48140000D01*
X227421000Y-45840000D02*
X227421000Y-48140000D01*
X223021000Y-45840000D02*
X227421000Y-45840000D01*
%TO.C,D93*%
X363804000Y-46157500D02*
X363804000Y-48457500D01*
X368204000Y-48457500D02*
X363804000Y-48457500D01*
X368204000Y-46157500D02*
X368204000Y-48457500D01*
X363804000Y-46157500D02*
X368204000Y-46157500D01*
%TO.C,D92*%
X341232000Y-103244000D02*
X341232000Y-105544000D01*
X345632000Y-105544000D02*
X341232000Y-105544000D01*
X345632000Y-103244000D02*
X345632000Y-105544000D01*
X341232000Y-103244000D02*
X345632000Y-103244000D01*
%TO.C,D91*%
X351432000Y-103244000D02*
X351432000Y-105544000D01*
X355832000Y-105544000D02*
X351432000Y-105544000D01*
X355832000Y-103244000D02*
X355832000Y-105544000D01*
X351432000Y-103244000D02*
X355832000Y-103244000D01*
%TO.C,D90*%
X38440000Y-45840000D02*
X38440000Y-48140000D01*
X42840000Y-48140000D02*
X38440000Y-48140000D01*
X42840000Y-45840000D02*
X42840000Y-48140000D01*
X38440000Y-45840000D02*
X42840000Y-45840000D01*
%TO.C,D89*%
X75356100Y-45840000D02*
X75356100Y-48140000D01*
X79756100Y-48140000D02*
X75356100Y-48140000D01*
X79756100Y-45840000D02*
X79756100Y-48140000D01*
X75356100Y-45840000D02*
X79756100Y-45840000D01*
%TO.C,D88*%
X346332000Y-103244000D02*
X346332000Y-105544000D01*
X350732000Y-105544000D02*
X346332000Y-105544000D01*
X350732000Y-103244000D02*
X350732000Y-105544000D01*
X346332000Y-103244000D02*
X350732000Y-103244000D01*
%TO.C,D87*%
X336983000Y-84321000D02*
X336983000Y-86621000D01*
X341383000Y-86621000D02*
X336983000Y-86621000D01*
X341383000Y-84321000D02*
X341383000Y-86621000D01*
X336983000Y-84321000D02*
X341383000Y-84321000D01*
%TO.C,D86*%
X60589700Y-45840000D02*
X60589700Y-48140000D01*
X64989700Y-48140000D02*
X60589700Y-48140000D01*
X64989700Y-45840000D02*
X64989700Y-48140000D01*
X60589700Y-45840000D02*
X64989700Y-45840000D01*
%TO.C,D85*%
X215637000Y-45840000D02*
X215637000Y-48140000D01*
X220037000Y-48140000D02*
X215637000Y-48140000D01*
X220037000Y-45840000D02*
X220037000Y-48140000D01*
X215637000Y-45840000D02*
X220037000Y-45840000D01*
%TO.C,D84*%
X348506000Y-46157500D02*
X348506000Y-48457500D01*
X352906000Y-48457500D02*
X348506000Y-48457500D01*
X352906000Y-46157500D02*
X352906000Y-48457500D01*
X348506000Y-46157500D02*
X352906000Y-46157500D01*
%TO.C,D83*%
X245170000Y-45840000D02*
X245170000Y-48140000D01*
X249570000Y-48140000D02*
X245170000Y-48140000D01*
X249570000Y-45840000D02*
X249570000Y-48140000D01*
X245170000Y-45840000D02*
X249570000Y-45840000D01*
%TO.C,D82*%
X353605000Y-46157500D02*
X353605000Y-48457500D01*
X358005000Y-48457500D02*
X353605000Y-48457500D01*
X358005000Y-46157500D02*
X358005000Y-48457500D01*
X353605000Y-46157500D02*
X358005000Y-46157500D01*
%TO.C,D81*%
X333207000Y-46157500D02*
X333207000Y-48457500D01*
X337607000Y-48457500D02*
X333207000Y-48457500D01*
X337607000Y-46157500D02*
X337607000Y-48457500D01*
X333207000Y-46157500D02*
X337607000Y-46157500D01*
%TO.C,D80*%
X266342000Y-65080500D02*
X266342000Y-67380500D01*
X270742000Y-67380500D02*
X266342000Y-67380500D01*
X270742000Y-65080500D02*
X270742000Y-67380500D01*
X266342000Y-65080500D02*
X270742000Y-65080500D01*
%TO.C,D79*%
X230404000Y-45840000D02*
X230404000Y-48140000D01*
X234804000Y-48140000D02*
X230404000Y-48140000D01*
X234804000Y-45840000D02*
X234804000Y-48140000D01*
X230404000Y-45840000D02*
X234804000Y-45840000D01*
%TO.C,D78*%
X178721000Y-45840000D02*
X178721000Y-48140000D01*
X183121000Y-48140000D02*
X178721000Y-48140000D01*
X183121000Y-45840000D02*
X183121000Y-48140000D01*
X178721000Y-45840000D02*
X183121000Y-45840000D01*
%TO.C,D77*%
X261473000Y-65080500D02*
X261473000Y-67380500D01*
X265873000Y-67380500D02*
X261473000Y-67380500D01*
X265873000Y-65080500D02*
X265873000Y-67380500D01*
X261473000Y-65080500D02*
X265873000Y-65080500D01*
%TO.C,D76*%
X252554000Y-45840000D02*
X252554000Y-48140000D01*
X256954000Y-48140000D02*
X252554000Y-48140000D01*
X256954000Y-45840000D02*
X256954000Y-48140000D01*
X252554000Y-45840000D02*
X256954000Y-45840000D01*
%TO.C,D75*%
X222526000Y-65080500D02*
X222526000Y-67380500D01*
X226926000Y-67380500D02*
X222526000Y-67380500D01*
X226926000Y-65080500D02*
X226926000Y-67380500D01*
X222526000Y-65080500D02*
X226926000Y-65080500D01*
%TO.C,D74*%
X331883000Y-84321000D02*
X331883000Y-86621000D01*
X336283000Y-86621000D02*
X331883000Y-86621000D01*
X336283000Y-84321000D02*
X336283000Y-86621000D01*
X331883000Y-84321000D02*
X336283000Y-84321000D01*
%TO.C,D73*%
X246868000Y-65080500D02*
X246868000Y-67380500D01*
X251268000Y-67380500D02*
X246868000Y-67380500D01*
X251268000Y-65080500D02*
X251268000Y-67380500D01*
X246868000Y-65080500D02*
X251268000Y-65080500D01*
%TO.C,D72*%
X338307000Y-46157500D02*
X338307000Y-48457500D01*
X342707000Y-48457500D02*
X338307000Y-48457500D01*
X342707000Y-46157500D02*
X342707000Y-48457500D01*
X338307000Y-46157500D02*
X342707000Y-46157500D01*
%TO.C,D71*%
X264500000Y-84257500D02*
X264500000Y-86557500D01*
X268900000Y-86557500D02*
X264500000Y-86557500D01*
X268900000Y-84257500D02*
X268900000Y-86557500D01*
X264500000Y-84257500D02*
X268900000Y-84257500D01*
%TO.C,D70*%
X156572000Y-45840000D02*
X156572000Y-48140000D01*
X160972000Y-48140000D02*
X156572000Y-48140000D01*
X160972000Y-45840000D02*
X160972000Y-48140000D01*
X156572000Y-45840000D02*
X160972000Y-45840000D01*
%TO.C,D69*%
X267320000Y-45840000D02*
X267320000Y-48140000D01*
X271720000Y-48140000D02*
X267320000Y-48140000D01*
X271720000Y-45840000D02*
X271720000Y-48140000D01*
X267320000Y-45840000D02*
X271720000Y-45840000D01*
%TO.C,D68*%
X112272000Y-45840000D02*
X112272000Y-48140000D01*
X116672000Y-48140000D02*
X112272000Y-48140000D01*
X116672000Y-45840000D02*
X116672000Y-48140000D01*
X112272000Y-45840000D02*
X116672000Y-45840000D01*
%TO.C,D67*%
X232682000Y-84257500D02*
X232682000Y-86557500D01*
X237082000Y-86557500D02*
X232682000Y-86557500D01*
X237082000Y-84257500D02*
X237082000Y-86557500D01*
X232682000Y-84257500D02*
X237082000Y-84257500D01*
%TO.C,D66*%
X243358000Y-84257500D02*
X243358000Y-86557500D01*
X247758000Y-86557500D02*
X243358000Y-86557500D01*
X247758000Y-84257500D02*
X247758000Y-86557500D01*
X243358000Y-84257500D02*
X247758000Y-84257500D01*
%TO.C,D65*%
X248696000Y-84257500D02*
X248696000Y-86557500D01*
X253096000Y-86557500D02*
X248696000Y-86557500D01*
X253096000Y-84257500D02*
X253096000Y-86557500D01*
X248696000Y-84257500D02*
X253096000Y-84257500D01*
%TO.C,D64*%
X238020000Y-84257500D02*
X238020000Y-86557500D01*
X242420000Y-86557500D02*
X238020000Y-86557500D01*
X242420000Y-84257500D02*
X242420000Y-86557500D01*
X238020000Y-84257500D02*
X242420000Y-84257500D01*
%TO.C,D63*%
X227344000Y-84257500D02*
X227344000Y-86557500D01*
X231744000Y-86557500D02*
X227344000Y-86557500D01*
X231744000Y-84257500D02*
X231744000Y-86557500D01*
X227344000Y-84257500D02*
X231744000Y-84257500D01*
%TO.C,D62*%
X222006000Y-84257500D02*
X222006000Y-86557500D01*
X226406000Y-86557500D02*
X222006000Y-86557500D01*
X226406000Y-84257500D02*
X226406000Y-86557500D01*
X222006000Y-84257500D02*
X226406000Y-84257500D01*
%TO.C,D61*%
X343406000Y-46157500D02*
X343406000Y-48457500D01*
X347806000Y-48457500D02*
X343406000Y-48457500D01*
X347806000Y-46157500D02*
X347806000Y-48457500D01*
X343406000Y-46157500D02*
X347806000Y-46157500D01*
%TO.C,D60*%
X237131000Y-65080500D02*
X237131000Y-67380500D01*
X241531000Y-67380500D02*
X237131000Y-67380500D01*
X241531000Y-65080500D02*
X241531000Y-67380500D01*
X237131000Y-65080500D02*
X241531000Y-65080500D01*
%TO.C,D59*%
X256605000Y-65080500D02*
X256605000Y-67380500D01*
X261005000Y-67380500D02*
X256605000Y-67380500D01*
X261005000Y-65080500D02*
X261005000Y-67380500D01*
X256605000Y-65080500D02*
X261005000Y-65080500D01*
%TO.C,D58*%
X216668000Y-84257500D02*
X216668000Y-86557500D01*
X221068000Y-86557500D02*
X216668000Y-86557500D01*
X221068000Y-84257500D02*
X221068000Y-86557500D01*
X216668000Y-84257500D02*
X221068000Y-84257500D01*
%TO.C,D57*%
X149188000Y-45840000D02*
X149188000Y-48140000D01*
X153588000Y-48140000D02*
X149188000Y-48140000D01*
X153588000Y-45840000D02*
X153588000Y-48140000D01*
X149188000Y-45840000D02*
X153588000Y-45840000D01*
%TO.C,D56*%
X237787000Y-45840000D02*
X237787000Y-48140000D01*
X242187000Y-48140000D02*
X237787000Y-48140000D01*
X242187000Y-45840000D02*
X242187000Y-48140000D01*
X237787000Y-45840000D02*
X242187000Y-45840000D01*
%TO.C,D55*%
X259372000Y-84257500D02*
X259372000Y-86557500D01*
X263772000Y-86557500D02*
X259372000Y-86557500D01*
X263772000Y-84257500D02*
X263772000Y-86557500D01*
X259372000Y-84257500D02*
X263772000Y-84257500D01*
%TO.C,D54*%
X232263000Y-65080500D02*
X232263000Y-67380500D01*
X236663000Y-67380500D02*
X232263000Y-67380500D01*
X236663000Y-65080500D02*
X236663000Y-67380500D01*
X232263000Y-65080500D02*
X236663000Y-65080500D01*
%TO.C,D53*%
X205992000Y-84257500D02*
X205992000Y-86557500D01*
X210392000Y-86557500D02*
X205992000Y-86557500D01*
X210392000Y-84257500D02*
X210392000Y-86557500D01*
X205992000Y-84257500D02*
X210392000Y-84257500D01*
%TO.C,D52*%
X141805000Y-45840000D02*
X141805000Y-48140000D01*
X146205000Y-48140000D02*
X141805000Y-48140000D01*
X146205000Y-45840000D02*
X146205000Y-48140000D01*
X141805000Y-45840000D02*
X146205000Y-45840000D01*
%TO.C,D51*%
X254034000Y-84257500D02*
X254034000Y-86557500D01*
X258434000Y-86557500D02*
X254034000Y-86557500D01*
X258434000Y-84257500D02*
X258434000Y-86557500D01*
X254034000Y-84257500D02*
X258434000Y-84257500D01*
%TO.C,D50*%
X134422000Y-45840000D02*
X134422000Y-48140000D01*
X138822000Y-48140000D02*
X134422000Y-48140000D01*
X138822000Y-45840000D02*
X138822000Y-48140000D01*
X134422000Y-45840000D02*
X138822000Y-45840000D01*
%TO.C,D49*%
X189979000Y-84257500D02*
X189979000Y-86557500D01*
X194379000Y-86557500D02*
X189979000Y-86557500D01*
X194379000Y-84257500D02*
X194379000Y-86557500D01*
X189979000Y-84257500D02*
X194379000Y-84257500D01*
%TO.C,D48*%
X179303000Y-84257500D02*
X179303000Y-86557500D01*
X183703000Y-86557500D02*
X179303000Y-86557500D01*
X183703000Y-84257500D02*
X183703000Y-86557500D01*
X179303000Y-84257500D02*
X183703000Y-84257500D01*
%TO.C,D47*%
X342082000Y-84321000D02*
X342082000Y-86621000D01*
X346482000Y-86621000D02*
X342082000Y-86621000D01*
X346482000Y-84321000D02*
X346482000Y-86621000D01*
X342082000Y-84321000D02*
X346482000Y-84321000D01*
%TO.C,D46*%
X208254000Y-45840000D02*
X208254000Y-48140000D01*
X212654000Y-48140000D02*
X208254000Y-48140000D01*
X212654000Y-45840000D02*
X212654000Y-48140000D01*
X208254000Y-45840000D02*
X212654000Y-45840000D01*
%TO.C,D45*%
X211330000Y-84257500D02*
X211330000Y-86557500D01*
X215730000Y-86557500D02*
X211330000Y-86557500D01*
X215730000Y-84257500D02*
X215730000Y-86557500D01*
X211330000Y-84257500D02*
X215730000Y-84257500D01*
%TO.C,D44*%
X168627000Y-84257500D02*
X168627000Y-86557500D01*
X173027000Y-86557500D02*
X168627000Y-86557500D01*
X173027000Y-84257500D02*
X173027000Y-86557500D01*
X168627000Y-84257500D02*
X173027000Y-84257500D01*
%TO.C,D43*%
X195317000Y-84257500D02*
X195317000Y-86557500D01*
X199717000Y-86557500D02*
X195317000Y-86557500D01*
X199717000Y-84257500D02*
X199717000Y-86557500D01*
X195317000Y-84257500D02*
X199717000Y-84257500D01*
%TO.C,D42*%
X163955000Y-45840000D02*
X163955000Y-48140000D01*
X168355000Y-48140000D02*
X163955000Y-48140000D01*
X168355000Y-45840000D02*
X168355000Y-48140000D01*
X163955000Y-45840000D02*
X168355000Y-45840000D01*
%TO.C,D41*%
X251736000Y-65080500D02*
X251736000Y-67380500D01*
X256136000Y-67380500D02*
X251736000Y-67380500D01*
X256136000Y-65080500D02*
X256136000Y-67380500D01*
X251736000Y-65080500D02*
X256136000Y-65080500D01*
%TO.C,D40*%
X200654000Y-84257500D02*
X200654000Y-86557500D01*
X205054000Y-86557500D02*
X200654000Y-86557500D01*
X205054000Y-84257500D02*
X205054000Y-86557500D01*
X200654000Y-84257500D02*
X205054000Y-84257500D01*
%TO.C,D39*%
X119655000Y-45840000D02*
X119655000Y-48140000D01*
X124055000Y-48140000D02*
X119655000Y-48140000D01*
X124055000Y-45840000D02*
X124055000Y-48140000D01*
X119655000Y-45840000D02*
X124055000Y-45840000D01*
%TO.C,D38*%
X173965000Y-84257500D02*
X173965000Y-86557500D01*
X178365000Y-86557500D02*
X173965000Y-86557500D01*
X178365000Y-84257500D02*
X178365000Y-86557500D01*
X173965000Y-84257500D02*
X178365000Y-84257500D01*
%TO.C,D37*%
X163289000Y-84257500D02*
X163289000Y-86557500D01*
X167689000Y-86557500D02*
X163289000Y-86557500D01*
X167689000Y-84257500D02*
X167689000Y-86557500D01*
X163289000Y-84257500D02*
X167689000Y-84257500D01*
%TO.C,D36*%
X157951000Y-84257500D02*
X157951000Y-86557500D01*
X162351000Y-86557500D02*
X157951000Y-86557500D01*
X162351000Y-84257500D02*
X162351000Y-86557500D01*
X157951000Y-84257500D02*
X162351000Y-84257500D01*
%TO.C,D35*%
X152613000Y-84257500D02*
X152613000Y-86557500D01*
X157013000Y-86557500D02*
X152613000Y-86557500D01*
X157013000Y-84257500D02*
X157013000Y-86557500D01*
X152613000Y-84257500D02*
X157013000Y-84257500D01*
%TO.C,D34*%
X104889000Y-45840000D02*
X104889000Y-48140000D01*
X109289000Y-48140000D02*
X104889000Y-48140000D01*
X109289000Y-45840000D02*
X109289000Y-48140000D01*
X104889000Y-45840000D02*
X109289000Y-45840000D01*
%TO.C,D33*%
X259937000Y-45840000D02*
X259937000Y-48140000D01*
X264337000Y-48140000D02*
X259937000Y-48140000D01*
X264337000Y-45840000D02*
X264337000Y-48140000D01*
X259937000Y-45840000D02*
X264337000Y-45840000D01*
%TO.C,D32*%
X242000000Y-65080500D02*
X242000000Y-67380500D01*
X246400000Y-67380500D02*
X242000000Y-67380500D01*
X246400000Y-65080500D02*
X246400000Y-67380500D01*
X242000000Y-65080500D02*
X246400000Y-65080500D01*
%TO.C,D31*%
X184641000Y-84257500D02*
X184641000Y-86557500D01*
X189041000Y-86557500D02*
X184641000Y-86557500D01*
X189041000Y-84257500D02*
X189041000Y-86557500D01*
X184641000Y-84257500D02*
X189041000Y-84257500D01*
%TO.C,D30*%
X136599000Y-84257500D02*
X136599000Y-86557500D01*
X140999000Y-86557500D02*
X136599000Y-86557500D01*
X140999000Y-84257500D02*
X140999000Y-86557500D01*
X136599000Y-84257500D02*
X140999000Y-84257500D01*
%TO.C,D29*%
X147275000Y-84257500D02*
X147275000Y-86557500D01*
X151675000Y-86557500D02*
X147275000Y-86557500D01*
X151675000Y-84257500D02*
X151675000Y-86557500D01*
X147275000Y-84257500D02*
X151675000Y-84257500D01*
%TO.C,D28*%
X200871000Y-45840000D02*
X200871000Y-48140000D01*
X205271000Y-48140000D02*
X200871000Y-48140000D01*
X205271000Y-45840000D02*
X205271000Y-48140000D01*
X200871000Y-45840000D02*
X205271000Y-45840000D01*
%TO.C,D27*%
X227395000Y-65080500D02*
X227395000Y-67380500D01*
X231795000Y-67380500D02*
X227395000Y-67380500D01*
X231795000Y-65080500D02*
X231795000Y-67380500D01*
X227395000Y-65080500D02*
X231795000Y-65080500D01*
%TO.C,D26*%
X127039000Y-45840000D02*
X127039000Y-48140000D01*
X131439000Y-48140000D02*
X127039000Y-48140000D01*
X131439000Y-45840000D02*
X131439000Y-48140000D01*
X127039000Y-45840000D02*
X131439000Y-45840000D01*
%TO.C,D25*%
X115247000Y-84257500D02*
X115247000Y-86557500D01*
X119647000Y-86557500D02*
X115247000Y-86557500D01*
X119647000Y-84257500D02*
X119647000Y-86557500D01*
X115247000Y-84257500D02*
X119647000Y-84257500D01*
%TO.C,D24*%
X141937000Y-84257500D02*
X141937000Y-86557500D01*
X146337000Y-86557500D02*
X141937000Y-86557500D01*
X146337000Y-84257500D02*
X146337000Y-86557500D01*
X141937000Y-84257500D02*
X146337000Y-84257500D01*
%TO.C,D23*%
X109909000Y-84257500D02*
X109909000Y-86557500D01*
X114309000Y-86557500D02*
X109909000Y-86557500D01*
X114309000Y-84257500D02*
X114309000Y-86557500D01*
X109909000Y-84257500D02*
X114309000Y-84257500D01*
%TO.C,D22*%
X125923000Y-84257500D02*
X125923000Y-86557500D01*
X130323000Y-86557500D02*
X125923000Y-86557500D01*
X130323000Y-84257500D02*
X130323000Y-86557500D01*
X125923000Y-84257500D02*
X130323000Y-84257500D01*
%TO.C,D21*%
X90122600Y-45840000D02*
X90122600Y-48140000D01*
X94522600Y-48140000D02*
X90122600Y-48140000D01*
X94522600Y-45840000D02*
X94522600Y-48140000D01*
X90122600Y-45840000D02*
X94522600Y-45840000D01*
%TO.C,D20*%
X93895300Y-84257500D02*
X93895300Y-86557500D01*
X98295300Y-86557500D02*
X93895300Y-86557500D01*
X98295300Y-84257500D02*
X98295300Y-86557500D01*
X93895300Y-84257500D02*
X98295300Y-84257500D01*
%TO.C,D19*%
X193488000Y-45840000D02*
X193488000Y-48140000D01*
X197888000Y-48140000D02*
X193488000Y-48140000D01*
X197888000Y-45840000D02*
X197888000Y-48140000D01*
X193488000Y-45840000D02*
X197888000Y-45840000D01*
%TO.C,D18*%
X82739400Y-45840000D02*
X82739400Y-48140000D01*
X87139400Y-48140000D02*
X82739400Y-48140000D01*
X87139400Y-45840000D02*
X87139400Y-48140000D01*
X82739400Y-45840000D02*
X87139400Y-45840000D01*
%TO.C,D17*%
X88557300Y-84257500D02*
X88557300Y-86557500D01*
X92957300Y-86557500D02*
X88557300Y-86557500D01*
X92957300Y-84257500D02*
X92957300Y-86557500D01*
X88557300Y-84257500D02*
X92957300Y-84257500D01*
%TO.C,D16*%
X97505800Y-45840000D02*
X97505800Y-48140000D01*
X101905800Y-48140000D02*
X97505800Y-48140000D01*
X101905800Y-45840000D02*
X101905800Y-48140000D01*
X97505800Y-45840000D02*
X101905800Y-45840000D01*
%TO.C,D15*%
X104571000Y-84257500D02*
X104571000Y-86557500D01*
X108971000Y-86557500D02*
X104571000Y-86557500D01*
X108971000Y-84257500D02*
X108971000Y-86557500D01*
X104571000Y-84257500D02*
X108971000Y-84257500D01*
%TO.C,D14*%
X347182000Y-84321000D02*
X347182000Y-86621000D01*
X351582000Y-86621000D02*
X347182000Y-86621000D01*
X351582000Y-84321000D02*
X351582000Y-86621000D01*
X347182000Y-84321000D02*
X351582000Y-84321000D01*
%TO.C,D13*%
X358705000Y-46157500D02*
X358705000Y-48457500D01*
X363105000Y-48457500D02*
X358705000Y-48457500D01*
X363105000Y-46157500D02*
X363105000Y-48457500D01*
X358705000Y-46157500D02*
X363105000Y-46157500D01*
%TO.C,D12*%
X72543500Y-84257500D02*
X72543500Y-86557500D01*
X76943500Y-86557500D02*
X72543500Y-86557500D01*
X76943500Y-84257500D02*
X76943500Y-86557500D01*
X72543500Y-84257500D02*
X76943500Y-84257500D01*
%TO.C,D11*%
X77881400Y-84257500D02*
X77881400Y-86557500D01*
X82281400Y-86557500D02*
X77881400Y-86557500D01*
X82281400Y-84257500D02*
X82281400Y-86557500D01*
X77881400Y-84257500D02*
X82281400Y-84257500D01*
%TO.C,D10*%
X131261000Y-84257500D02*
X131261000Y-86557500D01*
X135661000Y-86557500D02*
X131261000Y-86557500D01*
X135661000Y-84257500D02*
X135661000Y-86557500D01*
X131261000Y-84257500D02*
X135661000Y-84257500D01*
%TO.C,D9*%
X120585000Y-84257500D02*
X120585000Y-86557500D01*
X124985000Y-86557500D02*
X120585000Y-86557500D01*
X124985000Y-84257500D02*
X124985000Y-86557500D01*
X120585000Y-84257500D02*
X124985000Y-84257500D01*
%TO.C,D8*%
X99233000Y-84257500D02*
X99233000Y-86557500D01*
X103633000Y-86557500D02*
X99233000Y-86557500D01*
X103633000Y-84257500D02*
X103633000Y-86557500D01*
X99233000Y-84257500D02*
X103633000Y-84257500D01*
%TO.C,D7*%
X53206400Y-45840000D02*
X53206400Y-48140000D01*
X57606400Y-48140000D02*
X53206400Y-48140000D01*
X57606400Y-45840000D02*
X57606400Y-48140000D01*
X53206400Y-45840000D02*
X57606400Y-45840000D01*
%TO.C,D6*%
X83219400Y-84257500D02*
X83219400Y-86557500D01*
X87619400Y-86557500D02*
X83219400Y-86557500D01*
X87619400Y-84257500D02*
X87619400Y-86557500D01*
X83219400Y-84257500D02*
X87619400Y-84257500D01*
%TO.C,D5*%
X186104000Y-45840000D02*
X186104000Y-48140000D01*
X190504000Y-48140000D02*
X186104000Y-48140000D01*
X190504000Y-45840000D02*
X190504000Y-48140000D01*
X186104000Y-45840000D02*
X190504000Y-45840000D01*
%TO.C,D4*%
X171338000Y-45840000D02*
X171338000Y-48140000D01*
X175738000Y-48140000D02*
X171338000Y-48140000D01*
X175738000Y-45840000D02*
X175738000Y-48140000D01*
X171338000Y-45840000D02*
X175738000Y-45840000D01*
%TO.C,D3*%
X67205500Y-84257500D02*
X67205500Y-86557500D01*
X71605500Y-86557500D02*
X67205500Y-86557500D01*
X71605500Y-84257500D02*
X71605500Y-86557500D01*
X67205500Y-84257500D02*
X71605500Y-84257500D01*
%TO.C,D2*%
X67972900Y-45840000D02*
X67972900Y-48140000D01*
X72372900Y-48140000D02*
X67972900Y-48140000D01*
X72372900Y-45840000D02*
X72372900Y-48140000D01*
X67972900Y-45840000D02*
X72372900Y-45840000D01*
%TO.C,D1*%
X45823200Y-45840000D02*
X45823200Y-48140000D01*
X50223200Y-48140000D02*
X45823200Y-48140000D01*
X50223200Y-45840000D02*
X50223200Y-48140000D01*
X45823200Y-45840000D02*
X50223200Y-45840000D01*
%TO.C,SW_RESET1*%
X316980000Y-121816000D02*
X316980000Y-111716000D01*
X320960000Y-121816000D02*
X320960000Y-111716000D01*
X316986287Y-121826000D02*
X320960000Y-121826000D01*
X320970000Y-111726000D02*
X316980000Y-111716000D01*
%TO.C,R4*%
X341954000Y-27074000D02*
X346514000Y-27074000D01*
X341954000Y-29314000D02*
X341954000Y-27074000D01*
X346514000Y-29314000D02*
X341954000Y-29314000D01*
X346514000Y-27074000D02*
X346514000Y-29314000D01*
%TO.C,R3*%
X320609000Y-13075500D02*
X320609000Y-16435500D01*
X318709000Y-13075500D02*
X320609000Y-13075500D01*
X318709000Y-16435500D02*
X318709000Y-13075500D01*
X320609000Y-16435500D02*
X318709000Y-16435500D01*
%TO.C,R2*%
X318577000Y-13075500D02*
X318577000Y-16435500D01*
X316677000Y-13075500D02*
X318577000Y-13075500D01*
X316677000Y-16435500D02*
X316677000Y-13075500D01*
X318577000Y-16435500D02*
X316677000Y-16435500D01*
%TO.C,R1*%
X320080000Y-106559000D02*
X320080000Y-111119000D01*
X317840000Y-106559000D02*
X320080000Y-106559000D01*
X317840000Y-111119000D02*
X317840000Y-106559000D01*
X320080000Y-111119000D02*
X317840000Y-111119000D01*
%TO.C,C109*%
X298782000Y-29301000D02*
X298782000Y-27341000D01*
X298782000Y-27341000D02*
X302182000Y-27341000D01*
X302182000Y-27341000D02*
X302182000Y-29301000D01*
X302182000Y-29301000D02*
X298782000Y-29301000D01*
%TO.C,C108*%
X314107000Y-54852000D02*
X314107000Y-51452000D01*
X316067000Y-54852000D02*
X314107000Y-54852000D01*
X316067000Y-51452000D02*
X316067000Y-54852000D01*
X314107000Y-51452000D02*
X316067000Y-51452000D01*
%TO.C,C107*%
X316130000Y-58945000D02*
X316130000Y-62345000D01*
X314170000Y-58945000D02*
X316130000Y-58945000D01*
X314170000Y-62345000D02*
X314170000Y-58945000D01*
X316130000Y-62345000D02*
X314170000Y-62345000D01*
%TO.C,C106*%
X324090000Y-14315000D02*
X320690000Y-14315000D01*
X324090000Y-12355000D02*
X324090000Y-14315000D01*
X320690000Y-12355000D02*
X324090000Y-12355000D01*
X320690000Y-14315000D02*
X320690000Y-12355000D01*
%TO.C,C105*%
X316575000Y-13093000D02*
X316575000Y-16493000D01*
X314615000Y-13093000D02*
X316575000Y-13093000D01*
X314615000Y-16493000D02*
X314615000Y-13093000D01*
X316575000Y-16493000D02*
X314615000Y-16493000D01*
%TO.C,C104*%
X324090000Y-16410500D02*
X320690000Y-16410500D01*
X324090000Y-14450500D02*
X324090000Y-16410500D01*
X320690000Y-14450500D02*
X324090000Y-14450500D01*
X320690000Y-16410500D02*
X320690000Y-14450500D01*
%TO.C,C103*%
X338189000Y-28920000D02*
X334789000Y-28920000D01*
X338189000Y-26960000D02*
X338189000Y-28920000D01*
X334789000Y-26960000D02*
X338189000Y-26960000D01*
X334789000Y-28920000D02*
X334789000Y-26960000D01*
%TO.C,C102*%
X316584000Y-40628000D02*
X316584000Y-37228000D01*
X318544000Y-40628000D02*
X316584000Y-40628000D01*
X318544000Y-37228000D02*
X318544000Y-40628000D01*
X316584000Y-37228000D02*
X318544000Y-37228000D01*
D11*
%TO.C,D179*%
X160588000Y-118333000D02*
X160588000Y-120833000D01*
X160588000Y-120833000D02*
X163618000Y-120833000D01*
X163618000Y-120833000D02*
X163618000Y-118333000D01*
X163613000Y-118333000D02*
X160588000Y-118333000D01*
D10*
%TO.C,C85*%
X39810900Y-28634800D02*
X37990900Y-28634800D01*
X39810900Y-27714800D02*
X39810900Y-28634800D01*
X37990900Y-27714800D02*
X39810900Y-27714800D01*
X37990900Y-28634800D02*
X37990900Y-27714800D01*
D11*
%TO.C,D174*%
X177758000Y-117969000D02*
X177758000Y-120469000D01*
X177758000Y-120469000D02*
X180788000Y-120469000D01*
X180788000Y-120469000D02*
X180788000Y-117969000D01*
X180783000Y-117969000D02*
X177758000Y-117969000D01*
%TO.C,D169*%
X139201000Y-118130000D02*
X139201000Y-120630000D01*
X139201000Y-120630000D02*
X142231000Y-120630000D01*
X142231000Y-120630000D02*
X142231000Y-118130000D01*
X142226000Y-118130000D02*
X139201000Y-118130000D01*
%TO.C,D164*%
X195030000Y-117774000D02*
X195030000Y-120274000D01*
X195030000Y-120274000D02*
X198060000Y-120274000D01*
X198060000Y-120274000D02*
X198060000Y-117774000D01*
X198055000Y-117774000D02*
X195030000Y-117774000D01*
%TO.C,D159*%
X118627000Y-118130000D02*
X118627000Y-120630000D01*
X118627000Y-120630000D02*
X121657000Y-120630000D01*
X121657000Y-120630000D02*
X121657000Y-118130000D01*
X121652000Y-118130000D02*
X118627000Y-118130000D01*
D10*
%TO.C,C80*%
X153231000Y-28634800D02*
X151411000Y-28634800D01*
X153231000Y-27714800D02*
X153231000Y-28634800D01*
X151411000Y-27714800D02*
X153231000Y-27714800D01*
X151411000Y-28634800D02*
X151411000Y-27714800D01*
%TO.C,C75*%
X44810000Y-65707000D02*
X46630000Y-65707000D01*
X44810000Y-66627000D02*
X44810000Y-65707000D01*
X46630000Y-66627000D02*
X44810000Y-66627000D01*
X46630000Y-65707000D02*
X46630000Y-66627000D01*
%TO.C,C70*%
X343740000Y-65770500D02*
X345560000Y-65770500D01*
X343740000Y-66690500D02*
X343740000Y-65770500D01*
X345560000Y-66690500D02*
X343740000Y-66690500D01*
X345560000Y-65770500D02*
X345560000Y-66690500D01*
%TO.C,C65*%
X158632000Y-28634800D02*
X156812000Y-28634800D01*
X158632000Y-27714800D02*
X158632000Y-28634800D01*
X156812000Y-27714800D02*
X158632000Y-27714800D01*
X156812000Y-28634800D02*
X156812000Y-27714800D01*
D11*
%TO.C,D154*%
X367649000Y-23032400D02*
X367649000Y-25532400D01*
X367649000Y-25532400D02*
X370679000Y-25532400D01*
X370679000Y-25532400D02*
X370679000Y-23032400D01*
X370674000Y-23032400D02*
X367649000Y-23032400D01*
D10*
%TO.C,C60*%
X234245000Y-28400000D02*
X232425000Y-28400000D01*
X234245000Y-27480000D02*
X234245000Y-28400000D01*
X232425000Y-27480000D02*
X234245000Y-27480000D01*
X232425000Y-28400000D02*
X232425000Y-27480000D01*
D11*
%TO.C,D149*%
X348752000Y-22990400D02*
X348752000Y-25490400D01*
X348752000Y-25490400D02*
X351782000Y-25490400D01*
X351782000Y-25490400D02*
X351782000Y-22990400D01*
X351777000Y-22990400D02*
X348752000Y-22990400D01*
%TO.C,D144*%
X267472000Y-22990400D02*
X267472000Y-25490400D01*
X267472000Y-25490400D02*
X270502000Y-25490400D01*
X270502000Y-25490400D02*
X270502000Y-22990400D01*
X270497000Y-22990400D02*
X267472000Y-22990400D01*
%TO.C,D139*%
X329651000Y-22990400D02*
X329651000Y-25490400D01*
X329651000Y-25490400D02*
X332681000Y-25490400D01*
X332681000Y-25490400D02*
X332681000Y-22990400D01*
X332676000Y-22990400D02*
X329651000Y-22990400D01*
%TO.C,D134*%
X286522000Y-22990400D02*
X286522000Y-25490400D01*
X286522000Y-25490400D02*
X289552000Y-25490400D01*
X289552000Y-25490400D02*
X289552000Y-22990400D01*
X289547000Y-22990400D02*
X286522000Y-22990400D01*
%TO.C,D129*%
X210322000Y-23041200D02*
X210322000Y-25541200D01*
X210322000Y-25541200D02*
X213352000Y-25541200D01*
X213352000Y-25541200D02*
X213352000Y-23041200D01*
X213347000Y-23041200D02*
X210322000Y-23041200D01*
%TO.C,D124*%
X305724000Y-22939600D02*
X305724000Y-25439600D01*
X305724000Y-25439600D02*
X308754000Y-25439600D01*
X308754000Y-25439600D02*
X308754000Y-22939600D01*
X308749000Y-22939600D02*
X305724000Y-22939600D01*
%TO.C,D119*%
X229372000Y-22939600D02*
X229372000Y-25439600D01*
X229372000Y-25439600D02*
X232402000Y-25439600D01*
X232402000Y-25439600D02*
X232402000Y-22939600D01*
X232397000Y-22939600D02*
X229372000Y-22939600D01*
%TO.C,D114*%
X248472000Y-22972800D02*
X248472000Y-25472800D01*
X248472000Y-25472800D02*
X251502000Y-25472800D01*
X251502000Y-25472800D02*
X251502000Y-22972800D01*
X251497000Y-22972800D02*
X248472000Y-22972800D01*
D10*
%TO.C,C55*%
X185636000Y-28571300D02*
X183816000Y-28571300D01*
X185636000Y-27651300D02*
X185636000Y-28571300D01*
X183816000Y-27651300D02*
X185636000Y-27651300D01*
X183816000Y-28571300D02*
X183816000Y-27651300D01*
%TO.C,C50*%
X153098000Y-65707000D02*
X154918000Y-65707000D01*
X153098000Y-66627000D02*
X153098000Y-65707000D01*
X154918000Y-66627000D02*
X153098000Y-66627000D01*
X154918000Y-65707000D02*
X154918000Y-66627000D01*
%TO.C,C45*%
X207240000Y-28571300D02*
X205420000Y-28571300D01*
X207240000Y-27651300D02*
X207240000Y-28571300D01*
X205420000Y-27651300D02*
X207240000Y-27651300D01*
X205420000Y-28571300D02*
X205420000Y-27651300D01*
%TO.C,C40*%
X174834000Y-28571300D02*
X173014000Y-28571300D01*
X174834000Y-27651300D02*
X174834000Y-28571300D01*
X173014000Y-27651300D02*
X174834000Y-27651300D01*
X173014000Y-28571300D02*
X173014000Y-27651300D01*
%TO.C,C35*%
X196438000Y-28571300D02*
X194618000Y-28571300D01*
X196438000Y-27651300D02*
X196438000Y-28571300D01*
X194618000Y-27651300D02*
X196438000Y-27651300D01*
X194618000Y-28571300D02*
X194618000Y-27651300D01*
%TO.C,C30*%
X169434000Y-28571300D02*
X167614000Y-28571300D01*
X169434000Y-27651300D02*
X169434000Y-28571300D01*
X167614000Y-27651300D02*
X169434000Y-27651300D01*
X167614000Y-28571300D02*
X167614000Y-27651300D01*
%TO.C,C25*%
X180235000Y-28571300D02*
X178415000Y-28571300D01*
X180235000Y-27651300D02*
X180235000Y-28571300D01*
X178415000Y-27651300D02*
X180235000Y-27651300D01*
X178415000Y-28571300D02*
X178415000Y-27651300D01*
%TO.C,C20*%
X191037000Y-28571300D02*
X189217000Y-28571300D01*
X191037000Y-27651300D02*
X191037000Y-28571300D01*
X189217000Y-27651300D02*
X191037000Y-27651300D01*
X189217000Y-28571300D02*
X189217000Y-27651300D01*
D11*
%TO.C,D195*%
X329600000Y-61090400D02*
X329600000Y-63590400D01*
X329600000Y-63590400D02*
X332630000Y-63590400D01*
X332630000Y-63590400D02*
X332630000Y-61090400D01*
X332625000Y-61090400D02*
X329600000Y-61090400D01*
%TO.C,D193*%
X348701000Y-118342000D02*
X348701000Y-120842000D01*
X348701000Y-120842000D02*
X351731000Y-120842000D01*
X351731000Y-120842000D02*
X351731000Y-118342000D01*
X351726000Y-118342000D02*
X348701000Y-118342000D01*
%TO.C,D192*%
X195334000Y-99190000D02*
X195334000Y-101690000D01*
X195334000Y-101690000D02*
X198364000Y-101690000D01*
X198364000Y-101690000D02*
X198364000Y-99190000D01*
X198359000Y-99190000D02*
X195334000Y-99190000D01*
%TO.C,D191*%
X148307000Y-80157000D02*
X148307000Y-82657000D01*
X148307000Y-82657000D02*
X151337000Y-82657000D01*
X151337000Y-82657000D02*
X151337000Y-80157000D01*
X151332000Y-80157000D02*
X148307000Y-80157000D01*
%TO.C,D190*%
X348752000Y-61090400D02*
X348752000Y-63590400D01*
X348752000Y-63590400D02*
X351782000Y-63590400D01*
X351782000Y-63590400D02*
X351782000Y-61090400D01*
X351777000Y-61090400D02*
X348752000Y-61090400D01*
%TO.C,D188*%
X329651000Y-118444000D02*
X329651000Y-120944000D01*
X329651000Y-120944000D02*
X332681000Y-120944000D01*
X332681000Y-120944000D02*
X332681000Y-118444000D01*
X332676000Y-118444000D02*
X329651000Y-118444000D01*
%TO.C,D187*%
X214486000Y-99190000D02*
X214486000Y-101690000D01*
X214486000Y-101690000D02*
X217516000Y-101690000D01*
X217516000Y-101690000D02*
X217516000Y-99190000D01*
X217511000Y-99190000D02*
X214486000Y-99190000D01*
%TO.C,D186*%
X129485000Y-80157000D02*
X129485000Y-82657000D01*
X129485000Y-82657000D02*
X132515000Y-82657000D01*
X132515000Y-82657000D02*
X132515000Y-80157000D01*
X132510000Y-80157000D02*
X129485000Y-80157000D01*
%TO.C,D185*%
X367649000Y-61141200D02*
X367649000Y-63641200D01*
X367649000Y-63641200D02*
X370679000Y-63641200D01*
X370679000Y-63641200D02*
X370679000Y-61141200D01*
X370674000Y-61141200D02*
X367649000Y-61141200D01*
%TO.C,D183*%
X303234000Y-118342000D02*
X303234000Y-120842000D01*
X303234000Y-120842000D02*
X306264000Y-120842000D01*
X306264000Y-120842000D02*
X306264000Y-118342000D01*
X306259000Y-118342000D02*
X303234000Y-118342000D01*
%TO.C,D182*%
X233537000Y-99182000D02*
X233537000Y-101682000D01*
X233537000Y-101682000D02*
X236567000Y-101682000D01*
X236567000Y-101682000D02*
X236567000Y-99182000D01*
X236562000Y-99182000D02*
X233537000Y-99182000D01*
%TO.C,D181*%
X110411000Y-80132000D02*
X110411000Y-82632000D01*
X110411000Y-82632000D02*
X113441000Y-82632000D01*
X113441000Y-82632000D02*
X113441000Y-80132000D01*
X113436000Y-80132000D02*
X110411000Y-80132000D01*
%TO.C,D180*%
X57972400Y-23041200D02*
X57972400Y-25541200D01*
X57972400Y-25541200D02*
X61002400Y-25541200D01*
X61002400Y-25541200D02*
X61002400Y-23041200D01*
X60997400Y-23041200D02*
X57972400Y-23041200D01*
%TO.C,D178*%
X279410000Y-118342000D02*
X279410000Y-120842000D01*
X279410000Y-120842000D02*
X282440000Y-120842000D01*
X282440000Y-120842000D02*
X282440000Y-118342000D01*
X282435000Y-118342000D02*
X279410000Y-118342000D01*
%TO.C,D177*%
X252738000Y-99241000D02*
X252738000Y-101741000D01*
X252738000Y-101741000D02*
X255768000Y-101741000D01*
X255768000Y-101741000D02*
X255768000Y-99241000D01*
X255763000Y-99241000D02*
X252738000Y-99241000D01*
%TO.C,D176*%
X91385500Y-80157000D02*
X91385500Y-82657000D01*
X91385500Y-82657000D02*
X94415500Y-82657000D01*
X94415500Y-82657000D02*
X94415500Y-80157000D01*
X94410500Y-80157000D02*
X91385500Y-80157000D01*
%TO.C,D175*%
X38871000Y-22981600D02*
X38871000Y-25481600D01*
X38871000Y-25481600D02*
X41901000Y-25481600D01*
X41901000Y-25481600D02*
X41901000Y-22981600D01*
X41896000Y-22981600D02*
X38871000Y-22981600D01*
%TO.C,D173*%
X255584000Y-118393000D02*
X255584000Y-120893000D01*
X255584000Y-120893000D02*
X258614000Y-120893000D01*
X258614000Y-120893000D02*
X258614000Y-118393000D01*
X258609000Y-118393000D02*
X255584000Y-118393000D01*
%TO.C,D172*%
X288808000Y-99325000D02*
X288808000Y-101825000D01*
X288808000Y-101825000D02*
X291838000Y-101825000D01*
X291838000Y-101825000D02*
X291838000Y-99325000D01*
X291833000Y-99325000D02*
X288808000Y-99325000D01*
%TO.C,D171*%
X72335500Y-80157000D02*
X72335500Y-82657000D01*
X72335500Y-82657000D02*
X75365500Y-82657000D01*
X75365500Y-82657000D02*
X75365500Y-80157000D01*
X75360500Y-80157000D02*
X72335500Y-80157000D01*
%TO.C,D170*%
X367598000Y-42226000D02*
X367598000Y-44726000D01*
X367598000Y-44726000D02*
X370628000Y-44726000D01*
X370628000Y-44726000D02*
X370628000Y-42226000D01*
X370623000Y-42226000D02*
X367598000Y-42226000D01*
%TO.C,D168*%
X231606000Y-118393000D02*
X231606000Y-120893000D01*
X231606000Y-120893000D02*
X234636000Y-120893000D01*
X234636000Y-120893000D02*
X234636000Y-118393000D01*
X234631000Y-118393000D02*
X231606000Y-118393000D01*
%TO.C,D167*%
X329727000Y-99249000D02*
X329727000Y-101749000D01*
X329727000Y-101749000D02*
X332757000Y-101749000D01*
X332757000Y-101749000D02*
X332757000Y-99249000D01*
X332752000Y-99249000D02*
X329727000Y-99249000D01*
%TO.C,D166*%
X46134800Y-80157000D02*
X46134800Y-82657000D01*
X46134800Y-82657000D02*
X49164800Y-82657000D01*
X49164800Y-82657000D02*
X49164800Y-80157000D01*
X49159800Y-80157000D02*
X46134800Y-80157000D01*
%TO.C,D165*%
X348700000Y-42184000D02*
X348700000Y-44684000D01*
X348700000Y-44684000D02*
X351730000Y-44684000D01*
X351730000Y-44684000D02*
X351730000Y-42184000D01*
X351725000Y-42184000D02*
X348700000Y-42184000D01*
%TO.C,D163*%
X191322000Y-22981600D02*
X191322000Y-25481600D01*
X191322000Y-25481600D02*
X194352000Y-25481600D01*
X194352000Y-25481600D02*
X194352000Y-22981600D01*
X194347000Y-22981600D02*
X191322000Y-22981600D01*
%TO.C,D162*%
X348700000Y-99224000D02*
X348700000Y-101724000D01*
X348700000Y-101724000D02*
X351730000Y-101724000D01*
X351730000Y-101724000D02*
X351730000Y-99224000D01*
X351725000Y-99224000D02*
X348700000Y-99224000D01*
%TO.C,D161*%
X43748400Y-61107000D02*
X43748400Y-63607000D01*
X43748400Y-63607000D02*
X46778400Y-63607000D01*
X46778400Y-63607000D02*
X46778400Y-61107000D01*
X46773400Y-61107000D02*
X43748400Y-61107000D01*
%TO.C,D160*%
X329650000Y-42175200D02*
X329650000Y-44675200D01*
X329650000Y-44675200D02*
X332680000Y-44675200D01*
X332680000Y-44675200D02*
X332680000Y-42175200D01*
X332675000Y-42175200D02*
X329650000Y-42175200D01*
%TO.C,D158*%
X172222000Y-23041200D02*
X172222000Y-25541200D01*
X172222000Y-25541200D02*
X175252000Y-25541200D01*
X175252000Y-25541200D02*
X175252000Y-23041200D01*
X175247000Y-23041200D02*
X172222000Y-23041200D01*
%TO.C,D157*%
X367598000Y-99224000D02*
X367598000Y-101724000D01*
X367598000Y-101724000D02*
X370628000Y-101724000D01*
X370628000Y-101724000D02*
X370628000Y-99224000D01*
X370623000Y-99224000D02*
X367598000Y-99224000D01*
%TO.C,D156*%
X67573000Y-60988800D02*
X67573000Y-63488800D01*
X67573000Y-63488800D02*
X70603000Y-63488800D01*
X70603000Y-63488800D02*
X70603000Y-60988800D01*
X70598000Y-60988800D02*
X67573000Y-60988800D01*
%TO.C,D155*%
X267471000Y-41993500D02*
X267471000Y-44493500D01*
X267471000Y-44493500D02*
X270501000Y-44493500D01*
X270501000Y-44493500D02*
X270501000Y-41993500D01*
X270496000Y-41993500D02*
X267471000Y-41993500D01*
%TO.C,D153*%
X153172000Y-22939600D02*
X153172000Y-25439600D01*
X153172000Y-25439600D02*
X156202000Y-25439600D01*
X156202000Y-25439600D02*
X156202000Y-22939600D01*
X156197000Y-22939600D02*
X153172000Y-22939600D01*
%TO.C,D152*%
X96021600Y-23041200D02*
X96021600Y-25541200D01*
X96021600Y-25541200D02*
X99051600Y-25541200D01*
X99051600Y-25541200D02*
X99051600Y-23041200D01*
X99046600Y-23041200D02*
X96021600Y-23041200D01*
%TO.C,D151*%
X86522000Y-60938000D02*
X86522000Y-63438000D01*
X86522000Y-63438000D02*
X89552000Y-63438000D01*
X89552000Y-63438000D02*
X89552000Y-60938000D01*
X89547000Y-60938000D02*
X86522000Y-60938000D01*
%TO.C,D150*%
X248459000Y-42015000D02*
X248459000Y-44515000D01*
X248459000Y-44515000D02*
X251489000Y-44515000D01*
X251489000Y-44515000D02*
X251489000Y-42015000D01*
X251484000Y-42015000D02*
X248459000Y-42015000D01*
%TO.C,D148*%
X134172000Y-23023600D02*
X134172000Y-25523600D01*
X134172000Y-25523600D02*
X137202000Y-25523600D01*
X137202000Y-25523600D02*
X137202000Y-23023600D01*
X137197000Y-23023600D02*
X134172000Y-23023600D01*
%TO.C,D147*%
X77073200Y-22939600D02*
X77073200Y-25439600D01*
X77073200Y-25439600D02*
X80103200Y-25439600D01*
X80103200Y-25439600D02*
X80103200Y-22939600D01*
X80098200Y-22939600D02*
X77073200Y-22939600D01*
%TO.C,D146*%
X105420000Y-60988800D02*
X105420000Y-63488800D01*
X105420000Y-63488800D02*
X108450000Y-63488800D01*
X108450000Y-63488800D02*
X108450000Y-60988800D01*
X108445000Y-60988800D02*
X105420000Y-60988800D01*
%TO.C,D145*%
X229333000Y-42015000D02*
X229333000Y-44515000D01*
X229333000Y-44515000D02*
X232363000Y-44515000D01*
X232363000Y-44515000D02*
X232363000Y-42015000D01*
X232358000Y-42015000D02*
X229333000Y-42015000D01*
%TO.C,D143*%
X89189000Y-118426000D02*
X89189000Y-120926000D01*
X89189000Y-120926000D02*
X92219000Y-120926000D01*
X92219000Y-120926000D02*
X92219000Y-118426000D01*
X92214000Y-118426000D02*
X89189000Y-118426000D01*
%TO.C,D142*%
X367598000Y-80140400D02*
X367598000Y-82640400D01*
X367598000Y-82640400D02*
X370628000Y-82640400D01*
X370628000Y-82640400D02*
X370628000Y-80140400D01*
X370623000Y-80140400D02*
X367598000Y-80140400D01*
%TO.C,D141*%
X124317000Y-60938000D02*
X124317000Y-63438000D01*
X124317000Y-63438000D02*
X127347000Y-63438000D01*
X127347000Y-63438000D02*
X127347000Y-60938000D01*
X127342000Y-60938000D02*
X124317000Y-60938000D01*
%TO.C,D140*%
X210359000Y-42015000D02*
X210359000Y-44515000D01*
X210359000Y-44515000D02*
X213389000Y-44515000D01*
X213389000Y-44515000D02*
X213389000Y-42015000D01*
X213384000Y-42015000D02*
X210359000Y-42015000D01*
%TO.C,D138*%
X65338400Y-118393000D02*
X65338400Y-120893000D01*
X65338400Y-120893000D02*
X68368400Y-120893000D01*
X68368400Y-120893000D02*
X68368400Y-118393000D01*
X68363400Y-118393000D02*
X65338400Y-118393000D01*
%TO.C,D137*%
X348701000Y-80140400D02*
X348701000Y-82640400D01*
X348701000Y-82640400D02*
X351731000Y-82640400D01*
X351731000Y-82640400D02*
X351731000Y-80140400D01*
X351726000Y-80140400D02*
X348701000Y-80140400D01*
%TO.C,D136*%
X143215000Y-60988800D02*
X143215000Y-63488800D01*
X143215000Y-63488800D02*
X146245000Y-63488800D01*
X146245000Y-63488800D02*
X146245000Y-60988800D01*
X146240000Y-60988800D02*
X143215000Y-60988800D01*
%TO.C,D135*%
X191245000Y-41972000D02*
X191245000Y-44472000D01*
X191245000Y-44472000D02*
X194275000Y-44472000D01*
X194275000Y-44472000D02*
X194275000Y-41972000D01*
X194270000Y-41972000D02*
X191245000Y-41972000D01*
%TO.C,D133*%
X41411600Y-118421000D02*
X41411600Y-120921000D01*
X41411600Y-120921000D02*
X44441600Y-120921000D01*
X44441600Y-120921000D02*
X44441600Y-118421000D01*
X44436600Y-118421000D02*
X41411600Y-118421000D01*
%TO.C,D132*%
X329651000Y-80140400D02*
X329651000Y-82640400D01*
X329651000Y-82640400D02*
X332681000Y-82640400D01*
X332681000Y-82640400D02*
X332681000Y-80140400D01*
X332676000Y-80140400D02*
X329651000Y-80140400D01*
%TO.C,D131*%
X162163000Y-60938000D02*
X162163000Y-63438000D01*
X162163000Y-63438000D02*
X165193000Y-63438000D01*
X165193000Y-63438000D02*
X165193000Y-60938000D01*
X165188000Y-60938000D02*
X162163000Y-60938000D01*
%TO.C,D130*%
X172221000Y-41993500D02*
X172221000Y-44493500D01*
X172221000Y-44493500D02*
X175251000Y-44493500D01*
X175251000Y-44493500D02*
X175251000Y-41993500D01*
X175246000Y-41993500D02*
X172221000Y-41993500D01*
%TO.C,D128*%
X50910000Y-99190000D02*
X50910000Y-101690000D01*
X50910000Y-101690000D02*
X53940000Y-101690000D01*
X53940000Y-101690000D02*
X53940000Y-99190000D01*
X53935000Y-99190000D02*
X50910000Y-99190000D01*
%TO.C,D127*%
X293607000Y-80115000D02*
X293607000Y-82615000D01*
X293607000Y-82615000D02*
X296637000Y-82615000D01*
X296637000Y-82615000D02*
X296637000Y-80115000D01*
X296632000Y-80115000D02*
X293607000Y-80115000D01*
%TO.C,D126*%
X181112000Y-60988800D02*
X181112000Y-63488800D01*
X181112000Y-63488800D02*
X184142000Y-63488800D01*
X184142000Y-63488800D02*
X184142000Y-60988800D01*
X184137000Y-60988800D02*
X181112000Y-60988800D01*
%TO.C,D125*%
X153145000Y-42015000D02*
X153145000Y-44515000D01*
X153145000Y-44515000D02*
X156175000Y-44515000D01*
X156175000Y-44515000D02*
X156175000Y-42015000D01*
X156170000Y-42015000D02*
X153145000Y-42015000D01*
%TO.C,D123*%
X81745600Y-99190000D02*
X81745600Y-101690000D01*
X81745600Y-101690000D02*
X84775600Y-101690000D01*
X84775600Y-101690000D02*
X84775600Y-99190000D01*
X84770600Y-99190000D02*
X81745600Y-99190000D01*
%TO.C,D122*%
X262581000Y-80143000D02*
X262581000Y-82643000D01*
X262581000Y-82643000D02*
X265611000Y-82643000D01*
X265611000Y-82643000D02*
X265611000Y-80143000D01*
X265606000Y-80143000D02*
X262581000Y-80143000D01*
%TO.C,D121*%
X200060000Y-60988800D02*
X200060000Y-63488800D01*
X200060000Y-63488800D02*
X203090000Y-63488800D01*
X203090000Y-63488800D02*
X203090000Y-60988800D01*
X203085000Y-60988800D02*
X200060000Y-60988800D01*
%TO.C,D120*%
X134147000Y-42015000D02*
X134147000Y-44515000D01*
X134147000Y-44515000D02*
X137177000Y-44515000D01*
X137177000Y-44515000D02*
X137177000Y-42015000D01*
X137172000Y-42015000D02*
X134147000Y-42015000D01*
%TO.C,D118*%
X100592000Y-99190000D02*
X100592000Y-101690000D01*
X100592000Y-101690000D02*
X103622000Y-101690000D01*
X103622000Y-101690000D02*
X103622000Y-99190000D01*
X103617000Y-99190000D02*
X100592000Y-99190000D01*
%TO.C,D117*%
X243531000Y-80157000D02*
X243531000Y-82657000D01*
X243531000Y-82657000D02*
X246561000Y-82657000D01*
X246561000Y-82657000D02*
X246561000Y-80157000D01*
X246556000Y-80157000D02*
X243531000Y-80157000D01*
%TO.C,D116*%
X218958000Y-60938000D02*
X218958000Y-63438000D01*
X218958000Y-63438000D02*
X221988000Y-63438000D01*
X221988000Y-63438000D02*
X221988000Y-60938000D01*
X221983000Y-60938000D02*
X218958000Y-60938000D01*
%TO.C,D115*%
X115097000Y-42015000D02*
X115097000Y-44515000D01*
X115097000Y-44515000D02*
X118127000Y-44515000D01*
X118127000Y-44515000D02*
X118127000Y-42015000D01*
X118122000Y-42015000D02*
X115097000Y-42015000D01*
%TO.C,D113*%
X119490000Y-99190000D02*
X119490000Y-101690000D01*
X119490000Y-101690000D02*
X122520000Y-101690000D01*
X122520000Y-101690000D02*
X122520000Y-99190000D01*
X122515000Y-99190000D02*
X119490000Y-99190000D01*
%TO.C,D112*%
X224507000Y-80132000D02*
X224507000Y-82632000D01*
X224507000Y-82632000D02*
X227537000Y-82632000D01*
X227537000Y-82632000D02*
X227537000Y-80132000D01*
X227532000Y-80132000D02*
X224507000Y-80132000D01*
%TO.C,D111*%
X237906000Y-60988800D02*
X237906000Y-63488800D01*
X237906000Y-63488800D02*
X240936000Y-63488800D01*
X240936000Y-63488800D02*
X240936000Y-60988800D01*
X240931000Y-60988800D02*
X237906000Y-60988800D01*
%TO.C,D110*%
X96047000Y-42015000D02*
X96047000Y-44515000D01*
X96047000Y-44515000D02*
X99077000Y-44515000D01*
X99077000Y-44515000D02*
X99077000Y-42015000D01*
X99072000Y-42015000D02*
X96047000Y-42015000D01*
%TO.C,D109*%
X296072000Y-42184000D02*
X296072000Y-44684000D01*
X296072000Y-44684000D02*
X299102000Y-44684000D01*
X299102000Y-44684000D02*
X299102000Y-42184000D01*
X299097000Y-42184000D02*
X296072000Y-42184000D01*
%TO.C,D108*%
X138438000Y-99190000D02*
X138438000Y-101690000D01*
X138438000Y-101690000D02*
X141468000Y-101690000D01*
X141468000Y-101690000D02*
X141468000Y-99190000D01*
X141463000Y-99190000D02*
X138438000Y-99190000D01*
%TO.C,D107*%
X205407000Y-80182000D02*
X205407000Y-82682000D01*
X205407000Y-82682000D02*
X208437000Y-82682000D01*
X208437000Y-82682000D02*
X208437000Y-80182000D01*
X208432000Y-80182000D02*
X205407000Y-80182000D01*
%TO.C,D106*%
X256854000Y-60938000D02*
X256854000Y-63438000D01*
X256854000Y-63438000D02*
X259884000Y-63438000D01*
X259884000Y-63438000D02*
X259884000Y-60938000D01*
X259879000Y-60938000D02*
X256854000Y-60938000D01*
%TO.C,D105*%
X76997000Y-42015000D02*
X76997000Y-44515000D01*
X76997000Y-44515000D02*
X80027000Y-44515000D01*
X80027000Y-44515000D02*
X80027000Y-42015000D01*
X80022000Y-42015000D02*
X76997000Y-42015000D01*
%TO.C,D104*%
X115122000Y-22939600D02*
X115122000Y-25439600D01*
X115122000Y-25439600D02*
X118152000Y-25439600D01*
X118152000Y-25439600D02*
X118152000Y-22939600D01*
X118147000Y-22939600D02*
X115122000Y-22939600D01*
%TO.C,D103*%
X157387000Y-99190000D02*
X157387000Y-101690000D01*
X157387000Y-101690000D02*
X160417000Y-101690000D01*
X160417000Y-101690000D02*
X160417000Y-99190000D01*
X160412000Y-99190000D02*
X157387000Y-99190000D01*
%TO.C,D102*%
X186381000Y-80168000D02*
X186381000Y-82668000D01*
X186381000Y-82668000D02*
X189411000Y-82668000D01*
X189411000Y-82668000D02*
X189411000Y-80168000D01*
X189406000Y-80168000D02*
X186381000Y-80168000D01*
%TO.C,D101*%
X276057000Y-60938000D02*
X276057000Y-63438000D01*
X276057000Y-63438000D02*
X279087000Y-63438000D01*
X279087000Y-63438000D02*
X279087000Y-60938000D01*
X279082000Y-60938000D02*
X276057000Y-60938000D01*
%TO.C,D100*%
X57984500Y-41993500D02*
X57984500Y-44493500D01*
X57984500Y-44493500D02*
X61014500Y-44493500D01*
X61014500Y-44493500D02*
X61014500Y-41993500D01*
X61009500Y-41993500D02*
X57984500Y-41993500D01*
%TO.C,D99*%
X367648000Y-118444000D02*
X367648000Y-120944000D01*
X367648000Y-120944000D02*
X370678000Y-120944000D01*
X370678000Y-120944000D02*
X370678000Y-118444000D01*
X370673000Y-118444000D02*
X367648000Y-118444000D01*
%TO.C,D98*%
X176284000Y-99190000D02*
X176284000Y-101690000D01*
X176284000Y-101690000D02*
X179314000Y-101690000D01*
X179314000Y-101690000D02*
X179314000Y-99190000D01*
X179309000Y-99190000D02*
X176284000Y-99190000D01*
%TO.C,D97*%
X167357000Y-80182000D02*
X167357000Y-82682000D01*
X167357000Y-82682000D02*
X170387000Y-82682000D01*
X170387000Y-82682000D02*
X170387000Y-80182000D01*
X170382000Y-80182000D02*
X167357000Y-80182000D01*
%TO.C,D96*%
X300796000Y-60938000D02*
X300796000Y-63438000D01*
X300796000Y-63438000D02*
X303826000Y-63438000D01*
X303826000Y-63438000D02*
X303826000Y-60938000D01*
X303821000Y-60938000D02*
X300796000Y-60938000D01*
%TO.C,D95*%
X38770000Y-42015000D02*
X38770000Y-44515000D01*
X38770000Y-44515000D02*
X41800000Y-44515000D01*
X41800000Y-44515000D02*
X41800000Y-42015000D01*
X41795000Y-42015000D02*
X38770000Y-42015000D01*
D10*
%TO.C,C3*%
X338095000Y-66734800D02*
X336275000Y-66734800D01*
X338095000Y-65814800D02*
X338095000Y-66734800D01*
X336275000Y-65814800D02*
X338095000Y-65814800D01*
X336275000Y-66734800D02*
X336275000Y-65814800D01*
%TO.C,C5*%
X175502000Y-65707000D02*
X177322000Y-65707000D01*
X175502000Y-66627000D02*
X175502000Y-65707000D01*
X177322000Y-66627000D02*
X175502000Y-66627000D01*
X177322000Y-65707000D02*
X177322000Y-66627000D01*
%TO.C,C6*%
X367314000Y-65770500D02*
X369134000Y-65770500D01*
X367314000Y-66690500D02*
X367314000Y-65770500D01*
X369134000Y-66690500D02*
X367314000Y-66690500D01*
X369134000Y-65770500D02*
X369134000Y-66690500D01*
%TO.C,C8*%
X182971000Y-65707000D02*
X184791000Y-65707000D01*
X182971000Y-66627000D02*
X182971000Y-65707000D01*
X184791000Y-66627000D02*
X182971000Y-66627000D01*
X184791000Y-65707000D02*
X184791000Y-66627000D01*
%TO.C,C9*%
X245047000Y-28571300D02*
X243227000Y-28571300D01*
X245047000Y-27651300D02*
X245047000Y-28571300D01*
X243227000Y-27651300D02*
X245047000Y-27651300D01*
X243227000Y-28571300D02*
X243227000Y-27651300D01*
%TO.C,C11*%
X255849000Y-28571300D02*
X254029000Y-28571300D01*
X255849000Y-27651300D02*
X255849000Y-28571300D01*
X254029000Y-27651300D02*
X255849000Y-27651300D01*
X254029000Y-28571300D02*
X254029000Y-27651300D01*
%TO.C,C13*%
X357211000Y-65770500D02*
X359031000Y-65770500D01*
X357211000Y-66690500D02*
X357211000Y-65770500D01*
X359031000Y-66690500D02*
X357211000Y-66690500D01*
X359031000Y-65770500D02*
X359031000Y-66690500D01*
%TO.C,C16*%
X261249000Y-28571300D02*
X259429000Y-28571300D01*
X261249000Y-27651300D02*
X261249000Y-28571300D01*
X259429000Y-27651300D02*
X261249000Y-27651300D01*
X259429000Y-28571300D02*
X259429000Y-27651300D01*
%TO.C,C17*%
X179236000Y-65707000D02*
X181056000Y-65707000D01*
X179236000Y-66627000D02*
X179236000Y-65707000D01*
X181056000Y-66627000D02*
X179236000Y-66627000D01*
X181056000Y-65707000D02*
X181056000Y-66627000D01*
%TO.C,C18*%
X266650000Y-28571300D02*
X264830000Y-28571300D01*
X266650000Y-27651300D02*
X266650000Y-28571300D01*
X264830000Y-27651300D02*
X266650000Y-27651300D01*
X264830000Y-28571300D02*
X264830000Y-27651300D01*
%TO.C,C22*%
X250448000Y-28571300D02*
X248628000Y-28571300D01*
X250448000Y-27651300D02*
X250448000Y-28571300D01*
X248628000Y-27651300D02*
X250448000Y-27651300D01*
X248628000Y-28571300D02*
X248628000Y-27651300D01*
%TO.C,C24*%
X212641000Y-28571300D02*
X210821000Y-28571300D01*
X212641000Y-27651300D02*
X212641000Y-28571300D01*
X210821000Y-27651300D02*
X212641000Y-27651300D01*
X210821000Y-28571300D02*
X210821000Y-27651300D01*
%TO.C,C27*%
X326665000Y-66734800D02*
X324845000Y-66734800D01*
X326665000Y-65814800D02*
X326665000Y-66734800D01*
X324845000Y-65814800D02*
X326665000Y-65814800D01*
X324845000Y-66734800D02*
X324845000Y-65814800D01*
%TO.C,C29*%
X149364000Y-65707000D02*
X151184000Y-65707000D01*
X149364000Y-66627000D02*
X149364000Y-65707000D01*
X151184000Y-66627000D02*
X149364000Y-66627000D01*
X151184000Y-65707000D02*
X151184000Y-66627000D01*
%TO.C,C31*%
X164033000Y-28634800D02*
X162213000Y-28634800D01*
X164033000Y-27714800D02*
X164033000Y-28634800D01*
X162213000Y-27714800D02*
X164033000Y-27714800D01*
X162213000Y-28634800D02*
X162213000Y-27714800D01*
%TO.C,C32*%
X108289000Y-65707000D02*
X110109000Y-65707000D01*
X108289000Y-66627000D02*
X108289000Y-65707000D01*
X110109000Y-66627000D02*
X108289000Y-66627000D01*
X110109000Y-65707000D02*
X110109000Y-66627000D01*
%TO.C,C33*%
X228844000Y-28571300D02*
X227024000Y-28571300D01*
X228844000Y-27651300D02*
X228844000Y-28571300D01*
X227024000Y-27651300D02*
X228844000Y-27651300D01*
X227024000Y-28571300D02*
X227024000Y-27651300D01*
%TO.C,C36*%
X186705000Y-65707000D02*
X188525000Y-65707000D01*
X186705000Y-66627000D02*
X186705000Y-65707000D01*
X188525000Y-66627000D02*
X186705000Y-66627000D01*
X188525000Y-65707000D02*
X188525000Y-66627000D01*
%TO.C,C37*%
X201641000Y-65707000D02*
X203461000Y-65707000D01*
X201641000Y-66627000D02*
X201641000Y-65707000D01*
X203461000Y-66627000D02*
X201641000Y-66627000D01*
X203461000Y-65707000D02*
X203461000Y-66627000D01*
%TO.C,C39*%
X145630000Y-65707000D02*
X147450000Y-65707000D01*
X145630000Y-66627000D02*
X145630000Y-65707000D01*
X147450000Y-66627000D02*
X145630000Y-66627000D01*
X147450000Y-65707000D02*
X147450000Y-66627000D01*
%TO.C,C41*%
X351436000Y-65770500D02*
X353256000Y-65770500D01*
X351436000Y-66690500D02*
X351436000Y-65770500D01*
X353256000Y-66690500D02*
X351436000Y-66690500D01*
X353256000Y-65770500D02*
X353256000Y-66690500D01*
%TO.C,C42*%
X141896000Y-65707000D02*
X143716000Y-65707000D01*
X141896000Y-66627000D02*
X141896000Y-65707000D01*
X143716000Y-66627000D02*
X141896000Y-66627000D01*
X143716000Y-65707000D02*
X143716000Y-66627000D01*
%TO.C,C46*%
X72216600Y-28634800D02*
X70396600Y-28634800D01*
X72216600Y-27714800D02*
X72216600Y-28634800D01*
X70396600Y-27714800D02*
X72216600Y-27714800D01*
X70396600Y-28634800D02*
X70396600Y-27714800D01*
%TO.C,C47*%
X218042000Y-28571300D02*
X216222000Y-28571300D01*
X218042000Y-27651300D02*
X218042000Y-28571300D01*
X216222000Y-27651300D02*
X218042000Y-27651300D01*
X216222000Y-28571300D02*
X216222000Y-27651300D01*
%TO.C,C48*%
X66815600Y-28634800D02*
X64995600Y-28634800D01*
X66815600Y-27714800D02*
X66815600Y-28634800D01*
X64995600Y-27714800D02*
X66815600Y-27714800D01*
X64995600Y-28634800D02*
X64995600Y-27714800D01*
%TO.C,C49*%
X123225000Y-65707000D02*
X125045000Y-65707000D01*
X123225000Y-66627000D02*
X123225000Y-65707000D01*
X125045000Y-66627000D02*
X123225000Y-66627000D01*
X125045000Y-65707000D02*
X125045000Y-66627000D01*
%TO.C,C51*%
X363947000Y-65770500D02*
X365767000Y-65770500D01*
X363947000Y-66690500D02*
X363947000Y-65770500D01*
X365767000Y-66690500D02*
X363947000Y-66690500D01*
X365767000Y-65770500D02*
X365767000Y-66690500D01*
%TO.C,C54*%
X104555000Y-65707000D02*
X106375000Y-65707000D01*
X104555000Y-66627000D02*
X104555000Y-65707000D01*
X106375000Y-66627000D02*
X104555000Y-66627000D01*
X106375000Y-65707000D02*
X106375000Y-66627000D01*
%TO.C,C56*%
X375010000Y-65770500D02*
X376830000Y-65770500D01*
X375010000Y-66690500D02*
X375010000Y-65770500D01*
X376830000Y-66690500D02*
X375010000Y-66690500D01*
X376830000Y-65770500D02*
X376830000Y-66690500D01*
%TO.C,C57*%
X134428000Y-65707000D02*
X136248000Y-65707000D01*
X134428000Y-66627000D02*
X134428000Y-65707000D01*
X136248000Y-66627000D02*
X134428000Y-66627000D01*
X136248000Y-65707000D02*
X136248000Y-66627000D01*
%TO.C,C58*%
X100821000Y-65707000D02*
X102641000Y-65707000D01*
X100821000Y-66627000D02*
X100821000Y-65707000D01*
X102641000Y-66627000D02*
X100821000Y-66627000D01*
X102641000Y-65707000D02*
X102641000Y-66627000D01*
%TO.C,C61*%
X77617500Y-28634800D02*
X75797500Y-28634800D01*
X77617500Y-27714800D02*
X77617500Y-28634800D01*
X75797500Y-27714800D02*
X77617500Y-27714800D01*
X75797500Y-28634800D02*
X75797500Y-27714800D01*
%TO.C,C62*%
X104622000Y-28634800D02*
X102802000Y-28634800D01*
X104622000Y-27714800D02*
X104622000Y-28634800D01*
X102802000Y-27714800D02*
X104622000Y-27714800D01*
X102802000Y-28634800D02*
X102802000Y-27714800D01*
%TO.C,C63*%
X97087000Y-65707000D02*
X98907000Y-65707000D01*
X97087000Y-66627000D02*
X97087000Y-65707000D01*
X98907000Y-66627000D02*
X97087000Y-66627000D01*
X98907000Y-65707000D02*
X98907000Y-66627000D01*
%TO.C,C64*%
X56013800Y-28634800D02*
X54193800Y-28634800D01*
X56013800Y-27714800D02*
X56013800Y-28634800D01*
X54193800Y-27714800D02*
X56013800Y-27714800D01*
X54193800Y-28634800D02*
X54193800Y-27714800D01*
%TO.C,C66*%
X83018500Y-28634800D02*
X81198500Y-28634800D01*
X83018500Y-27714800D02*
X83018500Y-28634800D01*
X81198500Y-27714800D02*
X83018500Y-27714800D01*
X81198500Y-28634800D02*
X81198500Y-27714800D01*
%TO.C,C67*%
X50612800Y-28634800D02*
X48792800Y-28634800D01*
X50612800Y-27714800D02*
X50612800Y-28634800D01*
X48792800Y-27714800D02*
X50612800Y-27714800D01*
X48792800Y-28634800D02*
X48792800Y-27714800D01*
%TO.C,C71*%
X130694000Y-65707000D02*
X132514000Y-65707000D01*
X130694000Y-66627000D02*
X130694000Y-65707000D01*
X132514000Y-66627000D02*
X130694000Y-66627000D01*
X132514000Y-65707000D02*
X132514000Y-66627000D01*
%TO.C,C73*%
X93352900Y-65707000D02*
X95172900Y-65707000D01*
X93352900Y-66627000D02*
X93352900Y-65707000D01*
X95172900Y-66627000D02*
X93352900Y-66627000D01*
X95172900Y-65707000D02*
X95172900Y-66627000D01*
%TO.C,C74*%
X61414700Y-28634800D02*
X59594700Y-28634800D01*
X61414700Y-27714800D02*
X61414700Y-28634800D01*
X59594700Y-27714800D02*
X61414700Y-27714800D01*
X59594700Y-28634800D02*
X59594700Y-27714800D01*
%TO.C,C79*%
X194173000Y-65707000D02*
X195993000Y-65707000D01*
X194173000Y-66627000D02*
X194173000Y-65707000D01*
X195993000Y-66627000D02*
X194173000Y-66627000D01*
X195993000Y-65707000D02*
X195993000Y-66627000D01*
%TO.C,C81*%
X89618800Y-65707000D02*
X91438800Y-65707000D01*
X89618800Y-66627000D02*
X89618800Y-65707000D01*
X91438800Y-66627000D02*
X89618800Y-66627000D01*
X91438800Y-65707000D02*
X91438800Y-66627000D01*
%TO.C,C82*%
X126960000Y-65707000D02*
X128780000Y-65707000D01*
X126960000Y-66627000D02*
X126960000Y-65707000D01*
X128780000Y-66627000D02*
X126960000Y-66627000D01*
X128780000Y-65707000D02*
X128780000Y-66627000D01*
%TO.C,C83*%
X370682000Y-65770500D02*
X372502000Y-65770500D01*
X370682000Y-66690500D02*
X370682000Y-65770500D01*
X372502000Y-66690500D02*
X370682000Y-66690500D01*
X372502000Y-65770500D02*
X372502000Y-66690500D01*
%TO.C,C84*%
X93820300Y-28634800D02*
X92000300Y-28634800D01*
X93820300Y-27714800D02*
X93820300Y-28634800D01*
X92000300Y-27714800D02*
X93820300Y-27714800D01*
X92000300Y-28634800D02*
X92000300Y-27714800D01*
%TO.C,C88*%
X112023000Y-65707000D02*
X113843000Y-65707000D01*
X112023000Y-66627000D02*
X112023000Y-65707000D01*
X113843000Y-66627000D02*
X112023000Y-66627000D01*
X113843000Y-65707000D02*
X113843000Y-66627000D01*
%TO.C,C89*%
X190439000Y-65707000D02*
X192259000Y-65707000D01*
X190439000Y-66627000D02*
X190439000Y-65707000D01*
X192259000Y-66627000D02*
X190439000Y-66627000D01*
X192259000Y-65707000D02*
X192259000Y-66627000D01*
%TO.C,C91*%
X85884800Y-65707000D02*
X87704800Y-65707000D01*
X85884800Y-66627000D02*
X85884800Y-65707000D01*
X87704800Y-66627000D02*
X85884800Y-66627000D01*
X87704800Y-65707000D02*
X87704800Y-66627000D01*
%TO.C,C93*%
X99221300Y-28634800D02*
X97401300Y-28634800D01*
X99221300Y-27714800D02*
X99221300Y-28634800D01*
X97401300Y-27714800D02*
X99221300Y-27714800D01*
X97401300Y-28634800D02*
X97401300Y-27714800D01*
%TO.C,C96*%
X82150700Y-65707000D02*
X83970700Y-65707000D01*
X82150700Y-66627000D02*
X82150700Y-65707000D01*
X83970700Y-66627000D02*
X82150700Y-66627000D01*
X83970700Y-65707000D02*
X83970700Y-66627000D01*
%TO.C,C97*%
X45211900Y-28634800D02*
X43391900Y-28634800D01*
X45211900Y-27714800D02*
X45211900Y-28634800D01*
X43391900Y-27714800D02*
X45211900Y-27714800D01*
X43391900Y-28634800D02*
X43391900Y-27714800D01*
%TO.C,C98*%
X115757000Y-65707000D02*
X117577000Y-65707000D01*
X115757000Y-66627000D02*
X115757000Y-65707000D01*
X117577000Y-66627000D02*
X115757000Y-66627000D01*
X117577000Y-65707000D02*
X117577000Y-66627000D01*
%TO.C,C101*%
X334285000Y-66734800D02*
X332465000Y-66734800D01*
X334285000Y-65814800D02*
X334285000Y-66734800D01*
X332465000Y-65814800D02*
X334285000Y-65814800D01*
X332465000Y-66734800D02*
X332465000Y-65814800D01*
%TO.C,C23*%
X168034000Y-65707000D02*
X169854000Y-65707000D01*
X168034000Y-66627000D02*
X168034000Y-65707000D01*
X169854000Y-66627000D02*
X168034000Y-66627000D01*
X169854000Y-65707000D02*
X169854000Y-66627000D01*
%TO.C,C26*%
X347108000Y-65770500D02*
X348928000Y-65770500D01*
X347108000Y-66690500D02*
X347108000Y-65770500D01*
X348928000Y-66690500D02*
X347108000Y-66690500D01*
X348928000Y-65770500D02*
X348928000Y-66690500D01*
%TO.C,C28*%
X70948500Y-65707000D02*
X72768500Y-65707000D01*
X70948500Y-66627000D02*
X70948500Y-65707000D01*
X72768500Y-66627000D02*
X70948500Y-66627000D01*
X72768500Y-65707000D02*
X72768500Y-66627000D01*
%TO.C,C15*%
X171768000Y-65707000D02*
X173588000Y-65707000D01*
X171768000Y-66627000D02*
X171768000Y-65707000D01*
X173588000Y-66627000D02*
X171768000Y-66627000D01*
X173588000Y-65707000D02*
X173588000Y-66627000D01*
%TO.C,C21*%
X34410000Y-28634800D02*
X32590000Y-28634800D01*
X34410000Y-27714800D02*
X34410000Y-28634800D01*
X32590000Y-27714800D02*
X34410000Y-27714800D01*
X32590000Y-28634800D02*
X32590000Y-27714800D01*
%TO.C,C19*%
X115424000Y-28634800D02*
X113604000Y-28634800D01*
X115424000Y-27714800D02*
X115424000Y-28634800D01*
X113604000Y-27714800D02*
X115424000Y-27714800D01*
X113604000Y-28634800D02*
X113604000Y-27714800D01*
%TO.C,C44*%
X67214400Y-65707000D02*
X69034400Y-65707000D01*
X67214400Y-66627000D02*
X67214400Y-65707000D01*
X69034400Y-66627000D02*
X67214400Y-66627000D01*
X69034400Y-65707000D02*
X69034400Y-66627000D01*
%TO.C,C38*%
X59746300Y-65707000D02*
X61566300Y-65707000D01*
X59746300Y-66627000D02*
X59746300Y-65707000D01*
X61566300Y-66627000D02*
X59746300Y-66627000D01*
X61566300Y-65707000D02*
X61566300Y-66627000D01*
%TO.C,C52*%
X197907000Y-65707000D02*
X199727000Y-65707000D01*
X197907000Y-66627000D02*
X197907000Y-65707000D01*
X199727000Y-66627000D02*
X197907000Y-66627000D01*
X199727000Y-65707000D02*
X199727000Y-66627000D01*
%TO.C,C34*%
X137028000Y-28634800D02*
X135208000Y-28634800D01*
X137028000Y-27714800D02*
X137028000Y-28634800D01*
X135208000Y-27714800D02*
X137028000Y-27714800D01*
X135208000Y-28634800D02*
X135208000Y-27714800D01*
%TO.C,C43*%
X138162000Y-65707000D02*
X139982000Y-65707000D01*
X138162000Y-66627000D02*
X138162000Y-65707000D01*
X139982000Y-66627000D02*
X138162000Y-66627000D01*
X139982000Y-65707000D02*
X139982000Y-66627000D01*
%TO.C,C53*%
X131627000Y-28634800D02*
X129807000Y-28634800D01*
X131627000Y-27714800D02*
X131627000Y-28634800D01*
X129807000Y-27714800D02*
X131627000Y-27714800D01*
X129807000Y-28634800D02*
X129807000Y-27714800D01*
%TO.C,C59*%
X120825000Y-28634800D02*
X119005000Y-28634800D01*
X120825000Y-27714800D02*
X120825000Y-28634800D01*
X119005000Y-27714800D02*
X120825000Y-27714800D01*
X119005000Y-28634800D02*
X119005000Y-27714800D01*
%TO.C,C78*%
X330475000Y-66734800D02*
X328655000Y-66734800D01*
X330475000Y-65814800D02*
X330475000Y-66734800D01*
X328655000Y-65814800D02*
X330475000Y-65814800D01*
X328655000Y-66734800D02*
X328655000Y-65814800D01*
%TO.C,C86*%
X74682600Y-65707000D02*
X76502600Y-65707000D01*
X74682600Y-66627000D02*
X74682600Y-65707000D01*
X76502600Y-66627000D02*
X74682600Y-66627000D01*
X76502600Y-65707000D02*
X76502600Y-66627000D01*
%TO.C,C92*%
X223443000Y-28634800D02*
X221623000Y-28634800D01*
X223443000Y-27714800D02*
X223443000Y-28634800D01*
X221623000Y-27714800D02*
X223443000Y-27714800D01*
X221623000Y-28634800D02*
X221623000Y-27714800D01*
%TO.C,C99*%
X205375000Y-65707000D02*
X207195000Y-65707000D01*
X205375000Y-66627000D02*
X205375000Y-65707000D01*
X207195000Y-66627000D02*
X205375000Y-66627000D01*
X207195000Y-65707000D02*
X207195000Y-66627000D01*
%TO.C,C87*%
X110023000Y-28634800D02*
X108203000Y-28634800D01*
X110023000Y-27714800D02*
X110023000Y-28634800D01*
X108203000Y-27714800D02*
X110023000Y-27714800D01*
X108203000Y-28634800D02*
X108203000Y-27714800D01*
%TO.C,C76*%
X56012200Y-65707000D02*
X57832200Y-65707000D01*
X56012200Y-66627000D02*
X56012200Y-65707000D01*
X57832200Y-66627000D02*
X56012200Y-66627000D01*
X57832200Y-65707000D02*
X57832200Y-66627000D01*
%TO.C,C94*%
X63480300Y-65707000D02*
X65300300Y-65707000D01*
X63480300Y-66627000D02*
X63480300Y-65707000D01*
X65300300Y-66627000D02*
X63480300Y-66627000D01*
X65300300Y-65707000D02*
X65300300Y-66627000D01*
%TO.C,C77*%
X52278100Y-65707000D02*
X54098100Y-65707000D01*
X52278100Y-66627000D02*
X52278100Y-65707000D01*
X54098100Y-66627000D02*
X52278100Y-66627000D01*
X54098100Y-65707000D02*
X54098100Y-66627000D01*
%TO.C,C69*%
X119491000Y-65707000D02*
X121311000Y-65707000D01*
X119491000Y-66627000D02*
X119491000Y-65707000D01*
X121311000Y-66627000D02*
X119491000Y-66627000D01*
X121311000Y-65707000D02*
X121311000Y-66627000D01*
%TO.C,C68*%
X78416600Y-65707000D02*
X80236600Y-65707000D01*
X78416600Y-66627000D02*
X78416600Y-65707000D01*
X80236600Y-66627000D02*
X78416600Y-66627000D01*
X80236600Y-65707000D02*
X80236600Y-66627000D01*
%TO.C,C72*%
X353843000Y-65770500D02*
X355663000Y-65770500D01*
X353843000Y-66690500D02*
X353843000Y-65770500D01*
X355663000Y-66690500D02*
X353843000Y-66690500D01*
X355663000Y-65770500D02*
X355663000Y-66690500D01*
%TO.C,C4*%
X164300000Y-65707000D02*
X166120000Y-65707000D01*
X164300000Y-66627000D02*
X164300000Y-65707000D01*
X166120000Y-66627000D02*
X164300000Y-66627000D01*
X166120000Y-65707000D02*
X166120000Y-66627000D01*
%TO.C,C7*%
X160566000Y-65707000D02*
X162386000Y-65707000D01*
X160566000Y-66627000D02*
X160566000Y-65707000D01*
X162386000Y-66627000D02*
X160566000Y-66627000D01*
X162386000Y-65707000D02*
X162386000Y-66627000D01*
%TO.C,C10*%
X142429000Y-28634800D02*
X140609000Y-28634800D01*
X142429000Y-27714800D02*
X142429000Y-28634800D01*
X140609000Y-27714800D02*
X142429000Y-27714800D01*
X140609000Y-28634800D02*
X140609000Y-27714800D01*
%TO.C,C14*%
X360579000Y-65770500D02*
X362399000Y-65770500D01*
X360579000Y-66690500D02*
X360579000Y-65770500D01*
X362399000Y-66690500D02*
X360579000Y-66690500D01*
X362399000Y-65770500D02*
X362399000Y-66690500D01*
%TO.C,C2*%
X48544100Y-65707000D02*
X50364100Y-65707000D01*
X48544100Y-66627000D02*
X48544100Y-65707000D01*
X50364100Y-66627000D02*
X48544100Y-66627000D01*
X50364100Y-65707000D02*
X50364100Y-66627000D01*
%TO.C,C12*%
X156832000Y-65707000D02*
X158652000Y-65707000D01*
X156832000Y-66627000D02*
X156832000Y-65707000D01*
X158652000Y-66627000D02*
X156832000Y-66627000D01*
X158652000Y-65707000D02*
X158652000Y-66627000D01*
%TO.C,C1*%
X147830000Y-28634800D02*
X146010000Y-28634800D01*
X147830000Y-27714800D02*
X147830000Y-28634800D01*
X146010000Y-27714800D02*
X147830000Y-27714800D01*
X146010000Y-28634800D02*
X146010000Y-27714800D01*
%TD*%
M02*
