%TF.GenerationSoftware,KiCad,Pcbnew,(5.1.10)-1*%
%TF.CreationDate,2022-01-02T12:28:33-08:00*%
%TF.ProjectId,chgray-keyboard,63686772-6179-42d6-9b65-79626f617264,Yeet2*%
%TF.SameCoordinates,Original*%
%TF.FileFunction,Legend,Bot*%
%TF.FilePolarity,Positive*%
%FSLAX46Y46*%
G04 Gerber Fmt 4.6, Leading zero omitted, Abs format (unit mm)*
G04 Created by KiCad (PCBNEW (5.1.10)-1) date 2022-01-02 12:28:33*
%MOMM*%
%LPD*%
G01*
G04 APERTURE LIST*
%ADD10C,0.950000*%
G04 APERTURE END LIST*
D10*
X214882523Y-107727761D02*
X214882523Y-109632523D01*
X216215857Y-105632523D02*
X214882523Y-107727761D01*
X213549190Y-105632523D01*
X210692047Y-109442047D02*
X211073000Y-109632523D01*
X211834904Y-109632523D01*
X212215857Y-109442047D01*
X212406333Y-109061095D01*
X212406333Y-107537285D01*
X212215857Y-107156333D01*
X211834904Y-106965857D01*
X211073000Y-106965857D01*
X210692047Y-107156333D01*
X210501571Y-107537285D01*
X210501571Y-107918238D01*
X212406333Y-108299190D01*
X207263476Y-109442047D02*
X207644428Y-109632523D01*
X208406333Y-109632523D01*
X208787285Y-109442047D01*
X208977761Y-109061095D01*
X208977761Y-107537285D01*
X208787285Y-107156333D01*
X208406333Y-106965857D01*
X207644428Y-106965857D01*
X207263476Y-107156333D01*
X207073000Y-107537285D01*
X207073000Y-107918238D01*
X208977761Y-108299190D01*
X205930142Y-106965857D02*
X204406333Y-106965857D01*
X205358714Y-105632523D02*
X205358714Y-109061095D01*
X205168238Y-109442047D01*
X204787285Y-109632523D01*
X204406333Y-109632523D01*
X198120619Y-105632523D02*
X200025380Y-105632523D01*
X200215857Y-107537285D01*
X200025380Y-107346809D01*
X199644428Y-107156333D01*
X198692047Y-107156333D01*
X198311095Y-107346809D01*
X198120619Y-107537285D01*
X197930142Y-107918238D01*
X197930142Y-108870619D01*
X198120619Y-109251571D01*
X198311095Y-109442047D01*
X198692047Y-109632523D01*
X199644428Y-109632523D01*
X200025380Y-109442047D01*
X200215857Y-109251571D01*
X196596809Y-105632523D02*
X193930142Y-105632523D01*
X195644428Y-109632523D01*
X192596809Y-106013476D02*
X192406333Y-105823000D01*
X192025380Y-105632523D01*
X191073000Y-105632523D01*
X190692047Y-105823000D01*
X190501571Y-106013476D01*
X190311095Y-106394428D01*
X190311095Y-106775380D01*
X190501571Y-107346809D01*
X192787285Y-109632523D01*
X190311095Y-109632523D01*
M02*
